<?xml version="1.0" encoding="UTF-8" standalone="no"?>
<!DOCTYPE svg PUBLIC "-//W3C//DTD SVG 1.1//EN"
 "http://www.w3.org/Graphics/SVG/1.1/DTD/svg11.dtd">
<!-- Generated by graphviz version 2.43.0 (0)
 -->
<!-- Title: main.cpp Pages: 1 -->
<svg width="1610pt" height="341pt"
 viewBox="0.00 0.00 1609.50 341.00" xmlns="http://www.w3.org/2000/svg" xmlns:xlink="http://www.w3.org/1999/xlink">
<g id="graph0" class="graph" transform="scale(1 1) rotate(0) translate(4 337)">
<title>main.cpp</title>
<polygon fill="white" stroke="transparent" points="-4,4 -4,-337 1605.5,-337 1605.5,4 -4,4"/>
<!-- Node1 -->
<g id="node1" class="node">
<title>Node1</title>
<g id="a_node1"><a xlink:title=" ">
<polygon fill="#bfbfbf" stroke="black" points="551.5,-313.5 551.5,-332.5 613.5,-332.5 613.5,-313.5 551.5,-313.5"/>
<text text-anchor="middle" x="582.5" y="-320.5" font-family="Helvetica,sans-Serif" font-size="10.00">main.cpp</text>
</a>
</g>
</g>
<!-- Node2 -->
<g id="node2" class="node">
<title>Node2</title>
<g id="a_node2"><a xlink:href="decl_2alm_8hpp.html" target="_top" xlink:title=" ">
<polygon fill="white" stroke="black" points="515.5,-252 515.5,-271 649.5,-271 649.5,-252 515.5,-252"/>
<text text-anchor="middle" x="582.5" y="-259" font-family="Helvetica,sans-Serif" font-size="10.00">panoc&#45;alm/decl/alm.hpp</text>
</a>
</g>
</g>
<!-- Node1&#45;&gt;Node2 -->
<g id="edge1" class="edge">
<title>Node1&#45;&gt;Node2</title>
<path fill="none" stroke="midnightblue" d="M582.5,-313.48C582.5,-305.08 582.5,-291.98 582.5,-281.16"/>
<polygon fill="midnightblue" stroke="midnightblue" points="586,-281.01 582.5,-271.01 579,-281.01 586,-281.01"/>
</g>
<!-- Node17 -->
<g id="node17" class="node">
<title>Node17</title>
<g id="a_node17"><a xlink:href="inner_2decl_2panoc_8hpp.html" target="_top" xlink:title=" ">
<polygon fill="white" stroke="black" points="787,-246.5 787,-276.5 906,-276.5 906,-246.5 787,-246.5"/>
<text text-anchor="start" x="795" y="-264.5" font-family="Helvetica,sans-Serif" font-size="10.00">panoc&#45;alm/inner/decl</text>
<text text-anchor="middle" x="846.5" y="-253.5" font-family="Helvetica,sans-Serif" font-size="10.00">/panoc.hpp</text>
</a>
</g>
</g>
<!-- Node1&#45;&gt;Node17 -->
<g id="edge17" class="edge">
<title>Node1&#45;&gt;Node17</title>
<path fill="none" stroke="midnightblue" d="M613.56,-315C653.45,-306.01 723.84,-290.15 776.83,-278.2"/>
<polygon fill="midnightblue" stroke="midnightblue" points="777.86,-281.56 786.85,-275.94 776.32,-274.73 777.86,-281.56"/>
</g>
<!-- Node27 -->
<g id="node27" class="node">
<title>Node27</title>
<g id="a_node27"><a xlink:href="decl_2lbfgs_8hpp.html" target="_top" xlink:title=" ">
<polygon fill="white" stroke="black" points="0,-246.5 0,-276.5 147,-276.5 147,-246.5 0,-246.5"/>
<text text-anchor="start" x="8" y="-264.5" font-family="Helvetica,sans-Serif" font-size="10.00">panoc&#45;alm/inner/directions</text>
<text text-anchor="middle" x="73.5" y="-253.5" font-family="Helvetica,sans-Serif" font-size="10.00">/decl/lbfgs.hpp</text>
</a>
</g>
</g>
<!-- Node1&#45;&gt;Node27 -->
<g id="edge35" class="edge">
<title>Node1&#45;&gt;Node27</title>
<path fill="none" stroke="midnightblue" d="M551.43,-318.37C474.43,-309.37 272.71,-285.79 157.46,-272.31"/>
<polygon fill="midnightblue" stroke="midnightblue" points="157.6,-268.81 147.26,-271.12 156.79,-275.76 157.6,-268.81"/>
</g>
<!-- Node28 -->
<g id="node28" class="node">
<title>Node28</title>
<g id="a_node28"><a xlink:href="CasADiLoader_8hpp.html" target="_top" xlink:title=" ">
<polygon fill="white" stroke="black" points="357.5,-246.5 357.5,-276.5 497.5,-276.5 497.5,-246.5 357.5,-246.5"/>
<text text-anchor="start" x="365.5" y="-264.5" font-family="Helvetica,sans-Serif" font-size="10.00">panoc&#45;alm/interop/casadi</text>
<text text-anchor="middle" x="427.5" y="-253.5" font-family="Helvetica,sans-Serif" font-size="10.00">/CasADiLoader.hpp</text>
</a>
</g>
</g>
<!-- Node1&#45;&gt;Node28 -->
<g id="edge40" class="edge">
<title>Node1&#45;&gt;Node28</title>
<path fill="none" stroke="midnightblue" d="M560.29,-313.48C537.73,-304.81 502.12,-291.15 473.46,-280.14"/>
<polygon fill="midnightblue" stroke="midnightblue" points="474.62,-276.84 464.03,-276.52 472.11,-283.37 474.62,-276.84"/>
</g>
<!-- Node29 -->
<g id="node29" class="node">
<title>Node29</title>
<g id="a_node29"><a xlink:title=" ">
<polygon fill="white" stroke="#bfbfbf" points="924.5,-252 924.5,-271 984.5,-271 984.5,-252 924.5,-252"/>
<text text-anchor="middle" x="954.5" y="-259" font-family="Helvetica,sans-Serif" font-size="10.00">iostream</text>
</a>
</g>
</g>
<!-- Node1&#45;&gt;Node29 -->
<g id="edge43" class="edge">
<title>Node1&#45;&gt;Node29</title>
<path fill="none" stroke="midnightblue" d="M613.58,-320.01C672.84,-315.72 805.77,-303.75 914.5,-277 917.56,-276.25 920.71,-275.34 923.83,-274.36"/>
<polygon fill="midnightblue" stroke="midnightblue" points="925.25,-277.57 933.59,-271.03 922.99,-270.95 925.25,-277.57"/>
</g>
<!-- Node3 -->
<g id="node3" class="node">
<title>Node3</title>
<g id="a_node3"><a xlink:href="panoc-fwd_8hpp.html" target="_top" xlink:title=" ">
<polygon fill="white" stroke="black" points="567,-179.5 567,-209.5 686,-209.5 686,-179.5 567,-179.5"/>
<text text-anchor="start" x="575" y="-197.5" font-family="Helvetica,sans-Serif" font-size="10.00">panoc&#45;alm/inner/decl</text>
<text text-anchor="middle" x="626.5" y="-186.5" font-family="Helvetica,sans-Serif" font-size="10.00">/panoc&#45;fwd.hpp</text>
</a>
</g>
</g>
<!-- Node2&#45;&gt;Node3 -->
<g id="edge2" class="edge">
<title>Node2&#45;&gt;Node3</title>
<path fill="none" stroke="midnightblue" d="M588.43,-251.73C594.27,-243.12 603.41,-229.61 611.27,-217.99"/>
<polygon fill="midnightblue" stroke="midnightblue" points="614.26,-219.83 616.96,-209.59 608.46,-215.91 614.26,-219.83"/>
</g>
<!-- Node5 -->
<g id="node5" class="node">
<title>Node5</title>
<g id="a_node5"><a xlink:href="include_2panoc-alm_2util_2problem_8hpp.html" target="_top" xlink:title=" ">
<polygon fill="white" stroke="black" points="296.5,-185 296.5,-204 448.5,-204 448.5,-185 296.5,-185"/>
<text text-anchor="middle" x="372.5" y="-192" font-family="Helvetica,sans-Serif" font-size="10.00">panoc&#45;alm/util/problem.hpp</text>
</a>
</g>
</g>
<!-- Node2&#45;&gt;Node5 -->
<g id="edge4" class="edge">
<title>Node2&#45;&gt;Node5</title>
<path fill="none" stroke="midnightblue" d="M554.61,-251.87C517.4,-240.35 451.4,-219.92 409.9,-207.08"/>
<polygon fill="midnightblue" stroke="midnightblue" points="410.76,-203.68 400.17,-204.06 408.69,-210.36 410.76,-203.68"/>
</g>
<!-- Node10 -->
<g id="node10" class="node">
<title>Node10</title>
<g id="a_node10"><a xlink:title=" ">
<polygon fill="white" stroke="#bfbfbf" points="580.5,-118 580.5,-137 630.5,-137 630.5,-118 580.5,-118"/>
<text text-anchor="middle" x="605.5" y="-125" font-family="Helvetica,sans-Serif" font-size="10.00">chrono</text>
</a>
</g>
</g>
<!-- Node2&#45;&gt;Node10 -->
<g id="edge15" class="edge">
<title>Node2&#45;&gt;Node10</title>
<path fill="none" stroke="midnightblue" d="M575.96,-251.77C565.5,-236.68 547.18,-204.84 557.5,-179 563.09,-165 574.62,-152.65 584.98,-143.68"/>
<polygon fill="midnightblue" stroke="midnightblue" points="587.35,-146.26 592.9,-137.23 582.93,-140.83 587.35,-146.26"/>
</g>
<!-- Node14 -->
<g id="node14" class="node">
<title>Node14</title>
<g id="a_node14"><a xlink:href="solverstatus_8hpp.html" target="_top" xlink:title=" ">
<polygon fill="white" stroke="black" points="704,-185 704,-204 875,-204 875,-185 704,-185"/>
<text text-anchor="middle" x="789.5" y="-192" font-family="Helvetica,sans-Serif" font-size="10.00">panoc&#45;alm/util/solverstatus.hpp</text>
</a>
</g>
</g>
<!-- Node2&#45;&gt;Node14 -->
<g id="edge13" class="edge">
<title>Node2&#45;&gt;Node14</title>
<path fill="none" stroke="midnightblue" d="M609.99,-251.87C646.67,-240.35 711.73,-219.92 752.63,-207.08"/>
<polygon fill="midnightblue" stroke="midnightblue" points="753.74,-210.4 762.23,-204.06 751.64,-203.72 753.74,-210.4"/>
</g>
<!-- Node16 -->
<g id="node16" class="node">
<title>Node16</title>
<g id="a_node16"><a xlink:title=" ">
<polygon fill="white" stroke="#bfbfbf" points="466.5,-185 466.5,-204 510.5,-204 510.5,-185 466.5,-185"/>
<text text-anchor="middle" x="488.5" y="-192" font-family="Helvetica,sans-Serif" font-size="10.00">string</text>
</a>
</g>
</g>
<!-- Node2&#45;&gt;Node16 -->
<g id="edge16" class="edge">
<title>Node2&#45;&gt;Node16</title>
<path fill="none" stroke="midnightblue" d="M569.82,-251.73C554.32,-241.01 527.86,-222.72 509.34,-209.91"/>
<polygon fill="midnightblue" stroke="midnightblue" points="511.19,-206.94 500.98,-204.13 507.21,-212.69 511.19,-206.94"/>
</g>
<!-- Node4 -->
<g id="node4" class="node">
<title>Node4</title>
<g id="a_node4"><a xlink:href="lbfgs-fwd_8hpp.html" target="_top" xlink:title=" ">
<polygon fill="white" stroke="black" points="181,-112.5 181,-142.5 328,-142.5 328,-112.5 181,-112.5"/>
<text text-anchor="start" x="189" y="-130.5" font-family="Helvetica,sans-Serif" font-size="10.00">panoc&#45;alm/inner/directions</text>
<text text-anchor="middle" x="254.5" y="-119.5" font-family="Helvetica,sans-Serif" font-size="10.00">/decl/lbfgs&#45;fwd.hpp</text>
</a>
</g>
</g>
<!-- Node3&#45;&gt;Node4 -->
<g id="edge3" class="edge">
<title>Node3&#45;&gt;Node4</title>
<path fill="none" stroke="midnightblue" d="M566.73,-183.06C504.87,-172.25 407.75,-155.28 338.25,-143.13"/>
<polygon fill="midnightblue" stroke="midnightblue" points="338.66,-139.65 328.2,-141.38 337.45,-146.55 338.66,-139.65"/>
</g>
<!-- Node6 -->
<g id="node6" class="node">
<title>Node6</title>
<g id="a_node6"><a xlink:href="box_8hpp.html" target="_top" xlink:title=" ">
<polygon fill="white" stroke="black" points="23.5,-118 23.5,-137 79.5,-137 79.5,-118 23.5,-118"/>
<text text-anchor="middle" x="51.5" y="-125" font-family="Helvetica,sans-Serif" font-size="10.00">box.hpp</text>
</a>
</g>
</g>
<!-- Node5&#45;&gt;Node6 -->
<g id="edge5" class="edge">
<title>Node5&#45;&gt;Node6</title>
<path fill="none" stroke="midnightblue" d="M322.92,-184.95C244.55,-171.39 99.71,-146.16 88.5,-143 85.91,-142.27 83.26,-141.43 80.61,-140.52"/>
<polygon fill="midnightblue" stroke="midnightblue" points="81.82,-137.24 71.22,-137.06 79.4,-143.8 81.82,-137.24"/>
</g>
<!-- Node9 -->
<g id="node9" class="node">
<title>Node9</title>
<g id="a_node9"><a xlink:title=" ">
<polygon fill="white" stroke="#bfbfbf" points="510.5,-118 510.5,-137 562.5,-137 562.5,-118 510.5,-118"/>
<text text-anchor="middle" x="536.5" y="-125" font-family="Helvetica,sans-Serif" font-size="10.00">cassert</text>
</a>
</g>
</g>
<!-- Node5&#45;&gt;Node9 -->
<g id="edge8" class="edge">
<title>Node5&#45;&gt;Node9</title>
<path fill="none" stroke="midnightblue" d="M394.26,-184.97C419.74,-174.97 463.22,-157.86 500.5,-143 502.14,-142.35 503.81,-141.68 505.5,-141"/>
<polygon fill="midnightblue" stroke="midnightblue" points="507.21,-144.09 515.19,-137.11 504.61,-137.59 507.21,-144.09"/>
</g>
<!-- Node5&#45;&gt;Node10 -->
<g id="edge9" class="edge">
<title>Node5&#45;&gt;Node10</title>
<path fill="none" stroke="midnightblue" d="M413.82,-184.97C454.45,-176.13 517.98,-161.08 571.5,-143 573.42,-142.35 575.37,-141.65 577.34,-140.9"/>
<polygon fill="midnightblue" stroke="midnightblue" points="579.03,-143.99 587,-137 576.41,-137.5 579.03,-143.99"/>
</g>
<!-- Node11 -->
<g id="node11" class="node">
<title>Node11</title>
<g id="a_node11"><a xlink:title=" ">
<polygon fill="white" stroke="#bfbfbf" points="98,-118 98,-137 163,-137 163,-118 98,-118"/>
<text text-anchor="middle" x="130.5" y="-125" font-family="Helvetica,sans-Serif" font-size="10.00">functional</text>
</a>
</g>
</g>
<!-- Node5&#45;&gt;Node11 -->
<g id="edge10" class="edge">
<title>Node5&#45;&gt;Node11</title>
<path fill="none" stroke="midnightblue" d="M334.05,-184.97C293.38,-175.68 227.48,-159.89 171.5,-143 168.72,-142.16 165.85,-141.25 162.98,-140.3"/>
<polygon fill="midnightblue" stroke="midnightblue" points="163.96,-136.93 153.36,-137.01 161.69,-143.56 163.96,-136.93"/>
</g>
<!-- Node12 -->
<g id="node12" class="node">
<title>Node12</title>
<g id="a_node12"><a xlink:title=" ">
<polygon fill="white" stroke="#bfbfbf" points="346.5,-118 346.5,-137 404.5,-137 404.5,-118 346.5,-118"/>
<text text-anchor="middle" x="375.5" y="-125" font-family="Helvetica,sans-Serif" font-size="10.00">memory</text>
</a>
</g>
</g>
<!-- Node5&#45;&gt;Node12 -->
<g id="edge11" class="edge">
<title>Node5&#45;&gt;Node12</title>
<path fill="none" stroke="midnightblue" d="M372.9,-184.73C373.35,-175.18 374.06,-159.62 374.63,-147.28"/>
<polygon fill="midnightblue" stroke="midnightblue" points="378.14,-147.28 375.1,-137.13 371.14,-146.96 378.14,-147.28"/>
</g>
<!-- Node13 -->
<g id="node13" class="node">
<title>Node13</title>
<g id="a_node13"><a xlink:title=" ">
<polygon fill="white" stroke="#bfbfbf" points="423,-118 423,-137 492,-137 492,-118 423,-118"/>
<text text-anchor="middle" x="457.5" y="-125" font-family="Helvetica,sans-Serif" font-size="10.00">type_traits</text>
</a>
</g>
</g>
<!-- Node5&#45;&gt;Node13 -->
<g id="edge12" class="edge">
<title>Node5&#45;&gt;Node13</title>
<path fill="none" stroke="midnightblue" d="M383.96,-184.73C397.86,-174.11 421.48,-156.05 438.19,-143.26"/>
<polygon fill="midnightblue" stroke="midnightblue" points="440.4,-145.98 446.22,-137.13 436.15,-140.42 440.4,-145.98"/>
</g>
<!-- Node7 -->
<g id="node7" class="node">
<title>Node7</title>
<g id="a_node7"><a xlink:href="vec_8hpp.html" target="_top" xlink:title=" ">
<polygon fill="white" stroke="black" points="24,-56.5 24,-75.5 79,-75.5 79,-56.5 24,-56.5"/>
<text text-anchor="middle" x="51.5" y="-63.5" font-family="Helvetica,sans-Serif" font-size="10.00">vec.hpp</text>
</a>
</g>
</g>
<!-- Node6&#45;&gt;Node7 -->
<g id="edge6" class="edge">
<title>Node6&#45;&gt;Node7</title>
<path fill="none" stroke="midnightblue" d="M51.5,-117.98C51.5,-109.58 51.5,-96.48 51.5,-85.66"/>
<polygon fill="midnightblue" stroke="midnightblue" points="55,-85.51 51.5,-75.51 48,-85.51 55,-85.51"/>
</g>
<!-- Node8 -->
<g id="node8" class="node">
<title>Node8</title>
<g id="a_node8"><a xlink:title=" ">
<polygon fill="white" stroke="#bfbfbf" points="17,-0.5 17,-19.5 86,-19.5 86,-0.5 17,-0.5"/>
<text text-anchor="middle" x="51.5" y="-7.5" font-family="Helvetica,sans-Serif" font-size="10.00">Eigen/Core</text>
</a>
</g>
</g>
<!-- Node7&#45;&gt;Node8 -->
<g id="edge7" class="edge">
<title>Node7&#45;&gt;Node8</title>
<path fill="none" stroke="midnightblue" d="M51.5,-56.08C51.5,-49.01 51.5,-38.86 51.5,-29.99"/>
<polygon fill="midnightblue" stroke="midnightblue" points="55,-29.75 51.5,-19.75 48,-29.75 55,-29.75"/>
</g>
<!-- Node15 -->
<g id="node15" class="node">
<title>Node15</title>
<g id="a_node15"><a xlink:title=" ">
<polygon fill="white" stroke="#bfbfbf" points="765.5,-118 765.5,-137 813.5,-137 813.5,-118 765.5,-118"/>
<text text-anchor="middle" x="789.5" y="-125" font-family="Helvetica,sans-Serif" font-size="10.00">iosfwd</text>
</a>
</g>
</g>
<!-- Node14&#45;&gt;Node15 -->
<g id="edge14" class="edge">
<title>Node14&#45;&gt;Node15</title>
<path fill="none" stroke="midnightblue" d="M789.5,-184.73C789.5,-175.18 789.5,-159.62 789.5,-147.28"/>
<polygon fill="midnightblue" stroke="midnightblue" points="793,-147.13 789.5,-137.13 786,-147.13 793,-147.13"/>
</g>
<!-- Node17&#45;&gt;Node3 -->
<g id="edge19" class="edge">
<title>Node17&#45;&gt;Node3</title>
<path fill="none" stroke="midnightblue" d="M799.03,-246.48C765.32,-236.51 719.87,-223.09 684.08,-212.51"/>
<polygon fill="midnightblue" stroke="midnightblue" points="684.84,-209.09 674.26,-209.61 682.86,-215.8 684.84,-209.09"/>
</g>
<!-- Node17&#45;&gt;Node5 -->
<g id="edge29" class="edge">
<title>Node17&#45;&gt;Node5</title>
<path fill="none" stroke="midnightblue" d="M786.75,-253.49C710.3,-244.36 573.84,-227.47 457.5,-210 448.79,-208.69 439.59,-207.22 430.59,-205.73"/>
<polygon fill="midnightblue" stroke="midnightblue" points="430.99,-202.24 420.55,-204.04 429.83,-209.15 430.99,-202.24"/>
</g>
<!-- Node17&#45;&gt;Node10 -->
<g id="edge32" class="edge">
<title>Node17&#45;&gt;Node10</title>
<path fill="none" stroke="midnightblue" d="M861.66,-246.26C878.3,-228.91 900.53,-199.4 883.5,-179 868.06,-160.51 712.66,-140.66 641.16,-132.43"/>
<polygon fill="midnightblue" stroke="midnightblue" points="641.17,-128.91 630.84,-131.25 640.38,-135.86 641.17,-128.91"/>
</g>
<!-- Node17&#45;&gt;Node14 -->
<g id="edge30" class="edge">
<title>Node17&#45;&gt;Node14</title>
<path fill="none" stroke="midnightblue" d="M834.13,-246.4C825.24,-236.26 813.24,-222.57 803.91,-211.94"/>
<polygon fill="midnightblue" stroke="midnightblue" points="806.35,-209.41 797.12,-204.19 801.09,-214.02 806.35,-209.41"/>
</g>
<!-- Node17&#45;&gt;Node16 -->
<g id="edge34" class="edge">
<title>Node17&#45;&gt;Node16</title>
<path fill="none" stroke="midnightblue" d="M786.89,-250.69C728.38,-240.93 636.65,-225.23 557.5,-210 545.44,-207.68 532.24,-204.95 520.65,-202.49"/>
<polygon fill="midnightblue" stroke="midnightblue" points="521.04,-199 510.52,-200.33 519.57,-205.84 521.04,-199"/>
</g>
<!-- Node18 -->
<g id="node18" class="node">
<title>Node18</title>
<g id="a_node18"><a xlink:href="lbfgs-stepsize_8hpp.html" target="_top" xlink:title=" ">
<polygon fill="white" stroke="black" points="1340,-179.5 1340,-209.5 1459,-209.5 1459,-179.5 1340,-179.5"/>
<text text-anchor="start" x="1348" y="-197.5" font-family="Helvetica,sans-Serif" font-size="10.00">panoc&#45;alm/inner/decl</text>
<text text-anchor="middle" x="1399.5" y="-186.5" font-family="Helvetica,sans-Serif" font-size="10.00">/lbfgs&#45;stepsize.hpp</text>
</a>
</g>
</g>
<!-- Node17&#45;&gt;Node18 -->
<g id="edge18" class="edge">
<title>Node17&#45;&gt;Node18</title>
<path fill="none" stroke="midnightblue" d="M906.26,-247.49C909.38,-246.95 912.47,-246.45 915.5,-246 1096.44,-219.14 1144.38,-235.62 1325.5,-210 1326.96,-209.79 1328.43,-209.58 1329.91,-209.35"/>
<polygon fill="midnightblue" stroke="midnightblue" points="1330.5,-212.8 1339.82,-207.76 1329.39,-205.89 1330.5,-212.8"/>
</g>
<!-- Node19 -->
<g id="node19" class="node">
<title>Node19</title>
<g id="a_node19"><a xlink:href="panoc-stop-crit_8hpp.html" target="_top" xlink:title=" ">
<polygon fill="white" stroke="black" points="1164,-179.5 1164,-209.5 1283,-209.5 1283,-179.5 1164,-179.5"/>
<text text-anchor="start" x="1172" y="-197.5" font-family="Helvetica,sans-Serif" font-size="10.00">panoc&#45;alm/inner/decl</text>
<text text-anchor="middle" x="1223.5" y="-186.5" font-family="Helvetica,sans-Serif" font-size="10.00">/panoc&#45;stop&#45;crit.hpp</text>
</a>
</g>
</g>
<!-- Node17&#45;&gt;Node19 -->
<g id="edge20" class="edge">
<title>Node17&#45;&gt;Node19</title>
<path fill="none" stroke="midnightblue" d="M906.3,-247.71C909.41,-247.12 912.49,-246.54 915.5,-246 1018.12,-227.5 1047.1,-228.95 1153.82,-210.05"/>
<polygon fill="midnightblue" stroke="midnightblue" points="1154.47,-213.49 1163.7,-208.29 1153.24,-206.6 1154.47,-213.49"/>
</g>
<!-- Node22 -->
<g id="node22" class="node">
<title>Node22</title>
<g id="a_node22"><a xlink:href="panoc-direction-update_8hpp.html" target="_top" xlink:title=" ">
<polygon fill="white" stroke="black" points="101,-179.5 101,-209.5 278,-209.5 278,-179.5 101,-179.5"/>
<text text-anchor="start" x="109" y="-197.5" font-family="Helvetica,sans-Serif" font-size="10.00">panoc&#45;alm/inner/directions</text>
<text text-anchor="middle" x="189.5" y="-186.5" font-family="Helvetica,sans-Serif" font-size="10.00">/decl/panoc&#45;direction&#45;update.hpp</text>
</a>
</g>
</g>
<!-- Node17&#45;&gt;Node22 -->
<g id="edge23" class="edge">
<title>Node17&#45;&gt;Node22</title>
<path fill="none" stroke="midnightblue" d="M786.77,-255.54C666.91,-245.51 399.75,-222.79 288.13,-210.01"/>
<polygon fill="midnightblue" stroke="midnightblue" points="288.48,-206.53 278.14,-208.85 287.67,-213.48 288.48,-206.53"/>
</g>
<!-- Node23 -->
<g id="node23" class="node">
<title>Node23</title>
<g id="a_node23"><a xlink:href="atomic__stop__signal_8hpp.html" target="_top" xlink:title=" ">
<polygon fill="white" stroke="black" points="1477.5,-179.5 1477.5,-209.5 1601.5,-209.5 1601.5,-179.5 1477.5,-179.5"/>
<text text-anchor="start" x="1485.5" y="-197.5" font-family="Helvetica,sans-Serif" font-size="10.00">panoc&#45;alm/util/atomic</text>
<text text-anchor="middle" x="1539.5" y="-186.5" font-family="Helvetica,sans-Serif" font-size="10.00">_stop_signal.hpp</text>
</a>
</g>
</g>
<!-- Node17&#45;&gt;Node23 -->
<g id="edge25" class="edge">
<title>Node17&#45;&gt;Node23</title>
<path fill="none" stroke="midnightblue" d="M906.25,-247.4C909.37,-246.89 912.47,-246.42 915.5,-246 1156.19,-213.05 1222.58,-241.91 1466.98,-210.07"/>
<polygon fill="midnightblue" stroke="midnightblue" points="1467.79,-213.5 1477.24,-208.71 1466.87,-206.56 1467.79,-213.5"/>
</g>
<!-- Node24 -->
<g id="node24" class="node">
<title>Node24</title>
<g id="a_node24"><a xlink:title=" ">
<polygon fill="white" stroke="#bfbfbf" points="1400.5,-118 1400.5,-137 1450.5,-137 1450.5,-118 1400.5,-118"/>
<text text-anchor="middle" x="1425.5" y="-125" font-family="Helvetica,sans-Serif" font-size="10.00">atomic</text>
</a>
</g>
</g>
<!-- Node17&#45;&gt;Node24 -->
<g id="edge31" class="edge">
<title>Node17&#45;&gt;Node24</title>
<path fill="none" stroke="midnightblue" d="M906.26,-247.51C909.38,-246.97 912.47,-246.46 915.5,-246 1081.9,-220.65 1136.4,-272.96 1292.5,-210 1313.03,-201.72 1313.01,-191.18 1331.5,-179 1353.07,-164.79 1379.04,-151.08 1398.2,-141.54"/>
<polygon fill="midnightblue" stroke="midnightblue" points="1399.85,-144.63 1407.28,-137.08 1396.76,-138.35 1399.85,-144.63"/>
</g>
<!-- Node25 -->
<g id="node25" class="node">
<title>Node25</title>
<g id="a_node25"><a xlink:href="lipschitz_8hpp.html" target="_top" xlink:title=" ">
<polygon fill="white" stroke="black" points="931.5,-185 931.5,-204 1083.5,-204 1083.5,-185 931.5,-185"/>
<text text-anchor="middle" x="1007.5" y="-192" font-family="Helvetica,sans-Serif" font-size="10.00">panoc&#45;alm/util/lipschitz.hpp</text>
</a>
</g>
</g>
<!-- Node17&#45;&gt;Node25 -->
<g id="edge27" class="edge">
<title>Node17&#45;&gt;Node25</title>
<path fill="none" stroke="midnightblue" d="M881.43,-246.4C909.93,-234.89 949.79,-218.8 977.02,-207.81"/>
<polygon fill="midnightblue" stroke="midnightblue" points="978.47,-211 986.43,-204.01 975.85,-204.51 978.47,-211"/>
</g>
<!-- Node26 -->
<g id="node26" class="node">
<title>Node26</title>
<g id="a_node26"><a xlink:title=" ">
<polygon fill="white" stroke="#bfbfbf" points="1101.5,-185 1101.5,-204 1145.5,-204 1145.5,-185 1101.5,-185"/>
<text text-anchor="middle" x="1123.5" y="-192" font-family="Helvetica,sans-Serif" font-size="10.00">limits</text>
</a>
</g>
</g>
<!-- Node17&#45;&gt;Node26 -->
<g id="edge33" class="edge">
<title>Node17&#45;&gt;Node26</title>
<path fill="none" stroke="midnightblue" d="M906.33,-247.9C909.43,-247.26 912.5,-246.62 915.5,-246 994.11,-229.75 1016.27,-235.18 1092.5,-210 1094.17,-209.45 1095.86,-208.83 1097.56,-208.17"/>
<polygon fill="midnightblue" stroke="midnightblue" points="1099.27,-211.25 1107.06,-204.07 1096.5,-204.82 1099.27,-211.25"/>
</g>
<!-- Node20 -->
<g id="node20" class="node">
<title>Node20</title>
<g id="a_node20"><a xlink:title=" ">
<polygon fill="white" stroke="#bfbfbf" points="1203,-118 1203,-137 1260,-137 1260,-118 1203,-118"/>
<text text-anchor="middle" x="1231.5" y="-125" font-family="Helvetica,sans-Serif" font-size="10.00">ostream</text>
</a>
</g>
</g>
<!-- Node19&#45;&gt;Node20 -->
<g id="edge21" class="edge">
<title>Node19&#45;&gt;Node20</title>
<path fill="none" stroke="midnightblue" d="M1225.24,-179.4C1226.4,-169.96 1227.94,-157.45 1229.2,-147.19"/>
<polygon fill="midnightblue" stroke="midnightblue" points="1232.68,-147.55 1230.43,-137.19 1225.73,-146.69 1232.68,-147.55"/>
</g>
<!-- Node21 -->
<g id="node21" class="node">
<title>Node21</title>
<g id="a_node21"><a xlink:title=" ">
<polygon fill="white" stroke="#bfbfbf" points="1120,-118 1120,-137 1185,-137 1185,-118 1120,-118"/>
<text text-anchor="middle" x="1152.5" y="-125" font-family="Helvetica,sans-Serif" font-size="10.00">stdexcept</text>
</a>
</g>
</g>
<!-- Node19&#45;&gt;Node21 -->
<g id="edge22" class="edge">
<title>Node19&#45;&gt;Node21</title>
<path fill="none" stroke="midnightblue" d="M1208.09,-179.4C1196.69,-168.96 1181.17,-154.75 1169.43,-144"/>
<polygon fill="midnightblue" stroke="midnightblue" points="1171.74,-141.37 1162,-137.19 1167.01,-146.53 1171.74,-141.37"/>
</g>
<!-- Node22&#45;&gt;Node6 -->
<g id="edge24" class="edge">
<title>Node22&#45;&gt;Node6</title>
<path fill="none" stroke="midnightblue" d="M159.56,-179.4C135.56,-168.09 102.16,-152.36 78.87,-141.39"/>
<polygon fill="midnightblue" stroke="midnightblue" points="80.1,-138.1 69.56,-137.01 77.12,-144.43 80.1,-138.1"/>
</g>
<!-- Node23&#45;&gt;Node24 -->
<g id="edge26" class="edge">
<title>Node23&#45;&gt;Node24</title>
<path fill="none" stroke="midnightblue" d="M1514.76,-179.4C1495.29,-168.29 1468.33,-152.92 1449.15,-141.98"/>
<polygon fill="midnightblue" stroke="midnightblue" points="1450.84,-138.92 1440.42,-137.01 1447.37,-145 1450.84,-138.92"/>
</g>
<!-- Node25&#45;&gt;Node7 -->
<g id="edge28" class="edge">
<title>Node25&#45;&gt;Node7</title>
<path fill="none" stroke="midnightblue" d="M992.8,-184.83C962.29,-167.33 889.37,-128.13 822.5,-112 681,-77.88 224.93,-69.27 89.66,-67.44"/>
<polygon fill="midnightblue" stroke="midnightblue" points="89.43,-63.93 79.39,-67.3 89.34,-70.93 89.43,-63.93"/>
</g>
<!-- Node27&#45;&gt;Node4 -->
<g id="edge38" class="edge">
<title>Node27&#45;&gt;Node4</title>
<path fill="none" stroke="midnightblue" d="M72.6,-246.48C72.25,-228.54 74.43,-197.55 91.5,-179 103.56,-165.9 140.23,-153.97 175.74,-144.99"/>
<polygon fill="midnightblue" stroke="midnightblue" points="176.83,-148.33 185.7,-142.54 175.15,-141.53 176.83,-148.33"/>
</g>
<!-- Node27&#45;&gt;Node6 -->
<g id="edge36" class="edge">
<title>Node27&#45;&gt;Node6</title>
<path fill="none" stroke="midnightblue" d="M68.78,-246.07C65.69,-236.05 61.8,-222.34 59.5,-210 55.52,-188.65 53.44,-163.76 52.41,-147.16"/>
<polygon fill="midnightblue" stroke="midnightblue" points="55.91,-146.92 51.86,-137.13 48.92,-147.31 55.91,-146.92"/>
</g>
<!-- Node27&#45;&gt;Node7 -->
<g id="edge37" class="edge">
<title>Node27&#45;&gt;Node7</title>
<path fill="none" stroke="midnightblue" d="M63.49,-246.15C49.29,-224.83 23.97,-182.98 14.5,-143 11.32,-129.59 9.85,-124.97 14.5,-112 18.44,-101 26.36,-90.77 33.86,-82.85"/>
<polygon fill="midnightblue" stroke="midnightblue" points="36.39,-85.27 41.06,-75.76 31.48,-80.28 36.39,-85.27"/>
</g>
<!-- Node27&#45;&gt;Node22 -->
<g id="edge39" class="edge">
<title>Node27&#45;&gt;Node22</title>
<path fill="none" stroke="midnightblue" d="M98.67,-246.4C115.24,-237.11 137.14,-224.84 155.28,-214.67"/>
<polygon fill="midnightblue" stroke="midnightblue" points="157.37,-217.52 164.38,-209.58 153.94,-211.41 157.37,-217.52"/>
</g>
<!-- Node28&#45;&gt;Node5 -->
<g id="edge41" class="edge">
<title>Node28&#45;&gt;Node5</title>
<path fill="none" stroke="midnightblue" d="M415.57,-246.4C406.99,-236.26 395.4,-222.57 386.41,-211.94"/>
<polygon fill="midnightblue" stroke="midnightblue" points="388.99,-209.57 379.86,-204.19 383.64,-214.09 388.99,-209.57"/>
</g>
<!-- Node28&#45;&gt;Node16 -->
<g id="edge42" class="edge">
<title>Node28&#45;&gt;Node16</title>
<path fill="none" stroke="midnightblue" d="M440.74,-246.4C450.34,-236.16 463.35,-222.3 473.37,-211.62"/>
<polygon fill="midnightblue" stroke="midnightblue" points="476.05,-213.88 480.34,-204.19 470.95,-209.09 476.05,-213.88"/>
</g>
</g>
</svg>
