<?xml version="1.0" encoding="UTF-8" standalone="no"?>
<!DOCTYPE svg PUBLIC "-//W3C//DTD SVG 1.1//EN"
 "http://www.w3.org/Graphics/SVG/1.1/DTD/svg11.dtd">
<!-- Generated by graphviz version 2.43.0 (0)
 -->
<!-- Title: reset Pages: 1 -->
<svg width="348pt" height="78pt"
 viewBox="0.00 0.00 348.00 77.50" xmlns="http://www.w3.org/2000/svg" xmlns:xlink="http://www.w3.org/1999/xlink">
<g id="graph0" class="graph" transform="scale(1 1) rotate(0) translate(4 73.5)">
<title>reset</title>
<polygon fill="white" stroke="transparent" points="-4,4 -4,-73.5 344,-73.5 344,4 -4,4"/>
<!-- Node1 -->
<g id="node1" class="node">
<title>Node1</title>
<g id="a_node1"><a xlink:title="Throw away the approximation and all previous vectors s and y.">
<polygon fill="#bfbfbf" stroke="black" points="299,-28 299,-47 340,-47 340,-28 299,-28"/>
<text text-anchor="middle" x="319.5" y="-35" font-family="Helvetica,sans-Serif" font-size="10.00">reset</text>
</a>
</g>
</g>
<!-- Node2 -->
<g id="node2" class="node">
<title>Node2</title>
<g id="a_node2"><a xlink:href="classpa_1_1LBFGS.html#a57b2556ee8993b06958b9c14511fd4ba" target="_top" xlink:title="Re&#45;allocate storage for a problem with a different size.">
<polygon fill="white" stroke="black" points="217,-28 217,-47 263,-47 263,-28 217,-28"/>
<text text-anchor="middle" x="240" y="-35" font-family="Helvetica,sans-Serif" font-size="10.00">resize</text>
</a>
</g>
</g>
<!-- Node1&#45;&gt;Node2 -->
<g id="edge1" class="edge">
<title>Node1&#45;&gt;Node2</title>
<path fill="none" stroke="midnightblue" d="M288.89,-37.5C280.29,-37.5 271.06,-37.5 263.01,-37.5"/>
<polygon fill="midnightblue" stroke="midnightblue" points="288.94,-41 298.94,-37.5 288.94,-34 288.94,-41"/>
</g>
<!-- Node3 -->
<g id="node3" class="node">
<title>Node3</title>
<g id="a_node3"><a xlink:href="classpa_1_1LBFGS.html#af78287282b1c23d282a586aa2386a15a" target="_top" xlink:title=" ">
<polygon fill="white" stroke="black" points="66.5,-50 66.5,-69 114.5,-69 114.5,-50 66.5,-50"/>
<text text-anchor="middle" x="90.5" y="-57" font-family="Helvetica,sans-Serif" font-size="10.00">LBFGS</text>
</a>
</g>
</g>
<!-- Node2&#45;&gt;Node3 -->
<g id="edge2" class="edge">
<title>Node2&#45;&gt;Node3</title>
<path fill="none" stroke="midnightblue" d="M206.89,-42.29C179.09,-46.44 139.53,-52.34 114.71,-56.04"/>
<polygon fill="midnightblue" stroke="midnightblue" points="207.54,-45.73 216.92,-40.79 206.51,-38.81 207.54,-45.73"/>
</g>
<!-- Node4 -->
<g id="node4" class="node">
<title>Node4</title>
<g id="a_node4"><a xlink:href="classpa_1_1StructuredPANOCLBFGSSolver.html#ade95d8a7a1892d4087d6fffc958cde6e" target="_top" xlink:title=" ">
<polygon fill="white" stroke="black" points="0,-0.5 0,-30.5 181,-30.5 181,-0.5 0,-0.5"/>
<text text-anchor="start" x="8" y="-18.5" font-family="Helvetica,sans-Serif" font-size="10.00">pa::StructuredPANOCLBFGSSolver</text>
<text text-anchor="middle" x="90.5" y="-7.5" font-family="Helvetica,sans-Serif" font-size="10.00">::operator()</text>
</a>
</g>
</g>
<!-- Node2&#45;&gt;Node4 -->
<g id="edge3" class="edge">
<title>Node2&#45;&gt;Node4</title>
<path fill="none" stroke="midnightblue" d="M206.89,-32.71C199.07,-31.54 190.33,-30.24 181.24,-28.89"/>
<polygon fill="midnightblue" stroke="midnightblue" points="206.51,-36.19 216.92,-34.21 207.54,-29.27 206.51,-36.19"/>
</g>
</g>
</svg>
