<?xml version="1.0" encoding="UTF-8" standalone="no"?>
<!DOCTYPE svg PUBLIC "-//W3C//DTD SVG 1.1//EN"
 "http://www.w3.org/Graphics/SVG/1.1/DTD/svg11.dtd">
<!-- Generated by graphviz version 2.43.0 (0)
 -->
<!-- Title: y Pages: 1 -->
<svg width="473pt" height="172pt"
 viewBox="0.00 0.00 473.00 172.00" xmlns="http://www.w3.org/2000/svg" xmlns:xlink="http://www.w3.org/1999/xlink">
<g id="graph0" class="graph" transform="scale(1 1) rotate(0) translate(4 168)">
<title>y</title>
<polygon fill="white" stroke="transparent" points="-4,4 -4,-168 469,-168 469,4 -4,4"/>
<!-- Node1 -->
<g id="node1" class="node">
<title>Node1</title>
<g id="a_node1"><a xlink:title=" ">
<polygon fill="#bfbfbf" stroke="black" points="436,-60.5 436,-79.5 465,-79.5 465,-60.5 436,-60.5"/>
<text text-anchor="middle" x="450.5" y="-67.5" font-family="Helvetica,sans-Serif" font-size="10.00">y</text>
</a>
</g>
</g>
<!-- Node2 -->
<g id="node2" class="node">
<title>Node2</title>
<g id="a_node2"><a xlink:href="classpa_1_1LBFGS.html#a33d8dd6fd12e1394c9637610086dae4c" target="_top" xlink:title="Apply the inverse Hessian approximation to the given vector q.">
<polygon fill="white" stroke="black" points="286.5,-144.5 286.5,-163.5 330.5,-163.5 330.5,-144.5 286.5,-144.5"/>
<text text-anchor="middle" x="308.5" y="-151.5" font-family="Helvetica,sans-Serif" font-size="10.00">apply</text>
</a>
</g>
</g>
<!-- Node1&#45;&gt;Node2 -->
<g id="edge1" class="edge">
<title>Node1&#45;&gt;Node2</title>
<path fill="none" stroke="midnightblue" d="M440.2,-88.57C431.76,-103.46 417.9,-123.69 400,-135 378.96,-148.29 350.22,-152.45 330.82,-153.67"/>
<polygon fill="midnightblue" stroke="midnightblue" points="443.32,-90.16 444.95,-79.7 437.15,-86.86 443.32,-90.16"/>
</g>
<!-- Node4 -->
<g id="node4" class="node">
<title>Node4</title>
<g id="a_node4"><a xlink:href="classhanging__chain__dynamics_1_1HangingChain.html#a2e4d9874164cfa87334b099f3ce1f288" target="_top" xlink:title=" ">
<polygon fill="white" stroke="black" points="217,-77 217,-107 400,-107 400,-77 217,-77"/>
<text text-anchor="start" x="225" y="-95" font-family="Helvetica,sans-Serif" font-size="10.00">hanging_chain_dynamics.Hanging</text>
<text text-anchor="middle" x="308.5" y="-84" font-family="Helvetica,sans-Serif" font-size="10.00">Chain.dynamics</text>
</a>
</g>
</g>
<!-- Node1&#45;&gt;Node4 -->
<g id="edge3" class="edge">
<title>Node1&#45;&gt;Node4</title>
<path fill="none" stroke="midnightblue" d="M425.85,-73.72C418.36,-74.89 409.59,-76.27 400.27,-77.74"/>
<polygon fill="midnightblue" stroke="midnightblue" points="426.49,-77.16 435.82,-72.15 425.4,-70.24 426.49,-77.16"/>
</g>
<!-- Node5 -->
<g id="node5" class="node">
<title>Node5</title>
<g id="a_node5"><a xlink:href="classpa_1_1LBFGS.html#adeddc1e1eb8ce1c1bbaf931b6f9a5b9c" target="_top" xlink:title="Scale the stored y vectors by the given factor.">
<polygon fill="white" stroke="black" points="282,-38.5 282,-57.5 335,-57.5 335,-38.5 282,-38.5"/>
<text text-anchor="middle" x="308.5" y="-45.5" font-family="Helvetica,sans-Serif" font-size="10.00">scale_y</text>
</a>
</g>
</g>
<!-- Node1&#45;&gt;Node5 -->
<g id="edge5" class="edge">
<title>Node1&#45;&gt;Node5</title>
<path fill="none" stroke="midnightblue" d="M425.67,-66.26C400.47,-62.3 360.86,-56.07 335.03,-52.01"/>
<polygon fill="midnightblue" stroke="midnightblue" points="425.4,-69.76 435.82,-67.85 426.49,-62.84 425.4,-69.76"/>
</g>
<!-- Node6 -->
<g id="node6" class="node">
<title>Node6</title>
<g id="a_node6"><a xlink:href="classpa_1_1LBFGS.html#a4db75f8c280c32a05a44bb83769befb1" target="_top" xlink:title="Update the inverse Hessian approximation using the new vectors xₖ₊₁ and pₖ₊₁.">
<polygon fill="white" stroke="black" points="283.5,-0.5 283.5,-19.5 333.5,-19.5 333.5,-0.5 283.5,-0.5"/>
<text text-anchor="middle" x="308.5" y="-7.5" font-family="Helvetica,sans-Serif" font-size="10.00">update</text>
</a>
</g>
</g>
<!-- Node1&#45;&gt;Node6 -->
<g id="edge6" class="edge">
<title>Node1&#45;&gt;Node6</title>
<path fill="none" stroke="midnightblue" d="M433.48,-53.28C424.42,-44.78 412.44,-35 400,-29 378.89,-18.82 352.42,-14.07 333.57,-11.87"/>
<polygon fill="midnightblue" stroke="midnightblue" points="431.04,-55.79 440.62,-60.3 435.94,-50.8 431.04,-55.79"/>
</g>
<!-- Node3 -->
<g id="node3" class="node">
<title>Node3</title>
<g id="a_node3"><a xlink:href="classpa_1_1StructuredPANOCLBFGSSolver.html#ade95d8a7a1892d4087d6fffc958cde6e" target="_top" xlink:title=" ">
<polygon fill="white" stroke="black" points="0,-67 0,-97 181,-97 181,-67 0,-67"/>
<text text-anchor="start" x="8" y="-85" font-family="Helvetica,sans-Serif" font-size="10.00">pa::StructuredPANOCLBFGSSolver</text>
<text text-anchor="middle" x="90.5" y="-74" font-family="Helvetica,sans-Serif" font-size="10.00">::operator()</text>
</a>
</g>
</g>
<!-- Node2&#45;&gt;Node3 -->
<g id="edge2" class="edge">
<title>Node2&#45;&gt;Node3</title>
<path fill="none" stroke="midnightblue" d="M276.07,-148.94C258.49,-145.73 236.29,-141.03 217,-135 183.93,-124.65 147.61,-108.79 122.59,-97.12"/>
<polygon fill="midnightblue" stroke="midnightblue" points="275.9,-152.47 286.36,-150.75 277.11,-145.57 275.9,-152.47"/>
</g>
<!-- Node4&#45;&gt;Node4 -->
<g id="edge4" class="edge">
<title>Node4&#45;&gt;Node4</title>
<path fill="none" stroke="midnightblue" d="M333.73,-117.46C330.6,-122.18 322.19,-125.5 308.5,-125.5 286.04,-125.5 277.79,-116.56 283.75,-107.16"/>
<polygon fill="midnightblue" stroke="midnightblue" points="337.21,-116.98 333.25,-107.16 330.22,-117.31 337.21,-116.98"/>
</g>
<!-- Node6&#45;&gt;Node3 -->
<g id="edge7" class="edge">
<title>Node6&#45;&gt;Node3</title>
<path fill="none" stroke="midnightblue" d="M273.26,-15.58C256.16,-18.77 235.27,-23.28 217,-29 183.93,-39.35 147.61,-55.21 122.59,-66.88"/>
<polygon fill="midnightblue" stroke="midnightblue" points="274.14,-18.98 283.36,-13.76 272.9,-12.09 274.14,-18.98"/>
</g>
</g>
</svg>
