<?xml version="1.0" encoding="UTF-8" standalone="no"?>
<!DOCTYPE svg PUBLIC "-//W3C//DTD SVG 1.1//EN"
 "http://www.w3.org/Graphics/SVG/1.1/DTD/svg11.dtd">
<!-- Generated by graphviz version 2.43.0 (0)
 -->
<!-- Title: n Pages: 1 -->
<svg width="662pt" height="368pt"
 viewBox="0.00 0.00 662.00 368.07" xmlns="http://www.w3.org/2000/svg" xmlns:xlink="http://www.w3.org/1999/xlink">
<g id="graph0" class="graph" transform="scale(1 1) rotate(0) translate(4 364.07)">
<title>n</title>
<polygon fill="white" stroke="transparent" points="-4,4 -4,-364.07 658,-364.07 658,4 -4,4"/>
<!-- Node1 -->
<g id="node1" class="node">
<title>Node1</title>
<g id="a_node1"><a xlink:title="Get the size of the s, y, x and g vectors in the buffer.">
<polygon fill="#bfbfbf" stroke="black" points="625,-171.5 625,-190.5 654,-190.5 654,-171.5 625,-171.5"/>
<text text-anchor="middle" x="639.5" y="-178.5" font-family="Helvetica,sans-Serif" font-size="10.00">n</text>
</a>
</g>
</g>
<!-- Node2 -->
<g id="node2" class="node">
<title>Node2</title>
<g id="a_node2"><a xlink:href="classpa_1_1SpecializedLBFGS.html#a3633932c88d15ff3118f72a11f4c58e4" target="_top" xlink:title=" ">
<polygon fill="white" stroke="black" points="363.5,-340.5 363.5,-359.5 467.5,-359.5 467.5,-340.5 363.5,-340.5"/>
<text text-anchor="middle" x="415.5" y="-347.5" font-family="Helvetica,sans-Serif" font-size="10.00">SpecializedLBFGS</text>
</a>
</g>
</g>
<!-- Node1&#45;&gt;Node2 -->
<g id="edge1" class="edge">
<title>Node1&#45;&gt;Node2</title>
<path fill="none" stroke="midnightblue" d="M638.47,-201.11C637.21,-234.4 629.44,-300.49 589,-333 555.34,-360.06 505.22,-362.12 467.66,-358.71"/>
<polygon fill="midnightblue" stroke="midnightblue" points="641.97,-200.88 638.68,-190.81 634.97,-200.74 641.97,-200.88"/>
</g>
<!-- Node3 -->
<g id="node3" class="node">
<title>Node3</title>
<g id="a_node3"><a xlink:href="classpa_1_1SpecializedLBFGS.html#a7e9b3fd96d52976693a1fb57fb32ba3c" target="_top" xlink:title=" ">
<polygon fill="white" stroke="black" points="551.5,-266.5 551.5,-285.5 580.5,-285.5 580.5,-266.5 551.5,-266.5"/>
<text text-anchor="middle" x="566" y="-273.5" font-family="Helvetica,sans-Serif" font-size="10.00">g</text>
</a>
</g>
</g>
<!-- Node1&#45;&gt;Node3 -->
<g id="edge2" class="edge">
<title>Node1&#45;&gt;Node3</title>
<path fill="none" stroke="midnightblue" d="M628.34,-199.66C619.16,-215.7 604.7,-239.03 589,-257 586.21,-260.19 582.88,-263.34 579.67,-266.12"/>
<polygon fill="midnightblue" stroke="midnightblue" points="631.51,-201.16 633.34,-190.72 625.41,-197.74 631.51,-201.16"/>
</g>
<!-- Node12 -->
<g id="node12" class="node">
<title>Node12</title>
<g id="a_node12"><a xlink:href="classpa_1_1SpecializedLBFGS.html#a9cb23d843dff87dd08bd5a916d9eed95" target="_top" xlink:title=" ">
<polygon fill="white" stroke="black" points="551.5,-152.5 551.5,-171.5 580.5,-171.5 580.5,-152.5 551.5,-152.5"/>
<text text-anchor="middle" x="566" y="-159.5" font-family="Helvetica,sans-Serif" font-size="10.00">p</text>
</a>
</g>
</g>
<!-- Node1&#45;&gt;Node12 -->
<g id="edge13" class="edge">
<title>Node1&#45;&gt;Node12</title>
<path fill="none" stroke="midnightblue" d="M614.98,-174.75C603.64,-171.74 590.43,-168.23 580.74,-165.65"/>
<polygon fill="midnightblue" stroke="midnightblue" points="614.15,-178.15 624.71,-177.34 615.95,-171.39 614.15,-178.15"/>
</g>
<!-- Node13 -->
<g id="node13" class="node">
<title>Node13</title>
<g id="a_node13"><a xlink:href="classpa_1_1SpecializedLBFGS.html#ab94b4f1bcda8e0f0bace15126f54b6d3" target="_top" xlink:title="Re&#45;allocate storage for a problem with a different size.">
<polygon fill="white" stroke="black" points="543,-304.5 543,-323.5 589,-323.5 589,-304.5 543,-304.5"/>
<text text-anchor="middle" x="566" y="-311.5" font-family="Helvetica,sans-Serif" font-size="10.00">resize</text>
</a>
</g>
</g>
<!-- Node1&#45;&gt;Node13 -->
<g id="edge15" class="edge">
<title>Node1&#45;&gt;Node13</title>
<path fill="none" stroke="midnightblue" d="M633.07,-200.23C625.72,-224.06 610.95,-265.15 589,-295 586.49,-298.42 583.26,-301.63 580.05,-304.42"/>
<polygon fill="midnightblue" stroke="midnightblue" points="636.44,-201.19 635.93,-190.6 629.73,-199.2 636.44,-201.19"/>
</g>
<!-- Node14 -->
<g id="node14" class="node">
<title>Node14</title>
<g id="a_node14"><a xlink:href="classpa_1_1SpecializedLBFGS.html#a644d66009a70ccc909120ba9afa45ea5" target="_top" xlink:title=" ">
<polygon fill="white" stroke="black" points="551.5,-76.5 551.5,-95.5 580.5,-95.5 580.5,-76.5 551.5,-76.5"/>
<text text-anchor="middle" x="566" y="-83.5" font-family="Helvetica,sans-Serif" font-size="10.00">s</text>
</a>
</g>
</g>
<!-- Node1&#45;&gt;Node14 -->
<g id="edge17" class="edge">
<title>Node1&#45;&gt;Node14</title>
<path fill="none" stroke="midnightblue" d="M628.34,-162.34C619.16,-146.3 604.7,-122.97 589,-105 586.21,-101.81 582.88,-98.66 579.67,-95.88"/>
<polygon fill="midnightblue" stroke="midnightblue" points="625.41,-164.26 633.34,-171.28 631.51,-160.84 625.41,-164.26"/>
</g>
<!-- Node17 -->
<g id="node17" class="node">
<title>Node17</title>
<g id="a_node17"><a xlink:href="classpa_1_1SpecializedLBFGS.html#a45235c456e26733897f13bbf1057323e" target="_top" xlink:title=" ">
<polygon fill="white" stroke="black" points="551.5,-38.5 551.5,-57.5 580.5,-57.5 580.5,-38.5 551.5,-38.5"/>
<text text-anchor="middle" x="566" y="-45.5" font-family="Helvetica,sans-Serif" font-size="10.00">w</text>
</a>
</g>
</g>
<!-- Node1&#45;&gt;Node17 -->
<g id="edge22" class="edge">
<title>Node1&#45;&gt;Node17</title>
<path fill="none" stroke="midnightblue" d="M633.07,-161.77C625.72,-137.94 610.95,-96.85 589,-67 586.49,-63.58 583.26,-60.37 580.05,-57.58"/>
<polygon fill="midnightblue" stroke="midnightblue" points="629.73,-162.8 635.93,-171.4 636.44,-160.81 629.73,-162.8"/>
</g>
<!-- Node18 -->
<g id="node18" class="node">
<title>Node18</title>
<g id="a_node18"><a xlink:href="classpa_1_1SpecializedLBFGS.html#ac8fb9b5f7c53b1285867cf99b0f79d17" target="_top" xlink:title=" ">
<polygon fill="white" stroke="black" points="551.5,-228.5 551.5,-247.5 580.5,-247.5 580.5,-228.5 551.5,-228.5"/>
<text text-anchor="middle" x="566" y="-235.5" font-family="Helvetica,sans-Serif" font-size="10.00">x</text>
</a>
</g>
</g>
<!-- Node1&#45;&gt;Node18 -->
<g id="edge24" class="edge">
<title>Node1&#45;&gt;Node18</title>
<path fill="none" stroke="midnightblue" d="M618.21,-197.18C605.53,-207.28 589.64,-219.95 578.95,-228.47"/>
<polygon fill="midnightblue" stroke="midnightblue" points="620.73,-199.64 626.37,-190.67 616.37,-194.17 620.73,-199.64"/>
</g>
<!-- Node19 -->
<g id="node19" class="node">
<title>Node19</title>
<g id="a_node19"><a xlink:href="classpa_1_1SpecializedLBFGS.html#ac18c0672e61d25800877a42a1def3215" target="_top" xlink:title=" ">
<polygon fill="white" stroke="black" points="551.5,-190.5 551.5,-209.5 580.5,-209.5 580.5,-190.5 551.5,-190.5"/>
<text text-anchor="middle" x="566" y="-197.5" font-family="Helvetica,sans-Serif" font-size="10.00">y</text>
</a>
</g>
</g>
<!-- Node1&#45;&gt;Node19 -->
<g id="edge29" class="edge">
<title>Node1&#45;&gt;Node19</title>
<path fill="none" stroke="midnightblue" d="M614.98,-187.25C603.64,-190.26 590.43,-193.77 580.74,-196.35"/>
<polygon fill="midnightblue" stroke="midnightblue" points="615.95,-190.61 624.71,-184.66 614.15,-183.85 615.95,-190.61"/>
</g>
<!-- Node20 -->
<g id="node20" class="node">
<title>Node20</title>
<g id="a_node20"><a xlink:href="classpa_1_1SpecializedLBFGS.html#a7866204934238efa4a186fc9d48a8a2e" target="_top" xlink:title=" ">
<polygon fill="white" stroke="black" points="551.5,-0.5 551.5,-19.5 580.5,-19.5 580.5,-0.5 551.5,-0.5"/>
<text text-anchor="middle" x="566" y="-7.5" font-family="Helvetica,sans-Serif" font-size="10.00">α</text>
</a>
</g>
</g>
<!-- Node1&#45;&gt;Node20 -->
<g id="edge34" class="edge">
<title>Node1&#45;&gt;Node20</title>
<path fill="none" stroke="midnightblue" d="M635.55,-161.12C630.28,-130.58 617.06,-71.22 589,-29 586.77,-25.64 583.78,-22.52 580.73,-19.83"/>
<polygon fill="midnightblue" stroke="midnightblue" points="632.15,-162 637.19,-171.32 639.06,-160.89 632.15,-162"/>
</g>
<!-- Node21 -->
<g id="node21" class="node">
<title>Node21</title>
<g id="a_node21"><a xlink:href="classpa_1_1SpecializedLBFGS.html#aebf0127f7a3e56b2c46e5f189d517f14" target="_top" xlink:title=" ">
<polygon fill="white" stroke="black" points="551.5,-114.5 551.5,-133.5 580.5,-133.5 580.5,-114.5 551.5,-114.5"/>
<text text-anchor="middle" x="566" y="-121.5" font-family="Helvetica,sans-Serif" font-size="10.00">ρ</text>
</a>
</g>
</g>
<!-- Node1&#45;&gt;Node21 -->
<g id="edge36" class="edge">
<title>Node1&#45;&gt;Node21</title>
<path fill="none" stroke="midnightblue" d="M618.21,-164.82C605.53,-154.72 589.64,-142.05 578.95,-133.53"/>
<polygon fill="midnightblue" stroke="midnightblue" points="616.37,-167.83 626.37,-171.33 620.73,-162.36 616.37,-167.83"/>
</g>
<!-- Node4 -->
<g id="node4" class="node">
<title>Node4</title>
<g id="a_node4"><a xlink:href="classhanging__chain__dynamics_1_1HangingChain.html#a2e4d9874164cfa87334b099f3ce1f288" target="_top" xlink:title=" ">
<polygon fill="white" stroke="black" points="324,-193 324,-223 507,-223 507,-193 324,-193"/>
<text text-anchor="start" x="332" y="-211" font-family="Helvetica,sans-Serif" font-size="10.00">hanging_chain_dynamics.Hanging</text>
<text text-anchor="middle" x="415.5" y="-200" font-family="Helvetica,sans-Serif" font-size="10.00">Chain.dynamics</text>
</a>
</g>
</g>
<!-- Node3&#45;&gt;Node4 -->
<g id="edge3" class="edge">
<title>Node3&#45;&gt;Node4</title>
<path fill="none" stroke="midnightblue" d="M541.96,-265.45C517.18,-254.1 477.54,-235.95 449.46,-223.09"/>
<polygon fill="midnightblue" stroke="midnightblue" points="540.75,-268.74 551.3,-269.72 543.66,-262.38 540.75,-268.74"/>
</g>
<!-- Node5 -->
<g id="node5" class="node">
<title>Node5</title>
<g id="a_node5"><a xlink:href="classpa_1_1SpecializedLBFGS.html#a0b030867dbee1f90710a9b23360807a3" target="_top" xlink:title="L&#45;BFGS update when changing the step size γ, recomputing everything.">
<polygon fill="white" stroke="black" points="380,-116.5 380,-135.5 451,-135.5 451,-116.5 380,-116.5"/>
<text text-anchor="middle" x="415.5" y="-123.5" font-family="Helvetica,sans-Serif" font-size="10.00">full_update</text>
</a>
</g>
</g>
<!-- Node3&#45;&gt;Node5 -->
<g id="edge5" class="edge">
<title>Node3&#45;&gt;Node5</title>
<path fill="none" stroke="midnightblue" d="M544.33,-258.87C543.86,-258.25 543.42,-257.63 543,-257 514.14,-213.4 545.84,-180 507,-145 491.97,-131.46 469.81,-126.65 451.18,-125.25"/>
<polygon fill="midnightblue" stroke="midnightblue" points="541.84,-261.33 551.26,-266.18 546.92,-256.52 541.84,-261.33"/>
</g>
<!-- Node8 -->
<g id="node8" class="node">
<title>Node8</title>
<g id="a_node8"><a xlink:href="classpa_1_1SpecializedLBFGS.html#a3606f78438b923b36f682fb1f91764d7" target="_top" xlink:title="Initialize with the starting point x₀ and the gradient in that point.">
<polygon fill="white" stroke="black" points="386,-260.5 386,-279.5 445,-279.5 445,-260.5 386,-260.5"/>
<text text-anchor="middle" x="415.5" y="-267.5" font-family="Helvetica,sans-Serif" font-size="10.00">initialize</text>
</a>
</g>
</g>
<!-- Node3&#45;&gt;Node8 -->
<g id="edge8" class="edge">
<title>Node3&#45;&gt;Node8</title>
<path fill="none" stroke="midnightblue" d="M541.13,-275.04C514.96,-273.98 472.97,-272.28 445.07,-271.15"/>
<polygon fill="midnightblue" stroke="midnightblue" points="541.16,-278.54 551.3,-275.45 541.45,-271.55 541.16,-278.54"/>
</g>
<!-- Node10 -->
<g id="node10" class="node">
<title>Node10</title>
<g id="a_node10"><a xlink:href="classpa_1_1SpecializedLBFGS.html#ad20897c5c8bd47f5d4005989bead0e55" target="_top" xlink:title="Throw away the approximation and all previous vectors s and y.">
<polygon fill="white" stroke="black" points="395,-298.5 395,-317.5 436,-317.5 436,-298.5 395,-298.5"/>
<text text-anchor="middle" x="415.5" y="-305.5" font-family="Helvetica,sans-Serif" font-size="10.00">reset</text>
</a>
</g>
</g>
<!-- Node3&#45;&gt;Node10 -->
<g id="edge10" class="edge">
<title>Node3&#45;&gt;Node10</title>
<path fill="none" stroke="midnightblue" d="M541.12,-281.43C530.66,-283.79 518.23,-286.56 507,-289 482.68,-294.28 454.63,-300.13 436.29,-303.93"/>
<polygon fill="midnightblue" stroke="midnightblue" points="542.2,-284.77 551.18,-279.15 540.66,-277.95 542.2,-284.77"/>
</g>
<!-- Node11 -->
<g id="node11" class="node">
<title>Node11</title>
<g id="a_node11"><a xlink:href="classpa_1_1SpecializedLBFGS.html#a5a4a6bc855faa7998e2308d5e6d10224" target="_top" xlink:title="Standard L&#45;BFGS update without changing the step size γ.">
<polygon fill="white" stroke="black" points="366.5,-154.5 366.5,-173.5 464.5,-173.5 464.5,-154.5 366.5,-154.5"/>
<text text-anchor="middle" x="415.5" y="-161.5" font-family="Helvetica,sans-Serif" font-size="10.00">standard_update</text>
</a>
</g>
</g>
<!-- Node3&#45;&gt;Node11 -->
<g id="edge11" class="edge">
<title>Node3&#45;&gt;Node11</title>
<path fill="none" stroke="midnightblue" d="M544.79,-259.18C544.17,-258.46 543.57,-257.73 543,-257 520.87,-228.38 535.47,-206.32 507,-184 494.97,-174.57 479.41,-169.38 464.59,-166.59"/>
<polygon fill="midnightblue" stroke="midnightblue" points="542.48,-261.81 552.06,-266.34 547.39,-256.83 542.48,-261.81"/>
</g>
<!-- Node4&#45;&gt;Node4 -->
<g id="edge4" class="edge">
<title>Node4&#45;&gt;Node4</title>
<path fill="none" stroke="midnightblue" d="M442.15,-233.46C438.85,-238.18 429.96,-241.5 415.5,-241.5 391.77,-241.5 383.06,-232.56 389.36,-223.16"/>
<polygon fill="midnightblue" stroke="midnightblue" points="445.63,-232.97 441.64,-223.16 438.64,-233.32 445.63,-232.97"/>
</g>
<!-- Node6 -->
<g id="node6" class="node">
<title>Node6</title>
<g id="a_node6"><a xlink:href="classpa_1_1SpecializedLBFGS.html#a747b26091f869cb17a768e38f17fbc8d" target="_top" xlink:title="Update the inverse Hessian approximation using the new vectors xₖ₊₁ and pₖ₊₁.">
<polygon fill="white" stroke="black" points="200,-141.5 200,-160.5 250,-160.5 250,-141.5 200,-141.5"/>
<text text-anchor="middle" x="225" y="-148.5" font-family="Helvetica,sans-Serif" font-size="10.00">update</text>
</a>
</g>
</g>
<!-- Node5&#45;&gt;Node6 -->
<g id="edge6" class="edge">
<title>Node5&#45;&gt;Node6</title>
<path fill="none" stroke="midnightblue" d="M369.78,-131.93C332.32,-136.9 280.29,-143.8 250.18,-147.79"/>
<polygon fill="midnightblue" stroke="midnightblue" points="370.47,-135.37 379.93,-130.59 369.55,-128.43 370.47,-135.37"/>
</g>
<!-- Node7 -->
<g id="node7" class="node">
<title>Node7</title>
<g id="a_node7"><a xlink:href="structpa_1_1PANOCDirection_3_01SpecializedLBFGS_01_4.html#a39a241c049e8d029cc86a30a89ef92cf" target="_top" xlink:title=" ">
<polygon fill="white" stroke="black" points="0,-130.5 0,-171.5 126,-171.5 126,-130.5 0,-130.5"/>
<text text-anchor="start" x="8" y="-159.5" font-family="Helvetica,sans-Serif" font-size="10.00">pa::PANOCDirection</text>
<text text-anchor="start" x="8" y="-148.5" font-family="Helvetica,sans-Serif" font-size="10.00">&lt; SpecializedLBFGS &gt;</text>
<text text-anchor="middle" x="63" y="-137.5" font-family="Helvetica,sans-Serif" font-size="10.00">::update</text>
</a>
</g>
</g>
<!-- Node6&#45;&gt;Node7 -->
<g id="edge7" class="edge">
<title>Node6&#45;&gt;Node7</title>
<path fill="none" stroke="midnightblue" d="M189.45,-151C171,-151 147.74,-151 126.26,-151"/>
<polygon fill="midnightblue" stroke="midnightblue" points="189.7,-154.5 199.7,-151 189.7,-147.5 189.7,-154.5"/>
</g>
<!-- Node9 -->
<g id="node9" class="node">
<title>Node9</title>
<g id="a_node9"><a xlink:href="structpa_1_1PANOCDirection_3_01SpecializedLBFGS_01_4.html#a47b667371126ccfdb51898d979f2c786" target="_top" xlink:title=" ">
<polygon fill="white" stroke="black" points="162,-249.5 162,-290.5 288,-290.5 288,-249.5 162,-249.5"/>
<text text-anchor="start" x="170" y="-278.5" font-family="Helvetica,sans-Serif" font-size="10.00">pa::PANOCDirection</text>
<text text-anchor="start" x="170" y="-267.5" font-family="Helvetica,sans-Serif" font-size="10.00">&lt; SpecializedLBFGS &gt;</text>
<text text-anchor="middle" x="225" y="-256.5" font-family="Helvetica,sans-Serif" font-size="10.00">::initialize</text>
</a>
</g>
</g>
<!-- Node8&#45;&gt;Node9 -->
<g id="edge9" class="edge">
<title>Node8&#45;&gt;Node9</title>
<path fill="none" stroke="midnightblue" d="M375.6,-270C350.38,-270 316.97,-270 288.12,-270"/>
<polygon fill="midnightblue" stroke="midnightblue" points="375.87,-273.5 385.87,-270 375.87,-266.5 375.87,-273.5"/>
</g>
<!-- Node11&#45;&gt;Node6 -->
<g id="edge12" class="edge">
<title>Node11&#45;&gt;Node6</title>
<path fill="none" stroke="midnightblue" d="M356.14,-159.97C320.44,-157.51 276.68,-154.49 250.09,-152.66"/>
<polygon fill="midnightblue" stroke="midnightblue" points="356.23,-163.49 366.45,-160.69 356.71,-156.51 356.23,-163.49"/>
</g>
<!-- Node12&#45;&gt;Node5 -->
<g id="edge14" class="edge">
<title>Node12&#45;&gt;Node5</title>
<path fill="none" stroke="midnightblue" d="M541.55,-154.67C531.04,-151.51 518.45,-147.88 507,-145 488.63,-140.39 467.96,-135.99 451.02,-132.59"/>
<polygon fill="midnightblue" stroke="midnightblue" points="540.67,-158.06 551.25,-157.64 542.72,-151.37 540.67,-158.06"/>
</g>
<!-- Node13&#45;&gt;Node2 -->
<g id="edge16" class="edge">
<title>Node13&#45;&gt;Node2</title>
<path fill="none" stroke="midnightblue" d="M532.99,-321.76C510.41,-327.23 480.02,-334.6 455.94,-340.44"/>
<polygon fill="midnightblue" stroke="midnightblue" points="533.87,-325.15 542.77,-319.39 532.22,-318.34 533.87,-325.15"/>
</g>
<!-- Node14&#45;&gt;Node5 -->
<g id="edge20" class="edge">
<title>Node14&#45;&gt;Node5</title>
<path fill="none" stroke="midnightblue" d="M542.01,-95.17C531.45,-99.16 518.71,-103.67 507,-107 488.78,-112.18 468.13,-116.63 451.16,-119.91"/>
<polygon fill="midnightblue" stroke="midnightblue" points="543.28,-98.43 551.35,-91.56 540.76,-91.9 543.28,-98.43"/>
</g>
<!-- Node14&#45;&gt;Node11 -->
<g id="edge21" class="edge">
<title>Node14&#45;&gt;Node11</title>
<path fill="none" stroke="midnightblue" d="M545.45,-102.66C544.61,-103.44 543.79,-104.22 543,-105 525.92,-121.74 527.73,-133.06 507,-145 494.2,-152.37 478.91,-156.9 464.58,-159.67"/>
<polygon fill="midnightblue" stroke="midnightblue" points="548,-105.07 553.11,-95.79 543.33,-99.86 548,-105.07"/>
</g>
<!-- Node15 -->
<g id="node15" class="node">
<title>Node15</title>
<g id="a_node15"><a xlink:href="classpa_1_1SpecializedLBFGS.html#a37dd0ce624f9914a61118d8f02fa1c7f" target="_top" xlink:title="Apply the inverse Hessian approximation to the given vector q.">
<polygon fill="white" stroke="black" points="393.5,-78.5 393.5,-97.5 437.5,-97.5 437.5,-78.5 393.5,-78.5"/>
<text text-anchor="middle" x="415.5" y="-85.5" font-family="Helvetica,sans-Serif" font-size="10.00">apply</text>
</a>
</g>
</g>
<!-- Node14&#45;&gt;Node15 -->
<g id="edge18" class="edge">
<title>Node14&#45;&gt;Node15</title>
<path fill="none" stroke="midnightblue" d="M540.99,-86.32C512.39,-86.71 465.06,-87.35 437.74,-87.71"/>
<polygon fill="midnightblue" stroke="midnightblue" points="541.34,-89.82 551.3,-86.18 541.25,-82.82 541.34,-89.82"/>
</g>
<!-- Node16 -->
<g id="node16" class="node">
<title>Node16</title>
<g id="a_node16"><a xlink:href="structpa_1_1PANOCDirection_3_01SpecializedLBFGS_01_4.html#a896d954d179723ad79cb7925541c96c8" target="_top" xlink:title=" ">
<polygon fill="white" stroke="black" points="162,-67.5 162,-108.5 288,-108.5 288,-67.5 162,-67.5"/>
<text text-anchor="start" x="170" y="-96.5" font-family="Helvetica,sans-Serif" font-size="10.00">pa::PANOCDirection</text>
<text text-anchor="start" x="170" y="-85.5" font-family="Helvetica,sans-Serif" font-size="10.00">&lt; SpecializedLBFGS &gt;</text>
<text text-anchor="middle" x="225" y="-74.5" font-family="Helvetica,sans-Serif" font-size="10.00">::apply</text>
</a>
</g>
</g>
<!-- Node15&#45;&gt;Node16 -->
<g id="edge19" class="edge">
<title>Node15&#45;&gt;Node16</title>
<path fill="none" stroke="midnightblue" d="M382.95,-88C357.17,-88 319.95,-88 288.22,-88"/>
<polygon fill="midnightblue" stroke="midnightblue" points="383.24,-91.5 393.24,-88 383.24,-84.5 383.24,-91.5"/>
</g>
<!-- Node17&#45;&gt;Node5 -->
<g id="edge23" class="edge">
<title>Node17&#45;&gt;Node5</title>
<path fill="none" stroke="midnightblue" d="M545.45,-64.66C544.61,-65.44 543.79,-66.22 543,-67 525.92,-83.74 527.73,-95.06 507,-107 490.17,-116.69 469.03,-121.47 451.41,-123.81"/>
<polygon fill="midnightblue" stroke="midnightblue" points="548,-67.07 553.11,-57.79 543.33,-61.86 548,-67.07"/>
</g>
<!-- Node18&#45;&gt;Node5 -->
<g id="edge25" class="edge">
<title>Node18&#45;&gt;Node5</title>
<path fill="none" stroke="midnightblue" d="M544.79,-221.18C544.16,-220.46 543.57,-219.74 543,-219 520.7,-190.01 535.84,-167.5 507,-145 491.3,-132.76 469.58,-127.92 451.35,-126.18"/>
<polygon fill="midnightblue" stroke="midnightblue" points="542.47,-223.82 552.05,-228.35 547.39,-218.83 542.47,-223.82"/>
</g>
<!-- Node18&#45;&gt;Node8 -->
<g id="edge26" class="edge">
<title>Node18&#45;&gt;Node8</title>
<path fill="none" stroke="midnightblue" d="M541.12,-243.43C530.66,-245.79 518.23,-248.56 507,-251 486.29,-255.49 462.88,-260.41 445.05,-264.11"/>
<polygon fill="midnightblue" stroke="midnightblue" points="542.2,-246.77 551.18,-241.15 540.66,-239.95 542.2,-246.77"/>
</g>
<!-- Node18&#45;&gt;Node10 -->
<g id="edge27" class="edge">
<title>Node18&#45;&gt;Node10</title>
<path fill="none" stroke="midnightblue" d="M546.01,-254.37C544.99,-255.26 543.98,-256.14 543,-257 526.9,-271.11 526.12,-279.37 507,-289 484.35,-300.42 455.18,-304.98 436.17,-306.8"/>
<polygon fill="midnightblue" stroke="midnightblue" points="548.52,-256.83 553.78,-247.63 543.93,-251.54 548.52,-256.83"/>
</g>
<!-- Node18&#45;&gt;Node11 -->
<g id="edge28" class="edge">
<title>Node18&#45;&gt;Node11</title>
<path fill="none" stroke="midnightblue" d="M545.96,-221.68C544.96,-220.78 543.96,-219.88 543,-219 526.55,-203.92 526.64,-194.59 507,-184 494.11,-177.05 478.95,-172.52 464.76,-169.56"/>
<polygon fill="midnightblue" stroke="midnightblue" points="543.87,-224.5 553.7,-228.46 548.48,-219.24 543.87,-224.5"/>
</g>
<!-- Node19&#45;&gt;Node4 -->
<g id="edge31" class="edge">
<title>Node19&#45;&gt;Node4</title>
<path fill="none" stroke="midnightblue" d="M541.05,-201.29C531.41,-201.81 519.64,-202.44 507.21,-203.11"/>
<polygon fill="midnightblue" stroke="midnightblue" points="541.5,-204.77 551.3,-200.74 541.12,-197.78 541.5,-204.77"/>
</g>
<!-- Node19&#45;&gt;Node5 -->
<g id="edge32" class="edge">
<title>Node19&#45;&gt;Node5</title>
<path fill="none" stroke="midnightblue" d="M545.95,-183.7C544.94,-182.79 543.96,-181.89 543,-181 526.43,-165.59 526.9,-155.77 507,-145 489.92,-135.75 468.76,-131 451.21,-128.56"/>
<polygon fill="midnightblue" stroke="midnightblue" points="543.85,-186.51 553.67,-190.49 548.47,-181.26 543.85,-186.51"/>
</g>
<!-- Node19&#45;&gt;Node11 -->
<g id="edge33" class="edge">
<title>Node19&#45;&gt;Node11</title>
<path fill="none" stroke="midnightblue" d="M541.51,-193.22C530.99,-190.26 518.41,-186.83 507,-184 492.32,-180.36 476.22,-176.69 461.72,-173.51"/>
<polygon fill="midnightblue" stroke="midnightblue" points="540.65,-196.62 551.22,-195.98 542.56,-189.88 540.65,-196.62"/>
</g>
<!-- Node19&#45;&gt;Node15 -->
<g id="edge30" class="edge">
<title>Node19&#45;&gt;Node15</title>
<path fill="none" stroke="midnightblue" d="M544.79,-183.18C544.16,-182.46 543.57,-181.74 543,-181 520.7,-152.01 535.84,-129.5 507,-107 487.13,-91.5 457.59,-87.86 437.72,-87.37"/>
<polygon fill="midnightblue" stroke="midnightblue" points="542.47,-185.82 552.05,-190.35 547.39,-180.83 542.47,-185.82"/>
</g>
<!-- Node20&#45;&gt;Node15 -->
<g id="edge35" class="edge">
<title>Node20&#45;&gt;Node15</title>
<path fill="none" stroke="midnightblue" d="M542.17,-21.99C512.65,-37.5 461.83,-64.19 434.75,-78.42"/>
<polygon fill="midnightblue" stroke="midnightblue" points="544.07,-24.95 551.3,-17.2 540.82,-18.75 544.07,-24.95"/>
</g>
<!-- Node21&#45;&gt;Node5 -->
<g id="edge38" class="edge">
<title>Node21&#45;&gt;Node5</title>
<path fill="none" stroke="midnightblue" d="M541.18,-124.32C516.88,-124.65 478.92,-125.16 451.27,-125.53"/>
<polygon fill="midnightblue" stroke="midnightblue" points="541.34,-127.82 551.3,-124.18 541.25,-120.82 541.34,-127.82"/>
</g>
<!-- Node21&#45;&gt;Node11 -->
<g id="edge39" class="edge">
<title>Node21&#45;&gt;Node11</title>
<path fill="none" stroke="midnightblue" d="M542.01,-133.17C531.45,-137.16 518.71,-141.67 507,-145 493.41,-148.87 478.47,-152.32 464.71,-155.19"/>
<polygon fill="midnightblue" stroke="midnightblue" points="543.28,-136.43 551.35,-129.56 540.76,-129.9 543.28,-136.43"/>
</g>
<!-- Node21&#45;&gt;Node15 -->
<g id="edge37" class="edge">
<title>Node21&#45;&gt;Node15</title>
<path fill="none" stroke="midnightblue" d="M541.55,-116.67C531.04,-113.51 518.45,-109.88 507,-107 483.49,-101.1 456.23,-95.55 437.82,-91.99"/>
<polygon fill="midnightblue" stroke="midnightblue" points="540.67,-120.06 551.25,-119.64 542.72,-113.37 540.67,-120.06"/>
</g>
</g>
</svg>
