<?xml version="1.0" encoding="UTF-8" standalone="no"?>
<!DOCTYPE svg PUBLIC "-//W3C//DTD SVG 1.1//EN"
 "http://www.w3.org/Graphics/SVG/1.1/DTD/svg11.dtd">
<!-- Generated by graphviz version 2.43.0 (0)
 -->
<!-- Title: stop_requested Pages: 1 -->
<svg width="760pt" height="225pt"
 viewBox="0.00 0.00 760.00 224.50" xmlns="http://www.w3.org/2000/svg" xmlns:xlink="http://www.w3.org/1999/xlink">
<g id="graph0" class="graph" transform="scale(1 1) rotate(0) translate(4 220.5)">
<title>stop_requested</title>
<polygon fill="white" stroke="transparent" points="-4,4 -4,-220.5 756,-220.5 756,4 -4,4"/>
<!-- Node1 -->
<g id="node1" class="node">
<title>Node1</title>
<g id="a_node1"><a xlink:title=" ">
<polygon fill="#bfbfbf" stroke="black" points="660,-57.5 660,-76.5 752,-76.5 752,-57.5 660,-57.5"/>
<text text-anchor="middle" x="706" y="-64.5" font-family="Helvetica,sans-Serif" font-size="10.00">stop_requested</text>
</a>
</g>
</g>
<!-- Node2 -->
<g id="node2" class="node">
<title>Node2</title>
<g id="a_node2"><a xlink:href="namespacepa_1_1detail.html#aa916ebec71616d1d0379aaaaca02fc19" target="_top" xlink:title="Check all stop conditions (required tolerance reached, out of time, maximum number of iterations exce...">
<polygon fill="white" stroke="black" points="488,-115 488,-145 602,-145 602,-115 488,-115"/>
<text text-anchor="start" x="496" y="-133" font-family="Helvetica,sans-Serif" font-size="10.00">pa::detail::check_all</text>
<text text-anchor="middle" x="545" y="-122" font-family="Helvetica,sans-Serif" font-size="10.00">_stop_conditions</text>
</a>
</g>
</g>
<!-- Node1&#45;&gt;Node2 -->
<g id="edge1" class="edge">
<title>Node1&#45;&gt;Node2</title>
<path fill="none" stroke="midnightblue" d="M677.29,-81.08C661.82,-88.67 642.08,-97.9 624,-105 615.13,-108.48 605.56,-111.86 596.27,-114.94"/>
<polygon fill="midnightblue" stroke="midnightblue" points="678.91,-84.18 686.32,-76.6 675.8,-77.91 678.91,-84.18"/>
</g>
<!-- Node9 -->
<g id="node9" class="node">
<title>Node9</title>
<g id="a_node9"><a xlink:href="classpa_1_1LBFGSSolver.html#a8540540028b02dfe8b7e3ec0c49c07dd" target="_top" xlink:title=" ">
<polygon fill="white" stroke="black" points="469,-76.5 469,-95.5 621,-95.5 621,-76.5 469,-76.5"/>
<text text-anchor="middle" x="545" y="-83.5" font-family="Helvetica,sans-Serif" font-size="10.00">pa::LBFGSSolver::operator()</text>
</a>
</g>
</g>
<!-- Node1&#45;&gt;Node9 -->
<g id="edge8" class="edge">
<title>Node1&#45;&gt;Node9</title>
<path fill="none" stroke="midnightblue" d="M649.66,-73.61C640.41,-74.72 630.68,-75.88 621.03,-77.03"/>
<polygon fill="midnightblue" stroke="midnightblue" points="650.35,-77.06 659.86,-72.39 649.52,-70.11 650.35,-77.06"/>
</g>
<!-- Node10 -->
<g id="node10" class="node">
<title>Node10</title>
<g id="a_node10"><a xlink:href="classpa_1_1LBFGSBSolver.html#a8540540028b02dfe8b7e3ec0c49c07dd" target="_top" xlink:title=" ">
<polygon fill="white" stroke="black" points="466,-38.5 466,-57.5 624,-57.5 624,-38.5 466,-38.5"/>
<text text-anchor="middle" x="545" y="-45.5" font-family="Helvetica,sans-Serif" font-size="10.00">pa::LBFGSBSolver::operator()</text>
</a>
</g>
</g>
<!-- Node1&#45;&gt;Node10 -->
<g id="edge9" class="edge">
<title>Node1&#45;&gt;Node10</title>
<path fill="none" stroke="midnightblue" d="M649.89,-60.42C641.54,-59.42 632.78,-58.37 624.05,-57.33"/>
<polygon fill="midnightblue" stroke="midnightblue" points="649.52,-63.89 659.86,-61.61 650.35,-56.94 649.52,-63.89"/>
</g>
<!-- Node11 -->
<g id="node11" class="node">
<title>Node11</title>
<g id="a_node11"><a xlink:href="classpa_1_1PGASolver.html#af516b794e244432023aea7ba3cd0d1d8" target="_top" xlink:title=" ">
<polygon fill="white" stroke="black" points="475,-0.5 475,-19.5 615,-19.5 615,-0.5 475,-0.5"/>
<text text-anchor="middle" x="545" y="-7.5" font-family="Helvetica,sans-Serif" font-size="10.00">pa::PGASolver::operator()</text>
</a>
</g>
</g>
<!-- Node1&#45;&gt;Node11 -->
<g id="edge10" class="edge">
<title>Node1&#45;&gt;Node11</title>
<path fill="none" stroke="midnightblue" d="M678.39,-52.87C662.85,-45.04 642.68,-35.58 624,-29 613.75,-25.39 602.5,-22.21 591.82,-19.54"/>
<polygon fill="midnightblue" stroke="midnightblue" points="676.92,-56.05 687.42,-57.5 680.11,-49.82 676.92,-56.05"/>
</g>
<!-- Node3 -->
<g id="node3" class="node">
<title>Node3</title>
<g id="a_node3"><a xlink:href="classpa_1_1SecondOrderPANOCSolver.html#acb04b3f19dafad9b4e7e7c1c19018d19" target="_top" xlink:title=" ">
<polygon fill="white" stroke="black" points="259,-186 259,-216 420,-216 420,-186 259,-186"/>
<text text-anchor="start" x="267" y="-204" font-family="Helvetica,sans-Serif" font-size="10.00">pa::SecondOrderPANOCSolver</text>
<text text-anchor="middle" x="339.5" y="-193" font-family="Helvetica,sans-Serif" font-size="10.00">::operator()</text>
</a>
</g>
</g>
<!-- Node2&#45;&gt;Node3 -->
<g id="edge2" class="edge">
<title>Node2&#45;&gt;Node3</title>
<path fill="none" stroke="midnightblue" d="M501.16,-149.2C479.99,-158.29 453.91,-168.9 430,-177 420.71,-180.15 410.76,-183.16 401,-185.92"/>
<polygon fill="midnightblue" stroke="midnightblue" points="502.73,-152.33 510.51,-145.14 499.95,-145.91 502.73,-152.33"/>
</g>
<!-- Node4 -->
<g id="node4" class="node">
<title>Node4</title>
<g id="a_node4"><a xlink:href="classpa_1_1StructuredPANOCLBFGSSolver.html#ade95d8a7a1892d4087d6fffc958cde6e" target="_top" xlink:title=" ">
<polygon fill="white" stroke="black" points="249,-137 249,-167 430,-167 430,-137 249,-137"/>
<text text-anchor="start" x="257" y="-155" font-family="Helvetica,sans-Serif" font-size="10.00">pa::StructuredPANOCLBFGSSolver</text>
<text text-anchor="middle" x="339.5" y="-144" font-family="Helvetica,sans-Serif" font-size="10.00">::operator()</text>
</a>
</g>
</g>
<!-- Node2&#45;&gt;Node4 -->
<g id="edge3" class="edge">
<title>Node2&#45;&gt;Node4</title>
<path fill="none" stroke="midnightblue" d="M477.57,-137.18C462.4,-138.82 446.04,-140.59 430.08,-142.32"/>
<polygon fill="midnightblue" stroke="midnightblue" points="478.29,-140.62 487.85,-136.07 477.54,-133.67 478.29,-140.62"/>
</g>
<!-- Node5 -->
<g id="node5" class="node">
<title>Node5</title>
<g id="a_node5"><a xlink:href="classpa_1_1GAAPGASolver.html#a570ec001ea8eee359be8a1b90b782cfb" target="_top" xlink:title=" ">
<polygon fill="white" stroke="black" points="259,-98.5 259,-117.5 420,-117.5 420,-98.5 259,-98.5"/>
<text text-anchor="middle" x="339.5" y="-105.5" font-family="Helvetica,sans-Serif" font-size="10.00">pa::GAAPGASolver::operator()</text>
</a>
</g>
</g>
<!-- Node2&#45;&gt;Node5 -->
<g id="edge4" class="edge">
<title>Node2&#45;&gt;Node5</title>
<path fill="none" stroke="midnightblue" d="M477.82,-122.85C459.39,-120.85 439.18,-118.67 420.07,-116.6"/>
<polygon fill="midnightblue" stroke="midnightblue" points="477.54,-126.33 487.85,-123.93 478.29,-119.38 477.54,-126.33"/>
</g>
<!-- Node6 -->
<g id="node6" class="node">
<title>Node6</title>
<g id="a_node6"><a xlink:href="namespacepa.html#a2b97bf67604c439eca0a540664930d61" target="_top" xlink:title=" ">
<polygon fill="white" stroke="black" points="294,-60.5 294,-79.5 385,-79.5 385,-60.5 294,-60.5"/>
<text text-anchor="middle" x="339.5" y="-67.5" font-family="Helvetica,sans-Serif" font-size="10.00">pa::panoc_impl</text>
</a>
</g>
</g>
<!-- Node2&#45;&gt;Node6 -->
<g id="edge5" class="edge">
<title>Node2&#45;&gt;Node6</title>
<path fill="none" stroke="midnightblue" d="M484.41,-111.64C478.16,-109.49 471.93,-107.26 466,-105 449.64,-98.76 446.65,-94.4 430,-89 415.65,-84.34 399.62,-80.53 385.14,-77.57"/>
<polygon fill="midnightblue" stroke="midnightblue" points="483.61,-115.06 494.21,-114.93 485.84,-108.42 483.61,-115.06"/>
</g>
<!-- Node7 -->
<g id="node7" class="node">
<title>Node7</title>
<g id="a_node7"><a xlink:href="namespacepa.html#adf74e7674514afed3ae1c356ffcb9e45" target="_top" xlink:title=" ">
<polygon fill="white" stroke="black" points="149,-60.5 149,-79.5 213,-79.5 213,-60.5 149,-60.5"/>
<text text-anchor="middle" x="181" y="-67.5" font-family="Helvetica,sans-Serif" font-size="10.00">pa::panoc</text>
</a>
</g>
</g>
<!-- Node6&#45;&gt;Node7 -->
<g id="edge6" class="edge">
<title>Node6&#45;&gt;Node7</title>
<path fill="none" stroke="midnightblue" d="M283.47,-70C260.01,-70 233.49,-70 213.44,-70"/>
<polygon fill="midnightblue" stroke="midnightblue" points="283.65,-73.5 293.65,-70 283.65,-66.5 283.65,-73.5"/>
</g>
<!-- Node8 -->
<g id="node8" class="node">
<title>Node8</title>
<g id="a_node8"><a xlink:href="alpaqa_8cpp.html#a52c00cccef0976f125d4a27f9906c36b" target="_top" xlink:title=" ">
<polygon fill="white" stroke="black" points="0,-60.5 0,-79.5 113,-79.5 113,-60.5 0,-60.5"/>
<text text-anchor="middle" x="56.5" y="-67.5" font-family="Helvetica,sans-Serif" font-size="10.00">PYBIND11_MODULE</text>
</a>
</g>
</g>
<!-- Node7&#45;&gt;Node8 -->
<g id="edge7" class="edge">
<title>Node7&#45;&gt;Node8</title>
<path fill="none" stroke="midnightblue" d="M138.52,-70C130.45,-70 121.88,-70 113.43,-70"/>
<polygon fill="midnightblue" stroke="midnightblue" points="138.77,-73.5 148.77,-70 138.77,-66.5 138.77,-73.5"/>
</g>
</g>
</svg>
