<?xml version="1.0" encoding="UTF-8" standalone="no"?>
<!DOCTYPE svg PUBLIC "-//W3C//DTD SVG 1.1//EN"
 "http://www.w3.org/Graphics/SVG/1.1/DTD/svg11.dtd">
<!-- Generated by graphviz version 2.43.0 (0)
 -->
<!-- Title: operator() Pages: 1 -->
<svg width="845pt" height="445pt"
 viewBox="0.00 0.00 845.00 444.88" xmlns="http://www.w3.org/2000/svg" xmlns:xlink="http://www.w3.org/1999/xlink">
<g id="graph0" class="graph" transform="scale(1 1) rotate(0) translate(4 440.88)">
<title>operator()</title>
<polygon fill="white" stroke="transparent" points="-4,4 -4,-440.88 841,-440.88 841,4 -4,4"/>
<!-- Node1 -->
<g id="node1" class="node">
<title>Node1</title>
<g id="a_node1"><a xlink:title=" ">
<polygon fill="#bfbfbf" stroke="black" points="0,-195 0,-214 65,-214 65,-195 0,-195"/>
<text text-anchor="middle" x="32.5" y="-202" font-family="Helvetica,sans-Serif" font-size="10.00">operator()</text>
</a>
</g>
</g>
<!-- Node2 -->
<g id="node2" class="node">
<title>Node2</title>
<g id="a_node2"><a xlink:href="namespacepa_1_1detail.html#a22e222a3f2d7f01ceee380154e140ea9" target="_top" xlink:title="Calculate the error between ẑ and g(x).">
<polygon fill="white" stroke="black" points="606,-365 606,-384 723,-384 723,-365 606,-365"/>
<text text-anchor="middle" x="664.5" y="-372" font-family="Helvetica,sans-Serif" font-size="10.00">pa::detail::calc_err_z</text>
</a>
</g>
</g>
<!-- Node1&#45;&gt;Node2 -->
<g id="edge1" class="edge">
<title>Node1&#45;&gt;Node2</title>
<path fill="none" stroke="midnightblue" d="M34.88,-214.19C39.21,-240.65 55.07,-314.49 101,-349.5 264.48,-474.12 356.74,-437.2 560,-406.5 584.02,-402.87 610.15,-394.76 630.15,-387.61"/>
<polygon fill="midnightblue" stroke="midnightblue" points="631.54,-390.83 639.72,-384.09 629.13,-384.26 631.54,-390.83"/>
</g>
<!-- Node4 -->
<g id="node4" class="node">
<title>Node4</title>
<g id="a_node4"><a xlink:href="namespacepa_1_1detail.html#ad4d033d8e69bebca614098fa2df0a4a1" target="_top" xlink:title="Compute the ε from the stopping criterion, see PANOCStopCrit.">
<polygon fill="white" stroke="black" points="280.5,-334.5 280.5,-364.5 396.5,-364.5 396.5,-334.5 280.5,-334.5"/>
<text text-anchor="start" x="288.5" y="-352.5" font-family="Helvetica,sans-Serif" font-size="10.00">pa::detail::calc_error</text>
<text text-anchor="middle" x="338.5" y="-341.5" font-family="Helvetica,sans-Serif" font-size="10.00">_stop_crit</text>
</a>
</g>
</g>
<!-- Node1&#45;&gt;Node4 -->
<g id="edge3" class="edge">
<title>Node1&#45;&gt;Node4</title>
<path fill="none" stroke="midnightblue" d="M36.1,-214.07C42.72,-236.42 62.48,-292.07 101,-317.5 150.82,-350.38 219.47,-356.39 269.98,-355.36"/>
<polygon fill="midnightblue" stroke="midnightblue" points="270.26,-358.85 280.15,-355.05 270.04,-351.85 270.26,-358.85"/>
</g>
<!-- Node9 -->
<g id="node9" class="node">
<title>Node9</title>
<g id="a_node9"><a xlink:href="namespacepa_1_1detail.html#a908a0589ddf8734417f5481395e197d2" target="_top" xlink:title="Calculate ∇ψ(x) using ŷ.">
<polygon fill="white" stroke="black" points="441.5,-93.5 441.5,-123.5 556.5,-123.5 556.5,-93.5 441.5,-93.5"/>
<text text-anchor="start" x="449.5" y="-111.5" font-family="Helvetica,sans-Serif" font-size="10.00">pa::detail::calc_grad</text>
<text text-anchor="middle" x="499" y="-100.5" font-family="Helvetica,sans-Serif" font-size="10.00">_ψ_from_ŷ</text>
</a>
</g>
</g>
<!-- Node1&#45;&gt;Node9 -->
<g id="edge9" class="edge">
<title>Node1&#45;&gt;Node9</title>
<path fill="none" stroke="midnightblue" d="M37.46,-194.78C45.87,-175.64 67.5,-133.45 101,-116.5 206.56,-63.11 348.97,-77.7 431.41,-93.12"/>
<polygon fill="midnightblue" stroke="midnightblue" points="430.92,-96.59 441.4,-95.05 432.25,-89.72 430.92,-96.59"/>
</g>
<!-- Node10 -->
<g id="node10" class="node">
<title>Node10</title>
<g id="a_node10"><a xlink:href="namespacepa_1_1detail.html#ac32d0e6b012b801731e55225b7505fa9" target="_top" xlink:title=" ">
<polygon fill="white" stroke="black" points="289,-290 289,-309 388,-309 388,-290 289,-290"/>
<text text-anchor="middle" x="338.5" y="-297" font-family="Helvetica,sans-Serif" font-size="10.00">pa::detail::calc_x̂</text>
</a>
</g>
</g>
<!-- Node1&#45;&gt;Node10 -->
<g id="edge10" class="edge">
<title>Node1&#45;&gt;Node10</title>
<path fill="none" stroke="midnightblue" d="M37.48,-214.19C45.91,-233.29 67.58,-275.39 101,-292.5 157.79,-321.56 232.71,-317.94 282.87,-310.59"/>
<polygon fill="midnightblue" stroke="midnightblue" points="283.53,-314.03 292.87,-309.03 282.45,-307.12 283.53,-314.03"/>
</g>
<!-- Node11 -->
<g id="node11" class="node">
<title>Node11</title>
<g id="a_node11"><a xlink:href="namespacepa_1_1detail.html#aa986daa1d5f0dfdbc75c143d2aae2919" target="_top" xlink:title="Calculate both ψ(x) and its gradient ∇ψ(x).">
<polygon fill="white" stroke="black" points="288.5,-164.5 288.5,-194.5 388.5,-194.5 388.5,-164.5 288.5,-164.5"/>
<text text-anchor="start" x="296.5" y="-182.5" font-family="Helvetica,sans-Serif" font-size="10.00">pa::detail::calc_ψ</text>
<text text-anchor="middle" x="338.5" y="-171.5" font-family="Helvetica,sans-Serif" font-size="10.00">_grad_ψ</text>
</a>
</g>
</g>
<!-- Node1&#45;&gt;Node11 -->
<g id="edge12" class="edge">
<title>Node1&#45;&gt;Node11</title>
<path fill="none" stroke="midnightblue" d="M65.17,-201.9C115.45,-197.76 214.34,-189.63 278.1,-184.38"/>
<polygon fill="midnightblue" stroke="midnightblue" points="278.73,-187.85 288.41,-183.54 278.16,-180.87 278.73,-187.85"/>
</g>
<!-- Node12 -->
<g id="node12" class="node">
<title>Node12</title>
<g id="a_node12"><a xlink:href="namespacepa_1_1detail.html#a82a03662e6ce5bcfd57ee2df719aec21" target="_top" xlink:title="Calculate both ψ(x) and the vector ŷ that can later be used to compute ∇ψ.">
<polygon fill="white" stroke="black" points="443.5,-214 443.5,-233 554.5,-233 554.5,-214 443.5,-214"/>
<text text-anchor="middle" x="499" y="-221" font-family="Helvetica,sans-Serif" font-size="10.00">pa::detail::calc_ψ_ŷ</text>
</a>
</g>
</g>
<!-- Node1&#45;&gt;Node12 -->
<g id="edge16" class="edge">
<title>Node1&#45;&gt;Node12</title>
<path fill="none" stroke="midnightblue" d="M65.06,-205.79C140.37,-208.87 331.85,-216.7 433.04,-220.84"/>
<polygon fill="midnightblue" stroke="midnightblue" points="433.01,-224.34 443.14,-221.26 433.29,-217.35 433.01,-224.34"/>
</g>
<!-- Node13 -->
<g id="node13" class="node">
<title>Node13</title>
<g id="a_node13"><a xlink:href="namespacepa_1_1detail.html#ac7d4fa127500b38a8cec94984c4f598d" target="_top" xlink:title="Increase the estimate of the Lipschitz constant of the objective gradient and decrease the step size ...">
<polygon fill="white" stroke="black" points="116.5,-252.5 116.5,-282.5 223.5,-282.5 223.5,-252.5 116.5,-252.5"/>
<text text-anchor="start" x="124.5" y="-270.5" font-family="Helvetica,sans-Serif" font-size="10.00">pa::detail::descent</text>
<text text-anchor="middle" x="170" y="-259.5" font-family="Helvetica,sans-Serif" font-size="10.00">_lemma</text>
</a>
</g>
</g>
<!-- Node1&#45;&gt;Node13 -->
<g id="edge17" class="edge">
<title>Node1&#45;&gt;Node13</title>
<path fill="none" stroke="midnightblue" d="M52.61,-214.09C66.07,-220.79 84.56,-229.86 101,-237.5 108.74,-241.1 117.01,-244.84 125.04,-248.41"/>
<polygon fill="midnightblue" stroke="midnightblue" points="123.73,-251.65 134.29,-252.5 126.56,-245.25 123.73,-251.65"/>
</g>
<!-- Node14 -->
<g id="node14" class="node">
<title>Node14</title>
<g id="a_node14"><a xlink:href="namespacepa_1_1detail.html#a92963cadf7f44fcf9f3ab6bddff08796" target="_top" xlink:title="Estimate the Lipschitz constant of the gradient &#160;using finite differences.">
<polygon fill="white" stroke="black" points="114.5,-126.5 114.5,-156.5 225.5,-156.5 225.5,-126.5 114.5,-126.5"/>
<text text-anchor="start" x="122.5" y="-144.5" font-family="Helvetica,sans-Serif" font-size="10.00">pa::detail::initial</text>
<text text-anchor="middle" x="170" y="-133.5" font-family="Helvetica,sans-Serif" font-size="10.00">_lipschitz_estimate</text>
</a>
</g>
</g>
<!-- Node1&#45;&gt;Node14 -->
<g id="edge20" class="edge">
<title>Node1&#45;&gt;Node14</title>
<path fill="none" stroke="midnightblue" d="M52.61,-194.91C66.07,-188.21 84.56,-179.14 101,-171.5 108.74,-167.9 117.01,-164.16 125.04,-160.59"/>
<polygon fill="midnightblue" stroke="midnightblue" points="126.56,-163.75 134.29,-156.5 123.73,-157.35 126.56,-163.75"/>
</g>
<!-- Node16 -->
<g id="node16" class="node">
<title>Node16</title>
<g id="a_node16"><a xlink:href="namespacepa_1_1detail.html#aea72ee13ae482d948d1b994deb457578" target="_top" xlink:title=" ">
<polygon fill="white" stroke="black" points="101,-50 101,-69 239,-69 239,-50 101,-50"/>
<text text-anchor="middle" x="170" y="-57" font-family="Helvetica,sans-Serif" font-size="10.00">pa::detail::print_progress</text>
</a>
</g>
</g>
<!-- Node1&#45;&gt;Node16 -->
<g id="edge24" class="edge">
<title>Node1&#45;&gt;Node16</title>
<path fill="none" stroke="midnightblue" d="M36.28,-194.8C43.3,-172.05 63.86,-114.83 101,-83.5 105.9,-79.37 111.56,-75.93 117.48,-73.07"/>
<polygon fill="midnightblue" stroke="midnightblue" points="119.09,-76.19 126.92,-69.04 116.35,-69.75 119.09,-76.19"/>
</g>
<!-- Node17 -->
<g id="node17" class="node">
<title>Node17</title>
<g id="a_node17"><a xlink:href="classpa_1_1AtomicStopSignal.html#aa0097deccc19b49f8ab5344d8d6d5cf6" target="_top" xlink:title=" ">
<polygon fill="white" stroke="black" points="109.5,-0.5 109.5,-30.5 230.5,-30.5 230.5,-0.5 109.5,-0.5"/>
<text text-anchor="start" x="117.5" y="-18.5" font-family="Helvetica,sans-Serif" font-size="10.00">pa::AtomicStopSignal</text>
<text text-anchor="middle" x="170" y="-7.5" font-family="Helvetica,sans-Serif" font-size="10.00">::stop_requested</text>
</a>
</g>
</g>
<!-- Node1&#45;&gt;Node17 -->
<g id="edge25" class="edge">
<title>Node1&#45;&gt;Node17</title>
<path fill="none" stroke="midnightblue" d="M34.74,-194.86C38.84,-166.97 54.42,-85.34 101,-40.5 102.62,-38.94 104.35,-37.48 106.15,-36.1"/>
<polygon fill="midnightblue" stroke="midnightblue" points="108.07,-39.03 114.54,-30.64 104.25,-33.17 108.07,-39.03"/>
</g>
<!-- Node3 -->
<g id="node3" class="node">
<title>Node3</title>
<g id="a_node3"><a xlink:href="namespacepa.html#a5414901c2fb62f1fd47857642964cc71" target="_top" xlink:title="Project a vector onto a box.">
<polygon fill="white" stroke="black" points="769,-296 769,-315 837,-315 837,-296 769,-296"/>
<text text-anchor="middle" x="803" y="-303" font-family="Helvetica,sans-Serif" font-size="10.00">pa::project</text>
</a>
</g>
</g>
<!-- Node2&#45;&gt;Node3 -->
<g id="edge2" class="edge">
<title>Node2&#45;&gt;Node3</title>
<path fill="none" stroke="midnightblue" d="M684.48,-364.91C707.71,-353.17 747.23,-333.18 773.97,-319.67"/>
<polygon fill="midnightblue" stroke="midnightblue" points="775.84,-322.65 783.18,-315.01 772.68,-316.4 775.84,-322.65"/>
</g>
<!-- Node5 -->
<g id="node5" class="node">
<title>Node5</title>
<g id="a_node5"><a xlink:href="namespacepa_1_1vec__util.html#a9fe5014a9c51ca2202dc5d526dce6823" target="_top" xlink:title="Get the 1&#45;norm of the given vector.">
<polygon fill="white" stroke="black" points="441,-378 441,-397 557,-397 557,-378 441,-378"/>
<text text-anchor="middle" x="499" y="-385" font-family="Helvetica,sans-Serif" font-size="10.00">pa::vec_util::norm_1</text>
</a>
</g>
</g>
<!-- Node4&#45;&gt;Node5 -->
<g id="edge4" class="edge">
<title>Node4&#45;&gt;Node5</title>
<path fill="none" stroke="midnightblue" d="M396.72,-363.22C413.61,-367.27 431.95,-371.66 448.32,-375.59"/>
<polygon fill="midnightblue" stroke="midnightblue" points="447.69,-379.04 458.23,-377.97 449.33,-372.23 447.69,-379.04"/>
</g>
<!-- Node6 -->
<g id="node6" class="node">
<title>Node6</title>
<g id="a_node6"><a xlink:href="namespacepa_1_1vec__util.html#af8e650634ec3d7b82a78a4d313632ed0" target="_top" xlink:title="Get the maximum or infinity&#45;norm of the given vector.">
<polygon fill="white" stroke="black" points="438,-302 438,-321 560,-321 560,-302 438,-302"/>
<text text-anchor="middle" x="499" y="-309" font-family="Helvetica,sans-Serif" font-size="10.00">pa::vec_util::norm_inf</text>
</a>
</g>
</g>
<!-- Node4&#45;&gt;Node6 -->
<g id="edge5" class="edge">
<title>Node4&#45;&gt;Node6</title>
<path fill="none" stroke="midnightblue" d="M396.72,-335.78C413.61,-331.73 431.95,-327.34 448.32,-323.41"/>
<polygon fill="midnightblue" stroke="midnightblue" points="449.33,-326.77 458.23,-321.03 447.69,-319.96 449.33,-326.77"/>
</g>
<!-- Node7 -->
<g id="node7" class="node">
<title>Node7</title>
<g id="a_node7"><a xlink:href="namespacepa_1_1detail.html#a8ed4d487878856942843707b5a131b85" target="_top" xlink:title="Projected gradient step.">
<polygon fill="white" stroke="black" points="442,-252.5 442,-282.5 556,-282.5 556,-252.5 442,-252.5"/>
<text text-anchor="start" x="450" y="-270.5" font-family="Helvetica,sans-Serif" font-size="10.00">pa::detail::projected</text>
<text text-anchor="middle" x="499" y="-259.5" font-family="Helvetica,sans-Serif" font-size="10.00">_gradient_step</text>
</a>
</g>
</g>
<!-- Node4&#45;&gt;Node7 -->
<g id="edge6" class="edge">
<title>Node4&#45;&gt;Node7</title>
<path fill="none" stroke="midnightblue" d="M372.48,-334.4C382.17,-329.64 392.67,-324.13 402,-318.5 418.9,-308.3 420.78,-302.14 438,-292.5 441.5,-290.54 445.19,-288.64 448.94,-286.83"/>
<polygon fill="midnightblue" stroke="midnightblue" points="450.71,-289.87 458.33,-282.5 447.78,-283.51 450.71,-289.87"/>
</g>
<!-- Node8 -->
<g id="node8" class="node">
<title>Node8</title>
<g id="a_node8"><a xlink:href="namespacepa.html#aee505a26e46aa4c0ce09d0fed72f0dac" target="_top" xlink:title="Get the difference between the given vector and its projection.">
<polygon fill="white" stroke="black" points="596,-277 596,-296 733,-296 733,-277 596,-277"/>
<text text-anchor="middle" x="664.5" y="-284" font-family="Helvetica,sans-Serif" font-size="10.00">pa::projecting_difference</text>
</a>
</g>
</g>
<!-- Node4&#45;&gt;Node8 -->
<g id="edge7" class="edge">
<title>Node4&#45;&gt;Node8</title>
<path fill="none" stroke="midnightblue" d="M396.96,-349.48C441.94,-348.3 505.75,-344 560,-330.5 587.15,-323.74 616.34,-310.76 636.77,-300.64"/>
<polygon fill="midnightblue" stroke="midnightblue" points="638.44,-303.72 645.78,-296.09 635.28,-297.48 638.44,-303.72"/>
</g>
<!-- Node8&#45;&gt;Node3 -->
<g id="edge8" class="edge">
<title>Node8&#45;&gt;Node3</title>
<path fill="none" stroke="midnightblue" d="M733.35,-295.94C742.01,-297.15 750.67,-298.36 758.79,-299.49"/>
<polygon fill="midnightblue" stroke="midnightblue" points="758.35,-302.96 768.73,-300.87 759.31,-296.02 758.35,-302.96"/>
</g>
<!-- Node10&#45;&gt;Node7 -->
<g id="edge11" class="edge">
<title>Node10&#45;&gt;Node7</title>
<path fill="none" stroke="midnightblue" d="M386.63,-289.99C400.85,-287.11 416.73,-283.91 431.95,-280.84"/>
<polygon fill="midnightblue" stroke="midnightblue" points="432.72,-284.25 441.83,-278.84 431.33,-277.39 432.72,-284.25"/>
</g>
<!-- Node11&#45;&gt;Node9 -->
<g id="edge13" class="edge">
<title>Node11&#45;&gt;Node9</title>
<path fill="none" stroke="midnightblue" d="M378.34,-164.43C386.21,-161.24 394.4,-157.84 402,-154.5 420.85,-146.23 441.47,-136.44 458.75,-128.03"/>
<polygon fill="midnightblue" stroke="midnightblue" points="460.53,-131.06 467.97,-123.52 457.45,-124.77 460.53,-131.06"/>
</g>
<!-- Node11&#45;&gt;Node12 -->
<g id="edge14" class="edge">
<title>Node11&#45;&gt;Node12</title>
<path fill="none" stroke="midnightblue" d="M388.78,-193.18C409.46,-198.92 433.33,-205.55 453.47,-211.14"/>
<polygon fill="midnightblue" stroke="midnightblue" points="452.76,-214.57 463.33,-213.88 454.63,-207.83 452.76,-214.57"/>
</g>
<!-- Node12&#45;&gt;Node8 -->
<g id="edge15" class="edge">
<title>Node12&#45;&gt;Node8</title>
<path fill="none" stroke="midnightblue" d="M530.06,-233.05C539.67,-236.23 550.33,-239.89 560,-243.5 584.59,-252.69 612.01,-264.14 632.45,-272.91"/>
<polygon fill="midnightblue" stroke="midnightblue" points="631.31,-276.23 641.87,-276.98 634.08,-269.8 631.31,-276.23"/>
</g>
<!-- Node13&#45;&gt;Node10 -->
<g id="edge18" class="edge">
<title>Node13&#45;&gt;Node10</title>
<path fill="none" stroke="midnightblue" d="M223.68,-277.62C241.2,-280.99 260.83,-284.76 278.78,-288.21"/>
<polygon fill="midnightblue" stroke="midnightblue" points="278.36,-291.7 288.84,-290.15 279.68,-284.82 278.36,-291.7"/>
</g>
<!-- Node13&#45;&gt;Node12 -->
<g id="edge19" class="edge">
<title>Node13&#45;&gt;Node12</title>
<path fill="none" stroke="midnightblue" d="M223.78,-260.88C270.63,-254.96 340.91,-245.92 402,-237.5 412.18,-236.1 422.96,-234.57 433.47,-233.05"/>
<polygon fill="midnightblue" stroke="midnightblue" points="434.05,-236.5 443.45,-231.61 433.05,-229.58 434.05,-236.5"/>
</g>
<!-- Node14&#45;&gt;Node11 -->
<g id="edge23" class="edge">
<title>Node14&#45;&gt;Node11</title>
<path fill="none" stroke="midnightblue" d="M225.52,-153.94C242.48,-157.81 261.27,-162.1 278.52,-166.04"/>
<polygon fill="midnightblue" stroke="midnightblue" points="277.95,-169.5 288.48,-168.31 279.51,-162.67 277.95,-169.5"/>
</g>
<!-- Node15 -->
<g id="node15" class="node">
<title>Node15</title>
<g id="a_node15"><a xlink:href="namespacepa_1_1detail.html#a6572cf745448d2b40e9d5e977d17d5e2" target="_top" xlink:title="Calculate the gradient ∇ψ(x).">
<polygon fill="white" stroke="black" points="275,-126 275,-145 402,-145 402,-126 275,-126"/>
<text text-anchor="middle" x="338.5" y="-133" font-family="Helvetica,sans-Serif" font-size="10.00">pa::detail::calc_grad_ψ</text>
</a>
</g>
</g>
<!-- Node14&#45;&gt;Node15 -->
<g id="edge21" class="edge">
<title>Node14&#45;&gt;Node15</title>
<path fill="none" stroke="midnightblue" d="M225.52,-139.54C237.94,-139.09 251.34,-138.6 264.39,-138.13"/>
<polygon fill="midnightblue" stroke="midnightblue" points="264.9,-141.62 274.77,-137.76 264.65,-134.62 264.9,-141.62"/>
</g>
<!-- Node15&#45;&gt;Node8 -->
<g id="edge22" class="edge">
<title>Node15&#45;&gt;Node8</title>
<path fill="none" stroke="midnightblue" d="M387.07,-145.06C433.12,-155.52 503.98,-174.86 560,-204.5 593.51,-222.23 626.92,-251.27 646.37,-269.61"/>
<polygon fill="midnightblue" stroke="midnightblue" points="644.17,-272.36 653.81,-276.75 649.02,-267.3 644.17,-272.36"/>
</g>
</g>
</svg>
