<?xml version="1.0" encoding="UTF-8" standalone="no"?>
<!DOCTYPE svg PUBLIC "-//W3C//DTD SVG 1.1//EN"
 "http://www.w3.org/Graphics/SVG/1.1/DTD/svg11.dtd">
<!-- Generated by graphviz version 2.43.0 (0)
 -->
<!-- Title: resize Pages: 1 -->
<svg width="394pt" height="116pt"
 viewBox="0.00 0.00 394.00 115.50" xmlns="http://www.w3.org/2000/svg" xmlns:xlink="http://www.w3.org/1999/xlink">
<g id="graph0" class="graph" transform="scale(1 1) rotate(0) translate(4 111.5)">
<title>resize</title>
<polygon fill="white" stroke="transparent" points="-4,4 -4,-111.5 390,-111.5 390,4 -4,4"/>
<!-- Node1 -->
<g id="node1" class="node">
<title>Node1</title>
<g id="a_node1"><a xlink:title=" ">
<polygon fill="#bfbfbf" stroke="black" points="0,-50 0,-69 46,-69 46,-50 0,-50"/>
<text text-anchor="middle" x="23" y="-57" font-family="Helvetica,sans-Serif" font-size="10.00">resize</text>
</a>
</g>
</g>
<!-- Node2 -->
<g id="node2" class="node">
<title>Node2</title>
<g id="a_node2"><a xlink:href="classpa_1_1LimitedMemoryQR.html#a94d70718a4b923a645b928bc68524916" target="_top" xlink:title="Re&#45;allocate storage for a problem with a different size.">
<polygon fill="white" stroke="black" points="82,-44.5 82,-74.5 208,-74.5 208,-44.5 82,-44.5"/>
<text text-anchor="start" x="90" y="-62.5" font-family="Helvetica,sans-Serif" font-size="10.00">pa::LimitedMemoryQR</text>
<text text-anchor="middle" x="145" y="-51.5" font-family="Helvetica,sans-Serif" font-size="10.00">::resize</text>
</a>
</g>
</g>
<!-- Node1&#45;&gt;Node2 -->
<g id="edge1" class="edge">
<title>Node1&#45;&gt;Node2</title>
<path fill="none" stroke="midnightblue" d="M46.01,-59.5C53.51,-59.5 62.36,-59.5 71.62,-59.5"/>
<polygon fill="midnightblue" stroke="midnightblue" points="71.79,-63 81.79,-59.5 71.79,-56 71.79,-63"/>
</g>
<!-- Node3 -->
<g id="node3" class="node">
<title>Node3</title>
<g id="a_node3"><a xlink:href="classpa_1_1LimitedMemoryQR.html#af83f6287b8ea07acdcfa4670af30cbbf" target="_top" xlink:title=" ">
<polygon fill="white" stroke="black" points="244,-88 244,-107 386,-107 386,-88 244,-88"/>
<text text-anchor="middle" x="315" y="-95" font-family="Helvetica,sans-Serif" font-size="10.00">pa::LimitedMemoryQR::m</text>
</a>
</g>
</g>
<!-- Node2&#45;&gt;Node3 -->
<g id="edge2" class="edge">
<title>Node2&#45;&gt;Node3</title>
<path fill="none" stroke="midnightblue" d="M208.08,-73.54C225.82,-77.55 244.96,-81.88 262.02,-85.74"/>
<polygon fill="midnightblue" stroke="midnightblue" points="261.28,-89.16 271.8,-87.96 262.82,-82.34 261.28,-89.16"/>
</g>
<!-- Node4 -->
<g id="node4" class="node">
<title>Node4</title>
<g id="a_node4"><a xlink:href="classpa_1_1LimitedMemoryQR.html#ac88f0961aa7ed7c7415550ab2cad49c8" target="_top" xlink:title=" ">
<polygon fill="white" stroke="black" points="246,-50 246,-69 384,-69 384,-50 246,-50"/>
<text text-anchor="middle" x="315" y="-57" font-family="Helvetica,sans-Serif" font-size="10.00">pa::LimitedMemoryQR::n</text>
</a>
</g>
</g>
<!-- Node2&#45;&gt;Node4 -->
<g id="edge3" class="edge">
<title>Node2&#45;&gt;Node4</title>
<path fill="none" stroke="midnightblue" d="M208.08,-59.5C217.14,-59.5 226.57,-59.5 235.9,-59.5"/>
<polygon fill="midnightblue" stroke="midnightblue" points="235.96,-63 245.96,-59.5 235.96,-56 235.96,-63"/>
</g>
<!-- Node5 -->
<g id="node5" class="node">
<title>Node5</title>
<g id="a_node5"><a xlink:href="classpa_1_1LimitedMemoryQR.html#ad20897c5c8bd47f5d4005989bead0e55" target="_top" xlink:title="Reset all indices, clearing the Q and R matrices.">
<polygon fill="white" stroke="black" points="252,-0.5 252,-30.5 378,-30.5 378,-0.5 252,-0.5"/>
<text text-anchor="start" x="260" y="-18.5" font-family="Helvetica,sans-Serif" font-size="10.00">pa::LimitedMemoryQR</text>
<text text-anchor="middle" x="315" y="-7.5" font-family="Helvetica,sans-Serif" font-size="10.00">::reset</text>
</a>
</g>
</g>
<!-- Node2&#45;&gt;Node5 -->
<g id="edge4" class="edge">
<title>Node2&#45;&gt;Node5</title>
<path fill="none" stroke="midnightblue" d="M203.35,-44.48C217.33,-40.82 232.4,-36.87 246.8,-33.1"/>
<polygon fill="midnightblue" stroke="midnightblue" points="247.84,-36.45 256.63,-30.53 246.07,-29.67 247.84,-36.45"/>
</g>
</g>
</svg>
