<?xml version="1.0" encoding="UTF-8" standalone="no"?>
<!DOCTYPE svg PUBLIC "-//W3C//DTD SVG 1.1//EN"
 "http://www.w3.org/Graphics/SVG/1.1/DTD/svg11.dtd">
<!-- Generated by graphviz version 2.43.0 (0)
 -->
<!-- Title: main.cpp Pages: 1 -->
<svg width="1730pt" height="341pt"
 viewBox="0.00 0.00 1730.00 341.00" xmlns="http://www.w3.org/2000/svg" xmlns:xlink="http://www.w3.org/1999/xlink">
<g id="graph0" class="graph" transform="scale(1 1) rotate(0) translate(4 337)">
<title>main.cpp</title>
<polygon fill="white" stroke="transparent" points="-4,4 -4,-337 1726,-337 1726,4 -4,4"/>
<!-- Node1 -->
<g id="node1" class="node">
<title>Node1</title>
<g id="a_node1"><a xlink:title=" ">
<polygon fill="#bfbfbf" stroke="black" points="738,-313.5 738,-332.5 800,-332.5 800,-313.5 738,-313.5"/>
<text text-anchor="middle" x="769" y="-320.5" font-family="Helvetica,sans-Serif" font-size="10.00">main.cpp</text>
</a>
</g>
</g>
<!-- Node2 -->
<g id="node2" class="node">
<title>Node2</title>
<g id="a_node2"><a xlink:href="decl_2alm_8hpp.html" target="_top" xlink:title=" ">
<polygon fill="white" stroke="black" points="333,-252 333,-271 467,-271 467,-252 333,-252"/>
<text text-anchor="middle" x="400" y="-259" font-family="Helvetica,sans-Serif" font-size="10.00">panoc&#45;alm/decl/alm.hpp</text>
</a>
</g>
</g>
<!-- Node1&#45;&gt;Node2 -->
<g id="edge1" class="edge">
<title>Node1&#45;&gt;Node2</title>
<path fill="none" stroke="midnightblue" d="M737.86,-316.98C677.29,-307.21 542.58,-285.49 462.77,-272.62"/>
<polygon fill="midnightblue" stroke="midnightblue" points="463.27,-269.16 452.84,-271.02 462.15,-276.07 463.27,-269.16"/>
</g>
<!-- Node17 -->
<g id="node17" class="node">
<title>Node17</title>
<g id="a_node17"><a xlink:href="inner_2decl_2panoc_8hpp.html" target="_top" xlink:title=" ">
<polygon fill="white" stroke="black" points="709.5,-246.5 709.5,-276.5 828.5,-276.5 828.5,-246.5 709.5,-246.5"/>
<text text-anchor="start" x="717.5" y="-264.5" font-family="Helvetica,sans-Serif" font-size="10.00">panoc&#45;alm/inner/decl</text>
<text text-anchor="middle" x="769" y="-253.5" font-family="Helvetica,sans-Serif" font-size="10.00">/panoc.hpp</text>
</a>
</g>
</g>
<!-- Node1&#45;&gt;Node17 -->
<g id="edge17" class="edge">
<title>Node1&#45;&gt;Node17</title>
<path fill="none" stroke="midnightblue" d="M769,-313.48C769,-306.47 769,-296.19 769,-286.7"/>
<polygon fill="midnightblue" stroke="midnightblue" points="772.5,-286.52 769,-276.52 765.5,-286.52 772.5,-286.52"/>
</g>
<!-- Node27 -->
<g id="node27" class="node">
<title>Node27</title>
<g id="a_node27"><a xlink:href="decl_2lbfgs_8hpp.html" target="_top" xlink:title=" ">
<polygon fill="white" stroke="black" points="1496.5,-246.5 1496.5,-276.5 1643.5,-276.5 1643.5,-246.5 1496.5,-246.5"/>
<text text-anchor="start" x="1504.5" y="-264.5" font-family="Helvetica,sans-Serif" font-size="10.00">panoc&#45;alm/inner/directions</text>
<text text-anchor="middle" x="1570" y="-253.5" font-family="Helvetica,sans-Serif" font-size="10.00">/decl/lbfgs.hpp</text>
</a>
</g>
</g>
<!-- Node1&#45;&gt;Node27 -->
<g id="edge35" class="edge">
<title>Node1&#45;&gt;Node27</title>
<path fill="none" stroke="midnightblue" d="M800.4,-319.67C914.76,-311.17 1311.42,-281.71 1486.2,-268.72"/>
<polygon fill="midnightblue" stroke="midnightblue" points="1486.66,-272.2 1496.37,-267.97 1486.14,-265.22 1486.66,-272.2"/>
</g>
<!-- Node28 -->
<g id="node28" class="node">
<title>Node28</title>
<g id="a_node28"><a xlink:href="CUTEstLoader_8hpp.html" target="_top" xlink:title=" ">
<polygon fill="white" stroke="black" points="107.5,-246.5 107.5,-276.5 246.5,-276.5 246.5,-246.5 107.5,-246.5"/>
<text text-anchor="start" x="115.5" y="-264.5" font-family="Helvetica,sans-Serif" font-size="10.00">panoc&#45;alm/interop/cutest</text>
<text text-anchor="middle" x="177" y="-253.5" font-family="Helvetica,sans-Serif" font-size="10.00">/CUTEstLoader.hpp</text>
</a>
</g>
</g>
<!-- Node1&#45;&gt;Node28 -->
<g id="edge40" class="edge">
<title>Node1&#45;&gt;Node28</title>
<path fill="none" stroke="midnightblue" d="M737.59,-318.84C647.95,-309.83 388.92,-283.8 256.7,-270.51"/>
<polygon fill="midnightblue" stroke="midnightblue" points="256.93,-267.02 246.63,-269.5 256.23,-273.98 256.93,-267.02"/>
</g>
<!-- Node29 -->
<g id="node29" class="node">
<title>Node29</title>
<g id="a_node29"><a xlink:title=" ">
<polygon fill="white" stroke="#bfbfbf" points="1662,-252 1662,-271 1722,-271 1722,-252 1662,-252"/>
<text text-anchor="middle" x="1692" y="-259" font-family="Helvetica,sans-Serif" font-size="10.00">iostream</text>
</a>
</g>
</g>
<!-- Node1&#45;&gt;Node29 -->
<g id="edge45" class="edge">
<title>Node1&#45;&gt;Node29</title>
<path fill="none" stroke="midnightblue" d="M800.45,-321.68C937.73,-320.09 1485,-311.65 1653,-277 1656.25,-276.33 1659.6,-275.43 1662.89,-274.41"/>
<polygon fill="midnightblue" stroke="midnightblue" points="1664.2,-277.66 1672.5,-271.08 1661.91,-271.05 1664.2,-277.66"/>
</g>
<!-- Node3 -->
<g id="node3" class="node">
<title>Node3</title>
<g id="a_node3"><a xlink:href="panoc-fwd_8hpp.html" target="_top" xlink:title=" ">
<polygon fill="white" stroke="black" points="916.5,-179.5 916.5,-209.5 1035.5,-209.5 1035.5,-179.5 916.5,-179.5"/>
<text text-anchor="start" x="924.5" y="-197.5" font-family="Helvetica,sans-Serif" font-size="10.00">panoc&#45;alm/inner/decl</text>
<text text-anchor="middle" x="976" y="-186.5" font-family="Helvetica,sans-Serif" font-size="10.00">/panoc&#45;fwd.hpp</text>
</a>
</g>
</g>
<!-- Node2&#45;&gt;Node3 -->
<g id="edge2" class="edge">
<title>Node2&#45;&gt;Node3</title>
<path fill="none" stroke="midnightblue" d="M467.13,-256.13C562.48,-249.41 742.71,-234.81 906,-210.04"/>
<polygon fill="midnightblue" stroke="midnightblue" points="906.88,-213.45 916.23,-208.47 905.82,-206.53 906.88,-213.45"/>
</g>
<!-- Node5 -->
<g id="node5" class="node">
<title>Node5</title>
<g id="a_node5"><a xlink:href="include_2panoc-alm_2util_2problem_8hpp.html" target="_top" xlink:title=" ">
<polygon fill="white" stroke="black" points="101,-185 101,-204 253,-204 253,-185 101,-185"/>
<text text-anchor="middle" x="177" y="-192" font-family="Helvetica,sans-Serif" font-size="10.00">panoc&#45;alm/util/problem.hpp</text>
</a>
</g>
</g>
<!-- Node2&#45;&gt;Node5 -->
<g id="edge4" class="edge">
<title>Node2&#45;&gt;Node5</title>
<path fill="none" stroke="midnightblue" d="M370.39,-251.87C330.71,-240.3 260.19,-219.75 216.16,-206.91"/>
<polygon fill="midnightblue" stroke="midnightblue" points="216.96,-203.5 206.38,-204.06 215,-210.22 216.96,-203.5"/>
</g>
<!-- Node10 -->
<g id="node10" class="node">
<title>Node10</title>
<g id="a_node10"><a xlink:title=" ">
<polygon fill="white" stroke="#bfbfbf" points="384,-118 384,-137 434,-137 434,-118 384,-118"/>
<text text-anchor="middle" x="409" y="-125" font-family="Helvetica,sans-Serif" font-size="10.00">chrono</text>
</a>
</g>
</g>
<!-- Node2&#45;&gt;Node10 -->
<g id="edge15" class="edge">
<title>Node2&#45;&gt;Node10</title>
<path fill="none" stroke="midnightblue" d="M390.67,-251.89C381.35,-242.6 367.63,-226.86 362,-210 357.63,-196.93 356.96,-191.82 362,-179 367.47,-165.1 378.75,-152.77 388.9,-143.76"/>
<polygon fill="midnightblue" stroke="midnightblue" points="391.22,-146.39 396.66,-137.29 386.73,-141.01 391.22,-146.39"/>
</g>
<!-- Node14 -->
<g id="node14" class="node">
<title>Node14</title>
<g id="a_node14"><a xlink:href="solverstatus_8hpp.html" target="_top" xlink:title=" ">
<polygon fill="white" stroke="black" points="371.5,-185 371.5,-204 542.5,-204 542.5,-185 371.5,-185"/>
<text text-anchor="middle" x="457" y="-192" font-family="Helvetica,sans-Serif" font-size="10.00">panoc&#45;alm/util/solverstatus.hpp</text>
</a>
</g>
</g>
<!-- Node2&#45;&gt;Node14 -->
<g id="edge13" class="edge">
<title>Node2&#45;&gt;Node14</title>
<path fill="none" stroke="midnightblue" d="M407.69,-251.73C416.66,-241.5 431.69,-224.36 442.8,-211.69"/>
<polygon fill="midnightblue" stroke="midnightblue" points="445.47,-213.95 449.43,-204.13 440.21,-209.34 445.47,-213.95"/>
</g>
<!-- Node16 -->
<g id="node16" class="node">
<title>Node16</title>
<g id="a_node16"><a xlink:title=" ">
<polygon fill="white" stroke="#bfbfbf" points="271,-185 271,-204 315,-204 315,-185 271,-185"/>
<text text-anchor="middle" x="293" y="-192" font-family="Helvetica,sans-Serif" font-size="10.00">string</text>
</a>
</g>
</g>
<!-- Node2&#45;&gt;Node16 -->
<g id="edge16" class="edge">
<title>Node2&#45;&gt;Node16</title>
<path fill="none" stroke="midnightblue" d="M385.57,-251.73C367.68,-240.87 336.98,-222.22 315.87,-209.39"/>
<polygon fill="midnightblue" stroke="midnightblue" points="317.57,-206.33 307.2,-204.13 313.93,-212.31 317.57,-206.33"/>
</g>
<!-- Node4 -->
<g id="node4" class="node">
<title>Node4</title>
<g id="a_node4"><a xlink:href="lbfgs-fwd_8hpp.html" target="_top" xlink:title=" ">
<polygon fill="white" stroke="black" points="1528.5,-112.5 1528.5,-142.5 1675.5,-142.5 1675.5,-112.5 1528.5,-112.5"/>
<text text-anchor="start" x="1536.5" y="-130.5" font-family="Helvetica,sans-Serif" font-size="10.00">panoc&#45;alm/inner/directions</text>
<text text-anchor="middle" x="1602" y="-119.5" font-family="Helvetica,sans-Serif" font-size="10.00">/decl/lbfgs&#45;fwd.hpp</text>
</a>
</g>
</g>
<!-- Node3&#45;&gt;Node4 -->
<g id="edge3" class="edge">
<title>Node3&#45;&gt;Node4</title>
<path fill="none" stroke="midnightblue" d="M1035.75,-180.44C1038.87,-179.92 1041.97,-179.43 1045,-179 1250.89,-149.68 1307.6,-168.6 1518.15,-143.01"/>
<polygon fill="midnightblue" stroke="midnightblue" points="1518.79,-146.46 1528.29,-141.76 1517.94,-139.51 1518.79,-146.46"/>
</g>
<!-- Node6 -->
<g id="node6" class="node">
<title>Node6</title>
<g id="a_node6"><a xlink:href="box_8hpp.html" target="_top" xlink:title=" ">
<polygon fill="white" stroke="black" points="1454,-118 1454,-137 1510,-137 1510,-118 1454,-118"/>
<text text-anchor="middle" x="1482" y="-125" font-family="Helvetica,sans-Serif" font-size="10.00">box.hpp</text>
</a>
</g>
</g>
<!-- Node5&#45;&gt;Node6 -->
<g id="edge5" class="edge">
<title>Node5&#45;&gt;Node6</title>
<path fill="none" stroke="midnightblue" d="M220.53,-184.98C233.8,-182.68 248.45,-180.43 262,-179 499.44,-153.94 1263.64,-133.88 1443.73,-129.43"/>
<polygon fill="midnightblue" stroke="midnightblue" points="1443.88,-132.92 1453.79,-129.18 1443.7,-125.92 1443.88,-132.92"/>
</g>
<!-- Node9 -->
<g id="node9" class="node">
<title>Node9</title>
<g id="a_node9"><a xlink:title=" ">
<polygon fill="white" stroke="#bfbfbf" points="76,-118 76,-137 128,-137 128,-118 76,-118"/>
<text text-anchor="middle" x="102" y="-125" font-family="Helvetica,sans-Serif" font-size="10.00">cassert</text>
</a>
</g>
</g>
<!-- Node5&#45;&gt;Node9 -->
<g id="edge8" class="edge">
<title>Node5&#45;&gt;Node9</title>
<path fill="none" stroke="midnightblue" d="M166.89,-184.73C154.85,-174.31 134.55,-156.71 119.85,-143.97"/>
<polygon fill="midnightblue" stroke="midnightblue" points="121.8,-141.03 111.95,-137.13 117.22,-146.32 121.8,-141.03"/>
</g>
<!-- Node5&#45;&gt;Node10 -->
<g id="edge9" class="edge">
<title>Node5&#45;&gt;Node10</title>
<path fill="none" stroke="midnightblue" d="M217.1,-184.98C257.25,-176.03 320.58,-160.81 374,-143 375.92,-142.36 377.88,-141.66 379.85,-140.94"/>
<polygon fill="midnightblue" stroke="midnightblue" points="381.53,-144.04 389.56,-137.13 378.98,-137.52 381.53,-144.04"/>
</g>
<!-- Node11 -->
<g id="node11" class="node">
<title>Node11</title>
<g id="a_node11"><a xlink:title=" ">
<polygon fill="white" stroke="#bfbfbf" points="146.5,-118 146.5,-137 211.5,-137 211.5,-118 146.5,-118"/>
<text text-anchor="middle" x="179" y="-125" font-family="Helvetica,sans-Serif" font-size="10.00">functional</text>
</a>
</g>
</g>
<!-- Node5&#45;&gt;Node11 -->
<g id="edge10" class="edge">
<title>Node5&#45;&gt;Node11</title>
<path fill="none" stroke="midnightblue" d="M177.27,-184.73C177.56,-175.18 178.04,-159.62 178.42,-147.28"/>
<polygon fill="midnightblue" stroke="midnightblue" points="181.93,-147.23 178.73,-137.13 174.93,-147.01 181.93,-147.23"/>
</g>
<!-- Node12 -->
<g id="node12" class="node">
<title>Node12</title>
<g id="a_node12"><a xlink:title=" ">
<polygon fill="white" stroke="#bfbfbf" points="0,-118 0,-137 58,-137 58,-118 0,-118"/>
<text text-anchor="middle" x="29" y="-125" font-family="Helvetica,sans-Serif" font-size="10.00">memory</text>
</a>
</g>
</g>
<!-- Node5&#45;&gt;Node12 -->
<g id="edge11" class="edge">
<title>Node5&#45;&gt;Node12</title>
<path fill="none" stroke="midnightblue" d="M157.35,-184.87C131.91,-173.7 87.4,-154.15 58.05,-141.26"/>
<polygon fill="midnightblue" stroke="midnightblue" points="59.3,-137.98 48.73,-137.17 56.48,-144.39 59.3,-137.98"/>
</g>
<!-- Node13 -->
<g id="node13" class="node">
<title>Node13</title>
<g id="a_node13"><a xlink:title=" ">
<polygon fill="white" stroke="#bfbfbf" points="296.5,-118 296.5,-137 365.5,-137 365.5,-118 296.5,-118"/>
<text text-anchor="middle" x="331" y="-125" font-family="Helvetica,sans-Serif" font-size="10.00">type_traits</text>
</a>
</g>
</g>
<!-- Node5&#45;&gt;Node13 -->
<g id="edge12" class="edge">
<title>Node5&#45;&gt;Node13</title>
<path fill="none" stroke="midnightblue" d="M197.45,-184.87C224.03,-173.65 270.64,-153.98 301.17,-141.09"/>
<polygon fill="midnightblue" stroke="midnightblue" points="302.61,-144.28 310.47,-137.17 299.89,-137.83 302.61,-144.28"/>
</g>
<!-- Node7 -->
<g id="node7" class="node">
<title>Node7</title>
<g id="a_node7"><a xlink:href="vec_8hpp.html" target="_top" xlink:title=" ">
<polygon fill="white" stroke="black" points="1454.5,-56.5 1454.5,-75.5 1509.5,-75.5 1509.5,-56.5 1454.5,-56.5"/>
<text text-anchor="middle" x="1482" y="-63.5" font-family="Helvetica,sans-Serif" font-size="10.00">vec.hpp</text>
</a>
</g>
</g>
<!-- Node6&#45;&gt;Node7 -->
<g id="edge6" class="edge">
<title>Node6&#45;&gt;Node7</title>
<path fill="none" stroke="midnightblue" d="M1482,-117.98C1482,-109.58 1482,-96.48 1482,-85.66"/>
<polygon fill="midnightblue" stroke="midnightblue" points="1485.5,-85.51 1482,-75.51 1478.5,-85.51 1485.5,-85.51"/>
</g>
<!-- Node8 -->
<g id="node8" class="node">
<title>Node8</title>
<g id="a_node8"><a xlink:title=" ">
<polygon fill="white" stroke="#bfbfbf" points="1447.5,-0.5 1447.5,-19.5 1516.5,-19.5 1516.5,-0.5 1447.5,-0.5"/>
<text text-anchor="middle" x="1482" y="-7.5" font-family="Helvetica,sans-Serif" font-size="10.00">Eigen/Core</text>
</a>
</g>
</g>
<!-- Node7&#45;&gt;Node8 -->
<g id="edge7" class="edge">
<title>Node7&#45;&gt;Node8</title>
<path fill="none" stroke="midnightblue" d="M1482,-56.08C1482,-49.01 1482,-38.86 1482,-29.99"/>
<polygon fill="midnightblue" stroke="midnightblue" points="1485.5,-29.75 1482,-19.75 1478.5,-29.75 1485.5,-29.75"/>
</g>
<!-- Node15 -->
<g id="node15" class="node">
<title>Node15</title>
<g id="a_node15"><a xlink:title=" ">
<polygon fill="white" stroke="#bfbfbf" points="230,-118 230,-137 278,-137 278,-118 230,-118"/>
<text text-anchor="middle" x="254" y="-125" font-family="Helvetica,sans-Serif" font-size="10.00">iosfwd</text>
</a>
</g>
</g>
<!-- Node14&#45;&gt;Node15 -->
<g id="edge14" class="edge">
<title>Node14&#45;&gt;Node15</title>
<path fill="none" stroke="midnightblue" d="M423.69,-184.93C389.12,-175.73 333.69,-160.11 287,-143 285.34,-142.39 283.65,-141.74 281.95,-141.07"/>
<polygon fill="midnightblue" stroke="midnightblue" points="282.91,-137.68 272.33,-137.04 280.21,-144.13 282.91,-137.68"/>
</g>
<!-- Node17&#45;&gt;Node3 -->
<g id="edge19" class="edge">
<title>Node17&#45;&gt;Node3</title>
<path fill="none" stroke="midnightblue" d="M813.66,-246.48C845.25,-236.56 887.78,-223.2 921.39,-212.65"/>
<polygon fill="midnightblue" stroke="midnightblue" points="922.57,-215.95 931.06,-209.61 920.47,-209.27 922.57,-215.95"/>
</g>
<!-- Node17&#45;&gt;Node5 -->
<g id="edge29" class="edge">
<title>Node17&#45;&gt;Node5</title>
<path fill="none" stroke="midnightblue" d="M709.13,-255.9C614.13,-248.29 423.08,-231.73 262,-210 252.85,-208.77 243.17,-207.28 233.75,-205.75"/>
<polygon fill="midnightblue" stroke="midnightblue" points="234.11,-202.26 223.67,-204.06 232.96,-209.16 234.11,-202.26"/>
</g>
<!-- Node17&#45;&gt;Node10 -->
<g id="edge32" class="edge">
<title>Node17&#45;&gt;Node10</title>
<path fill="none" stroke="midnightblue" d="M722.6,-246.45C692.48,-236.97 652.55,-223.72 618,-210 587.51,-197.89 581.38,-191.4 551,-179 514.92,-164.27 472.76,-149.59 443.8,-139.88"/>
<polygon fill="midnightblue" stroke="midnightblue" points="444.74,-136.5 434.14,-136.66 442.52,-143.15 444.74,-136.5"/>
</g>
<!-- Node17&#45;&gt;Node14 -->
<g id="edge30" class="edge">
<title>Node17&#45;&gt;Node14</title>
<path fill="none" stroke="midnightblue" d="M709.21,-248.04C650.91,-235.9 563.2,-217.62 508.07,-206.14"/>
<polygon fill="midnightblue" stroke="midnightblue" points="508.67,-202.69 498.17,-204.08 507.25,-209.54 508.67,-202.69"/>
</g>
<!-- Node17&#45;&gt;Node16 -->
<g id="edge34" class="edge">
<title>Node17&#45;&gt;Node16</title>
<path fill="none" stroke="midnightblue" d="M709.46,-254.69C629.97,-246.57 484.9,-230.5 362,-210 349.98,-208 336.88,-205.36 325.35,-202.88"/>
<polygon fill="midnightblue" stroke="midnightblue" points="325.8,-199.4 315.28,-200.68 324.3,-206.24 325.8,-199.4"/>
</g>
<!-- Node18 -->
<g id="node18" class="node">
<title>Node18</title>
<g id="a_node18"><a xlink:href="lbfgs-stepsize_8hpp.html" target="_top" xlink:title=" ">
<polygon fill="white" stroke="black" points="1286.5,-179.5 1286.5,-209.5 1405.5,-209.5 1405.5,-179.5 1286.5,-179.5"/>
<text text-anchor="start" x="1294.5" y="-197.5" font-family="Helvetica,sans-Serif" font-size="10.00">panoc&#45;alm/inner/decl</text>
<text text-anchor="middle" x="1346" y="-186.5" font-family="Helvetica,sans-Serif" font-size="10.00">/lbfgs&#45;stepsize.hpp</text>
</a>
</g>
</g>
<!-- Node17&#45;&gt;Node18 -->
<g id="edge18" class="edge">
<title>Node17&#45;&gt;Node18</title>
<path fill="none" stroke="midnightblue" d="M828.7,-256.67C922.05,-250.21 1108.37,-235.46 1276.22,-210.01"/>
<polygon fill="midnightblue" stroke="midnightblue" points="1276.88,-213.45 1286.23,-208.47 1275.82,-206.53 1276.88,-213.45"/>
</g>
<!-- Node19 -->
<g id="node19" class="node">
<title>Node19</title>
<g id="a_node19"><a xlink:href="panoc-stop-crit_8hpp.html" target="_top" xlink:title=" ">
<polygon fill="white" stroke="black" points="779.5,-179.5 779.5,-209.5 898.5,-209.5 898.5,-179.5 779.5,-179.5"/>
<text text-anchor="start" x="787.5" y="-197.5" font-family="Helvetica,sans-Serif" font-size="10.00">panoc&#45;alm/inner/decl</text>
<text text-anchor="middle" x="839" y="-186.5" font-family="Helvetica,sans-Serif" font-size="10.00">/panoc&#45;stop&#45;crit.hpp</text>
</a>
</g>
</g>
<!-- Node17&#45;&gt;Node19 -->
<g id="edge20" class="edge">
<title>Node17&#45;&gt;Node19</title>
<path fill="none" stroke="midnightblue" d="M784.19,-246.4C793.55,-237.71 805.72,-226.4 816.21,-216.66"/>
<polygon fill="midnightblue" stroke="midnightblue" points="818.89,-218.95 823.84,-209.58 814.13,-213.82 818.89,-218.95"/>
</g>
<!-- Node22 -->
<g id="node22" class="node">
<title>Node22</title>
<g id="a_node22"><a xlink:href="panoc-direction-update_8hpp.html" target="_top" xlink:title=" ">
<polygon fill="white" stroke="black" points="1423.5,-179.5 1423.5,-209.5 1600.5,-209.5 1600.5,-179.5 1423.5,-179.5"/>
<text text-anchor="start" x="1431.5" y="-197.5" font-family="Helvetica,sans-Serif" font-size="10.00">panoc&#45;alm/inner/directions</text>
<text text-anchor="middle" x="1512" y="-186.5" font-family="Helvetica,sans-Serif" font-size="10.00">/decl/panoc&#45;direction&#45;update.hpp</text>
</a>
</g>
</g>
<!-- Node17&#45;&gt;Node22 -->
<g id="edge23" class="edge">
<title>Node17&#45;&gt;Node22</title>
<path fill="none" stroke="midnightblue" d="M828.71,-257.2C940.98,-250.7 1191.42,-234.77 1413.16,-210.04"/>
<polygon fill="midnightblue" stroke="midnightblue" points="1413.82,-213.49 1423.36,-208.89 1413.03,-206.53 1413.82,-213.49"/>
</g>
<!-- Node23 -->
<g id="node23" class="node">
<title>Node23</title>
<g id="a_node23"><a xlink:href="atomic__stop__signal_8hpp.html" target="_top" xlink:title=" ">
<polygon fill="white" stroke="black" points="637,-179.5 637,-209.5 761,-209.5 761,-179.5 637,-179.5"/>
<text text-anchor="start" x="645" y="-197.5" font-family="Helvetica,sans-Serif" font-size="10.00">panoc&#45;alm/util/atomic</text>
<text text-anchor="middle" x="699" y="-186.5" font-family="Helvetica,sans-Serif" font-size="10.00">_stop_signal.hpp</text>
</a>
</g>
</g>
<!-- Node17&#45;&gt;Node23 -->
<g id="edge25" class="edge">
<title>Node17&#45;&gt;Node23</title>
<path fill="none" stroke="midnightblue" d="M753.81,-246.4C744.45,-237.71 732.28,-226.4 721.79,-216.66"/>
<polygon fill="midnightblue" stroke="midnightblue" points="723.87,-213.82 714.16,-209.58 719.11,-218.95 723.87,-213.82"/>
</g>
<!-- Node24 -->
<g id="node24" class="node">
<title>Node24</title>
<g id="a_node24"><a xlink:title=" ">
<polygon fill="white" stroke="#bfbfbf" points="621,-118 621,-137 671,-137 671,-118 621,-118"/>
<text text-anchor="middle" x="646" y="-125" font-family="Helvetica,sans-Serif" font-size="10.00">atomic</text>
</a>
</g>
</g>
<!-- Node17&#45;&gt;Node24 -->
<g id="edge31" class="edge">
<title>Node17&#45;&gt;Node24</title>
<path fill="none" stroke="midnightblue" d="M709.28,-254.95C679.68,-248.83 646.41,-236.15 628,-210 614.56,-190.91 625.17,-163.55 634.88,-145.91"/>
<polygon fill="midnightblue" stroke="midnightblue" points="637.95,-147.61 640.03,-137.22 631.92,-144.04 637.95,-147.61"/>
</g>
<!-- Node25 -->
<g id="node25" class="node">
<title>Node25</title>
<g id="a_node25"><a xlink:href="lipschitz_8hpp.html" target="_top" xlink:title=" ">
<polygon fill="white" stroke="black" points="1054,-185 1054,-204 1206,-204 1206,-185 1054,-185"/>
<text text-anchor="middle" x="1130" y="-192" font-family="Helvetica,sans-Serif" font-size="10.00">panoc&#45;alm/util/lipschitz.hpp</text>
</a>
</g>
</g>
<!-- Node17&#45;&gt;Node25 -->
<g id="edge27" class="edge">
<title>Node17&#45;&gt;Node25</title>
<path fill="none" stroke="midnightblue" d="M828.61,-249.77C896.33,-237.57 1006.06,-217.82 1072.77,-205.8"/>
<polygon fill="midnightblue" stroke="midnightblue" points="1073.47,-209.23 1082.69,-204.02 1072.23,-202.35 1073.47,-209.23"/>
</g>
<!-- Node26 -->
<g id="node26" class="node">
<title>Node26</title>
<g id="a_node26"><a xlink:title=" ">
<polygon fill="white" stroke="#bfbfbf" points="1224,-185 1224,-204 1268,-204 1268,-185 1224,-185"/>
<text text-anchor="middle" x="1246" y="-192" font-family="Helvetica,sans-Serif" font-size="10.00">limits</text>
</a>
</g>
</g>
<!-- Node17&#45;&gt;Node26 -->
<g id="edge33" class="edge">
<title>Node17&#45;&gt;Node26</title>
<path fill="none" stroke="midnightblue" d="M828.62,-259.85C915.27,-257.54 1080.38,-248 1215,-210 1216.93,-209.46 1218.89,-208.8 1220.84,-208.08"/>
<polygon fill="midnightblue" stroke="midnightblue" points="1222.46,-211.19 1230.29,-204.05 1219.72,-204.75 1222.46,-211.19"/>
</g>
<!-- Node20 -->
<g id="node20" class="node">
<title>Node20</title>
<g id="a_node20"><a xlink:title=" ">
<polygon fill="white" stroke="#bfbfbf" points="849.5,-118 849.5,-137 906.5,-137 906.5,-118 849.5,-118"/>
<text text-anchor="middle" x="878" y="-125" font-family="Helvetica,sans-Serif" font-size="10.00">ostream</text>
</a>
</g>
</g>
<!-- Node19&#45;&gt;Node20 -->
<g id="edge21" class="edge">
<title>Node19&#45;&gt;Node20</title>
<path fill="none" stroke="midnightblue" d="M847.46,-179.4C853.36,-169.56 861.27,-156.38 867.56,-145.89"/>
<polygon fill="midnightblue" stroke="midnightblue" points="870.64,-147.57 872.78,-137.19 864.64,-143.97 870.64,-147.57"/>
</g>
<!-- Node21 -->
<g id="node21" class="node">
<title>Node21</title>
<g id="a_node21"><a xlink:title=" ">
<polygon fill="white" stroke="#bfbfbf" points="766.5,-118 766.5,-137 831.5,-137 831.5,-118 766.5,-118"/>
<text text-anchor="middle" x="799" y="-125" font-family="Helvetica,sans-Serif" font-size="10.00">stdexcept</text>
</a>
</g>
</g>
<!-- Node19&#45;&gt;Node21 -->
<g id="edge22" class="edge">
<title>Node19&#45;&gt;Node21</title>
<path fill="none" stroke="midnightblue" d="M830.32,-179.4C824.27,-169.56 816.16,-156.38 809.7,-145.89"/>
<polygon fill="midnightblue" stroke="midnightblue" points="812.57,-143.88 804.35,-137.19 806.61,-147.55 812.57,-143.88"/>
</g>
<!-- Node22&#45;&gt;Node6 -->
<g id="edge24" class="edge">
<title>Node22&#45;&gt;Node6</title>
<path fill="none" stroke="midnightblue" d="M1505.49,-179.4C1501.04,-169.76 1495.11,-156.91 1490.32,-146.54"/>
<polygon fill="midnightblue" stroke="midnightblue" points="1493.38,-144.81 1486.01,-137.19 1487.03,-147.74 1493.38,-144.81"/>
</g>
<!-- Node23&#45;&gt;Node24 -->
<g id="edge26" class="edge">
<title>Node23&#45;&gt;Node24</title>
<path fill="none" stroke="midnightblue" d="M687.5,-179.4C679.32,-169.36 668.29,-155.84 659.66,-145.25"/>
<polygon fill="midnightblue" stroke="midnightblue" points="662.12,-142.73 653.09,-137.19 656.7,-147.16 662.12,-142.73"/>
</g>
<!-- Node25&#45;&gt;Node7 -->
<g id="edge28" class="edge">
<title>Node25&#45;&gt;Node7</title>
<path fill="none" stroke="midnightblue" d="M1153.92,-184.9C1215.12,-162.91 1377.57,-104.53 1448.3,-79.11"/>
<polygon fill="midnightblue" stroke="midnightblue" points="1449.82,-82.28 1458.05,-75.61 1447.45,-75.7 1449.82,-82.28"/>
</g>
<!-- Node27&#45;&gt;Node4 -->
<g id="edge38" class="edge">
<title>Node27&#45;&gt;Node4</title>
<path fill="none" stroke="midnightblue" d="M1602.59,-246.44C1617.47,-238.16 1633.62,-226.12 1642,-210 1652.44,-189.93 1638.6,-166.75 1624.43,-150.25"/>
<polygon fill="midnightblue" stroke="midnightblue" points="1626.88,-147.75 1617.55,-142.73 1621.72,-152.47 1626.88,-147.75"/>
</g>
<!-- Node27&#45;&gt;Node6 -->
<g id="edge36" class="edge">
<title>Node27&#45;&gt;Node6</title>
<path fill="none" stroke="midnightblue" d="M1585.91,-246.29C1602.75,-229.49 1624.99,-201.02 1610,-179 1609.28,-177.93 1551.36,-155.36 1513.69,-140.75"/>
<polygon fill="midnightblue" stroke="midnightblue" points="1514.72,-137.4 1504.13,-137.05 1512.19,-143.93 1514.72,-137.4"/>
</g>
<!-- Node27&#45;&gt;Node7 -->
<g id="edge37" class="edge">
<title>Node27&#45;&gt;Node7</title>
<path fill="none" stroke="midnightblue" d="M1605.44,-246.43C1622.86,-238.03 1643.06,-225.88 1657,-210 1686.88,-175.96 1713.35,-147.33 1685,-112 1664.66,-86.66 1572.57,-74.71 1519.67,-69.84"/>
<polygon fill="midnightblue" stroke="midnightblue" points="1519.92,-66.35 1509.65,-68.96 1519.31,-73.33 1519.92,-66.35"/>
</g>
<!-- Node27&#45;&gt;Node22 -->
<g id="edge39" class="edge">
<title>Node27&#45;&gt;Node22</title>
<path fill="none" stroke="midnightblue" d="M1557.41,-246.4C1549.81,-237.88 1539.97,-226.85 1531.39,-217.23"/>
<polygon fill="midnightblue" stroke="midnightblue" points="1533.83,-214.71 1524.56,-209.58 1528.61,-219.37 1533.83,-214.71"/>
</g>
<!-- Node28&#45;&gt;Node5 -->
<g id="edge41" class="edge">
<title>Node28&#45;&gt;Node5</title>
<path fill="none" stroke="midnightblue" d="M177,-246.4C177,-237.06 177,-224.71 177,-214.52"/>
<polygon fill="midnightblue" stroke="midnightblue" points="180.5,-214.19 177,-204.19 173.5,-214.19 180.5,-214.19"/>
</g>
<!-- Node28&#45;&gt;Node12 -->
<g id="edge43" class="edge">
<title>Node28&#45;&gt;Node12</title>
<path fill="none" stroke="midnightblue" d="M141.34,-246.41C122.56,-237.81 99.97,-225.48 83,-210 62.78,-191.56 46.6,-164.01 37.4,-146.15"/>
<polygon fill="midnightblue" stroke="midnightblue" points="40.5,-144.52 32.92,-137.12 34.23,-147.63 40.5,-144.52"/>
</g>
<!-- Node28&#45;&gt;Node15 -->
<g id="edge42" class="edge">
<title>Node28&#45;&gt;Node15</title>
<path fill="none" stroke="midnightblue" d="M135.6,-246.4C118.97,-238.46 101.51,-226.71 92,-210 85.19,-198.03 83.68,-189.98 92,-179 127.68,-131.89 164.26,-162.63 220,-143 221.86,-142.34 223.77,-141.64 225.68,-140.9"/>
<polygon fill="midnightblue" stroke="midnightblue" points="227.16,-144.07 235.11,-137.07 224.53,-137.59 227.16,-144.07"/>
</g>
<!-- Node28&#45;&gt;Node16 -->
<g id="edge44" class="edge">
<title>Node28&#45;&gt;Node16</title>
<path fill="none" stroke="midnightblue" d="M202.17,-246.4C221.98,-235.29 249.42,-219.92 268.94,-208.98"/>
<polygon fill="midnightblue" stroke="midnightblue" points="270.81,-211.95 277.82,-204.01 267.38,-205.84 270.81,-211.95"/>
</g>
</g>
</svg>
