<?xml version="1.0" encoding="UTF-8" standalone="no"?>
<!DOCTYPE svg PUBLIC "-//W3C//DTD SVG 1.1//EN"
 "http://www.w3.org/Graphics/SVG/1.1/DTD/svg11.dtd">
<!-- Generated by graphviz version 2.43.0 (0)
 -->
<!-- Title: CUTEstLoader.cpp Pages: 1 -->
<svg width="789pt" height="319pt"
 viewBox="0.00 0.00 789.00 319.00" xmlns="http://www.w3.org/2000/svg" xmlns:xlink="http://www.w3.org/1999/xlink">
<g id="graph0" class="graph" transform="scale(1 1) rotate(0) translate(4 315)">
<title>CUTEstLoader.cpp</title>
<polygon fill="white" stroke="transparent" points="-4,4 -4,-315 785,-315 785,4 -4,4"/>
<!-- Node1 -->
<g id="node1" class="node">
<title>Node1</title>
<g id="a_node1"><a xlink:title=" ">
<polygon fill="#bfbfbf" stroke="black" points="415.5,-291.5 415.5,-310.5 519.5,-310.5 519.5,-291.5 415.5,-291.5"/>
<text text-anchor="middle" x="467.5" y="-298.5" font-family="Helvetica,sans-Serif" font-size="10.00">CUTEstLoader.cpp</text>
</a>
</g>
</g>
<!-- Node2 -->
<g id="node2" class="node">
<title>Node2</title>
<g id="a_node2"><a xlink:href="CUTEstLoader_8hpp.html" target="_top" xlink:title=" ">
<polygon fill="white" stroke="black" points="209,-224.5 209,-254.5 348,-254.5 348,-224.5 209,-224.5"/>
<text text-anchor="start" x="217" y="-242.5" font-family="Helvetica,sans-Serif" font-size="10.00">panoc&#45;alm/interop/cutest</text>
<text text-anchor="middle" x="278.5" y="-231.5" font-family="Helvetica,sans-Serif" font-size="10.00">/CUTEstLoader.hpp</text>
</a>
</g>
</g>
<!-- Node1&#45;&gt;Node2 -->
<g id="edge1" class="edge">
<title>Node1&#45;&gt;Node2</title>
<path fill="none" stroke="midnightblue" d="M440.42,-291.48C412.43,-282.66 367.98,-268.67 332.72,-257.57"/>
<polygon fill="midnightblue" stroke="midnightblue" points="333.63,-254.19 323.04,-254.52 331.53,-260.86 333.63,-254.19"/>
</g>
<!-- Node9 -->
<g id="node9" class="node">
<title>Node9</title>
<g id="a_node9"><a xlink:title=" ">
<polygon fill="white" stroke="#bfbfbf" points="0,-112.5 0,-131.5 65,-131.5 65,-112.5 0,-112.5"/>
<text text-anchor="middle" x="32.5" y="-119.5" font-family="Helvetica,sans-Serif" font-size="10.00">functional</text>
</a>
</g>
</g>
<!-- Node1&#45;&gt;Node9 -->
<g id="edge16" class="edge">
<title>Node1&#45;&gt;Node9</title>
<path fill="none" stroke="midnightblue" d="M415.39,-297.74C360.07,-293.88 270.96,-283.41 199.5,-255 134.17,-229.03 73.72,-168.77 46.97,-139.52"/>
<polygon fill="midnightblue" stroke="midnightblue" points="49.35,-136.93 40.06,-131.83 44.14,-141.61 49.35,-136.93"/>
</g>
<!-- Node13 -->
<g id="node13" class="node">
<title>Node13</title>
<g id="a_node13"><a xlink:title=" ">
<polygon fill="white" stroke="#bfbfbf" points="382.5,-168.5 382.5,-187.5 426.5,-187.5 426.5,-168.5 382.5,-168.5"/>
<text text-anchor="middle" x="404.5" y="-175.5" font-family="Helvetica,sans-Serif" font-size="10.00">string</text>
</a>
</g>
</g>
<!-- Node1&#45;&gt;Node13 -->
<g id="edge19" class="edge">
<title>Node1&#45;&gt;Node13</title>
<path fill="none" stroke="midnightblue" d="M442,-291.47C425.51,-284.48 405.36,-272.79 395.5,-255 385.57,-237.08 390.87,-213.17 396.65,-196.99"/>
<polygon fill="midnightblue" stroke="midnightblue" points="399.94,-198.2 400.37,-187.61 393.43,-195.62 399.94,-198.2"/>
</g>
<!-- Node14 -->
<g id="node14" class="node">
<title>Node14</title>
<g id="a_node14"><a xlink:title=" ">
<polygon fill="white" stroke="#bfbfbf" points="404.5,-230 404.5,-249 460.5,-249 460.5,-230 404.5,-230"/>
<text text-anchor="middle" x="432.5" y="-237" font-family="Helvetica,sans-Serif" font-size="10.00">cutest.h</text>
</a>
</g>
</g>
<!-- Node1&#45;&gt;Node14 -->
<g id="edge14" class="edge">
<title>Node1&#45;&gt;Node14</title>
<path fill="none" stroke="midnightblue" d="M462.49,-291.48C457.34,-282.73 449.19,-268.87 442.68,-257.81"/>
<polygon fill="midnightblue" stroke="midnightblue" points="445.59,-255.85 437.51,-249.01 439.56,-259.4 445.59,-255.85"/>
</g>
<!-- Node15 -->
<g id="node15" class="node">
<title>Node15</title>
<g id="a_node15"><a xlink:title=" ">
<polygon fill="white" stroke="#bfbfbf" points="478.5,-230 478.5,-249 528.5,-249 528.5,-230 478.5,-230"/>
<text text-anchor="middle" x="503.5" y="-237" font-family="Helvetica,sans-Serif" font-size="10.00">dlfcn.h</text>
</a>
</g>
</g>
<!-- Node1&#45;&gt;Node15 -->
<g id="edge15" class="edge">
<title>Node1&#45;&gt;Node15</title>
<path fill="none" stroke="midnightblue" d="M472.66,-291.48C477.95,-282.73 486.34,-268.87 493.03,-257.81"/>
<polygon fill="midnightblue" stroke="midnightblue" points="496.17,-259.38 498.35,-249.01 490.18,-255.75 496.17,-259.38"/>
</g>
<!-- Node16 -->
<g id="node16" class="node">
<title>Node16</title>
<g id="a_node16"><a xlink:title=" ">
<polygon fill="white" stroke="#bfbfbf" points="546.5,-230 546.5,-249 606.5,-249 606.5,-230 546.5,-230"/>
<text text-anchor="middle" x="576.5" y="-237" font-family="Helvetica,sans-Serif" font-size="10.00">iostream</text>
</a>
</g>
</g>
<!-- Node1&#45;&gt;Node16 -->
<g id="edge17" class="edge">
<title>Node1&#45;&gt;Node16</title>
<path fill="none" stroke="midnightblue" d="M483.12,-291.48C501.09,-281.67 530.82,-265.43 551.91,-253.92"/>
<polygon fill="midnightblue" stroke="midnightblue" points="553.81,-256.87 560.91,-249.01 550.46,-250.73 553.81,-256.87"/>
</g>
<!-- Node17 -->
<g id="node17" class="node">
<title>Node17</title>
<g id="a_node17"><a xlink:title=" ">
<polygon fill="white" stroke="#bfbfbf" points="625,-230 625,-249 690,-249 690,-230 625,-230"/>
<text text-anchor="middle" x="657.5" y="-237" font-family="Helvetica,sans-Serif" font-size="10.00">stdexcept</text>
</a>
</g>
</g>
<!-- Node1&#45;&gt;Node17 -->
<g id="edge18" class="edge">
<title>Node1&#45;&gt;Node17</title>
<path fill="none" stroke="midnightblue" d="M496.81,-291.44C526.74,-282.61 574.5,-268.31 615.5,-255 618.09,-254.16 620.77,-253.27 623.46,-252.37"/>
<polygon fill="midnightblue" stroke="midnightblue" points="624.78,-255.62 633.12,-249.09 622.53,-248.99 624.78,-255.62"/>
</g>
<!-- Node18 -->
<g id="node18" class="node">
<title>Node18</title>
<g id="a_node18"><a xlink:title=" ">
<polygon fill="white" stroke="#bfbfbf" points="708,-230 708,-249 781,-249 781,-230 708,-230"/>
<text text-anchor="middle" x="744.5" y="-237" font-family="Helvetica,sans-Serif" font-size="10.00">string_view</text>
</a>
</g>
</g>
<!-- Node1&#45;&gt;Node18 -->
<g id="edge20" class="edge">
<title>Node1&#45;&gt;Node18</title>
<path fill="none" stroke="midnightblue" d="M519.96,-291.68C567.25,-283.74 638.5,-270.68 699.5,-255 702.94,-254.11 706.51,-253.11 710.06,-252.06"/>
<polygon fill="midnightblue" stroke="midnightblue" points="711.38,-255.32 719.9,-249.02 709.31,-248.63 711.38,-255.32"/>
</g>
<!-- Node3 -->
<g id="node3" class="node">
<title>Node3</title>
<g id="a_node3"><a xlink:href="include_2panoc-alm_2util_2problem_8hpp.html" target="_top" xlink:title=" ">
<polygon fill="white" stroke="black" points="174.5,-168.5 174.5,-187.5 326.5,-187.5 326.5,-168.5 174.5,-168.5"/>
<text text-anchor="middle" x="250.5" y="-175.5" font-family="Helvetica,sans-Serif" font-size="10.00">panoc&#45;alm/util/problem.hpp</text>
</a>
</g>
</g>
<!-- Node2&#45;&gt;Node3 -->
<g id="edge2" class="edge">
<title>Node2&#45;&gt;Node3</title>
<path fill="none" stroke="midnightblue" d="M271.86,-224.4C267.96,-216.11 263,-205.55 258.83,-196.71"/>
<polygon fill="midnightblue" stroke="midnightblue" points="262,-195.22 254.57,-187.66 255.67,-198.2 262,-195.22"/>
</g>
<!-- Node10 -->
<g id="node10" class="node">
<title>Node10</title>
<g id="a_node10"><a xlink:title=" ">
<polygon fill="white" stroke="#bfbfbf" points="383.5,-112.5 383.5,-131.5 441.5,-131.5 441.5,-112.5 383.5,-112.5"/>
<text text-anchor="middle" x="412.5" y="-119.5" font-family="Helvetica,sans-Serif" font-size="10.00">memory</text>
</a>
</g>
</g>
<!-- Node2&#45;&gt;Node10 -->
<g id="edge12" class="edge">
<title>Node2&#45;&gt;Node10</title>
<path fill="none" stroke="midnightblue" d="M294.93,-224.34C320.28,-202.49 368.72,-160.73 394.81,-138.24"/>
<polygon fill="midnightblue" stroke="midnightblue" points="397.15,-140.85 402.44,-131.67 392.58,-135.55 397.15,-140.85"/>
</g>
<!-- Node12 -->
<g id="node12" class="node">
<title>Node12</title>
<g id="a_node12"><a xlink:title=" ">
<polygon fill="white" stroke="#bfbfbf" points="108.5,-168.5 108.5,-187.5 156.5,-187.5 156.5,-168.5 108.5,-168.5"/>
<text text-anchor="middle" x="132.5" y="-175.5" font-family="Helvetica,sans-Serif" font-size="10.00">iosfwd</text>
</a>
</g>
</g>
<!-- Node2&#45;&gt;Node12 -->
<g id="edge11" class="edge">
<title>Node2&#45;&gt;Node12</title>
<path fill="none" stroke="midnightblue" d="M243.9,-224.4C219.4,-214.42 186.84,-201.15 163.25,-191.53"/>
<polygon fill="midnightblue" stroke="midnightblue" points="164.33,-188.19 153.74,-187.66 161.68,-194.67 164.33,-188.19"/>
</g>
<!-- Node2&#45;&gt;Node13 -->
<g id="edge13" class="edge">
<title>Node2&#45;&gt;Node13</title>
<path fill="none" stroke="midnightblue" d="M308.36,-224.4C329.12,-214.59 356.6,-201.62 376.86,-192.05"/>
<polygon fill="midnightblue" stroke="midnightblue" points="378.62,-195.09 386.17,-187.66 375.63,-188.76 378.62,-195.09"/>
</g>
<!-- Node4 -->
<g id="node4" class="node">
<title>Node4</title>
<g id="a_node4"><a xlink:href="box_8hpp.html" target="_top" xlink:title=" ">
<polygon fill="white" stroke="black" points="239.5,-112.5 239.5,-131.5 295.5,-131.5 295.5,-112.5 239.5,-112.5"/>
<text text-anchor="middle" x="267.5" y="-119.5" font-family="Helvetica,sans-Serif" font-size="10.00">box.hpp</text>
</a>
</g>
</g>
<!-- Node3&#45;&gt;Node4 -->
<g id="edge3" class="edge">
<title>Node3&#45;&gt;Node4</title>
<path fill="none" stroke="midnightblue" d="M253.31,-168.08C255.58,-160.85 258.87,-150.41 261.71,-141.4"/>
<polygon fill="midnightblue" stroke="midnightblue" points="265.08,-142.34 264.75,-131.75 258.4,-140.24 265.08,-142.34"/>
</g>
<!-- Node7 -->
<g id="node7" class="node">
<title>Node7</title>
<g id="a_node7"><a xlink:title=" ">
<polygon fill="white" stroke="#bfbfbf" points="313.5,-112.5 313.5,-131.5 365.5,-131.5 365.5,-112.5 313.5,-112.5"/>
<text text-anchor="middle" x="339.5" y="-119.5" font-family="Helvetica,sans-Serif" font-size="10.00">cassert</text>
</a>
</g>
</g>
<!-- Node3&#45;&gt;Node7 -->
<g id="edge6" class="edge">
<title>Node3&#45;&gt;Node7</title>
<path fill="none" stroke="midnightblue" d="M264.8,-168.32C278.68,-159.9 299.99,-146.97 316.3,-137.07"/>
<polygon fill="midnightblue" stroke="midnightblue" points="318.5,-139.83 325.24,-131.65 314.87,-133.85 318.5,-139.83"/>
</g>
<!-- Node8 -->
<g id="node8" class="node">
<title>Node8</title>
<g id="a_node8"><a xlink:title=" ">
<polygon fill="white" stroke="#bfbfbf" points="83.5,-112.5 83.5,-131.5 133.5,-131.5 133.5,-112.5 83.5,-112.5"/>
<text text-anchor="middle" x="108.5" y="-119.5" font-family="Helvetica,sans-Serif" font-size="10.00">chrono</text>
</a>
</g>
</g>
<!-- Node3&#45;&gt;Node8 -->
<g id="edge7" class="edge">
<title>Node3&#45;&gt;Node8</title>
<path fill="none" stroke="midnightblue" d="M228,-168.44C204.42,-159.48 167.18,-145.31 140.54,-135.18"/>
<polygon fill="midnightblue" stroke="midnightblue" points="141.49,-131.8 130.9,-131.52 139,-138.34 141.49,-131.8"/>
</g>
<!-- Node3&#45;&gt;Node9 -->
<g id="edge8" class="edge">
<title>Node3&#45;&gt;Node9</title>
<path fill="none" stroke="midnightblue" d="M215.96,-168.44C177.69,-158.96 115.98,-143.68 74.83,-133.49"/>
<polygon fill="midnightblue" stroke="midnightblue" points="75.65,-130.08 65.1,-131.08 73.97,-136.88 75.65,-130.08"/>
</g>
<!-- Node3&#45;&gt;Node10 -->
<g id="edge9" class="edge">
<title>Node3&#45;&gt;Node10</title>
<path fill="none" stroke="midnightblue" d="M276.17,-168.44C303.42,-159.36 346.68,-144.94 377.15,-134.78"/>
<polygon fill="midnightblue" stroke="midnightblue" points="378.57,-138 386.95,-131.52 376.36,-131.36 378.57,-138"/>
</g>
<!-- Node11 -->
<g id="node11" class="node">
<title>Node11</title>
<g id="a_node11"><a xlink:title=" ">
<polygon fill="white" stroke="#bfbfbf" points="152,-112.5 152,-131.5 221,-131.5 221,-112.5 152,-112.5"/>
<text text-anchor="middle" x="186.5" y="-119.5" font-family="Helvetica,sans-Serif" font-size="10.00">type_traits</text>
</a>
</g>
</g>
<!-- Node3&#45;&gt;Node11 -->
<g id="edge10" class="edge">
<title>Node3&#45;&gt;Node11</title>
<path fill="none" stroke="midnightblue" d="M240.22,-168.32C230.66,-160.26 216.22,-148.08 204.72,-138.37"/>
<polygon fill="midnightblue" stroke="midnightblue" points="206.87,-135.61 196.97,-131.83 202.36,-140.96 206.87,-135.61"/>
</g>
<!-- Node5 -->
<g id="node5" class="node">
<title>Node5</title>
<g id="a_node5"><a xlink:href="vec_8hpp.html" target="_top" xlink:title=" ">
<polygon fill="white" stroke="black" points="240,-56.5 240,-75.5 295,-75.5 295,-56.5 240,-56.5"/>
<text text-anchor="middle" x="267.5" y="-63.5" font-family="Helvetica,sans-Serif" font-size="10.00">vec.hpp</text>
</a>
</g>
</g>
<!-- Node4&#45;&gt;Node5 -->
<g id="edge4" class="edge">
<title>Node4&#45;&gt;Node5</title>
<path fill="none" stroke="midnightblue" d="M267.5,-112.08C267.5,-105.01 267.5,-94.86 267.5,-85.99"/>
<polygon fill="midnightblue" stroke="midnightblue" points="271,-85.75 267.5,-75.75 264,-85.75 271,-85.75"/>
</g>
<!-- Node6 -->
<g id="node6" class="node">
<title>Node6</title>
<g id="a_node6"><a xlink:title=" ">
<polygon fill="white" stroke="#bfbfbf" points="233,-0.5 233,-19.5 302,-19.5 302,-0.5 233,-0.5"/>
<text text-anchor="middle" x="267.5" y="-7.5" font-family="Helvetica,sans-Serif" font-size="10.00">Eigen/Core</text>
</a>
</g>
</g>
<!-- Node5&#45;&gt;Node6 -->
<g id="edge5" class="edge">
<title>Node5&#45;&gt;Node6</title>
<path fill="none" stroke="midnightblue" d="M267.5,-56.08C267.5,-49.01 267.5,-38.86 267.5,-29.99"/>
<polygon fill="midnightblue" stroke="midnightblue" points="271,-29.75 267.5,-19.75 264,-29.75 271,-29.75"/>
</g>
</g>
</svg>
