<?xml version="1.0" encoding="UTF-8" standalone="no"?>
<!DOCTYPE svg PUBLIC "-//W3C//DTD SVG 1.1//EN"
 "http://www.w3.org/Graphics/SVG/1.1/DTD/svg11.dtd">
<!-- Generated by graphviz version 2.43.0 (0)
 -->
<!-- Title: alm.hpp Pages: 1 -->
<svg width="682pt" height="274pt"
 viewBox="0.00 0.00 681.50 274.00" xmlns="http://www.w3.org/2000/svg" xmlns:xlink="http://www.w3.org/1999/xlink">
<g id="graph0" class="graph" transform="scale(1 1) rotate(0) translate(4 270)">
<title>alm.hpp</title>
<polygon fill="white" stroke="transparent" points="-4,4 -4,-270 677.5,-270 677.5,4 -4,4"/>
<!-- Node1 -->
<g id="node1" class="node">
<title>Node1</title>
<g id="a_node1"><a xlink:title=" ">
<polygon fill="#bfbfbf" stroke="black" points="305.5,-246.5 305.5,-265.5 361.5,-265.5 361.5,-246.5 305.5,-246.5"/>
<text text-anchor="middle" x="333.5" y="-253.5" font-family="Helvetica,sans-Serif" font-size="10.00">alm.hpp</text>
</a>
</g>
</g>
<!-- Node2 -->
<g id="node2" class="node">
<title>Node2</title>
<g id="a_node2"><a xlink:href="panoc-fwd_8hpp.html" target="_top" xlink:title=" ">
<polygon fill="white" stroke="black" points="48,-179.5 48,-209.5 167,-209.5 167,-179.5 48,-179.5"/>
<text text-anchor="start" x="56" y="-197.5" font-family="Helvetica,sans-Serif" font-size="10.00">panoc&#45;alm/inner/decl</text>
<text text-anchor="middle" x="107.5" y="-186.5" font-family="Helvetica,sans-Serif" font-size="10.00">/panoc&#45;fwd.hpp</text>
</a>
</g>
</g>
<!-- Node1&#45;&gt;Node2 -->
<g id="edge1" class="edge">
<title>Node1&#45;&gt;Node2</title>
<path fill="none" stroke="midnightblue" d="M305.33,-247.58C271.89,-238.78 215.09,-223.83 170.91,-212.19"/>
<polygon fill="midnightblue" stroke="midnightblue" points="171.67,-208.78 161.11,-209.61 169.89,-215.55 171.67,-208.78"/>
</g>
<!-- Node4 -->
<g id="node4" class="node">
<title>Node4</title>
<g id="a_node4"><a xlink:href="include_2panoc-alm_2util_2problem_8hpp.html" target="_top" xlink:title=" ">
<polygon fill="white" stroke="black" points="257.5,-185 257.5,-204 409.5,-204 409.5,-185 257.5,-185"/>
<text text-anchor="middle" x="333.5" y="-192" font-family="Helvetica,sans-Serif" font-size="10.00">panoc&#45;alm/util/problem.hpp</text>
</a>
</g>
</g>
<!-- Node1&#45;&gt;Node4 -->
<g id="edge3" class="edge">
<title>Node1&#45;&gt;Node4</title>
<path fill="none" stroke="midnightblue" d="M333.5,-246.48C333.5,-238.08 333.5,-224.98 333.5,-214.16"/>
<polygon fill="midnightblue" stroke="midnightblue" points="337,-214.01 333.5,-204.01 330,-214.01 337,-214.01"/>
</g>
<!-- Node9 -->
<g id="node9" class="node">
<title>Node9</title>
<g id="a_node9"><a xlink:title=" ">
<polygon fill="white" stroke="#bfbfbf" points="165.5,-118 165.5,-137 215.5,-137 215.5,-118 165.5,-118"/>
<text text-anchor="middle" x="190.5" y="-125" font-family="Helvetica,sans-Serif" font-size="10.00">chrono</text>
</a>
</g>
</g>
<!-- Node1&#45;&gt;Node9 -->
<g id="edge14" class="edge">
<title>Node1&#45;&gt;Node9</title>
<path fill="none" stroke="midnightblue" d="M310.8,-246.43C292.59,-238.78 267.09,-226.29 248.5,-210 227.34,-191.46 209.74,-163.75 199.66,-145.9"/>
<polygon fill="midnightblue" stroke="midnightblue" points="202.73,-144.21 194.86,-137.11 196.58,-147.57 202.73,-144.21"/>
</g>
<!-- Node13 -->
<g id="node13" class="node">
<title>Node13</title>
<g id="a_node13"><a xlink:href="solverstatus_8hpp.html" target="_top" xlink:title=" ">
<polygon fill="white" stroke="black" points="428,-185 428,-204 599,-204 599,-185 428,-185"/>
<text text-anchor="middle" x="513.5" y="-192" font-family="Helvetica,sans-Serif" font-size="10.00">panoc&#45;alm/util/solverstatus.hpp</text>
</a>
</g>
</g>
<!-- Node1&#45;&gt;Node13 -->
<g id="edge12" class="edge">
<title>Node1&#45;&gt;Node13</title>
<path fill="none" stroke="midnightblue" d="M359.29,-246.48C390.43,-236.18 442.98,-218.81 477.95,-207.25"/>
<polygon fill="midnightblue" stroke="midnightblue" points="479.36,-210.47 487.76,-204.01 477.16,-203.82 479.36,-210.47"/>
</g>
<!-- Node15 -->
<g id="node15" class="node">
<title>Node15</title>
<g id="a_node15"><a xlink:title=" ">
<polygon fill="white" stroke="#bfbfbf" points="617.5,-185 617.5,-204 661.5,-204 661.5,-185 617.5,-185"/>
<text text-anchor="middle" x="639.5" y="-192" font-family="Helvetica,sans-Serif" font-size="10.00">string</text>
</a>
</g>
</g>
<!-- Node1&#45;&gt;Node15 -->
<g id="edge15" class="edge">
<title>Node1&#45;&gt;Node15</title>
<path fill="none" stroke="midnightblue" d="M361.8,-252.95C412.31,-248.73 520.91,-237.08 608.5,-210 610.37,-209.42 612.28,-208.75 614.18,-208.02"/>
<polygon fill="midnightblue" stroke="midnightblue" points="615.62,-211.21 623.42,-204.04 612.86,-204.78 615.62,-211.21"/>
</g>
<!-- Node3 -->
<g id="node3" class="node">
<title>Node3</title>
<g id="a_node3"><a xlink:href="lbfgs-fwd_8hpp.html" target="_top" xlink:title=" ">
<polygon fill="white" stroke="black" points="0,-112.5 0,-142.5 147,-142.5 147,-112.5 0,-112.5"/>
<text text-anchor="start" x="8" y="-130.5" font-family="Helvetica,sans-Serif" font-size="10.00">panoc&#45;alm/inner/directions</text>
<text text-anchor="middle" x="73.5" y="-119.5" font-family="Helvetica,sans-Serif" font-size="10.00">/decl/lbfgs&#45;fwd.hpp</text>
</a>
</g>
</g>
<!-- Node2&#45;&gt;Node3 -->
<g id="edge2" class="edge">
<title>Node2&#45;&gt;Node3</title>
<path fill="none" stroke="midnightblue" d="M100.12,-179.4C95.89,-171.3 90.47,-160.94 85.63,-151.69"/>
<polygon fill="midnightblue" stroke="midnightblue" points="88.6,-149.82 80.86,-142.58 82.4,-153.06 88.6,-149.82"/>
</g>
<!-- Node5 -->
<g id="node5" class="node">
<title>Node5</title>
<g id="a_node5"><a xlink:href="box_8hpp.html" target="_top" xlink:title=" ">
<polygon fill="white" stroke="black" points="233.5,-118 233.5,-137 289.5,-137 289.5,-118 233.5,-118"/>
<text text-anchor="middle" x="261.5" y="-125" font-family="Helvetica,sans-Serif" font-size="10.00">box.hpp</text>
</a>
</g>
</g>
<!-- Node4&#45;&gt;Node5 -->
<g id="edge4" class="edge">
<title>Node4&#45;&gt;Node5</title>
<path fill="none" stroke="midnightblue" d="M323.79,-184.73C312.24,-174.31 292.75,-156.71 278.64,-143.97"/>
<polygon fill="midnightblue" stroke="midnightblue" points="280.82,-141.23 271.06,-137.13 276.13,-146.43 280.82,-141.23"/>
</g>
<!-- Node8 -->
<g id="node8" class="node">
<title>Node8</title>
<g id="a_node8"><a xlink:title=" ">
<polygon fill="white" stroke="#bfbfbf" points="307.5,-118 307.5,-137 359.5,-137 359.5,-118 307.5,-118"/>
<text text-anchor="middle" x="333.5" y="-125" font-family="Helvetica,sans-Serif" font-size="10.00">cassert</text>
</a>
</g>
</g>
<!-- Node4&#45;&gt;Node8 -->
<g id="edge7" class="edge">
<title>Node4&#45;&gt;Node8</title>
<path fill="none" stroke="midnightblue" d="M333.5,-184.73C333.5,-175.18 333.5,-159.62 333.5,-147.28"/>
<polygon fill="midnightblue" stroke="midnightblue" points="337,-147.13 333.5,-137.13 330,-147.13 337,-147.13"/>
</g>
<!-- Node4&#45;&gt;Node9 -->
<g id="edge8" class="edge">
<title>Node4&#45;&gt;Node9</title>
<path fill="none" stroke="midnightblue" d="M314.51,-184.87C290.04,-173.75 247.3,-154.32 218.94,-141.43"/>
<polygon fill="midnightblue" stroke="midnightblue" points="220.12,-138.12 209.57,-137.17 217.22,-144.49 220.12,-138.12"/>
</g>
<!-- Node10 -->
<g id="node10" class="node">
<title>Node10</title>
<g id="a_node10"><a xlink:title=" ">
<polygon fill="white" stroke="#bfbfbf" points="378,-118 378,-137 443,-137 443,-118 378,-118"/>
<text text-anchor="middle" x="410.5" y="-125" font-family="Helvetica,sans-Serif" font-size="10.00">functional</text>
</a>
</g>
</g>
<!-- Node4&#45;&gt;Node10 -->
<g id="edge9" class="edge">
<title>Node4&#45;&gt;Node10</title>
<path fill="none" stroke="midnightblue" d="M343.88,-184.73C356.35,-174.21 377.47,-156.38 392.59,-143.62"/>
<polygon fill="midnightblue" stroke="midnightblue" points="394.9,-146.25 400.28,-137.13 390.38,-140.9 394.9,-146.25"/>
</g>
<!-- Node11 -->
<g id="node11" class="node">
<title>Node11</title>
<g id="a_node11"><a xlink:title=" ">
<polygon fill="white" stroke="#bfbfbf" points="461.5,-118 461.5,-137 519.5,-137 519.5,-118 461.5,-118"/>
<text text-anchor="middle" x="490.5" y="-125" font-family="Helvetica,sans-Serif" font-size="10.00">memory</text>
</a>
</g>
</g>
<!-- Node4&#45;&gt;Node11 -->
<g id="edge10" class="edge">
<title>Node4&#45;&gt;Node11</title>
<path fill="none" stroke="midnightblue" d="M354.35,-184.87C381.44,-173.65 428.96,-153.98 460.08,-141.09"/>
<polygon fill="midnightblue" stroke="midnightblue" points="461.66,-144.23 469.57,-137.17 458.99,-137.76 461.66,-144.23"/>
</g>
<!-- Node12 -->
<g id="node12" class="node">
<title>Node12</title>
<g id="a_node12"><a xlink:title=" ">
<polygon fill="white" stroke="#bfbfbf" points="538,-118 538,-137 607,-137 607,-118 538,-118"/>
<text text-anchor="middle" x="572.5" y="-125" font-family="Helvetica,sans-Serif" font-size="10.00">type_traits</text>
</a>
</g>
</g>
<!-- Node4&#45;&gt;Node12 -->
<g id="edge11" class="edge">
<title>Node4&#45;&gt;Node12</title>
<path fill="none" stroke="midnightblue" d="M369.27,-184.97C408.53,-175.45 473.31,-159.22 528.5,-143 531.49,-142.12 534.58,-141.18 537.68,-140.21"/>
<polygon fill="midnightblue" stroke="midnightblue" points="539.01,-143.45 547.46,-137.06 536.87,-136.79 539.01,-143.45"/>
</g>
<!-- Node6 -->
<g id="node6" class="node">
<title>Node6</title>
<g id="a_node6"><a xlink:href="vec_8hpp.html" target="_top" xlink:title=" ">
<polygon fill="white" stroke="black" points="234,-56.5 234,-75.5 289,-75.5 289,-56.5 234,-56.5"/>
<text text-anchor="middle" x="261.5" y="-63.5" font-family="Helvetica,sans-Serif" font-size="10.00">vec.hpp</text>
</a>
</g>
</g>
<!-- Node5&#45;&gt;Node6 -->
<g id="edge5" class="edge">
<title>Node5&#45;&gt;Node6</title>
<path fill="none" stroke="midnightblue" d="M261.5,-117.98C261.5,-109.58 261.5,-96.48 261.5,-85.66"/>
<polygon fill="midnightblue" stroke="midnightblue" points="265,-85.51 261.5,-75.51 258,-85.51 265,-85.51"/>
</g>
<!-- Node7 -->
<g id="node7" class="node">
<title>Node7</title>
<g id="a_node7"><a xlink:title=" ">
<polygon fill="white" stroke="#bfbfbf" points="227,-0.5 227,-19.5 296,-19.5 296,-0.5 227,-0.5"/>
<text text-anchor="middle" x="261.5" y="-7.5" font-family="Helvetica,sans-Serif" font-size="10.00">Eigen/Core</text>
</a>
</g>
</g>
<!-- Node6&#45;&gt;Node7 -->
<g id="edge6" class="edge">
<title>Node6&#45;&gt;Node7</title>
<path fill="none" stroke="midnightblue" d="M261.5,-56.08C261.5,-49.01 261.5,-38.86 261.5,-29.99"/>
<polygon fill="midnightblue" stroke="midnightblue" points="265,-29.75 261.5,-19.75 258,-29.75 265,-29.75"/>
</g>
<!-- Node14 -->
<g id="node14" class="node">
<title>Node14</title>
<g id="a_node14"><a xlink:title=" ">
<polygon fill="white" stroke="#bfbfbf" points="625.5,-118 625.5,-137 673.5,-137 673.5,-118 625.5,-118"/>
<text text-anchor="middle" x="649.5" y="-125" font-family="Helvetica,sans-Serif" font-size="10.00">iosfwd</text>
</a>
</g>
</g>
<!-- Node13&#45;&gt;Node14 -->
<g id="edge13" class="edge">
<title>Node13&#45;&gt;Node14</title>
<path fill="none" stroke="midnightblue" d="M531.56,-184.87C554.73,-173.8 595.13,-154.49 622.1,-141.6"/>
<polygon fill="midnightblue" stroke="midnightblue" points="623.85,-144.64 631.37,-137.17 620.83,-138.32 623.85,-144.64"/>
</g>
</g>
</svg>
