<?xml version="1.0" encoding="UTF-8" standalone="no"?>
<!DOCTYPE svg PUBLIC "-//W3C//DTD SVG 1.1//EN"
 "http://www.w3.org/Graphics/SVG/1.1/DTD/svg11.dtd">
<!-- Generated by graphviz version 2.43.0 (0)
 -->
<!-- Title: second&#45;order&#45;panoc.hpp Pages: 1 -->
<svg width="1151pt" height="274pt"
 viewBox="0.00 0.00 1150.50 274.00" xmlns="http://www.w3.org/2000/svg" xmlns:xlink="http://www.w3.org/1999/xlink">
<g id="graph0" class="graph" transform="scale(1 1) rotate(0) translate(4 270)">
<title>second&#45;order&#45;panoc.hpp</title>
<polygon fill="white" stroke="transparent" points="-4,4 -4,-270 1146.5,-270 1146.5,4 -4,4"/>
<!-- Node1 -->
<g id="node1" class="node">
<title>Node1</title>
<g id="a_node1"><a xlink:title=" ">
<polygon fill="#bfbfbf" stroke="black" points="529.5,-246.5 529.5,-265.5 663.5,-265.5 663.5,-246.5 529.5,-246.5"/>
<text text-anchor="middle" x="596.5" y="-253.5" font-family="Helvetica,sans-Serif" font-size="10.00">second&#45;order&#45;panoc.hpp</text>
</a>
</g>
</g>
<!-- Node2 -->
<g id="node2" class="node">
<title>Node2</title>
<g id="a_node2"><a xlink:href="panoc-fwd_8hpp.html" target="_top" xlink:title=" ">
<polygon fill="white" stroke="black" points="14,-179.5 14,-209.5 133,-209.5 133,-179.5 14,-179.5"/>
<text text-anchor="start" x="22" y="-197.5" font-family="Helvetica,sans-Serif" font-size="10.00">panoc&#45;alm/inner/decl</text>
<text text-anchor="middle" x="73.5" y="-186.5" font-family="Helvetica,sans-Serif" font-size="10.00">/panoc&#45;fwd.hpp</text>
</a>
</g>
</g>
<!-- Node1&#45;&gt;Node2 -->
<g id="edge1" class="edge">
<title>Node1&#45;&gt;Node2</title>
<path fill="none" stroke="midnightblue" d="M529.13,-250.7C442.14,-244.61 285.91,-231.91 143.37,-210.19"/>
<polygon fill="midnightblue" stroke="midnightblue" points="143.55,-206.67 133.13,-208.61 142.48,-213.59 143.55,-206.67"/>
</g>
<!-- Node4 -->
<g id="node4" class="node">
<title>Node4</title>
<g id="a_node4"><a xlink:href="panoc-stop-crit_8hpp.html" target="_top" xlink:title=" ">
<polygon fill="white" stroke="black" points="151,-179.5 151,-209.5 270,-209.5 270,-179.5 151,-179.5"/>
<text text-anchor="start" x="159" y="-197.5" font-family="Helvetica,sans-Serif" font-size="10.00">panoc&#45;alm/inner/decl</text>
<text text-anchor="middle" x="210.5" y="-186.5" font-family="Helvetica,sans-Serif" font-size="10.00">/panoc&#45;stop&#45;crit.hpp</text>
</a>
</g>
</g>
<!-- Node1&#45;&gt;Node4 -->
<g id="edge3" class="edge">
<title>Node1&#45;&gt;Node4</title>
<path fill="none" stroke="midnightblue" d="M529.2,-246.76C467.15,-238.86 372.27,-226.03 280.33,-210.07"/>
<polygon fill="midnightblue" stroke="midnightblue" points="280.75,-206.59 270.29,-208.32 279.54,-213.49 280.75,-206.59"/>
</g>
<!-- Node7 -->
<g id="node7" class="node">
<title>Node7</title>
<g id="a_node7"><a xlink:href="atomic__stop__signal_8hpp.html" target="_top" xlink:title=" ">
<polygon fill="white" stroke="black" points="288.5,-179.5 288.5,-209.5 412.5,-209.5 412.5,-179.5 288.5,-179.5"/>
<text text-anchor="start" x="296.5" y="-197.5" font-family="Helvetica,sans-Serif" font-size="10.00">panoc&#45;alm/util/atomic</text>
<text text-anchor="middle" x="350.5" y="-186.5" font-family="Helvetica,sans-Serif" font-size="10.00">_stop_signal.hpp</text>
</a>
</g>
</g>
<!-- Node1&#45;&gt;Node7 -->
<g id="edge6" class="edge">
<title>Node1&#45;&gt;Node7</title>
<path fill="none" stroke="midnightblue" d="M561.25,-246.48C524.12,-237.49 464.73,-223.13 418.44,-211.93"/>
<polygon fill="midnightblue" stroke="midnightblue" points="419.02,-208.47 408.48,-209.52 417.37,-215.28 419.02,-208.47"/>
</g>
<!-- Node8 -->
<g id="node8" class="node">
<title>Node8</title>
<g id="a_node8"><a xlink:title=" ">
<polygon fill="white" stroke="#bfbfbf" points="333.5,-118 333.5,-137 383.5,-137 383.5,-118 333.5,-118"/>
<text text-anchor="middle" x="358.5" y="-125" font-family="Helvetica,sans-Serif" font-size="10.00">atomic</text>
</a>
</g>
</g>
<!-- Node1&#45;&gt;Node8 -->
<g id="edge21" class="edge">
<title>Node1&#45;&gt;Node8</title>
<path fill="none" stroke="midnightblue" d="M558.34,-246.48C529.97,-239.22 490.9,-227.19 459.5,-210 440.38,-199.53 438.45,-192.71 421.5,-179 406.62,-166.97 389.7,-153.41 377.14,-143.37"/>
<polygon fill="midnightblue" stroke="midnightblue" points="379.22,-140.56 369.22,-137.05 374.85,-146.03 379.22,-140.56"/>
</g>
<!-- Node9 -->
<g id="node9" class="node">
<title>Node9</title>
<g id="a_node9"><a xlink:href="lipschitz_8hpp.html" target="_top" xlink:title=" ">
<polygon fill="white" stroke="black" points="468.5,-185 468.5,-204 620.5,-204 620.5,-185 468.5,-185"/>
<text text-anchor="middle" x="544.5" y="-192" font-family="Helvetica,sans-Serif" font-size="10.00">panoc&#45;alm/util/lipschitz.hpp</text>
</a>
</g>
</g>
<!-- Node1&#45;&gt;Node9 -->
<g id="edge8" class="edge">
<title>Node1&#45;&gt;Node9</title>
<path fill="none" stroke="midnightblue" d="M589.05,-246.48C581.17,-237.46 568.56,-223.02 558.76,-211.81"/>
<polygon fill="midnightblue" stroke="midnightblue" points="561.15,-209.24 551.94,-204.01 555.88,-213.84 561.15,-209.24"/>
</g>
<!-- Node12 -->
<g id="node12" class="node">
<title>Node12</title>
<g id="a_node12"><a xlink:href="include_2panoc-alm_2util_2problem_8hpp.html" target="_top" xlink:title=" ">
<polygon fill="white" stroke="black" points="676.5,-185 676.5,-204 828.5,-204 828.5,-185 676.5,-185"/>
<text text-anchor="middle" x="752.5" y="-192" font-family="Helvetica,sans-Serif" font-size="10.00">panoc&#45;alm/util/problem.hpp</text>
</a>
</g>
</g>
<!-- Node1&#45;&gt;Node12 -->
<g id="edge11" class="edge">
<title>Node1&#45;&gt;Node12</title>
<path fill="none" stroke="midnightblue" d="M618.85,-246.48C645.49,-236.31 690.21,-219.26 720.51,-207.7"/>
<polygon fill="midnightblue" stroke="midnightblue" points="722.09,-210.84 730.19,-204.01 719.6,-204.3 722.09,-210.84"/>
</g>
<!-- Node15 -->
<g id="node15" class="node">
<title>Node15</title>
<g id="a_node15"><a xlink:title=" ">
<polygon fill="white" stroke="#bfbfbf" points="572.5,-118 572.5,-137 622.5,-137 622.5,-118 572.5,-118"/>
<text text-anchor="middle" x="597.5" y="-125" font-family="Helvetica,sans-Serif" font-size="10.00">chrono</text>
</a>
</g>
</g>
<!-- Node1&#45;&gt;Node15 -->
<g id="edge22" class="edge">
<title>Node1&#45;&gt;Node15</title>
<path fill="none" stroke="midnightblue" d="M605.52,-246.34C613.57,-237.93 624.8,-224.36 629.5,-210 633.79,-196.91 633.34,-192.23 629.5,-179 625.91,-166.61 618.26,-154.35 611.34,-145.01"/>
<polygon fill="midnightblue" stroke="midnightblue" points="614.02,-142.75 605.09,-137.04 608.51,-147.07 614.02,-142.75"/>
</g>
<!-- Node19 -->
<g id="node19" class="node">
<title>Node19</title>
<g id="a_node19"><a xlink:href="solverstatus_8hpp.html" target="_top" xlink:title=" ">
<polygon fill="white" stroke="black" points="847,-185 847,-204 1018,-204 1018,-185 847,-185"/>
<text text-anchor="middle" x="932.5" y="-192" font-family="Helvetica,sans-Serif" font-size="10.00">panoc&#45;alm/util/solverstatus.hpp</text>
</a>
</g>
</g>
<!-- Node1&#45;&gt;Node19 -->
<g id="edge19" class="edge">
<title>Node1&#45;&gt;Node19</title>
<path fill="none" stroke="midnightblue" d="M644.64,-246.48C705.27,-235.74 809.36,-217.31 874.36,-205.79"/>
<polygon fill="midnightblue" stroke="midnightblue" points="875.21,-209.2 884.45,-204.01 873.99,-202.31 875.21,-209.2"/>
</g>
<!-- Node21 -->
<g id="node21" class="node">
<title>Node21</title>
<g id="a_node21"><a xlink:title=" ">
<polygon fill="white" stroke="#bfbfbf" points="1036.5,-185 1036.5,-204 1080.5,-204 1080.5,-185 1036.5,-185"/>
<text text-anchor="middle" x="1058.5" y="-192" font-family="Helvetica,sans-Serif" font-size="10.00">limits</text>
</a>
</g>
</g>
<!-- Node1&#45;&gt;Node21 -->
<g id="edge23" class="edge">
<title>Node1&#45;&gt;Node21</title>
<path fill="none" stroke="midnightblue" d="M663.86,-254.85C749.79,-253.1 902.27,-244.76 1027.5,-210 1029.43,-209.46 1031.39,-208.82 1033.34,-208.1"/>
<polygon fill="midnightblue" stroke="midnightblue" points="1034.97,-211.21 1042.8,-204.08 1032.23,-204.77 1034.97,-211.21"/>
</g>
<!-- Node22 -->
<g id="node22" class="node">
<title>Node22</title>
<g id="a_node22"><a xlink:title=" ">
<polygon fill="white" stroke="#bfbfbf" points="1098.5,-185 1098.5,-204 1142.5,-204 1142.5,-185 1098.5,-185"/>
<text text-anchor="middle" x="1120.5" y="-192" font-family="Helvetica,sans-Serif" font-size="10.00">string</text>
</a>
</g>
</g>
<!-- Node1&#45;&gt;Node22 -->
<g id="edge24" class="edge">
<title>Node1&#45;&gt;Node22</title>
<path fill="none" stroke="midnightblue" d="M663.56,-251.75C779.14,-245.67 1011,-231.24 1089.5,-210 1091.44,-209.48 1093.4,-208.84 1095.35,-208.13"/>
<polygon fill="midnightblue" stroke="midnightblue" points="1096.97,-211.24 1104.81,-204.12 1094.24,-204.8 1096.97,-211.24"/>
</g>
<!-- Node3 -->
<g id="node3" class="node">
<title>Node3</title>
<g id="a_node3"><a xlink:href="lbfgs-fwd_8hpp.html" target="_top" xlink:title=" ">
<polygon fill="white" stroke="black" points="0,-112.5 0,-142.5 147,-142.5 147,-112.5 0,-112.5"/>
<text text-anchor="start" x="8" y="-130.5" font-family="Helvetica,sans-Serif" font-size="10.00">panoc&#45;alm/inner/directions</text>
<text text-anchor="middle" x="73.5" y="-119.5" font-family="Helvetica,sans-Serif" font-size="10.00">/decl/lbfgs&#45;fwd.hpp</text>
</a>
</g>
</g>
<!-- Node2&#45;&gt;Node3 -->
<g id="edge2" class="edge">
<title>Node2&#45;&gt;Node3</title>
<path fill="none" stroke="midnightblue" d="M73.5,-179.4C73.5,-171.64 73.5,-161.81 73.5,-152.86"/>
<polygon fill="midnightblue" stroke="midnightblue" points="77,-152.58 73.5,-142.58 70,-152.58 77,-152.58"/>
</g>
<!-- Node5 -->
<g id="node5" class="node">
<title>Node5</title>
<g id="a_node5"><a xlink:title=" ">
<polygon fill="white" stroke="#bfbfbf" points="174,-118 174,-137 231,-137 231,-118 174,-118"/>
<text text-anchor="middle" x="202.5" y="-125" font-family="Helvetica,sans-Serif" font-size="10.00">ostream</text>
</a>
</g>
</g>
<!-- Node4&#45;&gt;Node5 -->
<g id="edge4" class="edge">
<title>Node4&#45;&gt;Node5</title>
<path fill="none" stroke="midnightblue" d="M208.76,-179.4C207.6,-169.96 206.06,-157.45 204.8,-147.19"/>
<polygon fill="midnightblue" stroke="midnightblue" points="208.27,-146.69 203.57,-137.19 201.32,-147.55 208.27,-146.69"/>
</g>
<!-- Node6 -->
<g id="node6" class="node">
<title>Node6</title>
<g id="a_node6"><a xlink:title=" ">
<polygon fill="white" stroke="#bfbfbf" points="249,-118 249,-137 314,-137 314,-118 249,-118"/>
<text text-anchor="middle" x="281.5" y="-125" font-family="Helvetica,sans-Serif" font-size="10.00">stdexcept</text>
</a>
</g>
</g>
<!-- Node4&#45;&gt;Node6 -->
<g id="edge5" class="edge">
<title>Node4&#45;&gt;Node6</title>
<path fill="none" stroke="midnightblue" d="M225.91,-179.4C237.31,-168.96 252.83,-154.75 264.57,-144"/>
<polygon fill="midnightblue" stroke="midnightblue" points="266.99,-146.53 272,-137.19 262.26,-141.37 266.99,-146.53"/>
</g>
<!-- Node7&#45;&gt;Node8 -->
<g id="edge7" class="edge">
<title>Node7&#45;&gt;Node8</title>
<path fill="none" stroke="midnightblue" d="M352.24,-179.4C353.4,-169.96 354.94,-157.45 356.2,-147.19"/>
<polygon fill="midnightblue" stroke="midnightblue" points="359.68,-147.55 357.43,-137.19 352.73,-146.69 359.68,-147.55"/>
</g>
<!-- Node10 -->
<g id="node10" class="node">
<title>Node10</title>
<g id="a_node10"><a xlink:href="vec_8hpp.html" target="_top" xlink:title=" ">
<polygon fill="white" stroke="black" points="542.5,-56.5 542.5,-75.5 670.5,-75.5 670.5,-56.5 542.5,-56.5"/>
<text text-anchor="middle" x="606.5" y="-63.5" font-family="Helvetica,sans-Serif" font-size="10.00">panoc&#45;alm/util/vec.hpp</text>
</a>
</g>
</g>
<!-- Node9&#45;&gt;Node10 -->
<g id="edge9" class="edge">
<title>Node9&#45;&gt;Node10</title>
<path fill="none" stroke="midnightblue" d="M545.02,-184.88C546.26,-169.41 550.37,-136.28 563.5,-112 569.5,-100.91 578.97,-90.58 587.49,-82.62"/>
<polygon fill="midnightblue" stroke="midnightblue" points="590.06,-85.02 595.23,-75.77 585.42,-79.77 590.06,-85.02"/>
</g>
<!-- Node11 -->
<g id="node11" class="node">
<title>Node11</title>
<g id="a_node11"><a xlink:title=" ">
<polygon fill="white" stroke="#bfbfbf" points="572,-0.5 572,-19.5 641,-19.5 641,-0.5 572,-0.5"/>
<text text-anchor="middle" x="606.5" y="-7.5" font-family="Helvetica,sans-Serif" font-size="10.00">Eigen/Core</text>
</a>
</g>
</g>
<!-- Node10&#45;&gt;Node11 -->
<g id="edge10" class="edge">
<title>Node10&#45;&gt;Node11</title>
<path fill="none" stroke="midnightblue" d="M606.5,-56.08C606.5,-49.01 606.5,-38.86 606.5,-29.99"/>
<polygon fill="midnightblue" stroke="midnightblue" points="610,-29.75 606.5,-19.75 603,-29.75 610,-29.75"/>
</g>
<!-- Node13 -->
<g id="node13" class="node">
<title>Node13</title>
<g id="a_node13"><a xlink:href="box_8hpp.html" target="_top" xlink:title=" ">
<polygon fill="white" stroke="black" points="640.5,-118 640.5,-137 696.5,-137 696.5,-118 640.5,-118"/>
<text text-anchor="middle" x="668.5" y="-125" font-family="Helvetica,sans-Serif" font-size="10.00">box.hpp</text>
</a>
</g>
</g>
<!-- Node12&#45;&gt;Node13 -->
<g id="edge12" class="edge">
<title>Node12&#45;&gt;Node13</title>
<path fill="none" stroke="midnightblue" d="M741.17,-184.73C727.44,-174.11 704.1,-156.05 687.58,-143.26"/>
<polygon fill="midnightblue" stroke="midnightblue" points="689.7,-140.48 679.65,-137.13 685.42,-146.02 689.7,-140.48"/>
</g>
<!-- Node14 -->
<g id="node14" class="node">
<title>Node14</title>
<g id="a_node14"><a xlink:title=" ">
<polygon fill="white" stroke="#bfbfbf" points="714.5,-118 714.5,-137 766.5,-137 766.5,-118 714.5,-118"/>
<text text-anchor="middle" x="740.5" y="-125" font-family="Helvetica,sans-Serif" font-size="10.00">cassert</text>
</a>
</g>
</g>
<!-- Node12&#45;&gt;Node14 -->
<g id="edge14" class="edge">
<title>Node12&#45;&gt;Node14</title>
<path fill="none" stroke="midnightblue" d="M750.88,-184.73C749.12,-175.18 746.24,-159.62 743.97,-147.28"/>
<polygon fill="midnightblue" stroke="midnightblue" points="747.35,-146.33 742.09,-137.13 740.47,-147.6 747.35,-146.33"/>
</g>
<!-- Node12&#45;&gt;Node15 -->
<g id="edge15" class="edge">
<title>Node12&#45;&gt;Node15</title>
<path fill="none" stroke="midnightblue" d="M731.93,-184.97C707.83,-174.97 666.73,-157.87 631.5,-143 630.1,-142.41 628.66,-141.8 627.21,-141.19"/>
<polygon fill="midnightblue" stroke="midnightblue" points="628.2,-137.8 617.62,-137.11 625.46,-144.25 628.2,-137.8"/>
</g>
<!-- Node16 -->
<g id="node16" class="node">
<title>Node16</title>
<g id="a_node16"><a xlink:title=" ">
<polygon fill="white" stroke="#bfbfbf" points="785,-118 785,-137 850,-137 850,-118 785,-118"/>
<text text-anchor="middle" x="817.5" y="-125" font-family="Helvetica,sans-Serif" font-size="10.00">functional</text>
</a>
</g>
</g>
<!-- Node12&#45;&gt;Node16 -->
<g id="edge16" class="edge">
<title>Node12&#45;&gt;Node16</title>
<path fill="none" stroke="midnightblue" d="M761.27,-184.73C771.6,-174.4 788.96,-157.04 801.67,-144.33"/>
<polygon fill="midnightblue" stroke="midnightblue" points="804.28,-146.67 808.87,-137.13 799.33,-141.72 804.28,-146.67"/>
</g>
<!-- Node17 -->
<g id="node17" class="node">
<title>Node17</title>
<g id="a_node17"><a xlink:title=" ">
<polygon fill="white" stroke="#bfbfbf" points="868.5,-118 868.5,-137 926.5,-137 926.5,-118 868.5,-118"/>
<text text-anchor="middle" x="897.5" y="-125" font-family="Helvetica,sans-Serif" font-size="10.00">memory</text>
</a>
</g>
</g>
<!-- Node12&#45;&gt;Node17 -->
<g id="edge17" class="edge">
<title>Node12&#45;&gt;Node17</title>
<path fill="none" stroke="midnightblue" d="M771.75,-184.87C796.67,-173.7 840.29,-154.15 869.03,-141.26"/>
<polygon fill="midnightblue" stroke="midnightblue" points="870.47,-144.45 878.17,-137.17 867.61,-138.06 870.47,-144.45"/>
</g>
<!-- Node18 -->
<g id="node18" class="node">
<title>Node18</title>
<g id="a_node18"><a xlink:title=" ">
<polygon fill="white" stroke="#bfbfbf" points="945,-118 945,-137 1014,-137 1014,-118 945,-118"/>
<text text-anchor="middle" x="979.5" y="-125" font-family="Helvetica,sans-Serif" font-size="10.00">type_traits</text>
</a>
</g>
</g>
<!-- Node12&#45;&gt;Node18 -->
<g id="edge18" class="edge">
<title>Node12&#45;&gt;Node18</title>
<path fill="none" stroke="midnightblue" d="M785.37,-184.95C822.1,-175.27 883.29,-158.8 935.5,-143 938.41,-142.12 941.42,-141.18 944.43,-140.23"/>
<polygon fill="midnightblue" stroke="midnightblue" points="945.53,-143.55 953.97,-137.15 943.38,-136.89 945.53,-143.55"/>
</g>
<!-- Node13&#45;&gt;Node10 -->
<g id="edge13" class="edge">
<title>Node13&#45;&gt;Node10</title>
<path fill="none" stroke="midnightblue" d="M659.62,-117.98C650.04,-108.78 634.59,-93.96 622.81,-82.66"/>
<polygon fill="midnightblue" stroke="midnightblue" points="625.01,-79.91 615.37,-75.51 620.16,-84.96 625.01,-79.91"/>
</g>
<!-- Node20 -->
<g id="node20" class="node">
<title>Node20</title>
<g id="a_node20"><a xlink:title=" ">
<polygon fill="white" stroke="#bfbfbf" points="1032.5,-118 1032.5,-137 1080.5,-137 1080.5,-118 1032.5,-118"/>
<text text-anchor="middle" x="1056.5" y="-125" font-family="Helvetica,sans-Serif" font-size="10.00">iosfwd</text>
</a>
</g>
</g>
<!-- Node19&#45;&gt;Node20 -->
<g id="edge20" class="edge">
<title>Node19&#45;&gt;Node20</title>
<path fill="none" stroke="midnightblue" d="M948.97,-184.87C969.9,-173.89 1006.28,-154.82 1030.86,-141.94"/>
<polygon fill="midnightblue" stroke="midnightblue" points="1032.73,-144.91 1039.97,-137.17 1029.48,-138.71 1032.73,-144.91"/>
</g>
</g>
</svg>
