<?xml version="1.0" encoding="UTF-8" standalone="no"?>
<!DOCTYPE svg PUBLIC "-//W3C//DTD SVG 1.1//EN"
 "http://www.w3.org/Graphics/SVG/1.1/DTD/svg11.dtd">
<!-- Generated by graphviz version 2.43.0 (0)
 -->
<!-- Title: directions Pages: 1 -->
<svg width="184pt" height="231pt"
 viewBox="0.00 0.00 184.00 231.00" xmlns="http://www.w3.org/2000/svg" xmlns:xlink="http://www.w3.org/1999/xlink">
<g id="graph0" class="graph" transform="scale(1 1) rotate(0) translate(4 227)">
<title>directions</title>
<polygon fill="white" stroke="transparent" points="-4,4 -4,-227 180,-227 180,4 -4,4"/>
<g id="clust1" class="cluster">
<title>clusterdir_3e9c4e5327a81a71a89d9f82f5b1fa78</title>
<g id="a_clust1"><a xlink:href="dir_3e9c4e5327a81a71a89d9f82f5b1fa78.html" target="_top" xlink:title="inner">
<polygon fill="#ddddee" stroke="black" points="8,-56 8,-215 168,-215 168,-56 8,-56"/>
<text text-anchor="middle" x="88" y="-203" font-family="Helvetica,sans-Serif" font-size="10.00">inner</text>
</a>
</g>
</g>
<g id="clust2" class="cluster">
<title>clusterdir_0458df1e67485cf5278eafdb508857b1</title>
<g id="a_clust2"><a xlink:href="dir_0458df1e67485cf5278eafdb508857b1.html" target="_top">
<polygon fill="#eeeeff" stroke="black" points="16,-64 16,-188 98,-188 98,-64 16,-64"/>
</a>
</g>
</g>
<!-- dir_82fd9c8b47b758db73e98a227e698837 -->
<g id="node1" class="node">
<title>dir_82fd9c8b47b758db73e98a227e698837</title>
<g id="a_node1"><a xlink:href="dir_82fd9c8b47b758db73e98a227e698837.html" target="_top" xlink:title="detail">
<polygon fill="none" stroke="black" points="160,-108 106,-108 106,-72 160,-72 160,-108"/>
<text text-anchor="middle" x="133" y="-87.5" font-family="Helvetica,sans-Serif" font-size="10.00">detail</text>
</a>
</g>
</g>
<!-- dir_2bd50800112c18592c4fbe8af353e3db -->
<g id="node4" class="node">
<title>dir_2bd50800112c18592c4fbe8af353e3db</title>
<g id="a_node4"><a xlink:href="dir_2bd50800112c18592c4fbe8af353e3db.html" target="_top" xlink:title="util">
<polygon fill="none" stroke="black" points="124,-36 70,-36 70,0 124,0 124,-36"/>
<text text-anchor="middle" x="97" y="-15.5" font-family="Helvetica,sans-Serif" font-size="10.00">util</text>
</a>
</g>
</g>
<!-- dir_82fd9c8b47b758db73e98a227e698837&#45;&gt;dir_2bd50800112c18592c4fbe8af353e3db -->
<g id="edge4" class="edge">
<title>dir_82fd9c8b47b758db73e98a227e698837&#45;&gt;dir_2bd50800112c18592c4fbe8af353e3db</title>
<path fill="none" stroke="black" d="M124.1,-71.7C120,-63.73 115.05,-54.1 110.51,-45.26"/>
<polygon fill="black" stroke="black" points="113.48,-43.4 105.8,-36.1 107.26,-46.6 113.48,-43.4"/>
<g id="a_edge4&#45;headlabel"><a xlink:href="dir_000024_000019.html" target="_top" xlink:title="5">
<text text-anchor="middle" x="117.65" y="-42.79" font-family="Helvetica,sans-Serif" font-size="10.00">5</text>
</a>
</g>
</g>
<!-- dir_0458df1e67485cf5278eafdb508857b1 -->
<g id="node2" class="node">
<title>dir_0458df1e67485cf5278eafdb508857b1</title>
<text text-anchor="middle" x="57" y="-159.5" font-family="Helvetica,sans-Serif" font-size="10.00">directions</text>
</g>
<!-- dir_0458df1e67485cf5278eafdb508857b1&#45;&gt;dir_82fd9c8b47b758db73e98a227e698837 -->
<g id="edge2" class="edge">
<title>dir_0458df1e67485cf5278eafdb508857b1&#45;&gt;dir_82fd9c8b47b758db73e98a227e698837</title>
<path fill="none" stroke="black" d="M75.79,-143.7C85.17,-135.05 96.68,-124.45 106.91,-115.03"/>
<polygon fill="black" stroke="black" points="109.45,-117.45 114.43,-108.1 104.7,-112.3 109.45,-117.45"/>
<g id="a_edge2&#45;headlabel"><a xlink:href="dir_000025_000024.html" target="_top" xlink:title="2">
<text text-anchor="middle" x="108.72" y="-119.48" font-family="Helvetica,sans-Serif" font-size="10.00">2</text>
</a>
</g>
</g>
<!-- dir_4a4c056b2a41791dd9a772a89cef48a6 -->
<g id="node3" class="node">
<title>dir_4a4c056b2a41791dd9a772a89cef48a6</title>
<g id="a_node3"><a xlink:href="dir_4a4c056b2a41791dd9a772a89cef48a6.html" target="_top" xlink:title="decl">
<polygon fill="white" stroke="black" points="86,-108 32,-108 32,-72 86,-72 86,-108"/>
<text text-anchor="middle" x="59" y="-87.5" font-family="Helvetica,sans-Serif" font-size="10.00">decl</text>
</a>
</g>
</g>
<!-- dir_0458df1e67485cf5278eafdb508857b1&#45;&gt;dir_4a4c056b2a41791dd9a772a89cef48a6 -->
<g id="edge1" class="edge">
<title>dir_0458df1e67485cf5278eafdb508857b1&#45;&gt;dir_4a4c056b2a41791dd9a772a89cef48a6</title>
<path fill="none" stroke="black" d="M57.49,-143.7C57.71,-135.98 57.98,-126.71 58.23,-118.11"/>
<polygon fill="black" stroke="black" points="61.72,-118.2 58.51,-108.1 54.73,-118 61.72,-118.2"/>
<g id="a_edge1&#45;headlabel"><a xlink:href="dir_000025_000026.html" target="_top" xlink:title="4">
<text text-anchor="middle" x="64.46" y="-119.37" font-family="Helvetica,sans-Serif" font-size="10.00">4</text>
</a>
</g>
</g>
<!-- dir_4a4c056b2a41791dd9a772a89cef48a6&#45;&gt;dir_2bd50800112c18592c4fbe8af353e3db -->
<g id="edge3" class="edge">
<title>dir_4a4c056b2a41791dd9a772a89cef48a6&#45;&gt;dir_2bd50800112c18592c4fbe8af353e3db</title>
<path fill="none" stroke="black" d="M68.39,-71.7C72.76,-63.64 78.06,-53.89 82.9,-44.98"/>
<polygon fill="black" stroke="black" points="86.02,-46.56 87.71,-36.1 79.87,-43.22 86.02,-46.56"/>
<g id="a_edge3&#45;headlabel"><a xlink:href="dir_000026_000019.html" target="_top" xlink:title="3">
<text text-anchor="middle" x="86.8" y="-48.58" font-family="Helvetica,sans-Serif" font-size="10.00">3</text>
</a>
</g>
</g>
</g>
</svg>
