<?xml version="1.0" encoding="UTF-8" standalone="no"?>
<!DOCTYPE svg PUBLIC "-//W3C//DTD SVG 1.1//EN"
 "http://www.w3.org/Graphics/SVG/1.1/DTD/svg11.dtd">
<!-- Generated by graphviz version 2.43.0 (0)
 -->
<!-- Title: reference&#45;problems Pages: 1 -->
<svg width="154pt" height="167pt"
 viewBox="0.00 0.00 154.00 167.00" xmlns="http://www.w3.org/2000/svg" xmlns:xlink="http://www.w3.org/1999/xlink">
<g id="graph0" class="graph" transform="scale(1 1) rotate(0) translate(4 163)">
<title>reference&#45;problems</title>
<polygon fill="white" stroke="transparent" points="-4,4 -4,-163 150,-163 150,4 -4,4"/>
<g id="clust1" class="cluster">
<title>clusterdir_90b5b0cae34bc1cd1e0eaa0196dab481</title>
<g id="a_clust1"><a xlink:href="dir_90b5b0cae34bc1cd1e0eaa0196dab481.html" target="_top" xlink:title="panoc&#45;alm">
<polygon fill="#ddddee" stroke="black" points="8,-8 8,-151 138,-151 138,-8 8,-8"/>
<text text-anchor="middle" x="73" y="-139" font-family="Helvetica,sans-Serif" font-size="10.00">panoc&#45;alm</text>
</a>
</g>
</g>
<!-- dir_2bd50800112c18592c4fbe8af353e3db -->
<g id="node1" class="node">
<title>dir_2bd50800112c18592c4fbe8af353e3db</title>
<g id="a_node1"><a xlink:href="dir_2bd50800112c18592c4fbe8af353e3db.html" target="_top" xlink:title="util">
<polygon fill="none" stroke="black" points="100,-52 46,-52 46,-16 100,-16 100,-52"/>
<text text-anchor="middle" x="73" y="-31.5" font-family="Helvetica,sans-Serif" font-size="10.00">util</text>
</a>
</g>
</g>
<!-- dir_2ef00cd1d568f193a5d6d8c857f8f410 -->
<g id="node2" class="node">
<title>dir_2ef00cd1d568f193a5d6d8c857f8f410</title>
<g id="a_node2"><a xlink:href="dir_2ef00cd1d568f193a5d6d8c857f8f410.html" target="_top" xlink:title="reference&#45;problems">
<polygon fill="#eeeeff" stroke="black" points="129.5,-124 16.5,-124 16.5,-88 129.5,-88 129.5,-124"/>
<text text-anchor="middle" x="73" y="-103.5" font-family="Helvetica,sans-Serif" font-size="10.00">reference&#45;problems</text>
</a>
</g>
</g>
<!-- dir_2ef00cd1d568f193a5d6d8c857f8f410&#45;&gt;dir_2bd50800112c18592c4fbe8af353e3db -->
<g id="edge1" class="edge">
<title>dir_2ef00cd1d568f193a5d6d8c857f8f410&#45;&gt;dir_2bd50800112c18592c4fbe8af353e3db</title>
<path fill="none" stroke="black" d="M73,-87.7C73,-79.98 73,-70.71 73,-62.11"/>
<polygon fill="black" stroke="black" points="76.5,-62.1 73,-52.1 69.5,-62.1 76.5,-62.1"/>
<g id="a_edge1&#45;headlabel"><a xlink:href="dir_000031_000019.html" target="_top" xlink:title="2">
<text text-anchor="middle" x="79.34" y="-63.2" font-family="Helvetica,sans-Serif" font-size="10.00">2</text>
</a>
</g>
</g>
</g>
</svg>
