<?xml version="1.0" encoding="UTF-8" standalone="no"?>
<!DOCTYPE svg PUBLIC "-//W3C//DTD SVG 1.1//EN"
 "http://www.w3.org/Graphics/SVG/1.1/DTD/svg11.dtd">
<!-- Generated by graphviz version 2.43.0 (0)
 -->
<!-- Title: standalone Pages: 1 -->
<svg width="114pt" height="239pt"
 viewBox="0.00 0.00 114.00 239.00" xmlns="http://www.w3.org/2000/svg" xmlns:xlink="http://www.w3.org/1999/xlink">
<g id="graph0" class="graph" transform="scale(1 1) rotate(0) translate(4 235)">
<title>standalone</title>
<polygon fill="white" stroke="transparent" points="-4,4 -4,-235 110,-235 110,4 -4,4"/>
<g id="clust1" class="cluster">
<title>clusterdir_90b5b0cae34bc1cd1e0eaa0196dab481</title>
<g id="a_clust1"><a xlink:href="dir_90b5b0cae34bc1cd1e0eaa0196dab481.html" target="_top" xlink:title="panoc&#45;alm">
<polygon fill="#ddddee" stroke="black" points="8,-8 8,-223 98,-223 98,-8 8,-8"/>
<text text-anchor="middle" x="53" y="-211" font-family="Helvetica,sans-Serif" font-size="10.00">panoc&#45;alm</text>
</a>
</g>
</g>
<!-- dir_2bd50800112c18592c4fbe8af353e3db -->
<g id="node1" class="node">
<title>dir_2bd50800112c18592c4fbe8af353e3db</title>
<g id="a_node1"><a xlink:href="dir_2bd50800112c18592c4fbe8af353e3db.html" target="_top" xlink:title="util">
<polygon fill="none" stroke="black" points="80,-52 26,-52 26,-16 80,-16 80,-52"/>
<text text-anchor="middle" x="53" y="-31.5" font-family="Helvetica,sans-Serif" font-size="10.00">util</text>
</a>
</g>
</g>
<!-- dir_3e9c4e5327a81a71a89d9f82f5b1fa78 -->
<g id="node2" class="node">
<title>dir_3e9c4e5327a81a71a89d9f82f5b1fa78</title>
<g id="a_node2"><a xlink:href="dir_3e9c4e5327a81a71a89d9f82f5b1fa78.html" target="_top" xlink:title="inner">
<polygon fill="white" stroke="red" points="90,-124 36,-124 36,-88 90,-88 90,-124"/>
<text text-anchor="middle" x="63" y="-103.5" font-family="Helvetica,sans-Serif" font-size="10.00">inner</text>
</a>
</g>
</g>
<!-- dir_3e9c4e5327a81a71a89d9f82f5b1fa78&#45;&gt;dir_2bd50800112c18592c4fbe8af353e3db -->
<g id="edge3" class="edge">
<title>dir_3e9c4e5327a81a71a89d9f82f5b1fa78&#45;&gt;dir_2bd50800112c18592c4fbe8af353e3db</title>
<path fill="none" stroke="black" d="M60.53,-87.7C59.43,-79.98 58.1,-70.71 56.87,-62.11"/>
<polygon fill="black" stroke="black" points="60.32,-61.51 55.44,-52.1 53.39,-62.5 60.32,-61.51"/>
<g id="a_edge3&#45;headlabel"><a xlink:href="dir_000022_000019.html" target="_top" xlink:title="29">
<text text-anchor="middle" x="63.64" y="-62.17" font-family="Helvetica,sans-Serif" font-size="10.00">29</text>
</a>
</g>
</g>
<!-- dir_0e7faab4b75838a7d7c0fe8154971249 -->
<g id="node3" class="node">
<title>dir_0e7faab4b75838a7d7c0fe8154971249</title>
<g id="a_node3"><a xlink:href="dir_0e7faab4b75838a7d7c0fe8154971249.html" target="_top" xlink:title="standalone">
<polygon fill="#eeeeff" stroke="black" points="88.5,-196 17.5,-196 17.5,-160 88.5,-160 88.5,-196"/>
<text text-anchor="middle" x="53" y="-175.5" font-family="Helvetica,sans-Serif" font-size="10.00">standalone</text>
</a>
</g>
</g>
<!-- dir_0e7faab4b75838a7d7c0fe8154971249&#45;&gt;dir_2bd50800112c18592c4fbe8af353e3db -->
<g id="edge1" class="edge">
<title>dir_0e7faab4b75838a7d7c0fe8154971249&#45;&gt;dir_2bd50800112c18592c4fbe8af353e3db</title>
<path fill="none" stroke="black" d="M41.95,-159.61C36.26,-149.62 29.92,-136.58 27,-124 23.38,-108.41 23.38,-103.59 27,-88 29.1,-78.96 32.97,-69.68 37.09,-61.47"/>
<polygon fill="black" stroke="black" points="40.31,-62.86 41.95,-52.39 34.14,-59.55 40.31,-62.86"/>
<g id="a_edge1&#45;headlabel"><a xlink:href="dir_000027_000019.html" target="_top" xlink:title="3">
<text text-anchor="middle" x="41.12" y="-64.87" font-family="Helvetica,sans-Serif" font-size="10.00">3</text>
</a>
</g>
</g>
<!-- dir_0e7faab4b75838a7d7c0fe8154971249&#45;&gt;dir_3e9c4e5327a81a71a89d9f82f5b1fa78 -->
<g id="edge2" class="edge">
<title>dir_0e7faab4b75838a7d7c0fe8154971249&#45;&gt;dir_3e9c4e5327a81a71a89d9f82f5b1fa78</title>
<path fill="none" stroke="black" d="M55.47,-159.7C56.57,-151.98 57.9,-142.71 59.13,-134.11"/>
<polygon fill="black" stroke="black" points="62.61,-134.5 60.56,-124.1 55.68,-133.51 62.61,-134.5"/>
<g id="a_edge2&#45;headlabel"><a xlink:href="dir_000027_000022.html" target="_top" xlink:title="2">
<text text-anchor="middle" x="64.91" y="-135.96" font-family="Helvetica,sans-Serif" font-size="10.00">2</text>
</a>
</g>
</g>
</g>
</svg>
