<?xml version="1.0" encoding="UTF-8" standalone="no"?>
<!DOCTYPE svg PUBLIC "-//W3C//DTD SVG 1.1//EN"
 "http://www.w3.org/Graphics/SVG/1.1/DTD/svg11.dtd">
<!-- Generated by graphviz version 2.43.0 (0)
 -->
<!-- Title: panoc.hpp Pages: 1 -->
<svg width="1469pt" height="274pt"
 viewBox="0.00 0.00 1468.50 274.00" xmlns="http://www.w3.org/2000/svg" xmlns:xlink="http://www.w3.org/1999/xlink">
<g id="graph0" class="graph" transform="scale(1 1) rotate(0) translate(4 270)">
<title>panoc.hpp</title>
<polygon fill="white" stroke="transparent" points="-4,4 -4,-270 1464.5,-270 1464.5,4 -4,4"/>
<!-- Node1 -->
<g id="node1" class="node">
<title>Node1</title>
<g id="a_node1"><a xlink:title=" ">
<polygon fill="#bfbfbf" stroke="black" points="805,-246.5 805,-265.5 872,-265.5 872,-246.5 805,-246.5"/>
<text text-anchor="middle" x="838.5" y="-253.5" font-family="Helvetica,sans-Serif" font-size="10.00">panoc.hpp</text>
</a>
</g>
</g>
<!-- Node2 -->
<g id="node2" class="node">
<title>Node2</title>
<g id="a_node2"><a xlink:href="lbfgs-stepsize_8hpp.html" target="_top" xlink:title=" ">
<polygon fill="white" stroke="black" points="0,-179.5 0,-209.5 119,-209.5 119,-179.5 0,-179.5"/>
<text text-anchor="start" x="8" y="-197.5" font-family="Helvetica,sans-Serif" font-size="10.00">panoc&#45;alm/inner/decl</text>
<text text-anchor="middle" x="59.5" y="-186.5" font-family="Helvetica,sans-Serif" font-size="10.00">/lbfgs&#45;stepsize.hpp</text>
</a>
</g>
</g>
<!-- Node1&#45;&gt;Node2 -->
<g id="edge1" class="edge">
<title>Node1&#45;&gt;Node2</title>
<path fill="none" stroke="midnightblue" d="M804.65,-254.62C703.45,-253.11 394.33,-245.78 129.32,-210.12"/>
<polygon fill="midnightblue" stroke="midnightblue" points="129.5,-206.61 119.12,-208.73 128.55,-213.55 129.5,-206.61"/>
</g>
<!-- Node3 -->
<g id="node3" class="node">
<title>Node3</title>
<g id="a_node3"><a xlink:href="panoc-fwd_8hpp.html" target="_top" xlink:title=" ">
<polygon fill="white" stroke="black" points="137,-179.5 137,-209.5 256,-209.5 256,-179.5 137,-179.5"/>
<text text-anchor="start" x="145" y="-197.5" font-family="Helvetica,sans-Serif" font-size="10.00">panoc&#45;alm/inner/decl</text>
<text text-anchor="middle" x="196.5" y="-186.5" font-family="Helvetica,sans-Serif" font-size="10.00">/panoc&#45;fwd.hpp</text>
</a>
</g>
</g>
<!-- Node1&#45;&gt;Node3 -->
<g id="edge2" class="edge">
<title>Node1&#45;&gt;Node3</title>
<path fill="none" stroke="midnightblue" d="M804.68,-253.91C717.17,-250.74 475.97,-239.93 266.09,-210.11"/>
<polygon fill="midnightblue" stroke="midnightblue" points="266.52,-206.64 256.12,-208.68 265.52,-213.57 266.52,-206.64"/>
</g>
<!-- Node5 -->
<g id="node5" class="node">
<title>Node5</title>
<g id="a_node5"><a xlink:href="panoc-stop-crit_8hpp.html" target="_top" xlink:title=" ">
<polygon fill="white" stroke="black" points="274,-179.5 274,-209.5 393,-209.5 393,-179.5 274,-179.5"/>
<text text-anchor="start" x="282" y="-197.5" font-family="Helvetica,sans-Serif" font-size="10.00">panoc&#45;alm/inner/decl</text>
<text text-anchor="middle" x="333.5" y="-186.5" font-family="Helvetica,sans-Serif" font-size="10.00">/panoc&#45;stop&#45;crit.hpp</text>
</a>
</g>
</g>
<!-- Node1&#45;&gt;Node5 -->
<g id="edge4" class="edge">
<title>Node1&#45;&gt;Node5</title>
<path fill="none" stroke="midnightblue" d="M804.98,-252.74C733.25,-247.64 559.42,-233.92 403.51,-210.05"/>
<polygon fill="midnightblue" stroke="midnightblue" points="403.69,-206.53 393.27,-208.46 402.61,-213.45 403.69,-206.53"/>
</g>
<!-- Node8 -->
<g id="node8" class="node">
<title>Node8</title>
<g id="a_node8"><a xlink:href="panoc-direction-update_8hpp.html" target="_top" xlink:title=" ">
<polygon fill="white" stroke="black" points="582,-179.5 582,-209.5 759,-209.5 759,-179.5 582,-179.5"/>
<text text-anchor="start" x="590" y="-197.5" font-family="Helvetica,sans-Serif" font-size="10.00">panoc&#45;alm/inner/directions</text>
<text text-anchor="middle" x="670.5" y="-186.5" font-family="Helvetica,sans-Serif" font-size="10.00">/decl/panoc&#45;direction&#45;update.hpp</text>
</a>
</g>
</g>
<!-- Node1&#45;&gt;Node8 -->
<g id="edge7" class="edge">
<title>Node1&#45;&gt;Node8</title>
<path fill="none" stroke="midnightblue" d="M814.43,-246.48C789.87,-237.78 751.05,-224.03 719.91,-213"/>
<polygon fill="midnightblue" stroke="midnightblue" points="720.69,-209.56 710.09,-209.52 718.35,-216.16 720.69,-209.56"/>
</g>
<!-- Node12 -->
<g id="node12" class="node">
<title>Node12</title>
<g id="a_node12"><a xlink:href="atomic__stop__signal_8hpp.html" target="_top" xlink:title=" ">
<polygon fill="white" stroke="black" points="1022.5,-179.5 1022.5,-209.5 1146.5,-209.5 1146.5,-179.5 1022.5,-179.5"/>
<text text-anchor="start" x="1030.5" y="-197.5" font-family="Helvetica,sans-Serif" font-size="10.00">panoc&#45;alm/util/atomic</text>
<text text-anchor="middle" x="1084.5" y="-186.5" font-family="Helvetica,sans-Serif" font-size="10.00">_stop_signal.hpp</text>
</a>
</g>
</g>
<!-- Node1&#45;&gt;Node12 -->
<g id="edge11" class="edge">
<title>Node1&#45;&gt;Node12</title>
<path fill="none" stroke="midnightblue" d="M872.19,-246.85C909.17,-237.91 969.51,-223.31 1016.43,-211.96"/>
<polygon fill="midnightblue" stroke="midnightblue" points="1017.33,-215.35 1026.23,-209.59 1015.68,-208.54 1017.33,-215.35"/>
</g>
<!-- Node13 -->
<g id="node13" class="node">
<title>Node13</title>
<g id="a_node13"><a xlink:title=" ">
<polygon fill="white" stroke="#bfbfbf" points="1105.5,-118 1105.5,-137 1155.5,-137 1155.5,-118 1105.5,-118"/>
<text text-anchor="middle" x="1130.5" y="-125" font-family="Helvetica,sans-Serif" font-size="10.00">atomic</text>
</a>
</g>
</g>
<!-- Node1&#45;&gt;Node13 -->
<g id="edge24" class="edge">
<title>Node1&#45;&gt;Node13</title>
<path fill="none" stroke="midnightblue" d="M872,-247.66C900.63,-240.55 942.34,-228.15 975.5,-210 994.62,-199.53 994.87,-190.32 1013.5,-179 1021.36,-174.22 1068.38,-154.34 1100.37,-141"/>
<polygon fill="midnightblue" stroke="midnightblue" points="1101.86,-144.16 1109.75,-137.09 1099.17,-137.7 1101.86,-144.16"/>
</g>
<!-- Node14 -->
<g id="node14" class="node">
<title>Node14</title>
<g id="a_node14"><a xlink:href="lipschitz_8hpp.html" target="_top" xlink:title=" ">
<polygon fill="white" stroke="black" points="411.5,-185 411.5,-204 563.5,-204 563.5,-185 411.5,-185"/>
<text text-anchor="middle" x="487.5" y="-192" font-family="Helvetica,sans-Serif" font-size="10.00">panoc&#45;alm/util/lipschitz.hpp</text>
</a>
</g>
</g>
<!-- Node1&#45;&gt;Node14 -->
<g id="edge13" class="edge">
<title>Node1&#45;&gt;Node14</title>
<path fill="none" stroke="midnightblue" d="M804.91,-249.33C754.44,-240.81 656.08,-224.2 572.5,-210 564.42,-208.63 555.91,-207.18 547.52,-205.75"/>
<polygon fill="midnightblue" stroke="midnightblue" points="547.83,-202.25 537.39,-204.02 546.66,-209.15 547.83,-202.25"/>
</g>
<!-- Node15 -->
<g id="node15" class="node">
<title>Node15</title>
<g id="a_node15"><a xlink:href="include_2panoc-alm_2util_2problem_8hpp.html" target="_top" xlink:title=" ">
<polygon fill="white" stroke="black" points="814.5,-185 814.5,-204 966.5,-204 966.5,-185 814.5,-185"/>
<text text-anchor="middle" x="890.5" y="-192" font-family="Helvetica,sans-Serif" font-size="10.00">panoc&#45;alm/util/problem.hpp</text>
</a>
</g>
</g>
<!-- Node1&#45;&gt;Node15 -->
<g id="edge15" class="edge">
<title>Node1&#45;&gt;Node15</title>
<path fill="none" stroke="midnightblue" d="M845.95,-246.48C853.83,-237.46 866.44,-223.02 876.24,-211.81"/>
<polygon fill="midnightblue" stroke="midnightblue" points="879.12,-213.84 883.06,-204.01 873.85,-209.24 879.12,-213.84"/>
</g>
<!-- Node17 -->
<g id="node17" class="node">
<title>Node17</title>
<g id="a_node17"><a xlink:title=" ">
<polygon fill="white" stroke="#bfbfbf" points="719.5,-118 719.5,-137 769.5,-137 769.5,-118 719.5,-118"/>
<text text-anchor="middle" x="744.5" y="-125" font-family="Helvetica,sans-Serif" font-size="10.00">chrono</text>
</a>
</g>
</g>
<!-- Node1&#45;&gt;Node17 -->
<g id="edge25" class="edge">
<title>Node1&#45;&gt;Node17</title>
<path fill="none" stroke="midnightblue" d="M832.04,-246.31C816.61,-225.54 777.4,-172.77 757.1,-145.46"/>
<polygon fill="midnightblue" stroke="midnightblue" points="759.78,-143.19 751.01,-137.26 754.16,-147.37 759.78,-143.19"/>
</g>
<!-- Node21 -->
<g id="node21" class="node">
<title>Node21</title>
<g id="a_node21"><a xlink:href="solverstatus_8hpp.html" target="_top" xlink:title=" ">
<polygon fill="white" stroke="black" points="1165,-185 1165,-204 1336,-204 1336,-185 1165,-185"/>
<text text-anchor="middle" x="1250.5" y="-192" font-family="Helvetica,sans-Serif" font-size="10.00">panoc&#45;alm/util/solverstatus.hpp</text>
</a>
</g>
</g>
<!-- Node1&#45;&gt;Node21 -->
<g id="edge22" class="edge">
<title>Node1&#45;&gt;Node21</title>
<path fill="none" stroke="midnightblue" d="M872.3,-250.32C930.27,-242.27 1052.39,-225.19 1155.5,-210 1165.16,-208.58 1175.36,-207.05 1185.36,-205.54"/>
<polygon fill="midnightblue" stroke="midnightblue" points="1185.9,-208.99 1195.26,-204.03 1184.84,-202.07 1185.9,-208.99"/>
</g>
<!-- Node23 -->
<g id="node23" class="node">
<title>Node23</title>
<g id="a_node23"><a xlink:title=" ">
<polygon fill="white" stroke="#bfbfbf" points="1354.5,-185 1354.5,-204 1398.5,-204 1398.5,-185 1354.5,-185"/>
<text text-anchor="middle" x="1376.5" y="-192" font-family="Helvetica,sans-Serif" font-size="10.00">limits</text>
</a>
</g>
</g>
<!-- Node1&#45;&gt;Node23 -->
<g id="edge26" class="edge">
<title>Node1&#45;&gt;Node23</title>
<path fill="none" stroke="midnightblue" d="M872.34,-253.53C970.78,-249.02 1255.69,-234.18 1345.5,-210 1347.44,-209.48 1349.4,-208.84 1351.35,-208.13"/>
<polygon fill="midnightblue" stroke="midnightblue" points="1352.97,-211.25 1360.81,-204.13 1350.24,-204.8 1352.97,-211.25"/>
</g>
<!-- Node24 -->
<g id="node24" class="node">
<title>Node24</title>
<g id="a_node24"><a xlink:title=" ">
<polygon fill="white" stroke="#bfbfbf" points="1416.5,-185 1416.5,-204 1460.5,-204 1460.5,-185 1416.5,-185"/>
<text text-anchor="middle" x="1438.5" y="-192" font-family="Helvetica,sans-Serif" font-size="10.00">string</text>
</a>
</g>
</g>
<!-- Node1&#45;&gt;Node24 -->
<g id="edge27" class="edge">
<title>Node1&#45;&gt;Node24</title>
<path fill="none" stroke="midnightblue" d="M872.26,-253.91C978.55,-250.24 1305.34,-236.98 1407.5,-210 1409.48,-209.48 1411.49,-208.83 1413.49,-208.11"/>
<polygon fill="midnightblue" stroke="midnightblue" points="1415.3,-211.14 1423.14,-204.01 1412.57,-204.69 1415.3,-211.14"/>
</g>
<!-- Node4 -->
<g id="node4" class="node">
<title>Node4</title>
<g id="a_node4"><a xlink:href="lbfgs-fwd_8hpp.html" target="_top" xlink:title=" ">
<polygon fill="white" stroke="black" points="123,-112.5 123,-142.5 270,-142.5 270,-112.5 123,-112.5"/>
<text text-anchor="start" x="131" y="-130.5" font-family="Helvetica,sans-Serif" font-size="10.00">panoc&#45;alm/inner/directions</text>
<text text-anchor="middle" x="196.5" y="-119.5" font-family="Helvetica,sans-Serif" font-size="10.00">/decl/lbfgs&#45;fwd.hpp</text>
</a>
</g>
</g>
<!-- Node3&#45;&gt;Node4 -->
<g id="edge3" class="edge">
<title>Node3&#45;&gt;Node4</title>
<path fill="none" stroke="midnightblue" d="M196.5,-179.4C196.5,-171.64 196.5,-161.81 196.5,-152.86"/>
<polygon fill="midnightblue" stroke="midnightblue" points="200,-152.58 196.5,-142.58 193,-152.58 200,-152.58"/>
</g>
<!-- Node6 -->
<g id="node6" class="node">
<title>Node6</title>
<g id="a_node6"><a xlink:title=" ">
<polygon fill="white" stroke="#bfbfbf" points="297,-118 297,-137 354,-137 354,-118 297,-118"/>
<text text-anchor="middle" x="325.5" y="-125" font-family="Helvetica,sans-Serif" font-size="10.00">ostream</text>
</a>
</g>
</g>
<!-- Node5&#45;&gt;Node6 -->
<g id="edge5" class="edge">
<title>Node5&#45;&gt;Node6</title>
<path fill="none" stroke="midnightblue" d="M331.76,-179.4C330.6,-169.96 329.06,-157.45 327.8,-147.19"/>
<polygon fill="midnightblue" stroke="midnightblue" points="331.27,-146.69 326.57,-137.19 324.32,-147.55 331.27,-146.69"/>
</g>
<!-- Node7 -->
<g id="node7" class="node">
<title>Node7</title>
<g id="a_node7"><a xlink:title=" ">
<polygon fill="white" stroke="#bfbfbf" points="372,-118 372,-137 437,-137 437,-118 372,-118"/>
<text text-anchor="middle" x="404.5" y="-125" font-family="Helvetica,sans-Serif" font-size="10.00">stdexcept</text>
</a>
</g>
</g>
<!-- Node5&#45;&gt;Node7 -->
<g id="edge6" class="edge">
<title>Node5&#45;&gt;Node7</title>
<path fill="none" stroke="midnightblue" d="M348.91,-179.4C360.31,-168.96 375.83,-154.75 387.57,-144"/>
<polygon fill="midnightblue" stroke="midnightblue" points="389.99,-146.53 395,-137.19 385.26,-141.37 389.99,-146.53"/>
</g>
<!-- Node9 -->
<g id="node9" class="node">
<title>Node9</title>
<g id="a_node9"><a xlink:href="box_8hpp.html" target="_top" xlink:title=" ">
<polygon fill="white" stroke="black" points="572,-118 572,-137 701,-137 701,-118 572,-118"/>
<text text-anchor="middle" x="636.5" y="-125" font-family="Helvetica,sans-Serif" font-size="10.00">panoc&#45;alm/util/box.hpp</text>
</a>
</g>
</g>
<!-- Node8&#45;&gt;Node9 -->
<g id="edge8" class="edge">
<title>Node8&#45;&gt;Node9</title>
<path fill="none" stroke="midnightblue" d="M663.12,-179.4C658.03,-169.66 651.22,-156.65 645.77,-146.21"/>
<polygon fill="midnightblue" stroke="midnightblue" points="648.78,-144.43 641.05,-137.19 642.58,-147.68 648.78,-144.43"/>
</g>
<!-- Node10 -->
<g id="node10" class="node">
<title>Node10</title>
<g id="a_node10"><a xlink:href="vec_8hpp.html" target="_top" xlink:title=" ">
<polygon fill="white" stroke="black" points="562,-56.5 562,-75.5 617,-75.5 617,-56.5 562,-56.5"/>
<text text-anchor="middle" x="589.5" y="-63.5" font-family="Helvetica,sans-Serif" font-size="10.00">vec.hpp</text>
</a>
</g>
</g>
<!-- Node9&#45;&gt;Node10 -->
<g id="edge9" class="edge">
<title>Node9&#45;&gt;Node10</title>
<path fill="none" stroke="midnightblue" d="M629.77,-117.98C622.72,-109.05 611.47,-94.81 602.65,-83.64"/>
<polygon fill="midnightblue" stroke="midnightblue" points="605.17,-81.19 596.22,-75.51 599.67,-85.53 605.17,-81.19"/>
</g>
<!-- Node11 -->
<g id="node11" class="node">
<title>Node11</title>
<g id="a_node11"><a xlink:title=" ">
<polygon fill="white" stroke="#bfbfbf" points="555,-0.5 555,-19.5 624,-19.5 624,-0.5 555,-0.5"/>
<text text-anchor="middle" x="589.5" y="-7.5" font-family="Helvetica,sans-Serif" font-size="10.00">Eigen/Core</text>
</a>
</g>
</g>
<!-- Node10&#45;&gt;Node11 -->
<g id="edge10" class="edge">
<title>Node10&#45;&gt;Node11</title>
<path fill="none" stroke="midnightblue" d="M589.5,-56.08C589.5,-49.01 589.5,-38.86 589.5,-29.99"/>
<polygon fill="midnightblue" stroke="midnightblue" points="593,-29.75 589.5,-19.75 586,-29.75 593,-29.75"/>
</g>
<!-- Node12&#45;&gt;Node13 -->
<g id="edge12" class="edge">
<title>Node12&#45;&gt;Node13</title>
<path fill="none" stroke="midnightblue" d="M1094.48,-179.4C1101.51,-169.46 1110.96,-156.11 1118.42,-145.57"/>
<polygon fill="midnightblue" stroke="midnightblue" points="1121.43,-147.38 1124.35,-137.19 1115.71,-143.34 1121.43,-147.38"/>
</g>
<!-- Node14&#45;&gt;Node10 -->
<g id="edge14" class="edge">
<title>Node14&#45;&gt;Node10</title>
<path fill="none" stroke="midnightblue" d="M494.51,-184.81C511.32,-163.95 554.17,-110.81 576.11,-83.61"/>
<polygon fill="midnightblue" stroke="midnightblue" points="578.89,-85.74 582.44,-75.76 573.44,-81.34 578.89,-85.74"/>
</g>
<!-- Node15&#45;&gt;Node9 -->
<g id="edge16" class="edge">
<title>Node15&#45;&gt;Node9</title>
<path fill="none" stroke="midnightblue" d="M857.03,-184.94C811.54,-173.29 730.1,-152.45 679.94,-139.62"/>
<polygon fill="midnightblue" stroke="midnightblue" points="680.6,-136.17 670.04,-137.08 678.86,-142.95 680.6,-136.17"/>
</g>
<!-- Node16 -->
<g id="node16" class="node">
<title>Node16</title>
<g id="a_node16"><a xlink:title=" ">
<polygon fill="white" stroke="#bfbfbf" points="787.5,-118 787.5,-137 839.5,-137 839.5,-118 787.5,-118"/>
<text text-anchor="middle" x="813.5" y="-125" font-family="Helvetica,sans-Serif" font-size="10.00">cassert</text>
</a>
</g>
</g>
<!-- Node15&#45;&gt;Node16 -->
<g id="edge17" class="edge">
<title>Node15&#45;&gt;Node16</title>
<path fill="none" stroke="midnightblue" d="M880.12,-184.73C867.65,-174.21 846.53,-156.38 831.41,-143.62"/>
<polygon fill="midnightblue" stroke="midnightblue" points="833.62,-140.9 823.72,-137.13 829.1,-146.25 833.62,-140.9"/>
</g>
<!-- Node15&#45;&gt;Node17 -->
<g id="edge18" class="edge">
<title>Node15&#45;&gt;Node17</title>
<path fill="none" stroke="midnightblue" d="M871.11,-184.87C846.02,-173.7 802.11,-154.15 773.16,-141.26"/>
<polygon fill="midnightblue" stroke="midnightblue" points="774.53,-138.04 763.97,-137.17 771.68,-144.43 774.53,-138.04"/>
</g>
<!-- Node18 -->
<g id="node18" class="node">
<title>Node18</title>
<g id="a_node18"><a xlink:title=" ">
<polygon fill="white" stroke="#bfbfbf" points="858,-118 858,-137 923,-137 923,-118 858,-118"/>
<text text-anchor="middle" x="890.5" y="-125" font-family="Helvetica,sans-Serif" font-size="10.00">functional</text>
</a>
</g>
</g>
<!-- Node15&#45;&gt;Node18 -->
<g id="edge19" class="edge">
<title>Node15&#45;&gt;Node18</title>
<path fill="none" stroke="midnightblue" d="M890.5,-184.73C890.5,-175.18 890.5,-159.62 890.5,-147.28"/>
<polygon fill="midnightblue" stroke="midnightblue" points="894,-147.13 890.5,-137.13 887,-147.13 894,-147.13"/>
</g>
<!-- Node19 -->
<g id="node19" class="node">
<title>Node19</title>
<g id="a_node19"><a xlink:title=" ">
<polygon fill="white" stroke="#bfbfbf" points="941.5,-118 941.5,-137 999.5,-137 999.5,-118 941.5,-118"/>
<text text-anchor="middle" x="970.5" y="-125" font-family="Helvetica,sans-Serif" font-size="10.00">memory</text>
</a>
</g>
</g>
<!-- Node15&#45;&gt;Node19 -->
<g id="edge20" class="edge">
<title>Node15&#45;&gt;Node19</title>
<path fill="none" stroke="midnightblue" d="M901.29,-184.73C914.24,-174.21 936.19,-156.38 951.89,-143.62"/>
<polygon fill="midnightblue" stroke="midnightblue" points="954.33,-146.15 959.88,-137.13 949.91,-140.72 954.33,-146.15"/>
</g>
<!-- Node20 -->
<g id="node20" class="node">
<title>Node20</title>
<g id="a_node20"><a xlink:title=" ">
<polygon fill="white" stroke="#bfbfbf" points="1018,-118 1018,-137 1087,-137 1087,-118 1018,-118"/>
<text text-anchor="middle" x="1052.5" y="-125" font-family="Helvetica,sans-Serif" font-size="10.00">type_traits</text>
</a>
</g>
</g>
<!-- Node15&#45;&gt;Node20 -->
<g id="edge21" class="edge">
<title>Node15&#45;&gt;Node20</title>
<path fill="none" stroke="midnightblue" d="M912.01,-184.87C940.17,-173.57 989.7,-153.7 1021.8,-140.82"/>
<polygon fill="midnightblue" stroke="midnightblue" points="1023.18,-144.04 1031.16,-137.06 1020.57,-137.54 1023.18,-144.04"/>
</g>
<!-- Node22 -->
<g id="node22" class="node">
<title>Node22</title>
<g id="a_node22"><a xlink:title=" ">
<polygon fill="white" stroke="#bfbfbf" points="1226.5,-118 1226.5,-137 1274.5,-137 1274.5,-118 1226.5,-118"/>
<text text-anchor="middle" x="1250.5" y="-125" font-family="Helvetica,sans-Serif" font-size="10.00">iosfwd</text>
</a>
</g>
</g>
<!-- Node21&#45;&gt;Node22 -->
<g id="edge23" class="edge">
<title>Node21&#45;&gt;Node22</title>
<path fill="none" stroke="midnightblue" d="M1250.5,-184.73C1250.5,-175.18 1250.5,-159.62 1250.5,-147.28"/>
<polygon fill="midnightblue" stroke="midnightblue" points="1254,-147.13 1250.5,-137.13 1247,-147.13 1254,-147.13"/>
</g>
</g>
</svg>
