<?xml version="1.0" encoding="UTF-8" standalone="no"?>
<!DOCTYPE svg PUBLIC "-//W3C//DTD SVG 1.1//EN"
 "http://www.w3.org/Graphics/SVG/1.1/DTD/svg11.dtd">
<!-- Generated by graphviz version 2.43.0 (0)
 -->
<!-- Title: calc_ψ_ŷ Pages: 1 -->
<svg width="850pt" height="461pt"
 viewBox="0.00 0.00 850.00 461.23" xmlns="http://www.w3.org/2000/svg" xmlns:xlink="http://www.w3.org/1999/xlink">
<g id="graph0" class="graph" transform="scale(1 1) rotate(0) translate(4 457.23)">
<title>calc_ψ_ŷ</title>
<polygon fill="white" stroke="transparent" points="-4,4 -4,-457.23 846,-457.23 846,4 -4,4"/>
<!-- Node1 -->
<g id="node1" class="node">
<title>Node1</title>
<g id="a_node1"><a xlink:title="Calculate both ψ(x) and the vector ŷ that can later be used to compute ∇ψ.">
<polygon fill="#bfbfbf" stroke="black" points="783,-164.23 783,-183.23 842,-183.23 842,-164.23 783,-164.23"/>
<text text-anchor="middle" x="812.5" y="-171.23" font-family="Helvetica,sans-Serif" font-size="10.00">calc_ψ_ŷ</text>
</a>
</g>
</g>
<!-- Node2 -->
<g id="node2" class="node">
<title>Node2</title>
<g id="a_node2"><a xlink:href="namespacepa_1_1detail.html#aa986daa1d5f0dfdbc75c143d2aae2919" target="_top" xlink:title="Calculate both ψ(x) and its gradient ∇ψ(x).">
<polygon fill="white" stroke="black" points="660,-240.23 660,-259.23 747,-259.23 747,-240.23 660,-240.23"/>
<text text-anchor="middle" x="703.5" y="-247.23" font-family="Helvetica,sans-Serif" font-size="10.00">calc_ψ_grad_ψ</text>
</a>
</g>
</g>
<!-- Node1&#45;&gt;Node2 -->
<g id="edge1" class="edge">
<title>Node1&#45;&gt;Node2</title>
<path fill="none" stroke="midnightblue" d="M789.73,-189.19C768.21,-204.48 735.97,-227.38 717.94,-240.18"/>
<polygon fill="midnightblue" stroke="midnightblue" points="791.82,-192 797.95,-183.36 787.77,-186.29 791.82,-192"/>
</g>
<!-- Node4 -->
<g id="node4" class="node">
<title>Node4</title>
<g id="a_node4"><a xlink:href="classpa_1_1SecondOrderPANOCSolver.html#acb04b3f19dafad9b4e7e7c1c19018d19" target="_top" xlink:title=" ">
<polygon fill="white" stroke="black" points="259,-422.73 259,-452.73 420,-452.73 420,-422.73 259,-422.73"/>
<text text-anchor="start" x="267" y="-440.73" font-family="Helvetica,sans-Serif" font-size="10.00">pa::SecondOrderPANOCSolver</text>
<text text-anchor="middle" x="339.5" y="-429.73" font-family="Helvetica,sans-Serif" font-size="10.00">::operator()</text>
</a>
</g>
</g>
<!-- Node1&#45;&gt;Node4 -->
<g id="edge25" class="edge">
<title>Node1&#45;&gt;Node4</title>
<path fill="none" stroke="midnightblue" d="M809.36,-193.47C804.44,-230.37 789.3,-310.68 747,-361.73 706.87,-410.16 684.63,-415 624,-431.73 557.09,-450.2 477.88,-450.14 420.22,-446.37"/>
<polygon fill="midnightblue" stroke="midnightblue" points="812.84,-193.84 810.58,-183.49 805.89,-192.99 812.84,-193.84"/>
</g>
<!-- Node5 -->
<g id="node5" class="node">
<title>Node5</title>
<g id="a_node5"><a xlink:href="classpa_1_1StructuredPANOCLBFGSSolver.html#ade95d8a7a1892d4087d6fffc958cde6e" target="_top" xlink:title=" ">
<polygon fill="white" stroke="black" points="249,-370.73 249,-400.73 430,-400.73 430,-370.73 249,-370.73"/>
<text text-anchor="start" x="257" y="-388.73" font-family="Helvetica,sans-Serif" font-size="10.00">pa::StructuredPANOCLBFGSSolver</text>
<text text-anchor="middle" x="339.5" y="-377.73" font-family="Helvetica,sans-Serif" font-size="10.00">::operator()</text>
</a>
</g>
</g>
<!-- Node1&#45;&gt;Node5 -->
<g id="edge26" class="edge">
<title>Node1&#45;&gt;Node5</title>
<path fill="none" stroke="midnightblue" d="M804.36,-192.99C784.79,-242.34 724.91,-372.19 624,-410.73 542.99,-441.67 439.82,-418.44 382.94,-400.77"/>
<polygon fill="midnightblue" stroke="midnightblue" points="807.69,-194.08 808.02,-183.49 801.16,-191.56 807.69,-194.08"/>
</g>
<!-- Node6 -->
<g id="node6" class="node">
<title>Node6</title>
<g id="a_node6"><a xlink:href="classpa_1_1GAAPGASolver.html#a570ec001ea8eee359be8a1b90b782cfb" target="_top" xlink:title=" ">
<polygon fill="white" stroke="black" points="259,-240.23 259,-259.23 420,-259.23 420,-240.23 259,-240.23"/>
<text text-anchor="middle" x="339.5" y="-247.23" font-family="Helvetica,sans-Serif" font-size="10.00">pa::GAAPGASolver::operator()</text>
</a>
</g>
</g>
<!-- Node1&#45;&gt;Node6 -->
<g id="edge29" class="edge">
<title>Node1&#45;&gt;Node6</title>
<path fill="none" stroke="midnightblue" d="M804.13,-154.54C794.63,-132.81 775.8,-98.52 747,-83.73 691.45,-55.2 515.13,-45.18 466,-83.73 413.08,-125.25 478.29,-183.91 430,-230.73 426.12,-234.49 421.7,-237.59 416.94,-240.13"/>
<polygon fill="midnightblue" stroke="midnightblue" points="801.01,-156.14 808.05,-164.05 807.48,-153.47 801.01,-156.14"/>
</g>
<!-- Node7 -->
<g id="node7" class="node">
<title>Node7</title>
<g id="a_node7"><a xlink:href="classpa_1_1PGASolver.html#af516b794e244432023aea7ba3cd0d1d8" target="_top" xlink:title=" ">
<polygon fill="white" stroke="black" points="269.5,-279.23 269.5,-298.23 409.5,-298.23 409.5,-279.23 269.5,-279.23"/>
<text text-anchor="middle" x="339.5" y="-286.23" font-family="Helvetica,sans-Serif" font-size="10.00">pa::PGASolver::operator()</text>
</a>
</g>
</g>
<!-- Node1&#45;&gt;Node7 -->
<g id="edge30" class="edge">
<title>Node1&#45;&gt;Node7</title>
<path fill="none" stroke="midnightblue" d="M787.49,-158.66C726.55,-122.51 563.77,-39.41 466,-116.73 411.55,-159.8 479.4,-219.95 430,-268.73 424.22,-274.44 417.19,-278.66 409.64,-281.77"/>
<polygon fill="midnightblue" stroke="midnightblue" points="786.01,-161.85 796.37,-164.03 789.63,-155.86 786.01,-161.85"/>
</g>
<!-- Node11 -->
<g id="node11" class="node">
<title>Node11</title>
<g id="a_node11"><a xlink:href="classpa_1_1PANOCSolver.html#aaa9758a40bd362331202fb232b4bb7ae" target="_top" xlink:title=" ">
<polygon fill="white" stroke="black" points="262.5,-202.23 262.5,-221.23 416.5,-221.23 416.5,-202.23 262.5,-202.23"/>
<text text-anchor="middle" x="339.5" y="-209.23" font-family="Helvetica,sans-Serif" font-size="10.00">pa::PANOCSolver::operator()</text>
</a>
</g>
</g>
<!-- Node1&#45;&gt;Node11 -->
<g id="edge24" class="edge">
<title>Node1&#45;&gt;Node11</title>
<path fill="none" stroke="midnightblue" d="M808.18,-154.11C802.01,-124.56 785.7,-69.57 747,-45.73 640.66,19.76 577.81,9.91 466,-45.73 397.1,-80.01 355.97,-172.17 344.1,-202.16"/>
<polygon fill="midnightblue" stroke="midnightblue" points="804.77,-154.9 810.07,-164.07 811.65,-153.59 804.77,-154.9"/>
</g>
<!-- Node12 -->
<g id="node12" class="node">
<title>Node12</title>
<g id="a_node12"><a xlink:href="classpa_1_1LBFGSSolver.html#a8540540028b02dfe8b7e3ec0c49c07dd" target="_top" xlink:title=" ">
<polygon fill="white" stroke="black" points="469,-164.23 469,-183.23 621,-183.23 621,-164.23 469,-164.23"/>
<text text-anchor="middle" x="545" y="-171.23" font-family="Helvetica,sans-Serif" font-size="10.00">pa::LBFGSSolver::operator()</text>
</a>
</g>
</g>
<!-- Node1&#45;&gt;Node12 -->
<g id="edge27" class="edge">
<title>Node1&#45;&gt;Node12</title>
<path fill="none" stroke="midnightblue" d="M772.8,-173.73C733.2,-173.73 670.67,-173.73 621.28,-173.73"/>
<polygon fill="midnightblue" stroke="midnightblue" points="772.83,-177.23 782.83,-173.73 772.83,-170.23 772.83,-177.23"/>
</g>
<!-- Node13 -->
<g id="node13" class="node">
<title>Node13</title>
<g id="a_node13"><a xlink:href="classpa_1_1LBFGSBSolver.html#a8540540028b02dfe8b7e3ec0c49c07dd" target="_top" xlink:title=" ">
<polygon fill="white" stroke="black" points="466,-126.23 466,-145.23 624,-145.23 624,-126.23 466,-126.23"/>
<text text-anchor="middle" x="545" y="-133.23" font-family="Helvetica,sans-Serif" font-size="10.00">pa::LBFGSBSolver::operator()</text>
</a>
</g>
</g>
<!-- Node1&#45;&gt;Node13 -->
<g id="edge28" class="edge">
<title>Node1&#45;&gt;Node13</title>
<path fill="none" stroke="midnightblue" d="M772.74,-168.18C730.73,-162.17 662.94,-152.47 612.41,-145.24"/>
<polygon fill="midnightblue" stroke="midnightblue" points="772.44,-171.68 782.83,-169.63 773.43,-164.75 772.44,-171.68"/>
</g>
<!-- Node14 -->
<g id="node14" class="node">
<title>Node14</title>
<g id="a_node14"><a xlink:href="namespacepa_1_1detail.html#ac7d4fa127500b38a8cec94984c4f598d" target="_top" xlink:title="Increase the estimate of the Lipschitz constant of the objective gradient and decrease the step size ...">
<polygon fill="white" stroke="black" points="497.5,-316.23 497.5,-335.23 592.5,-335.23 592.5,-316.23 497.5,-316.23"/>
<text text-anchor="middle" x="545" y="-323.23" font-family="Helvetica,sans-Serif" font-size="10.00">descent_lemma</text>
</a>
</g>
</g>
<!-- Node1&#45;&gt;Node14 -->
<g id="edge17" class="edge">
<title>Node1&#45;&gt;Node14</title>
<path fill="none" stroke="midnightblue" d="M803.56,-192.61C793.52,-214.2 774.21,-249.09 747,-268.73 700.98,-301.96 636.11,-315.86 592.63,-321.65"/>
<polygon fill="midnightblue" stroke="midnightblue" points="806.76,-194.03 807.63,-183.47 800.37,-191.18 806.76,-194.03"/>
</g>
<!-- Node3 -->
<g id="node3" class="node">
<title>Node3</title>
<g id="a_node3"><a xlink:href="namespacepa_1_1detail.html#a92963cadf7f44fcf9f3ab6bddff08796" target="_top" xlink:title="Estimate the Lipschitz constant of the gradient &#160;using finite differences.">
<polygon fill="white" stroke="black" points="475.5,-354.23 475.5,-373.23 614.5,-373.23 614.5,-354.23 475.5,-354.23"/>
<text text-anchor="middle" x="545" y="-361.23" font-family="Helvetica,sans-Serif" font-size="10.00">initial_lipschitz_estimate</text>
</a>
</g>
</g>
<!-- Node2&#45;&gt;Node3 -->
<g id="edge2" class="edge">
<title>Node2&#45;&gt;Node3</title>
<path fill="none" stroke="midnightblue" d="M692.3,-268.17C679.32,-289.88 654.82,-325.43 624,-344.73 617.86,-348.58 610.99,-351.65 603.95,-354.09"/>
<polygon fill="midnightblue" stroke="midnightblue" points="695.47,-269.68 697.44,-259.27 689.41,-266.18 695.47,-269.68"/>
</g>
<!-- Node2&#45;&gt;Node4 -->
<g id="edge11" class="edge">
<title>Node2&#45;&gt;Node4</title>
<path fill="none" stroke="midnightblue" d="M699.26,-269.39C692.36,-304.39 672.66,-377.01 624,-410.73 564.87,-451.71 481.38,-454.83 420.31,-449.89"/>
<polygon fill="midnightblue" stroke="midnightblue" points="702.73,-269.91 701.08,-259.44 695.84,-268.65 702.73,-269.91"/>
</g>
<!-- Node2&#45;&gt;Node5 -->
<g id="edge12" class="edge">
<title>Node2&#45;&gt;Node5</title>
<path fill="none" stroke="midnightblue" d="M697.55,-269.34C688.66,-299.91 666.8,-358 624,-382.73 554.64,-422.82 458.89,-413.15 398.34,-400.78"/>
<polygon fill="midnightblue" stroke="midnightblue" points="701,-270 700.25,-259.43 694.25,-268.16 701,-270"/>
</g>
<!-- Node2&#45;&gt;Node6 -->
<g id="edge15" class="edge">
<title>Node2&#45;&gt;Node6</title>
<path fill="none" stroke="midnightblue" d="M649.85,-249.73C589.52,-249.73 490.01,-249.73 420.18,-249.73"/>
<polygon fill="midnightblue" stroke="midnightblue" points="649.91,-253.23 659.91,-249.73 649.91,-246.23 649.91,-253.23"/>
</g>
<!-- Node2&#45;&gt;Node7 -->
<g id="edge16" class="edge">
<title>Node2&#45;&gt;Node7</title>
<path fill="none" stroke="midnightblue" d="M649.86,-259.78C641.24,-261.24 632.38,-262.62 624,-263.73 551.14,-273.42 467.24,-280.29 409.72,-284.35"/>
<polygon fill="midnightblue" stroke="midnightblue" points="650.58,-263.21 659.83,-258.05 649.38,-256.31 650.58,-263.21"/>
</g>
<!-- Node2&#45;&gt;Node11 -->
<g id="edge10" class="edge">
<title>Node2&#45;&gt;Node11</title>
<path fill="none" stroke="midnightblue" d="M649.68,-244.19C588.32,-237.75 486.58,-227.07 416.68,-219.73"/>
<polygon fill="midnightblue" stroke="midnightblue" points="649.6,-247.7 659.91,-245.26 650.33,-240.74 649.6,-247.7"/>
</g>
<!-- Node2&#45;&gt;Node12 -->
<g id="edge13" class="edge">
<title>Node2&#45;&gt;Node12</title>
<path fill="none" stroke="midnightblue" d="M682.18,-233.91C666.88,-222.59 645,-207.66 624,-197.73 611.7,-191.92 597.66,-187.09 584.91,-183.32"/>
<polygon fill="midnightblue" stroke="midnightblue" points="680.29,-236.87 690.38,-240.09 684.5,-231.28 680.29,-236.87"/>
</g>
<!-- Node2&#45;&gt;Node13 -->
<g id="edge14" class="edge">
<title>Node2&#45;&gt;Node13</title>
<path fill="none" stroke="midnightblue" d="M692.3,-231.3C679.32,-209.58 654.82,-174.04 624,-154.73 617.86,-150.88 610.99,-147.82 603.95,-145.37"/>
<polygon fill="midnightblue" stroke="midnightblue" points="689.41,-233.28 697.44,-240.19 695.47,-229.78 689.41,-233.28"/>
</g>
<!-- Node3&#45;&gt;Node4 -->
<g id="edge3" class="edge">
<title>Node3&#45;&gt;Node4</title>
<path fill="none" stroke="midnightblue" d="M512.93,-377.51C490.18,-387.36 458.46,-400.6 430,-410.73 418.38,-414.87 405.77,-418.93 393.78,-422.59"/>
<polygon fill="midnightblue" stroke="midnightblue" points="514.62,-380.59 522.39,-373.38 511.83,-374.17 514.62,-380.59"/>
</g>
<!-- Node3&#45;&gt;Node5 -->
<g id="edge4" class="edge">
<title>Node3&#45;&gt;Node5</title>
<path fill="none" stroke="midnightblue" d="M465.37,-372.23C453.82,-373.48 441.86,-374.77 430.11,-376.04"/>
<polygon fill="midnightblue" stroke="midnightblue" points="465.82,-375.7 475.39,-371.15 465.07,-368.74 465.82,-375.7"/>
</g>
<!-- Node3&#45;&gt;Node6 -->
<g id="edge5" class="edge">
<title>Node3&#45;&gt;Node6</title>
<path fill="none" stroke="midnightblue" d="M472.6,-349.37C470.3,-347.96 468.08,-346.42 466,-344.73 437.28,-321.45 458.95,-292.74 430,-269.73 424.64,-265.47 418.56,-262.08 412.14,-259.38"/>
<polygon fill="midnightblue" stroke="midnightblue" points="471.43,-352.7 481.92,-354.17 474.63,-346.48 471.43,-352.7"/>
</g>
<!-- Node3&#45;&gt;Node7 -->
<g id="edge6" class="edge">
<title>Node3&#45;&gt;Node7</title>
<path fill="none" stroke="midnightblue" d="M481.88,-351.06C476.41,-349.21 471.04,-347.11 466,-344.73 447.92,-336.19 447.75,-326.94 430,-317.73 414.2,-309.54 395.62,-303.06 379.51,-298.33"/>
<polygon fill="midnightblue" stroke="midnightblue" points="481.21,-354.52 491.8,-354.13 483.28,-347.83 481.21,-354.52"/>
</g>
<!-- Node8 -->
<g id="node8" class="node">
<title>Node8</title>
<g id="a_node8"><a xlink:href="namespacepa.html#a2b97bf67604c439eca0a540664930d61" target="_top" xlink:title=" ">
<polygon fill="white" stroke="black" points="294,-327.23 294,-346.23 385,-346.23 385,-327.23 294,-327.23"/>
<text text-anchor="middle" x="339.5" y="-334.23" font-family="Helvetica,sans-Serif" font-size="10.00">pa::panoc_impl</text>
</a>
</g>
</g>
<!-- Node3&#45;&gt;Node8 -->
<g id="edge7" class="edge">
<title>Node3&#45;&gt;Node8</title>
<path fill="none" stroke="midnightblue" d="M465.12,-353.27C438.01,-349.67 408.61,-345.77 385.17,-342.66"/>
<polygon fill="midnightblue" stroke="midnightblue" points="465.01,-356.78 475.39,-354.63 465.94,-349.84 465.01,-356.78"/>
</g>
<!-- Node9 -->
<g id="node9" class="node">
<title>Node9</title>
<g id="a_node9"><a xlink:href="namespacepa.html#adf74e7674514afed3ae1c356ffcb9e45" target="_top" xlink:title=" ">
<polygon fill="white" stroke="black" points="149,-327.23 149,-346.23 213,-346.23 213,-327.23 149,-327.23"/>
<text text-anchor="middle" x="181" y="-334.23" font-family="Helvetica,sans-Serif" font-size="10.00">pa::panoc</text>
</a>
</g>
</g>
<!-- Node8&#45;&gt;Node9 -->
<g id="edge8" class="edge">
<title>Node8&#45;&gt;Node9</title>
<path fill="none" stroke="midnightblue" d="M283.47,-336.73C260.01,-336.73 233.49,-336.73 213.44,-336.73"/>
<polygon fill="midnightblue" stroke="midnightblue" points="283.65,-340.23 293.65,-336.73 283.65,-333.23 283.65,-340.23"/>
</g>
<!-- Node10 -->
<g id="node10" class="node">
<title>Node10</title>
<g id="a_node10"><a xlink:href="alpaqa_8cpp.html#a52c00cccef0976f125d4a27f9906c36b" target="_top" xlink:title=" ">
<polygon fill="white" stroke="black" points="0,-327.23 0,-346.23 113,-346.23 113,-327.23 0,-327.23"/>
<text text-anchor="middle" x="56.5" y="-334.23" font-family="Helvetica,sans-Serif" font-size="10.00">PYBIND11_MODULE</text>
</a>
</g>
</g>
<!-- Node9&#45;&gt;Node10 -->
<g id="edge9" class="edge">
<title>Node9&#45;&gt;Node10</title>
<path fill="none" stroke="midnightblue" d="M138.52,-336.73C130.45,-336.73 121.88,-336.73 113.43,-336.73"/>
<polygon fill="midnightblue" stroke="midnightblue" points="138.77,-340.23 148.77,-336.73 138.77,-333.23 138.77,-340.23"/>
</g>
<!-- Node14&#45;&gt;Node4 -->
<g id="edge19" class="edge">
<title>Node14&#45;&gt;Node4</title>
<path fill="none" stroke="midnightblue" d="M487.82,-333.37C480,-336.1 472.44,-339.78 466,-344.73 439.51,-365.09 455.93,-389.66 430,-410.73 424.21,-415.44 417.6,-419.33 410.67,-422.54"/>
<polygon fill="midnightblue" stroke="midnightblue" points="488.87,-336.71 497.44,-330.48 486.86,-330 488.87,-336.71"/>
</g>
<!-- Node14&#45;&gt;Node5 -->
<g id="edge20" class="edge">
<title>Node14&#45;&gt;Node5</title>
<path fill="none" stroke="midnightblue" d="M492.33,-337.72C483.52,-339.94 474.47,-342.32 466,-344.73 450.62,-349.11 414.74,-360.89 385.26,-370.71"/>
<polygon fill="midnightblue" stroke="midnightblue" points="493.28,-341.1 502.15,-335.3 491.6,-334.3 493.28,-341.1"/>
</g>
<!-- Node14&#45;&gt;Node6 -->
<g id="edge21" class="edge">
<title>Node14&#45;&gt;Node6</title>
<path fill="none" stroke="midnightblue" d="M518.61,-311.08C495.99,-298.57 461.67,-280.87 430,-269.73 418.28,-265.61 405.4,-262.14 393.15,-259.32"/>
<polygon fill="midnightblue" stroke="midnightblue" points="517.11,-314.25 527.54,-316.09 520.54,-308.15 517.11,-314.25"/>
</g>
<!-- Node14&#45;&gt;Node7 -->
<g id="edge22" class="edge">
<title>Node14&#45;&gt;Node7</title>
<path fill="none" stroke="midnightblue" d="M487.17,-315.4C457.68,-310.04 421.9,-303.53 393.06,-298.29"/>
<polygon fill="midnightblue" stroke="midnightblue" points="486.85,-318.9 497.31,-317.24 488.1,-312.01 486.85,-318.9"/>
</g>
<!-- Node14&#45;&gt;Node8 -->
<g id="edge23" class="edge">
<title>Node14&#45;&gt;Node8</title>
<path fill="none" stroke="midnightblue" d="M487.14,-328.81C454.92,-330.55 415.2,-332.69 385.22,-334.31"/>
<polygon fill="midnightblue" stroke="midnightblue" points="487.52,-332.29 497.31,-328.26 487.14,-325.3 487.52,-332.29"/>
</g>
<!-- Node14&#45;&gt;Node11 -->
<g id="edge18" class="edge">
<title>Node14&#45;&gt;Node11</title>
<path fill="none" stroke="midnightblue" d="M528.75,-308.68C508.41,-287.07 470.28,-250.29 430,-230.73 422,-226.85 413.21,-223.75 404.37,-221.29"/>
<polygon fill="midnightblue" stroke="midnightblue" points="526.28,-311.18 535.63,-316.16 531.43,-306.43 526.28,-311.18"/>
</g>
</g>
</svg>
