<?xml version="1.0" encoding="UTF-8" standalone="no"?>
<!DOCTYPE svg PUBLIC "-//W3C//DTD SVG 1.1//EN"
 "http://www.w3.org/Graphics/SVG/1.1/DTD/svg11.dtd">
<!-- Generated by graphviz version 2.43.0 (0)
 -->
<!-- Title: project Pages: 1 -->
<svg width="1222pt" height="978pt"
 viewBox="0.00 0.00 1222.00 978.00" xmlns="http://www.w3.org/2000/svg" xmlns:xlink="http://www.w3.org/1999/xlink">
<g id="graph0" class="graph" transform="scale(1 1) rotate(0) translate(4 974)">
<title>project</title>
<polygon fill="white" stroke="transparent" points="-4,4 -4,-974 1218,-974 1218,4 -4,4"/>
<!-- Node1 -->
<g id="node1" class="node">
<title>Node1</title>
<g id="a_node1"><a xlink:title="Project a vector onto a box.">
<polygon fill="#bfbfbf" stroke="black" points="1164,-106 1164,-125 1214,-125 1214,-106 1164,-106"/>
<text text-anchor="middle" x="1189" y="-113" font-family="Helvetica,sans-Serif" font-size="10.00">project</text>
</a>
</g>
</g>
<!-- Node2 -->
<g id="node2" class="node">
<title>Node2</title>
<g id="a_node2"><a xlink:href="namespacepa_1_1detail.html#a22e222a3f2d7f01ceee380154e140ea9" target="_top" xlink:title="Calculate the error between ẑ and g(x).">
<polygon fill="white" stroke="black" points="647,-353 647,-372 764,-372 764,-353 647,-353"/>
<text text-anchor="middle" x="705.5" y="-360" font-family="Helvetica,sans-Serif" font-size="10.00">pa::detail::calc_err_z</text>
</a>
</g>
</g>
<!-- Node1&#45;&gt;Node2 -->
<g id="edge1" class="edge">
<title>Node1&#45;&gt;Node2</title>
<path fill="none" stroke="midnightblue" d="M1160.29,-129.71C1072.01,-175 798.81,-315.15 725.02,-353"/>
<polygon fill="midnightblue" stroke="midnightblue" points="1162.12,-132.71 1169.42,-125.03 1158.92,-126.48 1162.12,-132.71"/>
</g>
<!-- Node8 -->
<g id="node8" class="node">
<title>Node8</title>
<g id="a_node8"><a xlink:href="classpa_1_1GAAPGASolver.html#a570ec001ea8eee359be8a1b90b782cfb" target="_top" xlink:title=" ">
<polygon fill="white" stroke="black" points="241,-524 241,-543 402,-543 402,-524 241,-524"/>
<text text-anchor="middle" x="321.5" y="-531" font-family="Helvetica,sans-Serif" font-size="10.00">pa::GAAPGASolver::operator()</text>
</a>
</g>
</g>
<!-- Node1&#45;&gt;Node8 -->
<g id="edge12" class="edge">
<title>Node1&#45;&gt;Node8</title>
<path fill="none" stroke="midnightblue" d="M1153.5,-115.5C1093.94,-115.5 967.96,-115.5 861.5,-115.5 861.5,-115.5 861.5,-115.5 704.5,-115.5 586.45,-115.5 528.8,-98.43 448,-184.5 392.76,-243.35 438.98,-286.43 412,-362.5 388.92,-427.55 345.03,-498.64 328.77,-523.92"/>
<polygon fill="midnightblue" stroke="midnightblue" points="1153.83,-119 1163.83,-115.5 1153.83,-112 1153.83,-119"/>
</g>
<!-- Node10 -->
<g id="node10" class="node">
<title>Node10</title>
<g id="a_node10"><a xlink:href="namespacepa.html#a6c3a6510a3060f69c9f4720bc1df300d" target="_top" xlink:title="Get the distance squared between the given vector and its projection in the Σ norm.">
<polygon fill="white" stroke="black" points="1000.5,-68 1000.5,-87 1079.5,-87 1079.5,-68 1000.5,-68"/>
<text text-anchor="middle" x="1040" y="-75" font-family="Helvetica,sans-Serif" font-size="10.00">dist_squared</text>
</a>
</g>
</g>
<!-- Node1&#45;&gt;Node10 -->
<g id="edge9" class="edge">
<title>Node1&#45;&gt;Node10</title>
<path fill="none" stroke="midnightblue" d="M1153.83,-106.67C1131.11,-100.79 1101.28,-93.08 1077.99,-87.06"/>
<polygon fill="midnightblue" stroke="midnightblue" points="1153.17,-110.11 1163.73,-109.23 1154.92,-103.33 1153.17,-110.11"/>
</g>
<!-- Node11 -->
<g id="node11" class="node">
<title>Node11</title>
<g id="a_node11"><a xlink:href="namespacealpaqa_1_1casadi__problem.html#a7c94a03dab64e12a09f384463c5bb63a" target="_top" xlink:title=" ">
<polygon fill="white" stroke="black" points="952,-0.5 952,-30.5 1128,-30.5 1128,-0.5 952,-0.5"/>
<text text-anchor="start" x="960" y="-18.5" font-family="Helvetica,sans-Serif" font-size="10.00">alpaqa.casadi_problem.generate</text>
<text text-anchor="middle" x="1040" y="-7.5" font-family="Helvetica,sans-Serif" font-size="10.00">_and_compile_casadi_problem</text>
</a>
</g>
</g>
<!-- Node1&#45;&gt;Node11 -->
<g id="edge10" class="edge">
<title>Node1&#45;&gt;Node11</title>
<path fill="none" stroke="midnightblue" d="M1172.3,-98.02C1160.83,-85.92 1144.46,-69.99 1128,-58.5 1112.39,-47.6 1093.61,-37.95 1077.5,-30.56"/>
<polygon fill="midnightblue" stroke="midnightblue" points="1170.04,-100.73 1179.4,-105.69 1175.18,-95.97 1170.04,-100.73"/>
</g>
<!-- Node12 -->
<g id="node12" class="node">
<title>Node12</title>
<g id="a_node12"><a xlink:href="namespacepa.html#aee505a26e46aa4c0ce09d0fed72f0dac" target="_top" xlink:title="Get the difference between the given vector and its projection.">
<polygon fill="white" stroke="black" points="980.5,-498 980.5,-517 1099.5,-517 1099.5,-498 980.5,-498"/>
<text text-anchor="middle" x="1040" y="-505" font-family="Helvetica,sans-Serif" font-size="10.00">projecting_difference</text>
</a>
</g>
</g>
<!-- Node1&#45;&gt;Node12 -->
<g id="edge13" class="edge">
<title>Node1&#45;&gt;Node12</title>
<path fill="none" stroke="midnightblue" d="M1180.85,-134.57C1154.58,-204.62 1063.95,-446.29 1044.64,-497.8"/>
<polygon fill="midnightblue" stroke="midnightblue" points="1184.13,-135.78 1184.37,-125.19 1177.58,-133.32 1184.13,-135.78"/>
</g>
<!-- Node3 -->
<g id="node3" class="node">
<title>Node3</title>
<g id="a_node3"><a xlink:href="classpa_1_1PANOCSolver.html#aaa9758a40bd362331202fb232b4bb7ae" target="_top" xlink:title=" ">
<polygon fill="white" stroke="black" points="244.5,-334 244.5,-353 398.5,-353 398.5,-334 244.5,-334"/>
<text text-anchor="middle" x="321.5" y="-341" font-family="Helvetica,sans-Serif" font-size="10.00">pa::PANOCSolver::operator()</text>
</a>
</g>
</g>
<!-- Node2&#45;&gt;Node3 -->
<g id="edge2" class="edge">
<title>Node2&#45;&gt;Node3</title>
<path fill="none" stroke="midnightblue" d="M688.19,-345.66C670.03,-328.24 638.88,-302.11 606,-291.5 539.17,-269.93 516.87,-277.8 448,-291.5 407.29,-299.6 363.24,-321.14 339.68,-333.81"/>
<polygon fill="midnightblue" stroke="midnightblue" points="686.01,-348.43 695.58,-352.97 690.93,-343.45 686.01,-348.43"/>
</g>
<!-- Node4 -->
<g id="node4" class="node">
<title>Node4</title>
<g id="a_node4"><a xlink:href="classpa_1_1SecondOrderPANOCSolver.html#acb04b3f19dafad9b4e7e7c1c19018d19" target="_top" xlink:title=" ">
<polygon fill="white" stroke="black" points="241,-660.5 241,-690.5 402,-690.5 402,-660.5 241,-660.5"/>
<text text-anchor="start" x="249" y="-678.5" font-family="Helvetica,sans-Serif" font-size="10.00">pa::SecondOrderPANOCSolver</text>
<text text-anchor="middle" x="321.5" y="-667.5" font-family="Helvetica,sans-Serif" font-size="10.00">::operator()</text>
</a>
</g>
</g>
<!-- Node2&#45;&gt;Node4 -->
<g id="edge3" class="edge">
<title>Node2&#45;&gt;Node4</title>
<path fill="none" stroke="midnightblue" d="M636.71,-368.4C565.28,-375.26 461.27,-387.33 448,-400.5 374.25,-473.7 473.57,-547.8 412,-631.5 402.46,-644.47 388.04,-653.82 373.54,-660.48"/>
<polygon fill="midnightblue" stroke="midnightblue" points="637.37,-371.85 646.99,-367.42 636.71,-364.88 637.37,-371.85"/>
</g>
<!-- Node5 -->
<g id="node5" class="node">
<title>Node5</title>
<g id="a_node5"><a xlink:href="classpa_1_1StructuredPANOCLBFGSSolver.html#ade95d8a7a1892d4087d6fffc958cde6e" target="_top" xlink:title=" ">
<polygon fill="white" stroke="black" points="231,-819.5 231,-849.5 412,-849.5 412,-819.5 231,-819.5"/>
<text text-anchor="start" x="239" y="-837.5" font-family="Helvetica,sans-Serif" font-size="10.00">pa::StructuredPANOCLBFGSSolver</text>
<text text-anchor="middle" x="321.5" y="-826.5" font-family="Helvetica,sans-Serif" font-size="10.00">::operator()</text>
</a>
</g>
</g>
<!-- Node2&#45;&gt;Node5 -->
<g id="edge4" class="edge">
<title>Node2&#45;&gt;Node5</title>
<path fill="none" stroke="midnightblue" d="M694.42,-381.18C680.24,-408.36 654.73,-460.78 642,-508.5 624.3,-574.87 655.77,-768.15 606,-815.5 578.93,-841.26 484.61,-843.18 412.12,-840.46"/>
<polygon fill="midnightblue" stroke="midnightblue" points="697.66,-382.54 699.25,-372.06 691.47,-379.26 697.66,-382.54"/>
</g>
<!-- Node6 -->
<g id="node6" class="node">
<title>Node6</title>
<g id="a_node6"><a xlink:href="classpa_1_1LBFGSSolver.html#a8540540028b02dfe8b7e3ec0c49c07dd" target="_top" xlink:title=" ">
<polygon fill="white" stroke="black" points="451,-448 451,-467 603,-467 603,-448 451,-448"/>
<text text-anchor="middle" x="527" y="-455" font-family="Helvetica,sans-Serif" font-size="10.00">pa::LBFGSSolver::operator()</text>
</a>
</g>
</g>
<!-- Node2&#45;&gt;Node6 -->
<g id="edge5" class="edge">
<title>Node2&#45;&gt;Node6</title>
<path fill="none" stroke="midnightblue" d="M687.77,-379.02C669.28,-396.36 637.88,-423.18 606,-438.5 597.96,-442.36 589.07,-445.48 580.25,-447.99"/>
<polygon fill="midnightblue" stroke="midnightblue" points="690.29,-381.46 695.09,-372.01 685.45,-376.4 690.29,-381.46"/>
</g>
<!-- Node7 -->
<g id="node7" class="node">
<title>Node7</title>
<g id="a_node7"><a xlink:href="classpa_1_1LBFGSBSolver.html#a8540540028b02dfe8b7e3ec0c49c07dd" target="_top" xlink:title=" ">
<polygon fill="white" stroke="black" points="448,-410 448,-429 606,-429 606,-410 448,-410"/>
<text text-anchor="middle" x="527" y="-417" font-family="Helvetica,sans-Serif" font-size="10.00">pa::LBFGSBSolver::operator()</text>
</a>
</g>
</g>
<!-- Node2&#45;&gt;Node7 -->
<g id="edge6" class="edge">
<title>Node2&#45;&gt;Node7</title>
<path fill="none" stroke="midnightblue" d="M666.82,-375.37C648.5,-381.56 626.14,-389.03 606,-395.5 590.76,-400.4 573.77,-405.65 559.56,-409.98"/>
<polygon fill="midnightblue" stroke="midnightblue" points="668.19,-378.6 676.54,-372.07 665.94,-371.97 668.19,-378.6"/>
</g>
<!-- Node2&#45;&gt;Node8 -->
<g id="edge7" class="edge">
<title>Node2&#45;&gt;Node8</title>
<path fill="none" stroke="midnightblue" d="M676.87,-348.7C627.51,-326.16 522.4,-287.92 448,-329.5 408.07,-351.81 344.09,-486.44 326.88,-523.86"/>
<polygon fill="midnightblue" stroke="midnightblue" points="675.43,-351.89 685.97,-352.97 678.41,-345.55 675.43,-351.89"/>
</g>
<!-- Node9 -->
<g id="node9" class="node">
<title>Node9</title>
<g id="a_node9"><a xlink:href="classpa_1_1PGASolver.html#af516b794e244432023aea7ba3cd0d1d8" target="_top" xlink:title=" ">
<polygon fill="white" stroke="black" points="251.5,-603 251.5,-622 391.5,-622 391.5,-603 251.5,-603"/>
<text text-anchor="middle" x="321.5" y="-610" font-family="Helvetica,sans-Serif" font-size="10.00">pa::PGASolver::operator()</text>
</a>
</g>
</g>
<!-- Node2&#45;&gt;Node9 -->
<g id="edge8" class="edge">
<title>Node2&#45;&gt;Node9</title>
<path fill="none" stroke="midnightblue" d="M667.01,-350.11C612.1,-334.55 509.62,-315.7 448,-367.5 383.88,-421.4 458.34,-482.72 412,-552.5 396.06,-576.5 366.91,-593.34 346.21,-602.94"/>
<polygon fill="midnightblue" stroke="midnightblue" points="666.11,-353.5 676.7,-352.96 668.09,-346.78 666.11,-353.5"/>
</g>
<!-- Node11&#45;&gt;Node11 -->
<g id="edge11" class="edge">
<title>Node11&#45;&gt;Node11</title>
<path fill="none" stroke="midnightblue" d="M1066.3,-40.96C1063.03,-45.68 1054.27,-49 1040,-49 1016.59,-49 1007.99,-40.06 1014.21,-30.66"/>
<polygon fill="midnightblue" stroke="midnightblue" points="1069.78,-40.48 1065.79,-30.66 1062.79,-40.82 1069.78,-40.48"/>
</g>
<!-- Node13 -->
<g id="node13" class="node">
<title>Node13</title>
<g id="a_node13"><a xlink:href="namespacepa_1_1detail.html#ad4d033d8e69bebca614098fa2df0a4a1" target="_top" xlink:title="Compute the ε from the stopping criterion, see PANOCStopCrit.">
<polygon fill="white" stroke="black" points="469,-726.5 469,-756.5 585,-756.5 585,-726.5 469,-726.5"/>
<text text-anchor="start" x="477" y="-744.5" font-family="Helvetica,sans-Serif" font-size="10.00">pa::detail::calc_error</text>
<text text-anchor="middle" x="527" y="-733.5" font-family="Helvetica,sans-Serif" font-size="10.00">_stop_crit</text>
</a>
</g>
</g>
<!-- Node12&#45;&gt;Node13 -->
<g id="edge14" class="edge">
<title>Node12&#45;&gt;Node13</title>
<path fill="none" stroke="midnightblue" d="M1012.93,-522.21C965.27,-548.82 860.58,-606.04 769,-647.5 700.88,-678.34 619.42,-708.83 570.8,-726.37"/>
<polygon fill="midnightblue" stroke="midnightblue" points="1014.93,-525.1 1021.94,-517.16 1011.51,-518.99 1014.93,-525.1"/>
</g>
<!-- Node17 -->
<g id="node17" class="node">
<title>Node17</title>
<g id="a_node17"><a xlink:href="namespacepa_1_1detail.html#a6572cf745448d2b40e9d5e977d17d5e2" target="_top" xlink:title="Calculate the gradient ∇ψ(x).">
<polygon fill="white" stroke="black" points="642,-939 642,-958 769,-958 769,-939 642,-939"/>
<text text-anchor="middle" x="705.5" y="-946" font-family="Helvetica,sans-Serif" font-size="10.00">pa::detail::calc_grad_ψ</text>
</a>
</g>
</g>
<!-- Node12&#45;&gt;Node17 -->
<g id="edge22" class="edge">
<title>Node12&#45;&gt;Node17</title>
<path fill="none" stroke="midnightblue" d="M1032.42,-527.01C1008.74,-594.09 921.13,-817.01 769,-924.5 760.46,-930.54 750.2,-935.29 740.48,-938.93"/>
<polygon fill="midnightblue" stroke="midnightblue" points="1035.82,-527.9 1035.78,-517.3 1029.2,-525.61 1035.82,-527.9"/>
</g>
<!-- Node20 -->
<g id="node20" class="node">
<title>Node20</title>
<g id="a_node20"><a xlink:href="namespacepa_1_1detail.html#a82a03662e6ce5bcfd57ee2df719aec21" target="_top" xlink:title="Calculate both ψ(x) and the vector ŷ that can later be used to compute ∇ψ.">
<polygon fill="white" stroke="black" points="805,-498 805,-517 916,-517 916,-498 805,-498"/>
<text text-anchor="middle" x="860.5" y="-505" font-family="Helvetica,sans-Serif" font-size="10.00">pa::detail::calc_ψ_ŷ</text>
</a>
</g>
</g>
<!-- Node12&#45;&gt;Node20 -->
<g id="edge31" class="edge">
<title>Node12&#45;&gt;Node20</title>
<path fill="none" stroke="midnightblue" d="M970.27,-507.5C952.33,-507.5 933.24,-507.5 916.14,-507.5"/>
<polygon fill="midnightblue" stroke="midnightblue" points="970.39,-511 980.39,-507.5 970.39,-504 970.39,-511"/>
</g>
<!-- Node23 -->
<g id="node23" class="node">
<title>Node23</title>
<g id="a_node23"><a xlink:href="namespacepa.html#a841a5169cd34615a1d9942e6ceead589" target="_top" xlink:title="Get the distance squared between the given vector and its projection.">
<polygon fill="white" stroke="black" points="821,-460 821,-479 900,-479 900,-460 821,-460"/>
<text text-anchor="middle" x="860.5" y="-467" font-family="Helvetica,sans-Serif" font-size="10.00">dist_squared</text>
</a>
</g>
</g>
<!-- Node12&#45;&gt;Node23 -->
<g id="edge55" class="edge">
<title>Node12&#45;&gt;Node23</title>
<path fill="none" stroke="midnightblue" d="M984.43,-495.82C957.2,-489.99 924.9,-483.07 900.25,-477.8"/>
<polygon fill="midnightblue" stroke="midnightblue" points="983.7,-499.24 994.21,-497.91 985.16,-492.4 983.7,-499.24"/>
</g>
<!-- Node13&#45;&gt;Node4 -->
<g id="edge15" class="edge">
<title>Node13&#45;&gt;Node4</title>
<path fill="none" stroke="midnightblue" d="M469.99,-723.33C438.28,-713.05 399.09,-700.34 369.08,-690.61"/>
<polygon fill="midnightblue" stroke="midnightblue" points="468.98,-726.69 479.57,-726.44 471.14,-720.03 468.98,-726.69"/>
</g>
<!-- Node13&#45;&gt;Node5 -->
<g id="edge16" class="edge">
<title>Node13&#45;&gt;Node5</title>
<path fill="none" stroke="midnightblue" d="M464.71,-759.94C459.01,-762.01 453.36,-764.21 448,-766.5 411.76,-781.97 372.12,-804.45 347.29,-819.27"/>
<polygon fill="midnightblue" stroke="midnightblue" points="466.04,-763.18 474.31,-756.57 463.72,-756.58 466.04,-763.18"/>
</g>
<!-- Node13&#45;&gt;Node8 -->
<g id="edge17" class="edge">
<title>Node13&#45;&gt;Node8</title>
<path fill="none" stroke="midnightblue" d="M493.64,-720.44C478.25,-709.16 460.52,-694.16 448,-677.5 423.6,-645.03 437.93,-624.76 412,-593.5 393.13,-570.75 363.46,-553.23 343.51,-543.15"/>
<polygon fill="midnightblue" stroke="midnightblue" points="491.72,-723.37 501.9,-726.31 495.78,-717.67 491.72,-723.37"/>
</g>
<!-- Node13&#45;&gt;Node9 -->
<g id="edge18" class="edge">
<title>Node13&#45;&gt;Node9</title>
<path fill="none" stroke="midnightblue" d="M499.58,-719.79C468.9,-694.67 421.28,-656.04 412,-650.5 392.43,-638.83 368.61,-628.9 350.46,-622.12"/>
<polygon fill="midnightblue" stroke="midnightblue" points="497.41,-722.53 507.36,-726.16 501.84,-717.12 497.41,-722.53"/>
</g>
<!-- Node14 -->
<g id="node14" class="node">
<title>Node14</title>
<g id="a_node14"><a xlink:href="namespacepa.html#a2b97bf67604c439eca0a540664930d61" target="_top" xlink:title=" ">
<polygon fill="white" stroke="black" points="285,-732 285,-751 358,-751 358,-732 285,-732"/>
<text text-anchor="middle" x="321.5" y="-739" font-family="Helvetica,sans-Serif" font-size="10.00">panoc_impl</text>
</a>
</g>
</g>
<!-- Node13&#45;&gt;Node14 -->
<g id="edge19" class="edge">
<title>Node13&#45;&gt;Node14</title>
<path fill="none" stroke="midnightblue" d="M458.57,-741.5C425.05,-741.5 385.9,-741.5 358.22,-741.5"/>
<polygon fill="midnightblue" stroke="midnightblue" points="458.77,-745 468.77,-741.5 458.77,-738 458.77,-745"/>
</g>
<!-- Node15 -->
<g id="node15" class="node">
<title>Node15</title>
<g id="a_node15"><a xlink:href="namespacepa.html#adf74e7674514afed3ae1c356ffcb9e45" target="_top" xlink:title=" ">
<polygon fill="white" stroke="black" points="149,-732 149,-751 195,-751 195,-732 149,-732"/>
<text text-anchor="middle" x="172" y="-739" font-family="Helvetica,sans-Serif" font-size="10.00">panoc</text>
</a>
</g>
</g>
<!-- Node14&#45;&gt;Node15 -->
<g id="edge20" class="edge">
<title>Node14&#45;&gt;Node15</title>
<path fill="none" stroke="midnightblue" d="M274.59,-741.5C248.12,-741.5 216.04,-741.5 195.1,-741.5"/>
<polygon fill="midnightblue" stroke="midnightblue" points="274.79,-745 284.79,-741.5 274.79,-738 274.79,-745"/>
</g>
<!-- Node16 -->
<g id="node16" class="node">
<title>Node16</title>
<g id="a_node16"><a xlink:href="alpaqa_8cpp.html#a52c00cccef0976f125d4a27f9906c36b" target="_top" xlink:title=" ">
<polygon fill="white" stroke="black" points="0,-732 0,-751 113,-751 113,-732 0,-732"/>
<text text-anchor="middle" x="56.5" y="-739" font-family="Helvetica,sans-Serif" font-size="10.00">PYBIND11_MODULE</text>
</a>
</g>
</g>
<!-- Node15&#45;&gt;Node16 -->
<g id="edge21" class="edge">
<title>Node15&#45;&gt;Node16</title>
<path fill="none" stroke="midnightblue" d="M138.8,-741.5C130.74,-741.5 121.86,-741.5 113.02,-741.5"/>
<polygon fill="midnightblue" stroke="midnightblue" points="138.85,-745 148.85,-741.5 138.85,-738 138.85,-745"/>
</g>
<!-- Node18 -->
<g id="node18" class="node">
<title>Node18</title>
<g id="a_node18"><a xlink:href="namespacepa_1_1detail.html#a384dd0255096b08c79472df49f7f9388" target="_top" xlink:title="Compute the Hessian matrix of the augmented Lagrangian function multiplied by the given vector,...">
<polygon fill="white" stroke="black" points="448,-939.5 448,-969.5 606,-969.5 606,-939.5 448,-939.5"/>
<text text-anchor="start" x="456" y="-957.5" font-family="Helvetica,sans-Serif" font-size="10.00">pa::detail::calc_augmented</text>
<text text-anchor="middle" x="527" y="-946.5" font-family="Helvetica,sans-Serif" font-size="10.00">_lagrangian_hessian_prod_fd</text>
</a>
</g>
</g>
<!-- Node17&#45;&gt;Node18 -->
<g id="edge23" class="edge">
<title>Node17&#45;&gt;Node18</title>
<path fill="none" stroke="midnightblue" d="M631.67,-950.98C623.29,-951.26 614.72,-951.55 606.27,-951.84"/>
<polygon fill="midnightblue" stroke="midnightblue" points="631.9,-954.47 641.78,-950.63 631.66,-947.47 631.9,-954.47"/>
</g>
<!-- Node19 -->
<g id="node19" class="node">
<title>Node19</title>
<g id="a_node19"><a xlink:href="namespacepa_1_1detail.html#a92963cadf7f44fcf9f3ab6bddff08796" target="_top" xlink:title="Estimate the Lipschitz constant of the gradient &#160;using finite differences.">
<polygon fill="white" stroke="black" points="471.5,-775.5 471.5,-805.5 582.5,-805.5 582.5,-775.5 471.5,-775.5"/>
<text text-anchor="start" x="479.5" y="-793.5" font-family="Helvetica,sans-Serif" font-size="10.00">pa::detail::initial</text>
<text text-anchor="middle" x="527" y="-782.5" font-family="Helvetica,sans-Serif" font-size="10.00">_lipschitz_estimate</text>
</a>
</g>
</g>
<!-- Node17&#45;&gt;Node19 -->
<g id="edge25" class="edge">
<title>Node17&#45;&gt;Node19</title>
<path fill="none" stroke="midnightblue" d="M686.27,-932.18C651.91,-901.42 578.07,-835.32 544.83,-805.57"/>
<polygon fill="midnightblue" stroke="midnightblue" points="683.94,-934.79 693.72,-938.85 688.61,-929.58 683.94,-934.79"/>
</g>
<!-- Node18&#45;&gt;Node5 -->
<g id="edge24" class="edge">
<title>Node18&#45;&gt;Node5</title>
<path fill="none" stroke="midnightblue" d="M471.58,-935.63C463.52,-932.25 455.43,-928.51 448,-924.5 407.18,-902.48 364.21,-869.12 340.65,-849.8"/>
<polygon fill="midnightblue" stroke="midnightblue" points="470.4,-938.93 480.99,-939.43 473.03,-932.44 470.4,-938.93"/>
</g>
<!-- Node19&#45;&gt;Node4 -->
<g id="edge26" class="edge">
<title>Node19&#45;&gt;Node4</title>
<path fill="none" stroke="midnightblue" d="M461.8,-774.2C456.96,-771.94 452.3,-769.39 448,-766.5 427.03,-752.41 431.58,-738.47 412,-722.5 396.09,-709.52 376.03,-698.59 358.93,-690.54"/>
<polygon fill="midnightblue" stroke="midnightblue" points="460.68,-777.53 471.25,-778.18 463.39,-771.07 460.68,-777.53"/>
</g>
<!-- Node19&#45;&gt;Node5 -->
<g id="edge27" class="edge">
<title>Node19&#45;&gt;Node5</title>
<path fill="none" stroke="midnightblue" d="M461.53,-804.44C439.44,-809.22 414.64,-814.58 392.16,-819.44"/>
<polygon fill="midnightblue" stroke="midnightblue" points="462.43,-807.83 471.47,-802.29 460.95,-800.98 462.43,-807.83"/>
</g>
<!-- Node19&#45;&gt;Node8 -->
<g id="edge28" class="edge">
<title>Node19&#45;&gt;Node8</title>
<path fill="none" stroke="midnightblue" d="M462.11,-777.51C456.86,-774.55 452.03,-770.93 448,-766.5 395.12,-708.44 455.87,-658.64 412,-593.5 395.91,-569.61 366.79,-552.75 346.14,-543.11"/>
<polygon fill="midnightblue" stroke="midnightblue" points="460.75,-780.74 471.29,-781.89 463.77,-774.42 460.75,-780.74"/>
</g>
<!-- Node19&#45;&gt;Node9 -->
<g id="edge29" class="edge">
<title>Node19&#45;&gt;Node9</title>
<path fill="none" stroke="midnightblue" d="M462.31,-776.96C457.06,-774.11 452.18,-770.67 448,-766.5 409.78,-728.38 448.2,-690.54 412,-650.5 399.55,-636.73 381.27,-627.77 364.48,-622.04"/>
<polygon fill="midnightblue" stroke="midnightblue" points="460.88,-780.16 471.42,-781.22 463.84,-773.82 460.88,-780.16"/>
</g>
<!-- Node19&#45;&gt;Node14 -->
<g id="edge30" class="edge">
<title>Node19&#45;&gt;Node14</title>
<path fill="none" stroke="midnightblue" d="M461.56,-774.98C427.41,-766.76 386.75,-756.97 358.25,-750.11"/>
<polygon fill="midnightblue" stroke="midnightblue" points="460.92,-778.43 471.47,-777.37 462.56,-771.63 460.92,-778.43"/>
</g>
<!-- Node20&#45;&gt;Node3 -->
<g id="edge48" class="edge">
<title>Node20&#45;&gt;Node3</title>
<path fill="none" stroke="midnightblue" d="M808.18,-491.93C807.04,-490.86 805.98,-489.72 805,-488.5 762.53,-435.64 819.7,-230.53 769,-185.5 628.83,-61 384.17,-283.59 332.33,-333.77"/>
<polygon fill="midnightblue" stroke="midnightblue" points="806.37,-494.94 816.52,-497.98 810.48,-489.28 806.37,-494.94"/>
</g>
<!-- Node20&#45;&gt;Node4 -->
<g id="edge49" class="edge">
<title>Node20&#45;&gt;Node4</title>
<path fill="none" stroke="midnightblue" d="M845.35,-524.92C828.66,-544.65 799.34,-576.86 769,-598.5 703.47,-645.26 684.46,-659.49 606,-677.5 538.48,-693 459.51,-690.85 402.09,-685.78"/>
<polygon fill="midnightblue" stroke="midnightblue" points="848.19,-526.99 851.89,-517.06 842.8,-522.51 848.19,-526.99"/>
</g>
<!-- Node20&#45;&gt;Node5 -->
<g id="edge50" class="edge">
<title>Node20&#45;&gt;Node5</title>
<path fill="none" stroke="midnightblue" d="M853.52,-526.92C832.42,-591.59 754.56,-799.89 606,-876.5 521.53,-920.06 405.3,-875.24 351.71,-849.67"/>
<polygon fill="midnightblue" stroke="midnightblue" points="856.92,-527.78 856.62,-517.19 850.25,-525.66 856.92,-527.78"/>
</g>
<!-- Node20&#45;&gt;Node6 -->
<g id="edge51" class="edge">
<title>Node20&#45;&gt;Node6</title>
<path fill="none" stroke="midnightblue" d="M794.82,-497.74C735.9,-488.86 649.43,-475.82 591.03,-467.01"/>
<polygon fill="midnightblue" stroke="midnightblue" points="794.35,-501.21 804.76,-499.24 795.39,-494.29 794.35,-501.21"/>
</g>
<!-- Node20&#45;&gt;Node7 -->
<g id="edge52" class="edge">
<title>Node20&#45;&gt;Node7</title>
<path fill="none" stroke="midnightblue" d="M820.72,-494.55C815.4,-492.61 810.04,-490.56 805,-488.5 788.62,-481.8 785.76,-477.18 769,-471.5 710.02,-451.51 640.23,-437.44 590.97,-429.03"/>
<polygon fill="midnightblue" stroke="midnightblue" points="819.56,-497.85 830.15,-497.91 821.91,-491.26 819.56,-497.85"/>
</g>
<!-- Node20&#45;&gt;Node8 -->
<g id="edge53" class="edge">
<title>Node20&#45;&gt;Node8</title>
<path fill="none" stroke="midnightblue" d="M808.23,-491.89C807.08,-490.83 806,-489.7 805,-488.5 737.44,-407.26 849.17,-322.33 769,-253.5 660.75,-160.57 563.62,-169.92 448,-253.5 406.65,-283.39 431.9,-315.52 412,-362.5 385.08,-426.06 343.53,-498.06 328.33,-523.75"/>
<polygon fill="midnightblue" stroke="midnightblue" points="806.47,-494.93 816.65,-497.87 810.53,-489.23 806.47,-494.93"/>
</g>
<!-- Node20&#45;&gt;Node9 -->
<g id="edge54" class="edge">
<title>Node20&#45;&gt;Node9</title>
<path fill="none" stroke="midnightblue" d="M808.89,-492.2C807.51,-491.05 806.21,-489.82 805,-488.5 760.26,-439.44 819.64,-386.45 769,-343.5 660.12,-251.13 556.74,-237.97 448,-330.5 371.87,-395.28 465.98,-468.37 412,-552.5 396.54,-576.59 367.59,-593.32 346.8,-602.88"/>
<polygon fill="midnightblue" stroke="midnightblue" points="807.24,-495.3 817.52,-497.87 811.08,-489.45 807.24,-495.3"/>
</g>
<!-- Node21 -->
<g id="node21" class="node">
<title>Node21</title>
<g id="a_node21"><a xlink:href="namespacepa_1_1detail.html#aa986daa1d5f0dfdbc75c143d2aae2919" target="_top" xlink:title="Calculate both ψ(x) and its gradient ∇ψ(x).">
<polygon fill="white" stroke="black" points="655.5,-518.5 655.5,-548.5 755.5,-548.5 755.5,-518.5 655.5,-518.5"/>
<text text-anchor="start" x="663.5" y="-536.5" font-family="Helvetica,sans-Serif" font-size="10.00">pa::detail::calc_ψ</text>
<text text-anchor="middle" x="705.5" y="-525.5" font-family="Helvetica,sans-Serif" font-size="10.00">_grad_ψ</text>
</a>
</g>
</g>
<!-- Node20&#45;&gt;Node21 -->
<g id="edge32" class="edge">
<title>Node20&#45;&gt;Node21</title>
<path fill="none" stroke="midnightblue" d="M794.78,-518.5C781.66,-520.73 768.06,-523.04 755.59,-525.16"/>
<polygon fill="midnightblue" stroke="midnightblue" points="795.42,-521.94 804.7,-516.81 794.25,-515.04 795.42,-521.94"/>
</g>
<!-- Node22 -->
<g id="node22" class="node">
<title>Node22</title>
<g id="a_node22"><a xlink:href="namespacepa_1_1detail.html#ac7d4fa127500b38a8cec94984c4f598d" target="_top" xlink:title="Increase the estimate of the Lipschitz constant of the objective gradient and decrease the step size ...">
<polygon fill="white" stroke="black" points="473.5,-638.5 473.5,-668.5 580.5,-668.5 580.5,-638.5 473.5,-638.5"/>
<text text-anchor="start" x="481.5" y="-656.5" font-family="Helvetica,sans-Serif" font-size="10.00">pa::detail::descent</text>
<text text-anchor="middle" x="527" y="-645.5" font-family="Helvetica,sans-Serif" font-size="10.00">_lemma</text>
</a>
</g>
</g>
<!-- Node20&#45;&gt;Node22 -->
<g id="edge41" class="edge">
<title>Node20&#45;&gt;Node22</title>
<path fill="none" stroke="midnightblue" d="M834.78,-522.26C816.83,-532.71 791.8,-546.71 769,-557.5 701.01,-589.67 619.17,-620.72 570.48,-638.42"/>
<polygon fill="midnightblue" stroke="midnightblue" points="836.62,-525.24 843.47,-517.16 833.08,-519.2 836.62,-525.24"/>
</g>
<!-- Node21&#45;&gt;Node3 -->
<g id="edge34" class="edge">
<title>Node21&#45;&gt;Node3</title>
<path fill="none" stroke="midnightblue" d="M644.95,-530.19C590.55,-524.95 509.49,-511.42 448,-476.5 391.13,-444.2 344.52,-377.76 328.48,-353.04"/>
<polygon fill="midnightblue" stroke="midnightblue" points="644.85,-533.7 655.12,-531.1 645.47,-526.72 644.85,-533.7"/>
</g>
<!-- Node21&#45;&gt;Node4 -->
<g id="edge35" class="edge">
<title>Node21&#45;&gt;Node4</title>
<path fill="none" stroke="midnightblue" d="M669.91,-553.64C651.39,-563.85 627.92,-575.88 606,-584.5 538.16,-611.18 517.31,-605.92 448,-628.5 418.14,-638.23 384.87,-650.77 360.09,-660.45"/>
<polygon fill="midnightblue" stroke="midnightblue" points="671.83,-556.58 678.85,-548.65 668.41,-550.47 671.83,-556.58"/>
</g>
<!-- Node21&#45;&gt;Node5 -->
<g id="edge36" class="edge">
<title>Node21&#45;&gt;Node5</title>
<path fill="none" stroke="midnightblue" d="M700.53,-558.5C689.15,-626.68 654.1,-813.15 606,-848.5 532.54,-902.49 417.2,-871.14 358.87,-849.59"/>
<polygon fill="midnightblue" stroke="midnightblue" points="703.99,-559.05 702.15,-548.61 697.08,-557.91 703.99,-559.05"/>
</g>
<!-- Node21&#45;&gt;Node6 -->
<g id="edge37" class="edge">
<title>Node21&#45;&gt;Node6</title>
<path fill="none" stroke="midnightblue" d="M670.5,-513.53C651.86,-503.1 628.11,-490.64 606,-481.5 592.65,-475.98 577.55,-471.05 564.22,-467.11"/>
<polygon fill="midnightblue" stroke="midnightblue" points="668.79,-516.58 679.21,-518.46 672.24,-510.49 668.79,-516.58"/>
</g>
<!-- Node21&#45;&gt;Node7 -->
<g id="edge38" class="edge">
<title>Node21&#45;&gt;Node7</title>
<path fill="none" stroke="midnightblue" d="M686.95,-510.65C668.97,-488.84 639.04,-456.68 606,-438.5 598.92,-434.6 591.04,-431.5 583.09,-429.02"/>
<polygon fill="midnightblue" stroke="midnightblue" points="684.24,-512.86 693.24,-518.45 689.69,-508.47 684.24,-512.86"/>
</g>
<!-- Node21&#45;&gt;Node8 -->
<g id="edge39" class="edge">
<title>Node21&#45;&gt;Node8</title>
<path fill="none" stroke="midnightblue" d="M645.21,-533.5C579.89,-533.5 474.51,-533.5 402.05,-533.5"/>
<polygon fill="midnightblue" stroke="midnightblue" points="645.34,-537 655.34,-533.5 645.34,-530 645.34,-537"/>
</g>
<!-- Node21&#45;&gt;Node9 -->
<g id="edge40" class="edge">
<title>Node21&#45;&gt;Node9</title>
<path fill="none" stroke="midnightblue" d="M645.4,-545.72C569.07,-561.51 437.81,-588.65 368.49,-602.99"/>
<polygon fill="midnightblue" stroke="midnightblue" points="646.26,-549.12 655.34,-543.67 644.84,-542.26 646.26,-549.12"/>
</g>
<!-- Node21&#45;&gt;Node19 -->
<g id="edge33" class="edge">
<title>Node21&#45;&gt;Node19</title>
<path fill="none" stroke="midnightblue" d="M700.96,-558.59C692.93,-606.14 668.89,-709.69 606,-766.5 599.38,-772.48 591.29,-776.98 582.86,-780.35"/>
<polygon fill="midnightblue" stroke="midnightblue" points="704.45,-558.97 702.56,-548.54 697.53,-557.87 704.45,-558.97"/>
</g>
<!-- Node22&#45;&gt;Node3 -->
<g id="edge42" class="edge">
<title>Node22&#45;&gt;Node3</title>
<path fill="none" stroke="midnightblue" d="M510.3,-629.58C468.7,-566.22 356.93,-395.95 328.93,-353.29"/>
<polygon fill="midnightblue" stroke="midnightblue" points="507.49,-631.69 515.91,-638.13 513.35,-627.85 507.49,-631.69"/>
</g>
<!-- Node22&#45;&gt;Node4 -->
<g id="edge43" class="edge">
<title>Node22&#45;&gt;Node4</title>
<path fill="none" stroke="midnightblue" d="M463.17,-660.29C443.91,-662.37 422.45,-664.69 402.21,-666.88"/>
<polygon fill="midnightblue" stroke="midnightblue" points="463.76,-663.75 473.33,-659.19 463.01,-656.79 463.76,-663.75"/>
</g>
<!-- Node22&#45;&gt;Node5 -->
<g id="edge44" class="edge">
<title>Node22&#45;&gt;Node5</title>
<path fill="none" stroke="midnightblue" d="M497.49,-674.8C482.23,-686.72 463.44,-702.21 448,-717.5 430.29,-735.04 429.68,-742.93 412,-760.5 389.83,-782.53 361.7,-805.01 342.95,-819.32"/>
<polygon fill="midnightblue" stroke="midnightblue" points="499.79,-677.45 505.57,-668.57 495.51,-671.91 499.79,-677.45"/>
</g>
<!-- Node22&#45;&gt;Node8 -->
<g id="edge45" class="edge">
<title>Node22&#45;&gt;Node8</title>
<path fill="none" stroke="midnightblue" d="M491.51,-633.16C447.06,-606.95 371.61,-562.46 338.68,-543.04"/>
<polygon fill="midnightblue" stroke="midnightblue" points="489.83,-636.24 500.23,-638.3 493.39,-630.21 489.83,-636.24"/>
</g>
<!-- Node22&#45;&gt;Node9 -->
<g id="edge46" class="edge">
<title>Node22&#45;&gt;Node9</title>
<path fill="none" stroke="midnightblue" d="M463.32,-640.87C433.16,-634.79 397.58,-627.63 369.74,-622.02"/>
<polygon fill="midnightblue" stroke="midnightblue" points="462.83,-644.34 473.33,-642.89 464.22,-637.48 462.83,-644.34"/>
</g>
<!-- Node22&#45;&gt;Node14 -->
<g id="edge47" class="edge">
<title>Node22&#45;&gt;Node14</title>
<path fill="none" stroke="midnightblue" d="M481.77,-672.63C439.4,-690.95 377.21,-717.84 344.49,-731.99"/>
<polygon fill="midnightblue" stroke="midnightblue" points="483.23,-675.81 491.02,-668.63 480.45,-669.38 483.23,-675.81"/>
</g>
</g>
</svg>
