<?xml version="1.0" encoding="UTF-8" standalone="no"?>
<!DOCTYPE svg PUBLIC "-//W3C//DTD SVG 1.1//EN"
 "http://www.w3.org/Graphics/SVG/1.1/DTD/svg11.dtd">
<!-- Generated by graphviz version 2.43.0 (0)
 -->
<!-- Title: stats_to_dict Pages: 1 -->
<svg width="275pt" height="138pt"
 viewBox="0.00 0.00 275.00 137.50" xmlns="http://www.w3.org/2000/svg" xmlns:xlink="http://www.w3.org/1999/xlink">
<g id="graph0" class="graph" transform="scale(1 1) rotate(0) translate(4 133.5)">
<title>stats_to_dict</title>
<polygon fill="white" stroke="transparent" points="-4,4 -4,-133.5 271,-133.5 271,4 -4,4"/>
<!-- Node1 -->
<g id="node1" class="node">
<title>Node1</title>
<g id="a_node1"><a xlink:title=" ">
<polygon fill="#bfbfbf" stroke="black" points="188,-61 188,-80 267,-80 267,-61 188,-61"/>
<text text-anchor="middle" x="227.5" y="-68" font-family="Helvetica,sans-Serif" font-size="10.00">stats_to_dict</text>
</a>
</g>
</g>
<!-- Node2 -->
<g id="node2" class="node">
<title>Node2</title>
<g id="a_node2"><a xlink:href="alpaqa_8cpp.html#a52c00cccef0976f125d4a27f9906c36b" target="_top" xlink:title=" ">
<polygon fill="white" stroke="black" points="19.5,-110 19.5,-129 132.5,-129 132.5,-110 19.5,-110"/>
<text text-anchor="middle" x="76" y="-117" font-family="Helvetica,sans-Serif" font-size="10.00">PYBIND11_MODULE</text>
</a>
</g>
</g>
<!-- Node1&#45;&gt;Node2 -->
<g id="edge1" class="edge">
<title>Node1&#45;&gt;Node2</title>
<path fill="none" stroke="midnightblue" d="M195.37,-84.12C182.15,-89.63 166.47,-95.78 152,-100.5 141.4,-103.96 129.79,-107.17 118.94,-109.94"/>
<polygon fill="midnightblue" stroke="midnightblue" points="197.1,-87.2 204.94,-80.08 194.37,-80.75 197.1,-87.2"/>
</g>
<!-- Node3 -->
<g id="node3" class="node">
<title>Node3</title>
<g id="a_node3"><a xlink:href="structpa_1_1PolymorphicInnerSolver_1_1WrappedStatsAccumulator.html#adfca1d4dbe1269c5a5e5c09d8f02e6af" target="_top" xlink:title=" ">
<polygon fill="white" stroke="black" points="0,-50 0,-91 152,-91 152,-50 0,-50"/>
<text text-anchor="start" x="8" y="-79" font-family="Helvetica,sans-Serif" font-size="10.00">pa::PolymorphicInnerSolver</text>
<text text-anchor="start" x="8" y="-68" font-family="Helvetica,sans-Serif" font-size="10.00">::WrappedStatsAccumulator</text>
<text text-anchor="middle" x="76" y="-57" font-family="Helvetica,sans-Serif" font-size="10.00">::to_dict</text>
</a>
</g>
</g>
<!-- Node1&#45;&gt;Node3 -->
<g id="edge2" class="edge">
<title>Node1&#45;&gt;Node3</title>
<path fill="none" stroke="midnightblue" d="M177.58,-70.5C169.44,-70.5 160.84,-70.5 152.22,-70.5"/>
<polygon fill="midnightblue" stroke="midnightblue" points="177.61,-74 187.61,-70.5 177.61,-67 177.61,-74"/>
</g>
<!-- Node4 -->
<g id="node4" class="node">
<title>Node4</title>
<g id="a_node4"><a xlink:href="structpa_1_1PolymorphicInnerSolver_1_1WrappedStats.html#adfca1d4dbe1269c5a5e5c09d8f02e6af" target="_top" xlink:title=" ">
<polygon fill="white" stroke="black" points="0.5,-0.5 0.5,-30.5 151.5,-30.5 151.5,-0.5 0.5,-0.5"/>
<text text-anchor="start" x="8.5" y="-18.5" font-family="Helvetica,sans-Serif" font-size="10.00">pa::PolymorphicInnerSolver</text>
<text text-anchor="middle" x="76" y="-7.5" font-family="Helvetica,sans-Serif" font-size="10.00">::WrappedStats::to_dict</text>
</a>
</g>
</g>
<!-- Node1&#45;&gt;Node4 -->
<g id="edge3" class="edge">
<title>Node1&#45;&gt;Node4</title>
<path fill="none" stroke="midnightblue" d="M194.32,-57.04C181.25,-51.71 165.97,-45.64 152,-40.5 142.85,-37.14 133.01,-33.72 123.56,-30.53"/>
<polygon fill="midnightblue" stroke="midnightblue" points="193.24,-60.38 203.82,-60.95 195.9,-53.91 193.24,-60.38"/>
</g>
</g>
</svg>
