<?xml version="1.0" encoding="UTF-8" standalone="no"?>
<!DOCTYPE svg PUBLIC "-//W3C//DTD SVG 1.1//EN"
 "http://www.w3.org/Graphics/SVG/1.1/DTD/svg11.dtd">
<!-- Generated by graphviz version 2.43.0 (0)
 -->
<!-- Title: projecting_difference Pages: 1 -->
<svg width="1079pt" height="664pt"
 viewBox="0.00 0.00 1079.00 663.98" xmlns="http://www.w3.org/2000/svg" xmlns:xlink="http://www.w3.org/1999/xlink">
<g id="graph0" class="graph" transform="scale(1 1) rotate(0) translate(4 659.98)">
<title>projecting_difference</title>
<polygon fill="white" stroke="transparent" points="-4,4 -4,-659.98 1075,-659.98 1075,4 -4,4"/>
<!-- Node1 -->
<g id="node1" class="node">
<title>Node1</title>
<g id="a_node1"><a xlink:title="Get the difference between the given vector and its projection.">
<polygon fill="#bfbfbf" stroke="black" points="952,-420.98 952,-439.98 1071,-439.98 1071,-420.98 952,-420.98"/>
<text text-anchor="middle" x="1011.5" y="-427.98" font-family="Helvetica,sans-Serif" font-size="10.00">projecting_difference</text>
</a>
</g>
</g>
<!-- Node2 -->
<g id="node2" class="node">
<title>Node2</title>
<g id="a_node2"><a xlink:href="namespacepa_1_1detail.html#ad4d033d8e69bebca614098fa2df0a4a1" target="_top" xlink:title="Compute the ε from the stopping criterion, see PANOCStopCrit.">
<polygon fill="white" stroke="black" points="469,-374.48 469,-404.48 585,-404.48 585,-374.48 469,-374.48"/>
<text text-anchor="start" x="477" y="-392.48" font-family="Helvetica,sans-Serif" font-size="10.00">pa::detail::calc_error</text>
<text text-anchor="middle" x="527" y="-381.48" font-family="Helvetica,sans-Serif" font-size="10.00">_stop_crit</text>
</a>
</g>
</g>
<!-- Node1&#45;&gt;Node2 -->
<g id="edge1" class="edge">
<title>Node1&#45;&gt;Node2</title>
<path fill="none" stroke="midnightblue" d="M941.66,-424.63C845.9,-416.5 674.24,-401.91 585.15,-394.34"/>
<polygon fill="midnightblue" stroke="midnightblue" points="941.56,-428.14 951.82,-425.5 942.15,-421.16 941.56,-428.14"/>
</g>
<!-- Node10 -->
<g id="node10" class="node">
<title>Node10</title>
<g id="a_node10"><a xlink:href="namespacepa_1_1detail.html#a6572cf745448d2b40e9d5e977d17d5e2" target="_top" xlink:title="Calculate the gradient ∇ψ(x).">
<polygon fill="white" stroke="black" points="642,-624.98 642,-643.98 769,-643.98 769,-624.98 642,-624.98"/>
<text text-anchor="middle" x="705.5" y="-631.98" font-family="Helvetica,sans-Serif" font-size="10.00">pa::detail::calc_grad_ψ</text>
</a>
</g>
</g>
<!-- Node1&#45;&gt;Node10 -->
<g id="edge9" class="edge">
<title>Node1&#45;&gt;Node10</title>
<path fill="none" stroke="midnightblue" d="M1002.93,-449.6C989.86,-480.18 960.12,-539.93 916,-572.48 872.96,-604.24 813.78,-619.82 769.29,-627.41"/>
<polygon fill="midnightblue" stroke="midnightblue" points="1006.28,-450.68 1006.86,-440.1 999.81,-448 1006.28,-450.68"/>
</g>
<!-- Node13 -->
<g id="node13" class="node">
<title>Node13</title>
<g id="a_node13"><a xlink:href="namespacepa_1_1detail.html#a82a03662e6ce5bcfd57ee2df719aec21" target="_top" xlink:title="Calculate both ψ(x) and the vector ŷ that can later be used to compute ∇ψ.">
<polygon fill="white" stroke="black" points="805,-292.98 805,-311.98 916,-311.98 916,-292.98 805,-292.98"/>
<text text-anchor="middle" x="860.5" y="-299.98" font-family="Helvetica,sans-Serif" font-size="10.00">pa::detail::calc_ψ_ŷ</text>
</a>
</g>
</g>
<!-- Node1&#45;&gt;Node13 -->
<g id="edge18" class="edge">
<title>Node1&#45;&gt;Node13</title>
<path fill="none" stroke="midnightblue" d="M991.68,-414.31C960.31,-387.37 898.3,-334.1 872.83,-312.21"/>
<polygon fill="midnightblue" stroke="midnightblue" points="989.43,-417 999.3,-420.86 994,-411.69 989.43,-417"/>
</g>
<!-- Node19 -->
<g id="node19" class="node">
<title>Node19</title>
<g id="a_node19"><a xlink:href="namespacepa.html#a841a5169cd34615a1d9942e6ceead589" target="_top" xlink:title="Get the distance squared between the given vector and its projection.">
<polygon fill="white" stroke="black" points="821,-254.98 821,-273.98 900,-273.98 900,-254.98 821,-254.98"/>
<text text-anchor="middle" x="860.5" y="-261.98" font-family="Helvetica,sans-Serif" font-size="10.00">dist_squared</text>
</a>
</g>
</g>
<!-- Node1&#45;&gt;Node19 -->
<g id="edge42" class="edge">
<title>Node1&#45;&gt;Node19</title>
<path fill="none" stroke="midnightblue" d="M1003.1,-411.34C990.12,-380.17 960.32,-318.41 916,-283.48 911.12,-279.64 905.41,-276.54 899.55,-274.05"/>
<polygon fill="midnightblue" stroke="midnightblue" points="999.87,-412.69 1006.86,-420.66 1006.37,-410.08 999.87,-412.69"/>
</g>
<!-- Node3 -->
<g id="node3" class="node">
<title>Node3</title>
<g id="a_node3"><a xlink:href="classpa_1_1SecondOrderPANOCSolver.html#acb04b3f19dafad9b4e7e7c1c19018d19" target="_top" xlink:title=" ">
<polygon fill="white" stroke="black" points="241,-423.48 241,-453.48 402,-453.48 402,-423.48 241,-423.48"/>
<text text-anchor="start" x="249" y="-441.48" font-family="Helvetica,sans-Serif" font-size="10.00">pa::SecondOrderPANOCSolver</text>
<text text-anchor="middle" x="321.5" y="-430.48" font-family="Helvetica,sans-Serif" font-size="10.00">::operator()</text>
</a>
</g>
</g>
<!-- Node2&#45;&gt;Node3 -->
<g id="edge2" class="edge">
<title>Node2&#45;&gt;Node3</title>
<path fill="none" stroke="midnightblue" d="M458.78,-405.67C435,-411.39 408.37,-417.81 385,-423.43"/>
<polygon fill="midnightblue" stroke="midnightblue" points="459.87,-409.01 468.77,-403.26 458.23,-402.2 459.87,-409.01"/>
</g>
<!-- Node4 -->
<g id="node4" class="node">
<title>Node4</title>
<g id="a_node4"><a xlink:href="classpa_1_1StructuredPANOCLBFGSSolver.html#ade95d8a7a1892d4087d6fffc958cde6e" target="_top" xlink:title=" ">
<polygon fill="white" stroke="black" points="231,-507.48 231,-537.48 412,-537.48 412,-507.48 231,-507.48"/>
<text text-anchor="start" x="239" y="-525.48" font-family="Helvetica,sans-Serif" font-size="10.00">pa::StructuredPANOCLBFGSSolver</text>
<text text-anchor="middle" x="321.5" y="-514.48" font-family="Helvetica,sans-Serif" font-size="10.00">::operator()</text>
</a>
</g>
</g>
<!-- Node2&#45;&gt;Node4 -->
<g id="edge3" class="edge">
<title>Node2&#45;&gt;Node4</title>
<path fill="none" stroke="midnightblue" d="M459.76,-407.34C455.63,-409.47 451.67,-411.84 448,-414.48 426.06,-430.26 431.59,-444.87 412,-463.48 393.52,-481.05 369.19,-496.71 350.56,-507.48"/>
<polygon fill="midnightblue" stroke="midnightblue" points="461.39,-410.45 469,-403.07 458.45,-404.09 461.39,-410.45"/>
</g>
<!-- Node5 -->
<g id="node5" class="node">
<title>Node5</title>
<g id="a_node5"><a xlink:href="classpa_1_1GAAPGASolver.html#a570ec001ea8eee359be8a1b90b782cfb" target="_top" xlink:title=" ">
<polygon fill="white" stroke="black" points="241,-335.98 241,-354.98 402,-354.98 402,-335.98 241,-335.98"/>
<text text-anchor="middle" x="321.5" y="-342.98" font-family="Helvetica,sans-Serif" font-size="10.00">pa::GAAPGASolver::operator()</text>
</a>
</g>
</g>
<!-- Node2&#45;&gt;Node5 -->
<g id="edge4" class="edge">
<title>Node2&#45;&gt;Node5</title>
<path fill="none" stroke="midnightblue" d="M458.71,-374.93C428.46,-368.39 393.61,-360.86 366.73,-355.05"/>
<polygon fill="midnightblue" stroke="midnightblue" points="458.26,-378.42 468.77,-377.11 459.74,-371.57 458.26,-378.42"/>
</g>
<!-- Node6 -->
<g id="node6" class="node">
<title>Node6</title>
<g id="a_node6"><a xlink:href="classpa_1_1PGASolver.html#af516b794e244432023aea7ba3cd0d1d8" target="_top" xlink:title=" ">
<polygon fill="white" stroke="black" points="251.5,-297.98 251.5,-316.98 391.5,-316.98 391.5,-297.98 251.5,-297.98"/>
<text text-anchor="middle" x="321.5" y="-304.98" font-family="Helvetica,sans-Serif" font-size="10.00">pa::PGASolver::operator()</text>
</a>
</g>
</g>
<!-- Node2&#45;&gt;Node6 -->
<g id="edge5" class="edge">
<title>Node2&#45;&gt;Node6</title>
<path fill="none" stroke="midnightblue" d="M459.3,-371.65C455.37,-369.79 451.57,-367.73 448,-365.48 428.04,-352.91 432.5,-338.15 412,-326.48 405.23,-322.63 397.78,-319.56 390.15,-317.11"/>
<polygon fill="midnightblue" stroke="midnightblue" points="458.06,-374.93 468.63,-375.69 460.84,-368.51 458.06,-374.93"/>
</g>
<!-- Node7 -->
<g id="node7" class="node">
<title>Node7</title>
<g id="a_node7"><a xlink:href="namespacepa.html#a2b97bf67604c439eca0a540664930d61" target="_top" xlink:title=" ">
<polygon fill="white" stroke="black" points="285,-379.98 285,-398.98 358,-398.98 358,-379.98 285,-379.98"/>
<text text-anchor="middle" x="321.5" y="-386.98" font-family="Helvetica,sans-Serif" font-size="10.00">panoc_impl</text>
</a>
</g>
</g>
<!-- Node2&#45;&gt;Node7 -->
<g id="edge6" class="edge">
<title>Node2&#45;&gt;Node7</title>
<path fill="none" stroke="midnightblue" d="M458.57,-389.48C425.05,-389.48 385.9,-389.48 358.22,-389.48"/>
<polygon fill="midnightblue" stroke="midnightblue" points="458.77,-392.98 468.77,-389.48 458.77,-385.98 458.77,-392.98"/>
</g>
<!-- Node8 -->
<g id="node8" class="node">
<title>Node8</title>
<g id="a_node8"><a xlink:href="namespacepa.html#adf74e7674514afed3ae1c356ffcb9e45" target="_top" xlink:title=" ">
<polygon fill="white" stroke="black" points="149,-379.98 149,-398.98 195,-398.98 195,-379.98 149,-379.98"/>
<text text-anchor="middle" x="172" y="-386.98" font-family="Helvetica,sans-Serif" font-size="10.00">panoc</text>
</a>
</g>
</g>
<!-- Node7&#45;&gt;Node8 -->
<g id="edge7" class="edge">
<title>Node7&#45;&gt;Node8</title>
<path fill="none" stroke="midnightblue" d="M274.59,-389.48C248.12,-389.48 216.04,-389.48 195.1,-389.48"/>
<polygon fill="midnightblue" stroke="midnightblue" points="274.79,-392.98 284.79,-389.48 274.79,-385.98 274.79,-392.98"/>
</g>
<!-- Node9 -->
<g id="node9" class="node">
<title>Node9</title>
<g id="a_node9"><a xlink:href="alpaqa_8cpp.html#a52c00cccef0976f125d4a27f9906c36b" target="_top" xlink:title=" ">
<polygon fill="white" stroke="black" points="0,-379.98 0,-398.98 113,-398.98 113,-379.98 0,-379.98"/>
<text text-anchor="middle" x="56.5" y="-386.98" font-family="Helvetica,sans-Serif" font-size="10.00">PYBIND11_MODULE</text>
</a>
</g>
</g>
<!-- Node8&#45;&gt;Node9 -->
<g id="edge8" class="edge">
<title>Node8&#45;&gt;Node9</title>
<path fill="none" stroke="midnightblue" d="M138.8,-389.48C130.74,-389.48 121.86,-389.48 113.02,-389.48"/>
<polygon fill="midnightblue" stroke="midnightblue" points="138.85,-392.98 148.85,-389.48 138.85,-385.98 138.85,-392.98"/>
</g>
<!-- Node11 -->
<g id="node11" class="node">
<title>Node11</title>
<g id="a_node11"><a xlink:href="namespacepa_1_1detail.html#a384dd0255096b08c79472df49f7f9388" target="_top" xlink:title="Compute the Hessian matrix of the augmented Lagrangian function multiplied by the given vector,...">
<polygon fill="white" stroke="black" points="448,-625.48 448,-655.48 606,-655.48 606,-625.48 448,-625.48"/>
<text text-anchor="start" x="456" y="-643.48" font-family="Helvetica,sans-Serif" font-size="10.00">pa::detail::calc_augmented</text>
<text text-anchor="middle" x="527" y="-632.48" font-family="Helvetica,sans-Serif" font-size="10.00">_lagrangian_hessian_prod_fd</text>
</a>
</g>
</g>
<!-- Node10&#45;&gt;Node11 -->
<g id="edge10" class="edge">
<title>Node10&#45;&gt;Node11</title>
<path fill="none" stroke="midnightblue" d="M631.67,-636.96C623.29,-637.24 614.72,-637.53 606.27,-637.82"/>
<polygon fill="midnightblue" stroke="midnightblue" points="631.9,-640.45 641.78,-636.61 631.66,-633.46 631.9,-640.45"/>
</g>
<!-- Node12 -->
<g id="node12" class="node">
<title>Node12</title>
<g id="a_node12"><a xlink:href="namespacepa_1_1detail.html#a92963cadf7f44fcf9f3ab6bddff08796" target="_top" xlink:title="Estimate the Lipschitz constant of the gradient &#160;using finite differences.">
<polygon fill="white" stroke="black" points="471.5,-423.48 471.5,-453.48 582.5,-453.48 582.5,-423.48 471.5,-423.48"/>
<text text-anchor="start" x="479.5" y="-441.48" font-family="Helvetica,sans-Serif" font-size="10.00">pa::detail::initial</text>
<text text-anchor="middle" x="527" y="-430.48" font-family="Helvetica,sans-Serif" font-size="10.00">_lipschitz_estimate</text>
</a>
</g>
</g>
<!-- Node10&#45;&gt;Node12 -->
<g id="edge12" class="edge">
<title>Node10&#45;&gt;Node12</title>
<path fill="none" stroke="midnightblue" d="M686.8,-617.7C674.06,-605.44 656.62,-588.27 642,-572.48 603.39,-530.8 560.71,-478.95 540.25,-453.71"/>
<polygon fill="midnightblue" stroke="midnightblue" points="684.41,-620.26 694.06,-624.65 689.25,-615.2 684.41,-620.26"/>
</g>
<!-- Node11&#45;&gt;Node4 -->
<g id="edge11" class="edge">
<title>Node11&#45;&gt;Node4</title>
<path fill="none" stroke="midnightblue" d="M471.62,-621.54C463.55,-618.17 455.46,-614.45 448,-610.48 407.6,-588.97 364.84,-556.64 341.12,-537.74"/>
<polygon fill="midnightblue" stroke="midnightblue" points="470.44,-624.84 481.03,-625.34 473.06,-618.35 470.44,-624.84"/>
</g>
<!-- Node12&#45;&gt;Node3 -->
<g id="edge13" class="edge">
<title>Node12&#45;&gt;Node3</title>
<path fill="none" stroke="midnightblue" d="M461.24,-438.48C442.43,-438.48 421.67,-438.48 402.06,-438.48"/>
<polygon fill="midnightblue" stroke="midnightblue" points="461.47,-441.98 471.47,-438.48 461.47,-434.98 461.47,-441.98"/>
</g>
<!-- Node12&#45;&gt;Node4 -->
<g id="edge14" class="edge">
<title>Node12&#45;&gt;Node4</title>
<path fill="none" stroke="midnightblue" d="M480.15,-457.41C443.5,-472.54 392.82,-493.46 358.91,-507.45"/>
<polygon fill="midnightblue" stroke="midnightblue" points="481.71,-460.55 489.62,-453.5 479.04,-454.08 481.71,-460.55"/>
</g>
<!-- Node12&#45;&gt;Node5 -->
<g id="edge15" class="edge">
<title>Node12&#45;&gt;Node5</title>
<path fill="none" stroke="midnightblue" d="M461.8,-422.18C456.96,-419.93 452.3,-417.37 448,-414.48 427.03,-400.39 433.15,-384.3 412,-370.48 401.6,-363.69 389.36,-358.72 377.33,-355.09"/>
<polygon fill="midnightblue" stroke="midnightblue" points="460.68,-425.51 471.25,-426.16 463.39,-419.06 460.68,-425.51"/>
</g>
<!-- Node12&#45;&gt;Node6 -->
<g id="edge16" class="edge">
<title>Node12&#45;&gt;Node6</title>
<path fill="none" stroke="midnightblue" d="M462.05,-424.22C456.96,-421.52 452.18,-418.31 448,-414.48 416.81,-385.97 444.43,-353.57 412,-326.48 406.03,-321.49 399.06,-317.72 391.7,-314.87"/>
<polygon fill="midnightblue" stroke="midnightblue" points="460.93,-427.56 471.48,-428.56 463.86,-421.2 460.93,-427.56"/>
</g>
<!-- Node12&#45;&gt;Node7 -->
<g id="edge17" class="edge">
<title>Node12&#45;&gt;Node7</title>
<path fill="none" stroke="midnightblue" d="M461.56,-422.97C427.41,-414.74 386.75,-404.95 358.25,-398.09"/>
<polygon fill="midnightblue" stroke="midnightblue" points="460.92,-426.41 471.47,-425.35 462.56,-419.61 460.92,-426.41"/>
</g>
<!-- Node13&#45;&gt;Node3 -->
<g id="edge36" class="edge">
<title>Node13&#45;&gt;Node3</title>
<path fill="none" stroke="midnightblue" d="M844.24,-319.53C807.78,-358.82 710.76,-455.02 606,-489.48 539.29,-511.42 516.92,-502.95 448,-489.48 412.92,-482.63 375.25,-465.93 350.44,-453.5"/>
<polygon fill="midnightblue" stroke="midnightblue" points="846.92,-321.79 851.09,-312.05 841.75,-317.06 846.92,-321.79"/>
</g>
<!-- Node13&#45;&gt;Node4 -->
<g id="edge37" class="edge">
<title>Node13&#45;&gt;Node4</title>
<path fill="none" stroke="midnightblue" d="M851.77,-321.67C838.73,-351.93 809.76,-411.03 769,-447.48 709.13,-501.01 684.32,-507.71 606,-525.48 542.28,-539.94 468.41,-538.6 412.05,-533.95"/>
<polygon fill="midnightblue" stroke="midnightblue" points="855.08,-322.83 855.71,-312.25 848.62,-320.13 855.08,-322.83"/>
</g>
<!-- Node13&#45;&gt;Node5 -->
<g id="edge40" class="edge">
<title>Node13&#45;&gt;Node5</title>
<path fill="none" stroke="midnightblue" d="M809.57,-287.52C807.94,-286.28 806.41,-284.94 805,-283.48 767.99,-245.36 807.36,-206.25 769,-169.48 717.02,-119.66 503.22,-79.28 448,-125.48 378.4,-183.72 475.14,-261.29 412,-326.48 408.35,-330.25 404.16,-333.36 399.62,-335.92"/>
<polygon fill="midnightblue" stroke="midnightblue" points="807.94,-290.64 818.29,-292.91 811.62,-284.68 807.94,-290.64"/>
</g>
<!-- Node13&#45;&gt;Node6 -->
<g id="edge41" class="edge">
<title>Node13&#45;&gt;Node6</title>
<path fill="none" stroke="midnightblue" d="M808.72,-287.2C807.39,-286.05 806.15,-284.81 805,-283.48 748.64,-218.02 835.5,-147.62 769,-92.48 714.09,-46.95 505.81,-50.69 448,-92.48 406.65,-122.37 436.91,-156.96 412,-201.48 389.66,-241.42 351.18,-280.46 332.82,-297.94"/>
<polygon fill="midnightblue" stroke="midnightblue" points="806.81,-290.14 817.04,-292.89 810.76,-284.36 806.81,-290.14"/>
</g>
<!-- Node14 -->
<g id="node14" class="node">
<title>Node14</title>
<g id="a_node14"><a xlink:href="namespacepa_1_1detail.html#aa986daa1d5f0dfdbc75c143d2aae2919" target="_top" xlink:title="Calculate both ψ(x) and its gradient ∇ψ(x).">
<polygon fill="white" stroke="black" points="655.5,-243.48 655.5,-273.48 755.5,-273.48 755.5,-243.48 655.5,-243.48"/>
<text text-anchor="start" x="663.5" y="-261.48" font-family="Helvetica,sans-Serif" font-size="10.00">pa::detail::calc_ψ</text>
<text text-anchor="middle" x="705.5" y="-250.48" font-family="Helvetica,sans-Serif" font-size="10.00">_grad_ψ</text>
</a>
</g>
</g>
<!-- Node13&#45;&gt;Node14 -->
<g id="edge19" class="edge">
<title>Node13&#45;&gt;Node14</title>
<path fill="none" stroke="midnightblue" d="M816.46,-290.11C797.53,-284.66 775.2,-278.24 755.62,-272.61"/>
<polygon fill="midnightblue" stroke="midnightblue" points="815.72,-293.53 826.3,-292.94 817.66,-286.81 815.72,-293.53"/>
</g>
<!-- Node15 -->
<g id="node15" class="node">
<title>Node15</title>
<g id="a_node15"><a xlink:href="classpa_1_1PANOCSolver.html#aaa9758a40bd362331202fb232b4bb7ae" target="_top" xlink:title=" ">
<polygon fill="white" stroke="black" points="244.5,-172.98 244.5,-191.98 398.5,-191.98 398.5,-172.98 244.5,-172.98"/>
<text text-anchor="middle" x="321.5" y="-179.98" font-family="Helvetica,sans-Serif" font-size="10.00">pa::PANOCSolver::operator()</text>
</a>
</g>
</g>
<!-- Node13&#45;&gt;Node15 -->
<g id="edge35" class="edge">
<title>Node13&#45;&gt;Node15</title>
<path fill="none" stroke="midnightblue" d="M808.24,-286.86C807.09,-285.81 806,-284.68 805,-283.48 739.48,-205.11 846.68,-122.82 769,-56.48 660.51,36.16 579.75,-1.76 448,-56.48 389.26,-80.88 343.79,-147.6 328.27,-172.73"/>
<polygon fill="midnightblue" stroke="midnightblue" points="806.49,-289.91 816.67,-292.84 810.54,-284.2 806.49,-289.91"/>
</g>
<!-- Node16 -->
<g id="node16" class="node">
<title>Node16</title>
<g id="a_node16"><a xlink:href="classpa_1_1LBFGSSolver.html#a8540540028b02dfe8b7e3ec0c49c07dd" target="_top" xlink:title=" ">
<polygon fill="white" stroke="black" points="451,-134.98 451,-153.98 603,-153.98 603,-134.98 451,-134.98"/>
<text text-anchor="middle" x="527" y="-141.98" font-family="Helvetica,sans-Serif" font-size="10.00">pa::LBFGSSolver::operator()</text>
</a>
</g>
</g>
<!-- Node13&#45;&gt;Node16 -->
<g id="edge38" class="edge">
<title>Node13&#45;&gt;Node16</title>
<path fill="none" stroke="midnightblue" d="M812.99,-288.53C810.19,-287.01 807.5,-285.33 805,-283.48 783.27,-267.42 790.56,-250.78 769,-234.48 710.75,-190.45 628.6,-165.95 576.84,-153.99"/>
<polygon fill="midnightblue" stroke="midnightblue" points="811.68,-291.78 822.22,-292.88 814.67,-285.45 811.68,-291.78"/>
</g>
<!-- Node17 -->
<g id="node17" class="node">
<title>Node17</title>
<g id="a_node17"><a xlink:href="classpa_1_1LBFGSBSolver.html#a8540540028b02dfe8b7e3ec0c49c07dd" target="_top" xlink:title=" ">
<polygon fill="white" stroke="black" points="448,-286.98 448,-305.98 606,-305.98 606,-286.98 448,-286.98"/>
<text text-anchor="middle" x="527" y="-293.98" font-family="Helvetica,sans-Serif" font-size="10.00">pa::LBFGSBSolver::operator()</text>
</a>
</g>
</g>
<!-- Node13&#45;&gt;Node17 -->
<g id="edge39" class="edge">
<title>Node13&#45;&gt;Node17</title>
<path fill="none" stroke="midnightblue" d="M794.61,-301.31C740.58,-300.33 663.48,-298.93 606.08,-297.9"/>
<polygon fill="midnightblue" stroke="midnightblue" points="794.7,-304.81 804.76,-301.49 794.82,-297.81 794.7,-304.81"/>
</g>
<!-- Node18 -->
<g id="node18" class="node">
<title>Node18</title>
<g id="a_node18"><a xlink:href="namespacepa_1_1detail.html#ac7d4fa127500b38a8cec94984c4f598d" target="_top" xlink:title="Increase the estimate of the Lipschitz constant of the objective gradient and decrease the step size ...">
<polygon fill="white" stroke="black" points="473.5,-325.48 473.5,-355.48 580.5,-355.48 580.5,-325.48 473.5,-325.48"/>
<text text-anchor="start" x="481.5" y="-343.48" font-family="Helvetica,sans-Serif" font-size="10.00">pa::detail::descent</text>
<text text-anchor="middle" x="527" y="-332.48" font-family="Helvetica,sans-Serif" font-size="10.00">_lemma</text>
</a>
</g>
</g>
<!-- Node13&#45;&gt;Node18 -->
<g id="edge28" class="edge">
<title>Node13&#45;&gt;Node18</title>
<path fill="none" stroke="midnightblue" d="M794.84,-310.42C786.15,-311.46 777.36,-312.51 769,-313.48 704.18,-321.05 629.51,-329.35 580.67,-334.73"/>
<polygon fill="midnightblue" stroke="midnightblue" points="795.44,-313.87 804.95,-309.2 794.61,-306.92 795.44,-313.87"/>
</g>
<!-- Node14&#45;&gt;Node3 -->
<g id="edge22" class="edge">
<title>Node14&#45;&gt;Node3</title>
<path fill="none" stroke="midnightblue" d="M701.04,-283.53C693.29,-328.81 669.9,-423.29 606,-463.48 527.58,-512.81 411.95,-476.47 355.69,-453.49"/>
<polygon fill="midnightblue" stroke="midnightblue" points="704.5,-284.07 702.62,-273.64 697.59,-282.97 704.5,-284.07"/>
</g>
<!-- Node14&#45;&gt;Node4 -->
<g id="edge23" class="edge">
<title>Node14&#45;&gt;Node4</title>
<path fill="none" stroke="midnightblue" d="M701.87,-283.78C695.35,-332.47 673.69,-438.89 606,-489.48 551.03,-530.57 472.56,-536.86 412.1,-533.97"/>
<polygon fill="midnightblue" stroke="midnightblue" points="705.36,-284.12 703.11,-273.77 698.41,-283.27 705.36,-284.12"/>
</g>
<!-- Node14&#45;&gt;Node5 -->
<g id="edge26" class="edge">
<title>Node14&#45;&gt;Node5</title>
<path fill="none" stroke="midnightblue" d="M645.01,-249.42C590.32,-244.07 508.74,-243.86 448,-277.48 424.36,-290.57 434.7,-311.83 412,-326.48 405.99,-330.36 399.33,-333.46 392.44,-335.94"/>
<polygon fill="midnightblue" stroke="midnightblue" points="644.92,-252.93 655.24,-250.51 645.67,-245.97 644.92,-252.93"/>
</g>
<!-- Node14&#45;&gt;Node6 -->
<g id="edge27" class="edge">
<title>Node14&#45;&gt;Node6</title>
<path fill="none" stroke="midnightblue" d="M644.91,-245.75C592.37,-236.76 514.11,-228.82 448,-244.48 404.35,-254.82 358.61,-282.85 336.34,-297.79"/>
<polygon fill="midnightblue" stroke="midnightblue" points="644.61,-249.25 655.07,-247.56 645.83,-242.36 644.61,-249.25"/>
</g>
<!-- Node14&#45;&gt;Node12 -->
<g id="edge20" class="edge">
<title>Node14&#45;&gt;Node12</title>
<path fill="none" stroke="midnightblue" d="M695.34,-283.23C681.35,-317.68 651.38,-379.76 606,-414.48 599.14,-419.73 591.11,-423.85 582.88,-427.06"/>
<polygon fill="midnightblue" stroke="midnightblue" points="698.61,-284.47 699.02,-273.89 692.1,-281.91 698.61,-284.47"/>
</g>
<!-- Node14&#45;&gt;Node15 -->
<g id="edge21" class="edge">
<title>Node14&#45;&gt;Node15</title>
<path fill="none" stroke="midnightblue" d="M645.62,-241.35C632.63,-237.85 618.89,-234.36 606,-231.48 531.9,-214.96 445.85,-200.79 388.16,-191.99"/>
<polygon fill="midnightblue" stroke="midnightblue" points="644.81,-244.76 655.38,-244.02 646.66,-238 644.81,-244.76"/>
</g>
<!-- Node14&#45;&gt;Node16 -->
<g id="edge24" class="edge">
<title>Node14&#45;&gt;Node16</title>
<path fill="none" stroke="midnightblue" d="M684.97,-235.63C666.51,-215.35 637.07,-186.25 606,-168.48 595.3,-162.36 582.86,-157.63 571.11,-154.05"/>
<polygon fill="midnightblue" stroke="midnightblue" points="682.46,-238.07 691.73,-243.2 687.68,-233.41 682.46,-238.07"/>
</g>
<!-- Node14&#45;&gt;Node17 -->
<g id="edge25" class="edge">
<title>Node14&#45;&gt;Node17</title>
<path fill="none" stroke="midnightblue" d="M645.34,-271.22C621.5,-276.35 594.48,-282.17 572.38,-286.93"/>
<polygon fill="midnightblue" stroke="midnightblue" points="646.3,-274.59 655.33,-269.07 644.82,-267.75 646.3,-274.59"/>
</g>
<!-- Node18&#45;&gt;Node3 -->
<g id="edge30" class="edge">
<title>Node18&#45;&gt;Node3</title>
<path fill="none" stroke="midnightblue" d="M463.86,-356.76C458.29,-359.29 452.91,-362.18 448,-365.48 427.32,-379.39 432.59,-394.44 412,-408.48 403.2,-414.48 393.1,-419.37 382.92,-423.33"/>
<polygon fill="midnightblue" stroke="midnightblue" points="465.43,-359.9 473.34,-352.85 462.76,-353.43 465.43,-359.9"/>
</g>
<!-- Node18&#45;&gt;Node4 -->
<g id="edge31" class="edge">
<title>Node18&#45;&gt;Node4</title>
<path fill="none" stroke="midnightblue" d="M463.9,-354.35C458.09,-357.36 452.65,-361.03 448,-365.48 414.51,-397.6 440.81,-427.11 412,-463.48 396.98,-482.45 374.13,-497.36 355.28,-507.46"/>
<polygon fill="midnightblue" stroke="midnightblue" points="465.59,-357.43 473.28,-350.14 462.72,-351.05 465.59,-357.43"/>
</g>
<!-- Node18&#45;&gt;Node5 -->
<g id="edge32" class="edge">
<title>Node18&#45;&gt;Node5</title>
<path fill="none" stroke="midnightblue" d="M463.17,-342.03C443.91,-342.5 422.45,-343.03 402.21,-343.52"/>
<polygon fill="midnightblue" stroke="midnightblue" points="463.42,-345.52 473.33,-341.78 463.25,-338.52 463.42,-345.52"/>
</g>
<!-- Node18&#45;&gt;Node6 -->
<g id="edge33" class="edge">
<title>Node18&#45;&gt;Node6</title>
<path fill="none" stroke="midnightblue" d="M463.18,-330.3C437.12,-326.07 407.05,-321.19 381.41,-317.04"/>
<polygon fill="midnightblue" stroke="midnightblue" points="462.9,-333.8 473.33,-331.94 464.02,-326.89 462.9,-333.8"/>
</g>
<!-- Node18&#45;&gt;Node7 -->
<g id="edge34" class="edge">
<title>Node18&#45;&gt;Node7</title>
<path fill="none" stroke="midnightblue" d="M463.34,-355.57C428.85,-363.88 387.29,-373.88 358.29,-380.87"/>
<polygon fill="midnightblue" stroke="midnightblue" points="464.43,-358.91 473.33,-353.16 462.79,-352.1 464.43,-358.91"/>
</g>
<!-- Node18&#45;&gt;Node15 -->
<g id="edge29" class="edge">
<title>Node18&#45;&gt;Node15</title>
<path fill="none" stroke="midnightblue" d="M463.8,-323.78C458.29,-321.34 452.93,-318.59 448,-315.48 392.94,-280.79 345.58,-216.37 328.9,-192.08"/>
<polygon fill="midnightblue" stroke="midnightblue" points="462.6,-327.07 473.18,-327.58 465.23,-320.58 462.6,-327.07"/>
</g>
</g>
</svg>
