<?xml version="1.0" encoding="UTF-8" standalone="no"?>
<!DOCTYPE svg PUBLIC "-//W3C//DTD SVG 1.1//EN"
 "http://www.w3.org/Graphics/SVG/1.1/DTD/svg11.dtd">
<!-- Generated by graphviz version 2.43.0 (0)
 -->
<!-- Title: generate_and_compile_casadi_problem Pages: 1 -->
<svg width="315pt" height="84pt"
 viewBox="0.00 0.00 315.00 84.00" xmlns="http://www.w3.org/2000/svg" xmlns:xlink="http://www.w3.org/1999/xlink">
<g id="graph0" class="graph" transform="scale(1 1) rotate(0) translate(4 80)">
<title>generate_and_compile_casadi_problem</title>
<polygon fill="white" stroke="transparent" points="-4,4 -4,-80 311,-80 311,4 -4,4"/>
<!-- Node1 -->
<g id="node1" class="node">
<title>Node1</title>
<g id="a_node1"><a xlink:title=" ">
<polygon fill="#bfbfbf" stroke="black" points="0,-14 0,-44 128,-44 128,-14 0,-14"/>
<text text-anchor="start" x="8" y="-32" font-family="Helvetica,sans-Serif" font-size="10.00">generate_and_compile</text>
<text text-anchor="middle" x="64" y="-21" font-family="Helvetica,sans-Serif" font-size="10.00">_casadi_problem</text>
</a>
</g>
</g>
<!-- Node1&#45;&gt;Node1 -->
<g id="edge1" class="edge">
<title>Node1&#45;&gt;Node1</title>
<path fill="none" stroke="midnightblue" d="M34.37,-44.16C27.23,-53.56 37.11,-62.5 64,-62.5 80.39,-62.5 90.46,-59.18 94.21,-54.46"/>
<polygon fill="midnightblue" stroke="midnightblue" points="97.68,-53.95 93.63,-44.16 90.69,-54.34 97.68,-53.95"/>
</g>
<!-- Node2 -->
<g id="node2" class="node">
<title>Node2</title>
<g id="a_node2"><a xlink:href="namespacealpaqa_1_1casadi__problem.html#ab715b05b3375ddee59eb4b18a63cd8cb" target="_top" xlink:title=" ">
<polygon fill="white" stroke="black" points="164,-38.5 164,-57.5 307,-57.5 307,-38.5 164,-38.5"/>
<text text-anchor="middle" x="235.5" y="-45.5" font-family="Helvetica,sans-Serif" font-size="10.00">generate_casadi_problem</text>
</a>
</g>
</g>
<!-- Node1&#45;&gt;Node2 -->
<g id="edge2" class="edge">
<title>Node1&#45;&gt;Node2</title>
<path fill="none" stroke="midnightblue" d="M128.12,-36.07C136.5,-37.02 145.2,-37.99 153.83,-38.96"/>
<polygon fill="midnightblue" stroke="midnightblue" points="153.59,-42.45 163.92,-40.09 154.37,-35.5 153.59,-42.45"/>
</g>
<!-- Node3 -->
<g id="node3" class="node">
<title>Node3</title>
<g id="a_node3"><a xlink:href="namespacepa.html#a5414901c2fb62f1fd47857642964cc71" target="_top" xlink:title="Project a vector onto a box.">
<polygon fill="white" stroke="black" points="201.5,-0.5 201.5,-19.5 269.5,-19.5 269.5,-0.5 201.5,-0.5"/>
<text text-anchor="middle" x="235.5" y="-7.5" font-family="Helvetica,sans-Serif" font-size="10.00">pa::project</text>
</a>
</g>
</g>
<!-- Node1&#45;&gt;Node3 -->
<g id="edge4" class="edge">
<title>Node1&#45;&gt;Node3</title>
<path fill="none" stroke="midnightblue" d="M128.12,-21.93C149.18,-19.56 172.15,-16.99 191.34,-14.84"/>
<polygon fill="midnightblue" stroke="midnightblue" points="191.74,-18.31 201.29,-13.72 190.96,-11.36 191.74,-18.31"/>
</g>
<!-- Node2&#45;&gt;Node2 -->
<g id="edge3" class="edge">
<title>Node2&#45;&gt;Node2</title>
<path fill="none" stroke="midnightblue" d="M209.3,-57.76C196.55,-66.57 205.29,-76 235.5,-76 255.8,-76 266.4,-71.74 267.31,-66.27"/>
<polygon fill="midnightblue" stroke="midnightblue" points="270.13,-64.18 261.7,-57.76 264.28,-68.03 270.13,-64.18"/>
</g>
</g>
</svg>
