<?xml version="1.0" encoding="UTF-8" standalone="no"?>
<!DOCTYPE svg PUBLIC "-//W3C//DTD SVG 1.1//EN"
 "http://www.w3.org/Graphics/SVG/1.1/DTD/svg11.dtd">
<!-- Generated by graphviz version 2.43.0 (0)
 -->
<!-- Title: panoc_impl Pages: 1 -->
<svg width="817pt" height="342pt"
 viewBox="0.00 0.00 817.00 341.50" xmlns="http://www.w3.org/2000/svg" xmlns:xlink="http://www.w3.org/1999/xlink">
<g id="graph0" class="graph" transform="scale(1 1) rotate(0) translate(4 337.5)">
<title>panoc_impl</title>
<polygon fill="white" stroke="transparent" points="-4,4 -4,-337.5 813,-337.5 813,4 -4,4"/>
<!-- Node1 -->
<g id="node1" class="node">
<title>Node1</title>
<g id="a_node1"><a xlink:title=" ">
<polygon fill="#bfbfbf" stroke="black" points="0,-154.5 0,-173.5 73,-173.5 73,-154.5 0,-154.5"/>
<text text-anchor="middle" x="36.5" y="-161.5" font-family="Helvetica,sans-Serif" font-size="10.00">panoc_impl</text>
</a>
</g>
</g>
<!-- Node2 -->
<g id="node2" class="node">
<title>Node2</title>
<g id="a_node2"><a xlink:href="classpa_1_1vec__allocator.html#afa36e1f076dd1627a83324e717038836" target="_top" xlink:title=" ">
<polygon fill="white" stroke="black" points="125,-303 125,-333 231,-333 231,-303 125,-303"/>
<text text-anchor="start" x="133" y="-321" font-family="Helvetica,sans-Serif" font-size="10.00">pa::vec_allocator::</text>
<text text-anchor="middle" x="178" y="-310" font-family="Helvetica,sans-Serif" font-size="10.00">alloc</text>
</a>
</g>
</g>
<!-- Node1&#45;&gt;Node2 -->
<g id="edge1" class="edge">
<title>Node1&#45;&gt;Node2</title>
<path fill="none" stroke="midnightblue" d="M40.72,-173.75C48.73,-196.65 71.65,-254.46 109,-288 113.14,-291.72 117.82,-295.03 122.73,-297.98"/>
<polygon fill="midnightblue" stroke="midnightblue" points="121.3,-301.19 131.76,-302.88 124.64,-295.04 121.3,-301.19"/>
</g>
<!-- Node3 -->
<g id="node3" class="node">
<title>Node3</title>
<g id="a_node3"><a xlink:href="namespacepa_1_1detail.html#ad4d033d8e69bebca614098fa2df0a4a1" target="_top" xlink:title="Compute the ε from the stopping criterion, see PANOCStopCrit.">
<polygon fill="white" stroke="black" points="288.5,-259 288.5,-289 404.5,-289 404.5,-259 288.5,-259"/>
<text text-anchor="start" x="296.5" y="-277" font-family="Helvetica,sans-Serif" font-size="10.00">pa::detail::calc_error</text>
<text text-anchor="middle" x="346.5" y="-266" font-family="Helvetica,sans-Serif" font-size="10.00">_stop_crit</text>
</a>
</g>
</g>
<!-- Node1&#45;&gt;Node3 -->
<g id="edge2" class="edge">
<title>Node1&#45;&gt;Node3</title>
<path fill="none" stroke="midnightblue" d="M41.72,-173.58C50.82,-192.93 74.3,-236.38 109,-255 160.95,-282.88 228.75,-285.52 278.42,-282.43"/>
<polygon fill="midnightblue" stroke="midnightblue" points="278.7,-285.92 288.42,-281.72 278.2,-278.94 278.7,-285.92"/>
</g>
<!-- Node9 -->
<g id="node9" class="node">
<title>Node9</title>
<g id="a_node9"><a xlink:href="namespacepa_1_1detail.html#ac32d0e6b012b801731e55225b7505fa9" target="_top" xlink:title=" ">
<polygon fill="white" stroke="black" points="297,-171.5 297,-190.5 396,-190.5 396,-171.5 297,-171.5"/>
<text text-anchor="middle" x="346.5" y="-178.5" font-family="Helvetica,sans-Serif" font-size="10.00">pa::detail::calc_x̂</text>
</a>
</g>
</g>
<!-- Node1&#45;&gt;Node9 -->
<g id="edge8" class="edge">
<title>Node1&#45;&gt;Node9</title>
<path fill="none" stroke="midnightblue" d="M73.13,-165.97C125.41,-168.85 223.5,-174.27 286.6,-177.75"/>
<polygon fill="midnightblue" stroke="midnightblue" points="286.62,-181.26 296.8,-178.31 287.01,-174.27 286.62,-181.26"/>
</g>
<!-- Node10 -->
<g id="node10" class="node">
<title>Node10</title>
<g id="a_node10"><a xlink:href="namespacepa_1_1detail.html#aa916ebec71616d1d0379aaaaca02fc19" target="_top" xlink:title="Check all stop conditions (required tolerance reached, out of time, maximum number of iterations exce...">
<polygon fill="white" stroke="black" points="121,-215 121,-245 235,-245 235,-215 121,-215"/>
<text text-anchor="start" x="129" y="-233" font-family="Helvetica,sans-Serif" font-size="10.00">pa::detail::check_all</text>
<text text-anchor="middle" x="178" y="-222" font-family="Helvetica,sans-Serif" font-size="10.00">_stop_conditions</text>
</a>
</g>
</g>
<!-- Node1&#45;&gt;Node10 -->
<g id="edge10" class="edge">
<title>Node1&#45;&gt;Node10</title>
<path fill="none" stroke="midnightblue" d="M55.89,-173.58C70.26,-180.99 90.78,-191.4 109,-200 116.63,-203.6 124.8,-207.32 132.74,-210.86"/>
<polygon fill="midnightblue" stroke="midnightblue" points="131.34,-214.07 141.9,-214.92 134.18,-207.67 131.34,-214.07"/>
</g>
<!-- Node12 -->
<g id="node12" class="node">
<title>Node12</title>
<g id="a_node12"><a xlink:href="namespacepa_1_1detail.html#ac7d4fa127500b38a8cec94984c4f598d" target="_top" xlink:title="Increase the estimate of the Lipschitz constant of the objective gradient and decrease the step size ...">
<polygon fill="white" stroke="black" points="124.5,-127 124.5,-157 231.5,-157 231.5,-127 124.5,-127"/>
<text text-anchor="start" x="132.5" y="-145" font-family="Helvetica,sans-Serif" font-size="10.00">pa::detail::descent</text>
<text text-anchor="middle" x="178" y="-134" font-family="Helvetica,sans-Serif" font-size="10.00">_lemma</text>
</a>
</g>
</g>
<!-- Node1&#45;&gt;Node12 -->
<g id="edge12" class="edge">
<title>Node1&#45;&gt;Node12</title>
<path fill="none" stroke="midnightblue" d="M73.06,-158.39C85.6,-156.41 100.09,-154.13 114.2,-151.9"/>
<polygon fill="midnightblue" stroke="midnightblue" points="115.05,-155.31 124.38,-150.3 113.96,-148.4 115.05,-155.31"/>
</g>
<!-- Node14 -->
<g id="node14" class="node">
<title>Node14</title>
<g id="a_node14"><a xlink:href="classpa_1_1vec__allocator.html#a455bb0797853d67addd58875c671acef" target="_top" xlink:title=" ">
<polygon fill="white" stroke="black" points="115.5,-88.5 115.5,-107.5 240.5,-107.5 240.5,-88.5 115.5,-88.5"/>
<text text-anchor="middle" x="178" y="-95.5" font-family="Helvetica,sans-Serif" font-size="10.00">pa::vec_allocator::free</text>
</a>
</g>
</g>
<!-- Node1&#45;&gt;Node14 -->
<g id="edge16" class="edge">
<title>Node1&#45;&gt;Node14</title>
<path fill="none" stroke="midnightblue" d="M50.04,-154.35C63.83,-144.11 86.99,-128.07 109,-118 114.88,-115.31 121.2,-112.89 127.54,-110.73"/>
<polygon fill="midnightblue" stroke="midnightblue" points="129.01,-113.94 137.47,-107.56 126.88,-107.27 129.01,-113.94"/>
</g>
<!-- Node15 -->
<g id="node15" class="node">
<title>Node15</title>
<g id="a_node15"><a xlink:href="namespacepa_1_1detail.html#a92963cadf7f44fcf9f3ab6bddff08796" target="_top" xlink:title="Estimate the Lipschitz constant of the gradient &#160;using finite differences.">
<polygon fill="white" stroke="black" points="122.5,-39 122.5,-69 233.5,-69 233.5,-39 122.5,-39"/>
<text text-anchor="start" x="130.5" y="-57" font-family="Helvetica,sans-Serif" font-size="10.00">pa::detail::initial</text>
<text text-anchor="middle" x="178" y="-46" font-family="Helvetica,sans-Serif" font-size="10.00">_lipschitz_estimate</text>
</a>
</g>
</g>
<!-- Node1&#45;&gt;Node15 -->
<g id="edge17" class="edge">
<title>Node1&#45;&gt;Node15</title>
<path fill="none" stroke="midnightblue" d="M43.16,-154.44C53.89,-137.06 78.85,-100.16 109,-79 111.73,-77.09 114.62,-75.3 117.61,-73.64"/>
<polygon fill="midnightblue" stroke="midnightblue" points="119.47,-76.62 126.83,-69.01 116.32,-70.37 119.47,-76.62"/>
</g>
<!-- Node19 -->
<g id="node19" class="node">
<title>Node19</title>
<g id="a_node19"><a xlink:href="namespacepa_1_1detail.html#aea72ee13ae482d948d1b994deb457578" target="_top" xlink:title=" ">
<polygon fill="white" stroke="black" points="109,-0.5 109,-19.5 247,-19.5 247,-0.5 109,-0.5"/>
<text text-anchor="middle" x="178" y="-7.5" font-family="Helvetica,sans-Serif" font-size="10.00">pa::detail::print_progress</text>
</a>
</g>
</g>
<!-- Node1&#45;&gt;Node19 -->
<g id="edge23" class="edge">
<title>Node1&#45;&gt;Node19</title>
<path fill="none" stroke="midnightblue" d="M39.75,-154.48C46.08,-129.8 66.45,-63.27 109,-29 111.16,-27.26 113.48,-25.68 115.89,-24.24"/>
<polygon fill="midnightblue" stroke="midnightblue" points="117.68,-27.26 125.04,-19.64 114.53,-21 117.68,-27.26"/>
</g>
<!-- Node4 -->
<g id="node4" class="node">
<title>Node4</title>
<g id="a_node4"><a xlink:href="namespacepa_1_1vec__util.html#a9fe5014a9c51ca2202dc5d526dce6823" target="_top" xlink:title="Get the 1&#45;norm of the given vector.">
<polygon fill="white" stroke="black" points="449,-301.5 449,-320.5 565,-320.5 565,-301.5 449,-301.5"/>
<text text-anchor="middle" x="507" y="-308.5" font-family="Helvetica,sans-Serif" font-size="10.00">pa::vec_util::norm_1</text>
</a>
</g>
</g>
<!-- Node3&#45;&gt;Node4 -->
<g id="edge3" class="edge">
<title>Node3&#45;&gt;Node4</title>
<path fill="none" stroke="midnightblue" d="M404.72,-287.36C421.32,-291.23 439.31,-295.43 455.47,-299.2"/>
<polygon fill="midnightblue" stroke="midnightblue" points="454.73,-302.62 465.26,-301.49 456.32,-295.81 454.73,-302.62"/>
</g>
<!-- Node5 -->
<g id="node5" class="node">
<title>Node5</title>
<g id="a_node5"><a xlink:href="namespacepa_1_1vec__util.html#af8e650634ec3d7b82a78a4d313632ed0" target="_top" xlink:title="Get the maximum or infinity&#45;norm of the given vector.">
<polygon fill="white" stroke="black" points="446,-263.5 446,-282.5 568,-282.5 568,-263.5 446,-263.5"/>
<text text-anchor="middle" x="507" y="-270.5" font-family="Helvetica,sans-Serif" font-size="10.00">pa::vec_util::norm_inf</text>
</a>
</g>
</g>
<!-- Node3&#45;&gt;Node5 -->
<g id="edge4" class="edge">
<title>Node3&#45;&gt;Node5</title>
<path fill="none" stroke="midnightblue" d="M404.72,-273.64C414.76,-273.58 425.32,-273.51 435.67,-273.44"/>
<polygon fill="midnightblue" stroke="midnightblue" points="435.94,-276.94 445.92,-273.38 435.9,-269.94 435.94,-276.94"/>
</g>
<!-- Node6 -->
<g id="node6" class="node">
<title>Node6</title>
<g id="a_node6"><a xlink:href="namespacepa_1_1detail.html#a8ed4d487878856942843707b5a131b85" target="_top" xlink:title="Projected gradient step.">
<polygon fill="white" stroke="black" points="450,-174 450,-204 564,-204 564,-174 450,-174"/>
<text text-anchor="start" x="458" y="-192" font-family="Helvetica,sans-Serif" font-size="10.00">pa::detail::projected</text>
<text text-anchor="middle" x="507" y="-181" font-family="Helvetica,sans-Serif" font-size="10.00">_gradient_step</text>
</a>
</g>
</g>
<!-- Node3&#45;&gt;Node6 -->
<g id="edge5" class="edge">
<title>Node3&#45;&gt;Node6</title>
<path fill="none" stroke="midnightblue" d="M392.06,-258.98C398.24,-256.3 404.39,-253.29 410,-250 427.96,-239.46 428.65,-231.51 446,-220 451.78,-216.17 458.09,-212.45 464.37,-209"/>
<polygon fill="midnightblue" stroke="midnightblue" points="466.31,-211.94 473.5,-204.16 463.03,-205.75 466.31,-211.94"/>
</g>
<!-- Node7 -->
<g id="node7" class="node">
<title>Node7</title>
<g id="a_node7"><a xlink:href="namespacepa.html#aee505a26e46aa4c0ce09d0fed72f0dac" target="_top" xlink:title="Get the difference between the given vector and its projection.">
<polygon fill="white" stroke="black" points="604,-132.5 604,-151.5 723,-151.5 723,-132.5 604,-132.5"/>
<text text-anchor="middle" x="663.5" y="-139.5" font-family="Helvetica,sans-Serif" font-size="10.00">projecting_difference</text>
</a>
</g>
</g>
<!-- Node3&#45;&gt;Node7 -->
<g id="edge6" class="edge">
<title>Node3&#45;&gt;Node7</title>
<path fill="none" stroke="midnightblue" d="M404.74,-261.06C460.03,-248.1 539.45,-228.09 568,-214 597.67,-199.36 627.27,-174.79 645.23,-158.49"/>
<polygon fill="midnightblue" stroke="midnightblue" points="647.66,-161.01 652.62,-151.65 642.91,-155.87 647.66,-161.01"/>
</g>
<!-- Node8 -->
<g id="node8" class="node">
<title>Node8</title>
<g id="a_node8"><a xlink:href="namespacepa.html#a5414901c2fb62f1fd47857642964cc71" target="_top" xlink:title="Project a vector onto a box.">
<polygon fill="white" stroke="black" points="759,-132.5 759,-151.5 809,-151.5 809,-132.5 759,-132.5"/>
<text text-anchor="middle" x="784" y="-139.5" font-family="Helvetica,sans-Serif" font-size="10.00">project</text>
</a>
</g>
</g>
<!-- Node7&#45;&gt;Node8 -->
<g id="edge7" class="edge">
<title>Node7&#45;&gt;Node8</title>
<path fill="none" stroke="midnightblue" d="M723.06,-142C731.89,-142 740.75,-142 748.85,-142"/>
<polygon fill="midnightblue" stroke="midnightblue" points="748.98,-145.5 758.98,-142 748.98,-138.5 748.98,-145.5"/>
</g>
<!-- Node9&#45;&gt;Node6 -->
<g id="edge9" class="edge">
<title>Node9&#45;&gt;Node6</title>
<path fill="none" stroke="midnightblue" d="M396.35,-183.47C409.96,-184.15 424.99,-184.91 439.43,-185.64"/>
<polygon fill="midnightblue" stroke="midnightblue" points="439.66,-189.16 449.82,-186.16 440.01,-182.16 439.66,-189.16"/>
</g>
<!-- Node11 -->
<g id="node11" class="node">
<title>Node11</title>
<g id="a_node11"><a xlink:href="classpa_1_1AtomicStopSignal.html#aa0097deccc19b49f8ab5344d8d6d5cf6" target="_top" xlink:title=" ">
<polygon fill="white" stroke="black" points="286,-210 286,-240 407,-240 407,-210 286,-210"/>
<text text-anchor="start" x="294" y="-228" font-family="Helvetica,sans-Serif" font-size="10.00">pa::AtomicStopSignal</text>
<text text-anchor="middle" x="346.5" y="-217" font-family="Helvetica,sans-Serif" font-size="10.00">::stop_requested</text>
</a>
</g>
</g>
<!-- Node10&#45;&gt;Node11 -->
<g id="edge11" class="edge">
<title>Node10&#45;&gt;Node11</title>
<path fill="none" stroke="midnightblue" d="M235.37,-228.31C248.3,-227.92 262.2,-227.5 275.62,-227.1"/>
<polygon fill="midnightblue" stroke="midnightblue" points="275.88,-230.59 285.77,-226.79 275.67,-223.6 275.88,-230.59"/>
</g>
<!-- Node12&#45;&gt;Node9 -->
<g id="edge13" class="edge">
<title>Node12&#45;&gt;Node9</title>
<path fill="none" stroke="midnightblue" d="M231.68,-154.34C251.89,-159.07 274.9,-164.46 294.91,-169.15"/>
<polygon fill="midnightblue" stroke="midnightblue" points="294.23,-172.59 304.77,-171.46 295.83,-165.77 294.23,-172.59"/>
</g>
<!-- Node13 -->
<g id="node13" class="node">
<title>Node13</title>
<g id="a_node13"><a xlink:href="namespacepa_1_1detail.html#a82a03662e6ce5bcfd57ee2df719aec21" target="_top" xlink:title="Calculate both ψ(x) and the vector ŷ that can later be used to compute ∇ψ.">
<polygon fill="white" stroke="black" points="451.5,-132.5 451.5,-151.5 562.5,-151.5 562.5,-132.5 451.5,-132.5"/>
<text text-anchor="middle" x="507" y="-139.5" font-family="Helvetica,sans-Serif" font-size="10.00">pa::detail::calc_ψ_ŷ</text>
</a>
</g>
</g>
<!-- Node12&#45;&gt;Node13 -->
<g id="edge14" class="edge">
<title>Node12&#45;&gt;Node13</title>
<path fill="none" stroke="midnightblue" d="M231.54,-142C288.54,-142 379.61,-142 441.06,-142"/>
<polygon fill="midnightblue" stroke="midnightblue" points="441.41,-145.5 451.41,-142 441.41,-138.5 441.41,-145.5"/>
</g>
<!-- Node13&#45;&gt;Node7 -->
<g id="edge15" class="edge">
<title>Node13&#45;&gt;Node7</title>
<path fill="none" stroke="midnightblue" d="M562.91,-142C572.86,-142 583.35,-142 593.65,-142"/>
<polygon fill="midnightblue" stroke="midnightblue" points="593.84,-145.5 603.84,-142 593.84,-138.5 593.84,-145.5"/>
</g>
<!-- Node16 -->
<g id="node16" class="node">
<title>Node16</title>
<g id="a_node16"><a xlink:href="namespacepa_1_1detail.html#a6572cf745448d2b40e9d5e977d17d5e2" target="_top" xlink:title="Calculate the gradient ∇ψ(x).">
<polygon fill="white" stroke="black" points="283,-44.5 283,-63.5 410,-63.5 410,-44.5 283,-44.5"/>
<text text-anchor="middle" x="346.5" y="-51.5" font-family="Helvetica,sans-Serif" font-size="10.00">pa::detail::calc_grad_ψ</text>
</a>
</g>
</g>
<!-- Node15&#45;&gt;Node16 -->
<g id="edge18" class="edge">
<title>Node15&#45;&gt;Node16</title>
<path fill="none" stroke="midnightblue" d="M233.52,-54C245.94,-54 259.34,-54 272.39,-54"/>
<polygon fill="midnightblue" stroke="midnightblue" points="272.77,-57.5 282.77,-54 272.77,-50.5 272.77,-57.5"/>
</g>
<!-- Node17 -->
<g id="node17" class="node">
<title>Node17</title>
<g id="a_node17"><a xlink:href="namespacepa_1_1detail.html#aa986daa1d5f0dfdbc75c143d2aae2919" target="_top" xlink:title="Calculate both ψ(x) and its gradient ∇ψ(x).">
<polygon fill="white" stroke="black" points="296.5,-83 296.5,-113 396.5,-113 396.5,-83 296.5,-83"/>
<text text-anchor="start" x="304.5" y="-101" font-family="Helvetica,sans-Serif" font-size="10.00">pa::detail::calc_ψ</text>
<text text-anchor="middle" x="346.5" y="-90" font-family="Helvetica,sans-Serif" font-size="10.00">_grad_ψ</text>
</a>
</g>
</g>
<!-- Node15&#45;&gt;Node17 -->
<g id="edge20" class="edge">
<title>Node15&#45;&gt;Node17</title>
<path fill="none" stroke="midnightblue" d="M233.52,-68.41C250.48,-72.89 269.27,-77.85 286.52,-82.41"/>
<polygon fill="midnightblue" stroke="midnightblue" points="285.92,-85.87 296.48,-85.05 287.71,-79.11 285.92,-85.87"/>
</g>
<!-- Node16&#45;&gt;Node7 -->
<g id="edge19" class="edge">
<title>Node16&#45;&gt;Node7</title>
<path fill="none" stroke="midnightblue" d="M410.3,-50.56C455.53,-50.17 517.26,-54 568,-73 598.69,-84.49 628.22,-108.89 645.87,-125.38"/>
<polygon fill="midnightblue" stroke="midnightblue" points="643.46,-127.92 653.1,-132.32 648.31,-122.87 643.46,-127.92"/>
</g>
<!-- Node17&#45;&gt;Node13 -->
<g id="edge22" class="edge">
<title>Node17&#45;&gt;Node13</title>
<path fill="none" stroke="midnightblue" d="M396.78,-111.68C417.46,-117.42 441.33,-124.05 461.47,-129.64"/>
<polygon fill="midnightblue" stroke="midnightblue" points="460.76,-133.07 471.33,-132.38 462.63,-126.33 460.76,-133.07"/>
</g>
<!-- Node18 -->
<g id="node18" class="node">
<title>Node18</title>
<g id="a_node18"><a xlink:href="namespacepa_1_1detail.html#a908a0589ddf8734417f5481395e197d2" target="_top" xlink:title="Calculate ∇ψ(x) using ŷ.">
<polygon fill="white" stroke="black" points="449.5,-83 449.5,-113 564.5,-113 564.5,-83 449.5,-83"/>
<text text-anchor="start" x="457.5" y="-101" font-family="Helvetica,sans-Serif" font-size="10.00">pa::detail::calc_grad</text>
<text text-anchor="middle" x="507" y="-90" font-family="Helvetica,sans-Serif" font-size="10.00">_ψ_from_ŷ</text>
</a>
</g>
</g>
<!-- Node17&#45;&gt;Node18 -->
<g id="edge21" class="edge">
<title>Node17&#45;&gt;Node18</title>
<path fill="none" stroke="midnightblue" d="M396.78,-98C410.16,-98 424.88,-98 439.06,-98"/>
<polygon fill="midnightblue" stroke="midnightblue" points="439.27,-101.5 449.27,-98 439.27,-94.5 439.27,-101.5"/>
</g>
</g>
</svg>
