<?xml version="1.0" encoding="UTF-8" standalone="no"?>
<!DOCTYPE svg PUBLIC "-//W3C//DTD SVG 1.1//EN"
 "http://www.w3.org/Graphics/SVG/1.1/DTD/svg11.dtd">
<!-- Generated by graphviz version 2.43.0 (0)
 -->
<!-- Title: norm_1 Pages: 1 -->
<svg width="679pt" height="203pt"
 viewBox="0.00 0.00 679.00 202.50" xmlns="http://www.w3.org/2000/svg" xmlns:xlink="http://www.w3.org/1999/xlink">
<g id="graph0" class="graph" transform="scale(1 1) rotate(0) translate(4 198.5)">
<title>norm_1</title>
<polygon fill="white" stroke="transparent" points="-4,4 -4,-198.5 675,-198.5 675,4 -4,4"/>
<!-- Node1 -->
<g id="node1" class="node">
<title>Node1</title>
<g id="a_node1"><a xlink:title="Get the 1&#45;norm of the given vector.">
<polygon fill="#bfbfbf" stroke="black" points="618,-76.5 618,-95.5 671,-95.5 671,-76.5 618,-76.5"/>
<text text-anchor="middle" x="644.5" y="-83.5" font-family="Helvetica,sans-Serif" font-size="10.00">norm_1</text>
</a>
</g>
</g>
<!-- Node2 -->
<g id="node2" class="node">
<title>Node2</title>
<g id="a_node2"><a xlink:href="namespacepa_1_1detail.html#ad4d033d8e69bebca614098fa2df0a4a1" target="_top" xlink:title="Compute the ε from the stopping criterion, see PANOCStopCrit.">
<polygon fill="white" stroke="black" points="466,-71 466,-101 582,-101 582,-71 466,-71"/>
<text text-anchor="start" x="474" y="-89" font-family="Helvetica,sans-Serif" font-size="10.00">pa::detail::calc_error</text>
<text text-anchor="middle" x="524" y="-78" font-family="Helvetica,sans-Serif" font-size="10.00">_stop_crit</text>
</a>
</g>
</g>
<!-- Node1&#45;&gt;Node2 -->
<g id="edge1" class="edge">
<title>Node1&#45;&gt;Node2</title>
<path fill="none" stroke="midnightblue" d="M607.69,-86C599.65,-86 590.94,-86 582.28,-86"/>
<polygon fill="midnightblue" stroke="midnightblue" points="607.79,-89.5 617.79,-86 607.79,-82.5 607.79,-89.5"/>
</g>
<!-- Node3 -->
<g id="node3" class="node">
<title>Node3</title>
<g id="a_node3"><a xlink:href="classpa_1_1SecondOrderPANOCSolver.html#acb04b3f19dafad9b4e7e7c1c19018d19" target="_top" xlink:title=" ">
<polygon fill="white" stroke="black" points="259,-164 259,-194 420,-194 420,-164 259,-164"/>
<text text-anchor="start" x="267" y="-182" font-family="Helvetica,sans-Serif" font-size="10.00">pa::SecondOrderPANOCSolver</text>
<text text-anchor="middle" x="339.5" y="-171" font-family="Helvetica,sans-Serif" font-size="10.00">::operator()</text>
</a>
</g>
</g>
<!-- Node2&#45;&gt;Node3 -->
<g id="edge2" class="edge">
<title>Node2&#45;&gt;Node3</title>
<path fill="none" stroke="midnightblue" d="M499.14,-107.68C481.27,-122.89 455.59,-142.64 430,-155 423.05,-158.36 415.56,-161.3 407.97,-163.87"/>
<polygon fill="midnightblue" stroke="midnightblue" points="501.52,-110.25 506.78,-101.06 496.93,-104.97 501.52,-110.25"/>
</g>
<!-- Node4 -->
<g id="node4" class="node">
<title>Node4</title>
<g id="a_node4"><a xlink:href="classpa_1_1StructuredPANOCLBFGSSolver.html#ade95d8a7a1892d4087d6fffc958cde6e" target="_top" xlink:title=" ">
<polygon fill="white" stroke="black" points="249,-115 249,-145 430,-145 430,-115 249,-115"/>
<text text-anchor="start" x="257" y="-133" font-family="Helvetica,sans-Serif" font-size="10.00">pa::StructuredPANOCLBFGSSolver</text>
<text text-anchor="middle" x="339.5" y="-122" font-family="Helvetica,sans-Serif" font-size="10.00">::operator()</text>
</a>
</g>
</g>
<!-- Node2&#45;&gt;Node4 -->
<g id="edge3" class="edge">
<title>Node2&#45;&gt;Node4</title>
<path fill="none" stroke="midnightblue" d="M455.75,-102.21C438.47,-106.38 419.95,-110.85 402.92,-114.95"/>
<polygon fill="midnightblue" stroke="midnightblue" points="456.86,-105.55 465.76,-99.8 455.21,-98.74 456.86,-105.55"/>
</g>
<!-- Node5 -->
<g id="node5" class="node">
<title>Node5</title>
<g id="a_node5"><a xlink:href="classpa_1_1GAAPGASolver.html#a570ec001ea8eee359be8a1b90b782cfb" target="_top" xlink:title=" ">
<polygon fill="white" stroke="black" points="259,-76.5 259,-95.5 420,-95.5 420,-76.5 259,-76.5"/>
<text text-anchor="middle" x="339.5" y="-83.5" font-family="Helvetica,sans-Serif" font-size="10.00">pa::GAAPGASolver::operator()</text>
</a>
</g>
</g>
<!-- Node2&#45;&gt;Node5 -->
<g id="edge4" class="edge">
<title>Node2&#45;&gt;Node5</title>
<path fill="none" stroke="midnightblue" d="M455.42,-86C443.97,-86 431.99,-86 420.27,-86"/>
<polygon fill="midnightblue" stroke="midnightblue" points="455.76,-89.5 465.76,-86 455.76,-82.5 455.76,-89.5"/>
</g>
<!-- Node6 -->
<g id="node6" class="node">
<title>Node6</title>
<g id="a_node6"><a xlink:href="classpa_1_1PGASolver.html#af516b794e244432023aea7ba3cd0d1d8" target="_top" xlink:title=" ">
<polygon fill="white" stroke="black" points="269.5,-38.5 269.5,-57.5 409.5,-57.5 409.5,-38.5 269.5,-38.5"/>
<text text-anchor="middle" x="339.5" y="-45.5" font-family="Helvetica,sans-Serif" font-size="10.00">pa::PGASolver::operator()</text>
</a>
</g>
</g>
<!-- Node2&#45;&gt;Node6 -->
<g id="edge5" class="edge">
<title>Node2&#45;&gt;Node6</title>
<path fill="none" stroke="midnightblue" d="M455.67,-71.98C432.56,-67.17 407.26,-61.9 386.27,-57.53"/>
<polygon fill="midnightblue" stroke="midnightblue" points="455.25,-75.47 465.76,-74.08 456.68,-68.62 455.25,-75.47"/>
</g>
<!-- Node7 -->
<g id="node7" class="node">
<title>Node7</title>
<g id="a_node7"><a xlink:href="namespacepa.html#a2b97bf67604c439eca0a540664930d61" target="_top" xlink:title=" ">
<polygon fill="white" stroke="black" points="294,-0.5 294,-19.5 385,-19.5 385,-0.5 294,-0.5"/>
<text text-anchor="middle" x="339.5" y="-7.5" font-family="Helvetica,sans-Serif" font-size="10.00">pa::panoc_impl</text>
</a>
</g>
</g>
<!-- Node2&#45;&gt;Node7 -->
<g id="edge6" class="edge">
<title>Node2&#45;&gt;Node7</title>
<path fill="none" stroke="midnightblue" d="M494.81,-65.21C477.03,-53.01 453.13,-38.22 430,-29 415.84,-23.35 399.71,-19.27 385.08,-16.37"/>
<polygon fill="midnightblue" stroke="midnightblue" points="492.82,-68.09 503.02,-70.96 496.84,-62.35 492.82,-68.09"/>
</g>
<!-- Node8 -->
<g id="node8" class="node">
<title>Node8</title>
<g id="a_node8"><a xlink:href="namespacepa.html#adf74e7674514afed3ae1c356ffcb9e45" target="_top" xlink:title=" ">
<polygon fill="white" stroke="black" points="149,-0.5 149,-19.5 213,-19.5 213,-0.5 149,-0.5"/>
<text text-anchor="middle" x="181" y="-7.5" font-family="Helvetica,sans-Serif" font-size="10.00">pa::panoc</text>
</a>
</g>
</g>
<!-- Node7&#45;&gt;Node8 -->
<g id="edge7" class="edge">
<title>Node7&#45;&gt;Node8</title>
<path fill="none" stroke="midnightblue" d="M283.47,-10C260.01,-10 233.49,-10 213.44,-10"/>
<polygon fill="midnightblue" stroke="midnightblue" points="283.65,-13.5 293.65,-10 283.65,-6.5 283.65,-13.5"/>
</g>
<!-- Node9 -->
<g id="node9" class="node">
<title>Node9</title>
<g id="a_node9"><a xlink:href="alpaqa_8cpp.html#a52c00cccef0976f125d4a27f9906c36b" target="_top" xlink:title=" ">
<polygon fill="white" stroke="black" points="0,-0.5 0,-19.5 113,-19.5 113,-0.5 0,-0.5"/>
<text text-anchor="middle" x="56.5" y="-7.5" font-family="Helvetica,sans-Serif" font-size="10.00">PYBIND11_MODULE</text>
</a>
</g>
</g>
<!-- Node8&#45;&gt;Node9 -->
<g id="edge8" class="edge">
<title>Node8&#45;&gt;Node9</title>
<path fill="none" stroke="midnightblue" d="M138.52,-10C130.45,-10 121.88,-10 113.43,-10"/>
<polygon fill="midnightblue" stroke="midnightblue" points="138.77,-13.5 148.77,-10 138.77,-6.5 138.77,-13.5"/>
</g>
</g>
</svg>
