<?xml version="1.0" encoding="UTF-8" standalone="no"?>
<!DOCTYPE svg PUBLIC "-//W3C//DTD SVG 1.1//EN"
 "http://www.w3.org/Graphics/SVG/1.1/DTD/svg11.dtd">
<!-- Generated by graphviz version 2.43.0 (0)
 -->
<!-- Title: panoc Pages: 1 -->
<svg width="899pt" height="342pt"
 viewBox="0.00 0.00 899.00 341.50" xmlns="http://www.w3.org/2000/svg" xmlns:xlink="http://www.w3.org/1999/xlink">
<g id="graph0" class="graph" transform="scale(1 1) rotate(0) translate(4 337.5)">
<title>panoc</title>
<polygon fill="white" stroke="transparent" points="-4,4 -4,-337.5 895,-337.5 895,4 -4,4"/>
<!-- Node1 -->
<g id="node1" class="node">
<title>Node1</title>
<g id="a_node1"><a xlink:title=" ">
<polygon fill="#bfbfbf" stroke="black" points="0,-154.5 0,-173.5 46,-173.5 46,-154.5 0,-154.5"/>
<text text-anchor="middle" x="23" y="-161.5" font-family="Helvetica,sans-Serif" font-size="10.00">panoc</text>
</a>
</g>
</g>
<!-- Node2 -->
<g id="node2" class="node">
<title>Node2</title>
<g id="a_node2"><a xlink:href="namespacepa.html#a2b97bf67604c439eca0a540664930d61" target="_top" xlink:title=" ">
<polygon fill="white" stroke="black" points="82,-154.5 82,-173.5 155,-173.5 155,-154.5 82,-154.5"/>
<text text-anchor="middle" x="118.5" y="-161.5" font-family="Helvetica,sans-Serif" font-size="10.00">panoc_impl</text>
</a>
</g>
</g>
<!-- Node1&#45;&gt;Node2 -->
<g id="edge1" class="edge">
<title>Node1&#45;&gt;Node2</title>
<path fill="none" stroke="midnightblue" d="M46.16,-164C53.93,-164 62.96,-164 71.94,-164"/>
<polygon fill="midnightblue" stroke="midnightblue" points="71.98,-167.5 81.98,-164 71.98,-160.5 71.98,-167.5"/>
</g>
<!-- Node3 -->
<g id="node3" class="node">
<title>Node3</title>
<g id="a_node3"><a xlink:href="classpa_1_1vec__allocator.html#afa36e1f076dd1627a83324e717038836" target="_top" xlink:title=" ">
<polygon fill="white" stroke="black" points="207,-303 207,-333 313,-333 313,-303 207,-303"/>
<text text-anchor="start" x="215" y="-321" font-family="Helvetica,sans-Serif" font-size="10.00">pa::vec_allocator::</text>
<text text-anchor="middle" x="260" y="-310" font-family="Helvetica,sans-Serif" font-size="10.00">alloc</text>
</a>
</g>
</g>
<!-- Node2&#45;&gt;Node3 -->
<g id="edge2" class="edge">
<title>Node2&#45;&gt;Node3</title>
<path fill="none" stroke="midnightblue" d="M122.72,-173.75C130.73,-196.65 153.65,-254.46 191,-288 195.14,-291.72 199.82,-295.03 204.73,-297.98"/>
<polygon fill="midnightblue" stroke="midnightblue" points="203.3,-301.19 213.76,-302.88 206.64,-295.04 203.3,-301.19"/>
</g>
<!-- Node4 -->
<g id="node4" class="node">
<title>Node4</title>
<g id="a_node4"><a xlink:href="namespacepa_1_1detail.html#ad4d033d8e69bebca614098fa2df0a4a1" target="_top" xlink:title="Compute the ε from the stopping criterion, see PANOCStopCrit.">
<polygon fill="white" stroke="black" points="370.5,-259 370.5,-289 486.5,-289 486.5,-259 370.5,-259"/>
<text text-anchor="start" x="378.5" y="-277" font-family="Helvetica,sans-Serif" font-size="10.00">pa::detail::calc_error</text>
<text text-anchor="middle" x="428.5" y="-266" font-family="Helvetica,sans-Serif" font-size="10.00">_stop_crit</text>
</a>
</g>
</g>
<!-- Node2&#45;&gt;Node4 -->
<g id="edge3" class="edge">
<title>Node2&#45;&gt;Node4</title>
<path fill="none" stroke="midnightblue" d="M123.72,-173.58C132.82,-192.93 156.3,-236.38 191,-255 242.95,-282.88 310.75,-285.52 360.42,-282.43"/>
<polygon fill="midnightblue" stroke="midnightblue" points="360.7,-285.92 370.42,-281.72 360.2,-278.94 360.7,-285.92"/>
</g>
<!-- Node10 -->
<g id="node10" class="node">
<title>Node10</title>
<g id="a_node10"><a xlink:href="namespacepa_1_1detail.html#ac32d0e6b012b801731e55225b7505fa9" target="_top" xlink:title=" ">
<polygon fill="white" stroke="black" points="379,-171.5 379,-190.5 478,-190.5 478,-171.5 379,-171.5"/>
<text text-anchor="middle" x="428.5" y="-178.5" font-family="Helvetica,sans-Serif" font-size="10.00">pa::detail::calc_x̂</text>
</a>
</g>
</g>
<!-- Node2&#45;&gt;Node10 -->
<g id="edge9" class="edge">
<title>Node2&#45;&gt;Node10</title>
<path fill="none" stroke="midnightblue" d="M155.13,-165.97C207.41,-168.85 305.5,-174.27 368.6,-177.75"/>
<polygon fill="midnightblue" stroke="midnightblue" points="368.62,-181.26 378.8,-178.31 369.01,-174.27 368.62,-181.26"/>
</g>
<!-- Node11 -->
<g id="node11" class="node">
<title>Node11</title>
<g id="a_node11"><a xlink:href="namespacepa_1_1detail.html#aa916ebec71616d1d0379aaaaca02fc19" target="_top" xlink:title="Check all stop conditions (required tolerance reached, out of time, maximum number of iterations exce...">
<polygon fill="white" stroke="black" points="203,-215 203,-245 317,-245 317,-215 203,-215"/>
<text text-anchor="start" x="211" y="-233" font-family="Helvetica,sans-Serif" font-size="10.00">pa::detail::check_all</text>
<text text-anchor="middle" x="260" y="-222" font-family="Helvetica,sans-Serif" font-size="10.00">_stop_conditions</text>
</a>
</g>
</g>
<!-- Node2&#45;&gt;Node11 -->
<g id="edge11" class="edge">
<title>Node2&#45;&gt;Node11</title>
<path fill="none" stroke="midnightblue" d="M137.89,-173.58C152.26,-180.99 172.78,-191.4 191,-200 198.63,-203.6 206.8,-207.32 214.74,-210.86"/>
<polygon fill="midnightblue" stroke="midnightblue" points="213.34,-214.07 223.9,-214.92 216.18,-207.67 213.34,-214.07"/>
</g>
<!-- Node13 -->
<g id="node13" class="node">
<title>Node13</title>
<g id="a_node13"><a xlink:href="namespacepa_1_1detail.html#ac7d4fa127500b38a8cec94984c4f598d" target="_top" xlink:title="Increase the estimate of the Lipschitz constant of the objective gradient and decrease the step size ...">
<polygon fill="white" stroke="black" points="206.5,-127 206.5,-157 313.5,-157 313.5,-127 206.5,-127"/>
<text text-anchor="start" x="214.5" y="-145" font-family="Helvetica,sans-Serif" font-size="10.00">pa::detail::descent</text>
<text text-anchor="middle" x="260" y="-134" font-family="Helvetica,sans-Serif" font-size="10.00">_lemma</text>
</a>
</g>
</g>
<!-- Node2&#45;&gt;Node13 -->
<g id="edge13" class="edge">
<title>Node2&#45;&gt;Node13</title>
<path fill="none" stroke="midnightblue" d="M155.06,-158.39C167.6,-156.41 182.09,-154.13 196.2,-151.9"/>
<polygon fill="midnightblue" stroke="midnightblue" points="197.05,-155.31 206.38,-150.3 195.96,-148.4 197.05,-155.31"/>
</g>
<!-- Node15 -->
<g id="node15" class="node">
<title>Node15</title>
<g id="a_node15"><a xlink:href="classpa_1_1vec__allocator.html#a455bb0797853d67addd58875c671acef" target="_top" xlink:title=" ">
<polygon fill="white" stroke="black" points="197.5,-88.5 197.5,-107.5 322.5,-107.5 322.5,-88.5 197.5,-88.5"/>
<text text-anchor="middle" x="260" y="-95.5" font-family="Helvetica,sans-Serif" font-size="10.00">pa::vec_allocator::free</text>
</a>
</g>
</g>
<!-- Node2&#45;&gt;Node15 -->
<g id="edge17" class="edge">
<title>Node2&#45;&gt;Node15</title>
<path fill="none" stroke="midnightblue" d="M132.04,-154.35C145.83,-144.11 168.99,-128.07 191,-118 196.88,-115.31 203.2,-112.89 209.54,-110.73"/>
<polygon fill="midnightblue" stroke="midnightblue" points="211.01,-113.94 219.47,-107.56 208.88,-107.27 211.01,-113.94"/>
</g>
<!-- Node16 -->
<g id="node16" class="node">
<title>Node16</title>
<g id="a_node16"><a xlink:href="namespacepa_1_1detail.html#a92963cadf7f44fcf9f3ab6bddff08796" target="_top" xlink:title="Estimate the Lipschitz constant of the gradient &#160;using finite differences.">
<polygon fill="white" stroke="black" points="204.5,-39 204.5,-69 315.5,-69 315.5,-39 204.5,-39"/>
<text text-anchor="start" x="212.5" y="-57" font-family="Helvetica,sans-Serif" font-size="10.00">pa::detail::initial</text>
<text text-anchor="middle" x="260" y="-46" font-family="Helvetica,sans-Serif" font-size="10.00">_lipschitz_estimate</text>
</a>
</g>
</g>
<!-- Node2&#45;&gt;Node16 -->
<g id="edge18" class="edge">
<title>Node2&#45;&gt;Node16</title>
<path fill="none" stroke="midnightblue" d="M125.16,-154.44C135.89,-137.06 160.85,-100.16 191,-79 193.73,-77.09 196.62,-75.3 199.61,-73.64"/>
<polygon fill="midnightblue" stroke="midnightblue" points="201.47,-76.62 208.83,-69.01 198.32,-70.37 201.47,-76.62"/>
</g>
<!-- Node20 -->
<g id="node20" class="node">
<title>Node20</title>
<g id="a_node20"><a xlink:href="namespacepa_1_1detail.html#aea72ee13ae482d948d1b994deb457578" target="_top" xlink:title=" ">
<polygon fill="white" stroke="black" points="191,-0.5 191,-19.5 329,-19.5 329,-0.5 191,-0.5"/>
<text text-anchor="middle" x="260" y="-7.5" font-family="Helvetica,sans-Serif" font-size="10.00">pa::detail::print_progress</text>
</a>
</g>
</g>
<!-- Node2&#45;&gt;Node20 -->
<g id="edge24" class="edge">
<title>Node2&#45;&gt;Node20</title>
<path fill="none" stroke="midnightblue" d="M121.75,-154.48C128.08,-129.8 148.45,-63.27 191,-29 193.16,-27.26 195.48,-25.68 197.89,-24.24"/>
<polygon fill="midnightblue" stroke="midnightblue" points="199.68,-27.26 207.04,-19.64 196.53,-21 199.68,-27.26"/>
</g>
<!-- Node5 -->
<g id="node5" class="node">
<title>Node5</title>
<g id="a_node5"><a xlink:href="namespacepa_1_1vec__util.html#a9fe5014a9c51ca2202dc5d526dce6823" target="_top" xlink:title="Get the 1&#45;norm of the given vector.">
<polygon fill="white" stroke="black" points="531,-301.5 531,-320.5 647,-320.5 647,-301.5 531,-301.5"/>
<text text-anchor="middle" x="589" y="-308.5" font-family="Helvetica,sans-Serif" font-size="10.00">pa::vec_util::norm_1</text>
</a>
</g>
</g>
<!-- Node4&#45;&gt;Node5 -->
<g id="edge4" class="edge">
<title>Node4&#45;&gt;Node5</title>
<path fill="none" stroke="midnightblue" d="M486.72,-287.36C503.32,-291.23 521.31,-295.43 537.47,-299.2"/>
<polygon fill="midnightblue" stroke="midnightblue" points="536.73,-302.62 547.26,-301.49 538.32,-295.81 536.73,-302.62"/>
</g>
<!-- Node6 -->
<g id="node6" class="node">
<title>Node6</title>
<g id="a_node6"><a xlink:href="namespacepa_1_1vec__util.html#af8e650634ec3d7b82a78a4d313632ed0" target="_top" xlink:title="Get the maximum or infinity&#45;norm of the given vector.">
<polygon fill="white" stroke="black" points="528,-263.5 528,-282.5 650,-282.5 650,-263.5 528,-263.5"/>
<text text-anchor="middle" x="589" y="-270.5" font-family="Helvetica,sans-Serif" font-size="10.00">pa::vec_util::norm_inf</text>
</a>
</g>
</g>
<!-- Node4&#45;&gt;Node6 -->
<g id="edge5" class="edge">
<title>Node4&#45;&gt;Node6</title>
<path fill="none" stroke="midnightblue" d="M486.72,-273.64C496.76,-273.58 507.32,-273.51 517.67,-273.44"/>
<polygon fill="midnightblue" stroke="midnightblue" points="517.94,-276.94 527.92,-273.38 517.9,-269.94 517.94,-276.94"/>
</g>
<!-- Node7 -->
<g id="node7" class="node">
<title>Node7</title>
<g id="a_node7"><a xlink:href="namespacepa_1_1detail.html#a8ed4d487878856942843707b5a131b85" target="_top" xlink:title="Projected gradient step.">
<polygon fill="white" stroke="black" points="532,-174 532,-204 646,-204 646,-174 532,-174"/>
<text text-anchor="start" x="540" y="-192" font-family="Helvetica,sans-Serif" font-size="10.00">pa::detail::projected</text>
<text text-anchor="middle" x="589" y="-181" font-family="Helvetica,sans-Serif" font-size="10.00">_gradient_step</text>
</a>
</g>
</g>
<!-- Node4&#45;&gt;Node7 -->
<g id="edge6" class="edge">
<title>Node4&#45;&gt;Node7</title>
<path fill="none" stroke="midnightblue" d="M474.06,-258.98C480.24,-256.3 486.39,-253.29 492,-250 509.96,-239.46 510.65,-231.51 528,-220 533.78,-216.17 540.09,-212.45 546.37,-209"/>
<polygon fill="midnightblue" stroke="midnightblue" points="548.31,-211.94 555.5,-204.16 545.03,-205.75 548.31,-211.94"/>
</g>
<!-- Node8 -->
<g id="node8" class="node">
<title>Node8</title>
<g id="a_node8"><a xlink:href="namespacepa.html#aee505a26e46aa4c0ce09d0fed72f0dac" target="_top" xlink:title="Get the difference between the given vector and its projection.">
<polygon fill="white" stroke="black" points="686,-132.5 686,-151.5 805,-151.5 805,-132.5 686,-132.5"/>
<text text-anchor="middle" x="745.5" y="-139.5" font-family="Helvetica,sans-Serif" font-size="10.00">projecting_difference</text>
</a>
</g>
</g>
<!-- Node4&#45;&gt;Node8 -->
<g id="edge7" class="edge">
<title>Node4&#45;&gt;Node8</title>
<path fill="none" stroke="midnightblue" d="M486.74,-261.06C542.03,-248.1 621.45,-228.09 650,-214 679.67,-199.36 709.27,-174.79 727.23,-158.49"/>
<polygon fill="midnightblue" stroke="midnightblue" points="729.66,-161.01 734.62,-151.65 724.91,-155.87 729.66,-161.01"/>
</g>
<!-- Node9 -->
<g id="node9" class="node">
<title>Node9</title>
<g id="a_node9"><a xlink:href="namespacepa.html#a5414901c2fb62f1fd47857642964cc71" target="_top" xlink:title="Project a vector onto a box.">
<polygon fill="white" stroke="black" points="841,-132.5 841,-151.5 891,-151.5 891,-132.5 841,-132.5"/>
<text text-anchor="middle" x="866" y="-139.5" font-family="Helvetica,sans-Serif" font-size="10.00">project</text>
</a>
</g>
</g>
<!-- Node8&#45;&gt;Node9 -->
<g id="edge8" class="edge">
<title>Node8&#45;&gt;Node9</title>
<path fill="none" stroke="midnightblue" d="M805.06,-142C813.89,-142 822.75,-142 830.85,-142"/>
<polygon fill="midnightblue" stroke="midnightblue" points="830.98,-145.5 840.98,-142 830.98,-138.5 830.98,-145.5"/>
</g>
<!-- Node10&#45;&gt;Node7 -->
<g id="edge10" class="edge">
<title>Node10&#45;&gt;Node7</title>
<path fill="none" stroke="midnightblue" d="M478.35,-183.47C491.96,-184.15 506.99,-184.91 521.43,-185.64"/>
<polygon fill="midnightblue" stroke="midnightblue" points="521.66,-189.16 531.82,-186.16 522.01,-182.16 521.66,-189.16"/>
</g>
<!-- Node12 -->
<g id="node12" class="node">
<title>Node12</title>
<g id="a_node12"><a xlink:href="classpa_1_1AtomicStopSignal.html#aa0097deccc19b49f8ab5344d8d6d5cf6" target="_top" xlink:title=" ">
<polygon fill="white" stroke="black" points="368,-210 368,-240 489,-240 489,-210 368,-210"/>
<text text-anchor="start" x="376" y="-228" font-family="Helvetica,sans-Serif" font-size="10.00">pa::AtomicStopSignal</text>
<text text-anchor="middle" x="428.5" y="-217" font-family="Helvetica,sans-Serif" font-size="10.00">::stop_requested</text>
</a>
</g>
</g>
<!-- Node11&#45;&gt;Node12 -->
<g id="edge12" class="edge">
<title>Node11&#45;&gt;Node12</title>
<path fill="none" stroke="midnightblue" d="M317.37,-228.31C330.3,-227.92 344.2,-227.5 357.62,-227.1"/>
<polygon fill="midnightblue" stroke="midnightblue" points="357.88,-230.59 367.77,-226.79 357.67,-223.6 357.88,-230.59"/>
</g>
<!-- Node13&#45;&gt;Node10 -->
<g id="edge14" class="edge">
<title>Node13&#45;&gt;Node10</title>
<path fill="none" stroke="midnightblue" d="M313.68,-154.34C333.89,-159.07 356.9,-164.46 376.91,-169.15"/>
<polygon fill="midnightblue" stroke="midnightblue" points="376.23,-172.59 386.77,-171.46 377.83,-165.77 376.23,-172.59"/>
</g>
<!-- Node14 -->
<g id="node14" class="node">
<title>Node14</title>
<g id="a_node14"><a xlink:href="namespacepa_1_1detail.html#a82a03662e6ce5bcfd57ee2df719aec21" target="_top" xlink:title="Calculate both ψ(x) and the vector ŷ that can later be used to compute ∇ψ.">
<polygon fill="white" stroke="black" points="533.5,-132.5 533.5,-151.5 644.5,-151.5 644.5,-132.5 533.5,-132.5"/>
<text text-anchor="middle" x="589" y="-139.5" font-family="Helvetica,sans-Serif" font-size="10.00">pa::detail::calc_ψ_ŷ</text>
</a>
</g>
</g>
<!-- Node13&#45;&gt;Node14 -->
<g id="edge15" class="edge">
<title>Node13&#45;&gt;Node14</title>
<path fill="none" stroke="midnightblue" d="M313.54,-142C370.54,-142 461.61,-142 523.06,-142"/>
<polygon fill="midnightblue" stroke="midnightblue" points="523.41,-145.5 533.41,-142 523.41,-138.5 523.41,-145.5"/>
</g>
<!-- Node14&#45;&gt;Node8 -->
<g id="edge16" class="edge">
<title>Node14&#45;&gt;Node8</title>
<path fill="none" stroke="midnightblue" d="M644.91,-142C654.86,-142 665.35,-142 675.65,-142"/>
<polygon fill="midnightblue" stroke="midnightblue" points="675.84,-145.5 685.84,-142 675.84,-138.5 675.84,-145.5"/>
</g>
<!-- Node17 -->
<g id="node17" class="node">
<title>Node17</title>
<g id="a_node17"><a xlink:href="namespacepa_1_1detail.html#a6572cf745448d2b40e9d5e977d17d5e2" target="_top" xlink:title="Calculate the gradient ∇ψ(x).">
<polygon fill="white" stroke="black" points="365,-44.5 365,-63.5 492,-63.5 492,-44.5 365,-44.5"/>
<text text-anchor="middle" x="428.5" y="-51.5" font-family="Helvetica,sans-Serif" font-size="10.00">pa::detail::calc_grad_ψ</text>
</a>
</g>
</g>
<!-- Node16&#45;&gt;Node17 -->
<g id="edge19" class="edge">
<title>Node16&#45;&gt;Node17</title>
<path fill="none" stroke="midnightblue" d="M315.52,-54C327.94,-54 341.34,-54 354.39,-54"/>
<polygon fill="midnightblue" stroke="midnightblue" points="354.77,-57.5 364.77,-54 354.77,-50.5 354.77,-57.5"/>
</g>
<!-- Node18 -->
<g id="node18" class="node">
<title>Node18</title>
<g id="a_node18"><a xlink:href="namespacepa_1_1detail.html#aa986daa1d5f0dfdbc75c143d2aae2919" target="_top" xlink:title="Calculate both ψ(x) and its gradient ∇ψ(x).">
<polygon fill="white" stroke="black" points="378.5,-83 378.5,-113 478.5,-113 478.5,-83 378.5,-83"/>
<text text-anchor="start" x="386.5" y="-101" font-family="Helvetica,sans-Serif" font-size="10.00">pa::detail::calc_ψ</text>
<text text-anchor="middle" x="428.5" y="-90" font-family="Helvetica,sans-Serif" font-size="10.00">_grad_ψ</text>
</a>
</g>
</g>
<!-- Node16&#45;&gt;Node18 -->
<g id="edge21" class="edge">
<title>Node16&#45;&gt;Node18</title>
<path fill="none" stroke="midnightblue" d="M315.52,-68.41C332.48,-72.89 351.27,-77.85 368.52,-82.41"/>
<polygon fill="midnightblue" stroke="midnightblue" points="367.92,-85.87 378.48,-85.05 369.71,-79.11 367.92,-85.87"/>
</g>
<!-- Node17&#45;&gt;Node8 -->
<g id="edge20" class="edge">
<title>Node17&#45;&gt;Node8</title>
<path fill="none" stroke="midnightblue" d="M492.3,-50.56C537.53,-50.17 599.26,-54 650,-73 680.69,-84.49 710.22,-108.89 727.87,-125.38"/>
<polygon fill="midnightblue" stroke="midnightblue" points="725.46,-127.92 735.1,-132.32 730.31,-122.87 725.46,-127.92"/>
</g>
<!-- Node18&#45;&gt;Node14 -->
<g id="edge23" class="edge">
<title>Node18&#45;&gt;Node14</title>
<path fill="none" stroke="midnightblue" d="M478.78,-111.68C499.46,-117.42 523.33,-124.05 543.47,-129.64"/>
<polygon fill="midnightblue" stroke="midnightblue" points="542.76,-133.07 553.33,-132.38 544.63,-126.33 542.76,-133.07"/>
</g>
<!-- Node19 -->
<g id="node19" class="node">
<title>Node19</title>
<g id="a_node19"><a xlink:href="namespacepa_1_1detail.html#a908a0589ddf8734417f5481395e197d2" target="_top" xlink:title="Calculate ∇ψ(x) using ŷ.">
<polygon fill="white" stroke="black" points="531.5,-83 531.5,-113 646.5,-113 646.5,-83 531.5,-83"/>
<text text-anchor="start" x="539.5" y="-101" font-family="Helvetica,sans-Serif" font-size="10.00">pa::detail::calc_grad</text>
<text text-anchor="middle" x="589" y="-90" font-family="Helvetica,sans-Serif" font-size="10.00">_ψ_from_ŷ</text>
</a>
</g>
</g>
<!-- Node18&#45;&gt;Node19 -->
<g id="edge22" class="edge">
<title>Node18&#45;&gt;Node19</title>
<path fill="none" stroke="midnightblue" d="M478.78,-98C492.16,-98 506.88,-98 521.06,-98"/>
<polygon fill="midnightblue" stroke="midnightblue" points="521.27,-101.5 531.27,-98 521.27,-94.5 521.27,-101.5"/>
</g>
</g>
</svg>
