<?xml version="1.0" encoding="UTF-8" standalone="no"?>
<!DOCTYPE svg PUBLIC "-//W3C//DTD SVG 1.1//EN"
 "http://www.w3.org/Graphics/SVG/1.1/DTD/svg11.dtd">
<!-- Generated by graphviz version 2.43.0 (0)
 -->
<!-- Title: calc_grad_ψ_from_ŷ Pages: 1 -->
<svg width="906pt" height="385pt"
 viewBox="0.00 0.00 906.00 385.45" xmlns="http://www.w3.org/2000/svg" xmlns:xlink="http://www.w3.org/1999/xlink">
<g id="graph0" class="graph" transform="scale(1 1) rotate(0) translate(4 381.45)">
<title>calc_grad_ψ_from_ŷ</title>
<polygon fill="white" stroke="transparent" points="-4,4 -4,-381.45 902,-381.45 902,4 -4,4"/>
<!-- Node1 -->
<g id="node1" class="node">
<title>Node1</title>
<g id="a_node1"><a xlink:title="Calculate ∇ψ(x) using ŷ.">
<polygon fill="#bfbfbf" stroke="black" points="783,-133.45 783,-152.45 898,-152.45 898,-133.45 783,-133.45"/>
<text text-anchor="middle" x="840.5" y="-140.45" font-family="Helvetica,sans-Serif" font-size="10.00">calc_grad_ψ_from_ŷ</text>
</a>
</g>
</g>
<!-- Node2 -->
<g id="node2" class="node">
<title>Node2</title>
<g id="a_node2"><a xlink:href="namespacepa_1_1detail.html#aa986daa1d5f0dfdbc75c143d2aae2919" target="_top" xlink:title="Calculate both ψ(x) and its gradient ∇ψ(x).">
<polygon fill="white" stroke="black" points="660,-162.45 660,-181.45 747,-181.45 747,-162.45 660,-162.45"/>
<text text-anchor="middle" x="703.5" y="-169.45" font-family="Helvetica,sans-Serif" font-size="10.00">calc_ψ_grad_ψ</text>
</a>
</g>
</g>
<!-- Node1&#45;&gt;Node2 -->
<g id="edge1" class="edge">
<title>Node1&#45;&gt;Node2</title>
<path fill="none" stroke="midnightblue" d="M785,-154.66C772.41,-157.36 759.2,-160.2 747.2,-162.78"/>
<polygon fill="midnightblue" stroke="midnightblue" points="785.88,-158.05 794.92,-152.53 784.41,-151.21 785.88,-158.05"/>
</g>
<!-- Node4 -->
<g id="node4" class="node">
<title>Node4</title>
<g id="a_node4"><a xlink:href="classpa_1_1SecondOrderPANOCSolver.html#acb04b3f19dafad9b4e7e7c1c19018d19" target="_top" xlink:title=" ">
<polygon fill="white" stroke="black" points="259,-273.95 259,-303.95 420,-303.95 420,-273.95 259,-273.95"/>
<text text-anchor="start" x="267" y="-291.95" font-family="Helvetica,sans-Serif" font-size="10.00">pa::SecondOrderPANOCSolver</text>
<text text-anchor="middle" x="339.5" y="-280.95" font-family="Helvetica,sans-Serif" font-size="10.00">::operator()</text>
</a>
</g>
</g>
<!-- Node1&#45;&gt;Node4 -->
<g id="edge18" class="edge">
<title>Node1&#45;&gt;Node4</title>
<path fill="none" stroke="midnightblue" d="M823.34,-160.17C790.01,-194.29 709.54,-269.53 624,-296.95 554.84,-319.12 471.26,-313.09 412.84,-303.99"/>
<polygon fill="midnightblue" stroke="midnightblue" points="826.02,-162.44 830.43,-152.81 820.97,-157.59 826.02,-162.44"/>
</g>
<!-- Node5 -->
<g id="node5" class="node">
<title>Node5</title>
<g id="a_node5"><a xlink:href="classpa_1_1StructuredPANOCLBFGSSolver.html#ade95d8a7a1892d4087d6fffc958cde6e" target="_top" xlink:title=" ">
<polygon fill="white" stroke="black" points="249,-346.95 249,-376.95 430,-376.95 430,-346.95 249,-346.95"/>
<text text-anchor="start" x="257" y="-364.95" font-family="Helvetica,sans-Serif" font-size="10.00">pa::StructuredPANOCLBFGSSolver</text>
<text text-anchor="middle" x="339.5" y="-353.95" font-family="Helvetica,sans-Serif" font-size="10.00">::operator()</text>
</a>
</g>
</g>
<!-- Node1&#45;&gt;Node5 -->
<g id="edge19" class="edge">
<title>Node1&#45;&gt;Node5</title>
<path fill="none" stroke="midnightblue" d="M829.37,-161.66C814.22,-188.29 783.53,-237.51 747,-269.95 700.14,-311.58 683.95,-320.66 624,-338.95 561.06,-358.15 486.84,-363.59 430.12,-364.4"/>
<polygon fill="midnightblue" stroke="midnightblue" points="832.58,-163.08 834.39,-152.64 826.47,-159.67 832.58,-163.08"/>
</g>
<!-- Node6 -->
<g id="node6" class="node">
<title>Node6</title>
<g id="a_node6"><a xlink:href="classpa_1_1GAAPGASolver.html#a570ec001ea8eee359be8a1b90b782cfb" target="_top" xlink:title=" ">
<polygon fill="white" stroke="black" points="259,-162.45 259,-181.45 420,-181.45 420,-162.45 259,-162.45"/>
<text text-anchor="middle" x="339.5" y="-169.45" font-family="Helvetica,sans-Serif" font-size="10.00">pa::GAAPGASolver::operator()</text>
</a>
</g>
</g>
<!-- Node1&#45;&gt;Node6 -->
<g id="edge20" class="edge">
<title>Node1&#45;&gt;Node6</title>
<path fill="none" stroke="midnightblue" d="M819.8,-127.2C761.4,-82.54 585.83,36.88 466,-38.95 434.42,-58.94 454.73,-86.93 430,-114.95 411.11,-136.36 382.28,-152.74 362.48,-162.33"/>
<polygon fill="midnightblue" stroke="midnightblue" points="817.8,-130.08 827.84,-133.45 822.09,-124.55 817.8,-130.08"/>
</g>
<!-- Node7 -->
<g id="node7" class="node">
<title>Node7</title>
<g id="a_node7"><a xlink:href="classpa_1_1PGASolver.html#af516b794e244432023aea7ba3cd0d1d8" target="_top" xlink:title=" ">
<polygon fill="white" stroke="black" points="269.5,-86.45 269.5,-105.45 409.5,-105.45 409.5,-86.45 269.5,-86.45"/>
<text text-anchor="middle" x="339.5" y="-93.45" font-family="Helvetica,sans-Serif" font-size="10.00">pa::PGASolver::operator()</text>
</a>
</g>
</g>
<!-- Node1&#45;&gt;Node7 -->
<g id="edge21" class="edge">
<title>Node1&#45;&gt;Node7</title>
<path fill="none" stroke="midnightblue" d="M829.61,-124.29C815.11,-98.92 785.57,-54.17 747,-31.95 698.94,-4.27 679.26,-15.63 624,-10.95 554.03,-5.02 533.13,9.64 466,-10.95 416.94,-26 369.8,-67.44 350.12,-86.34"/>
<polygon fill="midnightblue" stroke="midnightblue" points="826.67,-126.21 834.58,-133.27 832.8,-122.82 826.67,-126.21"/>
</g>
<!-- Node11 -->
<g id="node11" class="node">
<title>Node11</title>
<g id="a_node11"><a xlink:href="classpa_1_1PANOCSolver.html#aaa9758a40bd362331202fb232b4bb7ae" target="_top" xlink:title=" ">
<polygon fill="white" stroke="black" points="468,-48.45 468,-67.45 622,-67.45 622,-48.45 468,-48.45"/>
<text text-anchor="middle" x="545" y="-55.45" font-family="Helvetica,sans-Serif" font-size="10.00">pa::PANOCSolver::operator()</text>
</a>
</g>
</g>
<!-- Node1&#45;&gt;Node11 -->
<g id="edge17" class="edge">
<title>Node1&#45;&gt;Node11</title>
<path fill="none" stroke="midnightblue" d="M796.93,-130.62C737.92,-113.53 632.52,-83.01 579.05,-67.52"/>
<polygon fill="midnightblue" stroke="midnightblue" points="796.11,-134.03 806.69,-133.45 798.05,-127.3 796.11,-134.03"/>
</g>
<!-- Node3 -->
<g id="node3" class="node">
<title>Node3</title>
<g id="a_node3"><a xlink:href="namespacepa_1_1detail.html#a92963cadf7f44fcf9f3ab6bddff08796" target="_top" xlink:title="Estimate the Lipschitz constant of the gradient &#160;using finite differences.">
<polygon fill="white" stroke="black" points="475.5,-238.45 475.5,-257.45 614.5,-257.45 614.5,-238.45 475.5,-238.45"/>
<text text-anchor="middle" x="545" y="-245.45" font-family="Helvetica,sans-Serif" font-size="10.00">initial_lipschitz_estimate</text>
</a>
</g>
</g>
<!-- Node2&#45;&gt;Node3 -->
<g id="edge2" class="edge">
<title>Node2&#45;&gt;Node3</title>
<path fill="none" stroke="midnightblue" d="M684.61,-188.11C669.48,-200.95 646.7,-218.45 624,-228.95 615.78,-232.76 606.7,-235.85 597.74,-238.36"/>
<polygon fill="midnightblue" stroke="midnightblue" points="686.93,-190.73 692.17,-181.52 682.33,-185.44 686.93,-190.73"/>
</g>
<!-- Node2&#45;&gt;Node4 -->
<g id="edge11" class="edge">
<title>Node2&#45;&gt;Node4</title>
<path fill="none" stroke="midnightblue" d="M693.16,-190.6C680.76,-213.11 656.59,-250.03 624,-266.95 561.13,-299.59 479.66,-302.55 420.2,-298.85"/>
<polygon fill="midnightblue" stroke="midnightblue" points="696.3,-192.15 697.87,-181.67 690.11,-188.88 696.3,-192.15"/>
</g>
<!-- Node2&#45;&gt;Node5 -->
<g id="edge12" class="edge">
<title>Node2&#45;&gt;Node5</title>
<path fill="none" stroke="midnightblue" d="M695.95,-190.98C685.37,-218.79 661.79,-270.1 624,-296.95 567.4,-337.16 489.81,-352.93 430.11,-358.91"/>
<polygon fill="midnightblue" stroke="midnightblue" points="699.24,-192.17 699.37,-181.58 692.67,-189.78 699.24,-192.17"/>
</g>
<!-- Node2&#45;&gt;Node6 -->
<g id="edge15" class="edge">
<title>Node2&#45;&gt;Node6</title>
<path fill="none" stroke="midnightblue" d="M649.85,-171.95C589.52,-171.95 490.01,-171.95 420.18,-171.95"/>
<polygon fill="midnightblue" stroke="midnightblue" points="649.91,-175.45 659.91,-171.95 649.91,-168.45 649.91,-175.45"/>
</g>
<!-- Node2&#45;&gt;Node7 -->
<g id="edge16" class="edge">
<title>Node2&#45;&gt;Node7</title>
<path fill="none" stroke="midnightblue" d="M685.54,-155.2C670.68,-141.69 647.78,-123.56 624,-114.95 554.2,-89.67 468.48,-87.55 409.69,-90.09"/>
<polygon fill="midnightblue" stroke="midnightblue" points="683.24,-157.85 692.93,-162.14 688.04,-152.75 683.24,-157.85"/>
</g>
<!-- Node2&#45;&gt;Node11 -->
<g id="edge10" class="edge">
<title>Node2&#45;&gt;Node11</title>
<path fill="none" stroke="midnightblue" d="M691.07,-153.58C677.48,-133.21 652.97,-100.77 624,-81.95 614.38,-75.7 603.03,-71 592.02,-67.5"/>
<polygon fill="midnightblue" stroke="midnightblue" points="688.3,-155.75 696.67,-162.24 694.18,-151.95 688.3,-155.75"/>
</g>
<!-- Node12 -->
<g id="node12" class="node">
<title>Node12</title>
<g id="a_node12"><a xlink:href="classpa_1_1LBFGSSolver.html#a8540540028b02dfe8b7e3ec0c49c07dd" target="_top" xlink:title=" ">
<polygon fill="white" stroke="black" points="469,-200.45 469,-219.45 621,-219.45 621,-200.45 469,-200.45"/>
<text text-anchor="middle" x="545" y="-207.45" font-family="Helvetica,sans-Serif" font-size="10.00">pa::LBFGSSolver::operator()</text>
</a>
</g>
</g>
<!-- Node2&#45;&gt;Node12 -->
<g id="edge13" class="edge">
<title>Node2&#45;&gt;Node12</title>
<path fill="none" stroke="midnightblue" d="M653.21,-183.92C631.28,-189.24 605.82,-195.43 585.21,-200.43"/>
<polygon fill="midnightblue" stroke="midnightblue" points="654.12,-187.3 663.01,-181.54 652.46,-180.5 654.12,-187.3"/>
</g>
<!-- Node13 -->
<g id="node13" class="node">
<title>Node13</title>
<g id="a_node13"><a xlink:href="classpa_1_1LBFGSBSolver.html#a8540540028b02dfe8b7e3ec0c49c07dd" target="_top" xlink:title=" ">
<polygon fill="white" stroke="black" points="466,-124.45 466,-143.45 624,-143.45 624,-124.45 466,-124.45"/>
<text text-anchor="middle" x="545" y="-131.45" font-family="Helvetica,sans-Serif" font-size="10.00">pa::LBFGSBSolver::operator()</text>
</a>
</g>
</g>
<!-- Node2&#45;&gt;Node13 -->
<g id="edge14" class="edge">
<title>Node2&#45;&gt;Node13</title>
<path fill="none" stroke="midnightblue" d="M653.21,-159.98C631.28,-154.66 605.82,-148.47 585.21,-143.47"/>
<polygon fill="midnightblue" stroke="midnightblue" points="652.46,-163.4 663.01,-162.36 654.12,-156.6 652.46,-163.4"/>
</g>
<!-- Node3&#45;&gt;Node4 -->
<g id="edge3" class="edge">
<title>Node3&#45;&gt;Node4</title>
<path fill="none" stroke="midnightblue" d="M486.88,-259.46C464.69,-263.93 438.97,-269.11 415.34,-273.87"/>
<polygon fill="midnightblue" stroke="midnightblue" points="487.69,-262.87 496.8,-257.46 486.31,-256 487.69,-262.87"/>
</g>
<!-- Node3&#45;&gt;Node5 -->
<g id="edge4" class="edge">
<title>Node3&#45;&gt;Node5</title>
<path fill="none" stroke="midnightblue" d="M519.09,-262.69C496.08,-276.22 460.9,-296.73 430,-313.95 409.83,-325.2 386.86,-337.5 369.25,-346.84"/>
<polygon fill="midnightblue" stroke="midnightblue" points="521.02,-265.61 527.86,-257.52 517.47,-259.58 521.02,-265.61"/>
</g>
<!-- Node3&#45;&gt;Node6 -->
<g id="edge5" class="edge">
<title>Node3&#45;&gt;Node6</title>
<path fill="none" stroke="midnightblue" d="M488.88,-235.9C481.13,-233.8 473.32,-231.48 466,-228.95 426.64,-215.35 382.81,-193.91 358.77,-181.56"/>
<polygon fill="midnightblue" stroke="midnightblue" points="488.07,-239.3 498.62,-238.42 489.82,-232.52 488.07,-239.3"/>
</g>
<!-- Node3&#45;&gt;Node7 -->
<g id="edge6" class="edge">
<title>Node3&#45;&gt;Node7</title>
<path fill="none" stroke="midnightblue" d="M472.59,-233.61C470.29,-232.19 468.08,-230.65 466,-228.95 437.02,-205.34 454.73,-180.98 430,-152.95 411.11,-131.54 382.28,-115.16 362.48,-105.57"/>
<polygon fill="midnightblue" stroke="midnightblue" points="471.41,-236.93 481.9,-238.41 474.62,-230.71 471.41,-236.93"/>
</g>
<!-- Node8 -->
<g id="node8" class="node">
<title>Node8</title>
<g id="a_node8"><a xlink:href="namespacepa.html#a2b97bf67604c439eca0a540664930d61" target="_top" xlink:title=" ">
<polygon fill="white" stroke="black" points="294,-235.45 294,-254.45 385,-254.45 385,-235.45 294,-235.45"/>
<text text-anchor="middle" x="339.5" y="-242.45" font-family="Helvetica,sans-Serif" font-size="10.00">pa::panoc_impl</text>
</a>
</g>
</g>
<!-- Node3&#45;&gt;Node8 -->
<g id="edge7" class="edge">
<title>Node3&#45;&gt;Node8</title>
<path fill="none" stroke="midnightblue" d="M465.12,-246.79C438.01,-246.39 408.61,-245.96 385.17,-245.61"/>
<polygon fill="midnightblue" stroke="midnightblue" points="465.34,-250.29 475.39,-246.94 465.44,-243.29 465.34,-250.29"/>
</g>
<!-- Node9 -->
<g id="node9" class="node">
<title>Node9</title>
<g id="a_node9"><a xlink:href="namespacepa.html#adf74e7674514afed3ae1c356ffcb9e45" target="_top" xlink:title=" ">
<polygon fill="white" stroke="black" points="149,-235.45 149,-254.45 213,-254.45 213,-235.45 149,-235.45"/>
<text text-anchor="middle" x="181" y="-242.45" font-family="Helvetica,sans-Serif" font-size="10.00">pa::panoc</text>
</a>
</g>
</g>
<!-- Node8&#45;&gt;Node9 -->
<g id="edge8" class="edge">
<title>Node8&#45;&gt;Node9</title>
<path fill="none" stroke="midnightblue" d="M283.47,-244.95C260.01,-244.95 233.49,-244.95 213.44,-244.95"/>
<polygon fill="midnightblue" stroke="midnightblue" points="283.65,-248.45 293.65,-244.95 283.65,-241.45 283.65,-248.45"/>
</g>
<!-- Node10 -->
<g id="node10" class="node">
<title>Node10</title>
<g id="a_node10"><a xlink:href="alpaqa_8cpp.html#a52c00cccef0976f125d4a27f9906c36b" target="_top" xlink:title=" ">
<polygon fill="white" stroke="black" points="0,-235.45 0,-254.45 113,-254.45 113,-235.45 0,-235.45"/>
<text text-anchor="middle" x="56.5" y="-242.45" font-family="Helvetica,sans-Serif" font-size="10.00">PYBIND11_MODULE</text>
</a>
</g>
</g>
<!-- Node9&#45;&gt;Node10 -->
<g id="edge9" class="edge">
<title>Node9&#45;&gt;Node10</title>
<path fill="none" stroke="midnightblue" d="M138.52,-244.95C130.45,-244.95 121.88,-244.95 113.43,-244.95"/>
<polygon fill="midnightblue" stroke="midnightblue" points="138.77,-248.45 148.77,-244.95 138.77,-241.45 138.77,-248.45"/>
</g>
</g>
</svg>
