<?xml version="1.0" encoding="UTF-8" standalone="no"?>
<!DOCTYPE svg PUBLIC "-//W3C//DTD SVG 1.1//EN"
 "http://www.w3.org/Graphics/SVG/1.1/DTD/svg11.dtd">
<!-- Generated by graphviz version 2.43.0 (0)
 -->
<!-- Title: panoc.cpp Pages: 1 -->
<svg width="1745pt" height="408pt"
 viewBox="0.00 0.00 1744.86 408.00" xmlns="http://www.w3.org/2000/svg" xmlns:xlink="http://www.w3.org/1999/xlink">
<g id="graph0" class="graph" transform="scale(1 1) rotate(0) translate(4 404)">
<title>panoc.cpp</title>
<polygon fill="white" stroke="transparent" points="-4,4 -4,-404 1740.86,-404 1740.86,4 -4,4"/>
<!-- Node1 -->
<g id="node1" class="node">
<title>Node1</title>
<g id="a_node1"><a xlink:title=" ">
<polygon fill="#bfbfbf" stroke="black" points="886.5,-380.5 886.5,-399.5 952.5,-399.5 952.5,-380.5 886.5,-380.5"/>
<text text-anchor="middle" x="919.5" y="-387.5" font-family="Helvetica,sans-Serif" font-size="10.00">panoc.cpp</text>
</a>
</g>
</g>
<!-- Node2 -->
<g id="node2" class="node">
<title>Node2</title>
<g id="a_node2"><a xlink:href="lbfgs_8hpp.html" target="_top" xlink:title=" ">
<polygon fill="white" stroke="black" points="763,-313.5 763,-343.5 910,-343.5 910,-313.5 763,-313.5"/>
<text text-anchor="start" x="771" y="-331.5" font-family="Helvetica,sans-Serif" font-size="10.00">panoc&#45;alm/inner/directions</text>
<text text-anchor="middle" x="836.5" y="-320.5" font-family="Helvetica,sans-Serif" font-size="10.00">/lbfgs.hpp</text>
</a>
</g>
</g>
<!-- Node1&#45;&gt;Node2 -->
<g id="edge1" class="edge">
<title>Node1&#45;&gt;Node2</title>
<path fill="none" stroke="midnightblue" d="M907.61,-380.48C896.37,-372.42 879.08,-360.02 864.36,-349.47"/>
<polygon fill="midnightblue" stroke="midnightblue" points="866.23,-346.5 856.06,-343.52 862.15,-352.19 866.23,-346.5"/>
</g>
<!-- Node11 -->
<g id="node11" class="node">
<title>Node11</title>
<g id="a_node11"><a xlink:href="inner_2panoc_8hpp.html" target="_top" xlink:title=" ">
<polygon fill="white" stroke="black" points="1320,-319 1320,-338 1469,-338 1469,-319 1320,-319"/>
<text text-anchor="middle" x="1394.5" y="-326" font-family="Helvetica,sans-Serif" font-size="10.00">panoc&#45;alm/inner/panoc.hpp</text>
</a>
</g>
</g>
<!-- Node1&#45;&gt;Node11 -->
<g id="edge12" class="edge">
<title>Node1&#45;&gt;Node11</title>
<path fill="none" stroke="midnightblue" d="M952.52,-384.86C1027.22,-375.51 1210.86,-352.5 1316.42,-339.28"/>
<polygon fill="midnightblue" stroke="midnightblue" points="1316.9,-342.75 1326.39,-338.03 1316.03,-335.8 1316.9,-342.75"/>
</g>
<!-- Node3 -->
<g id="node3" class="node">
<title>Node3</title>
<g id="a_node3"><a xlink:href="decl_2lbfgs_8hpp.html" target="_top" xlink:title=" ">
<polygon fill="white" stroke="black" points="0,-246.5 0,-276.5 147,-276.5 147,-246.5 0,-246.5"/>
<text text-anchor="start" x="8" y="-264.5" font-family="Helvetica,sans-Serif" font-size="10.00">panoc&#45;alm/inner/directions</text>
<text text-anchor="middle" x="73.5" y="-253.5" font-family="Helvetica,sans-Serif" font-size="10.00">/decl/lbfgs.hpp</text>
</a>
</g>
</g>
<!-- Node2&#45;&gt;Node3 -->
<g id="edge2" class="edge">
<title>Node2&#45;&gt;Node3</title>
<path fill="none" stroke="midnightblue" d="M762.99,-321.24C620.51,-309.1 307.58,-282.44 157.29,-269.64"/>
<polygon fill="midnightblue" stroke="midnightblue" points="157.46,-266.14 147.2,-268.78 156.86,-273.11 157.46,-266.14"/>
</g>
<!-- Node9 -->
<g id="node9" class="node">
<title>Node9</title>
<g id="a_node9"><a xlink:title=" ">
<polygon fill="white" stroke="#bfbfbf" points="1653,-118 1653,-137 1718,-137 1718,-118 1653,-118"/>
<text text-anchor="middle" x="1685.5" y="-125" font-family="Helvetica,sans-Serif" font-size="10.00">stdexcept</text>
</a>
</g>
</g>
<!-- Node2&#45;&gt;Node9 -->
<g id="edge10" class="edge">
<title>Node2&#45;&gt;Node9</title>
<path fill="none" stroke="midnightblue" d="M910.21,-326.96C1054.28,-325.03 1367.89,-316.29 1467.5,-277 1488.1,-268.87 1486.49,-255.48 1506.5,-246 1574.72,-213.67 1620.62,-264.84 1672.5,-210 1688.24,-193.36 1689.39,-165.73 1688.04,-147.32"/>
<polygon fill="midnightblue" stroke="midnightblue" points="1691.5,-146.81 1686.98,-137.23 1684.54,-147.54 1691.5,-146.81"/>
</g>
<!-- Node10 -->
<g id="node10" class="node">
<title>Node10</title>
<g id="a_node10"><a xlink:title=" ">
<polygon fill="white" stroke="#bfbfbf" points="474,-118 474,-137 543,-137 543,-118 474,-118"/>
<text text-anchor="middle" x="508.5" y="-125" font-family="Helvetica,sans-Serif" font-size="10.00">type_traits</text>
</a>
</g>
</g>
<!-- Node2&#45;&gt;Node10 -->
<g id="edge11" class="edge">
<title>Node2&#45;&gt;Node10</title>
<path fill="none" stroke="midnightblue" d="M762.65,-314.87C664.22,-296.35 498.24,-258.69 462.5,-210 446.6,-188.34 470.44,-160.65 489.31,-143.77"/>
<polygon fill="midnightblue" stroke="midnightblue" points="491.63,-146.39 496.96,-137.24 487.08,-141.07 491.63,-146.39"/>
</g>
<!-- Node4 -->
<g id="node4" class="node">
<title>Node4</title>
<g id="a_node4"><a xlink:href="box_8hpp.html" target="_top" xlink:title=" ">
<polygon fill="white" stroke="black" points="191,-118 191,-137 320,-137 320,-118 191,-118"/>
<text text-anchor="middle" x="255.5" y="-125" font-family="Helvetica,sans-Serif" font-size="10.00">panoc&#45;alm/util/box.hpp</text>
</a>
</g>
</g>
<!-- Node3&#45;&gt;Node4 -->
<g id="edge3" class="edge">
<title>Node3&#45;&gt;Node4</title>
<path fill="none" stroke="midnightblue" d="M72.8,-246.47C72.69,-228.5 75.27,-197.5 92.5,-179 107.47,-162.92 159.78,-148.53 201.15,-139.26"/>
<polygon fill="midnightblue" stroke="midnightblue" points="202.12,-142.63 211.14,-137.08 200.62,-135.8 202.12,-142.63"/>
</g>
<!-- Node5 -->
<g id="node5" class="node">
<title>Node5</title>
<g id="a_node5"><a xlink:href="vec_8hpp.html" target="_top" xlink:title=" ">
<polygon fill="white" stroke="black" points="228,-56.5 228,-75.5 283,-75.5 283,-56.5 228,-56.5"/>
<text text-anchor="middle" x="255.5" y="-63.5" font-family="Helvetica,sans-Serif" font-size="10.00">vec.hpp</text>
</a>
</g>
</g>
<!-- Node3&#45;&gt;Node5 -->
<g id="edge6" class="edge">
<title>Node3&#45;&gt;Node5</title>
<path fill="none" stroke="midnightblue" d="M59.48,-246.28C33.19,-217.92 -17.87,-153.45 16.5,-112 41.61,-81.72 156.76,-71.68 217.59,-68.46"/>
<polygon fill="midnightblue" stroke="midnightblue" points="218.12,-71.94 227.93,-67.95 217.77,-64.94 218.12,-71.94"/>
</g>
<!-- Node7 -->
<g id="node7" class="node">
<title>Node7</title>
<g id="a_node7"><a xlink:href="lbfgs-fwd_8hpp.html" target="_top" xlink:title=" ">
<polygon fill="white" stroke="black" points="26,-112.5 26,-142.5 173,-142.5 173,-112.5 26,-112.5"/>
<text text-anchor="start" x="34" y="-130.5" font-family="Helvetica,sans-Serif" font-size="10.00">panoc&#45;alm/inner/directions</text>
<text text-anchor="middle" x="99.5" y="-119.5" font-family="Helvetica,sans-Serif" font-size="10.00">/decl/lbfgs&#45;fwd.hpp</text>
</a>
</g>
</g>
<!-- Node3&#45;&gt;Node7 -->
<g id="edge7" class="edge">
<title>Node3&#45;&gt;Node7</title>
<path fill="none" stroke="midnightblue" d="M66.86,-246.3C60.08,-229.76 51.57,-201.78 59.5,-179 63.14,-168.54 69.95,-158.62 76.93,-150.38"/>
<polygon fill="midnightblue" stroke="midnightblue" points="79.72,-152.51 83.85,-142.75 74.54,-147.81 79.72,-152.51"/>
</g>
<!-- Node8 -->
<g id="node8" class="node">
<title>Node8</title>
<g id="a_node8"><a xlink:href="panoc-direction-update_8hpp.html" target="_top" xlink:title=" ">
<polygon fill="white" stroke="black" points="101,-179.5 101,-209.5 278,-209.5 278,-179.5 101,-179.5"/>
<text text-anchor="start" x="109" y="-197.5" font-family="Helvetica,sans-Serif" font-size="10.00">panoc&#45;alm/inner/directions</text>
<text text-anchor="middle" x="189.5" y="-186.5" font-family="Helvetica,sans-Serif" font-size="10.00">/decl/panoc&#45;direction&#45;update.hpp</text>
</a>
</g>
</g>
<!-- Node3&#45;&gt;Node8 -->
<g id="edge8" class="edge">
<title>Node3&#45;&gt;Node8</title>
<path fill="none" stroke="midnightblue" d="M98.67,-246.4C115.24,-237.11 137.14,-224.84 155.28,-214.67"/>
<polygon fill="midnightblue" stroke="midnightblue" points="157.37,-217.52 164.38,-209.58 153.94,-211.41 157.37,-217.52"/>
</g>
<!-- Node4&#45;&gt;Node5 -->
<g id="edge4" class="edge">
<title>Node4&#45;&gt;Node5</title>
<path fill="none" stroke="midnightblue" d="M255.5,-117.98C255.5,-109.58 255.5,-96.48 255.5,-85.66"/>
<polygon fill="midnightblue" stroke="midnightblue" points="259,-85.51 255.5,-75.51 252,-85.51 259,-85.51"/>
</g>
<!-- Node6 -->
<g id="node6" class="node">
<title>Node6</title>
<g id="a_node6"><a xlink:title=" ">
<polygon fill="white" stroke="#bfbfbf" points="221,-0.5 221,-19.5 290,-19.5 290,-0.5 221,-0.5"/>
<text text-anchor="middle" x="255.5" y="-7.5" font-family="Helvetica,sans-Serif" font-size="10.00">Eigen/Core</text>
</a>
</g>
</g>
<!-- Node5&#45;&gt;Node6 -->
<g id="edge5" class="edge">
<title>Node5&#45;&gt;Node6</title>
<path fill="none" stroke="midnightblue" d="M255.5,-56.08C255.5,-49.01 255.5,-38.86 255.5,-29.99"/>
<polygon fill="midnightblue" stroke="midnightblue" points="259,-29.75 255.5,-19.75 252,-29.75 259,-29.75"/>
</g>
<!-- Node8&#45;&gt;Node4 -->
<g id="edge9" class="edge">
<title>Node8&#45;&gt;Node4</title>
<path fill="none" stroke="midnightblue" d="M203.82,-179.4C214.32,-169.06 228.57,-155.02 239.45,-144.31"/>
<polygon fill="midnightblue" stroke="midnightblue" points="242,-146.71 246.67,-137.19 237.09,-141.72 242,-146.71"/>
</g>
<!-- Node11&#45;&gt;Node8 -->
<g id="edge44" class="edge">
<title>Node11&#45;&gt;Node8</title>
<path fill="none" stroke="midnightblue" d="M1319.68,-322.33C1206.2,-314.23 983.82,-297.35 795.5,-277 572.4,-252.9 514.71,-241.88 288.37,-210.11"/>
<polygon fill="midnightblue" stroke="midnightblue" points="288.55,-206.6 278.16,-208.68 287.58,-213.54 288.55,-206.6"/>
</g>
<!-- Node11&#45;&gt;Node9 -->
<g id="edge49" class="edge">
<title>Node11&#45;&gt;Node9</title>
<path fill="none" stroke="midnightblue" d="M1469.35,-326.87C1556.13,-324.37 1691.42,-314.38 1723.5,-277 1756.48,-238.57 1719.43,-175.21 1698.24,-145.22"/>
<polygon fill="midnightblue" stroke="midnightblue" points="1700.99,-143.06 1692.27,-137.05 1695.34,-147.19 1700.99,-143.06"/>
</g>
<!-- Node12 -->
<g id="node12" class="node">
<title>Node12</title>
<g id="a_node12"><a xlink:href="inner_2decl_2panoc_8hpp.html" target="_top" xlink:title=" ">
<polygon fill="white" stroke="black" points="804,-246.5 804,-276.5 923,-276.5 923,-246.5 804,-246.5"/>
<text text-anchor="start" x="812" y="-264.5" font-family="Helvetica,sans-Serif" font-size="10.00">panoc&#45;alm/inner/decl</text>
<text text-anchor="middle" x="863.5" y="-253.5" font-family="Helvetica,sans-Serif" font-size="10.00">/panoc.hpp</text>
</a>
</g>
</g>
<!-- Node11&#45;&gt;Node12 -->
<g id="edge13" class="edge">
<title>Node11&#45;&gt;Node12</title>
<path fill="none" stroke="midnightblue" d="M1324.81,-318.97C1223.07,-306.52 1034.96,-283.49 933.21,-271.03"/>
<polygon fill="midnightblue" stroke="midnightblue" points="933.39,-267.53 923.04,-269.79 932.54,-274.48 933.39,-267.53"/>
</g>
<!-- Node21 -->
<g id="node21" class="node">
<title>Node21</title>
<g id="a_node21"><a xlink:title=" ">
<polygon fill="white" stroke="#bfbfbf" points="1082.5,-118 1082.5,-137 1134.5,-137 1134.5,-118 1082.5,-118"/>
<text text-anchor="middle" x="1108.5" y="-125" font-family="Helvetica,sans-Serif" font-size="10.00">cassert</text>
</a>
</g>
</g>
<!-- Node11&#45;&gt;Node21 -->
<g id="edge45" class="edge">
<title>Node11&#45;&gt;Node21</title>
<path fill="none" stroke="midnightblue" d="M1373.02,-318.93C1332.34,-302.06 1242.41,-261.65 1178.5,-210 1154.78,-190.83 1132.81,-162.9 1120.02,-145.22"/>
<polygon fill="midnightblue" stroke="midnightblue" points="1122.85,-143.16 1114.22,-137.01 1117.13,-147.2 1122.85,-143.16"/>
</g>
<!-- Node29 -->
<g id="node29" class="node">
<title>Node29</title>
<g id="a_node29"><a xlink:href="panoc-helpers_8hpp.html" target="_top" xlink:title=" ">
<polygon fill="white" stroke="black" points="1331,-246.5 1331,-276.5 1458,-276.5 1458,-246.5 1331,-246.5"/>
<text text-anchor="start" x="1339" y="-264.5" font-family="Helvetica,sans-Serif" font-size="10.00">panoc&#45;alm/inner/detail</text>
<text text-anchor="middle" x="1394.5" y="-253.5" font-family="Helvetica,sans-Serif" font-size="10.00">/panoc&#45;helpers.hpp</text>
</a>
</g>
</g>
<!-- Node11&#45;&gt;Node29 -->
<g id="edge38" class="edge">
<title>Node11&#45;&gt;Node29</title>
<path fill="none" stroke="midnightblue" d="M1394.5,-318.73C1394.5,-310.54 1394.5,-297.92 1394.5,-286.71"/>
<polygon fill="midnightblue" stroke="midnightblue" points="1398,-286.59 1394.5,-276.59 1391,-286.59 1398,-286.59"/>
</g>
<!-- Node30 -->
<g id="node30" class="node">
<title>Node30</title>
<g id="a_node30"><a xlink:title=" ">
<polygon fill="white" stroke="#bfbfbf" points="1515,-252 1515,-271 1562,-271 1562,-252 1515,-252"/>
<text text-anchor="middle" x="1538.5" y="-259" font-family="Helvetica,sans-Serif" font-size="10.00">cmath</text>
</a>
</g>
</g>
<!-- Node11&#45;&gt;Node30 -->
<g id="edge46" class="edge">
<title>Node11&#45;&gt;Node30</title>
<path fill="none" stroke="midnightblue" d="M1413.62,-318.87C1438.26,-307.75 1481.31,-288.32 1509.86,-275.43"/>
<polygon fill="midnightblue" stroke="midnightblue" points="1511.62,-278.47 1519.3,-271.17 1508.74,-272.09 1511.62,-278.47"/>
</g>
<!-- Node31 -->
<g id="node31" class="node">
<title>Node31</title>
<g id="a_node31"><a xlink:title=" ">
<polygon fill="white" stroke="#bfbfbf" points="1580.5,-252 1580.5,-271 1636.5,-271 1636.5,-252 1580.5,-252"/>
<text text-anchor="middle" x="1608.5" y="-259" font-family="Helvetica,sans-Serif" font-size="10.00">iomanip</text>
</a>
</g>
</g>
<!-- Node11&#45;&gt;Node31 -->
<g id="edge47" class="edge">
<title>Node11&#45;&gt;Node31</title>
<path fill="none" stroke="midnightblue" d="M1428.07,-318.95C1463.89,-309.58 1522.15,-293.67 1571.5,-277 1573.62,-276.28 1575.81,-275.51 1578,-274.72"/>
<polygon fill="midnightblue" stroke="midnightblue" points="1579.38,-277.94 1587.5,-271.13 1576.9,-271.39 1579.38,-277.94"/>
</g>
<!-- Node32 -->
<g id="node32" class="node">
<title>Node32</title>
<g id="a_node32"><a xlink:title=" ">
<polygon fill="white" stroke="#bfbfbf" points="1654.5,-252 1654.5,-271 1714.5,-271 1714.5,-252 1654.5,-252"/>
<text text-anchor="middle" x="1684.5" y="-259" font-family="Helvetica,sans-Serif" font-size="10.00">iostream</text>
</a>
</g>
</g>
<!-- Node11&#45;&gt;Node32 -->
<g id="edge48" class="edge">
<title>Node11&#45;&gt;Node32</title>
<path fill="none" stroke="midnightblue" d="M1449.94,-318.93C1501.2,-310.39 1579.23,-295.86 1645.5,-277 1648.14,-276.25 1650.86,-275.4 1653.58,-274.5"/>
<polygon fill="midnightblue" stroke="midnightblue" points="1654.98,-277.72 1663.24,-271.09 1652.65,-271.11 1654.98,-277.72"/>
</g>
<!-- Node12&#45;&gt;Node8 -->
<g id="edge20" class="edge">
<title>Node12&#45;&gt;Node8</title>
<path fill="none" stroke="midnightblue" d="M803.68,-256.43C700.69,-249.17 483.03,-232.7 288.28,-210.04"/>
<polygon fill="midnightblue" stroke="midnightblue" points="288.48,-206.54 278.14,-208.86 287.67,-213.5 288.48,-206.54"/>
</g>
<!-- Node13 -->
<g id="node13" class="node">
<title>Node13</title>
<g id="a_node13"><a xlink:href="lbfgs-stepsize_8hpp.html" target="_top" xlink:title=" ">
<polygon fill="white" stroke="black" points="804,-179.5 804,-209.5 923,-209.5 923,-179.5 804,-179.5"/>
<text text-anchor="start" x="812" y="-197.5" font-family="Helvetica,sans-Serif" font-size="10.00">panoc&#45;alm/inner/decl</text>
<text text-anchor="middle" x="863.5" y="-186.5" font-family="Helvetica,sans-Serif" font-size="10.00">/lbfgs&#45;stepsize.hpp</text>
</a>
</g>
</g>
<!-- Node12&#45;&gt;Node13 -->
<g id="edge14" class="edge">
<title>Node12&#45;&gt;Node13</title>
<path fill="none" stroke="midnightblue" d="M863.5,-246.4C863.5,-238.64 863.5,-228.81 863.5,-219.86"/>
<polygon fill="midnightblue" stroke="midnightblue" points="867,-219.58 863.5,-209.58 860,-219.58 867,-219.58"/>
</g>
<!-- Node14 -->
<g id="node14" class="node">
<title>Node14</title>
<g id="a_node14"><a xlink:href="panoc-fwd_8hpp.html" target="_top" xlink:title=" ">
<polygon fill="white" stroke="black" points="296,-179.5 296,-209.5 415,-209.5 415,-179.5 296,-179.5"/>
<text text-anchor="start" x="304" y="-197.5" font-family="Helvetica,sans-Serif" font-size="10.00">panoc&#45;alm/inner/decl</text>
<text text-anchor="middle" x="355.5" y="-186.5" font-family="Helvetica,sans-Serif" font-size="10.00">/panoc&#45;fwd.hpp</text>
</a>
</g>
</g>
<!-- Node12&#45;&gt;Node14 -->
<g id="edge15" class="edge">
<title>Node12&#45;&gt;Node14</title>
<path fill="none" stroke="midnightblue" d="M803.69,-253.15C725.31,-243.47 583.56,-225.83 462.5,-210 450.52,-208.43 437.79,-206.74 425.45,-205.08"/>
<polygon fill="midnightblue" stroke="midnightblue" points="425.57,-201.56 415.19,-203.69 424.64,-208.5 425.57,-201.56"/>
</g>
<!-- Node15 -->
<g id="node15" class="node">
<title>Node15</title>
<g id="a_node15"><a xlink:href="panoc-stop-crit_8hpp.html" target="_top" xlink:title=" ">
<polygon fill="white" stroke="black" points="1519,-179.5 1519,-209.5 1638,-209.5 1638,-179.5 1519,-179.5"/>
<text text-anchor="start" x="1527" y="-197.5" font-family="Helvetica,sans-Serif" font-size="10.00">panoc&#45;alm/inner/decl</text>
<text text-anchor="middle" x="1578.5" y="-186.5" font-family="Helvetica,sans-Serif" font-size="10.00">/panoc&#45;stop&#45;crit.hpp</text>
</a>
</g>
</g>
<!-- Node12&#45;&gt;Node15 -->
<g id="edge17" class="edge">
<title>Node12&#45;&gt;Node15</title>
<path fill="none" stroke="midnightblue" d="M923.11,-258.48C1035.78,-254.09 1287.8,-241.55 1508.71,-210.14"/>
<polygon fill="midnightblue" stroke="midnightblue" points="1509.48,-213.57 1518.88,-208.68 1508.48,-206.64 1509.48,-213.57"/>
</g>
<!-- Node17 -->
<g id="node17" class="node">
<title>Node17</title>
<g id="a_node17"><a xlink:href="atomic__stop__signal_8hpp.html" target="_top" xlink:title=" ">
<polygon fill="white" stroke="black" points="1187.5,-179.5 1187.5,-209.5 1311.5,-209.5 1311.5,-179.5 1187.5,-179.5"/>
<text text-anchor="start" x="1195.5" y="-197.5" font-family="Helvetica,sans-Serif" font-size="10.00">panoc&#45;alm/util/atomic</text>
<text text-anchor="middle" x="1249.5" y="-186.5" font-family="Helvetica,sans-Serif" font-size="10.00">_stop_signal.hpp</text>
</a>
</g>
</g>
<!-- Node12&#45;&gt;Node17 -->
<g id="edge21" class="edge">
<title>Node12&#45;&gt;Node17</title>
<path fill="none" stroke="midnightblue" d="M923.01,-251.3C985.48,-241.52 1086.51,-225.38 1173.5,-210 1174.76,-209.78 1176.04,-209.55 1177.33,-209.32"/>
<polygon fill="midnightblue" stroke="midnightblue" points="1178.1,-212.74 1187.31,-207.51 1176.85,-205.85 1178.1,-212.74"/>
</g>
<!-- Node18 -->
<g id="node18" class="node">
<title>Node18</title>
<g id="a_node18"><a xlink:title=" ">
<polygon fill="white" stroke="#bfbfbf" points="1188.5,-118 1188.5,-137 1238.5,-137 1238.5,-118 1188.5,-118"/>
<text text-anchor="middle" x="1213.5" y="-125" font-family="Helvetica,sans-Serif" font-size="10.00">atomic</text>
</a>
</g>
</g>
<!-- Node12&#45;&gt;Node18 -->
<g id="edge34" class="edge">
<title>Node12&#45;&gt;Node18</title>
<path fill="none" stroke="midnightblue" d="M923.13,-255C972.84,-248.77 1044.63,-235.9 1102.5,-210 1139.71,-193.35 1176.59,-162.72 1197.08,-144.13"/>
<polygon fill="midnightblue" stroke="midnightblue" points="1199.61,-146.55 1204.57,-137.19 1194.85,-141.42 1199.61,-146.55"/>
</g>
<!-- Node19 -->
<g id="node19" class="node">
<title>Node19</title>
<g id="a_node19"><a xlink:href="lipschitz_8hpp.html" target="_top" xlink:title=" ">
<polygon fill="white" stroke="black" points="471.5,-185 471.5,-204 623.5,-204 623.5,-185 471.5,-185"/>
<text text-anchor="middle" x="547.5" y="-192" font-family="Helvetica,sans-Serif" font-size="10.00">panoc&#45;alm/util/lipschitz.hpp</text>
</a>
</g>
</g>
<!-- Node12&#45;&gt;Node19 -->
<g id="edge23" class="edge">
<title>Node12&#45;&gt;Node19</title>
<path fill="none" stroke="midnightblue" d="M803.69,-248.2C744.57,-236.04 655.05,-217.62 599,-206.09"/>
<polygon fill="midnightblue" stroke="midnightblue" points="599.44,-202.61 588.94,-204.02 598.02,-209.47 599.44,-202.61"/>
</g>
<!-- Node20 -->
<g id="node20" class="node">
<title>Node20</title>
<g id="a_node20"><a xlink:href="include_2panoc-alm_2util_2problem_8hpp.html" target="_top" xlink:title=" ">
<polygon fill="white" stroke="black" points="941.5,-185 941.5,-204 1093.5,-204 1093.5,-185 941.5,-185"/>
<text text-anchor="middle" x="1017.5" y="-192" font-family="Helvetica,sans-Serif" font-size="10.00">panoc&#45;alm/util/problem.hpp</text>
</a>
</g>
</g>
<!-- Node12&#45;&gt;Node20 -->
<g id="edge25" class="edge">
<title>Node12&#45;&gt;Node20</title>
<path fill="none" stroke="midnightblue" d="M896.92,-246.4C924.06,-234.94 961.97,-218.94 988,-207.95"/>
<polygon fill="midnightblue" stroke="midnightblue" points="989.49,-211.12 997.34,-204.01 986.77,-204.67 989.49,-211.12"/>
</g>
<!-- Node22 -->
<g id="node22" class="node">
<title>Node22</title>
<g id="a_node22"><a xlink:title=" ">
<polygon fill="white" stroke="#bfbfbf" points="736.5,-118 736.5,-137 786.5,-137 786.5,-118 736.5,-118"/>
<text text-anchor="middle" x="761.5" y="-125" font-family="Helvetica,sans-Serif" font-size="10.00">chrono</text>
</a>
</g>
</g>
<!-- Node12&#45;&gt;Node22 -->
<g id="edge35" class="edge">
<title>Node12&#45;&gt;Node22</title>
<path fill="none" stroke="midnightblue" d="M803.76,-252.89C753.33,-245.1 686.8,-231.11 670.5,-210 662.08,-199.09 663.51,-190.87 670.5,-179 682.63,-158.39 706.54,-145.6 726.81,-138.04"/>
<polygon fill="midnightblue" stroke="midnightblue" points="728.08,-141.31 736.4,-134.74 725.8,-134.69 728.08,-141.31"/>
</g>
<!-- Node25 -->
<g id="node25" class="node">
<title>Node25</title>
<g id="a_node25"><a xlink:href="solverstatus_8hpp.html" target="_top" xlink:title=" ">
<polygon fill="white" stroke="black" points="1330,-185 1330,-204 1501,-204 1501,-185 1330,-185"/>
<text text-anchor="middle" x="1415.5" y="-192" font-family="Helvetica,sans-Serif" font-size="10.00">panoc&#45;alm/util/solverstatus.hpp</text>
</a>
</g>
</g>
<!-- Node12&#45;&gt;Node25 -->
<g id="edge32" class="edge">
<title>Node12&#45;&gt;Node25</title>
<path fill="none" stroke="midnightblue" d="M923.12,-254.71C1010.45,-246.04 1178.24,-228.71 1320.5,-210 1330.78,-208.65 1341.67,-207.1 1352.26,-205.53"/>
<polygon fill="midnightblue" stroke="midnightblue" points="1352.93,-208.97 1362.3,-204.02 1351.89,-202.04 1352.93,-208.97"/>
</g>
<!-- Node27 -->
<g id="node27" class="node">
<title>Node27</title>
<g id="a_node27"><a xlink:title=" ">
<polygon fill="white" stroke="#bfbfbf" points="679.5,-185 679.5,-204 723.5,-204 723.5,-185 679.5,-185"/>
<text text-anchor="middle" x="701.5" y="-192" font-family="Helvetica,sans-Serif" font-size="10.00">limits</text>
</a>
</g>
</g>
<!-- Node12&#45;&gt;Node27 -->
<g id="edge36" class="edge">
<title>Node12&#45;&gt;Node27</title>
<path fill="none" stroke="midnightblue" d="M825.1,-246.5C798.84,-236.73 763.33,-223.14 732.5,-210 731.3,-209.49 730.08,-208.96 728.85,-208.42"/>
<polygon fill="midnightblue" stroke="midnightblue" points="729.99,-205.09 719.44,-204.15 727.1,-211.47 729.99,-205.09"/>
</g>
<!-- Node28 -->
<g id="node28" class="node">
<title>Node28</title>
<g id="a_node28"><a xlink:title=" ">
<polygon fill="white" stroke="#bfbfbf" points="741.5,-185 741.5,-204 785.5,-204 785.5,-185 741.5,-185"/>
<text text-anchor="middle" x="763.5" y="-192" font-family="Helvetica,sans-Serif" font-size="10.00">string</text>
</a>
</g>
</g>
<!-- Node12&#45;&gt;Node28 -->
<g id="edge37" class="edge">
<title>Node12&#45;&gt;Node28</title>
<path fill="none" stroke="midnightblue" d="M841.8,-246.4C825.03,-235.5 801.93,-220.48 785.17,-209.58"/>
<polygon fill="midnightblue" stroke="midnightblue" points="786.88,-206.52 776.59,-204.01 783.06,-212.39 786.88,-206.52"/>
</g>
<!-- Node14&#45;&gt;Node7 -->
<g id="edge16" class="edge">
<title>Node14&#45;&gt;Node7</title>
<path fill="none" stroke="midnightblue" d="M300.27,-179.48C260.53,-169.39 206.79,-155.74 164.91,-145.11"/>
<polygon fill="midnightblue" stroke="midnightblue" points="165.63,-141.68 155.08,-142.61 163.91,-148.46 165.63,-141.68"/>
</g>
<!-- Node15&#45;&gt;Node9 -->
<g id="edge19" class="edge">
<title>Node15&#45;&gt;Node9</title>
<path fill="none" stroke="midnightblue" d="M1601.72,-179.4C1619.83,-168.39 1644.84,-153.2 1662.81,-142.28"/>
<polygon fill="midnightblue" stroke="midnightblue" points="1664.77,-145.19 1671.5,-137.01 1661.13,-139.21 1664.77,-145.19"/>
</g>
<!-- Node16 -->
<g id="node16" class="node">
<title>Node16</title>
<g id="a_node16"><a xlink:title=" ">
<polygon fill="white" stroke="#bfbfbf" points="1550,-118 1550,-137 1607,-137 1607,-118 1550,-118"/>
<text text-anchor="middle" x="1578.5" y="-125" font-family="Helvetica,sans-Serif" font-size="10.00">ostream</text>
</a>
</g>
</g>
<!-- Node15&#45;&gt;Node16 -->
<g id="edge18" class="edge">
<title>Node15&#45;&gt;Node16</title>
<path fill="none" stroke="midnightblue" d="M1578.5,-179.4C1578.5,-170.06 1578.5,-157.71 1578.5,-147.52"/>
<polygon fill="midnightblue" stroke="midnightblue" points="1582,-147.19 1578.5,-137.19 1575,-147.19 1582,-147.19"/>
</g>
<!-- Node17&#45;&gt;Node18 -->
<g id="edge22" class="edge">
<title>Node17&#45;&gt;Node18</title>
<path fill="none" stroke="midnightblue" d="M1241.69,-179.4C1236.3,-169.66 1229.09,-156.65 1223.31,-146.21"/>
<polygon fill="midnightblue" stroke="midnightblue" points="1226.22,-144.25 1218.32,-137.19 1220.1,-147.64 1226.22,-144.25"/>
</g>
<!-- Node19&#45;&gt;Node5 -->
<g id="edge24" class="edge">
<title>Node19&#45;&gt;Node5</title>
<path fill="none" stroke="midnightblue" d="M527.43,-184.81C476.88,-162.91 344.15,-105.4 284.85,-79.71"/>
<polygon fill="midnightblue" stroke="midnightblue" points="285.89,-76.35 275.32,-75.59 283.11,-82.78 285.89,-76.35"/>
</g>
<!-- Node20&#45;&gt;Node4 -->
<g id="edge26" class="edge">
<title>Node20&#45;&gt;Node4</title>
<path fill="none" stroke="midnightblue" d="M972.18,-184.95C959.39,-182.76 945.43,-180.58 932.5,-179 874.02,-171.85 493.93,-145.06 330.27,-133.68"/>
<polygon fill="midnightblue" stroke="midnightblue" points="330.49,-130.18 320.28,-132.98 330.01,-137.17 330.49,-130.18"/>
</g>
<!-- Node20&#45;&gt;Node10 -->
<g id="edge31" class="edge">
<title>Node20&#45;&gt;Node10</title>
<path fill="none" stroke="midnightblue" d="M969.91,-184.95C957.74,-182.88 944.65,-180.76 932.5,-179 794.81,-159.07 631.13,-141.22 553.56,-133.11"/>
<polygon fill="midnightblue" stroke="midnightblue" points="553.51,-129.59 543.2,-132.03 552.79,-136.55 553.51,-129.59"/>
</g>
<!-- Node20&#45;&gt;Node21 -->
<g id="edge27" class="edge">
<title>Node20&#45;&gt;Node21</title>
<path fill="none" stroke="midnightblue" d="M1029.77,-184.73C1044.65,-174.11 1069.93,-156.05 1087.83,-143.26"/>
<polygon fill="midnightblue" stroke="midnightblue" points="1090.32,-145.79 1096.42,-137.13 1086.25,-140.09 1090.32,-145.79"/>
</g>
<!-- Node20&#45;&gt;Node22 -->
<g id="edge28" class="edge">
<title>Node20&#45;&gt;Node22</title>
<path fill="none" stroke="midnightblue" d="M983.77,-184.94C935.22,-172.61 846.08,-149.97 796.72,-137.44"/>
<polygon fill="midnightblue" stroke="midnightblue" points="797.37,-134 786.82,-134.93 795.65,-140.78 797.37,-134"/>
</g>
<!-- Node23 -->
<g id="node23" class="node">
<title>Node23</title>
<g id="a_node23"><a xlink:title=" ">
<polygon fill="white" stroke="#bfbfbf" points="992,-118 992,-137 1057,-137 1057,-118 992,-118"/>
<text text-anchor="middle" x="1024.5" y="-125" font-family="Helvetica,sans-Serif" font-size="10.00">functional</text>
</a>
</g>
</g>
<!-- Node20&#45;&gt;Node23 -->
<g id="edge29" class="edge">
<title>Node20&#45;&gt;Node23</title>
<path fill="none" stroke="midnightblue" d="M1018.44,-184.73C1019.47,-175.18 1021.15,-159.62 1022.48,-147.28"/>
<polygon fill="midnightblue" stroke="midnightblue" points="1025.98,-147.44 1023.57,-137.13 1019.02,-146.7 1025.98,-147.44"/>
</g>
<!-- Node24 -->
<g id="node24" class="node">
<title>Node24</title>
<g id="a_node24"><a xlink:title=" ">
<polygon fill="white" stroke="#bfbfbf" points="915.5,-118 915.5,-137 973.5,-137 973.5,-118 915.5,-118"/>
<text text-anchor="middle" x="944.5" y="-125" font-family="Helvetica,sans-Serif" font-size="10.00">memory</text>
</a>
</g>
</g>
<!-- Node20&#45;&gt;Node24 -->
<g id="edge30" class="edge">
<title>Node20&#45;&gt;Node24</title>
<path fill="none" stroke="midnightblue" d="M1007.65,-184.73C995.94,-174.31 976.18,-156.71 961.88,-143.97"/>
<polygon fill="midnightblue" stroke="midnightblue" points="963.99,-141.16 954.19,-137.13 959.33,-146.39 963.99,-141.16"/>
</g>
<!-- Node26 -->
<g id="node26" class="node">
<title>Node26</title>
<g id="a_node26"><a xlink:title=" ">
<polygon fill="white" stroke="#bfbfbf" points="1391.5,-118 1391.5,-137 1439.5,-137 1439.5,-118 1391.5,-118"/>
<text text-anchor="middle" x="1415.5" y="-125" font-family="Helvetica,sans-Serif" font-size="10.00">iosfwd</text>
</a>
</g>
</g>
<!-- Node25&#45;&gt;Node26 -->
<g id="edge33" class="edge">
<title>Node25&#45;&gt;Node26</title>
<path fill="none" stroke="midnightblue" d="M1415.5,-184.73C1415.5,-175.18 1415.5,-159.62 1415.5,-147.28"/>
<polygon fill="midnightblue" stroke="midnightblue" points="1419,-147.13 1415.5,-137.13 1412,-147.13 1419,-147.13"/>
</g>
<!-- Node29&#45;&gt;Node9 -->
<g id="edge43" class="edge">
<title>Node29&#45;&gt;Node9</title>
<path fill="none" stroke="midnightblue" d="M1458.09,-248.53C1531.79,-234.56 1643.73,-212.96 1647.5,-210 1667.41,-194.36 1677.34,-165.83 1681.95,-147.02"/>
<polygon fill="midnightblue" stroke="midnightblue" points="1685.37,-147.75 1684.08,-137.23 1678.54,-146.26 1685.37,-147.75"/>
</g>
<!-- Node29&#45;&gt;Node15 -->
<g id="edge39" class="edge">
<title>Node29&#45;&gt;Node15</title>
<path fill="none" stroke="midnightblue" d="M1434.43,-246.4C1462.15,-236.6 1499.29,-223.48 1528.92,-213.02"/>
<polygon fill="midnightblue" stroke="midnightblue" points="1530.39,-216.21 1538.65,-209.58 1528.06,-209.61 1530.39,-216.21"/>
</g>
<!-- Node29&#45;&gt;Node17 -->
<g id="edge40" class="edge">
<title>Node29&#45;&gt;Node17</title>
<path fill="none" stroke="midnightblue" d="M1363.04,-246.4C1341.66,-236.81 1313.19,-224.05 1290.1,-213.7"/>
<polygon fill="midnightblue" stroke="midnightblue" points="1291.46,-210.47 1280.9,-209.58 1288.59,-216.86 1291.46,-210.47"/>
</g>
<!-- Node29&#45;&gt;Node20 -->
<g id="edge41" class="edge">
<title>Node29&#45;&gt;Node20</title>
<path fill="none" stroke="midnightblue" d="M1330.97,-249.55C1259.97,-237.31 1145.91,-217.64 1076.71,-205.71"/>
<polygon fill="midnightblue" stroke="midnightblue" points="1077.28,-202.26 1066.84,-204.01 1076.1,-209.15 1077.28,-202.26"/>
</g>
<!-- Node29&#45;&gt;Node25 -->
<g id="edge42" class="edge">
<title>Node29&#45;&gt;Node25</title>
<path fill="none" stroke="midnightblue" d="M1399.06,-246.4C1402.14,-236.86 1406.23,-224.18 1409.57,-213.86"/>
<polygon fill="midnightblue" stroke="midnightblue" points="1412.95,-214.79 1412.69,-204.19 1406.29,-212.63 1412.95,-214.79"/>
</g>
</g>
</svg>
