<?xml version="1.0" encoding="UTF-8" standalone="no"?>
<!DOCTYPE svg PUBLIC "-//W3C//DTD SVG 1.1//EN"
 "http://www.w3.org/Graphics/SVG/1.1/DTD/svg11.dtd">
<!-- Generated by graphviz version 2.43.0 (0)
 -->
<!-- Title: pga.hpp Pages: 1 -->
<svg width="1113pt" height="330pt"
 viewBox="0.00 0.00 1113.00 330.00" xmlns="http://www.w3.org/2000/svg" xmlns:xlink="http://www.w3.org/1999/xlink">
<g id="graph0" class="graph" transform="scale(1 1) rotate(0) translate(4 326)">
<title>pga.hpp</title>
<polygon fill="white" stroke="transparent" points="-4,4 -4,-326 1109,-326 1109,4 -4,4"/>
<!-- Node1 -->
<g id="node1" class="node">
<title>Node1</title>
<g id="a_node1"><a xlink:title=" ">
<polygon fill="#bfbfbf" stroke="black" points="678,-302.5 678,-321.5 734,-321.5 734,-302.5 678,-302.5"/>
<text text-anchor="middle" x="706" y="-309.5" font-family="Helvetica,sans-Serif" font-size="10.00">pga.hpp</text>
</a>
</g>
</g>
<!-- Node2 -->
<g id="node2" class="node">
<title>Node2</title>
<g id="a_node2"><a xlink:href="panoc-stop-crit_8hpp.html" target="_top" xlink:title=" ">
<polygon fill="white" stroke="black" points="208.5,-168.5 208.5,-198.5 327.5,-198.5 327.5,-168.5 208.5,-168.5"/>
<text text-anchor="start" x="216.5" y="-186.5" font-family="Helvetica,sans-Serif" font-size="10.00">panoc&#45;alm/inner/decl</text>
<text text-anchor="middle" x="268" y="-175.5" font-family="Helvetica,sans-Serif" font-size="10.00">/panoc&#45;stop&#45;crit.hpp</text>
</a>
</g>
</g>
<!-- Node1&#45;&gt;Node2 -->
<g id="edge1" class="edge">
<title>Node1&#45;&gt;Node2</title>
<path fill="none" stroke="midnightblue" d="M677.84,-310.34C623.66,-308.32 501.79,-300.01 406,-266 364.54,-251.28 321.65,-223.65 294.91,-204.67"/>
<polygon fill="midnightblue" stroke="midnightblue" points="296.65,-201.61 286.49,-198.6 292.55,-207.29 296.65,-201.61"/>
</g>
<!-- Node4 -->
<g id="node4" class="node">
<title>Node4</title>
<g id="a_node4"><a xlink:title=" ">
<polygon fill="white" stroke="#bfbfbf" points="235.5,-112.5 235.5,-131.5 300.5,-131.5 300.5,-112.5 235.5,-112.5"/>
<text text-anchor="middle" x="268" y="-119.5" font-family="Helvetica,sans-Serif" font-size="10.00">stdexcept</text>
</a>
</g>
</g>
<!-- Node1&#45;&gt;Node4 -->
<g id="edge29" class="edge">
<title>Node1&#45;&gt;Node4</title>
<path fill="none" stroke="midnightblue" d="M677.91,-309.76C579.18,-304.69 251.14,-281.75 199,-199 191.66,-187.34 192.44,-180.11 199,-168 206.75,-153.7 221.23,-143.22 234.94,-135.99"/>
<polygon fill="midnightblue" stroke="midnightblue" points="236.74,-139.01 244.21,-131.5 233.69,-132.71 236.74,-139.01"/>
</g>
<!-- Node5 -->
<g id="node5" class="node">
<title>Node5</title>
<g id="a_node5"><a xlink:href="panoc-helpers_8hpp.html" target="_top" xlink:title=" ">
<polygon fill="white" stroke="black" points="415.5,-235.5 415.5,-265.5 542.5,-265.5 542.5,-235.5 415.5,-235.5"/>
<text text-anchor="start" x="423.5" y="-253.5" font-family="Helvetica,sans-Serif" font-size="10.00">panoc&#45;alm/inner/detail</text>
<text text-anchor="middle" x="479" y="-242.5" font-family="Helvetica,sans-Serif" font-size="10.00">/panoc&#45;helpers.hpp</text>
</a>
</g>
</g>
<!-- Node1&#45;&gt;Node5 -->
<g id="edge4" class="edge">
<title>Node1&#45;&gt;Node5</title>
<path fill="none" stroke="midnightblue" d="M677.71,-303.58C644.12,-294.78 587.06,-279.83 542.69,-268.19"/>
<polygon fill="midnightblue" stroke="midnightblue" points="543.41,-264.76 532.85,-265.61 541.64,-271.54 543.41,-264.76"/>
</g>
<!-- Node6 -->
<g id="node6" class="node">
<title>Node6</title>
<g id="a_node6"><a xlink:href="atomic__stop__signal_8hpp.html" target="_top" xlink:title=" ">
<polygon fill="white" stroke="black" points="384,-168.5 384,-198.5 508,-198.5 508,-168.5 384,-168.5"/>
<text text-anchor="start" x="392" y="-186.5" font-family="Helvetica,sans-Serif" font-size="10.00">panoc&#45;alm/util/atomic</text>
<text text-anchor="middle" x="446" y="-175.5" font-family="Helvetica,sans-Serif" font-size="10.00">_stop_signal.hpp</text>
</a>
</g>
</g>
<!-- Node1&#45;&gt;Node6 -->
<g id="edge20" class="edge">
<title>Node1&#45;&gt;Node6</title>
<path fill="none" stroke="midnightblue" d="M688.35,-302.29C659.61,-288.12 600.88,-259.22 551,-235 529.01,-224.32 504.38,-212.47 484.5,-202.93"/>
<polygon fill="midnightblue" stroke="midnightblue" points="485.98,-199.76 475.45,-198.59 482.95,-206.07 485.98,-199.76"/>
</g>
<!-- Node12 -->
<g id="node12" class="node">
<title>Node12</title>
<g id="a_node12"><a xlink:title=" ">
<polygon fill="white" stroke="#bfbfbf" points="709,-112.5 709,-131.5 761,-131.5 761,-112.5 709,-112.5"/>
<text text-anchor="middle" x="735" y="-119.5" font-family="Helvetica,sans-Serif" font-size="10.00">cassert</text>
</a>
</g>
</g>
<!-- Node1&#45;&gt;Node12 -->
<g id="edge24" class="edge">
<title>Node1&#45;&gt;Node12</title>
<path fill="none" stroke="midnightblue" d="M706.9,-302.25C709.25,-279.84 716.04,-218.55 725,-168 726.56,-159.22 728.65,-149.57 730.52,-141.46"/>
<polygon fill="midnightblue" stroke="midnightblue" points="733.96,-142.12 732.86,-131.58 727.15,-140.51 733.96,-142.12"/>
</g>
<!-- Node13 -->
<g id="node13" class="node">
<title>Node13</title>
<g id="a_node13"><a xlink:title=" ">
<polygon fill="white" stroke="#bfbfbf" points="779,-112.5 779,-131.5 829,-131.5 829,-112.5 779,-112.5"/>
<text text-anchor="middle" x="804" y="-119.5" font-family="Helvetica,sans-Serif" font-size="10.00">chrono</text>
</a>
</g>
</g>
<!-- Node1&#45;&gt;Node13 -->
<g id="edge25" class="edge">
<title>Node1&#45;&gt;Node13</title>
<path fill="none" stroke="midnightblue" d="M734.24,-305.42C781.32,-294.41 874.57,-265.02 914,-199 921.07,-187.17 921.68,-179.44 914,-168 905.2,-154.9 867.65,-141.39 838.84,-132.63"/>
<polygon fill="midnightblue" stroke="midnightblue" points="839.66,-129.23 829.08,-129.74 837.67,-135.94 839.66,-129.23"/>
</g>
<!-- Node17 -->
<g id="node17" class="node">
<title>Node17</title>
<g id="a_node17"><a xlink:href="solverstatus_8hpp.html" target="_top" xlink:title=" ">
<polygon fill="white" stroke="black" points="734.5,-174 734.5,-193 905.5,-193 905.5,-174 734.5,-174"/>
<text text-anchor="middle" x="820" y="-181" font-family="Helvetica,sans-Serif" font-size="10.00">panoc&#45;alm/util/solverstatus.hpp</text>
</a>
</g>
</g>
<!-- Node1&#45;&gt;Node17 -->
<g id="edge23" class="edge">
<title>Node1&#45;&gt;Node17</title>
<path fill="none" stroke="midnightblue" d="M713.84,-302.31C732.71,-281.36 780.93,-227.85 805.35,-200.75"/>
<polygon fill="midnightblue" stroke="midnightblue" points="808.01,-203.03 812.11,-193.26 802.81,-198.34 808.01,-203.03"/>
</g>
<!-- Node19 -->
<g id="node19" class="node">
<title>Node19</title>
<g id="a_node19"><a xlink:href="lipschitz_8hpp.html" target="_top" xlink:title=" ">
<polygon fill="white" stroke="black" points="0,-174 0,-193 152,-193 152,-174 0,-174"/>
<text text-anchor="middle" x="76" y="-181" font-family="Helvetica,sans-Serif" font-size="10.00">panoc&#45;alm/util/lipschitz.hpp</text>
</a>
</g>
</g>
<!-- Node1&#45;&gt;Node19 -->
<g id="edge21" class="edge">
<title>Node1&#45;&gt;Node19</title>
<path fill="none" stroke="midnightblue" d="M677.73,-311.01C580.3,-310.69 259.31,-306.5 166,-266 133.13,-251.73 104.24,-220.49 88.53,-201.09"/>
<polygon fill="midnightblue" stroke="midnightblue" points="91.2,-198.83 82.27,-193.12 85.69,-203.15 91.2,-198.83"/>
</g>
<!-- Node20 -->
<g id="node20" class="node">
<title>Node20</title>
<g id="a_node20"><a xlink:title=" ">
<polygon fill="white" stroke="#bfbfbf" points="905.5,-241 905.5,-260 952.5,-260 952.5,-241 905.5,-241"/>
<text text-anchor="middle" x="929" y="-248" font-family="Helvetica,sans-Serif" font-size="10.00">cmath</text>
</a>
</g>
</g>
<!-- Node1&#45;&gt;Node20 -->
<g id="edge26" class="edge">
<title>Node1&#45;&gt;Node20</title>
<path fill="none" stroke="midnightblue" d="M734.19,-305.3C770.73,-297.65 836.24,-283.03 891,-266 893.42,-265.25 895.91,-264.42 898.39,-263.56"/>
<polygon fill="midnightblue" stroke="midnightblue" points="899.66,-266.82 907.86,-260.11 897.27,-260.24 899.66,-266.82"/>
</g>
<!-- Node21 -->
<g id="node21" class="node">
<title>Node21</title>
<g id="a_node21"><a xlink:title=" ">
<polygon fill="white" stroke="#bfbfbf" points="971,-241 971,-260 1027,-260 1027,-241 971,-241"/>
<text text-anchor="middle" x="999" y="-248" font-family="Helvetica,sans-Serif" font-size="10.00">iomanip</text>
</a>
</g>
</g>
<!-- Node1&#45;&gt;Node21 -->
<g id="edge27" class="edge">
<title>Node1&#45;&gt;Node21</title>
<path fill="none" stroke="midnightblue" d="M734.31,-307.79C781.78,-302.01 880.19,-288.33 961,-266 963.65,-265.27 966.38,-264.42 969.09,-263.51"/>
<polygon fill="midnightblue" stroke="midnightblue" points="970.5,-266.73 978.73,-260.05 968.13,-260.14 970.5,-266.73"/>
</g>
<!-- Node22 -->
<g id="node22" class="node">
<title>Node22</title>
<g id="a_node22"><a xlink:title=" ">
<polygon fill="white" stroke="#bfbfbf" points="1045,-241 1045,-260 1105,-260 1105,-241 1045,-241"/>
<text text-anchor="middle" x="1075" y="-248" font-family="Helvetica,sans-Serif" font-size="10.00">iostream</text>
</a>
</g>
</g>
<!-- Node1&#45;&gt;Node22 -->
<g id="edge28" class="edge">
<title>Node1&#45;&gt;Node22</title>
<path fill="none" stroke="midnightblue" d="M734.21,-309.26C791.72,-305.24 926.35,-293.5 1036,-266 1038.99,-265.25 1042.06,-264.35 1045.11,-263.37"/>
<polygon fill="midnightblue" stroke="midnightblue" points="1046.34,-266.64 1054.62,-260.04 1044.03,-260.04 1046.34,-266.64"/>
</g>
<!-- Node3 -->
<g id="node3" class="node">
<title>Node3</title>
<g id="a_node3"><a xlink:title=" ">
<polygon fill="white" stroke="#bfbfbf" points="160.5,-112.5 160.5,-131.5 217.5,-131.5 217.5,-112.5 160.5,-112.5"/>
<text text-anchor="middle" x="189" y="-119.5" font-family="Helvetica,sans-Serif" font-size="10.00">ostream</text>
</a>
</g>
</g>
<!-- Node2&#45;&gt;Node3 -->
<g id="edge2" class="edge">
<title>Node2&#45;&gt;Node3</title>
<path fill="none" stroke="midnightblue" d="M249.28,-168.4C237.09,-159.22 221.21,-147.26 208.81,-137.92"/>
<polygon fill="midnightblue" stroke="midnightblue" points="210.59,-134.88 200.5,-131.66 206.38,-140.47 210.59,-134.88"/>
</g>
<!-- Node2&#45;&gt;Node4 -->
<g id="edge3" class="edge">
<title>Node2&#45;&gt;Node4</title>
<path fill="none" stroke="midnightblue" d="M268,-168.4C268,-160.47 268,-150.46 268,-141.86"/>
<polygon fill="midnightblue" stroke="midnightblue" points="271.5,-141.66 268,-131.66 264.5,-141.66 271.5,-141.66"/>
</g>
<!-- Node5&#45;&gt;Node2 -->
<g id="edge5" class="edge">
<title>Node5&#45;&gt;Node2</title>
<path fill="none" stroke="midnightblue" d="M433.48,-235.48C401.28,-225.56 357.92,-212.2 323.67,-201.65"/>
<polygon fill="midnightblue" stroke="midnightblue" points="324.39,-198.21 313.81,-198.61 322.33,-204.9 324.39,-198.21"/>
</g>
<!-- Node5&#45;&gt;Node4 -->
<g id="edge19" class="edge">
<title>Node5&#45;&gt;Node4</title>
<path fill="none" stroke="midnightblue" d="M445.22,-235.37C424.37,-226.1 397.42,-213.11 375,-199 356.26,-187.2 353.92,-181.01 336,-168 321.11,-157.19 303.81,-145.75 290.38,-137.11"/>
<polygon fill="midnightblue" stroke="midnightblue" points="292.1,-134.06 281.78,-131.62 288.33,-139.96 292.1,-134.06"/>
</g>
<!-- Node5&#45;&gt;Node6 -->
<g id="edge6" class="edge">
<title>Node5&#45;&gt;Node6</title>
<path fill="none" stroke="midnightblue" d="M471.84,-235.4C467.73,-227.3 462.47,-216.94 457.77,-207.69"/>
<polygon fill="midnightblue" stroke="midnightblue" points="460.79,-205.91 453.15,-198.58 454.55,-209.08 460.79,-205.91"/>
</g>
<!-- Node8 -->
<g id="node8" class="node">
<title>Node8</title>
<g id="a_node8"><a xlink:href="include_2panoc-alm_2util_2problem_8hpp.html" target="_top" xlink:title=" ">
<polygon fill="white" stroke="black" points="526,-174 526,-193 678,-193 678,-174 526,-174"/>
<text text-anchor="middle" x="602" y="-181" font-family="Helvetica,sans-Serif" font-size="10.00">panoc&#45;alm/util/problem.hpp</text>
</a>
</g>
</g>
<!-- Node5&#45;&gt;Node8 -->
<g id="edge8" class="edge">
<title>Node5&#45;&gt;Node8</title>
<path fill="none" stroke="midnightblue" d="M505.69,-235.4C526.89,-224.19 556.32,-208.64 577.05,-197.69"/>
<polygon fill="midnightblue" stroke="midnightblue" points="578.7,-200.77 585.9,-193.01 575.43,-194.58 578.7,-200.77"/>
</g>
<!-- Node5&#45;&gt;Node17 -->
<g id="edge17" class="edge">
<title>Node5&#45;&gt;Node17</title>
<path fill="none" stroke="midnightblue" d="M542.74,-237.35C606.79,-225.14 704.48,-206.52 765.17,-194.95"/>
<polygon fill="midnightblue" stroke="midnightblue" points="766.15,-198.33 775.32,-193.02 764.84,-191.45 766.15,-198.33"/>
</g>
<!-- Node7 -->
<g id="node7" class="node">
<title>Node7</title>
<g id="a_node7"><a xlink:title=" ">
<polygon fill="white" stroke="#bfbfbf" points="319,-112.5 319,-131.5 369,-131.5 369,-112.5 319,-112.5"/>
<text text-anchor="middle" x="344" y="-119.5" font-family="Helvetica,sans-Serif" font-size="10.00">atomic</text>
</a>
</g>
</g>
<!-- Node6&#45;&gt;Node7 -->
<g id="edge7" class="edge">
<title>Node6&#45;&gt;Node7</title>
<path fill="none" stroke="midnightblue" d="M421.83,-168.4C405.48,-158.86 383.99,-146.32 367.73,-136.84"/>
<polygon fill="midnightblue" stroke="midnightblue" points="369.24,-133.67 358.84,-131.66 365.72,-139.72 369.24,-133.67"/>
</g>
<!-- Node9 -->
<g id="node9" class="node">
<title>Node9</title>
<g id="a_node9"><a xlink:href="box_8hpp.html" target="_top" xlink:title=" ">
<polygon fill="white" stroke="black" points="635,-112.5 635,-131.5 691,-131.5 691,-112.5 635,-112.5"/>
<text text-anchor="middle" x="663" y="-119.5" font-family="Helvetica,sans-Serif" font-size="10.00">box.hpp</text>
</a>
</g>
</g>
<!-- Node8&#45;&gt;Node9 -->
<g id="edge9" class="edge">
<title>Node8&#45;&gt;Node9</title>
<path fill="none" stroke="midnightblue" d="M610.74,-173.98C620.16,-164.78 635.36,-149.96 646.95,-138.66"/>
<polygon fill="midnightblue" stroke="midnightblue" points="649.56,-141 654.28,-131.51 644.67,-135.99 649.56,-141"/>
</g>
<!-- Node8&#45;&gt;Node12 -->
<g id="edge12" class="edge">
<title>Node8&#45;&gt;Node12</title>
<path fill="none" stroke="midnightblue" d="M621.06,-173.98C643.47,-163.95 680.91,-147.2 706.71,-135.65"/>
<polygon fill="midnightblue" stroke="midnightblue" points="708.28,-138.79 715.98,-131.51 705.42,-132.4 708.28,-138.79"/>
</g>
<!-- Node8&#45;&gt;Node13 -->
<g id="edge13" class="edge">
<title>Node8&#45;&gt;Node13</title>
<path fill="none" stroke="midnightblue" d="M630.94,-173.98C667.47,-163.22 730.24,-144.73 769.3,-133.22"/>
<polygon fill="midnightblue" stroke="midnightblue" points="770.33,-136.57 778.93,-130.38 768.35,-129.85 770.33,-136.57"/>
</g>
<!-- Node14 -->
<g id="node14" class="node">
<title>Node14</title>
<g id="a_node14"><a xlink:title=" ">
<polygon fill="white" stroke="#bfbfbf" points="387.5,-112.5 387.5,-131.5 452.5,-131.5 452.5,-112.5 387.5,-112.5"/>
<text text-anchor="middle" x="420" y="-119.5" font-family="Helvetica,sans-Serif" font-size="10.00">functional</text>
</a>
</g>
</g>
<!-- Node8&#45;&gt;Node14 -->
<g id="edge14" class="edge">
<title>Node8&#45;&gt;Node14</title>
<path fill="none" stroke="midnightblue" d="M575.92,-173.98C544.43,-163.68 491.3,-146.31 455.94,-134.75"/>
<polygon fill="midnightblue" stroke="midnightblue" points="456.62,-131.29 446.03,-131.51 454.45,-137.94 456.62,-131.29"/>
</g>
<!-- Node15 -->
<g id="node15" class="node">
<title>Node15</title>
<g id="a_node15"><a xlink:title=" ">
<polygon fill="white" stroke="#bfbfbf" points="471,-112.5 471,-131.5 529,-131.5 529,-112.5 471,-112.5"/>
<text text-anchor="middle" x="500" y="-119.5" font-family="Helvetica,sans-Serif" font-size="10.00">memory</text>
</a>
</g>
</g>
<!-- Node8&#45;&gt;Node15 -->
<g id="edge15" class="edge">
<title>Node8&#45;&gt;Node15</title>
<path fill="none" stroke="midnightblue" d="M587.39,-173.98C570.65,-164.21 543,-148.08 523.28,-136.58"/>
<polygon fill="midnightblue" stroke="midnightblue" points="524.99,-133.52 514.59,-131.51 521.46,-139.57 524.99,-133.52"/>
</g>
<!-- Node16 -->
<g id="node16" class="node">
<title>Node16</title>
<g id="a_node16"><a xlink:title=" ">
<polygon fill="white" stroke="#bfbfbf" points="547.5,-112.5 547.5,-131.5 616.5,-131.5 616.5,-112.5 547.5,-112.5"/>
<text text-anchor="middle" x="582" y="-119.5" font-family="Helvetica,sans-Serif" font-size="10.00">type_traits</text>
</a>
</g>
</g>
<!-- Node8&#45;&gt;Node16 -->
<g id="edge16" class="edge">
<title>Node8&#45;&gt;Node16</title>
<path fill="none" stroke="midnightblue" d="M599.13,-173.98C596.28,-165.49 591.82,-152.2 588.16,-141.32"/>
<polygon fill="midnightblue" stroke="midnightblue" points="591.36,-139.87 584.86,-131.51 584.73,-142.1 591.36,-139.87"/>
</g>
<!-- Node10 -->
<g id="node10" class="node">
<title>Node10</title>
<g id="a_node10"><a xlink:href="vec_8hpp.html" target="_top" xlink:title=" ">
<polygon fill="white" stroke="black" points="341.5,-56.5 341.5,-75.5 396.5,-75.5 396.5,-56.5 341.5,-56.5"/>
<text text-anchor="middle" x="369" y="-63.5" font-family="Helvetica,sans-Serif" font-size="10.00">vec.hpp</text>
</a>
</g>
</g>
<!-- Node9&#45;&gt;Node10 -->
<g id="edge10" class="edge">
<title>Node9&#45;&gt;Node10</title>
<path fill="none" stroke="midnightblue" d="M634.82,-114.13C631.52,-113.38 628.19,-112.66 625,-112 547.84,-96.1 456.86,-80.96 406.8,-72.93"/>
<polygon fill="midnightblue" stroke="midnightblue" points="407.18,-69.45 396.76,-71.33 406.08,-76.36 407.18,-69.45"/>
</g>
<!-- Node11 -->
<g id="node11" class="node">
<title>Node11</title>
<g id="a_node11"><a xlink:title=" ">
<polygon fill="white" stroke="#bfbfbf" points="334.5,-0.5 334.5,-19.5 403.5,-19.5 403.5,-0.5 334.5,-0.5"/>
<text text-anchor="middle" x="369" y="-7.5" font-family="Helvetica,sans-Serif" font-size="10.00">Eigen/Core</text>
</a>
</g>
</g>
<!-- Node10&#45;&gt;Node11 -->
<g id="edge11" class="edge">
<title>Node10&#45;&gt;Node11</title>
<path fill="none" stroke="midnightblue" d="M369,-56.08C369,-49.01 369,-38.86 369,-29.99"/>
<polygon fill="midnightblue" stroke="midnightblue" points="372.5,-29.75 369,-19.75 365.5,-29.75 372.5,-29.75"/>
</g>
<!-- Node18 -->
<g id="node18" class="node">
<title>Node18</title>
<g id="a_node18"><a xlink:title=" ">
<polygon fill="white" stroke="#bfbfbf" points="847,-112.5 847,-131.5 895,-131.5 895,-112.5 847,-112.5"/>
<text text-anchor="middle" x="871" y="-119.5" font-family="Helvetica,sans-Serif" font-size="10.00">iosfwd</text>
</a>
</g>
</g>
<!-- Node17&#45;&gt;Node18 -->
<g id="edge18" class="edge">
<title>Node17&#45;&gt;Node18</title>
<path fill="none" stroke="midnightblue" d="M827.31,-173.98C835.03,-164.96 847.41,-150.52 857.02,-139.31"/>
<polygon fill="midnightblue" stroke="midnightblue" points="859.86,-141.38 863.71,-131.51 854.54,-136.82 859.86,-141.38"/>
</g>
<!-- Node19&#45;&gt;Node10 -->
<g id="edge22" class="edge">
<title>Node19&#45;&gt;Node10</title>
<path fill="none" stroke="midnightblue" d="M82.38,-173.98C94.15,-158.9 120.87,-127.65 151,-112 209.1,-81.82 285.78,-71.88 331,-68.6"/>
<polygon fill="midnightblue" stroke="midnightblue" points="331.49,-72.08 341.24,-67.94 331.03,-65.1 331.49,-72.08"/>
</g>
</g>
</svg>
