<?xml version="1.0" encoding="UTF-8" standalone="no"?>
<!DOCTYPE svg PUBLIC "-//W3C//DTD SVG 1.1//EN"
 "http://www.w3.org/Graphics/SVG/1.1/DTD/svg11.dtd">
<!-- Generated by graphviz version 2.43.0 (0)
 -->
<!-- Title: second&#45;order&#45;panoc.hpp Pages: 1 -->
<svg width="1579pt" height="341pt"
 viewBox="0.00 0.00 1578.50 341.00" xmlns="http://www.w3.org/2000/svg" xmlns:xlink="http://www.w3.org/1999/xlink">
<g id="graph0" class="graph" transform="scale(1 1) rotate(0) translate(4 337)">
<title>second&#45;order&#45;panoc.hpp</title>
<polygon fill="white" stroke="transparent" points="-4,4 -4,-337 1574.5,-337 1574.5,4 -4,4"/>
<!-- Node1 -->
<g id="node1" class="node">
<title>Node1</title>
<g id="a_node1"><a xlink:title=" ">
<polygon fill="#bfbfbf" stroke="black" points="1192,-313.5 1192,-332.5 1326,-332.5 1326,-313.5 1192,-313.5"/>
<text text-anchor="middle" x="1259" y="-320.5" font-family="Helvetica,sans-Serif" font-size="10.00">second&#45;order&#45;panoc.hpp</text>
</a>
</g>
</g>
<!-- Node2 -->
<g id="node2" class="node">
<title>Node2</title>
<g id="a_node2"><a xlink:href="decl_2second-order-panoc_8hpp.html" target="_top" xlink:title=" ">
<polygon fill="white" stroke="black" points="411.5,-246.5 411.5,-276.5 548.5,-276.5 548.5,-246.5 411.5,-246.5"/>
<text text-anchor="start" x="419.5" y="-264.5" font-family="Helvetica,sans-Serif" font-size="10.00">panoc&#45;alm/inner/decl</text>
<text text-anchor="middle" x="480" y="-253.5" font-family="Helvetica,sans-Serif" font-size="10.00">/second&#45;order&#45;panoc.hpp</text>
</a>
</g>
</g>
<!-- Node1&#45;&gt;Node2 -->
<g id="edge1" class="edge">
<title>Node1&#45;&gt;Node2</title>
<path fill="none" stroke="midnightblue" d="M1191.91,-316.88C1048.41,-305.92 712.3,-280.24 558.88,-268.52"/>
<polygon fill="midnightblue" stroke="midnightblue" points="558.83,-265.01 548.6,-267.74 558.3,-271.99 558.83,-265.01"/>
</g>
<!-- Node7 -->
<g id="node7" class="node">
<title>Node7</title>
<g id="a_node7"><a xlink:title=" ">
<polygon fill="white" stroke="#bfbfbf" points="1124.5,-118 1124.5,-137 1189.5,-137 1189.5,-118 1124.5,-118"/>
<text text-anchor="middle" x="1157" y="-125" font-family="Helvetica,sans-Serif" font-size="10.00">stdexcept</text>
</a>
</g>
</g>
<!-- Node1&#45;&gt;Node7 -->
<g id="edge36" class="edge">
<title>Node1&#45;&gt;Node7</title>
<path fill="none" stroke="midnightblue" d="M1257.43,-313.33C1252.91,-290.06 1238.3,-224.89 1209,-179 1200.37,-165.48 1187.43,-152.9 1176.63,-143.68"/>
<polygon fill="midnightblue" stroke="midnightblue" points="1178.83,-140.96 1168.88,-137.32 1174.39,-146.37 1178.83,-140.96"/>
</g>
<!-- Node15 -->
<g id="node15" class="node">
<title>Node15</title>
<g id="a_node15"><a xlink:title=" ">
<polygon fill="white" stroke="#bfbfbf" points="865,-118 865,-137 917,-137 917,-118 865,-118"/>
<text text-anchor="middle" x="891" y="-125" font-family="Helvetica,sans-Serif" font-size="10.00">cassert</text>
</a>
</g>
</g>
<!-- Node1&#45;&gt;Node15 -->
<g id="edge32" class="edge">
<title>Node1&#45;&gt;Node15</title>
<path fill="none" stroke="midnightblue" d="M1254.62,-313.45C1241.15,-288.1 1197.61,-213 1138,-179 1054.98,-131.65 1017.84,-169.46 926,-143 923.71,-142.34 921.36,-141.57 919.02,-140.75"/>
<polygon fill="midnightblue" stroke="midnightblue" points="920.2,-137.45 909.61,-137.12 917.68,-143.98 920.2,-137.45"/>
</g>
<!-- Node24 -->
<g id="node24" class="node">
<title>Node24</title>
<g id="a_node24"><a xlink:href="panoc-helpers_8hpp.html" target="_top" xlink:title=" ">
<polygon fill="white" stroke="black" points="924.5,-246.5 924.5,-276.5 1051.5,-276.5 1051.5,-246.5 924.5,-246.5"/>
<text text-anchor="start" x="932.5" y="-264.5" font-family="Helvetica,sans-Serif" font-size="10.00">panoc&#45;alm/inner/detail</text>
<text text-anchor="middle" x="988" y="-253.5" font-family="Helvetica,sans-Serif" font-size="10.00">/panoc&#45;helpers.hpp</text>
</a>
</g>
</g>
<!-- Node1&#45;&gt;Node24 -->
<g id="edge26" class="edge">
<title>Node1&#45;&gt;Node24</title>
<path fill="none" stroke="midnightblue" d="M1220.17,-313.48C1178.94,-304.42 1112.79,-289.9 1061.63,-278.67"/>
<polygon fill="midnightblue" stroke="midnightblue" points="1062.13,-275.19 1051.61,-276.47 1060.63,-282.03 1062.13,-275.19"/>
</g>
<!-- Node25 -->
<g id="node25" class="node">
<title>Node25</title>
<g id="a_node25"><a xlink:title=" ">
<polygon fill="white" stroke="#bfbfbf" points="1261.5,-252 1261.5,-271 1308.5,-271 1308.5,-252 1261.5,-252"/>
<text text-anchor="middle" x="1285" y="-259" font-family="Helvetica,sans-Serif" font-size="10.00">cmath</text>
</a>
</g>
</g>
<!-- Node1&#45;&gt;Node25 -->
<g id="edge33" class="edge">
<title>Node1&#45;&gt;Node25</title>
<path fill="none" stroke="midnightblue" d="M1262.73,-313.48C1266.47,-304.9 1272.36,-291.43 1277.14,-280.48"/>
<polygon fill="midnightblue" stroke="midnightblue" points="1280.48,-281.57 1281.28,-271.01 1274.07,-278.77 1280.48,-281.57"/>
</g>
<!-- Node26 -->
<g id="node26" class="node">
<title>Node26</title>
<g id="a_node26"><a xlink:title=" ">
<polygon fill="white" stroke="#bfbfbf" points="1327,-252 1327,-271 1383,-271 1383,-252 1327,-252"/>
<text text-anchor="middle" x="1355" y="-259" font-family="Helvetica,sans-Serif" font-size="10.00">iomanip</text>
</a>
</g>
</g>
<!-- Node1&#45;&gt;Node26 -->
<g id="edge34" class="edge">
<title>Node1&#45;&gt;Node26</title>
<path fill="none" stroke="midnightblue" d="M1272.75,-313.48C1288.37,-303.8 1314.06,-287.87 1332.58,-276.39"/>
<polygon fill="midnightblue" stroke="midnightblue" points="1334.62,-279.25 1341.27,-271.01 1330.93,-273.3 1334.62,-279.25"/>
</g>
<!-- Node27 -->
<g id="node27" class="node">
<title>Node27</title>
<g id="a_node27"><a xlink:title=" ">
<polygon fill="white" stroke="#bfbfbf" points="1401,-252 1401,-271 1461,-271 1461,-252 1401,-252"/>
<text text-anchor="middle" x="1431" y="-259" font-family="Helvetica,sans-Serif" font-size="10.00">iostream</text>
</a>
</g>
</g>
<!-- Node1&#45;&gt;Node27 -->
<g id="edge35" class="edge">
<title>Node1&#45;&gt;Node27</title>
<path fill="none" stroke="midnightblue" d="M1285.07,-313.43C1311.95,-304.54 1355.02,-290.13 1392,-277 1394.24,-276.2 1396.55,-275.37 1398.87,-274.53"/>
<polygon fill="midnightblue" stroke="midnightblue" points="1400.18,-277.78 1408.36,-271.05 1397.76,-271.21 1400.18,-277.78"/>
</g>
<!-- Node28 -->
<g id="node28" class="node">
<title>Node28</title>
<g id="a_node28"><a xlink:title=" ">
<polygon fill="white" stroke="#bfbfbf" points="1479.5,-252 1479.5,-271 1570.5,-271 1570.5,-252 1479.5,-252"/>
<text text-anchor="middle" x="1525" y="-259" font-family="Helvetica,sans-Serif" font-size="10.00">Eigen/Cholesky</text>
</a>
</g>
</g>
<!-- Node1&#45;&gt;Node28 -->
<g id="edge37" class="edge">
<title>Node1&#45;&gt;Node28</title>
<path fill="none" stroke="midnightblue" d="M1301.97,-313.46C1344.7,-304.82 1412.07,-290.81 1470,-277 1474.44,-275.94 1479.08,-274.79 1483.68,-273.62"/>
<polygon fill="midnightblue" stroke="midnightblue" points="1484.85,-276.93 1493.65,-271.04 1483.1,-270.16 1484.85,-276.93"/>
</g>
<!-- Node3 -->
<g id="node3" class="node">
<title>Node3</title>
<g id="a_node3"><a xlink:href="panoc-fwd_8hpp.html" target="_top" xlink:title=" ">
<polygon fill="white" stroke="black" points="170.5,-179.5 170.5,-209.5 289.5,-209.5 289.5,-179.5 170.5,-179.5"/>
<text text-anchor="start" x="178.5" y="-197.5" font-family="Helvetica,sans-Serif" font-size="10.00">panoc&#45;alm/inner/decl</text>
<text text-anchor="middle" x="230" y="-186.5" font-family="Helvetica,sans-Serif" font-size="10.00">/panoc&#45;fwd.hpp</text>
</a>
</g>
</g>
<!-- Node2&#45;&gt;Node3 -->
<g id="edge2" class="edge">
<title>Node2&#45;&gt;Node3</title>
<path fill="none" stroke="midnightblue" d="M426.06,-246.48C387.34,-236.41 335,-222.8 294.13,-212.17"/>
<polygon fill="midnightblue" stroke="midnightblue" points="294.83,-208.74 284.27,-209.61 293.07,-215.51 294.83,-208.74"/>
</g>
<!-- Node5 -->
<g id="node5" class="node">
<title>Node5</title>
<g id="a_node5"><a xlink:href="panoc-stop-crit_8hpp.html" target="_top" xlink:title=" ">
<polygon fill="white" stroke="black" points="1009.5,-179.5 1009.5,-209.5 1128.5,-209.5 1128.5,-179.5 1009.5,-179.5"/>
<text text-anchor="start" x="1017.5" y="-197.5" font-family="Helvetica,sans-Serif" font-size="10.00">panoc&#45;alm/inner/decl</text>
<text text-anchor="middle" x="1069" y="-186.5" font-family="Helvetica,sans-Serif" font-size="10.00">/panoc&#45;stop&#45;crit.hpp</text>
</a>
</g>
</g>
<!-- Node2&#45;&gt;Node5 -->
<g id="edge4" class="edge">
<title>Node2&#45;&gt;Node5</title>
<path fill="none" stroke="midnightblue" d="M548.58,-256.34C646.56,-249.85 832.36,-235.49 999.41,-210.14"/>
<polygon fill="midnightblue" stroke="midnightblue" points="1000.01,-213.59 1009.37,-208.62 998.95,-206.67 1000.01,-213.59"/>
</g>
<!-- Node8 -->
<g id="node8" class="node">
<title>Node8</title>
<g id="a_node8"><a xlink:href="atomic__stop__signal_8hpp.html" target="_top" xlink:title=" ">
<polygon fill="white" stroke="black" points="508,-179.5 508,-209.5 632,-209.5 632,-179.5 508,-179.5"/>
<text text-anchor="start" x="516" y="-197.5" font-family="Helvetica,sans-Serif" font-size="10.00">panoc&#45;alm/util/atomic</text>
<text text-anchor="middle" x="570" y="-186.5" font-family="Helvetica,sans-Serif" font-size="10.00">_stop_signal.hpp</text>
</a>
</g>
</g>
<!-- Node2&#45;&gt;Node8 -->
<g id="edge7" class="edge">
<title>Node2&#45;&gt;Node8</title>
<path fill="none" stroke="midnightblue" d="M499.53,-246.4C512.03,-237.37 528.44,-225.51 542.28,-215.52"/>
<polygon fill="midnightblue" stroke="midnightblue" points="544.45,-218.27 550.51,-209.58 540.35,-212.59 544.45,-218.27"/>
</g>
<!-- Node9 -->
<g id="node9" class="node">
<title>Node9</title>
<g id="a_node9"><a xlink:title=" ">
<polygon fill="white" stroke="#bfbfbf" points="407,-118 407,-137 457,-137 457,-118 407,-118"/>
<text text-anchor="middle" x="432" y="-125" font-family="Helvetica,sans-Serif" font-size="10.00">atomic</text>
</a>
</g>
</g>
<!-- Node2&#45;&gt;Node9 -->
<g id="edge22" class="edge">
<title>Node2&#45;&gt;Node9</title>
<path fill="none" stroke="midnightblue" d="M474.86,-246.37C466.11,-222.29 448.3,-173.31 438.62,-146.7"/>
<polygon fill="midnightblue" stroke="midnightblue" points="441.83,-145.3 435.13,-137.1 435.25,-147.69 441.83,-145.3"/>
</g>
<!-- Node10 -->
<g id="node10" class="node">
<title>Node10</title>
<g id="a_node10"><a xlink:href="lipschitz_8hpp.html" target="_top" xlink:title=" ">
<polygon fill="white" stroke="black" points="0,-185 0,-204 152,-204 152,-185 0,-185"/>
<text text-anchor="middle" x="76" y="-192" font-family="Helvetica,sans-Serif" font-size="10.00">panoc&#45;alm/util/lipschitz.hpp</text>
</a>
</g>
</g>
<!-- Node2&#45;&gt;Node10 -->
<g id="edge9" class="edge">
<title>Node2&#45;&gt;Node10</title>
<path fill="none" stroke="midnightblue" d="M411.2,-249.85C346.57,-239.79 247.17,-224.17 161,-210 152.72,-208.64 143.99,-207.18 135.4,-205.73"/>
<polygon fill="midnightblue" stroke="midnightblue" points="135.87,-202.26 125.42,-204.03 134.7,-209.16 135.87,-202.26"/>
</g>
<!-- Node13 -->
<g id="node13" class="node">
<title>Node13</title>
<g id="a_node13"><a xlink:href="include_2panoc-alm_2util_2problem_8hpp.html" target="_top" xlink:title=" ">
<polygon fill="white" stroke="black" points="650,-185 650,-204 802,-204 802,-185 650,-185"/>
<text text-anchor="middle" x="726" y="-192" font-family="Helvetica,sans-Serif" font-size="10.00">panoc&#45;alm/util/problem.hpp</text>
</a>
</g>
</g>
<!-- Node2&#45;&gt;Node13 -->
<g id="edge12" class="edge">
<title>Node2&#45;&gt;Node13</title>
<path fill="none" stroke="midnightblue" d="M533.08,-246.48C578.22,-234.55 642.19,-217.64 683.89,-206.63"/>
<polygon fill="midnightblue" stroke="midnightblue" points="684.95,-209.97 693.72,-204.03 683.16,-203.2 684.95,-209.97"/>
</g>
<!-- Node16 -->
<g id="node16" class="node">
<title>Node16</title>
<g id="a_node16"><a xlink:title=" ">
<polygon fill="white" stroke="#bfbfbf" points="475,-118 475,-137 525,-137 525,-118 475,-118"/>
<text text-anchor="middle" x="500" y="-125" font-family="Helvetica,sans-Serif" font-size="10.00">chrono</text>
</a>
</g>
</g>
<!-- Node2&#45;&gt;Node16 -->
<g id="edge23" class="edge">
<title>Node2&#45;&gt;Node16</title>
<path fill="none" stroke="midnightblue" d="M482.14,-246.37C485.77,-222.4 493.14,-173.75 497.19,-147.06"/>
<polygon fill="midnightblue" stroke="midnightblue" points="500.66,-147.51 498.7,-137.1 493.74,-146.46 500.66,-147.51"/>
</g>
<!-- Node20 -->
<g id="node20" class="node">
<title>Node20</title>
<g id="a_node20"><a xlink:href="solverstatus_8hpp.html" target="_top" xlink:title=" ">
<polygon fill="white" stroke="black" points="820.5,-185 820.5,-204 991.5,-204 991.5,-185 820.5,-185"/>
<text text-anchor="middle" x="906" y="-192" font-family="Helvetica,sans-Serif" font-size="10.00">panoc&#45;alm/util/solverstatus.hpp</text>
</a>
</g>
</g>
<!-- Node2&#45;&gt;Node20 -->
<g id="edge20" class="edge">
<title>Node2&#45;&gt;Node20</title>
<path fill="none" stroke="midnightblue" d="M548.92,-249.98C629.15,-237.74 760.72,-217.67 839.78,-205.6"/>
<polygon fill="midnightblue" stroke="midnightblue" points="840.74,-209 850.1,-204.03 839.69,-202.08 840.74,-209"/>
</g>
<!-- Node22 -->
<g id="node22" class="node">
<title>Node22</title>
<g id="a_node22"><a xlink:title=" ">
<polygon fill="white" stroke="#bfbfbf" points="308,-185 308,-204 352,-204 352,-185 308,-185"/>
<text text-anchor="middle" x="330" y="-192" font-family="Helvetica,sans-Serif" font-size="10.00">limits</text>
</a>
</g>
</g>
<!-- Node2&#45;&gt;Node22 -->
<g id="edge24" class="edge">
<title>Node2&#45;&gt;Node22</title>
<path fill="none" stroke="midnightblue" d="M446.01,-246.46C422.13,-236.5 389.49,-222.7 361,-210 359.81,-209.47 358.6,-208.92 357.37,-208.37"/>
<polygon fill="midnightblue" stroke="midnightblue" points="358.53,-205.05 347.98,-204.04 355.6,-211.41 358.53,-205.05"/>
</g>
<!-- Node23 -->
<g id="node23" class="node">
<title>Node23</title>
<g id="a_node23"><a xlink:title=" ">
<polygon fill="white" stroke="#bfbfbf" points="370,-185 370,-204 414,-204 414,-185 370,-185"/>
<text text-anchor="middle" x="392" y="-192" font-family="Helvetica,sans-Serif" font-size="10.00">string</text>
</a>
</g>
</g>
<!-- Node2&#45;&gt;Node23 -->
<g id="edge25" class="edge">
<title>Node2&#45;&gt;Node23</title>
<path fill="none" stroke="midnightblue" d="M460.91,-246.4C446.42,-235.7 426.57,-221.03 411.89,-210.19"/>
<polygon fill="midnightblue" stroke="midnightblue" points="413.64,-207.13 403.52,-204.01 409.48,-212.76 413.64,-207.13"/>
</g>
<!-- Node4 -->
<g id="node4" class="node">
<title>Node4</title>
<g id="a_node4"><a xlink:href="lbfgs-fwd_8hpp.html" target="_top" xlink:title=" ">
<polygon fill="white" stroke="black" points="156.5,-112.5 156.5,-142.5 303.5,-142.5 303.5,-112.5 156.5,-112.5"/>
<text text-anchor="start" x="164.5" y="-130.5" font-family="Helvetica,sans-Serif" font-size="10.00">panoc&#45;alm/inner/directions</text>
<text text-anchor="middle" x="230" y="-119.5" font-family="Helvetica,sans-Serif" font-size="10.00">/decl/lbfgs&#45;fwd.hpp</text>
</a>
</g>
</g>
<!-- Node3&#45;&gt;Node4 -->
<g id="edge3" class="edge">
<title>Node3&#45;&gt;Node4</title>
<path fill="none" stroke="midnightblue" d="M230,-179.4C230,-171.64 230,-161.81 230,-152.86"/>
<polygon fill="midnightblue" stroke="midnightblue" points="233.5,-152.58 230,-142.58 226.5,-152.58 233.5,-152.58"/>
</g>
<!-- Node6 -->
<g id="node6" class="node">
<title>Node6</title>
<g id="a_node6"><a xlink:title=" ">
<polygon fill="white" stroke="#bfbfbf" points="1040.5,-118 1040.5,-137 1097.5,-137 1097.5,-118 1040.5,-118"/>
<text text-anchor="middle" x="1069" y="-125" font-family="Helvetica,sans-Serif" font-size="10.00">ostream</text>
</a>
</g>
</g>
<!-- Node5&#45;&gt;Node6 -->
<g id="edge5" class="edge">
<title>Node5&#45;&gt;Node6</title>
<path fill="none" stroke="midnightblue" d="M1069,-179.4C1069,-170.06 1069,-157.71 1069,-147.52"/>
<polygon fill="midnightblue" stroke="midnightblue" points="1072.5,-147.19 1069,-137.19 1065.5,-147.19 1072.5,-147.19"/>
</g>
<!-- Node5&#45;&gt;Node7 -->
<g id="edge6" class="edge">
<title>Node5&#45;&gt;Node7</title>
<path fill="none" stroke="midnightblue" d="M1088.09,-179.4C1102.58,-168.7 1122.43,-154.03 1137.11,-143.19"/>
<polygon fill="midnightblue" stroke="midnightblue" points="1139.52,-145.76 1145.48,-137.01 1135.36,-140.13 1139.52,-145.76"/>
</g>
<!-- Node8&#45;&gt;Node9 -->
<g id="edge8" class="edge">
<title>Node8&#45;&gt;Node9</title>
<path fill="none" stroke="midnightblue" d="M540.06,-179.4C516.06,-168.09 482.66,-152.36 459.37,-141.39"/>
<polygon fill="midnightblue" stroke="midnightblue" points="460.6,-138.1 450.06,-137.01 457.62,-144.43 460.6,-138.1"/>
</g>
<!-- Node11 -->
<g id="node11" class="node">
<title>Node11</title>
<g id="a_node11"><a xlink:href="vec_8hpp.html" target="_top" xlink:title=" ">
<polygon fill="white" stroke="black" points="337,-56.5 337,-75.5 465,-75.5 465,-56.5 337,-56.5"/>
<text text-anchor="middle" x="401" y="-63.5" font-family="Helvetica,sans-Serif" font-size="10.00">panoc&#45;alm/util/vec.hpp</text>
</a>
</g>
</g>
<!-- Node10&#45;&gt;Node11 -->
<g id="edge10" class="edge">
<title>Node10&#45;&gt;Node11</title>
<path fill="none" stroke="midnightblue" d="M80.75,-184.89C90.63,-167.87 115.15,-130.02 147,-112 202.02,-80.88 273.59,-70.4 326.73,-67.25"/>
<polygon fill="midnightblue" stroke="midnightblue" points="326.96,-70.75 336.76,-66.73 326.6,-63.76 326.96,-70.75"/>
</g>
<!-- Node12 -->
<g id="node12" class="node">
<title>Node12</title>
<g id="a_node12"><a xlink:title=" ">
<polygon fill="white" stroke="#bfbfbf" points="366.5,-0.5 366.5,-19.5 435.5,-19.5 435.5,-0.5 366.5,-0.5"/>
<text text-anchor="middle" x="401" y="-7.5" font-family="Helvetica,sans-Serif" font-size="10.00">Eigen/Core</text>
</a>
</g>
</g>
<!-- Node11&#45;&gt;Node12 -->
<g id="edge11" class="edge">
<title>Node11&#45;&gt;Node12</title>
<path fill="none" stroke="midnightblue" d="M401,-56.08C401,-49.01 401,-38.86 401,-29.99"/>
<polygon fill="midnightblue" stroke="midnightblue" points="404.5,-29.75 401,-19.75 397.5,-29.75 404.5,-29.75"/>
</g>
<!-- Node14 -->
<g id="node14" class="node">
<title>Node14</title>
<g id="a_node14"><a xlink:href="box_8hpp.html" target="_top" xlink:title=" ">
<polygon fill="white" stroke="black" points="707,-118 707,-137 763,-137 763,-118 707,-118"/>
<text text-anchor="middle" x="735" y="-125" font-family="Helvetica,sans-Serif" font-size="10.00">box.hpp</text>
</a>
</g>
</g>
<!-- Node13&#45;&gt;Node14 -->
<g id="edge13" class="edge">
<title>Node13&#45;&gt;Node14</title>
<path fill="none" stroke="midnightblue" d="M727.21,-184.73C728.54,-175.18 730.69,-159.62 732.4,-147.28"/>
<polygon fill="midnightblue" stroke="midnightblue" points="735.9,-147.51 733.81,-137.13 728.97,-146.55 735.9,-147.51"/>
</g>
<!-- Node13&#45;&gt;Node15 -->
<g id="edge15" class="edge">
<title>Node13&#45;&gt;Node15</title>
<path fill="none" stroke="midnightblue" d="M748.61,-184.89C774.59,-174.96 818.47,-158.06 856,-143 857.64,-142.34 859.31,-141.66 861.01,-140.98"/>
<polygon fill="midnightblue" stroke="midnightblue" points="862.75,-144.04 870.67,-137.01 860.09,-137.57 862.75,-144.04"/>
</g>
<!-- Node13&#45;&gt;Node16 -->
<g id="edge16" class="edge">
<title>Node13&#45;&gt;Node16</title>
<path fill="none" stroke="midnightblue" d="M686.89,-184.98C647.74,-176.04 586.01,-160.82 534,-143 532.13,-142.36 530.22,-141.67 528.31,-140.94"/>
<polygon fill="midnightblue" stroke="midnightblue" points="529.45,-137.62 518.87,-137.13 526.83,-144.11 529.45,-137.62"/>
</g>
<!-- Node17 -->
<g id="node17" class="node">
<title>Node17</title>
<g id="a_node17"><a xlink:title=" ">
<polygon fill="white" stroke="#bfbfbf" points="781.5,-118 781.5,-137 846.5,-137 846.5,-118 781.5,-118"/>
<text text-anchor="middle" x="814" y="-125" font-family="Helvetica,sans-Serif" font-size="10.00">functional</text>
</a>
</g>
</g>
<!-- Node13&#45;&gt;Node17 -->
<g id="edge17" class="edge">
<title>Node13&#45;&gt;Node17</title>
<path fill="none" stroke="midnightblue" d="M737.87,-184.73C752.25,-174.11 776.7,-156.05 794.01,-143.26"/>
<polygon fill="midnightblue" stroke="midnightblue" points="796.36,-145.88 802.32,-137.13 792.2,-140.25 796.36,-145.88"/>
</g>
<!-- Node18 -->
<g id="node18" class="node">
<title>Node18</title>
<g id="a_node18"><a xlink:title=" ">
<polygon fill="white" stroke="#bfbfbf" points="543,-118 543,-137 601,-137 601,-118 543,-118"/>
<text text-anchor="middle" x="572" y="-125" font-family="Helvetica,sans-Serif" font-size="10.00">memory</text>
</a>
</g>
</g>
<!-- Node13&#45;&gt;Node18 -->
<g id="edge18" class="edge">
<title>Node13&#45;&gt;Node18</title>
<path fill="none" stroke="midnightblue" d="M705.55,-184.87C678.97,-173.65 632.36,-153.98 601.83,-141.09"/>
<polygon fill="midnightblue" stroke="midnightblue" points="603.11,-137.83 592.53,-137.17 600.39,-144.28 603.11,-137.83"/>
</g>
<!-- Node19 -->
<g id="node19" class="node">
<title>Node19</title>
<g id="a_node19"><a xlink:title=" ">
<polygon fill="white" stroke="#bfbfbf" points="619.5,-118 619.5,-137 688.5,-137 688.5,-118 619.5,-118"/>
<text text-anchor="middle" x="654" y="-125" font-family="Helvetica,sans-Serif" font-size="10.00">type_traits</text>
</a>
</g>
</g>
<!-- Node13&#45;&gt;Node19 -->
<g id="edge19" class="edge">
<title>Node13&#45;&gt;Node19</title>
<path fill="none" stroke="midnightblue" d="M716.29,-184.73C704.74,-174.31 685.25,-156.71 671.14,-143.97"/>
<polygon fill="midnightblue" stroke="midnightblue" points="673.32,-141.23 663.56,-137.13 668.63,-146.43 673.32,-141.23"/>
</g>
<!-- Node14&#45;&gt;Node11 -->
<g id="edge14" class="edge">
<title>Node14&#45;&gt;Node11</title>
<path fill="none" stroke="midnightblue" d="M715.69,-117.99C710.07,-115.78 703.86,-113.57 698,-112 623.6,-92.05 536.18,-80.14 475.54,-73.64"/>
<polygon fill="midnightblue" stroke="midnightblue" points="475.6,-70.12 465.29,-72.56 474.87,-77.09 475.6,-70.12"/>
</g>
<!-- Node21 -->
<g id="node21" class="node">
<title>Node21</title>
<g id="a_node21"><a xlink:title=" ">
<polygon fill="white" stroke="#bfbfbf" points="935,-118 935,-137 983,-137 983,-118 935,-118"/>
<text text-anchor="middle" x="959" y="-125" font-family="Helvetica,sans-Serif" font-size="10.00">iosfwd</text>
</a>
</g>
</g>
<!-- Node20&#45;&gt;Node21 -->
<g id="edge21" class="edge">
<title>Node20&#45;&gt;Node21</title>
<path fill="none" stroke="midnightblue" d="M913.15,-184.73C921.41,-174.6 935.2,-157.69 945.5,-145.06"/>
<polygon fill="midnightblue" stroke="midnightblue" points="948.36,-147.09 951.97,-137.13 942.93,-142.67 948.36,-147.09"/>
</g>
<!-- Node24&#45;&gt;Node5 -->
<g id="edge27" class="edge">
<title>Node24&#45;&gt;Node5</title>
<path fill="none" stroke="midnightblue" d="M1005.58,-246.4C1016.61,-237.54 1031.04,-225.96 1043.35,-216.09"/>
<polygon fill="midnightblue" stroke="midnightblue" points="1045.85,-218.56 1051.46,-209.58 1041.47,-213.11 1045.85,-218.56"/>
</g>
<!-- Node24&#45;&gt;Node7 -->
<g id="edge31" class="edge">
<title>Node24&#45;&gt;Node7</title>
<path fill="none" stroke="midnightblue" d="M1051.63,-253.47C1081.77,-246.92 1115.92,-234.3 1138,-210 1153.53,-192.9 1157.1,-165.6 1157.57,-147.37"/>
<polygon fill="midnightblue" stroke="midnightblue" points="1161.07,-147.35 1157.55,-137.36 1154.07,-147.37 1161.07,-147.35"/>
</g>
<!-- Node24&#45;&gt;Node8 -->
<g id="edge28" class="edge">
<title>Node24&#45;&gt;Node8</title>
<path fill="none" stroke="midnightblue" d="M924.19,-252.32C856.63,-243.41 746.64,-228.2 642.37,-210.18"/>
<polygon fill="midnightblue" stroke="midnightblue" points="642.75,-206.7 632.3,-208.43 641.55,-213.59 642.75,-206.7"/>
</g>
<!-- Node24&#45;&gt;Node13 -->
<g id="edge29" class="edge">
<title>Node24&#45;&gt;Node13</title>
<path fill="none" stroke="midnightblue" d="M931.47,-246.48C883.18,-234.5 814.68,-217.5 770.29,-206.49"/>
<polygon fill="midnightblue" stroke="midnightblue" points="770.93,-203.04 760.38,-204.03 769.24,-209.83 770.93,-203.04"/>
</g>
<!-- Node24&#45;&gt;Node20 -->
<g id="edge30" class="edge">
<title>Node24&#45;&gt;Node20</title>
<path fill="none" stroke="midnightblue" d="M970.21,-246.4C956.92,-235.86 938.77,-221.48 925.16,-210.69"/>
<polygon fill="midnightblue" stroke="midnightblue" points="926.98,-207.66 916.97,-204.19 922.63,-213.15 926.98,-207.66"/>
</g>
</g>
</svg>
