<?xml version="1.0" encoding="UTF-8" standalone="no"?>
<!DOCTYPE svg PUBLIC "-//W3C//DTD SVG 1.1//EN"
 "http://www.w3.org/Graphics/SVG/1.1/DTD/svg11.dtd">
<!-- Generated by graphviz version 2.43.0 (0)
 -->
<!-- Title: s Pages: 1 -->
<svg width="123pt" height="180pt"
 viewBox="0.00 0.00 123.00 180.00" xmlns="http://www.w3.org/2000/svg" xmlns:xlink="http://www.w3.org/1999/xlink">
<g id="graph0" class="graph" transform="scale(1 1) rotate(0) translate(4 176)">
<title>s</title>
<polygon fill="white" stroke="transparent" points="-4,4 -4,-176 119,-176 119,4 -4,4"/>
<!-- Node1 -->
<g id="node1" class="node">
<title>Node1</title>
<g id="a_node1"><a xlink:title=" ">
<polygon fill="#bfbfbf" stroke="black" points="86,-76.5 86,-95.5 115,-95.5 115,-76.5 86,-76.5"/>
<text text-anchor="middle" x="100.5" y="-83.5" font-family="Helvetica,sans-Serif" font-size="10.00">s</text>
</a>
</g>
</g>
<!-- Node2 -->
<g id="node2" class="node">
<title>Node2</title>
<g id="a_node2"><a xlink:href="../../de/d47/structpa_1_1problems_1_1RiskaverseProblem.html#a48d18723cae300a2d1e843fbb0862b07" target="_top" xlink:title=" ">
<polygon fill="white" stroke="black" points="10.5,-152.5 10.5,-171.5 39.5,-171.5 39.5,-152.5 10.5,-152.5"/>
<text text-anchor="middle" x="25" y="-159.5" font-family="Helvetica,sans-Serif" font-size="10.00">f</text>
</a>
</g>
</g>
<!-- Node1&#45;&gt;Node2 -->
<g id="edge1" class="edge">
<title>Node1&#45;&gt;Node2</title>
<path fill="none" stroke="midnightblue" d="M85.45,-103.85C75.95,-115.49 62.84,-130.73 50,-143 46.62,-146.23 42.73,-149.49 39.07,-152.37"/>
<polygon fill="midnightblue" stroke="midnightblue" points="88.41,-105.75 91.95,-95.76 82.96,-101.37 88.41,-105.75"/>
</g>
<!-- Node3 -->
<g id="node3" class="node">
<title>Node3</title>
<g id="a_node3"><a xlink:href="../../de/d47/structpa_1_1problems_1_1RiskaverseProblem.html#a84570933778fdc90281bc2cb2836350f" target="_top" xlink:title=" ">
<polygon fill="white" stroke="black" points="10.5,-114.5 10.5,-133.5 39.5,-133.5 39.5,-114.5 10.5,-114.5"/>
<text text-anchor="middle" x="25" y="-121.5" font-family="Helvetica,sans-Serif" font-size="10.00">g</text>
</a>
</g>
</g>
<!-- Node1&#45;&gt;Node3 -->
<g id="edge2" class="edge">
<title>Node1&#45;&gt;Node3</title>
<path fill="none" stroke="midnightblue" d="M76.55,-97.86C64.39,-104.15 49.87,-111.66 39.51,-117.01"/>
<polygon fill="midnightblue" stroke="midnightblue" points="78.4,-100.85 85.68,-93.15 75.18,-94.63 78.4,-100.85"/>
</g>
<!-- Node4 -->
<g id="node4" class="node">
<title>Node4</title>
<g id="a_node4"><a xlink:href="../../de/d47/structpa_1_1problems_1_1RiskaverseProblem.html#a0ebd29dcf49ac9f0c29f26939fa255d3" target="_top" xlink:title=" ">
<polygon fill="white" stroke="black" points="3,-76.5 3,-95.5 47,-95.5 47,-76.5 3,-76.5"/>
<text text-anchor="middle" x="25" y="-83.5" font-family="Helvetica,sans-Serif" font-size="10.00">get_C</text>
</a>
</g>
</g>
<!-- Node1&#45;&gt;Node4 -->
<g id="edge3" class="edge">
<title>Node1&#45;&gt;Node4</title>
<path fill="none" stroke="midnightblue" d="M75.67,-86C66.53,-86 56.17,-86 47.28,-86"/>
<polygon fill="midnightblue" stroke="midnightblue" points="75.68,-89.5 85.68,-86 75.68,-82.5 75.68,-89.5"/>
</g>
<!-- Node5 -->
<g id="node5" class="node">
<title>Node5</title>
<g id="a_node5"><a xlink:href="../../de/d47/structpa_1_1problems_1_1RiskaverseProblem.html#a1d5d1973612a36f1d8afb94eb8734eac" target="_top" xlink:title=" ">
<polygon fill="white" stroke="black" points="1.5,-38.5 1.5,-57.5 48.5,-57.5 48.5,-38.5 1.5,-38.5"/>
<text text-anchor="middle" x="25" y="-45.5" font-family="Helvetica,sans-Serif" font-size="10.00">grad_f</text>
</a>
</g>
</g>
<!-- Node1&#45;&gt;Node5 -->
<g id="edge4" class="edge">
<title>Node1&#45;&gt;Node5</title>
<path fill="none" stroke="midnightblue" d="M76.76,-74.24C66.4,-68.88 54.28,-62.62 44.48,-57.56"/>
<polygon fill="midnightblue" stroke="midnightblue" points="75.18,-77.37 85.68,-78.85 78.4,-71.15 75.18,-77.37"/>
</g>
<!-- Node6 -->
<g id="node6" class="node">
<title>Node6</title>
<g id="a_node6"><a xlink:href="../../de/d47/structpa_1_1problems_1_1RiskaverseProblem.html#a85f59b621d5a3227442b3a4c625bf07f" target="_top" xlink:title=" ">
<polygon fill="white" stroke="black" points="0,-0.5 0,-19.5 50,-19.5 50,-0.5 0,-0.5"/>
<text text-anchor="middle" x="25" y="-7.5" font-family="Helvetica,sans-Serif" font-size="10.00">grad_g</text>
</a>
</g>
</g>
<!-- Node1&#45;&gt;Node6 -->
<g id="edge5" class="edge">
<title>Node1&#45;&gt;Node6</title>
<path fill="none" stroke="midnightblue" d="M85.45,-68.15C75.95,-56.51 62.84,-41.27 50,-29 46.62,-25.77 42.73,-22.51 39.07,-19.63"/>
<polygon fill="midnightblue" stroke="midnightblue" points="82.96,-70.63 91.95,-76.24 88.41,-66.25 82.96,-70.63"/>
</g>
</g>
</svg>
