<?xml version="1.0" encoding="UTF-8" standalone="no"?>
<!DOCTYPE svg PUBLIC "-//W3C//DTD SVG 1.1//EN"
 "http://www.w3.org/Graphics/SVG/1.1/DTD/svg11.dtd">
<!-- Generated by graphviz version 2.43.0 (0)
 -->
<!-- Title: initialize Pages: 1 -->
<svg width="565pt" height="78pt"
 viewBox="0.00 0.00 565.00 77.50" xmlns="http://www.w3.org/2000/svg" xmlns:xlink="http://www.w3.org/1999/xlink">
<g id="graph0" class="graph" transform="scale(1 1) rotate(0) translate(4 73.5)">
<title>initialize</title>
<polygon fill="white" stroke="transparent" points="-4,4 -4,-73.5 561,-73.5 561,4 -4,4"/>
<!-- Node1 -->
<g id="node1" class="node">
<title>Node1</title>
<g id="a_node1"><a xlink:title=" ">
<polygon fill="#bfbfbf" stroke="black" points="0,-22.5 0,-41.5 59,-41.5 59,-22.5 0,-22.5"/>
<text text-anchor="middle" x="29.5" y="-29.5" font-family="Helvetica,sans-Serif" font-size="10.00">initialize</text>
</a>
</g>
</g>
<!-- Node2 -->
<g id="node2" class="node">
<title>Node2</title>
<g id="a_node2"><a xlink:href="../../d0/d6d/classpa_1_1SpecializedLBFGS.html#ac635435dc083d4ac90f811818e3e1526" target="_top" xlink:title="Initialize with the starting point x₀ and the gradient in that point.">
<polygon fill="white" stroke="black" points="95,-17 95,-47 217,-47 217,-17 95,-17"/>
<text text-anchor="start" x="103" y="-35" font-family="Helvetica,sans-Serif" font-size="10.00">pa::SpecializedLBFGS</text>
<text text-anchor="middle" x="156" y="-24" font-family="Helvetica,sans-Serif" font-size="10.00">::initialize</text>
</a>
</g>
</g>
<!-- Node1&#45;&gt;Node2 -->
<g id="edge1" class="edge">
<title>Node1&#45;&gt;Node2</title>
<path fill="none" stroke="midnightblue" d="M59.06,-32C66.83,-32 75.61,-32 84.61,-32"/>
<polygon fill="midnightblue" stroke="midnightblue" points="84.84,-35.5 94.84,-32 84.84,-28.5 84.84,-35.5"/>
</g>
<!-- Node3 -->
<g id="node3" class="node">
<title>Node3</title>
<g id="a_node3"><a xlink:href="../../d0/d6d/classpa_1_1SpecializedLBFGS.html#a7e9b3fd96d52976693a1fb57fb32ba3c" target="_top" xlink:title=" ">
<polygon fill="white" stroke="black" points="253,-41.5 253,-60.5 387,-60.5 387,-41.5 253,-41.5"/>
<text text-anchor="middle" x="320" y="-48.5" font-family="Helvetica,sans-Serif" font-size="10.00">pa::SpecializedLBFGS::g</text>
</a>
</g>
</g>
<!-- Node2&#45;&gt;Node3 -->
<g id="edge2" class="edge">
<title>Node2&#45;&gt;Node3</title>
<path fill="none" stroke="midnightblue" d="M217.32,-39.07C225.66,-40.05 234.32,-41.07 242.9,-42.07"/>
<polygon fill="midnightblue" stroke="midnightblue" points="242.58,-45.56 252.91,-43.25 243.39,-38.61 242.58,-45.56"/>
</g>
<!-- Node6 -->
<g id="node6" class="node">
<title>Node6</title>
<g id="a_node6"><a xlink:href="../../d0/d6d/classpa_1_1SpecializedLBFGS.html#ac8fb9b5f7c53b1285867cf99b0f79d17" target="_top" xlink:title=" ">
<polygon fill="white" stroke="black" points="253,-3.5 253,-22.5 387,-22.5 387,-3.5 253,-3.5"/>
<text text-anchor="middle" x="320" y="-10.5" font-family="Helvetica,sans-Serif" font-size="10.00">pa::SpecializedLBFGS::x</text>
</a>
</g>
</g>
<!-- Node2&#45;&gt;Node6 -->
<g id="edge5" class="edge">
<title>Node2&#45;&gt;Node6</title>
<path fill="none" stroke="midnightblue" d="M217.32,-24.93C225.66,-23.95 234.32,-22.93 242.9,-21.93"/>
<polygon fill="midnightblue" stroke="midnightblue" points="243.39,-25.39 252.91,-20.75 242.58,-18.44 243.39,-25.39"/>
</g>
<!-- Node4 -->
<g id="node4" class="node">
<title>Node4</title>
<g id="a_node4"><a xlink:href="../../d0/d6d/classpa_1_1SpecializedLBFGS.html#a5b5fd504f983f6b5f9beb1576ebf591a" target="_top" xlink:title="Get the number of previous vectors s, y, x and g stored in the buffer.">
<polygon fill="white" stroke="black" points="429,-39 429,-69 551,-69 551,-39 429,-39"/>
<text text-anchor="start" x="437" y="-57" font-family="Helvetica,sans-Serif" font-size="10.00">pa::SpecializedLBFGS</text>
<text text-anchor="middle" x="490" y="-46" font-family="Helvetica,sans-Serif" font-size="10.00">::history</text>
</a>
</g>
</g>
<!-- Node3&#45;&gt;Node4 -->
<g id="edge3" class="edge">
<title>Node3&#45;&gt;Node4</title>
<path fill="none" stroke="midnightblue" d="M387.4,-52.19C397.65,-52.37 408.26,-52.56 418.6,-52.74"/>
<polygon fill="midnightblue" stroke="midnightblue" points="418.75,-56.25 428.81,-52.93 418.88,-49.25 418.75,-56.25"/>
</g>
<!-- Node5 -->
<g id="node5" class="node">
<title>Node5</title>
<g id="a_node5"><a xlink:href="../../d0/d6d/classpa_1_1SpecializedLBFGS.html#ac88f0961aa7ed7c7415550ab2cad49c8" target="_top" xlink:title="Get the size of the s, y, x and g vectors in the buffer.">
<polygon fill="white" stroke="black" points="423,-0.5 423,-19.5 557,-19.5 557,-0.5 423,-0.5"/>
<text text-anchor="middle" x="490" y="-7.5" font-family="Helvetica,sans-Serif" font-size="10.00">pa::SpecializedLBFGS::n</text>
</a>
</g>
</g>
<!-- Node3&#45;&gt;Node5 -->
<g id="edge4" class="edge">
<title>Node3&#45;&gt;Node5</title>
<path fill="none" stroke="midnightblue" d="M359.96,-41.49C383.84,-35.66 414.61,-28.16 440.11,-21.93"/>
<polygon fill="midnightblue" stroke="midnightblue" points="441.07,-25.3 449.96,-19.53 439.41,-18.5 441.07,-25.3"/>
</g>
<!-- Node6&#45;&gt;Node4 -->
<g id="edge6" class="edge">
<title>Node6&#45;&gt;Node4</title>
<path fill="none" stroke="midnightblue" d="M359.96,-22.51C377.54,-26.8 398.85,-32 419.05,-36.93"/>
<polygon fill="midnightblue" stroke="midnightblue" points="418.31,-40.35 428.85,-39.32 419.97,-33.55 418.31,-40.35"/>
</g>
<!-- Node6&#45;&gt;Node5 -->
<g id="edge7" class="edge">
<title>Node6&#45;&gt;Node5</title>
<path fill="none" stroke="midnightblue" d="M387.4,-11.81C395.68,-11.67 404.2,-11.51 412.62,-11.36"/>
<polygon fill="midnightblue" stroke="midnightblue" points="412.87,-14.86 422.81,-11.18 412.75,-7.86 412.87,-14.86"/>
</g>
</g>
</svg>
