<?xml version="1.0" encoding="UTF-8" standalone="no"?>
<!DOCTYPE svg PUBLIC "-//W3C//DTD SVG 1.1//EN"
 "http://www.w3.org/Graphics/SVG/1.1/DTD/svg11.dtd">
<!-- Generated by graphviz version 2.43.0 (0)
 -->
<!-- Title: problem.hpp Pages: 1 -->
<svg width="1558pt" height="252pt"
 viewBox="0.00 0.00 1558.00 252.00" xmlns="http://www.w3.org/2000/svg" xmlns:xlink="http://www.w3.org/1999/xlink">
<g id="graph0" class="graph" transform="scale(1 1) rotate(0) translate(4 248)">
<title>problem.hpp</title>
<polygon fill="white" stroke="transparent" points="-4,4 -4,-248 1554,-248 1554,4 -4,4"/>
<!-- Node1 -->
<g id="node1" class="node">
<title>Node1</title>
<g id="a_node1"><a xlink:title=" ">
<polygon fill="#bfbfbf" stroke="black" points="679,-224.5 679,-243.5 757,-243.5 757,-224.5 679,-224.5"/>
<text text-anchor="middle" x="718" y="-231.5" font-family="Helvetica,sans-Serif" font-size="10.00">problem.hpp</text>
</a>
</g>
</g>
<!-- Node2 -->
<g id="node2" class="node">
<title>Node2</title>
<g id="a_node2"><a xlink:href="../../d4/dd2/decl_2alm_8hpp.html" target="_top" xlink:title=" ">
<polygon fill="white" stroke="black" points="250,-168.5 250,-187.5 306,-187.5 306,-168.5 250,-168.5"/>
<text text-anchor="middle" x="278" y="-175.5" font-family="Helvetica,sans-Serif" font-size="10.00">alm.hpp</text>
</a>
</g>
</g>
<!-- Node1&#45;&gt;Node2 -->
<g id="edge1" class="edge">
<title>Node1&#45;&gt;Node2</title>
<path fill="none" stroke="midnightblue" d="M668.6,-229.52C592.33,-223.7 441.46,-210.35 315,-188 312.14,-187.49 309.16,-186.9 306.2,-186.25"/>
<polygon fill="midnightblue" stroke="midnightblue" points="668.63,-233.03 678.86,-230.3 669.15,-226.05 668.63,-233.03"/>
</g>
<!-- Node9 -->
<g id="node9" class="node">
<title>Node9</title>
<g id="a_node9"><a xlink:href="../../d2/da2/decl_2panoc_8hpp.html" target="_top" xlink:title=" ">
<polygon fill="white" stroke="black" points="462.5,-168.5 462.5,-187.5 529.5,-187.5 529.5,-168.5 462.5,-168.5"/>
<text text-anchor="middle" x="496" y="-175.5" font-family="Helvetica,sans-Serif" font-size="10.00">panoc.hpp</text>
</a>
</g>
</g>
<!-- Node1&#45;&gt;Node9 -->
<g id="edge8" class="edge">
<title>Node1&#45;&gt;Node9</title>
<path fill="none" stroke="midnightblue" d="M673.02,-222.06C630.55,-211.73 567.82,-196.47 529.56,-187.16"/>
<polygon fill="midnightblue" stroke="midnightblue" points="672.28,-225.48 682.82,-224.44 673.93,-218.68 672.28,-225.48"/>
</g>
<!-- Node13 -->
<g id="node13" class="node">
<title>Node13</title>
<g id="a_node13"><a xlink:href="../../d8/df1/panoc-helpers_8hpp.html" target="_top" xlink:title=" ">
<polygon fill="white" stroke="black" points="754.5,-168.5 754.5,-187.5 861.5,-187.5 861.5,-168.5 754.5,-168.5"/>
<text text-anchor="middle" x="808" y="-175.5" font-family="Helvetica,sans-Serif" font-size="10.00">panoc&#45;helpers.hpp</text>
</a>
</g>
</g>
<!-- Node1&#45;&gt;Node13 -->
<g id="edge16" class="edge">
<title>Node1&#45;&gt;Node13</title>
<path fill="none" stroke="midnightblue" d="M741.04,-219.18C757.6,-209.24 779.42,-196.15 793.58,-187.65"/>
<polygon fill="midnightblue" stroke="midnightblue" points="739.23,-216.18 732.46,-224.32 742.84,-222.18 739.23,-216.18"/>
</g>
<!-- Node16 -->
<g id="node16" class="node">
<title>Node16</title>
<g id="a_node16"><a xlink:href="../../da/df4/lbfgspp_8hpp.html" target="_top" xlink:title=" ">
<polygon fill="white" stroke="black" points="1476,-112.5 1476,-131.5 1550,-131.5 1550,-112.5 1476,-112.5"/>
<text text-anchor="middle" x="1513" y="-119.5" font-family="Helvetica,sans-Serif" font-size="10.00">lbfgspp.hpp</text>
</a>
</g>
</g>
<!-- Node1&#45;&gt;Node16 -->
<g id="edge23" class="edge">
<title>Node1&#45;&gt;Node16</title>
<path fill="none" stroke="midnightblue" d="M767.3,-229.93C824.83,-225.28 922.25,-214.03 1002,-188 1020.52,-181.96 1022.27,-173.37 1041,-168 1223.66,-115.66 1278.82,-158.28 1467,-132 1469.9,-131.59 1472.9,-131.13 1475.9,-130.62"/>
<polygon fill="midnightblue" stroke="midnightblue" points="766.73,-226.47 757.03,-230.73 767.27,-233.44 766.73,-226.47"/>
</g>
<!-- Node19 -->
<g id="node19" class="node">
<title>Node19</title>
<g id="a_node19"><a xlink:href="../../d2/dde/CasADiLoader_8hpp.html" target="_top" xlink:title=" ">
<polygon fill="white" stroke="black" points="603.5,-168.5 603.5,-187.5 708.5,-187.5 708.5,-168.5 603.5,-168.5"/>
<text text-anchor="middle" x="656" y="-175.5" font-family="Helvetica,sans-Serif" font-size="10.00">CasADiLoader.hpp</text>
</a>
</g>
</g>
<!-- Node1&#45;&gt;Node19 -->
<g id="edge24" class="edge">
<title>Node1&#45;&gt;Node19</title>
<path fill="none" stroke="midnightblue" d="M700.25,-217.54C689.19,-207.91 675.37,-195.87 666.14,-187.83"/>
<polygon fill="midnightblue" stroke="midnightblue" points="698.2,-220.4 708.04,-224.32 702.8,-215.12 698.2,-220.4"/>
</g>
<!-- Node21 -->
<g id="node21" class="node">
<title>Node21</title>
<g id="a_node21"><a xlink:href="../../da/d1e/CUTEstLoader_8hpp.html" target="_top" xlink:title=" ">
<polygon fill="white" stroke="black" points="324.5,-168.5 324.5,-187.5 429.5,-187.5 429.5,-168.5 324.5,-168.5"/>
<text text-anchor="middle" x="377" y="-175.5" font-family="Helvetica,sans-Serif" font-size="10.00">CUTEstLoader.hpp</text>
</a>
</g>
</g>
<!-- Node1&#45;&gt;Node21 -->
<g id="edge28" class="edge">
<title>Node1&#45;&gt;Node21</title>
<path fill="none" stroke="midnightblue" d="M668.7,-225.19C605.06,-215.11 494.76,-197.65 429.56,-187.32"/>
<polygon fill="midnightblue" stroke="midnightblue" points="668.46,-228.7 678.88,-226.81 669.55,-221.78 668.46,-228.7"/>
</g>
<!-- Node23 -->
<g id="node23" class="node">
<title>Node23</title>
<g id="a_node23"><a xlink:href="../../de/db7/riskaverse-mpc_8hpp.html" target="_top" xlink:title=" ">
<polygon fill="white" stroke="black" points="879.5,-168.5 879.5,-187.5 992.5,-187.5 992.5,-168.5 879.5,-168.5"/>
<text text-anchor="middle" x="936" y="-175.5" font-family="Helvetica,sans-Serif" font-size="10.00">riskaverse&#45;mpc.hpp</text>
</a>
</g>
</g>
<!-- Node1&#45;&gt;Node23 -->
<g id="edge33" class="edge">
<title>Node1&#45;&gt;Node23</title>
<path fill="none" stroke="midnightblue" d="M762.31,-222.02C803.49,-211.82 863.97,-196.84 901.62,-187.52"/>
<polygon fill="midnightblue" stroke="midnightblue" points="761.41,-218.64 752.54,-224.44 763.09,-225.44 761.41,-218.64"/>
</g>
<!-- Node25 -->
<g id="node25" class="node">
<title>Node25</title>
<g id="a_node25"><a xlink:href="../../d8/d58/problem_8cpp.html" target="_top" xlink:title=" ">
<polygon fill="white" stroke="black" points="1049.5,-168.5 1049.5,-187.5 1126.5,-187.5 1126.5,-168.5 1049.5,-168.5"/>
<text text-anchor="middle" x="1088" y="-175.5" font-family="Helvetica,sans-Serif" font-size="10.00">problem.cpp</text>
</a>
</g>
</g>
<!-- Node1&#45;&gt;Node25 -->
<g id="edge36" class="edge">
<title>Node1&#45;&gt;Node25</title>
<path fill="none" stroke="midnightblue" d="M767.04,-226.46C829.39,-218.05 940.31,-202.76 1035,-188 1039.61,-187.28 1044.44,-186.5 1049.23,-185.71"/>
<polygon fill="midnightblue" stroke="midnightblue" points="766.54,-223 757.09,-227.8 767.47,-229.93 766.54,-223"/>
</g>
<!-- Node3 -->
<g id="node3" class="node">
<title>Node3</title>
<g id="a_node3"><a xlink:href="../../d6/de7/alm-helpers_8hpp.html" target="_top" xlink:title=" ">
<polygon fill="white" stroke="black" points="0,-112.5 0,-131.5 96,-131.5 96,-112.5 0,-112.5"/>
<text text-anchor="middle" x="48" y="-119.5" font-family="Helvetica,sans-Serif" font-size="10.00">alm&#45;helpers.hpp</text>
</a>
</g>
</g>
<!-- Node2&#45;&gt;Node3 -->
<g id="edge2" class="edge">
<title>Node2&#45;&gt;Node3</title>
<path fill="none" stroke="midnightblue" d="M239.96,-168.07C196.79,-157.93 126.87,-141.52 84.4,-131.55"/>
<polygon fill="midnightblue" stroke="midnightblue" points="239.26,-171.5 249.8,-170.38 240.86,-164.69 239.26,-171.5"/>
</g>
<!-- Node6 -->
<g id="node6" class="node">
<title>Node6</title>
<g id="a_node6"><a xlink:href="../../dc/dd2/CasADi_2Rosenbrock_2main_8cpp.html" target="_top" xlink:title=" ">
<polygon fill="white" stroke="black" points="428,-112.5 428,-131.5 490,-131.5 490,-112.5 428,-112.5"/>
<text text-anchor="middle" x="459" y="-119.5" font-family="Helvetica,sans-Serif" font-size="10.00">main.cpp</text>
</a>
</g>
</g>
<!-- Node2&#45;&gt;Node6 -->
<g id="edge5" class="edge">
<title>Node2&#45;&gt;Node6</title>
<path fill="none" stroke="midnightblue" d="M315.9,-165.69C350.01,-155.52 399.39,-140.78 430.32,-131.56"/>
<polygon fill="midnightblue" stroke="midnightblue" points="314.86,-162.35 306.28,-168.56 316.86,-169.06 314.86,-162.35"/>
</g>
<!-- Node7 -->
<g id="node7" class="node">
<title>Node7</title>
<g id="a_node7"><a xlink:href="../../da/d1e/CUTEst_2Rosenbrock_2main_8cpp.html" target="_top" xlink:title=" ">
<polygon fill="white" stroke="black" points="114,-112.5 114,-131.5 176,-131.5 176,-112.5 114,-112.5"/>
<text text-anchor="middle" x="145" y="-119.5" font-family="Helvetica,sans-Serif" font-size="10.00">main.cpp</text>
</a>
</g>
</g>
<!-- Node2&#45;&gt;Node7 -->
<g id="edge6" class="edge">
<title>Node2&#45;&gt;Node7</title>
<path fill="none" stroke="midnightblue" d="M247.55,-164.64C222.59,-154.5 187.92,-140.43 165.98,-131.52"/>
<polygon fill="midnightblue" stroke="midnightblue" points="246.34,-167.92 256.93,-168.44 248.98,-161.44 246.34,-167.92"/>
</g>
<!-- Node8 -->
<g id="node8" class="node">
<title>Node8</title>
<g id="a_node8"><a xlink:href="../../d1/d5a/experiment_8cpp.html" target="_top" xlink:title=" ">
<polygon fill="white" stroke="black" points="316.5,-112.5 316.5,-131.5 409.5,-131.5 409.5,-112.5 316.5,-112.5"/>
<text text-anchor="middle" x="363" y="-119.5" font-family="Helvetica,sans-Serif" font-size="10.00">experiment.cpp</text>
</a>
</g>
</g>
<!-- Node2&#45;&gt;Node8 -->
<g id="edge7" class="edge">
<title>Node2&#45;&gt;Node8</title>
<path fill="none" stroke="midnightblue" d="M300.19,-162.9C315.78,-153 336.13,-140.07 349.38,-131.65"/>
<polygon fill="midnightblue" stroke="midnightblue" points="298.22,-160.01 291.66,-168.32 301.97,-165.92 298.22,-160.01"/>
</g>
<!-- Node4 -->
<g id="node4" class="node">
<title>Node4</title>
<g id="a_node4"><a xlink:href="../../d2/ddc/alm_8hpp.html" target="_top" xlink:title=" ">
<polygon fill="white" stroke="black" points="181,-56.5 181,-75.5 237,-75.5 237,-56.5 181,-56.5"/>
<text text-anchor="middle" x="209" y="-63.5" font-family="Helvetica,sans-Serif" font-size="10.00">alm.hpp</text>
</a>
</g>
</g>
<!-- Node3&#45;&gt;Node4 -->
<g id="edge3" class="edge">
<title>Node3&#45;&gt;Node4</title>
<path fill="none" stroke="midnightblue" d="M83.26,-109.17C113.58,-99 156.57,-84.59 183.61,-75.52"/>
<polygon fill="midnightblue" stroke="midnightblue" points="81.88,-105.95 73.51,-112.44 84.1,-112.58 81.88,-105.95"/>
</g>
<!-- Node5 -->
<g id="node5" class="node">
<title>Node5</title>
<g id="a_node5"><a xlink:href="../../d4/db5/alm_8cpp.html" target="_top" xlink:title=" ">
<polygon fill="white" stroke="black" points="209,-0.5 209,-19.5 265,-19.5 265,-0.5 209,-0.5"/>
<text text-anchor="middle" x="237" y="-7.5" font-family="Helvetica,sans-Serif" font-size="10.00">alm.cpp</text>
</a>
</g>
</g>
<!-- Node4&#45;&gt;Node5 -->
<g id="edge4" class="edge">
<title>Node4&#45;&gt;Node5</title>
<path fill="none" stroke="midnightblue" d="M218.34,-46.98C223.09,-37.82 228.66,-27.09 232.46,-19.75"/>
<polygon fill="midnightblue" stroke="midnightblue" points="215.12,-45.59 213.62,-56.08 221.33,-48.82 215.12,-45.59"/>
</g>
<!-- Node9&#45;&gt;Node6 -->
<g id="edge12" class="edge">
<title>Node9&#45;&gt;Node6</title>
<path fill="none" stroke="midnightblue" d="M484.05,-159.57C477.69,-150.27 470.13,-139.25 465,-131.75"/>
<polygon fill="midnightblue" stroke="midnightblue" points="481.35,-161.81 489.89,-168.08 487.13,-157.86 481.35,-161.81"/>
</g>
<!-- Node9&#45;&gt;Node7 -->
<g id="edge13" class="edge">
<title>Node9&#45;&gt;Node7</title>
<path fill="none" stroke="midnightblue" d="M452.02,-170.12C447.29,-169.39 442.55,-168.68 438,-168 325.66,-151.29 296.71,-152.48 185,-132 182.2,-131.49 179.3,-130.91 176.39,-130.31"/>
<polygon fill="midnightblue" stroke="midnightblue" points="451.86,-173.63 462.27,-171.69 452.92,-166.71 451.86,-173.63"/>
</g>
<!-- Node9&#45;&gt;Node8 -->
<g id="edge14" class="edge">
<title>Node9&#45;&gt;Node8</title>
<path fill="none" stroke="midnightblue" d="M465.55,-164.64C440.59,-154.5 405.92,-140.43 383.98,-131.52"/>
<polygon fill="midnightblue" stroke="midnightblue" points="464.34,-167.92 474.93,-168.44 466.98,-161.44 464.34,-167.92"/>
</g>
<!-- Node10 -->
<g id="node10" class="node">
<title>Node10</title>
<g id="a_node10"><a xlink:href="../../d5/de9/panoc_8hpp.html" target="_top" xlink:title=" ">
<polygon fill="white" stroke="black" points="774.5,-112.5 774.5,-131.5 841.5,-131.5 841.5,-112.5 774.5,-112.5"/>
<text text-anchor="middle" x="808" y="-119.5" font-family="Helvetica,sans-Serif" font-size="10.00">panoc.hpp</text>
</a>
</g>
</g>
<!-- Node9&#45;&gt;Node10 -->
<g id="edge9" class="edge">
<title>Node9&#45;&gt;Node10</title>
<path fill="none" stroke="midnightblue" d="M539.75,-170.24C593.06,-161.88 685.82,-146.9 765,-132 768,-131.44 771.11,-130.83 774.22,-130.2"/>
<polygon fill="midnightblue" stroke="midnightblue" points="538.97,-166.82 529.63,-171.82 540.05,-173.74 538.97,-166.82"/>
</g>
<!-- Node12 -->
<g id="node12" class="node">
<title>Node12</title>
<g id="a_node12"><a xlink:href="../../db/dbf/panocexperiment_8cpp.html" target="_top" xlink:title=" ">
<polygon fill="white" stroke="black" points="860,-112.5 860,-131.5 982,-131.5 982,-112.5 860,-112.5"/>
<text text-anchor="middle" x="921" y="-119.5" font-family="Helvetica,sans-Serif" font-size="10.00">panocexperiment.cpp</text>
</a>
</g>
</g>
<!-- Node9&#45;&gt;Node12 -->
<g id="edge15" class="edge">
<title>Node9&#45;&gt;Node12</title>
<path fill="none" stroke="midnightblue" d="M539.9,-171.42C616.07,-161.74 772.88,-141.82 859.73,-130.78"/>
<polygon fill="midnightblue" stroke="midnightblue" points="539.18,-167.98 529.7,-172.72 540.07,-174.93 539.18,-167.98"/>
</g>
<!-- Node10&#45;&gt;Node5 -->
<g id="edge10" class="edge">
<title>Node10&#45;&gt;Node5</title>
<path fill="none" stroke="midnightblue" d="M764.22,-111.87C566.6,-72.37 342.65,-30.58 265.08,-16.19"/>
<polygon fill="midnightblue" stroke="midnightblue" points="763.72,-115.34 774.21,-113.87 765.09,-108.48 763.72,-115.34"/>
</g>
<!-- Node11 -->
<g id="node11" class="node">
<title>Node11</title>
<g id="a_node11"><a xlink:href="../../d7/d9f/panoc_8cpp.html" target="_top" xlink:title=" ">
<polygon fill="white" stroke="black" points="775,-56.5 775,-75.5 841,-75.5 841,-56.5 775,-56.5"/>
<text text-anchor="middle" x="808" y="-63.5" font-family="Helvetica,sans-Serif" font-size="10.00">panoc.cpp</text>
</a>
</g>
</g>
<!-- Node10&#45;&gt;Node11 -->
<g id="edge11" class="edge">
<title>Node10&#45;&gt;Node11</title>
<path fill="none" stroke="midnightblue" d="M808,-101.8C808,-92.91 808,-82.78 808,-75.75"/>
<polygon fill="midnightblue" stroke="midnightblue" points="804.5,-102.08 808,-112.08 811.5,-102.08 804.5,-102.08"/>
</g>
<!-- Node13&#45;&gt;Node10 -->
<g id="edge20" class="edge">
<title>Node13&#45;&gt;Node10</title>
<path fill="none" stroke="midnightblue" d="M808,-157.8C808,-148.91 808,-138.78 808,-131.75"/>
<polygon fill="midnightblue" stroke="midnightblue" points="804.5,-158.08 808,-168.08 811.5,-158.08 804.5,-158.08"/>
</g>
<!-- Node14 -->
<g id="node14" class="node">
<title>Node14</title>
<g id="a_node14"><a xlink:href="../../d2/d36/specialized-lbfgs_8hpp.html" target="_top" xlink:title=" ">
<polygon fill="white" stroke="black" points="1074,-112.5 1074,-131.5 1194,-131.5 1194,-112.5 1074,-112.5"/>
<text text-anchor="middle" x="1134" y="-119.5" font-family="Helvetica,sans-Serif" font-size="10.00">specialized&#45;lbfgs.hpp</text>
</a>
</g>
</g>
<!-- Node13&#45;&gt;Node14 -->
<g id="edge17" class="edge">
<title>Node13&#45;&gt;Node14</title>
<path fill="none" stroke="midnightblue" d="M869.63,-166.79C931.23,-156.59 1024.86,-141.08 1082.59,-131.52"/>
<polygon fill="midnightblue" stroke="midnightblue" points="868.95,-163.36 859.66,-168.44 870.09,-170.26 868.95,-163.36"/>
</g>
<!-- Node15 -->
<g id="node15" class="node">
<title>Node15</title>
<g id="a_node15"><a xlink:href="../../d3/d61/guarded-aa-pga_8hpp.html" target="_top" xlink:title=" ">
<polygon fill="white" stroke="black" points="1212.5,-112.5 1212.5,-131.5 1327.5,-131.5 1327.5,-112.5 1212.5,-112.5"/>
<text text-anchor="middle" x="1270" y="-119.5" font-family="Helvetica,sans-Serif" font-size="10.00">guarded&#45;aa&#45;pga.hpp</text>
</a>
</g>
</g>
<!-- Node13&#45;&gt;Node15 -->
<g id="edge18" class="edge">
<title>Node13&#45;&gt;Node15</title>
<path fill="none" stroke="midnightblue" d="M872.08,-167.77C1019.43,-149.32 1058.54,-149.51 1203,-132 1206.03,-131.63 1209.13,-131.25 1212.27,-130.85"/>
<polygon fill="midnightblue" stroke="midnightblue" points="871.24,-164.35 861.75,-169.07 872.11,-171.3 871.24,-164.35"/>
</g>
<!-- Node13&#45;&gt;Node16 -->
<g id="edge19" class="edge">
<title>Node13&#45;&gt;Node16</title>
<path fill="none" stroke="midnightblue" d="M872.02,-167.88C1136.21,-141.5 1206.66,-165.17 1467,-132 1469.91,-131.63 1472.9,-131.19 1475.91,-130.7"/>
<polygon fill="midnightblue" stroke="midnightblue" points="871.33,-164.43 861.73,-168.92 872.04,-171.39 871.33,-164.43"/>
</g>
<!-- Node17 -->
<g id="node17" class="node">
<title>Node17</title>
<g id="a_node17"><a xlink:href="../../d6/d5a/pga_8hpp.html" target="_top" xlink:title=" ">
<polygon fill="white" stroke="black" points="1000,-112.5 1000,-131.5 1056,-131.5 1056,-112.5 1000,-112.5"/>
<text text-anchor="middle" x="1028" y="-119.5" font-family="Helvetica,sans-Serif" font-size="10.00">pga.hpp</text>
</a>
</g>
</g>
<!-- Node13&#45;&gt;Node17 -->
<g id="edge21" class="edge">
<title>Node13&#45;&gt;Node17</title>
<path fill="none" stroke="midnightblue" d="M852.74,-166.02C896.81,-155.2 962.77,-139.01 999.94,-129.89"/>
<polygon fill="midnightblue" stroke="midnightblue" points="851.74,-162.66 842.86,-168.44 853.41,-169.46 851.74,-162.66"/>
</g>
<!-- Node18 -->
<g id="node18" class="node">
<title>Node18</title>
<g id="a_node18"><a xlink:href="../../d3/dba/secondorderpanoc_8cpp.html" target="_top" xlink:title=" ">
<polygon fill="white" stroke="black" points="630,-112.5 630,-131.5 756,-131.5 756,-112.5 630,-112.5"/>
<text text-anchor="middle" x="693" y="-119.5" font-family="Helvetica,sans-Serif" font-size="10.00">secondorderpanoc.cpp</text>
</a>
</g>
</g>
<!-- Node13&#45;&gt;Node18 -->
<g id="edge22" class="edge">
<title>Node13&#45;&gt;Node18</title>
<path fill="none" stroke="midnightblue" d="M780.52,-164.1C759.03,-154.01 729.78,-140.27 711.14,-131.52"/>
<polygon fill="midnightblue" stroke="midnightblue" points="779.24,-167.36 789.78,-168.44 782.21,-161.02 779.24,-167.36"/>
</g>
<!-- Node19&#45;&gt;Node6 -->
<g id="edge26" class="edge">
<title>Node19&#45;&gt;Node6</title>
<path fill="none" stroke="midnightblue" d="M614.77,-165.7C577.59,-155.51 523.73,-140.74 490.07,-131.52"/>
<polygon fill="midnightblue" stroke="midnightblue" points="614.22,-169.18 624.78,-168.44 616.07,-162.42 614.22,-169.18"/>
</g>
<!-- Node19&#45;&gt;Node18 -->
<g id="edge27" class="edge">
<title>Node19&#45;&gt;Node18</title>
<path fill="none" stroke="midnightblue" d="M667.95,-159.57C674.31,-150.27 681.87,-139.25 687,-131.75"/>
<polygon fill="midnightblue" stroke="midnightblue" points="664.87,-157.86 662.11,-168.08 670.65,-161.81 664.87,-157.86"/>
</g>
<!-- Node20 -->
<g id="node20" class="node">
<title>Node20</title>
<g id="a_node20"><a xlink:href="../../dc/d60/CasADiLoader_8cpp.html" target="_top" xlink:title=" ">
<polygon fill="white" stroke="black" points="508,-112.5 508,-131.5 612,-131.5 612,-112.5 508,-112.5"/>
<text text-anchor="middle" x="560" y="-119.5" font-family="Helvetica,sans-Serif" font-size="10.00">CasADiLoader.cpp</text>
</a>
</g>
</g>
<!-- Node19&#45;&gt;Node20 -->
<g id="edge25" class="edge">
<title>Node19&#45;&gt;Node20</title>
<path fill="none" stroke="midnightblue" d="M631.43,-163.18C613.76,-153.24 590.49,-140.15 575.39,-131.65"/>
<polygon fill="midnightblue" stroke="midnightblue" points="630.14,-166.47 640.58,-168.32 633.58,-160.37 630.14,-166.47"/>
</g>
<!-- Node21&#45;&gt;Node7 -->
<g id="edge30" class="edge">
<title>Node21&#45;&gt;Node7</title>
<path fill="none" stroke="midnightblue" d="M330.23,-166.11C284.32,-155.43 215.57,-139.43 176.02,-130.22"/>
<polygon fill="midnightblue" stroke="midnightblue" points="329.71,-169.59 340.24,-168.44 331.29,-162.77 329.71,-169.59"/>
</g>
<!-- Node21&#45;&gt;Node8 -->
<g id="edge31" class="edge">
<title>Node21&#45;&gt;Node8</title>
<path fill="none" stroke="midnightblue" d="M372.18,-158.4C369.83,-149.36 367.13,-138.94 365.27,-131.75"/>
<polygon fill="midnightblue" stroke="midnightblue" points="368.79,-159.28 374.69,-168.08 375.57,-157.52 368.79,-159.28"/>
</g>
<!-- Node21&#45;&gt;Node18 -->
<g id="edge32" class="edge">
<title>Node21&#45;&gt;Node18</title>
<path fill="none" stroke="midnightblue" d="M437.11,-166.73C496.83,-156.52 587.33,-141.06 643.16,-131.52"/>
<polygon fill="midnightblue" stroke="midnightblue" points="436.34,-163.31 427.07,-168.44 437.52,-170.21 436.34,-163.31"/>
</g>
<!-- Node22 -->
<g id="node22" class="node">
<title>Node22</title>
<g id="a_node22"><a xlink:href="../../d9/dcf/CUTEstLoader_8cpp.html" target="_top" xlink:title=" ">
<polygon fill="white" stroke="black" points="194,-112.5 194,-131.5 298,-131.5 298,-112.5 194,-112.5"/>
<text text-anchor="middle" x="246" y="-119.5" font-family="Helvetica,sans-Serif" font-size="10.00">CUTEstLoader.cpp</text>
</a>
</g>
</g>
<!-- Node21&#45;&gt;Node22 -->
<g id="edge29" class="edge">
<title>Node21&#45;&gt;Node22</title>
<path fill="none" stroke="midnightblue" d="M346.68,-164.5C322.12,-154.38 288.18,-140.39 266.66,-131.52"/>
<polygon fill="midnightblue" stroke="midnightblue" points="345.66,-167.87 356.24,-168.44 348.33,-161.4 345.66,-167.87"/>
</g>
<!-- Node23&#45;&gt;Node12 -->
<g id="edge35" class="edge">
<title>Node23&#45;&gt;Node12</title>
<path fill="none" stroke="midnightblue" d="M930.83,-158.4C928.32,-149.36 925.43,-138.94 923.43,-131.75"/>
<polygon fill="midnightblue" stroke="midnightblue" points="927.47,-159.38 933.52,-168.08 934.22,-157.51 927.47,-159.38"/>
</g>
<!-- Node24 -->
<g id="node24" class="node">
<title>Node24</title>
<g id="a_node24"><a xlink:href="../../df/d4c/riskaverse-mpc_8cpp.html" target="_top" xlink:title=" ">
<polygon fill="white" stroke="black" points="1346,-112.5 1346,-131.5 1458,-131.5 1458,-112.5 1346,-112.5"/>
<text text-anchor="middle" x="1402" y="-119.5" font-family="Helvetica,sans-Serif" font-size="10.00">riskaverse&#45;mpc.cpp</text>
</a>
</g>
</g>
<!-- Node23&#45;&gt;Node24 -->
<g id="edge34" class="edge">
<title>Node23&#45;&gt;Node24</title>
<path fill="none" stroke="midnightblue" d="M1002.56,-168.53C1004.05,-168.35 1005.53,-168.17 1007,-168 1153.52,-150.72 1190.58,-150.12 1337,-132 1339.94,-131.64 1342.95,-131.25 1345.99,-130.86"/>
<polygon fill="midnightblue" stroke="midnightblue" points="1002.08,-165.06 992.57,-169.74 1002.92,-172.01 1002.08,-165.06"/>
</g>
</g>
</svg>
