<?xml version="1.0" encoding="UTF-8" standalone="no"?>
<!DOCTYPE svg PUBLIC "-//W3C//DTD SVG 1.1//EN"
 "http://www.w3.org/Graphics/SVG/1.1/DTD/svg11.dtd">
<!-- Generated by graphviz version 2.43.0 (0)
 -->
<!-- Title: initialize Pages: 1 -->
<svg width="229pt" height="50pt"
 viewBox="0.00 0.00 229.00 50.00" xmlns="http://www.w3.org/2000/svg" xmlns:xlink="http://www.w3.org/1999/xlink">
<g id="graph0" class="graph" transform="scale(1 1) rotate(0) translate(4 46)">
<title>initialize</title>
<polygon fill="white" stroke="transparent" points="-4,4 -4,-46 225,-46 225,4 -4,4"/>
<!-- Node1 -->
<g id="node1" class="node">
<title>Node1</title>
<g id="a_node1"><a xlink:title="Initialize with the starting point x₀ and the gradient in that point.">
<polygon fill="#bfbfbf" stroke="black" points="162,-11.5 162,-30.5 221,-30.5 221,-11.5 162,-11.5"/>
<text text-anchor="middle" x="191.5" y="-18.5" font-family="Helvetica,sans-Serif" font-size="10.00">initialize</text>
</a>
</g>
</g>
<!-- Node2 -->
<g id="node2" class="node">
<title>Node2</title>
<g id="a_node2"><a xlink:href="../../d3/df9/structpa_1_1PANOCDirection_3_01SpecializedLBFGS_01_4.html#a5a764dbf1d1d45d461b299ab91c8b0df" target="_top" xlink:title=" ">
<polygon fill="white" stroke="black" points="0,-0.5 0,-41.5 126,-41.5 126,-0.5 0,-0.5"/>
<text text-anchor="start" x="8" y="-29.5" font-family="Helvetica,sans-Serif" font-size="10.00">pa::PANOCDirection</text>
<text text-anchor="start" x="8" y="-18.5" font-family="Helvetica,sans-Serif" font-size="10.00">&lt; SpecializedLBFGS &gt;</text>
<text text-anchor="middle" x="63" y="-7.5" font-family="Helvetica,sans-Serif" font-size="10.00">::initialize</text>
</a>
</g>
</g>
<!-- Node1&#45;&gt;Node2 -->
<g id="edge1" class="edge">
<title>Node1&#45;&gt;Node2</title>
<path fill="none" stroke="midnightblue" d="M151.6,-21C143.53,-21 134.83,-21 126.16,-21"/>
<polygon fill="midnightblue" stroke="midnightblue" points="151.8,-24.5 161.8,-21 151.8,-17.5 151.8,-24.5"/>
</g>
</g>
</svg>
