<?xml version="1.0" encoding="UTF-8" standalone="no"?>
<!DOCTYPE svg PUBLIC "-//W3C//DTD SVG 1.1//EN"
 "http://www.w3.org/Graphics/SVG/1.1/DTD/svg11.dtd">
<!-- Generated by graphviz version 2.43.0 (0)
 -->
<!-- Title: succ Pages: 1 -->
<svg width="428pt" height="66pt"
 viewBox="0.00 0.00 428.00 66.00" xmlns="http://www.w3.org/2000/svg" xmlns:xlink="http://www.w3.org/1999/xlink">
<g id="graph0" class="graph" transform="scale(1 1) rotate(0) translate(4 62)">
<title>succ</title>
<polygon fill="white" stroke="transparent" points="-4,4 -4,-62 424,-62 424,4 -4,4"/>
<!-- Node1 -->
<g id="node1" class="node">
<title>Node1</title>
<g id="a_node1"><a xlink:title="Get the next index in the circular buffer of previous s, y, x and g vectors.">
<polygon fill="#bfbfbf" stroke="black" points="382,-19.5 382,-38.5 420,-38.5 420,-19.5 382,-19.5"/>
<text text-anchor="middle" x="401" y="-26.5" font-family="Helvetica,sans-Serif" font-size="10.00">succ</text>
</a>
</g>
</g>
<!-- Node2 -->
<g id="node2" class="node">
<title>Node2</title>
<g id="a_node2"><a xlink:href="../../d0/d6d/classpa_1_1SpecializedLBFGS.html#a71d9f5b74a18b1ef994683c1aa4914da" target="_top" xlink:title="L&#45;BFGS update when changing the step size γ, recomputing everything.">
<polygon fill="white" stroke="black" points="261.5,-38.5 261.5,-57.5 332.5,-57.5 332.5,-38.5 261.5,-38.5"/>
<text text-anchor="middle" x="297" y="-45.5" font-family="Helvetica,sans-Serif" font-size="10.00">full_update</text>
</a>
</g>
</g>
<!-- Node1&#45;&gt;Node2 -->
<g id="edge1" class="edge">
<title>Node1&#45;&gt;Node2</title>
<path fill="none" stroke="midnightblue" d="M371.75,-34.26C359.62,-36.52 345.33,-39.18 332.57,-41.56"/>
<polygon fill="midnightblue" stroke="midnightblue" points="372.57,-37.67 381.76,-32.4 371.29,-30.79 372.57,-37.67"/>
</g>
<!-- Node5 -->
<g id="node5" class="node">
<title>Node5</title>
<g id="a_node5"><a xlink:href="../../d0/d6d/classpa_1_1SpecializedLBFGS.html#ae20511c5fb7ae45113aeba25b63c6d55" target="_top" xlink:title="Standard L&#45;BFGS update without changing the step size γ.">
<polygon fill="white" stroke="black" points="248,-0.5 248,-19.5 346,-19.5 346,-0.5 248,-0.5"/>
<text text-anchor="middle" x="297" y="-7.5" font-family="Helvetica,sans-Serif" font-size="10.00">standard_update</text>
</a>
</g>
</g>
<!-- Node1&#45;&gt;Node5 -->
<g id="edge4" class="edge">
<title>Node1&#45;&gt;Node5</title>
<path fill="none" stroke="midnightblue" d="M371.93,-23.77C363.97,-22.29 355.07,-20.63 346.28,-18.99"/>
<polygon fill="midnightblue" stroke="midnightblue" points="371.29,-27.21 381.76,-25.6 372.57,-20.33 371.29,-27.21"/>
</g>
<!-- Node3 -->
<g id="node3" class="node">
<title>Node3</title>
<g id="a_node3"><a xlink:href="../../d0/d6d/classpa_1_1SpecializedLBFGS.html#a8032c3cbff7a91765be22979ccd4f79b" target="_top" xlink:title="Update the inverse Hessian approximation using the new vectors xₖ₊₁ and pₖ₊₁.">
<polygon fill="white" stroke="black" points="162,-19.5 162,-38.5 212,-38.5 212,-19.5 162,-19.5"/>
<text text-anchor="middle" x="187" y="-26.5" font-family="Helvetica,sans-Serif" font-size="10.00">update</text>
</a>
</g>
</g>
<!-- Node2&#45;&gt;Node3 -->
<g id="edge2" class="edge">
<title>Node2&#45;&gt;Node3</title>
<path fill="none" stroke="midnightblue" d="M251.2,-40.12C237.8,-37.76 223.63,-35.27 212.11,-33.24"/>
<polygon fill="midnightblue" stroke="midnightblue" points="250.78,-43.6 261.23,-41.88 251.99,-36.7 250.78,-43.6"/>
</g>
<!-- Node4 -->
<g id="node4" class="node">
<title>Node4</title>
<g id="a_node4"><a xlink:href="../../d3/df9/structpa_1_1PANOCDirection_3_01SpecializedLBFGS_01_4.html#a1932af68886cf467a0300e371e94a2c3" target="_top" xlink:title=" ">
<polygon fill="white" stroke="black" points="0,-8.5 0,-49.5 126,-49.5 126,-8.5 0,-8.5"/>
<text text-anchor="start" x="8" y="-37.5" font-family="Helvetica,sans-Serif" font-size="10.00">pa::PANOCDirection</text>
<text text-anchor="start" x="8" y="-26.5" font-family="Helvetica,sans-Serif" font-size="10.00">&lt; SpecializedLBFGS &gt;</text>
<text text-anchor="middle" x="63" y="-15.5" font-family="Helvetica,sans-Serif" font-size="10.00">::update</text>
</a>
</g>
</g>
<!-- Node3&#45;&gt;Node4 -->
<g id="edge3" class="edge">
<title>Node3&#45;&gt;Node4</title>
<path fill="none" stroke="midnightblue" d="M151.87,-29C143.86,-29 135.07,-29 126.25,-29"/>
<polygon fill="midnightblue" stroke="midnightblue" points="151.9,-32.5 161.9,-29 151.9,-25.5 151.9,-32.5"/>
</g>
<!-- Node5&#45;&gt;Node3 -->
<g id="edge5" class="edge">
<title>Node5&#45;&gt;Node3</title>
<path fill="none" stroke="midnightblue" d="M237.8,-20.24C228.71,-21.84 219.77,-23.41 212.04,-24.77"/>
<polygon fill="midnightblue" stroke="midnightblue" points="238.44,-23.68 247.69,-18.5 237.23,-16.79 238.44,-23.68"/>
</g>
</g>
</svg>
