<?xml version="1.0" encoding="UTF-8" standalone="no"?>
<!DOCTYPE svg PUBLIC "-//W3C//DTD SVG 1.1//EN"
 "http://www.w3.org/Graphics/SVG/1.1/DTD/svg11.dtd">
<!-- Generated by graphviz version 2.43.0 (0)
 -->
<!-- Title: operator() Pages: 1 -->
<svg width="670pt" height="340pt"
 viewBox="0.00 0.00 670.00 339.65" xmlns="http://www.w3.org/2000/svg" xmlns:xlink="http://www.w3.org/1999/xlink">
<g id="graph0" class="graph" transform="scale(1 1) rotate(0) translate(4 335.65)">
<title>operator()</title>
<polygon fill="white" stroke="transparent" points="-4,4 -4,-335.65 666,-335.65 666,4 -4,4"/>
<!-- Node1 -->
<g id="node1" class="node">
<title>Node1</title>
<g id="a_node1"><a xlink:title=" ">
<polygon fill="#bfbfbf" stroke="black" points="0,-154 0,-173 65,-173 65,-154 0,-154"/>
<text text-anchor="middle" x="32.5" y="-161" font-family="Helvetica,sans-Serif" font-size="10.00">operator()</text>
</a>
</g>
</g>
<!-- Node2 -->
<g id="node2" class="node">
<title>Node2</title>
<g id="a_node2"><a xlink:href="../../d0/d51/namespacepa_1_1detail.html#a225d0fe6546c099f7ce35cc4bc6113e1" target="_top" xlink:title="Calculate the error between ẑ and g(x).">
<polygon fill="white" stroke="black" points="431,-280 431,-299 548,-299 548,-280 431,-280"/>
<text text-anchor="middle" x="489.5" y="-287" font-family="Helvetica,sans-Serif" font-size="10.00">pa::detail::calc_err_z</text>
</a>
</g>
</g>
<!-- Node1&#45;&gt;Node2 -->
<g id="edge1" class="edge">
<title>Node1&#45;&gt;Node2</title>
<path fill="none" stroke="midnightblue" d="M35.12,-173.25C39.89,-198.44 56.46,-265.53 101,-292.5 212.45,-359.97 377.01,-323.65 450.56,-301.96"/>
<polygon fill="midnightblue" stroke="midnightblue" points="451.76,-305.25 460.32,-299 449.74,-298.55 451.76,-305.25"/>
</g>
<!-- Node4 -->
<g id="node4" class="node">
<title>Node4</title>
<g id="a_node4"><a xlink:href="../../d0/d51/namespacepa_1_1detail.html#ac3081a6b8cd569f7dd92fa8044a3f428" target="_top" xlink:title=" ">
<polygon fill="white" stroke="black" points="103.5,-252.5 103.5,-282.5 219.5,-282.5 219.5,-252.5 103.5,-252.5"/>
<text text-anchor="start" x="111.5" y="-270.5" font-family="Helvetica,sans-Serif" font-size="10.00">pa::detail::calc_error</text>
<text text-anchor="middle" x="161.5" y="-259.5" font-family="Helvetica,sans-Serif" font-size="10.00">_stop_crit</text>
</a>
</g>
</g>
<!-- Node1&#45;&gt;Node4 -->
<g id="edge3" class="edge">
<title>Node1&#45;&gt;Node4</title>
<path fill="none" stroke="midnightblue" d="M40.47,-173.18C51.79,-188.39 75.51,-218.16 101,-237.5 105.72,-241.08 110.94,-244.44 116.26,-247.5"/>
<polygon fill="midnightblue" stroke="midnightblue" points="114.8,-250.69 125.25,-252.39 118.14,-244.54 114.8,-250.69"/>
</g>
<!-- Node6 -->
<g id="node6" class="node">
<title>Node6</title>
<g id="a_node6"><a xlink:href="../../d0/d51/namespacepa_1_1detail.html#a2d370812ad8bb9dd2e4d2362b8c410e8" target="_top" xlink:title="Calculate the gradient ∇ψ(x).">
<polygon fill="white" stroke="black" points="258,-217 258,-236 385,-236 385,-217 258,-217"/>
<text text-anchor="middle" x="321.5" y="-224" font-family="Helvetica,sans-Serif" font-size="10.00">pa::detail::calc_grad_ψ</text>
</a>
</g>
</g>
<!-- Node1&#45;&gt;Node6 -->
<g id="edge5" class="edge">
<title>Node1&#45;&gt;Node6</title>
<path fill="none" stroke="midnightblue" d="M58.55,-173.03C71.15,-177.56 86.74,-182.79 101,-186.5 149.42,-199.09 204.84,-209.15 247.89,-216.04"/>
<polygon fill="midnightblue" stroke="midnightblue" points="247.57,-219.53 257.99,-217.63 248.66,-212.62 247.57,-219.53"/>
</g>
<!-- Node8 -->
<g id="node8" class="node">
<title>Node8</title>
<g id="a_node8"><a xlink:href="../../d0/d51/namespacepa_1_1detail.html#a89856462be50fa798aca7917874da8e8" target="_top" xlink:title="Calculate ∇ψ(x) using ŷ.">
<polygon fill="white" stroke="black" points="264,-167.5 264,-197.5 379,-197.5 379,-167.5 264,-167.5"/>
<text text-anchor="start" x="272" y="-185.5" font-family="Helvetica,sans-Serif" font-size="10.00">pa::detail::calc_grad</text>
<text text-anchor="middle" x="321.5" y="-174.5" font-family="Helvetica,sans-Serif" font-size="10.00">_ψ_from_ŷ</text>
</a>
</g>
</g>
<!-- Node1&#45;&gt;Node8 -->
<g id="edge8" class="edge">
<title>Node1&#45;&gt;Node8</title>
<path fill="none" stroke="midnightblue" d="M65.03,-165.59C110.18,-168.58 194.34,-174.15 253.7,-178.08"/>
<polygon fill="midnightblue" stroke="midnightblue" points="253.53,-181.57 263.74,-178.74 253.99,-174.59 253.53,-181.57"/>
</g>
<!-- Node9 -->
<g id="node9" class="node">
<title>Node9</title>
<g id="a_node9"><a xlink:href="../../d0/d51/namespacepa_1_1detail.html#a9903a19aa6bab557daa71f888a499e9d" target="_top" xlink:title=" ">
<polygon fill="white" stroke="black" points="112,-50 112,-69 211,-69 211,-50 112,-50"/>
<text text-anchor="middle" x="161.5" y="-57" font-family="Helvetica,sans-Serif" font-size="10.00">pa::detail::calc_x̂</text>
</a>
</g>
</g>
<!-- Node1&#45;&gt;Node9 -->
<g id="edge9" class="edge">
<title>Node1&#45;&gt;Node9</title>
<path fill="none" stroke="midnightblue" d="M39.4,-153.81C49.9,-137.29 73.33,-103.54 101,-83.5 106.58,-79.46 112.93,-75.98 119.36,-73.01"/>
<polygon fill="midnightblue" stroke="midnightblue" points="120.91,-76.15 128.75,-69.03 118.18,-69.71 120.91,-76.15"/>
</g>
<!-- Node11 -->
<g id="node11" class="node">
<title>Node11</title>
<g id="a_node11"><a xlink:href="../../d0/d51/namespacepa_1_1detail.html#a04141b21eae7f6171a7cd031d7305ed8" target="_top" xlink:title="Calculate both ψ(x) and its gradient ∇ψ(x).">
<polygon fill="white" stroke="black" points="111.5,-126.5 111.5,-156.5 211.5,-156.5 211.5,-126.5 111.5,-126.5"/>
<text text-anchor="start" x="119.5" y="-144.5" font-family="Helvetica,sans-Serif" font-size="10.00">pa::detail::calc_ψ</text>
<text text-anchor="middle" x="161.5" y="-133.5" font-family="Helvetica,sans-Serif" font-size="10.00">_grad_ψ</text>
</a>
</g>
</g>
<!-- Node1&#45;&gt;Node11 -->
<g id="edge11" class="edge">
<title>Node1&#45;&gt;Node11</title>
<path fill="none" stroke="midnightblue" d="M65.22,-158.01C76.23,-156.1 88.97,-153.89 101.47,-151.73"/>
<polygon fill="midnightblue" stroke="midnightblue" points="102.15,-155.16 111.41,-150 100.96,-148.26 102.15,-155.16"/>
</g>
<!-- Node12 -->
<g id="node12" class="node">
<title>Node12</title>
<g id="a_node12"><a xlink:href="../../d0/d51/namespacepa_1_1detail.html#a2482fb93eca998a4c4dc815e784f526e" target="_top" xlink:title="Calculate both ψ(x) and the vector ŷ that can later be used to compute ∇ψ.">
<polygon fill="white" stroke="black" points="266,-129 266,-148 377,-148 377,-129 266,-129"/>
<text text-anchor="middle" x="321.5" y="-136" font-family="Helvetica,sans-Serif" font-size="10.00">pa::detail::calc_ψ_ŷ</text>
</a>
</g>
</g>
<!-- Node1&#45;&gt;Node12 -->
<g id="edge15" class="edge">
<title>Node1&#45;&gt;Node12</title>
<path fill="none" stroke="midnightblue" d="M43.39,-153.61C55.67,-142.11 77.84,-123.77 101,-116.5 162.87,-97.08 238.91,-112.97 283.32,-125.96"/>
<polygon fill="midnightblue" stroke="midnightblue" points="282.51,-129.37 293.1,-128.92 284.55,-122.67 282.51,-129.37"/>
</g>
<!-- Node13 -->
<g id="node13" class="node">
<title>Node13</title>
<g id="a_node13"><a xlink:href="../../d5/db1/classpa_1_1AtomicStopSignal.html#aa0097deccc19b49f8ab5344d8d6d5cf6" target="_top" xlink:title=" ">
<polygon fill="white" stroke="black" points="101,-0.5 101,-30.5 222,-30.5 222,-0.5 101,-0.5"/>
<text text-anchor="start" x="109" y="-18.5" font-family="Helvetica,sans-Serif" font-size="10.00">pa::AtomicStopSignal</text>
<text text-anchor="middle" x="161.5" y="-7.5" font-family="Helvetica,sans-Serif" font-size="10.00">::stop_requested</text>
</a>
</g>
</g>
<!-- Node1&#45;&gt;Node13 -->
<g id="edge16" class="edge">
<title>Node1&#45;&gt;Node13</title>
<path fill="none" stroke="midnightblue" d="M36.36,-153.79C43.55,-130.98 64.44,-73.43 101,-40.5 102.72,-38.95 104.56,-37.48 106.48,-36.1"/>
<polygon fill="midnightblue" stroke="midnightblue" points="108.7,-38.84 115.31,-30.56 104.98,-32.91 108.7,-38.84"/>
</g>
<!-- Node3 -->
<g id="node3" class="node">
<title>Node3</title>
<g id="a_node3"><a xlink:href="../../de/d4f/namespacepa.html#a5414901c2fb62f1fd47857642964cc71" target="_top" xlink:title="Project a vector onto a box.">
<polygon fill="white" stroke="black" points="594,-236 594,-255 662,-255 662,-236 594,-236"/>
<text text-anchor="middle" x="628" y="-243" font-family="Helvetica,sans-Serif" font-size="10.00">pa::project</text>
</a>
</g>
</g>
<!-- Node2&#45;&gt;Node3 -->
<g id="edge2" class="edge">
<title>Node2&#45;&gt;Node3</title>
<path fill="none" stroke="midnightblue" d="M520.12,-279.95C539.97,-273.55 566.33,-265.06 587.9,-258.1"/>
<polygon fill="midnightblue" stroke="midnightblue" points="589,-261.43 597.44,-255.03 586.85,-254.77 589,-261.43"/>
</g>
<!-- Node5 -->
<g id="node5" class="node">
<title>Node5</title>
<g id="a_node5"><a xlink:href="../../db/d43/namespacepa_1_1vec__util.html#af8e650634ec3d7b82a78a4d313632ed0" target="_top" xlink:title="Get the maximum or infinity&#45;norm of the given vector.">
<polygon fill="white" stroke="black" points="260.5,-258 260.5,-277 382.5,-277 382.5,-258 260.5,-258"/>
<text text-anchor="middle" x="321.5" y="-265" font-family="Helvetica,sans-Serif" font-size="10.00">pa::vec_util::norm_inf</text>
</a>
</g>
</g>
<!-- Node4&#45;&gt;Node5 -->
<g id="edge4" class="edge">
<title>Node4&#45;&gt;Node5</title>
<path fill="none" stroke="midnightblue" d="M219.54,-267.5C229.49,-267.5 239.93,-267.5 250.19,-267.5"/>
<polygon fill="midnightblue" stroke="midnightblue" points="250.34,-271 260.34,-267.5 250.34,-264 250.34,-271"/>
</g>
<!-- Node7 -->
<g id="node7" class="node">
<title>Node7</title>
<g id="a_node7"><a xlink:href="../../de/d4f/namespacepa.html#aee505a26e46aa4c0ce09d0fed72f0dac" target="_top" xlink:title="Get the difference between the given vector and its projection.">
<polygon fill="white" stroke="black" points="421,-217 421,-236 558,-236 558,-217 421,-217"/>
<text text-anchor="middle" x="489.5" y="-224" font-family="Helvetica,sans-Serif" font-size="10.00">pa::projecting_difference</text>
</a>
</g>
</g>
<!-- Node6&#45;&gt;Node7 -->
<g id="edge6" class="edge">
<title>Node6&#45;&gt;Node7</title>
<path fill="none" stroke="midnightblue" d="M385.26,-226.5C393.64,-226.5 402.31,-226.5 410.91,-226.5"/>
<polygon fill="midnightblue" stroke="midnightblue" points="410.94,-230 420.94,-226.5 410.94,-223 410.94,-230"/>
</g>
<!-- Node7&#45;&gt;Node3 -->
<g id="edge7" class="edge">
<title>Node7&#45;&gt;Node3</title>
<path fill="none" stroke="midnightblue" d="M558.35,-235.94C567.01,-237.15 575.67,-238.36 583.79,-239.49"/>
<polygon fill="midnightblue" stroke="midnightblue" points="583.35,-242.96 593.73,-240.87 584.31,-236.02 583.35,-242.96"/>
</g>
<!-- Node10 -->
<g id="node10" class="node">
<title>Node10</title>
<g id="a_node10"><a xlink:href="../../d0/d51/namespacepa_1_1detail.html#a1df431b3667a974d293f683089e3baea" target="_top" xlink:title="Projected gradient step.">
<polygon fill="white" stroke="black" points="264.5,-44.5 264.5,-74.5 378.5,-74.5 378.5,-44.5 264.5,-44.5"/>
<text text-anchor="start" x="272.5" y="-62.5" font-family="Helvetica,sans-Serif" font-size="10.00">pa::detail::projected</text>
<text text-anchor="middle" x="321.5" y="-51.5" font-family="Helvetica,sans-Serif" font-size="10.00">_gradient_step</text>
</a>
</g>
</g>
<!-- Node9&#45;&gt;Node10 -->
<g id="edge10" class="edge">
<title>Node9&#45;&gt;Node10</title>
<path fill="none" stroke="midnightblue" d="M211.19,-59.5C224.69,-59.5 239.58,-59.5 253.91,-59.5"/>
<polygon fill="midnightblue" stroke="midnightblue" points="254.22,-63 264.22,-59.5 254.22,-56 254.22,-63"/>
</g>
<!-- Node11&#45;&gt;Node8 -->
<g id="edge12" class="edge">
<title>Node11&#45;&gt;Node8</title>
<path fill="none" stroke="midnightblue" d="M211.63,-154.25C225.1,-157.74 239.92,-161.59 254.19,-165.29"/>
<polygon fill="midnightblue" stroke="midnightblue" points="253.39,-168.7 263.94,-167.82 255.14,-161.92 253.39,-168.7"/>
</g>
<!-- Node11&#45;&gt;Node12 -->
<g id="edge13" class="edge">
<title>Node11&#45;&gt;Node12</title>
<path fill="none" stroke="midnightblue" d="M211.63,-140.57C225.61,-140.3 241.06,-140.01 255.82,-139.73"/>
<polygon fill="midnightblue" stroke="midnightblue" points="255.97,-143.23 265.9,-139.54 255.84,-136.23 255.97,-143.23"/>
</g>
<!-- Node12&#45;&gt;Node7 -->
<g id="edge14" class="edge">
<title>Node12&#45;&gt;Node7</title>
<path fill="none" stroke="midnightblue" d="M360.19,-148.01C368.53,-150.65 377.21,-153.82 385,-157.5 416.12,-172.21 448.62,-195.36 468.71,-210.73"/>
<polygon fill="midnightblue" stroke="midnightblue" points="466.72,-213.62 476.77,-216.99 471.02,-208.09 466.72,-213.62"/>
</g>
</g>
</svg>
