<?xml version="1.0" encoding="UTF-8" standalone="no"?>
<!DOCTYPE svg PUBLIC "-//W3C//DTD SVG 1.1//EN"
 "http://www.w3.org/Graphics/SVG/1.1/DTD/svg11.dtd">
<!-- Generated by graphviz version 2.43.0 (0)
 -->
<!-- Title: specialized&#45;lbfgs.hpp Pages: 1 -->
<svg width="586pt" height="341pt"
 viewBox="0.00 0.00 585.50 341.00" xmlns="http://www.w3.org/2000/svg" xmlns:xlink="http://www.w3.org/1999/xlink">
<g id="graph0" class="graph" transform="scale(1 1) rotate(0) translate(4 337)">
<title>specialized&#45;lbfgs.hpp</title>
<polygon fill="white" stroke="transparent" points="-4,4 -4,-337 581.5,-337 581.5,4 -4,4"/>
<!-- Node1 -->
<g id="node1" class="node">
<title>Node1</title>
<g id="a_node1"><a xlink:title=" ">
<polygon fill="#bfbfbf" stroke="black" points="214,-313.5 214,-332.5 334,-332.5 334,-313.5 214,-313.5"/>
<text text-anchor="middle" x="274" y="-320.5" font-family="Helvetica,sans-Serif" font-size="10.00">specialized&#45;lbfgs.hpp</text>
</a>
</g>
</g>
<!-- Node2 -->
<g id="node2" class="node">
<title>Node2</title>
<g id="a_node2"><a xlink:href="../../d8/df1/panoc-helpers_8hpp.html" target="_top" xlink:title=" ">
<polygon fill="white" stroke="black" points="14.5,-246.5 14.5,-276.5 141.5,-276.5 141.5,-246.5 14.5,-246.5"/>
<text text-anchor="start" x="22.5" y="-264.5" font-family="Helvetica,sans-Serif" font-size="10.00">panoc&#45;alm/inner/detail</text>
<text text-anchor="middle" x="78" y="-253.5" font-family="Helvetica,sans-Serif" font-size="10.00">/panoc&#45;helpers.hpp</text>
</a>
</g>
</g>
<!-- Node1&#45;&gt;Node2 -->
<g id="edge1" class="edge">
<title>Node1&#45;&gt;Node2</title>
<path fill="none" stroke="midnightblue" d="M245.92,-313.48C216.89,-304.66 170.79,-290.67 134.23,-279.57"/>
<polygon fill="midnightblue" stroke="midnightblue" points="134.78,-276.08 124.19,-276.52 132.75,-282.78 134.78,-276.08"/>
</g>
<!-- Node9 -->
<g id="node9" class="node">
<title>Node9</title>
<g id="a_node9"><a xlink:href="../../d1/dbb/decl_2specialized-lbfgs_8hpp.html" target="_top" xlink:title=" ">
<polygon fill="white" stroke="black" points="365.5,-246.5 365.5,-276.5 512.5,-276.5 512.5,-246.5 365.5,-246.5"/>
<text text-anchor="start" x="373.5" y="-264.5" font-family="Helvetica,sans-Serif" font-size="10.00">panoc&#45;alm/inner/directions</text>
<text text-anchor="middle" x="439" y="-253.5" font-family="Helvetica,sans-Serif" font-size="10.00">/decl/specialized&#45;lbfgs.hpp</text>
</a>
</g>
</g>
<!-- Node1&#45;&gt;Node9 -->
<g id="edge8" class="edge">
<title>Node1&#45;&gt;Node9</title>
<path fill="none" stroke="midnightblue" d="M297.64,-313.48C321.76,-304.78 359.89,-291.03 390.48,-280"/>
<polygon fill="midnightblue" stroke="midnightblue" points="391.89,-283.21 400.11,-276.52 389.52,-276.62 391.89,-283.21"/>
</g>
<!-- Node12 -->
<g id="node12" class="node">
<title>Node12</title>
<g id="a_node12"><a xlink:href="../../dd/deb/lbfgs_8hpp.html" target="_top" xlink:title=" ">
<polygon fill="white" stroke="black" points="200.5,-246.5 200.5,-276.5 347.5,-276.5 347.5,-246.5 200.5,-246.5"/>
<text text-anchor="start" x="208.5" y="-264.5" font-family="Helvetica,sans-Serif" font-size="10.00">panoc&#45;alm/inner/directions</text>
<text text-anchor="middle" x="274" y="-253.5" font-family="Helvetica,sans-Serif" font-size="10.00">/lbfgs.hpp</text>
</a>
</g>
</g>
<!-- Node1&#45;&gt;Node12 -->
<g id="edge13" class="edge">
<title>Node1&#45;&gt;Node12</title>
<path fill="none" stroke="midnightblue" d="M274,-313.48C274,-306.47 274,-296.19 274,-286.7"/>
<polygon fill="midnightblue" stroke="midnightblue" points="277.5,-286.52 274,-276.52 270.5,-286.52 277.5,-286.52"/>
</g>
<!-- Node13 -->
<g id="node13" class="node">
<title>Node13</title>
<g id="a_node13"><a xlink:href="../../d3/dfa/panoc-direction-update_8hpp.html" target="_top" xlink:title=" ">
<polygon fill="white" stroke="black" points="170.5,-179.5 170.5,-209.5 347.5,-209.5 347.5,-179.5 170.5,-179.5"/>
<text text-anchor="start" x="178.5" y="-197.5" font-family="Helvetica,sans-Serif" font-size="10.00">panoc&#45;alm/inner/directions</text>
<text text-anchor="middle" x="259" y="-186.5" font-family="Helvetica,sans-Serif" font-size="10.00">/decl/panoc&#45;direction&#45;update.hpp</text>
</a>
</g>
</g>
<!-- Node1&#45;&gt;Node13 -->
<g id="edge18" class="edge">
<title>Node1&#45;&gt;Node13</title>
<path fill="none" stroke="midnightblue" d="M241.82,-313.49C223.46,-306.8 201.98,-295.45 191,-277 183.95,-265.16 184.81,-258.31 191,-246 197.37,-233.33 208.59,-223.04 220.1,-215.14"/>
<polygon fill="midnightblue" stroke="midnightblue" points="222.32,-217.87 228.88,-209.56 218.57,-211.97 222.32,-217.87"/>
</g>
<!-- Node14 -->
<g id="node14" class="node">
<title>Node14</title>
<g id="a_node14"><a xlink:title=" ">
<polygon fill="white" stroke="#bfbfbf" points="530.5,-252 530.5,-271 577.5,-271 577.5,-252 530.5,-252"/>
<text text-anchor="middle" x="554" y="-259" font-family="Helvetica,sans-Serif" font-size="10.00">cmath</text>
</a>
</g>
</g>
<!-- Node1&#45;&gt;Node14 -->
<g id="edge17" class="edge">
<title>Node1&#45;&gt;Node14</title>
<path fill="none" stroke="midnightblue" d="M334.12,-315.3C384.97,-308.64 459.34,-296.55 522,-277 523.88,-276.41 525.79,-275.75 527.7,-275.02"/>
<polygon fill="midnightblue" stroke="midnightblue" points="529.16,-278.21 537.03,-271.12 526.46,-271.75 529.16,-278.21"/>
</g>
<!-- Node3 -->
<g id="node3" class="node">
<title>Node3</title>
<g id="a_node3"><a xlink:href="../../d5/d37/problem_8hpp.html" target="_top" xlink:title=" ">
<polygon fill="white" stroke="black" points="0,-185 0,-204 152,-204 152,-185 0,-185"/>
<text text-anchor="middle" x="76" y="-192" font-family="Helvetica,sans-Serif" font-size="10.00">panoc&#45;alm/util/problem.hpp</text>
</a>
</g>
</g>
<!-- Node2&#45;&gt;Node3 -->
<g id="edge2" class="edge">
<title>Node2&#45;&gt;Node3</title>
<path fill="none" stroke="midnightblue" d="M77.57,-246.4C77.28,-237.06 76.9,-224.71 76.59,-214.52"/>
<polygon fill="midnightblue" stroke="midnightblue" points="80.07,-214.08 76.27,-204.19 73.08,-214.3 80.07,-214.08"/>
</g>
<!-- Node4 -->
<g id="node4" class="node">
<title>Node4</title>
<g id="a_node4"><a xlink:href="../../d7/de4/box_8hpp.html" target="_top" xlink:title=" ">
<polygon fill="white" stroke="black" points="236,-118 236,-137 292,-137 292,-118 236,-118"/>
<text text-anchor="middle" x="264" y="-125" font-family="Helvetica,sans-Serif" font-size="10.00">box.hpp</text>
</a>
</g>
</g>
<!-- Node3&#45;&gt;Node4 -->
<g id="edge3" class="edge">
<title>Node3&#45;&gt;Node4</title>
<path fill="none" stroke="midnightblue" d="M100.96,-184.87C133.92,-173.47 192.12,-153.35 229.33,-140.49"/>
<polygon fill="midnightblue" stroke="midnightblue" points="230.92,-143.64 239.23,-137.06 228.64,-137.02 230.92,-143.64"/>
</g>
<!-- Node7 -->
<g id="node7" class="node">
<title>Node7</title>
<g id="a_node7"><a xlink:title=" ">
<polygon fill="white" stroke="#bfbfbf" points="1.5,-118 1.5,-137 66.5,-137 66.5,-118 1.5,-118"/>
<text text-anchor="middle" x="34" y="-125" font-family="Helvetica,sans-Serif" font-size="10.00">functional</text>
</a>
</g>
</g>
<!-- Node3&#45;&gt;Node7 -->
<g id="edge6" class="edge">
<title>Node3&#45;&gt;Node7</title>
<path fill="none" stroke="midnightblue" d="M70.34,-184.73C63.91,-174.79 53.28,-158.34 45.17,-145.79"/>
<polygon fill="midnightblue" stroke="midnightblue" points="47.94,-143.63 39.57,-137.13 42.06,-147.43 47.94,-143.63"/>
</g>
<!-- Node8 -->
<g id="node8" class="node">
<title>Node8</title>
<g id="a_node8"><a xlink:title=" ">
<polygon fill="white" stroke="#bfbfbf" points="84.5,-118 84.5,-137 153.5,-137 153.5,-118 84.5,-118"/>
<text text-anchor="middle" x="119" y="-125" font-family="Helvetica,sans-Serif" font-size="10.00">type_traits</text>
</a>
</g>
</g>
<!-- Node3&#45;&gt;Node8 -->
<g id="edge7" class="edge">
<title>Node3&#45;&gt;Node8</title>
<path fill="none" stroke="midnightblue" d="M81.8,-184.73C88.38,-174.79 99.26,-158.34 107.56,-145.79"/>
<polygon fill="midnightblue" stroke="midnightblue" points="110.69,-147.4 113.29,-137.13 104.86,-143.54 110.69,-147.4"/>
</g>
<!-- Node5 -->
<g id="node5" class="node">
<title>Node5</title>
<g id="a_node5"><a xlink:href="../../d7/d7c/vec_8hpp.html" target="_top" xlink:title=" ">
<polygon fill="white" stroke="black" points="275.5,-56.5 275.5,-75.5 330.5,-75.5 330.5,-56.5 275.5,-56.5"/>
<text text-anchor="middle" x="303" y="-63.5" font-family="Helvetica,sans-Serif" font-size="10.00">vec.hpp</text>
</a>
</g>
</g>
<!-- Node4&#45;&gt;Node5 -->
<g id="edge4" class="edge">
<title>Node4&#45;&gt;Node5</title>
<path fill="none" stroke="midnightblue" d="M269.59,-117.98C275.38,-109.14 284.59,-95.09 291.87,-83.98"/>
<polygon fill="midnightblue" stroke="midnightblue" points="294.87,-85.79 297.42,-75.51 289.01,-81.95 294.87,-85.79"/>
</g>
<!-- Node6 -->
<g id="node6" class="node">
<title>Node6</title>
<g id="a_node6"><a xlink:title=" ">
<polygon fill="white" stroke="#bfbfbf" points="268.5,-0.5 268.5,-19.5 337.5,-19.5 337.5,-0.5 268.5,-0.5"/>
<text text-anchor="middle" x="303" y="-7.5" font-family="Helvetica,sans-Serif" font-size="10.00">Eigen/Core</text>
</a>
</g>
</g>
<!-- Node5&#45;&gt;Node6 -->
<g id="edge5" class="edge">
<title>Node5&#45;&gt;Node6</title>
<path fill="none" stroke="midnightblue" d="M303,-56.08C303,-49.01 303,-38.86 303,-29.99"/>
<polygon fill="midnightblue" stroke="midnightblue" points="306.5,-29.75 303,-19.75 299.5,-29.75 306.5,-29.75"/>
</g>
<!-- Node10 -->
<g id="node10" class="node">
<title>Node10</title>
<g id="a_node10"><a xlink:href="../../d1/db5/decl_2lbfgs_8hpp.html" target="_top" xlink:title=" ">
<polygon fill="white" stroke="black" points="365.5,-179.5 365.5,-209.5 512.5,-209.5 512.5,-179.5 365.5,-179.5"/>
<text text-anchor="start" x="373.5" y="-197.5" font-family="Helvetica,sans-Serif" font-size="10.00">panoc&#45;alm/inner/directions</text>
<text text-anchor="middle" x="439" y="-186.5" font-family="Helvetica,sans-Serif" font-size="10.00">/decl/lbfgs.hpp</text>
</a>
</g>
</g>
<!-- Node9&#45;&gt;Node10 -->
<g id="edge9" class="edge">
<title>Node9&#45;&gt;Node10</title>
<path fill="none" stroke="midnightblue" d="M439,-246.4C439,-238.64 439,-228.81 439,-219.86"/>
<polygon fill="midnightblue" stroke="midnightblue" points="442.5,-219.58 439,-209.58 435.5,-219.58 442.5,-219.58"/>
</g>
<!-- Node10&#45;&gt;Node4 -->
<g id="edge10" class="edge">
<title>Node10&#45;&gt;Node4</title>
<path fill="none" stroke="midnightblue" d="M401.03,-179.4C369.78,-167.79 325.96,-151.51 296.36,-140.52"/>
<polygon fill="midnightblue" stroke="midnightblue" points="297.5,-137.21 286.9,-137.01 295.06,-143.77 297.5,-137.21"/>
</g>
<!-- Node10&#45;&gt;Node5 -->
<g id="edge11" class="edge">
<title>Node10&#45;&gt;Node5</title>
<path fill="none" stroke="midnightblue" d="M410.1,-179.43C393.44,-170.45 372.74,-157.74 357,-143 338.61,-125.78 322.61,-101.39 312.9,-84.93"/>
<polygon fill="midnightblue" stroke="midnightblue" points="315.71,-82.78 307.7,-75.84 309.63,-86.25 315.71,-82.78"/>
</g>
<!-- Node11 -->
<g id="node11" class="node">
<title>Node11</title>
<g id="a_node11"><a xlink:href="../../d4/d5e/lbfgs-fwd_8hpp.html" target="_top" xlink:title=" ">
<polygon fill="white" stroke="black" points="365.5,-112.5 365.5,-142.5 512.5,-142.5 512.5,-112.5 365.5,-112.5"/>
<text text-anchor="start" x="373.5" y="-130.5" font-family="Helvetica,sans-Serif" font-size="10.00">panoc&#45;alm/inner/directions</text>
<text text-anchor="middle" x="439" y="-119.5" font-family="Helvetica,sans-Serif" font-size="10.00">/decl/lbfgs&#45;fwd.hpp</text>
</a>
</g>
</g>
<!-- Node10&#45;&gt;Node11 -->
<g id="edge12" class="edge">
<title>Node10&#45;&gt;Node11</title>
<path fill="none" stroke="midnightblue" d="M439,-179.4C439,-171.64 439,-161.81 439,-152.86"/>
<polygon fill="midnightblue" stroke="midnightblue" points="442.5,-152.58 439,-142.58 435.5,-152.58 442.5,-152.58"/>
</g>
<!-- Node12&#45;&gt;Node10 -->
<g id="edge14" class="edge">
<title>Node12&#45;&gt;Node10</title>
<path fill="none" stroke="midnightblue" d="M309.8,-246.4C334.45,-236.69 367.39,-223.71 393.84,-213.29"/>
<polygon fill="midnightblue" stroke="midnightblue" points="395.25,-216.5 403.27,-209.58 392.68,-209.99 395.25,-216.5"/>
</g>
<!-- Node12&#45;&gt;Node13 -->
<g id="edge15" class="edge">
<title>Node12&#45;&gt;Node13</title>
<path fill="none" stroke="midnightblue" d="M270.75,-246.4C268.94,-238.56 266.64,-228.6 264.55,-219.57"/>
<polygon fill="midnightblue" stroke="midnightblue" points="267.91,-218.53 262.25,-209.58 261.09,-220.11 267.91,-218.53"/>
</g>
<!-- Node13&#45;&gt;Node4 -->
<g id="edge16" class="edge">
<title>Node13&#45;&gt;Node4</title>
<path fill="none" stroke="midnightblue" d="M260.08,-179.4C260.81,-169.96 261.77,-157.45 262.56,-147.19"/>
<polygon fill="midnightblue" stroke="midnightblue" points="266.05,-147.43 263.33,-137.19 259.07,-146.9 266.05,-147.43"/>
</g>
</g>
</svg>
