<?xml version="1.0" encoding="UTF-8" standalone="no"?>
<!DOCTYPE svg PUBLIC "-//W3C//DTD SVG 1.1//EN"
 "http://www.w3.org/Graphics/SVG/1.1/DTD/svg11.dtd">
<!-- Generated by graphviz version 2.43.0 (0)
 -->
<!-- Title: ALMParams Pages: 1 -->
<svg width="154pt" height="380pt"
 viewBox="0.00 0.00 154.00 380.00" xmlns="http://www.w3.org/2000/svg" xmlns:xlink="http://www.w3.org/1999/xlink">
<g id="graph0" class="graph" transform="scale(1 1) rotate(0) translate(4 376)">
<title>ALMParams</title>
<polygon fill="white" stroke="transparent" points="-4,4 -4,-376 150,-376 150,4 -4,4"/>
<!-- Node1 -->
<g id="node1" class="node">
<title>Node1</title>
<g id="a_node1"><a xlink:title="Parameters for the Augmented Lagrangian solver.">
<polygon fill="#bfbfbf" stroke="black" points="0,-0.5 0,-266.5 146,-266.5 146,-0.5 0,-0.5"/>
<text text-anchor="middle" x="73" y="-254.5" font-family="Helvetica,sans-Serif" font-size="10.00">ALMParams</text>
<polyline fill="none" stroke="black" points="0,-247.5 146,-247.5 "/>
<text text-anchor="start" x="8" y="-235.5" font-family="Helvetica,sans-Serif" font-size="10.00">+ ε</text>
<text text-anchor="start" x="8" y="-224.5" font-family="Helvetica,sans-Serif" font-size="10.00">+ δ</text>
<text text-anchor="start" x="8" y="-213.5" font-family="Helvetica,sans-Serif" font-size="10.00">+ Δ</text>
<text text-anchor="start" x="8" y="-202.5" font-family="Helvetica,sans-Serif" font-size="10.00">+ Δ_lower</text>
<text text-anchor="start" x="8" y="-191.5" font-family="Helvetica,sans-Serif" font-size="10.00">+ Σ₀</text>
<text text-anchor="start" x="8" y="-180.5" font-family="Helvetica,sans-Serif" font-size="10.00">+ σ₀</text>
<text text-anchor="start" x="8" y="-169.5" font-family="Helvetica,sans-Serif" font-size="10.00">+ Σ₀_lower</text>
<text text-anchor="start" x="8" y="-158.5" font-family="Helvetica,sans-Serif" font-size="10.00">+ ε₀</text>
<text text-anchor="start" x="8" y="-147.5" font-family="Helvetica,sans-Serif" font-size="10.00">+ ε₀_increase</text>
<text text-anchor="start" x="8" y="-136.5" font-family="Helvetica,sans-Serif" font-size="10.00">+ ρ</text>
<text text-anchor="start" x="8" y="-125.5" font-family="Helvetica,sans-Serif" font-size="10.00">+ ρ_increase</text>
<text text-anchor="start" x="8" y="-114.5" font-family="Helvetica,sans-Serif" font-size="10.00">+ θ</text>
<text text-anchor="start" x="8" y="-103.5" font-family="Helvetica,sans-Serif" font-size="10.00">+ M</text>
<text text-anchor="start" x="8" y="-92.5" font-family="Helvetica,sans-Serif" font-size="10.00">+ Σₘₐₓ</text>
<text text-anchor="start" x="8" y="-81.5" font-family="Helvetica,sans-Serif" font-size="10.00">+ max_iter</text>
<text text-anchor="start" x="8" y="-70.5" font-family="Helvetica,sans-Serif" font-size="10.00">+ max_num_initial_retries</text>
<text text-anchor="start" x="8" y="-59.5" font-family="Helvetica,sans-Serif" font-size="10.00">+ max_num_retries</text>
<text text-anchor="start" x="8" y="-48.5" font-family="Helvetica,sans-Serif" font-size="10.00">+ max_total_num_retries</text>
<text text-anchor="start" x="8" y="-37.5" font-family="Helvetica,sans-Serif" font-size="10.00">+ print_interval</text>
<text text-anchor="start" x="8" y="-26.5" font-family="Helvetica,sans-Serif" font-size="10.00">+ preconditioning</text>
<polyline fill="none" stroke="black" points="0,-19.5 146,-19.5 "/>
<text text-anchor="middle" x="73" y="-7.5" font-family="Helvetica,sans-Serif" font-size="10.00"> </text>
</a>
</g>
</g>
<!-- Node2 -->
<g id="node2" class="node">
<title>Node2</title>
<g id="a_node2"><a xlink:title=" ">
<polygon fill="white" stroke="#bfbfbf" points="31,-314.5 31,-371.5 115,-371.5 115,-314.5 31,-314.5"/>
<text text-anchor="middle" x="73" y="-359.5" font-family="Helvetica,sans-Serif" font-size="10.00">microseconds</text>
<polyline fill="none" stroke="#bfbfbf" points="31,-352.5 115,-352.5 "/>
<text text-anchor="middle" x="73" y="-340.5" font-family="Helvetica,sans-Serif" font-size="10.00"> </text>
<polyline fill="none" stroke="#bfbfbf" points="31,-333.5 115,-333.5 "/>
<text text-anchor="middle" x="73" y="-321.5" font-family="Helvetica,sans-Serif" font-size="10.00"> </text>
</a>
</g>
</g>
<!-- Node2&#45;&gt;Node1 -->
<g id="edge1" class="edge">
<title>Node2&#45;&gt;Node1</title>
<path fill="none" stroke="#404040" d="M73,-314.45C73,-304.4 73,-292.23 73,-279.02"/>
<polygon fill="none" stroke="#404040" points="73,-278.61 69,-272.61 73,-266.61 77,-272.61 73,-278.61"/>
<text text-anchor="middle" x="103.5" y="-288" font-family="Helvetica,sans-Serif" font-size="10.00"> +max_time</text>
</g>
</g>
</svg>
