<?xml version="1.0" encoding="UTF-8" standalone="no"?>
<!DOCTYPE svg PUBLIC "-//W3C//DTD SVG 1.1//EN"
 "http://www.w3.org/Graphics/SVG/1.1/DTD/svg11.dtd">
<!-- Generated by graphviz version 2.43.0 (0)
 -->
<!-- Title: lbfgs&#45;fwd.hpp Pages: 1 -->
<svg width="963pt" height="308pt"
 viewBox="0.00 0.00 963.00 308.00" xmlns="http://www.w3.org/2000/svg" xmlns:xlink="http://www.w3.org/1999/xlink">
<g id="graph0" class="graph" transform="scale(1 1) rotate(0) translate(4 304)">
<title>lbfgs&#45;fwd.hpp</title>
<polygon fill="white" stroke="transparent" points="-4,4 -4,-304 959,-304 959,4 -4,4"/>
<!-- Node1 -->
<g id="node1" class="node">
<title>Node1</title>
<g id="a_node1"><a xlink:title=" ">
<polygon fill="#bfbfbf" stroke="black" points="363.5,-280.5 363.5,-299.5 446.5,-299.5 446.5,-280.5 363.5,-280.5"/>
<text text-anchor="middle" x="405" y="-287.5" font-family="Helvetica,sans-Serif" font-size="10.00">lbfgs&#45;fwd.hpp</text>
</a>
</g>
</g>
<!-- Node2 -->
<g id="node2" class="node">
<title>Node2</title>
<g id="a_node2"><a xlink:href="../../d4/d83/panoc-fwd_8hpp.html" target="_top" xlink:title=" ">
<polygon fill="white" stroke="black" points="325,-224.5 325,-243.5 413,-243.5 413,-224.5 325,-224.5"/>
<text text-anchor="middle" x="369" y="-231.5" font-family="Helvetica,sans-Serif" font-size="10.00">panoc&#45;fwd.hpp</text>
</a>
</g>
</g>
<!-- Node1&#45;&gt;Node2 -->
<g id="edge1" class="edge">
<title>Node1&#45;&gt;Node2</title>
<path fill="none" stroke="midnightblue" d="M393.38,-271.57C387.18,-262.27 379.83,-251.25 374.83,-243.75"/>
<polygon fill="midnightblue" stroke="midnightblue" points="390.6,-273.7 399.06,-280.08 396.42,-269.82 390.6,-273.7"/>
</g>
<!-- Node14 -->
<g id="node14" class="node">
<title>Node14</title>
<g id="a_node14"><a xlink:href="../../d1/db5/decl_2lbfgs_8hpp.html" target="_top" xlink:title=" ">
<polygon fill="white" stroke="black" points="474,-168.5 474,-187.5 536,-187.5 536,-168.5 474,-168.5"/>
<text text-anchor="middle" x="505" y="-175.5" font-family="Helvetica,sans-Serif" font-size="10.00">lbfgs.hpp</text>
</a>
</g>
</g>
<!-- Node1&#45;&gt;Node14 -->
<g id="edge17" class="edge">
<title>Node1&#45;&gt;Node14</title>
<path fill="none" stroke="midnightblue" d="M419.64,-272.9C441.14,-249.25 480.5,-205.95 497.19,-187.59"/>
<polygon fill="midnightblue" stroke="midnightblue" points="416.98,-270.61 412.85,-280.37 422.16,-275.32 416.98,-270.61"/>
</g>
<!-- Node3 -->
<g id="node3" class="node">
<title>Node3</title>
<g id="a_node3"><a xlink:href="../../d4/dd2/decl_2alm_8hpp.html" target="_top" xlink:title=" ">
<polygon fill="white" stroke="black" points="261,-168.5 261,-187.5 317,-187.5 317,-168.5 261,-168.5"/>
<text text-anchor="middle" x="289" y="-175.5" font-family="Helvetica,sans-Serif" font-size="10.00">alm.hpp</text>
</a>
</g>
</g>
<!-- Node2&#45;&gt;Node3 -->
<g id="edge2" class="edge">
<title>Node2&#45;&gt;Node3</title>
<path fill="none" stroke="midnightblue" d="M347.7,-218.62C333.08,-208.76 314.17,-195.99 301.82,-187.65"/>
<polygon fill="midnightblue" stroke="midnightblue" points="345.9,-221.63 356.15,-224.32 349.82,-215.83 345.9,-221.63"/>
</g>
<!-- Node10 -->
<g id="node10" class="node">
<title>Node10</title>
<g id="a_node10"><a xlink:href="../../d2/da2/decl_2panoc_8hpp.html" target="_top" xlink:title=" ">
<polygon fill="white" stroke="black" points="335.5,-168.5 335.5,-187.5 402.5,-187.5 402.5,-168.5 335.5,-168.5"/>
<text text-anchor="middle" x="369" y="-175.5" font-family="Helvetica,sans-Serif" font-size="10.00">panoc.hpp</text>
</a>
</g>
</g>
<!-- Node2&#45;&gt;Node10 -->
<g id="edge9" class="edge">
<title>Node2&#45;&gt;Node10</title>
<path fill="none" stroke="midnightblue" d="M369,-213.8C369,-204.91 369,-194.78 369,-187.75"/>
<polygon fill="midnightblue" stroke="midnightblue" points="365.5,-214.08 369,-224.08 372.5,-214.08 365.5,-214.08"/>
</g>
<!-- Node4 -->
<g id="node4" class="node">
<title>Node4</title>
<g id="a_node4"><a xlink:href="../../d6/de7/alm-helpers_8hpp.html" target="_top" xlink:title=" ">
<polygon fill="white" stroke="black" points="0,-112.5 0,-131.5 96,-131.5 96,-112.5 0,-112.5"/>
<text text-anchor="middle" x="48" y="-119.5" font-family="Helvetica,sans-Serif" font-size="10.00">alm&#45;helpers.hpp</text>
</a>
</g>
</g>
<!-- Node3&#45;&gt;Node4 -->
<g id="edge3" class="edge">
<title>Node3&#45;&gt;Node4</title>
<path fill="none" stroke="midnightblue" d="M250.92,-168.47C205.88,-158.38 131.34,-141.67 86.23,-131.57"/>
<polygon fill="midnightblue" stroke="midnightblue" points="250.36,-171.93 260.88,-170.7 251.89,-165.1 250.36,-171.93"/>
</g>
<!-- Node7 -->
<g id="node7" class="node">
<title>Node7</title>
<g id="a_node7"><a xlink:href="../../dc/dd2/CasADi_2Rosenbrock_2main_8cpp.html" target="_top" xlink:title=" ">
<polygon fill="white" stroke="black" points="311,-112.5 311,-131.5 373,-131.5 373,-112.5 311,-112.5"/>
<text text-anchor="middle" x="342" y="-119.5" font-family="Helvetica,sans-Serif" font-size="10.00">main.cpp</text>
</a>
</g>
</g>
<!-- Node3&#45;&gt;Node7 -->
<g id="edge6" class="edge">
<title>Node3&#45;&gt;Node7</title>
<path fill="none" stroke="midnightblue" d="M304.98,-160.72C314.32,-151.2 325.75,-139.56 333.41,-131.75"/>
<polygon fill="midnightblue" stroke="midnightblue" points="302.26,-158.49 297.75,-168.08 307.25,-163.4 302.26,-158.49"/>
</g>
<!-- Node8 -->
<g id="node8" class="node">
<title>Node8</title>
<g id="a_node8"><a xlink:href="../../da/d1e/CUTEst_2Rosenbrock_2main_8cpp.html" target="_top" xlink:title=" ">
<polygon fill="white" stroke="black" points="391,-112.5 391,-131.5 453,-131.5 453,-112.5 391,-112.5"/>
<text text-anchor="middle" x="422" y="-119.5" font-family="Helvetica,sans-Serif" font-size="10.00">main.cpp</text>
</a>
</g>
</g>
<!-- Node3&#45;&gt;Node8 -->
<g id="edge7" class="edge">
<title>Node3&#45;&gt;Node8</title>
<path fill="none" stroke="midnightblue" d="M319.45,-164.64C344.41,-154.5 379.08,-140.43 401.02,-131.52"/>
<polygon fill="midnightblue" stroke="midnightblue" points="318.02,-161.44 310.07,-168.44 320.66,-167.92 318.02,-161.44"/>
</g>
<!-- Node9 -->
<g id="node9" class="node">
<title>Node9</title>
<g id="a_node9"><a xlink:href="../../d1/d5a/experiment_8cpp.html" target="_top" xlink:title=" ">
<polygon fill="white" stroke="black" points="114.5,-112.5 114.5,-131.5 207.5,-131.5 207.5,-112.5 114.5,-112.5"/>
<text text-anchor="middle" x="161" y="-119.5" font-family="Helvetica,sans-Serif" font-size="10.00">experiment.cpp</text>
</a>
</g>
</g>
<!-- Node3&#45;&gt;Node9 -->
<g id="edge8" class="edge">
<title>Node3&#45;&gt;Node9</title>
<path fill="none" stroke="midnightblue" d="M259.38,-164.5C235.38,-154.38 202.22,-140.39 181.19,-131.52"/>
<polygon fill="midnightblue" stroke="midnightblue" points="258.14,-167.78 268.72,-168.44 260.86,-161.33 258.14,-167.78"/>
</g>
<!-- Node5 -->
<g id="node5" class="node">
<title>Node5</title>
<g id="a_node5"><a xlink:href="../../d2/ddc/alm_8hpp.html" target="_top" xlink:title=" ">
<polygon fill="white" stroke="black" points="98,-56.5 98,-75.5 154,-75.5 154,-56.5 98,-56.5"/>
<text text-anchor="middle" x="126" y="-63.5" font-family="Helvetica,sans-Serif" font-size="10.00">alm.hpp</text>
</a>
</g>
</g>
<!-- Node4&#45;&gt;Node5 -->
<g id="edge4" class="edge">
<title>Node4&#45;&gt;Node5</title>
<path fill="none" stroke="midnightblue" d="M68.77,-106.62C83.02,-96.76 101.46,-83.99 113.5,-75.65"/>
<polygon fill="midnightblue" stroke="midnightblue" points="66.76,-103.75 60.53,-112.32 70.75,-109.51 66.76,-103.75"/>
</g>
<!-- Node6 -->
<g id="node6" class="node">
<title>Node6</title>
<g id="a_node6"><a xlink:href="../../d4/db5/alm_8cpp.html" target="_top" xlink:title=" ">
<polygon fill="white" stroke="black" points="231,-0.5 231,-19.5 287,-19.5 287,-0.5 231,-0.5"/>
<text text-anchor="middle" x="259" y="-7.5" font-family="Helvetica,sans-Serif" font-size="10.00">alm.cpp</text>
</a>
</g>
</g>
<!-- Node5&#45;&gt;Node6 -->
<g id="edge5" class="edge">
<title>Node5&#45;&gt;Node6</title>
<path fill="none" stroke="midnightblue" d="M156.45,-52.64C181.41,-42.5 216.08,-28.43 238.02,-19.52"/>
<polygon fill="midnightblue" stroke="midnightblue" points="155.02,-49.44 147.07,-56.44 157.66,-55.92 155.02,-49.44"/>
</g>
<!-- Node10&#45;&gt;Node7 -->
<g id="edge13" class="edge">
<title>Node10&#45;&gt;Node7</title>
<path fill="none" stroke="midnightblue" d="M359.99,-158.98C355.41,-149.82 350.05,-139.09 346.38,-131.75"/>
<polygon fill="midnightblue" stroke="midnightblue" points="356.94,-160.7 364.54,-168.08 363.2,-157.57 356.94,-160.7"/>
</g>
<!-- Node10&#45;&gt;Node8 -->
<g id="edge14" class="edge">
<title>Node10&#45;&gt;Node8</title>
<path fill="none" stroke="midnightblue" d="M384.98,-160.72C394.32,-151.2 405.75,-139.56 413.41,-131.75"/>
<polygon fill="midnightblue" stroke="midnightblue" points="382.26,-158.49 377.75,-168.08 387.25,-163.4 382.26,-158.49"/>
</g>
<!-- Node10&#45;&gt;Node9 -->
<g id="edge15" class="edge">
<title>Node10&#45;&gt;Node9</title>
<path fill="none" stroke="midnightblue" d="M326.22,-165.89C286.94,-155.7 229.57,-140.8 193.8,-131.52"/>
<polygon fill="midnightblue" stroke="midnightblue" points="325.48,-169.32 336.04,-168.44 327.24,-162.54 325.48,-169.32"/>
</g>
<!-- Node11 -->
<g id="node11" class="node">
<title>Node11</title>
<g id="a_node11"><a xlink:href="../../d5/de9/panoc_8hpp.html" target="_top" xlink:title=" ">
<polygon fill="white" stroke="black" points="225.5,-112.5 225.5,-131.5 292.5,-131.5 292.5,-112.5 225.5,-112.5"/>
<text text-anchor="middle" x="259" y="-119.5" font-family="Helvetica,sans-Serif" font-size="10.00">panoc.hpp</text>
</a>
</g>
</g>
<!-- Node10&#45;&gt;Node11 -->
<g id="edge10" class="edge">
<title>Node10&#45;&gt;Node11</title>
<path fill="none" stroke="midnightblue" d="M342.24,-163.86C321.84,-153.85 294.33,-140.35 276.63,-131.65"/>
<polygon fill="midnightblue" stroke="midnightblue" points="340.81,-167.06 351.33,-168.32 343.89,-160.78 340.81,-167.06"/>
</g>
<!-- Node13 -->
<g id="node13" class="node">
<title>Node13</title>
<g id="a_node13"><a xlink:href="../../db/dbf/panocexperiment_8cpp.html" target="_top" xlink:title=" ">
<polygon fill="white" stroke="black" points="471,-112.5 471,-131.5 593,-131.5 593,-112.5 471,-112.5"/>
<text text-anchor="middle" x="532" y="-119.5" font-family="Helvetica,sans-Serif" font-size="10.00">panocexperiment.cpp</text>
</a>
</g>
</g>
<!-- Node10&#45;&gt;Node13 -->
<g id="edge16" class="edge">
<title>Node10&#45;&gt;Node13</title>
<path fill="none" stroke="midnightblue" d="M404.7,-165.17C435.4,-155 478.92,-140.59 506.29,-131.52"/>
<polygon fill="midnightblue" stroke="midnightblue" points="403.22,-161.98 394.83,-168.44 405.42,-168.62 403.22,-161.98"/>
</g>
<!-- Node11&#45;&gt;Node6 -->
<g id="edge11" class="edge">
<title>Node11&#45;&gt;Node6</title>
<path fill="none" stroke="midnightblue" d="M259,-102.35C259,-78.25 259,-37.31 259,-19.59"/>
<polygon fill="midnightblue" stroke="midnightblue" points="255.5,-102.37 259,-112.37 262.5,-102.37 255.5,-102.37"/>
</g>
<!-- Node12 -->
<g id="node12" class="node">
<title>Node12</title>
<g id="a_node12"><a xlink:href="../../d7/d9f/panoc_8cpp.html" target="_top" xlink:title=" ">
<polygon fill="white" stroke="black" points="338,-56.5 338,-75.5 404,-75.5 404,-56.5 338,-56.5"/>
<text text-anchor="middle" x="371" y="-63.5" font-family="Helvetica,sans-Serif" font-size="10.00">panoc.cpp</text>
</a>
</g>
</g>
<!-- Node11&#45;&gt;Node12 -->
<g id="edge12" class="edge">
<title>Node11&#45;&gt;Node12</title>
<path fill="none" stroke="midnightblue" d="M286.25,-107.86C307.02,-97.85 335.02,-84.35 353.05,-75.65"/>
<polygon fill="midnightblue" stroke="midnightblue" points="284.48,-104.83 276.99,-112.32 287.52,-111.13 284.48,-104.83"/>
</g>
<!-- Node14&#45;&gt;Node7 -->
<g id="edge25" class="edge">
<title>Node14&#45;&gt;Node7</title>
<path fill="none" stroke="midnightblue" d="M469.3,-165.17C438.6,-155 395.08,-140.59 367.71,-131.52"/>
<polygon fill="midnightblue" stroke="midnightblue" points="468.58,-168.62 479.17,-168.44 470.78,-161.98 468.58,-168.62"/>
</g>
<!-- Node14&#45;&gt;Node8 -->
<g id="edge26" class="edge">
<title>Node14&#45;&gt;Node8</title>
<path fill="none" stroke="midnightblue" d="M482.9,-162.62C467.74,-152.76 448.12,-139.99 435.3,-131.65"/>
<polygon fill="midnightblue" stroke="midnightblue" points="481.37,-165.8 491.66,-168.32 485.19,-159.94 481.37,-165.8"/>
</g>
<!-- Node14&#45;&gt;Node9 -->
<g id="edge27" class="edge">
<title>Node14&#45;&gt;Node9</title>
<path fill="none" stroke="midnightblue" d="M463.87,-170.7C407.81,-162.08 304.27,-146.09 216,-132 213.23,-131.56 210.38,-131.1 207.51,-130.64"/>
<polygon fill="midnightblue" stroke="midnightblue" points="463.35,-174.16 473.77,-172.22 464.42,-167.24 463.35,-174.16"/>
</g>
<!-- Node14&#45;&gt;Node13 -->
<g id="edge28" class="edge">
<title>Node14&#45;&gt;Node13</title>
<path fill="none" stroke="midnightblue" d="M514.01,-158.98C518.59,-149.82 523.95,-139.09 527.62,-131.75"/>
<polygon fill="midnightblue" stroke="midnightblue" points="510.8,-157.57 509.46,-168.08 517.06,-160.7 510.8,-157.57"/>
</g>
<!-- Node15 -->
<g id="node15" class="node">
<title>Node15</title>
<g id="a_node15"><a xlink:href="../../d1/dbb/decl_2specialized-lbfgs_8hpp.html" target="_top" xlink:title=" ">
<polygon fill="white" stroke="black" points="691,-112.5 691,-131.5 811,-131.5 811,-112.5 691,-112.5"/>
<text text-anchor="middle" x="751" y="-119.5" font-family="Helvetica,sans-Serif" font-size="10.00">specialized&#45;lbfgs.hpp</text>
</a>
</g>
</g>
<!-- Node14&#45;&gt;Node15 -->
<g id="edge18" class="edge">
<title>Node14&#45;&gt;Node15</title>
<path fill="none" stroke="midnightblue" d="M546.13,-167.97C592.31,-157.83 666.7,-141.5 712,-131.56"/>
<polygon fill="midnightblue" stroke="midnightblue" points="545.17,-164.6 536.16,-170.16 546.67,-171.44 545.17,-164.6"/>
</g>
<!-- Node17 -->
<g id="node17" class="node">
<title>Node17</title>
<g id="a_node17"><a xlink:href="../../dd/deb/lbfgs_8hpp.html" target="_top" xlink:title=" ">
<polygon fill="white" stroke="black" points="611,-112.5 611,-131.5 673,-131.5 673,-112.5 611,-112.5"/>
<text text-anchor="middle" x="642" y="-119.5" font-family="Helvetica,sans-Serif" font-size="10.00">lbfgs.hpp</text>
</a>
</g>
</g>
<!-- Node14&#45;&gt;Node17 -->
<g id="edge20" class="edge">
<title>Node14&#45;&gt;Node17</title>
<path fill="none" stroke="midnightblue" d="M536.02,-164.77C561.76,-154.63 597.69,-140.47 620.39,-131.52"/>
<polygon fill="midnightblue" stroke="midnightblue" points="534.73,-161.52 526.71,-168.44 537.29,-168.03 534.73,-161.52"/>
</g>
<!-- Node19 -->
<g id="node19" class="node">
<title>Node19</title>
<g id="a_node19"><a xlink:href="../../d3/dba/secondorderpanoc_8cpp.html" target="_top" xlink:title=" ">
<polygon fill="white" stroke="black" points="829,-112.5 829,-131.5 955,-131.5 955,-112.5 829,-112.5"/>
<text text-anchor="middle" x="892" y="-119.5" font-family="Helvetica,sans-Serif" font-size="10.00">secondorderpanoc.cpp</text>
</a>
</g>
</g>
<!-- Node14&#45;&gt;Node19 -->
<g id="edge29" class="edge">
<title>Node14&#45;&gt;Node19</title>
<path fill="none" stroke="midnightblue" d="M545.95,-171.29C614.09,-161.78 751.12,-142.66 830.78,-131.54"/>
<polygon fill="midnightblue" stroke="midnightblue" points="545.44,-167.82 536.02,-172.67 546.4,-174.76 545.44,-167.82"/>
</g>
<!-- Node16 -->
<g id="node16" class="node">
<title>Node16</title>
<g id="a_node16"><a xlink:href="../../d2/d36/specialized-lbfgs_8hpp.html" target="_top" xlink:title=" ">
<polygon fill="white" stroke="black" points="691,-56.5 691,-75.5 811,-75.5 811,-56.5 691,-56.5"/>
<text text-anchor="middle" x="751" y="-63.5" font-family="Helvetica,sans-Serif" font-size="10.00">specialized&#45;lbfgs.hpp</text>
</a>
</g>
</g>
<!-- Node15&#45;&gt;Node16 -->
<g id="edge19" class="edge">
<title>Node15&#45;&gt;Node16</title>
<path fill="none" stroke="midnightblue" d="M751,-101.8C751,-92.91 751,-82.78 751,-75.75"/>
<polygon fill="midnightblue" stroke="midnightblue" points="747.5,-102.08 751,-112.08 754.5,-102.08 747.5,-102.08"/>
</g>
<!-- Node17&#45;&gt;Node6 -->
<g id="edge22" class="edge">
<title>Node17&#45;&gt;Node6</title>
<path fill="none" stroke="midnightblue" d="M602.39,-109.62C524.79,-87.34 354.45,-38.41 287.15,-19.09"/>
<polygon fill="midnightblue" stroke="midnightblue" points="601.69,-113.06 612.27,-112.46 603.62,-106.34 601.69,-113.06"/>
</g>
<!-- Node17&#45;&gt;Node12 -->
<g id="edge24" class="edge">
<title>Node17&#45;&gt;Node12</title>
<path fill="none" stroke="midnightblue" d="M600.41,-111.71C524.8,-95.94 447.37,-81.23 404.34,-73.18"/>
<polygon fill="midnightblue" stroke="midnightblue" points="600.07,-115.21 610.58,-113.84 601.51,-108.36 600.07,-115.21"/>
</g>
<!-- Node17&#45;&gt;Node16 -->
<g id="edge21" class="edge">
<title>Node17&#45;&gt;Node16</title>
<path fill="none" stroke="midnightblue" d="M668.52,-107.86C688.73,-97.85 715.99,-84.35 733.53,-75.65"/>
<polygon fill="midnightblue" stroke="midnightblue" points="666.92,-104.75 659.51,-112.32 670.03,-111.02 666.92,-104.75"/>
</g>
<!-- Node18 -->
<g id="node18" class="node">
<title>Node18</title>
<g id="a_node18"><a xlink:href="../../d9/daa/lbfgs_8cpp.html" target="_top" xlink:title=" ">
<polygon fill="white" stroke="black" points="611.5,-56.5 611.5,-75.5 672.5,-75.5 672.5,-56.5 611.5,-56.5"/>
<text text-anchor="middle" x="642" y="-63.5" font-family="Helvetica,sans-Serif" font-size="10.00">lbfgs.cpp</text>
</a>
</g>
</g>
<!-- Node17&#45;&gt;Node18 -->
<g id="edge23" class="edge">
<title>Node17&#45;&gt;Node18</title>
<path fill="none" stroke="midnightblue" d="M642,-101.8C642,-92.91 642,-82.78 642,-75.75"/>
<polygon fill="midnightblue" stroke="midnightblue" points="638.5,-102.08 642,-112.08 645.5,-102.08 638.5,-102.08"/>
</g>
</g>
</svg>
