<?xml version="1.0" encoding="UTF-8" standalone="no"?>
<!DOCTYPE svg PUBLIC "-//W3C//DTD SVG 1.1//EN"
 "http://www.w3.org/Graphics/SVG/1.1/DTD/svg11.dtd">
<!-- Generated by graphviz version 2.43.0 (0)
 -->
<!-- Title: apply Pages: 1 -->
<svg width="1020pt" height="323pt"
 viewBox="0.00 0.00 1020.00 323.38" xmlns="http://www.w3.org/2000/svg" xmlns:xlink="http://www.w3.org/1999/xlink">
<g id="graph0" class="graph" transform="scale(1 1) rotate(0) translate(4 319.38)">
<title>apply</title>
<polygon fill="white" stroke="transparent" points="-4,4 -4,-319.38 1016,-319.38 1016,4 -4,4"/>
<!-- Node1 -->
<g id="node1" class="node">
<title>Node1</title>
<g id="a_node1"><a xlink:title=" ">
<polygon fill="#bfbfbf" stroke="black" points="0,-143 0,-162 44,-162 44,-143 0,-143"/>
<text text-anchor="middle" x="22" y="-150" font-family="Helvetica,sans-Serif" font-size="10.00">apply</text>
</a>
</g>
</g>
<!-- Node2 -->
<g id="node2" class="node">
<title>Node2</title>
<g id="a_node2"><a xlink:href="../../da/db8/classpa_1_1AndersonAccel.html#a631bbbe30343f7e51af52d3d4e7804c6" target="_top" xlink:title=" ">
<polygon fill="white" stroke="black" points="80,-137.5 80,-167.5 193,-167.5 193,-137.5 80,-137.5"/>
<text text-anchor="start" x="88" y="-155.5" font-family="Helvetica,sans-Serif" font-size="10.00">pa::AndersonAccel::</text>
<text text-anchor="middle" x="136.5" y="-144.5" font-family="Helvetica,sans-Serif" font-size="10.00">compute</text>
</a>
</g>
</g>
<!-- Node1&#45;&gt;Node2 -->
<g id="edge1" class="edge">
<title>Node1&#45;&gt;Node2</title>
<path fill="none" stroke="midnightblue" d="M44.16,-152.5C51.64,-152.5 60.5,-152.5 69.7,-152.5"/>
<polygon fill="midnightblue" stroke="midnightblue" points="69.79,-156 79.79,-152.5 69.79,-149 69.79,-156"/>
</g>
<!-- Node3 -->
<g id="node3" class="node">
<title>Node3</title>
<g id="a_node3"><a xlink:href="../../de/d4f/namespacepa.html#a04d9e05002d02fd15c58766c259ef0d7" target="_top" xlink:title="Solve one step of Anderson acceleration to find a fixed point of a function g(x):">
<polygon fill="white" stroke="black" points="229,-137.5 229,-167.5 348,-167.5 348,-137.5 229,-137.5"/>
<text text-anchor="start" x="237" y="-155.5" font-family="Helvetica,sans-Serif" font-size="10.00">pa::minimize_update</text>
<text text-anchor="middle" x="288.5" y="-144.5" font-family="Helvetica,sans-Serif" font-size="10.00">_anderson</text>
</a>
</g>
</g>
<!-- Node2&#45;&gt;Node3 -->
<g id="edge2" class="edge">
<title>Node2&#45;&gt;Node3</title>
<path fill="none" stroke="midnightblue" d="M193.35,-152.5C201.59,-152.5 210.15,-152.5 218.6,-152.5"/>
<polygon fill="midnightblue" stroke="midnightblue" points="218.84,-156 228.84,-152.5 218.84,-149 218.84,-156"/>
</g>
<!-- Node4 -->
<g id="node4" class="node">
<title>Node4</title>
<g id="a_node4"><a xlink:href="../../d6/df1/classpa_1_1LimitedMemoryQR.html#a5e3077223e98c1e4e286e01503f220d5" target="_top" xlink:title="Add the given column to the right.">
<polygon fill="white" stroke="black" points="384,-235.5 384,-265.5 510,-265.5 510,-235.5 384,-235.5"/>
<text text-anchor="start" x="392" y="-253.5" font-family="Helvetica,sans-Serif" font-size="10.00">pa::LimitedMemoryQR</text>
<text text-anchor="middle" x="447" y="-242.5" font-family="Helvetica,sans-Serif" font-size="10.00">::add_column</text>
</a>
</g>
</g>
<!-- Node3&#45;&gt;Node4 -->
<g id="edge3" class="edge">
<title>Node3&#45;&gt;Node4</title>
<path fill="none" stroke="midnightblue" d="M305.83,-167.76C323.86,-183.99 354.29,-209.61 384,-226.5 386.86,-228.13 389.85,-229.69 392.91,-231.18"/>
<polygon fill="midnightblue" stroke="midnightblue" points="391.67,-234.46 402.22,-235.43 394.58,-228.09 391.67,-234.46"/>
</g>
<!-- Node5 -->
<g id="node5" class="node">
<title>Node5</title>
<g id="a_node5"><a xlink:href="../../d6/df1/classpa_1_1LimitedMemoryQR.html#af83f6287b8ea07acdcfa4670af30cbbf" target="_top" xlink:title=" ">
<polygon fill="white" stroke="black" points="870,-222 870,-241 1012,-241 1012,-222 870,-222"/>
<text text-anchor="middle" x="941" y="-229" font-family="Helvetica,sans-Serif" font-size="10.00">pa::LimitedMemoryQR::m</text>
</a>
</g>
</g>
<!-- Node3&#45;&gt;Node5 -->
<g id="edge7" class="edge">
<title>Node3&#45;&gt;Node5</title>
<path fill="none" stroke="midnightblue" d="M295.76,-167.87C307.97,-195.49 337.86,-252.77 384,-275.5 564.86,-364.62 819.35,-279.65 908.03,-244.84"/>
<polygon fill="midnightblue" stroke="midnightblue" points="909.54,-248 917.53,-241.05 906.95,-241.5 909.54,-248"/>
</g>
<!-- Node7 -->
<g id="node7" class="node">
<title>Node7</title>
<g id="a_node7"><a xlink:href="../../d6/df1/classpa_1_1LimitedMemoryQR.html#a98e2d9685769a3ebb2c0c9600a4c77b2" target="_top" xlink:title="Get the number of columns that are currently stored.">
<polygon fill="white" stroke="black" points="384,-186.5 384,-216.5 510,-216.5 510,-186.5 384,-186.5"/>
<text text-anchor="start" x="392" y="-204.5" font-family="Helvetica,sans-Serif" font-size="10.00">pa::LimitedMemoryQR</text>
<text text-anchor="middle" x="447" y="-193.5" font-family="Helvetica,sans-Serif" font-size="10.00">::num_columns</text>
</a>
</g>
</g>
<!-- Node3&#45;&gt;Node7 -->
<g id="edge8" class="edge">
<title>Node3&#45;&gt;Node7</title>
<path fill="none" stroke="midnightblue" d="M337.73,-167.6C353.72,-172.61 371.69,-178.23 388.32,-183.44"/>
<polygon fill="midnightblue" stroke="midnightblue" points="387.34,-186.8 397.93,-186.45 389.43,-180.12 387.34,-186.8"/>
</g>
<!-- Node8 -->
<g id="node8" class="node">
<title>Node8</title>
<g id="a_node8"><a xlink:href="../../d6/df1/classpa_1_1LimitedMemoryQR.html#a436c4dbbf0476354ca67a104bc005e55" target="_top" xlink:title="Remove the leftmost column.">
<polygon fill="white" stroke="black" points="384,-137.5 384,-167.5 510,-167.5 510,-137.5 384,-137.5"/>
<text text-anchor="start" x="392" y="-155.5" font-family="Helvetica,sans-Serif" font-size="10.00">pa::LimitedMemoryQR</text>
<text text-anchor="middle" x="447" y="-144.5" font-family="Helvetica,sans-Serif" font-size="10.00">::remove_column</text>
</a>
</g>
</g>
<!-- Node3&#45;&gt;Node8 -->
<g id="edge9" class="edge">
<title>Node3&#45;&gt;Node8</title>
<path fill="none" stroke="midnightblue" d="M348.22,-152.5C356.48,-152.5 365.06,-152.5 373.54,-152.5"/>
<polygon fill="midnightblue" stroke="midnightblue" points="373.81,-156 383.81,-152.5 373.81,-149 373.81,-156"/>
</g>
<!-- Node9 -->
<g id="node9" class="node">
<title>Node9</title>
<g id="a_node9"><a xlink:href="../../d6/df1/classpa_1_1LimitedMemoryQR.html#a7a0e06dceccc0bbe82ebd81247a5a412" target="_top" xlink:title="Get iterators in the circular buffer.">
<polygon fill="white" stroke="black" points="708,-73.5 708,-103.5 834,-103.5 834,-73.5 708,-73.5"/>
<text text-anchor="start" x="716" y="-91.5" font-family="Helvetica,sans-Serif" font-size="10.00">pa::LimitedMemoryQR</text>
<text text-anchor="middle" x="771" y="-80.5" font-family="Helvetica,sans-Serif" font-size="10.00">::ring_iter</text>
</a>
</g>
</g>
<!-- Node3&#45;&gt;Node9 -->
<g id="edge11" class="edge">
<title>Node3&#45;&gt;Node9</title>
<path fill="none" stroke="midnightblue" d="M343.18,-137.43C356.44,-134.1 370.67,-130.87 384,-128.5 492.4,-109.22 619.69,-98.26 697.59,-92.85"/>
<polygon fill="midnightblue" stroke="midnightblue" points="698.04,-96.33 707.77,-92.15 697.56,-89.34 698.04,-96.33"/>
</g>
<!-- Node10 -->
<g id="node10" class="node">
<title>Node10</title>
<g id="a_node10"><a xlink:href="../../d6/df1/classpa_1_1LimitedMemoryQR.html#a25b6259a3ee886a9a54f3a66ab019084" target="_top" xlink:title="Get the tail index of the circular buffer (points to one past the most recent element).">
<polygon fill="white" stroke="black" points="384,-49.5 384,-79.5 510,-79.5 510,-49.5 384,-49.5"/>
<text text-anchor="start" x="392" y="-67.5" font-family="Helvetica,sans-Serif" font-size="10.00">pa::LimitedMemoryQR</text>
<text text-anchor="middle" x="447" y="-56.5" font-family="Helvetica,sans-Serif" font-size="10.00">::ring_tail</text>
</a>
</g>
</g>
<!-- Node3&#45;&gt;Node10 -->
<g id="edge13" class="edge">
<title>Node3&#45;&gt;Node10</title>
<path fill="none" stroke="midnightblue" d="M312.8,-137.3C331.7,-125.19 359.17,-108.08 384,-94.5 390.42,-90.99 397.31,-87.44 404.08,-84.08"/>
<polygon fill="midnightblue" stroke="midnightblue" points="405.75,-87.16 413.19,-79.62 402.67,-80.87 405.75,-87.16"/>
</g>
<!-- Node11 -->
<g id="node11" class="node">
<title>Node11</title>
<g id="a_node11"><a xlink:href="../../d6/df1/classpa_1_1LimitedMemoryQR.html#a7a60dfe0a5f68bc1efec69e406a2b619" target="_top" xlink:title="Solve the least squares problem Ax = b.">
<polygon fill="white" stroke="black" points="384,-0.5 384,-30.5 510,-30.5 510,-0.5 384,-0.5"/>
<text text-anchor="start" x="392" y="-18.5" font-family="Helvetica,sans-Serif" font-size="10.00">pa::LimitedMemoryQR</text>
<text text-anchor="middle" x="447" y="-7.5" font-family="Helvetica,sans-Serif" font-size="10.00">::solve_col</text>
</a>
</g>
</g>
<!-- Node3&#45;&gt;Node11 -->
<g id="edge14" class="edge">
<title>Node3&#45;&gt;Node11</title>
<path fill="none" stroke="midnightblue" d="M298.64,-137.22C313.67,-113.29 345.75,-66.91 384,-39.5 386.05,-38.03 388.21,-36.63 390.43,-35.31"/>
<polygon fill="midnightblue" stroke="midnightblue" points="392.12,-38.38 399.28,-30.58 388.81,-32.21 392.12,-38.38"/>
</g>
<!-- Node4&#45;&gt;Node5 -->
<g id="edge4" class="edge">
<title>Node4&#45;&gt;Node5</title>
<path fill="none" stroke="midnightblue" d="M510.31,-248.09C599.09,-244.67 762.04,-238.37 859.75,-234.6"/>
<polygon fill="midnightblue" stroke="midnightblue" points="860.01,-238.09 869.87,-234.21 859.74,-231.1 860.01,-238.09"/>
</g>
<!-- Node6 -->
<g id="node6" class="node">
<title>Node6</title>
<g id="a_node6"><a xlink:href="../../d6/df1/classpa_1_1LimitedMemoryQR.html#abb2e912e6196e7c6996d3f43fea78237" target="_top" xlink:title="Get the next index in the circular storage for R.">
<polygon fill="white" stroke="black" points="546,-191.5 546,-221.5 672,-221.5 672,-191.5 546,-191.5"/>
<text text-anchor="start" x="554" y="-209.5" font-family="Helvetica,sans-Serif" font-size="10.00">pa::LimitedMemoryQR</text>
<text text-anchor="middle" x="609" y="-198.5" font-family="Helvetica,sans-Serif" font-size="10.00">::r_succ</text>
</a>
</g>
</g>
<!-- Node4&#45;&gt;Node6 -->
<g id="edge5" class="edge">
<title>Node4&#45;&gt;Node6</title>
<path fill="none" stroke="midnightblue" d="M502.62,-235.48C515.8,-231.85 530.01,-227.95 543.6,-224.21"/>
<polygon fill="midnightblue" stroke="midnightblue" points="544.65,-227.55 553.36,-221.53 542.79,-220.8 544.65,-227.55"/>
</g>
<!-- Node6&#45;&gt;Node5 -->
<g id="edge6" class="edge">
<title>Node6&#45;&gt;Node5</title>
<path fill="none" stroke="midnightblue" d="M672.07,-211.2C725.17,-215.23 801.96,-221.04 859.73,-225.42"/>
<polygon fill="midnightblue" stroke="midnightblue" points="859.68,-228.93 869.92,-226.19 860.21,-221.95 859.68,-228.93"/>
</g>
<!-- Node8&#45;&gt;Node6 -->
<g id="edge10" class="edge">
<title>Node8&#45;&gt;Node6</title>
<path fill="none" stroke="midnightblue" d="M492.57,-167.54C511.56,-173.95 533.89,-181.49 553.82,-188.22"/>
<polygon fill="midnightblue" stroke="midnightblue" points="552.8,-191.56 563.39,-191.45 555.04,-184.93 552.8,-191.56"/>
</g>
<!-- Node9&#45;&gt;Node5 -->
<g id="edge12" class="edge">
<title>Node9&#45;&gt;Node5</title>
<path fill="none" stroke="midnightblue" d="M789.66,-103.53C821.37,-130.52 887.7,-186.98 920.61,-215"/>
<polygon fill="midnightblue" stroke="midnightblue" points="918.71,-217.97 928.59,-221.79 923.24,-212.64 918.71,-217.97"/>
</g>
<!-- Node11&#45;&gt;Node9 -->
<g id="edge15" class="edge">
<title>Node11&#45;&gt;Node9</title>
<path fill="none" stroke="midnightblue" d="M499.96,-30.51C514.79,-34.6 530.99,-38.89 546,-42.5 596.5,-54.63 653.87,-66.37 697.92,-74.96"/>
<polygon fill="midnightblue" stroke="midnightblue" points="697.47,-78.44 707.96,-76.91 698.8,-71.56 697.47,-78.44"/>
</g>
<!-- Node12 -->
<g id="node12" class="node">
<title>Node12</title>
<g id="a_node12"><a xlink:href="../../d6/df1/classpa_1_1LimitedMemoryQR.html#a53110c85b0c151a290bf8d29533cd370" target="_top" xlink:title="Get reverse iterators in the circular buffer.">
<polygon fill="white" stroke="black" points="546,-3.5 546,-33.5 672,-33.5 672,-3.5 546,-3.5"/>
<text text-anchor="start" x="554" y="-21.5" font-family="Helvetica,sans-Serif" font-size="10.00">pa::LimitedMemoryQR</text>
<text text-anchor="middle" x="609" y="-10.5" font-family="Helvetica,sans-Serif" font-size="10.00">::ring_reverse_iter</text>
</a>
</g>
</g>
<!-- Node11&#45;&gt;Node12 -->
<g id="edge16" class="edge">
<title>Node11&#45;&gt;Node12</title>
<path fill="none" stroke="midnightblue" d="M510.32,-16.67C518.62,-16.82 527.18,-16.98 535.63,-17.14"/>
<polygon fill="midnightblue" stroke="midnightblue" points="535.79,-20.65 545.85,-17.33 535.92,-13.65 535.79,-20.65"/>
</g>
<!-- Node12&#45;&gt;Node9 -->
<g id="edge17" class="edge">
<title>Node12&#45;&gt;Node9</title>
<path fill="none" stroke="midnightblue" d="M644.32,-33.52C668.29,-44 700.47,-58.08 726.27,-69.37"/>
<polygon fill="midnightblue" stroke="midnightblue" points="724.89,-72.59 735.46,-73.39 727.7,-66.17 724.89,-72.59"/>
</g>
</g>
</svg>
