<?xml version="1.0" encoding="UTF-8" standalone="no"?>
<!DOCTYPE svg PUBLIC "-//W3C//DTD SVG 1.1//EN"
 "http://www.w3.org/Graphics/SVG/1.1/DTD/svg11.dtd">
<!-- Generated by graphviz version 2.43.0 (0)
 -->
<!-- Title: calc_ψ_grad_ψ Pages: 1 -->
<svg width="295pt" height="180pt"
 viewBox="0.00 0.00 295.00 180.00" xmlns="http://www.w3.org/2000/svg" xmlns:xlink="http://www.w3.org/1999/xlink">
<g id="graph0" class="graph" transform="scale(1 1) rotate(0) translate(4 176)">
<title>calc_ψ_grad_ψ</title>
<polygon fill="white" stroke="transparent" points="-4,4 -4,-176 291,-176 291,4 -4,4"/>
<!-- Node1 -->
<g id="node1" class="node">
<title>Node1</title>
<g id="a_node1"><a xlink:title="Calculate both ψ(x) and its gradient ∇ψ(x).">
<polygon fill="#bfbfbf" stroke="black" points="200,-76.5 200,-95.5 287,-95.5 287,-76.5 200,-76.5"/>
<text text-anchor="middle" x="243.5" y="-83.5" font-family="Helvetica,sans-Serif" font-size="10.00">calc_ψ_grad_ψ</text>
</a>
</g>
</g>
<!-- Node2 -->
<g id="node2" class="node">
<title>Node2</title>
<g id="a_node2"><a xlink:href="../../db/d9c/classpa_1_1PANOCSolver.html#a046eb909dc292ea710c9e93ff49d66ab" target="_top" xlink:title=" ">
<polygon fill="white" stroke="black" points="5,-152.5 5,-171.5 159,-171.5 159,-152.5 5,-152.5"/>
<text text-anchor="middle" x="82" y="-159.5" font-family="Helvetica,sans-Serif" font-size="10.00">pa::PANOCSolver::operator()</text>
</a>
</g>
</g>
<!-- Node1&#45;&gt;Node2 -->
<g id="edge1" class="edge">
<title>Node1&#45;&gt;Node2</title>
<path fill="none" stroke="midnightblue" d="M224.63,-102.21C209.51,-115.08 186.74,-132.59 164,-143 155.59,-146.85 146.33,-149.96 137.16,-152.46"/>
<polygon fill="midnightblue" stroke="midnightblue" points="226.96,-104.82 232.19,-95.61 222.35,-99.55 226.96,-104.82"/>
</g>
<!-- Node3 -->
<g id="node3" class="node">
<title>Node3</title>
<g id="a_node3"><a xlink:href="../../d4/db1/classpa_1_1LBFGSSolver.html#a0502175e94da732139ba833c02a80ff5" target="_top" xlink:title=" ">
<polygon fill="white" stroke="black" points="6,-114.5 6,-133.5 158,-133.5 158,-114.5 6,-114.5"/>
<text text-anchor="middle" x="82" y="-121.5" font-family="Helvetica,sans-Serif" font-size="10.00">pa::LBFGSSolver::operator()</text>
</a>
</g>
</g>
<!-- Node1&#45;&gt;Node3 -->
<g id="edge2" class="edge">
<title>Node1&#45;&gt;Node3</title>
<path fill="none" stroke="midnightblue" d="M193.42,-97.94C183.68,-100.29 173.52,-102.73 164,-105 150.93,-108.11 136.67,-111.47 123.8,-114.49"/>
<polygon fill="midnightblue" stroke="midnightblue" points="194.49,-101.28 203.38,-95.53 192.84,-94.48 194.49,-101.28"/>
</g>
<!-- Node4 -->
<g id="node4" class="node">
<title>Node4</title>
<g id="a_node4"><a xlink:href="../../dc/d82/classpa_1_1LBFGSBSolver.html#a0502175e94da732139ba833c02a80ff5" target="_top" xlink:title=" ">
<polygon fill="white" stroke="black" points="3,-76.5 3,-95.5 161,-95.5 161,-76.5 3,-76.5"/>
<text text-anchor="middle" x="82" y="-83.5" font-family="Helvetica,sans-Serif" font-size="10.00">pa::LBFGSBSolver::operator()</text>
</a>
</g>
</g>
<!-- Node1&#45;&gt;Node4 -->
<g id="edge3" class="edge">
<title>Node1&#45;&gt;Node4</title>
<path fill="none" stroke="midnightblue" d="M189.71,-86C180.57,-86 170.91,-86 161.27,-86"/>
<polygon fill="midnightblue" stroke="midnightblue" points="189.76,-89.5 199.76,-86 189.76,-82.5 189.76,-89.5"/>
</g>
<!-- Node5 -->
<g id="node5" class="node">
<title>Node5</title>
<g id="a_node5"><a xlink:href="../../d8/d33/classpa_1_1GuardedAAPGA.html#a656a1117248ac02387eb817ee135df0e" target="_top" xlink:title=" ">
<polygon fill="white" stroke="black" points="0,-38.5 0,-57.5 164,-57.5 164,-38.5 0,-38.5"/>
<text text-anchor="middle" x="82" y="-45.5" font-family="Helvetica,sans-Serif" font-size="10.00">pa::GuardedAAPGA::operator()</text>
</a>
</g>
</g>
<!-- Node1&#45;&gt;Node5 -->
<g id="edge4" class="edge">
<title>Node1&#45;&gt;Node5</title>
<path fill="none" stroke="midnightblue" d="M193.42,-74.06C183.68,-71.71 173.52,-69.27 164,-67 150.93,-63.89 136.67,-60.53 123.8,-57.51"/>
<polygon fill="midnightblue" stroke="midnightblue" points="192.84,-77.52 203.38,-76.47 194.49,-70.72 192.84,-77.52"/>
</g>
<!-- Node6 -->
<g id="node6" class="node">
<title>Node6</title>
<g id="a_node6"><a xlink:href="../../d1/d91/classpa_1_1PGA.html#a2524c14cb1e9f67d7b3694ab5dbb24e4" target="_top" xlink:title=" ">
<polygon fill="white" stroke="black" points="27,-0.5 27,-19.5 137,-19.5 137,-0.5 27,-0.5"/>
<text text-anchor="middle" x="82" y="-7.5" font-family="Helvetica,sans-Serif" font-size="10.00">pa::PGA::operator()</text>
</a>
</g>
</g>
<!-- Node1&#45;&gt;Node6 -->
<g id="edge5" class="edge">
<title>Node1&#45;&gt;Node6</title>
<path fill="none" stroke="midnightblue" d="M224.63,-69.79C209.51,-56.92 186.74,-39.41 164,-29 155.59,-25.15 146.33,-22.04 137.16,-19.54"/>
<polygon fill="midnightblue" stroke="midnightblue" points="222.35,-72.45 232.19,-76.39 226.96,-67.18 222.35,-72.45"/>
</g>
</g>
</svg>
