<?xml version="1.0" encoding="UTF-8" standalone="no"?>
<!DOCTYPE svg PUBLIC "-//W3C//DTD SVG 1.1//EN"
 "http://www.w3.org/Graphics/SVG/1.1/DTD/svg11.dtd">
<!-- Generated by graphviz version 2.43.0 (0)
 -->
<!-- Title: projected_gradient_step Pages: 1 -->
<svg width="662pt" height="154pt"
 viewBox="0.00 0.00 662.00 154.00" xmlns="http://www.w3.org/2000/svg" xmlns:xlink="http://www.w3.org/1999/xlink">
<g id="graph0" class="graph" transform="scale(1 1) rotate(0) translate(4 150)">
<title>projected_gradient_step</title>
<polygon fill="white" stroke="transparent" points="-4,4 -4,-150 658,-150 658,4 -4,4"/>
<!-- Node1 -->
<g id="node1" class="node">
<title>Node1</title>
<g id="a_node1"><a xlink:title="Projected gradient step.">
<polygon fill="#bfbfbf" stroke="black" points="520,-44.5 520,-63.5 654,-63.5 654,-44.5 520,-44.5"/>
<text text-anchor="middle" x="587" y="-51.5" font-family="Helvetica,sans-Serif" font-size="10.00">projected_gradient_step</text>
</a>
</g>
</g>
<!-- Node2 -->
<g id="node2" class="node">
<title>Node2</title>
<g id="a_node2"><a xlink:href="../../d0/d51/namespacepa_1_1detail.html#a9903a19aa6bab557daa71f888a499e9d" target="_top" xlink:title=" ">
<polygon fill="white" stroke="black" points="399.5,-88.5 399.5,-107.5 446.5,-107.5 446.5,-88.5 399.5,-88.5"/>
<text text-anchor="middle" x="423" y="-95.5" font-family="Helvetica,sans-Serif" font-size="10.00">calc_x̂</text>
</a>
</g>
</g>
<!-- Node1&#45;&gt;Node2 -->
<g id="edge1" class="edge">
<title>Node1&#45;&gt;Node2</title>
<path fill="none" stroke="midnightblue" d="M540.81,-66.27C510.15,-74.6 470.91,-85.26 446.62,-91.86"/>
<polygon fill="midnightblue" stroke="midnightblue" points="542.12,-69.55 550.85,-63.55 540.28,-62.79 542.12,-69.55"/>
</g>
<!-- Node5 -->
<g id="node5" class="node">
<title>Node5</title>
<g id="a_node5"><a xlink:href="../../d0/d6d/classpa_1_1SpecializedLBFGS.html#a71d9f5b74a18b1ef994683c1aa4914da" target="_top" xlink:title="L&#45;BFGS update when changing the step size γ, recomputing everything.">
<polygon fill="white" stroke="black" points="362,-39 362,-69 484,-69 484,-39 362,-39"/>
<text text-anchor="start" x="370" y="-57" font-family="Helvetica,sans-Serif" font-size="10.00">pa::SpecializedLBFGS</text>
<text text-anchor="middle" x="423" y="-46" font-family="Helvetica,sans-Serif" font-size="10.00">::full_update</text>
</a>
</g>
</g>
<!-- Node1&#45;&gt;Node5 -->
<g id="edge4" class="edge">
<title>Node1&#45;&gt;Node5</title>
<path fill="none" stroke="midnightblue" d="M509.61,-54C501.02,-54 492.36,-54 484.01,-54"/>
<polygon fill="midnightblue" stroke="midnightblue" points="509.64,-57.5 519.64,-54 509.64,-50.5 509.64,-57.5"/>
</g>
<!-- Node8 -->
<g id="node8" class="node">
<title>Node8</title>
<g id="a_node8"><a xlink:href="../../d3/dba/secondorderpanoc_8cpp.html#ae66f6b31b5ad750f1fe042a706a4e3d4" target="_top" xlink:title=" ">
<polygon fill="white" stroke="black" points="402.5,-0.5 402.5,-19.5 443.5,-19.5 443.5,-0.5 402.5,-0.5"/>
<text text-anchor="middle" x="423" y="-7.5" font-family="Helvetica,sans-Serif" font-size="10.00">main</text>
</a>
</g>
</g>
<!-- Node1&#45;&gt;Node8 -->
<g id="edge7" class="edge">
<title>Node1&#45;&gt;Node8</title>
<path fill="none" stroke="midnightblue" d="M540.86,-41.74C508.98,-33.08 467.82,-21.9 443.82,-15.38"/>
<polygon fill="midnightblue" stroke="midnightblue" points="540.28,-45.21 550.85,-44.45 542.12,-38.45 540.28,-45.21"/>
</g>
<!-- Node3 -->
<g id="node3" class="node">
<title>Node3</title>
<g id="a_node3"><a xlink:href="../../d8/d33/classpa_1_1GuardedAAPGA.html#a656a1117248ac02387eb817ee135df0e" target="_top" xlink:title=" ">
<polygon fill="white" stroke="black" points="162,-126.5 162,-145.5 326,-145.5 326,-126.5 162,-126.5"/>
<text text-anchor="middle" x="244" y="-133.5" font-family="Helvetica,sans-Serif" font-size="10.00">pa::GuardedAAPGA::operator()</text>
</a>
</g>
</g>
<!-- Node2&#45;&gt;Node3 -->
<g id="edge2" class="edge">
<title>Node2&#45;&gt;Node3</title>
<path fill="none" stroke="midnightblue" d="M389.12,-105.06C361.04,-111.09 320.4,-119.81 289.43,-126.46"/>
<polygon fill="midnightblue" stroke="midnightblue" points="390.18,-108.41 399.22,-102.89 388.71,-101.57 390.18,-108.41"/>
</g>
<!-- Node4 -->
<g id="node4" class="node">
<title>Node4</title>
<g id="a_node4"><a xlink:href="../../d1/d91/classpa_1_1PGA.html#a2524c14cb1e9f67d7b3694ab5dbb24e4" target="_top" xlink:title=" ">
<polygon fill="white" stroke="black" points="189,-88.5 189,-107.5 299,-107.5 299,-88.5 189,-88.5"/>
<text text-anchor="middle" x="244" y="-95.5" font-family="Helvetica,sans-Serif" font-size="10.00">pa::PGA::operator()</text>
</a>
</g>
</g>
<!-- Node2&#45;&gt;Node4 -->
<g id="edge3" class="edge">
<title>Node2&#45;&gt;Node4</title>
<path fill="none" stroke="midnightblue" d="M389.09,-98C363.9,-98 328.62,-98 299.27,-98"/>
<polygon fill="midnightblue" stroke="midnightblue" points="389.22,-101.5 399.22,-98 389.22,-94.5 389.22,-101.5"/>
</g>
<!-- Node6 -->
<g id="node6" class="node">
<title>Node6</title>
<g id="a_node6"><a xlink:href="../../d0/d6d/classpa_1_1SpecializedLBFGS.html#a8032c3cbff7a91765be22979ccd4f79b" target="_top" xlink:title="Update the inverse Hessian approximation using the new vectors xₖ₊₁ and pₖ₊₁.">
<polygon fill="white" stroke="black" points="183,-39 183,-69 305,-69 305,-39 183,-39"/>
<text text-anchor="start" x="191" y="-57" font-family="Helvetica,sans-Serif" font-size="10.00">pa::SpecializedLBFGS</text>
<text text-anchor="middle" x="244" y="-46" font-family="Helvetica,sans-Serif" font-size="10.00">::update</text>
</a>
</g>
</g>
<!-- Node5&#45;&gt;Node6 -->
<g id="edge5" class="edge">
<title>Node5&#45;&gt;Node6</title>
<path fill="none" stroke="midnightblue" d="M351.17,-54C335.92,-54 319.94,-54 305.15,-54"/>
<polygon fill="midnightblue" stroke="midnightblue" points="351.58,-57.5 361.58,-54 351.58,-50.5 351.58,-57.5"/>
</g>
<!-- Node7 -->
<g id="node7" class="node">
<title>Node7</title>
<g id="a_node7"><a xlink:href="../../d3/df9/structpa_1_1PANOCDirection_3_01SpecializedLBFGS_01_4.html#a1932af68886cf467a0300e371e94a2c3" target="_top" xlink:title=" ">
<polygon fill="white" stroke="black" points="0,-33.5 0,-74.5 126,-74.5 126,-33.5 0,-33.5"/>
<text text-anchor="start" x="8" y="-62.5" font-family="Helvetica,sans-Serif" font-size="10.00">pa::PANOCDirection</text>
<text text-anchor="start" x="8" y="-51.5" font-family="Helvetica,sans-Serif" font-size="10.00">&lt; SpecializedLBFGS &gt;</text>
<text text-anchor="middle" x="63" y="-40.5" font-family="Helvetica,sans-Serif" font-size="10.00">::update</text>
</a>
</g>
</g>
<!-- Node6&#45;&gt;Node7 -->
<g id="edge6" class="edge">
<title>Node6&#45;&gt;Node7</title>
<path fill="none" stroke="midnightblue" d="M172.88,-54C157.44,-54 141.19,-54 126.08,-54"/>
<polygon fill="midnightblue" stroke="midnightblue" points="172.9,-57.5 182.9,-54 172.9,-50.5 172.9,-57.5"/>
</g>
</g>
</svg>
