<?xml version="1.0" encoding="UTF-8" standalone="no"?>
<!DOCTYPE svg PUBLIC "-//W3C//DTD SVG 1.1//EN"
 "http://www.w3.org/Graphics/SVG/1.1/DTD/svg11.dtd">
<!-- Generated by graphviz version 2.43.0 (0)
 -->
<!-- Title: calc_x̂ Pages: 1 -->
<svg width="255pt" height="66pt"
 viewBox="0.00 0.00 255.00 66.00" xmlns="http://www.w3.org/2000/svg" xmlns:xlink="http://www.w3.org/1999/xlink">
<g id="graph0" class="graph" transform="scale(1 1) rotate(0) translate(4 62)">
<title>calc_x̂</title>
<polygon fill="white" stroke="transparent" points="-4,4 -4,-62 251,-62 251,4 -4,4"/>
<!-- Node1 -->
<g id="node1" class="node">
<title>Node1</title>
<g id="a_node1"><a xlink:title=" ">
<polygon fill="#bfbfbf" stroke="black" points="200,-19.5 200,-38.5 247,-38.5 247,-19.5 200,-19.5"/>
<text text-anchor="middle" x="223.5" y="-26.5" font-family="Helvetica,sans-Serif" font-size="10.00">calc_x̂</text>
</a>
</g>
</g>
<!-- Node2 -->
<g id="node2" class="node">
<title>Node2</title>
<g id="a_node2"><a xlink:href="../../d8/d33/classpa_1_1GuardedAAPGA.html#a656a1117248ac02387eb817ee135df0e" target="_top" xlink:title=" ">
<polygon fill="white" stroke="black" points="0,-38.5 0,-57.5 164,-57.5 164,-38.5 0,-38.5"/>
<text text-anchor="middle" x="82" y="-45.5" font-family="Helvetica,sans-Serif" font-size="10.00">pa::GuardedAAPGA::operator()</text>
</a>
</g>
</g>
<!-- Node1&#45;&gt;Node2 -->
<g id="edge1" class="edge">
<title>Node1&#45;&gt;Node2</title>
<path fill="none" stroke="midnightblue" d="M189.76,-33.46C178.69,-34.97 165.88,-36.71 153.05,-38.46"/>
<polygon fill="midnightblue" stroke="midnightblue" points="190.34,-36.91 199.78,-32.09 189.4,-29.98 190.34,-36.91"/>
</g>
<!-- Node3 -->
<g id="node3" class="node">
<title>Node3</title>
<g id="a_node3"><a xlink:href="../../d1/d91/classpa_1_1PGA.html#a2524c14cb1e9f67d7b3694ab5dbb24e4" target="_top" xlink:title=" ">
<polygon fill="white" stroke="black" points="27,-0.5 27,-19.5 137,-19.5 137,-0.5 27,-0.5"/>
<text text-anchor="middle" x="82" y="-7.5" font-family="Helvetica,sans-Serif" font-size="10.00">pa::PGA::operator()</text>
</a>
</g>
</g>
<!-- Node1&#45;&gt;Node3 -->
<g id="edge2" class="edge">
<title>Node1&#45;&gt;Node3</title>
<path fill="none" stroke="midnightblue" d="M189.55,-24.51C173.89,-22.38 154.76,-19.77 137.05,-17.36"/>
<polygon fill="midnightblue" stroke="midnightblue" points="189.4,-28.02 199.78,-25.91 190.34,-21.09 189.4,-28.02"/>
</g>
</g>
</svg>
