<?xml version="1.0" encoding="UTF-8" standalone="no"?>
<!DOCTYPE svg PUBLIC "-//W3C//DTD SVG 1.1//EN"
 "http://www.w3.org/Graphics/SVG/1.1/DTD/svg11.dtd">
<!-- Generated by graphviz version 2.43.0 (0)
 -->
<!-- Title: calc_grad_ψ_from_ŷ Pages: 1 -->
<svg width="446pt" height="218pt"
 viewBox="0.00 0.00 446.00 218.00" xmlns="http://www.w3.org/2000/svg" xmlns:xlink="http://www.w3.org/1999/xlink">
<g id="graph0" class="graph" transform="scale(1 1) rotate(0) translate(4 214)">
<title>calc_grad_ψ_from_ŷ</title>
<polygon fill="white" stroke="transparent" points="-4,4 -4,-214 442,-214 442,4 -4,4"/>
<!-- Node1 -->
<g id="node1" class="node">
<title>Node1</title>
<g id="a_node1"><a xlink:title="Calculate ∇ψ(x) using ŷ.">
<polygon fill="#bfbfbf" stroke="black" points="323,-57.5 323,-76.5 438,-76.5 438,-57.5 323,-57.5"/>
<text text-anchor="middle" x="380.5" y="-64.5" font-family="Helvetica,sans-Serif" font-size="10.00">calc_grad_ψ_from_ŷ</text>
</a>
</g>
</g>
<!-- Node2 -->
<g id="node2" class="node">
<title>Node2</title>
<g id="a_node2"><a xlink:href="../../d0/d51/namespacepa_1_1detail.html#a04141b21eae7f6171a7cd031d7305ed8" target="_top" xlink:title="Calculate both ψ(x) and its gradient ∇ψ(x).">
<polygon fill="white" stroke="black" points="200,-114.5 200,-133.5 287,-133.5 287,-114.5 200,-114.5"/>
<text text-anchor="middle" x="243.5" y="-121.5" font-family="Helvetica,sans-Serif" font-size="10.00">calc_ψ_grad_ψ</text>
</a>
</g>
</g>
<!-- Node1&#45;&gt;Node2 -->
<g id="edge1" class="edge">
<title>Node1&#45;&gt;Node2</title>
<path fill="none" stroke="midnightblue" d="M347.58,-80.48C322.85,-90.92 289.2,-105.13 267.17,-114.43"/>
<polygon fill="midnightblue" stroke="midnightblue" points="349.05,-83.65 356.9,-76.54 346.33,-77.21 349.05,-83.65"/>
</g>
<!-- Node6 -->
<g id="node6" class="node">
<title>Node6</title>
<g id="a_node6"><a xlink:href="../../d8/d33/classpa_1_1GuardedAAPGA.html#a656a1117248ac02387eb817ee135df0e" target="_top" xlink:title=" ">
<polygon fill="white" stroke="black" points="0,-76.5 0,-95.5 164,-95.5 164,-76.5 0,-76.5"/>
<text text-anchor="middle" x="82" y="-83.5" font-family="Helvetica,sans-Serif" font-size="10.00">pa::GuardedAAPGA::operator()</text>
</a>
</g>
</g>
<!-- Node1&#45;&gt;Node6 -->
<g id="edge8" class="edge">
<title>Node1&#45;&gt;Node6</title>
<path fill="none" stroke="midnightblue" d="M312.67,-71.28C268.71,-74.1 210.9,-77.8 164.28,-80.79"/>
<polygon fill="midnightblue" stroke="midnightblue" points="312.93,-74.77 322.68,-70.64 312.48,-67.79 312.93,-74.77"/>
</g>
<!-- Node7 -->
<g id="node7" class="node">
<title>Node7</title>
<g id="a_node7"><a xlink:href="../../d1/d91/classpa_1_1PGA.html#a2524c14cb1e9f67d7b3694ab5dbb24e4" target="_top" xlink:title=" ">
<polygon fill="white" stroke="black" points="27,-38.5 27,-57.5 137,-57.5 137,-38.5 27,-38.5"/>
<text text-anchor="middle" x="82" y="-45.5" font-family="Helvetica,sans-Serif" font-size="10.00">pa::PGA::operator()</text>
</a>
</g>
</g>
<!-- Node1&#45;&gt;Node7 -->
<g id="edge9" class="edge">
<title>Node1&#45;&gt;Node7</title>
<path fill="none" stroke="midnightblue" d="M312.7,-62.72C259.68,-59.32 186.52,-54.63 137.13,-51.47"/>
<polygon fill="midnightblue" stroke="midnightblue" points="312.48,-66.21 322.68,-63.36 312.93,-59.23 312.48,-66.21"/>
</g>
<!-- Node8 -->
<g id="node8" class="node">
<title>Node8</title>
<g id="a_node8"><a xlink:href="../../d3/dba/secondorderpanoc_8cpp.html#ae66f6b31b5ad750f1fe042a706a4e3d4" target="_top" xlink:title=" ">
<polygon fill="white" stroke="black" points="223,-0.5 223,-19.5 264,-19.5 264,-0.5 223,-0.5"/>
<text text-anchor="middle" x="243.5" y="-7.5" font-family="Helvetica,sans-Serif" font-size="10.00">main</text>
</a>
</g>
</g>
<!-- Node1&#45;&gt;Node8 -->
<g id="edge7" class="edge">
<title>Node1&#45;&gt;Node8</title>
<path fill="none" stroke="midnightblue" d="M347.5,-53.49C321.6,-42.55 285.94,-27.5 264.1,-18.27"/>
<polygon fill="midnightblue" stroke="midnightblue" points="346.33,-56.79 356.9,-57.46 349.05,-50.35 346.33,-56.79"/>
</g>
<!-- Node3 -->
<g id="node3" class="node">
<title>Node3</title>
<g id="a_node3"><a xlink:href="../../db/d9c/classpa_1_1PANOCSolver.html#a046eb909dc292ea710c9e93ff49d66ab" target="_top" xlink:title=" ">
<polygon fill="white" stroke="black" points="5,-190.5 5,-209.5 159,-209.5 159,-190.5 5,-190.5"/>
<text text-anchor="middle" x="82" y="-197.5" font-family="Helvetica,sans-Serif" font-size="10.00">pa::PANOCSolver::operator()</text>
</a>
</g>
</g>
<!-- Node2&#45;&gt;Node3 -->
<g id="edge2" class="edge">
<title>Node2&#45;&gt;Node3</title>
<path fill="none" stroke="midnightblue" d="M224.63,-140.21C209.51,-153.08 186.74,-170.59 164,-181 155.59,-184.85 146.33,-187.96 137.16,-190.46"/>
<polygon fill="midnightblue" stroke="midnightblue" points="226.96,-142.82 232.19,-133.61 222.35,-137.55 226.96,-142.82"/>
</g>
<!-- Node4 -->
<g id="node4" class="node">
<title>Node4</title>
<g id="a_node4"><a xlink:href="../../d4/db1/classpa_1_1LBFGSSolver.html#a0502175e94da732139ba833c02a80ff5" target="_top" xlink:title=" ">
<polygon fill="white" stroke="black" points="6,-152.5 6,-171.5 158,-171.5 158,-152.5 6,-152.5"/>
<text text-anchor="middle" x="82" y="-159.5" font-family="Helvetica,sans-Serif" font-size="10.00">pa::LBFGSSolver::operator()</text>
</a>
</g>
</g>
<!-- Node2&#45;&gt;Node4 -->
<g id="edge3" class="edge">
<title>Node2&#45;&gt;Node4</title>
<path fill="none" stroke="midnightblue" d="M193.42,-135.94C183.68,-138.29 173.52,-140.73 164,-143 150.93,-146.11 136.67,-149.47 123.8,-152.49"/>
<polygon fill="midnightblue" stroke="midnightblue" points="194.49,-139.28 203.38,-133.53 192.84,-132.48 194.49,-139.28"/>
</g>
<!-- Node5 -->
<g id="node5" class="node">
<title>Node5</title>
<g id="a_node5"><a xlink:href="../../dc/d82/classpa_1_1LBFGSBSolver.html#a0502175e94da732139ba833c02a80ff5" target="_top" xlink:title=" ">
<polygon fill="white" stroke="black" points="3,-114.5 3,-133.5 161,-133.5 161,-114.5 3,-114.5"/>
<text text-anchor="middle" x="82" y="-121.5" font-family="Helvetica,sans-Serif" font-size="10.00">pa::LBFGSBSolver::operator()</text>
</a>
</g>
</g>
<!-- Node2&#45;&gt;Node5 -->
<g id="edge4" class="edge">
<title>Node2&#45;&gt;Node5</title>
<path fill="none" stroke="midnightblue" d="M189.71,-124C180.57,-124 170.91,-124 161.27,-124"/>
<polygon fill="midnightblue" stroke="midnightblue" points="189.76,-127.5 199.76,-124 189.76,-120.5 189.76,-127.5"/>
</g>
<!-- Node2&#45;&gt;Node6 -->
<g id="edge5" class="edge">
<title>Node2&#45;&gt;Node6</title>
<path fill="none" stroke="midnightblue" d="M193.42,-112.06C183.68,-109.71 173.52,-107.27 164,-105 150.93,-101.89 136.67,-98.53 123.8,-95.51"/>
<polygon fill="midnightblue" stroke="midnightblue" points="192.84,-115.52 203.38,-114.47 194.49,-108.72 192.84,-115.52"/>
</g>
<!-- Node2&#45;&gt;Node7 -->
<g id="edge6" class="edge">
<title>Node2&#45;&gt;Node7</title>
<path fill="none" stroke="midnightblue" d="M224.63,-107.79C209.51,-94.92 186.74,-77.41 164,-67 155.59,-63.15 146.33,-60.04 137.16,-57.54"/>
<polygon fill="midnightblue" stroke="midnightblue" points="222.35,-110.45 232.19,-114.39 226.96,-105.18 222.35,-110.45"/>
</g>
</g>
</svg>
