<?xml version="1.0" encoding="UTF-8" standalone="no"?>
<!DOCTYPE svg PUBLIC "-//W3C//DTD SVG 1.1//EN"
 "http://www.w3.org/Graphics/SVG/1.1/DTD/svg11.dtd">
<!-- Generated by graphviz version 2.43.0 (0)
 -->
<!-- Title: calc_ψ_ŷ Pages: 1 -->
<svg width="390pt" height="253pt"
 viewBox="0.00 0.00 390.00 253.00" xmlns="http://www.w3.org/2000/svg" xmlns:xlink="http://www.w3.org/1999/xlink">
<g id="graph0" class="graph" transform="scale(1 1) rotate(0) translate(4 249)">
<title>calc_ψ_ŷ</title>
<polygon fill="white" stroke="transparent" points="-4,4 -4,-249 386,-249 386,4 -4,4"/>
<!-- Node1 -->
<g id="node1" class="node">
<title>Node1</title>
<g id="a_node1"><a xlink:title="Calculate both ψ(x) and the vector ŷ that can later be used to compute ∇ψ.">
<polygon fill="#bfbfbf" stroke="black" points="323,-114.5 323,-133.5 382,-133.5 382,-114.5 323,-114.5"/>
<text text-anchor="middle" x="352.5" y="-121.5" font-family="Helvetica,sans-Serif" font-size="10.00">calc_ψ_ŷ</text>
</a>
</g>
</g>
<!-- Node2 -->
<g id="node2" class="node">
<title>Node2</title>
<g id="a_node2"><a xlink:href="../../d0/d51/namespacepa_1_1detail.html#a04141b21eae7f6171a7cd031d7305ed8" target="_top" xlink:title="Calculate both ψ(x) and its gradient ∇ψ(x).">
<polygon fill="white" stroke="black" points="200,-114.5 200,-133.5 287,-133.5 287,-114.5 200,-114.5"/>
<text text-anchor="middle" x="243.5" y="-121.5" font-family="Helvetica,sans-Serif" font-size="10.00">calc_ψ_grad_ψ</text>
</a>
</g>
</g>
<!-- Node1&#45;&gt;Node2 -->
<g id="edge1" class="edge">
<title>Node1&#45;&gt;Node2</title>
<path fill="none" stroke="midnightblue" d="M312.72,-124C304.48,-124 295.73,-124 287.35,-124"/>
<polygon fill="midnightblue" stroke="midnightblue" points="312.83,-127.5 322.83,-124 312.83,-120.5 312.83,-127.5"/>
</g>
<!-- Node3 -->
<g id="node3" class="node">
<title>Node3</title>
<g id="a_node3"><a xlink:href="../../db/d9c/classpa_1_1PANOCSolver.html#a046eb909dc292ea710c9e93ff49d66ab" target="_top" xlink:title=" ">
<polygon fill="white" stroke="black" points="5,-225.5 5,-244.5 159,-244.5 159,-225.5 5,-225.5"/>
<text text-anchor="middle" x="82" y="-232.5" font-family="Helvetica,sans-Serif" font-size="10.00">pa::PANOCSolver::operator()</text>
</a>
</g>
</g>
<!-- Node1&#45;&gt;Node3 -->
<g id="edge8" class="edge">
<title>Node1&#45;&gt;Node3</title>
<path fill="none" stroke="midnightblue" d="M337.3,-141.75C325.31,-155.55 306.95,-174.13 287,-185 247.62,-206.46 198.98,-218.84 159.08,-225.91"/>
<polygon fill="midnightblue" stroke="midnightblue" points="340.15,-143.79 343.89,-133.88 334.79,-139.3 340.15,-143.79"/>
</g>
<!-- Node4 -->
<g id="node4" class="node">
<title>Node4</title>
<g id="a_node4"><a xlink:href="../../d4/db1/classpa_1_1LBFGSSolver.html#a0502175e94da732139ba833c02a80ff5" target="_top" xlink:title=" ">
<polygon fill="white" stroke="black" points="6,-185.5 6,-204.5 158,-204.5 158,-185.5 6,-185.5"/>
<text text-anchor="middle" x="82" y="-192.5" font-family="Helvetica,sans-Serif" font-size="10.00">pa::LBFGSSolver::operator()</text>
</a>
</g>
</g>
<!-- Node1&#45;&gt;Node4 -->
<g id="edge9" class="edge">
<title>Node1&#45;&gt;Node4</title>
<path fill="none" stroke="midnightblue" d="M329.39,-139.31C317.36,-146.95 301.92,-155.67 287,-161 245.75,-175.73 197.48,-184.14 158.26,-188.91"/>
<polygon fill="midnightblue" stroke="midnightblue" points="331.42,-142.17 337.86,-133.76 327.58,-136.31 331.42,-142.17"/>
</g>
<!-- Node5 -->
<g id="node5" class="node">
<title>Node5</title>
<g id="a_node5"><a xlink:href="../../dc/d82/classpa_1_1LBFGSBSolver.html#a0502175e94da732139ba833c02a80ff5" target="_top" xlink:title=" ">
<polygon fill="white" stroke="black" points="3,-142.5 3,-161.5 161,-161.5 161,-142.5 3,-142.5"/>
<text text-anchor="middle" x="82" y="-149.5" font-family="Helvetica,sans-Serif" font-size="10.00">pa::LBFGSBSolver::operator()</text>
</a>
</g>
</g>
<!-- Node1&#45;&gt;Node5 -->
<g id="edge10" class="edge">
<title>Node1&#45;&gt;Node5</title>
<path fill="none" stroke="midnightblue" d="M314.75,-136.49C305.77,-139.08 296.12,-141.48 287,-143 245.91,-149.85 199.57,-152.31 161.44,-152.97"/>
<polygon fill="midnightblue" stroke="midnightblue" points="315.98,-139.78 324.54,-133.53 313.95,-133.08 315.98,-139.78"/>
</g>
<!-- Node6 -->
<g id="node6" class="node">
<title>Node6</title>
<g id="a_node6"><a xlink:href="../../d8/d33/classpa_1_1GuardedAAPGA.html#a656a1117248ac02387eb817ee135df0e" target="_top" xlink:title=" ">
<polygon fill="white" stroke="black" points="0,-95.5 0,-114.5 164,-114.5 164,-95.5 0,-95.5"/>
<text text-anchor="middle" x="82" y="-102.5" font-family="Helvetica,sans-Serif" font-size="10.00">pa::GuardedAAPGA::operator()</text>
</a>
</g>
</g>
<!-- Node1&#45;&gt;Node6 -->
<g id="edge11" class="edge">
<title>Node1&#45;&gt;Node6</title>
<path fill="none" stroke="midnightblue" d="M315.83,-111.52C306.56,-108.82 296.5,-106.37 287,-105 246.86,-99.21 201.82,-98.6 164.29,-99.69"/>
<polygon fill="midnightblue" stroke="midnightblue" points="314.93,-114.9 325.52,-114.5 316.99,-108.21 314.93,-114.9"/>
</g>
<!-- Node7 -->
<g id="node7" class="node">
<title>Node7</title>
<g id="a_node7"><a xlink:href="../../d1/d91/classpa_1_1PGA.html#a2524c14cb1e9f67d7b3694ab5dbb24e4" target="_top" xlink:title=" ">
<polygon fill="white" stroke="black" points="27,-57.5 27,-76.5 137,-76.5 137,-57.5 27,-57.5"/>
<text text-anchor="middle" x="82" y="-64.5" font-family="Helvetica,sans-Serif" font-size="10.00">pa::PGA::operator()</text>
</a>
</g>
</g>
<!-- Node1&#45;&gt;Node7 -->
<g id="edge12" class="edge">
<title>Node1&#45;&gt;Node7</title>
<path fill="none" stroke="midnightblue" d="M324.96,-110C313.56,-104.54 299.91,-98.7 287,-95 237.35,-80.75 178.75,-73.67 137.13,-70.2"/>
<polygon fill="midnightblue" stroke="midnightblue" points="323.43,-113.15 333.95,-114.45 326.54,-106.88 323.43,-113.15"/>
</g>
<!-- Node8 -->
<g id="node8" class="node">
<title>Node8</title>
<g id="a_node8"><a xlink:href="../../d3/dba/secondorderpanoc_8cpp.html#ae66f6b31b5ad750f1fe042a706a4e3d4" target="_top" xlink:title=" ">
<polygon fill="white" stroke="black" points="223,-0.5 223,-19.5 264,-19.5 264,-0.5 223,-0.5"/>
<text text-anchor="middle" x="243.5" y="-7.5" font-family="Helvetica,sans-Serif" font-size="10.00">main</text>
</a>
</g>
</g>
<!-- Node1&#45;&gt;Node8 -->
<g id="edge7" class="edge">
<title>Node1&#45;&gt;Node8</title>
<path fill="none" stroke="midnightblue" d="M341.46,-105.43C330.19,-85.84 310.37,-54.98 287,-34 280.32,-28 271.88,-22.85 264.29,-18.88"/>
<polygon fill="midnightblue" stroke="midnightblue" points="338.48,-107.27 346.42,-114.28 344.59,-103.85 338.48,-107.27"/>
</g>
<!-- Node2&#45;&gt;Node3 -->
<g id="edge2" class="edge">
<title>Node2&#45;&gt;Node3</title>
<path fill="none" stroke="midnightblue" d="M231.43,-142.29C218.02,-162.86 193.54,-195.74 164,-214 156.21,-218.81 147.36,-222.53 138.42,-225.39"/>
<polygon fill="midnightblue" stroke="midnightblue" points="234.56,-143.88 236.94,-133.56 228.64,-140.15 234.56,-143.88"/>
</g>
<!-- Node2&#45;&gt;Node4 -->
<g id="edge3" class="edge">
<title>Node2&#45;&gt;Node4</title>
<path fill="none" stroke="midnightblue" d="M220.18,-139.43C204.9,-149.47 183.87,-162.27 164,-171 150.84,-176.78 135.88,-181.65 122.44,-185.46"/>
<polygon fill="midnightblue" stroke="midnightblue" points="222.53,-142.07 228.89,-133.6 218.63,-136.25 222.53,-142.07"/>
</g>
<!-- Node2&#45;&gt;Node5 -->
<g id="edge4" class="edge">
<title>Node2&#45;&gt;Node5</title>
<path fill="none" stroke="midnightblue" d="M189.57,-133.29C172.78,-136.24 154.19,-139.5 137.31,-142.47"/>
<polygon fill="midnightblue" stroke="midnightblue" points="190.51,-136.68 199.76,-131.5 189.3,-129.79 190.51,-136.68"/>
</g>
<!-- Node2&#45;&gt;Node6 -->
<g id="edge5" class="edge">
<title>Node2&#45;&gt;Node6</title>
<path fill="none" stroke="midnightblue" d="M189.82,-117.72C181.14,-116.69 171.98,-115.6 162.82,-114.51"/>
<polygon fill="midnightblue" stroke="midnightblue" points="189.41,-121.2 199.76,-118.91 190.24,-114.25 189.41,-121.2"/>
</g>
<!-- Node2&#45;&gt;Node7 -->
<g id="edge6" class="edge">
<title>Node2&#45;&gt;Node7</title>
<path fill="none" stroke="midnightblue" d="M216.36,-109.55C201.38,-101.73 182.03,-92.39 164,-86 153.65,-82.33 142.31,-79.17 131.48,-76.53"/>
<polygon fill="midnightblue" stroke="midnightblue" points="215.04,-112.81 225.51,-114.42 218.33,-106.63 215.04,-112.81"/>
</g>
</g>
</svg>
