<?xml version="1.0" encoding="UTF-8" standalone="no"?>
<!DOCTYPE svg PUBLIC "-//W3C//DTD SVG 1.1//EN"
 "http://www.w3.org/Graphics/SVG/1.1/DTD/svg11.dtd">
<!-- Generated by graphviz version 2.43.0 (0)
 -->
<!-- Title: changed_γ Pages: 1 -->
<svg width="499pt" height="142pt"
 viewBox="0.00 0.00 499.00 142.00" xmlns="http://www.w3.org/2000/svg" xmlns:xlink="http://www.w3.org/1999/xlink">
<g id="graph0" class="graph" transform="scale(1 1) rotate(0) translate(4 138)">
<title>changed_γ</title>
<polygon fill="white" stroke="transparent" points="-4,4 -4,-138 495,-138 495,4 -4,4"/>
<!-- Node1 -->
<g id="node1" class="node">
<title>Node1</title>
<g id="a_node1"><a xlink:title=" ">
<polygon fill="#bfbfbf" stroke="black" points="0,-76.5 0,-95.5 69,-95.5 69,-76.5 0,-76.5"/>
<text text-anchor="middle" x="34.5" y="-83.5" font-family="Helvetica,sans-Serif" font-size="10.00">changed_γ</text>
</a>
</g>
</g>
<!-- Node2 -->
<g id="node2" class="node">
<title>Node2</title>
<g id="a_node2"><a xlink:href="../../dc/df2/classpa_1_1LBFGS.html#a3151f2300119ecbabd5f813e6cc9ba71" target="_top" xlink:title=" ">
<polygon fill="white" stroke="black" points="105,-114.5 105,-133.5 235,-133.5 235,-114.5 105,-114.5"/>
<text text-anchor="middle" x="170" y="-121.5" font-family="Helvetica,sans-Serif" font-size="10.00">pa::LBFGS::get_params</text>
</a>
</g>
</g>
<!-- Node1&#45;&gt;Node2 -->
<g id="edge1" class="edge">
<title>Node1&#45;&gt;Node2</title>
<path fill="none" stroke="midnightblue" d="M69.19,-95.59C86.26,-100.45 107.2,-106.41 125.48,-111.61"/>
<polygon fill="midnightblue" stroke="midnightblue" points="124.75,-115.04 135.32,-114.41 126.66,-108.31 124.75,-115.04"/>
</g>
<!-- Node3 -->
<g id="node3" class="node">
<title>Node3</title>
<g id="a_node3"><a xlink:href="../../dc/df2/classpa_1_1LBFGS.html#ad20897c5c8bd47f5d4005989bead0e55" target="_top" xlink:title="Throw away the approximation and all previous vectors s and y.">
<polygon fill="white" stroke="black" points="121.5,-76.5 121.5,-95.5 218.5,-95.5 218.5,-76.5 121.5,-76.5"/>
<text text-anchor="middle" x="170" y="-83.5" font-family="Helvetica,sans-Serif" font-size="10.00">pa::LBFGS::reset</text>
</a>
</g>
</g>
<!-- Node1&#45;&gt;Node3 -->
<g id="edge2" class="edge">
<title>Node1&#45;&gt;Node3</title>
<path fill="none" stroke="midnightblue" d="M69.19,-86C81.93,-86 96.82,-86 111.16,-86"/>
<polygon fill="midnightblue" stroke="midnightblue" points="111.46,-89.5 121.46,-86 111.46,-82.5 111.46,-89.5"/>
</g>
<!-- Node4 -->
<g id="node4" class="node">
<title>Node4</title>
<g id="a_node4"><a xlink:href="../../dc/df2/classpa_1_1LBFGS.html#adeddc1e1eb8ce1c1bbaf931b6f9a5b9c" target="_top" xlink:title="Scale the stored y vectors by the given factor.">
<polygon fill="white" stroke="black" points="115.5,-38.5 115.5,-57.5 224.5,-57.5 224.5,-38.5 115.5,-38.5"/>
<text text-anchor="middle" x="170" y="-45.5" font-family="Helvetica,sans-Serif" font-size="10.00">pa::LBFGS::scale_y</text>
</a>
</g>
</g>
<!-- Node1&#45;&gt;Node4 -->
<g id="edge3" class="edge">
<title>Node1&#45;&gt;Node4</title>
<path fill="none" stroke="midnightblue" d="M69.19,-76.41C86.26,-71.55 107.2,-65.59 125.48,-60.39"/>
<polygon fill="midnightblue" stroke="midnightblue" points="126.66,-63.69 135.32,-57.59 124.75,-56.96 126.66,-63.69"/>
</g>
<!-- Node5 -->
<g id="node5" class="node">
<title>Node5</title>
<g id="a_node5"><a xlink:href="../../dc/df2/classpa_1_1LBFGS.html#a5b5fd504f983f6b5f9beb1576ebf591a" target="_top" xlink:title="Get the number of previous vectors s and y stored in the buffer.">
<polygon fill="white" stroke="black" points="271,-76.5 271,-95.5 377,-95.5 377,-76.5 271,-76.5"/>
<text text-anchor="middle" x="324" y="-83.5" font-family="Helvetica,sans-Serif" font-size="10.00">pa::LBFGS::history</text>
</a>
</g>
</g>
<!-- Node4&#45;&gt;Node5 -->
<g id="edge4" class="edge">
<title>Node4&#45;&gt;Node5</title>
<path fill="none" stroke="midnightblue" d="M209.36,-57.59C229.32,-62.58 253.93,-68.73 275.13,-74.03"/>
<polygon fill="midnightblue" stroke="midnightblue" points="274.37,-77.45 284.92,-76.48 276.07,-70.66 274.37,-77.45"/>
</g>
<!-- Node6 -->
<g id="node6" class="node">
<title>Node6</title>
<g id="a_node6"><a xlink:href="../../dc/df2/classpa_1_1LBFGS.html#ac18c0672e61d25800877a42a1def3215" target="_top" xlink:title=" ">
<polygon fill="white" stroke="black" points="285,-38.5 285,-57.5 363,-57.5 363,-38.5 285,-38.5"/>
<text text-anchor="middle" x="324" y="-45.5" font-family="Helvetica,sans-Serif" font-size="10.00">pa::LBFGS::y</text>
</a>
</g>
</g>
<!-- Node4&#45;&gt;Node6 -->
<g id="edge5" class="edge">
<title>Node4&#45;&gt;Node6</title>
<path fill="none" stroke="midnightblue" d="M224.59,-48C240.86,-48 258.63,-48 274.54,-48"/>
<polygon fill="midnightblue" stroke="midnightblue" points="274.69,-51.5 284.69,-48 274.69,-44.5 274.69,-51.5"/>
</g>
<!-- Node8 -->
<g id="node8" class="node">
<title>Node8</title>
<g id="a_node8"><a xlink:href="../../dc/df2/classpa_1_1LBFGS.html#a630280b47996370bdb569a2799ffdb9f" target="_top" xlink:title=" ">
<polygon fill="white" stroke="black" points="285,-0.5 285,-19.5 363,-19.5 363,-0.5 285,-0.5"/>
<text text-anchor="middle" x="324" y="-7.5" font-family="Helvetica,sans-Serif" font-size="10.00">pa::LBFGS::ρ</text>
</a>
</g>
</g>
<!-- Node4&#45;&gt;Node8 -->
<g id="edge7" class="edge">
<title>Node4&#45;&gt;Node8</title>
<path fill="none" stroke="midnightblue" d="M209.36,-38.41C229.32,-33.42 253.93,-27.27 275.13,-21.97"/>
<polygon fill="midnightblue" stroke="midnightblue" points="276.07,-25.34 284.92,-19.52 274.37,-18.55 276.07,-25.34"/>
</g>
<!-- Node7 -->
<g id="node7" class="node">
<title>Node7</title>
<g id="a_node7"><a xlink:href="../../dc/df2/classpa_1_1LBFGS.html#ac88f0961aa7ed7c7415550ab2cad49c8" target="_top" xlink:title="Get the size of the s and y vectors in the buffer.">
<polygon fill="white" stroke="black" points="413,-19.5 413,-38.5 491,-38.5 491,-19.5 413,-19.5"/>
<text text-anchor="middle" x="452" y="-26.5" font-family="Helvetica,sans-Serif" font-size="10.00">pa::LBFGS::n</text>
</a>
</g>
</g>
<!-- Node6&#45;&gt;Node7 -->
<g id="edge6" class="edge">
<title>Node6&#45;&gt;Node7</title>
<path fill="none" stroke="midnightblue" d="M363.15,-42.25C375.61,-40.37 389.61,-38.26 402.71,-36.28"/>
<polygon fill="midnightblue" stroke="midnightblue" points="403.62,-39.68 412.98,-34.73 402.57,-32.76 403.62,-39.68"/>
</g>
<!-- Node8&#45;&gt;Node7 -->
<g id="edge8" class="edge">
<title>Node8&#45;&gt;Node7</title>
<path fill="none" stroke="midnightblue" d="M363.15,-15.75C375.61,-17.63 389.61,-19.74 402.71,-21.72"/>
<polygon fill="midnightblue" stroke="midnightblue" points="402.57,-25.24 412.98,-23.27 403.62,-18.32 402.57,-25.24"/>
</g>
</g>
</svg>
