<?xml version="1.0" encoding="UTF-8" standalone="no"?>
<!DOCTYPE svg PUBLIC "-//W3C//DTD SVG 1.1//EN"
 "http://www.w3.org/Graphics/SVG/1.1/DTD/svg11.dtd">
<!-- Generated by graphviz version 2.43.0 (0)
 -->
<!-- Title: apply Pages: 1 -->
<svg width="443pt" height="180pt"
 viewBox="0.00 0.00 443.00 180.00" xmlns="http://www.w3.org/2000/svg" xmlns:xlink="http://www.w3.org/1999/xlink">
<g id="graph0" class="graph" transform="scale(1 1) rotate(0) translate(4 176)">
<title>apply</title>
<polygon fill="white" stroke="transparent" points="-4,4 -4,-176 439,-176 439,4 -4,4"/>
<!-- Node1 -->
<g id="node1" class="node">
<title>Node1</title>
<g id="a_node1"><a xlink:title=" ">
<polygon fill="#bfbfbf" stroke="black" points="0,-76.5 0,-95.5 44,-95.5 44,-76.5 0,-76.5"/>
<text text-anchor="middle" x="22" y="-83.5" font-family="Helvetica,sans-Serif" font-size="10.00">apply</text>
</a>
</g>
</g>
<!-- Node2 -->
<g id="node2" class="node">
<title>Node2</title>
<g id="a_node2"><a xlink:href="../../dc/df2/classpa_1_1LBFGS.html#a37dd0ce624f9914a61118d8f02fa1c7f" target="_top" xlink:title="Apply the inverse Hessian approximation to the given vector q.">
<polygon fill="white" stroke="black" points="80,-76.5 80,-95.5 179,-95.5 179,-76.5 80,-76.5"/>
<text text-anchor="middle" x="129.5" y="-83.5" font-family="Helvetica,sans-Serif" font-size="10.00">pa::LBFGS::apply</text>
</a>
</g>
</g>
<!-- Node1&#45;&gt;Node2 -->
<g id="edge1" class="edge">
<title>Node1&#45;&gt;Node2</title>
<path fill="none" stroke="midnightblue" d="M44.1,-86C51.69,-86 60.68,-86 69.9,-86"/>
<polygon fill="midnightblue" stroke="midnightblue" points="69.95,-89.5 79.95,-86 69.95,-82.5 69.95,-89.5"/>
</g>
<!-- Node3 -->
<g id="node3" class="node">
<title>Node3</title>
<g id="a_node3"><a xlink:href="../../dc/df2/classpa_1_1LBFGS.html#a5b5fd504f983f6b5f9beb1576ebf591a" target="_top" xlink:title="Get the number of previous vectors s and y stored in the buffer.">
<polygon fill="white" stroke="black" points="215,-152.5 215,-171.5 321,-171.5 321,-152.5 215,-152.5"/>
<text text-anchor="middle" x="268" y="-159.5" font-family="Helvetica,sans-Serif" font-size="10.00">pa::LBFGS::history</text>
</a>
</g>
</g>
<!-- Node2&#45;&gt;Node3 -->
<g id="edge2" class="edge">
<title>Node2&#45;&gt;Node3</title>
<path fill="none" stroke="midnightblue" d="M142.79,-95.7C158.73,-107.95 187.73,-129.08 215,-143 219.01,-145.05 223.29,-146.98 227.61,-148.77"/>
<polygon fill="midnightblue" stroke="midnightblue" points="226.46,-152.08 237.04,-152.46 229.01,-145.56 226.46,-152.08"/>
</g>
<!-- Node4 -->
<g id="node4" class="node">
<title>Node4</title>
<g id="a_node4"><a xlink:href="../../dc/df2/classpa_1_1LBFGS.html#a644d66009a70ccc909120ba9afa45ea5" target="_top" xlink:title=" ">
<polygon fill="white" stroke="black" points="229.5,-114.5 229.5,-133.5 306.5,-133.5 306.5,-114.5 229.5,-114.5"/>
<text text-anchor="middle" x="268" y="-121.5" font-family="Helvetica,sans-Serif" font-size="10.00">pa::LBFGS::s</text>
</a>
</g>
</g>
<!-- Node2&#45;&gt;Node4 -->
<g id="edge3" class="edge">
<title>Node2&#45;&gt;Node4</title>
<path fill="none" stroke="midnightblue" d="M164.94,-95.59C182.48,-100.47 204.01,-106.46 222.76,-111.68"/>
<polygon fill="midnightblue" stroke="midnightblue" points="221.99,-115.1 232.57,-114.41 223.87,-108.36 221.99,-115.1"/>
</g>
<!-- Node6 -->
<g id="node6" class="node">
<title>Node6</title>
<g id="a_node6"><a xlink:href="../../dc/df2/classpa_1_1LBFGS.html#ac18c0672e61d25800877a42a1def3215" target="_top" xlink:title=" ">
<polygon fill="white" stroke="black" points="229,-76.5 229,-95.5 307,-95.5 307,-76.5 229,-76.5"/>
<text text-anchor="middle" x="268" y="-83.5" font-family="Helvetica,sans-Serif" font-size="10.00">pa::LBFGS::y</text>
</a>
</g>
</g>
<!-- Node2&#45;&gt;Node6 -->
<g id="edge5" class="edge">
<title>Node2&#45;&gt;Node6</title>
<path fill="none" stroke="midnightblue" d="M179.01,-86C191.95,-86 205.92,-86 218.84,-86"/>
<polygon fill="midnightblue" stroke="midnightblue" points="218.94,-89.5 228.94,-86 218.94,-82.5 218.94,-89.5"/>
</g>
<!-- Node7 -->
<g id="node7" class="node">
<title>Node7</title>
<g id="a_node7"><a xlink:href="../../dc/df2/classpa_1_1LBFGS.html#a66eb6e38840a556b4c0f0bff0901f80c" target="_top" xlink:title=" ">
<polygon fill="white" stroke="black" points="228.5,-38.5 228.5,-57.5 307.5,-57.5 307.5,-38.5 228.5,-38.5"/>
<text text-anchor="middle" x="268" y="-45.5" font-family="Helvetica,sans-Serif" font-size="10.00">pa::LBFGS::α</text>
</a>
</g>
</g>
<!-- Node2&#45;&gt;Node7 -->
<g id="edge7" class="edge">
<title>Node2&#45;&gt;Node7</title>
<path fill="none" stroke="midnightblue" d="M164.94,-76.41C182.48,-71.53 204.01,-65.54 222.76,-60.32"/>
<polygon fill="midnightblue" stroke="midnightblue" points="223.87,-63.64 232.57,-57.59 221.99,-56.9 223.87,-63.64"/>
</g>
<!-- Node8 -->
<g id="node8" class="node">
<title>Node8</title>
<g id="a_node8"><a xlink:href="../../dc/df2/classpa_1_1LBFGS.html#a630280b47996370bdb569a2799ffdb9f" target="_top" xlink:title=" ">
<polygon fill="white" stroke="black" points="229,-0.5 229,-19.5 307,-19.5 307,-0.5 229,-0.5"/>
<text text-anchor="middle" x="268" y="-7.5" font-family="Helvetica,sans-Serif" font-size="10.00">pa::LBFGS::ρ</text>
</a>
</g>
</g>
<!-- Node2&#45;&gt;Node8 -->
<g id="edge9" class="edge">
<title>Node2&#45;&gt;Node8</title>
<path fill="none" stroke="midnightblue" d="M142.79,-76.3C158.73,-64.05 187.73,-42.92 215,-29 219.01,-26.95 223.29,-25.02 227.61,-23.23"/>
<polygon fill="midnightblue" stroke="midnightblue" points="229.01,-26.44 237.04,-19.54 226.46,-19.92 229.01,-26.44"/>
</g>
<!-- Node5 -->
<g id="node5" class="node">
<title>Node5</title>
<g id="a_node5"><a xlink:href="../../dc/df2/classpa_1_1LBFGS.html#ac88f0961aa7ed7c7415550ab2cad49c8" target="_top" xlink:title="Get the size of the s and y vectors in the buffer.">
<polygon fill="white" stroke="black" points="357,-57.5 357,-76.5 435,-76.5 435,-57.5 357,-57.5"/>
<text text-anchor="middle" x="396" y="-64.5" font-family="Helvetica,sans-Serif" font-size="10.00">pa::LBFGS::n</text>
</a>
</g>
</g>
<!-- Node4&#45;&gt;Node5 -->
<g id="edge4" class="edge">
<title>Node4&#45;&gt;Node5</title>
<path fill="none" stroke="midnightblue" d="M297.05,-114.47C304.88,-111.62 313.34,-108.35 321,-105 337.23,-97.9 354.9,-88.88 368.9,-81.41"/>
<polygon fill="midnightblue" stroke="midnightblue" points="370.81,-84.35 377.95,-76.52 367.49,-78.19 370.81,-84.35"/>
</g>
<!-- Node6&#45;&gt;Node5 -->
<g id="edge6" class="edge">
<title>Node6&#45;&gt;Node5</title>
<path fill="none" stroke="midnightblue" d="M307.15,-80.25C319.61,-78.37 333.61,-76.26 346.71,-74.28"/>
<polygon fill="midnightblue" stroke="midnightblue" points="347.62,-77.68 356.98,-72.73 346.57,-70.76 347.62,-77.68"/>
</g>
<!-- Node7&#45;&gt;Node5 -->
<g id="edge8" class="edge">
<title>Node7&#45;&gt;Node5</title>
<path fill="none" stroke="midnightblue" d="M307.83,-53.86C320.16,-55.71 333.93,-57.79 346.83,-59.74"/>
<polygon fill="midnightblue" stroke="midnightblue" points="346.53,-63.23 356.94,-61.26 347.58,-56.31 346.53,-63.23"/>
</g>
<!-- Node8&#45;&gt;Node5 -->
<g id="edge10" class="edge">
<title>Node8&#45;&gt;Node5</title>
<path fill="none" stroke="midnightblue" d="M297.05,-19.53C304.88,-22.38 313.34,-25.65 321,-29 337.23,-36.1 354.9,-45.12 368.9,-52.59"/>
<polygon fill="midnightblue" stroke="midnightblue" points="367.49,-55.81 377.95,-57.48 370.81,-49.65 367.49,-55.81"/>
</g>
</g>
</svg>
