<?xml version="1.0" encoding="UTF-8" standalone="no"?>
<!DOCTYPE svg PUBLIC "-//W3C//DTD SVG 1.1//EN"
 "http://www.w3.org/Graphics/SVG/1.1/DTD/svg11.dtd">
<!-- Generated by graphviz version 2.43.0 (0)
 -->
<!-- Title: alm.cpp Pages: 1 -->
<svg width="1877pt" height="464pt"
 viewBox="0.00 0.00 1877.15 464.00" xmlns="http://www.w3.org/2000/svg" xmlns:xlink="http://www.w3.org/1999/xlink">
<g id="graph0" class="graph" transform="scale(1 1) rotate(0) translate(4 460)">
<title>alm.cpp</title>
<polygon fill="white" stroke="transparent" points="-4,4 -4,-460 1873.15,-460 1873.15,4 -4,4"/>
<!-- Node1 -->
<g id="node1" class="node">
<title>Node1</title>
<g id="a_node1"><a xlink:title=" ">
<polygon fill="#bfbfbf" stroke="black" points="858.5,-436.5 858.5,-455.5 914.5,-455.5 914.5,-436.5 858.5,-436.5"/>
<text text-anchor="middle" x="886.5" y="-443.5" font-family="Helvetica,sans-Serif" font-size="10.00">alm.cpp</text>
</a>
</g>
</g>
<!-- Node2 -->
<g id="node2" class="node">
<title>Node2</title>
<g id="a_node2"><a xlink:href="alm_8hpp.html" target="_top" xlink:title=" ">
<polygon fill="white" stroke="black" points="1475,-380.5 1475,-399.5 1586,-399.5 1586,-380.5 1475,-380.5"/>
<text text-anchor="middle" x="1530.5" y="-387.5" font-family="Helvetica,sans-Serif" font-size="10.00">panoc&#45;alm/alm.hpp</text>
</a>
</g>
</g>
<!-- Node1&#45;&gt;Node2 -->
<g id="edge1" class="edge">
<title>Node1&#45;&gt;Node2</title>
<path fill="none" stroke="midnightblue" d="M914.59,-442.64C1010.48,-434.6 1326.61,-408.1 1464.84,-396.51"/>
<polygon fill="midnightblue" stroke="midnightblue" points="1465.2,-399.99 1474.87,-395.66 1464.61,-393.01 1465.2,-399.99"/>
</g>
<!-- Node22 -->
<g id="node22" class="node">
<title>Node22</title>
<g id="a_node22"><a xlink:href="lbfgs_8hpp.html" target="_top" xlink:title=" ">
<polygon fill="white" stroke="black" points="100,-313.5 100,-343.5 247,-343.5 247,-313.5 100,-313.5"/>
<text text-anchor="start" x="108" y="-331.5" font-family="Helvetica,sans-Serif" font-size="10.00">panoc&#45;alm/inner/directions</text>
<text text-anchor="middle" x="173.5" y="-320.5" font-family="Helvetica,sans-Serif" font-size="10.00">/lbfgs.hpp</text>
</a>
</g>
</g>
<!-- Node1&#45;&gt;Node22 -->
<g id="edge23" class="edge">
<title>Node1&#45;&gt;Node22</title>
<path fill="none" stroke="midnightblue" d="M858.11,-440.4C757.75,-424.14 417.17,-368.97 257.46,-343.1"/>
<polygon fill="midnightblue" stroke="midnightblue" points="257.64,-339.58 247.21,-341.44 256.52,-346.49 257.64,-339.58"/>
</g>
<!-- Node25 -->
<g id="node25" class="node">
<title>Node25</title>
<g id="a_node25"><a xlink:href="inner_2panoc_8hpp.html" target="_top" xlink:title=" ">
<polygon fill="white" stroke="black" points="812,-319 812,-338 961,-338 961,-319 812,-319"/>
<text text-anchor="middle" x="886.5" y="-326" font-family="Helvetica,sans-Serif" font-size="10.00">panoc&#45;alm/inner/panoc.hpp</text>
</a>
</g>
</g>
<!-- Node1&#45;&gt;Node25 -->
<g id="edge32" class="edge">
<title>Node1&#45;&gt;Node25</title>
<path fill="none" stroke="midnightblue" d="M886.5,-436.32C886.5,-417.76 886.5,-373.84 886.5,-348.47"/>
<polygon fill="midnightblue" stroke="midnightblue" points="890,-348.28 886.5,-338.28 883,-348.28 890,-348.28"/>
</g>
<!-- Node3 -->
<g id="node3" class="node">
<title>Node3</title>
<g id="a_node3"><a xlink:href="alm-helpers_8hpp.html" target="_top" xlink:title=" ">
<polygon fill="white" stroke="black" points="1381,-313.5 1381,-343.5 1502,-343.5 1502,-313.5 1381,-313.5"/>
<text text-anchor="start" x="1389" y="-331.5" font-family="Helvetica,sans-Serif" font-size="10.00">panoc&#45;alm/detail/alm</text>
<text text-anchor="middle" x="1441.5" y="-320.5" font-family="Helvetica,sans-Serif" font-size="10.00">&#45;helpers.hpp</text>
</a>
</g>
</g>
<!-- Node2&#45;&gt;Node3 -->
<g id="edge2" class="edge">
<title>Node2&#45;&gt;Node3</title>
<path fill="none" stroke="midnightblue" d="M1517.75,-380.48C1505.58,-372.34 1486.81,-359.79 1470.94,-349.18"/>
<polygon fill="midnightblue" stroke="midnightblue" points="1472.73,-346.17 1462.48,-343.52 1468.84,-351.99 1472.73,-346.17"/>
</g>
<!-- Node16 -->
<g id="node16" class="node">
<title>Node16</title>
<g id="a_node16"><a xlink:href="solverstatus_8hpp.html" target="_top" xlink:title=" ">
<polygon fill="white" stroke="black" points="1682,-185 1682,-204 1853,-204 1853,-185 1682,-185"/>
<text text-anchor="middle" x="1767.5" y="-192" font-family="Helvetica,sans-Serif" font-size="10.00">panoc&#45;alm/util/solverstatus.hpp</text>
</a>
</g>
</g>
<!-- Node2&#45;&gt;Node16 -->
<g id="edge20" class="edge">
<title>Node2&#45;&gt;Node16</title>
<path fill="none" stroke="midnightblue" d="M1568.81,-380.4C1618.49,-367.14 1704.04,-336.73 1748.5,-277 1762.16,-258.64 1766.21,-232.03 1767.29,-214.26"/>
<polygon fill="midnightblue" stroke="midnightblue" points="1770.8,-214.16 1767.65,-204.04 1763.8,-213.91 1770.8,-214.16"/>
</g>
<!-- Node20 -->
<g id="node20" class="node">
<title>Node20</title>
<g id="a_node20"><a xlink:title=" ">
<polygon fill="white" stroke="#bfbfbf" points="1683.5,-252 1683.5,-271 1739.5,-271 1739.5,-252 1683.5,-252"/>
<text text-anchor="middle" x="1711.5" y="-259" font-family="Helvetica,sans-Serif" font-size="10.00">iomanip</text>
</a>
</g>
</g>
<!-- Node2&#45;&gt;Node20 -->
<g id="edge21" class="edge">
<title>Node2&#45;&gt;Node20</title>
<path fill="none" stroke="midnightblue" d="M1542.94,-380.31C1573.55,-358.91 1652.79,-303.53 1690.7,-277.04"/>
<polygon fill="midnightblue" stroke="midnightblue" points="1692.78,-279.85 1698.97,-271.26 1688.77,-274.12 1692.78,-279.85"/>
</g>
<!-- Node21 -->
<g id="node21" class="node">
<title>Node21</title>
<g id="a_node21"><a xlink:title=" ">
<polygon fill="white" stroke="#bfbfbf" points="1453.5,-252 1453.5,-271 1513.5,-271 1513.5,-252 1453.5,-252"/>
<text text-anchor="middle" x="1483.5" y="-259" font-family="Helvetica,sans-Serif" font-size="10.00">iostream</text>
</a>
</g>
</g>
<!-- Node2&#45;&gt;Node21 -->
<g id="edge22" class="edge">
<title>Node2&#45;&gt;Node21</title>
<path fill="none" stroke="midnightblue" d="M1528.91,-380.36C1526.13,-366.04 1519.78,-336.62 1510.5,-313 1506.02,-301.6 1499.6,-289.48 1494.14,-279.96"/>
<polygon fill="midnightblue" stroke="midnightblue" points="1497.03,-277.97 1488.93,-271.14 1491,-281.53 1497.03,-277.97"/>
</g>
<!-- Node4 -->
<g id="node4" class="node">
<title>Node4</title>
<g id="a_node4"><a xlink:href="decl_2alm_8hpp.html" target="_top" xlink:title=" ">
<polygon fill="white" stroke="black" points="1531.5,-252 1531.5,-271 1665.5,-271 1665.5,-252 1531.5,-252"/>
<text text-anchor="middle" x="1598.5" y="-259" font-family="Helvetica,sans-Serif" font-size="10.00">panoc&#45;alm/decl/alm.hpp</text>
</a>
</g>
</g>
<!-- Node3&#45;&gt;Node4 -->
<g id="edge3" class="edge">
<title>Node3&#45;&gt;Node4</title>
<path fill="none" stroke="midnightblue" d="M1475.57,-313.4C1503.24,-301.94 1541.89,-285.94 1568.42,-274.95"/>
<polygon fill="midnightblue" stroke="midnightblue" points="1570.05,-278.07 1577.95,-271.01 1567.37,-271.6 1570.05,-278.07"/>
</g>
<!-- Node19 -->
<g id="node19" class="node">
<title>Node19</title>
<g id="a_node19"><a xlink:title=" ">
<polygon fill="white" stroke="#bfbfbf" points="449,-118 449,-137 514,-137 514,-118 449,-118"/>
<text text-anchor="middle" x="481.5" y="-125" font-family="Helvetica,sans-Serif" font-size="10.00">stdexcept</text>
</a>
</g>
</g>
<!-- Node3&#45;&gt;Node19 -->
<g id="edge19" class="edge">
<title>Node3&#45;&gt;Node19</title>
<path fill="none" stroke="midnightblue" d="M1380.78,-327.2C1258.99,-325.69 976.59,-317.68 743.5,-277 634.83,-258.04 582.57,-287.94 504.5,-210 487.87,-193.4 483.04,-165.76 481.76,-147.34"/>
<polygon fill="midnightblue" stroke="midnightblue" points="485.25,-147.08 481.34,-137.24 478.26,-147.37 485.25,-147.08"/>
</g>
<!-- Node5 -->
<g id="node5" class="node">
<title>Node5</title>
<g id="a_node5"><a xlink:href="panoc-fwd_8hpp.html" target="_top" xlink:title=" ">
<polygon fill="white" stroke="black" points="1406,-179.5 1406,-209.5 1525,-209.5 1525,-179.5 1406,-179.5"/>
<text text-anchor="start" x="1414" y="-197.5" font-family="Helvetica,sans-Serif" font-size="10.00">panoc&#45;alm/inner/decl</text>
<text text-anchor="middle" x="1465.5" y="-186.5" font-family="Helvetica,sans-Serif" font-size="10.00">/panoc&#45;fwd.hpp</text>
</a>
</g>
</g>
<!-- Node4&#45;&gt;Node5 -->
<g id="edge4" class="edge">
<title>Node4&#45;&gt;Node5</title>
<path fill="none" stroke="midnightblue" d="M1580.84,-251.87C1561.14,-242.24 1528.7,-226.39 1503.23,-213.94"/>
<polygon fill="midnightblue" stroke="midnightblue" points="1504.72,-210.77 1494.2,-209.53 1501.65,-217.06 1504.72,-210.77"/>
</g>
<!-- Node7 -->
<g id="node7" class="node">
<title>Node7</title>
<g id="a_node7"><a xlink:href="include_2panoc-alm_2util_2problem_8hpp.html" target="_top" xlink:title=" ">
<polygon fill="white" stroke="black" points="1235.5,-185 1235.5,-204 1387.5,-204 1387.5,-185 1235.5,-185"/>
<text text-anchor="middle" x="1311.5" y="-192" font-family="Helvetica,sans-Serif" font-size="10.00">panoc&#45;alm/util/problem.hpp</text>
</a>
</g>
</g>
<!-- Node4&#45;&gt;Node7 -->
<g id="edge6" class="edge">
<title>Node4&#45;&gt;Node7</title>
<path fill="none" stroke="midnightblue" d="M1560.68,-251.94C1508.85,-240.2 1415.73,-219.11 1359.17,-206.3"/>
<polygon fill="midnightblue" stroke="midnightblue" points="1359.93,-202.88 1349.4,-204.08 1358.38,-209.71 1359.93,-202.88"/>
</g>
<!-- Node12 -->
<g id="node12" class="node">
<title>Node12</title>
<g id="a_node12"><a xlink:title=" ">
<polygon fill="white" stroke="#bfbfbf" points="1528.5,-118 1528.5,-137 1578.5,-137 1578.5,-118 1528.5,-118"/>
<text text-anchor="middle" x="1553.5" y="-125" font-family="Helvetica,sans-Serif" font-size="10.00">chrono</text>
</a>
</g>
</g>
<!-- Node4&#45;&gt;Node12 -->
<g id="edge17" class="edge">
<title>Node4&#45;&gt;Node12</title>
<path fill="none" stroke="midnightblue" d="M1643.26,-251.96C1718.55,-237.59 1862.39,-210.13 1862.5,-210 1871.28,-199.38 1871.42,-189.5 1862.5,-179 1844.89,-158.28 1666.04,-139.1 1588.76,-131.71"/>
<polygon fill="midnightblue" stroke="midnightblue" points="1588.84,-128.2 1578.56,-130.75 1588.18,-135.17 1588.84,-128.2"/>
</g>
<!-- Node4&#45;&gt;Node16 -->
<g id="edge15" class="edge">
<title>Node4&#45;&gt;Node16</title>
<path fill="none" stroke="midnightblue" d="M1620.94,-251.87C1650.32,-240.57 1701.99,-220.7 1735.47,-207.82"/>
<polygon fill="midnightblue" stroke="midnightblue" points="1737.16,-210.92 1745.23,-204.06 1734.64,-204.39 1737.16,-210.92"/>
</g>
<!-- Node18 -->
<g id="node18" class="node">
<title>Node18</title>
<g id="a_node18"><a xlink:title=" ">
<polygon fill="white" stroke="#bfbfbf" points="1619.5,-185 1619.5,-204 1663.5,-204 1663.5,-185 1619.5,-185"/>
<text text-anchor="middle" x="1641.5" y="-192" font-family="Helvetica,sans-Serif" font-size="10.00">string</text>
</a>
</g>
</g>
<!-- Node4&#45;&gt;Node18 -->
<g id="edge18" class="edge">
<title>Node4&#45;&gt;Node18</title>
<path fill="none" stroke="midnightblue" d="M1604.3,-251.73C1610.88,-241.79 1621.76,-225.34 1630.06,-212.79"/>
<polygon fill="midnightblue" stroke="midnightblue" points="1633.19,-214.4 1635.79,-204.13 1627.36,-210.54 1633.19,-214.4"/>
</g>
<!-- Node6 -->
<g id="node6" class="node">
<title>Node6</title>
<g id="a_node6"><a xlink:href="lbfgs-fwd_8hpp.html" target="_top" xlink:title=" ">
<polygon fill="white" stroke="black" points="1028,-112.5 1028,-142.5 1175,-142.5 1175,-112.5 1028,-112.5"/>
<text text-anchor="start" x="1036" y="-130.5" font-family="Helvetica,sans-Serif" font-size="10.00">panoc&#45;alm/inner/directions</text>
<text text-anchor="middle" x="1101.5" y="-119.5" font-family="Helvetica,sans-Serif" font-size="10.00">/decl/lbfgs&#45;fwd.hpp</text>
</a>
</g>
</g>
<!-- Node5&#45;&gt;Node6 -->
<g id="edge5" class="edge">
<title>Node5&#45;&gt;Node6</title>
<path fill="none" stroke="midnightblue" d="M1405.69,-180.79C1402.58,-180.17 1399.51,-179.57 1396.5,-179 1325.45,-165.46 1244.45,-151.71 1185.32,-141.99"/>
<polygon fill="midnightblue" stroke="midnightblue" points="1185.72,-138.51 1175.29,-140.34 1184.59,-145.41 1185.72,-138.51"/>
</g>
<!-- Node8 -->
<g id="node8" class="node">
<title>Node8</title>
<g id="a_node8"><a xlink:href="box_8hpp.html" target="_top" xlink:title=" ">
<polygon fill="white" stroke="black" points="299.5,-118 299.5,-137 355.5,-137 355.5,-118 299.5,-118"/>
<text text-anchor="middle" x="327.5" y="-125" font-family="Helvetica,sans-Serif" font-size="10.00">box.hpp</text>
</a>
</g>
</g>
<!-- Node7&#45;&gt;Node8 -->
<g id="edge7" class="edge">
<title>Node7&#45;&gt;Node8</title>
<path fill="none" stroke="midnightblue" d="M1267.53,-184.94C1254.38,-182.66 1239.9,-180.44 1226.5,-179 878.37,-141.49 788.31,-173.5 439.5,-143 414.83,-140.84 387.23,-137.28 365.6,-134.23"/>
<polygon fill="midnightblue" stroke="midnightblue" points="365.9,-130.74 355.51,-132.78 364.91,-137.67 365.9,-130.74"/>
</g>
<!-- Node11 -->
<g id="node11" class="node">
<title>Node11</title>
<g id="a_node11"><a xlink:title=" ">
<polygon fill="white" stroke="#bfbfbf" points="1450.5,-118 1450.5,-137 1502.5,-137 1502.5,-118 1450.5,-118"/>
<text text-anchor="middle" x="1476.5" y="-125" font-family="Helvetica,sans-Serif" font-size="10.00">cassert</text>
</a>
</g>
</g>
<!-- Node7&#45;&gt;Node11 -->
<g id="edge10" class="edge">
<title>Node7&#45;&gt;Node11</title>
<path fill="none" stroke="midnightblue" d="M1333.41,-184.87C1362.09,-173.57 1412.54,-153.7 1445.23,-140.82"/>
<polygon fill="midnightblue" stroke="midnightblue" points="1446.74,-143.99 1454.76,-137.06 1444.17,-137.47 1446.74,-143.99"/>
</g>
<!-- Node7&#45;&gt;Node12 -->
<g id="edge11" class="edge">
<title>Node7&#45;&gt;Node12</title>
<path fill="none" stroke="midnightblue" d="M1349.36,-184.95C1389.78,-175.6 1455.56,-159.69 1511.5,-143 1514.27,-142.17 1517.13,-141.28 1520,-140.35"/>
<polygon fill="midnightblue" stroke="midnightblue" points="1521.25,-143.62 1529.63,-137.14 1519.03,-136.98 1521.25,-143.62"/>
</g>
<!-- Node13 -->
<g id="node13" class="node">
<title>Node13</title>
<g id="a_node13"><a xlink:title=" ">
<polygon fill="white" stroke="#bfbfbf" points="1319,-118 1319,-137 1384,-137 1384,-118 1319,-118"/>
<text text-anchor="middle" x="1351.5" y="-125" font-family="Helvetica,sans-Serif" font-size="10.00">functional</text>
</a>
</g>
</g>
<!-- Node7&#45;&gt;Node13 -->
<g id="edge12" class="edge">
<title>Node7&#45;&gt;Node13</title>
<path fill="none" stroke="midnightblue" d="M1316.89,-184.73C1323.01,-174.79 1333.14,-158.34 1340.86,-145.79"/>
<polygon fill="midnightblue" stroke="midnightblue" points="1343.93,-147.48 1346.19,-137.13 1337.97,-143.81 1343.93,-147.48"/>
</g>
<!-- Node14 -->
<g id="node14" class="node">
<title>Node14</title>
<g id="a_node14"><a xlink:title=" ">
<polygon fill="white" stroke="#bfbfbf" points="1242.5,-118 1242.5,-137 1300.5,-137 1300.5,-118 1242.5,-118"/>
<text text-anchor="middle" x="1271.5" y="-125" font-family="Helvetica,sans-Serif" font-size="10.00">memory</text>
</a>
</g>
</g>
<!-- Node7&#45;&gt;Node14 -->
<g id="edge13" class="edge">
<title>Node7&#45;&gt;Node14</title>
<path fill="none" stroke="midnightblue" d="M1306.11,-184.73C1299.99,-174.79 1289.86,-158.34 1282.14,-145.79"/>
<polygon fill="midnightblue" stroke="midnightblue" points="1285.03,-143.81 1276.81,-137.13 1279.07,-147.48 1285.03,-143.81"/>
</g>
<!-- Node15 -->
<g id="node15" class="node">
<title>Node15</title>
<g id="a_node15"><a xlink:title=" ">
<polygon fill="white" stroke="#bfbfbf" points="0,-118 0,-137 69,-137 69,-118 0,-118"/>
<text text-anchor="middle" x="34.5" y="-125" font-family="Helvetica,sans-Serif" font-size="10.00">type_traits</text>
</a>
</g>
</g>
<!-- Node7&#45;&gt;Node15 -->
<g id="edge14" class="edge">
<title>Node7&#45;&gt;Node15</title>
<path fill="none" stroke="midnightblue" d="M1267.97,-184.95C1254.71,-182.65 1240.05,-180.41 1226.5,-179 812.43,-135.91 706.34,-162.77 290.5,-143 216.45,-139.48 130.42,-134.4 79.32,-131.29"/>
<polygon fill="midnightblue" stroke="midnightblue" points="79.47,-127.79 69.27,-130.67 79.04,-134.77 79.47,-127.79"/>
</g>
<!-- Node9 -->
<g id="node9" class="node">
<title>Node9</title>
<g id="a_node9"><a xlink:href="vec_8hpp.html" target="_top" xlink:title=" ">
<polygon fill="white" stroke="black" points="300,-56.5 300,-75.5 355,-75.5 355,-56.5 300,-56.5"/>
<text text-anchor="middle" x="327.5" y="-63.5" font-family="Helvetica,sans-Serif" font-size="10.00">vec.hpp</text>
</a>
</g>
</g>
<!-- Node8&#45;&gt;Node9 -->
<g id="edge8" class="edge">
<title>Node8&#45;&gt;Node9</title>
<path fill="none" stroke="midnightblue" d="M327.5,-117.98C327.5,-109.58 327.5,-96.48 327.5,-85.66"/>
<polygon fill="midnightblue" stroke="midnightblue" points="331,-85.51 327.5,-75.51 324,-85.51 331,-85.51"/>
</g>
<!-- Node10 -->
<g id="node10" class="node">
<title>Node10</title>
<g id="a_node10"><a xlink:title=" ">
<polygon fill="white" stroke="#bfbfbf" points="293,-0.5 293,-19.5 362,-19.5 362,-0.5 293,-0.5"/>
<text text-anchor="middle" x="327.5" y="-7.5" font-family="Helvetica,sans-Serif" font-size="10.00">Eigen/Core</text>
</a>
</g>
</g>
<!-- Node9&#45;&gt;Node10 -->
<g id="edge9" class="edge">
<title>Node9&#45;&gt;Node10</title>
<path fill="none" stroke="midnightblue" d="M327.5,-56.08C327.5,-49.01 327.5,-38.86 327.5,-29.99"/>
<polygon fill="midnightblue" stroke="midnightblue" points="331,-29.75 327.5,-19.75 324,-29.75 331,-29.75"/>
</g>
<!-- Node17 -->
<g id="node17" class="node">
<title>Node17</title>
<g id="a_node17"><a xlink:title=" ">
<polygon fill="white" stroke="#bfbfbf" points="1743.5,-118 1743.5,-137 1791.5,-137 1791.5,-118 1743.5,-118"/>
<text text-anchor="middle" x="1767.5" y="-125" font-family="Helvetica,sans-Serif" font-size="10.00">iosfwd</text>
</a>
</g>
</g>
<!-- Node16&#45;&gt;Node17 -->
<g id="edge16" class="edge">
<title>Node16&#45;&gt;Node17</title>
<path fill="none" stroke="midnightblue" d="M1767.5,-184.73C1767.5,-175.18 1767.5,-159.62 1767.5,-147.28"/>
<polygon fill="midnightblue" stroke="midnightblue" points="1771,-147.13 1767.5,-137.13 1764,-147.13 1771,-147.13"/>
</g>
<!-- Node22&#45;&gt;Node15 -->
<g id="edge31" class="edge">
<title>Node22&#45;&gt;Node15</title>
<path fill="none" stroke="midnightblue" d="M99.95,-316.27C76.9,-308.96 53.77,-296.9 39.5,-277 11.52,-237.98 21.59,-177.19 29.16,-146.92"/>
<polygon fill="midnightblue" stroke="midnightblue" points="32.55,-147.81 31.77,-137.25 25.79,-145.99 32.55,-147.81"/>
</g>
<!-- Node22&#45;&gt;Node19 -->
<g id="edge30" class="edge">
<title>Node22&#45;&gt;Node19</title>
<path fill="none" stroke="midnightblue" d="M183.96,-313.11C190.64,-303.33 199.05,-289.89 204.5,-277 222.01,-235.6 196.9,-209.95 229.5,-179 244.54,-164.72 370.7,-144.54 438.6,-134.57"/>
<polygon fill="midnightblue" stroke="midnightblue" points="439.19,-138.02 448.58,-133.11 438.18,-131.09 439.19,-138.02"/>
</g>
<!-- Node23 -->
<g id="node23" class="node">
<title>Node23</title>
<g id="a_node23"><a xlink:href="decl_2lbfgs_8hpp.html" target="_top" xlink:title=" ">
<polygon fill="white" stroke="black" points="49,-246.5 49,-276.5 196,-276.5 196,-246.5 49,-246.5"/>
<text text-anchor="start" x="57" y="-264.5" font-family="Helvetica,sans-Serif" font-size="10.00">panoc&#45;alm/inner/directions</text>
<text text-anchor="middle" x="122.5" y="-253.5" font-family="Helvetica,sans-Serif" font-size="10.00">/decl/lbfgs.hpp</text>
</a>
</g>
</g>
<!-- Node22&#45;&gt;Node23 -->
<g id="edge24" class="edge">
<title>Node22&#45;&gt;Node23</title>
<path fill="none" stroke="midnightblue" d="M162.43,-313.4C155.82,-304.96 147.27,-294.07 139.78,-284.52"/>
<polygon fill="midnightblue" stroke="midnightblue" points="142.47,-282.28 133.54,-276.58 136.96,-286.6 142.47,-282.28"/>
</g>
<!-- Node23&#45;&gt;Node6 -->
<g id="edge27" class="edge">
<title>Node23&#45;&gt;Node6</title>
<path fill="none" stroke="midnightblue" d="M135.39,-246.43C154.01,-227.19 190.52,-193.42 229.5,-179 238.68,-175.6 800.95,-144.8 1017.63,-133.04"/>
<polygon fill="midnightblue" stroke="midnightblue" points="1017.89,-136.53 1027.69,-132.49 1017.51,-129.54 1017.89,-136.53"/>
</g>
<!-- Node23&#45;&gt;Node8 -->
<g id="edge25" class="edge">
<title>Node23&#45;&gt;Node8</title>
<path fill="none" stroke="midnightblue" d="M125.19,-246.25C129.37,-228.05 139.14,-196.79 159.5,-179 196.08,-147.03 252.29,-135.29 289.48,-130.99"/>
<polygon fill="midnightblue" stroke="midnightblue" points="289.84,-134.47 299.43,-129.96 289.12,-127.51 289.84,-134.47"/>
</g>
<!-- Node23&#45;&gt;Node9 -->
<g id="edge26" class="edge">
<title>Node23&#45;&gt;Node9</title>
<path fill="none" stroke="midnightblue" d="M121.05,-246.21C120.04,-228.81 120.78,-199.25 134.5,-179 171.68,-124.14 245.35,-92.59 290.14,-77.69"/>
<polygon fill="midnightblue" stroke="midnightblue" points="291.33,-80.98 299.78,-74.59 289.19,-74.32 291.33,-80.98"/>
</g>
<!-- Node24 -->
<g id="node24" class="node">
<title>Node24</title>
<g id="a_node24"><a xlink:href="panoc-direction-update_8hpp.html" target="_top" xlink:title=" ">
<polygon fill="white" stroke="black" points="239,-179.5 239,-209.5 416,-209.5 416,-179.5 239,-179.5"/>
<text text-anchor="start" x="247" y="-197.5" font-family="Helvetica,sans-Serif" font-size="10.00">panoc&#45;alm/inner/directions</text>
<text text-anchor="middle" x="327.5" y="-186.5" font-family="Helvetica,sans-Serif" font-size="10.00">/decl/panoc&#45;direction&#45;update.hpp</text>
</a>
</g>
</g>
<!-- Node23&#45;&gt;Node24 -->
<g id="edge28" class="edge">
<title>Node23&#45;&gt;Node24</title>
<path fill="none" stroke="midnightblue" d="M166.73,-246.48C198.01,-236.56 240.14,-223.2 273.42,-212.65"/>
<polygon fill="midnightblue" stroke="midnightblue" points="274.52,-215.97 283,-209.61 272.41,-209.3 274.52,-215.97"/>
</g>
<!-- Node24&#45;&gt;Node8 -->
<g id="edge29" class="edge">
<title>Node24&#45;&gt;Node8</title>
<path fill="none" stroke="midnightblue" d="M327.5,-179.4C327.5,-170.06 327.5,-157.71 327.5,-147.52"/>
<polygon fill="midnightblue" stroke="midnightblue" points="331,-147.19 327.5,-137.19 324,-147.19 331,-147.19"/>
</g>
<!-- Node25&#45;&gt;Node11 -->
<g id="edge57" class="edge">
<title>Node25&#45;&gt;Node11</title>
<path fill="none" stroke="midnightblue" d="M961.19,-319.31C1123.53,-300.77 1496.97,-253.77 1533.5,-210 1552.04,-187.79 1521.88,-159.73 1498.83,-143"/>
<polygon fill="midnightblue" stroke="midnightblue" points="1500.67,-140.02 1490.47,-137.18 1496.68,-145.76 1500.67,-140.02"/>
</g>
<!-- Node25&#45;&gt;Node19 -->
<g id="edge61" class="edge">
<title>Node25&#45;&gt;Node19</title>
<path fill="none" stroke="midnightblue" d="M811.95,-323.8C697.66,-317.36 489.92,-302.29 467.5,-277 435.09,-240.44 458.05,-177.11 472.38,-146.33"/>
<polygon fill="midnightblue" stroke="midnightblue" points="475.58,-147.74 476.81,-137.22 469.29,-144.68 475.58,-147.74"/>
</g>
<!-- Node25&#45;&gt;Node20 -->
<g id="edge59" class="edge">
<title>Node25&#45;&gt;Node20</title>
<path fill="none" stroke="midnightblue" d="M961.05,-325.66C1130.42,-321 1539.93,-306.92 1674.5,-277 1677.5,-276.33 1680.58,-275.46 1683.62,-274.47"/>
<polygon fill="midnightblue" stroke="midnightblue" points="1684.84,-277.75 1693.03,-271.03 1682.44,-271.17 1684.84,-277.75"/>
</g>
<!-- Node25&#45;&gt;Node21 -->
<g id="edge60" class="edge">
<title>Node25&#45;&gt;Node21</title>
<path fill="none" stroke="midnightblue" d="M961.08,-326.05C1068.06,-322.76 1270.77,-312.03 1439.5,-277 1443.38,-276.2 1447.39,-275.16 1451.34,-274.02"/>
<polygon fill="midnightblue" stroke="midnightblue" points="1452.43,-277.35 1460.93,-271.03 1450.34,-270.67 1452.43,-277.35"/>
</g>
<!-- Node25&#45;&gt;Node24 -->
<g id="edge56" class="edge">
<title>Node25&#45;&gt;Node24</title>
<path fill="none" stroke="midnightblue" d="M811.93,-324.69C674.9,-318.9 393.77,-303.88 358.5,-277 340.7,-263.43 333.12,-238.36 329.9,-219.6"/>
<polygon fill="midnightblue" stroke="midnightblue" points="333.36,-219.08 328.48,-209.67 326.43,-220.06 333.36,-219.08"/>
</g>
<!-- Node26 -->
<g id="node26" class="node">
<title>Node26</title>
<g id="a_node26"><a xlink:href="inner_2decl_2panoc_8hpp.html" target="_top" xlink:title=" ">
<polygon fill="white" stroke="black" points="966,-246.5 966,-276.5 1085,-276.5 1085,-246.5 966,-246.5"/>
<text text-anchor="start" x="974" y="-264.5" font-family="Helvetica,sans-Serif" font-size="10.00">panoc&#45;alm/inner/decl</text>
<text text-anchor="middle" x="1025.5" y="-253.5" font-family="Helvetica,sans-Serif" font-size="10.00">/panoc.hpp</text>
</a>
</g>
</g>
<!-- Node25&#45;&gt;Node26 -->
<g id="edge33" class="edge">
<title>Node25&#45;&gt;Node26</title>
<path fill="none" stroke="midnightblue" d="M904.96,-318.87C925.63,-309.2 959.75,-293.25 986.41,-280.78"/>
<polygon fill="midnightblue" stroke="midnightblue" points="987.93,-283.93 995.5,-276.53 984.96,-277.59 987.93,-283.93"/>
</g>
<!-- Node34 -->
<g id="node34" class="node">
<title>Node34</title>
<g id="a_node34"><a xlink:href="panoc-helpers_8hpp.html" target="_top" xlink:title=" ">
<polygon fill="white" stroke="black" points="753,-246.5 753,-276.5 880,-276.5 880,-246.5 753,-246.5"/>
<text text-anchor="start" x="761" y="-264.5" font-family="Helvetica,sans-Serif" font-size="10.00">panoc&#45;alm/inner/detail</text>
<text text-anchor="middle" x="816.5" y="-253.5" font-family="Helvetica,sans-Serif" font-size="10.00">/panoc&#45;helpers.hpp</text>
</a>
</g>
</g>
<!-- Node25&#45;&gt;Node34 -->
<g id="edge50" class="edge">
<title>Node25&#45;&gt;Node34</title>
<path fill="none" stroke="midnightblue" d="M877.06,-318.73C867.42,-309.78 852.08,-295.54 839.26,-283.63"/>
<polygon fill="midnightblue" stroke="midnightblue" points="841.38,-280.83 831.67,-276.59 836.62,-285.96 841.38,-280.83"/>
</g>
<!-- Node35 -->
<g id="node35" class="node">
<title>Node35</title>
<g id="a_node35"><a xlink:title=" ">
<polygon fill="white" stroke="#bfbfbf" points="368,-252 368,-271 415,-271 415,-252 368,-252"/>
<text text-anchor="middle" x="391.5" y="-259" font-family="Helvetica,sans-Serif" font-size="10.00">cmath</text>
</a>
</g>
</g>
<!-- Node25&#45;&gt;Node35 -->
<g id="edge58" class="edge">
<title>Node25&#45;&gt;Node35</title>
<path fill="none" stroke="midnightblue" d="M811.89,-325.07C720.58,-320.77 561.78,-308.99 429.5,-277 426.67,-276.32 423.76,-275.47 420.88,-274.55"/>
<polygon fill="midnightblue" stroke="midnightblue" points="421.91,-271.2 411.31,-271.15 419.57,-277.79 421.91,-271.2"/>
</g>
<!-- Node26&#45;&gt;Node5 -->
<g id="edge35" class="edge">
<title>Node26&#45;&gt;Node5</title>
<path fill="none" stroke="midnightblue" d="M1085.14,-253.72C1156.53,-245.31 1279.89,-229.82 1395.61,-210.08"/>
<polygon fill="midnightblue" stroke="midnightblue" points="1396.45,-213.48 1405.71,-208.34 1395.26,-206.58 1396.45,-213.48"/>
</g>
<!-- Node26&#45;&gt;Node7 -->
<g id="edge44" class="edge">
<title>Node26&#45;&gt;Node7</title>
<path fill="none" stroke="midnightblue" d="M1085.11,-246.95C1138.14,-234.9 1214.7,-217.5 1263.78,-206.35"/>
<polygon fill="midnightblue" stroke="midnightblue" points="1264.84,-209.69 1273.82,-204.06 1263.29,-202.87 1264.84,-209.69"/>
</g>
<!-- Node26&#45;&gt;Node12 -->
<g id="edge47" class="edge">
<title>Node26&#45;&gt;Node12</title>
<path fill="none" stroke="midnightblue" d="M1085.36,-258.38C1212.43,-253.35 1500.24,-238.86 1533.5,-210 1551.35,-194.51 1554.61,-165.92 1554.6,-147.05"/>
<polygon fill="midnightblue" stroke="midnightblue" points="1558.1,-146.89 1554.29,-137.01 1551.1,-147.11 1558.1,-146.89"/>
</g>
<!-- Node26&#45;&gt;Node16 -->
<g id="edge45" class="edge">
<title>Node26&#45;&gt;Node16</title>
<path fill="none" stroke="midnightblue" d="M1085.41,-257.3C1199.78,-250.87 1457.04,-234.82 1672.5,-210 1683.41,-208.74 1695,-207.17 1706.18,-205.54"/>
<polygon fill="midnightblue" stroke="midnightblue" points="1706.95,-208.96 1716.32,-204.02 1705.91,-202.04 1706.95,-208.96"/>
</g>
<!-- Node26&#45;&gt;Node18 -->
<g id="edge49" class="edge">
<title>Node26&#45;&gt;Node18</title>
<path fill="none" stroke="midnightblue" d="M1085.08,-256.92C1185.12,-250.46 1393.05,-235.15 1567.5,-210 1581.3,-208.01 1596.43,-205.17 1609.39,-202.52"/>
<polygon fill="midnightblue" stroke="midnightblue" points="1610.18,-205.93 1619.26,-200.47 1608.75,-199.08 1610.18,-205.93"/>
</g>
<!-- Node26&#45;&gt;Node24 -->
<g id="edge39" class="edge">
<title>Node26&#45;&gt;Node24</title>
<path fill="none" stroke="midnightblue" d="M965.84,-253.98C941.82,-251.41 913.85,-248.48 888.5,-246 726.88,-230.17 538.87,-213.63 426.72,-203.96"/>
<polygon fill="midnightblue" stroke="midnightblue" points="426.71,-200.44 416.44,-203.07 426.11,-207.42 426.71,-200.44"/>
</g>
<!-- Node27 -->
<g id="node27" class="node">
<title>Node27</title>
<g id="a_node27"><a xlink:href="lbfgs-stepsize_8hpp.html" target="_top" xlink:title=" ">
<polygon fill="white" stroke="black" points="866,-179.5 866,-209.5 985,-209.5 985,-179.5 866,-179.5"/>
<text text-anchor="start" x="874" y="-197.5" font-family="Helvetica,sans-Serif" font-size="10.00">panoc&#45;alm/inner/decl</text>
<text text-anchor="middle" x="925.5" y="-186.5" font-family="Helvetica,sans-Serif" font-size="10.00">/lbfgs&#45;stepsize.hpp</text>
</a>
</g>
</g>
<!-- Node26&#45;&gt;Node27 -->
<g id="edge34" class="edge">
<title>Node26&#45;&gt;Node27</title>
<path fill="none" stroke="midnightblue" d="M1003.8,-246.4C989.78,-237.28 971.33,-225.29 955.86,-215.24"/>
<polygon fill="midnightblue" stroke="midnightblue" points="957.45,-212.09 947.16,-209.58 953.63,-217.96 957.45,-212.09"/>
</g>
<!-- Node28 -->
<g id="node28" class="node">
<title>Node28</title>
<g id="a_node28"><a xlink:href="panoc-stop-crit_8hpp.html" target="_top" xlink:title=" ">
<polygon fill="white" stroke="black" points="548,-179.5 548,-209.5 667,-209.5 667,-179.5 548,-179.5"/>
<text text-anchor="start" x="556" y="-197.5" font-family="Helvetica,sans-Serif" font-size="10.00">panoc&#45;alm/inner/decl</text>
<text text-anchor="middle" x="607.5" y="-186.5" font-family="Helvetica,sans-Serif" font-size="10.00">/panoc&#45;stop&#45;crit.hpp</text>
</a>
</g>
</g>
<!-- Node26&#45;&gt;Node28 -->
<g id="edge36" class="edge">
<title>Node26&#45;&gt;Node28</title>
<path fill="none" stroke="midnightblue" d="M965.72,-253.02C898.18,-244.31 784.75,-228.89 677.33,-210.08"/>
<polygon fill="midnightblue" stroke="midnightblue" points="677.75,-206.6 667.29,-208.31 676.53,-213.49 677.75,-206.6"/>
</g>
<!-- Node30 -->
<g id="node30" class="node">
<title>Node30</title>
<g id="a_node30"><a xlink:href="atomic__stop__signal_8hpp.html" target="_top" xlink:title=" ">
<polygon fill="white" stroke="black" points="685.5,-179.5 685.5,-209.5 809.5,-209.5 809.5,-179.5 685.5,-179.5"/>
<text text-anchor="start" x="693.5" y="-197.5" font-family="Helvetica,sans-Serif" font-size="10.00">panoc&#45;alm/util/atomic</text>
<text text-anchor="middle" x="747.5" y="-186.5" font-family="Helvetica,sans-Serif" font-size="10.00">_stop_signal.hpp</text>
</a>
</g>
</g>
<!-- Node26&#45;&gt;Node30 -->
<g id="edge40" class="edge">
<title>Node26&#45;&gt;Node30</title>
<path fill="none" stroke="midnightblue" d="M965.86,-246.56C922.31,-236.37 863.13,-222.54 817.36,-211.84"/>
<polygon fill="midnightblue" stroke="midnightblue" points="818.05,-208.4 807.52,-209.53 816.46,-215.22 818.05,-208.4"/>
</g>
<!-- Node31 -->
<g id="node31" class="node">
<title>Node31</title>
<g id="a_node31"><a xlink:title=" ">
<polygon fill="white" stroke="#bfbfbf" points="767.5,-118 767.5,-137 817.5,-137 817.5,-118 767.5,-118"/>
<text text-anchor="middle" x="792.5" y="-125" font-family="Helvetica,sans-Serif" font-size="10.00">atomic</text>
</a>
</g>
</g>
<!-- Node26&#45;&gt;Node31 -->
<g id="edge46" class="edge">
<title>Node26&#45;&gt;Node31</title>
<path fill="none" stroke="midnightblue" d="M965.7,-251.88C931.48,-244.78 889.03,-232.14 856.5,-210 832.04,-193.35 812.6,-164.46 801.82,-145.93"/>
<polygon fill="midnightblue" stroke="midnightblue" points="804.8,-144.09 796.87,-137.07 798.69,-147.51 804.8,-144.09"/>
</g>
<!-- Node32 -->
<g id="node32" class="node">
<title>Node32</title>
<g id="a_node32"><a xlink:href="lipschitz_8hpp.html" target="_top" xlink:title=" ">
<polygon fill="white" stroke="black" points="1065.5,-185 1065.5,-204 1217.5,-204 1217.5,-185 1065.5,-185"/>
<text text-anchor="middle" x="1141.5" y="-192" font-family="Helvetica,sans-Serif" font-size="10.00">panoc&#45;alm/util/lipschitz.hpp</text>
</a>
</g>
</g>
<!-- Node26&#45;&gt;Node32 -->
<g id="edge42" class="edge">
<title>Node26&#45;&gt;Node32</title>
<path fill="none" stroke="midnightblue" d="M1050.67,-246.4C1070.48,-235.29 1097.92,-219.92 1117.44,-208.98"/>
<polygon fill="midnightblue" stroke="midnightblue" points="1119.31,-211.95 1126.32,-204.01 1115.88,-205.84 1119.31,-211.95"/>
</g>
<!-- Node33 -->
<g id="node33" class="node">
<title>Node33</title>
<g id="a_node33"><a xlink:title=" ">
<polygon fill="white" stroke="#bfbfbf" points="1003.5,-185 1003.5,-204 1047.5,-204 1047.5,-185 1003.5,-185"/>
<text text-anchor="middle" x="1025.5" y="-192" font-family="Helvetica,sans-Serif" font-size="10.00">limits</text>
</a>
</g>
</g>
<!-- Node26&#45;&gt;Node33 -->
<g id="edge48" class="edge">
<title>Node26&#45;&gt;Node33</title>
<path fill="none" stroke="midnightblue" d="M1025.5,-246.4C1025.5,-237.06 1025.5,-224.71 1025.5,-214.52"/>
<polygon fill="midnightblue" stroke="midnightblue" points="1029,-214.19 1025.5,-204.19 1022,-214.19 1029,-214.19"/>
</g>
<!-- Node28&#45;&gt;Node19 -->
<g id="edge38" class="edge">
<title>Node28&#45;&gt;Node19</title>
<path fill="none" stroke="midnightblue" d="M580.16,-179.4C558.44,-168.19 528.3,-152.64 507.06,-141.69"/>
<polygon fill="midnightblue" stroke="midnightblue" points="508.48,-138.48 497.99,-137.01 505.27,-144.7 508.48,-138.48"/>
</g>
<!-- Node29 -->
<g id="node29" class="node">
<title>Node29</title>
<g id="a_node29"><a xlink:title=" ">
<polygon fill="white" stroke="#bfbfbf" points="579,-118 579,-137 636,-137 636,-118 579,-118"/>
<text text-anchor="middle" x="607.5" y="-125" font-family="Helvetica,sans-Serif" font-size="10.00">ostream</text>
</a>
</g>
</g>
<!-- Node28&#45;&gt;Node29 -->
<g id="edge37" class="edge">
<title>Node28&#45;&gt;Node29</title>
<path fill="none" stroke="midnightblue" d="M607.5,-179.4C607.5,-170.06 607.5,-157.71 607.5,-147.52"/>
<polygon fill="midnightblue" stroke="midnightblue" points="611,-147.19 607.5,-137.19 604,-147.19 611,-147.19"/>
</g>
<!-- Node30&#45;&gt;Node31 -->
<g id="edge41" class="edge">
<title>Node30&#45;&gt;Node31</title>
<path fill="none" stroke="midnightblue" d="M757.26,-179.4C764.14,-169.46 773.39,-156.11 780.68,-145.57"/>
<polygon fill="midnightblue" stroke="midnightblue" points="783.67,-147.41 786.48,-137.19 777.91,-143.42 783.67,-147.41"/>
</g>
<!-- Node32&#45;&gt;Node9 -->
<g id="edge43" class="edge">
<title>Node32&#45;&gt;Node9</title>
<path fill="none" stroke="midnightblue" d="M1114.44,-184.9C1060.35,-168.06 934.76,-130.76 826.5,-112 655.75,-82.42 448.55,-71.62 365.04,-68.29"/>
<polygon fill="midnightblue" stroke="midnightblue" points="365.15,-64.79 355.02,-67.91 364.88,-71.79 365.15,-64.79"/>
</g>
<!-- Node34&#45;&gt;Node7 -->
<g id="edge53" class="edge">
<title>Node34&#45;&gt;Node7</title>
<path fill="none" stroke="midnightblue" d="M880.19,-253.58C960.91,-244.6 1104.27,-227.94 1226.5,-210 1235.32,-208.7 1244.65,-207.23 1253.75,-205.72"/>
<polygon fill="midnightblue" stroke="midnightblue" points="1254.63,-209.12 1263.91,-204.02 1253.47,-202.22 1254.63,-209.12"/>
</g>
<!-- Node34&#45;&gt;Node16 -->
<g id="edge54" class="edge">
<title>Node34&#45;&gt;Node16</title>
<path fill="none" stroke="midnightblue" d="M880.21,-253.18C904.11,-250.63 931.53,-247.92 956.5,-246 1274.19,-221.58 1355.49,-242.08 1672.5,-210 1683.93,-208.84 1696.08,-207.26 1707.73,-205.56"/>
<polygon fill="midnightblue" stroke="midnightblue" points="1708.45,-209 1717.82,-204.05 1707.41,-202.07 1708.45,-209"/>
</g>
<!-- Node34&#45;&gt;Node19 -->
<g id="edge55" class="edge">
<title>Node34&#45;&gt;Node19</title>
<path fill="none" stroke="midnightblue" d="M752.83,-254.58C682.07,-247.04 573.19,-232.24 538.5,-210 514.58,-194.67 497.87,-165.38 488.97,-146.41"/>
<polygon fill="midnightblue" stroke="midnightblue" points="492.09,-144.81 484.84,-137.08 485.69,-147.64 492.09,-144.81"/>
</g>
<!-- Node34&#45;&gt;Node28 -->
<g id="edge51" class="edge">
<title>Node34&#45;&gt;Node28</title>
<path fill="none" stroke="midnightblue" d="M771.41,-246.48C739.52,-236.56 696.57,-223.2 662.64,-212.65"/>
<polygon fill="midnightblue" stroke="midnightblue" points="663.46,-209.24 652.87,-209.61 661.38,-215.92 663.46,-209.24"/>
</g>
<!-- Node34&#45;&gt;Node30 -->
<g id="edge52" class="edge">
<title>Node34&#45;&gt;Node30</title>
<path fill="none" stroke="midnightblue" d="M801.53,-246.4C792.31,-237.71 780.31,-226.4 769.96,-216.66"/>
<polygon fill="midnightblue" stroke="midnightblue" points="772.12,-213.89 762.44,-209.58 767.32,-218.98 772.12,-213.89"/>
</g>
</g>
</svg>
