<?xml version="1.0" encoding="UTF-8" standalone="no"?>
<!DOCTYPE svg PUBLIC "-//W3C//DTD SVG 1.1//EN"
 "http://www.w3.org/Graphics/SVG/1.1/DTD/svg11.dtd">
<!-- Generated by graphviz version 2.43.0 (0)
 -->
<!-- Title: anderson&#45;helpers.hpp Pages: 1 -->
<svg width="532pt" height="207pt"
 viewBox="0.00 0.00 531.50 207.00" xmlns="http://www.w3.org/2000/svg" xmlns:xlink="http://www.w3.org/1999/xlink">
<g id="graph0" class="graph" transform="scale(1 1) rotate(0) translate(4 203)">
<title>anderson&#45;helpers.hpp</title>
<polygon fill="white" stroke="transparent" points="-4,4 -4,-203 527.5,-203 527.5,4 -4,4"/>
<!-- Node1 -->
<g id="node1" class="node">
<title>Node1</title>
<g id="a_node1"><a xlink:title=" ">
<polygon fill="#bfbfbf" stroke="black" points="150,-179.5 150,-198.5 272,-198.5 272,-179.5 150,-179.5"/>
<text text-anchor="middle" x="211" y="-186.5" font-family="Helvetica,sans-Serif" font-size="10.00">anderson&#45;helpers.hpp</text>
</a>
</g>
</g>
<!-- Node2 -->
<g id="node2" class="node">
<title>Node2</title>
<g id="a_node2"><a xlink:href="limited-memory-qr_8hpp.html" target="_top" xlink:title=" ">
<polygon fill="white" stroke="black" points="144.5,-112.5 144.5,-142.5 277.5,-142.5 277.5,-112.5 144.5,-112.5"/>
<text text-anchor="start" x="152.5" y="-130.5" font-family="Helvetica,sans-Serif" font-size="10.00">panoc&#45;alm/inner/detail</text>
<text text-anchor="middle" x="211" y="-119.5" font-family="Helvetica,sans-Serif" font-size="10.00">/limited&#45;memory&#45;qr.hpp</text>
</a>
</g>
</g>
<!-- Node1&#45;&gt;Node2 -->
<g id="edge1" class="edge">
<title>Node1&#45;&gt;Node2</title>
<path fill="none" stroke="midnightblue" d="M211,-179.48C211,-172.47 211,-162.19 211,-152.7"/>
<polygon fill="midnightblue" stroke="midnightblue" points="214.5,-152.52 211,-142.52 207.5,-152.52 214.5,-152.52"/>
</g>
<!-- Node3 -->
<g id="node3" class="node">
<title>Node3</title>
<g id="a_node3"><a xlink:title=" ">
<polygon fill="white" stroke="#bfbfbf" points="0,-56.5 0,-75.5 76,-75.5 76,-56.5 0,-56.5"/>
<text text-anchor="middle" x="38" y="-63.5" font-family="Helvetica,sans-Serif" font-size="10.00">Eigen/Jacobi</text>
</a>
</g>
</g>
<!-- Node2&#45;&gt;Node3 -->
<g id="edge2" class="edge">
<title>Node2&#45;&gt;Node3</title>
<path fill="none" stroke="midnightblue" d="M170,-112.4C140.37,-102.21 100.77,-88.59 72.7,-78.93"/>
<polygon fill="midnightblue" stroke="midnightblue" points="73.52,-75.51 62.92,-75.57 71.24,-82.13 73.52,-75.51"/>
</g>
<!-- Node4 -->
<g id="node4" class="node">
<title>Node4</title>
<g id="a_node4"><a xlink:title=" ">
<polygon fill="white" stroke="#bfbfbf" points="95.5,-0.5 95.5,-19.5 148.5,-19.5 148.5,-0.5 95.5,-0.5"/>
<text text-anchor="middle" x="122" y="-7.5" font-family="Helvetica,sans-Serif" font-size="10.00">cstddef</text>
</a>
</g>
</g>
<!-- Node2&#45;&gt;Node4 -->
<g id="edge3" class="edge">
<title>Node2&#45;&gt;Node4</title>
<path fill="none" stroke="midnightblue" d="M167.84,-112.46C150.79,-104.58 132.93,-92.84 123,-76 114.85,-62.18 115.45,-43.66 117.59,-29.92"/>
<polygon fill="midnightblue" stroke="midnightblue" points="121.1,-30.2 119.59,-19.72 114.23,-28.86 121.1,-30.2"/>
</g>
<!-- Node5 -->
<g id="node5" class="node">
<title>Node5</title>
<g id="a_node5"><a xlink:href="ringbuffer_8hpp.html" target="_top" xlink:title=" ">
<polygon fill="white" stroke="black" points="132,-56.5 132,-75.5 290,-75.5 290,-56.5 132,-56.5"/>
<text text-anchor="middle" x="211" y="-63.5" font-family="Helvetica,sans-Serif" font-size="10.00">panoc&#45;alm/util/ringbuffer.hpp</text>
</a>
</g>
</g>
<!-- Node2&#45;&gt;Node5 -->
<g id="edge4" class="edge">
<title>Node2&#45;&gt;Node5</title>
<path fill="none" stroke="midnightblue" d="M211,-112.4C211,-104.47 211,-94.46 211,-85.86"/>
<polygon fill="midnightblue" stroke="midnightblue" points="214.5,-85.66 211,-75.66 207.5,-85.66 214.5,-85.66"/>
</g>
<!-- Node7 -->
<g id="node7" class="node">
<title>Node7</title>
<g id="a_node7"><a xlink:href="vec_8hpp.html" target="_top" xlink:title=" ">
<polygon fill="white" stroke="black" points="308,-56.5 308,-75.5 436,-75.5 436,-56.5 308,-56.5"/>
<text text-anchor="middle" x="372" y="-63.5" font-family="Helvetica,sans-Serif" font-size="10.00">panoc&#45;alm/util/vec.hpp</text>
</a>
</g>
</g>
<!-- Node2&#45;&gt;Node7 -->
<g id="edge7" class="edge">
<title>Node2&#45;&gt;Node7</title>
<path fill="none" stroke="midnightblue" d="M249.15,-112.4C276.53,-102.28 313.04,-88.79 339.13,-79.15"/>
<polygon fill="midnightblue" stroke="midnightblue" points="340.41,-82.41 348.57,-75.66 337.98,-75.84 340.41,-82.41"/>
</g>
<!-- Node9 -->
<g id="node9" class="node">
<title>Node9</title>
<g id="a_node9"><a xlink:title=" ">
<polygon fill="white" stroke="#bfbfbf" points="454.5,-56.5 454.5,-75.5 523.5,-75.5 523.5,-56.5 454.5,-56.5"/>
<text text-anchor="middle" x="489" y="-63.5" font-family="Helvetica,sans-Serif" font-size="10.00">type_traits</text>
</a>
</g>
</g>
<!-- Node2&#45;&gt;Node9 -->
<g id="edge9" class="edge">
<title>Node2&#45;&gt;Node9</title>
<path fill="none" stroke="midnightblue" d="M276.53,-112.47C328.32,-101.39 399.19,-86.22 444.55,-76.51"/>
<polygon fill="midnightblue" stroke="midnightblue" points="445.33,-79.93 454.38,-74.41 443.87,-73.08 445.33,-79.93"/>
</g>
<!-- Node5&#45;&gt;Node4 -->
<g id="edge5" class="edge">
<title>Node5&#45;&gt;Node4</title>
<path fill="none" stroke="midnightblue" d="M196.7,-56.32C182.82,-47.9 161.51,-34.97 145.2,-25.07"/>
<polygon fill="midnightblue" stroke="midnightblue" points="146.63,-21.85 136.26,-19.65 143,-27.83 146.63,-21.85"/>
</g>
<!-- Node6 -->
<g id="node6" class="node">
<title>Node6</title>
<g id="a_node6"><a xlink:title=" ">
<polygon fill="white" stroke="#bfbfbf" points="184.5,-0.5 184.5,-19.5 237.5,-19.5 237.5,-0.5 184.5,-0.5"/>
<text text-anchor="middle" x="211" y="-7.5" font-family="Helvetica,sans-Serif" font-size="10.00">iterator</text>
</a>
</g>
</g>
<!-- Node5&#45;&gt;Node6 -->
<g id="edge6" class="edge">
<title>Node5&#45;&gt;Node6</title>
<path fill="none" stroke="midnightblue" d="M211,-56.08C211,-49.01 211,-38.86 211,-29.99"/>
<polygon fill="midnightblue" stroke="midnightblue" points="214.5,-29.75 211,-19.75 207.5,-29.75 214.5,-29.75"/>
</g>
<!-- Node8 -->
<g id="node8" class="node">
<title>Node8</title>
<g id="a_node8"><a xlink:title=" ">
<polygon fill="white" stroke="#bfbfbf" points="337.5,-0.5 337.5,-19.5 406.5,-19.5 406.5,-0.5 337.5,-0.5"/>
<text text-anchor="middle" x="372" y="-7.5" font-family="Helvetica,sans-Serif" font-size="10.00">Eigen/Core</text>
</a>
</g>
</g>
<!-- Node7&#45;&gt;Node8 -->
<g id="edge8" class="edge">
<title>Node7&#45;&gt;Node8</title>
<path fill="none" stroke="midnightblue" d="M372,-56.08C372,-49.01 372,-38.86 372,-29.99"/>
<polygon fill="midnightblue" stroke="midnightblue" points="375.5,-29.75 372,-19.75 368.5,-29.75 375.5,-29.75"/>
</g>
</g>
</svg>
