<?xml version="1.0" encoding="UTF-8" standalone="no"?>
<!DOCTYPE svg PUBLIC "-//W3C//DTD SVG 1.1//EN"
 "http://www.w3.org/Graphics/SVG/1.1/DTD/svg11.dtd">
<!-- Generated by graphviz version 2.43.0 (0)
 -->
<!-- Title: main Pages: 1 -->
<svg width="348pt" height="28pt"
 viewBox="0.00 0.00 348.00 28.00" xmlns="http://www.w3.org/2000/svg" xmlns:xlink="http://www.w3.org/1999/xlink">
<g id="graph0" class="graph" transform="scale(1 1) rotate(0) translate(4 24)">
<title>main</title>
<polygon fill="white" stroke="transparent" points="-4,4 -4,-24 344,-24 344,4 -4,4"/>
<!-- Node1 -->
<g id="node1" class="node">
<title>Node1</title>
<g id="a_node1"><a xlink:title=" ">
<polygon fill="#bfbfbf" stroke="black" points="0,-0.5 0,-19.5 41,-19.5 41,-0.5 0,-0.5"/>
<text text-anchor="middle" x="20.5" y="-7.5" font-family="Helvetica,sans-Serif" font-size="10.00">main</text>
</a>
</g>
</g>
<!-- Node2 -->
<g id="node2" class="node">
<title>Node2</title>
<g id="a_node2"><a xlink:href="group__grp__ExternalProblemLoaders.html#ga8e3016e511c195e9adde5c2270d53c50" target="_top" xlink:title="Load a problem generated by CasADi (without parameters).">
<polygon fill="white" stroke="black" points="77,-0.5 77,-19.5 219,-19.5 219,-0.5 77,-0.5"/>
<text text-anchor="middle" x="148" y="-7.5" font-family="Helvetica,sans-Serif" font-size="10.00">pa::load_CasADi_problem</text>
</a>
</g>
</g>
<!-- Node1&#45;&gt;Node2 -->
<g id="edge1" class="edge">
<title>Node1&#45;&gt;Node2</title>
<path fill="none" stroke="midnightblue" d="M41.11,-10C48.48,-10 57.38,-10 66.86,-10"/>
<polygon fill="midnightblue" stroke="midnightblue" points="66.91,-13.5 76.91,-10 66.91,-6.5 66.91,-13.5"/>
</g>
<!-- Node3 -->
<g id="node3" class="node">
<title>Node3</title>
<g id="a_node3"><a xlink:href="namespacepa.html#ae852a1842bb6c44fdedb3c07fed9e3f5" target="_top" xlink:title=" ">
<polygon fill="white" stroke="black" points="255,-0.5 255,-19.5 340,-19.5 340,-0.5 255,-0.5"/>
<text text-anchor="middle" x="297.5" y="-7.5" font-family="Helvetica,sans-Serif" font-size="10.00">pa::wrap_load</text>
</a>
</g>
</g>
<!-- Node2&#45;&gt;Node3 -->
<g id="edge2" class="edge">
<title>Node2&#45;&gt;Node3</title>
<path fill="none" stroke="midnightblue" d="M219.29,-10C227.85,-10 236.47,-10 244.69,-10"/>
<polygon fill="midnightblue" stroke="midnightblue" points="244.85,-13.5 254.85,-10 244.85,-6.5 244.85,-13.5"/>
</g>
</g>
</svg>
