<?xml version="1.0" encoding="UTF-8" standalone="no"?>
<!DOCTYPE svg PUBLIC "-//W3C//DTD SVG 1.1//EN"
 "http://www.w3.org/Graphics/SVG/1.1/DTD/svg11.dtd">
<!-- Generated by graphviz version 2.43.0 (0)
 -->
<!-- Title: guarded&#45;aa&#45;pga.hpp Pages: 1 -->
<svg width="1291pt" height="330pt"
 viewBox="0.00 0.00 1290.50 330.00" xmlns="http://www.w3.org/2000/svg" xmlns:xlink="http://www.w3.org/1999/xlink">
<g id="graph0" class="graph" transform="scale(1 1) rotate(0) translate(4 326)">
<title>guarded&#45;aa&#45;pga.hpp</title>
<polygon fill="white" stroke="transparent" points="-4,4 -4,-326 1286.5,-326 1286.5,4 -4,4"/>
<!-- Node1 -->
<g id="node1" class="node">
<title>Node1</title>
<g id="a_node1"><a xlink:title=" ">
<polygon fill="#bfbfbf" stroke="black" points="768,-302.5 768,-321.5 883,-321.5 883,-302.5 768,-302.5"/>
<text text-anchor="middle" x="825.5" y="-309.5" font-family="Helvetica,sans-Serif" font-size="10.00">guarded&#45;aa&#45;pga.hpp</text>
</a>
</g>
</g>
<!-- Node2 -->
<g id="node2" class="node">
<title>Node2</title>
<g id="a_node2"><a xlink:href="panoc-stop-crit_8hpp.html" target="_top" xlink:title=" ">
<polygon fill="white" stroke="black" points="177,-168.5 177,-198.5 296,-198.5 296,-168.5 177,-168.5"/>
<text text-anchor="start" x="185" y="-186.5" font-family="Helvetica,sans-Serif" font-size="10.00">panoc&#45;alm/inner/decl</text>
<text text-anchor="middle" x="236.5" y="-175.5" font-family="Helvetica,sans-Serif" font-size="10.00">/panoc&#45;stop&#45;crit.hpp</text>
</a>
</g>
</g>
<!-- Node1&#45;&gt;Node2 -->
<g id="edge1" class="edge">
<title>Node1&#45;&gt;Node2</title>
<path fill="none" stroke="midnightblue" d="M767.92,-309.12C659.45,-304.98 429.06,-293.2 354.5,-266 317.63,-252.55 281.42,-224.76 259.04,-205.39"/>
<polygon fill="midnightblue" stroke="midnightblue" points="261.26,-202.68 251.45,-198.68 256.62,-207.92 261.26,-202.68"/>
</g>
<!-- Node4 -->
<g id="node4" class="node">
<title>Node4</title>
<g id="a_node4"><a xlink:title=" ">
<polygon fill="white" stroke="#bfbfbf" points="75,-112.5 75,-131.5 140,-131.5 140,-112.5 75,-112.5"/>
<text text-anchor="middle" x="107.5" y="-119.5" font-family="Helvetica,sans-Serif" font-size="10.00">stdexcept</text>
</a>
</g>
</g>
<!-- Node1&#45;&gt;Node4 -->
<g id="edge38" class="edge">
<title>Node1&#45;&gt;Node4</title>
<path fill="none" stroke="midnightblue" d="M767.94,-308.98C649.61,-304.37 382.83,-291.44 295.5,-266 233.85,-248.04 216.93,-239.99 167.5,-199 147.16,-182.14 129.18,-157.34 118.33,-140.7"/>
<polygon fill="midnightblue" stroke="midnightblue" points="121.11,-138.54 112.8,-131.97 115.2,-142.29 121.11,-138.54"/>
</g>
<!-- Node5 -->
<g id="node5" class="node">
<title>Node5</title>
<g id="a_node5"><a xlink:href="anderson-helpers_8hpp.html" target="_top" xlink:title=" ">
<polygon fill="white" stroke="black" points="364,-235.5 364,-265.5 491,-265.5 491,-235.5 364,-235.5"/>
<text text-anchor="start" x="372" y="-253.5" font-family="Helvetica,sans-Serif" font-size="10.00">panoc&#45;alm/inner/detail</text>
<text text-anchor="middle" x="427.5" y="-242.5" font-family="Helvetica,sans-Serif" font-size="10.00">/anderson&#45;helpers.hpp</text>
</a>
</g>
</g>
<!-- Node1&#45;&gt;Node5 -->
<g id="edge4" class="edge">
<title>Node1&#45;&gt;Node5</title>
<path fill="none" stroke="midnightblue" d="M767.93,-303.12C705.28,-294.44 602.17,-279.87 513.5,-266 509.57,-265.39 505.55,-264.75 501.48,-264.09"/>
<polygon fill="midnightblue" stroke="midnightblue" points="501.78,-260.59 491.34,-262.44 500.65,-267.5 501.78,-260.59"/>
</g>
<!-- Node14 -->
<g id="node14" class="node">
<title>Node14</title>
<g id="a_node14"><a xlink:href="panoc-helpers_8hpp.html" target="_top" xlink:title=" ">
<polygon fill="white" stroke="black" points="523,-235.5 523,-265.5 650,-265.5 650,-235.5 523,-235.5"/>
<text text-anchor="start" x="531" y="-253.5" font-family="Helvetica,sans-Serif" font-size="10.00">panoc&#45;alm/inner/detail</text>
<text text-anchor="middle" x="586.5" y="-242.5" font-family="Helvetica,sans-Serif" font-size="10.00">/panoc&#45;helpers.hpp</text>
</a>
</g>
</g>
<!-- Node1&#45;&gt;Node14 -->
<g id="edge14" class="edge">
<title>Node1&#45;&gt;Node14</title>
<path fill="none" stroke="midnightblue" d="M791.26,-302.48C755.26,-293.51 697.72,-279.19 652.79,-268"/>
<polygon fill="midnightblue" stroke="midnightblue" points="653.38,-264.54 642.83,-265.52 651.69,-271.34 653.38,-264.54"/>
</g>
<!-- Node15 -->
<g id="node15" class="node">
<title>Node15</title>
<g id="a_node15"><a xlink:href="atomic__stop__signal_8hpp.html" target="_top" xlink:title=" ">
<polygon fill="white" stroke="black" points="712.5,-168.5 712.5,-198.5 836.5,-198.5 836.5,-168.5 712.5,-168.5"/>
<text text-anchor="start" x="720.5" y="-186.5" font-family="Helvetica,sans-Serif" font-size="10.00">panoc&#45;alm/util/atomic</text>
<text text-anchor="middle" x="774.5" y="-175.5" font-family="Helvetica,sans-Serif" font-size="10.00">_stop_signal.hpp</text>
</a>
</g>
</g>
<!-- Node1&#45;&gt;Node15 -->
<g id="edge29" class="edge">
<title>Node1&#45;&gt;Node15</title>
<path fill="none" stroke="midnightblue" d="M821.99,-302.31C814.3,-283.21 795.69,-237.07 784.19,-208.52"/>
<polygon fill="midnightblue" stroke="midnightblue" points="787.29,-206.85 780.3,-198.89 780.79,-209.47 787.29,-206.85"/>
</g>
<!-- Node19 -->
<g id="node19" class="node">
<title>Node19</title>
<g id="a_node19"><a xlink:title=" ">
<polygon fill="white" stroke="#bfbfbf" points="826.5,-112.5 826.5,-131.5 878.5,-131.5 878.5,-112.5 826.5,-112.5"/>
<text text-anchor="middle" x="852.5" y="-119.5" font-family="Helvetica,sans-Serif" font-size="10.00">cassert</text>
</a>
</g>
</g>
<!-- Node1&#45;&gt;Node19 -->
<g id="edge33" class="edge">
<title>Node1&#45;&gt;Node19</title>
<path fill="none" stroke="midnightblue" d="M807.84,-302.47C765.34,-280.81 663.71,-221.58 703.5,-168 706.98,-163.32 773.54,-144.48 816.51,-132.71"/>
<polygon fill="midnightblue" stroke="midnightblue" points="817.62,-136.04 826.35,-130.03 815.78,-129.29 817.62,-136.04"/>
</g>
<!-- Node20 -->
<g id="node20" class="node">
<title>Node20</title>
<g id="a_node20"><a xlink:title=" ">
<polygon fill="white" stroke="#bfbfbf" points="964.5,-112.5 964.5,-131.5 1014.5,-131.5 1014.5,-112.5 964.5,-112.5"/>
<text text-anchor="middle" x="989.5" y="-119.5" font-family="Helvetica,sans-Serif" font-size="10.00">chrono</text>
</a>
</g>
</g>
<!-- Node1&#45;&gt;Node20 -->
<g id="edge34" class="edge">
<title>Node1&#45;&gt;Node20</title>
<path fill="none" stroke="midnightblue" d="M866.06,-302.47C915.81,-289.6 998.03,-259.93 1034.5,-199 1041.58,-187.18 1039.77,-180.73 1034.5,-168 1029.58,-156.12 1019.83,-145.74 1010.67,-137.96"/>
<polygon fill="midnightblue" stroke="midnightblue" points="1012.58,-135.01 1002.56,-131.56 1008.25,-140.51 1012.58,-135.01"/>
</g>
<!-- Node23 -->
<g id="node23" class="node">
<title>Node23</title>
<g id="a_node23"><a xlink:href="solverstatus_8hpp.html" target="_top" xlink:title=" ">
<polygon fill="white" stroke="black" points="855,-174 855,-193 1026,-193 1026,-174 855,-174"/>
<text text-anchor="middle" x="940.5" y="-181" font-family="Helvetica,sans-Serif" font-size="10.00">panoc&#45;alm/util/solverstatus.hpp</text>
</a>
</g>
</g>
<!-- Node1&#45;&gt;Node23 -->
<g id="edge32" class="edge">
<title>Node1&#45;&gt;Node23</title>
<path fill="none" stroke="midnightblue" d="M833.4,-302.31C852.44,-281.36 901.09,-227.85 925.72,-200.75"/>
<polygon fill="midnightblue" stroke="midnightblue" points="928.4,-203.01 932.54,-193.26 923.22,-198.3 928.4,-203.01"/>
</g>
<!-- Node25 -->
<g id="node25" class="node">
<title>Node25</title>
<g id="a_node25"><a xlink:href="lipschitz_8hpp.html" target="_top" xlink:title=" ">
<polygon fill="white" stroke="black" points="1082.5,-174 1082.5,-193 1234.5,-193 1234.5,-174 1082.5,-174"/>
<text text-anchor="middle" x="1158.5" y="-181" font-family="Helvetica,sans-Serif" font-size="10.00">panoc&#45;alm/util/lipschitz.hpp</text>
</a>
</g>
</g>
<!-- Node1&#45;&gt;Node25 -->
<g id="edge30" class="edge">
<title>Node1&#45;&gt;Node25</title>
<path fill="none" stroke="midnightblue" d="M883.15,-304.74C925.36,-298.65 983.26,-287.12 1030.5,-266 1052.01,-256.39 1053.8,-247.92 1073.5,-235 1093.61,-221.82 1117.15,-207.94 1134.36,-198.08"/>
<polygon fill="midnightblue" stroke="midnightblue" points="1136.25,-201.03 1143.21,-193.04 1132.78,-194.95 1136.25,-201.03"/>
</g>
<!-- Node26 -->
<g id="node26" class="node">
<title>Node26</title>
<g id="a_node26"><a xlink:title=" ">
<polygon fill="white" stroke="#bfbfbf" points="1083,-241 1083,-260 1130,-260 1130,-241 1083,-241"/>
<text text-anchor="middle" x="1106.5" y="-248" font-family="Helvetica,sans-Serif" font-size="10.00">cmath</text>
</a>
</g>
</g>
<!-- Node1&#45;&gt;Node26 -->
<g id="edge35" class="edge">
<title>Node1&#45;&gt;Node26</title>
<path fill="none" stroke="midnightblue" d="M883.13,-303.34C932.79,-296.03 1006.13,-283.52 1068.5,-266 1071.15,-265.26 1073.87,-264.4 1076.59,-263.49"/>
<polygon fill="midnightblue" stroke="midnightblue" points="1078,-266.7 1086.22,-260.02 1075.62,-260.12 1078,-266.7"/>
</g>
<!-- Node27 -->
<g id="node27" class="node">
<title>Node27</title>
<g id="a_node27"><a xlink:title=" ">
<polygon fill="white" stroke="#bfbfbf" points="1148.5,-241 1148.5,-260 1204.5,-260 1204.5,-241 1148.5,-241"/>
<text text-anchor="middle" x="1176.5" y="-248" font-family="Helvetica,sans-Serif" font-size="10.00">iomanip</text>
</a>
</g>
</g>
<!-- Node1&#45;&gt;Node27 -->
<g id="edge36" class="edge">
<title>Node1&#45;&gt;Node27</title>
<path fill="none" stroke="midnightblue" d="M883.08,-306.57C946.45,-300.82 1050.95,-288.7 1138.5,-266 1141.32,-265.27 1144.22,-264.4 1147.09,-263.45"/>
<polygon fill="midnightblue" stroke="midnightblue" points="1148.42,-266.69 1156.66,-260.02 1146.06,-260.1 1148.42,-266.69"/>
</g>
<!-- Node28 -->
<g id="node28" class="node">
<title>Node28</title>
<g id="a_node28"><a xlink:title=" ">
<polygon fill="white" stroke="#bfbfbf" points="1222.5,-241 1222.5,-260 1282.5,-260 1282.5,-241 1222.5,-241"/>
<text text-anchor="middle" x="1252.5" y="-248" font-family="Helvetica,sans-Serif" font-size="10.00">iostream</text>
</a>
</g>
</g>
<!-- Node1&#45;&gt;Node28 -->
<g id="edge37" class="edge">
<title>Node1&#45;&gt;Node28</title>
<path fill="none" stroke="midnightblue" d="M883.12,-308.64C959.56,-304.54 1098.27,-293.67 1213.5,-266 1216.49,-265.28 1219.57,-264.4 1222.62,-263.43"/>
<polygon fill="midnightblue" stroke="midnightblue" points="1223.85,-266.71 1232.14,-260.12 1221.55,-260.1 1223.85,-266.71"/>
</g>
<!-- Node3 -->
<g id="node3" class="node">
<title>Node3</title>
<g id="a_node3"><a xlink:title=" ">
<polygon fill="white" stroke="#bfbfbf" points="0,-112.5 0,-131.5 57,-131.5 57,-112.5 0,-112.5"/>
<text text-anchor="middle" x="28.5" y="-119.5" font-family="Helvetica,sans-Serif" font-size="10.00">ostream</text>
</a>
</g>
</g>
<!-- Node2&#45;&gt;Node3 -->
<g id="edge2" class="edge">
<title>Node2&#45;&gt;Node3</title>
<path fill="none" stroke="midnightblue" d="M187.47,-168.47C150.68,-157.95 101.01,-143.74 67.04,-134.03"/>
<polygon fill="midnightblue" stroke="midnightblue" points="67.61,-130.55 57.04,-131.16 65.69,-137.28 67.61,-130.55"/>
</g>
<!-- Node2&#45;&gt;Node4 -->
<g id="edge3" class="edge">
<title>Node2&#45;&gt;Node4</title>
<path fill="none" stroke="midnightblue" d="M205.93,-168.4C184.57,-158.55 156.28,-145.5 135.52,-135.92"/>
<polygon fill="midnightblue" stroke="midnightblue" points="136.82,-132.67 126.27,-131.66 133.89,-139.02 136.82,-132.67"/>
</g>
<!-- Node6 -->
<g id="node6" class="node">
<title>Node6</title>
<g id="a_node6"><a xlink:href="limited-memory-qr_8hpp.html" target="_top" xlink:title=" ">
<polygon fill="white" stroke="black" points="353,-168.5 353,-198.5 486,-198.5 486,-168.5 353,-168.5"/>
<text text-anchor="start" x="361" y="-186.5" font-family="Helvetica,sans-Serif" font-size="10.00">panoc&#45;alm/inner/detail</text>
<text text-anchor="middle" x="419.5" y="-175.5" font-family="Helvetica,sans-Serif" font-size="10.00">/limited&#45;memory&#45;qr.hpp</text>
</a>
</g>
</g>
<!-- Node5&#45;&gt;Node6 -->
<g id="edge5" class="edge">
<title>Node5&#45;&gt;Node6</title>
<path fill="none" stroke="midnightblue" d="M425.76,-235.4C424.8,-227.56 423.57,-217.6 422.46,-208.57"/>
<polygon fill="midnightblue" stroke="midnightblue" points="425.93,-208.07 421.23,-198.58 418.98,-208.93 425.93,-208.07"/>
</g>
<!-- Node7 -->
<g id="node7" class="node">
<title>Node7</title>
<g id="a_node7"><a xlink:title=" ">
<polygon fill="white" stroke="#bfbfbf" points="196.5,-112.5 196.5,-131.5 272.5,-131.5 272.5,-112.5 196.5,-112.5"/>
<text text-anchor="middle" x="234.5" y="-119.5" font-family="Helvetica,sans-Serif" font-size="10.00">Eigen/Jacobi</text>
</a>
</g>
</g>
<!-- Node6&#45;&gt;Node7 -->
<g id="edge6" class="edge">
<title>Node6&#45;&gt;Node7</title>
<path fill="none" stroke="midnightblue" d="M375.66,-168.4C343.69,-158.12 300.88,-144.35 270.82,-134.68"/>
<polygon fill="midnightblue" stroke="midnightblue" points="271.74,-131.3 261.15,-131.57 269.6,-137.96 271.74,-131.3"/>
</g>
<!-- Node8 -->
<g id="node8" class="node">
<title>Node8</title>
<g id="a_node8"><a xlink:title=" ">
<polygon fill="white" stroke="#bfbfbf" points="207,-56.5 207,-75.5 260,-75.5 260,-56.5 207,-56.5"/>
<text text-anchor="middle" x="233.5" y="-63.5" font-family="Helvetica,sans-Serif" font-size="10.00">cstddef</text>
</a>
</g>
</g>
<!-- Node6&#45;&gt;Node8 -->
<g id="edge7" class="edge">
<title>Node6&#45;&gt;Node8</title>
<path fill="none" stroke="midnightblue" d="M352.9,-170.11C286.24,-157.4 192.79,-138.57 187.5,-132 174.08,-115.35 193.68,-95.09 211.28,-81.66"/>
<polygon fill="midnightblue" stroke="midnightblue" points="213.55,-84.34 219.62,-75.66 209.46,-78.66 213.55,-84.34"/>
</g>
<!-- Node9 -->
<g id="node9" class="node">
<title>Node9</title>
<g id="a_node9"><a xlink:href="ringbuffer_8hpp.html" target="_top" xlink:title=" ">
<polygon fill="white" stroke="black" points="290.5,-112.5 290.5,-131.5 448.5,-131.5 448.5,-112.5 290.5,-112.5"/>
<text text-anchor="middle" x="369.5" y="-119.5" font-family="Helvetica,sans-Serif" font-size="10.00">panoc&#45;alm/util/ringbuffer.hpp</text>
</a>
</g>
</g>
<!-- Node6&#45;&gt;Node9 -->
<g id="edge8" class="edge">
<title>Node6&#45;&gt;Node9</title>
<path fill="none" stroke="midnightblue" d="M407.65,-168.4C400.39,-159.75 391.05,-148.64 383.43,-139.58"/>
<polygon fill="midnightblue" stroke="midnightblue" points="385.89,-137.06 376.78,-131.66 380.53,-141.57 385.89,-137.06"/>
</g>
<!-- Node11 -->
<g id="node11" class="node">
<title>Node11</title>
<g id="a_node11"><a xlink:href="vec_8hpp.html" target="_top" xlink:title=" ">
<polygon fill="white" stroke="black" points="632.5,-56.5 632.5,-75.5 760.5,-75.5 760.5,-56.5 632.5,-56.5"/>
<text text-anchor="middle" x="696.5" y="-63.5" font-family="Helvetica,sans-Serif" font-size="10.00">panoc&#45;alm/util/vec.hpp</text>
</a>
</g>
</g>
<!-- Node6&#45;&gt;Node11 -->
<g id="edge11" class="edge">
<title>Node6&#45;&gt;Node11</title>
<path fill="none" stroke="midnightblue" d="M430.78,-168.22C444.37,-152.04 468.74,-126.07 495.5,-112 534.66,-91.41 582.92,-80.21 622.34,-74.13"/>
<polygon fill="midnightblue" stroke="midnightblue" points="623.03,-77.57 632.42,-72.66 622.02,-70.64 623.03,-77.57"/>
</g>
<!-- Node13 -->
<g id="node13" class="node">
<title>Node13</title>
<g id="a_node13"><a xlink:title=" ">
<polygon fill="white" stroke="#bfbfbf" points="505,-112.5 505,-131.5 574,-131.5 574,-112.5 505,-112.5"/>
<text text-anchor="middle" x="539.5" y="-119.5" font-family="Helvetica,sans-Serif" font-size="10.00">type_traits</text>
</a>
</g>
</g>
<!-- Node6&#45;&gt;Node13 -->
<g id="edge13" class="edge">
<title>Node6&#45;&gt;Node13</title>
<path fill="none" stroke="midnightblue" d="M447.94,-168.4C467.62,-158.64 493.64,-145.74 512.91,-136.18"/>
<polygon fill="midnightblue" stroke="midnightblue" points="514.63,-139.24 522.04,-131.66 511.52,-132.96 514.63,-139.24"/>
</g>
<!-- Node9&#45;&gt;Node8 -->
<g id="edge9" class="edge">
<title>Node9&#45;&gt;Node8</title>
<path fill="none" stroke="midnightblue" d="M347.95,-112.44C325.47,-103.52 290.01,-89.44 264.52,-79.32"/>
<polygon fill="midnightblue" stroke="midnightblue" points="265.53,-75.95 254.95,-75.52 262.95,-82.46 265.53,-75.95"/>
</g>
<!-- Node10 -->
<g id="node10" class="node">
<title>Node10</title>
<g id="a_node10"><a xlink:title=" ">
<polygon fill="white" stroke="#bfbfbf" points="343,-56.5 343,-75.5 396,-75.5 396,-56.5 343,-56.5"/>
<text text-anchor="middle" x="369.5" y="-63.5" font-family="Helvetica,sans-Serif" font-size="10.00">iterator</text>
</a>
</g>
</g>
<!-- Node9&#45;&gt;Node10 -->
<g id="edge10" class="edge">
<title>Node9&#45;&gt;Node10</title>
<path fill="none" stroke="midnightblue" d="M369.5,-112.08C369.5,-105.01 369.5,-94.86 369.5,-85.99"/>
<polygon fill="midnightblue" stroke="midnightblue" points="373,-85.75 369.5,-75.75 366,-85.75 373,-85.75"/>
</g>
<!-- Node12 -->
<g id="node12" class="node">
<title>Node12</title>
<g id="a_node12"><a xlink:title=" ">
<polygon fill="white" stroke="#bfbfbf" points="662,-0.5 662,-19.5 731,-19.5 731,-0.5 662,-0.5"/>
<text text-anchor="middle" x="696.5" y="-7.5" font-family="Helvetica,sans-Serif" font-size="10.00">Eigen/Core</text>
</a>
</g>
</g>
<!-- Node11&#45;&gt;Node12 -->
<g id="edge12" class="edge">
<title>Node11&#45;&gt;Node12</title>
<path fill="none" stroke="midnightblue" d="M696.5,-56.08C696.5,-49.01 696.5,-38.86 696.5,-29.99"/>
<polygon fill="midnightblue" stroke="midnightblue" points="700,-29.75 696.5,-19.75 693,-29.75 700,-29.75"/>
</g>
<!-- Node14&#45;&gt;Node2 -->
<g id="edge15" class="edge">
<title>Node14&#45;&gt;Node2</title>
<path fill="none" stroke="midnightblue" d="M522.88,-238.09C466.91,-228 383.25,-212.78 310.5,-199 309.05,-198.73 307.59,-198.45 306.12,-198.17"/>
<polygon fill="midnightblue" stroke="midnightblue" points="306.74,-194.72 296.26,-196.28 305.42,-201.6 306.74,-194.72"/>
</g>
<!-- Node14&#45;&gt;Node4 -->
<g id="edge28" class="edge">
<title>Node14&#45;&gt;Node4</title>
<path fill="none" stroke="midnightblue" d="M522.92,-237.87C456.47,-225.46 359.64,-206.57 343.5,-199 323.45,-189.6 324.46,-177.59 304.5,-168 277.64,-155.09 199.65,-139.49 150.24,-130.46"/>
<polygon fill="midnightblue" stroke="midnightblue" points="150.62,-126.98 140.15,-128.64 149.37,-133.86 150.62,-126.98"/>
</g>
<!-- Node14&#45;&gt;Node15 -->
<g id="edge16" class="edge">
<title>Node14&#45;&gt;Node15</title>
<path fill="none" stroke="midnightblue" d="M627.29,-235.4C655.75,-225.56 693.9,-212.37 724.23,-201.88"/>
<polygon fill="midnightblue" stroke="midnightblue" points="725.48,-205.15 733.79,-198.58 723.19,-198.54 725.48,-205.15"/>
</g>
<!-- Node17 -->
<g id="node17" class="node">
<title>Node17</title>
<g id="a_node17"><a xlink:href="include_2panoc-alm_2util_2problem_8hpp.html" target="_top" xlink:title=" ">
<polygon fill="white" stroke="black" points="504.5,-174 504.5,-193 656.5,-193 656.5,-174 504.5,-174"/>
<text text-anchor="middle" x="580.5" y="-181" font-family="Helvetica,sans-Serif" font-size="10.00">panoc&#45;alm/util/problem.hpp</text>
</a>
</g>
</g>
<!-- Node14&#45;&gt;Node17 -->
<g id="edge18" class="edge">
<title>Node14&#45;&gt;Node17</title>
<path fill="none" stroke="midnightblue" d="M585.2,-235.4C584.33,-225.96 583.17,-213.45 582.23,-203.19"/>
<polygon fill="midnightblue" stroke="midnightblue" points="585.71,-202.83 581.3,-193.19 578.74,-203.47 585.71,-202.83"/>
</g>
<!-- Node14&#45;&gt;Node23 -->
<g id="edge26" class="edge">
<title>Node14&#45;&gt;Node23</title>
<path fill="none" stroke="midnightblue" d="M650.2,-237.8C716.8,-225.57 820.34,-206.56 884.09,-194.86"/>
<polygon fill="midnightblue" stroke="midnightblue" points="884.76,-198.29 893.96,-193.04 883.5,-191.41 884.76,-198.29"/>
</g>
<!-- Node16 -->
<g id="node16" class="node">
<title>Node16</title>
<g id="a_node16"><a xlink:title=" ">
<polygon fill="white" stroke="#bfbfbf" points="896.5,-112.5 896.5,-131.5 946.5,-131.5 946.5,-112.5 896.5,-112.5"/>
<text text-anchor="middle" x="921.5" y="-119.5" font-family="Helvetica,sans-Serif" font-size="10.00">atomic</text>
</a>
</g>
</g>
<!-- Node15&#45;&gt;Node16 -->
<g id="edge17" class="edge">
<title>Node15&#45;&gt;Node16</title>
<path fill="none" stroke="midnightblue" d="M809.34,-168.4C834,-158.42 866.79,-145.15 890.53,-135.53"/>
<polygon fill="midnightblue" stroke="midnightblue" points="892.15,-138.65 900.11,-131.66 889.53,-132.17 892.15,-138.65"/>
</g>
<!-- Node17&#45;&gt;Node13 -->
<g id="edge25" class="edge">
<title>Node17&#45;&gt;Node13</title>
<path fill="none" stroke="midnightblue" d="M574.63,-173.98C568.54,-165.14 558.86,-151.09 551.2,-139.98"/>
<polygon fill="midnightblue" stroke="midnightblue" points="553.92,-137.76 545.36,-131.51 548.16,-141.73 553.92,-137.76"/>
</g>
<!-- Node18 -->
<g id="node18" class="node">
<title>Node18</title>
<g id="a_node18"><a xlink:href="box_8hpp.html" target="_top" xlink:title=" ">
<polygon fill="white" stroke="black" points="668.5,-112.5 668.5,-131.5 724.5,-131.5 724.5,-112.5 668.5,-112.5"/>
<text text-anchor="middle" x="696.5" y="-119.5" font-family="Helvetica,sans-Serif" font-size="10.00">box.hpp</text>
</a>
</g>
</g>
<!-- Node17&#45;&gt;Node18 -->
<g id="edge19" class="edge">
<title>Node17&#45;&gt;Node18</title>
<path fill="none" stroke="midnightblue" d="M597.12,-173.98C616.42,-164.08 648.46,-147.64 670.93,-136.12"/>
<polygon fill="midnightblue" stroke="midnightblue" points="672.61,-139.19 679.91,-131.51 669.42,-132.96 672.61,-139.19"/>
</g>
<!-- Node17&#45;&gt;Node19 -->
<g id="edge21" class="edge">
<title>Node17&#45;&gt;Node19</title>
<path fill="none" stroke="midnightblue" d="M622.37,-173.99C667.6,-164.7 742,-149.13 816.19,-132.01"/>
<polygon fill="midnightblue" stroke="midnightblue" points="817.23,-135.36 826.18,-129.69 815.65,-128.54 817.23,-135.36"/>
</g>
<!-- Node17&#45;&gt;Node20 -->
<g id="edge22" class="edge">
<title>Node17&#45;&gt;Node20</title>
<path fill="none" stroke="midnightblue" d="M651.65,-174C739.21,-163.35 883.95,-145.13 954.13,-132.02"/>
<polygon fill="midnightblue" stroke="midnightblue" points="955.18,-135.38 964.33,-130.04 953.85,-128.51 955.18,-135.38"/>
</g>
<!-- Node21 -->
<g id="node21" class="node">
<title>Node21</title>
<g id="a_node21"><a xlink:title=" ">
<polygon fill="white" stroke="#bfbfbf" points="743,-112.5 743,-131.5 808,-131.5 808,-112.5 743,-112.5"/>
<text text-anchor="middle" x="775.5" y="-119.5" font-family="Helvetica,sans-Serif" font-size="10.00">functional</text>
</a>
</g>
</g>
<!-- Node17&#45;&gt;Node21 -->
<g id="edge23" class="edge">
<title>Node17&#45;&gt;Node21</title>
<path fill="none" stroke="midnightblue" d="M608.44,-173.98C642.47,-163.59 700.08,-146.01 737.96,-134.45"/>
<polygon fill="midnightblue" stroke="midnightblue" points="739.07,-137.78 747.61,-131.51 737.03,-131.08 739.07,-137.78"/>
</g>
<!-- Node22 -->
<g id="node22" class="node">
<title>Node22</title>
<g id="a_node22"><a xlink:title=" ">
<polygon fill="white" stroke="#bfbfbf" points="592.5,-112.5 592.5,-131.5 650.5,-131.5 650.5,-112.5 592.5,-112.5"/>
<text text-anchor="middle" x="621.5" y="-119.5" font-family="Helvetica,sans-Serif" font-size="10.00">memory</text>
</a>
</g>
</g>
<!-- Node17&#45;&gt;Node22 -->
<g id="edge24" class="edge">
<title>Node17&#45;&gt;Node22</title>
<path fill="none" stroke="midnightblue" d="M586.37,-173.98C592.46,-165.14 602.14,-151.09 609.8,-139.98"/>
<polygon fill="midnightblue" stroke="midnightblue" points="612.84,-141.73 615.64,-131.51 607.08,-137.76 612.84,-141.73"/>
</g>
<!-- Node18&#45;&gt;Node11 -->
<g id="edge20" class="edge">
<title>Node18&#45;&gt;Node11</title>
<path fill="none" stroke="midnightblue" d="M696.5,-112.08C696.5,-105.01 696.5,-94.86 696.5,-85.99"/>
<polygon fill="midnightblue" stroke="midnightblue" points="700,-85.75 696.5,-75.75 693,-85.75 700,-85.75"/>
</g>
<!-- Node24 -->
<g id="node24" class="node">
<title>Node24</title>
<g id="a_node24"><a xlink:title=" ">
<polygon fill="white" stroke="#bfbfbf" points="1032.5,-112.5 1032.5,-131.5 1080.5,-131.5 1080.5,-112.5 1032.5,-112.5"/>
<text text-anchor="middle" x="1056.5" y="-119.5" font-family="Helvetica,sans-Serif" font-size="10.00">iosfwd</text>
</a>
</g>
</g>
<!-- Node23&#45;&gt;Node24 -->
<g id="edge27" class="edge">
<title>Node23&#45;&gt;Node24</title>
<path fill="none" stroke="midnightblue" d="M957.12,-173.98C976.42,-164.08 1008.46,-147.64 1030.93,-136.12"/>
<polygon fill="midnightblue" stroke="midnightblue" points="1032.61,-139.19 1039.91,-131.51 1029.42,-132.96 1032.61,-139.19"/>
</g>
<!-- Node25&#45;&gt;Node11 -->
<g id="edge31" class="edge">
<title>Node25&#45;&gt;Node11</title>
<path fill="none" stroke="midnightblue" d="M1152.93,-173.71C1142.58,-158.21 1118.73,-126.3 1089.5,-112 1035.06,-85.36 868.87,-74.06 770.91,-69.62"/>
<polygon fill="midnightblue" stroke="midnightblue" points="770.91,-66.11 760.77,-69.17 770.61,-73.11 770.91,-66.11"/>
</g>
</g>
</svg>
