<?xml version="1.0" encoding="UTF-8" standalone="no"?>
<!DOCTYPE svg PUBLIC "-//W3C//DTD SVG 1.1//EN"
 "http://www.w3.org/Graphics/SVG/1.1/DTD/svg11.dtd">
<!-- Generated by graphviz version 2.43.0 (0)
 -->
<!-- Title: panoc.hpp Pages: 1 -->
<svg width="500pt" height="196pt"
 viewBox="0.00 0.00 500.00 196.00" xmlns="http://www.w3.org/2000/svg" xmlns:xlink="http://www.w3.org/1999/xlink">
<g id="graph0" class="graph" transform="scale(1 1) rotate(0) translate(4 192)">
<title>panoc.hpp</title>
<polygon fill="white" stroke="transparent" points="-4,4 -4,-192 496,-192 496,4 -4,4"/>
<!-- Node1 -->
<g id="node1" class="node">
<title>Node1</title>
<g id="a_node1"><a xlink:title=" ">
<polygon fill="#bfbfbf" stroke="black" points="183.5,-168.5 183.5,-187.5 250.5,-187.5 250.5,-168.5 183.5,-168.5"/>
<text text-anchor="middle" x="217" y="-175.5" font-family="Helvetica,sans-Serif" font-size="10.00">panoc.hpp</text>
</a>
</g>
</g>
<!-- Node2 -->
<g id="node2" class="node">
<title>Node2</title>
<g id="a_node2"><a xlink:href="alm_8cpp.html" target="_top" xlink:title=" ">
<polygon fill="white" stroke="black" points="0,-112.5 0,-131.5 56,-131.5 56,-112.5 0,-112.5"/>
<text text-anchor="middle" x="28" y="-119.5" font-family="Helvetica,sans-Serif" font-size="10.00">alm.cpp</text>
</a>
</g>
</g>
<!-- Node1&#45;&gt;Node2 -->
<g id="edge1" class="edge">
<title>Node1&#45;&gt;Node2</title>
<path fill="none" stroke="midnightblue" d="M177.3,-165.66C141.06,-155.3 88.39,-140.25 56.26,-131.08"/>
<polygon fill="midnightblue" stroke="midnightblue" points="176.48,-169.06 187.05,-168.44 178.4,-162.33 176.48,-169.06"/>
</g>
<!-- Node3 -->
<g id="node3" class="node">
<title>Node3</title>
<g id="a_node3"><a xlink:href="Presentation_2Cpp_2main_8cpp.html" target="_top" xlink:title=" ">
<polygon fill="white" stroke="black" points="74,-112.5 74,-131.5 136,-131.5 136,-112.5 74,-112.5"/>
<text text-anchor="middle" x="105" y="-119.5" font-family="Helvetica,sans-Serif" font-size="10.00">main.cpp</text>
</a>
</g>
</g>
<!-- Node1&#45;&gt;Node3 -->
<g id="edge2" class="edge">
<title>Node1&#45;&gt;Node3</title>
<path fill="none" stroke="midnightblue" d="M189.75,-163.86C168.98,-153.85 140.98,-140.35 122.95,-131.65"/>
<polygon fill="midnightblue" stroke="midnightblue" points="188.48,-167.13 199.01,-168.32 191.52,-160.83 188.48,-167.13"/>
</g>
<!-- Node4 -->
<g id="node4" class="node">
<title>Node4</title>
<g id="a_node4"><a xlink:href="panoc_8cpp.html" target="_top" xlink:title=" ">
<polygon fill="white" stroke="black" points="154,-112.5 154,-131.5 220,-131.5 220,-112.5 154,-112.5"/>
<text text-anchor="middle" x="187" y="-119.5" font-family="Helvetica,sans-Serif" font-size="10.00">panoc.cpp</text>
</a>
</g>
</g>
<!-- Node1&#45;&gt;Node4 -->
<g id="edge3" class="edge">
<title>Node1&#45;&gt;Node4</title>
<path fill="none" stroke="midnightblue" d="M207.15,-159.27C202.03,-150.05 195.98,-139.17 191.86,-131.75"/>
<polygon fill="midnightblue" stroke="midnightblue" points="204.13,-161.04 212.05,-168.08 210.25,-157.64 204.13,-161.04"/>
</g>
<!-- Node5 -->
<g id="node5" class="node">
<title>Node5</title>
<g id="a_node5"><a xlink:href="panocpy_8cpp.html" target="_top" xlink:title="This file defines all Python bindings.">
<polygon fill="white" stroke="black" points="317.5,-0.5 317.5,-19.5 394.5,-19.5 394.5,-0.5 317.5,-0.5"/>
<text text-anchor="middle" x="356" y="-7.5" font-family="Helvetica,sans-Serif" font-size="10.00">panocpy.cpp</text>
</a>
</g>
</g>
<!-- Node1&#45;&gt;Node5 -->
<g id="edge4" class="edge">
<title>Node1&#45;&gt;Node5</title>
<path fill="none" stroke="midnightblue" d="M222.79,-158.78C232.53,-128.99 252.55,-71.59 267,-56 283.36,-38.35 308.19,-26.6 327.47,-19.54"/>
<polygon fill="midnightblue" stroke="midnightblue" points="219.43,-157.79 219.69,-168.38 226.09,-159.94 219.43,-157.79"/>
</g>
<!-- Node6 -->
<g id="node6" class="node">
<title>Node6</title>
<g id="a_node6"><a xlink:href="polymorphic-inner-solver_8hpp.html" target="_top" xlink:title=" ">
<polygon fill="white" stroke="black" points="276,-56.5 276,-75.5 436,-75.5 436,-56.5 276,-56.5"/>
<text text-anchor="middle" x="356" y="-63.5" font-family="Helvetica,sans-Serif" font-size="10.00">polymorphic&#45;inner&#45;solver.hpp</text>
</a>
</g>
</g>
<!-- Node1&#45;&gt;Node6 -->
<g id="edge5" class="edge">
<title>Node1&#45;&gt;Node6</title>
<path fill="none" stroke="midnightblue" d="M235.81,-162.12C265.31,-138.77 321.54,-94.27 345.14,-75.59"/>
<polygon fill="midnightblue" stroke="midnightblue" points="233.58,-159.42 227.91,-168.37 237.92,-164.91 233.58,-159.42"/>
</g>
<!-- Node7 -->
<g id="node7" class="node">
<title>Node7</title>
<g id="a_node7"><a xlink:href="polymorphic-panoc-direction_8hpp.html" target="_top" xlink:title=" ">
<polygon fill="white" stroke="black" points="314,-112.5 314,-131.5 492,-131.5 492,-112.5 314,-112.5"/>
<text text-anchor="middle" x="403" y="-119.5" font-family="Helvetica,sans-Serif" font-size="10.00">polymorphic&#45;panoc&#45;direction.hpp</text>
</a>
</g>
</g>
<!-- Node1&#45;&gt;Node7 -->
<g id="edge7" class="edge">
<title>Node1&#45;&gt;Node7</title>
<path fill="none" stroke="midnightblue" d="M256.38,-165.57C291.47,-155.38 342.02,-140.7 373.67,-131.52"/>
<polygon fill="midnightblue" stroke="midnightblue" points="255.1,-162.29 246.47,-168.44 257.05,-169.02 255.1,-162.29"/>
</g>
<!-- Node6&#45;&gt;Node5 -->
<g id="edge6" class="edge">
<title>Node6&#45;&gt;Node5</title>
<path fill="none" stroke="midnightblue" d="M356,-45.8C356,-36.91 356,-26.78 356,-19.75"/>
<polygon fill="midnightblue" stroke="midnightblue" points="352.5,-46.08 356,-56.08 359.5,-46.08 352.5,-46.08"/>
</g>
<!-- Node7&#45;&gt;Node5 -->
<g id="edge8" class="edge">
<title>Node7&#45;&gt;Node5</title>
<path fill="none" stroke="midnightblue" d="M423.75,-105.9C439.1,-92.8 455.63,-73.29 445,-56 433.57,-37.42 411.83,-26.23 392.7,-19.65"/>
<polygon fill="midnightblue" stroke="midnightblue" points="421.17,-103.48 415.53,-112.46 425.53,-108.95 421.17,-103.48"/>
</g>
<!-- Node7&#45;&gt;Node6 -->
<g id="edge9" class="edge">
<title>Node7&#45;&gt;Node6</title>
<path fill="none" stroke="midnightblue" d="M388.58,-104.43C380.34,-94.97 370.35,-83.48 363.62,-75.75"/>
<polygon fill="midnightblue" stroke="midnightblue" points="386.03,-106.84 395.24,-112.08 391.31,-102.24 386.03,-106.84"/>
</g>
</g>
</svg>
