<?xml version="1.0" encoding="UTF-8" standalone="no"?>
<!DOCTYPE svg PUBLIC "-//W3C//DTD SVG 1.1//EN"
 "http://www.w3.org/Graphics/SVG/1.1/DTD/svg11.dtd">
<!-- Generated by graphviz version 2.43.0 (0)
 -->
<!-- Title: panoc.hpp Pages: 1 -->
<svg width="1800pt" height="341pt"
 viewBox="0.00 0.00 1800.00 341.00" xmlns="http://www.w3.org/2000/svg" xmlns:xlink="http://www.w3.org/1999/xlink">
<g id="graph0" class="graph" transform="scale(1 1) rotate(0) translate(4 337)">
<title>panoc.hpp</title>
<polygon fill="white" stroke="transparent" points="-4,4 -4,-337 1796,-337 1796,4 -4,4"/>
<!-- Node1 -->
<g id="node1" class="node">
<title>Node1</title>
<g id="a_node1"><a xlink:title=" ">
<polygon fill="#bfbfbf" stroke="black" points="1511.5,-313.5 1511.5,-332.5 1578.5,-332.5 1578.5,-313.5 1511.5,-313.5"/>
<text text-anchor="middle" x="1545" y="-320.5" font-family="Helvetica,sans-Serif" font-size="10.00">panoc.hpp</text>
</a>
</g>
</g>
<!-- Node2 -->
<g id="node2" class="node">
<title>Node2</title>
<g id="a_node2"><a xlink:href="inner_2decl_2panoc_8hpp.html" target="_top" xlink:title=" ">
<polygon fill="white" stroke="black" points="557.5,-246.5 557.5,-276.5 676.5,-276.5 676.5,-246.5 557.5,-246.5"/>
<text text-anchor="start" x="565.5" y="-264.5" font-family="Helvetica,sans-Serif" font-size="10.00">panoc&#45;alm/inner/decl</text>
<text text-anchor="middle" x="617" y="-253.5" font-family="Helvetica,sans-Serif" font-size="10.00">/panoc.hpp</text>
</a>
</g>
</g>
<!-- Node1&#45;&gt;Node2 -->
<g id="edge1" class="edge">
<title>Node1&#45;&gt;Node2</title>
<path fill="none" stroke="midnightblue" d="M1511.42,-319.85C1376.6,-311.2 872.93,-278.91 686.75,-266.97"/>
<polygon fill="midnightblue" stroke="midnightblue" points="686.74,-263.46 676.54,-266.32 686.29,-270.45 686.74,-263.46"/>
</g>
<!-- Node8 -->
<g id="node8" class="node">
<title>Node8</title>
<g id="a_node8"><a xlink:title=" ">
<polygon fill="white" stroke="#bfbfbf" points="1455.5,-118 1455.5,-137 1520.5,-137 1520.5,-118 1455.5,-118"/>
<text text-anchor="middle" x="1488" y="-125" font-family="Helvetica,sans-Serif" font-size="10.00">stdexcept</text>
</a>
</g>
</g>
<!-- Node1&#45;&gt;Node8 -->
<g id="edge40" class="edge">
<title>Node1&#45;&gt;Node8</title>
<path fill="none" stroke="midnightblue" d="M1546.81,-313.45C1551.25,-290.49 1560.85,-226.01 1540,-179 1533.58,-164.52 1520.89,-152.06 1509.66,-143.15"/>
<polygon fill="midnightblue" stroke="midnightblue" points="1511.59,-140.22 1501.48,-137.04 1507.4,-145.83 1511.59,-140.22"/>
</g>
<!-- Node9 -->
<g id="node9" class="node">
<title>Node9</title>
<g id="a_node9"><a xlink:href="panoc-direction-update_8hpp.html" target="_top" xlink:title=" ">
<polygon fill="white" stroke="black" points="644.5,-179.5 644.5,-209.5 821.5,-209.5 821.5,-179.5 644.5,-179.5"/>
<text text-anchor="start" x="652.5" y="-197.5" font-family="Helvetica,sans-Serif" font-size="10.00">panoc&#45;alm/inner/directions</text>
<text text-anchor="middle" x="733" y="-186.5" font-family="Helvetica,sans-Serif" font-size="10.00">/decl/panoc&#45;direction&#45;update.hpp</text>
</a>
</g>
</g>
<!-- Node1&#45;&gt;Node9 -->
<g id="edge35" class="edge">
<title>Node1&#45;&gt;Node9</title>
<path fill="none" stroke="midnightblue" d="M1511.47,-317.02C1456.3,-308.8 1342.92,-291.85 1247,-277 1101.83,-254.53 933.73,-227.73 830.38,-211.16"/>
<polygon fill="midnightblue" stroke="midnightblue" points="830.71,-207.67 820.28,-209.54 829.6,-214.58 830.71,-207.67"/>
</g>
<!-- Node17 -->
<g id="node17" class="node">
<title>Node17</title>
<g id="a_node17"><a xlink:title=" ">
<polygon fill="white" stroke="#bfbfbf" points="1167,-118 1167,-137 1219,-137 1219,-118 1167,-118"/>
<text text-anchor="middle" x="1193" y="-125" font-family="Helvetica,sans-Serif" font-size="10.00">cassert</text>
</a>
</g>
</g>
<!-- Node1&#45;&gt;Node17 -->
<g id="edge36" class="edge">
<title>Node1&#45;&gt;Node17</title>
<path fill="none" stroke="midnightblue" d="M1543.27,-313.47C1537.66,-288.18 1517.44,-213.24 1469,-179 1380.56,-116.49 1332.36,-171.94 1228,-143 1225.56,-142.32 1223.06,-141.52 1220.58,-140.65"/>
<polygon fill="midnightblue" stroke="midnightblue" points="1221.82,-137.38 1211.23,-137.04 1219.3,-143.91 1221.82,-137.38"/>
</g>
<!-- Node26 -->
<g id="node26" class="node">
<title>Node26</title>
<g id="a_node26"><a xlink:href="panoc-helpers_8hpp.html" target="_top" xlink:title=" ">
<polygon fill="white" stroke="black" points="1255.5,-246.5 1255.5,-276.5 1382.5,-276.5 1382.5,-246.5 1255.5,-246.5"/>
<text text-anchor="start" x="1263.5" y="-264.5" font-family="Helvetica,sans-Serif" font-size="10.00">panoc&#45;alm/inner/detail</text>
<text text-anchor="middle" x="1319" y="-253.5" font-family="Helvetica,sans-Serif" font-size="10.00">/panoc&#45;helpers.hpp</text>
</a>
</g>
</g>
<!-- Node1&#45;&gt;Node26 -->
<g id="edge29" class="edge">
<title>Node1&#45;&gt;Node26</title>
<path fill="none" stroke="midnightblue" d="M1512.62,-313.48C1478.65,-304.53 1424.4,-290.25 1381.95,-279.07"/>
<polygon fill="midnightblue" stroke="midnightblue" points="1382.83,-275.68 1372.26,-276.52 1381.04,-282.45 1382.83,-275.68"/>
</g>
<!-- Node27 -->
<g id="node27" class="node">
<title>Node27</title>
<g id="a_node27"><a xlink:title=" ">
<polygon fill="white" stroke="#bfbfbf" points="1592.5,-252 1592.5,-271 1639.5,-271 1639.5,-252 1592.5,-252"/>
<text text-anchor="middle" x="1616" y="-259" font-family="Helvetica,sans-Serif" font-size="10.00">cmath</text>
</a>
</g>
</g>
<!-- Node1&#45;&gt;Node27 -->
<g id="edge37" class="edge">
<title>Node1&#45;&gt;Node27</title>
<path fill="none" stroke="midnightblue" d="M1555.17,-313.48C1566.35,-304.11 1584.52,-288.88 1598.09,-277.51"/>
<polygon fill="midnightblue" stroke="midnightblue" points="1600.43,-280.11 1605.85,-271.01 1595.93,-274.75 1600.43,-280.11"/>
</g>
<!-- Node28 -->
<g id="node28" class="node">
<title>Node28</title>
<g id="a_node28"><a xlink:title=" ">
<polygon fill="white" stroke="#bfbfbf" points="1658,-252 1658,-271 1714,-271 1714,-252 1658,-252"/>
<text text-anchor="middle" x="1686" y="-259" font-family="Helvetica,sans-Serif" font-size="10.00">iomanip</text>
</a>
</g>
</g>
<!-- Node1&#45;&gt;Node28 -->
<g id="edge38" class="edge">
<title>Node1&#45;&gt;Node28</title>
<path fill="none" stroke="midnightblue" d="M1565.2,-313.48C1589.07,-303.4 1629,-286.55 1656.37,-275"/>
<polygon fill="midnightblue" stroke="midnightblue" points="1657.98,-278.12 1665.84,-271.01 1655.26,-271.67 1657.98,-278.12"/>
</g>
<!-- Node29 -->
<g id="node29" class="node">
<title>Node29</title>
<g id="a_node29"><a xlink:title=" ">
<polygon fill="white" stroke="#bfbfbf" points="1732,-252 1732,-271 1792,-271 1792,-252 1732,-252"/>
<text text-anchor="middle" x="1762" y="-259" font-family="Helvetica,sans-Serif" font-size="10.00">iostream</text>
</a>
</g>
</g>
<!-- Node1&#45;&gt;Node29 -->
<g id="edge39" class="edge">
<title>Node1&#45;&gt;Node29</title>
<path fill="none" stroke="midnightblue" d="M1578.77,-314.61C1614.79,-306.46 1673.39,-292.44 1723,-277 1725.56,-276.2 1728.2,-275.33 1730.84,-274.42"/>
<polygon fill="midnightblue" stroke="midnightblue" points="1732.04,-277.71 1740.28,-271.05 1729.68,-271.12 1732.04,-277.71"/>
</g>
<!-- Node3 -->
<g id="node3" class="node">
<title>Node3</title>
<g id="a_node3"><a xlink:href="lbfgs-stepsize_8hpp.html" target="_top" xlink:title=" ">
<polygon fill="white" stroke="black" points="170.5,-179.5 170.5,-209.5 289.5,-209.5 289.5,-179.5 170.5,-179.5"/>
<text text-anchor="start" x="178.5" y="-197.5" font-family="Helvetica,sans-Serif" font-size="10.00">panoc&#45;alm/inner/decl</text>
<text text-anchor="middle" x="230" y="-186.5" font-family="Helvetica,sans-Serif" font-size="10.00">/lbfgs&#45;stepsize.hpp</text>
</a>
</g>
</g>
<!-- Node2&#45;&gt;Node3 -->
<g id="edge2" class="edge">
<title>Node2&#45;&gt;Node3</title>
<path fill="none" stroke="midnightblue" d="M557.46,-252.04C495.45,-243.01 395.28,-227.82 299.79,-210.28"/>
<polygon fill="midnightblue" stroke="midnightblue" points="300.14,-206.79 289.67,-208.41 298.87,-213.67 300.14,-206.79"/>
</g>
<!-- Node4 -->
<g id="node4" class="node">
<title>Node4</title>
<g id="a_node4"><a xlink:href="panoc-fwd_8hpp.html" target="_top" xlink:title=" ">
<polygon fill="white" stroke="black" points="307.5,-179.5 307.5,-209.5 426.5,-209.5 426.5,-179.5 307.5,-179.5"/>
<text text-anchor="start" x="315.5" y="-197.5" font-family="Helvetica,sans-Serif" font-size="10.00">panoc&#45;alm/inner/decl</text>
<text text-anchor="middle" x="367" y="-186.5" font-family="Helvetica,sans-Serif" font-size="10.00">/panoc&#45;fwd.hpp</text>
</a>
</g>
</g>
<!-- Node2&#45;&gt;Node4 -->
<g id="edge3" class="edge">
<title>Node2&#45;&gt;Node4</title>
<path fill="none" stroke="midnightblue" d="M563.06,-246.48C524.34,-236.41 472,-222.8 431.13,-212.17"/>
<polygon fill="midnightblue" stroke="midnightblue" points="431.83,-208.74 421.27,-209.61 430.07,-215.51 431.83,-208.74"/>
</g>
<!-- Node6 -->
<g id="node6" class="node">
<title>Node6</title>
<g id="a_node6"><a xlink:href="panoc-stop-crit_8hpp.html" target="_top" xlink:title=" ">
<polygon fill="white" stroke="black" points="1340.5,-179.5 1340.5,-209.5 1459.5,-209.5 1459.5,-179.5 1340.5,-179.5"/>
<text text-anchor="start" x="1348.5" y="-197.5" font-family="Helvetica,sans-Serif" font-size="10.00">panoc&#45;alm/inner/decl</text>
<text text-anchor="middle" x="1400" y="-186.5" font-family="Helvetica,sans-Serif" font-size="10.00">/panoc&#45;stop&#45;crit.hpp</text>
</a>
</g>
</g>
<!-- Node2&#45;&gt;Node6 -->
<g id="edge5" class="edge">
<title>Node2&#45;&gt;Node6</title>
<path fill="none" stroke="midnightblue" d="M676.62,-259.1C798.05,-255.64 1082.85,-244.41 1330.48,-210.09"/>
<polygon fill="midnightblue" stroke="midnightblue" points="1330.96,-213.56 1340.38,-208.71 1329.99,-206.63 1330.96,-213.56"/>
</g>
<!-- Node2&#45;&gt;Node9 -->
<g id="edge8" class="edge">
<title>Node2&#45;&gt;Node9</title>
<path fill="none" stroke="midnightblue" d="M642.17,-246.4C658.74,-237.11 680.64,-224.84 698.78,-214.67"/>
<polygon fill="midnightblue" stroke="midnightblue" points="700.87,-217.52 707.88,-209.58 697.44,-211.41 700.87,-217.52"/>
</g>
<!-- Node13 -->
<g id="node13" class="node">
<title>Node13</title>
<g id="a_node13"><a xlink:href="atomic__stop__signal_8hpp.html" target="_top" xlink:title=" ">
<polygon fill="white" stroke="black" points="839,-179.5 839,-209.5 963,-209.5 963,-179.5 839,-179.5"/>
<text text-anchor="start" x="847" y="-197.5" font-family="Helvetica,sans-Serif" font-size="10.00">panoc&#45;alm/util/atomic</text>
<text text-anchor="middle" x="901" y="-186.5" font-family="Helvetica,sans-Serif" font-size="10.00">_stop_signal.hpp</text>
</a>
</g>
</g>
<!-- Node2&#45;&gt;Node13 -->
<g id="edge12" class="edge">
<title>Node2&#45;&gt;Node13</title>
<path fill="none" stroke="midnightblue" d="M676.54,-246.87C721.18,-236.66 782.47,-222.63 829.72,-211.81"/>
<polygon fill="midnightblue" stroke="midnightblue" points="830.61,-215.2 839.58,-209.56 829.05,-208.38 830.61,-215.2"/>
</g>
<!-- Node14 -->
<g id="node14" class="node">
<title>Node14</title>
<g id="a_node14"><a xlink:title=" ">
<polygon fill="white" stroke="#bfbfbf" points="508,-118 508,-137 558,-137 558,-118 508,-118"/>
<text text-anchor="middle" x="533" y="-125" font-family="Helvetica,sans-Serif" font-size="10.00">atomic</text>
</a>
</g>
</g>
<!-- Node2&#45;&gt;Node14 -->
<g id="edge25" class="edge">
<title>Node2&#45;&gt;Node14</title>
<path fill="none" stroke="midnightblue" d="M579.04,-246.42C562.87,-238.36 545.55,-226.49 536,-210 524.88,-190.8 526.25,-164.58 528.98,-147.12"/>
<polygon fill="midnightblue" stroke="midnightblue" points="532.46,-147.54 530.86,-137.07 525.58,-146.26 532.46,-147.54"/>
</g>
<!-- Node15 -->
<g id="node15" class="node">
<title>Node15</title>
<g id="a_node15"><a xlink:href="lipschitz_8hpp.html" target="_top" xlink:title=" ">
<polygon fill="white" stroke="black" points="0,-185 0,-204 152,-204 152,-185 0,-185"/>
<text text-anchor="middle" x="76" y="-192" font-family="Helvetica,sans-Serif" font-size="10.00">panoc&#45;alm/util/lipschitz.hpp</text>
</a>
</g>
</g>
<!-- Node2&#45;&gt;Node15 -->
<g id="edge14" class="edge">
<title>Node2&#45;&gt;Node15</title>
<path fill="none" stroke="midnightblue" d="M557.47,-255.03C470.27,-246.77 302.78,-229.93 161,-210 151.96,-208.73 142.41,-207.24 133.1,-205.71"/>
<polygon fill="midnightblue" stroke="midnightblue" points="133.57,-202.24 123.13,-204.05 132.42,-209.15 133.57,-202.24"/>
</g>
<!-- Node16 -->
<g id="node16" class="node">
<title>Node16</title>
<g id="a_node16"><a xlink:href="include_2panoc-alm_2util_2problem_8hpp.html" target="_top" xlink:title=" ">
<polygon fill="white" stroke="black" points="981,-185 981,-204 1133,-204 1133,-185 981,-185"/>
<text text-anchor="middle" x="1057" y="-192" font-family="Helvetica,sans-Serif" font-size="10.00">panoc&#45;alm/util/problem.hpp</text>
</a>
</g>
</g>
<!-- Node2&#45;&gt;Node16 -->
<g id="edge16" class="edge">
<title>Node2&#45;&gt;Node16</title>
<path fill="none" stroke="midnightblue" d="M676.75,-252.51C747.36,-242.96 868.36,-226.21 972,-210 980.6,-208.66 989.67,-207.17 998.56,-205.69"/>
<polygon fill="midnightblue" stroke="midnightblue" points="999.21,-209.13 1008.49,-204.01 998.05,-202.22 999.21,-209.13"/>
</g>
<!-- Node18 -->
<g id="node18" class="node">
<title>Node18</title>
<g id="a_node18"><a xlink:title=" ">
<polygon fill="white" stroke="#bfbfbf" points="596,-118 596,-137 646,-137 646,-118 596,-118"/>
<text text-anchor="middle" x="621" y="-125" font-family="Helvetica,sans-Serif" font-size="10.00">chrono</text>
</a>
</g>
</g>
<!-- Node2&#45;&gt;Node18 -->
<g id="edge26" class="edge">
<title>Node2&#45;&gt;Node18</title>
<path fill="none" stroke="midnightblue" d="M617.43,-246.37C618.15,-222.5 619.62,-174.18 620.43,-147.41"/>
<polygon fill="midnightblue" stroke="midnightblue" points="623.93,-147.2 620.74,-137.1 616.94,-146.99 623.93,-147.2"/>
</g>
<!-- Node22 -->
<g id="node22" class="node">
<title>Node22</title>
<g id="a_node22"><a xlink:href="solverstatus_8hpp.html" target="_top" xlink:title=" ">
<polygon fill="white" stroke="black" points="1151.5,-185 1151.5,-204 1322.5,-204 1322.5,-185 1151.5,-185"/>
<text text-anchor="middle" x="1237" y="-192" font-family="Helvetica,sans-Serif" font-size="10.00">panoc&#45;alm/util/solverstatus.hpp</text>
</a>
</g>
</g>
<!-- Node2&#45;&gt;Node22 -->
<g id="edge23" class="edge">
<title>Node2&#45;&gt;Node22</title>
<path fill="none" stroke="midnightblue" d="M676.56,-255.86C774.04,-248.01 973.67,-230.93 1142,-210 1152.41,-208.71 1163.45,-207.17 1174.16,-205.59"/>
<polygon fill="midnightblue" stroke="midnightblue" points="1174.94,-209.02 1184.31,-204.08 1173.9,-202.09 1174.94,-209.02"/>
</g>
<!-- Node24 -->
<g id="node24" class="node">
<title>Node24</title>
<g id="a_node24"><a xlink:title=" ">
<polygon fill="white" stroke="#bfbfbf" points="445,-185 445,-204 489,-204 489,-185 445,-185"/>
<text text-anchor="middle" x="467" y="-192" font-family="Helvetica,sans-Serif" font-size="10.00">limits</text>
</a>
</g>
</g>
<!-- Node2&#45;&gt;Node24 -->
<g id="edge27" class="edge">
<title>Node2&#45;&gt;Node24</title>
<path fill="none" stroke="midnightblue" d="M584.45,-246.4C558.13,-234.99 521.41,-219.08 496.07,-208.1"/>
<polygon fill="midnightblue" stroke="midnightblue" points="497.2,-204.77 486.63,-204.01 494.42,-211.19 497.2,-204.77"/>
</g>
<!-- Node25 -->
<g id="node25" class="node">
<title>Node25</title>
<g id="a_node25"><a xlink:title=" ">
<polygon fill="white" stroke="#bfbfbf" points="545,-185 545,-204 589,-204 589,-185 545,-185"/>
<text text-anchor="middle" x="567" y="-192" font-family="Helvetica,sans-Serif" font-size="10.00">string</text>
</a>
</g>
</g>
<!-- Node2&#45;&gt;Node25 -->
<g id="edge28" class="edge">
<title>Node2&#45;&gt;Node25</title>
<path fill="none" stroke="midnightblue" d="M606.15,-246.4C598.43,-236.36 588.03,-222.84 579.89,-212.25"/>
<polygon fill="midnightblue" stroke="midnightblue" points="582.56,-209.99 573.69,-204.19 577.01,-214.25 582.56,-209.99"/>
</g>
<!-- Node5 -->
<g id="node5" class="node">
<title>Node5</title>
<g id="a_node5"><a xlink:href="lbfgs-fwd_8hpp.html" target="_top" xlink:title=" ">
<polygon fill="white" stroke="black" points="293.5,-112.5 293.5,-142.5 440.5,-142.5 440.5,-112.5 293.5,-112.5"/>
<text text-anchor="start" x="301.5" y="-130.5" font-family="Helvetica,sans-Serif" font-size="10.00">panoc&#45;alm/inner/directions</text>
<text text-anchor="middle" x="367" y="-119.5" font-family="Helvetica,sans-Serif" font-size="10.00">/decl/lbfgs&#45;fwd.hpp</text>
</a>
</g>
</g>
<!-- Node4&#45;&gt;Node5 -->
<g id="edge4" class="edge">
<title>Node4&#45;&gt;Node5</title>
<path fill="none" stroke="midnightblue" d="M367,-179.4C367,-171.64 367,-161.81 367,-152.86"/>
<polygon fill="midnightblue" stroke="midnightblue" points="370.5,-152.58 367,-142.58 363.5,-152.58 370.5,-152.58"/>
</g>
<!-- Node7 -->
<g id="node7" class="node">
<title>Node7</title>
<g id="a_node7"><a xlink:title=" ">
<polygon fill="white" stroke="#bfbfbf" points="1371.5,-118 1371.5,-137 1428.5,-137 1428.5,-118 1371.5,-118"/>
<text text-anchor="middle" x="1400" y="-125" font-family="Helvetica,sans-Serif" font-size="10.00">ostream</text>
</a>
</g>
</g>
<!-- Node6&#45;&gt;Node7 -->
<g id="edge6" class="edge">
<title>Node6&#45;&gt;Node7</title>
<path fill="none" stroke="midnightblue" d="M1400,-179.4C1400,-170.06 1400,-157.71 1400,-147.52"/>
<polygon fill="midnightblue" stroke="midnightblue" points="1403.5,-147.19 1400,-137.19 1396.5,-147.19 1403.5,-147.19"/>
</g>
<!-- Node6&#45;&gt;Node8 -->
<g id="edge7" class="edge">
<title>Node6&#45;&gt;Node8</title>
<path fill="none" stroke="midnightblue" d="M1419.09,-179.4C1433.58,-168.7 1453.43,-154.03 1468.11,-143.19"/>
<polygon fill="midnightblue" stroke="midnightblue" points="1470.52,-145.76 1476.48,-137.01 1466.36,-140.13 1470.52,-145.76"/>
</g>
<!-- Node10 -->
<g id="node10" class="node">
<title>Node10</title>
<g id="a_node10"><a xlink:href="box_8hpp.html" target="_top" xlink:title=" ">
<polygon fill="white" stroke="black" points="668.5,-118 668.5,-137 797.5,-137 797.5,-118 668.5,-118"/>
<text text-anchor="middle" x="733" y="-125" font-family="Helvetica,sans-Serif" font-size="10.00">panoc&#45;alm/util/box.hpp</text>
</a>
</g>
</g>
<!-- Node9&#45;&gt;Node10 -->
<g id="edge9" class="edge">
<title>Node9&#45;&gt;Node10</title>
<path fill="none" stroke="midnightblue" d="M733,-179.4C733,-170.06 733,-157.71 733,-147.52"/>
<polygon fill="midnightblue" stroke="midnightblue" points="736.5,-147.19 733,-137.19 729.5,-147.19 736.5,-147.19"/>
</g>
<!-- Node11 -->
<g id="node11" class="node">
<title>Node11</title>
<g id="a_node11"><a xlink:href="vec_8hpp.html" target="_top" xlink:title=" ">
<polygon fill="white" stroke="black" points="377.5,-56.5 377.5,-75.5 432.5,-75.5 432.5,-56.5 377.5,-56.5"/>
<text text-anchor="middle" x="405" y="-63.5" font-family="Helvetica,sans-Serif" font-size="10.00">vec.hpp</text>
</a>
</g>
</g>
<!-- Node10&#45;&gt;Node11 -->
<g id="edge10" class="edge">
<title>Node10&#45;&gt;Node11</title>
<path fill="none" stroke="midnightblue" d="M687.23,-117.95C676.65,-115.98 665.43,-113.91 655,-112 579.83,-98.25 491.88,-82.49 442.89,-73.75"/>
<polygon fill="midnightblue" stroke="midnightblue" points="443.21,-70.25 432.76,-71.94 441.99,-77.14 443.21,-70.25"/>
</g>
<!-- Node12 -->
<g id="node12" class="node">
<title>Node12</title>
<g id="a_node12"><a xlink:title=" ">
<polygon fill="white" stroke="#bfbfbf" points="370.5,-0.5 370.5,-19.5 439.5,-19.5 439.5,-0.5 370.5,-0.5"/>
<text text-anchor="middle" x="405" y="-7.5" font-family="Helvetica,sans-Serif" font-size="10.00">Eigen/Core</text>
</a>
</g>
</g>
<!-- Node11&#45;&gt;Node12 -->
<g id="edge11" class="edge">
<title>Node11&#45;&gt;Node12</title>
<path fill="none" stroke="midnightblue" d="M405,-56.08C405,-49.01 405,-38.86 405,-29.99"/>
<polygon fill="midnightblue" stroke="midnightblue" points="408.5,-29.75 405,-19.75 401.5,-29.75 408.5,-29.75"/>
</g>
<!-- Node13&#45;&gt;Node14 -->
<g id="edge13" class="edge">
<title>Node13&#45;&gt;Node14</title>
<path fill="none" stroke="midnightblue" d="M838.7,-180.58C835.76,-180.03 832.85,-179.5 830,-179 722.47,-160.07 693.9,-165.19 587,-143 580.76,-141.71 574.17,-140.12 567.83,-138.48"/>
<polygon fill="midnightblue" stroke="midnightblue" points="568.69,-135.09 558.13,-135.89 566.89,-141.85 568.69,-135.09"/>
</g>
<!-- Node15&#45;&gt;Node11 -->
<g id="edge15" class="edge">
<title>Node15&#45;&gt;Node11</title>
<path fill="none" stroke="midnightblue" d="M97.51,-184.93C135.21,-169.94 215.7,-138.08 284,-112 313.81,-100.62 347.89,-87.98 372.27,-79"/>
<polygon fill="midnightblue" stroke="midnightblue" points="373.58,-82.24 381.76,-75.51 371.16,-75.67 373.58,-82.24"/>
</g>
<!-- Node16&#45;&gt;Node10 -->
<g id="edge17" class="edge">
<title>Node16&#45;&gt;Node10</title>
<path fill="none" stroke="midnightblue" d="M1014.31,-184.94C955.35,-173.11 849.06,-151.78 785.37,-139.01"/>
<polygon fill="midnightblue" stroke="midnightblue" points="786.02,-135.57 775.53,-137.03 784.64,-142.43 786.02,-135.57"/>
</g>
<!-- Node16&#45;&gt;Node17 -->
<g id="edge18" class="edge">
<title>Node16&#45;&gt;Node17</title>
<path fill="none" stroke="midnightblue" d="M1075.06,-184.87C1098.23,-173.8 1138.63,-154.49 1165.6,-141.6"/>
<polygon fill="midnightblue" stroke="midnightblue" points="1167.35,-144.64 1174.87,-137.17 1164.33,-138.32 1167.35,-144.64"/>
</g>
<!-- Node16&#45;&gt;Node18 -->
<g id="edge19" class="edge">
<title>Node16&#45;&gt;Node18</title>
<path fill="none" stroke="midnightblue" d="M1009.86,-184.99C997.56,-182.9 984.3,-180.76 972,-179 833.38,-159.22 795.03,-176.22 659,-143 656.17,-142.31 653.27,-141.46 650.38,-140.53"/>
<polygon fill="midnightblue" stroke="midnightblue" points="651.41,-137.18 640.82,-137.13 649.07,-143.78 651.41,-137.18"/>
</g>
<!-- Node19 -->
<g id="node19" class="node">
<title>Node19</title>
<g id="a_node19"><a xlink:title=" ">
<polygon fill="white" stroke="#bfbfbf" points="919.5,-118 919.5,-137 984.5,-137 984.5,-118 919.5,-118"/>
<text text-anchor="middle" x="952" y="-125" font-family="Helvetica,sans-Serif" font-size="10.00">functional</text>
</a>
</g>
</g>
<!-- Node16&#45;&gt;Node19 -->
<g id="edge20" class="edge">
<title>Node16&#45;&gt;Node19</title>
<path fill="none" stroke="midnightblue" d="M1042.84,-184.73C1025.29,-173.87 995.16,-155.22 974.44,-142.39"/>
<polygon fill="midnightblue" stroke="midnightblue" points="976.28,-139.41 965.94,-137.13 972.6,-145.37 976.28,-139.41"/>
</g>
<!-- Node20 -->
<g id="node20" class="node">
<title>Node20</title>
<g id="a_node20"><a xlink:title=" ">
<polygon fill="white" stroke="#bfbfbf" points="1003,-118 1003,-137 1061,-137 1061,-118 1003,-118"/>
<text text-anchor="middle" x="1032" y="-125" font-family="Helvetica,sans-Serif" font-size="10.00">memory</text>
</a>
</g>
</g>
<!-- Node16&#45;&gt;Node20 -->
<g id="edge21" class="edge">
<title>Node16&#45;&gt;Node20</title>
<path fill="none" stroke="midnightblue" d="M1053.63,-184.73C1049.88,-174.99 1043.72,-158.98 1038.94,-146.53"/>
<polygon fill="midnightblue" stroke="midnightblue" points="1042.17,-145.2 1035.32,-137.13 1035.64,-147.72 1042.17,-145.2"/>
</g>
<!-- Node21 -->
<g id="node21" class="node">
<title>Node21</title>
<g id="a_node21"><a xlink:title=" ">
<polygon fill="white" stroke="#bfbfbf" points="1079.5,-118 1079.5,-137 1148.5,-137 1148.5,-118 1079.5,-118"/>
<text text-anchor="middle" x="1114" y="-125" font-family="Helvetica,sans-Serif" font-size="10.00">type_traits</text>
</a>
</g>
</g>
<!-- Node16&#45;&gt;Node21 -->
<g id="edge22" class="edge">
<title>Node16&#45;&gt;Node21</title>
<path fill="none" stroke="midnightblue" d="M1064.69,-184.73C1073.66,-174.5 1088.69,-157.36 1099.8,-144.69"/>
<polygon fill="midnightblue" stroke="midnightblue" points="1102.47,-146.95 1106.43,-137.13 1097.21,-142.34 1102.47,-146.95"/>
</g>
<!-- Node23 -->
<g id="node23" class="node">
<title>Node23</title>
<g id="a_node23"><a xlink:title=" ">
<polygon fill="white" stroke="#bfbfbf" points="1237,-118 1237,-137 1285,-137 1285,-118 1237,-118"/>
<text text-anchor="middle" x="1261" y="-125" font-family="Helvetica,sans-Serif" font-size="10.00">iosfwd</text>
</a>
</g>
</g>
<!-- Node22&#45;&gt;Node23 -->
<g id="edge24" class="edge">
<title>Node22&#45;&gt;Node23</title>
<path fill="none" stroke="midnightblue" d="M1240.24,-184.73C1243.84,-174.99 1249.75,-158.98 1254.34,-146.53"/>
<polygon fill="midnightblue" stroke="midnightblue" points="1257.63,-147.72 1257.81,-137.13 1251.07,-145.3 1257.63,-147.72"/>
</g>
<!-- Node26&#45;&gt;Node6 -->
<g id="edge30" class="edge">
<title>Node26&#45;&gt;Node6</title>
<path fill="none" stroke="midnightblue" d="M1336.58,-246.4C1347.61,-237.54 1362.04,-225.96 1374.35,-216.09"/>
<polygon fill="midnightblue" stroke="midnightblue" points="1376.85,-218.56 1382.46,-209.58 1372.47,-213.11 1376.85,-218.56"/>
</g>
<!-- Node26&#45;&gt;Node8 -->
<g id="edge34" class="edge">
<title>Node26&#45;&gt;Node8</title>
<path fill="none" stroke="midnightblue" d="M1382.63,-253.47C1412.77,-246.92 1446.92,-234.3 1469,-210 1484.53,-192.9 1488.1,-165.6 1488.57,-147.37"/>
<polygon fill="midnightblue" stroke="midnightblue" points="1492.07,-147.35 1488.55,-137.36 1485.07,-147.37 1492.07,-147.35"/>
</g>
<!-- Node26&#45;&gt;Node13 -->
<g id="edge31" class="edge">
<title>Node26&#45;&gt;Node13</title>
<path fill="none" stroke="midnightblue" d="M1255.19,-252.32C1187.63,-243.41 1077.64,-228.2 973.37,-210.18"/>
<polygon fill="midnightblue" stroke="midnightblue" points="973.75,-206.7 963.3,-208.43 972.55,-213.59 973.75,-206.7"/>
</g>
<!-- Node26&#45;&gt;Node16 -->
<g id="edge32" class="edge">
<title>Node26&#45;&gt;Node16</title>
<path fill="none" stroke="midnightblue" d="M1262.47,-246.48C1214.18,-234.5 1145.68,-217.5 1101.29,-206.49"/>
<polygon fill="midnightblue" stroke="midnightblue" points="1101.93,-203.04 1091.38,-204.03 1100.24,-209.83 1101.93,-203.04"/>
</g>
<!-- Node26&#45;&gt;Node22 -->
<g id="edge33" class="edge">
<title>Node26&#45;&gt;Node22</title>
<path fill="none" stroke="midnightblue" d="M1301.21,-246.4C1287.92,-235.86 1269.77,-221.48 1256.16,-210.69"/>
<polygon fill="midnightblue" stroke="midnightblue" points="1257.98,-207.66 1247.97,-204.19 1253.63,-213.15 1257.98,-207.66"/>
</g>
</g>
</svg>
