<?xml version="1.0" encoding="UTF-8" standalone="no"?>
<!DOCTYPE svg PUBLIC "-//W3C//DTD SVG 1.1//EN"
 "http://www.w3.org/Graphics/SVG/1.1/DTD/svg11.dtd">
<!-- Generated by graphviz version 2.43.0 (0)
 -->
<!-- Title: lbfgs.hpp Pages: 1 -->
<svg width="884pt" height="196pt"
 viewBox="0.00 0.00 884.00 196.00" xmlns="http://www.w3.org/2000/svg" xmlns:xlink="http://www.w3.org/1999/xlink">
<g id="graph0" class="graph" transform="scale(1 1) rotate(0) translate(4 192)">
<title>lbfgs.hpp</title>
<polygon fill="white" stroke="transparent" points="-4,4 -4,-192 880,-192 880,4 -4,4"/>
<!-- Node1 -->
<g id="node1" class="node">
<title>Node1</title>
<g id="a_node1"><a xlink:title=" ">
<polygon fill="#bfbfbf" stroke="black" points="297,-168.5 297,-187.5 359,-187.5 359,-168.5 297,-168.5"/>
<text text-anchor="middle" x="328" y="-175.5" font-family="Helvetica,sans-Serif" font-size="10.00">lbfgs.hpp</text>
</a>
</g>
</g>
<!-- Node2 -->
<g id="node2" class="node">
<title>Node2</title>
<g id="a_node2"><a xlink:href="alm_8cpp.html" target="_top" xlink:title=" ">
<polygon fill="white" stroke="black" points="0,-112.5 0,-131.5 56,-131.5 56,-112.5 0,-112.5"/>
<text text-anchor="middle" x="28" y="-119.5" font-family="Helvetica,sans-Serif" font-size="10.00">alm.cpp</text>
</a>
</g>
</g>
<!-- Node1&#45;&gt;Node2 -->
<g id="edge1" class="edge">
<title>Node1&#45;&gt;Node2</title>
<path fill="none" stroke="midnightblue" d="M286.54,-170.81C234.58,-162.85 142.87,-148.11 65,-132 62.15,-131.41 59.19,-130.76 56.24,-130.08"/>
<polygon fill="midnightblue" stroke="midnightblue" points="286.28,-174.31 296.7,-172.36 287.34,-167.39 286.28,-174.31"/>
</g>
<!-- Node3 -->
<g id="node3" class="node">
<title>Node3</title>
<g id="a_node3"><a xlink:href="lbfgs_8cpp.html" target="_top" xlink:title=" ">
<polygon fill="white" stroke="black" points="74.5,-112.5 74.5,-131.5 135.5,-131.5 135.5,-112.5 74.5,-112.5"/>
<text text-anchor="middle" x="105" y="-119.5" font-family="Helvetica,sans-Serif" font-size="10.00">lbfgs.cpp</text>
</a>
</g>
</g>
<!-- Node1&#45;&gt;Node3 -->
<g id="edge2" class="edge">
<title>Node1&#45;&gt;Node3</title>
<path fill="none" stroke="midnightblue" d="M287.26,-167.13C243.55,-156.55 175.14,-139.98 135.74,-130.44"/>
<polygon fill="midnightblue" stroke="midnightblue" points="286.45,-170.54 296.99,-169.49 288.1,-163.74 286.45,-170.54"/>
</g>
<!-- Node4 -->
<g id="node4" class="node">
<title>Node4</title>
<g id="a_node4"><a xlink:href="Presentation_2Cpp_2main_8cpp.html" target="_top" xlink:title=" ">
<polygon fill="white" stroke="black" points="154,-112.5 154,-131.5 216,-131.5 216,-112.5 154,-112.5"/>
<text text-anchor="middle" x="185" y="-119.5" font-family="Helvetica,sans-Serif" font-size="10.00">main.cpp</text>
</a>
</g>
</g>
<!-- Node1&#45;&gt;Node4 -->
<g id="edge3" class="edge">
<title>Node1&#45;&gt;Node4</title>
<path fill="none" stroke="midnightblue" d="M295.97,-164.91C269.09,-154.75 231.36,-140.51 207.55,-131.52"/>
<polygon fill="midnightblue" stroke="midnightblue" points="294.75,-168.19 305.34,-168.44 297.22,-161.64 294.75,-168.19"/>
</g>
<!-- Node5 -->
<g id="node5" class="node">
<title>Node5</title>
<g id="a_node5"><a xlink:href="panoc_8cpp.html" target="_top" xlink:title=" ">
<polygon fill="white" stroke="black" points="234,-112.5 234,-131.5 300,-131.5 300,-112.5 234,-112.5"/>
<text text-anchor="middle" x="267" y="-119.5" font-family="Helvetica,sans-Serif" font-size="10.00">panoc.cpp</text>
</a>
</g>
</g>
<!-- Node1&#45;&gt;Node5 -->
<g id="edge4" class="edge">
<title>Node1&#45;&gt;Node5</title>
<path fill="none" stroke="midnightblue" d="M310.53,-161.54C299.66,-151.91 286.06,-139.87 276.98,-131.83"/>
<polygon fill="midnightblue" stroke="midnightblue" points="308.39,-164.32 318.2,-168.32 313.03,-159.07 308.39,-164.32"/>
</g>
<!-- Node6 -->
<g id="node6" class="node">
<title>Node6</title>
<g id="a_node6"><a xlink:href="panocpy_8cpp.html" target="_top" xlink:title="This file defines all Python bindings.">
<polygon fill="white" stroke="black" points="451.5,-0.5 451.5,-19.5 528.5,-19.5 528.5,-0.5 451.5,-0.5"/>
<text text-anchor="middle" x="490" y="-7.5" font-family="Helvetica,sans-Serif" font-size="10.00">panocpy.cpp</text>
</a>
</g>
</g>
<!-- Node1&#45;&gt;Node6 -->
<g id="edge5" class="edge">
<title>Node1&#45;&gt;Node6</title>
<path fill="none" stroke="midnightblue" d="M325.36,-158.39C322.77,-132.28 322.22,-84.78 347,-56 372.9,-25.92 418.69,-15.71 451.48,-12.37"/>
<polygon fill="midnightblue" stroke="midnightblue" points="321.9,-158.93 326.58,-168.44 328.85,-158.09 321.9,-158.93"/>
</g>
<!-- Node7 -->
<g id="node7" class="node">
<title>Node7</title>
<g id="a_node7"><a xlink:href="polymorphic-inner-solver_8hpp.html" target="_top" xlink:title=" ">
<polygon fill="white" stroke="black" points="356,-56.5 356,-75.5 516,-75.5 516,-56.5 356,-56.5"/>
<text text-anchor="middle" x="436" y="-63.5" font-family="Helvetica,sans-Serif" font-size="10.00">polymorphic&#45;inner&#45;solver.hpp</text>
</a>
</g>
</g>
<!-- Node1&#45;&gt;Node7 -->
<g id="edge6" class="edge">
<title>Node1&#45;&gt;Node7</title>
<path fill="none" stroke="midnightblue" d="M341.58,-160.36C352.79,-146.91 369.35,-127.69 385,-112 398.34,-98.62 414.93,-84.39 425.49,-75.59"/>
<polygon fill="midnightblue" stroke="midnightblue" points="338.71,-158.33 335.04,-168.27 344.11,-162.79 338.71,-158.33"/>
</g>
<!-- Node8 -->
<g id="node8" class="node">
<title>Node8</title>
<g id="a_node8"><a xlink:href="polymorphic-panoc-direction_8hpp.html" target="_top" xlink:title=" ">
<polygon fill="white" stroke="black" points="394,-112.5 394,-131.5 572,-131.5 572,-112.5 394,-112.5"/>
<text text-anchor="middle" x="483" y="-119.5" font-family="Helvetica,sans-Serif" font-size="10.00">polymorphic&#45;panoc&#45;direction.hpp</text>
</a>
</g>
</g>
<!-- Node1&#45;&gt;Node8 -->
<g id="edge8" class="edge">
<title>Node1&#45;&gt;Node8</title>
<path fill="none" stroke="midnightblue" d="M362.33,-165.04C391.5,-154.88 432.64,-140.55 458.55,-131.52"/>
<polygon fill="midnightblue" stroke="midnightblue" points="360.85,-161.85 352.56,-168.44 363.16,-168.46 360.85,-161.85"/>
</g>
<!-- Node9 -->
<g id="node9" class="node">
<title>Node9</title>
<g id="a_node9"><a xlink:href="specialized-lbfgs_8hpp.html" target="_top" xlink:title=" ">
<polygon fill="white" stroke="black" points="590,-112.5 590,-131.5 710,-131.5 710,-112.5 590,-112.5"/>
<text text-anchor="middle" x="650" y="-119.5" font-family="Helvetica,sans-Serif" font-size="10.00">specialized&#45;lbfgs.hpp</text>
</a>
</g>
</g>
<!-- Node1&#45;&gt;Node9 -->
<g id="edge11" class="edge">
<title>Node1&#45;&gt;Node9</title>
<path fill="none" stroke="midnightblue" d="M369.19,-170.09C427.88,-160.25 535.5,-142.2 599.11,-131.53"/>
<polygon fill="midnightblue" stroke="midnightblue" points="368.45,-166.67 359.17,-171.77 369.61,-173.57 368.45,-166.67"/>
</g>
<!-- Node10 -->
<g id="node10" class="node">
<title>Node10</title>
<g id="a_node10"><a xlink:href="structured-panoc-lbfgs_8hpp.html" target="_top" xlink:title=" ">
<polygon fill="white" stroke="black" points="728,-112.5 728,-131.5 876,-131.5 876,-112.5 728,-112.5"/>
<text text-anchor="middle" x="802" y="-119.5" font-family="Helvetica,sans-Serif" font-size="10.00">structured&#45;panoc&#45;lbfgs.hpp</text>
</a>
</g>
</g>
<!-- Node1&#45;&gt;Node10 -->
<g id="edge12" class="edge">
<title>Node1&#45;&gt;Node10</title>
<path fill="none" stroke="midnightblue" d="M369.28,-172.3C449.32,-163.18 626.62,-142.98 727.68,-131.47"/>
<polygon fill="midnightblue" stroke="midnightblue" points="368.64,-168.85 359.1,-173.46 369.43,-175.8 368.64,-168.85"/>
</g>
<!-- Node7&#45;&gt;Node6 -->
<g id="edge7" class="edge">
<title>Node7&#45;&gt;Node6</title>
<path fill="none" stroke="midnightblue" d="M452,-49C461.57,-39.43 473.36,-27.64 481.25,-19.75"/>
<polygon fill="midnightblue" stroke="midnightblue" points="449.51,-46.54 444.92,-56.08 454.46,-51.49 449.51,-46.54"/>
</g>
<!-- Node8&#45;&gt;Node6 -->
<g id="edge9" class="edge">
<title>Node8&#45;&gt;Node6</title>
<path fill="none" stroke="midnightblue" d="M503.05,-105.53C511.53,-97.71 520.49,-87.45 525,-76 533.37,-54.78 513.18,-31.64 500.1,-19.51"/>
<polygon fill="midnightblue" stroke="midnightblue" points="500.53,-103.07 495.21,-112.24 505.09,-108.39 500.53,-103.07"/>
</g>
<!-- Node8&#45;&gt;Node7 -->
<g id="edge10" class="edge">
<title>Node8&#45;&gt;Node7</title>
<path fill="none" stroke="midnightblue" d="M468.58,-104.43C460.34,-94.97 450.35,-83.48 443.62,-75.75"/>
<polygon fill="midnightblue" stroke="midnightblue" points="466.03,-106.84 475.24,-112.08 471.31,-102.24 466.03,-106.84"/>
</g>
<!-- Node10&#45;&gt;Node6 -->
<g id="edge13" class="edge">
<title>Node10&#45;&gt;Node6</title>
<path fill="none" stroke="midnightblue" d="M768.26,-109.1C704.96,-86.79 569.79,-39.13 514.42,-19.61"/>
<polygon fill="midnightblue" stroke="midnightblue" points="767.18,-112.44 777.78,-112.46 769.51,-105.83 767.18,-112.44"/>
</g>
<!-- Node11 -->
<g id="node11" class="node">
<title>Node11</title>
<g id="a_node11"><a xlink:href="structured-panoc-lbfgs_8cpp.html" target="_top" xlink:title=" ">
<polygon fill="white" stroke="black" points="728.5,-56.5 728.5,-75.5 875.5,-75.5 875.5,-56.5 728.5,-56.5"/>
<text text-anchor="middle" x="802" y="-63.5" font-family="Helvetica,sans-Serif" font-size="10.00">structured&#45;panoc&#45;lbfgs.cpp</text>
</a>
</g>
</g>
<!-- Node10&#45;&gt;Node11 -->
<g id="edge14" class="edge">
<title>Node10&#45;&gt;Node11</title>
<path fill="none" stroke="midnightblue" d="M802,-101.8C802,-92.91 802,-82.78 802,-75.75"/>
<polygon fill="midnightblue" stroke="midnightblue" points="798.5,-102.08 802,-112.08 805.5,-102.08 798.5,-102.08"/>
</g>
</g>
</svg>
