<?xml version="1.0" encoding="UTF-8" standalone="no"?>
<!DOCTYPE svg PUBLIC "-//W3C//DTD SVG 1.1//EN"
 "http://www.w3.org/Graphics/SVG/1.1/DTD/svg11.dtd">
<!-- Generated by graphviz version 2.43.0 (0)
 -->
<!-- Title: initial_lipschitz_estimate Pages: 1 -->
<svg width="535pt" height="28pt"
 viewBox="0.00 0.00 535.00 28.00" xmlns="http://www.w3.org/2000/svg" xmlns:xlink="http://www.w3.org/1999/xlink">
<g id="graph0" class="graph" transform="scale(1 1) rotate(0) translate(4 24)">
<title>initial_lipschitz_estimate</title>
<polygon fill="white" stroke="transparent" points="-4,4 -4,-24 531,-24 531,4 -4,4"/>
<!-- Node1 -->
<g id="node1" class="node">
<title>Node1</title>
<g id="a_node1"><a xlink:title="Estimate the Lipschitz constant of the gradient &#160;using finite differences.">
<polygon fill="#bfbfbf" stroke="black" points="0,-0.5 0,-19.5 139,-19.5 139,-0.5 0,-0.5"/>
<text text-anchor="middle" x="69.5" y="-7.5" font-family="Helvetica,sans-Serif" font-size="10.00">initial_lipschitz_estimate</text>
</a>
</g>
</g>
<!-- Node2 -->
<g id="node2" class="node">
<title>Node2</title>
<g id="a_node2"><a xlink:href="namespacepa_1_1detail.html#a6572cf745448d2b40e9d5e977d17d5e2" target="_top" xlink:title="Calculate the gradient ∇ψ(x).">
<polygon fill="white" stroke="black" points="175,-0.5 175,-19.5 250,-19.5 250,-0.5 175,-0.5"/>
<text text-anchor="middle" x="212.5" y="-7.5" font-family="Helvetica,sans-Serif" font-size="10.00">calc_grad_ψ</text>
</a>
</g>
</g>
<!-- Node1&#45;&gt;Node2 -->
<g id="edge1" class="edge">
<title>Node1&#45;&gt;Node2</title>
<path fill="none" stroke="midnightblue" d="M139.35,-10C148,-10 156.68,-10 164.88,-10"/>
<polygon fill="midnightblue" stroke="midnightblue" points="164.96,-13.5 174.96,-10 164.96,-6.5 164.96,-13.5"/>
</g>
<!-- Node3 -->
<g id="node3" class="node">
<title>Node3</title>
<g id="a_node3"><a xlink:href="namespacepa.html#aee505a26e46aa4c0ce09d0fed72f0dac" target="_top" xlink:title="Get the difference between the given vector and its projection.">
<polygon fill="white" stroke="black" points="286,-0.5 286,-19.5 423,-19.5 423,-0.5 286,-0.5"/>
<text text-anchor="middle" x="354.5" y="-7.5" font-family="Helvetica,sans-Serif" font-size="10.00">pa::projecting_difference</text>
</a>
</g>
</g>
<!-- Node2&#45;&gt;Node3 -->
<g id="edge2" class="edge">
<title>Node2&#45;&gt;Node3</title>
<path fill="none" stroke="midnightblue" d="M250.28,-10C258.23,-10 266.92,-10 275.78,-10"/>
<polygon fill="midnightblue" stroke="midnightblue" points="275.82,-13.5 285.82,-10 275.82,-6.5 275.82,-13.5"/>
</g>
<!-- Node4 -->
<g id="node4" class="node">
<title>Node4</title>
<g id="a_node4"><a xlink:href="namespacepa.html#a5414901c2fb62f1fd47857642964cc71" target="_top" xlink:title="Project a vector onto a box.">
<polygon fill="white" stroke="black" points="459,-0.5 459,-19.5 527,-19.5 527,-0.5 459,-0.5"/>
<text text-anchor="middle" x="493" y="-7.5" font-family="Helvetica,sans-Serif" font-size="10.00">pa::project</text>
</a>
</g>
</g>
<!-- Node3&#45;&gt;Node4 -->
<g id="edge3" class="edge">
<title>Node3&#45;&gt;Node4</title>
<path fill="none" stroke="midnightblue" d="M423.35,-10C431.91,-10 440.48,-10 448.52,-10"/>
<polygon fill="midnightblue" stroke="midnightblue" points="448.73,-13.5 458.73,-10 448.73,-6.5 448.73,-13.5"/>
</g>
</g>
</svg>
