<?xml version="1.0" encoding="UTF-8" standalone="no"?>
<!DOCTYPE svg PUBLIC "-//W3C//DTD SVG 1.1//EN"
 "http://www.w3.org/Graphics/SVG/1.1/DTD/svg11.dtd">
<!-- Generated by graphviz version 2.43.0 (0)
 -->
<!-- Title: panoc Pages: 1 -->
<svg width="951pt" height="342pt"
 viewBox="0.00 0.00 951.00 341.50" xmlns="http://www.w3.org/2000/svg" xmlns:xlink="http://www.w3.org/1999/xlink">
<g id="graph0" class="graph" transform="scale(1 1) rotate(0) translate(4 337.5)">
<title>panoc</title>
<polygon fill="white" stroke="transparent" points="-4,4 -4,-337.5 947,-337.5 947,4 -4,4"/>
<!-- Node1 -->
<g id="node1" class="node">
<title>Node1</title>
<g id="a_node1"><a xlink:title=" ">
<polygon fill="#bfbfbf" stroke="black" points="0,-116.5 0,-135.5 46,-135.5 46,-116.5 0,-116.5"/>
<text text-anchor="middle" x="23" y="-123.5" font-family="Helvetica,sans-Serif" font-size="10.00">panoc</text>
</a>
</g>
</g>
<!-- Node2 -->
<g id="node2" class="node">
<title>Node2</title>
<g id="a_node2"><a xlink:href="namespacepa.html#a2b97bf67604c439eca0a540664930d61" target="_top" xlink:title=" ">
<polygon fill="white" stroke="black" points="108,-154.5 108,-173.5 181,-173.5 181,-154.5 108,-154.5"/>
<text text-anchor="middle" x="144.5" y="-161.5" font-family="Helvetica,sans-Serif" font-size="10.00">panoc_impl</text>
</a>
</g>
</g>
<!-- Node1&#45;&gt;Node2 -->
<g id="edge1" class="edge">
<title>Node1&#45;&gt;Node2</title>
<path fill="none" stroke="midnightblue" d="M46,-133.31C56.83,-136.88 70.09,-141.21 82,-145 88.58,-147.09 95.57,-149.29 102.39,-151.4"/>
<polygon fill="midnightblue" stroke="midnightblue" points="101.59,-154.82 112.18,-154.44 103.66,-148.14 101.59,-154.82"/>
</g>
<!-- Node21 -->
<g id="node21" class="node">
<title>Node21</title>
<g id="a_node21"><a xlink:href="classpa_1_1vec__allocator.html#a259cb5a711406a8c3e5d937eb9350cca" target="_top" xlink:title=" ">
<polygon fill="white" stroke="black" points="82,-116.5 82,-135.5 207,-135.5 207,-116.5 82,-116.5"/>
<text text-anchor="middle" x="144.5" y="-123.5" font-family="Helvetica,sans-Serif" font-size="10.00">pa::vec_allocator::size</text>
</a>
</g>
</g>
<!-- Node1&#45;&gt;Node21 -->
<g id="edge25" class="edge">
<title>Node1&#45;&gt;Node21</title>
<path fill="none" stroke="midnightblue" d="M46.2,-126C53.68,-126 62.49,-126 71.69,-126"/>
<polygon fill="midnightblue" stroke="midnightblue" points="71.8,-129.5 81.8,-126 71.8,-122.5 71.8,-129.5"/>
</g>
<!-- Node22 -->
<g id="node22" class="node">
<title>Node22</title>
<g id="a_node22"><a xlink:href="classpa_1_1vec__allocator.html#a2e036dd8859f446200ade78fabcc9a6a" target="_top" xlink:title=" ">
<polygon fill="white" stroke="black" points="91.5,-67 91.5,-97 197.5,-97 197.5,-67 91.5,-67"/>
<text text-anchor="start" x="99.5" y="-85" font-family="Helvetica,sans-Serif" font-size="10.00">pa::vec_allocator::</text>
<text text-anchor="middle" x="144.5" y="-74" font-family="Helvetica,sans-Serif" font-size="10.00">vector_size</text>
</a>
</g>
</g>
<!-- Node1&#45;&gt;Node22 -->
<g id="edge26" class="edge">
<title>Node1&#45;&gt;Node22</title>
<path fill="none" stroke="midnightblue" d="M46.2,-117.83C59.4,-112.97 76.72,-106.59 93.08,-100.57"/>
<polygon fill="midnightblue" stroke="midnightblue" points="94.39,-103.81 102.56,-97.07 91.97,-97.24 94.39,-103.81"/>
</g>
<!-- Node3 -->
<g id="node3" class="node">
<title>Node3</title>
<g id="a_node3"><a xlink:href="classpa_1_1vec__allocator.html#afa36e1f076dd1627a83324e717038836" target="_top" xlink:title=" ">
<polygon fill="white" stroke="black" points="259,-303 259,-333 365,-333 365,-303 259,-303"/>
<text text-anchor="start" x="267" y="-321" font-family="Helvetica,sans-Serif" font-size="10.00">pa::vec_allocator::</text>
<text text-anchor="middle" x="312" y="-310" font-family="Helvetica,sans-Serif" font-size="10.00">alloc</text>
</a>
</g>
</g>
<!-- Node2&#45;&gt;Node3 -->
<g id="edge2" class="edge">
<title>Node2&#45;&gt;Node3</title>
<path fill="none" stroke="midnightblue" d="M150.85,-173.7C163.86,-196.49 199.3,-254.08 243,-288 247.95,-291.84 253.47,-295.31 259.16,-298.4"/>
<polygon fill="midnightblue" stroke="midnightblue" points="257.69,-301.57 268.2,-302.95 260.84,-295.32 257.69,-301.57"/>
</g>
<!-- Node4 -->
<g id="node4" class="node">
<title>Node4</title>
<g id="a_node4"><a xlink:href="namespacepa_1_1detail.html#ad4d033d8e69bebca614098fa2df0a4a1" target="_top" xlink:title="Compute the ε from the stopping criterion, see PANOCStopCrit.">
<polygon fill="white" stroke="black" points="422.5,-259 422.5,-289 538.5,-289 538.5,-259 422.5,-259"/>
<text text-anchor="start" x="430.5" y="-277" font-family="Helvetica,sans-Serif" font-size="10.00">pa::detail::calc_error</text>
<text text-anchor="middle" x="480.5" y="-266" font-family="Helvetica,sans-Serif" font-size="10.00">_stop_crit</text>
</a>
</g>
</g>
<!-- Node2&#45;&gt;Node4 -->
<g id="edge3" class="edge">
<title>Node2&#45;&gt;Node4</title>
<path fill="none" stroke="midnightblue" d="M152.21,-173.63C166.38,-193.07 201.48,-236.68 243,-255 296.48,-278.6 363.34,-281.87 412.31,-280.1"/>
<polygon fill="midnightblue" stroke="midnightblue" points="412.64,-283.59 422.48,-279.65 412.34,-276.6 412.64,-283.59"/>
</g>
<!-- Node10 -->
<g id="node10" class="node">
<title>Node10</title>
<g id="a_node10"><a xlink:href="namespacepa_1_1detail.html#ac32d0e6b012b801731e55225b7505fa9" target="_top" xlink:title=" ">
<polygon fill="white" stroke="black" points="431,-171.5 431,-190.5 530,-190.5 530,-171.5 431,-171.5"/>
<text text-anchor="middle" x="480.5" y="-178.5" font-family="Helvetica,sans-Serif" font-size="10.00">pa::detail::calc_x̂</text>
</a>
</g>
</g>
<!-- Node2&#45;&gt;Node10 -->
<g id="edge9" class="edge">
<title>Node2&#45;&gt;Node10</title>
<path fill="none" stroke="midnightblue" d="M181.24,-165.82C238.47,-168.73 351.24,-174.47 420.54,-178"/>
<polygon fill="midnightblue" stroke="midnightblue" points="420.68,-181.51 430.85,-178.52 421.04,-174.52 420.68,-181.51"/>
</g>
<!-- Node11 -->
<g id="node11" class="node">
<title>Node11</title>
<g id="a_node11"><a xlink:href="namespacepa_1_1detail.html#aa916ebec71616d1d0379aaaaca02fc19" target="_top" xlink:title="Check all stop conditions (required tolerance reached, out of time, maximum number of iterations exce...">
<polygon fill="white" stroke="black" points="255,-215 255,-245 369,-245 369,-215 255,-215"/>
<text text-anchor="start" x="263" y="-233" font-family="Helvetica,sans-Serif" font-size="10.00">pa::detail::check_all</text>
<text text-anchor="middle" x="312" y="-222" font-family="Helvetica,sans-Serif" font-size="10.00">_stop_conditions</text>
</a>
</g>
</g>
<!-- Node2&#45;&gt;Node11 -->
<g id="edge11" class="edge">
<title>Node2&#45;&gt;Node11</title>
<path fill="none" stroke="midnightblue" d="M169.57,-173.6C194.08,-183.37 232.74,-198.79 263.45,-211.04"/>
<polygon fill="midnightblue" stroke="midnightblue" points="262.53,-214.44 273.12,-214.89 265.13,-207.94 262.53,-214.44"/>
</g>
<!-- Node13 -->
<g id="node13" class="node">
<title>Node13</title>
<g id="a_node13"><a xlink:href="namespacepa_1_1detail.html#ac7d4fa127500b38a8cec94984c4f598d" target="_top" xlink:title="Increase the estimate of the Lipschitz constant of the objective gradient and decrease the step size ...">
<polygon fill="white" stroke="black" points="258.5,-127 258.5,-157 365.5,-157 365.5,-127 258.5,-127"/>
<text text-anchor="start" x="266.5" y="-145" font-family="Helvetica,sans-Serif" font-size="10.00">pa::detail::descent</text>
<text text-anchor="middle" x="312" y="-134" font-family="Helvetica,sans-Serif" font-size="10.00">_lemma</text>
</a>
</g>
</g>
<!-- Node2&#45;&gt;Node13 -->
<g id="edge13" class="edge">
<title>Node2&#45;&gt;Node13</title>
<path fill="none" stroke="midnightblue" d="M181,-159.28C200.61,-156.67 225.54,-153.36 248.32,-150.33"/>
<polygon fill="midnightblue" stroke="midnightblue" points="248.81,-153.8 258.26,-149.01 247.89,-146.86 248.81,-153.8"/>
</g>
<!-- Node15 -->
<g id="node15" class="node">
<title>Node15</title>
<g id="a_node15"><a xlink:href="classpa_1_1vec__allocator.html#a455bb0797853d67addd58875c671acef" target="_top" xlink:title=" ">
<polygon fill="white" stroke="black" points="249.5,-88.5 249.5,-107.5 374.5,-107.5 374.5,-88.5 249.5,-88.5"/>
<text text-anchor="middle" x="312" y="-95.5" font-family="Helvetica,sans-Serif" font-size="10.00">pa::vec_allocator::free</text>
</a>
</g>
</g>
<!-- Node2&#45;&gt;Node15 -->
<g id="edge17" class="edge">
<title>Node2&#45;&gt;Node15</title>
<path fill="none" stroke="midnightblue" d="M181.12,-155.27C189.82,-152.52 198.94,-149.11 207,-145 224.82,-135.91 225.12,-126.96 243,-118 248.36,-115.31 254.13,-112.93 259.98,-110.82"/>
<polygon fill="midnightblue" stroke="midnightblue" points="261.44,-114.02 269.82,-107.54 259.23,-107.38 261.44,-114.02"/>
</g>
<!-- Node16 -->
<g id="node16" class="node">
<title>Node16</title>
<g id="a_node16"><a xlink:href="namespacepa_1_1detail.html#a92963cadf7f44fcf9f3ab6bddff08796" target="_top" xlink:title="Estimate the Lipschitz constant of the gradient &#160;using finite differences.">
<polygon fill="white" stroke="black" points="256.5,-39 256.5,-69 367.5,-69 367.5,-39 256.5,-39"/>
<text text-anchor="start" x="264.5" y="-57" font-family="Helvetica,sans-Serif" font-size="10.00">pa::detail::initial</text>
<text text-anchor="middle" x="312" y="-46" font-family="Helvetica,sans-Serif" font-size="10.00">_lipschitz_estimate</text>
</a>
</g>
</g>
<!-- Node2&#45;&gt;Node16 -->
<g id="edge18" class="edge">
<title>Node2&#45;&gt;Node16</title>
<path fill="none" stroke="midnightblue" d="M181.32,-157.94C190.4,-155.13 199.65,-151.01 207,-145 232.86,-123.85 217.7,-100.83 243,-79 244.96,-77.31 247.04,-75.73 249.21,-74.25"/>
<polygon fill="midnightblue" stroke="midnightblue" points="251.16,-77.17 257.98,-69.06 247.6,-71.15 251.16,-77.17"/>
</g>
<!-- Node20 -->
<g id="node20" class="node">
<title>Node20</title>
<g id="a_node20"><a xlink:href="namespacepa_1_1detail.html#aea72ee13ae482d948d1b994deb457578" target="_top" xlink:title=" ">
<polygon fill="white" stroke="black" points="243,-0.5 243,-19.5 381,-19.5 381,-0.5 243,-0.5"/>
<text text-anchor="middle" x="312" y="-7.5" font-family="Helvetica,sans-Serif" font-size="10.00">pa::detail::print_progress</text>
</a>
</g>
</g>
<!-- Node2&#45;&gt;Node20 -->
<g id="edge24" class="edge">
<title>Node2&#45;&gt;Node20</title>
<path fill="none" stroke="midnightblue" d="M181.2,-159.17C190.6,-156.37 200.04,-151.95 207,-145 245.19,-106.85 204.29,-66.62 243,-29 244.48,-27.56 246.07,-26.22 247.73,-24.99"/>
<polygon fill="midnightblue" stroke="midnightblue" points="249.88,-27.78 256.63,-19.61 246.26,-21.79 249.88,-27.78"/>
</g>
<!-- Node5 -->
<g id="node5" class="node">
<title>Node5</title>
<g id="a_node5"><a xlink:href="namespacepa_1_1vec__util.html#a9fe5014a9c51ca2202dc5d526dce6823" target="_top" xlink:title="Get the 1&#45;norm of the given vector.">
<polygon fill="white" stroke="black" points="583,-301.5 583,-320.5 699,-320.5 699,-301.5 583,-301.5"/>
<text text-anchor="middle" x="641" y="-308.5" font-family="Helvetica,sans-Serif" font-size="10.00">pa::vec_util::norm_1</text>
</a>
</g>
</g>
<!-- Node4&#45;&gt;Node5 -->
<g id="edge4" class="edge">
<title>Node4&#45;&gt;Node5</title>
<path fill="none" stroke="midnightblue" d="M538.72,-287.36C555.32,-291.23 573.31,-295.43 589.47,-299.2"/>
<polygon fill="midnightblue" stroke="midnightblue" points="588.73,-302.62 599.26,-301.49 590.32,-295.81 588.73,-302.62"/>
</g>
<!-- Node6 -->
<g id="node6" class="node">
<title>Node6</title>
<g id="a_node6"><a xlink:href="namespacepa_1_1vec__util.html#af8e650634ec3d7b82a78a4d313632ed0" target="_top" xlink:title="Get the maximum or infinity&#45;norm of the given vector.">
<polygon fill="white" stroke="black" points="580,-263.5 580,-282.5 702,-282.5 702,-263.5 580,-263.5"/>
<text text-anchor="middle" x="641" y="-270.5" font-family="Helvetica,sans-Serif" font-size="10.00">pa::vec_util::norm_inf</text>
</a>
</g>
</g>
<!-- Node4&#45;&gt;Node6 -->
<g id="edge5" class="edge">
<title>Node4&#45;&gt;Node6</title>
<path fill="none" stroke="midnightblue" d="M538.72,-273.64C548.76,-273.58 559.32,-273.51 569.67,-273.44"/>
<polygon fill="midnightblue" stroke="midnightblue" points="569.94,-276.94 579.92,-273.38 569.9,-269.94 569.94,-276.94"/>
</g>
<!-- Node7 -->
<g id="node7" class="node">
<title>Node7</title>
<g id="a_node7"><a xlink:href="namespacepa_1_1detail.html#a8ed4d487878856942843707b5a131b85" target="_top" xlink:title="Projected gradient step.">
<polygon fill="white" stroke="black" points="584,-174 584,-204 698,-204 698,-174 584,-174"/>
<text text-anchor="start" x="592" y="-192" font-family="Helvetica,sans-Serif" font-size="10.00">pa::detail::projected</text>
<text text-anchor="middle" x="641" y="-181" font-family="Helvetica,sans-Serif" font-size="10.00">_gradient_step</text>
</a>
</g>
</g>
<!-- Node4&#45;&gt;Node7 -->
<g id="edge6" class="edge">
<title>Node4&#45;&gt;Node7</title>
<path fill="none" stroke="midnightblue" d="M526.06,-258.98C532.24,-256.3 538.39,-253.29 544,-250 561.96,-239.46 562.65,-231.51 580,-220 585.78,-216.17 592.09,-212.45 598.37,-209"/>
<polygon fill="midnightblue" stroke="midnightblue" points="600.31,-211.94 607.5,-204.16 597.03,-205.75 600.31,-211.94"/>
</g>
<!-- Node8 -->
<g id="node8" class="node">
<title>Node8</title>
<g id="a_node8"><a xlink:href="namespacepa.html#aee505a26e46aa4c0ce09d0fed72f0dac" target="_top" xlink:title="Get the difference between the given vector and its projection.">
<polygon fill="white" stroke="black" points="738,-132.5 738,-151.5 857,-151.5 857,-132.5 738,-132.5"/>
<text text-anchor="middle" x="797.5" y="-139.5" font-family="Helvetica,sans-Serif" font-size="10.00">projecting_difference</text>
</a>
</g>
</g>
<!-- Node4&#45;&gt;Node8 -->
<g id="edge7" class="edge">
<title>Node4&#45;&gt;Node8</title>
<path fill="none" stroke="midnightblue" d="M538.74,-261.06C594.03,-248.1 673.45,-228.09 702,-214 731.67,-199.36 761.27,-174.79 779.23,-158.49"/>
<polygon fill="midnightblue" stroke="midnightblue" points="781.66,-161.01 786.62,-151.65 776.91,-155.87 781.66,-161.01"/>
</g>
<!-- Node9 -->
<g id="node9" class="node">
<title>Node9</title>
<g id="a_node9"><a xlink:href="namespacepa.html#a5414901c2fb62f1fd47857642964cc71" target="_top" xlink:title="Project a vector onto a box.">
<polygon fill="white" stroke="black" points="893,-132.5 893,-151.5 943,-151.5 943,-132.5 893,-132.5"/>
<text text-anchor="middle" x="918" y="-139.5" font-family="Helvetica,sans-Serif" font-size="10.00">project</text>
</a>
</g>
</g>
<!-- Node8&#45;&gt;Node9 -->
<g id="edge8" class="edge">
<title>Node8&#45;&gt;Node9</title>
<path fill="none" stroke="midnightblue" d="M857.06,-142C865.89,-142 874.75,-142 882.85,-142"/>
<polygon fill="midnightblue" stroke="midnightblue" points="882.98,-145.5 892.98,-142 882.98,-138.5 882.98,-145.5"/>
</g>
<!-- Node10&#45;&gt;Node7 -->
<g id="edge10" class="edge">
<title>Node10&#45;&gt;Node7</title>
<path fill="none" stroke="midnightblue" d="M530.35,-183.47C543.96,-184.15 558.99,-184.91 573.43,-185.64"/>
<polygon fill="midnightblue" stroke="midnightblue" points="573.66,-189.16 583.82,-186.16 574.01,-182.16 573.66,-189.16"/>
</g>
<!-- Node12 -->
<g id="node12" class="node">
<title>Node12</title>
<g id="a_node12"><a xlink:href="classpa_1_1AtomicStopSignal.html#aa0097deccc19b49f8ab5344d8d6d5cf6" target="_top" xlink:title=" ">
<polygon fill="white" stroke="black" points="420,-210 420,-240 541,-240 541,-210 420,-210"/>
<text text-anchor="start" x="428" y="-228" font-family="Helvetica,sans-Serif" font-size="10.00">pa::AtomicStopSignal</text>
<text text-anchor="middle" x="480.5" y="-217" font-family="Helvetica,sans-Serif" font-size="10.00">::stop_requested</text>
</a>
</g>
</g>
<!-- Node11&#45;&gt;Node12 -->
<g id="edge12" class="edge">
<title>Node11&#45;&gt;Node12</title>
<path fill="none" stroke="midnightblue" d="M369.37,-228.31C382.3,-227.92 396.2,-227.5 409.62,-227.1"/>
<polygon fill="midnightblue" stroke="midnightblue" points="409.88,-230.59 419.77,-226.79 409.67,-223.6 409.88,-230.59"/>
</g>
<!-- Node13&#45;&gt;Node10 -->
<g id="edge14" class="edge">
<title>Node13&#45;&gt;Node10</title>
<path fill="none" stroke="midnightblue" d="M365.68,-154.34C385.89,-159.07 408.9,-164.46 428.91,-169.15"/>
<polygon fill="midnightblue" stroke="midnightblue" points="428.23,-172.59 438.77,-171.46 429.83,-165.77 428.23,-172.59"/>
</g>
<!-- Node14 -->
<g id="node14" class="node">
<title>Node14</title>
<g id="a_node14"><a xlink:href="namespacepa_1_1detail.html#a82a03662e6ce5bcfd57ee2df719aec21" target="_top" xlink:title="Calculate both ψ(x) and the vector ŷ that can later be used to compute ∇ψ.">
<polygon fill="white" stroke="black" points="585.5,-132.5 585.5,-151.5 696.5,-151.5 696.5,-132.5 585.5,-132.5"/>
<text text-anchor="middle" x="641" y="-139.5" font-family="Helvetica,sans-Serif" font-size="10.00">pa::detail::calc_ψ_ŷ</text>
</a>
</g>
</g>
<!-- Node13&#45;&gt;Node14 -->
<g id="edge15" class="edge">
<title>Node13&#45;&gt;Node14</title>
<path fill="none" stroke="midnightblue" d="M365.54,-142C422.54,-142 513.61,-142 575.06,-142"/>
<polygon fill="midnightblue" stroke="midnightblue" points="575.41,-145.5 585.41,-142 575.41,-138.5 575.41,-145.5"/>
</g>
<!-- Node14&#45;&gt;Node8 -->
<g id="edge16" class="edge">
<title>Node14&#45;&gt;Node8</title>
<path fill="none" stroke="midnightblue" d="M696.91,-142C706.86,-142 717.35,-142 727.65,-142"/>
<polygon fill="midnightblue" stroke="midnightblue" points="727.84,-145.5 737.84,-142 727.84,-138.5 727.84,-145.5"/>
</g>
<!-- Node17 -->
<g id="node17" class="node">
<title>Node17</title>
<g id="a_node17"><a xlink:href="namespacepa_1_1detail.html#a6572cf745448d2b40e9d5e977d17d5e2" target="_top" xlink:title="Calculate the gradient ∇ψ(x).">
<polygon fill="white" stroke="black" points="417,-44.5 417,-63.5 544,-63.5 544,-44.5 417,-44.5"/>
<text text-anchor="middle" x="480.5" y="-51.5" font-family="Helvetica,sans-Serif" font-size="10.00">pa::detail::calc_grad_ψ</text>
</a>
</g>
</g>
<!-- Node16&#45;&gt;Node17 -->
<g id="edge19" class="edge">
<title>Node16&#45;&gt;Node17</title>
<path fill="none" stroke="midnightblue" d="M367.52,-54C379.94,-54 393.34,-54 406.39,-54"/>
<polygon fill="midnightblue" stroke="midnightblue" points="406.77,-57.5 416.77,-54 406.77,-50.5 406.77,-57.5"/>
</g>
<!-- Node18 -->
<g id="node18" class="node">
<title>Node18</title>
<g id="a_node18"><a xlink:href="namespacepa_1_1detail.html#aa986daa1d5f0dfdbc75c143d2aae2919" target="_top" xlink:title="Calculate both ψ(x) and its gradient ∇ψ(x).">
<polygon fill="white" stroke="black" points="430.5,-83 430.5,-113 530.5,-113 530.5,-83 430.5,-83"/>
<text text-anchor="start" x="438.5" y="-101" font-family="Helvetica,sans-Serif" font-size="10.00">pa::detail::calc_ψ</text>
<text text-anchor="middle" x="480.5" y="-90" font-family="Helvetica,sans-Serif" font-size="10.00">_grad_ψ</text>
</a>
</g>
</g>
<!-- Node16&#45;&gt;Node18 -->
<g id="edge21" class="edge">
<title>Node16&#45;&gt;Node18</title>
<path fill="none" stroke="midnightblue" d="M367.52,-68.41C384.48,-72.89 403.27,-77.85 420.52,-82.41"/>
<polygon fill="midnightblue" stroke="midnightblue" points="419.92,-85.87 430.48,-85.05 421.71,-79.11 419.92,-85.87"/>
</g>
<!-- Node17&#45;&gt;Node8 -->
<g id="edge20" class="edge">
<title>Node17&#45;&gt;Node8</title>
<path fill="none" stroke="midnightblue" d="M544.3,-50.56C589.53,-50.17 651.26,-54 702,-73 732.69,-84.49 762.22,-108.89 779.87,-125.38"/>
<polygon fill="midnightblue" stroke="midnightblue" points="777.46,-127.92 787.1,-132.32 782.31,-122.87 777.46,-127.92"/>
</g>
<!-- Node18&#45;&gt;Node14 -->
<g id="edge23" class="edge">
<title>Node18&#45;&gt;Node14</title>
<path fill="none" stroke="midnightblue" d="M530.78,-111.68C551.46,-117.42 575.33,-124.05 595.47,-129.64"/>
<polygon fill="midnightblue" stroke="midnightblue" points="594.76,-133.07 605.33,-132.38 596.63,-126.33 594.76,-133.07"/>
</g>
<!-- Node19 -->
<g id="node19" class="node">
<title>Node19</title>
<g id="a_node19"><a xlink:href="namespacepa_1_1detail.html#a908a0589ddf8734417f5481395e197d2" target="_top" xlink:title="Calculate ∇ψ(x) using ŷ.">
<polygon fill="white" stroke="black" points="583.5,-83 583.5,-113 698.5,-113 698.5,-83 583.5,-83"/>
<text text-anchor="start" x="591.5" y="-101" font-family="Helvetica,sans-Serif" font-size="10.00">pa::detail::calc_grad</text>
<text text-anchor="middle" x="641" y="-90" font-family="Helvetica,sans-Serif" font-size="10.00">_ψ_from_ŷ</text>
</a>
</g>
</g>
<!-- Node18&#45;&gt;Node19 -->
<g id="edge22" class="edge">
<title>Node18&#45;&gt;Node19</title>
<path fill="none" stroke="midnightblue" d="M530.78,-98C544.16,-98 558.88,-98 573.06,-98"/>
<polygon fill="midnightblue" stroke="midnightblue" points="573.27,-101.5 583.27,-98 573.27,-94.5 573.27,-101.5"/>
</g>
</g>
</svg>
