<?xml version="1.0" encoding="UTF-8" standalone="no"?>
<!DOCTYPE svg PUBLIC "-//W3C//DTD SVG 1.1//EN"
 "http://www.w3.org/Graphics/SVG/1.1/DTD/svg11.dtd">
<!-- Generated by graphviz version 2.43.0 (0)
 -->
<!-- Title: calc_error_stop_crit Pages: 1 -->
<svg width="397pt" height="142pt"
 viewBox="0.00 0.00 397.00 142.00" xmlns="http://www.w3.org/2000/svg" xmlns:xlink="http://www.w3.org/1999/xlink">
<g id="graph0" class="graph" transform="scale(1 1) rotate(0) translate(4 138)">
<title>calc_error_stop_crit</title>
<polygon fill="white" stroke="transparent" points="-4,4 -4,-138 393,-138 393,4 -4,4"/>
<!-- Node1 -->
<g id="node1" class="node">
<title>Node1</title>
<g id="a_node1"><a xlink:title="Compute the ε from the stopping criterion, see PANOCStopCrit.">
<polygon fill="#bfbfbf" stroke="black" points="0,-57.5 0,-76.5 112,-76.5 112,-57.5 0,-57.5"/>
<text text-anchor="middle" x="56" y="-64.5" font-family="Helvetica,sans-Serif" font-size="10.00">calc_error_stop_crit</text>
</a>
</g>
</g>
<!-- Node2 -->
<g id="node2" class="node">
<title>Node2</title>
<g id="a_node2"><a xlink:href="namespacepa_1_1vec__util.html#a9fe5014a9c51ca2202dc5d526dce6823" target="_top" xlink:title="Get the 1&#45;norm of the given vector.">
<polygon fill="white" stroke="black" points="158.5,-114.5 158.5,-133.5 274.5,-133.5 274.5,-114.5 158.5,-114.5"/>
<text text-anchor="middle" x="216.5" y="-121.5" font-family="Helvetica,sans-Serif" font-size="10.00">pa::vec_util::norm_1</text>
</a>
</g>
</g>
<!-- Node1&#45;&gt;Node2 -->
<g id="edge1" class="edge">
<title>Node1&#45;&gt;Node2</title>
<path fill="none" stroke="midnightblue" d="M78.05,-76.64C96.31,-84.81 123.58,-96.5 148,-105 154.57,-107.29 161.56,-109.5 168.47,-111.55"/>
<polygon fill="midnightblue" stroke="midnightblue" points="167.89,-115.03 178.46,-114.45 169.83,-108.3 167.89,-115.03"/>
</g>
<!-- Node3 -->
<g id="node3" class="node">
<title>Node3</title>
<g id="a_node3"><a xlink:href="namespacepa_1_1vec__util.html#af8e650634ec3d7b82a78a4d313632ed0" target="_top" xlink:title="Get the maximum or infinity&#45;norm of the given vector.">
<polygon fill="white" stroke="black" points="155.5,-76.5 155.5,-95.5 277.5,-95.5 277.5,-76.5 155.5,-76.5"/>
<text text-anchor="middle" x="216.5" y="-83.5" font-family="Helvetica,sans-Serif" font-size="10.00">pa::vec_util::norm_inf</text>
</a>
</g>
</g>
<!-- Node1&#45;&gt;Node3 -->
<g id="edge2" class="edge">
<title>Node1&#45;&gt;Node3</title>
<path fill="none" stroke="midnightblue" d="M112.44,-73.65C123.03,-74.92 134.25,-76.26 145.24,-77.58"/>
<polygon fill="midnightblue" stroke="midnightblue" points="144.89,-81.06 155.24,-78.78 145.72,-74.11 144.89,-81.06"/>
</g>
<!-- Node4 -->
<g id="node4" class="node">
<title>Node4</title>
<g id="a_node4"><a xlink:href="namespacepa_1_1detail.html#a8ed4d487878856942843707b5a131b85" target="_top" xlink:title="Projected gradient step.">
<polygon fill="white" stroke="black" points="149.5,-38.5 149.5,-57.5 283.5,-57.5 283.5,-38.5 149.5,-38.5"/>
<text text-anchor="middle" x="216.5" y="-45.5" font-family="Helvetica,sans-Serif" font-size="10.00">projected_gradient_step</text>
</a>
</g>
</g>
<!-- Node1&#45;&gt;Node4 -->
<g id="edge3" class="edge">
<title>Node1&#45;&gt;Node4</title>
<path fill="none" stroke="midnightblue" d="M112.44,-60.35C121.13,-59.31 130.24,-58.22 139.3,-57.13"/>
<polygon fill="midnightblue" stroke="midnightblue" points="139.97,-60.58 149.48,-55.91 139.13,-53.63 139.97,-60.58"/>
</g>
<!-- Node5 -->
<g id="node5" class="node">
<title>Node5</title>
<g id="a_node5"><a xlink:href="namespacepa.html#aee505a26e46aa4c0ce09d0fed72f0dac" target="_top" xlink:title="Get the difference between the given vector and its projection.">
<polygon fill="white" stroke="black" points="148,-0.5 148,-19.5 285,-19.5 285,-0.5 148,-0.5"/>
<text text-anchor="middle" x="216.5" y="-7.5" font-family="Helvetica,sans-Serif" font-size="10.00">pa::projecting_difference</text>
</a>
</g>
</g>
<!-- Node1&#45;&gt;Node5 -->
<g id="edge4" class="edge">
<title>Node1&#45;&gt;Node5</title>
<path fill="none" stroke="midnightblue" d="M78.05,-57.36C96.31,-49.19 123.58,-37.5 148,-29 154.57,-26.71 161.56,-24.5 168.47,-22.45"/>
<polygon fill="midnightblue" stroke="midnightblue" points="169.83,-25.7 178.46,-19.55 167.89,-18.97 169.83,-25.7"/>
</g>
<!-- Node6 -->
<g id="node6" class="node">
<title>Node6</title>
<g id="a_node6"><a xlink:href="namespacepa.html#a5414901c2fb62f1fd47857642964cc71" target="_top" xlink:title="Project a vector onto a box.">
<polygon fill="white" stroke="black" points="321,-0.5 321,-19.5 389,-19.5 389,-0.5 321,-0.5"/>
<text text-anchor="middle" x="355" y="-7.5" font-family="Helvetica,sans-Serif" font-size="10.00">pa::project</text>
</a>
</g>
</g>
<!-- Node5&#45;&gt;Node6 -->
<g id="edge5" class="edge">
<title>Node5&#45;&gt;Node6</title>
<path fill="none" stroke="midnightblue" d="M285.35,-10C293.91,-10 302.48,-10 310.52,-10"/>
<polygon fill="midnightblue" stroke="midnightblue" points="310.73,-13.5 320.73,-10 310.73,-6.5 310.73,-13.5"/>
</g>
</g>
</svg>
