<?xml version="1.0" encoding="UTF-8" standalone="no"?>
<!DOCTYPE svg PUBLIC "-//W3C//DTD SVG 1.1//EN"
 "http://www.w3.org/Graphics/SVG/1.1/DTD/svg11.dtd">
<!-- Generated by graphviz version 2.43.0 (0)
 -->
<!-- Title: panoc&#45;stop&#45;crit.hpp Pages: 1 -->
<svg width="1219pt" height="308pt"
 viewBox="0.00 0.00 1219.00 308.00" xmlns="http://www.w3.org/2000/svg" xmlns:xlink="http://www.w3.org/1999/xlink">
<g id="graph0" class="graph" transform="scale(1 1) rotate(0) translate(4 304)">
<title>panoc&#45;stop&#45;crit.hpp</title>
<polygon fill="white" stroke="transparent" points="-4,4 -4,-304 1215,-304 1215,4 -4,4"/>
<!-- Node1 -->
<g id="node1" class="node">
<title>Node1</title>
<g id="a_node1"><a xlink:title=" ">
<polygon fill="#bfbfbf" stroke="black" points="514.5,-280.5 514.5,-299.5 625.5,-299.5 625.5,-280.5 514.5,-280.5"/>
<text text-anchor="middle" x="570" y="-287.5" font-family="Helvetica,sans-Serif" font-size="10.00">panoc&#45;stop&#45;crit.hpp</text>
</a>
</g>
</g>
<!-- Node2 -->
<g id="node2" class="node">
<title>Node2</title>
<g id="a_node2"><a xlink:href="guarded-aa-pga_8hpp.html" target="_top" xlink:title=" ">
<polygon fill="white" stroke="black" points="74.5,-168.5 74.5,-187.5 189.5,-187.5 189.5,-168.5 74.5,-168.5"/>
<text text-anchor="middle" x="132" y="-175.5" font-family="Helvetica,sans-Serif" font-size="10.00">guarded&#45;aa&#45;pga.hpp</text>
</a>
</g>
</g>
<!-- Node1&#45;&gt;Node2 -->
<g id="edge1" class="edge">
<title>Node1&#45;&gt;Node2</title>
<path fill="none" stroke="midnightblue" d="M526.13,-277.98C438.73,-256.03 244.55,-207.27 165.98,-187.53"/>
<polygon fill="midnightblue" stroke="midnightblue" points="525.44,-281.42 536,-280.46 527.15,-274.63 525.44,-281.42"/>
</g>
<!-- Node4 -->
<g id="node4" class="node">
<title>Node4</title>
<g id="a_node4"><a xlink:href="panocpy_8cpp.html" target="_top" xlink:title="This file defines all Python bindings.">
<polygon fill="white" stroke="black" points="390.5,-0.5 390.5,-19.5 467.5,-19.5 467.5,-0.5 390.5,-0.5"/>
<text text-anchor="middle" x="429" y="-7.5" font-family="Helvetica,sans-Serif" font-size="10.00">panocpy.cpp</text>
</a>
</g>
</g>
<!-- Node1&#45;&gt;Node4 -->
<g id="edge38" class="edge">
<title>Node1&#45;&gt;Node4</title>
<path fill="none" stroke="midnightblue" d="M635.74,-286.74C756.56,-282.04 1009.22,-269.43 1093,-244 1150.29,-226.61 1211,-238.87 1211,-179 1211,-179 1211,-179 1211,-121 1211,-45.04 624.91,-18.16 467.51,-12.31"/>
<polygon fill="midnightblue" stroke="midnightblue" points="635.38,-283.26 625.52,-287.14 635.64,-290.25 635.38,-283.26"/>
</g>
<!-- Node6 -->
<g id="node6" class="node">
<title>Node6</title>
<g id="a_node6"><a xlink:href="panoc-helpers_8hpp.html" target="_top" xlink:title=" ">
<polygon fill="white" stroke="black" points="516.5,-224.5 516.5,-243.5 623.5,-243.5 623.5,-224.5 516.5,-224.5"/>
<text text-anchor="middle" x="570" y="-231.5" font-family="Helvetica,sans-Serif" font-size="10.00">panoc&#45;helpers.hpp</text>
</a>
</g>
</g>
<!-- Node1&#45;&gt;Node6 -->
<g id="edge7" class="edge">
<title>Node1&#45;&gt;Node6</title>
<path fill="none" stroke="midnightblue" d="M570,-269.8C570,-260.91 570,-250.78 570,-243.75"/>
<polygon fill="midnightblue" stroke="midnightblue" points="566.5,-270.08 570,-280.08 573.5,-270.08 566.5,-270.08"/>
</g>
<!-- Node14 -->
<g id="node14" class="node">
<title>Node14</title>
<g id="a_node14"><a xlink:href="pga_8hpp.html" target="_top" xlink:title=" ">
<polygon fill="white" stroke="black" points="0,-168.5 0,-187.5 56,-187.5 56,-168.5 0,-168.5"/>
<text text-anchor="middle" x="28" y="-175.5" font-family="Helvetica,sans-Serif" font-size="10.00">pga.hpp</text>
</a>
</g>
</g>
<!-- Node1&#45;&gt;Node14 -->
<g id="edge39" class="edge">
<title>Node1&#45;&gt;Node14</title>
<path fill="none" stroke="midnightblue" d="M504.92,-278.87C451.79,-270.35 374.84,-257.43 308,-244 199.34,-222.17 172.85,-213.54 65,-188 62.17,-187.33 59.22,-186.62 56.27,-185.91"/>
<polygon fill="midnightblue" stroke="midnightblue" points="504.46,-282.34 514.88,-280.46 505.56,-275.43 504.46,-282.34"/>
</g>
<!-- Node20 -->
<g id="node20" class="node">
<title>Node20</title>
<g id="a_node20"><a xlink:href="inner_2decl_2panoc_8hpp.html" target="_top" xlink:title=" ">
<polygon fill="white" stroke="black" points="765.5,-224.5 765.5,-243.5 832.5,-243.5 832.5,-224.5 765.5,-224.5"/>
<text text-anchor="middle" x="799" y="-231.5" font-family="Helvetica,sans-Serif" font-size="10.00">panoc.hpp</text>
</a>
</g>
</g>
<!-- Node1&#45;&gt;Node20 -->
<g id="edge31" class="edge">
<title>Node1&#45;&gt;Node20</title>
<path fill="none" stroke="midnightblue" d="M616.21,-278.1C660.43,-267.67 726.08,-252.2 765.49,-242.9"/>
<polygon fill="midnightblue" stroke="midnightblue" points="615.22,-274.74 606.29,-280.44 616.82,-281.55 615.22,-274.74"/>
</g>
<!-- Node23 -->
<g id="node23" class="node">
<title>Node23</title>
<g id="a_node23"><a xlink:href="decl_2second-order-panoc_8hpp.html" target="_top" xlink:title=" ">
<polygon fill="white" stroke="black" points="950,-224.5 950,-243.5 1084,-243.5 1084,-224.5 950,-224.5"/>
<text text-anchor="middle" x="1017" y="-231.5" font-family="Helvetica,sans-Serif" font-size="10.00">second&#45;order&#45;panoc.hpp</text>
</a>
</g>
</g>
<!-- Node1&#45;&gt;Node23 -->
<g id="edge40" class="edge">
<title>Node1&#45;&gt;Node23</title>
<path fill="none" stroke="midnightblue" d="M635.65,-281.07C719.74,-270.91 864.72,-253.4 949.63,-243.14"/>
<polygon fill="midnightblue" stroke="midnightblue" points="635.22,-277.6 625.71,-282.27 636.06,-284.55 635.22,-277.6"/>
</g>
<!-- Node24 -->
<g id="node24" class="node">
<title>Node24</title>
<g id="a_node24"><a xlink:href="decl_2structured-panoc-lbfgs_8hpp.html" target="_top" xlink:title=" ">
<polygon fill="white" stroke="black" points="208,-168.5 208,-187.5 356,-187.5 356,-168.5 208,-168.5"/>
<text text-anchor="middle" x="282" y="-175.5" font-family="Helvetica,sans-Serif" font-size="10.00">structured&#45;panoc&#45;lbfgs.hpp</text>
</a>
</g>
</g>
<!-- Node1&#45;&gt;Node24 -->
<g id="edge42" class="edge">
<title>Node1&#45;&gt;Node24</title>
<path fill="none" stroke="midnightblue" d="M537.86,-276.73C479.01,-254.25 355.29,-206.99 304.49,-187.59"/>
<polygon fill="midnightblue" stroke="midnightblue" points="536.81,-280.07 547.4,-280.37 539.31,-273.53 536.81,-280.07"/>
</g>
<!-- Node3 -->
<g id="node3" class="node">
<title>Node3</title>
<g id="a_node3"><a xlink:href="kwargs-to-struct_8hpp.html" target="_top" xlink:title="This file defines mappings from Python dicts (kwargs) to simple parameter structs.">
<polygon fill="white" stroke="black" points="123,-112.5 123,-131.5 241,-131.5 241,-112.5 123,-112.5"/>
<text text-anchor="middle" x="182" y="-119.5" font-family="Helvetica,sans-Serif" font-size="10.00">kwargs&#45;to&#45;struct.hpp</text>
</a>
</g>
</g>
<!-- Node2&#45;&gt;Node3 -->
<g id="edge2" class="edge">
<title>Node2&#45;&gt;Node3</title>
<path fill="none" stroke="midnightblue" d="M147.08,-160.72C155.89,-151.2 166.67,-139.56 173.9,-131.75"/>
<polygon fill="midnightblue" stroke="midnightblue" points="144.48,-158.37 140.26,-168.08 149.62,-163.12 144.48,-158.37"/>
</g>
<!-- Node2&#45;&gt;Node4 -->
<g id="edge4" class="edge">
<title>Node2&#45;&gt;Node4</title>
<path fill="none" stroke="midnightblue" d="M119.27,-159.9C114.07,-151.87 108.65,-141.9 106,-132 97.06,-98.66 96.03,-78.74 122,-56 161.27,-21.63 316.95,-13.51 390.34,-11.59"/>
<polygon fill="midnightblue" stroke="midnightblue" points="116.54,-162.09 125.11,-168.32 122.29,-158.11 116.54,-162.09"/>
</g>
<!-- Node5 -->
<g id="node5" class="node">
<title>Node5</title>
<g id="a_node5"><a xlink:href="polymorphic-inner-solver_8hpp.html" target="_top" xlink:title=" ">
<polygon fill="white" stroke="black" points="139,-56.5 139,-75.5 299,-75.5 299,-56.5 139,-56.5"/>
<text text-anchor="middle" x="219" y="-63.5" font-family="Helvetica,sans-Serif" font-size="10.00">polymorphic&#45;inner&#45;solver.hpp</text>
</a>
</g>
</g>
<!-- Node2&#45;&gt;Node5 -->
<g id="edge5" class="edge">
<title>Node2&#45;&gt;Node5</title>
<path fill="none" stroke="midnightblue" d="M119.98,-159.74C111.95,-145.9 104.47,-126.46 114,-112 126.61,-92.88 149.21,-81.85 170.23,-75.5"/>
<polygon fill="midnightblue" stroke="midnightblue" points="117.1,-161.74 125.42,-168.31 123.01,-157.99 117.1,-161.74"/>
</g>
<!-- Node3&#45;&gt;Node4 -->
<g id="edge3" class="edge">
<title>Node3&#45;&gt;Node4</title>
<path fill="none" stroke="midnightblue" d="M157.97,-107.02C138.05,-93.69 115.22,-73.17 130,-56 163.18,-17.46 317.4,-11.48 390.44,-10.85"/>
<polygon fill="midnightblue" stroke="midnightblue" points="156.17,-110.02 166.49,-112.43 159.92,-104.11 156.17,-110.02"/>
</g>
<!-- Node5&#45;&gt;Node4 -->
<g id="edge6" class="edge">
<title>Node5&#45;&gt;Node4</title>
<path fill="none" stroke="midnightblue" d="M262.19,-53.89C301.85,-43.7 359.77,-28.8 395.88,-19.52"/>
<polygon fill="midnightblue" stroke="midnightblue" points="261.09,-50.56 252.28,-56.44 262.83,-57.34 261.09,-50.56"/>
</g>
<!-- Node6&#45;&gt;Node2 -->
<g id="edge8" class="edge">
<title>Node6&#45;&gt;Node2</title>
<path fill="none" stroke="midnightblue" d="M506.13,-225.5C432.18,-216.77 306.72,-201.77 199,-188 195.97,-187.61 192.87,-187.21 189.74,-186.8"/>
<polygon fill="midnightblue" stroke="midnightblue" points="505.87,-229 516.21,-226.7 506.69,-222.05 505.87,-229"/>
</g>
<!-- Node7 -->
<g id="node7" class="node">
<title>Node7</title>
<g id="a_node7"><a xlink:href="lbfgspp_8hpp.html" target="_top" xlink:title=" ">
<polygon fill="white" stroke="black" points="374,-168.5 374,-187.5 448,-187.5 448,-168.5 374,-168.5"/>
<text text-anchor="middle" x="411" y="-175.5" font-family="Helvetica,sans-Serif" font-size="10.00">lbfgspp.hpp</text>
</a>
</g>
</g>
<!-- Node6&#45;&gt;Node7 -->
<g id="edge9" class="edge">
<title>Node6&#45;&gt;Node7</title>
<path fill="none" stroke="midnightblue" d="M535.17,-221.17C505.23,-211 462.78,-196.59 436.08,-187.52"/>
<polygon fill="midnightblue" stroke="midnightblue" points="534.21,-224.54 544.81,-224.44 536.46,-217.91 534.21,-224.54"/>
</g>
<!-- Node8 -->
<g id="node8" class="node">
<title>Node8</title>
<g id="a_node8"><a xlink:href="inner_2panoc_8hpp.html" target="_top" xlink:title=" ">
<polygon fill="white" stroke="black" points="765.5,-168.5 765.5,-187.5 832.5,-187.5 832.5,-168.5 765.5,-168.5"/>
<text text-anchor="middle" x="799" y="-175.5" font-family="Helvetica,sans-Serif" font-size="10.00">panoc.hpp</text>
</a>
</g>
</g>
<!-- Node6&#45;&gt;Node8 -->
<g id="edge10" class="edge">
<title>Node6&#45;&gt;Node8</title>
<path fill="none" stroke="midnightblue" d="M616.21,-222.1C660.43,-211.67 726.08,-196.2 765.49,-186.9"/>
<polygon fill="midnightblue" stroke="midnightblue" points="615.22,-218.74 606.29,-224.44 616.82,-225.55 615.22,-218.74"/>
</g>
<!-- Node13 -->
<g id="node13" class="node">
<title>Node13</title>
<g id="a_node13"><a xlink:href="standalone_2panoc_8hpp.html" target="_top" xlink:title=" ">
<polygon fill="white" stroke="black" points="680.5,-168.5 680.5,-187.5 747.5,-187.5 747.5,-168.5 680.5,-168.5"/>
<text text-anchor="middle" x="714" y="-175.5" font-family="Helvetica,sans-Serif" font-size="10.00">panoc.hpp</text>
</a>
</g>
</g>
<!-- Node6&#45;&gt;Node13 -->
<g id="edge19" class="edge">
<title>Node6&#45;&gt;Node13</title>
<path fill="none" stroke="midnightblue" d="M602.25,-220.91C629.32,-210.75 667.32,-196.51 691.29,-187.52"/>
<polygon fill="midnightblue" stroke="midnightblue" points="600.95,-217.66 592.82,-224.44 603.41,-224.21 600.95,-217.66"/>
</g>
<!-- Node6&#45;&gt;Node14 -->
<g id="edge21" class="edge">
<title>Node6&#45;&gt;Node14</title>
<path fill="none" stroke="midnightblue" d="M506.08,-230.37C409.86,-225.73 222.32,-213.99 65,-188 62.13,-187.53 59.15,-186.95 56.19,-186.32"/>
<polygon fill="midnightblue" stroke="midnightblue" points="506.07,-233.88 516.22,-230.85 506.4,-226.89 506.07,-233.88"/>
</g>
<!-- Node15 -->
<g id="node15" class="node">
<title>Node15</title>
<g id="a_node15"><a xlink:href="second-order-panoc_8hpp.html" target="_top" xlink:title=" ">
<polygon fill="white" stroke="black" points="1049,-168.5 1049,-187.5 1183,-187.5 1183,-168.5 1049,-168.5"/>
<text text-anchor="middle" x="1116" y="-175.5" font-family="Helvetica,sans-Serif" font-size="10.00">second&#45;order&#45;panoc.hpp</text>
</a>
</g>
</g>
<!-- Node6&#45;&gt;Node15 -->
<g id="edge25" class="edge">
<title>Node6&#45;&gt;Node15</title>
<path fill="none" stroke="midnightblue" d="M633.7,-227.36C724.11,-219.25 894.81,-203.55 1040,-188 1042.91,-187.69 1045.87,-187.36 1048.87,-187.03"/>
<polygon fill="midnightblue" stroke="midnightblue" points="633.26,-223.88 623.61,-228.26 633.88,-230.86 633.26,-223.88"/>
</g>
<!-- Node17 -->
<g id="node17" class="node">
<title>Node17</title>
<g id="a_node17"><a xlink:href="specialized-lbfgs_8hpp.html" target="_top" xlink:title=" ">
<polygon fill="white" stroke="black" points="466,-168.5 466,-187.5 586,-187.5 586,-168.5 466,-168.5"/>
<text text-anchor="middle" x="526" y="-175.5" font-family="Helvetica,sans-Serif" font-size="10.00">specialized&#45;lbfgs.hpp</text>
</a>
</g>
</g>
<!-- Node6&#45;&gt;Node17 -->
<g id="edge27" class="edge">
<title>Node6&#45;&gt;Node17</title>
<path fill="none" stroke="midnightblue" d="M556.27,-216.14C548.6,-206.74 539.37,-195.4 533.13,-187.75"/>
<polygon fill="midnightblue" stroke="midnightblue" points="553.7,-218.54 562.73,-224.08 559.13,-214.12 553.7,-218.54"/>
</g>
<!-- Node18 -->
<g id="node18" class="node">
<title>Node18</title>
<g id="a_node18"><a xlink:href="structured-panoc-lbfgs_8hpp.html" target="_top" xlink:title=" ">
<polygon fill="white" stroke="black" points="335,-112.5 335,-131.5 483,-131.5 483,-112.5 335,-112.5"/>
<text text-anchor="middle" x="409" y="-119.5" font-family="Helvetica,sans-Serif" font-size="10.00">structured&#45;panoc&#45;lbfgs.hpp</text>
</a>
</g>
</g>
<!-- Node6&#45;&gt;Node18 -->
<g id="edge28" class="edge">
<title>Node6&#45;&gt;Node18</title>
<path fill="none" stroke="midnightblue" d="M584.92,-216.33C595.6,-202.31 606.27,-182.32 595,-168 580.93,-150.12 528.65,-138.49 483.08,-131.54"/>
<polygon fill="midnightblue" stroke="midnightblue" points="582.12,-214.23 578.47,-224.18 587.52,-218.68 582.12,-214.23"/>
</g>
<!-- Node8&#45;&gt;Node4 -->
<g id="edge14" class="edge">
<title>Node8&#45;&gt;Node4</title>
<path fill="none" stroke="midnightblue" d="M808.73,-159.24C815.03,-145.07 820.33,-125.43 810,-112 767.96,-57.36 556.05,-26.16 467.73,-15.35"/>
<polygon fill="midnightblue" stroke="midnightblue" points="805.48,-157.91 804.17,-168.43 811.75,-161.03 805.48,-157.91"/>
</g>
<!-- Node8&#45;&gt;Node5 -->
<g id="edge15" class="edge">
<title>Node8&#45;&gt;Node5</title>
<path fill="none" stroke="midnightblue" d="M755.1,-167.91C564.84,-141.54 505.66,-190.47 326,-132 287.14,-119.36 247.65,-90.23 229.41,-75.65"/>
<polygon fill="midnightblue" stroke="midnightblue" points="754.75,-171.4 765.14,-169.36 755.74,-164.47 754.75,-171.4"/>
</g>
<!-- Node9 -->
<g id="node9" class="node">
<title>Node9</title>
<g id="a_node9"><a xlink:href="alm_8cpp.html" target="_top" xlink:title=" ">
<polygon fill="white" stroke="black" points="857,-112.5 857,-131.5 913,-131.5 913,-112.5 857,-112.5"/>
<text text-anchor="middle" x="885" y="-119.5" font-family="Helvetica,sans-Serif" font-size="10.00">alm.cpp</text>
</a>
</g>
</g>
<!-- Node8&#45;&gt;Node9 -->
<g id="edge11" class="edge">
<title>Node8&#45;&gt;Node9</title>
<path fill="none" stroke="midnightblue" d="M821.45,-162.9C837.22,-153 857.81,-140.07 871.22,-131.65"/>
<polygon fill="midnightblue" stroke="midnightblue" points="819.43,-160.04 812.82,-168.32 823.15,-165.97 819.43,-160.04"/>
</g>
<!-- Node10 -->
<g id="node10" class="node">
<title>Node10</title>
<g id="a_node10"><a xlink:href="Presentation_2Cpp_2main_8cpp.html" target="_top" xlink:title=" ">
<polygon fill="white" stroke="black" points="931,-112.5 931,-131.5 993,-131.5 993,-112.5 931,-112.5"/>
<text text-anchor="middle" x="962" y="-119.5" font-family="Helvetica,sans-Serif" font-size="10.00">main.cpp</text>
</a>
</g>
</g>
<!-- Node8&#45;&gt;Node10 -->
<g id="edge12" class="edge">
<title>Node8&#45;&gt;Node10</title>
<path fill="none" stroke="midnightblue" d="M834.7,-165.17C865.4,-155 908.92,-140.59 936.29,-131.52"/>
<polygon fill="midnightblue" stroke="midnightblue" points="833.22,-161.98 824.83,-168.44 835.42,-168.62 833.22,-161.98"/>
</g>
<!-- Node11 -->
<g id="node11" class="node">
<title>Node11</title>
<g id="a_node11"><a xlink:href="panoc_8cpp.html" target="_top" xlink:title=" ">
<polygon fill="white" stroke="black" points="735,-112.5 735,-131.5 801,-131.5 801,-112.5 735,-112.5"/>
<text text-anchor="middle" x="768" y="-119.5" font-family="Helvetica,sans-Serif" font-size="10.00">panoc.cpp</text>
</a>
</g>
</g>
<!-- Node8&#45;&gt;Node11 -->
<g id="edge13" class="edge">
<title>Node8&#45;&gt;Node11</title>
<path fill="none" stroke="midnightblue" d="M788.82,-159.27C783.53,-150.05 777.28,-139.17 773.02,-131.75"/>
<polygon fill="midnightblue" stroke="midnightblue" points="785.87,-161.15 793.88,-168.08 791.94,-157.67 785.87,-161.15"/>
</g>
<!-- Node12 -->
<g id="node12" class="node">
<title>Node12</title>
<g id="a_node12"><a xlink:href="polymorphic-panoc-direction_8hpp.html" target="_top" xlink:title=" ">
<polygon fill="white" stroke="black" points="539,-112.5 539,-131.5 717,-131.5 717,-112.5 539,-112.5"/>
<text text-anchor="middle" x="628" y="-119.5" font-family="Helvetica,sans-Serif" font-size="10.00">polymorphic&#45;panoc&#45;direction.hpp</text>
</a>
</g>
</g>
<!-- Node8&#45;&gt;Node12 -->
<g id="edge16" class="edge">
<title>Node8&#45;&gt;Node12</title>
<path fill="none" stroke="midnightblue" d="M761.96,-165.3C729.74,-155.13 683.81,-140.62 654.97,-131.52"/>
<polygon fill="midnightblue" stroke="midnightblue" points="761.31,-168.77 771.9,-168.44 763.42,-162.09 761.31,-168.77"/>
</g>
<!-- Node12&#45;&gt;Node4 -->
<g id="edge17" class="edge">
<title>Node12&#45;&gt;Node4</title>
<path fill="none" stroke="midnightblue" d="M611.47,-105.65C595.43,-91.35 569.93,-70.18 545,-56 516.84,-39.98 481.85,-27.28 457.71,-19.52"/>
<polygon fill="midnightblue" stroke="midnightblue" points="609.18,-108.29 618.94,-112.42 613.89,-103.11 609.18,-108.29"/>
</g>
<!-- Node12&#45;&gt;Node5 -->
<g id="edge18" class="edge">
<title>Node12&#45;&gt;Node5</title>
<path fill="none" stroke="midnightblue" d="M553.05,-111.1C475.82,-100.91 356.67,-85.18 283.5,-75.52"/>
<polygon fill="midnightblue" stroke="midnightblue" points="552.82,-114.6 563.19,-112.44 553.74,-107.66 552.82,-114.6"/>
</g>
<!-- Node13&#45;&gt;Node4 -->
<g id="edge20" class="edge">
<title>Node13&#45;&gt;Node4</title>
<path fill="none" stroke="midnightblue" d="M670.36,-171.62C622.36,-164.81 549.43,-151.57 530,-132 505.54,-107.37 533.1,-83.56 512,-56 498.35,-38.17 475.54,-26.53 457.28,-19.57"/>
<polygon fill="midnightblue" stroke="midnightblue" points="670.11,-175.11 680.49,-173.01 671.06,-168.18 670.11,-175.11"/>
</g>
<!-- Node14&#45;&gt;Node3 -->
<g id="edge22" class="edge">
<title>Node14&#45;&gt;Node3</title>
<path fill="none" stroke="midnightblue" d="M62.11,-165.04C91.09,-154.88 131.96,-140.55 157.71,-131.52"/>
<polygon fill="midnightblue" stroke="midnightblue" points="60.68,-161.83 52.4,-168.44 63,-168.44 60.68,-161.83"/>
</g>
<!-- Node14&#45;&gt;Node4 -->
<g id="edge23" class="edge">
<title>Node14&#45;&gt;Node4</title>
<path fill="none" stroke="midnightblue" d="M33.58,-158.63C42.93,-131.3 64.51,-80.53 102,-56 148.82,-25.37 314.44,-15.29 390.41,-12.23"/>
<polygon fill="midnightblue" stroke="midnightblue" points="30.15,-157.87 30.41,-168.47 36.81,-160.03 30.15,-157.87"/>
</g>
<!-- Node14&#45;&gt;Node5 -->
<g id="edge24" class="edge">
<title>Node14&#45;&gt;Node5</title>
<path fill="none" stroke="midnightblue" d="M43.81,-161.23C58.8,-146.92 82.48,-126 106,-112 133.04,-95.91 166.88,-83.3 190.45,-75.58"/>
<polygon fill="midnightblue" stroke="midnightblue" points="41.15,-158.92 36.43,-168.4 46.03,-163.94 41.15,-158.92"/>
</g>
<!-- Node16 -->
<g id="node16" class="node">
<title>Node16</title>
<g id="a_node16"><a xlink:href="second-order-panoc_8cpp.html" target="_top" xlink:title=" ">
<polygon fill="white" stroke="black" points="1049,-112.5 1049,-131.5 1183,-131.5 1183,-112.5 1049,-112.5"/>
<text text-anchor="middle" x="1116" y="-119.5" font-family="Helvetica,sans-Serif" font-size="10.00">second&#45;order&#45;panoc.cpp</text>
</a>
</g>
</g>
<!-- Node15&#45;&gt;Node16 -->
<g id="edge26" class="edge">
<title>Node15&#45;&gt;Node16</title>
<path fill="none" stroke="midnightblue" d="M1116,-157.8C1116,-148.91 1116,-138.78 1116,-131.75"/>
<polygon fill="midnightblue" stroke="midnightblue" points="1112.5,-158.08 1116,-168.08 1119.5,-158.08 1112.5,-158.08"/>
</g>
<!-- Node18&#45;&gt;Node4 -->
<g id="edge29" class="edge">
<title>Node18&#45;&gt;Node4</title>
<path fill="none" stroke="midnightblue" d="M380.31,-107.76C358.36,-95.65 333.76,-76.56 346,-56 356.98,-37.55 378.46,-26.2 396.82,-19.51"/>
<polygon fill="midnightblue" stroke="midnightblue" points="378.96,-110.99 389.44,-112.5 382.18,-104.78 378.96,-110.99"/>
</g>
<!-- Node19 -->
<g id="node19" class="node">
<title>Node19</title>
<g id="a_node19"><a xlink:href="structured-panoc-lbfgs_8cpp.html" target="_top" xlink:title=" ">
<polygon fill="white" stroke="black" points="355.5,-56.5 355.5,-75.5 502.5,-75.5 502.5,-56.5 355.5,-56.5"/>
<text text-anchor="middle" x="429" y="-63.5" font-family="Helvetica,sans-Serif" font-size="10.00">structured&#45;panoc&#45;lbfgs.cpp</text>
</a>
</g>
</g>
<!-- Node18&#45;&gt;Node19 -->
<g id="edge30" class="edge">
<title>Node18&#45;&gt;Node19</title>
<path fill="none" stroke="midnightblue" d="M415.78,-102.69C419.15,-93.59 423.07,-83.01 425.76,-75.75"/>
<polygon fill="midnightblue" stroke="midnightblue" points="412.49,-101.49 412.3,-112.08 419.06,-103.92 412.49,-101.49"/>
</g>
<!-- Node20&#45;&gt;Node3 -->
<g id="edge32" class="edge">
<title>Node20&#45;&gt;Node3</title>
<path fill="none" stroke="midnightblue" d="M767.68,-220.85C728.08,-206.01 657.52,-181.23 595,-168 561.22,-160.85 346.87,-139.22 241.01,-128.77"/>
<polygon fill="midnightblue" stroke="midnightblue" points="766.46,-224.14 777.05,-224.4 768.94,-217.59 766.46,-224.14"/>
</g>
<!-- Node20&#45;&gt;Node4 -->
<g id="edge37" class="edge">
<title>Node20&#45;&gt;Node4</title>
<path fill="none" stroke="midnightblue" d="M815.23,-216.75C830.68,-202.11 855.19,-180.97 880,-168 932.88,-140.37 1039.57,-158.34 1002,-112 934.49,-28.73 585.04,-14.11 467.57,-11.55"/>
<polygon fill="midnightblue" stroke="midnightblue" points="812.38,-214.64 807.64,-224.11 817.25,-219.66 812.38,-214.64"/>
</g>
<!-- Node20&#45;&gt;Node8 -->
<g id="edge35" class="edge">
<title>Node20&#45;&gt;Node8</title>
<path fill="none" stroke="midnightblue" d="M799,-213.8C799,-204.91 799,-194.78 799,-187.75"/>
<polygon fill="midnightblue" stroke="midnightblue" points="795.5,-214.08 799,-224.08 802.5,-214.08 795.5,-214.08"/>
</g>
<!-- Node20&#45;&gt;Node13 -->
<g id="edge36" class="edge">
<title>Node20&#45;&gt;Node13</title>
<path fill="none" stroke="midnightblue" d="M776.81,-218.9C761.22,-209 740.87,-196.07 727.62,-187.65"/>
<polygon fill="midnightblue" stroke="midnightblue" points="775.03,-221.92 785.34,-224.32 778.78,-216.01 775.03,-221.92"/>
</g>
<!-- Node21 -->
<g id="node21" class="node">
<title>Node21</title>
<g id="a_node21"><a xlink:href="CasADi_2Rosenbrock_2main_8cpp.html" target="_top" xlink:title=" ">
<polygon fill="white" stroke="black" points="969,-168.5 969,-187.5 1031,-187.5 1031,-168.5 969,-168.5"/>
<text text-anchor="middle" x="1000" y="-175.5" font-family="Helvetica,sans-Serif" font-size="10.00">main.cpp</text>
</a>
</g>
</g>
<!-- Node20&#45;&gt;Node21 -->
<g id="edge33" class="edge">
<title>Node20&#45;&gt;Node21</title>
<path fill="none" stroke="midnightblue" d="M840.64,-221.81C878.83,-211.55 934.54,-196.59 968.96,-187.34"/>
<polygon fill="midnightblue" stroke="midnightblue" points="839.6,-218.47 830.85,-224.44 841.41,-225.23 839.6,-218.47"/>
</g>
<!-- Node22 -->
<g id="node22" class="node">
<title>Node22</title>
<g id="a_node22"><a xlink:href="CUTEst_2Rosenbrock_2main_8cpp.html" target="_top" xlink:title=" ">
<polygon fill="white" stroke="black" points="889,-168.5 889,-187.5 951,-187.5 951,-168.5 889,-168.5"/>
<text text-anchor="middle" x="920" y="-175.5" font-family="Helvetica,sans-Serif" font-size="10.00">main.cpp</text>
</a>
</g>
</g>
<!-- Node20&#45;&gt;Node22 -->
<g id="edge34" class="edge">
<title>Node20&#45;&gt;Node22</title>
<path fill="none" stroke="midnightblue" d="M827.31,-220.37C849.97,-210.26 881.13,-196.35 900.92,-187.52"/>
<polygon fill="midnightblue" stroke="midnightblue" points="825.88,-217.17 818.17,-224.44 828.73,-223.56 825.88,-217.17"/>
</g>
<!-- Node23&#45;&gt;Node15 -->
<g id="edge41" class="edge">
<title>Node23&#45;&gt;Node15</title>
<path fill="none" stroke="midnightblue" d="M1041.84,-219.45C1060.11,-209.48 1084.42,-196.23 1100.13,-187.65"/>
<polygon fill="midnightblue" stroke="midnightblue" points="1040.01,-216.46 1032.91,-224.32 1043.36,-222.61 1040.01,-216.46"/>
</g>
<!-- Node24&#45;&gt;Node3 -->
<g id="edge43" class="edge">
<title>Node24&#45;&gt;Node3</title>
<path fill="none" stroke="midnightblue" d="M256.91,-163.45C238.45,-153.48 213.9,-140.23 198.03,-131.65"/>
<polygon fill="midnightblue" stroke="midnightblue" points="255.47,-166.65 265.93,-168.32 258.8,-160.49 255.47,-166.65"/>
</g>
<!-- Node24&#45;&gt;Node5 -->
<g id="edge44" class="edge">
<title>Node24&#45;&gt;Node5</title>
<path fill="none" stroke="midnightblue" d="M273.99,-158.99C267.9,-145.73 259.04,-127.41 250,-112 242.32,-98.91 232.13,-84.6 225.57,-75.71"/>
<polygon fill="midnightblue" stroke="midnightblue" points="270.93,-160.71 278.24,-168.38 277.31,-157.83 270.93,-160.71"/>
</g>
<!-- Node24&#45;&gt;Node18 -->
<g id="edge45" class="edge">
<title>Node24&#45;&gt;Node18</title>
<path fill="none" stroke="midnightblue" d="M311.39,-164.5C335.2,-154.38 368.11,-140.39 388.97,-131.52"/>
<polygon fill="midnightblue" stroke="midnightblue" points="309.96,-161.31 302.12,-168.44 312.7,-167.75 309.96,-161.31"/>
</g>
</g>
</svg>
