<?xml version="1.0" encoding="UTF-8" standalone="no"?>
<!DOCTYPE svg PUBLIC "-//W3C//DTD SVG 1.1//EN"
 "http://www.w3.org/Graphics/SVG/1.1/DTD/svg11.dtd">
<!-- Generated by graphviz version 2.43.0 (0)
 -->
<!-- Title: structured&#45;panoc&#45;lbfgs.hpp Pages: 1 -->
<svg width="250pt" height="84pt"
 viewBox="0.00 0.00 250.00 84.00" xmlns="http://www.w3.org/2000/svg" xmlns:xlink="http://www.w3.org/1999/xlink">
<g id="graph0" class="graph" transform="scale(1 1) rotate(0) translate(4 80)">
<title>structured&#45;panoc&#45;lbfgs.hpp</title>
<polygon fill="white" stroke="transparent" points="-4,4 -4,-80 246,-80 246,4 -4,4"/>
<!-- Node1 -->
<g id="node1" class="node">
<title>Node1</title>
<g id="a_node1"><a xlink:title=" ">
<polygon fill="#bfbfbf" stroke="black" points="29.5,-56.5 29.5,-75.5 177.5,-75.5 177.5,-56.5 29.5,-56.5"/>
<text text-anchor="middle" x="103.5" y="-63.5" font-family="Helvetica,sans-Serif" font-size="10.00">structured&#45;panoc&#45;lbfgs.hpp</text>
</a>
</g>
</g>
<!-- Node2 -->
<g id="node2" class="node">
<title>Node2</title>
<g id="a_node2"><a xlink:href="panocpy_8cpp.html" target="_top" xlink:title="This file defines all Python bindings.">
<polygon fill="white" stroke="black" points="0,-0.5 0,-19.5 77,-19.5 77,-0.5 0,-0.5"/>
<text text-anchor="middle" x="38.5" y="-7.5" font-family="Helvetica,sans-Serif" font-size="10.00">panocpy.cpp</text>
</a>
</g>
</g>
<!-- Node1&#45;&gt;Node2 -->
<g id="edge1" class="edge">
<title>Node1&#45;&gt;Node2</title>
<path fill="none" stroke="midnightblue" d="M85.23,-49.82C73.58,-40.15 58.9,-27.95 49.13,-19.83"/>
<polygon fill="midnightblue" stroke="midnightblue" points="83.13,-52.63 93.06,-56.32 87.6,-47.24 83.13,-52.63"/>
</g>
<!-- Node3 -->
<g id="node3" class="node">
<title>Node3</title>
<g id="a_node3"><a xlink:href="structured-panoc-lbfgs_8cpp.html" target="_top" xlink:title=" ">
<polygon fill="white" stroke="black" points="95,-0.5 95,-19.5 242,-19.5 242,-0.5 95,-0.5"/>
<text text-anchor="middle" x="168.5" y="-7.5" font-family="Helvetica,sans-Serif" font-size="10.00">structured&#45;panoc&#45;lbfgs.cpp</text>
</a>
</g>
</g>
<!-- Node1&#45;&gt;Node3 -->
<g id="edge2" class="edge">
<title>Node1&#45;&gt;Node3</title>
<path fill="none" stroke="midnightblue" d="M121.77,-49.82C133.42,-40.15 148.1,-27.95 157.87,-19.83"/>
<polygon fill="midnightblue" stroke="midnightblue" points="119.4,-47.24 113.94,-56.32 123.87,-52.63 119.4,-47.24"/>
</g>
</g>
</svg>
