<?xml version="1.0" encoding="UTF-8" standalone="no"?>
<!DOCTYPE svg PUBLIC "-//W3C//DTD SVG 1.1//EN"
 "http://www.w3.org/Graphics/SVG/1.1/DTD/svg11.dtd">
<!-- Generated by graphviz version 2.43.0 (0)
 -->
<!-- Title: structured&#45;panoc&#45;lbfgs.hpp Pages: 1 -->
<svg width="1671pt" height="397pt"
 viewBox="0.00 0.00 1671.14 397.00" xmlns="http://www.w3.org/2000/svg" xmlns:xlink="http://www.w3.org/1999/xlink">
<g id="graph0" class="graph" transform="scale(1 1) rotate(0) translate(4 393)">
<title>structured&#45;panoc&#45;lbfgs.hpp</title>
<polygon fill="white" stroke="transparent" points="-4,4 -4,-393 1667.14,-393 1667.14,4 -4,4"/>
<!-- Node1 -->
<g id="node1" class="node">
<title>Node1</title>
<g id="a_node1"><a xlink:title=" ">
<polygon fill="#bfbfbf" stroke="black" points="1217.14,-369.5 1217.14,-388.5 1365.14,-388.5 1365.14,-369.5 1217.14,-369.5"/>
<text text-anchor="middle" x="1291.14" y="-376.5" font-family="Helvetica,sans-Serif" font-size="10.00">structured&#45;panoc&#45;lbfgs.hpp</text>
</a>
</g>
</g>
<!-- Node2 -->
<g id="node2" class="node">
<title>Node2</title>
<g id="a_node2"><a xlink:href="decl_2structured-panoc-lbfgs_8hpp.html" target="_top" xlink:title=" ">
<polygon fill="white" stroke="black" points="726.64,-302.5 726.64,-332.5 877.64,-332.5 877.64,-302.5 726.64,-302.5"/>
<text text-anchor="start" x="734.64" y="-320.5" font-family="Helvetica,sans-Serif" font-size="10.00">panoc&#45;alm/inner/decl</text>
<text text-anchor="middle" x="802.14" y="-309.5" font-family="Helvetica,sans-Serif" font-size="10.00">/structured&#45;panoc&#45;lbfgs.hpp</text>
</a>
</g>
</g>
<!-- Node1&#45;&gt;Node2 -->
<g id="edge1" class="edge">
<title>Node1&#45;&gt;Node2</title>
<path fill="none" stroke="midnightblue" d="M1221.08,-369.48C1133.17,-358.78 982.49,-340.44 887.82,-328.92"/>
<polygon fill="midnightblue" stroke="midnightblue" points="888.05,-325.43 877.7,-327.69 887.2,-332.38 888.05,-325.43"/>
</g>
<!-- Node8 -->
<g id="node8" class="node">
<title>Node8</title>
<g id="a_node8"><a xlink:title=" ">
<polygon fill="white" stroke="#bfbfbf" points="1409.64,-174 1409.64,-193 1474.64,-193 1474.64,-174 1409.64,-174"/>
<text text-anchor="middle" x="1442.14" y="-181" font-family="Helvetica,sans-Serif" font-size="10.00">stdexcept</text>
</a>
</g>
</g>
<!-- Node1&#45;&gt;Node8 -->
<g id="edge47" class="edge">
<title>Node1&#45;&gt;Node8</title>
<path fill="none" stroke="midnightblue" d="M1314.72,-369.4C1351.17,-354.67 1419.94,-320.77 1448.14,-266 1458.27,-246.34 1453.84,-220.41 1448.83,-203.13"/>
<polygon fill="midnightblue" stroke="midnightblue" points="1452.01,-201.61 1445.59,-193.18 1445.35,-203.77 1452.01,-201.61"/>
</g>
<!-- Node18 -->
<g id="node18" class="node">
<title>Node18</title>
<g id="a_node18"><a xlink:title=" ">
<polygon fill="white" stroke="#bfbfbf" points="383.14,-174 383.14,-193 435.14,-193 435.14,-174 383.14,-174"/>
<text text-anchor="middle" x="409.14" y="-181" font-family="Helvetica,sans-Serif" font-size="10.00">cassert</text>
</a>
</g>
</g>
<!-- Node1&#45;&gt;Node18 -->
<g id="edge43" class="edge">
<title>Node1&#45;&gt;Node18</title>
<path fill="none" stroke="midnightblue" d="M1217.1,-376.76C1024.13,-373.15 515.79,-361.08 445.14,-333 402.36,-316 385.49,-307.78 366.14,-266 360.35,-253.5 361.38,-247.93 366.14,-235 371.11,-221.49 381.48,-209.14 390.79,-200.03"/>
<polygon fill="midnightblue" stroke="midnightblue" points="393.24,-202.53 398.22,-193.18 388.5,-197.38 393.24,-202.53"/>
</g>
<!-- Node27 -->
<g id="node27" class="node">
<title>Node27</title>
<g id="a_node27"><a xlink:href="panoc-helpers_8hpp.html" target="_top" xlink:title=" ">
<polygon fill="white" stroke="black" points="1181.64,-302.5 1181.64,-332.5 1308.64,-332.5 1308.64,-302.5 1181.64,-302.5"/>
<text text-anchor="start" x="1189.64" y="-320.5" font-family="Helvetica,sans-Serif" font-size="10.00">panoc&#45;alm/inner/detail</text>
<text text-anchor="middle" x="1245.14" y="-309.5" font-family="Helvetica,sans-Serif" font-size="10.00">/panoc&#45;helpers.hpp</text>
</a>
</g>
</g>
<!-- Node1&#45;&gt;Node27 -->
<g id="edge33" class="edge">
<title>Node1&#45;&gt;Node27</title>
<path fill="none" stroke="midnightblue" d="M1284.55,-369.48C1278.73,-361.94 1269.98,-350.63 1262.2,-340.57"/>
<polygon fill="midnightblue" stroke="midnightblue" points="1264.87,-338.29 1255.98,-332.52 1259.33,-342.58 1264.87,-338.29"/>
</g>
<!-- Node28 -->
<g id="node28" class="node">
<title>Node28</title>
<g id="a_node28"><a xlink:href="lbfgs_8hpp.html" target="_top" xlink:title=" ">
<polygon fill="white" stroke="black" points="454.64,-302.5 454.64,-332.5 601.64,-332.5 601.64,-302.5 454.64,-302.5"/>
<text text-anchor="start" x="462.64" y="-320.5" font-family="Helvetica,sans-Serif" font-size="10.00">panoc&#45;alm/inner/directions</text>
<text text-anchor="middle" x="528.14" y="-309.5" font-family="Helvetica,sans-Serif" font-size="10.00">/lbfgs.hpp</text>
</a>
</g>
</g>
<!-- Node1&#45;&gt;Node28 -->
<g id="edge39" class="edge">
<title>Node1&#45;&gt;Node28</title>
<path fill="none" stroke="midnightblue" d="M1216.94,-372.21C1074.08,-361.07 761.72,-336.71 611.75,-325.02"/>
<polygon fill="midnightblue" stroke="midnightblue" points="611.92,-321.52 601.67,-324.23 611.37,-328.5 611.92,-321.52"/>
</g>
<!-- Node29 -->
<g id="node29" class="node">
<title>Node29</title>
<g id="a_node29"><a xlink:title=" ">
<polygon fill="white" stroke="#bfbfbf" points="1463.64,-308 1463.64,-327 1510.64,-327 1510.64,-308 1463.64,-308"/>
<text text-anchor="middle" x="1487.14" y="-315" font-family="Helvetica,sans-Serif" font-size="10.00">cmath</text>
</a>
</g>
</g>
<!-- Node1&#45;&gt;Node29 -->
<g id="edge44" class="edge">
<title>Node1&#45;&gt;Node29</title>
<path fill="none" stroke="midnightblue" d="M1324.38,-369.44C1356.54,-360.94 1406.52,-347.17 1449.14,-333 1451.4,-332.25 1453.73,-331.44 1456.06,-330.61"/>
<polygon fill="midnightblue" stroke="midnightblue" points="1457.39,-333.85 1465.56,-327.11 1454.96,-327.29 1457.39,-333.85"/>
</g>
<!-- Node30 -->
<g id="node30" class="node">
<title>Node30</title>
<g id="a_node30"><a xlink:title=" ">
<polygon fill="white" stroke="#bfbfbf" points="1529.14,-308 1529.14,-327 1585.14,-327 1585.14,-308 1529.14,-308"/>
<text text-anchor="middle" x="1557.14" y="-315" font-family="Helvetica,sans-Serif" font-size="10.00">iomanip</text>
</a>
</g>
</g>
<!-- Node1&#45;&gt;Node30 -->
<g id="edge45" class="edge">
<title>Node1&#45;&gt;Node30</title>
<path fill="none" stroke="midnightblue" d="M1349.72,-369.47C1396.4,-361.95 1463.16,-349.62 1520.14,-333 1522.58,-332.29 1525.07,-331.49 1527.57,-330.63"/>
<polygon fill="midnightblue" stroke="midnightblue" points="1528.84,-333.89 1537.01,-327.14 1526.42,-327.32 1528.84,-333.89"/>
</g>
<!-- Node31 -->
<g id="node31" class="node">
<title>Node31</title>
<g id="a_node31"><a xlink:title=" ">
<polygon fill="white" stroke="#bfbfbf" points="1603.14,-308 1603.14,-327 1663.14,-327 1663.14,-308 1603.14,-308"/>
<text text-anchor="middle" x="1633.14" y="-315" font-family="Helvetica,sans-Serif" font-size="10.00">iostream</text>
</a>
</g>
</g>
<!-- Node1&#45;&gt;Node31 -->
<g id="edge46" class="edge">
<title>Node1&#45;&gt;Node31</title>
<path fill="none" stroke="midnightblue" d="M1365.16,-371.36C1427.04,-364.78 1517.27,-352.77 1594.14,-333 1596.96,-332.27 1599.86,-331.42 1602.75,-330.49"/>
<polygon fill="midnightblue" stroke="midnightblue" points="1604.06,-333.74 1612.35,-327.14 1601.75,-327.13 1604.06,-333.74"/>
</g>
<!-- Node3 -->
<g id="node3" class="node">
<title>Node3</title>
<g id="a_node3"><a xlink:href="lbfgs-stepsize_8hpp.html" target="_top" xlink:title=" ">
<polygon fill="white" stroke="black" points="446.64,-235.5 446.64,-265.5 565.64,-265.5 565.64,-235.5 446.64,-235.5"/>
<text text-anchor="start" x="454.64" y="-253.5" font-family="Helvetica,sans-Serif" font-size="10.00">panoc&#45;alm/inner/decl</text>
<text text-anchor="middle" x="506.14" y="-242.5" font-family="Helvetica,sans-Serif" font-size="10.00">/lbfgs&#45;stepsize.hpp</text>
</a>
</g>
</g>
<!-- Node2&#45;&gt;Node3 -->
<g id="edge2" class="edge">
<title>Node2&#45;&gt;Node3</title>
<path fill="none" stroke="midnightblue" d="M738.28,-302.48C690.42,-291.97 624.99,-277.6 575.79,-266.79"/>
<polygon fill="midnightblue" stroke="midnightblue" points="576.38,-263.34 565.86,-264.61 574.88,-270.18 576.38,-263.34"/>
</g>
<!-- Node4 -->
<g id="node4" class="node">
<title>Node4</title>
<g id="a_node4"><a xlink:href="panoc-fwd_8hpp.html" target="_top" xlink:title=" ">
<polygon fill="white" stroke="black" points="170.64,-235.5 170.64,-265.5 289.64,-265.5 289.64,-235.5 170.64,-235.5"/>
<text text-anchor="start" x="178.64" y="-253.5" font-family="Helvetica,sans-Serif" font-size="10.00">panoc&#45;alm/inner/decl</text>
<text text-anchor="middle" x="230.14" y="-242.5" font-family="Helvetica,sans-Serif" font-size="10.00">/panoc&#45;fwd.hpp</text>
</a>
</g>
</g>
<!-- Node2&#45;&gt;Node4 -->
<g id="edge3" class="edge">
<title>Node2&#45;&gt;Node4</title>
<path fill="none" stroke="midnightblue" d="M726.48,-307.9C615,-295.23 408.17,-271.73 300.07,-259.45"/>
<polygon fill="midnightblue" stroke="midnightblue" points="300.25,-255.94 289.92,-258.29 299.46,-262.9 300.25,-255.94"/>
</g>
<!-- Node6 -->
<g id="node6" class="node">
<title>Node6</title>
<g id="a_node6"><a xlink:href="panoc-stop-crit_8hpp.html" target="_top" xlink:title=" ">
<polygon fill="white" stroke="black" points="1299.64,-235.5 1299.64,-265.5 1418.64,-265.5 1418.64,-235.5 1299.64,-235.5"/>
<text text-anchor="start" x="1307.64" y="-253.5" font-family="Helvetica,sans-Serif" font-size="10.00">panoc&#45;alm/inner/decl</text>
<text text-anchor="middle" x="1359.14" y="-242.5" font-family="Helvetica,sans-Serif" font-size="10.00">/panoc&#45;stop&#45;crit.hpp</text>
</a>
</g>
</g>
<!-- Node2&#45;&gt;Node6 -->
<g id="edge5" class="edge">
<title>Node2&#45;&gt;Node6</title>
<path fill="none" stroke="midnightblue" d="M877.86,-311.21C972.18,-304.06 1138.38,-289.59 1289.57,-266.15"/>
<polygon fill="midnightblue" stroke="midnightblue" points="1290.17,-269.6 1299.51,-264.59 1289.08,-262.68 1290.17,-269.6"/>
</g>
<!-- Node9 -->
<g id="node9" class="node">
<title>Node9</title>
<g id="a_node9"><a xlink:href="decl_2lbfgs_8hpp.html" target="_top" xlink:title=" ">
<polygon fill="white" stroke="black" points="5.64,-235.5 5.64,-265.5 152.64,-265.5 152.64,-235.5 5.64,-235.5"/>
<text text-anchor="start" x="13.64" y="-253.5" font-family="Helvetica,sans-Serif" font-size="10.00">panoc&#45;alm/inner/directions</text>
<text text-anchor="middle" x="79.14" y="-242.5" font-family="Helvetica,sans-Serif" font-size="10.00">/decl/lbfgs.hpp</text>
</a>
</g>
</g>
<!-- Node2&#45;&gt;Node9 -->
<g id="edge8" class="edge">
<title>Node2&#45;&gt;Node9</title>
<path fill="none" stroke="midnightblue" d="M726.6,-310.74C572.98,-299.01 233.33,-272.94 162.97,-265.98"/>
<polygon fill="midnightblue" stroke="midnightblue" points="163.17,-262.48 152.85,-264.88 162.41,-269.44 163.17,-262.48"/>
</g>
<!-- Node14 -->
<g id="node14" class="node">
<title>Node14</title>
<g id="a_node14"><a xlink:href="atomic__stop__signal_8hpp.html" target="_top" xlink:title=" ">
<polygon fill="white" stroke="black" points="892.14,-235.5 892.14,-265.5 1016.14,-265.5 1016.14,-235.5 892.14,-235.5"/>
<text text-anchor="start" x="900.14" y="-253.5" font-family="Helvetica,sans-Serif" font-size="10.00">panoc&#45;alm/util/atomic</text>
<text text-anchor="middle" x="954.14" y="-242.5" font-family="Helvetica,sans-Serif" font-size="10.00">_stop_signal.hpp</text>
</a>
</g>
</g>
<!-- Node2&#45;&gt;Node14 -->
<g id="edge16" class="edge">
<title>Node2&#45;&gt;Node14</title>
<path fill="none" stroke="midnightblue" d="M835.12,-302.4C857.63,-292.77 887.65,-279.94 911.9,-269.56"/>
<polygon fill="midnightblue" stroke="midnightblue" points="913.41,-272.73 921.23,-265.58 910.65,-266.29 913.41,-272.73"/>
</g>
<!-- Node15 -->
<g id="node15" class="node">
<title>Node15</title>
<g id="a_node15"><a xlink:title=" ">
<polygon fill="white" stroke="#bfbfbf" points="868.14,-174 868.14,-193 918.14,-193 918.14,-174 868.14,-174"/>
<text text-anchor="middle" x="893.14" y="-181" font-family="Helvetica,sans-Serif" font-size="10.00">atomic</text>
</a>
</g>
</g>
<!-- Node2&#45;&gt;Node15 -->
<g id="edge29" class="edge">
<title>Node2&#45;&gt;Node15</title>
<path fill="none" stroke="midnightblue" d="M802.44,-302.32C803.43,-285.04 807.24,-255.59 821.14,-235 831.97,-218.97 849.72,-206.44 864.88,-197.87"/>
<polygon fill="midnightblue" stroke="midnightblue" points="866.73,-200.84 873.91,-193.05 863.44,-194.67 866.73,-200.84"/>
</g>
<!-- Node16 -->
<g id="node16" class="node">
<title>Node16</title>
<g id="a_node16"><a xlink:href="lipschitz_8hpp.html" target="_top" xlink:title=" ">
<polygon fill="white" stroke="black" points="581.14,-112.5 581.14,-131.5 733.14,-131.5 733.14,-112.5 581.14,-112.5"/>
<text text-anchor="middle" x="657.14" y="-119.5" font-family="Helvetica,sans-Serif" font-size="10.00">panoc&#45;alm/util/lipschitz.hpp</text>
</a>
</g>
</g>
<!-- Node2&#45;&gt;Node16 -->
<g id="edge18" class="edge">
<title>Node2&#45;&gt;Node16</title>
<path fill="none" stroke="midnightblue" d="M877.98,-315.77C954.45,-311.72 1056.98,-295.33 1025.14,-235 1000.52,-188.34 976.09,-187.69 927.14,-168 868.53,-144.43 797.99,-133.2 743.71,-127.86"/>
<polygon fill="midnightblue" stroke="midnightblue" points="743.71,-124.34 733.42,-126.89 743.06,-131.31 743.71,-124.34"/>
</g>
<!-- Node17 -->
<g id="node17" class="node">
<title>Node17</title>
<g id="a_node17"><a xlink:href="include_2panoc-alm_2util_2problem_8hpp.html" target="_top" xlink:title=" ">
<polygon fill="white" stroke="black" points="584.14,-241 584.14,-260 736.14,-260 736.14,-241 584.14,-241"/>
<text text-anchor="middle" x="660.14" y="-248" font-family="Helvetica,sans-Serif" font-size="10.00">panoc&#45;alm/util/problem.hpp</text>
</a>
</g>
</g>
<!-- Node2&#45;&gt;Node17 -->
<g id="edge20" class="edge">
<title>Node2&#45;&gt;Node17</title>
<path fill="none" stroke="midnightblue" d="M771.33,-302.4C746.53,-291.04 711.96,-275.22 687.98,-264.24"/>
<polygon fill="midnightblue" stroke="midnightblue" points="689.28,-260.99 678.73,-260.01 686.36,-267.35 689.28,-260.99"/>
</g>
<!-- Node19 -->
<g id="node19" class="node">
<title>Node19</title>
<g id="a_node19"><a xlink:title=" ">
<polygon fill="white" stroke="#bfbfbf" points="739.14,-174 739.14,-193 789.14,-193 789.14,-174 739.14,-174"/>
<text text-anchor="middle" x="764.14" y="-181" font-family="Helvetica,sans-Serif" font-size="10.00">chrono</text>
</a>
</g>
</g>
<!-- Node2&#45;&gt;Node19 -->
<g id="edge30" class="edge">
<title>Node2&#45;&gt;Node19</title>
<path fill="none" stroke="midnightblue" d="M798.08,-302.37C791.17,-278.4 777.17,-229.75 769.48,-203.06"/>
<polygon fill="midnightblue" stroke="midnightblue" points="772.75,-201.74 766.62,-193.1 766.02,-203.68 772.75,-201.74"/>
</g>
<!-- Node23 -->
<g id="node23" class="node">
<title>Node23</title>
<g id="a_node23"><a xlink:href="solverstatus_8hpp.html" target="_top" xlink:title=" ">
<polygon fill="white" stroke="black" points="1110.64,-241 1110.64,-260 1281.64,-260 1281.64,-241 1110.64,-241"/>
<text text-anchor="middle" x="1196.14" y="-248" font-family="Helvetica,sans-Serif" font-size="10.00">panoc&#45;alm/util/solverstatus.hpp</text>
</a>
</g>
</g>
<!-- Node2&#45;&gt;Node23 -->
<g id="edge27" class="edge">
<title>Node2&#45;&gt;Node23</title>
<path fill="none" stroke="midnightblue" d="M877.64,-304.04C952.29,-291.73 1065.12,-273.12 1134.53,-261.66"/>
<polygon fill="midnightblue" stroke="midnightblue" points="1135.15,-265.11 1144.44,-260.03 1134.01,-258.2 1135.15,-265.11"/>
</g>
<!-- Node25 -->
<g id="node25" class="node">
<title>Node25</title>
<g id="a_node25"><a xlink:title=" ">
<polygon fill="white" stroke="#bfbfbf" points="830.14,-241 830.14,-260 874.14,-260 874.14,-241 830.14,-241"/>
<text text-anchor="middle" x="852.14" y="-248" font-family="Helvetica,sans-Serif" font-size="10.00">limits</text>
</a>
</g>
</g>
<!-- Node2&#45;&gt;Node25 -->
<g id="edge31" class="edge">
<title>Node2&#45;&gt;Node25</title>
<path fill="none" stroke="midnightblue" d="M812.99,-302.4C820.71,-292.36 831.11,-278.84 839.26,-268.25"/>
<polygon fill="midnightblue" stroke="midnightblue" points="842.13,-270.25 845.45,-260.19 836.58,-265.99 842.13,-270.25"/>
</g>
<!-- Node26 -->
<g id="node26" class="node">
<title>Node26</title>
<g id="a_node26"><a xlink:title=" ">
<polygon fill="white" stroke="#bfbfbf" points="384.14,-241 384.14,-260 428.14,-260 428.14,-241 384.14,-241"/>
<text text-anchor="middle" x="406.14" y="-248" font-family="Helvetica,sans-Serif" font-size="10.00">string</text>
</a>
</g>
</g>
<!-- Node2&#45;&gt;Node26 -->
<g id="edge32" class="edge">
<title>Node2&#45;&gt;Node26</title>
<path fill="none" stroke="midnightblue" d="M726.3,-312.64C651.49,-307.3 534.53,-294.8 437.14,-266 435.26,-265.44 433.35,-264.79 431.45,-264.07"/>
<polygon fill="midnightblue" stroke="midnightblue" points="432.77,-260.83 422.19,-260.12 430.02,-267.27 432.77,-260.83"/>
</g>
<!-- Node5 -->
<g id="node5" class="node">
<title>Node5</title>
<g id="a_node5"><a xlink:href="lbfgs-fwd_8hpp.html" target="_top" xlink:title=" ">
<polygon fill="white" stroke="black" points="217.64,-168.5 217.64,-198.5 364.64,-198.5 364.64,-168.5 217.64,-168.5"/>
<text text-anchor="start" x="225.64" y="-186.5" font-family="Helvetica,sans-Serif" font-size="10.00">panoc&#45;alm/inner/directions</text>
<text text-anchor="middle" x="291.14" y="-175.5" font-family="Helvetica,sans-Serif" font-size="10.00">/decl/lbfgs&#45;fwd.hpp</text>
</a>
</g>
</g>
<!-- Node4&#45;&gt;Node5 -->
<g id="edge4" class="edge">
<title>Node4&#45;&gt;Node5</title>
<path fill="none" stroke="midnightblue" d="M243.38,-235.4C251.45,-226.79 261.93,-215.63 271.02,-205.94"/>
<polygon fill="midnightblue" stroke="midnightblue" points="273.64,-208.26 277.93,-198.58 268.54,-203.47 273.64,-208.26"/>
</g>
<!-- Node7 -->
<g id="node7" class="node">
<title>Node7</title>
<g id="a_node7"><a xlink:title=" ">
<polygon fill="white" stroke="#bfbfbf" points="1330.64,-174 1330.64,-193 1387.64,-193 1387.64,-174 1330.64,-174"/>
<text text-anchor="middle" x="1359.14" y="-181" font-family="Helvetica,sans-Serif" font-size="10.00">ostream</text>
</a>
</g>
</g>
<!-- Node6&#45;&gt;Node7 -->
<g id="edge6" class="edge">
<title>Node6&#45;&gt;Node7</title>
<path fill="none" stroke="midnightblue" d="M1359.14,-235.4C1359.14,-226.06 1359.14,-213.71 1359.14,-203.52"/>
<polygon fill="midnightblue" stroke="midnightblue" points="1362.64,-203.19 1359.14,-193.19 1355.64,-203.19 1362.64,-203.19"/>
</g>
<!-- Node6&#45;&gt;Node8 -->
<g id="edge7" class="edge">
<title>Node6&#45;&gt;Node8</title>
<path fill="none" stroke="midnightblue" d="M1377.15,-235.4C1390.73,-224.76 1409.32,-210.2 1423.14,-199.38"/>
<polygon fill="midnightblue" stroke="midnightblue" points="1425.33,-202.12 1431.04,-193.19 1421.01,-196.6 1425.33,-202.12"/>
</g>
<!-- Node9&#45;&gt;Node5 -->
<g id="edge13" class="edge">
<title>Node9&#45;&gt;Node5</title>
<path fill="none" stroke="midnightblue" d="M124.88,-235.48C157.23,-225.56 200.8,-212.2 235.21,-201.65"/>
<polygon fill="midnightblue" stroke="midnightblue" points="236.58,-204.89 245.12,-198.61 234.53,-198.2 236.58,-204.89"/>
</g>
<!-- Node10 -->
<g id="node10" class="node">
<title>Node10</title>
<g id="a_node10"><a xlink:href="box_8hpp.html" target="_top" xlink:title=" ">
<polygon fill="white" stroke="black" points="46.64,-112.5 46.64,-131.5 175.64,-131.5 175.64,-112.5 46.64,-112.5"/>
<text text-anchor="middle" x="111.14" y="-119.5" font-family="Helvetica,sans-Serif" font-size="10.00">panoc&#45;alm/util/box.hpp</text>
</a>
</g>
</g>
<!-- Node9&#45;&gt;Node10 -->
<g id="edge9" class="edge">
<title>Node9&#45;&gt;Node10</title>
<path fill="none" stroke="midnightblue" d="M50.23,-235.45C36.29,-226.99 20.94,-214.78 13.14,-199 7.04,-186.65 5.71,-179.6 13.14,-168 23.42,-151.98 40.99,-141.58 58.44,-134.87"/>
<polygon fill="midnightblue" stroke="midnightblue" points="59.79,-138.11 68.08,-131.51 57.48,-131.5 59.79,-138.11"/>
</g>
<!-- Node11 -->
<g id="node11" class="node">
<title>Node11</title>
<g id="a_node11"><a xlink:href="vec_8hpp.html" target="_top" xlink:title=" ">
<polygon fill="white" stroke="black" points="83.64,-56.5 83.64,-75.5 138.64,-75.5 138.64,-56.5 83.64,-56.5"/>
<text text-anchor="middle" x="111.14" y="-63.5" font-family="Helvetica,sans-Serif" font-size="10.00">vec.hpp</text>
</a>
</g>
</g>
<!-- Node9&#45;&gt;Node11 -->
<g id="edge12" class="edge">
<title>Node9&#45;&gt;Node11</title>
<path fill="none" stroke="midnightblue" d="M44.45,-235.34C29.18,-227.15 12.77,-215.21 4.14,-199 -2.33,-186.84 0.52,-181.29 4.14,-168 11.74,-140.13 16.86,-132.57 37.14,-112 50.05,-98.91 67.5,-88.07 82.21,-80.3"/>
<polygon fill="midnightblue" stroke="midnightblue" points="84.07,-83.29 91.41,-75.65 80.91,-77.04 84.07,-83.29"/>
</g>
<!-- Node13 -->
<g id="node13" class="node">
<title>Node13</title>
<g id="a_node13"><a xlink:href="panoc-direction-update_8hpp.html" target="_top" xlink:title=" ">
<polygon fill="white" stroke="black" points="22.64,-168.5 22.64,-198.5 199.64,-198.5 199.64,-168.5 22.64,-168.5"/>
<text text-anchor="start" x="30.64" y="-186.5" font-family="Helvetica,sans-Serif" font-size="10.00">panoc&#45;alm/inner/directions</text>
<text text-anchor="middle" x="111.14" y="-175.5" font-family="Helvetica,sans-Serif" font-size="10.00">/decl/panoc&#45;direction&#45;update.hpp</text>
</a>
</g>
</g>
<!-- Node9&#45;&gt;Node13 -->
<g id="edge14" class="edge">
<title>Node9&#45;&gt;Node13</title>
<path fill="none" stroke="midnightblue" d="M86.09,-235.4C90.07,-227.3 95.17,-216.94 99.73,-207.69"/>
<polygon fill="midnightblue" stroke="midnightblue" points="102.94,-209.09 104.21,-198.58 96.66,-206 102.94,-209.09"/>
</g>
<!-- Node10&#45;&gt;Node11 -->
<g id="edge10" class="edge">
<title>Node10&#45;&gt;Node11</title>
<path fill="none" stroke="midnightblue" d="M111.14,-112.08C111.14,-105.01 111.14,-94.86 111.14,-85.99"/>
<polygon fill="midnightblue" stroke="midnightblue" points="114.64,-85.75 111.14,-75.75 107.64,-85.75 114.64,-85.75"/>
</g>
<!-- Node12 -->
<g id="node12" class="node">
<title>Node12</title>
<g id="a_node12"><a xlink:title=" ">
<polygon fill="white" stroke="#bfbfbf" points="76.64,-0.5 76.64,-19.5 145.64,-19.5 145.64,-0.5 76.64,-0.5"/>
<text text-anchor="middle" x="111.14" y="-7.5" font-family="Helvetica,sans-Serif" font-size="10.00">Eigen/Core</text>
</a>
</g>
</g>
<!-- Node11&#45;&gt;Node12 -->
<g id="edge11" class="edge">
<title>Node11&#45;&gt;Node12</title>
<path fill="none" stroke="midnightblue" d="M111.14,-56.08C111.14,-49.01 111.14,-38.86 111.14,-29.99"/>
<polygon fill="midnightblue" stroke="midnightblue" points="114.64,-29.75 111.14,-19.75 107.64,-29.75 114.64,-29.75"/>
</g>
<!-- Node13&#45;&gt;Node10 -->
<g id="edge15" class="edge">
<title>Node13&#45;&gt;Node10</title>
<path fill="none" stroke="midnightblue" d="M111.14,-168.4C111.14,-160.47 111.14,-150.46 111.14,-141.86"/>
<polygon fill="midnightblue" stroke="midnightblue" points="114.64,-141.66 111.14,-131.66 107.64,-141.66 114.64,-141.66"/>
</g>
<!-- Node14&#45;&gt;Node15 -->
<g id="edge17" class="edge">
<title>Node14&#45;&gt;Node15</title>
<path fill="none" stroke="midnightblue" d="M940.91,-235.4C931.3,-225.16 918.29,-211.3 908.27,-200.62"/>
<polygon fill="midnightblue" stroke="midnightblue" points="910.7,-198.09 901.3,-193.19 905.59,-202.88 910.7,-198.09"/>
</g>
<!-- Node16&#45;&gt;Node11 -->
<g id="edge19" class="edge">
<title>Node16&#45;&gt;Node11</title>
<path fill="none" stroke="midnightblue" d="M580.94,-113.46C462.3,-101.73 237.84,-79.53 148.85,-70.73"/>
<polygon fill="midnightblue" stroke="midnightblue" points="148.98,-67.23 138.69,-69.72 148.3,-74.19 148.98,-67.23"/>
</g>
<!-- Node17&#45;&gt;Node10 -->
<g id="edge21" class="edge">
<title>Node17&#45;&gt;Node10</title>
<path fill="none" stroke="midnightblue" d="M643.08,-240.97C624.61,-231.5 594.53,-215.38 570.14,-199 551.76,-186.65 551.63,-176.4 531.14,-168 470.4,-143.09 289.19,-131.01 185.73,-126"/>
<polygon fill="midnightblue" stroke="midnightblue" points="185.81,-122.5 175.66,-125.52 185.48,-129.49 185.81,-122.5"/>
</g>
<!-- Node17&#45;&gt;Node18 -->
<g id="edge22" class="edge">
<title>Node17&#45;&gt;Node18</title>
<path fill="none" stroke="midnightblue" d="M614.04,-240.99C569.9,-232.31 501.7,-217.51 444.14,-199 442.01,-198.31 439.82,-197.55 437.63,-196.75"/>
<polygon fill="midnightblue" stroke="midnightblue" points="438.78,-193.44 428.19,-193.05 436.22,-199.96 438.78,-193.44"/>
</g>
<!-- Node17&#45;&gt;Node19 -->
<g id="edge23" class="edge">
<title>Node17&#45;&gt;Node19</title>
<path fill="none" stroke="midnightblue" d="M674.17,-240.73C691.48,-229.92 721.13,-211.38 741.64,-198.57"/>
<polygon fill="midnightblue" stroke="midnightblue" points="743.71,-201.4 750.34,-193.13 740,-195.46 743.71,-201.4"/>
</g>
<!-- Node20 -->
<g id="node20" class="node">
<title>Node20</title>
<g id="a_node20"><a xlink:title=" ">
<polygon fill="white" stroke="#bfbfbf" points="655.64,-174 655.64,-193 720.64,-193 720.64,-174 655.64,-174"/>
<text text-anchor="middle" x="688.14" y="-181" font-family="Helvetica,sans-Serif" font-size="10.00">functional</text>
</a>
</g>
</g>
<!-- Node17&#45;&gt;Node20 -->
<g id="edge24" class="edge">
<title>Node17&#45;&gt;Node20</title>
<path fill="none" stroke="midnightblue" d="M663.92,-240.73C668.12,-230.99 675.01,-214.98 680.38,-202.53"/>
<polygon fill="midnightblue" stroke="midnightblue" points="683.68,-203.7 684.43,-193.13 677.26,-200.93 683.68,-203.7"/>
</g>
<!-- Node21 -->
<g id="node21" class="node">
<title>Node21</title>
<g id="a_node21"><a xlink:title=" ">
<polygon fill="white" stroke="#bfbfbf" points="579.14,-174 579.14,-193 637.14,-193 637.14,-174 579.14,-174"/>
<text text-anchor="middle" x="608.14" y="-181" font-family="Helvetica,sans-Serif" font-size="10.00">memory</text>
</a>
</g>
</g>
<!-- Node17&#45;&gt;Node21 -->
<g id="edge25" class="edge">
<title>Node17&#45;&gt;Node21</title>
<path fill="none" stroke="midnightblue" d="M653.13,-240.73C645.02,-230.6 631.49,-213.69 621.39,-201.06"/>
<polygon fill="midnightblue" stroke="midnightblue" points="624.02,-198.75 615.04,-193.13 618.56,-203.12 624.02,-198.75"/>
</g>
<!-- Node22 -->
<g id="node22" class="node">
<title>Node22</title>
<g id="a_node22"><a xlink:title=" ">
<polygon fill="white" stroke="#bfbfbf" points="453.64,-174 453.64,-193 522.64,-193 522.64,-174 453.64,-174"/>
<text text-anchor="middle" x="488.14" y="-181" font-family="Helvetica,sans-Serif" font-size="10.00">type_traits</text>
</a>
</g>
</g>
<!-- Node17&#45;&gt;Node22 -->
<g id="edge26" class="edge">
<title>Node17&#45;&gt;Node22</title>
<path fill="none" stroke="midnightblue" d="M637.3,-240.87C607.28,-229.52 554.36,-209.52 520.3,-196.65"/>
<polygon fill="midnightblue" stroke="midnightblue" points="521.4,-193.32 510.8,-193.06 518.92,-199.87 521.4,-193.32"/>
</g>
<!-- Node24 -->
<g id="node24" class="node">
<title>Node24</title>
<g id="a_node24"><a xlink:title=" ">
<polygon fill="white" stroke="#bfbfbf" points="1172.14,-174 1172.14,-193 1220.14,-193 1220.14,-174 1172.14,-174"/>
<text text-anchor="middle" x="1196.14" y="-181" font-family="Helvetica,sans-Serif" font-size="10.00">iosfwd</text>
</a>
</g>
</g>
<!-- Node23&#45;&gt;Node24 -->
<g id="edge28" class="edge">
<title>Node23&#45;&gt;Node24</title>
<path fill="none" stroke="midnightblue" d="M1196.14,-240.73C1196.14,-231.18 1196.14,-215.62 1196.14,-203.28"/>
<polygon fill="midnightblue" stroke="midnightblue" points="1199.64,-203.13 1196.14,-193.13 1192.64,-203.13 1199.64,-203.13"/>
</g>
<!-- Node27&#45;&gt;Node6 -->
<g id="edge34" class="edge">
<title>Node27&#45;&gt;Node6</title>
<path fill="none" stroke="midnightblue" d="M1269.88,-302.4C1286.16,-293.11 1307.68,-280.84 1325.51,-270.67"/>
<polygon fill="midnightblue" stroke="midnightblue" points="1327.5,-273.57 1334.45,-265.58 1324.03,-267.49 1327.5,-273.57"/>
</g>
<!-- Node27&#45;&gt;Node8 -->
<g id="edge38" class="edge">
<title>Node27&#45;&gt;Node8</title>
<path fill="none" stroke="midnightblue" d="M1308.69,-315.47C1348.66,-311.31 1398.17,-299.1 1428.14,-266 1443.46,-249.08 1445.15,-221.74 1444.24,-203.45"/>
<polygon fill="midnightblue" stroke="midnightblue" points="1447.72,-203.09 1443.42,-193.4 1440.74,-203.65 1447.72,-203.09"/>
</g>
<!-- Node27&#45;&gt;Node14 -->
<g id="edge35" class="edge">
<title>Node27&#45;&gt;Node14</title>
<path fill="none" stroke="midnightblue" d="M1182.36,-302.48C1136.5,-292.23 1074.22,-278.32 1026.31,-267.62"/>
<polygon fill="midnightblue" stroke="midnightblue" points="1026.84,-264.15 1016.31,-265.39 1025.31,-270.98 1026.84,-264.15"/>
</g>
<!-- Node27&#45;&gt;Node17 -->
<g id="edge36" class="edge">
<title>Node27&#45;&gt;Node17</title>
<path fill="none" stroke="midnightblue" d="M1181.42,-309.42C1075.97,-297.7 865.02,-274.26 746.35,-261.08"/>
<polygon fill="midnightblue" stroke="midnightblue" points="746.54,-257.58 736.21,-259.95 745.77,-264.54 746.54,-257.58"/>
</g>
<!-- Node27&#45;&gt;Node23 -->
<g id="edge37" class="edge">
<title>Node27&#45;&gt;Node23</title>
<path fill="none" stroke="midnightblue" d="M1234.51,-302.4C1226.95,-292.36 1216.75,-278.84 1208.77,-268.25"/>
<polygon fill="midnightblue" stroke="midnightblue" points="1211.51,-266.07 1202.7,-260.19 1205.92,-270.29 1211.51,-266.07"/>
</g>
<!-- Node28&#45;&gt;Node8 -->
<g id="edge41" class="edge">
<title>Node28&#45;&gt;Node8</title>
<path fill="none" stroke="midnightblue" d="M601.73,-310.17C730.08,-298.97 985.09,-275.89 1025.14,-266 1060.96,-257.16 1066.42,-244.2 1102.14,-235 1230.05,-202.05 1268.14,-227.38 1397.14,-199 1401,-198.15 1405,-197.11 1408.95,-195.98"/>
<polygon fill="midnightblue" stroke="midnightblue" points="1410.02,-199.31 1418.55,-193.03 1407.97,-192.62 1410.02,-199.31"/>
</g>
<!-- Node28&#45;&gt;Node9 -->
<g id="edge40" class="edge">
<title>Node28&#45;&gt;Node9</title>
<path fill="none" stroke="midnightblue" d="M454.56,-307.22C382.62,-297.95 269.73,-282.9 162.87,-266.24"/>
<polygon fill="midnightblue" stroke="midnightblue" points="163.3,-262.77 152.88,-264.68 162.22,-269.68 163.3,-262.77"/>
</g>
<!-- Node28&#45;&gt;Node22 -->
<g id="edge42" class="edge">
<title>Node28&#45;&gt;Node22</title>
<path fill="none" stroke="midnightblue" d="M454.4,-310.55C424.8,-304.11 393.42,-291.27 375.14,-266 367.07,-254.83 367.65,-246.56 375.14,-235 379.91,-227.65 424.48,-209.16 456.2,-196.71"/>
<polygon fill="midnightblue" stroke="midnightblue" points="457.52,-199.96 465.57,-193.06 454.98,-193.43 457.52,-199.96"/>
</g>
</g>
</svg>
