<?xml version="1.0" encoding="UTF-8" standalone="no"?>
<!DOCTYPE svg PUBLIC "-//W3C//DTD SVG 1.1//EN"
 "http://www.w3.org/Graphics/SVG/1.1/DTD/svg11.dtd">
<!-- Generated by graphviz version 2.43.0 (0)
 -->
<!-- Title: CUTEstProblem Pages: 1 -->
<svg width="156pt" height="463pt"
 viewBox="0.00 0.00 156.00 463.00" xmlns="http://www.w3.org/2000/svg" xmlns:xlink="http://www.w3.org/1999/xlink">
<g id="graph0" class="graph" transform="scale(1 1) rotate(0) translate(4 459)">
<title>CUTEstProblem</title>
<polygon fill="white" stroke="transparent" points="-4,4 -4,-459 152,-459 152,4 -4,4"/>
<!-- Node1 -->
<g id="node1" class="node">
<title>Node1</title>
<g id="a_node1"><a xlink:title="Wrapper for CUTEst problems loaded from an external shared library.">
<polygon fill="#bfbfbf" stroke="black" points="0,-0.5 0,-156.5 148,-156.5 148,-0.5 0,-0.5"/>
<text text-anchor="middle" x="74" y="-144.5" font-family="Helvetica,sans-Serif" font-size="10.00">CUTEstProblem</text>
<polyline fill="none" stroke="black" points="0,-137.5 148,-137.5 "/>
<text text-anchor="start" x="8" y="-125.5" font-family="Helvetica,sans-Serif" font-size="10.00">+ name</text>
<text text-anchor="start" x="8" y="-114.5" font-family="Helvetica,sans-Serif" font-size="10.00">+ number_box_constraints</text>
<text text-anchor="start" x="8" y="-103.5" font-family="Helvetica,sans-Serif" font-size="10.00">+ x0</text>
<text text-anchor="start" x="8" y="-92.5" font-family="Helvetica,sans-Serif" font-size="10.00">+ y0</text>
<text text-anchor="start" x="8" y="-81.5" font-family="Helvetica,sans-Serif" font-size="10.00">&#45; implementation</text>
<polyline fill="none" stroke="black" points="0,-74.5 148,-74.5 "/>
<text text-anchor="start" x="8" y="-62.5" font-family="Helvetica,sans-Serif" font-size="10.00">+ CUTEstProblem()</text>
<text text-anchor="start" x="8" y="-51.5" font-family="Helvetica,sans-Serif" font-size="10.00">+ CUTEstProblem()</text>
<text text-anchor="start" x="8" y="-40.5" font-family="Helvetica,sans-Serif" font-size="10.00">+ CUTEstProblem()</text>
<text text-anchor="start" x="8" y="-29.5" font-family="Helvetica,sans-Serif" font-size="10.00">+ operator=()</text>
<text text-anchor="start" x="8" y="-18.5" font-family="Helvetica,sans-Serif" font-size="10.00">+ ~CUTEstProblem()</text>
<text text-anchor="start" x="8" y="-7.5" font-family="Helvetica,sans-Serif" font-size="10.00">+ get_report()</text>
</a>
</g>
</g>
<!-- Node2 -->
<g id="node2" class="node">
<title>Node2</title>
<g id="a_node2"><a xlink:href="../../d4/da7/structpa_1_1Problem.html" target="_top" xlink:title="Problem description for minimization problems.">
<polygon fill="white" stroke="black" points="43.5,-204.5 43.5,-327.5 104.5,-327.5 104.5,-204.5 43.5,-204.5"/>
<text text-anchor="middle" x="74" y="-315.5" font-family="Helvetica,sans-Serif" font-size="10.00">Problem</text>
<polyline fill="none" stroke="black" points="43.5,-308.5 104.5,-308.5 "/>
<text text-anchor="start" x="51.5" y="-296.5" font-family="Helvetica,sans-Serif" font-size="10.00">+ n</text>
<text text-anchor="start" x="51.5" y="-285.5" font-family="Helvetica,sans-Serif" font-size="10.00">+ m</text>
<text text-anchor="start" x="51.5" y="-274.5" font-family="Helvetica,sans-Serif" font-size="10.00">+ f</text>
<text text-anchor="start" x="51.5" y="-263.5" font-family="Helvetica,sans-Serif" font-size="10.00">+ grad_f</text>
<text text-anchor="start" x="51.5" y="-252.5" font-family="Helvetica,sans-Serif" font-size="10.00">+ g</text>
<text text-anchor="start" x="51.5" y="-241.5" font-family="Helvetica,sans-Serif" font-size="10.00">+ grad_g</text>
<text text-anchor="start" x="51.5" y="-230.5" font-family="Helvetica,sans-Serif" font-size="10.00">+ hess_L</text>
<polyline fill="none" stroke="black" points="43.5,-223.5 104.5,-223.5 "/>
<text text-anchor="middle" x="74" y="-211.5" font-family="Helvetica,sans-Serif" font-size="10.00"> </text>
</a>
</g>
</g>
<!-- Node2&#45;&gt;Node1 -->
<g id="edge1" class="edge">
<title>Node2&#45;&gt;Node1</title>
<path fill="none" stroke="#404040" d="M74,-204.26C74,-192.85 74,-180.7 74,-168.63"/>
<polygon fill="none" stroke="#404040" points="74,-168.62 70,-162.62 74,-156.62 78,-162.62 74,-168.62"/>
<text text-anchor="middle" x="100" y="-178" font-family="Helvetica,sans-Serif" font-size="10.00"> +problem</text>
</g>
<!-- Node3 -->
<g id="node3" class="node">
<title>Node3</title>
<g id="a_node3"><a xlink:href="../../de/d4f/namespacepa.html#d8/d2d/structpa_1_1Box" target="_top" xlink:title=" ">
<polygon fill="white" stroke="black" points="31,-386.5 31,-454.5 117,-454.5 117,-386.5 31,-386.5"/>
<text text-anchor="middle" x="74" y="-442.5" font-family="Helvetica,sans-Serif" font-size="10.00">Box</text>
<polyline fill="none" stroke="black" points="31,-435.5 117,-435.5 "/>
<text text-anchor="start" x="39" y="-423.5" font-family="Helvetica,sans-Serif" font-size="10.00">+ upperbound</text>
<text text-anchor="start" x="39" y="-412.5" font-family="Helvetica,sans-Serif" font-size="10.00">+ lowerbound</text>
<polyline fill="none" stroke="black" points="31,-405.5 117,-405.5 "/>
<text text-anchor="middle" x="74" y="-393.5" font-family="Helvetica,sans-Serif" font-size="10.00"> </text>
</a>
</g>
</g>
<!-- Node3&#45;&gt;Node2 -->
<g id="edge2" class="edge">
<title>Node3&#45;&gt;Node2</title>
<path fill="none" stroke="#404040" d="M74,-386.41C74,-372.73 74,-356.28 74,-340.03"/>
<polygon fill="none" stroke="#404040" points="74,-339.69 70,-333.69 74,-327.69 78,-333.69 74,-339.69"/>
<text text-anchor="middle" x="83.5" y="-360" font-family="Helvetica,sans-Serif" font-size="10.00"> +C</text>
<text text-anchor="middle" x="83.5" y="-349" font-family="Helvetica,sans-Serif" font-size="10.00">+D</text>
</g>
</g>
</svg>
