<?xml version="1.0" encoding="UTF-8" standalone="no"?>
<!DOCTYPE svg PUBLIC "-//W3C//DTD SVG 1.1//EN"
 "http://www.w3.org/Graphics/SVG/1.1/DTD/svg11.dtd">
<!-- Generated by graphviz version 2.43.0 (0)
 -->
<!-- Title: alm.hpp Pages: 1 -->
<svg width="787pt" height="397pt"
 viewBox="0.00 0.00 786.50 397.00" xmlns="http://www.w3.org/2000/svg" xmlns:xlink="http://www.w3.org/1999/xlink">
<g id="graph0" class="graph" transform="scale(1 1) rotate(0) translate(4 393)">
<title>alm.hpp</title>
<polygon fill="white" stroke="transparent" points="-4,4 -4,-393 782.5,-393 782.5,4 -4,4"/>
<!-- Node1 -->
<g id="node1" class="node">
<title>Node1</title>
<g id="a_node1"><a xlink:title=" ">
<polygon fill="#bfbfbf" stroke="black" points="616.5,-369.5 616.5,-388.5 672.5,-388.5 672.5,-369.5 616.5,-369.5"/>
<text text-anchor="middle" x="644.5" y="-376.5" font-family="Helvetica,sans-Serif" font-size="10.00">alm.hpp</text>
</a>
</g>
</g>
<!-- Node2 -->
<g id="node2" class="node">
<title>Node2</title>
<g id="a_node2"><a xlink:href="alm-helpers_8hpp.html" target="_top" xlink:title=" ">
<polygon fill="white" stroke="black" points="467,-302.5 467,-332.5 588,-332.5 588,-302.5 467,-302.5"/>
<text text-anchor="start" x="475" y="-320.5" font-family="Helvetica,sans-Serif" font-size="10.00">panoc&#45;alm/detail/alm</text>
<text text-anchor="middle" x="527.5" y="-309.5" font-family="Helvetica,sans-Serif" font-size="10.00">&#45;helpers.hpp</text>
</a>
</g>
</g>
<!-- Node1&#45;&gt;Node2 -->
<g id="edge1" class="edge">
<title>Node1&#45;&gt;Node2</title>
<path fill="none" stroke="midnightblue" d="M627.74,-369.48C611.22,-361.08 585.45,-347.97 564.18,-337.15"/>
<polygon fill="midnightblue" stroke="midnightblue" points="565.57,-333.94 555.07,-332.52 562.4,-340.18 565.57,-333.94"/>
</g>
<!-- Node14 -->
<g id="node14" class="node">
<title>Node14</title>
<g id="a_node14"><a xlink:href="solverstatus_8hpp.html" target="_top" xlink:title=" ">
<polygon fill="white" stroke="black" points="531,-185 531,-204 702,-204 702,-185 531,-185"/>
<text text-anchor="middle" x="616.5" y="-192" font-family="Helvetica,sans-Serif" font-size="10.00">panoc&#45;alm/util/solverstatus.hpp</text>
</a>
</g>
</g>
<!-- Node1&#45;&gt;Node14 -->
<g id="edge18" class="edge">
<title>Node1&#45;&gt;Node14</title>
<path fill="none" stroke="midnightblue" d="M642.62,-369.4C640.68,-360.37 637.65,-345.73 635.5,-333 628.37,-290.77 621.98,-240.92 618.74,-214.37"/>
<polygon fill="midnightblue" stroke="midnightblue" points="622.19,-213.72 617.52,-204.21 615.24,-214.56 622.19,-213.72"/>
</g>
<!-- Node19 -->
<g id="node19" class="node">
<title>Node19</title>
<g id="a_node19"><a xlink:title=" ">
<polygon fill="white" stroke="#bfbfbf" points="644.5,-308 644.5,-327 700.5,-327 700.5,-308 644.5,-308"/>
<text text-anchor="middle" x="672.5" y="-315" font-family="Helvetica,sans-Serif" font-size="10.00">iomanip</text>
</a>
</g>
</g>
<!-- Node1&#45;&gt;Node19 -->
<g id="edge19" class="edge">
<title>Node1&#45;&gt;Node19</title>
<path fill="none" stroke="midnightblue" d="M648.51,-369.48C652.59,-360.82 659.02,-347.15 664.2,-336.15"/>
<polygon fill="midnightblue" stroke="midnightblue" points="667.4,-337.55 668.5,-327.01 661.07,-334.57 667.4,-337.55"/>
</g>
<!-- Node20 -->
<g id="node20" class="node">
<title>Node20</title>
<g id="a_node20"><a xlink:title=" ">
<polygon fill="white" stroke="#bfbfbf" points="718.5,-308 718.5,-327 778.5,-327 778.5,-308 718.5,-308"/>
<text text-anchor="middle" x="748.5" y="-315" font-family="Helvetica,sans-Serif" font-size="10.00">iostream</text>
</a>
</g>
</g>
<!-- Node1&#45;&gt;Node20 -->
<g id="edge20" class="edge">
<title>Node1&#45;&gt;Node20</title>
<path fill="none" stroke="midnightblue" d="M659.4,-369.48C676.47,-359.71 704.66,-343.58 724.76,-332.08"/>
<polygon fill="midnightblue" stroke="midnightblue" points="726.69,-335.01 733.63,-327.01 723.21,-328.94 726.69,-335.01"/>
</g>
<!-- Node3 -->
<g id="node3" class="node">
<title>Node3</title>
<g id="a_node3"><a xlink:href="decl_2alm_8hpp.html" target="_top" xlink:title=" ">
<polygon fill="white" stroke="black" points="358.5,-246.5 358.5,-265.5 492.5,-265.5 492.5,-246.5 358.5,-246.5"/>
<text text-anchor="middle" x="425.5" y="-253.5" font-family="Helvetica,sans-Serif" font-size="10.00">panoc&#45;alm/decl/alm.hpp</text>
</a>
</g>
</g>
<!-- Node2&#45;&gt;Node3 -->
<g id="edge2" class="edge">
<title>Node2&#45;&gt;Node3</title>
<path fill="none" stroke="midnightblue" d="M503.33,-302.4C486.98,-292.86 465.49,-280.32 449.23,-270.84"/>
<polygon fill="midnightblue" stroke="midnightblue" points="450.74,-267.67 440.34,-265.66 447.22,-273.72 450.74,-267.67"/>
</g>
<!-- Node18 -->
<g id="node18" class="node">
<title>Node18</title>
<g id="a_node18"><a xlink:title=" ">
<polygon fill="white" stroke="#bfbfbf" points="511,-246.5 511,-265.5 576,-265.5 576,-246.5 511,-246.5"/>
<text text-anchor="middle" x="543.5" y="-253.5" font-family="Helvetica,sans-Serif" font-size="10.00">stdexcept</text>
</a>
</g>
</g>
<!-- Node2&#45;&gt;Node18 -->
<g id="edge17" class="edge">
<title>Node2&#45;&gt;Node18</title>
<path fill="none" stroke="midnightblue" d="M531.29,-302.4C533.45,-294.38 536.18,-284.23 538.51,-275.57"/>
<polygon fill="midnightblue" stroke="midnightblue" points="541.95,-276.22 541.17,-265.66 535.2,-274.41 541.95,-276.22"/>
</g>
<!-- Node4 -->
<g id="node4" class="node">
<title>Node4</title>
<g id="a_node4"><a xlink:href="panoc-fwd_8hpp.html" target="_top" xlink:title=" ">
<polygon fill="white" stroke="black" points="71,-179.5 71,-209.5 190,-209.5 190,-179.5 71,-179.5"/>
<text text-anchor="start" x="79" y="-197.5" font-family="Helvetica,sans-Serif" font-size="10.00">panoc&#45;alm/inner/decl</text>
<text text-anchor="middle" x="130.5" y="-186.5" font-family="Helvetica,sans-Serif" font-size="10.00">/panoc&#45;fwd.hpp</text>
</a>
</g>
</g>
<!-- Node3&#45;&gt;Node4 -->
<g id="edge3" class="edge">
<title>Node3&#45;&gt;Node4</title>
<path fill="none" stroke="midnightblue" d="M383.23,-246.48C335.44,-236.84 256.89,-220.99 200.03,-209.52"/>
<polygon fill="midnightblue" stroke="midnightblue" points="200.53,-206.05 190.04,-207.51 199.15,-212.92 200.53,-206.05"/>
</g>
<!-- Node6 -->
<g id="node6" class="node">
<title>Node6</title>
<g id="a_node6"><a xlink:href="include_2panoc-alm_2util_2problem_8hpp.html" target="_top" xlink:title=" ">
<polygon fill="white" stroke="black" points="230.5,-185 230.5,-204 382.5,-204 382.5,-185 230.5,-185"/>
<text text-anchor="middle" x="306.5" y="-192" font-family="Helvetica,sans-Serif" font-size="10.00">panoc&#45;alm/util/problem.hpp</text>
</a>
</g>
</g>
<!-- Node3&#45;&gt;Node6 -->
<g id="edge5" class="edge">
<title>Node3&#45;&gt;Node6</title>
<path fill="none" stroke="midnightblue" d="M408.45,-246.48C388.66,-236.58 355.78,-220.14 332.73,-208.62"/>
<polygon fill="midnightblue" stroke="midnightblue" points="334.03,-205.35 323.52,-204.01 330.9,-211.61 334.03,-205.35"/>
</g>
<!-- Node3&#45;&gt;Node14 -->
<g id="edge13" class="edge">
<title>Node3&#45;&gt;Node14</title>
<path fill="none" stroke="midnightblue" d="M452.87,-246.48C486.05,-236.14 542.15,-218.66 579.26,-207.1"/>
<polygon fill="midnightblue" stroke="midnightblue" points="580.68,-210.32 589.19,-204.01 578.6,-203.64 580.68,-210.32"/>
</g>
<!-- Node16 -->
<g id="node16" class="node">
<title>Node16</title>
<g id="a_node16"><a xlink:title=" ">
<polygon fill="white" stroke="#bfbfbf" points="400.5,-185 400.5,-204 450.5,-204 450.5,-185 400.5,-185"/>
<text text-anchor="middle" x="425.5" y="-192" font-family="Helvetica,sans-Serif" font-size="10.00">chrono</text>
</a>
</g>
</g>
<!-- Node3&#45;&gt;Node16 -->
<g id="edge15" class="edge">
<title>Node3&#45;&gt;Node16</title>
<path fill="none" stroke="midnightblue" d="M425.5,-246.48C425.5,-238.08 425.5,-224.98 425.5,-214.16"/>
<polygon fill="midnightblue" stroke="midnightblue" points="429,-214.01 425.5,-204.01 422,-214.01 429,-214.01"/>
</g>
<!-- Node17 -->
<g id="node17" class="node">
<title>Node17</title>
<g id="a_node17"><a xlink:title=" ">
<polygon fill="white" stroke="#bfbfbf" points="468.5,-185 468.5,-204 512.5,-204 512.5,-185 468.5,-185"/>
<text text-anchor="middle" x="490.5" y="-192" font-family="Helvetica,sans-Serif" font-size="10.00">string</text>
</a>
</g>
</g>
<!-- Node3&#45;&gt;Node17 -->
<g id="edge16" class="edge">
<title>Node3&#45;&gt;Node17</title>
<path fill="none" stroke="midnightblue" d="M434.81,-246.48C444.95,-237.2 461.36,-222.17 473.75,-210.83"/>
<polygon fill="midnightblue" stroke="midnightblue" points="476.19,-213.34 481.2,-204.01 471.46,-208.18 476.19,-213.34"/>
</g>
<!-- Node5 -->
<g id="node5" class="node">
<title>Node5</title>
<g id="a_node5"><a xlink:href="lbfgs-fwd_8hpp.html" target="_top" xlink:title=" ">
<polygon fill="white" stroke="black" points="0,-112.5 0,-142.5 147,-142.5 147,-112.5 0,-112.5"/>
<text text-anchor="start" x="8" y="-130.5" font-family="Helvetica,sans-Serif" font-size="10.00">panoc&#45;alm/inner/directions</text>
<text text-anchor="middle" x="73.5" y="-119.5" font-family="Helvetica,sans-Serif" font-size="10.00">/decl/lbfgs&#45;fwd.hpp</text>
</a>
</g>
</g>
<!-- Node4&#45;&gt;Node5 -->
<g id="edge4" class="edge">
<title>Node4&#45;&gt;Node5</title>
<path fill="none" stroke="midnightblue" d="M118.13,-179.4C110.66,-170.88 100.99,-159.85 92.56,-150.23"/>
<polygon fill="midnightblue" stroke="midnightblue" points="95.07,-147.79 85.84,-142.58 89.81,-152.4 95.07,-147.79"/>
</g>
<!-- Node7 -->
<g id="node7" class="node">
<title>Node7</title>
<g id="a_node7"><a xlink:href="box_8hpp.html" target="_top" xlink:title=" ">
<polygon fill="white" stroke="black" points="165.5,-118 165.5,-137 221.5,-137 221.5,-118 165.5,-118"/>
<text text-anchor="middle" x="193.5" y="-125" font-family="Helvetica,sans-Serif" font-size="10.00">box.hpp</text>
</a>
</g>
</g>
<!-- Node6&#45;&gt;Node7 -->
<g id="edge6" class="edge">
<title>Node6&#45;&gt;Node7</title>
<path fill="none" stroke="midnightblue" d="M291.26,-184.73C272.28,-173.82 239.65,-155.05 217.35,-142.22"/>
<polygon fill="midnightblue" stroke="midnightblue" points="218.91,-139.08 208.5,-137.13 215.42,-145.15 218.91,-139.08"/>
</g>
<!-- Node10 -->
<g id="node10" class="node">
<title>Node10</title>
<g id="a_node10"><a xlink:title=" ">
<polygon fill="white" stroke="#bfbfbf" points="239.5,-118 239.5,-137 291.5,-137 291.5,-118 239.5,-118"/>
<text text-anchor="middle" x="265.5" y="-125" font-family="Helvetica,sans-Serif" font-size="10.00">cassert</text>
</a>
</g>
</g>
<!-- Node6&#45;&gt;Node10 -->
<g id="edge9" class="edge">
<title>Node6&#45;&gt;Node10</title>
<path fill="none" stroke="midnightblue" d="M300.97,-184.73C294.7,-174.79 284.32,-158.34 276.41,-145.79"/>
<polygon fill="midnightblue" stroke="midnightblue" points="279.24,-143.72 270.94,-137.13 273.32,-147.45 279.24,-143.72"/>
</g>
<!-- Node11 -->
<g id="node11" class="node">
<title>Node11</title>
<g id="a_node11"><a xlink:title=" ">
<polygon fill="white" stroke="#bfbfbf" points="310,-118 310,-137 375,-137 375,-118 310,-118"/>
<text text-anchor="middle" x="342.5" y="-125" font-family="Helvetica,sans-Serif" font-size="10.00">functional</text>
</a>
</g>
</g>
<!-- Node6&#45;&gt;Node11 -->
<g id="edge10" class="edge">
<title>Node6&#45;&gt;Node11</title>
<path fill="none" stroke="midnightblue" d="M311.36,-184.73C316.81,-174.89 325.8,-158.66 332.72,-146.16"/>
<polygon fill="midnightblue" stroke="midnightblue" points="335.94,-147.57 337.72,-137.13 329.81,-144.18 335.94,-147.57"/>
</g>
<!-- Node12 -->
<g id="node12" class="node">
<title>Node12</title>
<g id="a_node12"><a xlink:title=" ">
<polygon fill="white" stroke="#bfbfbf" points="393.5,-118 393.5,-137 451.5,-137 451.5,-118 393.5,-118"/>
<text text-anchor="middle" x="422.5" y="-125" font-family="Helvetica,sans-Serif" font-size="10.00">memory</text>
</a>
</g>
</g>
<!-- Node6&#45;&gt;Node12 -->
<g id="edge11" class="edge">
<title>Node6&#45;&gt;Node12</title>
<path fill="none" stroke="midnightblue" d="M322.14,-184.73C341.71,-173.77 375.42,-154.88 398.32,-142.05"/>
<polygon fill="midnightblue" stroke="midnightblue" points="400.09,-145.07 407.1,-137.13 396.67,-138.96 400.09,-145.07"/>
</g>
<!-- Node13 -->
<g id="node13" class="node">
<title>Node13</title>
<g id="a_node13"><a xlink:title=" ">
<polygon fill="white" stroke="#bfbfbf" points="470,-118 470,-137 539,-137 539,-118 470,-118"/>
<text text-anchor="middle" x="504.5" y="-125" font-family="Helvetica,sans-Serif" font-size="10.00">type_traits</text>
</a>
</g>
</g>
<!-- Node6&#45;&gt;Node13 -->
<g id="edge12" class="edge">
<title>Node6&#45;&gt;Node13</title>
<path fill="none" stroke="midnightblue" d="M332.66,-184.93C363.3,-174.9 415.59,-157.76 460.5,-143 463.22,-142.11 466.04,-141.18 468.87,-140.25"/>
<polygon fill="midnightblue" stroke="midnightblue" points="470.04,-143.55 478.44,-137.09 467.85,-136.9 470.04,-143.55"/>
</g>
<!-- Node8 -->
<g id="node8" class="node">
<title>Node8</title>
<g id="a_node8"><a xlink:href="vec_8hpp.html" target="_top" xlink:title=" ">
<polygon fill="white" stroke="black" points="166,-56.5 166,-75.5 221,-75.5 221,-56.5 166,-56.5"/>
<text text-anchor="middle" x="193.5" y="-63.5" font-family="Helvetica,sans-Serif" font-size="10.00">vec.hpp</text>
</a>
</g>
</g>
<!-- Node7&#45;&gt;Node8 -->
<g id="edge7" class="edge">
<title>Node7&#45;&gt;Node8</title>
<path fill="none" stroke="midnightblue" d="M193.5,-117.98C193.5,-109.58 193.5,-96.48 193.5,-85.66"/>
<polygon fill="midnightblue" stroke="midnightblue" points="197,-85.51 193.5,-75.51 190,-85.51 197,-85.51"/>
</g>
<!-- Node9 -->
<g id="node9" class="node">
<title>Node9</title>
<g id="a_node9"><a xlink:title=" ">
<polygon fill="white" stroke="#bfbfbf" points="159,-0.5 159,-19.5 228,-19.5 228,-0.5 159,-0.5"/>
<text text-anchor="middle" x="193.5" y="-7.5" font-family="Helvetica,sans-Serif" font-size="10.00">Eigen/Core</text>
</a>
</g>
</g>
<!-- Node8&#45;&gt;Node9 -->
<g id="edge8" class="edge">
<title>Node8&#45;&gt;Node9</title>
<path fill="none" stroke="midnightblue" d="M193.5,-56.08C193.5,-49.01 193.5,-38.86 193.5,-29.99"/>
<polygon fill="midnightblue" stroke="midnightblue" points="197,-29.75 193.5,-19.75 190,-29.75 197,-29.75"/>
</g>
<!-- Node15 -->
<g id="node15" class="node">
<title>Node15</title>
<g id="a_node15"><a xlink:title=" ">
<polygon fill="white" stroke="#bfbfbf" points="592.5,-118 592.5,-137 640.5,-137 640.5,-118 592.5,-118"/>
<text text-anchor="middle" x="616.5" y="-125" font-family="Helvetica,sans-Serif" font-size="10.00">iosfwd</text>
</a>
</g>
</g>
<!-- Node14&#45;&gt;Node15 -->
<g id="edge14" class="edge">
<title>Node14&#45;&gt;Node15</title>
<path fill="none" stroke="midnightblue" d="M616.5,-184.73C616.5,-175.18 616.5,-159.62 616.5,-147.28"/>
<polygon fill="midnightblue" stroke="midnightblue" points="620,-147.13 616.5,-137.13 613,-147.13 620,-147.13"/>
</g>
</g>
</svg>
