<?xml version="1.0" encoding="UTF-8" standalone="no"?>
<!DOCTYPE svg PUBLIC "-//W3C//DTD SVG 1.1//EN"
 "http://www.w3.org/Graphics/SVG/1.1/DTD/svg11.dtd">
<!-- Generated by graphviz version 2.43.0 (0)
 -->
<!-- Title: alm.cpp Pages: 1 -->
<svg width="1637pt" height="464pt"
 viewBox="0.00 0.00 1636.65 464.00" xmlns="http://www.w3.org/2000/svg" xmlns:xlink="http://www.w3.org/1999/xlink">
<g id="graph0" class="graph" transform="scale(1 1) rotate(0) translate(4 460)">
<title>alm.cpp</title>
<polygon fill="white" stroke="transparent" points="-4,4 -4,-460 1632.65,-460 1632.65,4 -4,4"/>
<!-- Node1 -->
<g id="node1" class="node">
<title>Node1</title>
<g id="a_node1"><a xlink:title=" ">
<polygon fill="#bfbfbf" stroke="black" points="614.89,-436.5 614.89,-455.5 670.89,-455.5 670.89,-436.5 614.89,-436.5"/>
<text text-anchor="middle" x="642.89" y="-443.5" font-family="Helvetica,sans-Serif" font-size="10.00">alm.cpp</text>
</a>
</g>
</g>
<!-- Node2 -->
<g id="node2" class="node">
<title>Node2</title>
<g id="a_node2"><a xlink:href="alm_8hpp.html" target="_top" xlink:title=" ">
<polygon fill="white" stroke="black" points="587.39,-380.5 587.39,-399.5 698.39,-399.5 698.39,-380.5 587.39,-380.5"/>
<text text-anchor="middle" x="642.89" y="-387.5" font-family="Helvetica,sans-Serif" font-size="10.00">panoc&#45;alm/alm.hpp</text>
</a>
</g>
</g>
<!-- Node1&#45;&gt;Node2 -->
<g id="edge1" class="edge">
<title>Node1&#45;&gt;Node2</title>
<path fill="none" stroke="midnightblue" d="M642.89,-436.08C642.89,-429.01 642.89,-418.86 642.89,-409.99"/>
<polygon fill="midnightblue" stroke="midnightblue" points="646.39,-409.75 642.89,-399.75 639.39,-409.75 646.39,-409.75"/>
</g>
<!-- Node22 -->
<g id="node22" class="node">
<title>Node22</title>
<g id="a_node22"><a xlink:href="lbfgs_8hpp.html" target="_top" xlink:title=" ">
<polygon fill="white" stroke="black" points="97.39,-313.5 97.39,-343.5 244.39,-343.5 244.39,-313.5 97.39,-313.5"/>
<text text-anchor="start" x="105.39" y="-331.5" font-family="Helvetica,sans-Serif" font-size="10.00">panoc&#45;alm/inner/directions</text>
<text text-anchor="middle" x="170.89" y="-320.5" font-family="Helvetica,sans-Serif" font-size="10.00">/lbfgs.hpp</text>
</a>
</g>
</g>
<!-- Node1&#45;&gt;Node22 -->
<g id="edge22" class="edge">
<title>Node1&#45;&gt;Node22</title>
<path fill="none" stroke="midnightblue" d="M614.78,-438.12C541.53,-420.2 343.21,-371.67 238.21,-345.97"/>
<polygon fill="midnightblue" stroke="midnightblue" points="238.89,-342.54 228.35,-343.56 237.23,-349.34 238.89,-342.54"/>
</g>
<!-- Node25 -->
<g id="node25" class="node">
<title>Node25</title>
<g id="a_node25"><a xlink:href="inner_2panoc_8hpp.html" target="_top" xlink:title=" ">
<polygon fill="white" stroke="black" points="805.39,-319 805.39,-338 954.39,-338 954.39,-319 805.39,-319"/>
<text text-anchor="middle" x="879.89" y="-326" font-family="Helvetica,sans-Serif" font-size="10.00">panoc&#45;alm/inner/panoc.hpp</text>
</a>
</g>
</g>
<!-- Node1&#45;&gt;Node25 -->
<g id="edge30" class="edge">
<title>Node1&#45;&gt;Node25</title>
<path fill="none" stroke="midnightblue" d="M660.71,-436.32C701.98,-416.2 804.37,-366.31 853.18,-342.52"/>
<polygon fill="midnightblue" stroke="midnightblue" points="854.74,-345.65 862.19,-338.12 851.67,-339.36 854.74,-345.65"/>
</g>
<!-- Node3 -->
<g id="node3" class="node">
<title>Node3</title>
<g id="a_node3"><a xlink:href="alm-helpers_8hpp.html" target="_top" xlink:title=" ">
<polygon fill="white" stroke="black" points="972.39,-313.5 972.39,-343.5 1093.39,-343.5 1093.39,-313.5 972.39,-313.5"/>
<text text-anchor="start" x="980.39" y="-331.5" font-family="Helvetica,sans-Serif" font-size="10.00">panoc&#45;alm/detail/alm</text>
<text text-anchor="middle" x="1032.89" y="-320.5" font-family="Helvetica,sans-Serif" font-size="10.00">&#45;helpers.hpp</text>
</a>
</g>
</g>
<!-- Node2&#45;&gt;Node3 -->
<g id="edge2" class="edge">
<title>Node2&#45;&gt;Node3</title>
<path fill="none" stroke="midnightblue" d="M698.45,-382.37C760.47,-374.72 864.02,-361.16 962.25,-344.22"/>
<polygon fill="midnightblue" stroke="midnightblue" points="963.1,-347.63 972.35,-342.46 961.9,-340.73 963.1,-347.63"/>
</g>
<!-- Node15 -->
<g id="node15" class="node">
<title>Node15</title>
<g id="a_node15"><a xlink:href="solverstatus_8hpp.html" target="_top" xlink:title=" ">
<polygon fill="white" stroke="black" points="466.39,-185 466.39,-204 637.39,-204 637.39,-185 466.39,-185"/>
<text text-anchor="middle" x="551.89" y="-192" font-family="Helvetica,sans-Serif" font-size="10.00">panoc&#45;alm/util/solverstatus.hpp</text>
</a>
</g>
</g>
<!-- Node2&#45;&gt;Node15 -->
<g id="edge19" class="edge">
<title>Node2&#45;&gt;Node15</title>
<path fill="none" stroke="midnightblue" d="M635.2,-380.45C619.63,-362.63 584.36,-319.61 566.89,-277 558.55,-256.67 554.83,-231.58 553.18,-214.66"/>
<polygon fill="midnightblue" stroke="midnightblue" points="556.64,-214.08 552.33,-204.4 549.66,-214.65 556.64,-214.08"/>
</g>
<!-- Node20 -->
<g id="node20" class="node">
<title>Node20</title>
<g id="a_node20"><a xlink:title=" ">
<polygon fill="white" stroke="#bfbfbf" points="653.89,-252 653.89,-271 709.89,-271 709.89,-252 653.89,-252"/>
<text text-anchor="middle" x="681.89" y="-259" font-family="Helvetica,sans-Serif" font-size="10.00">iomanip</text>
</a>
</g>
</g>
<!-- Node2&#45;&gt;Node20 -->
<g id="edge20" class="edge">
<title>Node2&#45;&gt;Node20</title>
<path fill="none" stroke="midnightblue" d="M645.57,-380.31C651.86,-359.9 667.68,-308.6 676.22,-280.91"/>
<polygon fill="midnightblue" stroke="midnightblue" points="679.59,-281.84 679.19,-271.26 672.9,-279.78 679.59,-281.84"/>
</g>
<!-- Node21 -->
<g id="node21" class="node">
<title>Node21</title>
<g id="a_node21"><a xlink:title=" ">
<polygon fill="white" stroke="#bfbfbf" points="575.89,-252 575.89,-271 635.89,-271 635.89,-252 575.89,-252"/>
<text text-anchor="middle" x="605.89" y="-259" font-family="Helvetica,sans-Serif" font-size="10.00">iostream</text>
</a>
</g>
</g>
<!-- Node2&#45;&gt;Node21 -->
<g id="edge21" class="edge">
<title>Node2&#45;&gt;Node21</title>
<path fill="none" stroke="midnightblue" d="M640.35,-380.31C634.38,-359.9 619.38,-308.6 611.28,-280.91"/>
<polygon fill="midnightblue" stroke="midnightblue" points="614.62,-279.87 608.45,-271.26 607.9,-281.84 614.62,-279.87"/>
</g>
<!-- Node4 -->
<g id="node4" class="node">
<title>Node4</title>
<g id="a_node4"><a xlink:href="decl_2alm_8hpp.html" target="_top" xlink:title=" ">
<polygon fill="white" stroke="black" points="765.89,-252 765.89,-271 899.89,-271 899.89,-252 765.89,-252"/>
<text text-anchor="middle" x="832.89" y="-259" font-family="Helvetica,sans-Serif" font-size="10.00">panoc&#45;alm/decl/alm.hpp</text>
</a>
</g>
</g>
<!-- Node3&#45;&gt;Node4 -->
<g id="edge3" class="edge">
<title>Node3&#45;&gt;Node4</title>
<path fill="none" stroke="midnightblue" d="M989.49,-313.4C953.47,-301.69 902.83,-285.23 868.99,-274.23"/>
<polygon fill="midnightblue" stroke="midnightblue" points="869.66,-270.77 859.07,-271.01 867.5,-277.43 869.66,-270.77"/>
</g>
<!-- Node19 -->
<g id="node19" class="node">
<title>Node19</title>
<g id="a_node19"><a xlink:title=" ">
<polygon fill="white" stroke="#bfbfbf" points="1546.39,-118 1546.39,-137 1611.39,-137 1611.39,-118 1546.39,-118"/>
<text text-anchor="middle" x="1578.89" y="-125" font-family="Helvetica,sans-Serif" font-size="10.00">stdexcept</text>
</a>
</g>
</g>
<!-- Node3&#45;&gt;Node19 -->
<g id="edge18" class="edge">
<title>Node3&#45;&gt;Node19</title>
<path fill="none" stroke="midnightblue" d="M1093.4,-326.74C1234.76,-324.35 1577.35,-314.68 1611.89,-277 1641.32,-244.89 1624.32,-220.74 1611.89,-179 1608.18,-166.52 1600.29,-154.26 1593.16,-144.94"/>
<polygon fill="midnightblue" stroke="midnightblue" points="1595.73,-142.56 1586.72,-137 1590.3,-146.97 1595.73,-142.56"/>
</g>
<!-- Node5 -->
<g id="node5" class="node">
<title>Node5</title>
<g id="a_node5"><a xlink:href="panoc-fwd_8hpp.html" target="_top" xlink:title=" ">
<polygon fill="white" stroke="black" points="329.39,-179.5 329.39,-209.5 448.39,-209.5 448.39,-179.5 329.39,-179.5"/>
<text text-anchor="start" x="337.39" y="-197.5" font-family="Helvetica,sans-Serif" font-size="10.00">panoc&#45;alm/inner/decl</text>
<text text-anchor="middle" x="388.89" y="-186.5" font-family="Helvetica,sans-Serif" font-size="10.00">/panoc&#45;fwd.hpp</text>
</a>
</g>
</g>
<!-- Node4&#45;&gt;Node5 -->
<g id="edge4" class="edge">
<title>Node4&#45;&gt;Node5</title>
<path fill="none" stroke="midnightblue" d="M787.55,-251.93C775.95,-249.86 763.48,-247.74 751.89,-246 624.9,-226.87 589.47,-231.32 458.67,-210.04"/>
<polygon fill="midnightblue" stroke="midnightblue" points="459.11,-206.56 448.67,-208.39 457.97,-213.47 459.11,-206.56"/>
</g>
<!-- Node7 -->
<g id="node7" class="node">
<title>Node7</title>
<g id="a_node7"><a xlink:href="include_2panoc-alm_2util_2problem_8hpp.html" target="_top" xlink:title=" ">
<polygon fill="white" stroke="black" points="785.89,-185 785.89,-204 937.89,-204 937.89,-185 785.89,-185"/>
<text text-anchor="middle" x="861.89" y="-192" font-family="Helvetica,sans-Serif" font-size="10.00">panoc&#45;alm/util/problem.hpp</text>
</a>
</g>
</g>
<!-- Node4&#45;&gt;Node7 -->
<g id="edge6" class="edge">
<title>Node4&#45;&gt;Node7</title>
<path fill="none" stroke="midnightblue" d="M836.8,-251.73C841.15,-241.99 848.29,-225.98 853.85,-213.53"/>
<polygon fill="midnightblue" stroke="midnightblue" points="857.16,-214.69 858.04,-204.13 850.77,-211.83 857.16,-214.69"/>
</g>
<!-- Node4&#45;&gt;Node15 -->
<g id="edge14" class="edge">
<title>Node4&#45;&gt;Node15</title>
<path fill="none" stroke="midnightblue" d="M795.87,-251.94C745.22,-240.22 654.32,-219.19 598.91,-206.38"/>
<polygon fill="midnightblue" stroke="midnightblue" points="599.53,-202.93 589,-204.08 597.95,-209.75 599.53,-202.93"/>
</g>
<!-- Node17 -->
<g id="node17" class="node">
<title>Node17</title>
<g id="a_node17"><a xlink:title=" ">
<polygon fill="white" stroke="#bfbfbf" points="655.89,-185 655.89,-204 705.89,-204 705.89,-185 655.89,-185"/>
<text text-anchor="middle" x="680.89" y="-192" font-family="Helvetica,sans-Serif" font-size="10.00">chrono</text>
</a>
</g>
</g>
<!-- Node4&#45;&gt;Node17 -->
<g id="edge16" class="edge">
<title>Node4&#45;&gt;Node17</title>
<path fill="none" stroke="midnightblue" d="M812.71,-251.87C786.59,-240.7 740.87,-221.15 710.73,-208.26"/>
<polygon fill="midnightblue" stroke="midnightblue" points="711.73,-204.88 701.16,-204.17 708.98,-211.32 711.73,-204.88"/>
</g>
<!-- Node18 -->
<g id="node18" class="node">
<title>Node18</title>
<g id="a_node18"><a xlink:title=" ">
<polygon fill="white" stroke="#bfbfbf" points="723.89,-185 723.89,-204 767.89,-204 767.89,-185 723.89,-185"/>
<text text-anchor="middle" x="745.89" y="-192" font-family="Helvetica,sans-Serif" font-size="10.00">string</text>
</a>
</g>
</g>
<!-- Node4&#45;&gt;Node18 -->
<g id="edge17" class="edge">
<title>Node4&#45;&gt;Node18</title>
<path fill="none" stroke="midnightblue" d="M821.16,-251.73C806.94,-241.11 782.76,-223.05 765.65,-210.26"/>
<polygon fill="midnightblue" stroke="midnightblue" points="767.54,-207.31 757.44,-204.13 763.36,-212.92 767.54,-207.31"/>
</g>
<!-- Node6 -->
<g id="node6" class="node">
<title>Node6</title>
<g id="a_node6"><a xlink:href="lbfgs-fwd_8hpp.html" target="_top" xlink:title=" ">
<polygon fill="white" stroke="black" points="21.39,-112.5 21.39,-142.5 168.39,-142.5 168.39,-112.5 21.39,-112.5"/>
<text text-anchor="start" x="29.39" y="-130.5" font-family="Helvetica,sans-Serif" font-size="10.00">panoc&#45;alm/inner/directions</text>
<text text-anchor="middle" x="94.89" y="-119.5" font-family="Helvetica,sans-Serif" font-size="10.00">/decl/lbfgs&#45;fwd.hpp</text>
</a>
</g>
</g>
<!-- Node5&#45;&gt;Node6 -->
<g id="edge5" class="edge">
<title>Node5&#45;&gt;Node6</title>
<path fill="none" stroke="midnightblue" d="M329.04,-180.27C282.55,-169.99 217.85,-155.69 168.24,-144.72"/>
<polygon fill="midnightblue" stroke="midnightblue" points="168.74,-141.24 158.22,-142.5 167.22,-148.08 168.74,-141.24"/>
</g>
<!-- Node8 -->
<g id="node8" class="node">
<title>Node8</title>
<g id="a_node8"><a xlink:href="box_8hpp.html" target="_top" xlink:title=" ">
<polygon fill="white" stroke="black" points="273.89,-118 273.89,-137 329.89,-137 329.89,-118 273.89,-118"/>
<text text-anchor="middle" x="301.89" y="-125" font-family="Helvetica,sans-Serif" font-size="10.00">box.hpp</text>
</a>
</g>
</g>
<!-- Node7&#45;&gt;Node8 -->
<g id="edge7" class="edge">
<title>Node7&#45;&gt;Node8</title>
<path fill="none" stroke="midnightblue" d="M815.21,-184.99C802.78,-182.88 789.35,-180.72 776.89,-179 615.13,-156.63 421.19,-138.79 340.28,-131.75"/>
<polygon fill="midnightblue" stroke="midnightblue" points="340.34,-128.25 330.07,-130.87 339.74,-135.22 340.34,-128.25"/>
</g>
<!-- Node11 -->
<g id="node11" class="node">
<title>Node11</title>
<g id="a_node11"><a xlink:title=" ">
<polygon fill="white" stroke="#bfbfbf" points="973.89,-118 973.89,-137 1025.89,-137 1025.89,-118 973.89,-118"/>
<text text-anchor="middle" x="999.89" y="-125" font-family="Helvetica,sans-Serif" font-size="10.00">cassert</text>
</a>
</g>
</g>
<!-- Node7&#45;&gt;Node11 -->
<g id="edge10" class="edge">
<title>Node7&#45;&gt;Node11</title>
<path fill="none" stroke="midnightblue" d="M880.22,-184.87C903.83,-173.75 945.08,-154.32 972.44,-141.43"/>
<polygon fill="midnightblue" stroke="midnightblue" points="973.94,-144.59 981.49,-137.17 970.95,-138.26 973.94,-144.59"/>
</g>
<!-- Node12 -->
<g id="node12" class="node">
<title>Node12</title>
<g id="a_node12"><a xlink:title=" ">
<polygon fill="white" stroke="#bfbfbf" points="837.39,-118 837.39,-137 902.39,-137 902.39,-118 837.39,-118"/>
<text text-anchor="middle" x="869.89" y="-125" font-family="Helvetica,sans-Serif" font-size="10.00">functional</text>
</a>
</g>
</g>
<!-- Node7&#45;&gt;Node12 -->
<g id="edge11" class="edge">
<title>Node7&#45;&gt;Node12</title>
<path fill="none" stroke="midnightblue" d="M862.97,-184.73C864.15,-175.18 866.06,-159.62 867.58,-147.28"/>
<polygon fill="midnightblue" stroke="midnightblue" points="871.08,-147.48 868.83,-137.13 864.13,-146.62 871.08,-147.48"/>
</g>
<!-- Node13 -->
<g id="node13" class="node">
<title>Node13</title>
<g id="a_node13"><a xlink:title=" ">
<polygon fill="white" stroke="#bfbfbf" points="760.89,-118 760.89,-137 818.89,-137 818.89,-118 760.89,-118"/>
<text text-anchor="middle" x="789.89" y="-125" font-family="Helvetica,sans-Serif" font-size="10.00">memory</text>
</a>
</g>
</g>
<!-- Node7&#45;&gt;Node13 -->
<g id="edge12" class="edge">
<title>Node7&#45;&gt;Node13</title>
<path fill="none" stroke="midnightblue" d="M852.18,-184.73C840.63,-174.31 821.14,-156.71 807.03,-143.97"/>
<polygon fill="midnightblue" stroke="midnightblue" points="809.22,-141.23 799.45,-137.13 804.53,-146.43 809.22,-141.23"/>
</g>
<!-- Node14 -->
<g id="node14" class="node">
<title>Node14</title>
<g id="a_node14"><a xlink:title=" ">
<polygon fill="white" stroke="#bfbfbf" points="186.39,-118 186.39,-137 255.39,-137 255.39,-118 186.39,-118"/>
<text text-anchor="middle" x="220.89" y="-125" font-family="Helvetica,sans-Serif" font-size="10.00">type_traits</text>
</a>
</g>
</g>
<!-- Node7&#45;&gt;Node14 -->
<g id="edge13" class="edge">
<title>Node7&#45;&gt;Node14</title>
<path fill="none" stroke="midnightblue" d="M817.02,-184.99C804.1,-182.78 789.97,-180.57 776.89,-179 550.4,-151.79 488.72,-187.04 264.89,-143 261.01,-142.24 256.99,-141.23 253.04,-140.1"/>
<polygon fill="midnightblue" stroke="midnightblue" points="254.03,-136.75 243.44,-137.12 251.95,-143.43 254.03,-136.75"/>
</g>
<!-- Node9 -->
<g id="node9" class="node">
<title>Node9</title>
<g id="a_node9"><a xlink:href="vec_8hpp.html" target="_top" xlink:title=" ">
<polygon fill="white" stroke="black" points="274.39,-56.5 274.39,-75.5 329.39,-75.5 329.39,-56.5 274.39,-56.5"/>
<text text-anchor="middle" x="301.89" y="-63.5" font-family="Helvetica,sans-Serif" font-size="10.00">vec.hpp</text>
</a>
</g>
</g>
<!-- Node8&#45;&gt;Node9 -->
<g id="edge8" class="edge">
<title>Node8&#45;&gt;Node9</title>
<path fill="none" stroke="midnightblue" d="M301.89,-117.98C301.89,-109.58 301.89,-96.48 301.89,-85.66"/>
<polygon fill="midnightblue" stroke="midnightblue" points="305.39,-85.51 301.89,-75.51 298.39,-85.51 305.39,-85.51"/>
</g>
<!-- Node10 -->
<g id="node10" class="node">
<title>Node10</title>
<g id="a_node10"><a xlink:title=" ">
<polygon fill="white" stroke="#bfbfbf" points="267.39,-0.5 267.39,-19.5 336.39,-19.5 336.39,-0.5 267.39,-0.5"/>
<text text-anchor="middle" x="301.89" y="-7.5" font-family="Helvetica,sans-Serif" font-size="10.00">Eigen/Core</text>
</a>
</g>
</g>
<!-- Node9&#45;&gt;Node10 -->
<g id="edge9" class="edge">
<title>Node9&#45;&gt;Node10</title>
<path fill="none" stroke="midnightblue" d="M301.89,-56.08C301.89,-49.01 301.89,-38.86 301.89,-29.99"/>
<polygon fill="midnightblue" stroke="midnightblue" points="305.39,-29.75 301.89,-19.75 298.39,-29.75 305.39,-29.75"/>
</g>
<!-- Node16 -->
<g id="node16" class="node">
<title>Node16</title>
<g id="a_node16"><a xlink:title=" ">
<polygon fill="white" stroke="#bfbfbf" points="527.89,-118 527.89,-137 575.89,-137 575.89,-118 527.89,-118"/>
<text text-anchor="middle" x="551.89" y="-125" font-family="Helvetica,sans-Serif" font-size="10.00">iosfwd</text>
</a>
</g>
</g>
<!-- Node15&#45;&gt;Node16 -->
<g id="edge15" class="edge">
<title>Node15&#45;&gt;Node16</title>
<path fill="none" stroke="midnightblue" d="M551.89,-184.73C551.89,-175.18 551.89,-159.62 551.89,-147.28"/>
<polygon fill="midnightblue" stroke="midnightblue" points="555.39,-147.13 551.89,-137.13 548.39,-147.13 555.39,-147.13"/>
</g>
<!-- Node22&#45;&gt;Node14 -->
<g id="edge29" class="edge">
<title>Node22&#45;&gt;Node14</title>
<path fill="none" stroke="midnightblue" d="M130.87,-313.38C114.5,-305.4 97.23,-293.62 87.89,-277 81.14,-264.99 85.1,-259.49 87.89,-246 94.47,-214.23 94.45,-202.44 116.89,-179 127.58,-167.83 163.08,-151.81 189.65,-140.83"/>
<polygon fill="midnightblue" stroke="midnightblue" points="191.03,-144.04 198.97,-137.03 188.39,-137.56 191.03,-144.04"/>
</g>
<!-- Node23 -->
<g id="node23" class="node">
<title>Node23</title>
<g id="a_node23"><a xlink:href="decl_2lbfgs_8hpp.html" target="_top" xlink:title=" ">
<polygon fill="white" stroke="black" points="97.39,-246.5 97.39,-276.5 244.39,-276.5 244.39,-246.5 97.39,-246.5"/>
<text text-anchor="start" x="105.39" y="-264.5" font-family="Helvetica,sans-Serif" font-size="10.00">panoc&#45;alm/inner/directions</text>
<text text-anchor="middle" x="170.89" y="-253.5" font-family="Helvetica,sans-Serif" font-size="10.00">/decl/lbfgs.hpp</text>
</a>
</g>
</g>
<!-- Node22&#45;&gt;Node23 -->
<g id="edge23" class="edge">
<title>Node22&#45;&gt;Node23</title>
<path fill="none" stroke="midnightblue" d="M170.89,-313.4C170.89,-305.64 170.89,-295.81 170.89,-286.86"/>
<polygon fill="midnightblue" stroke="midnightblue" points="174.39,-286.58 170.89,-276.58 167.39,-286.58 174.39,-286.58"/>
</g>
<!-- Node23&#45;&gt;Node6 -->
<g id="edge26" class="edge">
<title>Node23&#45;&gt;Node6</title>
<path fill="none" stroke="midnightblue" d="M134.44,-246.46C118.69,-238.35 101.83,-226.44 92.89,-210 83.37,-192.5 84.93,-169.6 88.26,-152.53"/>
<polygon fill="midnightblue" stroke="midnightblue" points="91.67,-153.28 90.47,-142.76 84.85,-151.73 91.67,-153.28"/>
</g>
<!-- Node23&#45;&gt;Node8 -->
<g id="edge24" class="edge">
<title>Node23&#45;&gt;Node8</title>
<path fill="none" stroke="midnightblue" d="M153.37,-246.44C134.44,-229.54 109.07,-200.73 125.89,-179 164.95,-128.53 204.19,-162.68 264.89,-143 267.16,-142.26 269.49,-141.46 271.83,-140.63"/>
<polygon fill="midnightblue" stroke="midnightblue" points="273.17,-143.86 281.31,-137.07 270.71,-137.31 273.17,-143.86"/>
</g>
<!-- Node23&#45;&gt;Node9 -->
<g id="edge25" class="edge">
<title>Node23&#45;&gt;Node9</title>
<path fill="none" stroke="midnightblue" d="M134.37,-246.45C74.24,-221.32 -34.56,-166.21 11.89,-112 43.9,-74.65 192.6,-68.04 263.76,-67.05"/>
<polygon fill="midnightblue" stroke="midnightblue" points="264.11,-70.55 274.08,-66.94 264.04,-63.55 264.11,-70.55"/>
</g>
<!-- Node24 -->
<g id="node24" class="node">
<title>Node24</title>
<g id="a_node24"><a xlink:href="panoc-direction-update_8hpp.html" target="_top" xlink:title=" ">
<polygon fill="white" stroke="black" points="134.39,-179.5 134.39,-209.5 311.39,-209.5 311.39,-179.5 134.39,-179.5"/>
<text text-anchor="start" x="142.39" y="-197.5" font-family="Helvetica,sans-Serif" font-size="10.00">panoc&#45;alm/inner/directions</text>
<text text-anchor="middle" x="222.89" y="-186.5" font-family="Helvetica,sans-Serif" font-size="10.00">/decl/panoc&#45;direction&#45;update.hpp</text>
</a>
</g>
</g>
<!-- Node23&#45;&gt;Node24 -->
<g id="edge27" class="edge">
<title>Node23&#45;&gt;Node24</title>
<path fill="none" stroke="midnightblue" d="M182.17,-246.4C188.92,-237.96 197.64,-227.07 205.27,-217.52"/>
<polygon fill="midnightblue" stroke="midnightblue" points="208.12,-219.57 211.63,-209.58 202.65,-215.2 208.12,-219.57"/>
</g>
<!-- Node24&#45;&gt;Node8 -->
<g id="edge28" class="edge">
<title>Node24&#45;&gt;Node8</title>
<path fill="none" stroke="midnightblue" d="M240.03,-179.4C252.84,-168.86 270.32,-154.48 283.43,-143.69"/>
<polygon fill="midnightblue" stroke="midnightblue" points="285.83,-146.25 291.32,-137.19 281.38,-140.85 285.83,-146.25"/>
</g>
<!-- Node25&#45;&gt;Node11 -->
<g id="edge55" class="edge">
<title>Node25&#45;&gt;Node11</title>
<path fill="none" stroke="midnightblue" d="M919.92,-318.94C954.54,-310.71 1005.41,-296.63 1046.89,-277 1095.25,-254.12 1121.7,-257.2 1146.89,-210 1153.38,-197.85 1154.9,-190.21 1146.89,-179 1133.8,-160.65 1075.18,-144.74 1036.04,-135.91"/>
<polygon fill="midnightblue" stroke="midnightblue" points="1036.58,-132.44 1026.06,-133.71 1035.08,-139.28 1036.58,-132.44"/>
</g>
<!-- Node25&#45;&gt;Node19 -->
<g id="edge59" class="edge">
<title>Node25&#45;&gt;Node19</title>
<path fill="none" stroke="midnightblue" d="M925.12,-318.94C937.64,-316.78 951.27,-314.61 963.89,-313 1155,-288.59 1208.27,-320.79 1395.89,-277 1474.98,-258.54 1515.03,-273.31 1565.89,-210 1580.09,-192.32 1581.7,-165.36 1580.86,-147.34"/>
<polygon fill="midnightblue" stroke="midnightblue" points="1584.34,-146.92 1580.09,-137.21 1577.36,-147.45 1584.34,-146.92"/>
</g>
<!-- Node25&#45;&gt;Node20 -->
<g id="edge57" class="edge">
<title>Node25&#45;&gt;Node20</title>
<path fill="none" stroke="midnightblue" d="M853.06,-318.99C821.94,-309.08 769.11,-292.12 723.89,-277 721.31,-276.14 718.63,-275.23 715.95,-274.32"/>
<polygon fill="midnightblue" stroke="midnightblue" points="716.89,-270.94 706.29,-271.01 714.62,-277.56 716.89,-270.94"/>
</g>
<!-- Node25&#45;&gt;Node21 -->
<g id="edge58" class="edge">
<title>Node25&#45;&gt;Node21</title>
<path fill="none" stroke="midnightblue" d="M830.32,-319C782.4,-310.28 707.99,-295.4 644.89,-277 642.25,-276.23 639.54,-275.37 636.82,-274.46"/>
<polygon fill="midnightblue" stroke="midnightblue" points="637.76,-271.08 627.16,-271.04 635.42,-277.68 637.76,-271.08"/>
</g>
<!-- Node25&#45;&gt;Node24 -->
<g id="edge54" class="edge">
<title>Node25&#45;&gt;Node24</title>
<path fill="none" stroke="midnightblue" d="M852.41,-318.83C826.74,-310.14 787.84,-295.42 756.89,-277 738.16,-265.85 739.07,-254.23 718.89,-246 557.4,-180.14 499.36,-229.16 321.48,-209.98"/>
<polygon fill="midnightblue" stroke="midnightblue" points="321.87,-206.5 311.54,-208.85 321.08,-213.45 321.87,-206.5"/>
</g>
<!-- Node26 -->
<g id="node26" class="node">
<title>Node26</title>
<g id="a_node26"><a xlink:href="inner_2decl_2panoc_8hpp.html" target="_top" xlink:title=" ">
<polygon fill="white" stroke="black" points="918.39,-246.5 918.39,-276.5 1037.39,-276.5 1037.39,-246.5 918.39,-246.5"/>
<text text-anchor="start" x="926.39" y="-264.5" font-family="Helvetica,sans-Serif" font-size="10.00">panoc&#45;alm/inner/decl</text>
<text text-anchor="middle" x="977.89" y="-253.5" font-family="Helvetica,sans-Serif" font-size="10.00">/panoc.hpp</text>
</a>
</g>
</g>
<!-- Node25&#45;&gt;Node26 -->
<g id="edge31" class="edge">
<title>Node25&#45;&gt;Node26</title>
<path fill="none" stroke="midnightblue" d="M893.11,-318.73C907.12,-309.44 929.7,-294.46 948.04,-282.3"/>
<polygon fill="midnightblue" stroke="midnightblue" points="950.25,-285.03 956.65,-276.59 946.38,-279.2 950.25,-285.03"/>
</g>
<!-- Node34 -->
<g id="node34" class="node">
<title>Node34</title>
<g id="a_node34"><a xlink:href="panoc-helpers_8hpp.html" target="_top" xlink:title=" ">
<polygon fill="white" stroke="black" points="1194.39,-246.5 1194.39,-276.5 1321.39,-276.5 1321.39,-246.5 1194.39,-246.5"/>
<text text-anchor="start" x="1202.39" y="-264.5" font-family="Helvetica,sans-Serif" font-size="10.00">panoc&#45;alm/inner/detail</text>
<text text-anchor="middle" x="1257.89" y="-253.5" font-family="Helvetica,sans-Serif" font-size="10.00">/panoc&#45;helpers.hpp</text>
</a>
</g>
</g>
<!-- Node25&#45;&gt;Node34 -->
<g id="edge48" class="edge">
<title>Node25&#45;&gt;Node34</title>
<path fill="none" stroke="midnightblue" d="M929.19,-318.94C940.58,-316.98 952.66,-314.91 963.89,-313 1059.84,-296.72 1084.05,-293.89 1179.89,-277 1181.19,-276.77 1182.5,-276.54 1183.82,-276.31"/>
<polygon fill="midnightblue" stroke="midnightblue" points="1184.83,-279.68 1194.06,-274.47 1183.6,-272.79 1184.83,-279.68"/>
</g>
<!-- Node35 -->
<g id="node35" class="node">
<title>Node35</title>
<g id="a_node35"><a xlink:title=" ">
<polygon fill="white" stroke="#bfbfbf" points="1339.39,-252 1339.39,-271 1386.39,-271 1386.39,-252 1339.39,-252"/>
<text text-anchor="middle" x="1362.89" y="-259" font-family="Helvetica,sans-Serif" font-size="10.00">cmath</text>
</a>
</g>
</g>
<!-- Node25&#45;&gt;Node35 -->
<g id="edge56" class="edge">
<title>Node25&#45;&gt;Node35</title>
<path fill="none" stroke="midnightblue" d="M925.57,-318.99C937.98,-316.85 951.43,-314.69 963.89,-313 1126.31,-291.05 1172.57,-319.39 1330.89,-277 1333.05,-276.42 1335.24,-275.72 1337.41,-274.93"/>
<polygon fill="midnightblue" stroke="midnightblue" points="1338.77,-278.15 1346.66,-271.09 1336.09,-271.69 1338.77,-278.15"/>
</g>
<!-- Node26&#45;&gt;Node5 -->
<g id="edge33" class="edge">
<title>Node26&#45;&gt;Node5</title>
<path fill="none" stroke="midnightblue" d="M918.14,-247.46C915.02,-246.93 911.92,-246.44 908.89,-246 713.08,-217.73 658.65,-238.06 458.6,-209.96"/>
<polygon fill="midnightblue" stroke="midnightblue" points="459.04,-206.49 448.65,-208.54 458.05,-213.42 459.04,-206.49"/>
</g>
<!-- Node26&#45;&gt;Node7 -->
<g id="edge42" class="edge">
<title>Node26&#45;&gt;Node7</title>
<path fill="none" stroke="midnightblue" d="M952.72,-246.4C932.91,-235.29 905.47,-219.92 885.95,-208.98"/>
<polygon fill="midnightblue" stroke="midnightblue" points="887.51,-205.84 877.07,-204.01 884.09,-211.95 887.51,-205.84"/>
</g>
<!-- Node26&#45;&gt;Node15 -->
<g id="edge43" class="edge">
<title>Node26&#45;&gt;Node15</title>
<path fill="none" stroke="midnightblue" d="M918.1,-247.67C914.99,-247.08 911.91,-246.52 908.89,-246 793.08,-225.9 763.21,-226.87 646.89,-210 637.17,-208.59 626.9,-207.06 616.84,-205.54"/>
<polygon fill="midnightblue" stroke="midnightblue" points="617.29,-202.07 606.88,-204.04 616.24,-208.99 617.29,-202.07"/>
</g>
<!-- Node26&#45;&gt;Node17 -->
<g id="edge45" class="edge">
<title>Node26&#45;&gt;Node17</title>
<path fill="none" stroke="midnightblue" d="M918.07,-247.84C914.97,-247.21 911.89,-246.59 908.89,-246 822.86,-228.98 798.84,-235.35 714.89,-210 712.75,-209.35 710.55,-208.61 708.36,-207.81"/>
<polygon fill="midnightblue" stroke="midnightblue" points="709.55,-204.52 698.97,-204.08 706.97,-211.03 709.55,-204.52"/>
</g>
<!-- Node26&#45;&gt;Node18 -->
<g id="edge47" class="edge">
<title>Node26&#45;&gt;Node18</title>
<path fill="none" stroke="midnightblue" d="M918.08,-246.81C868.68,-235.25 802.65,-219.17 776.89,-210 775.28,-209.42 773.63,-208.8 771.98,-208.13"/>
<polygon fill="midnightblue" stroke="midnightblue" points="773.27,-204.87 762.7,-204.08 770.46,-211.29 773.27,-204.87"/>
</g>
<!-- Node26&#45;&gt;Node24 -->
<g id="edge37" class="edge">
<title>Node26&#45;&gt;Node24</title>
<path fill="none" stroke="midnightblue" d="M918.15,-247.39C915.02,-246.88 911.92,-246.41 908.89,-246 652.72,-211.43 583.06,-236.53 321.7,-210.01"/>
<polygon fill="midnightblue" stroke="midnightblue" points="321.83,-206.51 311.52,-208.96 321.11,-213.47 321.83,-206.51"/>
</g>
<!-- Node27 -->
<g id="node27" class="node">
<title>Node27</title>
<g id="a_node27"><a xlink:href="lbfgs-stepsize_8hpp.html" target="_top" xlink:title=" ">
<polygon fill="white" stroke="black" points="1018.39,-179.5 1018.39,-209.5 1137.39,-209.5 1137.39,-179.5 1018.39,-179.5"/>
<text text-anchor="start" x="1026.39" y="-197.5" font-family="Helvetica,sans-Serif" font-size="10.00">panoc&#45;alm/inner/decl</text>
<text text-anchor="middle" x="1077.89" y="-186.5" font-family="Helvetica,sans-Serif" font-size="10.00">/lbfgs&#45;stepsize.hpp</text>
</a>
</g>
</g>
<!-- Node26&#45;&gt;Node27 -->
<g id="edge32" class="edge">
<title>Node26&#45;&gt;Node27</title>
<path fill="none" stroke="midnightblue" d="M999.59,-246.4C1013.61,-237.28 1032.06,-225.29 1047.53,-215.24"/>
<polygon fill="midnightblue" stroke="midnightblue" points="1049.76,-217.96 1056.24,-209.58 1045.94,-212.09 1049.76,-217.96"/>
</g>
<!-- Node28 -->
<g id="node28" class="node">
<title>Node28</title>
<g id="a_node28"><a xlink:href="panoc-stop-crit_8hpp.html" target="_top" xlink:title=" ">
<polygon fill="white" stroke="black" points="1412.39,-179.5 1412.39,-209.5 1531.39,-209.5 1531.39,-179.5 1412.39,-179.5"/>
<text text-anchor="start" x="1420.39" y="-197.5" font-family="Helvetica,sans-Serif" font-size="10.00">panoc&#45;alm/inner/decl</text>
<text text-anchor="middle" x="1471.89" y="-186.5" font-family="Helvetica,sans-Serif" font-size="10.00">/panoc&#45;stop&#45;crit.hpp</text>
</a>
</g>
</g>
<!-- Node26&#45;&gt;Node28 -->
<g id="edge34" class="edge">
<title>Node26&#45;&gt;Node28</title>
<path fill="none" stroke="midnightblue" d="M1037.6,-255.09C1118.04,-247.44 1265.85,-232.05 1401.92,-210.06"/>
<polygon fill="midnightblue" stroke="midnightblue" points="1402.81,-213.47 1412.11,-208.4 1401.68,-206.56 1402.81,-213.47"/>
</g>
<!-- Node30 -->
<g id="node30" class="node">
<title>Node30</title>
<g id="a_node30"><a xlink:href="atomic__stop__signal_8hpp.html" target="_top" xlink:title=" ">
<polygon fill="white" stroke="black" points="1269.89,-179.5 1269.89,-209.5 1393.89,-209.5 1393.89,-179.5 1269.89,-179.5"/>
<text text-anchor="start" x="1277.89" y="-197.5" font-family="Helvetica,sans-Serif" font-size="10.00">panoc&#45;alm/util/atomic</text>
<text text-anchor="middle" x="1331.89" y="-186.5" font-family="Helvetica,sans-Serif" font-size="10.00">_stop_signal.hpp</text>
</a>
</g>
</g>
<!-- Node26&#45;&gt;Node30 -->
<g id="edge38" class="edge">
<title>Node26&#45;&gt;Node30</title>
<path fill="none" stroke="midnightblue" d="M1037.57,-249.82C1093.89,-239.7 1180.66,-224.01 1255.89,-210 1257.15,-209.76 1258.43,-209.53 1259.71,-209.29"/>
<polygon fill="midnightblue" stroke="midnightblue" points="1260.5,-212.7 1269.69,-207.41 1259.21,-205.82 1260.5,-212.7"/>
</g>
<!-- Node31 -->
<g id="node31" class="node">
<title>Node31</title>
<g id="a_node31"><a xlink:title=" ">
<polygon fill="white" stroke="#bfbfbf" points="1261.89,-118 1261.89,-137 1311.89,-137 1311.89,-118 1261.89,-118"/>
<text text-anchor="middle" x="1286.89" y="-125" font-family="Helvetica,sans-Serif" font-size="10.00">atomic</text>
</a>
</g>
</g>
<!-- Node26&#45;&gt;Node31 -->
<g id="edge44" class="edge">
<title>Node26&#45;&gt;Node31</title>
<path fill="none" stroke="midnightblue" d="M1037.63,-249.73C1075.47,-241.64 1124.84,-228.71 1165.89,-210 1205.33,-192.03 1246.12,-161.66 1268.82,-143.5"/>
<polygon fill="midnightblue" stroke="midnightblue" points="1271.04,-146.21 1276.6,-137.2 1266.63,-140.78 1271.04,-146.21"/>
</g>
<!-- Node32 -->
<g id="node32" class="node">
<title>Node32</title>
<g id="a_node32"><a xlink:href="lipschitz_8hpp.html" target="_top" xlink:title=" ">
<polygon fill="white" stroke="black" points="1075.89,-118 1075.89,-137 1227.89,-137 1227.89,-118 1075.89,-118"/>
<text text-anchor="middle" x="1151.89" y="-125" font-family="Helvetica,sans-Serif" font-size="10.00">panoc&#45;alm/util/lipschitz.hpp</text>
</a>
</g>
</g>
<!-- Node26&#45;&gt;Node32 -->
<g id="edge40" class="edge">
<title>Node26&#45;&gt;Node32</title>
<path fill="none" stroke="midnightblue" d="M1037.41,-259.12C1074.92,-254.83 1121,-242.62 1146.89,-210 1160.9,-192.34 1159.44,-165.18 1156.32,-147.13"/>
<polygon fill="midnightblue" stroke="midnightblue" points="1159.73,-146.33 1154.28,-137.24 1152.87,-147.74 1159.73,-146.33"/>
</g>
<!-- Node33 -->
<g id="node33" class="node">
<title>Node33</title>
<g id="a_node33"><a xlink:title=" ">
<polygon fill="white" stroke="#bfbfbf" points="955.89,-185 955.89,-204 999.89,-204 999.89,-185 955.89,-185"/>
<text text-anchor="middle" x="977.89" y="-192" font-family="Helvetica,sans-Serif" font-size="10.00">limits</text>
</a>
</g>
</g>
<!-- Node26&#45;&gt;Node33 -->
<g id="edge46" class="edge">
<title>Node26&#45;&gt;Node33</title>
<path fill="none" stroke="midnightblue" d="M977.89,-246.4C977.89,-237.06 977.89,-224.71 977.89,-214.52"/>
<polygon fill="midnightblue" stroke="midnightblue" points="981.39,-214.19 977.89,-204.19 974.39,-214.19 981.39,-214.19"/>
</g>
<!-- Node28&#45;&gt;Node19 -->
<g id="edge36" class="edge">
<title>Node28&#45;&gt;Node19</title>
<path fill="none" stroke="midnightblue" d="M1495.11,-179.4C1513.22,-168.39 1538.23,-153.2 1556.2,-142.28"/>
<polygon fill="midnightblue" stroke="midnightblue" points="1558.16,-145.19 1564.89,-137.01 1554.52,-139.21 1558.16,-145.19"/>
</g>
<!-- Node29 -->
<g id="node29" class="node">
<title>Node29</title>
<g id="a_node29"><a xlink:title=" ">
<polygon fill="white" stroke="#bfbfbf" points="1443.39,-118 1443.39,-137 1500.39,-137 1500.39,-118 1443.39,-118"/>
<text text-anchor="middle" x="1471.89" y="-125" font-family="Helvetica,sans-Serif" font-size="10.00">ostream</text>
</a>
</g>
</g>
<!-- Node28&#45;&gt;Node29 -->
<g id="edge35" class="edge">
<title>Node28&#45;&gt;Node29</title>
<path fill="none" stroke="midnightblue" d="M1471.89,-179.4C1471.89,-170.06 1471.89,-157.71 1471.89,-147.52"/>
<polygon fill="midnightblue" stroke="midnightblue" points="1475.39,-147.19 1471.89,-137.19 1468.39,-147.19 1475.39,-147.19"/>
</g>
<!-- Node30&#45;&gt;Node31 -->
<g id="edge39" class="edge">
<title>Node30&#45;&gt;Node31</title>
<path fill="none" stroke="midnightblue" d="M1322.13,-179.4C1315.25,-169.46 1306.01,-156.11 1298.71,-145.57"/>
<polygon fill="midnightblue" stroke="midnightblue" points="1301.48,-143.42 1292.91,-137.19 1295.73,-147.41 1301.48,-143.42"/>
</g>
<!-- Node32&#45;&gt;Node9 -->
<g id="edge41" class="edge">
<title>Node32&#45;&gt;Node9</title>
<path fill="none" stroke="midnightblue" d="M1089.12,-117.99C1071.59,-115.82 1052.52,-113.63 1034.89,-112 769.2,-87.4 448.04,-72.95 339.67,-68.49"/>
<polygon fill="midnightblue" stroke="midnightblue" points="339.7,-64.99 329.56,-68.08 339.41,-71.98 339.7,-64.99"/>
</g>
<!-- Node34&#45;&gt;Node7 -->
<g id="edge51" class="edge">
<title>Node34&#45;&gt;Node7</title>
<path fill="none" stroke="midnightblue" d="M1194.14,-250.3C1131.25,-240.2 1032.41,-224.24 946.89,-210 938.61,-208.62 929.88,-207.15 921.3,-205.7"/>
<polygon fill="midnightblue" stroke="midnightblue" points="921.77,-202.23 911.32,-204 920.59,-209.13 921.77,-202.23"/>
</g>
<!-- Node34&#45;&gt;Node15 -->
<g id="edge52" class="edge">
<title>Node34&#45;&gt;Node15</title>
<path fill="none" stroke="midnightblue" d="M1194.38,-255.81C1060.21,-245.81 751.61,-222.3 646.89,-210 636.11,-208.73 624.67,-207.17 613.6,-205.55"/>
<polygon fill="midnightblue" stroke="midnightblue" points="613.98,-202.07 603.57,-204.05 612.95,-208.99 613.98,-202.07"/>
</g>
<!-- Node34&#45;&gt;Node19 -->
<g id="edge53" class="edge">
<title>Node34&#45;&gt;Node19</title>
<path fill="none" stroke="midnightblue" d="M1321.57,-247.75C1324.72,-247.15 1327.84,-246.56 1330.89,-246 1424.01,-228.77 1465.63,-267.47 1540.89,-210 1561.12,-194.56 1570.99,-165.74 1575.5,-146.84"/>
<polygon fill="midnightblue" stroke="midnightblue" points="1578.93,-147.54 1577.57,-137.03 1572.08,-146.09 1578.93,-147.54"/>
</g>
<!-- Node34&#45;&gt;Node28 -->
<g id="edge49" class="edge">
<title>Node34&#45;&gt;Node28</title>
<path fill="none" stroke="midnightblue" d="M1304.06,-246.48C1336.72,-236.56 1380.69,-223.2 1415.43,-212.65"/>
<polygon fill="midnightblue" stroke="midnightblue" points="1416.88,-215.87 1425.43,-209.61 1414.85,-209.17 1416.88,-215.87"/>
</g>
<!-- Node34&#45;&gt;Node30 -->
<g id="edge50" class="edge">
<title>Node34&#45;&gt;Node30</title>
<path fill="none" stroke="midnightblue" d="M1273.95,-246.4C1283.94,-237.62 1296.96,-226.18 1308.13,-216.37"/>
<polygon fill="midnightblue" stroke="midnightblue" points="1310.66,-218.81 1315.87,-209.58 1306.04,-213.55 1310.66,-218.81"/>
</g>
</g>
</svg>
