<?xml version="1.0" encoding="UTF-8" standalone="no"?>
<!DOCTYPE svg PUBLIC "-//W3C//DTD SVG 1.1//EN"
 "http://www.w3.org/Graphics/SVG/1.1/DTD/svg11.dtd">
<!-- Generated by graphviz version 2.43.0 (0)
 -->
<!-- Title: CasADiLoader.cpp Pages: 1 -->
<svg width="660pt" height="319pt"
 viewBox="0.00 0.00 660.00 319.00" xmlns="http://www.w3.org/2000/svg" xmlns:xlink="http://www.w3.org/1999/xlink">
<g id="graph0" class="graph" transform="scale(1 1) rotate(0) translate(4 315)">
<title>CasADiLoader.cpp</title>
<polygon fill="white" stroke="transparent" points="-4,4 -4,-315 656,-315 656,4 -4,4"/>
<!-- Node1 -->
<g id="node1" class="node">
<title>Node1</title>
<g id="a_node1"><a xlink:title=" ">
<polygon fill="#bfbfbf" stroke="black" points="247.5,-291.5 247.5,-310.5 351.5,-310.5 351.5,-291.5 247.5,-291.5"/>
<text text-anchor="middle" x="299.5" y="-298.5" font-family="Helvetica,sans-Serif" font-size="10.00">CasADiLoader.cpp</text>
</a>
</g>
</g>
<!-- Node2 -->
<g id="node2" class="node">
<title>Node2</title>
<g id="a_node2"><a xlink:title=" ">
<polygon fill="white" stroke="#bfbfbf" points="0,-230 0,-249 137,-249 137,-230 0,-230"/>
<text text-anchor="middle" x="68.5" y="-237" font-family="Helvetica,sans-Serif" font-size="10.00">casadi/core/external.hpp</text>
</a>
</g>
</g>
<!-- Node1&#45;&gt;Node2 -->
<g id="edge1" class="edge">
<title>Node1&#45;&gt;Node2</title>
<path fill="none" stroke="midnightblue" d="M266.4,-291.48C225.58,-280.96 156.09,-263.06 111.26,-251.51"/>
<polygon fill="midnightblue" stroke="midnightblue" points="112.09,-248.11 101.54,-249.01 110.35,-254.89 112.09,-248.11"/>
</g>
<!-- Node3 -->
<g id="node3" class="node">
<title>Node3</title>
<g id="a_node3"><a xlink:title=" ">
<polygon fill="white" stroke="#bfbfbf" points="155.5,-230 155.5,-249 211.5,-249 211.5,-230 155.5,-230"/>
<text text-anchor="middle" x="183.5" y="-237" font-family="Helvetica,sans-Serif" font-size="10.00">optional</text>
</a>
</g>
</g>
<!-- Node1&#45;&gt;Node3 -->
<g id="edge2" class="edge">
<title>Node1&#45;&gt;Node3</title>
<path fill="none" stroke="midnightblue" d="M282.88,-291.48C263.58,-281.58 231.54,-265.14 209.07,-253.62"/>
<polygon fill="midnightblue" stroke="midnightblue" points="210.58,-250.46 200.09,-249.01 207.39,-256.69 210.58,-250.46"/>
</g>
<!-- Node4 -->
<g id="node4" class="node">
<title>Node4</title>
<g id="a_node4"><a xlink:href="CasADiFunctionWrapper_8hpp.html" target="_top" xlink:title=" ">
<polygon fill="white" stroke="black" points="405.5,-224.5 405.5,-254.5 563.5,-254.5 563.5,-224.5 405.5,-224.5"/>
<text text-anchor="start" x="413.5" y="-242.5" font-family="Helvetica,sans-Serif" font-size="10.00">panoc&#45;alm/interop/casadi</text>
<text text-anchor="middle" x="484.5" y="-231.5" font-family="Helvetica,sans-Serif" font-size="10.00">/CasADiFunctionWrapper.hpp</text>
</a>
</g>
</g>
<!-- Node1&#45;&gt;Node4 -->
<g id="edge3" class="edge">
<title>Node1&#45;&gt;Node4</title>
<path fill="none" stroke="midnightblue" d="M326.01,-291.48C353.29,-282.7 396.55,-268.79 430.98,-257.71"/>
<polygon fill="midnightblue" stroke="midnightblue" points="432.45,-260.92 440.9,-254.52 430.31,-254.25 432.45,-260.92"/>
</g>
<!-- Node8 -->
<g id="node8" class="node">
<title>Node8</title>
<g id="a_node8"><a xlink:title=" ">
<polygon fill="white" stroke="#bfbfbf" points="587,-168.5 587,-187.5 652,-187.5 652,-168.5 587,-168.5"/>
<text text-anchor="middle" x="619.5" y="-175.5" font-family="Helvetica,sans-Serif" font-size="10.00">stdexcept</text>
</a>
</g>
</g>
<!-- Node1&#45;&gt;Node8 -->
<g id="edge19" class="edge">
<title>Node1&#45;&gt;Node8</title>
<path fill="none" stroke="midnightblue" d="M351.65,-296.52C420.53,-291.08 537.23,-278.62 572.5,-255 592.99,-241.27 606.16,-215.28 613.2,-197.55"/>
<polygon fill="midnightblue" stroke="midnightblue" points="616.63,-198.36 616.8,-187.77 610.06,-195.94 616.63,-198.36"/>
</g>
<!-- Node11 -->
<g id="node11" class="node">
<title>Node11</title>
<g id="a_node11"><a xlink:href="CasADiLoader_8hpp.html" target="_top" xlink:title=" ">
<polygon fill="white" stroke="black" points="229.5,-224.5 229.5,-254.5 369.5,-254.5 369.5,-224.5 229.5,-224.5"/>
<text text-anchor="start" x="237.5" y="-242.5" font-family="Helvetica,sans-Serif" font-size="10.00">panoc&#45;alm/interop/casadi</text>
<text text-anchor="middle" x="299.5" y="-231.5" font-family="Helvetica,sans-Serif" font-size="10.00">/CasADiLoader.hpp</text>
</a>
</g>
</g>
<!-- Node1&#45;&gt;Node11 -->
<g id="edge10" class="edge">
<title>Node1&#45;&gt;Node11</title>
<path fill="none" stroke="midnightblue" d="M299.5,-291.48C299.5,-284.47 299.5,-274.19 299.5,-264.7"/>
<polygon fill="midnightblue" stroke="midnightblue" points="303,-264.52 299.5,-254.52 296,-264.52 303,-264.52"/>
</g>
<!-- Node5 -->
<g id="node5" class="node">
<title>Node5</title>
<g id="a_node5"><a xlink:title=" ">
<polygon fill="white" stroke="#bfbfbf" points="329.5,-168.5 329.5,-187.5 465.5,-187.5 465.5,-168.5 329.5,-168.5"/>
<text text-anchor="middle" x="397.5" y="-175.5" font-family="Helvetica,sans-Serif" font-size="10.00">casadi/core/function.hpp</text>
</a>
</g>
</g>
<!-- Node4&#45;&gt;Node5 -->
<g id="edge4" class="edge">
<title>Node4&#45;&gt;Node5</title>
<path fill="none" stroke="midnightblue" d="M463.88,-224.4C450.2,-215.04 432.29,-202.79 418.52,-193.38"/>
<polygon fill="midnightblue" stroke="midnightblue" points="420.39,-190.41 410.16,-187.66 416.44,-196.19 420.39,-190.41"/>
</g>
<!-- Node6 -->
<g id="node6" class="node">
<title>Node6</title>
<g id="a_node6"><a xlink:href="vec_8hpp.html" target="_top" xlink:title=" ">
<polygon fill="white" stroke="black" points="195.5,-56.5 195.5,-75.5 323.5,-75.5 323.5,-56.5 195.5,-56.5"/>
<text text-anchor="middle" x="259.5" y="-63.5" font-family="Helvetica,sans-Serif" font-size="10.00">panoc&#45;alm/util/vec.hpp</text>
</a>
</g>
</g>
<!-- Node4&#45;&gt;Node6 -->
<g id="edge5" class="edge">
<title>Node4&#45;&gt;Node6</title>
<path fill="none" stroke="midnightblue" d="M485.06,-224.49C485.09,-209.68 483.5,-186.03 474.5,-168 458.77,-136.51 448.86,-129.81 418.5,-112 390.04,-95.3 355.07,-84.53 325.17,-77.72"/>
<polygon fill="midnightblue" stroke="midnightblue" points="325.76,-74.27 315.25,-75.56 324.27,-81.11 325.76,-74.27"/>
</g>
<!-- Node4&#45;&gt;Node8 -->
<g id="edge7" class="edge">
<title>Node4&#45;&gt;Node8</title>
<path fill="none" stroke="midnightblue" d="M516.49,-224.4C538.94,-214.51 568.71,-201.38 590.48,-191.79"/>
<polygon fill="midnightblue" stroke="midnightblue" points="592.12,-194.89 599.86,-187.66 589.29,-188.49 592.12,-194.89"/>
</g>
<!-- Node9 -->
<g id="node9" class="node">
<title>Node9</title>
<g id="a_node9"><a xlink:title=" ">
<polygon fill="white" stroke="#bfbfbf" points="267.5,-168.5 267.5,-187.5 311.5,-187.5 311.5,-168.5 267.5,-168.5"/>
<text text-anchor="middle" x="289.5" y="-175.5" font-family="Helvetica,sans-Serif" font-size="10.00">string</text>
</a>
</g>
</g>
<!-- Node4&#45;&gt;Node9 -->
<g id="edge8" class="edge">
<title>Node4&#45;&gt;Node9</title>
<path fill="none" stroke="midnightblue" d="M438.29,-224.4C402.21,-213.39 353.04,-198.39 321.27,-188.7"/>
<polygon fill="midnightblue" stroke="midnightblue" points="322.2,-185.32 311.61,-185.75 320.16,-192.01 322.2,-185.32"/>
</g>
<!-- Node10 -->
<g id="node10" class="node">
<title>Node10</title>
<g id="a_node10"><a xlink:title=" ">
<polygon fill="white" stroke="#bfbfbf" points="522,-168.5 522,-187.5 569,-187.5 569,-168.5 522,-168.5"/>
<text text-anchor="middle" x="545.5" y="-175.5" font-family="Helvetica,sans-Serif" font-size="10.00">vector</text>
</a>
</g>
</g>
<!-- Node4&#45;&gt;Node10 -->
<g id="edge9" class="edge">
<title>Node4&#45;&gt;Node10</title>
<path fill="none" stroke="midnightblue" d="M498.96,-224.4C508.09,-215.49 519.92,-203.95 529.36,-194.74"/>
<polygon fill="midnightblue" stroke="midnightblue" points="531.91,-197.15 536.62,-187.66 527.02,-192.13 531.91,-197.15"/>
</g>
<!-- Node7 -->
<g id="node7" class="node">
<title>Node7</title>
<g id="a_node7"><a xlink:title=" ">
<polygon fill="white" stroke="#bfbfbf" points="225,-0.5 225,-19.5 294,-19.5 294,-0.5 225,-0.5"/>
<text text-anchor="middle" x="259.5" y="-7.5" font-family="Helvetica,sans-Serif" font-size="10.00">Eigen/Core</text>
</a>
</g>
</g>
<!-- Node6&#45;&gt;Node7 -->
<g id="edge6" class="edge">
<title>Node6&#45;&gt;Node7</title>
<path fill="none" stroke="midnightblue" d="M259.5,-56.08C259.5,-49.01 259.5,-38.86 259.5,-29.99"/>
<polygon fill="midnightblue" stroke="midnightblue" points="263,-29.75 259.5,-19.75 256,-29.75 263,-29.75"/>
</g>
<!-- Node11&#45;&gt;Node9 -->
<g id="edge18" class="edge">
<title>Node11&#45;&gt;Node9</title>
<path fill="none" stroke="midnightblue" d="M297.13,-224.4C295.78,-216.38 294.08,-206.23 292.62,-197.57"/>
<polygon fill="midnightblue" stroke="midnightblue" points="296.06,-196.94 290.96,-187.66 289.16,-198.1 296.06,-196.94"/>
</g>
<!-- Node12 -->
<g id="node12" class="node">
<title>Node12</title>
<g id="a_node12"><a xlink:href="include_2panoc-alm_2util_2problem_8hpp.html" target="_top" xlink:title=" ">
<polygon fill="white" stroke="black" points="97.5,-168.5 97.5,-187.5 249.5,-187.5 249.5,-168.5 97.5,-168.5"/>
<text text-anchor="middle" x="173.5" y="-175.5" font-family="Helvetica,sans-Serif" font-size="10.00">panoc&#45;alm/util/problem.hpp</text>
</a>
</g>
</g>
<!-- Node11&#45;&gt;Node12 -->
<g id="edge11" class="edge">
<title>Node11&#45;&gt;Node12</title>
<path fill="none" stroke="midnightblue" d="M269.64,-224.4C248.88,-214.59 221.4,-201.62 201.14,-192.05"/>
<polygon fill="midnightblue" stroke="midnightblue" points="202.37,-188.76 191.83,-187.66 199.38,-195.09 202.37,-188.76"/>
</g>
<!-- Node13 -->
<g id="node13" class="node">
<title>Node13</title>
<g id="a_node13"><a xlink:href="box_8hpp.html" target="_top" xlink:title=" ">
<polygon fill="white" stroke="black" points="35.5,-112.5 35.5,-131.5 91.5,-131.5 91.5,-112.5 35.5,-112.5"/>
<text text-anchor="middle" x="63.5" y="-119.5" font-family="Helvetica,sans-Serif" font-size="10.00">box.hpp</text>
</a>
</g>
</g>
<!-- Node12&#45;&gt;Node13 -->
<g id="edge12" class="edge">
<title>Node12&#45;&gt;Node13</title>
<path fill="none" stroke="midnightblue" d="M155.83,-168.32C138.11,-159.62 110.6,-146.12 90.21,-136.11"/>
<polygon fill="midnightblue" stroke="midnightblue" points="91.65,-132.92 81.13,-131.65 88.56,-139.2 91.65,-132.92"/>
</g>
<!-- Node14 -->
<g id="node14" class="node">
<title>Node14</title>
<g id="a_node14"><a xlink:title=" ">
<polygon fill="white" stroke="#bfbfbf" points="109.5,-112.5 109.5,-131.5 161.5,-131.5 161.5,-112.5 109.5,-112.5"/>
<text text-anchor="middle" x="135.5" y="-119.5" font-family="Helvetica,sans-Serif" font-size="10.00">cassert</text>
</a>
</g>
</g>
<!-- Node12&#45;&gt;Node14 -->
<g id="edge14" class="edge">
<title>Node12&#45;&gt;Node14</title>
<path fill="none" stroke="midnightblue" d="M167.23,-168.08C161.86,-160.46 153.98,-149.26 147.42,-139.94"/>
<polygon fill="midnightblue" stroke="midnightblue" points="150.28,-137.91 141.66,-131.75 144.55,-141.94 150.28,-137.91"/>
</g>
<!-- Node15 -->
<g id="node15" class="node">
<title>Node15</title>
<g id="a_node15"><a xlink:title=" ">
<polygon fill="white" stroke="#bfbfbf" points="180,-112.5 180,-131.5 245,-131.5 245,-112.5 180,-112.5"/>
<text text-anchor="middle" x="212.5" y="-119.5" font-family="Helvetica,sans-Serif" font-size="10.00">functional</text>
</a>
</g>
</g>
<!-- Node12&#45;&gt;Node15 -->
<g id="edge15" class="edge">
<title>Node12&#45;&gt;Node15</title>
<path fill="none" stroke="midnightblue" d="M179.94,-168.08C185.45,-160.46 193.53,-149.26 200.26,-139.94"/>
<polygon fill="midnightblue" stroke="midnightblue" points="203.16,-141.91 206.18,-131.75 197.49,-137.81 203.16,-141.91"/>
</g>
<!-- Node16 -->
<g id="node16" class="node">
<title>Node16</title>
<g id="a_node16"><a xlink:title=" ">
<polygon fill="white" stroke="#bfbfbf" points="263.5,-112.5 263.5,-131.5 321.5,-131.5 321.5,-112.5 263.5,-112.5"/>
<text text-anchor="middle" x="292.5" y="-119.5" font-family="Helvetica,sans-Serif" font-size="10.00">memory</text>
</a>
</g>
</g>
<!-- Node12&#45;&gt;Node16 -->
<g id="edge16" class="edge">
<title>Node12&#45;&gt;Node16</title>
<path fill="none" stroke="midnightblue" d="M192.36,-168.44C211.77,-159.64 242.23,-145.81 264.46,-135.72"/>
<polygon fill="midnightblue" stroke="midnightblue" points="266.07,-138.84 273.73,-131.52 263.18,-132.46 266.07,-138.84"/>
</g>
<!-- Node17 -->
<g id="node17" class="node">
<title>Node17</title>
<g id="a_node17"><a xlink:title=" ">
<polygon fill="white" stroke="#bfbfbf" points="340,-112.5 340,-131.5 409,-131.5 409,-112.5 340,-112.5"/>
<text text-anchor="middle" x="374.5" y="-119.5" font-family="Helvetica,sans-Serif" font-size="10.00">type_traits</text>
</a>
</g>
</g>
<!-- Node12&#45;&gt;Node17 -->
<g id="edge17" class="edge">
<title>Node12&#45;&gt;Node17</title>
<path fill="none" stroke="midnightblue" d="M205.35,-168.44C239.9,-159.16 295.18,-144.31 333.08,-134.13"/>
<polygon fill="midnightblue" stroke="midnightblue" points="334.05,-137.49 342.8,-131.52 332.23,-130.73 334.05,-137.49"/>
</g>
<!-- Node13&#45;&gt;Node6 -->
<g id="edge13" class="edge">
<title>Node13&#45;&gt;Node6</title>
<path fill="none" stroke="midnightblue" d="M91.58,-113.26C124.91,-104.08 180.75,-88.7 218.81,-78.21"/>
<polygon fill="midnightblue" stroke="midnightblue" points="219.85,-81.55 228.56,-75.52 217.99,-74.81 219.85,-81.55"/>
</g>
</g>
</svg>
