<?xml version="1.0" encoding="UTF-8" standalone="no"?>
<!DOCTYPE svg PUBLIC "-//W3C//DTD SVG 1.1//EN"
 "http://www.w3.org/Graphics/SVG/1.1/DTD/svg11.dtd">
<!-- Generated by graphviz version 2.43.0 (0)
 -->
<!-- Title: main.cpp Pages: 1 -->
<svg width="1440pt" height="341pt"
 viewBox="0.00 0.00 1439.55 341.00" xmlns="http://www.w3.org/2000/svg" xmlns:xlink="http://www.w3.org/1999/xlink">
<g id="graph0" class="graph" transform="scale(1 1) rotate(0) translate(4 337)">
<title>main.cpp</title>
<polygon fill="white" stroke="transparent" points="-4,4 -4,-337 1435.55,-337 1435.55,4 -4,4"/>
<!-- Node1 -->
<g id="node1" class="node">
<title>Node1</title>
<g id="a_node1"><a xlink:title=" ">
<polygon fill="#bfbfbf" stroke="black" points="530.05,-313.5 530.05,-332.5 592.05,-332.5 592.05,-313.5 530.05,-313.5"/>
<text text-anchor="middle" x="561.05" y="-320.5" font-family="Helvetica,sans-Serif" font-size="10.00">main.cpp</text>
</a>
</g>
</g>
<!-- Node2 -->
<g id="node2" class="node">
<title>Node2</title>
<g id="a_node2"><a xlink:href="decl_2alm_8hpp.html" target="_top" xlink:title=" ">
<polygon fill="white" stroke="black" points="494.05,-252 494.05,-271 628.05,-271 628.05,-252 494.05,-252"/>
<text text-anchor="middle" x="561.05" y="-259" font-family="Helvetica,sans-Serif" font-size="10.00">panoc&#45;alm/decl/alm.hpp</text>
</a>
</g>
</g>
<!-- Node1&#45;&gt;Node2 -->
<g id="edge1" class="edge">
<title>Node1&#45;&gt;Node2</title>
<path fill="none" stroke="midnightblue" d="M561.05,-313.48C561.05,-305.08 561.05,-291.98 561.05,-281.16"/>
<polygon fill="midnightblue" stroke="midnightblue" points="564.55,-281.01 561.05,-271.01 557.55,-281.01 564.55,-281.01"/>
</g>
<!-- Node17 -->
<g id="node17" class="node">
<title>Node17</title>
<g id="a_node17"><a xlink:href="inner_2decl_2panoc_8hpp.html" target="_top" xlink:title=" ">
<polygon fill="white" stroke="black" points="719.55,-246.5 719.55,-276.5 838.55,-276.5 838.55,-246.5 719.55,-246.5"/>
<text text-anchor="start" x="727.55" y="-264.5" font-family="Helvetica,sans-Serif" font-size="10.00">panoc&#45;alm/inner/decl</text>
<text text-anchor="middle" x="779.05" y="-253.5" font-family="Helvetica,sans-Serif" font-size="10.00">/panoc.hpp</text>
</a>
</g>
</g>
<!-- Node1&#45;&gt;Node17 -->
<g id="edge16" class="edge">
<title>Node1&#45;&gt;Node17</title>
<path fill="none" stroke="midnightblue" d="M592.28,-313.48C624.91,-304.57 676.94,-290.37 717.81,-279.22"/>
<polygon fill="midnightblue" stroke="midnightblue" points="718.95,-282.53 727.67,-276.52 717.1,-275.78 718.95,-282.53"/>
</g>
<!-- Node27 -->
<g id="node27" class="node">
<title>Node27</title>
<g id="a_node27"><a xlink:href="decl_2lbfgs_8hpp.html" target="_top" xlink:title=" ">
<polygon fill="white" stroke="black" points="41.55,-246.5 41.55,-276.5 188.55,-276.5 188.55,-246.5 41.55,-246.5"/>
<text text-anchor="start" x="49.55" y="-264.5" font-family="Helvetica,sans-Serif" font-size="10.00">panoc&#45;alm/inner/directions</text>
<text text-anchor="middle" x="115.05" y="-253.5" font-family="Helvetica,sans-Serif" font-size="10.00">/decl/lbfgs.hpp</text>
</a>
</g>
</g>
<!-- Node1&#45;&gt;Node27 -->
<g id="edge34" class="edge">
<title>Node1&#45;&gt;Node27</title>
<path fill="none" stroke="midnightblue" d="M530.04,-317.86C462.34,-308.83 299.32,-287.08 198.93,-273.69"/>
<polygon fill="midnightblue" stroke="midnightblue" points="199.19,-270.19 188.82,-272.34 198.27,-277.13 199.19,-270.19"/>
</g>
<!-- Node28 -->
<g id="node28" class="node">
<title>Node28</title>
<g id="a_node28"><a xlink:href="CasADiLoader_8hpp.html" target="_top" xlink:title=" ">
<polygon fill="white" stroke="black" points="336.05,-246.5 336.05,-276.5 476.05,-276.5 476.05,-246.5 336.05,-246.5"/>
<text text-anchor="start" x="344.05" y="-264.5" font-family="Helvetica,sans-Serif" font-size="10.00">panoc&#45;alm/interop/casadi</text>
<text text-anchor="middle" x="406.05" y="-253.5" font-family="Helvetica,sans-Serif" font-size="10.00">/CasADiLoader.hpp</text>
</a>
</g>
</g>
<!-- Node1&#45;&gt;Node28 -->
<g id="edge39" class="edge">
<title>Node1&#45;&gt;Node28</title>
<path fill="none" stroke="midnightblue" d="M538.84,-313.48C516.28,-304.81 480.67,-291.15 452.01,-280.14"/>
<polygon fill="midnightblue" stroke="midnightblue" points="453.17,-276.84 442.58,-276.52 450.66,-283.37 453.17,-276.84"/>
</g>
<!-- Node29 -->
<g id="node29" class="node">
<title>Node29</title>
<g id="a_node29"><a xlink:title=" ">
<polygon fill="white" stroke="#bfbfbf" points="857.05,-252 857.05,-271 917.05,-271 917.05,-252 857.05,-252"/>
<text text-anchor="middle" x="887.05" y="-259" font-family="Helvetica,sans-Serif" font-size="10.00">iostream</text>
</a>
</g>
</g>
<!-- Node1&#45;&gt;Node29 -->
<g id="edge42" class="edge">
<title>Node1&#45;&gt;Node29</title>
<path fill="none" stroke="midnightblue" d="M592.47,-319.15C645.72,-313.87 756.8,-300.86 848.05,-277 850.87,-276.26 853.76,-275.4 856.65,-274.47"/>
<polygon fill="midnightblue" stroke="midnightblue" points="857.96,-277.71 866.25,-271.11 855.65,-271.11 857.96,-277.71"/>
</g>
<!-- Node3 -->
<g id="node3" class="node">
<title>Node3</title>
<g id="a_node3"><a xlink:href="panoc-fwd_8hpp.html" target="_top" xlink:title=" ">
<polygon fill="white" stroke="black" points="492.55,-179.5 492.55,-209.5 611.55,-209.5 611.55,-179.5 492.55,-179.5"/>
<text text-anchor="start" x="500.55" y="-197.5" font-family="Helvetica,sans-Serif" font-size="10.00">panoc&#45;alm/inner/decl</text>
<text text-anchor="middle" x="552.05" y="-186.5" font-family="Helvetica,sans-Serif" font-size="10.00">/panoc&#45;fwd.hpp</text>
</a>
</g>
</g>
<!-- Node2&#45;&gt;Node3 -->
<g id="edge2" class="edge">
<title>Node2&#45;&gt;Node3</title>
<path fill="none" stroke="midnightblue" d="M559.84,-251.73C558.7,-243.54 556.95,-230.92 555.4,-219.71"/>
<polygon fill="midnightblue" stroke="midnightblue" points="558.84,-219.01 554,-209.59 551.91,-219.97 558.84,-219.01"/>
</g>
<!-- Node5 -->
<g id="node5" class="node">
<title>Node5</title>
<g id="a_node5"><a xlink:href="include_2panoc-alm_2util_2problem_8hpp.html" target="_top" xlink:title=" ">
<polygon fill="white" stroke="black" points="222.05,-185 222.05,-204 374.05,-204 374.05,-185 222.05,-185"/>
<text text-anchor="middle" x="298.05" y="-192" font-family="Helvetica,sans-Serif" font-size="10.00">panoc&#45;alm/util/problem.hpp</text>
</a>
</g>
</g>
<!-- Node2&#45;&gt;Node5 -->
<g id="edge4" class="edge">
<title>Node2&#45;&gt;Node5</title>
<path fill="none" stroke="midnightblue" d="M526.4,-251.94C479.19,-240.27 394.62,-219.37 342.71,-206.54"/>
<polygon fill="midnightblue" stroke="midnightblue" points="343.33,-203.09 332.78,-204.08 341.65,-209.88 343.33,-203.09"/>
</g>
<!-- Node13 -->
<g id="node13" class="node">
<title>Node13</title>
<g id="a_node13"><a xlink:href="solverstatus_8hpp.html" target="_top" xlink:title=" ">
<polygon fill="white" stroke="black" points="629.55,-185 629.55,-204 800.55,-204 800.55,-185 629.55,-185"/>
<text text-anchor="middle" x="715.05" y="-192" font-family="Helvetica,sans-Serif" font-size="10.00">panoc&#45;alm/util/solverstatus.hpp</text>
</a>
</g>
</g>
<!-- Node2&#45;&gt;Node13 -->
<g id="edge12" class="edge">
<title>Node2&#45;&gt;Node13</title>
<path fill="none" stroke="midnightblue" d="M581.5,-251.87C608.08,-240.65 654.69,-220.98 685.22,-208.09"/>
<polygon fill="midnightblue" stroke="midnightblue" points="686.66,-211.28 694.52,-204.17 683.94,-204.83 686.66,-211.28"/>
</g>
<!-- Node15 -->
<g id="node15" class="node">
<title>Node15</title>
<g id="a_node15"><a xlink:title=" ">
<polygon fill="white" stroke="#bfbfbf" points="819.05,-185 819.05,-204 869.05,-204 869.05,-185 819.05,-185"/>
<text text-anchor="middle" x="844.05" y="-192" font-family="Helvetica,sans-Serif" font-size="10.00">chrono</text>
</a>
</g>
</g>
<!-- Node2&#45;&gt;Node15 -->
<g id="edge14" class="edge">
<title>Node2&#45;&gt;Node15</title>
<path fill="none" stroke="midnightblue" d="M620.26,-251.97C671.25,-243.8 746.45,-229.79 810.05,-210 812.19,-209.33 814.38,-208.58 816.57,-207.77"/>
<polygon fill="midnightblue" stroke="midnightblue" points="817.97,-210.98 825.95,-204.02 815.37,-204.48 817.97,-210.98"/>
</g>
<!-- Node16 -->
<g id="node16" class="node">
<title>Node16</title>
<g id="a_node16"><a xlink:title=" ">
<polygon fill="white" stroke="#bfbfbf" points="430.05,-185 430.05,-204 474.05,-204 474.05,-185 430.05,-185"/>
<text text-anchor="middle" x="452.05" y="-192" font-family="Helvetica,sans-Serif" font-size="10.00">string</text>
</a>
</g>
</g>
<!-- Node2&#45;&gt;Node16 -->
<g id="edge15" class="edge">
<title>Node2&#45;&gt;Node16</title>
<path fill="none" stroke="midnightblue" d="M546.35,-251.73C528.13,-240.87 496.85,-222.22 475.35,-209.39"/>
<polygon fill="midnightblue" stroke="midnightblue" points="476.9,-206.24 466.52,-204.13 473.31,-212.26 476.9,-206.24"/>
</g>
<!-- Node4 -->
<g id="node4" class="node">
<title>Node4</title>
<g id="a_node4"><a xlink:href="lbfgs-fwd_8hpp.html" target="_top" xlink:title=" ">
<polygon fill="white" stroke="black" points="478.55,-112.5 478.55,-142.5 625.55,-142.5 625.55,-112.5 478.55,-112.5"/>
<text text-anchor="start" x="486.55" y="-130.5" font-family="Helvetica,sans-Serif" font-size="10.00">panoc&#45;alm/inner/directions</text>
<text text-anchor="middle" x="552.05" y="-119.5" font-family="Helvetica,sans-Serif" font-size="10.00">/decl/lbfgs&#45;fwd.hpp</text>
</a>
</g>
</g>
<!-- Node3&#45;&gt;Node4 -->
<g id="edge3" class="edge">
<title>Node3&#45;&gt;Node4</title>
<path fill="none" stroke="midnightblue" d="M552.05,-179.4C552.05,-171.64 552.05,-161.81 552.05,-152.86"/>
<polygon fill="midnightblue" stroke="midnightblue" points="555.55,-152.58 552.05,-142.58 548.55,-152.58 555.55,-152.58"/>
</g>
<!-- Node6 -->
<g id="node6" class="node">
<title>Node6</title>
<g id="a_node6"><a xlink:href="box_8hpp.html" target="_top" xlink:title=" ">
<polygon fill="white" stroke="black" points="86.05,-118 86.05,-137 142.05,-137 142.05,-118 86.05,-118"/>
<text text-anchor="middle" x="114.05" y="-125" font-family="Helvetica,sans-Serif" font-size="10.00">box.hpp</text>
</a>
</g>
</g>
<!-- Node5&#45;&gt;Node6 -->
<g id="edge5" class="edge">
<title>Node5&#45;&gt;Node6</title>
<path fill="none" stroke="midnightblue" d="M272.17,-184.98C242.72,-175.2 193.22,-158.5 151.05,-143 149.16,-142.3 147.21,-141.58 145.25,-140.84"/>
<polygon fill="midnightblue" stroke="midnightblue" points="146.1,-137.41 135.51,-137.09 143.59,-143.95 146.1,-137.41"/>
</g>
<!-- Node9 -->
<g id="node9" class="node">
<title>Node9</title>
<g id="a_node9"><a xlink:title=" ">
<polygon fill="white" stroke="#bfbfbf" points="248.05,-118 248.05,-137 300.05,-137 300.05,-118 248.05,-118"/>
<text text-anchor="middle" x="274.05" y="-125" font-family="Helvetica,sans-Serif" font-size="10.00">cassert</text>
</a>
</g>
</g>
<!-- Node5&#45;&gt;Node9 -->
<g id="edge8" class="edge">
<title>Node5&#45;&gt;Node9</title>
<path fill="none" stroke="midnightblue" d="M294.81,-184.73C291.21,-174.99 285.3,-158.98 280.71,-146.53"/>
<polygon fill="midnightblue" stroke="midnightblue" points="283.98,-145.3 277.24,-137.13 277.42,-147.72 283.98,-145.3"/>
</g>
<!-- Node10 -->
<g id="node10" class="node">
<title>Node10</title>
<g id="a_node10"><a xlink:title=" ">
<polygon fill="white" stroke="#bfbfbf" points="318.55,-118 318.55,-137 383.55,-137 383.55,-118 318.55,-118"/>
<text text-anchor="middle" x="351.05" y="-125" font-family="Helvetica,sans-Serif" font-size="10.00">functional</text>
</a>
</g>
</g>
<!-- Node5&#45;&gt;Node10 -->
<g id="edge9" class="edge">
<title>Node5&#45;&gt;Node10</title>
<path fill="none" stroke="midnightblue" d="M305.2,-184.73C313.46,-174.6 327.25,-157.69 337.55,-145.06"/>
<polygon fill="midnightblue" stroke="midnightblue" points="340.41,-147.09 344.02,-137.13 334.98,-142.67 340.41,-147.09"/>
</g>
<!-- Node11 -->
<g id="node11" class="node">
<title>Node11</title>
<g id="a_node11"><a xlink:title=" ">
<polygon fill="white" stroke="#bfbfbf" points="402.05,-118 402.05,-137 460.05,-137 460.05,-118 402.05,-118"/>
<text text-anchor="middle" x="431.05" y="-125" font-family="Helvetica,sans-Serif" font-size="10.00">memory</text>
</a>
</g>
</g>
<!-- Node5&#45;&gt;Node11 -->
<g id="edge10" class="edge">
<title>Node5&#45;&gt;Node11</title>
<path fill="none" stroke="midnightblue" d="M315.71,-184.87C338.37,-173.8 377.88,-154.49 404.25,-141.6"/>
<polygon fill="midnightblue" stroke="midnightblue" points="405.87,-144.7 413.32,-137.17 402.79,-138.41 405.87,-144.7"/>
</g>
<!-- Node12 -->
<g id="node12" class="node">
<title>Node12</title>
<g id="a_node12"><a xlink:title=" ">
<polygon fill="white" stroke="#bfbfbf" points="160.55,-118 160.55,-137 229.55,-137 229.55,-118 160.55,-118"/>
<text text-anchor="middle" x="195.05" y="-125" font-family="Helvetica,sans-Serif" font-size="10.00">type_traits</text>
</a>
</g>
</g>
<!-- Node5&#45;&gt;Node12 -->
<g id="edge11" class="edge">
<title>Node5&#45;&gt;Node12</title>
<path fill="none" stroke="midnightblue" d="M284.16,-184.73C267.02,-173.92 237.65,-155.38 217.34,-142.57"/>
<polygon fill="midnightblue" stroke="midnightblue" points="219.05,-139.5 208.72,-137.13 215.31,-145.42 219.05,-139.5"/>
</g>
<!-- Node7 -->
<g id="node7" class="node">
<title>Node7</title>
<g id="a_node7"><a xlink:href="vec_8hpp.html" target="_top" xlink:title=" ">
<polygon fill="white" stroke="black" points="86.55,-56.5 86.55,-75.5 141.55,-75.5 141.55,-56.5 86.55,-56.5"/>
<text text-anchor="middle" x="114.05" y="-63.5" font-family="Helvetica,sans-Serif" font-size="10.00">vec.hpp</text>
</a>
</g>
</g>
<!-- Node6&#45;&gt;Node7 -->
<g id="edge6" class="edge">
<title>Node6&#45;&gt;Node7</title>
<path fill="none" stroke="midnightblue" d="M114.05,-117.98C114.05,-109.58 114.05,-96.48 114.05,-85.66"/>
<polygon fill="midnightblue" stroke="midnightblue" points="117.55,-85.51 114.05,-75.51 110.55,-85.51 117.55,-85.51"/>
</g>
<!-- Node8 -->
<g id="node8" class="node">
<title>Node8</title>
<g id="a_node8"><a xlink:title=" ">
<polygon fill="white" stroke="#bfbfbf" points="79.55,-0.5 79.55,-19.5 148.55,-19.5 148.55,-0.5 79.55,-0.5"/>
<text text-anchor="middle" x="114.05" y="-7.5" font-family="Helvetica,sans-Serif" font-size="10.00">Eigen/Core</text>
</a>
</g>
</g>
<!-- Node7&#45;&gt;Node8 -->
<g id="edge7" class="edge">
<title>Node7&#45;&gt;Node8</title>
<path fill="none" stroke="midnightblue" d="M114.05,-56.08C114.05,-49.01 114.05,-38.86 114.05,-29.99"/>
<polygon fill="midnightblue" stroke="midnightblue" points="117.55,-29.75 114.05,-19.75 110.55,-29.75 117.55,-29.75"/>
</g>
<!-- Node14 -->
<g id="node14" class="node">
<title>Node14</title>
<g id="a_node14"><a xlink:title=" ">
<polygon fill="white" stroke="#bfbfbf" points="691.05,-118 691.05,-137 739.05,-137 739.05,-118 691.05,-118"/>
<text text-anchor="middle" x="715.05" y="-125" font-family="Helvetica,sans-Serif" font-size="10.00">iosfwd</text>
</a>
</g>
</g>
<!-- Node13&#45;&gt;Node14 -->
<g id="edge13" class="edge">
<title>Node13&#45;&gt;Node14</title>
<path fill="none" stroke="midnightblue" d="M715.05,-184.73C715.05,-175.18 715.05,-159.62 715.05,-147.28"/>
<polygon fill="midnightblue" stroke="midnightblue" points="718.55,-147.13 715.05,-137.13 711.55,-147.13 718.55,-147.13"/>
</g>
<!-- Node17&#45;&gt;Node3 -->
<g id="edge18" class="edge">
<title>Node17&#45;&gt;Node3</title>
<path fill="none" stroke="midnightblue" d="M730.07,-246.48C695.14,-236.47 647.99,-222.97 610.99,-212.38"/>
<polygon fill="midnightblue" stroke="midnightblue" points="611.91,-209 601.33,-209.61 609.98,-215.73 611.91,-209"/>
</g>
<!-- Node17&#45;&gt;Node5 -->
<g id="edge28" class="edge">
<title>Node17&#45;&gt;Node5</title>
<path fill="none" stroke="midnightblue" d="M719.1,-252.4C630.9,-240.48 466.34,-218.24 371.17,-205.38"/>
<polygon fill="midnightblue" stroke="midnightblue" points="371.42,-201.88 361.05,-204.01 370.49,-208.82 371.42,-201.88"/>
</g>
<!-- Node17&#45;&gt;Node13 -->
<g id="edge29" class="edge">
<title>Node17&#45;&gt;Node13</title>
<path fill="none" stroke="midnightblue" d="M765.16,-246.4C755.09,-236.16 741.43,-222.3 730.92,-211.62"/>
<polygon fill="midnightblue" stroke="midnightblue" points="733.12,-208.86 723.61,-204.19 728.13,-213.78 733.12,-208.86"/>
</g>
<!-- Node17&#45;&gt;Node15 -->
<g id="edge31" class="edge">
<title>Node17&#45;&gt;Node15</title>
<path fill="none" stroke="midnightblue" d="M793.15,-246.4C803.49,-236.06 817.53,-222.02 828.24,-211.31"/>
<polygon fill="midnightblue" stroke="midnightblue" points="830.76,-213.74 835.36,-204.19 825.81,-208.79 830.76,-213.74"/>
</g>
<!-- Node17&#45;&gt;Node16 -->
<g id="edge33" class="edge">
<title>Node17&#45;&gt;Node16</title>
<path fill="none" stroke="midnightblue" d="M719.54,-255.09C658.98,-248.49 562.9,-234.99 483.05,-210 481.18,-209.41 479.27,-208.74 477.38,-208.01"/>
<polygon fill="midnightblue" stroke="midnightblue" points="478.7,-204.77 468.13,-204.02 475.93,-211.19 478.7,-204.77"/>
</g>
<!-- Node18 -->
<g id="node18" class="node">
<title>Node18</title>
<g id="a_node18"><a xlink:href="lbfgs-stepsize_8hpp.html" target="_top" xlink:title=" ">
<polygon fill="white" stroke="black" points="1167.55,-179.5 1167.55,-209.5 1286.55,-209.5 1286.55,-179.5 1167.55,-179.5"/>
<text text-anchor="start" x="1175.55" y="-197.5" font-family="Helvetica,sans-Serif" font-size="10.00">panoc&#45;alm/inner/decl</text>
<text text-anchor="middle" x="1227.05" y="-186.5" font-family="Helvetica,sans-Serif" font-size="10.00">/lbfgs&#45;stepsize.hpp</text>
</a>
</g>
</g>
<!-- Node17&#45;&gt;Node18 -->
<g id="edge17" class="edge">
<title>Node17&#45;&gt;Node18</title>
<path fill="none" stroke="midnightblue" d="M838.83,-247.6C841.94,-247.03 845.03,-246.49 848.05,-246 982.75,-223.94 1018.2,-231.14 1153.05,-210 1154.5,-209.77 1155.97,-209.54 1157.46,-209.29"/>
<polygon fill="midnightblue" stroke="midnightblue" points="1158.08,-212.74 1167.34,-207.6 1156.9,-205.84 1158.08,-212.74"/>
</g>
<!-- Node19 -->
<g id="node19" class="node">
<title>Node19</title>
<g id="a_node19"><a xlink:href="panoc-stop-crit_8hpp.html" target="_top" xlink:title=" ">
<polygon fill="white" stroke="black" points="1304.55,-179.5 1304.55,-209.5 1423.55,-209.5 1423.55,-179.5 1304.55,-179.5"/>
<text text-anchor="start" x="1312.55" y="-197.5" font-family="Helvetica,sans-Serif" font-size="10.00">panoc&#45;alm/inner/decl</text>
<text text-anchor="middle" x="1364.05" y="-186.5" font-family="Helvetica,sans-Serif" font-size="10.00">/panoc&#45;stop&#45;crit.hpp</text>
</a>
</g>
</g>
<!-- Node17&#45;&gt;Node19 -->
<g id="edge19" class="edge">
<title>Node17&#45;&gt;Node19</title>
<path fill="none" stroke="midnightblue" d="M838.81,-247.46C841.93,-246.93 845.02,-246.44 848.05,-246 1042.46,-217.88 1096.61,-238.19 1294.29,-210.13"/>
<polygon fill="midnightblue" stroke="midnightblue" points="1295.03,-213.56 1304.42,-208.67 1294.03,-206.64 1295.03,-213.56"/>
</g>
<!-- Node22 -->
<g id="node22" class="node">
<title>Node22</title>
<g id="a_node22"><a xlink:href="panoc-direction-update_8hpp.html" target="_top" xlink:title=" ">
<polygon fill="white" stroke="black" points="26.55,-179.5 26.55,-209.5 203.55,-209.5 203.55,-179.5 26.55,-179.5"/>
<text text-anchor="start" x="34.55" y="-197.5" font-family="Helvetica,sans-Serif" font-size="10.00">panoc&#45;alm/inner/directions</text>
<text text-anchor="middle" x="115.05" y="-186.5" font-family="Helvetica,sans-Serif" font-size="10.00">/decl/panoc&#45;direction&#45;update.hpp</text>
</a>
</g>
</g>
<!-- Node17&#45;&gt;Node22 -->
<g id="edge22" class="edge">
<title>Node17&#45;&gt;Node22</title>
<path fill="none" stroke="midnightblue" d="M719.31,-254.17C693.95,-251.54 664.07,-248.53 637.05,-246 451.97,-228.69 402.58,-231.74 213.67,-210.02"/>
<polygon fill="midnightblue" stroke="midnightblue" points="214.03,-206.54 203.69,-208.87 213.22,-213.49 214.03,-206.54"/>
</g>
<!-- Node23 -->
<g id="node23" class="node">
<title>Node23</title>
<g id="a_node23"><a xlink:href="atomic__stop__signal_8hpp.html" target="_top" xlink:title=" ">
<polygon fill="white" stroke="black" points="887.05,-179.5 887.05,-209.5 1011.05,-209.5 1011.05,-179.5 887.05,-179.5"/>
<text text-anchor="start" x="895.05" y="-197.5" font-family="Helvetica,sans-Serif" font-size="10.00">panoc&#45;alm/util/atomic</text>
<text text-anchor="middle" x="949.05" y="-186.5" font-family="Helvetica,sans-Serif" font-size="10.00">_stop_signal.hpp</text>
</a>
</g>
</g>
<!-- Node17&#45;&gt;Node23 -->
<g id="edge24" class="edge">
<title>Node17&#45;&gt;Node23</title>
<path fill="none" stroke="midnightblue" d="M815.94,-246.4C841.44,-236.64 875.57,-223.59 902.88,-213.15"/>
<polygon fill="midnightblue" stroke="midnightblue" points="904.14,-216.42 912.23,-209.58 901.64,-209.88 904.14,-216.42"/>
</g>
<!-- Node24 -->
<g id="node24" class="node">
<title>Node24</title>
<g id="a_node24"><a xlink:title=" ">
<polygon fill="white" stroke="#bfbfbf" points="942.05,-118 942.05,-137 992.05,-137 992.05,-118 942.05,-118"/>
<text text-anchor="middle" x="967.05" y="-125" font-family="Helvetica,sans-Serif" font-size="10.00">atomic</text>
</a>
</g>
</g>
<!-- Node17&#45;&gt;Node24 -->
<g id="edge30" class="edge">
<title>Node17&#45;&gt;Node24</title>
<path fill="none" stroke="midnightblue" d="M838.89,-247.92C841.99,-247.27 845.05,-246.63 848.05,-246 924.49,-229.97 970.8,-270.62 1020.05,-210 1037.81,-188.14 1009.9,-160.16 988.32,-143.31"/>
<polygon fill="midnightblue" stroke="midnightblue" points="990.28,-140.41 980.17,-137.24 986.09,-146.02 990.28,-140.41"/>
</g>
<!-- Node25 -->
<g id="node25" class="node">
<title>Node25</title>
<g id="a_node25"><a xlink:href="lipschitz_8hpp.html" target="_top" xlink:title=" ">
<polygon fill="white" stroke="black" points="1028.05,-118 1028.05,-137 1180.05,-137 1180.05,-118 1028.05,-118"/>
<text text-anchor="middle" x="1104.05" y="-125" font-family="Helvetica,sans-Serif" font-size="10.00">panoc&#45;alm/util/lipschitz.hpp</text>
</a>
</g>
</g>
<!-- Node17&#45;&gt;Node25 -->
<g id="edge26" class="edge">
<title>Node17&#45;&gt;Node25</title>
<path fill="none" stroke="midnightblue" d="M838.84,-247.65C841.95,-247.07 845.03,-246.52 848.05,-246 908.15,-235.72 1079.86,-255.85 1120.05,-210 1135.45,-192.43 1124.95,-164.46 1115.16,-146.29"/>
<polygon fill="midnightblue" stroke="midnightblue" points="1118.01,-144.23 1109.97,-137.33 1111.96,-147.74 1118.01,-144.23"/>
</g>
<!-- Node26 -->
<g id="node26" class="node">
<title>Node26</title>
<g id="a_node26"><a xlink:title=" ">
<polygon fill="white" stroke="#bfbfbf" points="1067.05,-185 1067.05,-204 1111.05,-204 1111.05,-185 1067.05,-185"/>
<text text-anchor="middle" x="1089.05" y="-192" font-family="Helvetica,sans-Serif" font-size="10.00">limits</text>
</a>
</g>
</g>
<!-- Node17&#45;&gt;Node26 -->
<g id="edge32" class="edge">
<title>Node17&#45;&gt;Node26</title>
<path fill="none" stroke="midnightblue" d="M838.86,-247.8C841.97,-247.18 845.05,-246.58 848.05,-246 938.88,-228.49 964.11,-235.42 1053.05,-210 1055.49,-209.3 1057.99,-208.5 1060.48,-207.63"/>
<polygon fill="midnightblue" stroke="midnightblue" points="1061.76,-210.89 1069.88,-204.08 1059.29,-204.34 1061.76,-210.89"/>
</g>
<!-- Node20 -->
<g id="node20" class="node">
<title>Node20</title>
<g id="a_node20"><a xlink:title=" ">
<polygon fill="white" stroke="#bfbfbf" points="1374.55,-118 1374.55,-137 1431.55,-137 1431.55,-118 1374.55,-118"/>
<text text-anchor="middle" x="1403.05" y="-125" font-family="Helvetica,sans-Serif" font-size="10.00">ostream</text>
</a>
</g>
</g>
<!-- Node19&#45;&gt;Node20 -->
<g id="edge20" class="edge">
<title>Node19&#45;&gt;Node20</title>
<path fill="none" stroke="midnightblue" d="M1372.51,-179.4C1378.41,-169.56 1386.32,-156.38 1392.61,-145.89"/>
<polygon fill="midnightblue" stroke="midnightblue" points="1395.69,-147.57 1397.83,-137.19 1389.69,-143.97 1395.69,-147.57"/>
</g>
<!-- Node21 -->
<g id="node21" class="node">
<title>Node21</title>
<g id="a_node21"><a xlink:title=" ">
<polygon fill="white" stroke="#bfbfbf" points="1291.55,-118 1291.55,-137 1356.55,-137 1356.55,-118 1291.55,-118"/>
<text text-anchor="middle" x="1324.05" y="-125" font-family="Helvetica,sans-Serif" font-size="10.00">stdexcept</text>
</a>
</g>
</g>
<!-- Node19&#45;&gt;Node21 -->
<g id="edge21" class="edge">
<title>Node19&#45;&gt;Node21</title>
<path fill="none" stroke="midnightblue" d="M1355.37,-179.4C1349.32,-169.56 1341.21,-156.38 1334.75,-145.89"/>
<polygon fill="midnightblue" stroke="midnightblue" points="1337.62,-143.88 1329.4,-137.19 1331.66,-147.55 1337.62,-143.88"/>
</g>
<!-- Node22&#45;&gt;Node6 -->
<g id="edge23" class="edge">
<title>Node22&#45;&gt;Node6</title>
<path fill="none" stroke="midnightblue" d="M114.83,-179.4C114.69,-170.06 114.5,-157.71 114.34,-147.52"/>
<polygon fill="midnightblue" stroke="midnightblue" points="117.84,-147.14 114.18,-137.19 110.84,-147.25 117.84,-147.14"/>
</g>
<!-- Node23&#45;&gt;Node24 -->
<g id="edge25" class="edge">
<title>Node23&#45;&gt;Node24</title>
<path fill="none" stroke="midnightblue" d="M952.96,-179.4C955.6,-169.86 959.11,-157.18 961.96,-146.86"/>
<polygon fill="midnightblue" stroke="midnightblue" points="965.35,-147.77 964.64,-137.19 958.6,-145.9 965.35,-147.77"/>
</g>
<!-- Node25&#45;&gt;Node7 -->
<g id="edge27" class="edge">
<title>Node25&#45;&gt;Node7</title>
<path fill="none" stroke="midnightblue" d="M1050.17,-117.99C1034.37,-115.75 1017.05,-113.53 1001.05,-112 672.93,-80.64 274.3,-70.28 151.71,-67.71"/>
<polygon fill="midnightblue" stroke="midnightblue" points="151.78,-64.21 141.71,-67.5 151.63,-71.21 151.78,-64.21"/>
</g>
<!-- Node27&#45;&gt;Node4 -->
<g id="edge37" class="edge">
<title>Node27&#45;&gt;Node4</title>
<path fill="none" stroke="midnightblue" d="M188.56,-256.47C244.16,-251.13 321.23,-238.75 383.05,-210 402.81,-200.81 402.2,-189.95 421.05,-179 444.3,-165.5 471.83,-154.26 495.64,-145.83"/>
<polygon fill="midnightblue" stroke="midnightblue" points="496.94,-149.09 505.25,-142.51 494.66,-142.47 496.94,-149.09"/>
</g>
<!-- Node27&#45;&gt;Node6 -->
<g id="edge35" class="edge">
<title>Node27&#45;&gt;Node6</title>
<path fill="none" stroke="midnightblue" d="M63.9,-246.43C45.88,-238.74 27.51,-227.16 17.05,-210 9.88,-198.24 9.9,-190.78 17.05,-179 29.89,-157.84 54.8,-145.14 76.17,-137.76"/>
<polygon fill="midnightblue" stroke="midnightblue" points="77.51,-141.01 85.99,-134.65 75.4,-134.34 77.51,-141.01"/>
</g>
<!-- Node27&#45;&gt;Node7 -->
<g id="edge36" class="edge">
<title>Node27&#45;&gt;Node7</title>
<path fill="none" stroke="midnightblue" d="M56.53,-246.43C37.78,-238.85 19.05,-227.35 8.05,-210 -23.34,-160.48 50.02,-105.82 90.1,-80.83"/>
<polygon fill="midnightblue" stroke="midnightblue" points="92.07,-83.73 98.8,-75.55 88.43,-77.75 92.07,-83.73"/>
</g>
<!-- Node27&#45;&gt;Node22 -->
<g id="edge38" class="edge">
<title>Node27&#45;&gt;Node22</title>
<path fill="none" stroke="midnightblue" d="M115.05,-246.4C115.05,-238.64 115.05,-228.81 115.05,-219.86"/>
<polygon fill="midnightblue" stroke="midnightblue" points="118.55,-219.58 115.05,-209.58 111.55,-219.58 118.55,-219.58"/>
</g>
<!-- Node28&#45;&gt;Node5 -->
<g id="edge40" class="edge">
<title>Node28&#45;&gt;Node5</title>
<path fill="none" stroke="midnightblue" d="M382.62,-246.4C364.34,-235.39 339.09,-220.2 320.95,-209.28"/>
<polygon fill="midnightblue" stroke="midnightblue" points="322.56,-206.16 312.18,-204.01 318.95,-212.16 322.56,-206.16"/>
</g>
<!-- Node28&#45;&gt;Node16 -->
<g id="edge41" class="edge">
<title>Node28&#45;&gt;Node16</title>
<path fill="none" stroke="midnightblue" d="M416.03,-246.4C423.06,-236.46 432.51,-223.11 439.97,-212.57"/>
<polygon fill="midnightblue" stroke="midnightblue" points="442.98,-214.38 445.9,-204.19 437.26,-210.34 442.98,-214.38"/>
</g>
</g>
</svg>
