<?xml version="1.0" encoding="UTF-8" standalone="no"?>
<!DOCTYPE svg PUBLIC "-//W3C//DTD SVG 1.1//EN"
 "http://www.w3.org/Graphics/SVG/1.1/DTD/svg11.dtd">
<!-- Generated by graphviz version 2.43.0 (0)
 -->
<!-- Title: PolymorphicInnerSolverStatsBase Pages: 1 -->
<svg width="217pt" height="204pt"
 viewBox="0.00 0.00 217.00 204.00" xmlns="http://www.w3.org/2000/svg" xmlns:xlink="http://www.w3.org/1999/xlink">
<g id="graph0" class="graph" transform="scale(1 1) rotate(0) translate(4 200)">
<title>PolymorphicInnerSolverStatsBase</title>
<polygon fill="white" stroke="transparent" points="-4,4 -4,-200 213,-200 213,4 -4,4"/>
<!-- Node1 -->
<g id="node1" class="node">
<title>Node1</title>
<g id="a_node1"><a xlink:title=" ">
<polygon fill="#bfbfbf" stroke="black" points="0,-0.5 0,-79.5 209,-79.5 209,-0.5 0,-0.5"/>
<text text-anchor="middle" x="104.5" y="-67.5" font-family="Helvetica,sans-Serif" font-size="10.00">PolymorphicInnerSolverStatsBase</text>
<polyline fill="none" stroke="black" points="0,-60.5 209,-60.5 "/>
<text text-anchor="middle" x="104.5" y="-48.5" font-family="Helvetica,sans-Serif" font-size="10.00"> </text>
<polyline fill="none" stroke="black" points="0,-41.5 209,-41.5 "/>
<text text-anchor="start" x="8" y="-29.5" font-family="Helvetica,sans-Serif" font-size="10.00">+ ~PolymorphicInnerSolverStatsBase()</text>
<text text-anchor="start" x="8" y="-18.5" font-family="Helvetica,sans-Serif" font-size="10.00">+ to_dict()</text>
<text text-anchor="start" x="8" y="-7.5" font-family="Helvetica,sans-Serif" font-size="10.00">+ accumulator()</text>
</a>
</g>
</g>
<!-- Node2 -->
<g id="node2" class="node">
<title>Node2</title>
<g id="a_node2"><a xlink:title=" ">
<polygon fill="white" stroke="#bfbfbf" points="21,-116.5 21,-195.5 188,-195.5 188,-116.5 21,-116.5"/>
<text text-anchor="start" x="29" y="-183.5" font-family="Helvetica,sans-Serif" font-size="10.00">enable_shared_from</text>
<text text-anchor="start" x="29" y="-172.5" font-family="Helvetica,sans-Serif" font-size="10.00">_this&lt; PolymorphicInnerSolver</text>
<text text-anchor="middle" x="104.5" y="-161.5" font-family="Helvetica,sans-Serif" font-size="10.00">StatsBase &gt;</text>
<polyline fill="none" stroke="#bfbfbf" points="21,-154.5 188,-154.5 "/>
<text text-anchor="middle" x="104.5" y="-142.5" font-family="Helvetica,sans-Serif" font-size="10.00"> </text>
<polyline fill="none" stroke="#bfbfbf" points="21,-135.5 188,-135.5 "/>
<text text-anchor="middle" x="104.5" y="-123.5" font-family="Helvetica,sans-Serif" font-size="10.00"> </text>
</a>
</g>
</g>
<!-- Node2&#45;&gt;Node1 -->
<g id="edge1" class="edge">
<title>Node2&#45;&gt;Node1</title>
<path fill="none" stroke="midnightblue" d="M104.5,-106.15C104.5,-97.26 104.5,-88.1 104.5,-79.56"/>
<polygon fill="none" stroke="midnightblue" points="101,-106.4 104.5,-116.4 108,-106.4 101,-106.4"/>
</g>
</g>
</svg>
