<?xml version="1.0" encoding="UTF-8" standalone="no"?>
<!DOCTYPE svg PUBLIC "-//W3C//DTD SVG 1.1//EN"
 "http://www.w3.org/Graphics/SVG/1.1/DTD/svg11.dtd">
<!-- Generated by graphviz version 2.43.0 (0)
 -->
<!-- Title: PolymorphicPANOCDirectionTrampoline Pages: 1 -->
<svg width="214pt" height="441pt"
 viewBox="0.00 0.00 214.00 441.00" xmlns="http://www.w3.org/2000/svg" xmlns:xlink="http://www.w3.org/1999/xlink">
<g id="graph0" class="graph" transform="scale(1 1) rotate(0) translate(4 437)">
<title>PolymorphicPANOCDirectionTrampoline</title>
<polygon fill="white" stroke="transparent" points="-4,4 -4,-437 210,-437 210,4 -4,4"/>
<!-- Node1 -->
<g id="node1" class="node">
<title>Node1</title>
<g id="a_node1"><a xlink:title=" ">
<polygon fill="#bfbfbf" stroke="black" points="25.5,-0.5 25.5,-134.5 180.5,-134.5 180.5,-0.5 25.5,-0.5"/>
<text text-anchor="start" x="33.5" y="-122.5" font-family="Helvetica,sans-Serif" font-size="10.00">PolymorphicPANOCDirection</text>
<text text-anchor="middle" x="103" y="-111.5" font-family="Helvetica,sans-Serif" font-size="10.00">Trampoline</text>
<polyline fill="none" stroke="black" points="25.5,-104.5 180.5,-104.5 "/>
<text text-anchor="middle" x="103" y="-92.5" font-family="Helvetica,sans-Serif" font-size="10.00"> </text>
<polyline fill="none" stroke="black" points="25.5,-85.5 180.5,-85.5 "/>
<text text-anchor="start" x="33.5" y="-73.5" font-family="Helvetica,sans-Serif" font-size="10.00">+ initialize()</text>
<text text-anchor="start" x="33.5" y="-62.5" font-family="Helvetica,sans-Serif" font-size="10.00">+ update()</text>
<text text-anchor="start" x="33.5" y="-51.5" font-family="Helvetica,sans-Serif" font-size="10.00">+ apply()</text>
<text text-anchor="start" x="33.5" y="-40.5" font-family="Helvetica,sans-Serif" font-size="10.00">+ changed_γ()</text>
<text text-anchor="start" x="33.5" y="-29.5" font-family="Helvetica,sans-Serif" font-size="10.00">+ reset()</text>
<text text-anchor="start" x="33.5" y="-18.5" font-family="Helvetica,sans-Serif" font-size="10.00">+ get_name()</text>
<text text-anchor="start" x="33.5" y="-7.5" font-family="Helvetica,sans-Serif" font-size="10.00">+ get_params()</text>
</a>
</g>
</g>
<!-- Node2 -->
<g id="node2" class="node">
<title>Node2</title>
<g id="a_node2"><a xlink:href="classpa_1_1PolymorphicPANOCDirectionBase.html" target="_top" xlink:title=" ">
<polygon fill="white" stroke="black" points="0,-171.5 0,-316.5 206,-316.5 206,-171.5 0,-171.5"/>
<text text-anchor="middle" x="103" y="-304.5" font-family="Helvetica,sans-Serif" font-size="10.00">PolymorphicPANOCDirectionBase</text>
<polyline fill="none" stroke="black" points="0,-297.5 206,-297.5 "/>
<text text-anchor="middle" x="103" y="-285.5" font-family="Helvetica,sans-Serif" font-size="10.00"> </text>
<polyline fill="none" stroke="black" points="0,-278.5 206,-278.5 "/>
<text text-anchor="start" x="8" y="-266.5" font-family="Helvetica,sans-Serif" font-size="10.00">+ ~PolymorphicPANOCDirectionBase()</text>
<text text-anchor="start" x="8" y="-255.5" font-family="Helvetica,sans-Serif" font-size="10.00">+ initialize()</text>
<text text-anchor="start" x="8" y="-244.5" font-family="Helvetica,sans-Serif" font-size="10.00">+ update()</text>
<text text-anchor="start" x="8" y="-233.5" font-family="Helvetica,sans-Serif" font-size="10.00">+ apply()</text>
<text text-anchor="start" x="8" y="-222.5" font-family="Helvetica,sans-Serif" font-size="10.00">+ changed_γ()</text>
<text text-anchor="start" x="8" y="-211.5" font-family="Helvetica,sans-Serif" font-size="10.00">+ reset()</text>
<text text-anchor="start" x="8" y="-200.5" font-family="Helvetica,sans-Serif" font-size="10.00">+ get_name()</text>
<text text-anchor="start" x="8" y="-189.5" font-family="Helvetica,sans-Serif" font-size="10.00">+ apply_ret()</text>
<text text-anchor="start" x="8" y="-178.5" font-family="Helvetica,sans-Serif" font-size="10.00">+ get_params()</text>
</a>
</g>
</g>
<!-- Node2&#45;&gt;Node1 -->
<g id="edge1" class="edge">
<title>Node2&#45;&gt;Node1</title>
<path fill="none" stroke="midnightblue" d="M103,-161.25C103,-152.33 103,-143.33 103,-134.63"/>
<polygon fill="none" stroke="midnightblue" points="99.5,-161.27 103,-171.27 106.5,-161.27 99.5,-161.27"/>
</g>
<!-- Node3 -->
<g id="node3" class="node">
<title>Node3</title>
<g id="a_node3"><a xlink:title=" ">
<polygon fill="white" stroke="#bfbfbf" points="8,-353.5 8,-432.5 198,-432.5 198,-353.5 8,-353.5"/>
<text text-anchor="start" x="16" y="-420.5" font-family="Helvetica,sans-Serif" font-size="10.00">enable_shared_from</text>
<text text-anchor="start" x="16" y="-409.5" font-family="Helvetica,sans-Serif" font-size="10.00">_this&lt; PolymorphicPANOCDirection</text>
<text text-anchor="middle" x="103" y="-398.5" font-family="Helvetica,sans-Serif" font-size="10.00">Base &gt;</text>
<polyline fill="none" stroke="#bfbfbf" points="8,-391.5 198,-391.5 "/>
<text text-anchor="middle" x="103" y="-379.5" font-family="Helvetica,sans-Serif" font-size="10.00"> </text>
<polyline fill="none" stroke="#bfbfbf" points="8,-372.5 198,-372.5 "/>
<text text-anchor="middle" x="103" y="-360.5" font-family="Helvetica,sans-Serif" font-size="10.00"> </text>
</a>
</g>
</g>
<!-- Node3&#45;&gt;Node2 -->
<g id="edge2" class="edge">
<title>Node3&#45;&gt;Node2</title>
<path fill="none" stroke="midnightblue" d="M103,-343.24C103,-334.7 103,-325.65 103,-316.64"/>
<polygon fill="none" stroke="midnightblue" points="99.5,-343.38 103,-353.38 106.5,-343.38 99.5,-343.38"/>
</g>
</g>
</svg>
