<?xml version="1.0" encoding="UTF-8" standalone="no"?>
<!DOCTYPE svg PUBLIC "-//W3C//DTD SVG 1.1//EN"
 "http://www.w3.org/Graphics/SVG/1.1/DTD/svg11.dtd">
<!-- Generated by graphviz version 2.43.0 (0)
 -->
<!-- Title: PolymorphicPANOCDirectionBase Pages: 1 -->
<svg width="356pt" height="463pt"
 viewBox="0.00 0.00 355.50 463.00" xmlns="http://www.w3.org/2000/svg" xmlns:xlink="http://www.w3.org/1999/xlink">
<g id="graph0" class="graph" transform="scale(1 1) rotate(0) translate(4 459)">
<title>PolymorphicPANOCDirectionBase</title>
<polygon fill="white" stroke="transparent" points="-4,4 -4,-459 351.5,-459 351.5,4 -4,4"/>
<!-- Node1 -->
<g id="node1" class="node">
<title>Node1</title>
<g id="a_node1"><a xlink:title=" ">
<polygon fill="#bfbfbf" stroke="black" points="75,-193.5 75,-338.5 281,-338.5 281,-193.5 75,-193.5"/>
<text text-anchor="middle" x="178" y="-326.5" font-family="Helvetica,sans-Serif" font-size="10.00">PolymorphicPANOCDirectionBase</text>
<polyline fill="none" stroke="black" points="75,-319.5 281,-319.5 "/>
<text text-anchor="middle" x="178" y="-307.5" font-family="Helvetica,sans-Serif" font-size="10.00"> </text>
<polyline fill="none" stroke="black" points="75,-300.5 281,-300.5 "/>
<text text-anchor="start" x="83" y="-288.5" font-family="Helvetica,sans-Serif" font-size="10.00">+ ~PolymorphicPANOCDirectionBase()</text>
<text text-anchor="start" x="83" y="-277.5" font-family="Helvetica,sans-Serif" font-size="10.00">+ initialize()</text>
<text text-anchor="start" x="83" y="-266.5" font-family="Helvetica,sans-Serif" font-size="10.00">+ update()</text>
<text text-anchor="start" x="83" y="-255.5" font-family="Helvetica,sans-Serif" font-size="10.00">+ apply()</text>
<text text-anchor="start" x="83" y="-244.5" font-family="Helvetica,sans-Serif" font-size="10.00">+ changed_γ()</text>
<text text-anchor="start" x="83" y="-233.5" font-family="Helvetica,sans-Serif" font-size="10.00">+ reset()</text>
<text text-anchor="start" x="83" y="-222.5" font-family="Helvetica,sans-Serif" font-size="10.00">+ get_name()</text>
<text text-anchor="start" x="83" y="-211.5" font-family="Helvetica,sans-Serif" font-size="10.00">+ apply_ret()</text>
<text text-anchor="start" x="83" y="-200.5" font-family="Helvetica,sans-Serif" font-size="10.00">+ get_params()</text>
</a>
</g>
</g>
<!-- Node3 -->
<g id="node3" class="node">
<title>Node3</title>
<g id="a_node3"><a xlink:href="classpa_1_1PolymorphicPANOCDirection.html" target="_top" xlink:title=" ">
<polygon fill="white" stroke="black" points="0,-0.5 0,-156.5 174,-156.5 174,-0.5 0,-0.5"/>
<text text-anchor="start" x="8" y="-144.5" font-family="Helvetica,sans-Serif" font-size="10.00">PolymorphicPANOCDirection</text>
<text text-anchor="middle" x="87" y="-133.5" font-family="Helvetica,sans-Serif" font-size="10.00">&lt; DirectionProviderT &gt;</text>
<polyline fill="none" stroke="black" points="0,-126.5 174,-126.5 "/>
<text text-anchor="start" x="8" y="-114.5" font-family="Helvetica,sans-Serif" font-size="10.00">&#45; direction_provider</text>
<polyline fill="none" stroke="black" points="0,-107.5 174,-107.5 "/>
<text text-anchor="start" x="8" y="-95.5" font-family="Helvetica,sans-Serif" font-size="10.00">+ PolymorphicPANOCDirection()</text>
<text text-anchor="start" x="8" y="-84.5" font-family="Helvetica,sans-Serif" font-size="10.00">+ PolymorphicPANOCDirection()</text>
<text text-anchor="start" x="8" y="-73.5" font-family="Helvetica,sans-Serif" font-size="10.00">+ initialize()</text>
<text text-anchor="start" x="8" y="-62.5" font-family="Helvetica,sans-Serif" font-size="10.00">+ update()</text>
<text text-anchor="start" x="8" y="-51.5" font-family="Helvetica,sans-Serif" font-size="10.00">+ apply()</text>
<text text-anchor="start" x="8" y="-40.5" font-family="Helvetica,sans-Serif" font-size="10.00">+ changed_γ()</text>
<text text-anchor="start" x="8" y="-29.5" font-family="Helvetica,sans-Serif" font-size="10.00">+ reset()</text>
<text text-anchor="start" x="8" y="-18.5" font-family="Helvetica,sans-Serif" font-size="10.00">+ get_name()</text>
<text text-anchor="start" x="8" y="-7.5" font-family="Helvetica,sans-Serif" font-size="10.00">+ get_params()</text>
</a>
</g>
</g>
<!-- Node1&#45;&gt;Node3 -->
<g id="edge2" class="edge">
<title>Node1&#45;&gt;Node3</title>
<path fill="none" stroke="midnightblue" d="M138.35,-184.18C133.85,-175.01 129.28,-165.68 124.8,-156.56"/>
<polygon fill="none" stroke="midnightblue" points="135.27,-185.84 142.82,-193.28 141.55,-182.76 135.27,-185.84"/>
</g>
<!-- Node4 -->
<g id="node4" class="node">
<title>Node4</title>
<g id="a_node4"><a xlink:href="classpa_1_1PolymorphicPANOCDirectionTrampoline.html" target="_top" xlink:title=" ">
<polygon fill="white" stroke="black" points="192.5,-11.5 192.5,-145.5 347.5,-145.5 347.5,-11.5 192.5,-11.5"/>
<text text-anchor="start" x="200.5" y="-133.5" font-family="Helvetica,sans-Serif" font-size="10.00">PolymorphicPANOCDirection</text>
<text text-anchor="middle" x="270" y="-122.5" font-family="Helvetica,sans-Serif" font-size="10.00">Trampoline</text>
<polyline fill="none" stroke="black" points="192.5,-115.5 347.5,-115.5 "/>
<text text-anchor="middle" x="270" y="-103.5" font-family="Helvetica,sans-Serif" font-size="10.00"> </text>
<polyline fill="none" stroke="black" points="192.5,-96.5 347.5,-96.5 "/>
<text text-anchor="start" x="200.5" y="-84.5" font-family="Helvetica,sans-Serif" font-size="10.00">+ initialize()</text>
<text text-anchor="start" x="200.5" y="-73.5" font-family="Helvetica,sans-Serif" font-size="10.00">+ update()</text>
<text text-anchor="start" x="200.5" y="-62.5" font-family="Helvetica,sans-Serif" font-size="10.00">+ apply()</text>
<text text-anchor="start" x="200.5" y="-51.5" font-family="Helvetica,sans-Serif" font-size="10.00">+ changed_γ()</text>
<text text-anchor="start" x="200.5" y="-40.5" font-family="Helvetica,sans-Serif" font-size="10.00">+ reset()</text>
<text text-anchor="start" x="200.5" y="-29.5" font-family="Helvetica,sans-Serif" font-size="10.00">+ get_name()</text>
<text text-anchor="start" x="200.5" y="-18.5" font-family="Helvetica,sans-Serif" font-size="10.00">+ get_params()</text>
</a>
</g>
</g>
<!-- Node1&#45;&gt;Node4 -->
<g id="edge3" class="edge">
<title>Node1&#45;&gt;Node4</title>
<path fill="none" stroke="midnightblue" d="M218.17,-184C224.54,-171.16 231.06,-158.01 237.24,-145.56"/>
<polygon fill="none" stroke="midnightblue" points="214.88,-182.77 213.57,-193.28 221.15,-185.88 214.88,-182.77"/>
</g>
<!-- Node2 -->
<g id="node2" class="node">
<title>Node2</title>
<g id="a_node2"><a xlink:title=" ">
<polygon fill="white" stroke="#bfbfbf" points="83,-375.5 83,-454.5 273,-454.5 273,-375.5 83,-375.5"/>
<text text-anchor="start" x="91" y="-442.5" font-family="Helvetica,sans-Serif" font-size="10.00">enable_shared_from</text>
<text text-anchor="start" x="91" y="-431.5" font-family="Helvetica,sans-Serif" font-size="10.00">_this&lt; PolymorphicPANOCDirection</text>
<text text-anchor="middle" x="178" y="-420.5" font-family="Helvetica,sans-Serif" font-size="10.00">Base &gt;</text>
<polyline fill="none" stroke="#bfbfbf" points="83,-413.5 273,-413.5 "/>
<text text-anchor="middle" x="178" y="-401.5" font-family="Helvetica,sans-Serif" font-size="10.00"> </text>
<polyline fill="none" stroke="#bfbfbf" points="83,-394.5 273,-394.5 "/>
<text text-anchor="middle" x="178" y="-382.5" font-family="Helvetica,sans-Serif" font-size="10.00"> </text>
</a>
</g>
</g>
<!-- Node2&#45;&gt;Node1 -->
<g id="edge1" class="edge">
<title>Node2&#45;&gt;Node1</title>
<path fill="none" stroke="midnightblue" d="M178,-365.24C178,-356.7 178,-347.65 178,-338.64"/>
<polygon fill="none" stroke="midnightblue" points="174.5,-365.38 178,-375.38 181.5,-365.38 174.5,-365.38"/>
</g>
</g>
</svg>
