<?xml version="1.0" encoding="UTF-8" standalone="no"?>
<!DOCTYPE svg PUBLIC "-//W3C//DTD SVG 1.1//EN"
 "http://www.w3.org/Graphics/SVG/1.1/DTD/svg11.dtd">
<!-- Generated by graphviz version 2.43.0 (0)
 -->
<!-- Title: ProblemWithParam Pages: 1 -->
<svg width="137pt" height="347pt"
 viewBox="0.00 0.00 137.00 347.00" xmlns="http://www.w3.org/2000/svg" xmlns:xlink="http://www.w3.org/1999/xlink">
<g id="graph0" class="graph" transform="scale(1 1) rotate(0) translate(4 343)">
<title>ProblemWithParam</title>
<polygon fill="white" stroke="transparent" points="-4,4 -4,-343 133,-343 133,4 -4,4"/>
<!-- Node1 -->
<g id="node1" class="node">
<title>Node1</title>
<g id="a_node1"><a xlink:title=" ">
<polygon fill="#bfbfbf" stroke="black" points="0,-0.5 0,-112.5 129,-112.5 129,-0.5 0,-0.5"/>
<text text-anchor="middle" x="64.5" y="-100.5" font-family="Helvetica,sans-Serif" font-size="10.00">ProblemWithParam</text>
<polyline fill="none" stroke="black" points="0,-93.5 129,-93.5 "/>
<text text-anchor="start" x="8" y="-81.5" font-family="Helvetica,sans-Serif" font-size="10.00">&#45; param</text>
<polyline fill="none" stroke="black" points="0,-74.5 129,-74.5 "/>
<text text-anchor="start" x="8" y="-62.5" font-family="Helvetica,sans-Serif" font-size="10.00">+ ProblemWithParam()</text>
<text text-anchor="start" x="8" y="-51.5" font-family="Helvetica,sans-Serif" font-size="10.00">+ set_param()</text>
<text text-anchor="start" x="8" y="-40.5" font-family="Helvetica,sans-Serif" font-size="10.00">+ set_param()</text>
<text text-anchor="start" x="8" y="-29.5" font-family="Helvetica,sans-Serif" font-size="10.00">+ get_param()</text>
<text text-anchor="start" x="8" y="-18.5" font-family="Helvetica,sans-Serif" font-size="10.00">+ get_param()</text>
<text text-anchor="start" x="8" y="-7.5" font-family="Helvetica,sans-Serif" font-size="10.00">+ get_param_ptr()</text>
</a>
</g>
</g>
<!-- Node2 -->
<g id="node2" class="node">
<title>Node2</title>
<g id="a_node2"><a xlink:href="structpa_1_1Problem.html" target="_top" xlink:title="Problem description for minimization problems.">
<polygon fill="white" stroke="black" points="20.5,-149.5 20.5,-338.5 108.5,-338.5 108.5,-149.5 20.5,-149.5"/>
<text text-anchor="middle" x="64.5" y="-326.5" font-family="Helvetica,sans-Serif" font-size="10.00">Problem</text>
<polyline fill="none" stroke="black" points="20.5,-319.5 108.5,-319.5 "/>
<text text-anchor="start" x="28.5" y="-307.5" font-family="Helvetica,sans-Serif" font-size="10.00">+ n</text>
<text text-anchor="start" x="28.5" y="-296.5" font-family="Helvetica,sans-Serif" font-size="10.00">+ m</text>
<text text-anchor="start" x="28.5" y="-285.5" font-family="Helvetica,sans-Serif" font-size="10.00">+ C</text>
<text text-anchor="start" x="28.5" y="-274.5" font-family="Helvetica,sans-Serif" font-size="10.00">+ D</text>
<text text-anchor="start" x="28.5" y="-263.5" font-family="Helvetica,sans-Serif" font-size="10.00">+ f</text>
<text text-anchor="start" x="28.5" y="-252.5" font-family="Helvetica,sans-Serif" font-size="10.00">+ grad_f</text>
<text text-anchor="start" x="28.5" y="-241.5" font-family="Helvetica,sans-Serif" font-size="10.00">+ g</text>
<text text-anchor="start" x="28.5" y="-230.5" font-family="Helvetica,sans-Serif" font-size="10.00">+ grad_g_prod</text>
<text text-anchor="start" x="28.5" y="-219.5" font-family="Helvetica,sans-Serif" font-size="10.00">+ grad_gi</text>
<text text-anchor="start" x="28.5" y="-208.5" font-family="Helvetica,sans-Serif" font-size="10.00">+ hess_L_prod</text>
<text text-anchor="start" x="28.5" y="-197.5" font-family="Helvetica,sans-Serif" font-size="10.00">+ hess_L</text>
<polyline fill="none" stroke="black" points="20.5,-190.5 108.5,-190.5 "/>
<text text-anchor="start" x="28.5" y="-178.5" font-family="Helvetica,sans-Serif" font-size="10.00">+ Problem()</text>
<text text-anchor="start" x="28.5" y="-167.5" font-family="Helvetica,sans-Serif" font-size="10.00">+ Problem()</text>
<text text-anchor="start" x="28.5" y="-156.5" font-family="Helvetica,sans-Serif" font-size="10.00">+ Problem()</text>
</a>
</g>
</g>
<!-- Node2&#45;&gt;Node1 -->
<g id="edge1" class="edge">
<title>Node2&#45;&gt;Node1</title>
<path fill="none" stroke="midnightblue" d="M64.5,-139.41C64.5,-130.21 64.5,-121.15 64.5,-112.61"/>
<polygon fill="none" stroke="midnightblue" points="61,-139.43 64.5,-149.43 68,-139.43 61,-139.43"/>
</g>
</g>
</svg>
