<?xml version="1.0" encoding="UTF-8" standalone="no"?>
<!DOCTYPE svg PUBLIC "-//W3C//DTD SVG 1.1//EN"
 "http://www.w3.org/Graphics/SVG/1.1/DTD/svg11.dtd">
<!-- Generated by graphviz version 2.43.0 (0)
 -->
<!-- Title: CasADiFun_2Vi1Vo Pages: 1 -->
<svg width="166pt" height="353pt"
 viewBox="0.00 0.00 166.00 353.00" xmlns="http://www.w3.org/2000/svg" xmlns:xlink="http://www.w3.org/1999/xlink">
<g id="graph0" class="graph" transform="scale(1 1) rotate(0) translate(4 349)">
<title>CasADiFun_2Vi1Vo</title>
<polygon fill="white" stroke="transparent" points="-4,4 -4,-349 162,-349 162,4 -4,4"/>
<!-- Node1 -->
<g id="node1" class="node">
<title>Node1</title>
<g id="a_node1"><a xlink:title="Wrapper for CasADiFunctionEvaluator with 2 vector inputs, 1 vector output.">
<polygon fill="#bfbfbf" stroke="black" points="15.5,-0.5 15.5,-79.5 142.5,-79.5 142.5,-0.5 15.5,-0.5"/>
<text text-anchor="middle" x="79" y="-67.5" font-family="Helvetica,sans-Serif" font-size="10.00">CasADiFun_2Vi1Vo</text>
<polyline fill="none" stroke="black" points="15.5,-60.5 142.5,-60.5 "/>
<text text-anchor="middle" x="79" y="-48.5" font-family="Helvetica,sans-Serif" font-size="10.00"> </text>
<polyline fill="none" stroke="black" points="15.5,-41.5 142.5,-41.5 "/>
<text text-anchor="start" x="23.5" y="-29.5" font-family="Helvetica,sans-Serif" font-size="10.00">+ CasADiFun_2Vi1Vo()</text>
<text text-anchor="start" x="23.5" y="-18.5" font-family="Helvetica,sans-Serif" font-size="10.00">+ CasADiFun_2Vi1Vo()</text>
<text text-anchor="start" x="23.5" y="-7.5" font-family="Helvetica,sans-Serif" font-size="10.00">+ operator()()</text>
</a>
</g>
</g>
<!-- Node2 -->
<g id="node2" class="node">
<title>Node2</title>
<g id="a_node2"><a xlink:href="classCasADiFunctionEvaluator.html" target="_top" xlink:title=" ">
<polygon fill="white" stroke="black" points="0,-127.5 0,-239.5 158,-239.5 158,-127.5 0,-127.5"/>
<text text-anchor="start" x="8" y="-227.5" font-family="Helvetica,sans-Serif" font-size="10.00">CasADiFunctionEvaluator</text>
<text text-anchor="middle" x="79" y="-216.5" font-family="Helvetica,sans-Serif" font-size="10.00">&lt; 2, 1 &gt;</text>
<polyline fill="none" stroke="black" points="0,-209.5 158,-209.5 "/>
<text text-anchor="start" x="8" y="-197.5" font-family="Helvetica,sans-Serif" font-size="10.00">&#45; iwork</text>
<text text-anchor="start" x="8" y="-186.5" font-family="Helvetica,sans-Serif" font-size="10.00">&#45; dwork</text>
<polyline fill="none" stroke="black" points="0,-179.5 158,-179.5 "/>
<text text-anchor="start" x="8" y="-167.5" font-family="Helvetica,sans-Serif" font-size="10.00">+ CasADiFunctionEvaluator()</text>
<text text-anchor="start" x="8" y="-156.5" font-family="Helvetica,sans-Serif" font-size="10.00">+ validate_dimensions()</text>
<text text-anchor="start" x="8" y="-145.5" font-family="Helvetica,sans-Serif" font-size="10.00">+ operator()()</text>
<text text-anchor="start" x="8" y="-134.5" font-family="Helvetica,sans-Serif" font-size="10.00"># operator()()</text>
</a>
</g>
</g>
<!-- Node2&#45;&gt;Node1 -->
<g id="edge1" class="edge">
<title>Node2&#45;&gt;Node1</title>
<path fill="none" stroke="#404040" d="M79,-127.39C79,-115.65 79,-103.3 79,-91.74"/>
<polygon fill="none" stroke="#404040" points="79,-91.56 75,-85.56 79,-79.56 83,-85.56 79,-91.56"/>
<text text-anchor="middle" x="90.5" y="-101" font-family="Helvetica,sans-Serif" font-size="10.00"> &#45;fun</text>
</g>
<!-- Node3 -->
<g id="node3" class="node">
<title>Node3</title>
<g id="a_node3"><a xlink:title=" ">
<polygon fill="white" stroke="#bfbfbf" points="50,-287.5 50,-344.5 108,-344.5 108,-287.5 50,-287.5"/>
<text text-anchor="middle" x="79" y="-332.5" font-family="Helvetica,sans-Serif" font-size="10.00">Function</text>
<polyline fill="none" stroke="#bfbfbf" points="50,-325.5 108,-325.5 "/>
<text text-anchor="middle" x="79" y="-313.5" font-family="Helvetica,sans-Serif" font-size="10.00"> </text>
<polyline fill="none" stroke="#bfbfbf" points="50,-306.5 108,-306.5 "/>
<text text-anchor="middle" x="79" y="-294.5" font-family="Helvetica,sans-Serif" font-size="10.00"> </text>
</a>
</g>
</g>
<!-- Node3&#45;&gt;Node2 -->
<g id="edge2" class="edge">
<title>Node3&#45;&gt;Node2</title>
<path fill="none" stroke="#404040" d="M79,-287.32C79,-276.78 79,-264.25 79,-251.62"/>
<polygon fill="none" stroke="#404040" points="79,-251.55 75,-245.55 79,-239.55 83,-245.55 79,-251.55"/>
<text text-anchor="middle" x="93" y="-261" font-family="Helvetica,sans-Serif" font-size="10.00"> +fun</text>
</g>
</g>
</svg>
