<?xml version="1.0" encoding="UTF-8" standalone="no"?>
<!DOCTYPE svg PUBLIC "-//W3C//DTD SVG 1.1//EN"
 "http://www.w3.org/Graphics/SVG/1.1/DTD/svg11.dtd">
<!-- Generated by graphviz version 2.43.0 (0)
 -->
<!-- Title: alm.hpp Pages: 1 -->
<svg width="747pt" height="274pt"
 viewBox="0.00 0.00 746.50 274.00" xmlns="http://www.w3.org/2000/svg" xmlns:xlink="http://www.w3.org/1999/xlink">
<g id="graph0" class="graph" transform="scale(1 1) rotate(0) translate(4 270)">
<title>alm.hpp</title>
<polygon fill="white" stroke="transparent" points="-4,4 -4,-270 742.5,-270 742.5,4 -4,4"/>
<!-- Node1 -->
<g id="node1" class="node">
<title>Node1</title>
<g id="a_node1"><a xlink:title=" ">
<polygon fill="#bfbfbf" stroke="black" points="494.5,-246.5 494.5,-265.5 550.5,-265.5 550.5,-246.5 494.5,-246.5"/>
<text text-anchor="middle" x="522.5" y="-253.5" font-family="Helvetica,sans-Serif" font-size="10.00">alm.hpp</text>
</a>
</g>
</g>
<!-- Node2 -->
<g id="node2" class="node">
<title>Node2</title>
<g id="a_node2"><a xlink:href="panoc-fwd_8hpp.html" target="_top" xlink:title=" ">
<polygon fill="white" stroke="black" points="72,-179.5 72,-209.5 191,-209.5 191,-179.5 72,-179.5"/>
<text text-anchor="start" x="80" y="-197.5" font-family="Helvetica,sans-Serif" font-size="10.00">panoc&#45;alm/inner/decl</text>
<text text-anchor="middle" x="131.5" y="-186.5" font-family="Helvetica,sans-Serif" font-size="10.00">/panoc&#45;fwd.hpp</text>
</a>
</g>
</g>
<!-- Node1&#45;&gt;Node2 -->
<g id="edge1" class="edge">
<title>Node1&#45;&gt;Node2</title>
<path fill="none" stroke="midnightblue" d="M494.38,-250.72C433.58,-241.47 288.33,-219.37 201.15,-206.1"/>
<polygon fill="midnightblue" stroke="midnightblue" points="201.49,-202.61 191.08,-204.57 200.44,-209.53 201.49,-202.61"/>
</g>
<!-- Node4 -->
<g id="node4" class="node">
<title>Node4</title>
<g id="a_node4"><a xlink:href="include_2panoc-alm_2util_2problem_8hpp.html" target="_top" xlink:title=" ">
<polygon fill="white" stroke="black" points="266.5,-185 266.5,-204 418.5,-204 418.5,-185 266.5,-185"/>
<text text-anchor="middle" x="342.5" y="-192" font-family="Helvetica,sans-Serif" font-size="10.00">panoc&#45;alm/util/problem.hpp</text>
</a>
</g>
</g>
<!-- Node1&#45;&gt;Node4 -->
<g id="edge3" class="edge">
<title>Node1&#45;&gt;Node4</title>
<path fill="none" stroke="midnightblue" d="M496.71,-246.48C465.57,-236.18 413.02,-218.81 378.05,-207.25"/>
<polygon fill="midnightblue" stroke="midnightblue" points="378.84,-203.82 368.24,-204.01 376.64,-210.47 378.84,-203.82"/>
</g>
<!-- Node12 -->
<g id="node12" class="node">
<title>Node12</title>
<g id="a_node12"><a xlink:href="solverstatus_8hpp.html" target="_top" xlink:title=" ">
<polygon fill="white" stroke="black" points="437,-185 437,-204 608,-204 608,-185 437,-185"/>
<text text-anchor="middle" x="522.5" y="-192" font-family="Helvetica,sans-Serif" font-size="10.00">panoc&#45;alm/util/solverstatus.hpp</text>
</a>
</g>
</g>
<!-- Node1&#45;&gt;Node12 -->
<g id="edge11" class="edge">
<title>Node1&#45;&gt;Node12</title>
<path fill="none" stroke="midnightblue" d="M522.5,-246.48C522.5,-238.08 522.5,-224.98 522.5,-214.16"/>
<polygon fill="midnightblue" stroke="midnightblue" points="526,-214.01 522.5,-204.01 519,-214.01 526,-214.01"/>
</g>
<!-- Node14 -->
<g id="node14" class="node">
<title>Node14</title>
<g id="a_node14"><a xlink:title=" ">
<polygon fill="white" stroke="#bfbfbf" points="626.5,-185 626.5,-204 676.5,-204 676.5,-185 626.5,-185"/>
<text text-anchor="middle" x="651.5" y="-192" font-family="Helvetica,sans-Serif" font-size="10.00">chrono</text>
</a>
</g>
</g>
<!-- Node1&#45;&gt;Node14 -->
<g id="edge13" class="edge">
<title>Node1&#45;&gt;Node14</title>
<path fill="none" stroke="midnightblue" d="M540.98,-246.48C562.63,-236.49 598.71,-219.85 623.73,-208.31"/>
<polygon fill="midnightblue" stroke="midnightblue" points="625.44,-211.38 633.05,-204.01 622.51,-205.02 625.44,-211.38"/>
</g>
<!-- Node15 -->
<g id="node15" class="node">
<title>Node15</title>
<g id="a_node15"><a xlink:title=" ">
<polygon fill="white" stroke="#bfbfbf" points="694.5,-185 694.5,-204 738.5,-204 738.5,-185 694.5,-185"/>
<text text-anchor="middle" x="716.5" y="-192" font-family="Helvetica,sans-Serif" font-size="10.00">string</text>
</a>
</g>
</g>
<!-- Node1&#45;&gt;Node15 -->
<g id="edge14" class="edge">
<title>Node1&#45;&gt;Node15</title>
<path fill="none" stroke="midnightblue" d="M550.64,-248.76C583.49,-241.12 639.23,-227.07 685.5,-210 687.11,-209.41 688.75,-208.76 690.4,-208.09"/>
<polygon fill="midnightblue" stroke="midnightblue" points="691.92,-211.24 699.66,-204 689.1,-204.83 691.92,-211.24"/>
</g>
<!-- Node3 -->
<g id="node3" class="node">
<title>Node3</title>
<g id="a_node3"><a xlink:href="lbfgs-fwd_8hpp.html" target="_top" xlink:title=" ">
<polygon fill="white" stroke="black" points="0,-112.5 0,-142.5 147,-142.5 147,-112.5 0,-112.5"/>
<text text-anchor="start" x="8" y="-130.5" font-family="Helvetica,sans-Serif" font-size="10.00">panoc&#45;alm/inner/directions</text>
<text text-anchor="middle" x="73.5" y="-119.5" font-family="Helvetica,sans-Serif" font-size="10.00">/decl/lbfgs&#45;fwd.hpp</text>
</a>
</g>
</g>
<!-- Node2&#45;&gt;Node3 -->
<g id="edge2" class="edge">
<title>Node2&#45;&gt;Node3</title>
<path fill="none" stroke="midnightblue" d="M118.91,-179.4C111.31,-170.88 101.47,-159.85 92.89,-150.23"/>
<polygon fill="midnightblue" stroke="midnightblue" points="95.33,-147.71 86.06,-142.58 90.11,-152.37 95.33,-147.71"/>
</g>
<!-- Node5 -->
<g id="node5" class="node">
<title>Node5</title>
<g id="a_node5"><a xlink:href="box_8hpp.html" target="_top" xlink:title=" ">
<polygon fill="white" stroke="black" points="165.5,-118 165.5,-137 221.5,-137 221.5,-118 165.5,-118"/>
<text text-anchor="middle" x="193.5" y="-125" font-family="Helvetica,sans-Serif" font-size="10.00">box.hpp</text>
</a>
</g>
</g>
<!-- Node4&#45;&gt;Node5 -->
<g id="edge4" class="edge">
<title>Node4&#45;&gt;Node5</title>
<path fill="none" stroke="midnightblue" d="M322.71,-184.87C297.11,-173.7 252.29,-154.15 222.75,-141.26"/>
<polygon fill="midnightblue" stroke="midnightblue" points="223.93,-137.96 213.37,-137.17 221.13,-144.37 223.93,-137.96"/>
</g>
<!-- Node8 -->
<g id="node8" class="node">
<title>Node8</title>
<g id="a_node8"><a xlink:title=" ">
<polygon fill="white" stroke="#bfbfbf" points="239.5,-118 239.5,-137 291.5,-137 291.5,-118 239.5,-118"/>
<text text-anchor="middle" x="265.5" y="-125" font-family="Helvetica,sans-Serif" font-size="10.00">cassert</text>
</a>
</g>
</g>
<!-- Node4&#45;&gt;Node8 -->
<g id="edge7" class="edge">
<title>Node4&#45;&gt;Node8</title>
<path fill="none" stroke="midnightblue" d="M332.12,-184.73C319.65,-174.21 298.53,-156.38 283.41,-143.62"/>
<polygon fill="midnightblue" stroke="midnightblue" points="285.62,-140.9 275.72,-137.13 281.1,-146.25 285.62,-140.9"/>
</g>
<!-- Node9 -->
<g id="node9" class="node">
<title>Node9</title>
<g id="a_node9"><a xlink:title=" ">
<polygon fill="white" stroke="#bfbfbf" points="310,-118 310,-137 375,-137 375,-118 310,-118"/>
<text text-anchor="middle" x="342.5" y="-125" font-family="Helvetica,sans-Serif" font-size="10.00">functional</text>
</a>
</g>
</g>
<!-- Node4&#45;&gt;Node9 -->
<g id="edge8" class="edge">
<title>Node4&#45;&gt;Node9</title>
<path fill="none" stroke="midnightblue" d="M342.5,-184.73C342.5,-175.18 342.5,-159.62 342.5,-147.28"/>
<polygon fill="midnightblue" stroke="midnightblue" points="346,-147.13 342.5,-137.13 339,-147.13 346,-147.13"/>
</g>
<!-- Node10 -->
<g id="node10" class="node">
<title>Node10</title>
<g id="a_node10"><a xlink:title=" ">
<polygon fill="white" stroke="#bfbfbf" points="393.5,-118 393.5,-137 451.5,-137 451.5,-118 393.5,-118"/>
<text text-anchor="middle" x="422.5" y="-125" font-family="Helvetica,sans-Serif" font-size="10.00">memory</text>
</a>
</g>
</g>
<!-- Node4&#45;&gt;Node10 -->
<g id="edge9" class="edge">
<title>Node4&#45;&gt;Node10</title>
<path fill="none" stroke="midnightblue" d="M353.29,-184.73C366.24,-174.21 388.19,-156.38 403.89,-143.62"/>
<polygon fill="midnightblue" stroke="midnightblue" points="406.33,-146.15 411.88,-137.13 401.91,-140.72 406.33,-146.15"/>
</g>
<!-- Node11 -->
<g id="node11" class="node">
<title>Node11</title>
<g id="a_node11"><a xlink:title=" ">
<polygon fill="white" stroke="#bfbfbf" points="470,-118 470,-137 539,-137 539,-118 470,-118"/>
<text text-anchor="middle" x="504.5" y="-125" font-family="Helvetica,sans-Serif" font-size="10.00">type_traits</text>
</a>
</g>
</g>
<!-- Node4&#45;&gt;Node11 -->
<g id="edge10" class="edge">
<title>Node4&#45;&gt;Node11</title>
<path fill="none" stroke="midnightblue" d="M364.01,-184.87C392.17,-173.57 441.7,-153.7 473.8,-140.82"/>
<polygon fill="midnightblue" stroke="midnightblue" points="475.18,-144.04 483.16,-137.06 472.57,-137.54 475.18,-144.04"/>
</g>
<!-- Node6 -->
<g id="node6" class="node">
<title>Node6</title>
<g id="a_node6"><a xlink:href="vec_8hpp.html" target="_top" xlink:title=" ">
<polygon fill="white" stroke="black" points="166,-56.5 166,-75.5 221,-75.5 221,-56.5 166,-56.5"/>
<text text-anchor="middle" x="193.5" y="-63.5" font-family="Helvetica,sans-Serif" font-size="10.00">vec.hpp</text>
</a>
</g>
</g>
<!-- Node5&#45;&gt;Node6 -->
<g id="edge5" class="edge">
<title>Node5&#45;&gt;Node6</title>
<path fill="none" stroke="midnightblue" d="M193.5,-117.98C193.5,-109.58 193.5,-96.48 193.5,-85.66"/>
<polygon fill="midnightblue" stroke="midnightblue" points="197,-85.51 193.5,-75.51 190,-85.51 197,-85.51"/>
</g>
<!-- Node7 -->
<g id="node7" class="node">
<title>Node7</title>
<g id="a_node7"><a xlink:title=" ">
<polygon fill="white" stroke="#bfbfbf" points="159,-0.5 159,-19.5 228,-19.5 228,-0.5 159,-0.5"/>
<text text-anchor="middle" x="193.5" y="-7.5" font-family="Helvetica,sans-Serif" font-size="10.00">Eigen/Core</text>
</a>
</g>
</g>
<!-- Node6&#45;&gt;Node7 -->
<g id="edge6" class="edge">
<title>Node6&#45;&gt;Node7</title>
<path fill="none" stroke="midnightblue" d="M193.5,-56.08C193.5,-49.01 193.5,-38.86 193.5,-29.99"/>
<polygon fill="midnightblue" stroke="midnightblue" points="197,-29.75 193.5,-19.75 190,-29.75 197,-29.75"/>
</g>
<!-- Node13 -->
<g id="node13" class="node">
<title>Node13</title>
<g id="a_node13"><a xlink:title=" ">
<polygon fill="white" stroke="#bfbfbf" points="557.5,-118 557.5,-137 605.5,-137 605.5,-118 557.5,-118"/>
<text text-anchor="middle" x="581.5" y="-125" font-family="Helvetica,sans-Serif" font-size="10.00">iosfwd</text>
</a>
</g>
</g>
<!-- Node12&#45;&gt;Node13 -->
<g id="edge12" class="edge">
<title>Node12&#45;&gt;Node13</title>
<path fill="none" stroke="midnightblue" d="M530.46,-184.73C539.75,-174.5 555.3,-157.36 566.8,-144.69"/>
<polygon fill="midnightblue" stroke="midnightblue" points="569.54,-146.88 573.67,-137.13 564.36,-142.18 569.54,-146.88"/>
</g>
</g>
</svg>
