<?xml version="1.0" encoding="UTF-8" standalone="no"?>
<!DOCTYPE svg PUBLIC "-//W3C//DTD SVG 1.1//EN"
 "http://www.w3.org/Graphics/SVG/1.1/DTD/svg11.dtd">
<!-- Generated by graphviz version 2.43.0 (0)
 -->
<!-- Title: structured&#45;panoc&#45;lbfgs.hpp Pages: 1 -->
<svg width="1439pt" height="330pt"
 viewBox="0.00 0.00 1438.50 330.00" xmlns="http://www.w3.org/2000/svg" xmlns:xlink="http://www.w3.org/1999/xlink">
<g id="graph0" class="graph" transform="scale(1 1) rotate(0) translate(4 326)">
<title>structured&#45;panoc&#45;lbfgs.hpp</title>
<polygon fill="white" stroke="transparent" points="-4,4 -4,-326 1434.5,-326 1434.5,4 -4,4"/>
<!-- Node1 -->
<g id="node1" class="node">
<title>Node1</title>
<g id="a_node1"><a xlink:title=" ">
<polygon fill="#bfbfbf" stroke="black" points="778.5,-302.5 778.5,-321.5 926.5,-321.5 926.5,-302.5 778.5,-302.5"/>
<text text-anchor="middle" x="852.5" y="-309.5" font-family="Helvetica,sans-Serif" font-size="10.00">structured&#45;panoc&#45;lbfgs.hpp</text>
</a>
</g>
</g>
<!-- Node2 -->
<g id="node2" class="node">
<title>Node2</title>
<g id="a_node2"><a xlink:href="lbfgs-stepsize_8hpp.html" target="_top" xlink:title=" ">
<polygon fill="white" stroke="black" points="0,-235.5 0,-265.5 119,-265.5 119,-235.5 0,-235.5"/>
<text text-anchor="start" x="8" y="-253.5" font-family="Helvetica,sans-Serif" font-size="10.00">panoc&#45;alm/inner/decl</text>
<text text-anchor="middle" x="59.5" y="-242.5" font-family="Helvetica,sans-Serif" font-size="10.00">/lbfgs&#45;stepsize.hpp</text>
</a>
</g>
</g>
<!-- Node1&#45;&gt;Node2 -->
<g id="edge1" class="edge">
<title>Node1&#45;&gt;Node2</title>
<path fill="none" stroke="midnightblue" d="M778.3,-310.01C648.45,-307.49 371.51,-298.59 129.17,-266.1"/>
<polygon fill="midnightblue" stroke="midnightblue" points="129.5,-262.61 119.12,-264.73 128.55,-269.55 129.5,-262.61"/>
</g>
<!-- Node3 -->
<g id="node3" class="node">
<title>Node3</title>
<g id="a_node3"><a xlink:href="panoc-fwd_8hpp.html" target="_top" xlink:title=" ">
<polygon fill="white" stroke="black" points="137,-235.5 137,-265.5 256,-265.5 256,-235.5 137,-235.5"/>
<text text-anchor="start" x="145" y="-253.5" font-family="Helvetica,sans-Serif" font-size="10.00">panoc&#45;alm/inner/decl</text>
<text text-anchor="middle" x="196.5" y="-242.5" font-family="Helvetica,sans-Serif" font-size="10.00">/panoc&#45;fwd.hpp</text>
</a>
</g>
</g>
<!-- Node1&#45;&gt;Node3 -->
<g id="edge2" class="edge">
<title>Node1&#45;&gt;Node3</title>
<path fill="none" stroke="midnightblue" d="M778.36,-308.51C668.47,-304.11 455.81,-292.89 266.27,-266.14"/>
<polygon fill="midnightblue" stroke="midnightblue" points="266.52,-262.64 256.12,-264.69 265.53,-269.57 266.52,-262.64"/>
</g>
<!-- Node5 -->
<g id="node5" class="node">
<title>Node5</title>
<g id="a_node5"><a xlink:href="panoc-stop-crit_8hpp.html" target="_top" xlink:title=" ">
<polygon fill="white" stroke="black" points="749,-235.5 749,-265.5 868,-265.5 868,-235.5 749,-235.5"/>
<text text-anchor="start" x="757" y="-253.5" font-family="Helvetica,sans-Serif" font-size="10.00">panoc&#45;alm/inner/decl</text>
<text text-anchor="middle" x="808.5" y="-242.5" font-family="Helvetica,sans-Serif" font-size="10.00">/panoc&#45;stop&#45;crit.hpp</text>
</a>
</g>
</g>
<!-- Node1&#45;&gt;Node5 -->
<g id="edge4" class="edge">
<title>Node1&#45;&gt;Node5</title>
<path fill="none" stroke="midnightblue" d="M846.2,-302.48C840.63,-294.94 832.26,-283.63 824.82,-273.57"/>
<polygon fill="midnightblue" stroke="midnightblue" points="827.63,-271.48 818.87,-265.52 822,-275.64 827.63,-271.48"/>
</g>
<!-- Node8 -->
<g id="node8" class="node">
<title>Node8</title>
<g id="a_node8"><a xlink:href="decl_2lbfgs_8hpp.html" target="_top" xlink:title=" ">
<polygon fill="white" stroke="black" points="274,-235.5 274,-265.5 421,-265.5 421,-235.5 274,-235.5"/>
<text text-anchor="start" x="282" y="-253.5" font-family="Helvetica,sans-Serif" font-size="10.00">panoc&#45;alm/inner/directions</text>
<text text-anchor="middle" x="347.5" y="-242.5" font-family="Helvetica,sans-Serif" font-size="10.00">/decl/lbfgs.hpp</text>
</a>
</g>
</g>
<!-- Node1&#45;&gt;Node8 -->
<g id="edge7" class="edge">
<title>Node1&#45;&gt;Node8</title>
<path fill="none" stroke="midnightblue" d="M778.24,-302.72C699.56,-293.89 571.73,-279.35 461.5,-266 451.7,-264.81 441.42,-263.54 431.22,-262.26"/>
<polygon fill="midnightblue" stroke="midnightblue" points="431.43,-258.76 421.07,-260.99 430.56,-265.71 431.43,-258.76"/>
</g>
<!-- Node13 -->
<g id="node13" class="node">
<title>Node13</title>
<g id="a_node13"><a xlink:href="atomic__stop__signal_8hpp.html" target="_top" xlink:title=" ">
<polygon fill="white" stroke="black" points="924.5,-235.5 924.5,-265.5 1048.5,-265.5 1048.5,-235.5 924.5,-235.5"/>
<text text-anchor="start" x="932.5" y="-253.5" font-family="Helvetica,sans-Serif" font-size="10.00">panoc&#45;alm/util/atomic</text>
<text text-anchor="middle" x="986.5" y="-242.5" font-family="Helvetica,sans-Serif" font-size="10.00">_stop_signal.hpp</text>
</a>
</g>
</g>
<!-- Node1&#45;&gt;Node13 -->
<g id="edge15" class="edge">
<title>Node1&#45;&gt;Node13</title>
<path fill="none" stroke="midnightblue" d="M871.7,-302.48C890.87,-293.96 920.92,-280.62 945.47,-269.72"/>
<polygon fill="midnightblue" stroke="midnightblue" points="947.2,-272.78 954.92,-265.52 944.36,-266.38 947.2,-272.78"/>
</g>
<!-- Node14 -->
<g id="node14" class="node">
<title>Node14</title>
<g id="a_node14"><a xlink:title=" ">
<polygon fill="white" stroke="#bfbfbf" points="1018.5,-174 1018.5,-193 1068.5,-193 1068.5,-174 1018.5,-174"/>
<text text-anchor="middle" x="1043.5" y="-181" font-family="Helvetica,sans-Serif" font-size="10.00">atomic</text>
</a>
</g>
</g>
<!-- Node1&#45;&gt;Node14 -->
<g id="edge27" class="edge">
<title>Node1&#45;&gt;Node14</title>
<path fill="none" stroke="midnightblue" d="M857.63,-302.23C867.15,-286.65 889.04,-253.98 915.5,-235 951.85,-208.93 968.03,-215.78 1009.5,-199 1011.1,-198.35 1012.73,-197.69 1014.38,-197"/>
<polygon fill="midnightblue" stroke="midnightblue" points="1015.91,-200.16 1023.78,-193.06 1013.2,-193.7 1015.91,-200.16"/>
</g>
<!-- Node15 -->
<g id="node15" class="node">
<title>Node15</title>
<g id="a_node15"><a xlink:href="lipschitz_8hpp.html" target="_top" xlink:title=" ">
<polygon fill="white" stroke="black" points="404.5,-112.5 404.5,-131.5 556.5,-131.5 556.5,-112.5 404.5,-112.5"/>
<text text-anchor="middle" x="480.5" y="-119.5" font-family="Helvetica,sans-Serif" font-size="10.00">panoc&#45;alm/util/lipschitz.hpp</text>
</a>
</g>
</g>
<!-- Node1&#45;&gt;Node15 -->
<g id="edge17" class="edge">
<title>Node1&#45;&gt;Node15</title>
<path fill="none" stroke="midnightblue" d="M778.29,-306.16C706.2,-300.23 602.87,-288.14 569.5,-266 523.51,-235.48 496.96,-172.23 486.18,-141.1"/>
<polygon fill="midnightblue" stroke="midnightblue" points="489.48,-139.94 483.02,-131.54 482.83,-142.13 489.48,-139.94"/>
</g>
<!-- Node16 -->
<g id="node16" class="node">
<title>Node16</title>
<g id="a_node16"><a xlink:href="include_2panoc-alm_2util_2problem_8hpp.html" target="_top" xlink:title=" ">
<polygon fill="white" stroke="black" points="578.5,-241 578.5,-260 730.5,-260 730.5,-241 578.5,-241"/>
<text text-anchor="middle" x="654.5" y="-248" font-family="Helvetica,sans-Serif" font-size="10.00">panoc&#45;alm/util/problem.hpp</text>
</a>
</g>
</g>
<!-- Node1&#45;&gt;Node16 -->
<g id="edge19" class="edge">
<title>Node1&#45;&gt;Node16</title>
<path fill="none" stroke="midnightblue" d="M824.13,-302.48C789.58,-292.09 731.08,-274.51 692.62,-262.95"/>
<polygon fill="midnightblue" stroke="midnightblue" points="693.4,-259.54 682.82,-260.01 691.39,-266.24 693.4,-259.54"/>
</g>
<!-- Node21 -->
<g id="node21" class="node">
<title>Node21</title>
<g id="a_node21"><a xlink:href="solverstatus_8hpp.html" target="_top" xlink:title=" ">
<polygon fill="white" stroke="black" points="1067,-241 1067,-260 1238,-260 1238,-241 1067,-241"/>
<text text-anchor="middle" x="1152.5" y="-248" font-family="Helvetica,sans-Serif" font-size="10.00">panoc&#45;alm/util/solverstatus.hpp</text>
</a>
</g>
</g>
<!-- Node1&#45;&gt;Node21 -->
<g id="edge25" class="edge">
<title>Node1&#45;&gt;Node21</title>
<path fill="none" stroke="midnightblue" d="M895.48,-302.48C949.28,-291.8 1041.41,-273.53 1099.51,-262.01"/>
<polygon fill="midnightblue" stroke="midnightblue" points="1100.47,-265.39 1109.6,-260.01 1099.11,-258.52 1100.47,-265.39"/>
</g>
<!-- Node23 -->
<g id="node23" class="node">
<title>Node23</title>
<g id="a_node23"><a xlink:title=" ">
<polygon fill="white" stroke="#bfbfbf" points="1256.5,-241 1256.5,-260 1306.5,-260 1306.5,-241 1256.5,-241"/>
<text text-anchor="middle" x="1281.5" y="-248" font-family="Helvetica,sans-Serif" font-size="10.00">chrono</text>
</a>
</g>
</g>
<!-- Node1&#45;&gt;Node23 -->
<g id="edge28" class="edge">
<title>Node1&#45;&gt;Node23</title>
<path fill="none" stroke="midnightblue" d="M926.84,-308.93C1007.13,-305.22 1138.23,-294.87 1247.5,-266 1249.86,-265.38 1252.26,-264.62 1254.65,-263.78"/>
<polygon fill="midnightblue" stroke="midnightblue" points="1256.17,-266.94 1264.2,-260.02 1253.61,-260.43 1256.17,-266.94"/>
</g>
<!-- Node24 -->
<g id="node24" class="node">
<title>Node24</title>
<g id="a_node24"><a xlink:title=" ">
<polygon fill="white" stroke="#bfbfbf" points="1324.5,-241 1324.5,-260 1368.5,-260 1368.5,-241 1324.5,-241"/>
<text text-anchor="middle" x="1346.5" y="-248" font-family="Helvetica,sans-Serif" font-size="10.00">limits</text>
</a>
</g>
</g>
<!-- Node1&#45;&gt;Node24 -->
<g id="edge29" class="edge">
<title>Node1&#45;&gt;Node24</title>
<path fill="none" stroke="midnightblue" d="M926.87,-311.48C1019.52,-310.34 1181.91,-302.57 1315.5,-266 1317.43,-265.47 1319.4,-264.83 1321.35,-264.11"/>
<polygon fill="midnightblue" stroke="midnightblue" points="1322.97,-267.23 1330.81,-260.1 1320.23,-260.78 1322.97,-267.23"/>
</g>
<!-- Node25 -->
<g id="node25" class="node">
<title>Node25</title>
<g id="a_node25"><a xlink:title=" ">
<polygon fill="white" stroke="#bfbfbf" points="1386.5,-241 1386.5,-260 1430.5,-260 1430.5,-241 1386.5,-241"/>
<text text-anchor="middle" x="1408.5" y="-248" font-family="Helvetica,sans-Serif" font-size="10.00">string</text>
</a>
</g>
</g>
<!-- Node1&#45;&gt;Node25 -->
<g id="edge30" class="edge">
<title>Node1&#45;&gt;Node25</title>
<path fill="none" stroke="midnightblue" d="M926.86,-307.84C1050.88,-302.04 1294.54,-288.2 1377.5,-266 1379.44,-265.48 1381.4,-264.85 1383.35,-264.14"/>
<polygon fill="midnightblue" stroke="midnightblue" points="1384.97,-267.26 1392.82,-260.14 1382.24,-260.81 1384.97,-267.26"/>
</g>
<!-- Node4 -->
<g id="node4" class="node">
<title>Node4</title>
<g id="a_node4"><a xlink:href="lbfgs-fwd_8hpp.html" target="_top" xlink:title=" ">
<polygon fill="white" stroke="black" points="30,-168.5 30,-198.5 177,-198.5 177,-168.5 30,-168.5"/>
<text text-anchor="start" x="38" y="-186.5" font-family="Helvetica,sans-Serif" font-size="10.00">panoc&#45;alm/inner/directions</text>
<text text-anchor="middle" x="103.5" y="-175.5" font-family="Helvetica,sans-Serif" font-size="10.00">/decl/lbfgs&#45;fwd.hpp</text>
</a>
</g>
</g>
<!-- Node3&#45;&gt;Node4 -->
<g id="edge3" class="edge">
<title>Node3&#45;&gt;Node4</title>
<path fill="none" stroke="midnightblue" d="M176.32,-235.4C163.4,-226.37 146.44,-214.51 132.14,-204.52"/>
<polygon fill="midnightblue" stroke="midnightblue" points="133.84,-201.44 123.64,-198.58 129.83,-207.17 133.84,-201.44"/>
</g>
<!-- Node6 -->
<g id="node6" class="node">
<title>Node6</title>
<g id="a_node6"><a xlink:title=" ">
<polygon fill="white" stroke="#bfbfbf" points="860,-174 860,-193 917,-193 917,-174 860,-174"/>
<text text-anchor="middle" x="888.5" y="-181" font-family="Helvetica,sans-Serif" font-size="10.00">ostream</text>
</a>
</g>
</g>
<!-- Node5&#45;&gt;Node6 -->
<g id="edge5" class="edge">
<title>Node5&#45;&gt;Node6</title>
<path fill="none" stroke="midnightblue" d="M825.86,-235.4C838.83,-224.86 856.53,-210.48 869.81,-199.69"/>
<polygon fill="midnightblue" stroke="midnightblue" points="872.24,-202.22 877.8,-193.19 867.83,-196.78 872.24,-202.22"/>
</g>
<!-- Node7 -->
<g id="node7" class="node">
<title>Node7</title>
<g id="a_node7"><a xlink:title=" ">
<polygon fill="white" stroke="#bfbfbf" points="935,-174 935,-193 1000,-193 1000,-174 935,-174"/>
<text text-anchor="middle" x="967.5" y="-181" font-family="Helvetica,sans-Serif" font-size="10.00">stdexcept</text>
</a>
</g>
</g>
<!-- Node5&#45;&gt;Node7 -->
<g id="edge6" class="edge">
<title>Node5&#45;&gt;Node7</title>
<path fill="none" stroke="midnightblue" d="M843,-235.4C871.15,-223.89 910.51,-207.8 937.39,-196.81"/>
<polygon fill="midnightblue" stroke="midnightblue" points="938.76,-200.03 946.69,-193.01 936.11,-193.55 938.76,-200.03"/>
</g>
<!-- Node8&#45;&gt;Node4 -->
<g id="edge12" class="edge">
<title>Node8&#45;&gt;Node4</title>
<path fill="none" stroke="midnightblue" d="M294.86,-235.48C257.14,-225.43 206.19,-211.86 166.35,-201.24"/>
<polygon fill="midnightblue" stroke="midnightblue" points="167.03,-197.8 156.47,-198.61 165.23,-204.57 167.03,-197.8"/>
</g>
<!-- Node9 -->
<g id="node9" class="node">
<title>Node9</title>
<g id="a_node9"><a xlink:href="box_8hpp.html" target="_top" xlink:title=" ">
<polygon fill="white" stroke="black" points="257,-112.5 257,-131.5 386,-131.5 386,-112.5 257,-112.5"/>
<text text-anchor="middle" x="321.5" y="-119.5" font-family="Helvetica,sans-Serif" font-size="10.00">panoc&#45;alm/util/box.hpp</text>
</a>
</g>
</g>
<!-- Node8&#45;&gt;Node9 -->
<g id="edge8" class="edge">
<title>Node8&#45;&gt;Node9</title>
<path fill="none" stroke="midnightblue" d="M379.65,-235.34C394.33,-227.03 410.25,-215 418.5,-199 424.82,-186.76 425.91,-179.61 418.5,-168 408.3,-152.03 390.81,-141.64 373.46,-134.92"/>
<polygon fill="midnightblue" stroke="midnightblue" points="374.48,-131.56 363.89,-131.55 372.16,-138.17 374.48,-131.56"/>
</g>
<!-- Node10 -->
<g id="node10" class="node">
<title>Node10</title>
<g id="a_node10"><a xlink:href="vec_8hpp.html" target="_top" xlink:title=" ">
<polygon fill="white" stroke="black" points="294,-56.5 294,-75.5 349,-75.5 349,-56.5 294,-56.5"/>
<text text-anchor="middle" x="321.5" y="-63.5" font-family="Helvetica,sans-Serif" font-size="10.00">vec.hpp</text>
</a>
</g>
</g>
<!-- Node8&#45;&gt;Node10 -->
<g id="edge11" class="edge">
<title>Node8&#45;&gt;Node10</title>
<path fill="none" stroke="midnightblue" d="M274.08,-235.48C254.38,-228.01 235.3,-216.55 223.5,-199 201.12,-165.72 221.21,-142.3 247.5,-112 259.3,-98.4 276.26,-87.67 290.96,-80.11"/>
<polygon fill="midnightblue" stroke="midnightblue" points="292.76,-83.13 300.22,-75.6 289.7,-76.83 292.76,-83.13"/>
</g>
<!-- Node12 -->
<g id="node12" class="node">
<title>Node12</title>
<g id="a_node12"><a xlink:href="panoc-direction-update_8hpp.html" target="_top" xlink:title=" ">
<polygon fill="white" stroke="black" points="233,-168.5 233,-198.5 410,-198.5 410,-168.5 233,-168.5"/>
<text text-anchor="start" x="241" y="-186.5" font-family="Helvetica,sans-Serif" font-size="10.00">panoc&#45;alm/inner/directions</text>
<text text-anchor="middle" x="321.5" y="-175.5" font-family="Helvetica,sans-Serif" font-size="10.00">/decl/panoc&#45;direction&#45;update.hpp</text>
</a>
</g>
</g>
<!-- Node8&#45;&gt;Node12 -->
<g id="edge13" class="edge">
<title>Node8&#45;&gt;Node12</title>
<path fill="none" stroke="midnightblue" d="M341.86,-235.4C338.66,-227.39 334.56,-217.16 330.89,-207.98"/>
<polygon fill="midnightblue" stroke="midnightblue" points="334.09,-206.56 327.13,-198.58 327.59,-209.16 334.09,-206.56"/>
</g>
<!-- Node9&#45;&gt;Node10 -->
<g id="edge9" class="edge">
<title>Node9&#45;&gt;Node10</title>
<path fill="none" stroke="midnightblue" d="M321.5,-112.08C321.5,-105.01 321.5,-94.86 321.5,-85.99"/>
<polygon fill="midnightblue" stroke="midnightblue" points="325,-85.75 321.5,-75.75 318,-85.75 325,-85.75"/>
</g>
<!-- Node11 -->
<g id="node11" class="node">
<title>Node11</title>
<g id="a_node11"><a xlink:title=" ">
<polygon fill="white" stroke="#bfbfbf" points="287,-0.5 287,-19.5 356,-19.5 356,-0.5 287,-0.5"/>
<text text-anchor="middle" x="321.5" y="-7.5" font-family="Helvetica,sans-Serif" font-size="10.00">Eigen/Core</text>
</a>
</g>
</g>
<!-- Node10&#45;&gt;Node11 -->
<g id="edge10" class="edge">
<title>Node10&#45;&gt;Node11</title>
<path fill="none" stroke="midnightblue" d="M321.5,-56.08C321.5,-49.01 321.5,-38.86 321.5,-29.99"/>
<polygon fill="midnightblue" stroke="midnightblue" points="325,-29.75 321.5,-19.75 318,-29.75 325,-29.75"/>
</g>
<!-- Node12&#45;&gt;Node9 -->
<g id="edge14" class="edge">
<title>Node12&#45;&gt;Node9</title>
<path fill="none" stroke="midnightblue" d="M321.5,-168.4C321.5,-160.47 321.5,-150.46 321.5,-141.86"/>
<polygon fill="midnightblue" stroke="midnightblue" points="325,-141.66 321.5,-131.66 318,-141.66 325,-141.66"/>
</g>
<!-- Node13&#45;&gt;Node14 -->
<g id="edge16" class="edge">
<title>Node13&#45;&gt;Node14</title>
<path fill="none" stroke="midnightblue" d="M998.87,-235.4C1007.76,-225.26 1019.76,-211.57 1029.09,-200.94"/>
<polygon fill="midnightblue" stroke="midnightblue" points="1031.91,-203.02 1035.88,-193.19 1026.65,-198.41 1031.91,-203.02"/>
</g>
<!-- Node15&#45;&gt;Node10 -->
<g id="edge18" class="edge">
<title>Node15&#45;&gt;Node10</title>
<path fill="none" stroke="midnightblue" d="M455.31,-112.44C428.56,-103.36 386.1,-88.94 356.19,-78.78"/>
<polygon fill="midnightblue" stroke="midnightblue" points="357.17,-75.42 346.58,-75.52 354.92,-82.05 357.17,-75.42"/>
</g>
<!-- Node16&#45;&gt;Node9 -->
<g id="edge20" class="edge">
<title>Node16&#45;&gt;Node9</title>
<path fill="none" stroke="midnightblue" d="M631.87,-240.9C574.09,-218.95 420.92,-160.77 353.79,-135.27"/>
<polygon fill="midnightblue" stroke="midnightblue" points="354.75,-131.89 344.16,-131.61 352.26,-138.43 354.75,-131.89"/>
</g>
<!-- Node17 -->
<g id="node17" class="node">
<title>Node17</title>
<g id="a_node17"><a xlink:title=" ">
<polygon fill="white" stroke="#bfbfbf" points="789.5,-174 789.5,-193 841.5,-193 841.5,-174 789.5,-174"/>
<text text-anchor="middle" x="815.5" y="-181" font-family="Helvetica,sans-Serif" font-size="10.00">cassert</text>
</a>
</g>
</g>
<!-- Node16&#45;&gt;Node17 -->
<g id="edge21" class="edge">
<title>Node16&#45;&gt;Node17</title>
<path fill="none" stroke="midnightblue" d="M675.88,-240.87C703.86,-229.57 753.09,-209.7 784.99,-196.82"/>
<polygon fill="midnightblue" stroke="midnightblue" points="786.33,-200.05 794.29,-193.06 783.71,-193.56 786.33,-200.05"/>
</g>
<!-- Node18 -->
<g id="node18" class="node">
<title>Node18</title>
<g id="a_node18"><a xlink:title=" ">
<polygon fill="white" stroke="#bfbfbf" points="542,-174 542,-193 607,-193 607,-174 542,-174"/>
<text text-anchor="middle" x="574.5" y="-181" font-family="Helvetica,sans-Serif" font-size="10.00">functional</text>
</a>
</g>
</g>
<!-- Node16&#45;&gt;Node18 -->
<g id="edge22" class="edge">
<title>Node16&#45;&gt;Node18</title>
<path fill="none" stroke="midnightblue" d="M643.71,-240.73C630.76,-230.21 608.81,-212.38 593.11,-199.62"/>
<polygon fill="midnightblue" stroke="midnightblue" points="595.09,-196.72 585.12,-193.13 590.67,-202.15 595.09,-196.72"/>
</g>
<!-- Node19 -->
<g id="node19" class="node">
<title>Node19</title>
<g id="a_node19"><a xlink:title=" ">
<polygon fill="white" stroke="#bfbfbf" points="625.5,-174 625.5,-193 683.5,-193 683.5,-174 625.5,-174"/>
<text text-anchor="middle" x="654.5" y="-181" font-family="Helvetica,sans-Serif" font-size="10.00">memory</text>
</a>
</g>
</g>
<!-- Node16&#45;&gt;Node19 -->
<g id="edge23" class="edge">
<title>Node16&#45;&gt;Node19</title>
<path fill="none" stroke="midnightblue" d="M654.5,-240.73C654.5,-231.18 654.5,-215.62 654.5,-203.28"/>
<polygon fill="midnightblue" stroke="midnightblue" points="658,-203.13 654.5,-193.13 651,-203.13 658,-203.13"/>
</g>
<!-- Node20 -->
<g id="node20" class="node">
<title>Node20</title>
<g id="a_node20"><a xlink:title=" ">
<polygon fill="white" stroke="#bfbfbf" points="702,-174 702,-193 771,-193 771,-174 702,-174"/>
<text text-anchor="middle" x="736.5" y="-181" font-family="Helvetica,sans-Serif" font-size="10.00">type_traits</text>
</a>
</g>
</g>
<!-- Node16&#45;&gt;Node20 -->
<g id="edge24" class="edge">
<title>Node16&#45;&gt;Node20</title>
<path fill="none" stroke="midnightblue" d="M665.56,-240.73C678.84,-230.21 701.33,-212.38 717.43,-199.62"/>
<polygon fill="midnightblue" stroke="midnightblue" points="719.95,-202.08 725.62,-193.13 715.61,-196.6 719.95,-202.08"/>
</g>
<!-- Node22 -->
<g id="node22" class="node">
<title>Node22</title>
<g id="a_node22"><a xlink:title=" ">
<polygon fill="white" stroke="#bfbfbf" points="1128.5,-174 1128.5,-193 1176.5,-193 1176.5,-174 1128.5,-174"/>
<text text-anchor="middle" x="1152.5" y="-181" font-family="Helvetica,sans-Serif" font-size="10.00">iosfwd</text>
</a>
</g>
</g>
<!-- Node21&#45;&gt;Node22 -->
<g id="edge26" class="edge">
<title>Node21&#45;&gt;Node22</title>
<path fill="none" stroke="midnightblue" d="M1152.5,-240.73C1152.5,-231.18 1152.5,-215.62 1152.5,-203.28"/>
<polygon fill="midnightblue" stroke="midnightblue" points="1156,-203.13 1152.5,-193.13 1149,-203.13 1156,-203.13"/>
</g>
</g>
</svg>
