<?xml version="1.0" encoding="UTF-8" standalone="no"?>
<!DOCTYPE svg PUBLIC "-//W3C//DTD SVG 1.1//EN"
 "http://www.w3.org/Graphics/SVG/1.1/DTD/svg11.dtd">
<!-- Generated by graphviz version 2.43.0 (0)
 -->
<!-- Title: himmelblau.hpp Pages: 1 -->
<svg width="388pt" height="252pt"
 viewBox="0.00 0.00 388.00 252.00" xmlns="http://www.w3.org/2000/svg" xmlns:xlink="http://www.w3.org/1999/xlink">
<g id="graph0" class="graph" transform="scale(1 1) rotate(0) translate(4 248)">
<title>himmelblau.hpp</title>
<polygon fill="white" stroke="transparent" points="-4,4 -4,-248 384,-248 384,4 -4,4"/>
<!-- Node1 -->
<g id="node1" class="node">
<title>Node1</title>
<g id="a_node1"><a xlink:title=" ">
<polygon fill="#bfbfbf" stroke="black" points="135.5,-224.5 135.5,-243.5 231.5,-243.5 231.5,-224.5 135.5,-224.5"/>
<text text-anchor="middle" x="183.5" y="-231.5" font-family="Helvetica,sans-Serif" font-size="10.00">himmelblau.hpp</text>
</a>
</g>
</g>
<!-- Node2 -->
<g id="node2" class="node">
<title>Node2</title>
<g id="a_node2"><a xlink:href="include_2panoc-alm_2util_2problem_8hpp.html" target="_top" xlink:title=" ">
<polygon fill="white" stroke="black" points="107.5,-168.5 107.5,-187.5 259.5,-187.5 259.5,-168.5 107.5,-168.5"/>
<text text-anchor="middle" x="183.5" y="-175.5" font-family="Helvetica,sans-Serif" font-size="10.00">panoc&#45;alm/util/problem.hpp</text>
</a>
</g>
</g>
<!-- Node1&#45;&gt;Node2 -->
<g id="edge1" class="edge">
<title>Node1&#45;&gt;Node2</title>
<path fill="none" stroke="midnightblue" d="M183.5,-224.08C183.5,-217.01 183.5,-206.86 183.5,-197.99"/>
<polygon fill="midnightblue" stroke="midnightblue" points="187,-197.75 183.5,-187.75 180,-197.75 187,-197.75"/>
</g>
<!-- Node3 -->
<g id="node3" class="node">
<title>Node3</title>
<g id="a_node3"><a xlink:href="box_8hpp.html" target="_top" xlink:title=" ">
<polygon fill="white" stroke="black" points="6.5,-112.5 6.5,-131.5 62.5,-131.5 62.5,-112.5 6.5,-112.5"/>
<text text-anchor="middle" x="34.5" y="-119.5" font-family="Helvetica,sans-Serif" font-size="10.00">box.hpp</text>
</a>
</g>
</g>
<!-- Node2&#45;&gt;Node3 -->
<g id="edge2" class="edge">
<title>Node2&#45;&gt;Node3</title>
<path fill="none" stroke="midnightblue" d="M159.89,-168.44C135.04,-159.44 95.73,-145.19 67.75,-135.05"/>
<polygon fill="midnightblue" stroke="midnightblue" points="68.59,-131.63 58,-131.52 66.21,-138.21 68.59,-131.63"/>
</g>
<!-- Node6 -->
<g id="node6" class="node">
<title>Node6</title>
<g id="a_node6"><a xlink:title=" ">
<polygon fill="white" stroke="#bfbfbf" points="80.5,-112.5 80.5,-131.5 132.5,-131.5 132.5,-112.5 80.5,-112.5"/>
<text text-anchor="middle" x="106.5" y="-119.5" font-family="Helvetica,sans-Serif" font-size="10.00">cassert</text>
</a>
</g>
</g>
<!-- Node2&#45;&gt;Node6 -->
<g id="edge5" class="edge">
<title>Node2&#45;&gt;Node6</title>
<path fill="none" stroke="midnightblue" d="M171.13,-168.32C159.34,-160.06 141.37,-147.45 127.36,-137.63"/>
<polygon fill="midnightblue" stroke="midnightblue" points="129.04,-134.53 118.84,-131.65 125.02,-140.26 129.04,-134.53"/>
</g>
<!-- Node7 -->
<g id="node7" class="node">
<title>Node7</title>
<g id="a_node7"><a xlink:title=" ">
<polygon fill="white" stroke="#bfbfbf" points="151,-112.5 151,-131.5 216,-131.5 216,-112.5 151,-112.5"/>
<text text-anchor="middle" x="183.5" y="-119.5" font-family="Helvetica,sans-Serif" font-size="10.00">functional</text>
</a>
</g>
</g>
<!-- Node2&#45;&gt;Node7 -->
<g id="edge6" class="edge">
<title>Node2&#45;&gt;Node7</title>
<path fill="none" stroke="midnightblue" d="M183.5,-168.08C183.5,-161.01 183.5,-150.86 183.5,-141.99"/>
<polygon fill="midnightblue" stroke="midnightblue" points="187,-141.75 183.5,-131.75 180,-141.75 187,-141.75"/>
</g>
<!-- Node8 -->
<g id="node8" class="node">
<title>Node8</title>
<g id="a_node8"><a xlink:title=" ">
<polygon fill="white" stroke="#bfbfbf" points="234.5,-112.5 234.5,-131.5 292.5,-131.5 292.5,-112.5 234.5,-112.5"/>
<text text-anchor="middle" x="263.5" y="-119.5" font-family="Helvetica,sans-Serif" font-size="10.00">memory</text>
</a>
</g>
</g>
<!-- Node2&#45;&gt;Node8 -->
<g id="edge7" class="edge">
<title>Node2&#45;&gt;Node8</title>
<path fill="none" stroke="midnightblue" d="M196.35,-168.32C208.72,-159.98 227.63,-147.21 242.24,-137.35"/>
<polygon fill="midnightblue" stroke="midnightblue" points="244.35,-140.15 250.68,-131.65 240.43,-134.35 244.35,-140.15"/>
</g>
<!-- Node9 -->
<g id="node9" class="node">
<title>Node9</title>
<g id="a_node9"><a xlink:title=" ">
<polygon fill="white" stroke="#bfbfbf" points="311,-112.5 311,-131.5 380,-131.5 380,-112.5 311,-112.5"/>
<text text-anchor="middle" x="345.5" y="-119.5" font-family="Helvetica,sans-Serif" font-size="10.00">type_traits</text>
</a>
</g>
</g>
<!-- Node2&#45;&gt;Node9 -->
<g id="edge8" class="edge">
<title>Node2&#45;&gt;Node9</title>
<path fill="none" stroke="midnightblue" d="M209.17,-168.44C236.42,-159.36 279.68,-144.94 310.15,-134.78"/>
<polygon fill="midnightblue" stroke="midnightblue" points="311.57,-138 319.95,-131.52 309.36,-131.36 311.57,-138"/>
</g>
<!-- Node4 -->
<g id="node4" class="node">
<title>Node4</title>
<g id="a_node4"><a xlink:href="vec_8hpp.html" target="_top" xlink:title=" ">
<polygon fill="white" stroke="black" points="7,-56.5 7,-75.5 62,-75.5 62,-56.5 7,-56.5"/>
<text text-anchor="middle" x="34.5" y="-63.5" font-family="Helvetica,sans-Serif" font-size="10.00">vec.hpp</text>
</a>
</g>
</g>
<!-- Node3&#45;&gt;Node4 -->
<g id="edge3" class="edge">
<title>Node3&#45;&gt;Node4</title>
<path fill="none" stroke="midnightblue" d="M34.5,-112.08C34.5,-105.01 34.5,-94.86 34.5,-85.99"/>
<polygon fill="midnightblue" stroke="midnightblue" points="38,-85.75 34.5,-75.75 31,-85.75 38,-85.75"/>
</g>
<!-- Node5 -->
<g id="node5" class="node">
<title>Node5</title>
<g id="a_node5"><a xlink:title=" ">
<polygon fill="white" stroke="#bfbfbf" points="0,-0.5 0,-19.5 69,-19.5 69,-0.5 0,-0.5"/>
<text text-anchor="middle" x="34.5" y="-7.5" font-family="Helvetica,sans-Serif" font-size="10.00">Eigen/Core</text>
</a>
</g>
</g>
<!-- Node4&#45;&gt;Node5 -->
<g id="edge4" class="edge">
<title>Node4&#45;&gt;Node5</title>
<path fill="none" stroke="midnightblue" d="M34.5,-56.08C34.5,-49.01 34.5,-38.86 34.5,-29.99"/>
<polygon fill="midnightblue" stroke="midnightblue" points="38,-29.75 34.5,-19.75 31,-29.75 38,-29.75"/>
</g>
</g>
</svg>
