<?xml version="1.0" encoding="UTF-8" standalone="no"?>
<!DOCTYPE svg PUBLIC "-//W3C//DTD SVG 1.1//EN"
 "http://www.w3.org/Graphics/SVG/1.1/DTD/svg11.dtd">
<!-- Generated by graphviz version 2.43.0 (0)
 -->
<!-- Title: himmelblau.cpp Pages: 1 -->
<svg width="381pt" height="319pt"
 viewBox="0.00 0.00 380.50 319.00" xmlns="http://www.w3.org/2000/svg" xmlns:xlink="http://www.w3.org/1999/xlink">
<g id="graph0" class="graph" transform="scale(1 1) rotate(0) translate(4 315)">
<title>himmelblau.cpp</title>
<polygon fill="white" stroke="transparent" points="-4,4 -4,-315 376.5,-315 376.5,4 -4,4"/>
<!-- Node1 -->
<g id="node1" class="node">
<title>Node1</title>
<g id="a_node1"><a xlink:title=" ">
<polygon fill="#bfbfbf" stroke="black" points="53.5,-291.5 53.5,-310.5 148.5,-310.5 148.5,-291.5 53.5,-291.5"/>
<text text-anchor="middle" x="101" y="-298.5" font-family="Helvetica,sans-Serif" font-size="10.00">himmelblau.cpp</text>
</a>
</g>
</g>
<!-- Node2 -->
<g id="node2" class="node">
<title>Node2</title>
<g id="a_node2"><a xlink:title=" ">
<polygon fill="white" stroke="#bfbfbf" points="0,-112.5 0,-131.5 58,-131.5 58,-112.5 0,-112.5"/>
<text text-anchor="middle" x="29" y="-119.5" font-family="Helvetica,sans-Serif" font-size="10.00">memory</text>
</a>
</g>
</g>
<!-- Node1&#45;&gt;Node2 -->
<g id="edge1" class="edge">
<title>Node1&#45;&gt;Node2</title>
<path fill="none" stroke="midnightblue" d="M93.73,-291.19C86.82,-282.46 76.55,-268.48 70,-255 51.37,-216.64 38.85,-167.93 32.93,-141.73"/>
<polygon fill="midnightblue" stroke="midnightblue" points="36.29,-140.7 30.74,-131.68 29.45,-142.19 36.29,-140.7"/>
</g>
<!-- Node3 -->
<g id="node3" class="node">
<title>Node3</title>
<g id="a_node3"><a xlink:href="himmelblau_8hpp.html" target="_top" xlink:title=" ">
<polygon fill="white" stroke="black" points="78.5,-224.5 78.5,-254.5 227.5,-254.5 227.5,-224.5 78.5,-224.5"/>
<text text-anchor="start" x="86.5" y="-242.5" font-family="Helvetica,sans-Serif" font-size="10.00">panoc&#45;alm/reference</text>
<text text-anchor="middle" x="153" y="-231.5" font-family="Helvetica,sans-Serif" font-size="10.00">&#45;problems/himmelblau.hpp</text>
</a>
</g>
</g>
<!-- Node1&#45;&gt;Node3 -->
<g id="edge2" class="edge">
<title>Node1&#45;&gt;Node3</title>
<path fill="none" stroke="midnightblue" d="M108.45,-291.48C115.1,-283.87 125.12,-272.4 133.98,-262.26"/>
<polygon fill="midnightblue" stroke="midnightblue" points="136.8,-264.36 140.74,-254.52 131.53,-259.75 136.8,-264.36"/>
</g>
<!-- Node4 -->
<g id="node4" class="node">
<title>Node4</title>
<g id="a_node4"><a xlink:href="include_2panoc-alm_2util_2problem_8hpp.html" target="_top" xlink:title=" ">
<polygon fill="white" stroke="black" points="89,-168.5 89,-187.5 241,-187.5 241,-168.5 89,-168.5"/>
<text text-anchor="middle" x="165" y="-175.5" font-family="Helvetica,sans-Serif" font-size="10.00">panoc&#45;alm/util/problem.hpp</text>
</a>
</g>
</g>
<!-- Node3&#45;&gt;Node4 -->
<g id="edge3" class="edge">
<title>Node3&#45;&gt;Node4</title>
<path fill="none" stroke="midnightblue" d="M155.84,-224.4C157.46,-216.38 159.51,-206.23 161.25,-197.57"/>
<polygon fill="midnightblue" stroke="midnightblue" points="164.71,-198.15 163.25,-187.66 157.85,-196.77 164.71,-198.15"/>
</g>
<!-- Node4&#45;&gt;Node2 -->
<g id="edge9" class="edge">
<title>Node4&#45;&gt;Node2</title>
<path fill="none" stroke="midnightblue" d="M143.45,-168.44C120.97,-159.52 85.51,-145.44 60.02,-135.32"/>
<polygon fill="midnightblue" stroke="midnightblue" points="61.03,-131.95 50.45,-131.52 58.45,-138.46 61.03,-131.95"/>
</g>
<!-- Node5 -->
<g id="node5" class="node">
<title>Node5</title>
<g id="a_node5"><a xlink:href="box_8hpp.html" target="_top" xlink:title=" ">
<polygon fill="white" stroke="black" points="76,-112.5 76,-131.5 132,-131.5 132,-112.5 76,-112.5"/>
<text text-anchor="middle" x="104" y="-119.5" font-family="Helvetica,sans-Serif" font-size="10.00">box.hpp</text>
</a>
</g>
</g>
<!-- Node4&#45;&gt;Node5 -->
<g id="edge4" class="edge">
<title>Node4&#45;&gt;Node5</title>
<path fill="none" stroke="midnightblue" d="M155.2,-168.32C146.18,-160.34 132.59,-148.31 121.68,-138.65"/>
<polygon fill="midnightblue" stroke="midnightblue" points="123.79,-135.84 113.98,-131.83 119.15,-141.08 123.79,-135.84"/>
</g>
<!-- Node8 -->
<g id="node8" class="node">
<title>Node8</title>
<g id="a_node8"><a xlink:title=" ">
<polygon fill="white" stroke="#bfbfbf" points="150,-112.5 150,-131.5 202,-131.5 202,-112.5 150,-112.5"/>
<text text-anchor="middle" x="176" y="-119.5" font-family="Helvetica,sans-Serif" font-size="10.00">cassert</text>
</a>
</g>
</g>
<!-- Node4&#45;&gt;Node8 -->
<g id="edge7" class="edge">
<title>Node4&#45;&gt;Node8</title>
<path fill="none" stroke="midnightblue" d="M166.82,-168.08C168.27,-160.93 170.37,-150.64 172.19,-141.69"/>
<polygon fill="midnightblue" stroke="midnightblue" points="175.65,-142.25 174.22,-131.75 168.79,-140.85 175.65,-142.25"/>
</g>
<!-- Node9 -->
<g id="node9" class="node">
<title>Node9</title>
<g id="a_node9"><a xlink:title=" ">
<polygon fill="white" stroke="#bfbfbf" points="220.5,-112.5 220.5,-131.5 285.5,-131.5 285.5,-112.5 220.5,-112.5"/>
<text text-anchor="middle" x="253" y="-119.5" font-family="Helvetica,sans-Serif" font-size="10.00">functional</text>
</a>
</g>
</g>
<!-- Node4&#45;&gt;Node9 -->
<g id="edge8" class="edge">
<title>Node4&#45;&gt;Node9</title>
<path fill="none" stroke="midnightblue" d="M179.14,-168.32C192.87,-159.9 213.94,-146.97 230.06,-137.07"/>
<polygon fill="midnightblue" stroke="midnightblue" points="232.2,-139.87 238.9,-131.65 228.54,-133.9 232.2,-139.87"/>
</g>
<!-- Node10 -->
<g id="node10" class="node">
<title>Node10</title>
<g id="a_node10"><a xlink:title=" ">
<polygon fill="white" stroke="#bfbfbf" points="303.5,-112.5 303.5,-131.5 372.5,-131.5 372.5,-112.5 303.5,-112.5"/>
<text text-anchor="middle" x="338" y="-119.5" font-family="Helvetica,sans-Serif" font-size="10.00">type_traits</text>
</a>
</g>
</g>
<!-- Node4&#45;&gt;Node10 -->
<g id="edge10" class="edge">
<title>Node4&#45;&gt;Node10</title>
<path fill="none" stroke="midnightblue" d="M192.41,-168.44C221.77,-159.28 268.52,-144.69 301.1,-134.52"/>
<polygon fill="midnightblue" stroke="midnightblue" points="302.21,-137.84 310.72,-131.52 300.13,-131.16 302.21,-137.84"/>
</g>
<!-- Node6 -->
<g id="node6" class="node">
<title>Node6</title>
<g id="a_node6"><a xlink:href="vec_8hpp.html" target="_top" xlink:title=" ">
<polygon fill="white" stroke="black" points="76.5,-56.5 76.5,-75.5 131.5,-75.5 131.5,-56.5 76.5,-56.5"/>
<text text-anchor="middle" x="104" y="-63.5" font-family="Helvetica,sans-Serif" font-size="10.00">vec.hpp</text>
</a>
</g>
</g>
<!-- Node5&#45;&gt;Node6 -->
<g id="edge5" class="edge">
<title>Node5&#45;&gt;Node6</title>
<path fill="none" stroke="midnightblue" d="M104,-112.08C104,-105.01 104,-94.86 104,-85.99"/>
<polygon fill="midnightblue" stroke="midnightblue" points="107.5,-85.75 104,-75.75 100.5,-85.75 107.5,-85.75"/>
</g>
<!-- Node7 -->
<g id="node7" class="node">
<title>Node7</title>
<g id="a_node7"><a xlink:title=" ">
<polygon fill="white" stroke="#bfbfbf" points="69.5,-0.5 69.5,-19.5 138.5,-19.5 138.5,-0.5 69.5,-0.5"/>
<text text-anchor="middle" x="104" y="-7.5" font-family="Helvetica,sans-Serif" font-size="10.00">Eigen/Core</text>
</a>
</g>
</g>
<!-- Node6&#45;&gt;Node7 -->
<g id="edge6" class="edge">
<title>Node6&#45;&gt;Node7</title>
<path fill="none" stroke="midnightblue" d="M104,-56.08C104,-49.01 104,-38.86 104,-29.99"/>
<polygon fill="midnightblue" stroke="midnightblue" points="107.5,-29.75 104,-19.75 100.5,-29.75 107.5,-29.75"/>
</g>
</g>
</svg>
