<?xml version="1.0" encoding="UTF-8" standalone="no"?>
<!DOCTYPE svg PUBLIC "-//W3C//DTD SVG 1.1//EN"
 "http://www.w3.org/Graphics/SVG/1.1/DTD/svg11.dtd">
<!-- Generated by graphviz version 2.43.0 (0)
 -->
<!-- Title: panoc.hpp Pages: 1 -->
<svg width="723pt" height="252pt"
 viewBox="0.00 0.00 723.20 252.00" xmlns="http://www.w3.org/2000/svg" xmlns:xlink="http://www.w3.org/1999/xlink">
<g id="graph0" class="graph" transform="scale(1 1) rotate(0) translate(4 248)">
<title>panoc.hpp</title>
<polygon fill="white" stroke="transparent" points="-4,4 -4,-248 719.2,-248 719.2,4 -4,4"/>
<!-- Node1 -->
<g id="node1" class="node">
<title>Node1</title>
<g id="a_node1"><a xlink:title=" ">
<polygon fill="#bfbfbf" stroke="black" points="492.7,-224.5 492.7,-243.5 559.7,-243.5 559.7,-224.5 492.7,-224.5"/>
<text text-anchor="middle" x="526.2" y="-231.5" font-family="Helvetica,sans-Serif" font-size="10.00">panoc.hpp</text>
</a>
</g>
</g>
<!-- Node2 -->
<g id="node2" class="node">
<title>Node2</title>
<g id="a_node2"><a xlink:href="inner_2panoc_8hpp.html" target="_top" xlink:title=" ">
<polygon fill="white" stroke="black" points="215.7,-168.5 215.7,-187.5 282.7,-187.5 282.7,-168.5 215.7,-168.5"/>
<text text-anchor="middle" x="249.2" y="-175.5" font-family="Helvetica,sans-Serif" font-size="10.00">panoc.hpp</text>
</a>
</g>
</g>
<!-- Node1&#45;&gt;Node2 -->
<g id="edge1" class="edge">
<title>Node1&#45;&gt;Node2</title>
<path fill="none" stroke="midnightblue" d="M482.67,-224.51C427.42,-213.74 333.29,-195.39 283.09,-185.61"/>
<polygon fill="midnightblue" stroke="midnightblue" points="482.03,-227.95 492.52,-226.43 483.37,-221.08 482.03,-227.95"/>
</g>
<!-- Node3 -->
<g id="node3" class="node">
<title>Node3</title>
<g id="a_node3"><a xlink:href="panocpy_8cpp.html" target="_top" xlink:title="This file defines all Python bindings.">
<polygon fill="white" stroke="black" points="340.7,-0.5 340.7,-19.5 417.7,-19.5 417.7,-0.5 340.7,-0.5"/>
<text text-anchor="middle" x="379.2" y="-7.5" font-family="Helvetica,sans-Serif" font-size="10.00">panocpy.cpp</text>
</a>
</g>
</g>
<!-- Node1&#45;&gt;Node3 -->
<g id="edge15" class="edge">
<title>Node1&#45;&gt;Node3</title>
<path fill="none" stroke="midnightblue" d="M515.63,-215.54C501.2,-191.85 474.36,-148.33 450.2,-112 427.06,-77.2 397.98,-36.81 385.43,-19.54"/>
<polygon fill="midnightblue" stroke="midnightblue" points="512.83,-217.67 521.01,-224.39 518.81,-214.03 512.83,-217.67"/>
</g>
<!-- Node9 -->
<g id="node9" class="node">
<title>Node9</title>
<g id="a_node9"><a xlink:href="standalone_2panoc_8hpp.html" target="_top" xlink:title=" ">
<polygon fill="white" stroke="black" points="473.7,-56.5 473.7,-75.5 540.7,-75.5 540.7,-56.5 473.7,-56.5"/>
<text text-anchor="middle" x="507.2" y="-63.5" font-family="Helvetica,sans-Serif" font-size="10.00">panoc.hpp</text>
</a>
</g>
</g>
<!-- Node1&#45;&gt;Node9 -->
<g id="edge11" class="edge">
<title>Node1&#45;&gt;Node9</title>
<path fill="none" stroke="midnightblue" d="M524.02,-213.93C519.9,-177.92 511.12,-101.23 508.18,-75.57"/>
<polygon fill="midnightblue" stroke="midnightblue" points="520.57,-214.54 525.18,-224.08 527.52,-213.74 520.57,-214.54"/>
</g>
<!-- Node10 -->
<g id="node10" class="node">
<title>Node10</title>
<g id="a_node10"><a xlink:href="kwargs-to-struct_8hpp.html" target="_top" xlink:title="This file defines mappings from Python dicts (kwargs) to simple parameter structs.">
<polygon fill="white" stroke="black" points="559.2,-56.5 559.2,-75.5 677.2,-75.5 677.2,-56.5 559.2,-56.5"/>
<text text-anchor="middle" x="618.2" y="-63.5" font-family="Helvetica,sans-Serif" font-size="10.00">kwargs&#45;to&#45;struct.hpp</text>
</a>
</g>
</g>
<!-- Node1&#45;&gt;Node10 -->
<g id="edge13" class="edge">
<title>Node1&#45;&gt;Node10</title>
<path fill="none" stroke="midnightblue" d="M536.01,-215.31C555.62,-179.92 599.05,-101.56 613.46,-75.57"/>
<polygon fill="midnightblue" stroke="midnightblue" points="532.94,-213.63 531.15,-224.08 539.06,-217.03 532.94,-213.63"/>
</g>
<!-- Node11 -->
<g id="node11" class="node">
<title>Node11</title>
<g id="a_node11"><a xlink:href="CasADi_2Rosenbrock_2main_8cpp.html" target="_top" xlink:title=" ">
<polygon fill="white" stroke="black" points="573.2,-168.5 573.2,-187.5 635.2,-187.5 635.2,-168.5 573.2,-168.5"/>
<text text-anchor="middle" x="604.2" y="-175.5" font-family="Helvetica,sans-Serif" font-size="10.00">main.cpp</text>
</a>
</g>
</g>
<!-- Node1&#45;&gt;Node11 -->
<g id="edge16" class="edge">
<title>Node1&#45;&gt;Node11</title>
<path fill="none" stroke="midnightblue" d="M546.97,-218.62C561.22,-208.76 579.66,-195.99 591.7,-187.65"/>
<polygon fill="midnightblue" stroke="midnightblue" points="544.97,-215.75 538.74,-224.32 548.95,-221.51 544.97,-215.75"/>
</g>
<!-- Node12 -->
<g id="node12" class="node">
<title>Node12</title>
<g id="a_node12"><a xlink:href="CUTEst_2Rosenbrock_2main_8cpp.html" target="_top" xlink:title=" ">
<polygon fill="white" stroke="black" points="653.2,-168.5 653.2,-187.5 715.2,-187.5 715.2,-168.5 653.2,-168.5"/>
<text text-anchor="middle" x="684.2" y="-175.5" font-family="Helvetica,sans-Serif" font-size="10.00">main.cpp</text>
</a>
</g>
</g>
<!-- Node1&#45;&gt;Node12 -->
<g id="edge17" class="edge">
<title>Node1&#45;&gt;Node12</title>
<path fill="none" stroke="midnightblue" d="M560.81,-221.17C590.56,-211 632.75,-196.59 659.29,-187.52"/>
<polygon fill="midnightblue" stroke="midnightblue" points="559.57,-217.9 551.24,-224.44 561.83,-224.52 559.57,-217.9"/>
</g>
<!-- Node2&#45;&gt;Node3 -->
<g id="edge2" class="edge">
<title>Node2&#45;&gt;Node3</title>
<path fill="none" stroke="midnightblue" d="M205.35,-175.33C142.57,-171.91 31.92,-161.73 7.2,-132 -8.58,-113.02 5.51,-72.35 25.2,-56 72.44,-16.76 258.82,-11.31 340.5,-10.85"/>
<polygon fill="midnightblue" stroke="midnightblue" points="205.2,-178.83 215.37,-175.84 205.56,-171.84 205.2,-178.83"/>
</g>
<!-- Node4 -->
<g id="node4" class="node">
<title>Node4</title>
<g id="a_node4"><a xlink:href="polymorphic-inner-solver_8hpp.html" target="_top" xlink:title=" ">
<polygon fill="white" stroke="black" points="34.2,-56.5 34.2,-75.5 194.2,-75.5 194.2,-56.5 34.2,-56.5"/>
<text text-anchor="middle" x="114.2" y="-63.5" font-family="Helvetica,sans-Serif" font-size="10.00">polymorphic&#45;inner&#45;solver.hpp</text>
</a>
</g>
</g>
<!-- Node2&#45;&gt;Node4 -->
<g id="edge3" class="edge">
<title>Node2&#45;&gt;Node4</title>
<path fill="none" stroke="midnightblue" d="M205.64,-174.99C144.95,-171.18 39.75,-160.53 16.2,-132 -5.5,-105.7 42.82,-86.06 79.04,-75.57"/>
<polygon fill="midnightblue" stroke="midnightblue" points="205.51,-178.49 215.7,-175.59 205.92,-171.5 205.51,-178.49"/>
</g>
<!-- Node5 -->
<g id="node5" class="node">
<title>Node5</title>
<g id="a_node5"><a xlink:href="polymorphic-panoc-direction_8hpp.html" target="_top" xlink:title=" ">
<polygon fill="white" stroke="black" points="25.2,-112.5 25.2,-131.5 203.2,-131.5 203.2,-112.5 25.2,-112.5"/>
<text text-anchor="middle" x="114.2" y="-119.5" font-family="Helvetica,sans-Serif" font-size="10.00">polymorphic&#45;panoc&#45;direction.hpp</text>
</a>
</g>
</g>
<!-- Node2&#45;&gt;Node5 -->
<g id="edge5" class="edge">
<title>Node2&#45;&gt;Node5</title>
<path fill="none" stroke="midnightblue" d="M218.3,-164.64C192.96,-154.5 157.77,-140.43 135.49,-131.52"/>
<polygon fill="midnightblue" stroke="midnightblue" points="217.23,-167.98 227.81,-168.44 219.83,-161.48 217.23,-167.98"/>
</g>
<!-- Node6 -->
<g id="node6" class="node">
<title>Node6</title>
<g id="a_node6"><a xlink:href="alm_8cpp.html" target="_top" xlink:title=" ">
<polygon fill="white" stroke="black" points="221.2,-112.5 221.2,-131.5 277.2,-131.5 277.2,-112.5 221.2,-112.5"/>
<text text-anchor="middle" x="249.2" y="-119.5" font-family="Helvetica,sans-Serif" font-size="10.00">alm.cpp</text>
</a>
</g>
</g>
<!-- Node2&#45;&gt;Node6 -->
<g id="edge8" class="edge">
<title>Node2&#45;&gt;Node6</title>
<path fill="none" stroke="midnightblue" d="M249.2,-157.8C249.2,-148.91 249.2,-138.78 249.2,-131.75"/>
<polygon fill="midnightblue" stroke="midnightblue" points="245.7,-158.08 249.2,-168.08 252.7,-158.08 245.7,-158.08"/>
</g>
<!-- Node7 -->
<g id="node7" class="node">
<title>Node7</title>
<g id="a_node7"><a xlink:href="panoc_8cpp.html" target="_top" xlink:title=" ">
<polygon fill="white" stroke="black" points="295.2,-112.5 295.2,-131.5 361.2,-131.5 361.2,-112.5 295.2,-112.5"/>
<text text-anchor="middle" x="328.2" y="-119.5" font-family="Helvetica,sans-Serif" font-size="10.00">panoc.cpp</text>
</a>
</g>
</g>
<!-- Node2&#45;&gt;Node7 -->
<g id="edge9" class="edge">
<title>Node2&#45;&gt;Node7</title>
<path fill="none" stroke="midnightblue" d="M270.24,-162.62C284.67,-152.76 303.35,-139.99 315.54,-131.65"/>
<polygon fill="midnightblue" stroke="midnightblue" points="268.18,-159.79 261.9,-168.32 272.13,-165.57 268.18,-159.79"/>
</g>
<!-- Node8 -->
<g id="node8" class="node">
<title>Node8</title>
<g id="a_node8"><a xlink:href="Presentation_2Cpp_2main_8cpp.html" target="_top" xlink:title=" ">
<polygon fill="white" stroke="black" points="379.2,-112.5 379.2,-131.5 441.2,-131.5 441.2,-112.5 379.2,-112.5"/>
<text text-anchor="middle" x="410.2" y="-119.5" font-family="Helvetica,sans-Serif" font-size="10.00">main.cpp</text>
</a>
</g>
</g>
<!-- Node2&#45;&gt;Node8 -->
<g id="edge10" class="edge">
<title>Node2&#45;&gt;Node8</title>
<path fill="none" stroke="midnightblue" d="M284.47,-165.17C314.78,-155 357.77,-140.59 384.81,-131.52"/>
<polygon fill="midnightblue" stroke="midnightblue" points="283.08,-161.95 274.71,-168.44 285.31,-168.58 283.08,-161.95"/>
</g>
<!-- Node4&#45;&gt;Node3 -->
<g id="edge4" class="edge">
<title>Node4&#45;&gt;Node3</title>
<path fill="none" stroke="midnightblue" d="M166.07,-54.43C217.25,-44 294.34,-28.29 340.43,-18.9"/>
<polygon fill="midnightblue" stroke="midnightblue" points="165.29,-51.02 156.19,-56.44 166.69,-57.88 165.29,-51.02"/>
</g>
<!-- Node5&#45;&gt;Node3 -->
<g id="edge6" class="edge">
<title>Node5&#45;&gt;Node3</title>
<path fill="none" stroke="midnightblue" d="M144.45,-108.45C198.87,-85.86 311.96,-38.91 358.51,-19.59"/>
<polygon fill="midnightblue" stroke="midnightblue" points="142.89,-105.3 135,-112.37 145.58,-111.77 142.89,-105.3"/>
</g>
<!-- Node5&#45;&gt;Node4 -->
<g id="edge7" class="edge">
<title>Node5&#45;&gt;Node4</title>
<path fill="none" stroke="midnightblue" d="M114.2,-101.8C114.2,-92.91 114.2,-82.78 114.2,-75.75"/>
<polygon fill="midnightblue" stroke="midnightblue" points="110.7,-102.08 114.2,-112.08 117.7,-102.08 110.7,-102.08"/>
</g>
<!-- Node9&#45;&gt;Node3 -->
<g id="edge12" class="edge">
<title>Node9&#45;&gt;Node3</title>
<path fill="none" stroke="midnightblue" d="M477.58,-52.5C453.58,-42.38 420.42,-28.39 399.39,-19.52"/>
<polygon fill="midnightblue" stroke="midnightblue" points="476.35,-55.78 486.92,-56.44 479.07,-49.33 476.35,-55.78"/>
</g>
<!-- Node10&#45;&gt;Node3 -->
<g id="edge14" class="edge">
<title>Node10&#45;&gt;Node3</title>
<path fill="none" stroke="midnightblue" d="M570.48,-54.22C525.32,-44.01 458.43,-28.9 416.9,-19.52"/>
<polygon fill="midnightblue" stroke="midnightblue" points="569.81,-57.65 580.33,-56.44 571.35,-50.83 569.81,-57.65"/>
</g>
</g>
</svg>
