<?xml version="1.0" encoding="UTF-8" standalone="no"?>
<!DOCTYPE svg PUBLIC "-//W3C//DTD SVG 1.1//EN"
 "http://www.w3.org/Graphics/SVG/1.1/DTD/svg11.dtd">
<!-- Generated by graphviz version 2.43.0 (0)
 -->
<!-- Title: panoc.hpp Pages: 1 -->
<svg width="1699pt" height="341pt"
 viewBox="0.00 0.00 1698.50 341.00" xmlns="http://www.w3.org/2000/svg" xmlns:xlink="http://www.w3.org/1999/xlink">
<g id="graph0" class="graph" transform="scale(1 1) rotate(0) translate(4 337)">
<title>panoc.hpp</title>
<polygon fill="white" stroke="transparent" points="-4,4 -4,-337 1694.5,-337 1694.5,4 -4,4"/>
<!-- Node1 -->
<g id="node1" class="node">
<title>Node1</title>
<g id="a_node1"><a xlink:title=" ">
<polygon fill="#bfbfbf" stroke="black" points="1410,-313.5 1410,-332.5 1477,-332.5 1477,-313.5 1410,-313.5"/>
<text text-anchor="middle" x="1443.5" y="-320.5" font-family="Helvetica,sans-Serif" font-size="10.00">panoc.hpp</text>
</a>
</g>
</g>
<!-- Node2 -->
<g id="node2" class="node">
<title>Node2</title>
<g id="a_node2"><a xlink:href="inner_2decl_2panoc_8hpp.html" target="_top" xlink:title=" ">
<polygon fill="white" stroke="black" points="600,-246.5 600,-276.5 719,-276.5 719,-246.5 600,-246.5"/>
<text text-anchor="start" x="608" y="-264.5" font-family="Helvetica,sans-Serif" font-size="10.00">panoc&#45;alm/inner/decl</text>
<text text-anchor="middle" x="659.5" y="-253.5" font-family="Helvetica,sans-Serif" font-size="10.00">/panoc.hpp</text>
</a>
</g>
</g>
<!-- Node1&#45;&gt;Node2 -->
<g id="edge1" class="edge">
<title>Node1&#45;&gt;Node2</title>
<path fill="none" stroke="midnightblue" d="M1409.81,-319.44C1291.37,-310.45 892.45,-280.18 729.61,-267.82"/>
<polygon fill="midnightblue" stroke="midnightblue" points="729.47,-264.3 719.23,-267.03 728.94,-271.28 729.47,-264.3"/>
</g>
<!-- Node8 -->
<g id="node8" class="node">
<title>Node8</title>
<g id="a_node8"><a xlink:title=" ">
<polygon fill="white" stroke="#bfbfbf" points="1354,-118 1354,-137 1419,-137 1419,-118 1354,-118"/>
<text text-anchor="middle" x="1386.5" y="-125" font-family="Helvetica,sans-Serif" font-size="10.00">stdexcept</text>
</a>
</g>
</g>
<!-- Node1&#45;&gt;Node8 -->
<g id="edge39" class="edge">
<title>Node1&#45;&gt;Node8</title>
<path fill="none" stroke="midnightblue" d="M1445.31,-313.45C1449.75,-290.49 1459.35,-226.01 1438.5,-179 1432.08,-164.52 1419.39,-152.06 1408.16,-143.15"/>
<polygon fill="midnightblue" stroke="midnightblue" points="1410.09,-140.22 1399.98,-137.04 1405.9,-145.83 1410.09,-140.22"/>
</g>
<!-- Node9 -->
<g id="node9" class="node">
<title>Node9</title>
<g id="a_node9"><a xlink:href="panoc-direction-update_8hpp.html" target="_top" xlink:title=" ">
<polygon fill="white" stroke="black" points="0,-179.5 0,-209.5 177,-209.5 177,-179.5 0,-179.5"/>
<text text-anchor="start" x="8" y="-197.5" font-family="Helvetica,sans-Serif" font-size="10.00">panoc&#45;alm/inner/directions</text>
<text text-anchor="middle" x="88.5" y="-186.5" font-family="Helvetica,sans-Serif" font-size="10.00">/decl/panoc&#45;direction&#45;update.hpp</text>
</a>
</g>
</g>
<!-- Node1&#45;&gt;Node9 -->
<g id="edge34" class="edge">
<title>Node1&#45;&gt;Node9</title>
<path fill="none" stroke="midnightblue" d="M1409.67,-321.53C1294.6,-319.65 907.89,-311.03 590.5,-277 441.12,-260.98 268.54,-230.25 169.59,-211.44"/>
<polygon fill="midnightblue" stroke="midnightblue" points="170.14,-207.98 159.66,-209.55 168.83,-214.86 170.14,-207.98"/>
</g>
<!-- Node17 -->
<g id="node17" class="node">
<title>Node17</title>
<g id="a_node17"><a xlink:title=" ">
<polygon fill="white" stroke="#bfbfbf" points="1137.5,-118 1137.5,-137 1189.5,-137 1189.5,-118 1137.5,-118"/>
<text text-anchor="middle" x="1163.5" y="-125" font-family="Helvetica,sans-Serif" font-size="10.00">cassert</text>
</a>
</g>
</g>
<!-- Node1&#45;&gt;Node17 -->
<g id="edge35" class="edge">
<title>Node1&#45;&gt;Node17</title>
<path fill="none" stroke="midnightblue" d="M1441.59,-313.25C1435.58,-288 1414.64,-214.55 1367.5,-179 1306.18,-132.76 1271.84,-165.79 1198.5,-143 1196.36,-142.33 1194.16,-141.59 1191.97,-140.79"/>
<polygon fill="midnightblue" stroke="midnightblue" points="1193.11,-137.48 1182.52,-137.12 1190.57,-144.01 1193.11,-137.48"/>
</g>
<!-- Node26 -->
<g id="node26" class="node">
<title>Node26</title>
<g id="a_node26"><a xlink:href="panoc-helpers_8hpp.html" target="_top" xlink:title=" ">
<polygon fill="white" stroke="black" points="1154,-246.5 1154,-276.5 1281,-276.5 1281,-246.5 1154,-246.5"/>
<text text-anchor="start" x="1162" y="-264.5" font-family="Helvetica,sans-Serif" font-size="10.00">panoc&#45;alm/inner/detail</text>
<text text-anchor="middle" x="1217.5" y="-253.5" font-family="Helvetica,sans-Serif" font-size="10.00">/panoc&#45;helpers.hpp</text>
</a>
</g>
</g>
<!-- Node1&#45;&gt;Node26 -->
<g id="edge28" class="edge">
<title>Node1&#45;&gt;Node26</title>
<path fill="none" stroke="midnightblue" d="M1411.12,-313.48C1377.15,-304.53 1322.9,-290.25 1280.45,-279.07"/>
<polygon fill="midnightblue" stroke="midnightblue" points="1281.33,-275.68 1270.76,-276.52 1279.54,-282.45 1281.33,-275.68"/>
</g>
<!-- Node27 -->
<g id="node27" class="node">
<title>Node27</title>
<g id="a_node27"><a xlink:title=" ">
<polygon fill="white" stroke="#bfbfbf" points="1491,-252 1491,-271 1538,-271 1538,-252 1491,-252"/>
<text text-anchor="middle" x="1514.5" y="-259" font-family="Helvetica,sans-Serif" font-size="10.00">cmath</text>
</a>
</g>
</g>
<!-- Node1&#45;&gt;Node27 -->
<g id="edge36" class="edge">
<title>Node1&#45;&gt;Node27</title>
<path fill="none" stroke="midnightblue" d="M1453.67,-313.48C1464.85,-304.11 1483.02,-288.88 1496.59,-277.51"/>
<polygon fill="midnightblue" stroke="midnightblue" points="1498.93,-280.11 1504.35,-271.01 1494.43,-274.75 1498.93,-280.11"/>
</g>
<!-- Node28 -->
<g id="node28" class="node">
<title>Node28</title>
<g id="a_node28"><a xlink:title=" ">
<polygon fill="white" stroke="#bfbfbf" points="1556.5,-252 1556.5,-271 1612.5,-271 1612.5,-252 1556.5,-252"/>
<text text-anchor="middle" x="1584.5" y="-259" font-family="Helvetica,sans-Serif" font-size="10.00">iomanip</text>
</a>
</g>
</g>
<!-- Node1&#45;&gt;Node28 -->
<g id="edge37" class="edge">
<title>Node1&#45;&gt;Node28</title>
<path fill="none" stroke="midnightblue" d="M1463.7,-313.48C1487.57,-303.4 1527.5,-286.55 1554.87,-275"/>
<polygon fill="midnightblue" stroke="midnightblue" points="1556.48,-278.12 1564.34,-271.01 1553.76,-271.67 1556.48,-278.12"/>
</g>
<!-- Node29 -->
<g id="node29" class="node">
<title>Node29</title>
<g id="a_node29"><a xlink:title=" ">
<polygon fill="white" stroke="#bfbfbf" points="1630.5,-252 1630.5,-271 1690.5,-271 1690.5,-252 1630.5,-252"/>
<text text-anchor="middle" x="1660.5" y="-259" font-family="Helvetica,sans-Serif" font-size="10.00">iostream</text>
</a>
</g>
</g>
<!-- Node1&#45;&gt;Node29 -->
<g id="edge38" class="edge">
<title>Node1&#45;&gt;Node29</title>
<path fill="none" stroke="midnightblue" d="M1477.27,-314.61C1513.29,-306.46 1571.89,-292.44 1621.5,-277 1624.06,-276.2 1626.7,-275.33 1629.34,-274.42"/>
<polygon fill="midnightblue" stroke="midnightblue" points="1630.54,-277.71 1638.78,-271.05 1628.18,-271.12 1630.54,-277.71"/>
</g>
<!-- Node3 -->
<g id="node3" class="node">
<title>Node3</title>
<g id="a_node3"><a xlink:href="lbfgs-stepsize_8hpp.html" target="_top" xlink:title=" ">
<polygon fill="white" stroke="black" points="195,-179.5 195,-209.5 314,-209.5 314,-179.5 195,-179.5"/>
<text text-anchor="start" x="203" y="-197.5" font-family="Helvetica,sans-Serif" font-size="10.00">panoc&#45;alm/inner/decl</text>
<text text-anchor="middle" x="254.5" y="-186.5" font-family="Helvetica,sans-Serif" font-size="10.00">/lbfgs&#45;stepsize.hpp</text>
</a>
</g>
</g>
<!-- Node2&#45;&gt;Node3 -->
<g id="edge2" class="edge">
<title>Node2&#45;&gt;Node3</title>
<path fill="none" stroke="midnightblue" d="M599.96,-252.7C534.59,-243.89 426.31,-228.55 324.04,-210.22"/>
<polygon fill="midnightblue" stroke="midnightblue" points="324.63,-206.77 314.16,-208.44 323.38,-213.66 324.63,-206.77"/>
</g>
<!-- Node4 -->
<g id="node4" class="node">
<title>Node4</title>
<g id="a_node4"><a xlink:href="panoc-fwd_8hpp.html" target="_top" xlink:title=" ">
<polygon fill="white" stroke="black" points="332,-179.5 332,-209.5 451,-209.5 451,-179.5 332,-179.5"/>
<text text-anchor="start" x="340" y="-197.5" font-family="Helvetica,sans-Serif" font-size="10.00">panoc&#45;alm/inner/decl</text>
<text text-anchor="middle" x="391.5" y="-186.5" font-family="Helvetica,sans-Serif" font-size="10.00">/panoc&#45;fwd.hpp</text>
</a>
</g>
</g>
<!-- Node2&#45;&gt;Node4 -->
<g id="edge3" class="edge">
<title>Node2&#45;&gt;Node4</title>
<path fill="none" stroke="midnightblue" d="M601.68,-246.48C559.91,-236.34 503.34,-222.63 459.42,-211.97"/>
<polygon fill="midnightblue" stroke="midnightblue" points="460.22,-208.57 449.68,-209.61 458.57,-215.37 460.22,-208.57"/>
</g>
<!-- Node6 -->
<g id="node6" class="node">
<title>Node6</title>
<g id="a_node6"><a xlink:href="panoc-stop-crit_8hpp.html" target="_top" xlink:title=" ">
<polygon fill="white" stroke="black" points="1239,-179.5 1239,-209.5 1358,-209.5 1358,-179.5 1239,-179.5"/>
<text text-anchor="start" x="1247" y="-197.5" font-family="Helvetica,sans-Serif" font-size="10.00">panoc&#45;alm/inner/decl</text>
<text text-anchor="middle" x="1298.5" y="-186.5" font-family="Helvetica,sans-Serif" font-size="10.00">/panoc&#45;stop&#45;crit.hpp</text>
</a>
</g>
</g>
<!-- Node2&#45;&gt;Node6 -->
<g id="edge5" class="edge">
<title>Node2&#45;&gt;Node6</title>
<path fill="none" stroke="midnightblue" d="M719.38,-257.61C821.89,-252.14 1037.7,-238.32 1228.92,-210.13"/>
<polygon fill="midnightblue" stroke="midnightblue" points="1229.5,-213.58 1238.87,-208.64 1228.46,-206.66 1229.5,-213.58"/>
</g>
<!-- Node2&#45;&gt;Node9 -->
<g id="edge8" class="edge">
<title>Node2&#45;&gt;Node9</title>
<path fill="none" stroke="midnightblue" d="M599.92,-254.97C511.92,-246.62 341.8,-229.78 187.19,-210.19"/>
<polygon fill="midnightblue" stroke="midnightblue" points="187.39,-206.68 177.03,-208.89 186.5,-213.63 187.39,-206.68"/>
</g>
<!-- Node13 -->
<g id="node13" class="node">
<title>Node13</title>
<g id="a_node13"><a xlink:href="atomic__stop__signal_8hpp.html" target="_top" xlink:title=" ">
<polygon fill="white" stroke="black" points="737.5,-179.5 737.5,-209.5 861.5,-209.5 861.5,-179.5 737.5,-179.5"/>
<text text-anchor="start" x="745.5" y="-197.5" font-family="Helvetica,sans-Serif" font-size="10.00">panoc&#45;alm/util/atomic</text>
<text text-anchor="middle" x="799.5" y="-186.5" font-family="Helvetica,sans-Serif" font-size="10.00">_stop_signal.hpp</text>
</a>
</g>
</g>
<!-- Node2&#45;&gt;Node13 -->
<g id="edge12" class="edge">
<title>Node2&#45;&gt;Node13</title>
<path fill="none" stroke="midnightblue" d="M689.88,-246.4C710.43,-236.86 737.76,-224.16 760,-213.84"/>
<polygon fill="midnightblue" stroke="midnightblue" points="761.59,-216.96 769.18,-209.58 758.64,-210.61 761.59,-216.96"/>
</g>
<!-- Node14 -->
<g id="node14" class="node">
<title>Node14</title>
<g id="a_node14"><a xlink:title=" ">
<polygon fill="white" stroke="#bfbfbf" points="674.5,-118 674.5,-137 724.5,-137 724.5,-118 674.5,-118"/>
<text text-anchor="middle" x="699.5" y="-125" font-family="Helvetica,sans-Serif" font-size="10.00">atomic</text>
</a>
</g>
</g>
<!-- Node2&#45;&gt;Node14 -->
<g id="edge24" class="edge">
<title>Node2&#45;&gt;Node14</title>
<path fill="none" stroke="midnightblue" d="M670.56,-246.34C677.5,-236.66 685.96,-223.23 690.5,-210 697.55,-189.43 699.39,-164.39 699.73,-147.54"/>
<polygon fill="midnightblue" stroke="midnightblue" points="703.23,-147.35 699.77,-137.34 696.23,-147.32 703.23,-147.35"/>
</g>
<!-- Node15 -->
<g id="node15" class="node">
<title>Node15</title>
<g id="a_node15"><a xlink:href="lipschitz_8hpp.html" target="_top" xlink:title=" ">
<polygon fill="white" stroke="black" points="504.5,-118 504.5,-137 656.5,-137 656.5,-118 504.5,-118"/>
<text text-anchor="middle" x="580.5" y="-125" font-family="Helvetica,sans-Serif" font-size="10.00">panoc&#45;alm/util/lipschitz.hpp</text>
</a>
</g>
</g>
<!-- Node2&#45;&gt;Node15 -->
<g id="edge14" class="edge">
<title>Node2&#45;&gt;Node15</title>
<path fill="none" stroke="midnightblue" d="M650.75,-246.39C644.5,-236.29 635.92,-222.34 628.5,-210 615.33,-188.09 600.42,-162.69 590.77,-146.14"/>
<polygon fill="midnightblue" stroke="midnightblue" points="593.55,-143.97 585.49,-137.1 587.5,-147.5 593.55,-143.97"/>
</g>
<!-- Node16 -->
<g id="node16" class="node">
<title>Node16</title>
<g id="a_node16"><a xlink:href="include_2panoc-alm_2util_2problem_8hpp.html" target="_top" xlink:title=" ">
<polygon fill="white" stroke="black" points="879.5,-185 879.5,-204 1031.5,-204 1031.5,-185 879.5,-185"/>
<text text-anchor="middle" x="955.5" y="-192" font-family="Helvetica,sans-Serif" font-size="10.00">panoc&#45;alm/util/problem.hpp</text>
</a>
</g>
</g>
<!-- Node2&#45;&gt;Node16 -->
<g id="edge16" class="edge">
<title>Node2&#45;&gt;Node16</title>
<path fill="none" stroke="midnightblue" d="M719.04,-247.42C774.28,-235.29 855.48,-217.46 906.91,-206.17"/>
<polygon fill="midnightblue" stroke="midnightblue" points="907.76,-209.57 916.78,-204 906.26,-202.73 907.76,-209.57"/>
</g>
<!-- Node21 -->
<g id="node21" class="node">
<title>Node21</title>
<g id="a_node21"><a xlink:href="solverstatus_8hpp.html" target="_top" xlink:title=" ">
<polygon fill="white" stroke="black" points="1050,-185 1050,-204 1221,-204 1221,-185 1050,-185"/>
<text text-anchor="middle" x="1135.5" y="-192" font-family="Helvetica,sans-Serif" font-size="10.00">panoc&#45;alm/util/solverstatus.hpp</text>
</a>
</g>
</g>
<!-- Node2&#45;&gt;Node21 -->
<g id="edge22" class="edge">
<title>Node2&#45;&gt;Node21</title>
<path fill="none" stroke="midnightblue" d="M719.27,-252.95C794.34,-243.38 927.05,-226.18 1040.5,-210 1050.35,-208.6 1060.76,-207.06 1070.94,-205.53"/>
<polygon fill="midnightblue" stroke="midnightblue" points="1071.66,-208.96 1081.02,-204 1070.61,-202.04 1071.66,-208.96"/>
</g>
<!-- Node23 -->
<g id="node23" class="node">
<title>Node23</title>
<g id="a_node23"><a xlink:title=" ">
<polygon fill="white" stroke="#bfbfbf" points="469.5,-185 469.5,-204 519.5,-204 519.5,-185 469.5,-185"/>
<text text-anchor="middle" x="494.5" y="-192" font-family="Helvetica,sans-Serif" font-size="10.00">chrono</text>
</a>
</g>
</g>
<!-- Node2&#45;&gt;Node23 -->
<g id="edge25" class="edge">
<title>Node2&#45;&gt;Node23</title>
<path fill="none" stroke="midnightblue" d="M622.09,-246.48C595.82,-236.53 559.89,-222.74 528.5,-210 526.91,-209.35 525.27,-208.68 523.63,-208"/>
<polygon fill="midnightblue" stroke="midnightblue" points="524.8,-204.7 514.23,-204.05 522.09,-211.15 524.8,-204.7"/>
</g>
<!-- Node24 -->
<g id="node24" class="node">
<title>Node24</title>
<g id="a_node24"><a xlink:title=" ">
<polygon fill="white" stroke="#bfbfbf" points="537.5,-185 537.5,-204 581.5,-204 581.5,-185 537.5,-185"/>
<text text-anchor="middle" x="559.5" y="-192" font-family="Helvetica,sans-Serif" font-size="10.00">limits</text>
</a>
</g>
</g>
<!-- Node2&#45;&gt;Node24 -->
<g id="edge26" class="edge">
<title>Node2&#45;&gt;Node24</title>
<path fill="none" stroke="midnightblue" d="M637.8,-246.4C621.03,-235.5 597.93,-220.48 581.17,-209.58"/>
<polygon fill="midnightblue" stroke="midnightblue" points="582.88,-206.52 572.59,-204.01 579.06,-212.39 582.88,-206.52"/>
</g>
<!-- Node25 -->
<g id="node25" class="node">
<title>Node25</title>
<g id="a_node25"><a xlink:title=" ">
<polygon fill="white" stroke="#bfbfbf" points="637.5,-185 637.5,-204 681.5,-204 681.5,-185 637.5,-185"/>
<text text-anchor="middle" x="659.5" y="-192" font-family="Helvetica,sans-Serif" font-size="10.00">string</text>
</a>
</g>
</g>
<!-- Node2&#45;&gt;Node25 -->
<g id="edge27" class="edge">
<title>Node2&#45;&gt;Node25</title>
<path fill="none" stroke="midnightblue" d="M659.5,-246.4C659.5,-237.06 659.5,-224.71 659.5,-214.52"/>
<polygon fill="midnightblue" stroke="midnightblue" points="663,-214.19 659.5,-204.19 656,-214.19 663,-214.19"/>
</g>
<!-- Node5 -->
<g id="node5" class="node">
<title>Node5</title>
<g id="a_node5"><a xlink:href="lbfgs-fwd_8hpp.html" target="_top" xlink:title=" ">
<polygon fill="white" stroke="black" points="318,-112.5 318,-142.5 465,-142.5 465,-112.5 318,-112.5"/>
<text text-anchor="start" x="326" y="-130.5" font-family="Helvetica,sans-Serif" font-size="10.00">panoc&#45;alm/inner/directions</text>
<text text-anchor="middle" x="391.5" y="-119.5" font-family="Helvetica,sans-Serif" font-size="10.00">/decl/lbfgs&#45;fwd.hpp</text>
</a>
</g>
</g>
<!-- Node4&#45;&gt;Node5 -->
<g id="edge4" class="edge">
<title>Node4&#45;&gt;Node5</title>
<path fill="none" stroke="midnightblue" d="M391.5,-179.4C391.5,-171.64 391.5,-161.81 391.5,-152.86"/>
<polygon fill="midnightblue" stroke="midnightblue" points="395,-152.58 391.5,-142.58 388,-152.58 395,-152.58"/>
</g>
<!-- Node7 -->
<g id="node7" class="node">
<title>Node7</title>
<g id="a_node7"><a xlink:title=" ">
<polygon fill="white" stroke="#bfbfbf" points="1274,-118 1274,-137 1331,-137 1331,-118 1274,-118"/>
<text text-anchor="middle" x="1302.5" y="-125" font-family="Helvetica,sans-Serif" font-size="10.00">ostream</text>
</a>
</g>
</g>
<!-- Node6&#45;&gt;Node7 -->
<g id="edge6" class="edge">
<title>Node6&#45;&gt;Node7</title>
<path fill="none" stroke="midnightblue" d="M1299.37,-179.4C1299.95,-169.96 1300.72,-157.45 1301.35,-147.19"/>
<polygon fill="midnightblue" stroke="midnightblue" points="1304.84,-147.39 1301.96,-137.19 1297.86,-146.96 1304.84,-147.39"/>
</g>
<!-- Node6&#45;&gt;Node8 -->
<g id="edge7" class="edge">
<title>Node6&#45;&gt;Node8</title>
<path fill="none" stroke="midnightblue" d="M1317.59,-179.4C1332.08,-168.7 1351.93,-154.03 1366.61,-143.19"/>
<polygon fill="midnightblue" stroke="midnightblue" points="1369.02,-145.76 1374.98,-137.01 1364.86,-140.13 1369.02,-145.76"/>
</g>
<!-- Node10 -->
<g id="node10" class="node">
<title>Node10</title>
<g id="a_node10"><a xlink:href="box_8hpp.html" target="_top" xlink:title=" ">
<polygon fill="white" stroke="black" points="743,-118 743,-137 872,-137 872,-118 743,-118"/>
<text text-anchor="middle" x="807.5" y="-125" font-family="Helvetica,sans-Serif" font-size="10.00">panoc&#45;alm/util/box.hpp</text>
</a>
</g>
</g>
<!-- Node9&#45;&gt;Node10 -->
<g id="edge9" class="edge">
<title>Node9&#45;&gt;Node10</title>
<path fill="none" stroke="midnightblue" d="M177.01,-179.96C179.87,-179.62 182.71,-179.3 185.5,-179 428.18,-152.94 491.46,-174.53 733.5,-143 741.71,-141.93 750.39,-140.5 758.79,-138.96"/>
<polygon fill="midnightblue" stroke="midnightblue" points="759.7,-142.35 768.86,-137.04 758.38,-135.48 759.7,-142.35"/>
</g>
<!-- Node11 -->
<g id="node11" class="node">
<title>Node11</title>
<g id="a_node11"><a xlink:href="vec_8hpp.html" target="_top" xlink:title=" ">
<polygon fill="white" stroke="black" points="666,-56.5 666,-75.5 721,-75.5 721,-56.5 666,-56.5"/>
<text text-anchor="middle" x="693.5" y="-63.5" font-family="Helvetica,sans-Serif" font-size="10.00">vec.hpp</text>
</a>
</g>
</g>
<!-- Node10&#45;&gt;Node11 -->
<g id="edge10" class="edge">
<title>Node10&#45;&gt;Node11</title>
<path fill="none" stroke="midnightblue" d="M791.17,-117.98C772.29,-108.12 740.99,-91.79 718.92,-80.27"/>
<polygon fill="midnightblue" stroke="midnightblue" points="720.29,-77.03 709.8,-75.51 717.05,-83.24 720.29,-77.03"/>
</g>
<!-- Node12 -->
<g id="node12" class="node">
<title>Node12</title>
<g id="a_node12"><a xlink:title=" ">
<polygon fill="white" stroke="#bfbfbf" points="659,-0.5 659,-19.5 728,-19.5 728,-0.5 659,-0.5"/>
<text text-anchor="middle" x="693.5" y="-7.5" font-family="Helvetica,sans-Serif" font-size="10.00">Eigen/Core</text>
</a>
</g>
</g>
<!-- Node11&#45;&gt;Node12 -->
<g id="edge11" class="edge">
<title>Node11&#45;&gt;Node12</title>
<path fill="none" stroke="midnightblue" d="M693.5,-56.08C693.5,-49.01 693.5,-38.86 693.5,-29.99"/>
<polygon fill="midnightblue" stroke="midnightblue" points="697,-29.75 693.5,-19.75 690,-29.75 697,-29.75"/>
</g>
<!-- Node13&#45;&gt;Node14 -->
<g id="edge13" class="edge">
<title>Node13&#45;&gt;Node14</title>
<path fill="none" stroke="midnightblue" d="M777.8,-179.4C761.03,-168.5 737.93,-153.48 721.17,-142.58"/>
<polygon fill="midnightblue" stroke="midnightblue" points="722.88,-139.52 712.59,-137.01 719.06,-145.39 722.88,-139.52"/>
</g>
<!-- Node15&#45;&gt;Node11 -->
<g id="edge15" class="edge">
<title>Node15&#45;&gt;Node11</title>
<path fill="none" stroke="midnightblue" d="M596.69,-117.98C615.4,-108.12 646.42,-91.79 668.3,-80.27"/>
<polygon fill="midnightblue" stroke="midnightblue" points="670.12,-83.27 677.34,-75.51 666.86,-77.07 670.12,-83.27"/>
</g>
<!-- Node16&#45;&gt;Node10 -->
<g id="edge17" class="edge">
<title>Node16&#45;&gt;Node10</title>
<path fill="none" stroke="midnightblue" d="M935.85,-184.87C910.41,-173.7 865.9,-154.15 836.55,-141.26"/>
<polygon fill="midnightblue" stroke="midnightblue" points="837.8,-137.98 827.23,-137.17 834.98,-144.39 837.8,-137.98"/>
</g>
<!-- Node16&#45;&gt;Node17 -->
<g id="edge18" class="edge">
<title>Node16&#45;&gt;Node17</title>
<path fill="none" stroke="midnightblue" d="M988.68,-184.97C1023.76,-175.68 1080.54,-159.88 1128.5,-143 1130.41,-142.33 1132.36,-141.61 1134.32,-140.86"/>
<polygon fill="midnightblue" stroke="midnightblue" points="1136.02,-143.95 1144.02,-137.01 1133.44,-137.45 1136.02,-143.95"/>
</g>
<!-- Node18 -->
<g id="node18" class="node">
<title>Node18</title>
<g id="a_node18"><a xlink:title=" ">
<polygon fill="white" stroke="#bfbfbf" points="890,-118 890,-137 955,-137 955,-118 890,-118"/>
<text text-anchor="middle" x="922.5" y="-125" font-family="Helvetica,sans-Serif" font-size="10.00">functional</text>
</a>
</g>
</g>
<!-- Node16&#45;&gt;Node18 -->
<g id="edge19" class="edge">
<title>Node16&#45;&gt;Node18</title>
<path fill="none" stroke="midnightblue" d="M951.05,-184.73C946.05,-174.89 937.81,-158.66 931.47,-146.16"/>
<polygon fill="midnightblue" stroke="midnightblue" points="934.53,-144.46 926.88,-137.13 928.29,-147.63 934.53,-144.46"/>
</g>
<!-- Node19 -->
<g id="node19" class="node">
<title>Node19</title>
<g id="a_node19"><a xlink:title=" ">
<polygon fill="white" stroke="#bfbfbf" points="973.5,-118 973.5,-137 1031.5,-137 1031.5,-118 973.5,-118"/>
<text text-anchor="middle" x="1002.5" y="-125" font-family="Helvetica,sans-Serif" font-size="10.00">memory</text>
</a>
</g>
</g>
<!-- Node16&#45;&gt;Node19 -->
<g id="edge20" class="edge">
<title>Node16&#45;&gt;Node19</title>
<path fill="none" stroke="midnightblue" d="M961.84,-184.73C969.1,-174.7 981.16,-158.01 990.26,-145.42"/>
<polygon fill="midnightblue" stroke="midnightblue" points="993.24,-147.28 996.26,-137.13 987.57,-143.18 993.24,-147.28"/>
</g>
<!-- Node20 -->
<g id="node20" class="node">
<title>Node20</title>
<g id="a_node20"><a xlink:title=" ">
<polygon fill="white" stroke="#bfbfbf" points="1050,-118 1050,-137 1119,-137 1119,-118 1050,-118"/>
<text text-anchor="middle" x="1084.5" y="-125" font-family="Helvetica,sans-Serif" font-size="10.00">type_traits</text>
</a>
</g>
</g>
<!-- Node16&#45;&gt;Node20 -->
<g id="edge21" class="edge">
<title>Node16&#45;&gt;Node20</title>
<path fill="none" stroke="midnightblue" d="M972.63,-184.87C994.51,-173.84 1032.59,-154.66 1058.17,-141.77"/>
<polygon fill="midnightblue" stroke="midnightblue" points="1059.94,-144.79 1067.3,-137.17 1056.79,-138.54 1059.94,-144.79"/>
</g>
<!-- Node22 -->
<g id="node22" class="node">
<title>Node22</title>
<g id="a_node22"><a xlink:title=" ">
<polygon fill="white" stroke="#bfbfbf" points="1207.5,-118 1207.5,-137 1255.5,-137 1255.5,-118 1207.5,-118"/>
<text text-anchor="middle" x="1231.5" y="-125" font-family="Helvetica,sans-Serif" font-size="10.00">iosfwd</text>
</a>
</g>
</g>
<!-- Node21&#45;&gt;Node22 -->
<g id="edge23" class="edge">
<title>Node21&#45;&gt;Node22</title>
<path fill="none" stroke="midnightblue" d="M1148.45,-184.73C1164.35,-173.96 1191.55,-155.55 1210.47,-142.74"/>
<polygon fill="midnightblue" stroke="midnightblue" points="1212.44,-145.63 1218.76,-137.13 1208.52,-139.84 1212.44,-145.63"/>
</g>
<!-- Node26&#45;&gt;Node6 -->
<g id="edge29" class="edge">
<title>Node26&#45;&gt;Node6</title>
<path fill="none" stroke="midnightblue" d="M1235.08,-246.4C1246.11,-237.54 1260.54,-225.96 1272.85,-216.09"/>
<polygon fill="midnightblue" stroke="midnightblue" points="1275.35,-218.56 1280.96,-209.58 1270.97,-213.11 1275.35,-218.56"/>
</g>
<!-- Node26&#45;&gt;Node8 -->
<g id="edge33" class="edge">
<title>Node26&#45;&gt;Node8</title>
<path fill="none" stroke="midnightblue" d="M1281.13,-253.47C1311.27,-246.92 1345.42,-234.3 1367.5,-210 1383.03,-192.9 1386.6,-165.6 1387.07,-147.37"/>
<polygon fill="midnightblue" stroke="midnightblue" points="1390.57,-147.35 1387.05,-137.36 1383.57,-147.37 1390.57,-147.35"/>
</g>
<!-- Node26&#45;&gt;Node13 -->
<g id="edge30" class="edge">
<title>Node26&#45;&gt;Node13</title>
<path fill="none" stroke="midnightblue" d="M1153.69,-252.32C1086.13,-243.41 976.14,-228.2 871.87,-210.18"/>
<polygon fill="midnightblue" stroke="midnightblue" points="872.25,-206.7 861.8,-208.43 871.05,-213.59 872.25,-206.7"/>
</g>
<!-- Node26&#45;&gt;Node16 -->
<g id="edge31" class="edge">
<title>Node26&#45;&gt;Node16</title>
<path fill="none" stroke="midnightblue" d="M1160.97,-246.48C1112.68,-234.5 1044.18,-217.5 999.79,-206.49"/>
<polygon fill="midnightblue" stroke="midnightblue" points="1000.43,-203.04 989.88,-204.03 998.74,-209.83 1000.43,-203.04"/>
</g>
<!-- Node26&#45;&gt;Node21 -->
<g id="edge32" class="edge">
<title>Node26&#45;&gt;Node21</title>
<path fill="none" stroke="midnightblue" d="M1199.71,-246.4C1186.42,-235.86 1168.27,-221.48 1154.66,-210.69"/>
<polygon fill="midnightblue" stroke="midnightblue" points="1156.48,-207.66 1146.47,-204.19 1152.13,-213.15 1156.48,-207.66"/>
</g>
</g>
</svg>
