<?xml version="1.0" encoding="UTF-8" standalone="no"?>
<!DOCTYPE svg PUBLIC "-//W3C//DTD SVG 1.1//EN"
 "http://www.w3.org/Graphics/SVG/1.1/DTD/svg11.dtd">
<!-- Generated by graphviz version 2.43.0 (0)
 -->
<!-- Title: lbfgs.hpp Pages: 1 -->
<svg width="884pt" height="196pt"
 viewBox="0.00 0.00 884.00 196.00" xmlns="http://www.w3.org/2000/svg" xmlns:xlink="http://www.w3.org/1999/xlink">
<g id="graph0" class="graph" transform="scale(1 1) rotate(0) translate(4 192)">
<title>lbfgs.hpp</title>
<polygon fill="white" stroke="transparent" points="-4,4 -4,-192 880,-192 880,4 -4,4"/>
<!-- Node1 -->
<g id="node1" class="node">
<title>Node1</title>
<g id="a_node1"><a xlink:title=" ">
<polygon fill="#bfbfbf" stroke="black" points="438,-168.5 438,-187.5 500,-187.5 500,-168.5 438,-168.5"/>
<text text-anchor="middle" x="469" y="-175.5" font-family="Helvetica,sans-Serif" font-size="10.00">lbfgs.hpp</text>
</a>
</g>
</g>
<!-- Node2 -->
<g id="node2" class="node">
<title>Node2</title>
<g id="a_node2"><a xlink:href="specialized-lbfgs_8hpp.html" target="_top" xlink:title=" ">
<polygon fill="white" stroke="black" points="0,-112.5 0,-131.5 120,-131.5 120,-112.5 0,-112.5"/>
<text text-anchor="middle" x="60" y="-119.5" font-family="Helvetica,sans-Serif" font-size="10.00">specialized&#45;lbfgs.hpp</text>
</a>
</g>
</g>
<!-- Node1&#45;&gt;Node2 -->
<g id="edge1" class="edge">
<title>Node1&#45;&gt;Node2</title>
<path fill="none" stroke="midnightblue" d="M427.8,-171.56C355.26,-161.98 204.43,-142.07 120.2,-130.95"/>
<polygon fill="midnightblue" stroke="midnightblue" points="427.55,-175.06 437.92,-172.9 428.47,-168.12 427.55,-175.06"/>
</g>
<!-- Node3 -->
<g id="node3" class="node">
<title>Node3</title>
<g id="a_node3"><a xlink:href="structured-panoc-lbfgs_8hpp.html" target="_top" xlink:title=" ">
<polygon fill="white" stroke="black" points="138,-112.5 138,-131.5 286,-131.5 286,-112.5 138,-112.5"/>
<text text-anchor="middle" x="212" y="-119.5" font-family="Helvetica,sans-Serif" font-size="10.00">structured&#45;panoc&#45;lbfgs.hpp</text>
</a>
</g>
</g>
<!-- Node1&#45;&gt;Node3 -->
<g id="edge2" class="edge">
<title>Node1&#45;&gt;Node3</title>
<path fill="none" stroke="midnightblue" d="M427.95,-168.37C379.9,-158.28 300.81,-141.66 252.85,-131.58"/>
<polygon fill="midnightblue" stroke="midnightblue" points="427.49,-171.86 438,-170.49 428.93,-165 427.49,-171.86"/>
</g>
<!-- Node4 -->
<g id="node4" class="node">
<title>Node4</title>
<g id="a_node4"><a xlink:href="panocpy_8cpp.html" target="_top" xlink:title="This file defines all Python bindings.">
<polygon fill="white" stroke="black" points="329.5,-0.5 329.5,-19.5 406.5,-19.5 406.5,-0.5 329.5,-0.5"/>
<text text-anchor="middle" x="368" y="-7.5" font-family="Helvetica,sans-Serif" font-size="10.00">panocpy.cpp</text>
</a>
</g>
</g>
<!-- Node1&#45;&gt;Node4 -->
<g id="edge5" class="edge">
<title>Node1&#45;&gt;Node4</title>
<path fill="none" stroke="midnightblue" d="M428.31,-166.51C407.22,-159.47 382.16,-148.42 364,-132 336.94,-107.54 321.16,-90.51 333,-56 338.01,-41.4 349.91,-27.88 358.44,-19.55"/>
<polygon fill="midnightblue" stroke="midnightblue" points="427.39,-169.89 437.98,-169.55 429.5,-163.21 427.39,-169.89"/>
</g>
<!-- Node6 -->
<g id="node6" class="node">
<title>Node6</title>
<g id="a_node6"><a xlink:href="polymorphic-inner-solver_8hpp.html" target="_top" xlink:title=" ">
<polygon fill="white" stroke="black" points="342,-56.5 342,-75.5 502,-75.5 502,-56.5 342,-56.5"/>
<text text-anchor="middle" x="422" y="-63.5" font-family="Helvetica,sans-Serif" font-size="10.00">polymorphic&#45;inner&#45;solver.hpp</text>
</a>
</g>
</g>
<!-- Node1&#45;&gt;Node6 -->
<g id="edge6" class="edge">
<title>Node1&#45;&gt;Node6</title>
<path fill="none" stroke="midnightblue" d="M428.29,-169.21C407.36,-162.92 383.65,-151.73 371,-132 357.3,-110.63 386.92,-87.74 406.51,-75.64"/>
<polygon fill="midnightblue" stroke="midnightblue" points="427.4,-172.6 437.97,-171.85 429.24,-165.84 427.4,-172.6"/>
</g>
<!-- Node7 -->
<g id="node7" class="node">
<title>Node7</title>
<g id="a_node7"><a xlink:href="polymorphic-panoc-direction_8hpp.html" target="_top" xlink:title=" ">
<polygon fill="white" stroke="black" points="380,-112.5 380,-131.5 558,-131.5 558,-112.5 380,-112.5"/>
<text text-anchor="middle" x="469" y="-119.5" font-family="Helvetica,sans-Serif" font-size="10.00">polymorphic&#45;panoc&#45;direction.hpp</text>
</a>
</g>
</g>
<!-- Node1&#45;&gt;Node7 -->
<g id="edge8" class="edge">
<title>Node1&#45;&gt;Node7</title>
<path fill="none" stroke="midnightblue" d="M469,-157.8C469,-148.91 469,-138.78 469,-131.75"/>
<polygon fill="midnightblue" stroke="midnightblue" points="465.5,-158.08 469,-168.08 472.5,-158.08 465.5,-158.08"/>
</g>
<!-- Node8 -->
<g id="node8" class="node">
<title>Node8</title>
<g id="a_node8"><a xlink:href="alm_8cpp.html" target="_top" xlink:title=" ">
<polygon fill="white" stroke="black" points="576,-112.5 576,-131.5 632,-131.5 632,-112.5 576,-112.5"/>
<text text-anchor="middle" x="604" y="-119.5" font-family="Helvetica,sans-Serif" font-size="10.00">alm.cpp</text>
</a>
</g>
</g>
<!-- Node1&#45;&gt;Node8 -->
<g id="edge11" class="edge">
<title>Node1&#45;&gt;Node8</title>
<path fill="none" stroke="midnightblue" d="M499.91,-164.64C525.24,-154.5 560.43,-140.43 582.71,-131.52"/>
<polygon fill="midnightblue" stroke="midnightblue" points="498.38,-161.48 490.39,-168.44 500.98,-167.98 498.38,-161.48"/>
</g>
<!-- Node9 -->
<g id="node9" class="node">
<title>Node9</title>
<g id="a_node9"><a xlink:href="lbfgs_8cpp.html" target="_top" xlink:title=" ">
<polygon fill="white" stroke="black" points="650.5,-112.5 650.5,-131.5 711.5,-131.5 711.5,-112.5 650.5,-112.5"/>
<text text-anchor="middle" x="681" y="-119.5" font-family="Helvetica,sans-Serif" font-size="10.00">lbfgs.cpp</text>
</a>
</g>
</g>
<!-- Node1&#45;&gt;Node9 -->
<g id="edge12" class="edge">
<title>Node1&#45;&gt;Node9</title>
<path fill="none" stroke="midnightblue" d="M509.98,-166.56C551.03,-156.1 613.29,-140.25 650.28,-130.83"/>
<polygon fill="midnightblue" stroke="midnightblue" points="509.11,-163.17 500.28,-169.03 510.84,-169.96 509.11,-163.17"/>
</g>
<!-- Node10 -->
<g id="node10" class="node">
<title>Node10</title>
<g id="a_node10"><a xlink:href="panoc_8cpp.html" target="_top" xlink:title=" ">
<polygon fill="white" stroke="black" points="730,-112.5 730,-131.5 796,-131.5 796,-112.5 730,-112.5"/>
<text text-anchor="middle" x="763" y="-119.5" font-family="Helvetica,sans-Serif" font-size="10.00">panoc.cpp</text>
</a>
</g>
</g>
<!-- Node1&#45;&gt;Node10 -->
<g id="edge13" class="edge">
<title>Node1&#45;&gt;Node10</title>
<path fill="none" stroke="midnightblue" d="M510.19,-170.09C560.15,-161.61 646.9,-146.55 721,-132 723.78,-131.45 726.66,-130.87 729.55,-130.28"/>
<polygon fill="midnightblue" stroke="midnightblue" points="509.38,-166.68 500.1,-171.8 510.54,-173.58 509.38,-166.68"/>
</g>
<!-- Node11 -->
<g id="node11" class="node">
<title>Node11</title>
<g id="a_node11"><a xlink:href="Presentation_2Cpp_2main_8cpp.html" target="_top" xlink:title=" ">
<polygon fill="white" stroke="black" points="814,-112.5 814,-131.5 876,-131.5 876,-112.5 814,-112.5"/>
<text text-anchor="middle" x="845" y="-119.5" font-family="Helvetica,sans-Serif" font-size="10.00">main.cpp</text>
</a>
</g>
</g>
<!-- Node1&#45;&gt;Node11 -->
<g id="edge14" class="edge">
<title>Node1&#45;&gt;Node11</title>
<path fill="none" stroke="midnightblue" d="M510.2,-172.67C573.74,-165.72 699.36,-150.92 805,-132 807.8,-131.5 810.71,-130.93 813.61,-130.34"/>
<polygon fill="midnightblue" stroke="midnightblue" points="509.74,-169.2 500.18,-173.75 510.5,-176.16 509.74,-169.2"/>
</g>
<!-- Node3&#45;&gt;Node4 -->
<g id="edge3" class="edge">
<title>Node3&#45;&gt;Node4</title>
<path fill="none" stroke="midnightblue" d="M175.1,-108.87C145.23,-97.11 110.87,-77.87 129,-56 154,-25.86 268.26,-15.77 329.29,-12.5"/>
<polygon fill="midnightblue" stroke="midnightblue" points="173.97,-112.19 184.56,-112.42 176.43,-105.64 173.97,-112.19"/>
</g>
<!-- Node5 -->
<g id="node5" class="node">
<title>Node5</title>
<g id="a_node5"><a xlink:href="structured-panoc-lbfgs_8cpp.html" target="_top" xlink:title=" ">
<polygon fill="white" stroke="black" points="138.5,-56.5 138.5,-75.5 285.5,-75.5 285.5,-56.5 138.5,-56.5"/>
<text text-anchor="middle" x="212" y="-63.5" font-family="Helvetica,sans-Serif" font-size="10.00">structured&#45;panoc&#45;lbfgs.cpp</text>
</a>
</g>
</g>
<!-- Node3&#45;&gt;Node5 -->
<g id="edge4" class="edge">
<title>Node3&#45;&gt;Node5</title>
<path fill="none" stroke="midnightblue" d="M212,-101.8C212,-92.91 212,-82.78 212,-75.75"/>
<polygon fill="midnightblue" stroke="midnightblue" points="208.5,-102.08 212,-112.08 215.5,-102.08 208.5,-102.08"/>
</g>
<!-- Node6&#45;&gt;Node4 -->
<g id="edge7" class="edge">
<title>Node6&#45;&gt;Node4</title>
<path fill="none" stroke="midnightblue" d="M406,-49C396.43,-39.43 384.64,-27.64 376.75,-19.75"/>
<polygon fill="midnightblue" stroke="midnightblue" points="403.54,-51.49 413.08,-56.08 408.49,-46.54 403.54,-51.49"/>
</g>
<!-- Node7&#45;&gt;Node4 -->
<g id="edge9" class="edge">
<title>Node7&#45;&gt;Node4</title>
<path fill="none" stroke="midnightblue" d="M489.74,-106.02C505.72,-92.63 523.18,-72.6 511,-56 487.29,-23.68 440.36,-13.96 406.72,-11.35"/>
<polygon fill="midnightblue" stroke="midnightblue" points="487.38,-103.43 481.69,-112.37 491.71,-108.93 487.38,-103.43"/>
</g>
<!-- Node7&#45;&gt;Node6 -->
<g id="edge10" class="edge">
<title>Node7&#45;&gt;Node6</title>
<path fill="none" stroke="midnightblue" d="M454.58,-104.43C446.34,-94.97 436.35,-83.48 429.62,-75.75"/>
<polygon fill="midnightblue" stroke="midnightblue" points="452.03,-106.84 461.24,-112.08 457.31,-102.24 452.03,-106.84"/>
</g>
</g>
</svg>
