<?xml version="1.0" encoding="UTF-8" standalone="no"?>
<!DOCTYPE svg PUBLIC "-//W3C//DTD SVG 1.1//EN"
 "http://www.w3.org/Graphics/SVG/1.1/DTD/svg11.dtd">
<!-- Generated by graphviz version 2.43.0 (0)
 -->
<!-- Title: lbfgspp.hpp Pages: 1 -->
<svg width="757pt" height="330pt"
 viewBox="0.00 0.00 757.22 330.00" xmlns="http://www.w3.org/2000/svg" xmlns:xlink="http://www.w3.org/1999/xlink">
<g id="graph0" class="graph" transform="scale(1 1) rotate(0) translate(4 326)">
<title>lbfgspp.hpp</title>
<polygon fill="white" stroke="transparent" points="-4,4 -4,-326 753.22,-326 753.22,4 -4,4"/>
<!-- Node1 -->
<g id="node1" class="node">
<title>Node1</title>
<g id="a_node1"><a xlink:title=" ">
<polygon fill="#bfbfbf" stroke="black" points="348.22,-302.5 348.22,-321.5 422.22,-321.5 422.22,-302.5 348.22,-302.5"/>
<text text-anchor="middle" x="385.22" y="-309.5" font-family="Helvetica,sans-Serif" font-size="10.00">lbfgspp.hpp</text>
</a>
</g>
</g>
<!-- Node2 -->
<g id="node2" class="node">
<title>Node2</title>
<g id="a_node2"><a xlink:href="atomic__stop__signal_8hpp.html" target="_top" xlink:title=" ">
<polygon fill="white" stroke="black" points="13.22,-168.5 13.22,-198.5 137.22,-198.5 137.22,-168.5 13.22,-168.5"/>
<text text-anchor="start" x="21.22" y="-186.5" font-family="Helvetica,sans-Serif" font-size="10.00">panoc&#45;alm/util/atomic</text>
<text text-anchor="middle" x="75.22" y="-175.5" font-family="Helvetica,sans-Serif" font-size="10.00">_stop_signal.hpp</text>
</a>
</g>
</g>
<!-- Node1&#45;&gt;Node2 -->
<g id="edge1" class="edge">
<title>Node1&#45;&gt;Node2</title>
<path fill="none" stroke="midnightblue" d="M347.96,-310.83C299.68,-309.11 214.21,-300.84 151.22,-266 125.5,-251.77 103.54,-225.73 89.93,-206.9"/>
<polygon fill="midnightblue" stroke="midnightblue" points="92.71,-204.77 84.12,-198.58 86.97,-208.78 92.71,-204.77"/>
</g>
<!-- Node3 -->
<g id="node3" class="node">
<title>Node3</title>
<g id="a_node3"><a xlink:title=" ">
<polygon fill="white" stroke="#bfbfbf" points="5.22,-112.5 5.22,-131.5 55.22,-131.5 55.22,-112.5 5.22,-112.5"/>
<text text-anchor="middle" x="30.22" y="-119.5" font-family="Helvetica,sans-Serif" font-size="10.00">atomic</text>
</a>
</g>
</g>
<!-- Node1&#45;&gt;Node3 -->
<g id="edge21" class="edge">
<title>Node1&#45;&gt;Node3</title>
<path fill="none" stroke="midnightblue" d="M347.97,-309.61C293.94,-306.55 191.4,-296.83 110.22,-266 58.12,-246.21 31.11,-247.81 4.22,-199 -6.24,-180.01 5.59,-156.05 16.5,-140.17"/>
<polygon fill="midnightblue" stroke="midnightblue" points="19.52,-141.97 22.64,-131.84 13.89,-137.81 19.52,-141.97"/>
</g>
<!-- Node4 -->
<g id="node4" class="node">
<title>Node4</title>
<g id="a_node4"><a xlink:href="panoc-helpers_8hpp.html" target="_top" xlink:title=" ">
<polygon fill="white" stroke="black" points="210.72,-235.5 210.72,-265.5 337.72,-265.5 337.72,-235.5 210.72,-235.5"/>
<text text-anchor="start" x="218.72" y="-253.5" font-family="Helvetica,sans-Serif" font-size="10.00">panoc&#45;alm/inner/detail</text>
<text text-anchor="middle" x="274.22" y="-242.5" font-family="Helvetica,sans-Serif" font-size="10.00">/panoc&#45;helpers.hpp</text>
</a>
</g>
</g>
<!-- Node1&#45;&gt;Node4 -->
<g id="edge3" class="edge">
<title>Node1&#45;&gt;Node4</title>
<path fill="none" stroke="midnightblue" d="M369.32,-302.48C353.72,-294.12 329.42,-281.09 309.29,-270.3"/>
<polygon fill="midnightblue" stroke="midnightblue" points="310.85,-267.16 300.38,-265.52 307.54,-273.33 310.85,-267.16"/>
</g>
<!-- Node7 -->
<g id="node7" class="node">
<title>Node7</title>
<g id="a_node7"><a xlink:title=" ">
<polygon fill="white" stroke="#bfbfbf" points="151.72,-112.5 151.72,-131.5 216.72,-131.5 216.72,-112.5 151.72,-112.5"/>
<text text-anchor="middle" x="184.22" y="-119.5" font-family="Helvetica,sans-Serif" font-size="10.00">stdexcept</text>
</a>
</g>
</g>
<!-- Node1&#45;&gt;Node7 -->
<g id="edge23" class="edge">
<title>Node1&#45;&gt;Node7</title>
<path fill="none" stroke="midnightblue" d="M348.16,-306.91C300.18,-300.81 220.4,-287.67 201.22,-266 170.51,-231.31 175.35,-171.9 180.37,-141.75"/>
<polygon fill="midnightblue" stroke="midnightblue" points="183.84,-142.2 182.23,-131.73 176.96,-140.93 183.84,-142.2"/>
</g>
<!-- Node8 -->
<g id="node8" class="node">
<title>Node8</title>
<g id="a_node8"><a xlink:href="include_2panoc-alm_2util_2problem_8hpp.html" target="_top" xlink:title=" ">
<polygon fill="white" stroke="black" points="369.22,-174 369.22,-193 521.22,-193 521.22,-174 369.22,-174"/>
<text text-anchor="middle" x="445.22" y="-181" font-family="Helvetica,sans-Serif" font-size="10.00">panoc&#45;alm/util/problem.hpp</text>
</a>
</g>
</g>
<!-- Node1&#45;&gt;Node8 -->
<g id="edge19" class="edge">
<title>Node1&#45;&gt;Node8</title>
<path fill="none" stroke="midnightblue" d="M383.75,-302.04C381.77,-287.25 379.59,-257.18 390.22,-235 397.3,-220.23 410.78,-207.74 422.63,-198.88"/>
<polygon fill="midnightblue" stroke="midnightblue" points="424.69,-201.7 430.85,-193.08 420.66,-195.98 424.69,-201.7"/>
</g>
<!-- Node16 -->
<g id="node16" class="node">
<title>Node16</title>
<g id="a_node16"><a xlink:href="solverstatus_8hpp.html" target="_top" xlink:title=" ">
<polygon fill="white" stroke="black" points="539.72,-174 539.72,-193 710.72,-193 710.72,-174 539.72,-174"/>
<text text-anchor="middle" x="625.22" y="-181" font-family="Helvetica,sans-Serif" font-size="10.00">panoc&#45;alm/util/solverstatus.hpp</text>
</a>
</g>
</g>
<!-- Node1&#45;&gt;Node16 -->
<g id="edge20" class="edge">
<title>Node1&#45;&gt;Node16</title>
<path fill="none" stroke="midnightblue" d="M387.01,-302.45C390.8,-286.61 401.13,-252.72 423.22,-235 444.24,-218.14 509.26,-203.79 559.93,-194.75"/>
<polygon fill="midnightblue" stroke="midnightblue" points="560.6,-198.18 569.85,-193.01 559.4,-191.29 560.6,-198.18"/>
</g>
<!-- Node18 -->
<g id="node18" class="node">
<title>Node18</title>
<g id="a_node18"><a xlink:title=" ">
<polygon fill="white" stroke="#bfbfbf" points="432.22,-241 432.22,-260 482.22,-260 482.22,-241 432.22,-241"/>
<text text-anchor="middle" x="457.22" y="-248" font-family="Helvetica,sans-Serif" font-size="10.00">chrono</text>
</a>
</g>
</g>
<!-- Node1&#45;&gt;Node18 -->
<g id="edge22" class="edge">
<title>Node1&#45;&gt;Node18</title>
<path fill="none" stroke="midnightblue" d="M395.54,-302.48C406.87,-293.11 425.29,-277.88 439.06,-266.51"/>
<polygon fill="midnightblue" stroke="midnightblue" points="441.44,-269.08 446.92,-260.01 436.99,-263.68 441.44,-269.08"/>
</g>
<!-- Node19 -->
<g id="node19" class="node">
<title>Node19</title>
<g id="a_node19"><a xlink:title=" ">
<polygon fill="white" stroke="#bfbfbf" points="500.22,-241 500.22,-260 544.22,-260 544.22,-241 500.22,-241"/>
<text text-anchor="middle" x="522.22" y="-248" font-family="Helvetica,sans-Serif" font-size="10.00">string</text>
</a>
</g>
</g>
<!-- Node1&#45;&gt;Node19 -->
<g id="edge24" class="edge">
<title>Node1&#45;&gt;Node19</title>
<path fill="none" stroke="midnightblue" d="M406.03,-302.42C427.48,-293.53 461.82,-279.11 491.22,-266 492.41,-265.47 493.62,-264.92 494.85,-264.37"/>
<polygon fill="midnightblue" stroke="midnightblue" points="496.62,-267.41 504.24,-260.04 493.69,-261.05 496.62,-267.41"/>
</g>
<!-- Node20 -->
<g id="node20" class="node">
<title>Node20</title>
<g id="a_node20"><a xlink:title=" ">
<polygon fill="white" stroke="#bfbfbf" points="562.72,-241 562.72,-260 619.72,-260 619.72,-241 562.72,-241"/>
<text text-anchor="middle" x="591.22" y="-248" font-family="Helvetica,sans-Serif" font-size="10.00">LBFGS.h</text>
</a>
</g>
</g>
<!-- Node1&#45;&gt;Node20 -->
<g id="edge25" class="edge">
<title>Node1&#45;&gt;Node20</title>
<path fill="none" stroke="midnightblue" d="M421.25,-302.49C455.49,-294.13 508.26,-280.56 553.22,-266 555.63,-265.22 558.11,-264.37 560.6,-263.49"/>
<polygon fill="midnightblue" stroke="midnightblue" points="561.87,-266.75 570.05,-260.02 559.46,-260.18 561.87,-266.75"/>
</g>
<!-- Node21 -->
<g id="node21" class="node">
<title>Node21</title>
<g id="a_node21"><a xlink:title=" ">
<polygon fill="white" stroke="#bfbfbf" points="638.22,-241 638.22,-260 702.22,-260 702.22,-241 638.22,-241"/>
<text text-anchor="middle" x="670.22" y="-248" font-family="Helvetica,sans-Serif" font-size="10.00">LBFGSB.h</text>
</a>
</g>
</g>
<!-- Node1&#45;&gt;Node21 -->
<g id="edge26" class="edge">
<title>Node1&#45;&gt;Node21</title>
<path fill="none" stroke="midnightblue" d="M422.24,-305.9C470.21,-298.9 556.24,-284.98 628.22,-266 631.25,-265.2 634.39,-264.29 637.51,-263.32"/>
<polygon fill="midnightblue" stroke="midnightblue" points="638.89,-266.55 647.3,-260.1 636.71,-259.9 638.89,-266.55"/>
</g>
<!-- Node2&#45;&gt;Node3 -->
<g id="edge2" class="edge">
<title>Node2&#45;&gt;Node3</title>
<path fill="none" stroke="midnightblue" d="M64.56,-168.4C58.08,-159.84 49.79,-148.87 42.97,-139.86"/>
<polygon fill="midnightblue" stroke="midnightblue" points="45.59,-137.52 36.77,-131.66 40.01,-141.74 45.59,-137.52"/>
</g>
<!-- Node4&#45;&gt;Node2 -->
<g id="edge7" class="edge">
<title>Node4&#45;&gt;Node2</title>
<path fill="none" stroke="midnightblue" d="M231.04,-235.4C200.79,-225.52 160.19,-212.25 128.01,-201.74"/>
<polygon fill="midnightblue" stroke="midnightblue" points="128.91,-198.35 118.32,-198.58 126.73,-205.01 128.91,-198.35"/>
</g>
<!-- Node5 -->
<g id="node5" class="node">
<title>Node5</title>
<g id="a_node5"><a xlink:href="panoc-stop-crit_8hpp.html" target="_top" xlink:title=" ">
<polygon fill="white" stroke="black" points="231.72,-168.5 231.72,-198.5 350.72,-198.5 350.72,-168.5 231.72,-168.5"/>
<text text-anchor="start" x="239.72" y="-186.5" font-family="Helvetica,sans-Serif" font-size="10.00">panoc&#45;alm/inner/decl</text>
<text text-anchor="middle" x="291.22" y="-175.5" font-family="Helvetica,sans-Serif" font-size="10.00">/panoc&#45;stop&#45;crit.hpp</text>
</a>
</g>
</g>
<!-- Node4&#45;&gt;Node5 -->
<g id="edge4" class="edge">
<title>Node4&#45;&gt;Node5</title>
<path fill="none" stroke="midnightblue" d="M277.91,-235.4C279.98,-227.47 282.62,-217.38 285,-208.27"/>
<polygon fill="midnightblue" stroke="midnightblue" points="288.39,-209.14 287.54,-198.58 281.62,-207.37 288.39,-209.14"/>
</g>
<!-- Node4&#45;&gt;Node7 -->
<g id="edge18" class="edge">
<title>Node4&#45;&gt;Node7</title>
<path fill="none" stroke="midnightblue" d="M256.83,-235.3C245.96,-225.81 232.18,-212.61 222.22,-199 208.91,-180.82 197.96,-157.27 191.28,-141.24"/>
<polygon fill="midnightblue" stroke="midnightblue" points="194.35,-139.48 187.37,-131.5 187.85,-142.09 194.35,-139.48"/>
</g>
<!-- Node4&#45;&gt;Node8 -->
<g id="edge8" class="edge">
<title>Node4&#45;&gt;Node8</title>
<path fill="none" stroke="midnightblue" d="M311.32,-235.4C341.73,-223.84 384.3,-207.66 413.22,-196.66"/>
<polygon fill="midnightblue" stroke="midnightblue" points="414.74,-199.83 422.84,-193.01 412.25,-193.29 414.74,-199.83"/>
</g>
<!-- Node4&#45;&gt;Node16 -->
<g id="edge16" class="edge">
<title>Node4&#45;&gt;Node16</title>
<path fill="none" stroke="midnightblue" d="M337.78,-237.73C403.75,-225.51 505.93,-206.59 569.03,-194.91"/>
<polygon fill="midnightblue" stroke="midnightblue" points="569.99,-198.29 579.19,-193.02 568.72,-191.4 569.99,-198.29"/>
</g>
<!-- Node6 -->
<g id="node6" class="node">
<title>Node6</title>
<g id="a_node6"><a xlink:title=" ">
<polygon fill="white" stroke="#bfbfbf" points="234.72,-112.5 234.72,-131.5 291.72,-131.5 291.72,-112.5 234.72,-112.5"/>
<text text-anchor="middle" x="263.22" y="-119.5" font-family="Helvetica,sans-Serif" font-size="10.00">ostream</text>
</a>
</g>
</g>
<!-- Node5&#45;&gt;Node6 -->
<g id="edge5" class="edge">
<title>Node5&#45;&gt;Node6</title>
<path fill="none" stroke="midnightblue" d="M284.58,-168.4C280.68,-160.11 275.72,-149.55 271.55,-140.71"/>
<polygon fill="midnightblue" stroke="midnightblue" points="274.72,-139.22 267.29,-131.66 268.39,-142.2 274.72,-139.22"/>
</g>
<!-- Node5&#45;&gt;Node7 -->
<g id="edge6" class="edge">
<title>Node5&#45;&gt;Node7</title>
<path fill="none" stroke="midnightblue" d="M265.86,-168.4C248.55,-158.77 225.74,-146.09 208.64,-136.58"/>
<polygon fill="midnightblue" stroke="midnightblue" points="210.23,-133.46 199.79,-131.66 206.83,-139.58 210.23,-133.46"/>
</g>
<!-- Node9 -->
<g id="node9" class="node">
<title>Node9</title>
<g id="a_node9"><a xlink:href="box_8hpp.html" target="_top" xlink:title=" ">
<polygon fill="white" stroke="black" points="557.22,-112.5 557.22,-131.5 613.22,-131.5 613.22,-112.5 557.22,-112.5"/>
<text text-anchor="middle" x="585.22" y="-119.5" font-family="Helvetica,sans-Serif" font-size="10.00">box.hpp</text>
</a>
</g>
</g>
<!-- Node8&#45;&gt;Node9 -->
<g id="edge9" class="edge">
<title>Node8&#45;&gt;Node9</title>
<path fill="none" stroke="midnightblue" d="M465.28,-173.98C488.98,-163.9 528.63,-147.05 555.8,-135.5"/>
<polygon fill="midnightblue" stroke="midnightblue" points="557.36,-138.64 565.2,-131.51 554.63,-132.2 557.36,-138.64"/>
</g>
<!-- Node12 -->
<g id="node12" class="node">
<title>Node12</title>
<g id="a_node12"><a xlink:title=" ">
<polygon fill="white" stroke="#bfbfbf" points="631.22,-112.5 631.22,-131.5 683.22,-131.5 683.22,-112.5 631.22,-112.5"/>
<text text-anchor="middle" x="657.22" y="-119.5" font-family="Helvetica,sans-Serif" font-size="10.00">cassert</text>
</a>
</g>
</g>
<!-- Node8&#45;&gt;Node12 -->
<g id="edge12" class="edge">
<title>Node8&#45;&gt;Node12</title>
<path fill="none" stroke="midnightblue" d="M475.59,-173.98C514.01,-163.19 580.09,-144.65 621.07,-133.15"/>
<polygon fill="midnightblue" stroke="midnightblue" points="622.23,-136.46 630.91,-130.38 620.34,-129.72 622.23,-136.46"/>
</g>
<!-- Node13 -->
<g id="node13" class="node">
<title>Node13</title>
<g id="a_node13"><a xlink:title=" ">
<polygon fill="white" stroke="#bfbfbf" points="309.72,-112.5 309.72,-131.5 374.72,-131.5 374.72,-112.5 309.72,-112.5"/>
<text text-anchor="middle" x="342.22" y="-119.5" font-family="Helvetica,sans-Serif" font-size="10.00">functional</text>
</a>
</g>
</g>
<!-- Node8&#45;&gt;Node13 -->
<g id="edge13" class="edge">
<title>Node8&#45;&gt;Node13</title>
<path fill="none" stroke="midnightblue" d="M430.46,-173.98C413.56,-164.21 385.64,-148.08 365.73,-136.58"/>
<polygon fill="midnightblue" stroke="midnightblue" points="367.36,-133.48 356.95,-131.51 363.86,-139.54 367.36,-133.48"/>
</g>
<!-- Node14 -->
<g id="node14" class="node">
<title>Node14</title>
<g id="a_node14"><a xlink:title=" ">
<polygon fill="white" stroke="#bfbfbf" points="393.22,-112.5 393.22,-131.5 451.22,-131.5 451.22,-112.5 393.22,-112.5"/>
<text text-anchor="middle" x="422.22" y="-119.5" font-family="Helvetica,sans-Serif" font-size="10.00">memory</text>
</a>
</g>
</g>
<!-- Node8&#45;&gt;Node14 -->
<g id="edge14" class="edge">
<title>Node8&#45;&gt;Node14</title>
<path fill="none" stroke="midnightblue" d="M441.92,-173.98C438.61,-165.4 433.4,-151.93 429.17,-140.98"/>
<polygon fill="midnightblue" stroke="midnightblue" points="432.38,-139.57 425.51,-131.51 425.85,-142.1 432.38,-139.57"/>
</g>
<!-- Node15 -->
<g id="node15" class="node">
<title>Node15</title>
<g id="a_node15"><a xlink:title=" ">
<polygon fill="white" stroke="#bfbfbf" points="469.72,-112.5 469.72,-131.5 538.72,-131.5 538.72,-112.5 469.72,-112.5"/>
<text text-anchor="middle" x="504.22" y="-119.5" font-family="Helvetica,sans-Serif" font-size="10.00">type_traits</text>
</a>
</g>
</g>
<!-- Node8&#45;&gt;Node15 -->
<g id="edge15" class="edge">
<title>Node8&#45;&gt;Node15</title>
<path fill="none" stroke="midnightblue" d="M453.67,-173.98C462.79,-164.78 477.49,-149.96 488.7,-138.66"/>
<polygon fill="midnightblue" stroke="midnightblue" points="491.23,-141.07 495.78,-131.51 486.26,-136.15 491.23,-141.07"/>
</g>
<!-- Node10 -->
<g id="node10" class="node">
<title>Node10</title>
<g id="a_node10"><a xlink:href="vec_8hpp.html" target="_top" xlink:title=" ">
<polygon fill="white" stroke="black" points="557.72,-56.5 557.72,-75.5 612.72,-75.5 612.72,-56.5 557.72,-56.5"/>
<text text-anchor="middle" x="585.22" y="-63.5" font-family="Helvetica,sans-Serif" font-size="10.00">vec.hpp</text>
</a>
</g>
</g>
<!-- Node9&#45;&gt;Node10 -->
<g id="edge10" class="edge">
<title>Node9&#45;&gt;Node10</title>
<path fill="none" stroke="midnightblue" d="M585.22,-112.08C585.22,-105.01 585.22,-94.86 585.22,-85.99"/>
<polygon fill="midnightblue" stroke="midnightblue" points="588.72,-85.75 585.22,-75.75 581.72,-85.75 588.72,-85.75"/>
</g>
<!-- Node11 -->
<g id="node11" class="node">
<title>Node11</title>
<g id="a_node11"><a xlink:title=" ">
<polygon fill="white" stroke="#bfbfbf" points="550.72,-0.5 550.72,-19.5 619.72,-19.5 619.72,-0.5 550.72,-0.5"/>
<text text-anchor="middle" x="585.22" y="-7.5" font-family="Helvetica,sans-Serif" font-size="10.00">Eigen/Core</text>
</a>
</g>
</g>
<!-- Node10&#45;&gt;Node11 -->
<g id="edge11" class="edge">
<title>Node10&#45;&gt;Node11</title>
<path fill="none" stroke="midnightblue" d="M585.22,-56.08C585.22,-49.01 585.22,-38.86 585.22,-29.99"/>
<polygon fill="midnightblue" stroke="midnightblue" points="588.72,-29.75 585.22,-19.75 581.72,-29.75 588.72,-29.75"/>
</g>
<!-- Node17 -->
<g id="node17" class="node">
<title>Node17</title>
<g id="a_node17"><a xlink:title=" ">
<polygon fill="white" stroke="#bfbfbf" points="701.22,-112.5 701.22,-131.5 749.22,-131.5 749.22,-112.5 701.22,-112.5"/>
<text text-anchor="middle" x="725.22" y="-119.5" font-family="Helvetica,sans-Serif" font-size="10.00">iosfwd</text>
</a>
</g>
</g>
<!-- Node16&#45;&gt;Node17 -->
<g id="edge17" class="edge">
<title>Node16&#45;&gt;Node17</title>
<path fill="none" stroke="midnightblue" d="M639.55,-173.98C655.88,-164.25 682.82,-148.23 702.13,-136.74"/>
<polygon fill="midnightblue" stroke="midnightblue" points="704.11,-139.63 710.92,-131.51 700.54,-133.61 704.11,-139.63"/>
</g>
</g>
</svg>
