<?xml version="1.0" encoding="UTF-8" standalone="no"?>
<!DOCTYPE svg PUBLIC "-//W3C//DTD SVG 1.1//EN"
 "http://www.w3.org/Graphics/SVG/1.1/DTD/svg11.dtd">
<!-- Generated by graphviz version 2.43.0 (0)
 -->
<!-- Title: lbfgs.hpp Pages: 1 -->
<svg width="405pt" height="330pt"
 viewBox="0.00 0.00 405.00 330.00" xmlns="http://www.w3.org/2000/svg" xmlns:xlink="http://www.w3.org/1999/xlink">
<g id="graph0" class="graph" transform="scale(1 1) rotate(0) translate(4 326)">
<title>lbfgs.hpp</title>
<polygon fill="white" stroke="transparent" points="-4,4 -4,-326 401,-326 401,4 -4,4"/>
<!-- Node1 -->
<g id="node1" class="node">
<title>Node1</title>
<g id="a_node1"><a xlink:title=" ">
<polygon fill="#bfbfbf" stroke="black" points="109.5,-302.5 109.5,-321.5 171.5,-321.5 171.5,-302.5 109.5,-302.5"/>
<text text-anchor="middle" x="140.5" y="-309.5" font-family="Helvetica,sans-Serif" font-size="10.00">lbfgs.hpp</text>
</a>
</g>
</g>
<!-- Node2 -->
<g id="node2" class="node">
<title>Node2</title>
<g id="a_node2"><a xlink:href="decl_2lbfgs_8hpp.html" target="_top" xlink:title=" ">
<polygon fill="white" stroke="black" points="4,-235.5 4,-265.5 151,-265.5 151,-235.5 4,-235.5"/>
<text text-anchor="start" x="12" y="-253.5" font-family="Helvetica,sans-Serif" font-size="10.00">panoc&#45;alm/inner/directions</text>
<text text-anchor="middle" x="77.5" y="-242.5" font-family="Helvetica,sans-Serif" font-size="10.00">/decl/lbfgs.hpp</text>
</a>
</g>
</g>
<!-- Node1&#45;&gt;Node2 -->
<g id="edge1" class="edge">
<title>Node1&#45;&gt;Node2</title>
<path fill="none" stroke="midnightblue" d="M131.47,-302.48C123.26,-294.72 110.79,-282.94 99.91,-272.66"/>
<polygon fill="midnightblue" stroke="midnightblue" points="102.02,-269.84 92.35,-265.52 97.21,-274.93 102.02,-269.84"/>
</g>
<!-- Node8 -->
<g id="node8" class="node">
<title>Node8</title>
<g id="a_node8"><a xlink:title=" ">
<polygon fill="white" stroke="#bfbfbf" points="169,-241 169,-260 238,-260 238,-241 169,-241"/>
<text text-anchor="middle" x="203.5" y="-248" font-family="Helvetica,sans-Serif" font-size="10.00">type_traits</text>
</a>
</g>
</g>
<!-- Node1&#45;&gt;Node8 -->
<g id="edge9" class="edge">
<title>Node1&#45;&gt;Node8</title>
<path fill="none" stroke="midnightblue" d="M149.53,-302.48C159.26,-293.28 174.96,-278.46 186.92,-267.16"/>
<polygon fill="midnightblue" stroke="midnightblue" points="189.62,-269.42 194.49,-260.01 184.82,-264.33 189.62,-269.42"/>
</g>
<!-- Node3 -->
<g id="node3" class="node">
<title>Node3</title>
<g id="a_node3"><a xlink:href="box_8hpp.html" target="_top" xlink:title=" ">
<polygon fill="white" stroke="black" points="17,-112.5 17,-131.5 146,-131.5 146,-112.5 17,-112.5"/>
<text text-anchor="middle" x="81.5" y="-119.5" font-family="Helvetica,sans-Serif" font-size="10.00">panoc&#45;alm/util/box.hpp</text>
</a>
</g>
</g>
<!-- Node2&#45;&gt;Node3 -->
<g id="edge2" class="edge">
<title>Node2&#45;&gt;Node3</title>
<path fill="none" stroke="midnightblue" d="M65.96,-235.49C58.81,-225.88 50.3,-212.46 46.5,-199 42.76,-185.74 42.03,-181.03 46.5,-168 50.22,-157.16 57.73,-146.92 64.85,-138.96"/>
<polygon fill="midnightblue" stroke="midnightblue" points="67.55,-141.19 71.94,-131.55 62.5,-136.35 67.55,-141.19"/>
</g>
<!-- Node4 -->
<g id="node4" class="node">
<title>Node4</title>
<g id="a_node4"><a xlink:href="vec_8hpp.html" target="_top" xlink:title=" ">
<polygon fill="white" stroke="black" points="7,-56.5 7,-75.5 62,-75.5 62,-56.5 7,-56.5"/>
<text text-anchor="middle" x="34.5" y="-63.5" font-family="Helvetica,sans-Serif" font-size="10.00">vec.hpp</text>
</a>
</g>
</g>
<!-- Node2&#45;&gt;Node4 -->
<g id="edge5" class="edge">
<title>Node2&#45;&gt;Node4</title>
<path fill="none" stroke="midnightblue" d="M64.93,-235.24C47.56,-214.36 17.35,-173.41 8.5,-132 6.64,-123.31 6.2,-120.59 8.5,-112 11.15,-102.1 16.57,-92.13 21.77,-84.1"/>
<polygon fill="midnightblue" stroke="midnightblue" points="24.79,-85.89 27.61,-75.68 19.04,-81.91 24.79,-85.89"/>
</g>
<!-- Node6 -->
<g id="node6" class="node">
<title>Node6</title>
<g id="a_node6"><a xlink:href="lbfgs-fwd_8hpp.html" target="_top" xlink:title=" ">
<polygon fill="white" stroke="black" points="55,-168.5 55,-198.5 202,-198.5 202,-168.5 55,-168.5"/>
<text text-anchor="start" x="63" y="-186.5" font-family="Helvetica,sans-Serif" font-size="10.00">panoc&#45;alm/inner/directions</text>
<text text-anchor="middle" x="128.5" y="-175.5" font-family="Helvetica,sans-Serif" font-size="10.00">/decl/lbfgs&#45;fwd.hpp</text>
</a>
</g>
</g>
<!-- Node2&#45;&gt;Node6 -->
<g id="edge6" class="edge">
<title>Node2&#45;&gt;Node6</title>
<path fill="none" stroke="midnightblue" d="M88.57,-235.4C95.18,-226.96 103.73,-216.07 111.22,-206.52"/>
<polygon fill="midnightblue" stroke="midnightblue" points="114.04,-208.6 117.46,-198.58 108.53,-204.28 114.04,-208.6"/>
</g>
<!-- Node7 -->
<g id="node7" class="node">
<title>Node7</title>
<g id="a_node7"><a xlink:href="panoc-direction-update_8hpp.html" target="_top" xlink:title=" ">
<polygon fill="white" stroke="black" points="220,-168.5 220,-198.5 397,-198.5 397,-168.5 220,-168.5"/>
<text text-anchor="start" x="228" y="-186.5" font-family="Helvetica,sans-Serif" font-size="10.00">panoc&#45;alm/inner/directions</text>
<text text-anchor="middle" x="308.5" y="-175.5" font-family="Helvetica,sans-Serif" font-size="10.00">/decl/panoc&#45;direction&#45;update.hpp</text>
</a>
</g>
</g>
<!-- Node2&#45;&gt;Node7 -->
<g id="edge7" class="edge">
<title>Node2&#45;&gt;Node7</title>
<path fill="none" stroke="midnightblue" d="M127.34,-235.48C162.89,-225.47 210.87,-211.97 248.52,-201.38"/>
<polygon fill="midnightblue" stroke="midnightblue" points="249.67,-204.69 258.35,-198.61 247.78,-197.95 249.67,-204.69"/>
</g>
<!-- Node3&#45;&gt;Node4 -->
<g id="edge3" class="edge">
<title>Node3&#45;&gt;Node4</title>
<path fill="none" stroke="midnightblue" d="M73.74,-112.08C66.96,-104.3 56.96,-92.8 48.74,-83.37"/>
<polygon fill="midnightblue" stroke="midnightblue" points="51.32,-81 42.12,-75.75 46.04,-85.59 51.32,-81"/>
</g>
<!-- Node5 -->
<g id="node5" class="node">
<title>Node5</title>
<g id="a_node5"><a xlink:title=" ">
<polygon fill="white" stroke="#bfbfbf" points="0,-0.5 0,-19.5 69,-19.5 69,-0.5 0,-0.5"/>
<text text-anchor="middle" x="34.5" y="-7.5" font-family="Helvetica,sans-Serif" font-size="10.00">Eigen/Core</text>
</a>
</g>
</g>
<!-- Node4&#45;&gt;Node5 -->
<g id="edge4" class="edge">
<title>Node4&#45;&gt;Node5</title>
<path fill="none" stroke="midnightblue" d="M34.5,-56.08C34.5,-49.01 34.5,-38.86 34.5,-29.99"/>
<polygon fill="midnightblue" stroke="midnightblue" points="38,-29.75 34.5,-19.75 31,-29.75 38,-29.75"/>
</g>
<!-- Node7&#45;&gt;Node3 -->
<g id="edge8" class="edge">
<title>Node7&#45;&gt;Node3</title>
<path fill="none" stroke="midnightblue" d="M254.99,-168.47C214.97,-157.99 160.99,-143.84 123.93,-134.12"/>
<polygon fill="midnightblue" stroke="midnightblue" points="124.51,-130.66 113.95,-131.51 122.74,-137.43 124.51,-130.66"/>
</g>
</g>
</svg>
