<?xml version="1.0" encoding="UTF-8" standalone="no"?>
<!DOCTYPE svg PUBLIC "-//W3C//DTD SVG 1.1//EN"
 "http://www.w3.org/Graphics/SVG/1.1/DTD/svg11.dtd">
<!-- Generated by graphviz version 2.43.0 (0)
 -->
<!-- Title: projected_gradient_step Pages: 1 -->
<svg width="924pt" height="320pt"
 viewBox="0.00 0.00 924.00 320.24" xmlns="http://www.w3.org/2000/svg" xmlns:xlink="http://www.w3.org/1999/xlink">
<g id="graph0" class="graph" transform="scale(1 1) rotate(0) translate(4 316.24)">
<title>projected_gradient_step</title>
<polygon fill="white" stroke="transparent" points="-4,4 -4,-316.24 920,-316.24 920,4 -4,4"/>
<!-- Node1 -->
<g id="node1" class="node">
<title>Node1</title>
<g id="a_node1"><a xlink:title="Projected gradient step.">
<polygon fill="#bfbfbf" stroke="black" points="782,-169.5 782,-188.5 916,-188.5 916,-169.5 782,-169.5"/>
<text text-anchor="middle" x="849" y="-176.5" font-family="Helvetica,sans-Serif" font-size="10.00">projected_gradient_step</text>
</a>
</g>
</g>
<!-- Node2 -->
<g id="node2" class="node">
<title>Node2</title>
<g id="a_node2"><a xlink:href="namespacepa_1_1detail.html#a886972efd9fe413c62efea5eb2cdd0e9" target="_top" xlink:title=" ">
<polygon fill="white" stroke="black" points="471,-245.5 471,-264.5 583,-264.5 583,-245.5 471,-245.5"/>
<text text-anchor="middle" x="527" y="-252.5" font-family="Helvetica,sans-Serif" font-size="10.00">calc_error_stop_crit</text>
</a>
</g>
</g>
<!-- Node1&#45;&gt;Node2 -->
<g id="edge1" class="edge">
<title>Node1&#45;&gt;Node2</title>
<path fill="none" stroke="midnightblue" d="M798.01,-190.87C734.55,-205.94 626.34,-231.64 568.04,-245.49"/>
<polygon fill="midnightblue" stroke="midnightblue" points="798.88,-194.26 807.8,-188.55 797.26,-187.45 798.88,-194.26"/>
</g>
<!-- Node10 -->
<g id="node10" class="node">
<title>Node10</title>
<g id="a_node10"><a xlink:href="namespacepa_1_1detail.html#ac32d0e6b012b801731e55225b7505fa9" target="_top" xlink:title=" ">
<polygon fill="white" stroke="black" points="661.5,-169.5 661.5,-188.5 708.5,-188.5 708.5,-169.5 661.5,-169.5"/>
<text text-anchor="middle" x="685" y="-176.5" font-family="Helvetica,sans-Serif" font-size="10.00">calc_x̂</text>
</a>
</g>
</g>
<!-- Node1&#45;&gt;Node10 -->
<g id="edge9" class="edge">
<title>Node1&#45;&gt;Node10</title>
<path fill="none" stroke="midnightblue" d="M771.49,-179C748.5,-179 725.03,-179 708.51,-179"/>
<polygon fill="midnightblue" stroke="midnightblue" points="771.64,-182.5 781.64,-179 771.64,-175.5 771.64,-182.5"/>
</g>
<!-- Node13 -->
<g id="node13" class="node">
<title>Node13</title>
<g id="a_node13"><a xlink:href="classpa_1_1SpecializedLBFGS.html#a0b030867dbee1f90710a9b23360807a3" target="_top" xlink:title="L&#45;BFGS update when changing the step size γ, recomputing everything.">
<polygon fill="white" stroke="black" points="624,-63 624,-93 746,-93 746,-63 624,-63"/>
<text text-anchor="start" x="632" y="-81" font-family="Helvetica,sans-Serif" font-size="10.00">pa::SpecializedLBFGS</text>
<text text-anchor="middle" x="685" y="-70" font-family="Helvetica,sans-Serif" font-size="10.00">::full_update</text>
</a>
</g>
</g>
<!-- Node1&#45;&gt;Node13 -->
<g id="edge23" class="edge">
<title>Node1&#45;&gt;Node13</title>
<path fill="none" stroke="midnightblue" d="M824.03,-164.05C793.45,-144.99 740.87,-112.21 710.19,-93.08"/>
<polygon fill="midnightblue" stroke="midnightblue" points="822.42,-167.18 832.76,-169.5 826.13,-161.24 822.42,-167.18"/>
</g>
<!-- Node3 -->
<g id="node3" class="node">
<title>Node3</title>
<g id="a_node3"><a xlink:href="classpa_1_1SecondOrderPANOCSolver.html#acb04b3f19dafad9b4e7e7c1c19018d19" target="_top" xlink:title=" ">
<polygon fill="white" stroke="black" points="259,-158 259,-188 420,-188 420,-158 259,-158"/>
<text text-anchor="start" x="267" y="-176" font-family="Helvetica,sans-Serif" font-size="10.00">pa::SecondOrderPANOCSolver</text>
<text text-anchor="middle" x="339.5" y="-165" font-family="Helvetica,sans-Serif" font-size="10.00">::operator()</text>
</a>
</g>
</g>
<!-- Node2&#45;&gt;Node3 -->
<g id="edge2" class="edge">
<title>Node2&#45;&gt;Node3</title>
<path fill="none" stroke="midnightblue" d="M504.15,-239.75C485.24,-227.13 456.8,-209.46 430,-198 421.4,-194.32 412.1,-191.03 402.86,-188.13"/>
<polygon fill="midnightblue" stroke="midnightblue" points="502.38,-242.78 512.62,-245.5 506.31,-236.99 502.38,-242.78"/>
</g>
<!-- Node4 -->
<g id="node4" class="node">
<title>Node4</title>
<g id="a_node4"><a xlink:href="classpa_1_1StructuredPANOCLBFGSSolver.html#ade95d8a7a1892d4087d6fffc958cde6e" target="_top" xlink:title=" ">
<polygon fill="white" stroke="black" points="249,-109 249,-139 430,-139 430,-109 249,-109"/>
<text text-anchor="start" x="257" y="-127" font-family="Helvetica,sans-Serif" font-size="10.00">pa::StructuredPANOCLBFGSSolver</text>
<text text-anchor="middle" x="339.5" y="-116" font-family="Helvetica,sans-Serif" font-size="10.00">::operator()</text>
</a>
</g>
</g>
<!-- Node2&#45;&gt;Node4 -->
<g id="edge3" class="edge">
<title>Node2&#45;&gt;Node4</title>
<path fill="none" stroke="midnightblue" d="M506.97,-238.6C494.71,-227.64 478.74,-212.6 466,-198 448,-177.37 452.53,-163.56 430,-148 424.97,-144.53 419.46,-141.55 413.73,-139.01"/>
<polygon fill="midnightblue" stroke="midnightblue" points="504.97,-241.5 514.78,-245.48 509.59,-236.24 504.97,-241.5"/>
</g>
<!-- Node5 -->
<g id="node5" class="node">
<title>Node5</title>
<g id="a_node5"><a xlink:href="classpa_1_1GAAPGASolver.html#a570ec001ea8eee359be8a1b90b782cfb" target="_top" xlink:title=" ">
<polygon fill="white" stroke="black" points="259,-283.5 259,-302.5 420,-302.5 420,-283.5 259,-283.5"/>
<text text-anchor="middle" x="339.5" y="-290.5" font-family="Helvetica,sans-Serif" font-size="10.00">pa::GAAPGASolver::operator()</text>
</a>
</g>
</g>
<!-- Node2&#45;&gt;Node5 -->
<g id="edge4" class="edge">
<title>Node2&#45;&gt;Node5</title>
<path fill="none" stroke="midnightblue" d="M469.33,-266.61C442.94,-272.01 411.95,-278.36 386.97,-283.48"/>
<polygon fill="midnightblue" stroke="midnightblue" points="470.1,-270.02 479.19,-264.59 468.69,-263.17 470.1,-270.02"/>
</g>
<!-- Node6 -->
<g id="node6" class="node">
<title>Node6</title>
<g id="a_node6"><a xlink:href="classpa_1_1PGASolver.html#af516b794e244432023aea7ba3cd0d1d8" target="_top" xlink:title=" ">
<polygon fill="white" stroke="black" points="269.5,-245.5 269.5,-264.5 409.5,-264.5 409.5,-245.5 269.5,-245.5"/>
<text text-anchor="middle" x="339.5" y="-252.5" font-family="Helvetica,sans-Serif" font-size="10.00">pa::PGASolver::operator()</text>
</a>
</g>
</g>
<!-- Node2&#45;&gt;Node6 -->
<g id="edge5" class="edge">
<title>Node2&#45;&gt;Node6</title>
<path fill="none" stroke="midnightblue" d="M460.73,-255C444.17,-255 426.33,-255 409.59,-255"/>
<polygon fill="midnightblue" stroke="midnightblue" points="460.85,-258.5 470.85,-255 460.85,-251.5 460.85,-258.5"/>
</g>
<!-- Node7 -->
<g id="node7" class="node">
<title>Node7</title>
<g id="a_node7"><a xlink:href="namespacepa.html#a2b97bf67604c439eca0a540664930d61" target="_top" xlink:title=" ">
<polygon fill="white" stroke="black" points="294,-207.5 294,-226.5 385,-226.5 385,-207.5 294,-207.5"/>
<text text-anchor="middle" x="339.5" y="-214.5" font-family="Helvetica,sans-Serif" font-size="10.00">pa::panoc_impl</text>
</a>
</g>
</g>
<!-- Node2&#45;&gt;Node7 -->
<g id="edge6" class="edge">
<title>Node2&#45;&gt;Node7</title>
<path fill="none" stroke="midnightblue" d="M469.1,-243.34C442.08,-237.81 410.28,-231.29 385.06,-226.13"/>
<polygon fill="midnightblue" stroke="midnightblue" points="468.69,-246.83 479.19,-245.41 470.1,-239.98 468.69,-246.83"/>
</g>
<!-- Node8 -->
<g id="node8" class="node">
<title>Node8</title>
<g id="a_node8"><a xlink:href="namespacepa.html#adf74e7674514afed3ae1c356ffcb9e45" target="_top" xlink:title=" ">
<polygon fill="white" stroke="black" points="149,-207.5 149,-226.5 213,-226.5 213,-207.5 149,-207.5"/>
<text text-anchor="middle" x="181" y="-214.5" font-family="Helvetica,sans-Serif" font-size="10.00">pa::panoc</text>
</a>
</g>
</g>
<!-- Node7&#45;&gt;Node8 -->
<g id="edge7" class="edge">
<title>Node7&#45;&gt;Node8</title>
<path fill="none" stroke="midnightblue" d="M283.47,-217C260.01,-217 233.49,-217 213.44,-217"/>
<polygon fill="midnightblue" stroke="midnightblue" points="283.65,-220.5 293.65,-217 283.65,-213.5 283.65,-220.5"/>
</g>
<!-- Node9 -->
<g id="node9" class="node">
<title>Node9</title>
<g id="a_node9"><a xlink:href="panocpy_8cpp.html#a874ce6effe8570e8994966f291e5e321" target="_top" xlink:title=" ">
<polygon fill="white" stroke="black" points="0,-207.5 0,-226.5 113,-226.5 113,-207.5 0,-207.5"/>
<text text-anchor="middle" x="56.5" y="-214.5" font-family="Helvetica,sans-Serif" font-size="10.00">PYBIND11_MODULE</text>
</a>
</g>
</g>
<!-- Node8&#45;&gt;Node9 -->
<g id="edge8" class="edge">
<title>Node8&#45;&gt;Node9</title>
<path fill="none" stroke="midnightblue" d="M138.52,-217C130.45,-217 121.88,-217 113.43,-217"/>
<polygon fill="midnightblue" stroke="midnightblue" points="138.77,-220.5 148.77,-217 138.77,-213.5 138.77,-220.5"/>
</g>
<!-- Node10&#45;&gt;Node3 -->
<g id="edge18" class="edge">
<title>Node10&#45;&gt;Node3</title>
<path fill="none" stroke="midnightblue" d="M651.35,-170.89C632.89,-166.72 609.3,-162.09 588,-160 532.01,-154.51 468.65,-158.02 420.05,-162.77"/>
<polygon fill="midnightblue" stroke="midnightblue" points="650.77,-174.35 661.3,-173.2 652.35,-167.53 650.77,-174.35"/>
</g>
<!-- Node10&#45;&gt;Node4 -->
<g id="edge19" class="edge">
<title>Node10&#45;&gt;Node4</title>
<path fill="none" stroke="midnightblue" d="M651.62,-169.41C633.12,-164.22 609.41,-158.07 588,-154 536.02,-144.13 477.24,-136.84 430.01,-131.92"/>
<polygon fill="midnightblue" stroke="midnightblue" points="650.73,-172.8 661.31,-172.17 652.65,-166.06 650.73,-172.8"/>
</g>
<!-- Node10&#45;&gt;Node5 -->
<g id="edge20" class="edge">
<title>Node10&#45;&gt;Node5</title>
<path fill="none" stroke="midnightblue" d="M674.69,-197.61C660.28,-224.09 629.8,-271.57 588,-291 520.98,-322.15 432.29,-312.35 381.31,-302.56"/>
<polygon fill="midnightblue" stroke="midnightblue" points="677.88,-199.08 679.42,-188.6 671.68,-195.83 677.88,-199.08"/>
</g>
<!-- Node10&#45;&gt;Node6 -->
<g id="edge21" class="edge">
<title>Node10&#45;&gt;Node6</title>
<path fill="none" stroke="midnightblue" d="M672.38,-197.21C656.53,-220.16 625.74,-258.48 588,-274 553.92,-288.01 454.94,-274.83 392.97,-264.53"/>
<polygon fill="midnightblue" stroke="midnightblue" points="675.42,-198.96 678.06,-188.7 669.6,-195.08 675.42,-198.96"/>
</g>
<!-- Node10&#45;&gt;Node7 -->
<g id="edge22" class="edge">
<title>Node10&#45;&gt;Node7</title>
<path fill="none" stroke="midnightblue" d="M651.27,-186.48C632.79,-190.45 609.21,-195.1 588,-198 517.55,-207.64 435.1,-212.75 385.38,-215.16"/>
<polygon fill="midnightblue" stroke="midnightblue" points="652.22,-189.86 661.24,-184.3 650.72,-183.02 652.22,-189.86"/>
</g>
<!-- Node11 -->
<g id="node11" class="node">
<title>Node11</title>
<g id="a_node11"><a xlink:href="namespacepa_1_1detail.html#ac7d4fa127500b38a8cec94984c4f598d" target="_top" xlink:title="Increase the estimate of the Lipschitz constant of the objective gradient and decrease the step size ...">
<polygon fill="white" stroke="black" points="479.5,-169.5 479.5,-188.5 574.5,-188.5 574.5,-169.5 479.5,-169.5"/>
<text text-anchor="middle" x="527" y="-176.5" font-family="Helvetica,sans-Serif" font-size="10.00">descent_lemma</text>
</a>
</g>
</g>
<!-- Node10&#45;&gt;Node11 -->
<g id="edge10" class="edge">
<title>Node10&#45;&gt;Node11</title>
<path fill="none" stroke="midnightblue" d="M651.06,-179C628.83,-179 599.17,-179 574.54,-179"/>
<polygon fill="midnightblue" stroke="midnightblue" points="651.32,-182.5 661.32,-179 651.32,-175.5 651.32,-182.5"/>
</g>
<!-- Node12 -->
<g id="node12" class="node">
<title>Node12</title>
<g id="a_node12"><a xlink:href="classpa_1_1PANOCSolver.html#aaa9758a40bd362331202fb232b4bb7ae" target="_top" xlink:title=" ">
<polygon fill="white" stroke="black" points="262.5,-65.5 262.5,-84.5 416.5,-84.5 416.5,-65.5 262.5,-65.5"/>
<text text-anchor="middle" x="339.5" y="-72.5" font-family="Helvetica,sans-Serif" font-size="10.00">pa::PANOCSolver::operator()</text>
</a>
</g>
</g>
<!-- Node10&#45;&gt;Node12 -->
<g id="edge17" class="edge">
<title>Node10&#45;&gt;Node12</title>
<path fill="none" stroke="midnightblue" d="M658.62,-164.58C639.66,-154.31 612.84,-140.81 588,-132 524.94,-109.63 449.67,-93.76 398.83,-84.53"/>
<polygon fill="midnightblue" stroke="midnightblue" points="657.06,-167.72 667.51,-169.48 660.44,-161.59 657.06,-167.72"/>
</g>
<!-- Node11&#45;&gt;Node3 -->
<g id="edge12" class="edge">
<title>Node11&#45;&gt;Node3</title>
<path fill="none" stroke="midnightblue" d="M468.81,-177.15C453.43,-176.65 436.5,-176.11 420.14,-175.58"/>
<polygon fill="midnightblue" stroke="midnightblue" points="469.08,-180.66 479.19,-177.49 469.31,-173.66 469.08,-180.66"/>
</g>
<!-- Node11&#45;&gt;Node4 -->
<g id="edge13" class="edge">
<title>Node11&#45;&gt;Node4</title>
<path fill="none" stroke="midnightblue" d="M487.69,-166.14C470.16,-160.38 449.1,-153.64 430,-148 419.82,-144.99 408.94,-141.94 398.39,-139.07"/>
<polygon fill="midnightblue" stroke="midnightblue" points="486.96,-169.59 497.55,-169.4 489.15,-162.94 486.96,-169.59"/>
</g>
<!-- Node11&#45;&gt;Node5 -->
<g id="edge14" class="edge">
<title>Node11&#45;&gt;Node5</title>
<path fill="none" stroke="midnightblue" d="M508.04,-195.59C496,-206.84 479.86,-222.12 466,-236 449.56,-252.46 450.29,-262.63 430,-274 423.07,-277.88 415.44,-280.97 407.63,-283.43"/>
<polygon fill="midnightblue" stroke="midnightblue" points="510.71,-197.89 515.65,-188.52 505.94,-192.77 510.71,-197.89"/>
</g>
<!-- Node11&#45;&gt;Node6 -->
<g id="edge15" class="edge">
<title>Node11&#45;&gt;Node6</title>
<path fill="none" stroke="midnightblue" d="M504.65,-194.46C485.86,-207.37 457.31,-225.33 430,-236 420.24,-239.82 409.56,-242.93 399.08,-245.44"/>
<polygon fill="midnightblue" stroke="midnightblue" points="506.86,-197.19 513.04,-188.58 502.84,-191.45 506.86,-197.19"/>
</g>
<!-- Node11&#45;&gt;Node7 -->
<g id="edge16" class="edge">
<title>Node11&#45;&gt;Node7</title>
<path fill="none" stroke="midnightblue" d="M469.1,-190.66C442.08,-196.19 410.28,-202.71 385.06,-207.87"/>
<polygon fill="midnightblue" stroke="midnightblue" points="470.1,-194.02 479.19,-188.59 468.69,-187.17 470.1,-194.02"/>
</g>
<!-- Node11&#45;&gt;Node12 -->
<g id="edge11" class="edge">
<title>Node11&#45;&gt;Node12</title>
<path fill="none" stroke="midnightblue" d="M509.92,-161.74C492.06,-143.57 461.57,-115.37 430,-99 418,-92.78 404.24,-88.06 391.17,-84.52"/>
<polygon fill="midnightblue" stroke="midnightblue" points="507.74,-164.52 517.19,-169.31 512.79,-159.67 507.74,-164.52"/>
</g>
<!-- Node14 -->
<g id="node14" class="node">
<title>Node14</title>
<g id="a_node14"><a xlink:href="classpa_1_1SpecializedLBFGS.html#a747b26091f869cb17a768e38f17fbc8d" target="_top" xlink:title="Update the inverse Hessian approximation using the new vectors xₖ₊₁ and pₖ₊₁.">
<polygon fill="white" stroke="black" points="466,-6 466,-36 588,-36 588,-6 466,-6"/>
<text text-anchor="start" x="474" y="-24" font-family="Helvetica,sans-Serif" font-size="10.00">pa::SpecializedLBFGS</text>
<text text-anchor="middle" x="527" y="-13" font-family="Helvetica,sans-Serif" font-size="10.00">::update</text>
</a>
</g>
</g>
<!-- Node13&#45;&gt;Node14 -->
<g id="edge24" class="edge">
<title>Node13&#45;&gt;Node14</title>
<path fill="none" stroke="midnightblue" d="M633.04,-59.38C612.4,-51.84 588.87,-43.24 569.32,-36.1"/>
<polygon fill="midnightblue" stroke="midnightblue" points="632.01,-62.73 642.6,-62.87 634.41,-56.16 632.01,-62.73"/>
</g>
<!-- Node15 -->
<g id="node15" class="node">
<title>Node15</title>
<g id="a_node15"><a xlink:href="structpa_1_1PANOCDirection_3_01SpecializedLBFGS_01_4.html#a39a241c049e8d029cc86a30a89ef92cf" target="_top" xlink:title=" ">
<polygon fill="white" stroke="black" points="276.5,-0.5 276.5,-41.5 402.5,-41.5 402.5,-0.5 276.5,-0.5"/>
<text text-anchor="start" x="284.5" y="-29.5" font-family="Helvetica,sans-Serif" font-size="10.00">pa::PANOCDirection</text>
<text text-anchor="start" x="284.5" y="-18.5" font-family="Helvetica,sans-Serif" font-size="10.00">&lt; SpecializedLBFGS &gt;</text>
<text text-anchor="middle" x="339.5" y="-7.5" font-family="Helvetica,sans-Serif" font-size="10.00">::update</text>
</a>
</g>
</g>
<!-- Node14&#45;&gt;Node15 -->
<g id="edge25" class="edge">
<title>Node14&#45;&gt;Node15</title>
<path fill="none" stroke="midnightblue" d="M455.66,-21C438.22,-21 419.66,-21 402.65,-21"/>
<polygon fill="midnightblue" stroke="midnightblue" points="455.77,-24.5 465.77,-21 455.77,-17.5 455.77,-24.5"/>
</g>
</g>
</svg>
