<?xml version="1.0" encoding="UTF-8" standalone="no"?>
<!DOCTYPE svg PUBLIC "-//W3C//DTD SVG 1.1//EN"
 "http://www.w3.org/Graphics/SVG/1.1/DTD/svg11.dtd">
<!-- Generated by graphviz version 2.43.0 (0)
 -->
<!-- Title: norm_inf Pages: 1 -->
<svg width="711pt" height="203pt"
 viewBox="0.00 0.00 711.00 202.50" xmlns="http://www.w3.org/2000/svg" xmlns:xlink="http://www.w3.org/1999/xlink">
<g id="graph0" class="graph" transform="scale(1 1) rotate(0) translate(4 198.5)">
<title>norm_inf</title>
<polygon fill="white" stroke="transparent" points="-4,4 -4,-198.5 707,-198.5 707,4 -4,4"/>
<!-- Node1 -->
<g id="node1" class="node">
<title>Node1</title>
<g id="a_node1"><a xlink:title="Get the maximum or infinity&#45;norm of the given vector.">
<polygon fill="#bfbfbf" stroke="black" points="643,-54.5 643,-73.5 703,-73.5 703,-54.5 643,-54.5"/>
<text text-anchor="middle" x="673" y="-61.5" font-family="Helvetica,sans-Serif" font-size="10.00">norm_inf</text>
</a>
</g>
</g>
<!-- Node2 -->
<g id="node2" class="node">
<title>Node2</title>
<g id="a_node2"><a xlink:href="namespacepa_1_1detail.html#a886972efd9fe413c62efea5eb2cdd0e9" target="_top" xlink:title=" ">
<polygon fill="white" stroke="black" points="478.5,-71 478.5,-101 594.5,-101 594.5,-71 478.5,-71"/>
<text text-anchor="start" x="486.5" y="-89" font-family="Helvetica,sans-Serif" font-size="10.00">pa::detail::calc_error</text>
<text text-anchor="middle" x="536.5" y="-78" font-family="Helvetica,sans-Serif" font-size="10.00">_stop_crit</text>
</a>
</g>
</g>
<!-- Node1&#45;&gt;Node2 -->
<g id="edge1" class="edge">
<title>Node1&#45;&gt;Node2</title>
<path fill="none" stroke="midnightblue" d="M632.74,-70.42C620.8,-72.38 607.42,-74.56 594.56,-76.67"/>
<polygon fill="midnightblue" stroke="midnightblue" points="633.51,-73.84 642.82,-68.77 632.38,-66.93 633.51,-73.84"/>
</g>
<!-- Node10 -->
<g id="node10" class="node">
<title>Node10</title>
<g id="a_node10"><a xlink:href="classpa_1_1ALMSolver.html#a3383f0f2b3a6516f8f031396e1a1289c" target="_top" xlink:title=" ">
<polygon fill="white" stroke="black" points="466,-32.5 466,-51.5 607,-51.5 607,-32.5 466,-32.5"/>
<text text-anchor="middle" x="536.5" y="-39.5" font-family="Helvetica,sans-Serif" font-size="10.00">pa::ALMSolver::operator()</text>
</a>
</g>
</g>
<!-- Node1&#45;&gt;Node10 -->
<g id="edge9" class="edge">
<title>Node1&#45;&gt;Node10</title>
<path fill="none" stroke="midnightblue" d="M632.61,-57.56C621.04,-55.66 608.13,-53.55 595.65,-51.51"/>
<polygon fill="midnightblue" stroke="midnightblue" points="632.38,-61.07 642.82,-59.23 633.51,-54.16 632.38,-61.07"/>
</g>
<!-- Node3 -->
<g id="node3" class="node">
<title>Node3</title>
<g id="a_node3"><a xlink:href="classpa_1_1SecondOrderPANOCSolver.html#acb04b3f19dafad9b4e7e7c1c19018d19" target="_top" xlink:title=" ">
<polygon fill="white" stroke="black" points="259,-164 259,-194 420,-194 420,-164 259,-164"/>
<text text-anchor="start" x="267" y="-182" font-family="Helvetica,sans-Serif" font-size="10.00">pa::SecondOrderPANOCSolver</text>
<text text-anchor="middle" x="339.5" y="-171" font-family="Helvetica,sans-Serif" font-size="10.00">::operator()</text>
</a>
</g>
</g>
<!-- Node2&#45;&gt;Node3 -->
<g id="edge2" class="edge">
<title>Node2&#45;&gt;Node3</title>
<path fill="none" stroke="midnightblue" d="M508.14,-107.39C487.62,-122.54 458.32,-142.33 430,-155 422.51,-158.35 414.45,-161.32 406.35,-163.92"/>
<polygon fill="midnightblue" stroke="midnightblue" points="510.47,-110.02 516.36,-101.22 506.26,-104.42 510.47,-110.02"/>
</g>
<!-- Node4 -->
<g id="node4" class="node">
<title>Node4</title>
<g id="a_node4"><a xlink:href="classpa_1_1StructuredPANOCLBFGSSolver.html#ade95d8a7a1892d4087d6fffc958cde6e" target="_top" xlink:title=" ">
<polygon fill="white" stroke="black" points="249,-115 249,-145 430,-145 430,-115 249,-115"/>
<text text-anchor="start" x="257" y="-133" font-family="Helvetica,sans-Serif" font-size="10.00">pa::StructuredPANOCLBFGSSolver</text>
<text text-anchor="middle" x="339.5" y="-122" font-family="Helvetica,sans-Serif" font-size="10.00">::operator()</text>
</a>
</g>
</g>
<!-- Node2&#45;&gt;Node4 -->
<g id="edge3" class="edge">
<title>Node2&#45;&gt;Node4</title>
<path fill="none" stroke="midnightblue" d="M468.47,-101.13C448.7,-105.59 427.07,-110.47 407.31,-114.92"/>
<polygon fill="midnightblue" stroke="midnightblue" points="469.33,-104.52 478.31,-98.9 467.79,-97.69 469.33,-104.52"/>
</g>
<!-- Node5 -->
<g id="node5" class="node">
<title>Node5</title>
<g id="a_node5"><a xlink:href="classpa_1_1GAAPGASolver.html#a570ec001ea8eee359be8a1b90b782cfb" target="_top" xlink:title=" ">
<polygon fill="white" stroke="black" points="259,-76.5 259,-95.5 420,-95.5 420,-76.5 259,-76.5"/>
<text text-anchor="middle" x="339.5" y="-83.5" font-family="Helvetica,sans-Serif" font-size="10.00">pa::GAAPGASolver::operator()</text>
</a>
</g>
</g>
<!-- Node2&#45;&gt;Node5 -->
<g id="edge4" class="edge">
<title>Node2&#45;&gt;Node5</title>
<path fill="none" stroke="midnightblue" d="M468.3,-86C452.78,-86 436.12,-86 420.13,-86"/>
<polygon fill="midnightblue" stroke="midnightblue" points="468.31,-89.5 478.31,-86 468.31,-82.5 468.31,-89.5"/>
</g>
<!-- Node6 -->
<g id="node6" class="node">
<title>Node6</title>
<g id="a_node6"><a xlink:href="classpa_1_1PGASolver.html#af516b794e244432023aea7ba3cd0d1d8" target="_top" xlink:title=" ">
<polygon fill="white" stroke="black" points="269.5,-38.5 269.5,-57.5 409.5,-57.5 409.5,-38.5 269.5,-38.5"/>
<text text-anchor="middle" x="339.5" y="-45.5" font-family="Helvetica,sans-Serif" font-size="10.00">pa::PGASolver::operator()</text>
</a>
</g>
</g>
<!-- Node2&#45;&gt;Node6 -->
<g id="edge5" class="edge">
<title>Node2&#45;&gt;Node6</title>
<path fill="none" stroke="midnightblue" d="M468.19,-72.88C442.3,-67.84 413.27,-62.18 389.43,-57.54"/>
<polygon fill="midnightblue" stroke="midnightblue" points="467.83,-76.38 478.31,-74.86 469.17,-69.51 467.83,-76.38"/>
</g>
<!-- Node7 -->
<g id="node7" class="node">
<title>Node7</title>
<g id="a_node7"><a xlink:href="namespacepa.html#a2b97bf67604c439eca0a540664930d61" target="_top" xlink:title=" ">
<polygon fill="white" stroke="black" points="294,-0.5 294,-19.5 385,-19.5 385,-0.5 294,-0.5"/>
<text text-anchor="middle" x="339.5" y="-7.5" font-family="Helvetica,sans-Serif" font-size="10.00">pa::panoc_impl</text>
</a>
</g>
</g>
<!-- Node2&#45;&gt;Node7 -->
<g id="edge6" class="edge">
<title>Node2&#45;&gt;Node7</title>
<path fill="none" stroke="midnightblue" d="M476.79,-66.74C473.07,-64.96 469.44,-63.04 466,-61 447.59,-50.07 449.11,-38.66 430,-29 416.25,-22.05 400.07,-17.64 385.27,-14.84"/>
<polygon fill="midnightblue" stroke="midnightblue" points="475.64,-70.06 486.19,-70.93 478.48,-63.67 475.64,-70.06"/>
</g>
<!-- Node8 -->
<g id="node8" class="node">
<title>Node8</title>
<g id="a_node8"><a xlink:href="namespacepa.html#adf74e7674514afed3ae1c356ffcb9e45" target="_top" xlink:title=" ">
<polygon fill="white" stroke="black" points="149,-0.5 149,-19.5 213,-19.5 213,-0.5 149,-0.5"/>
<text text-anchor="middle" x="181" y="-7.5" font-family="Helvetica,sans-Serif" font-size="10.00">pa::panoc</text>
</a>
</g>
</g>
<!-- Node7&#45;&gt;Node8 -->
<g id="edge7" class="edge">
<title>Node7&#45;&gt;Node8</title>
<path fill="none" stroke="midnightblue" d="M283.47,-10C260.01,-10 233.49,-10 213.44,-10"/>
<polygon fill="midnightblue" stroke="midnightblue" points="283.65,-13.5 293.65,-10 283.65,-6.5 283.65,-13.5"/>
</g>
<!-- Node9 -->
<g id="node9" class="node">
<title>Node9</title>
<g id="a_node9"><a xlink:href="panocpy_8cpp.html#a874ce6effe8570e8994966f291e5e321" target="_top" xlink:title=" ">
<polygon fill="white" stroke="black" points="0,-0.5 0,-19.5 113,-19.5 113,-0.5 0,-0.5"/>
<text text-anchor="middle" x="56.5" y="-7.5" font-family="Helvetica,sans-Serif" font-size="10.00">PYBIND11_MODULE</text>
</a>
</g>
</g>
<!-- Node8&#45;&gt;Node9 -->
<g id="edge8" class="edge">
<title>Node8&#45;&gt;Node9</title>
<path fill="none" stroke="midnightblue" d="M138.52,-10C130.45,-10 121.88,-10 113.43,-10"/>
<polygon fill="midnightblue" stroke="midnightblue" points="138.77,-13.5 148.77,-10 138.77,-6.5 138.77,-13.5"/>
</g>
</g>
</svg>
