<?xml version="1.0" encoding="UTF-8" standalone="no"?>
<!DOCTYPE svg PUBLIC "-//W3C//DTD SVG 1.1//EN"
 "http://www.w3.org/Graphics/SVG/1.1/DTD/svg11.dtd">
<!-- Generated by graphviz version 2.43.0 (0)
 -->
<!-- Title: project Pages: 1 -->
<svg width="1165pt" height="771pt"
 viewBox="0.00 0.00 1165.00 770.81" xmlns="http://www.w3.org/2000/svg" xmlns:xlink="http://www.w3.org/1999/xlink">
<g id="graph0" class="graph" transform="scale(1 1) rotate(0) translate(4 766.81)">
<title>project</title>
<polygon fill="white" stroke="transparent" points="-4,4 -4,-766.81 1161,-766.81 1161,4 -4,4"/>
<!-- Node1 -->
<g id="node1" class="node">
<title>Node1</title>
<g id="a_node1"><a xlink:title="Project a vector onto a box.">
<polygon fill="#bfbfbf" stroke="black" points="1107,-126 1107,-145 1157,-145 1157,-126 1107,-126"/>
<text text-anchor="middle" x="1132" y="-133" font-family="Helvetica,sans-Serif" font-size="10.00">project</text>
</a>
</g>
</g>
<!-- Node2 -->
<g id="node2" class="node">
<title>Node2</title>
<g id="a_node2"><a xlink:href="namespacepa_1_1detail.html#a22e222a3f2d7f01ceee380154e140ea9" target="_top" xlink:title="Calculate the error between ẑ and g(x).">
<polygon fill="white" stroke="black" points="647,-586 647,-605 764,-605 764,-586 647,-586"/>
<text text-anchor="middle" x="705.5" y="-593" font-family="Helvetica,sans-Serif" font-size="10.00">pa::detail::calc_err_z</text>
</a>
</g>
</g>
<!-- Node1&#45;&gt;Node2 -->
<g id="edge1" class="edge">
<title>Node1&#45;&gt;Node2</title>
<path fill="none" stroke="midnightblue" d="M1120.43,-153.98C1091.73,-203.23 1008.25,-340.41 916,-435.5 851.79,-501.69 758.87,-562.81 722.21,-585.83"/>
<polygon fill="midnightblue" stroke="midnightblue" points="1123.6,-155.5 1125.57,-145.09 1117.54,-151.99 1123.6,-155.5"/>
</g>
<!-- Node8 -->
<g id="node8" class="node">
<title>Node8</title>
<g id="a_node8"><a xlink:href="classpa_1_1GAAPGASolver.html#a570ec001ea8eee359be8a1b90b782cfb" target="_top" xlink:title=" ">
<polygon fill="white" stroke="black" points="241,-217 241,-236 402,-236 402,-217 241,-217"/>
<text text-anchor="middle" x="321.5" y="-224" font-family="Helvetica,sans-Serif" font-size="10.00">pa::GAAPGASolver::operator()</text>
</a>
</g>
</g>
<!-- Node1&#45;&gt;Node8 -->
<g id="edge10" class="edge">
<title>Node1&#45;&gt;Node8</title>
<path fill="none" stroke="midnightblue" d="M1096.85,-129.43C1016.76,-116.23 810.81,-88.25 642,-116.5 524.54,-136.15 392.46,-193.81 342.81,-216.83"/>
<polygon fill="midnightblue" stroke="midnightblue" points="1096.42,-132.91 1106.87,-131.12 1097.58,-126.01 1096.42,-132.91"/>
</g>
<!-- Node10 -->
<g id="node10" class="node">
<title>Node10</title>
<g id="a_node10"><a xlink:href="namespacepa.html#a6c3a6510a3060f69c9f4720bc1df300d" target="_top" xlink:title="Get the distance squared between the given vector and its projection in the Σ norm.">
<polygon fill="white" stroke="black" points="972,-50 972,-69 1051,-69 1051,-50 972,-50"/>
<text text-anchor="middle" x="1011.5" y="-57" font-family="Helvetica,sans-Serif" font-size="10.00">dist_squared</text>
</a>
</g>
</g>
<!-- Node1&#45;&gt;Node10 -->
<g id="edge9" class="edge">
<title>Node1&#45;&gt;Node10</title>
<path fill="none" stroke="midnightblue" d="M1114.87,-118.93C1103.4,-107.83 1087.21,-93.48 1071,-83.5 1061.74,-77.8 1050.9,-72.92 1041.08,-69.08"/>
<polygon fill="midnightblue" stroke="midnightblue" points="1112.43,-121.44 1121.99,-126 1117.36,-116.47 1112.43,-121.44"/>
</g>
<!-- Node11 -->
<g id="node11" class="node">
<title>Node11</title>
<g id="a_node11"><a xlink:href="namespacepa.html#aee505a26e46aa4c0ce09d0fed72f0dac" target="_top" xlink:title="Get the difference between the given vector and its projection.">
<polygon fill="white" stroke="black" points="952,-145 952,-164 1071,-164 1071,-145 952,-145"/>
<text text-anchor="middle" x="1011.5" y="-152" font-family="Helvetica,sans-Serif" font-size="10.00">projecting_difference</text>
</a>
</g>
</g>
<!-- Node1&#45;&gt;Node11 -->
<g id="edge11" class="edge">
<title>Node1&#45;&gt;Node11</title>
<path fill="none" stroke="midnightblue" d="M1096.78,-140.99C1088.83,-142.26 1080.16,-143.65 1071.48,-145.04"/>
<polygon fill="midnightblue" stroke="midnightblue" points="1097.41,-144.43 1106.73,-139.39 1096.31,-137.52 1097.41,-144.43"/>
</g>
<!-- Node3 -->
<g id="node3" class="node">
<title>Node3</title>
<g id="a_node3"><a xlink:href="classpa_1_1PANOCSolver.html#aaa9758a40bd362331202fb232b4bb7ae" target="_top" xlink:title=" ">
<polygon fill="white" stroke="black" points="244.5,-592 244.5,-611 398.5,-611 398.5,-592 244.5,-592"/>
<text text-anchor="middle" x="321.5" y="-599" font-family="Helvetica,sans-Serif" font-size="10.00">pa::PANOCSolver::operator()</text>
</a>
</g>
</g>
<!-- Node2&#45;&gt;Node3 -->
<g id="edge2" class="edge">
<title>Node2&#45;&gt;Node3</title>
<path fill="none" stroke="midnightblue" d="M694.48,-614.07C679.3,-640 647.75,-685.96 606,-704.5 541.82,-733 514.12,-728.16 448,-704.5 394.66,-685.41 347.71,-632.8 330,-611.08"/>
<polygon fill="midnightblue" stroke="midnightblue" points="697.61,-615.64 699.49,-605.21 691.52,-612.2 697.61,-615.64"/>
</g>
<!-- Node4 -->
<g id="node4" class="node">
<title>Node4</title>
<g id="a_node4"><a xlink:href="classpa_1_1SecondOrderPANOCSolver.html#acb04b3f19dafad9b4e7e7c1c19018d19" target="_top" xlink:title=" ">
<polygon fill="white" stroke="black" points="241,-374.5 241,-404.5 402,-404.5 402,-374.5 241,-374.5"/>
<text text-anchor="start" x="249" y="-392.5" font-family="Helvetica,sans-Serif" font-size="10.00">pa::SecondOrderPANOCSolver</text>
<text text-anchor="middle" x="321.5" y="-381.5" font-family="Helvetica,sans-Serif" font-size="10.00">::operator()</text>
</a>
</g>
</g>
<!-- Node2&#45;&gt;Node4 -->
<g id="edge3" class="edge">
<title>Node2&#45;&gt;Node4</title>
<path fill="none" stroke="midnightblue" d="M688.19,-612.34C670.03,-629.76 638.88,-655.89 606,-666.5 539.17,-688.07 506.62,-705.16 448,-666.5 414.09,-644.14 428.55,-619.59 412,-582.5 382.36,-516.05 345.34,-437.58 329.85,-404.94"/>
<polygon fill="midnightblue" stroke="midnightblue" points="690.93,-614.55 695.58,-605.03 686.01,-609.57 690.93,-614.55"/>
</g>
<!-- Node5 -->
<g id="node5" class="node">
<title>Node5</title>
<g id="a_node5"><a xlink:href="classpa_1_1StructuredPANOCLBFGSSolver.html#ade95d8a7a1892d4087d6fffc958cde6e" target="_top" xlink:title=" ">
<polygon fill="white" stroke="black" points="231,-132.5 231,-162.5 412,-162.5 412,-132.5 231,-132.5"/>
<text text-anchor="start" x="239" y="-150.5" font-family="Helvetica,sans-Serif" font-size="10.00">pa::StructuredPANOCLBFGSSolver</text>
<text text-anchor="middle" x="321.5" y="-139.5" font-family="Helvetica,sans-Serif" font-size="10.00">::operator()</text>
</a>
</g>
</g>
<!-- Node2&#45;&gt;Node5 -->
<g id="edge4" class="edge">
<title>Node2&#45;&gt;Node5</title>
<path fill="none" stroke="midnightblue" d="M636.58,-589.73C565.03,-582.98 460.92,-571.01 448,-557.5 393.96,-500.99 452.29,-274.51 412,-207.5 399.85,-187.3 377.98,-172.45 358.9,-162.58"/>
<polygon fill="midnightblue" stroke="midnightblue" points="636.6,-593.25 646.88,-590.69 637.25,-586.28 636.6,-593.25"/>
</g>
<!-- Node6 -->
<g id="node6" class="node">
<title>Node6</title>
<g id="a_node6"><a xlink:href="classpa_1_1LBFGSSolver.html#a8540540028b02dfe8b7e3ec0c49c07dd" target="_top" xlink:title=" ">
<polygon fill="white" stroke="black" points="451,-453 451,-472 603,-472 603,-453 451,-453"/>
<text text-anchor="middle" x="527" y="-460" font-family="Helvetica,sans-Serif" font-size="10.00">pa::LBFGSSolver::operator()</text>
</a>
</g>
</g>
<!-- Node2&#45;&gt;Node6 -->
<g id="edge5" class="edge">
<title>Node2&#45;&gt;Node6</title>
<path fill="none" stroke="midnightblue" d="M684.12,-579.53C664.28,-564.04 633.23,-539.95 606,-519.5 583.47,-502.58 556.92,-483.32 541.33,-472.08"/>
<polygon fill="midnightblue" stroke="midnightblue" points="682.11,-582.4 692.14,-585.8 686.42,-576.88 682.11,-582.4"/>
</g>
<!-- Node7 -->
<g id="node7" class="node">
<title>Node7</title>
<g id="a_node7"><a xlink:href="classpa_1_1LBFGSBSolver.html#a8540540028b02dfe8b7e3ec0c49c07dd" target="_top" xlink:title=" ">
<polygon fill="white" stroke="black" points="448,-529 448,-548 606,-548 606,-529 448,-529"/>
<text text-anchor="middle" x="527" y="-536" font-family="Helvetica,sans-Serif" font-size="10.00">pa::LBFGSBSolver::operator()</text>
</a>
</g>
</g>
<!-- Node2&#45;&gt;Node7 -->
<g id="edge6" class="edge">
<title>Node2&#45;&gt;Node7</title>
<path fill="none" stroke="midnightblue" d="M666.82,-582.63C648.5,-576.44 626.14,-568.97 606,-562.5 590.76,-557.6 573.77,-552.35 559.56,-548.02"/>
<polygon fill="midnightblue" stroke="midnightblue" points="665.94,-586.03 676.54,-585.93 668.19,-579.4 665.94,-586.03"/>
</g>
<!-- Node2&#45;&gt;Node8 -->
<g id="edge7" class="edge">
<title>Node2&#45;&gt;Node8</title>
<path fill="none" stroke="midnightblue" d="M668.16,-608.03C612.95,-624.51 508.03,-645.4 448,-590.5 393.56,-540.71 457.12,-318.86 412,-260.5 402.95,-248.8 389.38,-241.12 375.52,-236.09"/>
<polygon fill="midnightblue" stroke="midnightblue" points="669.36,-611.33 677.87,-605.02 667.28,-604.64 669.36,-611.33"/>
</g>
<!-- Node9 -->
<g id="node9" class="node">
<title>Node9</title>
<g id="a_node9"><a xlink:href="classpa_1_1PGASolver.html#af516b794e244432023aea7ba3cd0d1d8" target="_top" xlink:title=" ">
<polygon fill="white" stroke="black" points="251.5,-336 251.5,-355 391.5,-355 391.5,-336 251.5,-336"/>
<text text-anchor="middle" x="321.5" y="-343" font-family="Helvetica,sans-Serif" font-size="10.00">pa::PGASolver::operator()</text>
</a>
</g>
</g>
<!-- Node2&#45;&gt;Node9 -->
<g id="edge8" class="edge">
<title>Node2&#45;&gt;Node9</title>
<path fill="none" stroke="midnightblue" d="M679.3,-609.87C628.74,-636.58 514.11,-686.18 448,-628.5 359.1,-550.94 491.86,-452.35 412,-365.5 406.4,-359.41 399.38,-354.96 391.75,-351.75"/>
<polygon fill="midnightblue" stroke="midnightblue" points="681.12,-612.86 688.25,-605.02 677.79,-606.7 681.12,-612.86"/>
</g>
<!-- Node12 -->
<g id="node12" class="node">
<title>Node12</title>
<g id="a_node12"><a xlink:href="namespacepa_1_1detail.html#a6572cf745448d2b40e9d5e977d17d5e2" target="_top" xlink:title="Calculate the gradient ∇ψ(x).">
<polygon fill="white" stroke="black" points="642,-126 642,-145 769,-145 769,-126 642,-126"/>
<text text-anchor="middle" x="705.5" y="-133" font-family="Helvetica,sans-Serif" font-size="10.00">pa::detail::calc_grad_ψ</text>
</a>
</g>
</g>
<!-- Node11&#45;&gt;Node12 -->
<g id="edge12" class="edge">
<title>Node11&#45;&gt;Node12</title>
<path fill="none" stroke="midnightblue" d="M941.78,-150.2C889.94,-146.97 819.41,-142.56 769.12,-139.41"/>
<polygon fill="midnightblue" stroke="midnightblue" points="941.69,-153.71 951.89,-150.84 942.12,-146.72 941.69,-153.71"/>
</g>
<!-- Node18 -->
<g id="node18" class="node">
<title>Node18</title>
<g id="a_node18"><a xlink:href="namespacepa_1_1detail.html#a82a03662e6ce5bcfd57ee2df719aec21" target="_top" xlink:title="Calculate both ψ(x) and the vector ŷ that can later be used to compute ∇ψ.">
<polygon fill="white" stroke="black" points="805,-407 805,-426 916,-426 916,-407 805,-407"/>
<text text-anchor="middle" x="860.5" y="-414" font-family="Helvetica,sans-Serif" font-size="10.00">pa::detail::calc_ψ_ŷ</text>
</a>
</g>
</g>
<!-- Node11&#45;&gt;Node18 -->
<g id="edge23" class="edge">
<title>Node11&#45;&gt;Node18</title>
<path fill="none" stroke="midnightblue" d="M1000.06,-172.86C970.86,-224.19 889.07,-368.02 867.03,-406.78"/>
<polygon fill="midnightblue" stroke="midnightblue" points="1003.12,-174.56 1005.02,-164.14 997.03,-171.1 1003.12,-174.56"/>
</g>
<!-- Node21 -->
<g id="node21" class="node">
<title>Node21</title>
<g id="a_node21"><a xlink:href="namespacepa.html#a841a5169cd34615a1d9942e6ceead589" target="_top" xlink:title="Get the distance squared between the given vector and its projection.">
<polygon fill="white" stroke="black" points="821,-164 821,-183 900,-183 900,-164 821,-164"/>
<text text-anchor="middle" x="860.5" y="-171" font-family="Helvetica,sans-Serif" font-size="10.00">dist_squared</text>
</a>
</g>
</g>
<!-- Node11&#45;&gt;Node21 -->
<g id="edge47" class="edge">
<title>Node11&#45;&gt;Node21</title>
<path fill="none" stroke="midnightblue" d="M941.4,-163.31C927.28,-165.11 912.89,-166.95 900.3,-168.55"/>
<polygon fill="midnightblue" stroke="midnightblue" points="942.13,-166.75 951.61,-162.01 941.25,-159.8 942.13,-166.75"/>
</g>
<!-- Node13 -->
<g id="node13" class="node">
<title>Node13</title>
<g id="a_node13"><a xlink:href="namespacepa_1_1detail.html#a384dd0255096b08c79472df49f7f9388" target="_top" xlink:title="Compute the Hessian matrix of the augmented Lagrangian function multiplied by the given vector,...">
<polygon fill="white" stroke="black" points="448,-0.5 448,-30.5 606,-30.5 606,-0.5 448,-0.5"/>
<text text-anchor="start" x="456" y="-18.5" font-family="Helvetica,sans-Serif" font-size="10.00">pa::detail::calc_augmented</text>
<text text-anchor="middle" x="527" y="-7.5" font-family="Helvetica,sans-Serif" font-size="10.00">_lagrangian_hessian_prod_fd</text>
</a>
</g>
</g>
<!-- Node12&#45;&gt;Node13 -->
<g id="edge13" class="edge">
<title>Node12&#45;&gt;Node13</title>
<path fill="none" stroke="midnightblue" d="M689.32,-118.16C671.18,-98.33 639.1,-65.97 606,-45.5 596.62,-39.7 585.94,-34.7 575.55,-30.54"/>
<polygon fill="midnightblue" stroke="midnightblue" points="686.91,-120.72 696.2,-125.82 692.12,-116.05 686.91,-120.72"/>
</g>
<!-- Node14 -->
<g id="node14" class="node">
<title>Node14</title>
<g id="a_node14"><a xlink:href="namespacepa_1_1detail.html#a92963cadf7f44fcf9f3ab6bddff08796" target="_top" xlink:title="Estimate the Lipschitz constant of the gradient &#160;using finite differences.">
<polygon fill="white" stroke="black" points="471.5,-240.5 471.5,-270.5 582.5,-270.5 582.5,-240.5 471.5,-240.5"/>
<text text-anchor="start" x="479.5" y="-258.5" font-family="Helvetica,sans-Serif" font-size="10.00">pa::detail::initial</text>
<text text-anchor="middle" x="527" y="-247.5" font-family="Helvetica,sans-Serif" font-size="10.00">_lipschitz_estimate</text>
</a>
</g>
</g>
<!-- Node12&#45;&gt;Node14 -->
<g id="edge15" class="edge">
<title>Node12&#45;&gt;Node14</title>
<path fill="none" stroke="midnightblue" d="M682,-150.8C647.97,-173.93 583.83,-217.54 550.06,-240.5"/>
<polygon fill="midnightblue" stroke="midnightblue" points="684.05,-153.63 690.35,-145.12 680.12,-147.85 684.05,-153.63"/>
</g>
<!-- Node13&#45;&gt;Node5 -->
<g id="edge14" class="edge">
<title>Node13&#45;&gt;Node5</title>
<path fill="none" stroke="midnightblue" d="M470.21,-34.46C462.57,-37.78 454.96,-41.47 448,-45.5 404.51,-70.68 360.48,-110.52 337.93,-132.2"/>
<polygon fill="midnightblue" stroke="midnightblue" points="471.61,-37.67 479.52,-30.62 468.94,-31.21 471.61,-37.67"/>
</g>
<!-- Node14&#45;&gt;Node4 -->
<g id="edge16" class="edge">
<title>Node14&#45;&gt;Node4</title>
<path fill="none" stroke="midnightblue" d="M461.87,-270.81C456.86,-273.53 452.14,-276.73 448,-280.5 417.95,-307.83 442.56,-337.74 412,-364.5 407.63,-368.33 402.72,-371.57 397.51,-374.32"/>
<polygon fill="midnightblue" stroke="midnightblue" points="463.6,-273.86 471.15,-266.42 460.61,-267.54 463.6,-273.86"/>
</g>
<!-- Node14&#45;&gt;Node5 -->
<g id="edge17" class="edge">
<title>Node14&#45;&gt;Node5</title>
<path fill="none" stroke="midnightblue" d="M488.84,-235.78C449.09,-214.68 386.89,-181.67 350.88,-162.56"/>
<polygon fill="midnightblue" stroke="midnightblue" points="487.23,-238.89 497.7,-240.48 490.51,-232.7 487.23,-238.89"/>
</g>
<!-- Node14&#45;&gt;Node8 -->
<g id="edge18" class="edge">
<title>Node14&#45;&gt;Node8</title>
<path fill="none" stroke="midnightblue" d="M461.45,-246.3C438.4,-243.02 412.39,-239.31 389.17,-236"/>
<polygon fill="midnightblue" stroke="midnightblue" points="461.07,-249.78 471.47,-247.73 462.06,-242.85 461.07,-249.78"/>
</g>
<!-- Node14&#45;&gt;Node9 -->
<g id="edge19" class="edge">
<title>Node14&#45;&gt;Node9</title>
<path fill="none" stroke="midnightblue" d="M465.02,-273.95C459.22,-276.03 453.47,-278.23 448,-280.5 437.18,-285 372.65,-318.97 340.57,-335.93"/>
<polygon fill="midnightblue" stroke="midnightblue" points="466.49,-277.14 474.78,-270.56 464.19,-270.53 466.49,-277.14"/>
</g>
<!-- Node15 -->
<g id="node15" class="node">
<title>Node15</title>
<g id="a_node15"><a xlink:href="namespacepa.html#a2b97bf67604c439eca0a540664930d61" target="_top" xlink:title=" ">
<polygon fill="white" stroke="black" points="285,-270 285,-289 358,-289 358,-270 285,-270"/>
<text text-anchor="middle" x="321.5" y="-277" font-family="Helvetica,sans-Serif" font-size="10.00">panoc_impl</text>
</a>
</g>
</g>
<!-- Node14&#45;&gt;Node15 -->
<g id="edge20" class="edge">
<title>Node14&#45;&gt;Node15</title>
<path fill="none" stroke="midnightblue" d="M461.12,-263.15C427.06,-267.17 386.63,-271.94 358.25,-275.28"/>
<polygon fill="midnightblue" stroke="midnightblue" points="461.94,-266.58 471.47,-261.93 461.12,-259.63 461.94,-266.58"/>
</g>
<!-- Node16 -->
<g id="node16" class="node">
<title>Node16</title>
<g id="a_node16"><a xlink:href="namespacepa.html#adf74e7674514afed3ae1c356ffcb9e45" target="_top" xlink:title=" ">
<polygon fill="white" stroke="black" points="149,-270 149,-289 195,-289 195,-270 149,-270"/>
<text text-anchor="middle" x="172" y="-277" font-family="Helvetica,sans-Serif" font-size="10.00">panoc</text>
</a>
</g>
</g>
<!-- Node15&#45;&gt;Node16 -->
<g id="edge21" class="edge">
<title>Node15&#45;&gt;Node16</title>
<path fill="none" stroke="midnightblue" d="M274.59,-279.5C248.12,-279.5 216.04,-279.5 195.1,-279.5"/>
<polygon fill="midnightblue" stroke="midnightblue" points="274.79,-283 284.79,-279.5 274.79,-276 274.79,-283"/>
</g>
<!-- Node17 -->
<g id="node17" class="node">
<title>Node17</title>
<g id="a_node17"><a xlink:href="panocpy_8cpp.html#a874ce6effe8570e8994966f291e5e321" target="_top" xlink:title=" ">
<polygon fill="white" stroke="black" points="0,-270 0,-289 113,-289 113,-270 0,-270"/>
<text text-anchor="middle" x="56.5" y="-277" font-family="Helvetica,sans-Serif" font-size="10.00">PYBIND11_MODULE</text>
</a>
</g>
</g>
<!-- Node16&#45;&gt;Node17 -->
<g id="edge22" class="edge">
<title>Node16&#45;&gt;Node17</title>
<path fill="none" stroke="midnightblue" d="M138.8,-279.5C130.74,-279.5 121.86,-279.5 113.02,-279.5"/>
<polygon fill="midnightblue" stroke="midnightblue" points="138.85,-283 148.85,-279.5 138.85,-276 138.85,-283"/>
</g>
<!-- Node18&#45;&gt;Node3 -->
<g id="edge40" class="edge">
<title>Node18&#45;&gt;Node3</title>
<path fill="none" stroke="midnightblue" d="M858.47,-436.16C854.87,-484.24 838.92,-608.77 769,-676.5 665.25,-777.01 581.4,-782.91 448,-727.5 389.26,-703.1 343.79,-636.38 328.27,-611.25"/>
<polygon fill="midnightblue" stroke="midnightblue" points="861.96,-436.34 859.11,-426.14 854.98,-435.89 861.96,-436.34"/>
</g>
<!-- Node18&#45;&gt;Node4 -->
<g id="edge41" class="edge">
<title>Node18&#45;&gt;Node4</title>
<path fill="none" stroke="midnightblue" d="M855.32,-436.07C846.13,-474.83 820.73,-562.12 769,-614.5 665.91,-718.89 566.9,-777.45 448,-691.5 406.65,-661.61 430.76,-629.94 412,-582.5 385.24,-514.84 346.67,-437.02 330.31,-404.75"/>
<polygon fill="midnightblue" stroke="midnightblue" points="858.79,-436.62 857.58,-426.09 851.96,-435.07 858.79,-436.62"/>
</g>
<!-- Node18&#45;&gt;Node5 -->
<g id="edge42" class="edge">
<title>Node18&#45;&gt;Node5</title>
<path fill="none" stroke="midnightblue" d="M855.76,-396.77C847.26,-356.96 822.87,-266.36 769,-213.5 754.96,-199.73 625.27,-148.41 606,-144.5 537.18,-130.53 518.22,-143.66 448,-144.5 436.45,-144.64 424.3,-144.85 412.3,-145.09"/>
<polygon fill="midnightblue" stroke="midnightblue" points="852.33,-397.47 857.75,-406.57 859.19,-396.07 852.33,-397.47"/>
</g>
<!-- Node18&#45;&gt;Node6 -->
<g id="edge43" class="edge">
<title>Node18&#45;&gt;Node6</title>
<path fill="none" stroke="midnightblue" d="M794.77,-425.48C737.71,-433.4 654.82,-444.9 596.62,-452.98"/>
<polygon fill="midnightblue" stroke="midnightblue" points="795.34,-428.94 804.76,-424.1 794.37,-422 795.34,-428.94"/>
</g>
<!-- Node18&#45;&gt;Node7 -->
<g id="edge44" class="edge">
<title>Node18&#45;&gt;Node7</title>
<path fill="none" stroke="midnightblue" d="M848.7,-434.68C833.92,-457.7 805.07,-496.53 769,-514.5 718.76,-539.53 655.38,-544.98 606.22,-544.47"/>
<polygon fill="midnightblue" stroke="midnightblue" points="851.69,-436.51 853.99,-426.16 845.74,-432.81 851.69,-436.51"/>
</g>
<!-- Node18&#45;&gt;Node8 -->
<g id="edge45" class="edge">
<title>Node18&#45;&gt;Node8</title>
<path fill="none" stroke="midnightblue" d="M846.91,-398.79C813.78,-353.99 718.88,-237.07 606,-199.5 515.46,-169.37 400.3,-200.02 349.11,-216.92"/>
<polygon fill="midnightblue" stroke="midnightblue" points="844.15,-400.95 852.87,-406.97 849.81,-396.83 844.15,-400.95"/>
</g>
<!-- Node18&#45;&gt;Node9 -->
<g id="edge46" class="edge">
<title>Node18&#45;&gt;Node9</title>
<path fill="none" stroke="midnightblue" d="M835.45,-431.24C767.27,-470.94 569.8,-571.23 448,-481.5 404.54,-449.48 451.69,-402.09 412,-365.5 406.15,-360.1 399.17,-356.05 391.72,-353.03"/>
<polygon fill="midnightblue" stroke="midnightblue" points="837.37,-434.17 844.19,-426.07 833.8,-428.15 837.37,-434.17"/>
</g>
<!-- Node19 -->
<g id="node19" class="node">
<title>Node19</title>
<g id="a_node19"><a xlink:href="namespacepa_1_1detail.html#aa986daa1d5f0dfdbc75c143d2aae2919" target="_top" xlink:title="Calculate both ψ(x) and its gradient ∇ψ(x).">
<polygon fill="white" stroke="black" points="655.5,-371.5 655.5,-401.5 755.5,-401.5 755.5,-371.5 655.5,-371.5"/>
<text text-anchor="start" x="663.5" y="-389.5" font-family="Helvetica,sans-Serif" font-size="10.00">pa::detail::calc_ψ</text>
<text text-anchor="middle" x="705.5" y="-378.5" font-family="Helvetica,sans-Serif" font-size="10.00">_grad_ψ</text>
</a>
</g>
</g>
<!-- Node18&#45;&gt;Node19 -->
<g id="edge24" class="edge">
<title>Node18&#45;&gt;Node19</title>
<path fill="none" stroke="midnightblue" d="M800.57,-404.95C785.73,-402.04 769.96,-398.94 755.65,-396.14"/>
<polygon fill="midnightblue" stroke="midnightblue" points="800.18,-408.44 810.67,-406.93 801.53,-401.57 800.18,-408.44"/>
</g>
<!-- Node20 -->
<g id="node20" class="node">
<title>Node20</title>
<g id="a_node20"><a xlink:href="namespacepa_1_1detail.html#ac7d4fa127500b38a8cec94984c4f598d" target="_top" xlink:title="Increase the estimate of the Lipschitz constant of the objective gradient and decrease the step size ...">
<polygon fill="white" stroke="black" points="473.5,-289.5 473.5,-319.5 580.5,-319.5 580.5,-289.5 473.5,-289.5"/>
<text text-anchor="start" x="481.5" y="-307.5" font-family="Helvetica,sans-Serif" font-size="10.00">pa::detail::descent</text>
<text text-anchor="middle" x="527" y="-296.5" font-family="Helvetica,sans-Serif" font-size="10.00">_lemma</text>
</a>
</g>
</g>
<!-- Node18&#45;&gt;Node20 -->
<g id="edge33" class="edge">
<title>Node18&#45;&gt;Node20</title>
<path fill="none" stroke="midnightblue" d="M837.91,-401.07C820.16,-389.02 793.96,-372.67 769,-362.5 706.63,-337.08 630.45,-321.06 580.66,-312.45"/>
<polygon fill="midnightblue" stroke="midnightblue" points="836.16,-404.11 846.37,-406.92 840.14,-398.35 836.16,-404.11"/>
</g>
<!-- Node19&#45;&gt;Node3 -->
<g id="edge26" class="edge">
<title>Node19&#45;&gt;Node3</title>
<path fill="none" stroke="midnightblue" d="M645.19,-397.51C574.75,-410.93 464.63,-433.09 448,-443.5 385.64,-482.52 341.14,-563.84 327.16,-591.81"/>
<polygon fill="midnightblue" stroke="midnightblue" points="646.11,-400.9 655.28,-395.6 644.81,-394.02 646.11,-400.9"/>
</g>
<!-- Node19&#45;&gt;Node4 -->
<g id="edge27" class="edge">
<title>Node19&#45;&gt;Node4</title>
<path fill="none" stroke="midnightblue" d="M645.21,-386.97C579.89,-387.48 474.51,-388.31 402.05,-388.88"/>
<polygon fill="midnightblue" stroke="midnightblue" points="645.37,-390.46 655.34,-386.89 645.31,-383.46 645.37,-390.46"/>
</g>
<!-- Node19&#45;&gt;Node5 -->
<g id="edge28" class="edge">
<title>Node19&#45;&gt;Node5</title>
<path fill="none" stroke="midnightblue" d="M698.83,-361.5C688.18,-320.62 661.1,-239.99 606,-199.5 550.35,-158.61 472.32,-146.69 412.2,-144.4"/>
<polygon fill="midnightblue" stroke="midnightblue" points="695.49,-362.58 701.3,-371.44 702.29,-360.9 695.49,-362.58"/>
</g>
<!-- Node19&#45;&gt;Node6 -->
<g id="edge29" class="edge">
<title>Node19&#45;&gt;Node6</title>
<path fill="none" stroke="midnightblue" d="M670.5,-406.47C651.86,-416.9 628.11,-429.36 606,-438.5 592.65,-444.02 577.55,-448.95 564.22,-452.89"/>
<polygon fill="midnightblue" stroke="midnightblue" points="672.24,-409.51 679.21,-401.54 668.79,-403.42 672.24,-409.51"/>
</g>
<!-- Node19&#45;&gt;Node7 -->
<g id="edge30" class="edge">
<title>Node19&#45;&gt;Node7</title>
<path fill="none" stroke="midnightblue" d="M682.9,-409.01C663.46,-428.85 633.77,-458.15 606,-481.5 584.69,-499.42 558.22,-518.07 542.24,-528.96"/>
<polygon fill="midnightblue" stroke="midnightblue" points="685.6,-411.25 690.07,-401.64 680.59,-406.36 685.6,-411.25"/>
</g>
<!-- Node19&#45;&gt;Node8 -->
<g id="edge31" class="edge">
<title>Node19&#45;&gt;Node8</title>
<path fill="none" stroke="midnightblue" d="M697.08,-361.73C684.77,-325.61 656.37,-259.75 606,-231.5 527,-187.19 415.11,-203.99 358.41,-216.95"/>
<polygon fill="midnightblue" stroke="midnightblue" points="693.83,-363.06 700.26,-371.49 700.49,-360.89 693.83,-363.06"/>
</g>
<!-- Node19&#45;&gt;Node9 -->
<g id="edge32" class="edge">
<title>Node19&#45;&gt;Node9</title>
<path fill="none" stroke="midnightblue" d="M645.16,-380.13C576.69,-372.78 464.27,-360.72 391.84,-352.94"/>
<polygon fill="midnightblue" stroke="midnightblue" points="645.03,-383.64 655.34,-381.22 645.77,-376.68 645.03,-383.64"/>
</g>
<!-- Node19&#45;&gt;Node14 -->
<g id="edge25" class="edge">
<title>Node19&#45;&gt;Node14</title>
<path fill="none" stroke="midnightblue" d="M688.34,-362.99C670.7,-339.02 640.37,-302.34 606,-280.5 598.92,-276 590.96,-272.25 582.9,-269.13"/>
<polygon fill="midnightblue" stroke="midnightblue" points="685.56,-365.12 694.24,-371.2 691.24,-361.04 685.56,-365.12"/>
</g>
<!-- Node20&#45;&gt;Node3 -->
<g id="edge34" class="edge">
<title>Node20&#45;&gt;Node3</title>
<path fill="none" stroke="midnightblue" d="M508.23,-327.9C492.18,-349.21 468.07,-381.65 448,-410.5 400.41,-478.9 346.45,-563.61 328.59,-591.84"/>
<polygon fill="midnightblue" stroke="midnightblue" points="511.14,-329.85 514.37,-319.76 505.55,-325.63 511.14,-329.85"/>
</g>
<!-- Node20&#45;&gt;Node4 -->
<g id="edge35" class="edge">
<title>Node20&#45;&gt;Node4</title>
<path fill="none" stroke="midnightblue" d="M492.21,-324.71C469.99,-337.39 439.95,-353.39 412,-364.5 402.86,-368.14 392.99,-371.46 383.26,-374.41"/>
<polygon fill="midnightblue" stroke="midnightblue" points="494.02,-327.71 500.93,-319.68 490.52,-321.65 494.02,-327.71"/>
</g>
<!-- Node20&#45;&gt;Node5 -->
<g id="edge36" class="edge">
<title>Node20&#45;&gt;Node5</title>
<path fill="none" stroke="midnightblue" d="M464.13,-290.82C458.32,-288 452.81,-284.6 448,-280.5 420.46,-257.04 435.83,-234.72 412,-207.5 395.49,-188.64 371.74,-173.09 352.85,-162.54"/>
<polygon fill="midnightblue" stroke="midnightblue" points="462.88,-294.09 473.45,-294.79 465.62,-287.65 462.88,-294.09"/>
</g>
<!-- Node20&#45;&gt;Node8 -->
<g id="edge37" class="edge">
<title>Node20&#45;&gt;Node8</title>
<path fill="none" stroke="midnightblue" d="M463.73,-286.63C458.36,-284.7 453.05,-282.65 448,-280.5 431.16,-273.33 428.6,-268.21 412,-260.5 391.95,-251.18 368.58,-242.37 350.75,-236.05"/>
<polygon fill="midnightblue" stroke="midnightblue" points="462.84,-290.03 473.43,-289.97 465.12,-283.41 462.84,-290.03"/>
</g>
<!-- Node20&#45;&gt;Node9 -->
<g id="edge38" class="edge">
<title>Node20&#45;&gt;Node9</title>
<path fill="none" stroke="midnightblue" d="M463.32,-317.13C433.16,-323.21 397.58,-330.37 369.74,-335.98"/>
<polygon fill="midnightblue" stroke="midnightblue" points="464.22,-320.52 473.33,-315.11 462.83,-313.66 464.22,-320.52"/>
</g>
<!-- Node20&#45;&gt;Node15 -->
<g id="edge39" class="edge">
<title>Node20&#45;&gt;Node15</title>
<path fill="none" stroke="midnightblue" d="M463.34,-296.8C428.85,-292.56 387.29,-287.46 358.29,-283.9"/>
<polygon fill="midnightblue" stroke="midnightblue" points="462.98,-300.28 473.33,-298.03 463.83,-293.34 462.98,-300.28"/>
</g>
</g>
</svg>
