<?xml version="1.0" encoding="UTF-8" standalone="no"?>
<!DOCTYPE svg PUBLIC "-//W3C//DTD SVG 1.1//EN"
 "http://www.w3.org/Graphics/SVG/1.1/DTD/svg11.dtd">
<!-- Generated by graphviz version 2.43.0 (0)
 -->
<!-- Title: projecting_difference Pages: 1 -->
<svg width="1079pt" height="598pt"
 viewBox="0.00 0.00 1079.00 597.97" xmlns="http://www.w3.org/2000/svg" xmlns:xlink="http://www.w3.org/1999/xlink">
<g id="graph0" class="graph" transform="scale(1 1) rotate(0) translate(4 593.97)">
<title>projecting_difference</title>
<polygon fill="white" stroke="transparent" points="-4,4 -4,-593.97 1075,-593.97 1075,4 -4,4"/>
<!-- Node1 -->
<g id="node1" class="node">
<title>Node1</title>
<g id="a_node1"><a xlink:title="Get the difference between the given vector and its projection.">
<polygon fill="#bfbfbf" stroke="black" points="952,-247.97 952,-266.97 1071,-266.97 1071,-247.97 952,-247.97"/>
<text text-anchor="middle" x="1011.5" y="-254.97" font-family="Helvetica,sans-Serif" font-size="10.00">projecting_difference</text>
</a>
</g>
</g>
<!-- Node2 -->
<g id="node2" class="node">
<title>Node2</title>
<g id="a_node2"><a xlink:href="namespacepa_1_1detail.html#a6572cf745448d2b40e9d5e977d17d5e2" target="_top" xlink:title="Calculate the gradient ∇ψ(x).">
<polygon fill="white" stroke="black" points="642,-558.97 642,-577.97 769,-577.97 769,-558.97 642,-558.97"/>
<text text-anchor="middle" x="705.5" y="-565.97" font-family="Helvetica,sans-Serif" font-size="10.00">pa::detail::calc_grad_ψ</text>
</a>
</g>
</g>
<!-- Node1&#45;&gt;Node2 -->
<g id="edge1" class="edge">
<title>Node1&#45;&gt;Node2</title>
<path fill="none" stroke="midnightblue" d="M999.7,-275.91C969.5,-326 879.14,-466.01 769,-544.47 760.48,-550.54 750.23,-555.3 740.51,-558.94"/>
<polygon fill="midnightblue" stroke="midnightblue" points="1002.81,-277.52 1004.92,-267.14 996.8,-273.94 1002.81,-277.52"/>
</g>
<!-- Node12 -->
<g id="node12" class="node">
<title>Node12</title>
<g id="a_node12"><a xlink:href="namespacepa_1_1detail.html#a82a03662e6ce5bcfd57ee2df719aec21" target="_top" xlink:title="Calculate both ψ(x) and the vector ŷ that can later be used to compute ∇ψ.">
<polygon fill="white" stroke="black" points="805,-247.97 805,-266.97 916,-266.97 916,-247.97 805,-247.97"/>
<text text-anchor="middle" x="860.5" y="-254.97" font-family="Helvetica,sans-Serif" font-size="10.00">pa::detail::calc_ψ_ŷ</text>
</a>
</g>
</g>
<!-- Node1&#45;&gt;Node12 -->
<g id="edge12" class="edge">
<title>Node1&#45;&gt;Node12</title>
<path fill="none" stroke="midnightblue" d="M941.35,-257.47C932.87,-257.47 924.3,-257.47 916.08,-257.47"/>
<polygon fill="midnightblue" stroke="midnightblue" points="941.61,-260.97 951.61,-257.47 941.61,-253.97 941.61,-260.97"/>
</g>
<!-- Node18 -->
<g id="node18" class="node">
<title>Node18</title>
<g id="a_node18"><a xlink:href="namespacepa.html#a841a5169cd34615a1d9942e6ceead589" target="_top" xlink:title="Get the distance squared between the given vector and its projection.">
<polygon fill="white" stroke="black" points="821,-209.97 821,-228.97 900,-228.97 900,-209.97 821,-209.97"/>
<text text-anchor="middle" x="860.5" y="-216.97" font-family="Helvetica,sans-Serif" font-size="10.00">dist_squared</text>
</a>
</g>
</g>
<!-- Node1&#45;&gt;Node18 -->
<g id="edge36" class="edge">
<title>Node1&#45;&gt;Node18</title>
<path fill="none" stroke="midnightblue" d="M963.01,-245.35C942.26,-240.06 918.27,-233.94 898.83,-228.99"/>
<polygon fill="midnightblue" stroke="midnightblue" points="962.35,-248.8 972.9,-247.88 964.08,-242.01 962.35,-248.8"/>
</g>
<!-- Node3 -->
<g id="node3" class="node">
<title>Node3</title>
<g id="a_node3"><a xlink:href="namespacepa_1_1detail.html#a384dd0255096b08c79472df49f7f9388" target="_top" xlink:title="Compute the Hessian matrix of the augmented Lagrangian function multiplied by the given vector,...">
<polygon fill="white" stroke="black" points="448,-559.47 448,-589.47 606,-589.47 606,-559.47 448,-559.47"/>
<text text-anchor="start" x="456" y="-577.47" font-family="Helvetica,sans-Serif" font-size="10.00">pa::detail::calc_augmented</text>
<text text-anchor="middle" x="527" y="-566.47" font-family="Helvetica,sans-Serif" font-size="10.00">_lagrangian_hessian_prod_fd</text>
</a>
</g>
</g>
<!-- Node2&#45;&gt;Node3 -->
<g id="edge2" class="edge">
<title>Node2&#45;&gt;Node3</title>
<path fill="none" stroke="midnightblue" d="M631.67,-570.94C623.29,-571.23 614.72,-571.52 606.27,-571.81"/>
<polygon fill="midnightblue" stroke="midnightblue" points="631.9,-574.44 641.78,-570.6 631.66,-567.44 631.9,-574.44"/>
</g>
<!-- Node5 -->
<g id="node5" class="node">
<title>Node5</title>
<g id="a_node5"><a xlink:href="namespacepa_1_1detail.html#a92963cadf7f44fcf9f3ab6bddff08796" target="_top" xlink:title="Estimate the Lipschitz constant of the gradient &#160;using finite differences.">
<polygon fill="white" stroke="black" points="471.5,-357.47 471.5,-387.47 582.5,-387.47 582.5,-357.47 471.5,-357.47"/>
<text text-anchor="start" x="479.5" y="-375.47" font-family="Helvetica,sans-Serif" font-size="10.00">pa::detail::initial</text>
<text text-anchor="middle" x="527" y="-364.47" font-family="Helvetica,sans-Serif" font-size="10.00">_lipschitz_estimate</text>
</a>
</g>
</g>
<!-- Node2&#45;&gt;Node5 -->
<g id="edge4" class="edge">
<title>Node2&#45;&gt;Node5</title>
<path fill="none" stroke="midnightblue" d="M688.84,-551.07C654.67,-513.13 573.93,-423.48 541.67,-387.65"/>
<polygon fill="midnightblue" stroke="midnightblue" points="686.45,-553.66 695.75,-558.75 691.66,-548.97 686.45,-553.66"/>
</g>
<!-- Node4 -->
<g id="node4" class="node">
<title>Node4</title>
<g id="a_node4"><a xlink:href="classpa_1_1StructuredPANOCLBFGSSolver.html#ade95d8a7a1892d4087d6fffc958cde6e" target="_top" xlink:title=" ">
<polygon fill="white" stroke="black" points="231,-439.47 231,-469.47 412,-469.47 412,-439.47 231,-439.47"/>
<text text-anchor="start" x="239" y="-457.47" font-family="Helvetica,sans-Serif" font-size="10.00">pa::StructuredPANOCLBFGSSolver</text>
<text text-anchor="middle" x="321.5" y="-446.47" font-family="Helvetica,sans-Serif" font-size="10.00">::operator()</text>
</a>
</g>
</g>
<!-- Node3&#45;&gt;Node4 -->
<g id="edge3" class="edge">
<title>Node3&#45;&gt;Node4</title>
<path fill="none" stroke="midnightblue" d="M471.58,-555.6C463.52,-552.21 455.43,-548.48 448,-544.47 407.18,-522.45 364.21,-489.09 340.65,-469.77"/>
<polygon fill="midnightblue" stroke="midnightblue" points="470.4,-558.89 480.99,-559.4 473.03,-552.4 470.4,-558.89"/>
</g>
<!-- Node5&#45;&gt;Node4 -->
<g id="edge6" class="edge">
<title>Node5&#45;&gt;Node4</title>
<path fill="none" stroke="midnightblue" d="M479.31,-391.28C443.09,-405.87 393.57,-425.83 359.93,-439.38"/>
<polygon fill="midnightblue" stroke="midnightblue" points="480.71,-394.49 488.67,-387.51 478.09,-388 480.71,-394.49"/>
</g>
<!-- Node6 -->
<g id="node6" class="node">
<title>Node6</title>
<g id="a_node6"><a xlink:href="classpa_1_1SecondOrderPANOCSolver.html#acb04b3f19dafad9b4e7e7c1c19018d19" target="_top" xlink:title=" ">
<polygon fill="white" stroke="black" points="241,-373.47 241,-403.47 402,-403.47 402,-373.47 241,-373.47"/>
<text text-anchor="start" x="249" y="-391.47" font-family="Helvetica,sans-Serif" font-size="10.00">pa::SecondOrderPANOCSolver</text>
<text text-anchor="middle" x="321.5" y="-380.47" font-family="Helvetica,sans-Serif" font-size="10.00">::operator()</text>
</a>
</g>
</g>
<!-- Node5&#45;&gt;Node6 -->
<g id="edge5" class="edge">
<title>Node5&#45;&gt;Node6</title>
<path fill="none" stroke="midnightblue" d="M461.24,-377.56C442.43,-379.04 421.67,-380.67 402.06,-382.21"/>
<polygon fill="midnightblue" stroke="midnightblue" points="461.77,-381.03 471.47,-376.75 461.22,-374.05 461.77,-381.03"/>
</g>
<!-- Node7 -->
<g id="node7" class="node">
<title>Node7</title>
<g id="a_node7"><a xlink:href="classpa_1_1GAAPGASolver.html#a570ec001ea8eee359be8a1b90b782cfb" target="_top" xlink:title=" ">
<polygon fill="white" stroke="black" points="241,-212.97 241,-231.97 402,-231.97 402,-212.97 241,-212.97"/>
<text text-anchor="middle" x="321.5" y="-219.97" font-family="Helvetica,sans-Serif" font-size="10.00">pa::GAAPGASolver::operator()</text>
</a>
</g>
</g>
<!-- Node5&#45;&gt;Node7 -->
<g id="edge7" class="edge">
<title>Node5&#45;&gt;Node7</title>
<path fill="none" stroke="midnightblue" d="M461.86,-358.03C456.85,-355.36 452.14,-352.2 448,-348.47 417.55,-320.97 440.59,-292.89 412,-263.47 397.47,-248.51 376.46,-238.5 358.45,-232.11"/>
<polygon fill="midnightblue" stroke="midnightblue" points="460.6,-361.3 471.14,-362.31 463.53,-354.94 460.6,-361.3"/>
</g>
<!-- Node8 -->
<g id="node8" class="node">
<title>Node8</title>
<g id="a_node8"><a xlink:href="classpa_1_1PGASolver.html#af516b794e244432023aea7ba3cd0d1d8" target="_top" xlink:title=" ">
<polygon fill="white" stroke="black" points="251.5,-272.97 251.5,-291.97 391.5,-291.97 391.5,-272.97 251.5,-272.97"/>
<text text-anchor="middle" x="321.5" y="-279.97" font-family="Helvetica,sans-Serif" font-size="10.00">pa::PGASolver::operator()</text>
</a>
</g>
</g>
<!-- Node5&#45;&gt;Node8 -->
<g id="edge8" class="edge">
<title>Node5&#45;&gt;Node8</title>
<path fill="none" stroke="midnightblue" d="M461.94,-355.44C457.1,-353.35 452.4,-351.03 448,-348.47 428.99,-337.38 430.76,-325.97 412,-314.47 395.96,-304.63 376.46,-297.21 359.76,-292"/>
<polygon fill="midnightblue" stroke="midnightblue" points="460.76,-358.74 471.35,-359.18 463.35,-352.23 460.76,-358.74"/>
</g>
<!-- Node9 -->
<g id="node9" class="node">
<title>Node9</title>
<g id="a_node9"><a xlink:href="namespacepa.html#a2b97bf67604c439eca0a540664930d61" target="_top" xlink:title=" ">
<polygon fill="white" stroke="black" points="285,-323.97 285,-342.97 358,-342.97 358,-323.97 285,-323.97"/>
<text text-anchor="middle" x="321.5" y="-330.97" font-family="Helvetica,sans-Serif" font-size="10.00">panoc_impl</text>
</a>
</g>
</g>
<!-- Node5&#45;&gt;Node9 -->
<g id="edge9" class="edge">
<title>Node5&#45;&gt;Node9</title>
<path fill="none" stroke="midnightblue" d="M461.56,-360.12C427.41,-353.57 386.75,-345.78 358.25,-340.32"/>
<polygon fill="midnightblue" stroke="midnightblue" points="460.99,-363.57 471.47,-362.01 462.3,-356.7 460.99,-363.57"/>
</g>
<!-- Node10 -->
<g id="node10" class="node">
<title>Node10</title>
<g id="a_node10"><a xlink:href="namespacepa.html#adf74e7674514afed3ae1c356ffcb9e45" target="_top" xlink:title=" ">
<polygon fill="white" stroke="black" points="149,-323.97 149,-342.97 195,-342.97 195,-323.97 149,-323.97"/>
<text text-anchor="middle" x="172" y="-330.97" font-family="Helvetica,sans-Serif" font-size="10.00">panoc</text>
</a>
</g>
</g>
<!-- Node9&#45;&gt;Node10 -->
<g id="edge10" class="edge">
<title>Node9&#45;&gt;Node10</title>
<path fill="none" stroke="midnightblue" d="M274.59,-333.47C248.12,-333.47 216.04,-333.47 195.1,-333.47"/>
<polygon fill="midnightblue" stroke="midnightblue" points="274.79,-336.97 284.79,-333.47 274.79,-329.97 274.79,-336.97"/>
</g>
<!-- Node11 -->
<g id="node11" class="node">
<title>Node11</title>
<g id="a_node11"><a xlink:href="panocpy_8cpp.html#a874ce6effe8570e8994966f291e5e321" target="_top" xlink:title=" ">
<polygon fill="white" stroke="black" points="0,-323.97 0,-342.97 113,-342.97 113,-323.97 0,-323.97"/>
<text text-anchor="middle" x="56.5" y="-330.97" font-family="Helvetica,sans-Serif" font-size="10.00">PYBIND11_MODULE</text>
</a>
</g>
</g>
<!-- Node10&#45;&gt;Node11 -->
<g id="edge11" class="edge">
<title>Node10&#45;&gt;Node11</title>
<path fill="none" stroke="midnightblue" d="M138.8,-333.47C130.74,-333.47 121.86,-333.47 113.02,-333.47"/>
<polygon fill="midnightblue" stroke="midnightblue" points="138.85,-336.97 148.85,-333.47 138.85,-329.97 138.85,-336.97"/>
</g>
<!-- Node12&#45;&gt;Node4 -->
<g id="edge31" class="edge">
<title>Node12&#45;&gt;Node4</title>
<path fill="none" stroke="midnightblue" d="M851.09,-276.21C837.64,-304.14 808.72,-356.58 769,-386.47 665.46,-464.36 509.54,-470.03 412.01,-464.26"/>
<polygon fill="midnightblue" stroke="midnightblue" points="854.28,-277.66 855.34,-267.12 847.93,-274.7 854.28,-277.66"/>
</g>
<!-- Node12&#45;&gt;Node6 -->
<g id="edge30" class="edge">
<title>Node12&#45;&gt;Node6</title>
<path fill="none" stroke="midnightblue" d="M842.24,-274.14C803.73,-310.03 706.29,-393.72 606,-423.47 521.84,-448.42 418.53,-422.14 362.79,-403.54"/>
<polygon fill="midnightblue" stroke="midnightblue" points="844.67,-276.66 849.54,-267.25 839.87,-271.57 844.67,-276.66"/>
</g>
<!-- Node12&#45;&gt;Node7 -->
<g id="edge34" class="edge">
<title>Node12&#45;&gt;Node7</title>
<path fill="none" stroke="midnightblue" d="M809.37,-242.54C807.81,-241.29 806.35,-239.93 805,-238.47 761.26,-190.82 816.65,-141.2 769,-97.47 714.9,-47.82 679.18,-76.49 606,-70.47 536.01,-64.71 504.64,-28.96 448,-70.47 405.14,-101.87 447.73,-145.14 412,-184.47 399.51,-198.21 381.23,-207.16 364.44,-212.89"/>
<polygon fill="midnightblue" stroke="midnightblue" points="807.51,-245.5 817.82,-247.95 811.29,-239.61 807.51,-245.5"/>
</g>
<!-- Node12&#45;&gt;Node8 -->
<g id="edge35" class="edge">
<title>Node12&#45;&gt;Node8</title>
<path fill="none" stroke="midnightblue" d="M794.39,-260.5C692.45,-265.24 496.05,-274.39 391.66,-279.25"/>
<polygon fill="midnightblue" stroke="midnightblue" points="794.73,-263.99 804.56,-260.02 794.4,-256.99 794.73,-263.99"/>
</g>
<!-- Node13 -->
<g id="node13" class="node">
<title>Node13</title>
<g id="a_node13"><a xlink:href="namespacepa_1_1detail.html#aa986daa1d5f0dfdbc75c143d2aae2919" target="_top" xlink:title="Calculate both ψ(x) and its gradient ∇ψ(x).">
<polygon fill="white" stroke="black" points="655.5,-220.47 655.5,-250.47 755.5,-250.47 755.5,-220.47 655.5,-220.47"/>
<text text-anchor="start" x="663.5" y="-238.47" font-family="Helvetica,sans-Serif" font-size="10.00">pa::detail::calc_ψ</text>
<text text-anchor="middle" x="705.5" y="-227.47" font-family="Helvetica,sans-Serif" font-size="10.00">_grad_ψ</text>
</a>
</g>
</g>
<!-- Node12&#45;&gt;Node13 -->
<g id="edge13" class="edge">
<title>Node12&#45;&gt;Node13</title>
<path fill="none" stroke="midnightblue" d="M794.78,-248.16C781.66,-246.27 768.06,-244.32 755.59,-242.52"/>
<polygon fill="midnightblue" stroke="midnightblue" points="794.3,-251.63 804.7,-249.59 795.3,-244.7 794.3,-251.63"/>
</g>
<!-- Node14 -->
<g id="node14" class="node">
<title>Node14</title>
<g id="a_node14"><a xlink:href="classpa_1_1PANOCSolver.html#aaa9758a40bd362331202fb232b4bb7ae" target="_top" xlink:title=" ">
<polygon fill="white" stroke="black" points="244.5,-155.97 244.5,-174.97 398.5,-174.97 398.5,-155.97 244.5,-155.97"/>
<text text-anchor="middle" x="321.5" y="-162.97" font-family="Helvetica,sans-Serif" font-size="10.00">pa::PANOCSolver::operator()</text>
</a>
</g>
</g>
<!-- Node12&#45;&gt;Node14 -->
<g id="edge29" class="edge">
<title>Node12&#45;&gt;Node14</title>
<path fill="none" stroke="midnightblue" d="M808.82,-242.23C807.46,-241.06 806.18,-239.81 805,-238.47 752.95,-179.08 827.56,-117.44 769,-64.47 663.05,31.38 580.82,5.17 448,-47.47 391.28,-69.94 345.26,-131.53 328.91,-155.62"/>
<polygon fill="midnightblue" stroke="midnightblue" points="807.12,-245.3 817.38,-247.96 811.02,-239.49 807.12,-245.3"/>
</g>
<!-- Node15 -->
<g id="node15" class="node">
<title>Node15</title>
<g id="a_node15"><a xlink:href="classpa_1_1LBFGSSolver.html#a8540540028b02dfe8b7e3ec0c49c07dd" target="_top" xlink:title=" ">
<polygon fill="white" stroke="black" points="451,-117.97 451,-136.97 603,-136.97 603,-117.97 451,-117.97"/>
<text text-anchor="middle" x="527" y="-124.97" font-family="Helvetica,sans-Serif" font-size="10.00">pa::LBFGSSolver::operator()</text>
</a>
</g>
</g>
<!-- Node12&#45;&gt;Node15 -->
<g id="edge32" class="edge">
<title>Node12&#45;&gt;Node15</title>
<path fill="none" stroke="midnightblue" d="M817.43,-244.28C813.15,-242.51 808.94,-240.56 805,-238.47 787.35,-229.06 786.65,-220.87 769,-211.47 701.54,-175.53 615.57,-149.89 566.66,-136.98"/>
<polygon fill="midnightblue" stroke="midnightblue" points="816.22,-247.57 826.81,-247.91 818.75,-241.04 816.22,-247.57"/>
</g>
<!-- Node16 -->
<g id="node16" class="node">
<title>Node16</title>
<g id="a_node16"><a xlink:href="classpa_1_1LBFGSBSolver.html#a8540540028b02dfe8b7e3ec0c49c07dd" target="_top" xlink:title=" ">
<polygon fill="white" stroke="black" points="448,-79.97 448,-98.97 606,-98.97 606,-79.97 448,-79.97"/>
<text text-anchor="middle" x="527" y="-86.97" font-family="Helvetica,sans-Serif" font-size="10.00">pa::LBFGSBSolver::operator()</text>
</a>
</g>
</g>
<!-- Node12&#45;&gt;Node16 -->
<g id="edge33" class="edge">
<title>Node12&#45;&gt;Node16</title>
<path fill="none" stroke="midnightblue" d="M810.49,-242.81C808.54,-241.49 806.7,-240.04 805,-238.47 775.78,-211.44 798.88,-182.76 769,-156.47 724.1,-116.94 657.74,-100.55 606.02,-93.85"/>
<polygon fill="midnightblue" stroke="midnightblue" points="809.08,-246.04 819.5,-247.9 812.51,-239.94 809.08,-246.04"/>
</g>
<!-- Node17 -->
<g id="node17" class="node">
<title>Node17</title>
<g id="a_node17"><a xlink:href="namespacepa_1_1detail.html#ac7d4fa127500b38a8cec94984c4f598d" target="_top" xlink:title="Increase the estimate of the Lipschitz constant of the objective gradient and decrease the step size ...">
<polygon fill="white" stroke="black" points="473.5,-308.47 473.5,-338.47 580.5,-338.47 580.5,-308.47 473.5,-308.47"/>
<text text-anchor="start" x="481.5" y="-326.47" font-family="Helvetica,sans-Serif" font-size="10.00">pa::detail::descent</text>
<text text-anchor="middle" x="527" y="-315.47" font-family="Helvetica,sans-Serif" font-size="10.00">_lemma</text>
</a>
</g>
</g>
<!-- Node12&#45;&gt;Node17 -->
<g id="edge22" class="edge">
<title>Node12&#45;&gt;Node17</title>
<path fill="none" stroke="midnightblue" d="M830.27,-271.3C812.85,-278.98 790.08,-288.05 769,-293.47 705.49,-309.76 630.22,-317.33 580.9,-320.76"/>
<polygon fill="midnightblue" stroke="midnightblue" points="832.18,-274.28 839.86,-266.97 829.31,-267.9 832.18,-274.28"/>
</g>
<!-- Node13&#45;&gt;Node4 -->
<g id="edge17" class="edge">
<title>Node13&#45;&gt;Node4</title>
<path fill="none" stroke="midnightblue" d="M699.33,-260.48C689.3,-302.04 662.99,-384.6 606,-423.47 549.65,-461.89 471.86,-467.94 412.02,-465.33"/>
<polygon fill="midnightblue" stroke="midnightblue" points="702.77,-261.14 701.59,-250.61 695.94,-259.58 702.77,-261.14"/>
</g>
<!-- Node13&#45;&gt;Node5 -->
<g id="edge14" class="edge">
<title>Node13&#45;&gt;Node5</title>
<path fill="none" stroke="midnightblue" d="M689.81,-259.05C672.7,-284.65 642.12,-325 606,-348.47 598.87,-353.1 590.8,-356.88 582.62,-359.95"/>
<polygon fill="midnightblue" stroke="midnightblue" points="692.75,-260.95 695.29,-250.67 686.89,-257.13 692.75,-260.95"/>
</g>
<!-- Node13&#45;&gt;Node6 -->
<g id="edge16" class="edge">
<title>Node13&#45;&gt;Node6</title>
<path fill="none" stroke="midnightblue" d="M697.81,-260.39C686.22,-297.99 658.45,-367.97 606,-397.47 531.21,-439.52 426.89,-420.16 367.88,-403.5"/>
<polygon fill="midnightblue" stroke="midnightblue" points="701.2,-261.28 700.66,-250.7 694.48,-259.31 701.2,-261.28"/>
</g>
<!-- Node13&#45;&gt;Node7 -->
<g id="edge20" class="edge">
<title>Node13&#45;&gt;Node7</title>
<path fill="none" stroke="midnightblue" d="M645.25,-230.04C632.32,-229.03 618.71,-228.09 606,-227.47 537.29,-224.07 459.11,-222.89 402.28,-222.52"/>
<polygon fill="midnightblue" stroke="midnightblue" points="645.19,-233.55 655.44,-230.87 645.75,-226.57 645.19,-233.55"/>
</g>
<!-- Node13&#45;&gt;Node8 -->
<g id="edge21" class="edge">
<title>Node13&#45;&gt;Node8</title>
<path fill="none" stroke="midnightblue" d="M645.25,-242.09C593.23,-247.97 515.56,-256.94 448,-265.47 429.57,-267.79 409.63,-270.44 391.19,-272.93"/>
<polygon fill="midnightblue" stroke="midnightblue" points="645.75,-245.55 655.29,-240.95 644.97,-238.6 645.75,-245.55"/>
</g>
<!-- Node13&#45;&gt;Node14 -->
<g id="edge15" class="edge">
<title>Node13&#45;&gt;Node14</title>
<path fill="none" stroke="midnightblue" d="M645.23,-224.6C571.04,-211.01 445.15,-187.94 374.52,-175"/>
<polygon fill="midnightblue" stroke="midnightblue" points="644.88,-228.1 655.34,-226.46 646.14,-221.21 644.88,-228.1"/>
</g>
<!-- Node13&#45;&gt;Node15 -->
<g id="edge18" class="edge">
<title>Node13&#45;&gt;Node15</title>
<path fill="none" stroke="midnightblue" d="M683.21,-212.72C664.48,-193.92 635.65,-167.75 606,-151.47 594.95,-145.4 582.15,-140.64 570.16,-137.03"/>
<polygon fill="midnightblue" stroke="midnightblue" points="681.1,-215.57 690.59,-220.28 686.1,-210.68 681.1,-215.57"/>
</g>
<!-- Node13&#45;&gt;Node16 -->
<g id="edge19" class="edge">
<title>Node13&#45;&gt;Node16</title>
<path fill="none" stroke="midnightblue" d="M692.29,-211.19C676.43,-182.2 645.97,-134.37 606,-108.47 600.03,-104.6 593.35,-101.52 586.47,-99.07"/>
<polygon fill="midnightblue" stroke="midnightblue" points="689.32,-213.06 697.11,-220.24 695.5,-209.77 689.32,-213.06"/>
</g>
<!-- Node17&#45;&gt;Node4 -->
<g id="edge25" class="edge">
<title>Node17&#45;&gt;Node4</title>
<path fill="none" stroke="midnightblue" d="M464.06,-338.34C458.3,-341.16 452.83,-344.5 448,-348.47 422.48,-369.43 436.22,-391.02 412,-413.47 400.09,-424.5 384.69,-432.99 370.04,-439.31"/>
<polygon fill="midnightblue" stroke="midnightblue" points="465.49,-341.53 473.27,-334.34 462.7,-335.11 465.49,-341.53"/>
</g>
<!-- Node17&#45;&gt;Node6 -->
<g id="edge24" class="edge">
<title>Node17&#45;&gt;Node6</title>
<path fill="none" stroke="midnightblue" d="M468.92,-341.7C437.65,-351.68 399.37,-363.91 369.79,-373.36"/>
<polygon fill="midnightblue" stroke="midnightblue" points="470.34,-344.92 478.8,-338.54 468.21,-338.25 470.34,-344.92"/>
</g>
<!-- Node17&#45;&gt;Node7 -->
<g id="edge26" class="edge">
<title>Node17&#45;&gt;Node7</title>
<path fill="none" stroke="midnightblue" d="M489.04,-303.36C466.86,-291.45 437.99,-276.25 412,-263.47 389.15,-252.23 362.58,-240.18 344.36,-232.08"/>
<polygon fill="midnightblue" stroke="midnightblue" points="487.65,-306.58 498.11,-308.24 490.97,-300.42 487.65,-306.58"/>
</g>
<!-- Node17&#45;&gt;Node8 -->
<g id="edge27" class="edge">
<title>Node17&#45;&gt;Node8</title>
<path fill="none" stroke="midnightblue" d="M463.32,-310.84C433.16,-304.76 397.58,-297.59 369.74,-291.98"/>
<polygon fill="midnightblue" stroke="midnightblue" points="462.83,-314.31 473.33,-312.85 464.22,-307.45 462.83,-314.31"/>
</g>
<!-- Node17&#45;&gt;Node9 -->
<g id="edge28" class="edge">
<title>Node17&#45;&gt;Node9</title>
<path fill="none" stroke="midnightblue" d="M463.34,-326.55C428.85,-328.24 387.29,-330.28 358.29,-331.71"/>
<polygon fill="midnightblue" stroke="midnightblue" points="463.51,-330.04 473.33,-326.05 463.17,-323.05 463.51,-330.04"/>
</g>
<!-- Node17&#45;&gt;Node14 -->
<g id="edge23" class="edge">
<title>Node17&#45;&gt;Node14</title>
<path fill="none" stroke="midnightblue" d="M508.85,-300.35C488.3,-273.97 451.63,-230.95 412,-203.47 394.1,-191.06 371.52,-181.51 353.51,-175.08"/>
<polygon fill="midnightblue" stroke="midnightblue" points="506.08,-302.48 514.94,-308.29 511.63,-298.22 506.08,-302.48"/>
</g>
</g>
</svg>
