<?xml version="1.0" encoding="UTF-8" standalone="no"?>
<!DOCTYPE svg PUBLIC "-//W3C//DTD SVG 1.1//EN"
 "http://www.w3.org/Graphics/SVG/1.1/DTD/svg11.dtd">
<!-- Generated by graphviz version 2.43.0 (0)
 -->
<!-- Title: calc_ψ_grad_ψ Pages: 1 -->
<svg width="755pt" height="317pt"
 viewBox="0.00 0.00 755.00 316.50" xmlns="http://www.w3.org/2000/svg" xmlns:xlink="http://www.w3.org/1999/xlink">
<g id="graph0" class="graph" transform="scale(1 1) rotate(0) translate(4 312.5)">
<title>calc_ψ_grad_ψ</title>
<polygon fill="white" stroke="transparent" points="-4,4 -4,-312.5 751,-312.5 751,4 -4,4"/>
<!-- Node1 -->
<g id="node1" class="node">
<title>Node1</title>
<g id="a_node1"><a xlink:title="Calculate both ψ(x) and its gradient ∇ψ(x).">
<polygon fill="#bfbfbf" stroke="black" points="660,-133.5 660,-152.5 747,-152.5 747,-133.5 660,-133.5"/>
<text text-anchor="middle" x="703.5" y="-140.5" font-family="Helvetica,sans-Serif" font-size="10.00">calc_ψ_grad_ψ</text>
</a>
</g>
</g>
<!-- Node2 -->
<g id="node2" class="node">
<title>Node2</title>
<g id="a_node2"><a xlink:href="namespacepa_1_1detail.html#a92963cadf7f44fcf9f3ab6bddff08796" target="_top" xlink:title="Estimate the Lipschitz constant of the gradient &#160;using finite differences.">
<polygon fill="white" stroke="black" points="475.5,-190.5 475.5,-209.5 614.5,-209.5 614.5,-190.5 475.5,-190.5"/>
<text text-anchor="middle" x="545" y="-197.5" font-family="Helvetica,sans-Serif" font-size="10.00">initial_lipschitz_estimate</text>
</a>
</g>
</g>
<!-- Node1&#45;&gt;Node2 -->
<g id="edge1" class="edge">
<title>Node1&#45;&gt;Node2</title>
<path fill="none" stroke="midnightblue" d="M671.98,-156.66C657.56,-162.9 640.03,-170.18 624,-176 609.62,-181.22 593.49,-186.31 579.64,-190.45"/>
<polygon fill="midnightblue" stroke="midnightblue" points="673.64,-159.76 681.4,-152.54 670.84,-153.34 673.64,-159.76"/>
</g>
<!-- Node3 -->
<g id="node3" class="node">
<title>Node3</title>
<g id="a_node3"><a xlink:href="classpa_1_1SecondOrderPANOCSolver.html#acb04b3f19dafad9b4e7e7c1c19018d19" target="_top" xlink:title=" ">
<polygon fill="white" stroke="black" points="259,-278 259,-308 420,-308 420,-278 259,-278"/>
<text text-anchor="start" x="267" y="-296" font-family="Helvetica,sans-Serif" font-size="10.00">pa::SecondOrderPANOCSolver</text>
<text text-anchor="middle" x="339.5" y="-285" font-family="Helvetica,sans-Serif" font-size="10.00">::operator()</text>
</a>
</g>
</g>
<!-- Node1&#45;&gt;Node3 -->
<g id="edge10" class="edge">
<title>Node1&#45;&gt;Node3</title>
<path fill="none" stroke="midnightblue" d="M693.96,-162.07C682.02,-186.32 657.93,-227.52 624,-248 562.46,-285.15 480.26,-294.72 420.22,-296"/>
<polygon fill="midnightblue" stroke="midnightblue" points="697.22,-163.35 698.32,-152.82 690.89,-160.37 697.22,-163.35"/>
</g>
<!-- Node4 -->
<g id="node4" class="node">
<title>Node4</title>
<g id="a_node4"><a xlink:href="classpa_1_1StructuredPANOCLBFGSSolver.html#ade95d8a7a1892d4087d6fffc958cde6e" target="_top" xlink:title=" ">
<polygon fill="white" stroke="black" points="249,-229 249,-259 430,-259 430,-229 249,-229"/>
<text text-anchor="start" x="257" y="-247" font-family="Helvetica,sans-Serif" font-size="10.00">pa::StructuredPANOCLBFGSSolver</text>
<text text-anchor="middle" x="339.5" y="-236" font-family="Helvetica,sans-Serif" font-size="10.00">::operator()</text>
</a>
</g>
</g>
<!-- Node1&#45;&gt;Node4 -->
<g id="edge11" class="edge">
<title>Node1&#45;&gt;Node4</title>
<path fill="none" stroke="midnightblue" d="M689.77,-161.12C675.9,-179.25 651.92,-206.25 624,-219 563.44,-246.67 488.09,-252.14 430.29,-251.11"/>
<polygon fill="midnightblue" stroke="midnightblue" points="692.96,-162.69 696.07,-152.56 687.33,-158.54 692.96,-162.69"/>
</g>
<!-- Node5 -->
<g id="node5" class="node">
<title>Node5</title>
<g id="a_node5"><a xlink:href="classpa_1_1GAAPGASolver.html#a570ec001ea8eee359be8a1b90b782cfb" target="_top" xlink:title=" ">
<polygon fill="white" stroke="black" points="259,-152.5 259,-171.5 420,-171.5 420,-152.5 259,-152.5"/>
<text text-anchor="middle" x="339.5" y="-159.5" font-family="Helvetica,sans-Serif" font-size="10.00">pa::GAAPGASolver::operator()</text>
</a>
</g>
</g>
<!-- Node1&#45;&gt;Node5 -->
<g id="edge14" class="edge">
<title>Node1&#45;&gt;Node5</title>
<path fill="none" stroke="midnightblue" d="M649.85,-145.76C589.52,-148.93 490.01,-154.15 420.18,-157.82"/>
<polygon fill="midnightblue" stroke="midnightblue" points="650.11,-149.25 659.91,-145.24 649.74,-142.26 650.11,-149.25"/>
</g>
<!-- Node6 -->
<g id="node6" class="node">
<title>Node6</title>
<g id="a_node6"><a xlink:href="classpa_1_1PGASolver.html#af516b794e244432023aea7ba3cd0d1d8" target="_top" xlink:title=" ">
<polygon fill="white" stroke="black" points="269.5,-114.5 269.5,-133.5 409.5,-133.5 409.5,-114.5 269.5,-114.5"/>
<text text-anchor="middle" x="339.5" y="-121.5" font-family="Helvetica,sans-Serif" font-size="10.00">pa::PGASolver::operator()</text>
</a>
</g>
</g>
<!-- Node1&#45;&gt;Node6 -->
<g id="edge15" class="edge">
<title>Node1&#45;&gt;Node6</title>
<path fill="none" stroke="midnightblue" d="M649.72,-140.23C586.23,-136.9 479.48,-131.29 409.51,-127.62"/>
<polygon fill="midnightblue" stroke="midnightblue" points="649.74,-143.74 659.91,-140.76 650.11,-136.75 649.74,-143.74"/>
</g>
<!-- Node10 -->
<g id="node10" class="node">
<title>Node10</title>
<g id="a_node10"><a xlink:href="classpa_1_1PANOCSolver.html#aaa9758a40bd362331202fb232b4bb7ae" target="_top" xlink:title=" ">
<polygon fill="white" stroke="black" points="468,-76.5 468,-95.5 622,-95.5 622,-76.5 468,-76.5"/>
<text text-anchor="middle" x="545" y="-83.5" font-family="Helvetica,sans-Serif" font-size="10.00">pa::PANOCSolver::operator()</text>
</a>
</g>
</g>
<!-- Node1&#45;&gt;Node10 -->
<g id="edge9" class="edge">
<title>Node1&#45;&gt;Node10</title>
<path fill="none" stroke="midnightblue" d="M671.98,-129.34C657.56,-123.1 640.03,-115.82 624,-110 609.62,-104.78 593.49,-99.69 579.64,-95.55"/>
<polygon fill="midnightblue" stroke="midnightblue" points="670.84,-132.66 681.4,-133.46 673.64,-126.24 670.84,-132.66"/>
</g>
<!-- Node11 -->
<g id="node11" class="node">
<title>Node11</title>
<g id="a_node11"><a xlink:href="classpa_1_1LBFGSSolver.html#a8540540028b02dfe8b7e3ec0c49c07dd" target="_top" xlink:title=" ">
<polygon fill="white" stroke="black" points="469,-38.5 469,-57.5 621,-57.5 621,-38.5 469,-38.5"/>
<text text-anchor="middle" x="545" y="-45.5" font-family="Helvetica,sans-Serif" font-size="10.00">pa::LBFGSSolver::operator()</text>
</a>
</g>
</g>
<!-- Node1&#45;&gt;Node11 -->
<g id="edge12" class="edge">
<title>Node1&#45;&gt;Node11</title>
<path fill="none" stroke="midnightblue" d="M688.9,-125.17C674.62,-107.71 650.59,-81.67 624,-67 616.92,-63.1 609.05,-59.98 601.1,-57.51"/>
<polygon fill="midnightblue" stroke="midnightblue" points="686.48,-127.75 695.44,-133.41 691.96,-123.4 686.48,-127.75"/>
</g>
<!-- Node12 -->
<g id="node12" class="node">
<title>Node12</title>
<g id="a_node12"><a xlink:href="classpa_1_1LBFGSBSolver.html#a8540540028b02dfe8b7e3ec0c49c07dd" target="_top" xlink:title=" ">
<polygon fill="white" stroke="black" points="466,-0.5 466,-19.5 624,-19.5 624,-0.5 466,-0.5"/>
<text text-anchor="middle" x="545" y="-7.5" font-family="Helvetica,sans-Serif" font-size="10.00">pa::LBFGSBSolver::operator()</text>
</a>
</g>
</g>
<!-- Node1&#45;&gt;Node12 -->
<g id="edge13" class="edge">
<title>Node1&#45;&gt;Node12</title>
<path fill="none" stroke="midnightblue" d="M694.63,-123.88C683.05,-98.22 658.96,-53.09 624,-29 618.38,-25.12 612.05,-22.04 605.49,-19.58"/>
<polygon fill="midnightblue" stroke="midnightblue" points="691.51,-125.48 698.69,-133.27 697.93,-122.7 691.51,-125.48"/>
</g>
<!-- Node2&#45;&gt;Node3 -->
<g id="edge2" class="edge">
<title>Node2&#45;&gt;Node3</title>
<path fill="none" stroke="midnightblue" d="M522.64,-215.46C500.45,-230.91 464.23,-254.4 430,-269 422.16,-272.34 413.73,-275.33 405.29,-277.97"/>
<polygon fill="midnightblue" stroke="midnightblue" points="524.83,-218.21 530.98,-209.58 520.79,-212.49 524.83,-218.21"/>
</g>
<!-- Node2&#45;&gt;Node4 -->
<g id="edge3" class="edge">
<title>Node2&#45;&gt;Node4</title>
<path fill="none" stroke="midnightblue" d="M490.02,-211.67C465.54,-216.96 436.29,-223.29 410.18,-228.93"/>
<polygon fill="midnightblue" stroke="midnightblue" points="490.81,-215.08 499.84,-209.55 489.33,-208.24 490.81,-215.08"/>
</g>
<!-- Node2&#45;&gt;Node5 -->
<g id="edge4" class="edge">
<title>Node2&#45;&gt;Node5</title>
<path fill="none" stroke="midnightblue" d="M482.85,-188.58C453.74,-183.14 419.31,-176.72 391.61,-171.54"/>
<polygon fill="midnightblue" stroke="midnightblue" points="482.44,-192.06 492.91,-190.46 483.72,-185.18 482.44,-192.06"/>
</g>
<!-- Node2&#45;&gt;Node6 -->
<g id="edge5" class="edge">
<title>Node2&#45;&gt;Node6</title>
<path fill="none" stroke="midnightblue" d="M519.06,-185.2C496.49,-172.38 461.98,-154.19 430,-143 419.35,-139.28 407.73,-136.16 396.49,-133.59"/>
<polygon fill="midnightblue" stroke="midnightblue" points="517.55,-188.37 527.96,-190.33 521.05,-182.31 517.55,-188.37"/>
</g>
<!-- Node7 -->
<g id="node7" class="node">
<title>Node7</title>
<g id="a_node7"><a xlink:href="namespacepa.html#a2b97bf67604c439eca0a540664930d61" target="_top" xlink:title=" ">
<polygon fill="white" stroke="black" points="294,-190.5 294,-209.5 385,-209.5 385,-190.5 294,-190.5"/>
<text text-anchor="middle" x="339.5" y="-197.5" font-family="Helvetica,sans-Serif" font-size="10.00">pa::panoc_impl</text>
</a>
</g>
</g>
<!-- Node2&#45;&gt;Node7 -->
<g id="edge6" class="edge">
<title>Node2&#45;&gt;Node7</title>
<path fill="none" stroke="midnightblue" d="M465.12,-200C438.01,-200 408.61,-200 385.17,-200"/>
<polygon fill="midnightblue" stroke="midnightblue" points="465.39,-203.5 475.39,-200 465.39,-196.5 465.39,-203.5"/>
</g>
<!-- Node8 -->
<g id="node8" class="node">
<title>Node8</title>
<g id="a_node8"><a xlink:href="namespacepa.html#adf74e7674514afed3ae1c356ffcb9e45" target="_top" xlink:title=" ">
<polygon fill="white" stroke="black" points="149,-190.5 149,-209.5 213,-209.5 213,-190.5 149,-190.5"/>
<text text-anchor="middle" x="181" y="-197.5" font-family="Helvetica,sans-Serif" font-size="10.00">pa::panoc</text>
</a>
</g>
</g>
<!-- Node7&#45;&gt;Node8 -->
<g id="edge7" class="edge">
<title>Node7&#45;&gt;Node8</title>
<path fill="none" stroke="midnightblue" d="M283.47,-200C260.01,-200 233.49,-200 213.44,-200"/>
<polygon fill="midnightblue" stroke="midnightblue" points="283.65,-203.5 293.65,-200 283.65,-196.5 283.65,-203.5"/>
</g>
<!-- Node9 -->
<g id="node9" class="node">
<title>Node9</title>
<g id="a_node9"><a xlink:href="panocpy_8cpp.html#a874ce6effe8570e8994966f291e5e321" target="_top" xlink:title=" ">
<polygon fill="white" stroke="black" points="0,-190.5 0,-209.5 113,-209.5 113,-190.5 0,-190.5"/>
<text text-anchor="middle" x="56.5" y="-197.5" font-family="Helvetica,sans-Serif" font-size="10.00">PYBIND11_MODULE</text>
</a>
</g>
</g>
<!-- Node8&#45;&gt;Node9 -->
<g id="edge8" class="edge">
<title>Node8&#45;&gt;Node9</title>
<path fill="none" stroke="midnightblue" d="M138.52,-200C130.45,-200 121.88,-200 113.43,-200"/>
<polygon fill="midnightblue" stroke="midnightblue" points="138.77,-203.5 148.77,-200 138.77,-196.5 138.77,-203.5"/>
</g>
</g>
</svg>
