<?xml version="1.0" encoding="UTF-8" standalone="no"?>
<!DOCTYPE svg PUBLIC "-//W3C//DTD SVG 1.1//EN"
 "http://www.w3.org/Graphics/SVG/1.1/DTD/svg11.dtd">
<!-- Generated by graphviz version 2.43.0 (0)
 -->
<!-- Title: calc_grad_ψ Pages: 1 -->
<svg width="360pt" height="28pt"
 viewBox="0.00 0.00 360.00 28.00" xmlns="http://www.w3.org/2000/svg" xmlns:xlink="http://www.w3.org/1999/xlink">
<g id="graph0" class="graph" transform="scale(1 1) rotate(0) translate(4 24)">
<title>calc_grad_ψ</title>
<polygon fill="white" stroke="transparent" points="-4,4 -4,-24 356,-24 356,4 -4,4"/>
<!-- Node1 -->
<g id="node1" class="node">
<title>Node1</title>
<g id="a_node1"><a xlink:title="Calculate the gradient ∇ψ(x).">
<polygon fill="#bfbfbf" stroke="black" points="0,-0.5 0,-19.5 75,-19.5 75,-0.5 0,-0.5"/>
<text text-anchor="middle" x="37.5" y="-7.5" font-family="Helvetica,sans-Serif" font-size="10.00">calc_grad_ψ</text>
</a>
</g>
</g>
<!-- Node2 -->
<g id="node2" class="node">
<title>Node2</title>
<g id="a_node2"><a xlink:href="namespacepa.html#aee505a26e46aa4c0ce09d0fed72f0dac" target="_top" xlink:title="Get the difference between the given vector and its projection.">
<polygon fill="white" stroke="black" points="111,-0.5 111,-19.5 248,-19.5 248,-0.5 111,-0.5"/>
<text text-anchor="middle" x="179.5" y="-7.5" font-family="Helvetica,sans-Serif" font-size="10.00">pa::projecting_difference</text>
</a>
</g>
</g>
<!-- Node1&#45;&gt;Node2 -->
<g id="edge1" class="edge">
<title>Node1&#45;&gt;Node2</title>
<path fill="none" stroke="midnightblue" d="M75.28,-10C83.23,-10 91.92,-10 100.78,-10"/>
<polygon fill="midnightblue" stroke="midnightblue" points="100.82,-13.5 110.82,-10 100.82,-6.5 100.82,-13.5"/>
</g>
<!-- Node3 -->
<g id="node3" class="node">
<title>Node3</title>
<g id="a_node3"><a xlink:href="namespacepa.html#a5414901c2fb62f1fd47857642964cc71" target="_top" xlink:title="Project a vector onto a box.">
<polygon fill="white" stroke="black" points="284,-0.5 284,-19.5 352,-19.5 352,-0.5 284,-0.5"/>
<text text-anchor="middle" x="318" y="-7.5" font-family="Helvetica,sans-Serif" font-size="10.00">pa::project</text>
</a>
</g>
</g>
<!-- Node2&#45;&gt;Node3 -->
<g id="edge2" class="edge">
<title>Node2&#45;&gt;Node3</title>
<path fill="none" stroke="midnightblue" d="M248.35,-10C256.91,-10 265.48,-10 273.52,-10"/>
<polygon fill="midnightblue" stroke="midnightblue" points="273.73,-13.5 283.73,-10 273.73,-6.5 273.73,-13.5"/>
</g>
</g>
</svg>
