<?xml version="1.0" encoding="UTF-8" standalone="no"?>
<!DOCTYPE svg PUBLIC "-//W3C//DTD SVG 1.1//EN"
 "http://www.w3.org/Graphics/SVG/1.1/DTD/svg11.dtd">
<!-- Generated by graphviz version 2.43.0 (0)
 -->
<!-- Title: panoc.cpp Pages: 1 -->
<svg width="1627pt" height="408pt"
 viewBox="0.00 0.00 1627.00 408.00" xmlns="http://www.w3.org/2000/svg" xmlns:xlink="http://www.w3.org/1999/xlink">
<g id="graph0" class="graph" transform="scale(1 1) rotate(0) translate(4 404)">
<title>panoc.cpp</title>
<polygon fill="white" stroke="transparent" points="-4,4 -4,-404 1623,-404 1623,4 -4,4"/>
<!-- Node1 -->
<g id="node1" class="node">
<title>Node1</title>
<g id="a_node1"><a xlink:title=" ">
<polygon fill="#bfbfbf" stroke="black" points="1174.5,-380.5 1174.5,-399.5 1240.5,-399.5 1240.5,-380.5 1174.5,-380.5"/>
<text text-anchor="middle" x="1207.5" y="-387.5" font-family="Helvetica,sans-Serif" font-size="10.00">panoc.cpp</text>
</a>
</g>
</g>
<!-- Node2 -->
<g id="node2" class="node">
<title>Node2</title>
<g id="a_node2"><a xlink:href="lbfgs_8hpp.html" target="_top" xlink:title=" ">
<polygon fill="white" stroke="black" points="1051,-313.5 1051,-343.5 1198,-343.5 1198,-313.5 1051,-313.5"/>
<text text-anchor="start" x="1059" y="-331.5" font-family="Helvetica,sans-Serif" font-size="10.00">panoc&#45;alm/inner/directions</text>
<text text-anchor="middle" x="1124.5" y="-320.5" font-family="Helvetica,sans-Serif" font-size="10.00">/lbfgs.hpp</text>
</a>
</g>
</g>
<!-- Node1&#45;&gt;Node2 -->
<g id="edge1" class="edge">
<title>Node1&#45;&gt;Node2</title>
<path fill="none" stroke="midnightblue" d="M1195.61,-380.48C1184.37,-372.42 1167.08,-360.02 1152.36,-349.47"/>
<polygon fill="midnightblue" stroke="midnightblue" points="1154.23,-346.5 1144.06,-343.52 1150.15,-352.19 1154.23,-346.5"/>
</g>
<!-- Node10 -->
<g id="node10" class="node">
<title>Node10</title>
<g id="a_node10"><a xlink:href="inner_2panoc_8hpp.html" target="_top" xlink:title=" ">
<polygon fill="white" stroke="black" points="1216,-319 1216,-338 1365,-338 1365,-319 1216,-319"/>
<text text-anchor="middle" x="1290.5" y="-326" font-family="Helvetica,sans-Serif" font-size="10.00">panoc&#45;alm/inner/panoc.hpp</text>
</a>
</g>
</g>
<!-- Node1&#45;&gt;Node10 -->
<g id="edge11" class="edge">
<title>Node1&#45;&gt;Node10</title>
<path fill="none" stroke="midnightblue" d="M1219.39,-380.48C1232.7,-370.93 1254.5,-355.31 1270.46,-343.87"/>
<polygon fill="midnightblue" stroke="midnightblue" points="1272.54,-346.68 1278.63,-338.01 1268.46,-340.99 1272.54,-346.68"/>
</g>
<!-- Node3 -->
<g id="node3" class="node">
<title>Node3</title>
<g id="a_node3"><a xlink:href="decl_2lbfgs_8hpp.html" target="_top" xlink:title=" ">
<polygon fill="white" stroke="black" points="0,-246.5 0,-276.5 147,-276.5 147,-246.5 0,-246.5"/>
<text text-anchor="start" x="8" y="-264.5" font-family="Helvetica,sans-Serif" font-size="10.00">panoc&#45;alm/inner/directions</text>
<text text-anchor="middle" x="73.5" y="-253.5" font-family="Helvetica,sans-Serif" font-size="10.00">/decl/lbfgs.hpp</text>
</a>
</g>
</g>
<!-- Node2&#45;&gt;Node3 -->
<g id="edge2" class="edge">
<title>Node2&#45;&gt;Node3</title>
<path fill="none" stroke="midnightblue" d="M1050.6,-322.93C860.92,-311.2 357.79,-280.08 157.49,-267.69"/>
<polygon fill="midnightblue" stroke="midnightblue" points="157.52,-264.19 147.32,-267.07 157.09,-271.18 157.52,-264.19"/>
</g>
<!-- Node9 -->
<g id="node9" class="node">
<title>Node9</title>
<g id="a_node9"><a xlink:title=" ">
<polygon fill="white" stroke="#bfbfbf" points="1149,-118 1149,-137 1218,-137 1218,-118 1149,-118"/>
<text text-anchor="middle" x="1183.5" y="-125" font-family="Helvetica,sans-Serif" font-size="10.00">type_traits</text>
</a>
</g>
</g>
<!-- Node2&#45;&gt;Node9 -->
<g id="edge10" class="edge">
<title>Node2&#45;&gt;Node9</title>
<path fill="none" stroke="midnightblue" d="M1129.34,-313.48C1136.84,-291.53 1151.56,-247.68 1162.5,-210 1168.72,-188.57 1174.99,-163.69 1179.04,-147.12"/>
<polygon fill="midnightblue" stroke="midnightblue" points="1182.51,-147.65 1181.46,-137.11 1175.71,-146.01 1182.51,-147.65"/>
</g>
<!-- Node4 -->
<g id="node4" class="node">
<title>Node4</title>
<g id="a_node4"><a xlink:href="box_8hpp.html" target="_top" xlink:title=" ">
<polygon fill="white" stroke="black" points="191,-118 191,-137 320,-137 320,-118 191,-118"/>
<text text-anchor="middle" x="255.5" y="-125" font-family="Helvetica,sans-Serif" font-size="10.00">panoc&#45;alm/util/box.hpp</text>
</a>
</g>
</g>
<!-- Node3&#45;&gt;Node4 -->
<g id="edge3" class="edge">
<title>Node3&#45;&gt;Node4</title>
<path fill="none" stroke="midnightblue" d="M72.8,-246.47C72.69,-228.5 75.27,-197.5 92.5,-179 107.47,-162.92 159.78,-148.53 201.15,-139.26"/>
<polygon fill="midnightblue" stroke="midnightblue" points="202.12,-142.63 211.14,-137.08 200.62,-135.8 202.12,-142.63"/>
</g>
<!-- Node5 -->
<g id="node5" class="node">
<title>Node5</title>
<g id="a_node5"><a xlink:href="vec_8hpp.html" target="_top" xlink:title=" ">
<polygon fill="white" stroke="black" points="228,-56.5 228,-75.5 283,-75.5 283,-56.5 228,-56.5"/>
<text text-anchor="middle" x="255.5" y="-63.5" font-family="Helvetica,sans-Serif" font-size="10.00">vec.hpp</text>
</a>
</g>
</g>
<!-- Node3&#45;&gt;Node5 -->
<g id="edge6" class="edge">
<title>Node3&#45;&gt;Node5</title>
<path fill="none" stroke="midnightblue" d="M59.48,-246.28C33.19,-217.92 -17.87,-153.45 16.5,-112 41.61,-81.72 156.76,-71.68 217.59,-68.46"/>
<polygon fill="midnightblue" stroke="midnightblue" points="218.12,-71.94 227.93,-67.95 217.77,-64.94 218.12,-71.94"/>
</g>
<!-- Node7 -->
<g id="node7" class="node">
<title>Node7</title>
<g id="a_node7"><a xlink:href="lbfgs-fwd_8hpp.html" target="_top" xlink:title=" ">
<polygon fill="white" stroke="black" points="26,-112.5 26,-142.5 173,-142.5 173,-112.5 26,-112.5"/>
<text text-anchor="start" x="34" y="-130.5" font-family="Helvetica,sans-Serif" font-size="10.00">panoc&#45;alm/inner/directions</text>
<text text-anchor="middle" x="99.5" y="-119.5" font-family="Helvetica,sans-Serif" font-size="10.00">/decl/lbfgs&#45;fwd.hpp</text>
</a>
</g>
</g>
<!-- Node3&#45;&gt;Node7 -->
<g id="edge7" class="edge">
<title>Node3&#45;&gt;Node7</title>
<path fill="none" stroke="midnightblue" d="M66.86,-246.3C60.08,-229.76 51.57,-201.78 59.5,-179 63.14,-168.54 69.95,-158.62 76.93,-150.38"/>
<polygon fill="midnightblue" stroke="midnightblue" points="79.72,-152.51 83.85,-142.75 74.54,-147.81 79.72,-152.51"/>
</g>
<!-- Node8 -->
<g id="node8" class="node">
<title>Node8</title>
<g id="a_node8"><a xlink:href="panoc-direction-update_8hpp.html" target="_top" xlink:title=" ">
<polygon fill="white" stroke="black" points="101,-179.5 101,-209.5 278,-209.5 278,-179.5 101,-179.5"/>
<text text-anchor="start" x="109" y="-197.5" font-family="Helvetica,sans-Serif" font-size="10.00">panoc&#45;alm/inner/directions</text>
<text text-anchor="middle" x="189.5" y="-186.5" font-family="Helvetica,sans-Serif" font-size="10.00">/decl/panoc&#45;direction&#45;update.hpp</text>
</a>
</g>
</g>
<!-- Node3&#45;&gt;Node8 -->
<g id="edge8" class="edge">
<title>Node3&#45;&gt;Node8</title>
<path fill="none" stroke="midnightblue" d="M98.67,-246.4C115.24,-237.11 137.14,-224.84 155.28,-214.67"/>
<polygon fill="midnightblue" stroke="midnightblue" points="157.37,-217.52 164.38,-209.58 153.94,-211.41 157.37,-217.52"/>
</g>
<!-- Node4&#45;&gt;Node5 -->
<g id="edge4" class="edge">
<title>Node4&#45;&gt;Node5</title>
<path fill="none" stroke="midnightblue" d="M255.5,-117.98C255.5,-109.58 255.5,-96.48 255.5,-85.66"/>
<polygon fill="midnightblue" stroke="midnightblue" points="259,-85.51 255.5,-75.51 252,-85.51 259,-85.51"/>
</g>
<!-- Node6 -->
<g id="node6" class="node">
<title>Node6</title>
<g id="a_node6"><a xlink:title=" ">
<polygon fill="white" stroke="#bfbfbf" points="221,-0.5 221,-19.5 290,-19.5 290,-0.5 221,-0.5"/>
<text text-anchor="middle" x="255.5" y="-7.5" font-family="Helvetica,sans-Serif" font-size="10.00">Eigen/Core</text>
</a>
</g>
</g>
<!-- Node5&#45;&gt;Node6 -->
<g id="edge5" class="edge">
<title>Node5&#45;&gt;Node6</title>
<path fill="none" stroke="midnightblue" d="M255.5,-56.08C255.5,-49.01 255.5,-38.86 255.5,-29.99"/>
<polygon fill="midnightblue" stroke="midnightblue" points="259,-29.75 255.5,-19.75 252,-29.75 259,-29.75"/>
</g>
<!-- Node8&#45;&gt;Node4 -->
<g id="edge9" class="edge">
<title>Node8&#45;&gt;Node4</title>
<path fill="none" stroke="midnightblue" d="M203.82,-179.4C214.32,-169.06 228.57,-155.02 239.45,-144.31"/>
<polygon fill="midnightblue" stroke="midnightblue" points="242,-146.71 246.67,-137.19 237.09,-141.72 242,-146.71"/>
</g>
<!-- Node10&#45;&gt;Node8 -->
<g id="edge42" class="edge">
<title>Node10&#45;&gt;Node8</title>
<path fill="none" stroke="midnightblue" d="M1246.69,-318.95C1234.08,-316.73 1220.28,-314.54 1207.5,-313 969.57,-284.34 907.49,-305.09 669.5,-277 527.56,-260.24 363.72,-230.07 268.83,-211.51"/>
<polygon fill="midnightblue" stroke="midnightblue" points="269.22,-208.02 258.73,-209.53 267.87,-214.89 269.22,-208.02"/>
</g>
<!-- Node11 -->
<g id="node11" class="node">
<title>Node11</title>
<g id="a_node11"><a xlink:href="inner_2decl_2panoc_8hpp.html" target="_top" xlink:title=" ">
<polygon fill="white" stroke="black" points="678,-246.5 678,-276.5 797,-276.5 797,-246.5 678,-246.5"/>
<text text-anchor="start" x="686" y="-264.5" font-family="Helvetica,sans-Serif" font-size="10.00">panoc&#45;alm/inner/decl</text>
<text text-anchor="middle" x="737.5" y="-253.5" font-family="Helvetica,sans-Serif" font-size="10.00">/panoc.hpp</text>
</a>
</g>
</g>
<!-- Node10&#45;&gt;Node11 -->
<g id="edge12" class="edge">
<title>Node10&#45;&gt;Node11</title>
<path fill="none" stroke="midnightblue" d="M1244.92,-318.98C1232.79,-316.87 1219.67,-314.71 1207.5,-313 1065.73,-293.02 898.91,-276.82 807.02,-268.53"/>
<polygon fill="midnightblue" stroke="midnightblue" points="807.28,-265.04 797.01,-267.63 806.66,-272.01 807.28,-265.04"/>
</g>
<!-- Node16 -->
<g id="node16" class="node">
<title>Node16</title>
<g id="a_node16"><a xlink:title=" ">
<polygon fill="white" stroke="#bfbfbf" points="1554,-118 1554,-137 1619,-137 1619,-118 1554,-118"/>
<text text-anchor="middle" x="1586.5" y="-125" font-family="Helvetica,sans-Serif" font-size="10.00">stdexcept</text>
</a>
</g>
</g>
<!-- Node10&#45;&gt;Node16 -->
<g id="edge47" class="edge">
<title>Node10&#45;&gt;Node16</title>
<path fill="none" stroke="midnightblue" d="M1365.04,-321.79C1431.92,-315.15 1523.42,-301.76 1549.5,-277 1585.71,-242.62 1588.69,-178.69 1587.72,-147.13"/>
<polygon fill="midnightblue" stroke="midnightblue" points="1591.22,-146.89 1587.24,-137.07 1584.22,-147.23 1591.22,-146.89"/>
</g>
<!-- Node21 -->
<g id="node21" class="node">
<title>Node21</title>
<g id="a_node21"><a xlink:title=" ">
<polygon fill="white" stroke="#bfbfbf" points="1483.5,-118 1483.5,-137 1535.5,-137 1535.5,-118 1483.5,-118"/>
<text text-anchor="middle" x="1509.5" y="-125" font-family="Helvetica,sans-Serif" font-size="10.00">cassert</text>
</a>
</g>
</g>
<!-- Node10&#45;&gt;Node21 -->
<g id="edge43" class="edge">
<title>Node10&#45;&gt;Node21</title>
<path fill="none" stroke="midnightblue" d="M1365.21,-321.82C1427.42,-315.36 1509.03,-302.24 1529.5,-277 1560.41,-238.88 1534.9,-176.29 1519.34,-146"/>
<polygon fill="midnightblue" stroke="midnightblue" points="1522.35,-144.21 1514.54,-137.05 1516.18,-147.52 1522.35,-144.21"/>
</g>
<!-- Node29 -->
<g id="node29" class="node">
<title>Node29</title>
<g id="a_node29"><a xlink:href="panoc-helpers_8hpp.html" target="_top" xlink:title=" ">
<polygon fill="white" stroke="black" points="1393,-246.5 1393,-276.5 1520,-276.5 1520,-246.5 1393,-246.5"/>
<text text-anchor="start" x="1401" y="-264.5" font-family="Helvetica,sans-Serif" font-size="10.00">panoc&#45;alm/inner/detail</text>
<text text-anchor="middle" x="1456.5" y="-253.5" font-family="Helvetica,sans-Serif" font-size="10.00">/panoc&#45;helpers.hpp</text>
</a>
</g>
</g>
<!-- Node10&#45;&gt;Node29 -->
<g id="edge36" class="edge">
<title>Node10&#45;&gt;Node29</title>
<path fill="none" stroke="midnightblue" d="M1312.54,-318.87C1337.56,-309.07 1379.04,-292.83 1411.07,-280.29"/>
<polygon fill="midnightblue" stroke="midnightblue" points="1412.64,-283.43 1420.67,-276.53 1410.09,-276.92 1412.64,-283.43"/>
</g>
<!-- Node30 -->
<g id="node30" class="node">
<title>Node30</title>
<g id="a_node30"><a xlink:title=" ">
<polygon fill="white" stroke="#bfbfbf" points="1175,-252 1175,-271 1222,-271 1222,-252 1175,-252"/>
<text text-anchor="middle" x="1198.5" y="-259" font-family="Helvetica,sans-Serif" font-size="10.00">cmath</text>
</a>
</g>
</g>
<!-- Node10&#45;&gt;Node30 -->
<g id="edge44" class="edge">
<title>Node10&#45;&gt;Node30</title>
<path fill="none" stroke="midnightblue" d="M1278.09,-318.73C1262.92,-308.01 1237.02,-289.72 1218.9,-276.91"/>
<polygon fill="midnightblue" stroke="midnightblue" points="1220.9,-274.04 1210.71,-271.13 1216.86,-279.76 1220.9,-274.04"/>
</g>
<!-- Node31 -->
<g id="node31" class="node">
<title>Node31</title>
<g id="a_node31"><a xlink:title=" ">
<polygon fill="white" stroke="#bfbfbf" points="1240.5,-252 1240.5,-271 1296.5,-271 1296.5,-252 1240.5,-252"/>
<text text-anchor="middle" x="1268.5" y="-259" font-family="Helvetica,sans-Serif" font-size="10.00">iomanip</text>
</a>
</g>
</g>
<!-- Node10&#45;&gt;Node31 -->
<g id="edge45" class="edge">
<title>Node10&#45;&gt;Node31</title>
<path fill="none" stroke="midnightblue" d="M1287.53,-318.73C1284.27,-309.09 1278.92,-293.3 1274.73,-280.91"/>
<polygon fill="midnightblue" stroke="midnightblue" points="1277.94,-279.48 1271.42,-271.13 1271.31,-281.72 1277.94,-279.48"/>
</g>
<!-- Node32 -->
<g id="node32" class="node">
<title>Node32</title>
<g id="a_node32"><a xlink:title=" ">
<polygon fill="white" stroke="#bfbfbf" points="1314.5,-252 1314.5,-271 1374.5,-271 1374.5,-252 1314.5,-252"/>
<text text-anchor="middle" x="1344.5" y="-259" font-family="Helvetica,sans-Serif" font-size="10.00">iostream</text>
</a>
</g>
</g>
<!-- Node10&#45;&gt;Node32 -->
<g id="edge46" class="edge">
<title>Node10&#45;&gt;Node32</title>
<path fill="none" stroke="midnightblue" d="M1297.78,-318.73C1306.2,-308.6 1320.25,-291.69 1330.75,-279.06"/>
<polygon fill="midnightblue" stroke="midnightblue" points="1333.63,-281.06 1337.33,-271.13 1328.25,-276.58 1333.63,-281.06"/>
</g>
<!-- Node11&#45;&gt;Node8 -->
<g id="edge19" class="edge">
<title>Node11&#45;&gt;Node8</title>
<path fill="none" stroke="midnightblue" d="M677.73,-254.47C593.39,-245.81 434.39,-228.93 288.21,-210.06"/>
<polygon fill="midnightblue" stroke="midnightblue" points="288.52,-206.57 278.15,-208.76 287.62,-213.52 288.52,-206.57"/>
</g>
<!-- Node12 -->
<g id="node12" class="node">
<title>Node12</title>
<g id="a_node12"><a xlink:href="lbfgs-stepsize_8hpp.html" target="_top" xlink:title=" ">
<polygon fill="white" stroke="black" points="510,-179.5 510,-209.5 629,-209.5 629,-179.5 510,-179.5"/>
<text text-anchor="start" x="518" y="-197.5" font-family="Helvetica,sans-Serif" font-size="10.00">panoc&#45;alm/inner/decl</text>
<text text-anchor="middle" x="569.5" y="-186.5" font-family="Helvetica,sans-Serif" font-size="10.00">/lbfgs&#45;stepsize.hpp</text>
</a>
</g>
</g>
<!-- Node11&#45;&gt;Node12 -->
<g id="edge13" class="edge">
<title>Node11&#45;&gt;Node12</title>
<path fill="none" stroke="midnightblue" d="M701.05,-246.4C675.95,-236.69 642.41,-223.71 615.48,-213.29"/>
<polygon fill="midnightblue" stroke="midnightblue" points="616.47,-209.92 605.88,-209.58 613.95,-216.45 616.47,-209.92"/>
</g>
<!-- Node13 -->
<g id="node13" class="node">
<title>Node13</title>
<g id="a_node13"><a xlink:href="panoc-fwd_8hpp.html" target="_top" xlink:title=" ">
<polygon fill="white" stroke="black" points="296,-179.5 296,-209.5 415,-209.5 415,-179.5 296,-179.5"/>
<text text-anchor="start" x="304" y="-197.5" font-family="Helvetica,sans-Serif" font-size="10.00">panoc&#45;alm/inner/decl</text>
<text text-anchor="middle" x="355.5" y="-186.5" font-family="Helvetica,sans-Serif" font-size="10.00">/panoc&#45;fwd.hpp</text>
</a>
</g>
</g>
<!-- Node11&#45;&gt;Node13 -->
<g id="edge14" class="edge">
<title>Node11&#45;&gt;Node13</title>
<path fill="none" stroke="midnightblue" d="M677.79,-251.27C615.67,-241.54 515.63,-225.5 429.5,-210 428.05,-209.74 426.59,-209.47 425.11,-209.2"/>
<polygon fill="midnightblue" stroke="midnightblue" points="425.72,-205.76 415.24,-207.37 424.44,-212.64 425.72,-205.76"/>
</g>
<!-- Node14 -->
<g id="node14" class="node">
<title>Node14</title>
<g id="a_node14"><a xlink:href="panoc-stop-crit_8hpp.html" target="_top" xlink:title=" ">
<polygon fill="white" stroke="black" points="1380,-179.5 1380,-209.5 1499,-209.5 1499,-179.5 1380,-179.5"/>
<text text-anchor="start" x="1388" y="-197.5" font-family="Helvetica,sans-Serif" font-size="10.00">panoc&#45;alm/inner/decl</text>
<text text-anchor="middle" x="1439.5" y="-186.5" font-family="Helvetica,sans-Serif" font-size="10.00">/panoc&#45;stop&#45;crit.hpp</text>
</a>
</g>
</g>
<!-- Node11&#45;&gt;Node14 -->
<g id="edge16" class="edge">
<title>Node11&#45;&gt;Node14</title>
<path fill="none" stroke="midnightblue" d="M797.13,-258.28C907.98,-253.6 1153.43,-240.64 1369.79,-209.97"/>
<polygon fill="midnightblue" stroke="midnightblue" points="1370.34,-213.43 1379.74,-208.54 1369.35,-206.5 1370.34,-213.43"/>
</g>
<!-- Node17 -->
<g id="node17" class="node">
<title>Node17</title>
<g id="a_node17"><a xlink:href="atomic__stop__signal_8hpp.html" target="_top" xlink:title=" ">
<polygon fill="white" stroke="black" points="839.5,-179.5 839.5,-209.5 963.5,-209.5 963.5,-179.5 839.5,-179.5"/>
<text text-anchor="start" x="847.5" y="-197.5" font-family="Helvetica,sans-Serif" font-size="10.00">panoc&#45;alm/util/atomic</text>
<text text-anchor="middle" x="901.5" y="-186.5" font-family="Helvetica,sans-Serif" font-size="10.00">_stop_signal.hpp</text>
</a>
</g>
</g>
<!-- Node11&#45;&gt;Node17 -->
<g id="edge20" class="edge">
<title>Node11&#45;&gt;Node17</title>
<path fill="none" stroke="midnightblue" d="M773.09,-246.4C797.59,-236.69 830.33,-223.71 856.62,-213.29"/>
<polygon fill="midnightblue" stroke="midnightblue" points="857.98,-216.51 865.98,-209.58 855.4,-210.01 857.98,-216.51"/>
</g>
<!-- Node18 -->
<g id="node18" class="node">
<title>Node18</title>
<g id="a_node18"><a xlink:title=" ">
<polygon fill="white" stroke="#bfbfbf" points="700.5,-118 700.5,-137 750.5,-137 750.5,-118 700.5,-118"/>
<text text-anchor="middle" x="725.5" y="-125" font-family="Helvetica,sans-Serif" font-size="10.00">atomic</text>
</a>
</g>
</g>
<!-- Node11&#45;&gt;Node18 -->
<g id="edge32" class="edge">
<title>Node11&#45;&gt;Node18</title>
<path fill="none" stroke="midnightblue" d="M677.76,-256.11C615.27,-250.13 523.27,-236.92 501.5,-210 449.56,-145.77 614.81,-132.15 690.12,-129.27"/>
<polygon fill="midnightblue" stroke="midnightblue" points="690.25,-132.77 700.12,-128.93 690.01,-125.77 690.25,-132.77"/>
</g>
<!-- Node19 -->
<g id="node19" class="node">
<title>Node19</title>
<g id="a_node19"><a xlink:href="lipschitz_8hpp.html" target="_top" xlink:title=" ">
<polygon fill="white" stroke="black" points="353.5,-118 353.5,-137 505.5,-137 505.5,-118 353.5,-118"/>
<text text-anchor="middle" x="429.5" y="-125" font-family="Helvetica,sans-Serif" font-size="10.00">panoc&#45;alm/util/lipschitz.hpp</text>
</a>
</g>
</g>
<!-- Node11&#45;&gt;Node19 -->
<g id="edge22" class="edge">
<title>Node11&#45;&gt;Node19</title>
<path fill="none" stroke="midnightblue" d="M677.82,-260.55C624.06,-257.93 544.88,-247.25 487.5,-210 463.53,-194.44 446.42,-165.22 437.24,-146.32"/>
<polygon fill="midnightblue" stroke="midnightblue" points="440.33,-144.66 432.97,-137.04 433.97,-147.58 440.33,-144.66"/>
</g>
<!-- Node20 -->
<g id="node20" class="node">
<title>Node20</title>
<g id="a_node20"><a xlink:href="include_2panoc-alm_2util_2problem_8hpp.html" target="_top" xlink:title=" ">
<polygon fill="white" stroke="black" points="1209.5,-185 1209.5,-204 1361.5,-204 1361.5,-185 1209.5,-185"/>
<text text-anchor="middle" x="1285.5" y="-192" font-family="Helvetica,sans-Serif" font-size="10.00">panoc&#45;alm/util/problem.hpp</text>
</a>
</g>
</g>
<!-- Node11&#45;&gt;Node20 -->
<g id="edge24" class="edge">
<title>Node11&#45;&gt;Node20</title>
<path fill="none" stroke="midnightblue" d="M797.19,-253.42C895.64,-241.74 1092.25,-218.42 1203.62,-205.21"/>
<polygon fill="midnightblue" stroke="midnightblue" points="1204.27,-208.66 1213.79,-204.01 1203.45,-201.71 1204.27,-208.66"/>
</g>
<!-- Node24 -->
<g id="node24" class="node">
<title>Node24</title>
<g id="a_node24"><a xlink:href="solverstatus_8hpp.html" target="_top" xlink:title=" ">
<polygon fill="white" stroke="black" points="982,-185 982,-204 1153,-204 1153,-185 982,-185"/>
<text text-anchor="middle" x="1067.5" y="-192" font-family="Helvetica,sans-Serif" font-size="10.00">panoc&#45;alm/util/solverstatus.hpp</text>
</a>
</g>
</g>
<!-- Node11&#45;&gt;Node24 -->
<g id="edge30" class="edge">
<title>Node11&#45;&gt;Node24</title>
<path fill="none" stroke="midnightblue" d="M797.26,-248.73C859.06,-236.56 954.68,-217.72 1014.05,-206.03"/>
<polygon fill="midnightblue" stroke="midnightblue" points="1014.84,-209.44 1023.98,-204.07 1013.49,-202.57 1014.84,-209.44"/>
</g>
<!-- Node26 -->
<g id="node26" class="node">
<title>Node26</title>
<g id="a_node26"><a xlink:title=" ">
<polygon fill="white" stroke="#bfbfbf" points="647.5,-185 647.5,-204 697.5,-204 697.5,-185 647.5,-185"/>
<text text-anchor="middle" x="672.5" y="-192" font-family="Helvetica,sans-Serif" font-size="10.00">chrono</text>
</a>
</g>
</g>
<!-- Node11&#45;&gt;Node26 -->
<g id="edge33" class="edge">
<title>Node11&#45;&gt;Node26</title>
<path fill="none" stroke="midnightblue" d="M723.4,-246.4C713.06,-236.06 699.02,-222.02 688.31,-211.31"/>
<polygon fill="midnightblue" stroke="midnightblue" points="690.74,-208.79 681.19,-204.19 685.79,-213.74 690.74,-208.79"/>
</g>
<!-- Node27 -->
<g id="node27" class="node">
<title>Node27</title>
<g id="a_node27"><a xlink:title=" ">
<polygon fill="white" stroke="#bfbfbf" points="715.5,-185 715.5,-204 759.5,-204 759.5,-185 715.5,-185"/>
<text text-anchor="middle" x="737.5" y="-192" font-family="Helvetica,sans-Serif" font-size="10.00">limits</text>
</a>
</g>
</g>
<!-- Node11&#45;&gt;Node27 -->
<g id="edge34" class="edge">
<title>Node11&#45;&gt;Node27</title>
<path fill="none" stroke="midnightblue" d="M737.5,-246.4C737.5,-237.06 737.5,-224.71 737.5,-214.52"/>
<polygon fill="midnightblue" stroke="midnightblue" points="741,-214.19 737.5,-204.19 734,-214.19 741,-214.19"/>
</g>
<!-- Node28 -->
<g id="node28" class="node">
<title>Node28</title>
<g id="a_node28"><a xlink:title=" ">
<polygon fill="white" stroke="#bfbfbf" points="777.5,-185 777.5,-204 821.5,-204 821.5,-185 777.5,-185"/>
<text text-anchor="middle" x="799.5" y="-192" font-family="Helvetica,sans-Serif" font-size="10.00">string</text>
</a>
</g>
</g>
<!-- Node11&#45;&gt;Node28 -->
<g id="edge35" class="edge">
<title>Node11&#45;&gt;Node28</title>
<path fill="none" stroke="midnightblue" d="M750.95,-246.4C760.72,-236.16 773.94,-222.3 784.12,-211.62"/>
<polygon fill="midnightblue" stroke="midnightblue" points="786.84,-213.85 791.21,-204.19 781.77,-209.01 786.84,-213.85"/>
</g>
<!-- Node13&#45;&gt;Node7 -->
<g id="edge15" class="edge">
<title>Node13&#45;&gt;Node7</title>
<path fill="none" stroke="midnightblue" d="M300.27,-179.48C260.53,-169.39 206.79,-155.74 164.91,-145.11"/>
<polygon fill="midnightblue" stroke="midnightblue" points="165.63,-141.68 155.08,-142.61 163.91,-148.46 165.63,-141.68"/>
</g>
<!-- Node15 -->
<g id="node15" class="node">
<title>Node15</title>
<g id="a_node15"><a xlink:title=" ">
<polygon fill="white" stroke="#bfbfbf" points="1408,-118 1408,-137 1465,-137 1465,-118 1408,-118"/>
<text text-anchor="middle" x="1436.5" y="-125" font-family="Helvetica,sans-Serif" font-size="10.00">ostream</text>
</a>
</g>
</g>
<!-- Node14&#45;&gt;Node15 -->
<g id="edge17" class="edge">
<title>Node14&#45;&gt;Node15</title>
<path fill="none" stroke="midnightblue" d="M1438.85,-179.4C1438.41,-169.96 1437.84,-157.45 1437.36,-147.19"/>
<polygon fill="midnightblue" stroke="midnightblue" points="1440.86,-147.02 1436.9,-137.19 1433.87,-147.35 1440.86,-147.02"/>
</g>
<!-- Node14&#45;&gt;Node16 -->
<g id="edge18" class="edge">
<title>Node14&#45;&gt;Node16</title>
<path fill="none" stroke="midnightblue" d="M1471.4,-179.4C1497.19,-167.99 1533.17,-152.08 1558.01,-141.1"/>
<polygon fill="midnightblue" stroke="midnightblue" points="1559.53,-144.25 1567.26,-137.01 1556.7,-137.85 1559.53,-144.25"/>
</g>
<!-- Node17&#45;&gt;Node18 -->
<g id="edge21" class="edge">
<title>Node17&#45;&gt;Node18</title>
<path fill="none" stroke="midnightblue" d="M863.31,-179.4C831.88,-167.79 787.82,-151.51 758.04,-140.52"/>
<polygon fill="midnightblue" stroke="midnightblue" points="759.13,-137.19 748.53,-137.01 756.7,-143.75 759.13,-137.19"/>
</g>
<!-- Node19&#45;&gt;Node5 -->
<g id="edge23" class="edge">
<title>Node19&#45;&gt;Node5</title>
<path fill="none" stroke="midnightblue" d="M404.57,-117.98C374.46,-107.68 323.67,-90.31 289.86,-78.75"/>
<polygon fill="midnightblue" stroke="midnightblue" points="290.98,-75.43 280.38,-75.51 288.71,-82.06 290.98,-75.43"/>
</g>
<!-- Node20&#45;&gt;Node4 -->
<g id="edge25" class="edge">
<title>Node20&#45;&gt;Node4</title>
<path fill="none" stroke="midnightblue" d="M1220.8,-184.97C1202.02,-182.74 1181.47,-180.53 1162.5,-179 799.78,-149.68 706.49,-180.32 344.5,-143 333.77,-141.89 322.37,-140.33 311.43,-138.64"/>
<polygon fill="midnightblue" stroke="midnightblue" points="311.98,-135.18 301.56,-137.06 310.88,-142.1 311.98,-135.18"/>
</g>
<!-- Node20&#45;&gt;Node9 -->
<g id="edge29" class="edge">
<title>Node20&#45;&gt;Node9</title>
<path fill="none" stroke="midnightblue" d="M1271.74,-184.73C1254.77,-173.92 1225.69,-155.38 1205.57,-142.57"/>
<polygon fill="midnightblue" stroke="midnightblue" points="1207.35,-139.55 1197.04,-137.13 1203.59,-145.45 1207.35,-139.55"/>
</g>
<!-- Node20&#45;&gt;Node21 -->
<g id="edge26" class="edge">
<title>Node20&#45;&gt;Node21</title>
<path fill="none" stroke="midnightblue" d="M1323.23,-184.97C1361.69,-175.91 1422.88,-160.51 1474.5,-143 1476.42,-142.35 1478.38,-141.65 1480.34,-140.91"/>
<polygon fill="midnightblue" stroke="midnightblue" points="1482.03,-144.01 1490.05,-137.09 1479.46,-137.5 1482.03,-144.01"/>
</g>
<!-- Node22 -->
<g id="node22" class="node">
<title>Node22</title>
<g id="a_node22"><a xlink:title=" ">
<polygon fill="white" stroke="#bfbfbf" points="1244,-118 1244,-137 1309,-137 1309,-118 1244,-118"/>
<text text-anchor="middle" x="1276.5" y="-125" font-family="Helvetica,sans-Serif" font-size="10.00">functional</text>
</a>
</g>
</g>
<!-- Node20&#45;&gt;Node22 -->
<g id="edge27" class="edge">
<title>Node20&#45;&gt;Node22</title>
<path fill="none" stroke="midnightblue" d="M1284.29,-184.73C1282.96,-175.18 1280.81,-159.62 1279.1,-147.28"/>
<polygon fill="midnightblue" stroke="midnightblue" points="1282.53,-146.55 1277.69,-137.13 1275.6,-147.51 1282.53,-146.55"/>
</g>
<!-- Node23 -->
<g id="node23" class="node">
<title>Node23</title>
<g id="a_node23"><a xlink:title=" ">
<polygon fill="white" stroke="#bfbfbf" points="1327.5,-118 1327.5,-137 1385.5,-137 1385.5,-118 1327.5,-118"/>
<text text-anchor="middle" x="1356.5" y="-125" font-family="Helvetica,sans-Serif" font-size="10.00">memory</text>
</a>
</g>
</g>
<!-- Node20&#45;&gt;Node23 -->
<g id="edge28" class="edge">
<title>Node20&#45;&gt;Node23</title>
<path fill="none" stroke="midnightblue" d="M1295.08,-184.73C1306.47,-174.31 1325.69,-156.71 1339.6,-143.97"/>
<polygon fill="midnightblue" stroke="midnightblue" points="1342.06,-146.46 1347.08,-137.13 1337.34,-141.3 1342.06,-146.46"/>
</g>
<!-- Node25 -->
<g id="node25" class="node">
<title>Node25</title>
<g id="a_node25"><a xlink:title=" ">
<polygon fill="white" stroke="#bfbfbf" points="1043.5,-118 1043.5,-137 1091.5,-137 1091.5,-118 1043.5,-118"/>
<text text-anchor="middle" x="1067.5" y="-125" font-family="Helvetica,sans-Serif" font-size="10.00">iosfwd</text>
</a>
</g>
</g>
<!-- Node24&#45;&gt;Node25 -->
<g id="edge31" class="edge">
<title>Node24&#45;&gt;Node25</title>
<path fill="none" stroke="midnightblue" d="M1067.5,-184.73C1067.5,-175.18 1067.5,-159.62 1067.5,-147.28"/>
<polygon fill="midnightblue" stroke="midnightblue" points="1071,-147.13 1067.5,-137.13 1064,-147.13 1071,-147.13"/>
</g>
<!-- Node29&#45;&gt;Node14 -->
<g id="edge37" class="edge">
<title>Node29&#45;&gt;Node14</title>
<path fill="none" stroke="midnightblue" d="M1452.81,-246.4C1450.74,-238.47 1448.1,-228.38 1445.72,-219.27"/>
<polygon fill="midnightblue" stroke="midnightblue" points="1449.1,-218.37 1443.18,-209.58 1442.33,-220.14 1449.1,-218.37"/>
</g>
<!-- Node29&#45;&gt;Node16 -->
<g id="edge41" class="edge">
<title>Node29&#45;&gt;Node16</title>
<path fill="none" stroke="midnightblue" d="M1471.21,-246.49C1481.7,-236.43 1496.09,-222.5 1508.5,-210 1530.59,-187.75 1555.56,-161.45 1571.16,-144.88"/>
<polygon fill="midnightblue" stroke="midnightblue" points="1574.11,-146.85 1578.4,-137.17 1569.01,-142.06 1574.11,-146.85"/>
</g>
<!-- Node29&#45;&gt;Node17 -->
<g id="edge38" class="edge">
<title>Node29&#45;&gt;Node17</title>
<path fill="none" stroke="midnightblue" d="M1392.87,-247.44C1389.71,-246.92 1386.57,-246.44 1383.5,-246 1205.6,-220.6 1156.28,-235.55 973.79,-209.92"/>
<polygon fill="midnightblue" stroke="midnightblue" points="974.26,-206.45 963.87,-208.5 973.27,-213.38 974.26,-206.45"/>
</g>
<!-- Node29&#45;&gt;Node20 -->
<g id="edge39" class="edge">
<title>Node29&#45;&gt;Node20</title>
<path fill="none" stroke="midnightblue" d="M1419.4,-246.4C1388.99,-234.84 1346.42,-218.66 1317.5,-207.66"/>
<polygon fill="midnightblue" stroke="midnightblue" points="1318.47,-204.29 1307.88,-204.01 1315.98,-210.83 1318.47,-204.29"/>
</g>
<!-- Node29&#45;&gt;Node24 -->
<g id="edge40" class="edge">
<title>Node29&#45;&gt;Node24</title>
<path fill="none" stroke="midnightblue" d="M1392.83,-247.71C1389.67,-247.12 1386.55,-246.55 1383.5,-246 1297.98,-230.68 1199.02,-215.23 1134.96,-205.53"/>
<polygon fill="midnightblue" stroke="midnightblue" points="1135.39,-202.06 1124.98,-204.02 1134.35,-208.98 1135.39,-202.06"/>
</g>
</g>
</svg>
