<?xml version="1.0" encoding="UTF-8" standalone="no"?>
<!DOCTYPE svg PUBLIC "-//W3C//DTD SVG 1.1//EN"
 "http://www.w3.org/Graphics/SVG/1.1/DTD/svg11.dtd">
<!-- Generated by graphviz version 2.43.0 (0)
 -->
<!-- Title: panoc&#45;helpers.hpp Pages: 1 -->
<svg width="712pt" height="263pt"
 viewBox="0.00 0.00 712.00 263.00" xmlns="http://www.w3.org/2000/svg" xmlns:xlink="http://www.w3.org/1999/xlink">
<g id="graph0" class="graph" transform="scale(1 1) rotate(0) translate(4 259)">
<title>panoc&#45;helpers.hpp</title>
<polygon fill="white" stroke="transparent" points="-4,4 -4,-259 708,-259 708,4 -4,4"/>
<!-- Node1 -->
<g id="node1" class="node">
<title>Node1</title>
<g id="a_node1"><a xlink:title=" ">
<polygon fill="#bfbfbf" stroke="black" points="184,-235.5 184,-254.5 291,-254.5 291,-235.5 184,-235.5"/>
<text text-anchor="middle" x="237.5" y="-242.5" font-family="Helvetica,sans-Serif" font-size="10.00">panoc&#45;helpers.hpp</text>
</a>
</g>
</g>
<!-- Node2 -->
<g id="node2" class="node">
<title>Node2</title>
<g id="a_node2"><a xlink:href="panoc-stop-crit_8hpp.html" target="_top" xlink:title=" ">
<polygon fill="white" stroke="black" points="0,-168.5 0,-198.5 119,-198.5 119,-168.5 0,-168.5"/>
<text text-anchor="start" x="8" y="-186.5" font-family="Helvetica,sans-Serif" font-size="10.00">panoc&#45;alm/inner/decl</text>
<text text-anchor="middle" x="59.5" y="-175.5" font-family="Helvetica,sans-Serif" font-size="10.00">/panoc&#45;stop&#45;crit.hpp</text>
</a>
</g>
</g>
<!-- Node1&#45;&gt;Node2 -->
<g id="edge1" class="edge">
<title>Node1&#45;&gt;Node2</title>
<path fill="none" stroke="midnightblue" d="M212,-235.48C185.75,-226.7 144.13,-212.79 110.99,-201.71"/>
<polygon fill="midnightblue" stroke="midnightblue" points="112.04,-198.37 101.45,-198.52 109.83,-205.01 112.04,-198.37"/>
</g>
<!-- Node4 -->
<g id="node4" class="node">
<title>Node4</title>
<g id="a_node4"><a xlink:title=" ">
<polygon fill="white" stroke="#bfbfbf" points="86,-112.5 86,-131.5 151,-131.5 151,-112.5 86,-112.5"/>
<text text-anchor="middle" x="118.5" y="-119.5" font-family="Helvetica,sans-Serif" font-size="10.00">stdexcept</text>
</a>
</g>
</g>
<!-- Node1&#45;&gt;Node4 -->
<g id="edge16" class="edge">
<title>Node1&#45;&gt;Node4</title>
<path fill="none" stroke="midnightblue" d="M219.32,-235.37C203.97,-227.45 182.07,-214.59 166.5,-199 149.33,-181.81 135.29,-157.42 126.93,-140.94"/>
<polygon fill="midnightblue" stroke="midnightblue" points="130.01,-139.29 122.47,-131.84 123.73,-142.36 130.01,-139.29"/>
</g>
<!-- Node5 -->
<g id="node5" class="node">
<title>Node5</title>
<g id="a_node5"><a xlink:href="atomic__stop__signal_8hpp.html" target="_top" xlink:title=" ">
<polygon fill="white" stroke="black" points="175.5,-168.5 175.5,-198.5 299.5,-198.5 299.5,-168.5 175.5,-168.5"/>
<text text-anchor="start" x="183.5" y="-186.5" font-family="Helvetica,sans-Serif" font-size="10.00">panoc&#45;alm/util/atomic</text>
<text text-anchor="middle" x="237.5" y="-175.5" font-family="Helvetica,sans-Serif" font-size="10.00">_stop_signal.hpp</text>
</a>
</g>
</g>
<!-- Node1&#45;&gt;Node5 -->
<g id="edge4" class="edge">
<title>Node1&#45;&gt;Node5</title>
<path fill="none" stroke="midnightblue" d="M237.5,-235.48C237.5,-228.47 237.5,-218.19 237.5,-208.7"/>
<polygon fill="midnightblue" stroke="midnightblue" points="241,-208.52 237.5,-198.52 234,-208.52 241,-208.52"/>
</g>
<!-- Node7 -->
<g id="node7" class="node">
<title>Node7</title>
<g id="a_node7"><a xlink:href="include_2panoc-alm_2util_2problem_8hpp.html" target="_top" xlink:title=" ">
<polygon fill="white" stroke="black" points="327.5,-174 327.5,-193 479.5,-193 479.5,-174 327.5,-174"/>
<text text-anchor="middle" x="403.5" y="-181" font-family="Helvetica,sans-Serif" font-size="10.00">panoc&#45;alm/util/problem.hpp</text>
</a>
</g>
</g>
<!-- Node1&#45;&gt;Node7 -->
<g id="edge6" class="edge">
<title>Node1&#45;&gt;Node7</title>
<path fill="none" stroke="midnightblue" d="M261.28,-235.48C289.88,-225.22 338.05,-207.96 370.3,-196.4"/>
<polygon fill="midnightblue" stroke="midnightblue" points="371.53,-199.68 379.76,-193.01 369.17,-193.09 371.53,-199.68"/>
</g>
<!-- Node15 -->
<g id="node15" class="node">
<title>Node15</title>
<g id="a_node15"><a xlink:href="solverstatus_8hpp.html" target="_top" xlink:title=" ">
<polygon fill="white" stroke="black" points="533,-174 533,-193 704,-193 704,-174 533,-174"/>
<text text-anchor="middle" x="618.5" y="-181" font-family="Helvetica,sans-Serif" font-size="10.00">panoc&#45;alm/util/solverstatus.hpp</text>
</a>
</g>
</g>
<!-- Node1&#45;&gt;Node15 -->
<g id="edge14" class="edge">
<title>Node1&#45;&gt;Node15</title>
<path fill="none" stroke="midnightblue" d="M291.28,-235.6C360.34,-224.82 480.06,-206.12 553.96,-194.58"/>
<polygon fill="midnightblue" stroke="midnightblue" points="554.73,-198 564.07,-193 553.65,-191.09 554.73,-198"/>
</g>
<!-- Node3 -->
<g id="node3" class="node">
<title>Node3</title>
<g id="a_node3"><a xlink:title=" ">
<polygon fill="white" stroke="#bfbfbf" points="11,-112.5 11,-131.5 68,-131.5 68,-112.5 11,-112.5"/>
<text text-anchor="middle" x="39.5" y="-119.5" font-family="Helvetica,sans-Serif" font-size="10.00">ostream</text>
</a>
</g>
</g>
<!-- Node2&#45;&gt;Node3 -->
<g id="edge2" class="edge">
<title>Node2&#45;&gt;Node3</title>
<path fill="none" stroke="midnightblue" d="M54.76,-168.4C52.03,-160.29 48.58,-150.01 45.64,-141.28"/>
<polygon fill="midnightblue" stroke="midnightblue" points="48.91,-140.02 42.41,-131.66 42.28,-142.25 48.91,-140.02"/>
</g>
<!-- Node2&#45;&gt;Node4 -->
<g id="edge3" class="edge">
<title>Node2&#45;&gt;Node4</title>
<path fill="none" stroke="midnightblue" d="M73.48,-168.4C82.23,-159.58 93.53,-148.18 102.62,-139.02"/>
<polygon fill="midnightblue" stroke="midnightblue" points="105.36,-141.22 109.91,-131.66 100.39,-136.29 105.36,-141.22"/>
</g>
<!-- Node6 -->
<g id="node6" class="node">
<title>Node6</title>
<g id="a_node6"><a xlink:title=" ">
<polygon fill="white" stroke="#bfbfbf" points="169.5,-112.5 169.5,-131.5 219.5,-131.5 219.5,-112.5 169.5,-112.5"/>
<text text-anchor="middle" x="194.5" y="-119.5" font-family="Helvetica,sans-Serif" font-size="10.00">atomic</text>
</a>
</g>
</g>
<!-- Node5&#45;&gt;Node6 -->
<g id="edge5" class="edge">
<title>Node5&#45;&gt;Node6</title>
<path fill="none" stroke="midnightblue" d="M227.31,-168.4C221.13,-159.84 213.2,-148.87 206.68,-139.86"/>
<polygon fill="midnightblue" stroke="midnightblue" points="209.45,-137.71 200.76,-131.66 203.78,-141.81 209.45,-137.71"/>
</g>
<!-- Node8 -->
<g id="node8" class="node">
<title>Node8</title>
<g id="a_node8"><a xlink:href="box_8hpp.html" target="_top" xlink:title=" ">
<polygon fill="white" stroke="black" points="237.5,-112.5 237.5,-131.5 293.5,-131.5 293.5,-112.5 237.5,-112.5"/>
<text text-anchor="middle" x="265.5" y="-119.5" font-family="Helvetica,sans-Serif" font-size="10.00">box.hpp</text>
</a>
</g>
</g>
<!-- Node7&#45;&gt;Node8 -->
<g id="edge7" class="edge">
<title>Node7&#45;&gt;Node8</title>
<path fill="none" stroke="midnightblue" d="M383.73,-173.98C360.36,-163.9 321.29,-147.05 294.5,-135.5"/>
<polygon fill="midnightblue" stroke="midnightblue" points="295.8,-132.25 285.24,-131.51 293.03,-138.68 295.8,-132.25"/>
</g>
<!-- Node11 -->
<g id="node11" class="node">
<title>Node11</title>
<g id="a_node11"><a xlink:title=" ">
<polygon fill="white" stroke="#bfbfbf" points="311.5,-112.5 311.5,-131.5 363.5,-131.5 363.5,-112.5 311.5,-112.5"/>
<text text-anchor="middle" x="337.5" y="-119.5" font-family="Helvetica,sans-Serif" font-size="10.00">cassert</text>
</a>
</g>
</g>
<!-- Node7&#45;&gt;Node11 -->
<g id="edge10" class="edge">
<title>Node7&#45;&gt;Node11</title>
<path fill="none" stroke="midnightblue" d="M394.04,-173.98C383.75,-164.7 367.08,-149.67 354.51,-138.33"/>
<polygon fill="midnightblue" stroke="midnightblue" points="356.71,-135.61 346.94,-131.51 352.02,-140.8 356.71,-135.61"/>
</g>
<!-- Node12 -->
<g id="node12" class="node">
<title>Node12</title>
<g id="a_node12"><a xlink:title=" ">
<polygon fill="white" stroke="#bfbfbf" points="382,-112.5 382,-131.5 447,-131.5 447,-112.5 382,-112.5"/>
<text text-anchor="middle" x="414.5" y="-119.5" font-family="Helvetica,sans-Serif" font-size="10.00">functional</text>
</a>
</g>
</g>
<!-- Node7&#45;&gt;Node12 -->
<g id="edge11" class="edge">
<title>Node7&#45;&gt;Node12</title>
<path fill="none" stroke="midnightblue" d="M405.08,-173.98C406.63,-165.58 409.05,-152.48 411.05,-141.66"/>
<polygon fill="midnightblue" stroke="midnightblue" points="414.55,-141.98 412.93,-131.51 407.67,-140.71 414.55,-141.98"/>
</g>
<!-- Node13 -->
<g id="node13" class="node">
<title>Node13</title>
<g id="a_node13"><a xlink:title=" ">
<polygon fill="white" stroke="#bfbfbf" points="465.5,-112.5 465.5,-131.5 523.5,-131.5 523.5,-112.5 465.5,-112.5"/>
<text text-anchor="middle" x="494.5" y="-119.5" font-family="Helvetica,sans-Serif" font-size="10.00">memory</text>
</a>
</g>
</g>
<!-- Node7&#45;&gt;Node13 -->
<g id="edge12" class="edge">
<title>Node7&#45;&gt;Node13</title>
<path fill="none" stroke="midnightblue" d="M416.54,-173.98C431.27,-164.34 455.47,-148.52 473.01,-137.05"/>
<polygon fill="midnightblue" stroke="midnightblue" points="475.03,-139.91 481.49,-131.51 471.2,-134.05 475.03,-139.91"/>
</g>
<!-- Node14 -->
<g id="node14" class="node">
<title>Node14</title>
<g id="a_node14"><a xlink:title=" ">
<polygon fill="white" stroke="#bfbfbf" points="542,-112.5 542,-131.5 611,-131.5 611,-112.5 542,-112.5"/>
<text text-anchor="middle" x="576.5" y="-119.5" font-family="Helvetica,sans-Serif" font-size="10.00">type_traits</text>
</a>
</g>
</g>
<!-- Node7&#45;&gt;Node14 -->
<g id="edge13" class="edge">
<title>Node7&#45;&gt;Node14</title>
<path fill="none" stroke="midnightblue" d="M428.29,-173.98C458.09,-163.72 508.29,-146.46 541.9,-134.9"/>
<polygon fill="midnightblue" stroke="midnightblue" points="543.44,-138.07 551.76,-131.51 541.16,-131.45 543.44,-138.07"/>
</g>
<!-- Node9 -->
<g id="node9" class="node">
<title>Node9</title>
<g id="a_node9"><a xlink:href="vec_8hpp.html" target="_top" xlink:title=" ">
<polygon fill="white" stroke="black" points="238,-56.5 238,-75.5 293,-75.5 293,-56.5 238,-56.5"/>
<text text-anchor="middle" x="265.5" y="-63.5" font-family="Helvetica,sans-Serif" font-size="10.00">vec.hpp</text>
</a>
</g>
</g>
<!-- Node8&#45;&gt;Node9 -->
<g id="edge8" class="edge">
<title>Node8&#45;&gt;Node9</title>
<path fill="none" stroke="midnightblue" d="M265.5,-112.08C265.5,-105.01 265.5,-94.86 265.5,-85.99"/>
<polygon fill="midnightblue" stroke="midnightblue" points="269,-85.75 265.5,-75.75 262,-85.75 269,-85.75"/>
</g>
<!-- Node10 -->
<g id="node10" class="node">
<title>Node10</title>
<g id="a_node10"><a xlink:title=" ">
<polygon fill="white" stroke="#bfbfbf" points="231,-0.5 231,-19.5 300,-19.5 300,-0.5 231,-0.5"/>
<text text-anchor="middle" x="265.5" y="-7.5" font-family="Helvetica,sans-Serif" font-size="10.00">Eigen/Core</text>
</a>
</g>
</g>
<!-- Node9&#45;&gt;Node10 -->
<g id="edge9" class="edge">
<title>Node9&#45;&gt;Node10</title>
<path fill="none" stroke="midnightblue" d="M265.5,-56.08C265.5,-49.01 265.5,-38.86 265.5,-29.99"/>
<polygon fill="midnightblue" stroke="midnightblue" points="269,-29.75 265.5,-19.75 262,-29.75 269,-29.75"/>
</g>
<!-- Node16 -->
<g id="node16" class="node">
<title>Node16</title>
<g id="a_node16"><a xlink:title=" ">
<polygon fill="white" stroke="#bfbfbf" points="629.5,-112.5 629.5,-131.5 677.5,-131.5 677.5,-112.5 629.5,-112.5"/>
<text text-anchor="middle" x="653.5" y="-119.5" font-family="Helvetica,sans-Serif" font-size="10.00">iosfwd</text>
</a>
</g>
</g>
<!-- Node15&#45;&gt;Node16 -->
<g id="edge15" class="edge">
<title>Node15&#45;&gt;Node16</title>
<path fill="none" stroke="midnightblue" d="M623.51,-173.98C628.66,-165.23 636.81,-151.37 643.32,-140.31"/>
<polygon fill="midnightblue" stroke="midnightblue" points="646.44,-141.9 648.49,-131.51 640.41,-138.35 646.44,-141.9"/>
</g>
</g>
</svg>
