<?xml version="1.0" encoding="UTF-8" standalone="no"?>
<!DOCTYPE svg PUBLIC "-//W3C//DTD SVG 1.1//EN"
 "http://www.w3.org/Graphics/SVG/1.1/DTD/svg11.dtd">
<!-- Generated by graphviz version 2.43.0 (0)
 -->
<!-- Title: panoc&#45;helpers.hpp Pages: 1 -->
<svg width="1194pt" height="252pt"
 viewBox="0.00 0.00 1193.50 252.00" xmlns="http://www.w3.org/2000/svg" xmlns:xlink="http://www.w3.org/1999/xlink">
<g id="graph0" class="graph" transform="scale(1 1) rotate(0) translate(4 248)">
<title>panoc&#45;helpers.hpp</title>
<polygon fill="white" stroke="transparent" points="-4,4 -4,-248 1189.5,-248 1189.5,4 -4,4"/>
<!-- Node1 -->
<g id="node1" class="node">
<title>Node1</title>
<g id="a_node1"><a xlink:title=" ">
<polygon fill="#bfbfbf" stroke="black" points="603,-224.5 603,-243.5 710,-243.5 710,-224.5 603,-224.5"/>
<text text-anchor="middle" x="656.5" y="-231.5" font-family="Helvetica,sans-Serif" font-size="10.00">panoc&#45;helpers.hpp</text>
</a>
</g>
</g>
<!-- Node2 -->
<g id="node2" class="node">
<title>Node2</title>
<g id="a_node2"><a xlink:href="specialized-lbfgs_8hpp.html" target="_top" xlink:title=" ">
<polygon fill="white" stroke="black" points="298.5,-168.5 298.5,-187.5 418.5,-187.5 418.5,-168.5 298.5,-168.5"/>
<text text-anchor="middle" x="358.5" y="-175.5" font-family="Helvetica,sans-Serif" font-size="10.00">specialized&#45;lbfgs.hpp</text>
</a>
</g>
</g>
<!-- Node1&#45;&gt;Node2 -->
<g id="edge1" class="edge">
<title>Node1&#45;&gt;Node2</title>
<path fill="none" stroke="midnightblue" d="M599.11,-222.6C542.79,-212.4 457.94,-197.02 405.5,-187.52"/>
<polygon fill="midnightblue" stroke="midnightblue" points="598.82,-226.1 609.28,-224.44 600.07,-219.22 598.82,-226.1"/>
</g>
<!-- Node3 -->
<g id="node3" class="node">
<title>Node3</title>
<g id="a_node3"><a xlink:href="guarded-aa-pga_8hpp.html" target="_top" xlink:title=" ">
<polygon fill="white" stroke="black" points="0,-112.5 0,-131.5 115,-131.5 115,-112.5 0,-112.5"/>
<text text-anchor="middle" x="57.5" y="-119.5" font-family="Helvetica,sans-Serif" font-size="10.00">guarded&#45;aa&#45;pga.hpp</text>
</a>
</g>
</g>
<!-- Node1&#45;&gt;Node3 -->
<g id="edge2" class="edge">
<title>Node1&#45;&gt;Node3</title>
<path fill="none" stroke="midnightblue" d="M592.5,-223.63C553.42,-216.62 502.97,-205.22 460.5,-188 444.61,-181.55 443.72,-173.58 427.5,-168 299.27,-123.86 259.04,-149.03 124.5,-132 121.47,-131.62 118.37,-131.22 115.24,-130.81"/>
<polygon fill="midnightblue" stroke="midnightblue" points="592.24,-227.14 602.69,-225.4 593.44,-220.24 592.24,-227.14"/>
</g>
<!-- Node7 -->
<g id="node7" class="node">
<title>Node7</title>
<g id="a_node7"><a xlink:href="lbfgspp_8hpp.html" target="_top" xlink:title=" ">
<polygon fill="white" stroke="black" points="959.5,-168.5 959.5,-187.5 1033.5,-187.5 1033.5,-168.5 959.5,-168.5"/>
<text text-anchor="middle" x="996.5" y="-175.5" font-family="Helvetica,sans-Serif" font-size="10.00">lbfgspp.hpp</text>
</a>
</g>
</g>
<!-- Node1&#45;&gt;Node7 -->
<g id="edge8" class="edge">
<title>Node1&#45;&gt;Node7</title>
<path fill="none" stroke="midnightblue" d="M720.3,-223.44C778.9,-214.58 868.12,-200.85 945.5,-188 950.02,-187.25 954.77,-186.44 959.47,-185.63"/>
<polygon fill="midnightblue" stroke="midnightblue" points="719.45,-220.03 710.08,-224.99 720.49,-226.95 719.45,-220.03"/>
</g>
<!-- Node8 -->
<g id="node8" class="node">
<title>Node8</title>
<g id="a_node8"><a xlink:href="inner_2panoc_8hpp.html" target="_top" xlink:title=" ">
<polygon fill="white" stroke="black" points="513,-168.5 513,-187.5 580,-187.5 580,-168.5 513,-168.5"/>
<text text-anchor="middle" x="546.5" y="-175.5" font-family="Helvetica,sans-Serif" font-size="10.00">panoc.hpp</text>
</a>
</g>
</g>
<!-- Node1&#45;&gt;Node8 -->
<g id="edge9" class="edge">
<title>Node1&#45;&gt;Node8</title>
<path fill="none" stroke="midnightblue" d="M629.74,-219.86C609.34,-209.85 581.83,-196.35 564.13,-187.65"/>
<polygon fill="midnightblue" stroke="midnightblue" points="628.31,-223.06 638.83,-224.32 631.39,-216.78 628.31,-223.06"/>
</g>
<!-- Node13 -->
<g id="node13" class="node">
<title>Node13</title>
<g id="a_node13"><a xlink:href="pga_8hpp.html" target="_top" xlink:title=" ">
<polygon fill="white" stroke="black" points="133.5,-112.5 133.5,-131.5 189.5,-131.5 189.5,-112.5 133.5,-112.5"/>
<text text-anchor="middle" x="161.5" y="-119.5" font-family="Helvetica,sans-Serif" font-size="10.00">pga.hpp</text>
</a>
</g>
</g>
<!-- Node1&#45;&gt;Node13 -->
<g id="edge18" class="edge">
<title>Node1&#45;&gt;Node13</title>
<path fill="none" stroke="midnightblue" d="M611.97,-221.79C581.13,-213.57 539.34,-201.52 503.5,-188 483.78,-180.56 480.68,-174.07 460.5,-168 434.77,-160.26 258.93,-136.11 189.56,-126.76"/>
<polygon fill="midnightblue" stroke="midnightblue" points="611.43,-225.27 621.99,-224.43 613.21,-218.5 611.43,-225.27"/>
</g>
<!-- Node14 -->
<g id="node14" class="node">
<title>Node14</title>
<g id="a_node14"><a xlink:href="second-order-panoc_8hpp.html" target="_top" xlink:title=" ">
<polygon fill="white" stroke="black" points="1051.5,-168.5 1051.5,-187.5 1185.5,-187.5 1185.5,-168.5 1051.5,-168.5"/>
<text text-anchor="middle" x="1118.5" y="-175.5" font-family="Helvetica,sans-Serif" font-size="10.00">second&#45;order&#45;panoc.hpp</text>
</a>
</g>
</g>
<!-- Node1&#45;&gt;Node14 -->
<g id="edge22" class="edge">
<title>Node1&#45;&gt;Node14</title>
<path fill="none" stroke="midnightblue" d="M720.17,-225.61C796.69,-216.73 928.99,-201.34 1042.5,-188 1045.4,-187.66 1048.37,-187.31 1051.36,-186.96"/>
<polygon fill="midnightblue" stroke="midnightblue" points="719.74,-222.14 710.21,-226.77 720.54,-229.09 719.74,-222.14"/>
</g>
<!-- Node16 -->
<g id="node16" class="node">
<title>Node16</title>
<g id="a_node16"><a xlink:href="structured-panoc-lbfgs_8hpp.html" target="_top" xlink:title=" ">
<polygon fill="white" stroke="black" points="653.5,-168.5 653.5,-187.5 801.5,-187.5 801.5,-168.5 653.5,-168.5"/>
<text text-anchor="middle" x="727.5" y="-175.5" font-family="Helvetica,sans-Serif" font-size="10.00">structured&#45;panoc&#45;lbfgs.hpp</text>
</a>
</g>
</g>
<!-- Node1&#45;&gt;Node16 -->
<g id="edge24" class="edge">
<title>Node1&#45;&gt;Node16</title>
<path fill="none" stroke="midnightblue" d="M676.09,-218.1C688.87,-208.38 705.11,-196.03 715.89,-187.83"/>
<polygon fill="midnightblue" stroke="midnightblue" points="673.75,-215.48 667.91,-224.32 677.99,-221.06 673.75,-215.48"/>
</g>
<!-- Node18 -->
<g id="node18" class="node">
<title>Node18</title>
<g id="a_node18"><a xlink:href="standalone_2panoc_8hpp.html" target="_top" xlink:title=" ">
<polygon fill="white" stroke="black" points="827,-56.5 827,-75.5 894,-75.5 894,-56.5 827,-56.5"/>
<text text-anchor="middle" x="860.5" y="-63.5" font-family="Helvetica,sans-Serif" font-size="10.00">panoc.hpp</text>
</a>
</g>
</g>
<!-- Node1&#45;&gt;Node18 -->
<g id="edge27" class="edge">
<title>Node1&#45;&gt;Node18</title>
<path fill="none" stroke="midnightblue" d="M720.22,-228.82C782.26,-220.85 872.7,-197.88 911.5,-132 924.31,-110.25 895.4,-87.68 876.08,-75.7"/>
<polygon fill="midnightblue" stroke="midnightblue" points="719.65,-225.36 710.14,-230.02 720.48,-232.32 719.65,-225.36"/>
</g>
<!-- Node4 -->
<g id="node4" class="node">
<title>Node4</title>
<g id="a_node4"><a xlink:href="kwargs-to-struct_8hpp.html" target="_top" xlink:title="This file defines mappings from Python dicts (kwargs) to simple parameter structs.">
<polygon fill="white" stroke="black" points="33.5,-56.5 33.5,-75.5 151.5,-75.5 151.5,-56.5 33.5,-56.5"/>
<text text-anchor="middle" x="92.5" y="-63.5" font-family="Helvetica,sans-Serif" font-size="10.00">kwargs&#45;to&#45;struct.hpp</text>
</a>
</g>
</g>
<!-- Node3&#45;&gt;Node4 -->
<g id="edge3" class="edge">
<title>Node3&#45;&gt;Node4</title>
<path fill="none" stroke="midnightblue" d="M68.8,-103.57C74.82,-94.27 81.97,-83.25 86.83,-75.75"/>
<polygon fill="midnightblue" stroke="midnightblue" points="65.78,-101.79 63.28,-112.08 71.66,-105.6 65.78,-101.79"/>
</g>
<!-- Node5 -->
<g id="node5" class="node">
<title>Node5</title>
<g id="a_node5"><a xlink:href="panocpy_8cpp.html" target="_top" xlink:title="This file defines all Python bindings.">
<polygon fill="white" stroke="black" points="303,-0.5 303,-19.5 380,-19.5 380,-0.5 303,-0.5"/>
<text text-anchor="middle" x="341.5" y="-7.5" font-family="Helvetica,sans-Serif" font-size="10.00">panocpy.cpp</text>
</a>
</g>
</g>
<!-- Node3&#45;&gt;Node5 -->
<g id="edge5" class="edge">
<title>Node3&#45;&gt;Node5</title>
<path fill="none" stroke="midnightblue" d="M39.76,-105.16C26.18,-91.13 11.76,-70.68 24.5,-56 60.12,-14.97 226.21,-10.36 302.72,-10.48"/>
<polygon fill="midnightblue" stroke="midnightblue" points="37.42,-107.76 47.04,-112.21 42.29,-102.74 37.42,-107.76"/>
</g>
<!-- Node6 -->
<g id="node6" class="node">
<title>Node6</title>
<g id="a_node6"><a xlink:href="polymorphic-inner-solver_8hpp.html" target="_top" xlink:title=" ">
<polygon fill="white" stroke="black" points="207.5,-56.5 207.5,-75.5 367.5,-75.5 367.5,-56.5 207.5,-56.5"/>
<text text-anchor="middle" x="287.5" y="-63.5" font-family="Helvetica,sans-Serif" font-size="10.00">polymorphic&#45;inner&#45;solver.hpp</text>
</a>
</g>
</g>
<!-- Node3&#45;&gt;Node6 -->
<g id="edge6" class="edge">
<title>Node3&#45;&gt;Node6</title>
<path fill="none" stroke="midnightblue" d="M103.7,-110.15C147.16,-99.95 211.34,-84.88 251.23,-75.52"/>
<polygon fill="midnightblue" stroke="midnightblue" points="102.88,-106.75 93.94,-112.44 104.48,-113.57 102.88,-106.75"/>
</g>
<!-- Node4&#45;&gt;Node5 -->
<g id="edge4" class="edge">
<title>Node4&#45;&gt;Node5</title>
<path fill="none" stroke="midnightblue" d="M141.95,-54.27C189.16,-44.04 259.32,-28.82 302.64,-19.43"/>
<polygon fill="midnightblue" stroke="midnightblue" points="140.99,-50.9 131.95,-56.44 142.47,-57.74 140.99,-50.9"/>
</g>
<!-- Node6&#45;&gt;Node5 -->
<g id="edge7" class="edge">
<title>Node6&#45;&gt;Node5</title>
<path fill="none" stroke="midnightblue" d="M303.5,-49C313.07,-39.43 324.86,-27.64 332.75,-19.75"/>
<polygon fill="midnightblue" stroke="midnightblue" points="301.01,-46.54 296.42,-56.08 305.96,-51.49 301.01,-46.54"/>
</g>
<!-- Node8&#45;&gt;Node5 -->
<g id="edge10" class="edge">
<title>Node8&#45;&gt;Node5</title>
<path fill="none" stroke="midnightblue" d="M520.64,-163.64C505.47,-155.34 486.27,-143.99 470.5,-132 431.72,-102.5 427.17,-89.19 391.5,-56 377.65,-43.11 361.31,-28.51 351.17,-19.53"/>
<polygon fill="midnightblue" stroke="midnightblue" points="519.02,-166.75 529.48,-168.39 522.33,-160.58 519.02,-166.75"/>
</g>
<!-- Node8&#45;&gt;Node6 -->
<g id="edge11" class="edge">
<title>Node8&#45;&gt;Node6</title>
<path fill="none" stroke="midnightblue" d="M502.96,-168.74C501.45,-168.49 499.96,-168.24 498.5,-168 440.49,-158.58 275.12,-176.29 236.5,-132 219.53,-112.54 251.64,-88.31 272.2,-75.64"/>
<polygon fill="midnightblue" stroke="midnightblue" points="502.51,-172.22 512.97,-170.5 503.72,-165.32 502.51,-172.22"/>
</g>
<!-- Node9 -->
<g id="node9" class="node">
<title>Node9</title>
<g id="a_node9"><a xlink:href="polymorphic-panoc-direction_8hpp.html" target="_top" xlink:title=" ">
<polygon fill="white" stroke="black" points="245.5,-112.5 245.5,-131.5 423.5,-131.5 423.5,-112.5 245.5,-112.5"/>
<text text-anchor="middle" x="334.5" y="-119.5" font-family="Helvetica,sans-Serif" font-size="10.00">polymorphic&#45;panoc&#45;direction.hpp</text>
</a>
</g>
</g>
<!-- Node8&#45;&gt;Node9 -->
<g id="edge12" class="edge">
<title>Node8&#45;&gt;Node9</title>
<path fill="none" stroke="midnightblue" d="M503.15,-165.96C463.11,-155.76 404.47,-140.82 367.93,-131.52"/>
<polygon fill="midnightblue" stroke="midnightblue" points="502.35,-169.37 512.91,-168.44 504.08,-162.58 502.35,-169.37"/>
</g>
<!-- Node10 -->
<g id="node10" class="node">
<title>Node10</title>
<g id="a_node10"><a xlink:href="alm_8cpp.html" target="_top" xlink:title=" ">
<polygon fill="white" stroke="black" points="479.5,-112.5 479.5,-131.5 535.5,-131.5 535.5,-112.5 479.5,-112.5"/>
<text text-anchor="middle" x="507.5" y="-119.5" font-family="Helvetica,sans-Serif" font-size="10.00">alm.cpp</text>
</a>
</g>
</g>
<!-- Node8&#45;&gt;Node10 -->
<g id="edge15" class="edge">
<title>Node8&#45;&gt;Node10</title>
<path fill="none" stroke="midnightblue" d="M534.12,-159.86C527.36,-150.5 519.29,-139.33 513.82,-131.75"/>
<polygon fill="midnightblue" stroke="midnightblue" points="531.37,-162.03 540.06,-168.08 537.04,-157.93 531.37,-162.03"/>
</g>
<!-- Node11 -->
<g id="node11" class="node">
<title>Node11</title>
<g id="a_node11"><a xlink:href="panoc_8cpp.html" target="_top" xlink:title=" ">
<polygon fill="white" stroke="black" points="553.5,-112.5 553.5,-131.5 619.5,-131.5 619.5,-112.5 553.5,-112.5"/>
<text text-anchor="middle" x="586.5" y="-119.5" font-family="Helvetica,sans-Serif" font-size="10.00">panoc.cpp</text>
</a>
</g>
</g>
<!-- Node8&#45;&gt;Node11 -->
<g id="edge16" class="edge">
<title>Node8&#45;&gt;Node11</title>
<path fill="none" stroke="midnightblue" d="M559.2,-159.86C566.13,-150.5 574.41,-139.33 580.02,-131.75"/>
<polygon fill="midnightblue" stroke="midnightblue" points="556.25,-157.96 553.11,-168.08 561.87,-162.13 556.25,-157.96"/>
</g>
<!-- Node12 -->
<g id="node12" class="node">
<title>Node12</title>
<g id="a_node12"><a xlink:href="Presentation_2Cpp_2main_8cpp.html" target="_top" xlink:title=" ">
<polygon fill="white" stroke="black" points="637.5,-112.5 637.5,-131.5 699.5,-131.5 699.5,-112.5 637.5,-112.5"/>
<text text-anchor="middle" x="668.5" y="-119.5" font-family="Helvetica,sans-Serif" font-size="10.00">main.cpp</text>
</a>
</g>
</g>
<!-- Node8&#45;&gt;Node12 -->
<g id="edge17" class="edge">
<title>Node8&#45;&gt;Node12</title>
<path fill="none" stroke="midnightblue" d="M575.04,-164.37C597.89,-154.26 629.31,-140.35 649.26,-131.52"/>
<polygon fill="midnightblue" stroke="midnightblue" points="573.56,-161.2 565.83,-168.44 576.39,-167.6 573.56,-161.2"/>
</g>
<!-- Node9&#45;&gt;Node5 -->
<g id="edge13" class="edge">
<title>Node9&#45;&gt;Node5</title>
<path fill="none" stroke="midnightblue" d="M354.55,-105.53C363.03,-97.71 371.99,-87.45 376.5,-76 384.87,-54.78 364.68,-31.64 351.6,-19.51"/>
<polygon fill="midnightblue" stroke="midnightblue" points="352.03,-103.07 346.71,-112.24 356.59,-108.39 352.03,-103.07"/>
</g>
<!-- Node9&#45;&gt;Node6 -->
<g id="edge14" class="edge">
<title>Node9&#45;&gt;Node6</title>
<path fill="none" stroke="midnightblue" d="M320.08,-104.43C311.84,-94.97 301.85,-83.48 295.12,-75.75"/>
<polygon fill="midnightblue" stroke="midnightblue" points="317.53,-106.84 326.74,-112.08 322.81,-102.24 317.53,-106.84"/>
</g>
<!-- Node13&#45;&gt;Node4 -->
<g id="edge19" class="edge">
<title>Node13&#45;&gt;Node4</title>
<path fill="none" stroke="midnightblue" d="M142.46,-106.1C130.04,-96.38 114.26,-84.03 103.79,-75.83"/>
<polygon fill="midnightblue" stroke="midnightblue" points="140.38,-108.92 150.41,-112.32 144.7,-103.4 140.38,-108.92"/>
</g>
<!-- Node13&#45;&gt;Node5 -->
<g id="edge20" class="edge">
<title>Node13&#45;&gt;Node5</title>
<path fill="none" stroke="midnightblue" d="M167.52,-102.99C173.29,-88.36 183.38,-68.21 198.5,-56 228.57,-31.72 271.88,-20.47 302.94,-15.3"/>
<polygon fill="midnightblue" stroke="midnightblue" points="164.2,-101.89 164.07,-112.48 170.78,-104.28 164.2,-101.89"/>
</g>
<!-- Node13&#45;&gt;Node6 -->
<g id="edge21" class="edge">
<title>Node13&#45;&gt;Node6</title>
<path fill="none" stroke="midnightblue" d="M190.66,-108.5C214.28,-98.38 246.93,-84.39 267.63,-75.52"/>
<polygon fill="midnightblue" stroke="midnightblue" points="189.28,-105.29 181.47,-112.44 192.04,-111.72 189.28,-105.29"/>
</g>
<!-- Node15 -->
<g id="node15" class="node">
<title>Node15</title>
<g id="a_node15"><a xlink:href="second-order-panoc_8cpp.html" target="_top" xlink:title=" ">
<polygon fill="white" stroke="black" points="1051.5,-112.5 1051.5,-131.5 1185.5,-131.5 1185.5,-112.5 1051.5,-112.5"/>
<text text-anchor="middle" x="1118.5" y="-119.5" font-family="Helvetica,sans-Serif" font-size="10.00">second&#45;order&#45;panoc.cpp</text>
</a>
</g>
</g>
<!-- Node14&#45;&gt;Node15 -->
<g id="edge23" class="edge">
<title>Node14&#45;&gt;Node15</title>
<path fill="none" stroke="midnightblue" d="M1118.5,-157.8C1118.5,-148.91 1118.5,-138.78 1118.5,-131.75"/>
<polygon fill="midnightblue" stroke="midnightblue" points="1115,-158.08 1118.5,-168.08 1122,-158.08 1115,-158.08"/>
</g>
<!-- Node16&#45;&gt;Node5 -->
<g id="edge25" class="edge">
<title>Node16&#45;&gt;Node5</title>
<path fill="none" stroke="midnightblue" d="M726.74,-157.74C725.14,-143.27 720.67,-123.97 708.5,-112 617.37,-22.3 454.33,-10.5 380.15,-10.08"/>
<polygon fill="midnightblue" stroke="midnightblue" points="723.28,-158.35 727.5,-168.07 730.26,-157.84 723.28,-158.35"/>
</g>
<!-- Node17 -->
<g id="node17" class="node">
<title>Node17</title>
<g id="a_node17"><a xlink:href="structured-panoc-lbfgs_8cpp.html" target="_top" xlink:title=" ">
<polygon fill="white" stroke="black" points="756,-112.5 756,-131.5 903,-131.5 903,-112.5 756,-112.5"/>
<text text-anchor="middle" x="829.5" y="-119.5" font-family="Helvetica,sans-Serif" font-size="10.00">structured&#45;panoc&#45;lbfgs.cpp</text>
</a>
</g>
</g>
<!-- Node16&#45;&gt;Node17 -->
<g id="edge26" class="edge">
<title>Node16&#45;&gt;Node17</title>
<path fill="none" stroke="midnightblue" d="M752.83,-163.59C771.69,-153.61 796.88,-140.27 813.15,-131.65"/>
<polygon fill="midnightblue" stroke="midnightblue" points="751.09,-160.55 743.89,-168.32 754.36,-166.74 751.09,-160.55"/>
</g>
<!-- Node18&#45;&gt;Node5 -->
<g id="edge28" class="edge">
<title>Node18&#45;&gt;Node5</title>
<path fill="none" stroke="midnightblue" d="M816.83,-60.46C717.3,-50.1 474.95,-24.88 380.29,-15.04"/>
<polygon fill="midnightblue" stroke="midnightblue" points="816.54,-63.94 826.85,-61.5 817.26,-56.98 816.54,-63.94"/>
</g>
</g>
</svg>
