<?xml version="1.0" encoding="UTF-8" standalone="no"?>
<!DOCTYPE svg PUBLIC "-//W3C//DTD SVG 1.1//EN"
 "http://www.w3.org/Graphics/SVG/1.1/DTD/svg11.dtd">
<!-- Generated by graphviz version 2.43.0 (0)
 -->
<!-- Title: pga.hpp Pages: 1 -->
<svg width="1049pt" height="330pt"
 viewBox="0.00 0.00 1048.50 330.00" xmlns="http://www.w3.org/2000/svg" xmlns:xlink="http://www.w3.org/1999/xlink">
<g id="graph0" class="graph" transform="scale(1 1) rotate(0) translate(4 326)">
<title>pga.hpp</title>
<polygon fill="white" stroke="transparent" points="-4,4 -4,-326 1044.5,-326 1044.5,4 -4,4"/>
<!-- Node1 -->
<g id="node1" class="node">
<title>Node1</title>
<g id="a_node1"><a xlink:title=" ">
<polygon fill="#bfbfbf" stroke="black" points="678.5,-302.5 678.5,-321.5 734.5,-321.5 734.5,-302.5 678.5,-302.5"/>
<text text-anchor="middle" x="706.5" y="-309.5" font-family="Helvetica,sans-Serif" font-size="10.00">pga.hpp</text>
</a>
</g>
</g>
<!-- Node2 -->
<g id="node2" class="node">
<title>Node2</title>
<g id="a_node2"><a xlink:href="panoc-stop-crit_8hpp.html" target="_top" xlink:title=" ">
<polygon fill="white" stroke="black" points="0,-168.5 0,-198.5 119,-198.5 119,-168.5 0,-168.5"/>
<text text-anchor="start" x="8" y="-186.5" font-family="Helvetica,sans-Serif" font-size="10.00">panoc&#45;alm/inner/decl</text>
<text text-anchor="middle" x="59.5" y="-175.5" font-family="Helvetica,sans-Serif" font-size="10.00">/panoc&#45;stop&#45;crit.hpp</text>
</a>
</g>
</g>
<!-- Node1&#45;&gt;Node2 -->
<g id="edge1" class="edge">
<title>Node1&#45;&gt;Node2</title>
<path fill="none" stroke="midnightblue" d="M678.48,-311.49C577.21,-312.85 231.04,-313.84 133.5,-266 107.28,-253.14 86,-226.6 73.1,-207.29"/>
<polygon fill="midnightblue" stroke="midnightblue" points="75.96,-205.26 67.61,-198.74 70.07,-209.04 75.96,-205.26"/>
</g>
<!-- Node4 -->
<g id="node4" class="node">
<title>Node4</title>
<g id="a_node4"><a xlink:title=" ">
<polygon fill="white" stroke="#bfbfbf" points="91,-112.5 91,-131.5 156,-131.5 156,-112.5 91,-112.5"/>
<text text-anchor="middle" x="123.5" y="-119.5" font-family="Helvetica,sans-Serif" font-size="10.00">stdexcept</text>
</a>
</g>
</g>
<!-- Node1&#45;&gt;Node4 -->
<g id="edge28" class="edge">
<title>Node1&#45;&gt;Node4</title>
<path fill="none" stroke="midnightblue" d="M678.45,-310.3C591.46,-307.8 327.34,-297.74 248.5,-266 203.88,-248.04 194.26,-235.98 163.5,-199 148.79,-181.32 137.29,-157.36 130.47,-141.1"/>
<polygon fill="midnightblue" stroke="midnightblue" points="133.65,-139.65 126.67,-131.68 127.16,-142.26 133.65,-139.65"/>
</g>
<!-- Node5 -->
<g id="node5" class="node">
<title>Node5</title>
<g id="a_node5"><a xlink:href="panoc-helpers_8hpp.html" target="_top" xlink:title=" ">
<polygon fill="white" stroke="black" points="258,-235.5 258,-265.5 385,-265.5 385,-235.5 258,-235.5"/>
<text text-anchor="start" x="266" y="-253.5" font-family="Helvetica,sans-Serif" font-size="10.00">panoc&#45;alm/inner/detail</text>
<text text-anchor="middle" x="321.5" y="-242.5" font-family="Helvetica,sans-Serif" font-size="10.00">/panoc&#45;helpers.hpp</text>
</a>
</g>
</g>
<!-- Node1&#45;&gt;Node5 -->
<g id="edge4" class="edge">
<title>Node1&#45;&gt;Node5</title>
<path fill="none" stroke="midnightblue" d="M678.19,-306.62C619.14,-297.5 481.2,-276.18 395.2,-262.89"/>
<polygon fill="midnightblue" stroke="midnightblue" points="395.65,-259.42 385.24,-261.35 394.58,-266.34 395.65,-259.42"/>
</g>
<!-- Node6 -->
<g id="node6" class="node">
<title>Node6</title>
<g id="a_node6"><a xlink:href="atomic__stop__signal_8hpp.html" target="_top" xlink:title=" ">
<polygon fill="white" stroke="black" points="383.5,-168.5 383.5,-198.5 507.5,-198.5 507.5,-168.5 383.5,-168.5"/>
<text text-anchor="start" x="391.5" y="-186.5" font-family="Helvetica,sans-Serif" font-size="10.00">panoc&#45;alm/util/atomic</text>
<text text-anchor="middle" x="445.5" y="-175.5" font-family="Helvetica,sans-Serif" font-size="10.00">_stop_signal.hpp</text>
</a>
</g>
</g>
<!-- Node1&#45;&gt;Node6 -->
<g id="edge19" class="edge">
<title>Node1&#45;&gt;Node6</title>
<path fill="none" stroke="midnightblue" d="M688.56,-302.31C646.56,-281.95 541.07,-230.82 483.85,-203.09"/>
<polygon fill="midnightblue" stroke="midnightblue" points="485.29,-199.89 474.76,-198.68 482.23,-206.19 485.29,-199.89"/>
</g>
<!-- Node12 -->
<g id="node12" class="node">
<title>Node12</title>
<g id="a_node12"><a xlink:title=" ">
<polygon fill="white" stroke="#bfbfbf" points="563.5,-112.5 563.5,-131.5 615.5,-131.5 615.5,-112.5 563.5,-112.5"/>
<text text-anchor="middle" x="589.5" y="-119.5" font-family="Helvetica,sans-Serif" font-size="10.00">cassert</text>
</a>
</g>
</g>
<!-- Node1&#45;&gt;Node12 -->
<g id="edge23" class="edge">
<title>Node1&#45;&gt;Node12</title>
<path fill="none" stroke="midnightblue" d="M709.5,-302.29C717.16,-278.34 734.82,-210.51 705.5,-168 700.65,-160.97 657.53,-145.45 625.27,-134.62"/>
<polygon fill="midnightblue" stroke="midnightblue" points="626.25,-131.26 615.66,-131.42 624.04,-137.9 626.25,-131.26"/>
</g>
<!-- Node16 -->
<g id="node16" class="node">
<title>Node16</title>
<g id="a_node16"><a xlink:href="solverstatus_8hpp.html" target="_top" xlink:title=" ">
<polygon fill="white" stroke="black" points="526,-174 526,-193 697,-193 697,-174 526,-174"/>
<text text-anchor="middle" x="611.5" y="-181" font-family="Helvetica,sans-Serif" font-size="10.00">panoc&#45;alm/util/solverstatus.hpp</text>
</a>
</g>
</g>
<!-- Node1&#45;&gt;Node16 -->
<g id="edge22" class="edge">
<title>Node1&#45;&gt;Node16</title>
<path fill="none" stroke="midnightblue" d="M699.97,-302.31C684.38,-281.54 644.75,-228.77 624.24,-201.46"/>
<polygon fill="midnightblue" stroke="midnightblue" points="626.88,-199.15 618.08,-193.26 621.28,-203.35 626.88,-199.15"/>
</g>
<!-- Node18 -->
<g id="node18" class="node">
<title>Node18</title>
<g id="a_node18"><a xlink:href="lipschitz_8hpp.html" target="_top" xlink:title=" ">
<polygon fill="white" stroke="black" points="753.5,-174 753.5,-193 905.5,-193 905.5,-174 753.5,-174"/>
<text text-anchor="middle" x="829.5" y="-181" font-family="Helvetica,sans-Serif" font-size="10.00">panoc&#45;alm/util/lipschitz.hpp</text>
</a>
</g>
</g>
<!-- Node1&#45;&gt;Node18 -->
<g id="edge20" class="edge">
<title>Node1&#45;&gt;Node18</title>
<path fill="none" stroke="midnightblue" d="M711.81,-302.43C721.17,-287.69 741.68,-257.03 763.5,-235 776.95,-221.42 794.14,-208.38 807.61,-198.95"/>
<polygon fill="midnightblue" stroke="midnightblue" points="809.98,-201.57 816.25,-193.04 806.02,-195.8 809.98,-201.57"/>
</g>
<!-- Node19 -->
<g id="node19" class="node">
<title>Node19</title>
<g id="a_node19"><a xlink:title=" ">
<polygon fill="white" stroke="#bfbfbf" points="772.5,-241 772.5,-260 822.5,-260 822.5,-241 772.5,-241"/>
<text text-anchor="middle" x="797.5" y="-248" font-family="Helvetica,sans-Serif" font-size="10.00">chrono</text>
</a>
</g>
</g>
<!-- Node1&#45;&gt;Node19 -->
<g id="edge24" class="edge">
<title>Node1&#45;&gt;Node19</title>
<path fill="none" stroke="midnightblue" d="M719.54,-302.48C734.27,-292.84 758.47,-277.02 776.01,-265.55"/>
<polygon fill="midnightblue" stroke="midnightblue" points="778.03,-268.41 784.49,-260.01 774.2,-262.55 778.03,-268.41"/>
</g>
<!-- Node20 -->
<g id="node20" class="node">
<title>Node20</title>
<g id="a_node20"><a xlink:title=" ">
<polygon fill="white" stroke="#bfbfbf" points="841,-241 841,-260 888,-260 888,-241 841,-241"/>
<text text-anchor="middle" x="864.5" y="-248" font-family="Helvetica,sans-Serif" font-size="10.00">cmath</text>
</a>
</g>
</g>
<!-- Node1&#45;&gt;Node20 -->
<g id="edge25" class="edge">
<title>Node1&#45;&gt;Node20</title>
<path fill="none" stroke="midnightblue" d="M732.07,-302.37C757.47,-293.66 797.44,-279.6 831.5,-266 833.1,-265.36 834.73,-264.69 836.38,-264.01"/>
<polygon fill="midnightblue" stroke="midnightblue" points="837.93,-267.15 845.75,-260.01 835.18,-260.72 837.93,-267.15"/>
</g>
<!-- Node21 -->
<g id="node21" class="node">
<title>Node21</title>
<g id="a_node21"><a xlink:title=" ">
<polygon fill="white" stroke="#bfbfbf" points="906.5,-241 906.5,-260 962.5,-260 962.5,-241 906.5,-241"/>
<text text-anchor="middle" x="934.5" y="-248" font-family="Helvetica,sans-Serif" font-size="10.00">iomanip</text>
</a>
</g>
</g>
<!-- Node1&#45;&gt;Node21 -->
<g id="edge26" class="edge">
<title>Node1&#45;&gt;Node21</title>
<path fill="none" stroke="midnightblue" d="M734.82,-305.51C772.22,-297.99 839.96,-283.4 896.5,-266 898.92,-265.25 901.41,-264.43 903.9,-263.57"/>
<polygon fill="midnightblue" stroke="midnightblue" points="905.17,-266.84 913.37,-260.13 902.77,-260.26 905.17,-266.84"/>
</g>
<!-- Node22 -->
<g id="node22" class="node">
<title>Node22</title>
<g id="a_node22"><a xlink:title=" ">
<polygon fill="white" stroke="#bfbfbf" points="980.5,-241 980.5,-260 1040.5,-260 1040.5,-241 980.5,-241"/>
<text text-anchor="middle" x="1010.5" y="-248" font-family="Helvetica,sans-Serif" font-size="10.00">iostream</text>
</a>
</g>
</g>
<!-- Node1&#45;&gt;Node22 -->
<g id="edge27" class="edge">
<title>Node1&#45;&gt;Node22</title>
<path fill="none" stroke="midnightblue" d="M734.72,-307.97C783.57,-302.34 886.76,-288.73 971.5,-266 974.31,-265.25 977.21,-264.37 980.09,-263.43"/>
<polygon fill="midnightblue" stroke="midnightblue" points="981.41,-266.67 989.68,-260.06 979.09,-260.07 981.41,-266.67"/>
</g>
<!-- Node3 -->
<g id="node3" class="node">
<title>Node3</title>
<g id="a_node3"><a xlink:title=" ">
<polygon fill="white" stroke="#bfbfbf" points="16,-112.5 16,-131.5 73,-131.5 73,-112.5 16,-112.5"/>
<text text-anchor="middle" x="44.5" y="-119.5" font-family="Helvetica,sans-Serif" font-size="10.00">ostream</text>
</a>
</g>
</g>
<!-- Node2&#45;&gt;Node3 -->
<g id="edge2" class="edge">
<title>Node2&#45;&gt;Node3</title>
<path fill="none" stroke="midnightblue" d="M55.95,-168.4C53.92,-160.38 51.37,-150.23 49.18,-141.57"/>
<polygon fill="midnightblue" stroke="midnightblue" points="52.52,-140.5 46.68,-131.66 45.73,-142.21 52.52,-140.5"/>
</g>
<!-- Node2&#45;&gt;Node4 -->
<g id="edge3" class="edge">
<title>Node2&#45;&gt;Node4</title>
<path fill="none" stroke="midnightblue" d="M74.67,-168.4C84.25,-159.49 96.66,-147.95 106.57,-138.74"/>
<polygon fill="midnightblue" stroke="midnightblue" points="109.25,-141.03 114.19,-131.66 104.48,-135.9 109.25,-141.03"/>
</g>
<!-- Node5&#45;&gt;Node2 -->
<g id="edge5" class="edge">
<title>Node5&#45;&gt;Node2</title>
<path fill="none" stroke="midnightblue" d="M264.97,-235.48C224.22,-225.37 169.07,-211.68 126.17,-201.04"/>
<polygon fill="midnightblue" stroke="midnightblue" points="126.93,-197.62 116.38,-198.61 125.24,-204.42 126.93,-197.62"/>
</g>
<!-- Node5&#45;&gt;Node4 -->
<g id="edge18" class="edge">
<title>Node5&#45;&gt;Node4</title>
<path fill="none" stroke="midnightblue" d="M279.66,-235.49C256.52,-226.76 227.81,-214.29 204.5,-199 178.41,-181.89 152.94,-156.05 137.73,-139.35"/>
<polygon fill="midnightblue" stroke="midnightblue" points="140.04,-136.67 130.77,-131.54 134.82,-141.33 140.04,-136.67"/>
</g>
<!-- Node5&#45;&gt;Node6 -->
<g id="edge6" class="edge">
<title>Node5&#45;&gt;Node6</title>
<path fill="none" stroke="midnightblue" d="M348.41,-235.4C366.36,-225.98 390.17,-213.5 409.72,-203.26"/>
<polygon fill="midnightblue" stroke="midnightblue" points="411.41,-206.32 418.65,-198.58 408.16,-200.12 411.41,-206.32"/>
</g>
<!-- Node8 -->
<g id="node8" class="node">
<title>Node8</title>
<g id="a_node8"><a xlink:href="include_2panoc-alm_2util_2problem_8hpp.html" target="_top" xlink:title=" ">
<polygon fill="white" stroke="black" points="213.5,-174 213.5,-193 365.5,-193 365.5,-174 213.5,-174"/>
<text text-anchor="middle" x="289.5" y="-181" font-family="Helvetica,sans-Serif" font-size="10.00">panoc&#45;alm/util/problem.hpp</text>
</a>
</g>
</g>
<!-- Node5&#45;&gt;Node8 -->
<g id="edge8" class="edge">
<title>Node5&#45;&gt;Node8</title>
<path fill="none" stroke="midnightblue" d="M314.56,-235.4C309.76,-225.66 303.36,-212.65 298.22,-202.21"/>
<polygon fill="midnightblue" stroke="midnightblue" points="301.34,-200.62 293.78,-193.19 295.06,-203.71 301.34,-200.62"/>
</g>
<!-- Node5&#45;&gt;Node16 -->
<g id="edge16" class="edge">
<title>Node5&#45;&gt;Node16</title>
<path fill="none" stroke="midnightblue" d="M384.07,-235.48C437.85,-223.42 514.3,-206.29 563.4,-195.28"/>
<polygon fill="midnightblue" stroke="midnightblue" points="564.46,-198.63 573.45,-193.03 562.93,-191.8 564.46,-198.63"/>
</g>
<!-- Node7 -->
<g id="node7" class="node">
<title>Node7</title>
<g id="a_node7"><a xlink:title=" ">
<polygon fill="white" stroke="#bfbfbf" points="495.5,-112.5 495.5,-131.5 545.5,-131.5 545.5,-112.5 495.5,-112.5"/>
<text text-anchor="middle" x="520.5" y="-119.5" font-family="Helvetica,sans-Serif" font-size="10.00">atomic</text>
</a>
</g>
</g>
<!-- Node6&#45;&gt;Node7 -->
<g id="edge7" class="edge">
<title>Node6&#45;&gt;Node7</title>
<path fill="none" stroke="midnightblue" d="M463.27,-168.4C474.85,-159.22 489.92,-147.26 501.7,-137.92"/>
<polygon fill="midnightblue" stroke="midnightblue" points="503.93,-140.61 509.59,-131.66 499.58,-135.13 503.93,-140.61"/>
</g>
<!-- Node9 -->
<g id="node9" class="node">
<title>Node9</title>
<g id="a_node9"><a xlink:href="box_8hpp.html" target="_top" xlink:title=" ">
<polygon fill="white" stroke="black" points="261.5,-112.5 261.5,-131.5 317.5,-131.5 317.5,-112.5 261.5,-112.5"/>
<text text-anchor="middle" x="289.5" y="-119.5" font-family="Helvetica,sans-Serif" font-size="10.00">box.hpp</text>
</a>
</g>
</g>
<!-- Node8&#45;&gt;Node9 -->
<g id="edge9" class="edge">
<title>Node8&#45;&gt;Node9</title>
<path fill="none" stroke="midnightblue" d="M289.5,-173.98C289.5,-165.58 289.5,-152.48 289.5,-141.66"/>
<polygon fill="midnightblue" stroke="midnightblue" points="293,-141.51 289.5,-131.51 286,-141.51 293,-141.51"/>
</g>
<!-- Node8&#45;&gt;Node12 -->
<g id="edge12" class="edge">
<title>Node8&#45;&gt;Node12</title>
<path fill="none" stroke="midnightblue" d="M339.51,-173.94C390.85,-164.94 473.25,-149.89 553.41,-132.14"/>
<polygon fill="midnightblue" stroke="midnightblue" points="554.17,-135.56 563.17,-129.96 552.65,-128.72 554.17,-135.56"/>
</g>
<!-- Node13 -->
<g id="node13" class="node">
<title>Node13</title>
<g id="a_node13"><a xlink:title=" ">
<polygon fill="white" stroke="#bfbfbf" points="336,-112.5 336,-131.5 401,-131.5 401,-112.5 336,-112.5"/>
<text text-anchor="middle" x="368.5" y="-119.5" font-family="Helvetica,sans-Serif" font-size="10.00">functional</text>
</a>
</g>
</g>
<!-- Node8&#45;&gt;Node13 -->
<g id="edge13" class="edge">
<title>Node8&#45;&gt;Node13</title>
<path fill="none" stroke="midnightblue" d="M300.82,-173.98C313.37,-164.52 333.85,-149.1 349,-137.69"/>
<polygon fill="midnightblue" stroke="midnightblue" points="351.32,-140.32 357.2,-131.51 347.11,-134.73 351.32,-140.32"/>
</g>
<!-- Node14 -->
<g id="node14" class="node">
<title>Node14</title>
<g id="a_node14"><a xlink:title=" ">
<polygon fill="white" stroke="#bfbfbf" points="419.5,-112.5 419.5,-131.5 477.5,-131.5 477.5,-112.5 419.5,-112.5"/>
<text text-anchor="middle" x="448.5" y="-119.5" font-family="Helvetica,sans-Serif" font-size="10.00">memory</text>
</a>
</g>
</g>
<!-- Node8&#45;&gt;Node14 -->
<g id="edge14" class="edge">
<title>Node8&#45;&gt;Node14</title>
<path fill="none" stroke="midnightblue" d="M312.28,-173.98C339.55,-163.77 385.41,-146.61 416.3,-135.05"/>
<polygon fill="midnightblue" stroke="midnightblue" points="417.62,-138.29 425.76,-131.51 415.17,-131.74 417.62,-138.29"/>
</g>
<!-- Node15 -->
<g id="node15" class="node">
<title>Node15</title>
<g id="a_node15"><a xlink:title=" ">
<polygon fill="white" stroke="#bfbfbf" points="174,-112.5 174,-131.5 243,-131.5 243,-112.5 174,-112.5"/>
<text text-anchor="middle" x="208.5" y="-119.5" font-family="Helvetica,sans-Serif" font-size="10.00">type_traits</text>
</a>
</g>
</g>
<!-- Node8&#45;&gt;Node15 -->
<g id="edge15" class="edge">
<title>Node8&#45;&gt;Node15</title>
<path fill="none" stroke="midnightblue" d="M277.89,-173.98C265.02,-164.52 244.03,-149.1 228.49,-137.69"/>
<polygon fill="midnightblue" stroke="midnightblue" points="230.22,-134.61 220.08,-131.51 226.07,-140.25 230.22,-134.61"/>
</g>
<!-- Node10 -->
<g id="node10" class="node">
<title>Node10</title>
<g id="a_node10"><a xlink:href="vec_8hpp.html" target="_top" xlink:title=" ">
<polygon fill="white" stroke="black" points="472,-56.5 472,-75.5 527,-75.5 527,-56.5 472,-56.5"/>
<text text-anchor="middle" x="499.5" y="-63.5" font-family="Helvetica,sans-Serif" font-size="10.00">vec.hpp</text>
</a>
</g>
</g>
<!-- Node9&#45;&gt;Node10 -->
<g id="edge10" class="edge">
<title>Node9&#45;&gt;Node10</title>
<path fill="none" stroke="midnightblue" d="M317.82,-113.72C355.16,-104.12 420.94,-87.2 462.27,-76.57"/>
<polygon fill="midnightblue" stroke="midnightblue" points="463.15,-79.96 471.96,-74.08 461.4,-73.18 463.15,-79.96"/>
</g>
<!-- Node11 -->
<g id="node11" class="node">
<title>Node11</title>
<g id="a_node11"><a xlink:title=" ">
<polygon fill="white" stroke="#bfbfbf" points="465,-0.5 465,-19.5 534,-19.5 534,-0.5 465,-0.5"/>
<text text-anchor="middle" x="499.5" y="-7.5" font-family="Helvetica,sans-Serif" font-size="10.00">Eigen/Core</text>
</a>
</g>
</g>
<!-- Node10&#45;&gt;Node11 -->
<g id="edge11" class="edge">
<title>Node10&#45;&gt;Node11</title>
<path fill="none" stroke="midnightblue" d="M499.5,-56.08C499.5,-49.01 499.5,-38.86 499.5,-29.99"/>
<polygon fill="midnightblue" stroke="midnightblue" points="503,-29.75 499.5,-19.75 496,-29.75 503,-29.75"/>
</g>
<!-- Node17 -->
<g id="node17" class="node">
<title>Node17</title>
<g id="a_node17"><a xlink:title=" ">
<polygon fill="white" stroke="#bfbfbf" points="633.5,-112.5 633.5,-131.5 681.5,-131.5 681.5,-112.5 633.5,-112.5"/>
<text text-anchor="middle" x="657.5" y="-119.5" font-family="Helvetica,sans-Serif" font-size="10.00">iosfwd</text>
</a>
</g>
</g>
<!-- Node16&#45;&gt;Node17 -->
<g id="edge17" class="edge">
<title>Node16&#45;&gt;Node17</title>
<path fill="none" stroke="midnightblue" d="M618.09,-173.98C624.99,-165.05 636,-150.81 644.63,-139.64"/>
<polygon fill="midnightblue" stroke="midnightblue" points="647.57,-141.56 650.92,-131.51 642.04,-137.28 647.57,-141.56"/>
</g>
<!-- Node18&#45;&gt;Node10 -->
<g id="edge21" class="edge">
<title>Node18&#45;&gt;Node10</title>
<path fill="none" stroke="midnightblue" d="M815.4,-173.92C790.85,-159.3 738.28,-129.46 690.5,-112 638.8,-93.11 576.29,-80.14 537.19,-73.14"/>
<polygon fill="midnightblue" stroke="midnightblue" points="537.75,-69.68 527.3,-71.41 536.55,-76.58 537.75,-69.68"/>
</g>
</g>
</svg>
