<?xml version="1.0" encoding="UTF-8" standalone="no"?>
<!DOCTYPE svg PUBLIC "-//W3C//DTD SVG 1.1//EN"
 "http://www.w3.org/Graphics/SVG/1.1/DTD/svg11.dtd">
<!-- Generated by graphviz version 2.43.0 (0)
 -->
<!-- Title: main.cpp Pages: 1 -->
<svg width="1732pt" height="464pt"
 viewBox="0.00 0.00 1732.37 464.00" xmlns="http://www.w3.org/2000/svg" xmlns:xlink="http://www.w3.org/1999/xlink">
<g id="graph0" class="graph" transform="scale(1 1) rotate(0) translate(4 460)">
<title>main.cpp</title>
<polygon fill="white" stroke="transparent" points="-4,4 -4,-460 1728.37,-460 1728.37,4 -4,4"/>
<!-- Node1 -->
<g id="node1" class="node">
<title>Node1</title>
<g id="a_node1"><a xlink:title=" ">
<polygon fill="#bfbfbf" stroke="black" points="235.87,-436.5 235.87,-455.5 297.87,-455.5 297.87,-436.5 235.87,-436.5"/>
<text text-anchor="middle" x="266.87" y="-443.5" font-family="Helvetica,sans-Serif" font-size="10.00">main.cpp</text>
</a>
</g>
</g>
<!-- Node2 -->
<g id="node2" class="node">
<title>Node2</title>
<g id="a_node2"><a xlink:href="alm_8hpp.html" target="_top" xlink:title=" ">
<polygon fill="white" stroke="black" points="65.37,-380.5 65.37,-399.5 176.37,-399.5 176.37,-380.5 65.37,-380.5"/>
<text text-anchor="middle" x="120.87" y="-387.5" font-family="Helvetica,sans-Serif" font-size="10.00">panoc&#45;alm/alm.hpp</text>
</a>
</g>
</g>
<!-- Node1&#45;&gt;Node2 -->
<g id="edge1" class="edge">
<title>Node1&#45;&gt;Node2</title>
<path fill="none" stroke="midnightblue" d="M243.74,-436.44C219.39,-427.44 180.87,-413.19 153.45,-403.05"/>
<polygon fill="midnightblue" stroke="midnightblue" points="154.49,-399.7 143.9,-399.52 152.06,-406.27 154.49,-399.7"/>
</g>
<!-- Node21 -->
<g id="node21" class="node">
<title>Node21</title>
<g id="a_node21"><a xlink:title=" ">
<polygon fill="white" stroke="#bfbfbf" points="95.87,-252 95.87,-271 155.87,-271 155.87,-252 95.87,-252"/>
<text text-anchor="middle" x="125.87" y="-259" font-family="Helvetica,sans-Serif" font-size="10.00">iostream</text>
</a>
</g>
</g>
<!-- Node1&#45;&gt;Node21 -->
<g id="edge60" class="edge">
<title>Node1&#45;&gt;Node21</title>
<path fill="none" stroke="midnightblue" d="M264.81,-436.32C259.08,-413.7 241.06,-351.99 206.87,-313 192.81,-296.96 172.4,-284.28 155.59,-275.64"/>
<polygon fill="midnightblue" stroke="midnightblue" points="156.71,-272.29 146.19,-271.02 153.62,-278.57 156.71,-272.29"/>
</g>
<!-- Node22 -->
<g id="node22" class="node">
<title>Node22</title>
<g id="a_node22"><a xlink:href="inner_2panoc_8hpp.html" target="_top" xlink:title=" ">
<polygon fill="white" stroke="black" points="275.37,-319 275.37,-338 424.37,-338 424.37,-319 275.37,-319"/>
<text text-anchor="middle" x="349.87" y="-326" font-family="Helvetica,sans-Serif" font-size="10.00">panoc&#45;alm/inner/panoc.hpp</text>
</a>
</g>
</g>
<!-- Node1&#45;&gt;Node22 -->
<g id="edge22" class="edge">
<title>Node1&#45;&gt;Node22</title>
<path fill="none" stroke="midnightblue" d="M273.11,-436.32C286.81,-417.26 319.73,-371.45 337.69,-346.46"/>
<polygon fill="midnightblue" stroke="midnightblue" points="340.57,-348.45 343.56,-338.28 334.88,-344.36 340.57,-348.45"/>
</g>
<!-- Node34 -->
<g id="node34" class="node">
<title>Node34</title>
<g id="a_node34"><a xlink:href="lbfgs_8hpp.html" target="_top" xlink:title=" ">
<polygon fill="white" stroke="black" points="658.37,-313.5 658.37,-343.5 805.37,-343.5 805.37,-313.5 658.37,-313.5"/>
<text text-anchor="start" x="666.37" y="-331.5" font-family="Helvetica,sans-Serif" font-size="10.00">panoc&#45;alm/inner/directions</text>
<text text-anchor="middle" x="731.87" y="-320.5" font-family="Helvetica,sans-Serif" font-size="10.00">/lbfgs.hpp</text>
</a>
</g>
</g>
<!-- Node1&#45;&gt;Node34 -->
<g id="edge53" class="edge">
<title>Node1&#45;&gt;Node34</title>
<path fill="none" stroke="midnightblue" d="M298.1,-437.24C372.89,-418.67 563.58,-371.3 665.41,-346.01"/>
<polygon fill="midnightblue" stroke="midnightblue" points="666.42,-349.36 675.28,-343.56 664.73,-342.57 666.42,-349.36"/>
</g>
<!-- Node3 -->
<g id="node3" class="node">
<title>Node3</title>
<g id="a_node3"><a xlink:href="alm-helpers_8hpp.html" target="_top" xlink:title=" ">
<polygon fill="white" stroke="black" points="60.37,-313.5 60.37,-343.5 181.37,-343.5 181.37,-313.5 60.37,-313.5"/>
<text text-anchor="start" x="68.37" y="-331.5" font-family="Helvetica,sans-Serif" font-size="10.00">panoc&#45;alm/detail/alm</text>
<text text-anchor="middle" x="120.87" y="-320.5" font-family="Helvetica,sans-Serif" font-size="10.00">&#45;helpers.hpp</text>
</a>
</g>
</g>
<!-- Node2&#45;&gt;Node3 -->
<g id="edge2" class="edge">
<title>Node2&#45;&gt;Node3</title>
<path fill="none" stroke="midnightblue" d="M120.87,-380.48C120.87,-373.47 120.87,-363.19 120.87,-353.7"/>
<polygon fill="midnightblue" stroke="midnightblue" points="124.37,-353.52 120.87,-343.52 117.37,-353.52 124.37,-353.52"/>
</g>
<!-- Node15 -->
<g id="node15" class="node">
<title>Node15</title>
<g id="a_node15"><a xlink:href="solverstatus_8hpp.html" target="_top" xlink:title=" ">
<polygon fill="white" stroke="black" points="225.37,-185 225.37,-204 396.37,-204 396.37,-185 225.37,-185"/>
<text text-anchor="middle" x="310.87" y="-192" font-family="Helvetica,sans-Serif" font-size="10.00">panoc&#45;alm/util/solverstatus.hpp</text>
</a>
</g>
</g>
<!-- Node2&#45;&gt;Node15 -->
<g id="edge19" class="edge">
<title>Node2&#45;&gt;Node15</title>
<path fill="none" stroke="midnightblue" d="M95.99,-380.36C78.26,-373.1 54.99,-361.12 39.87,-344 9.97,-310.14 -16.28,-280.51 12.87,-246 38.47,-215.69 137.8,-203.57 214.83,-198.72"/>
<polygon fill="midnightblue" stroke="midnightblue" points="215.28,-202.2 225.06,-198.11 214.87,-195.22 215.28,-202.2"/>
</g>
<!-- Node20 -->
<g id="node20" class="node">
<title>Node20</title>
<g id="a_node20"><a xlink:title=" ">
<polygon fill="white" stroke="#bfbfbf" points="21.87,-252 21.87,-271 77.87,-271 77.87,-252 21.87,-252"/>
<text text-anchor="middle" x="49.87" y="-259" font-family="Helvetica,sans-Serif" font-size="10.00">iomanip</text>
</a>
</g>
</g>
<!-- Node2&#45;&gt;Node20 -->
<g id="edge20" class="edge">
<title>Node2&#45;&gt;Node20</title>
<path fill="none" stroke="midnightblue" d="M96.47,-380.4C80.4,-373.32 60.6,-361.57 50.87,-344 40.13,-324.61 42.16,-298.42 45.36,-281.03"/>
<polygon fill="midnightblue" stroke="midnightblue" points="48.83,-281.53 47.5,-271.02 41.98,-280.07 48.83,-281.53"/>
</g>
<!-- Node2&#45;&gt;Node21 -->
<g id="edge21" class="edge">
<title>Node2&#45;&gt;Node21</title>
<path fill="none" stroke="midnightblue" d="M144.66,-380.5C160.59,-373.41 180.34,-361.61 189.87,-344 196.43,-331.89 195.88,-325.4 189.87,-313 182.17,-297.12 166.79,-284.73 153.04,-276.2"/>
<polygon fill="midnightblue" stroke="midnightblue" points="154.74,-273.14 144.33,-271.15 151.23,-279.19 154.74,-273.14"/>
</g>
<!-- Node4 -->
<g id="node4" class="node">
<title>Node4</title>
<g id="a_node4"><a xlink:href="decl_2alm_8hpp.html" target="_top" xlink:title=" ">
<polygon fill="white" stroke="black" points="503.87,-252 503.87,-271 637.87,-271 637.87,-252 503.87,-252"/>
<text text-anchor="middle" x="570.87" y="-259" font-family="Helvetica,sans-Serif" font-size="10.00">panoc&#45;alm/decl/alm.hpp</text>
</a>
</g>
</g>
<!-- Node3&#45;&gt;Node4 -->
<g id="edge3" class="edge">
<title>Node3&#45;&gt;Node4</title>
<path fill="none" stroke="midnightblue" d="M181.56,-318.73C264.87,-306.7 414.25,-285.12 501.76,-272.48"/>
<polygon fill="midnightblue" stroke="midnightblue" points="502.46,-275.92 511.86,-271.02 501.46,-268.99 502.46,-275.92"/>
</g>
<!-- Node19 -->
<g id="node19" class="node">
<title>Node19</title>
<g id="a_node19"><a xlink:title=" ">
<polygon fill="white" stroke="#bfbfbf" points="107.37,-118 107.37,-137 172.37,-137 172.37,-118 107.37,-118"/>
<text text-anchor="middle" x="139.87" y="-125" font-family="Helvetica,sans-Serif" font-size="10.00">stdexcept</text>
</a>
</g>
</g>
<!-- Node3&#45;&gt;Node19 -->
<g id="edge18" class="edge">
<title>Node3&#45;&gt;Node19</title>
<path fill="none" stroke="midnightblue" d="M61.53,-313.44C42.71,-305.87 23.93,-294.38 12.87,-277 5.48,-265.38 7.35,-258.62 12.87,-246 33.7,-198.36 84.42,-161.42 115.09,-142.5"/>
<polygon fill="midnightblue" stroke="midnightblue" points="117.14,-145.36 123.91,-137.21 113.54,-139.35 117.14,-145.36"/>
</g>
<!-- Node5 -->
<g id="node5" class="node">
<title>Node5</title>
<g id="a_node5"><a xlink:href="panoc-fwd_8hpp.html" target="_top" xlink:title=" ">
<polygon fill="white" stroke="black" points="1070.37,-179.5 1070.37,-209.5 1189.37,-209.5 1189.37,-179.5 1070.37,-179.5"/>
<text text-anchor="start" x="1078.37" y="-197.5" font-family="Helvetica,sans-Serif" font-size="10.00">panoc&#45;alm/inner/decl</text>
<text text-anchor="middle" x="1129.87" y="-186.5" font-family="Helvetica,sans-Serif" font-size="10.00">/panoc&#45;fwd.hpp</text>
</a>
</g>
</g>
<!-- Node4&#45;&gt;Node5 -->
<g id="edge4" class="edge">
<title>Node4&#45;&gt;Node5</title>
<path fill="none" stroke="midnightblue" d="M611.78,-251.97C623.11,-249.81 635.44,-247.63 646.87,-246 813.06,-222.24 856.11,-229.28 1022.87,-210 1034.87,-208.61 1047.62,-207 1059.96,-205.38"/>
<polygon fill="midnightblue" stroke="midnightblue" points="1060.77,-208.8 1070.22,-204.01 1059.84,-201.86 1060.77,-208.8"/>
</g>
<!-- Node7 -->
<g id="node7" class="node">
<title>Node7</title>
<g id="a_node7"><a xlink:href="include_2panoc-alm_2util_2problem_8hpp.html" target="_top" xlink:title=" ">
<polygon fill="white" stroke="black" points="551.87,-185 551.87,-204 703.87,-204 703.87,-185 551.87,-185"/>
<text text-anchor="middle" x="627.87" y="-192" font-family="Helvetica,sans-Serif" font-size="10.00">panoc&#45;alm/util/problem.hpp</text>
</a>
</g>
</g>
<!-- Node4&#45;&gt;Node7 -->
<g id="edge6" class="edge">
<title>Node4&#45;&gt;Node7</title>
<path fill="none" stroke="midnightblue" d="M578.56,-251.73C587.53,-241.5 602.56,-224.36 613.67,-211.69"/>
<polygon fill="midnightblue" stroke="midnightblue" points="616.35,-213.95 620.31,-204.13 611.08,-209.34 616.35,-213.95"/>
</g>
<!-- Node4&#45;&gt;Node15 -->
<g id="edge14" class="edge">
<title>Node4&#45;&gt;Node15</title>
<path fill="none" stroke="midnightblue" d="M536.61,-251.94C489.95,-240.27 406.34,-219.37 355.02,-206.54"/>
<polygon fill="midnightblue" stroke="midnightblue" points="355.76,-203.11 345.21,-204.08 354.06,-209.9 355.76,-203.11"/>
</g>
<!-- Node17 -->
<g id="node17" class="node">
<title>Node17</title>
<g id="a_node17"><a xlink:title=" ">
<polygon fill="white" stroke="#bfbfbf" points="963.87,-185 963.87,-204 1013.87,-204 1013.87,-185 963.87,-185"/>
<text text-anchor="middle" x="988.87" y="-192" font-family="Helvetica,sans-Serif" font-size="10.00">chrono</text>
</a>
</g>
</g>
<!-- Node4&#45;&gt;Node17 -->
<g id="edge16" class="edge">
<title>Node4&#45;&gt;Node17</title>
<path fill="none" stroke="midnightblue" d="M612.59,-251.98C623.7,-249.86 635.72,-247.71 646.87,-246 783.09,-225.07 821.67,-245.4 954.87,-210 957.23,-209.37 959.63,-208.62 962.02,-207.78"/>
<polygon fill="midnightblue" stroke="midnightblue" points="963.55,-210.94 971.57,-204.01 960.98,-204.42 963.55,-210.94"/>
</g>
<!-- Node18 -->
<g id="node18" class="node">
<title>Node18</title>
<g id="a_node18"><a xlink:title=" ">
<polygon fill="white" stroke="#bfbfbf" points="901.87,-185 901.87,-204 945.87,-204 945.87,-185 901.87,-185"/>
<text text-anchor="middle" x="923.87" y="-192" font-family="Helvetica,sans-Serif" font-size="10.00">string</text>
</a>
</g>
</g>
<!-- Node4&#45;&gt;Node18 -->
<g id="edge17" class="edge">
<title>Node4&#45;&gt;Node18</title>
<path fill="none" stroke="midnightblue" d="M613.82,-251.97C624.6,-249.92 636.14,-247.81 646.87,-246 755.83,-227.64 787.03,-241.75 892.87,-210 894.75,-209.44 896.66,-208.78 898.56,-208.06"/>
<polygon fill="midnightblue" stroke="midnightblue" points="900,-211.25 907.81,-204.1 897.24,-204.81 900,-211.25"/>
</g>
<!-- Node6 -->
<g id="node6" class="node">
<title>Node6</title>
<g id="a_node6"><a xlink:href="lbfgs-fwd_8hpp.html" target="_top" xlink:title=" ">
<polygon fill="white" stroke="black" points="1551.37,-112.5 1551.37,-142.5 1698.37,-142.5 1698.37,-112.5 1551.37,-112.5"/>
<text text-anchor="start" x="1559.37" y="-130.5" font-family="Helvetica,sans-Serif" font-size="10.00">panoc&#45;alm/inner/directions</text>
<text text-anchor="middle" x="1624.87" y="-119.5" font-family="Helvetica,sans-Serif" font-size="10.00">/decl/lbfgs&#45;fwd.hpp</text>
</a>
</g>
</g>
<!-- Node5&#45;&gt;Node6 -->
<g id="edge5" class="edge">
<title>Node5&#45;&gt;Node6</title>
<path fill="none" stroke="midnightblue" d="M1189.56,-185.23C1204.96,-183.14 1221.53,-180.94 1236.87,-179 1369.11,-162.24 1405.14,-162.72 1541.17,-143.05"/>
<polygon fill="midnightblue" stroke="midnightblue" points="1541.75,-146.5 1551.14,-141.6 1540.74,-139.58 1541.75,-146.5"/>
</g>
<!-- Node8 -->
<g id="node8" class="node">
<title>Node8</title>
<g id="a_node8"><a xlink:href="box_8hpp.html" target="_top" xlink:title=" ">
<polygon fill="white" stroke="black" points="1476.87,-118 1476.87,-137 1532.87,-137 1532.87,-118 1476.87,-118"/>
<text text-anchor="middle" x="1504.87" y="-125" font-family="Helvetica,sans-Serif" font-size="10.00">box.hpp</text>
</a>
</g>
</g>
<!-- Node7&#45;&gt;Node8 -->
<g id="edge7" class="edge">
<title>Node7&#45;&gt;Node8</title>
<path fill="none" stroke="midnightblue" d="M693.86,-184.97C712.29,-182.8 732.34,-180.62 750.87,-179 1032.48,-154.44 1104.31,-168.11 1385.87,-143 1412.84,-140.6 1443.12,-136.89 1466.39,-133.83"/>
<polygon fill="midnightblue" stroke="midnightblue" points="1467.11,-137.26 1476.55,-132.47 1466.18,-130.33 1467.11,-137.26"/>
</g>
<!-- Node11 -->
<g id="node11" class="node">
<title>Node11</title>
<g id="a_node11"><a xlink:title=" ">
<polygon fill="white" stroke="#bfbfbf" points="363.87,-118 363.87,-137 415.87,-137 415.87,-118 363.87,-118"/>
<text text-anchor="middle" x="389.87" y="-125" font-family="Helvetica,sans-Serif" font-size="10.00">cassert</text>
</a>
</g>
</g>
<!-- Node7&#45;&gt;Node11 -->
<g id="edge10" class="edge">
<title>Node7&#45;&gt;Node11</title>
<path fill="none" stroke="midnightblue" d="M593.4,-184.97C554.86,-175.3 490.67,-158.83 435.87,-143 432.55,-142.04 429.11,-141.01 425.67,-139.97"/>
<polygon fill="midnightblue" stroke="midnightblue" points="426.67,-136.61 416.08,-137 424.6,-143.3 426.67,-136.61"/>
</g>
<!-- Node12 -->
<g id="node12" class="node">
<title>Node12</title>
<g id="a_node12"><a xlink:title=" ">
<polygon fill="white" stroke="#bfbfbf" points="525.37,-118 525.37,-137 590.37,-137 590.37,-118 525.37,-118"/>
<text text-anchor="middle" x="557.87" y="-125" font-family="Helvetica,sans-Serif" font-size="10.00">functional</text>
</a>
</g>
</g>
<!-- Node7&#45;&gt;Node12 -->
<g id="edge11" class="edge">
<title>Node7&#45;&gt;Node12</title>
<path fill="none" stroke="midnightblue" d="M618.43,-184.73C607.2,-174.31 588.25,-156.71 574.54,-143.97"/>
<polygon fill="midnightblue" stroke="midnightblue" points="576.87,-141.37 567.16,-137.13 572.11,-146.5 576.87,-141.37"/>
</g>
<!-- Node13 -->
<g id="node13" class="node">
<title>Node13</title>
<g id="a_node13"><a xlink:title=" ">
<polygon fill="white" stroke="#bfbfbf" points="608.87,-118 608.87,-137 666.87,-137 666.87,-118 608.87,-118"/>
<text text-anchor="middle" x="637.87" y="-125" font-family="Helvetica,sans-Serif" font-size="10.00">memory</text>
</a>
</g>
</g>
<!-- Node7&#45;&gt;Node13 -->
<g id="edge12" class="edge">
<title>Node7&#45;&gt;Node13</title>
<path fill="none" stroke="midnightblue" d="M629.22,-184.73C630.69,-175.18 633.08,-159.62 634.98,-147.28"/>
<polygon fill="midnightblue" stroke="midnightblue" points="638.48,-147.54 636.55,-137.13 631.57,-146.48 638.48,-147.54"/>
</g>
<!-- Node14 -->
<g id="node14" class="node">
<title>Node14</title>
<g id="a_node14"><a xlink:title=" ">
<polygon fill="white" stroke="#bfbfbf" points="689.37,-118 689.37,-137 758.37,-137 758.37,-118 689.37,-118"/>
<text text-anchor="middle" x="723.87" y="-125" font-family="Helvetica,sans-Serif" font-size="10.00">type_traits</text>
</a>
</g>
</g>
<!-- Node7&#45;&gt;Node14 -->
<g id="edge13" class="edge">
<title>Node7&#45;&gt;Node14</title>
<path fill="none" stroke="midnightblue" d="M640.82,-184.73C656.72,-173.96 683.92,-155.55 702.84,-142.74"/>
<polygon fill="midnightblue" stroke="midnightblue" points="704.81,-145.63 711.13,-137.13 700.89,-139.84 704.81,-145.63"/>
</g>
<!-- Node9 -->
<g id="node9" class="node">
<title>Node9</title>
<g id="a_node9"><a xlink:href="vec_8hpp.html" target="_top" xlink:title=" ">
<polygon fill="white" stroke="black" points="1477.37,-56.5 1477.37,-75.5 1532.37,-75.5 1532.37,-56.5 1477.37,-56.5"/>
<text text-anchor="middle" x="1504.87" y="-63.5" font-family="Helvetica,sans-Serif" font-size="10.00">vec.hpp</text>
</a>
</g>
</g>
<!-- Node8&#45;&gt;Node9 -->
<g id="edge8" class="edge">
<title>Node8&#45;&gt;Node9</title>
<path fill="none" stroke="midnightblue" d="M1504.87,-117.98C1504.87,-109.58 1504.87,-96.48 1504.87,-85.66"/>
<polygon fill="midnightblue" stroke="midnightblue" points="1508.37,-85.51 1504.87,-75.51 1501.37,-85.51 1508.37,-85.51"/>
</g>
<!-- Node10 -->
<g id="node10" class="node">
<title>Node10</title>
<g id="a_node10"><a xlink:title=" ">
<polygon fill="white" stroke="#bfbfbf" points="1470.37,-0.5 1470.37,-19.5 1539.37,-19.5 1539.37,-0.5 1470.37,-0.5"/>
<text text-anchor="middle" x="1504.87" y="-7.5" font-family="Helvetica,sans-Serif" font-size="10.00">Eigen/Core</text>
</a>
</g>
</g>
<!-- Node9&#45;&gt;Node10 -->
<g id="edge9" class="edge">
<title>Node9&#45;&gt;Node10</title>
<path fill="none" stroke="midnightblue" d="M1504.87,-56.08C1504.87,-49.01 1504.87,-38.86 1504.87,-29.99"/>
<polygon fill="midnightblue" stroke="midnightblue" points="1508.37,-29.75 1504.87,-19.75 1501.37,-29.75 1508.37,-29.75"/>
</g>
<!-- Node16 -->
<g id="node16" class="node">
<title>Node16</title>
<g id="a_node16"><a xlink:title=" ">
<polygon fill="white" stroke="#bfbfbf" points="286.87,-118 286.87,-137 334.87,-137 334.87,-118 286.87,-118"/>
<text text-anchor="middle" x="310.87" y="-125" font-family="Helvetica,sans-Serif" font-size="10.00">iosfwd</text>
</a>
</g>
</g>
<!-- Node15&#45;&gt;Node16 -->
<g id="edge15" class="edge">
<title>Node15&#45;&gt;Node16</title>
<path fill="none" stroke="midnightblue" d="M310.87,-184.73C310.87,-175.18 310.87,-159.62 310.87,-147.28"/>
<polygon fill="midnightblue" stroke="midnightblue" points="314.37,-147.13 310.87,-137.13 307.37,-147.13 314.37,-147.13"/>
</g>
<!-- Node22&#45;&gt;Node11 -->
<g id="edge48" class="edge">
<title>Node22&#45;&gt;Node11</title>
<path fill="none" stroke="midnightblue" d="M330.92,-318.92C284.67,-296.83 172.89,-235.74 215.87,-179 251.56,-131.89 287.24,-159.89 343.87,-143 347.18,-142.01 350.62,-140.97 354.06,-139.91"/>
<polygon fill="midnightblue" stroke="midnightblue" points="355.14,-143.24 363.64,-136.92 353.06,-136.55 355.14,-143.24"/>
</g>
<!-- Node22&#45;&gt;Node19 -->
<g id="edge52" class="edge">
<title>Node22&#45;&gt;Node19</title>
<path fill="none" stroke="midnightblue" d="M312.35,-318.96C285.3,-311.38 249.09,-298.16 222.87,-277 179.49,-241.99 154.96,-177.88 145.06,-146.61"/>
<polygon fill="midnightblue" stroke="midnightblue" points="148.41,-145.59 142.17,-137.02 141.71,-147.61 148.41,-145.59"/>
</g>
<!-- Node22&#45;&gt;Node20 -->
<g id="edge50" class="edge">
<title>Node22&#45;&gt;Node20</title>
<path fill="none" stroke="midnightblue" d="M288.54,-318.99C234.75,-310.76 154.76,-296.64 86.87,-277 84.29,-276.25 81.64,-275.4 78.99,-274.48"/>
<polygon fill="midnightblue" stroke="midnightblue" points="80.2,-271.2 69.61,-271.01 77.77,-277.76 80.2,-271.2"/>
</g>
<!-- Node22&#45;&gt;Node21 -->
<g id="edge51" class="edge">
<title>Node22&#45;&gt;Node21</title>
<path fill="none" stroke="midnightblue" d="M317.88,-318.99C281.79,-309.28 221.41,-292.71 169.87,-277 166.97,-276.11 163.96,-275.17 160.94,-274.21"/>
<polygon fill="midnightblue" stroke="midnightblue" points="162,-270.88 151.4,-271.13 159.84,-277.54 162,-270.88"/>
</g>
<!-- Node23 -->
<g id="node23" class="node">
<title>Node23</title>
<g id="a_node23"><a xlink:href="inner_2decl_2panoc_8hpp.html" target="_top" xlink:title=" ">
<polygon fill="white" stroke="black" points="929.37,-246.5 929.37,-276.5 1048.37,-276.5 1048.37,-246.5 929.37,-246.5"/>
<text text-anchor="start" x="937.37" y="-264.5" font-family="Helvetica,sans-Serif" font-size="10.00">panoc&#45;alm/inner/decl</text>
<text text-anchor="middle" x="988.87" y="-253.5" font-family="Helvetica,sans-Serif" font-size="10.00">/panoc.hpp</text>
</a>
</g>
</g>
<!-- Node22&#45;&gt;Node23 -->
<g id="edge23" class="edge">
<title>Node22&#45;&gt;Node23</title>
<path fill="none" stroke="midnightblue" d="M424.42,-319.92C548.86,-307.26 797.2,-282 918.68,-269.64"/>
<polygon fill="midnightblue" stroke="midnightblue" points="919.38,-273.09 928.97,-268.59 918.67,-266.12 919.38,-273.09"/>
</g>
<!-- Node27 -->
<g id="node27" class="node">
<title>Node27</title>
<g id="a_node27"><a xlink:href="panoc-direction-update_8hpp.html" target="_top" xlink:title=" ">
<polygon fill="white" stroke="black" points="1446.37,-179.5 1446.37,-209.5 1623.37,-209.5 1623.37,-179.5 1446.37,-179.5"/>
<text text-anchor="start" x="1454.37" y="-197.5" font-family="Helvetica,sans-Serif" font-size="10.00">panoc&#45;alm/inner/directions</text>
<text text-anchor="middle" x="1534.87" y="-186.5" font-family="Helvetica,sans-Serif" font-size="10.00">/decl/panoc&#45;direction&#45;update.hpp</text>
</a>
</g>
</g>
<!-- Node22&#45;&gt;Node27 -->
<g id="edge47" class="edge">
<title>Node22&#45;&gt;Node27</title>
<path fill="none" stroke="midnightblue" d="M424.41,-324.57C553.57,-318.96 827.19,-304.72 1056.87,-277 1197.99,-259.97 1360.9,-229.95 1455.46,-211.48"/>
<polygon fill="midnightblue" stroke="midnightblue" points="1456.38,-214.87 1465.52,-209.51 1455.03,-208 1456.38,-214.87"/>
</g>
<!-- Node32 -->
<g id="node32" class="node">
<title>Node32</title>
<g id="a_node32"><a xlink:href="panoc-helpers_8hpp.html" target="_top" xlink:title=" ">
<polygon fill="white" stroke="black" points="310.37,-246.5 310.37,-276.5 437.37,-276.5 437.37,-246.5 310.37,-246.5"/>
<text text-anchor="start" x="318.37" y="-264.5" font-family="Helvetica,sans-Serif" font-size="10.00">panoc&#45;alm/inner/detail</text>
<text text-anchor="middle" x="373.87" y="-253.5" font-family="Helvetica,sans-Serif" font-size="10.00">/panoc&#45;helpers.hpp</text>
</a>
</g>
</g>
<!-- Node22&#45;&gt;Node32 -->
<g id="edge41" class="edge">
<title>Node22&#45;&gt;Node32</title>
<path fill="none" stroke="midnightblue" d="M353.11,-318.73C356.2,-310.37 360.99,-297.4 365.19,-286.02"/>
<polygon fill="midnightblue" stroke="midnightblue" points="368.49,-287.18 368.67,-276.59 361.92,-284.76 368.49,-287.18"/>
</g>
<!-- Node33 -->
<g id="node33" class="node">
<title>Node33</title>
<g id="a_node33"><a xlink:title=" ">
<polygon fill="white" stroke="#bfbfbf" points="656.37,-252 656.37,-271 703.37,-271 703.37,-252 656.37,-252"/>
<text text-anchor="middle" x="679.87" y="-259" font-family="Helvetica,sans-Serif" font-size="10.00">cmath</text>
</a>
</g>
</g>
<!-- Node22&#45;&gt;Node33 -->
<g id="edge49" class="edge">
<title>Node22&#45;&gt;Node33</title>
<path fill="none" stroke="midnightblue" d="M424.57,-319.95C485.34,-312.59 572.85,-299.19 646.87,-277 648.81,-276.42 650.78,-275.76 652.74,-275.04"/>
<polygon fill="midnightblue" stroke="midnightblue" points="654.41,-278.14 662.36,-271.15 651.78,-271.65 654.41,-278.14"/>
</g>
<!-- Node23&#45;&gt;Node5 -->
<g id="edge25" class="edge">
<title>Node23&#45;&gt;Node5</title>
<path fill="none" stroke="midnightblue" d="M1019.47,-246.4C1040.16,-236.86 1067.7,-224.16 1090.09,-213.84"/>
<polygon fill="midnightblue" stroke="midnightblue" points="1091.72,-216.94 1099.34,-209.58 1088.79,-210.58 1091.72,-216.94"/>
</g>
<!-- Node23&#45;&gt;Node7 -->
<g id="edge35" class="edge">
<title>Node23&#45;&gt;Node7</title>
<path fill="none" stroke="midnightblue" d="M929.26,-249.77C861.54,-237.57 751.81,-217.82 685.1,-205.8"/>
<polygon fill="midnightblue" stroke="midnightblue" points="685.64,-202.35 675.18,-204.02 684.4,-209.23 685.64,-202.35"/>
</g>
<!-- Node23&#45;&gt;Node15 -->
<g id="edge36" class="edge">
<title>Node23&#45;&gt;Node15</title>
<path fill="none" stroke="midnightblue" d="M929.05,-256.65C823.15,-249.54 595.84,-232.96 404.87,-210 394.2,-208.72 382.88,-207.15 371.93,-205.52"/>
<polygon fill="midnightblue" stroke="midnightblue" points="372.42,-202.06 362.01,-204.02 371.38,-208.98 372.42,-202.06"/>
</g>
<!-- Node23&#45;&gt;Node17 -->
<g id="edge38" class="edge">
<title>Node23&#45;&gt;Node17</title>
<path fill="none" stroke="midnightblue" d="M988.87,-246.4C988.87,-237.06 988.87,-224.71 988.87,-214.52"/>
<polygon fill="midnightblue" stroke="midnightblue" points="992.37,-214.19 988.87,-204.19 985.37,-214.19 992.37,-214.19"/>
</g>
<!-- Node23&#45;&gt;Node18 -->
<g id="edge40" class="edge">
<title>Node23&#45;&gt;Node18</title>
<path fill="none" stroke="midnightblue" d="M974.77,-246.4C964.43,-236.06 950.4,-222.02 939.68,-211.31"/>
<polygon fill="midnightblue" stroke="midnightblue" points="942.11,-208.79 932.57,-204.19 937.16,-213.74 942.11,-208.79"/>
</g>
<!-- Node24 -->
<g id="node24" class="node">
<title>Node24</title>
<g id="a_node24"><a xlink:href="lbfgs-stepsize_8hpp.html" target="_top" xlink:title=" ">
<polygon fill="white" stroke="black" points="1246.37,-179.5 1246.37,-209.5 1365.37,-209.5 1365.37,-179.5 1246.37,-179.5"/>
<text text-anchor="start" x="1254.37" y="-197.5" font-family="Helvetica,sans-Serif" font-size="10.00">panoc&#45;alm/inner/decl</text>
<text text-anchor="middle" x="1305.87" y="-186.5" font-family="Helvetica,sans-Serif" font-size="10.00">/lbfgs&#45;stepsize.hpp</text>
</a>
</g>
</g>
<!-- Node23&#45;&gt;Node24 -->
<g id="edge24" class="edge">
<title>Node23&#45;&gt;Node24</title>
<path fill="none" stroke="midnightblue" d="M1048.5,-248.27C1101.88,-237.33 1180.17,-221.28 1236.37,-209.75"/>
<polygon fill="midnightblue" stroke="midnightblue" points="1237.15,-213.16 1246.25,-207.73 1235.75,-206.31 1237.15,-213.16"/>
</g>
<!-- Node25 -->
<g id="node25" class="node">
<title>Node25</title>
<g id="a_node25"><a xlink:href="panoc-stop-crit_8hpp.html" target="_top" xlink:title=" ">
<polygon fill="white" stroke="black" points="414.37,-179.5 414.37,-209.5 533.37,-209.5 533.37,-179.5 414.37,-179.5"/>
<text text-anchor="start" x="422.37" y="-197.5" font-family="Helvetica,sans-Serif" font-size="10.00">panoc&#45;alm/inner/decl</text>
<text text-anchor="middle" x="473.87" y="-186.5" font-family="Helvetica,sans-Serif" font-size="10.00">/panoc&#45;stop&#45;crit.hpp</text>
</a>
</g>
</g>
<!-- Node23&#45;&gt;Node25 -->
<g id="edge26" class="edge">
<title>Node23&#45;&gt;Node25</title>
<path fill="none" stroke="midnightblue" d="M929.11,-255.54C845.24,-248.18 687.67,-232.89 543.56,-210.01"/>
<polygon fill="midnightblue" stroke="midnightblue" points="544.08,-206.55 533.65,-208.42 542.97,-213.46 544.08,-206.55"/>
</g>
<!-- Node23&#45;&gt;Node27 -->
<g id="edge29" class="edge">
<title>Node23&#45;&gt;Node27</title>
<path fill="none" stroke="midnightblue" d="M1048.38,-254.46C1132.34,-245.78 1290.63,-228.88 1436.2,-210.06"/>
<polygon fill="midnightblue" stroke="midnightblue" points="1436.75,-213.52 1446.22,-208.76 1435.85,-206.58 1436.75,-213.52"/>
</g>
<!-- Node28 -->
<g id="node28" class="node">
<title>Node28</title>
<g id="a_node28"><a xlink:href="atomic__stop__signal_8hpp.html" target="_top" xlink:title=" ">
<polygon fill="white" stroke="black" points="759.87,-179.5 759.87,-209.5 883.87,-209.5 883.87,-179.5 759.87,-179.5"/>
<text text-anchor="start" x="767.87" y="-197.5" font-family="Helvetica,sans-Serif" font-size="10.00">panoc&#45;alm/util/atomic</text>
<text text-anchor="middle" x="821.87" y="-186.5" font-family="Helvetica,sans-Serif" font-size="10.00">_stop_signal.hpp</text>
</a>
</g>
</g>
<!-- Node23&#45;&gt;Node28 -->
<g id="edge31" class="edge">
<title>Node23&#45;&gt;Node28</title>
<path fill="none" stroke="midnightblue" d="M952.64,-246.4C927.69,-236.69 894.35,-223.71 867.58,-213.29"/>
<polygon fill="midnightblue" stroke="midnightblue" points="868.63,-209.94 858.04,-209.58 866.09,-216.47 868.63,-209.94"/>
</g>
<!-- Node29 -->
<g id="node29" class="node">
<title>Node29</title>
<g id="a_node29"><a xlink:title=" ">
<polygon fill="white" stroke="#bfbfbf" points="906.87,-118 906.87,-137 956.87,-137 956.87,-118 906.87,-118"/>
<text text-anchor="middle" x="931.87" y="-125" font-family="Helvetica,sans-Serif" font-size="10.00">atomic</text>
</a>
</g>
</g>
<!-- Node23&#45;&gt;Node29 -->
<g id="edge37" class="edge">
<title>Node23&#45;&gt;Node29</title>
<path fill="none" stroke="midnightblue" d="M1002.54,-246.4C1016.99,-229.69 1036.02,-201.33 1022.87,-179 1010.74,-158.39 986.83,-145.6 966.57,-138.04"/>
<polygon fill="midnightblue" stroke="midnightblue" points="967.57,-134.69 956.98,-134.74 965.29,-141.31 967.57,-134.69"/>
</g>
<!-- Node30 -->
<g id="node30" class="node">
<title>Node30</title>
<g id="a_node30"><a xlink:href="lipschitz_8hpp.html" target="_top" xlink:title=" ">
<polygon fill="white" stroke="black" points="1224.87,-118 1224.87,-137 1376.87,-137 1376.87,-118 1224.87,-118"/>
<text text-anchor="middle" x="1300.87" y="-125" font-family="Helvetica,sans-Serif" font-size="10.00">panoc&#45;alm/util/lipschitz.hpp</text>
</a>
</g>
</g>
<!-- Node23&#45;&gt;Node30 -->
<g id="edge33" class="edge">
<title>Node23&#45;&gt;Node30</title>
<path fill="none" stroke="midnightblue" d="M1048.42,-253.14C1091.56,-246.17 1150.41,-233.18 1197.87,-210 1217.77,-200.28 1219.51,-192.75 1236.87,-179 1252.02,-167.01 1269.21,-153.44 1281.96,-143.4"/>
<polygon fill="midnightblue" stroke="midnightblue" points="1284.3,-146 1289.99,-137.07 1279.97,-140.51 1284.3,-146"/>
</g>
<!-- Node31 -->
<g id="node31" class="node">
<title>Node31</title>
<g id="a_node31"><a xlink:title=" ">
<polygon fill="white" stroke="#bfbfbf" points="1383.87,-185 1383.87,-204 1427.87,-204 1427.87,-185 1383.87,-185"/>
<text text-anchor="middle" x="1405.87" y="-192" font-family="Helvetica,sans-Serif" font-size="10.00">limits</text>
</a>
</g>
</g>
<!-- Node23&#45;&gt;Node31 -->
<g id="edge39" class="edge">
<title>Node23&#45;&gt;Node31</title>
<path fill="none" stroke="midnightblue" d="M1048.67,-258.11C1125.33,-253.81 1261.72,-242 1373.87,-210 1375.81,-209.45 1377.78,-208.8 1379.74,-208.08"/>
<polygon fill="midnightblue" stroke="midnightblue" points="1381.38,-211.19 1389.28,-204.14 1378.71,-204.72 1381.38,-211.19"/>
</g>
<!-- Node25&#45;&gt;Node19 -->
<g id="edge28" class="edge">
<title>Node25&#45;&gt;Node19</title>
<path fill="none" stroke="midnightblue" d="M414.05,-180.86C410.95,-180.22 407.87,-179.6 404.87,-179 326.52,-163.3 234.89,-146.1 182.49,-136.37"/>
<polygon fill="midnightblue" stroke="midnightblue" points="183.02,-132.9 172.55,-134.52 181.74,-139.79 183.02,-132.9"/>
</g>
<!-- Node26 -->
<g id="node26" class="node">
<title>Node26</title>
<g id="a_node26"><a xlink:title=" ">
<polygon fill="white" stroke="#bfbfbf" points="445.37,-118 445.37,-137 502.37,-137 502.37,-118 445.37,-118"/>
<text text-anchor="middle" x="473.87" y="-125" font-family="Helvetica,sans-Serif" font-size="10.00">ostream</text>
</a>
</g>
</g>
<!-- Node25&#45;&gt;Node26 -->
<g id="edge27" class="edge">
<title>Node25&#45;&gt;Node26</title>
<path fill="none" stroke="midnightblue" d="M473.87,-179.4C473.87,-170.06 473.87,-157.71 473.87,-147.52"/>
<polygon fill="midnightblue" stroke="midnightblue" points="477.37,-147.19 473.87,-137.19 470.37,-147.19 477.37,-147.19"/>
</g>
<!-- Node27&#45;&gt;Node8 -->
<g id="edge30" class="edge">
<title>Node27&#45;&gt;Node8</title>
<path fill="none" stroke="midnightblue" d="M1528.36,-179.4C1523.92,-169.76 1517.99,-156.91 1513.2,-146.54"/>
<polygon fill="midnightblue" stroke="midnightblue" points="1516.25,-144.81 1508.89,-137.19 1509.9,-147.74 1516.25,-144.81"/>
</g>
<!-- Node28&#45;&gt;Node29 -->
<g id="edge32" class="edge">
<title>Node28&#45;&gt;Node29</title>
<path fill="none" stroke="midnightblue" d="M845.74,-179.4C864.44,-168.34 890.31,-153.06 908.8,-142.13"/>
<polygon fill="midnightblue" stroke="midnightblue" points="910.65,-145.11 917.48,-137.01 907.09,-139.08 910.65,-145.11"/>
</g>
<!-- Node30&#45;&gt;Node9 -->
<g id="edge34" class="edge">
<title>Node30&#45;&gt;Node9</title>
<path fill="none" stroke="midnightblue" d="M1330.1,-117.98C1366.28,-107.42 1427.95,-89.43 1467.53,-77.89"/>
<polygon fill="midnightblue" stroke="midnightblue" points="1468.71,-81.19 1477.33,-75.03 1466.75,-74.47 1468.71,-81.19"/>
</g>
<!-- Node32&#45;&gt;Node7 -->
<g id="edge44" class="edge">
<title>Node32&#45;&gt;Node7</title>
<path fill="none" stroke="midnightblue" d="M428.67,-246.48C475.39,-234.52 541.62,-217.57 584.66,-206.56"/>
<polygon fill="midnightblue" stroke="midnightblue" points="585.72,-209.9 594.54,-204.03 583.99,-203.12 585.72,-209.9"/>
</g>
<!-- Node32&#45;&gt;Node15 -->
<g id="edge45" class="edge">
<title>Node32&#45;&gt;Node15</title>
<path fill="none" stroke="midnightblue" d="M360.2,-246.4C350.28,-236.16 336.84,-222.3 326.5,-211.62"/>
<polygon fill="midnightblue" stroke="midnightblue" points="328.77,-208.94 319.3,-204.19 323.75,-213.81 328.77,-208.94"/>
</g>
<!-- Node32&#45;&gt;Node19 -->
<g id="edge46" class="edge">
<title>Node32&#45;&gt;Node19</title>
<path fill="none" stroke="midnightblue" d="M310.27,-248.05C280.08,-240.24 244.45,-228.11 215.87,-210 188.89,-192.9 165.1,-163.96 151.61,-145.56"/>
<polygon fill="midnightblue" stroke="midnightblue" points="154.34,-143.36 145.68,-137.25 148.64,-147.42 154.34,-143.36"/>
</g>
<!-- Node32&#45;&gt;Node25 -->
<g id="edge42" class="edge">
<title>Node32&#45;&gt;Node25</title>
<path fill="none" stroke="midnightblue" d="M395.57,-246.4C409.59,-237.28 428.04,-225.29 443.51,-215.24"/>
<polygon fill="midnightblue" stroke="midnightblue" points="445.74,-217.96 452.22,-209.58 441.92,-212.09 445.74,-217.96"/>
</g>
<!-- Node32&#45;&gt;Node28 -->
<g id="edge43" class="edge">
<title>Node32&#45;&gt;Node28</title>
<path fill="none" stroke="midnightblue" d="M437.58,-251.26C520.08,-239.29 663.47,-218.48 749.84,-205.95"/>
<polygon fill="midnightblue" stroke="midnightblue" points="750.43,-209.4 759.82,-204.5 749.42,-202.48 750.43,-209.4"/>
</g>
<!-- Node34&#45;&gt;Node14 -->
<g id="edge59" class="edge">
<title>Node34&#45;&gt;Node14</title>
<path fill="none" stroke="midnightblue" d="M731.3,-313.19C729.88,-277.99 726.23,-187.17 724.64,-147.51"/>
<polygon fill="midnightblue" stroke="midnightblue" points="728.13,-147.21 724.23,-137.36 721.13,-147.49 728.13,-147.21"/>
</g>
<!-- Node35 -->
<g id="node35" class="node">
<title>Node35</title>
<g id="a_node35"><a xlink:href="decl_2lbfgs_8hpp.html" target="_top" xlink:title=" ">
<polygon fill="white" stroke="black" points="1577.37,-246.5 1577.37,-276.5 1724.37,-276.5 1724.37,-246.5 1577.37,-246.5"/>
<text text-anchor="start" x="1585.37" y="-264.5" font-family="Helvetica,sans-Serif" font-size="10.00">panoc&#45;alm/inner/directions</text>
<text text-anchor="middle" x="1650.87" y="-253.5" font-family="Helvetica,sans-Serif" font-size="10.00">/decl/lbfgs.hpp</text>
</a>
</g>
</g>
<!-- Node34&#45;&gt;Node35 -->
<g id="edge54" class="edge">
<title>Node34&#45;&gt;Node35</title>
<path fill="none" stroke="midnightblue" d="M805.52,-322.29C974.43,-310.34 1388.8,-281.04 1567.08,-268.43"/>
<polygon fill="midnightblue" stroke="midnightblue" points="1567.46,-271.91 1577.19,-267.71 1566.97,-264.93 1567.46,-271.91"/>
</g>
<!-- Node35&#45;&gt;Node6 -->
<g id="edge57" class="edge">
<title>Node35&#45;&gt;Node6</title>
<path fill="none" stroke="midnightblue" d="M1657.51,-246.3C1664.29,-229.76 1672.8,-201.78 1664.87,-179 1661.23,-168.54 1654.43,-158.62 1647.45,-150.38"/>
<polygon fill="midnightblue" stroke="midnightblue" points="1649.83,-147.81 1640.52,-142.75 1644.65,-152.51 1649.83,-147.81"/>
</g>
<!-- Node35&#45;&gt;Node8 -->
<g id="edge55" class="edge">
<title>Node35&#45;&gt;Node8</title>
<path fill="none" stroke="midnightblue" d="M1651.55,-246.37C1651.64,-228.59 1649.14,-198.07 1632.87,-179 1631.21,-177.05 1574.22,-155.01 1536.86,-140.7"/>
<polygon fill="midnightblue" stroke="midnightblue" points="1537.95,-137.37 1527.36,-137.07 1535.45,-143.91 1537.95,-137.37"/>
</g>
<!-- Node35&#45;&gt;Node9 -->
<g id="edge56" class="edge">
<title>Node35&#45;&gt;Node9</title>
<path fill="none" stroke="midnightblue" d="M1664.78,-246.38C1690.86,-218.18 1741.58,-154 1707.87,-112 1687.54,-86.66 1595.44,-74.71 1542.55,-69.84"/>
<polygon fill="midnightblue" stroke="midnightblue" points="1542.79,-66.35 1532.52,-68.96 1542.18,-73.33 1542.79,-66.35"/>
</g>
<!-- Node35&#45;&gt;Node27 -->
<g id="edge58" class="edge">
<title>Node35&#45;&gt;Node27</title>
<path fill="none" stroke="midnightblue" d="M1625.7,-246.4C1609.13,-237.11 1587.23,-224.84 1569.09,-214.67"/>
<polygon fill="midnightblue" stroke="midnightblue" points="1570.43,-211.41 1559.99,-209.58 1567.01,-217.52 1570.43,-211.41"/>
</g>
</g>
</svg>
