<?xml version="1.0" encoding="UTF-8" standalone="no"?>
<!DOCTYPE svg PUBLIC "-//W3C//DTD SVG 1.1//EN"
 "http://www.w3.org/Graphics/SVG/1.1/DTD/svg11.dtd">
<!-- Generated by graphviz version 2.43.0 (0)
 -->
<!-- Title: second&#45;order&#45;panoc.hpp Pages: 1 -->
<svg width="1610pt" height="341pt"
 viewBox="0.00 0.00 1609.50 341.00" xmlns="http://www.w3.org/2000/svg" xmlns:xlink="http://www.w3.org/1999/xlink">
<g id="graph0" class="graph" transform="scale(1 1) rotate(0) translate(4 337)">
<title>second&#45;order&#45;panoc.hpp</title>
<polygon fill="white" stroke="transparent" points="-4,4 -4,-337 1605.5,-337 1605.5,4 -4,4"/>
<!-- Node1 -->
<g id="node1" class="node">
<title>Node1</title>
<g id="a_node1"><a xlink:title=" ">
<polygon fill="#bfbfbf" stroke="black" points="1223,-313.5 1223,-332.5 1357,-332.5 1357,-313.5 1223,-313.5"/>
<text text-anchor="middle" x="1290" y="-320.5" font-family="Helvetica,sans-Serif" font-size="10.00">second&#45;order&#45;panoc.hpp</text>
</a>
</g>
</g>
<!-- Node2 -->
<g id="node2" class="node">
<title>Node2</title>
<g id="a_node2"><a xlink:href="decl_2second-order-panoc_8hpp.html" target="_top" xlink:title=" ">
<polygon fill="white" stroke="black" points="375.5,-246.5 375.5,-276.5 512.5,-276.5 512.5,-246.5 375.5,-246.5"/>
<text text-anchor="start" x="383.5" y="-264.5" font-family="Helvetica,sans-Serif" font-size="10.00">panoc&#45;alm/inner/decl</text>
<text text-anchor="middle" x="444" y="-253.5" font-family="Helvetica,sans-Serif" font-size="10.00">/second&#45;order&#45;panoc.hpp</text>
</a>
</g>
</g>
<!-- Node1&#45;&gt;Node2 -->
<g id="edge1" class="edge">
<title>Node1&#45;&gt;Node2</title>
<path fill="none" stroke="midnightblue" d="M1222.91,-317.28C1068.35,-306.41 687.85,-279.65 522.66,-268.03"/>
<polygon fill="midnightblue" stroke="midnightblue" points="522.79,-264.53 512.57,-267.32 522.3,-271.52 522.79,-264.53"/>
</g>
<!-- Node7 -->
<g id="node7" class="node">
<title>Node7</title>
<g id="a_node7"><a xlink:title=" ">
<polygon fill="white" stroke="#bfbfbf" points="1218.5,-118 1218.5,-137 1283.5,-137 1283.5,-118 1218.5,-118"/>
<text text-anchor="middle" x="1251" y="-125" font-family="Helvetica,sans-Serif" font-size="10.00">stdexcept</text>
</a>
</g>
</g>
<!-- Node1&#45;&gt;Node7 -->
<g id="edge35" class="edge">
<title>Node1&#45;&gt;Node7</title>
<path fill="none" stroke="midnightblue" d="M1288.27,-313.44C1282.4,-284.29 1263.09,-188.47 1254.82,-147.43"/>
<polygon fill="midnightblue" stroke="midnightblue" points="1258.2,-146.52 1252.8,-137.41 1251.34,-147.9 1258.2,-146.52"/>
</g>
<!-- Node15 -->
<g id="node15" class="node">
<title>Node15</title>
<g id="a_node15"><a xlink:title=" ">
<polygon fill="white" stroke="#bfbfbf" points="1148,-118 1148,-137 1200,-137 1200,-118 1148,-118"/>
<text text-anchor="middle" x="1174" y="-125" font-family="Helvetica,sans-Serif" font-size="10.00">cassert</text>
</a>
</g>
</g>
<!-- Node1&#45;&gt;Node15 -->
<g id="edge31" class="edge">
<title>Node1&#45;&gt;Node15</title>
<path fill="none" stroke="midnightblue" d="M1284.87,-313.44C1267.2,-283.98 1208.72,-186.41 1184.57,-146.13"/>
<polygon fill="midnightblue" stroke="midnightblue" points="1187.48,-144.18 1179.34,-137.41 1181.48,-147.78 1187.48,-144.18"/>
</g>
<!-- Node24 -->
<g id="node24" class="node">
<title>Node24</title>
<g id="a_node24"><a xlink:href="panoc-helpers_8hpp.html" target="_top" xlink:title=" ">
<polygon fill="white" stroke="black" points="959.5,-246.5 959.5,-276.5 1086.5,-276.5 1086.5,-246.5 959.5,-246.5"/>
<text text-anchor="start" x="967.5" y="-264.5" font-family="Helvetica,sans-Serif" font-size="10.00">panoc&#45;alm/inner/detail</text>
<text text-anchor="middle" x="1023" y="-253.5" font-family="Helvetica,sans-Serif" font-size="10.00">/panoc&#45;helpers.hpp</text>
</a>
</g>
</g>
<!-- Node1&#45;&gt;Node24 -->
<g id="edge25" class="edge">
<title>Node1&#45;&gt;Node24</title>
<path fill="none" stroke="midnightblue" d="M1251.75,-313.48C1211.19,-304.44 1146.17,-289.95 1095.79,-278.72"/>
<polygon fill="midnightblue" stroke="midnightblue" points="1096.45,-275.28 1085.93,-276.52 1094.93,-282.11 1096.45,-275.28"/>
</g>
<!-- Node25 -->
<g id="node25" class="node">
<title>Node25</title>
<g id="a_node25"><a xlink:title=" ">
<polygon fill="white" stroke="#bfbfbf" points="1292.5,-252 1292.5,-271 1339.5,-271 1339.5,-252 1292.5,-252"/>
<text text-anchor="middle" x="1316" y="-259" font-family="Helvetica,sans-Serif" font-size="10.00">cmath</text>
</a>
</g>
</g>
<!-- Node1&#45;&gt;Node25 -->
<g id="edge32" class="edge">
<title>Node1&#45;&gt;Node25</title>
<path fill="none" stroke="midnightblue" d="M1293.73,-313.48C1297.47,-304.9 1303.36,-291.43 1308.14,-280.48"/>
<polygon fill="midnightblue" stroke="midnightblue" points="1311.48,-281.57 1312.28,-271.01 1305.07,-278.77 1311.48,-281.57"/>
</g>
<!-- Node26 -->
<g id="node26" class="node">
<title>Node26</title>
<g id="a_node26"><a xlink:title=" ">
<polygon fill="white" stroke="#bfbfbf" points="1358,-252 1358,-271 1414,-271 1414,-252 1358,-252"/>
<text text-anchor="middle" x="1386" y="-259" font-family="Helvetica,sans-Serif" font-size="10.00">iomanip</text>
</a>
</g>
</g>
<!-- Node1&#45;&gt;Node26 -->
<g id="edge33" class="edge">
<title>Node1&#45;&gt;Node26</title>
<path fill="none" stroke="midnightblue" d="M1303.75,-313.48C1319.37,-303.8 1345.06,-287.87 1363.58,-276.39"/>
<polygon fill="midnightblue" stroke="midnightblue" points="1365.62,-279.25 1372.27,-271.01 1361.93,-273.3 1365.62,-279.25"/>
</g>
<!-- Node27 -->
<g id="node27" class="node">
<title>Node27</title>
<g id="a_node27"><a xlink:title=" ">
<polygon fill="white" stroke="#bfbfbf" points="1432,-252 1432,-271 1492,-271 1492,-252 1432,-252"/>
<text text-anchor="middle" x="1462" y="-259" font-family="Helvetica,sans-Serif" font-size="10.00">iostream</text>
</a>
</g>
</g>
<!-- Node1&#45;&gt;Node27 -->
<g id="edge34" class="edge">
<title>Node1&#45;&gt;Node27</title>
<path fill="none" stroke="midnightblue" d="M1316.07,-313.43C1342.95,-304.54 1386.02,-290.13 1423,-277 1425.24,-276.2 1427.55,-275.37 1429.87,-274.53"/>
<polygon fill="midnightblue" stroke="midnightblue" points="1431.18,-277.78 1439.36,-271.05 1428.76,-271.21 1431.18,-277.78"/>
</g>
<!-- Node28 -->
<g id="node28" class="node">
<title>Node28</title>
<g id="a_node28"><a xlink:title=" ">
<polygon fill="white" stroke="#bfbfbf" points="1510.5,-252 1510.5,-271 1601.5,-271 1601.5,-252 1510.5,-252"/>
<text text-anchor="middle" x="1556" y="-259" font-family="Helvetica,sans-Serif" font-size="10.00">Eigen/Cholesky</text>
</a>
</g>
</g>
<!-- Node1&#45;&gt;Node28 -->
<g id="edge36" class="edge">
<title>Node1&#45;&gt;Node28</title>
<path fill="none" stroke="midnightblue" d="M1332.97,-313.46C1375.7,-304.82 1443.07,-290.81 1501,-277 1505.44,-275.94 1510.08,-274.79 1514.68,-273.62"/>
<polygon fill="midnightblue" stroke="midnightblue" points="1515.85,-276.93 1524.65,-271.04 1514.1,-270.16 1515.85,-276.93"/>
</g>
<!-- Node3 -->
<g id="node3" class="node">
<title>Node3</title>
<g id="a_node3"><a xlink:href="panoc-fwd_8hpp.html" target="_top" xlink:title=" ">
<polygon fill="white" stroke="black" points="62.5,-179.5 62.5,-209.5 181.5,-209.5 181.5,-179.5 62.5,-179.5"/>
<text text-anchor="start" x="70.5" y="-197.5" font-family="Helvetica,sans-Serif" font-size="10.00">panoc&#45;alm/inner/decl</text>
<text text-anchor="middle" x="122" y="-186.5" font-family="Helvetica,sans-Serif" font-size="10.00">/panoc&#45;fwd.hpp</text>
</a>
</g>
</g>
<!-- Node2&#45;&gt;Node3 -->
<g id="edge2" class="edge">
<title>Node2&#45;&gt;Node3</title>
<path fill="none" stroke="midnightblue" d="M375.32,-246.64C321.15,-235.7 245.94,-220.52 191.55,-209.54"/>
<polygon fill="midnightblue" stroke="midnightblue" points="192.14,-206.09 181.65,-207.54 190.76,-212.95 192.14,-206.09"/>
</g>
<!-- Node5 -->
<g id="node5" class="node">
<title>Node5</title>
<g id="a_node5"><a xlink:href="panoc-stop-crit_8hpp.html" target="_top" xlink:title=" ">
<polygon fill="white" stroke="black" points="1040.5,-179.5 1040.5,-209.5 1159.5,-209.5 1159.5,-179.5 1040.5,-179.5"/>
<text text-anchor="start" x="1048.5" y="-197.5" font-family="Helvetica,sans-Serif" font-size="10.00">panoc&#45;alm/inner/decl</text>
<text text-anchor="middle" x="1100" y="-186.5" font-family="Helvetica,sans-Serif" font-size="10.00">/panoc&#45;stop&#45;crit.hpp</text>
</a>
</g>
</g>
<!-- Node2&#45;&gt;Node5 -->
<g id="edge4" class="edge">
<title>Node2&#45;&gt;Node5</title>
<path fill="none" stroke="midnightblue" d="M512.55,-257.3C620.54,-251.68 837,-237.98 1030.19,-209.99"/>
<polygon fill="midnightblue" stroke="midnightblue" points="1030.85,-213.43 1040.24,-208.52 1029.84,-206.51 1030.85,-213.43"/>
</g>
<!-- Node8 -->
<g id="node8" class="node">
<title>Node8</title>
<g id="a_node8"><a xlink:href="atomic__stop__signal_8hpp.html" target="_top" xlink:title=" ">
<polygon fill="white" stroke="black" points="538,-179.5 538,-209.5 662,-209.5 662,-179.5 538,-179.5"/>
<text text-anchor="start" x="546" y="-197.5" font-family="Helvetica,sans-Serif" font-size="10.00">panoc&#45;alm/util/atomic</text>
<text text-anchor="middle" x="600" y="-186.5" font-family="Helvetica,sans-Serif" font-size="10.00">_stop_signal.hpp</text>
</a>
</g>
</g>
<!-- Node2&#45;&gt;Node8 -->
<g id="edge7" class="edge">
<title>Node2&#45;&gt;Node8</title>
<path fill="none" stroke="midnightblue" d="M477.85,-246.4C501.05,-236.73 532.03,-223.82 556.98,-213.43"/>
<polygon fill="midnightblue" stroke="midnightblue" points="558.33,-216.65 566.22,-209.58 555.64,-210.19 558.33,-216.65"/>
</g>
<!-- Node9 -->
<g id="node9" class="node">
<title>Node9</title>
<g id="a_node9"><a xlink:title=" ">
<polygon fill="white" stroke="#bfbfbf" points="524,-118 524,-137 574,-137 574,-118 524,-118"/>
<text text-anchor="middle" x="549" y="-125" font-family="Helvetica,sans-Serif" font-size="10.00">atomic</text>
</a>
</g>
</g>
<!-- Node2&#45;&gt;Node9 -->
<g id="edge21" class="edge">
<title>Node2&#45;&gt;Node9</title>
<path fill="none" stroke="midnightblue" d="M375.34,-256.79C296.78,-250.04 184.39,-231.2 229,-179 265.31,-136.51 438.08,-129.56 513.57,-128.57"/>
<polygon fill="midnightblue" stroke="midnightblue" points="514.01,-132.07 523.97,-128.47 513.94,-125.07 514.01,-132.07"/>
</g>
<!-- Node10 -->
<g id="node10" class="node">
<title>Node10</title>
<g id="a_node10"><a xlink:href="lipschitz_8hpp.html" target="_top" xlink:title=" ">
<polygon fill="white" stroke="black" points="368,-185 368,-204 520,-204 520,-185 368,-185"/>
<text text-anchor="middle" x="444" y="-192" font-family="Helvetica,sans-Serif" font-size="10.00">panoc&#45;alm/util/lipschitz.hpp</text>
</a>
</g>
</g>
<!-- Node2&#45;&gt;Node10 -->
<g id="edge9" class="edge">
<title>Node2&#45;&gt;Node10</title>
<path fill="none" stroke="midnightblue" d="M444,-246.4C444,-237.06 444,-224.71 444,-214.52"/>
<polygon fill="midnightblue" stroke="midnightblue" points="447.5,-214.19 444,-204.19 440.5,-214.19 447.5,-214.19"/>
</g>
<!-- Node13 -->
<g id="node13" class="node">
<title>Node13</title>
<g id="a_node13"><a xlink:href="include_2panoc-alm_2util_2problem_8hpp.html" target="_top" xlink:title=" ">
<polygon fill="white" stroke="black" points="870,-185 870,-204 1022,-204 1022,-185 870,-185"/>
<text text-anchor="middle" x="946" y="-192" font-family="Helvetica,sans-Serif" font-size="10.00">panoc&#45;alm/util/problem.hpp</text>
</a>
</g>
</g>
<!-- Node2&#45;&gt;Node13 -->
<g id="edge12" class="edge">
<title>Node2&#45;&gt;Node13</title>
<path fill="none" stroke="midnightblue" d="M512.76,-253.21C595.53,-244.19 738.68,-227.83 861,-210 869.83,-208.71 879.15,-207.24 888.26,-205.74"/>
<polygon fill="midnightblue" stroke="midnightblue" points="889.13,-209.14 898.41,-204.04 887.97,-202.24 889.13,-209.14"/>
</g>
<!-- Node19 -->
<g id="node19" class="node">
<title>Node19</title>
<g id="a_node19"><a xlink:href="solverstatus_8hpp.html" target="_top" xlink:title=" ">
<polygon fill="white" stroke="black" points="680.5,-185 680.5,-204 851.5,-204 851.5,-185 680.5,-185"/>
<text text-anchor="middle" x="766" y="-192" font-family="Helvetica,sans-Serif" font-size="10.00">panoc&#45;alm/util/solverstatus.hpp</text>
</a>
</g>
</g>
<!-- Node2&#45;&gt;Node19 -->
<g id="edge19" class="edge">
<title>Node2&#45;&gt;Node19</title>
<path fill="none" stroke="midnightblue" d="M512.68,-246.64C572.84,-234.49 658.98,-217.1 713.7,-206.06"/>
<polygon fill="midnightblue" stroke="midnightblue" points="714.43,-209.48 723.54,-204.07 713.04,-202.62 714.43,-209.48"/>
</g>
<!-- Node21 -->
<g id="node21" class="node">
<title>Node21</title>
<g id="a_node21"><a xlink:title=" ">
<polygon fill="white" stroke="#bfbfbf" points="238,-185 238,-204 288,-204 288,-185 238,-185"/>
<text text-anchor="middle" x="263" y="-192" font-family="Helvetica,sans-Serif" font-size="10.00">chrono</text>
</a>
</g>
</g>
<!-- Node2&#45;&gt;Node21 -->
<g id="edge22" class="edge">
<title>Node2&#45;&gt;Node21</title>
<path fill="none" stroke="midnightblue" d="M400.29,-246.4C370.89,-236.7 331.38,-223.22 297,-210 295.35,-209.37 293.67,-208.7 291.97,-208.02"/>
<polygon fill="midnightblue" stroke="midnightblue" points="292.9,-204.62 282.32,-204.02 290.22,-211.08 292.9,-204.62"/>
</g>
<!-- Node22 -->
<g id="node22" class="node">
<title>Node22</title>
<g id="a_node22"><a xlink:title=" ">
<polygon fill="white" stroke="#bfbfbf" points="306,-185 306,-204 350,-204 350,-185 306,-185"/>
<text text-anchor="middle" x="328" y="-192" font-family="Helvetica,sans-Serif" font-size="10.00">limits</text>
</a>
</g>
</g>
<!-- Node2&#45;&gt;Node22 -->
<g id="edge23" class="edge">
<title>Node2&#45;&gt;Node22</title>
<path fill="none" stroke="midnightblue" d="M418.83,-246.4C399.02,-235.29 371.58,-219.92 352.06,-208.98"/>
<polygon fill="midnightblue" stroke="midnightblue" points="353.62,-205.84 343.18,-204.01 350.19,-211.95 353.62,-205.84"/>
</g>
<!-- Node23 -->
<g id="node23" class="node">
<title>Node23</title>
<g id="a_node23"><a xlink:title=" ">
<polygon fill="white" stroke="#bfbfbf" points="0,-185 0,-204 44,-204 44,-185 0,-185"/>
<text text-anchor="middle" x="22" y="-192" font-family="Helvetica,sans-Serif" font-size="10.00">string</text>
</a>
</g>
</g>
<!-- Node2&#45;&gt;Node23 -->
<g id="edge24" class="edge">
<title>Node2&#45;&gt;Node23</title>
<path fill="none" stroke="midnightblue" d="M375.24,-258.02C296.11,-253.72 162.92,-241.96 53,-210 51.07,-209.44 49.12,-208.78 47.17,-208.04"/>
<polygon fill="midnightblue" stroke="midnightblue" points="48.29,-204.72 37.72,-204 45.54,-211.15 48.29,-204.72"/>
</g>
<!-- Node4 -->
<g id="node4" class="node">
<title>Node4</title>
<g id="a_node4"><a xlink:href="lbfgs-fwd_8hpp.html" target="_top" xlink:title=" ">
<polygon fill="white" stroke="black" points="48.5,-112.5 48.5,-142.5 195.5,-142.5 195.5,-112.5 48.5,-112.5"/>
<text text-anchor="start" x="56.5" y="-130.5" font-family="Helvetica,sans-Serif" font-size="10.00">panoc&#45;alm/inner/directions</text>
<text text-anchor="middle" x="122" y="-119.5" font-family="Helvetica,sans-Serif" font-size="10.00">/decl/lbfgs&#45;fwd.hpp</text>
</a>
</g>
</g>
<!-- Node3&#45;&gt;Node4 -->
<g id="edge3" class="edge">
<title>Node3&#45;&gt;Node4</title>
<path fill="none" stroke="midnightblue" d="M122,-179.4C122,-171.64 122,-161.81 122,-152.86"/>
<polygon fill="midnightblue" stroke="midnightblue" points="125.5,-152.58 122,-142.58 118.5,-152.58 125.5,-152.58"/>
</g>
<!-- Node6 -->
<g id="node6" class="node">
<title>Node6</title>
<g id="a_node6"><a xlink:title=" ">
<polygon fill="white" stroke="#bfbfbf" points="1072.5,-118 1072.5,-137 1129.5,-137 1129.5,-118 1072.5,-118"/>
<text text-anchor="middle" x="1101" y="-125" font-family="Helvetica,sans-Serif" font-size="10.00">ostream</text>
</a>
</g>
</g>
<!-- Node5&#45;&gt;Node6 -->
<g id="edge5" class="edge">
<title>Node5&#45;&gt;Node6</title>
<path fill="none" stroke="midnightblue" d="M1100.22,-179.4C1100.36,-170.06 1100.55,-157.71 1100.71,-147.52"/>
<polygon fill="midnightblue" stroke="midnightblue" points="1104.21,-147.25 1100.87,-137.19 1097.21,-147.14 1104.21,-147.25"/>
</g>
<!-- Node5&#45;&gt;Node7 -->
<g id="edge6" class="edge">
<title>Node5&#45;&gt;Node7</title>
<path fill="none" stroke="midnightblue" d="M1132.76,-179.4C1159.26,-167.99 1196.22,-152.08 1221.73,-141.1"/>
<polygon fill="midnightblue" stroke="midnightblue" points="1223.44,-144.18 1231.24,-137.01 1220.67,-137.75 1223.44,-144.18"/>
</g>
<!-- Node8&#45;&gt;Node9 -->
<g id="edge8" class="edge">
<title>Node8&#45;&gt;Node9</title>
<path fill="none" stroke="midnightblue" d="M588.93,-179.4C581.06,-169.36 570.45,-155.84 562.15,-145.25"/>
<polygon fill="midnightblue" stroke="midnightblue" points="564.75,-142.9 555.82,-137.19 559.24,-147.22 564.75,-142.9"/>
</g>
<!-- Node11 -->
<g id="node11" class="node">
<title>Node11</title>
<g id="a_node11"><a xlink:href="vec_8hpp.html" target="_top" xlink:title=" ">
<polygon fill="white" stroke="black" points="573,-56.5 573,-75.5 701,-75.5 701,-56.5 573,-56.5"/>
<text text-anchor="middle" x="637" y="-63.5" font-family="Helvetica,sans-Serif" font-size="10.00">panoc&#45;alm/util/vec.hpp</text>
</a>
</g>
</g>
<!-- Node10&#45;&gt;Node11 -->
<g id="edge10" class="edge">
<title>Node10&#45;&gt;Node11</title>
<path fill="none" stroke="midnightblue" d="M449.53,-184.6C460.23,-168.07 485.34,-132.46 515,-112 537.52,-96.47 566.06,-85.56 589.87,-78.37"/>
<polygon fill="midnightblue" stroke="midnightblue" points="591.12,-81.66 599.76,-75.52 589.18,-74.93 591.12,-81.66"/>
</g>
<!-- Node12 -->
<g id="node12" class="node">
<title>Node12</title>
<g id="a_node12"><a xlink:title=" ">
<polygon fill="white" stroke="#bfbfbf" points="602.5,-0.5 602.5,-19.5 671.5,-19.5 671.5,-0.5 602.5,-0.5"/>
<text text-anchor="middle" x="637" y="-7.5" font-family="Helvetica,sans-Serif" font-size="10.00">Eigen/Core</text>
</a>
</g>
</g>
<!-- Node11&#45;&gt;Node12 -->
<g id="edge11" class="edge">
<title>Node11&#45;&gt;Node12</title>
<path fill="none" stroke="midnightblue" d="M637,-56.08C637,-49.01 637,-38.86 637,-29.99"/>
<polygon fill="midnightblue" stroke="midnightblue" points="640.5,-29.75 637,-19.75 633.5,-29.75 640.5,-29.75"/>
</g>
<!-- Node14 -->
<g id="node14" class="node">
<title>Node14</title>
<g id="a_node14"><a xlink:href="box_8hpp.html" target="_top" xlink:title=" ">
<polygon fill="white" stroke="black" points="751,-118 751,-137 807,-137 807,-118 751,-118"/>
<text text-anchor="middle" x="779" y="-125" font-family="Helvetica,sans-Serif" font-size="10.00">box.hpp</text>
</a>
</g>
</g>
<!-- Node13&#45;&gt;Node14 -->
<g id="edge13" class="edge">
<title>Node13&#45;&gt;Node14</title>
<path fill="none" stroke="midnightblue" d="M923.82,-184.87C894.8,-173.57 843.73,-153.7 810.65,-140.82"/>
<polygon fill="midnightblue" stroke="midnightblue" points="811.59,-137.43 801,-137.06 809.05,-143.95 811.59,-137.43"/>
</g>
<!-- Node13&#45;&gt;Node15 -->
<g id="edge15" class="edge">
<title>Node13&#45;&gt;Node15</title>
<path fill="none" stroke="midnightblue" d="M984.91,-184.97C1024.21,-175.97 1086.47,-160.66 1139,-143 1140.92,-142.36 1142.88,-141.66 1144.85,-140.93"/>
<polygon fill="midnightblue" stroke="midnightblue" points="1146.53,-144.02 1154.56,-137.11 1143.97,-137.51 1146.53,-144.02"/>
</g>
<!-- Node16 -->
<g id="node16" class="node">
<title>Node16</title>
<g id="a_node16"><a xlink:title=" ">
<polygon fill="white" stroke="#bfbfbf" points="912.5,-118 912.5,-137 977.5,-137 977.5,-118 912.5,-118"/>
<text text-anchor="middle" x="945" y="-125" font-family="Helvetica,sans-Serif" font-size="10.00">functional</text>
</a>
</g>
</g>
<!-- Node13&#45;&gt;Node16 -->
<g id="edge16" class="edge">
<title>Node13&#45;&gt;Node16</title>
<path fill="none" stroke="midnightblue" d="M945.87,-184.73C945.72,-175.18 945.48,-159.62 945.29,-147.28"/>
<polygon fill="midnightblue" stroke="midnightblue" points="948.79,-147.07 945.13,-137.13 941.79,-147.18 948.79,-147.07"/>
</g>
<!-- Node17 -->
<g id="node17" class="node">
<title>Node17</title>
<g id="a_node17"><a xlink:title=" ">
<polygon fill="white" stroke="#bfbfbf" points="996,-118 996,-137 1054,-137 1054,-118 996,-118"/>
<text text-anchor="middle" x="1025" y="-125" font-family="Helvetica,sans-Serif" font-size="10.00">memory</text>
</a>
</g>
</g>
<!-- Node13&#45;&gt;Node17 -->
<g id="edge17" class="edge">
<title>Node13&#45;&gt;Node17</title>
<path fill="none" stroke="midnightblue" d="M956.65,-184.73C969.45,-174.21 991.12,-156.38 1006.63,-143.62"/>
<polygon fill="midnightblue" stroke="midnightblue" points="1009.02,-146.18 1014.51,-137.13 1004.57,-140.78 1009.02,-146.18"/>
</g>
<!-- Node18 -->
<g id="node18" class="node">
<title>Node18</title>
<g id="a_node18"><a xlink:title=" ">
<polygon fill="white" stroke="#bfbfbf" points="825.5,-118 825.5,-137 894.5,-137 894.5,-118 825.5,-118"/>
<text text-anchor="middle" x="860" y="-125" font-family="Helvetica,sans-Serif" font-size="10.00">type_traits</text>
</a>
</g>
</g>
<!-- Node13&#45;&gt;Node18 -->
<g id="edge18" class="edge">
<title>Node13&#45;&gt;Node18</title>
<path fill="none" stroke="midnightblue" d="M934.4,-184.73C920.35,-174.11 896.45,-156.05 879.53,-143.26"/>
<polygon fill="midnightblue" stroke="midnightblue" points="881.5,-140.36 871.41,-137.13 877.28,-145.95 881.5,-140.36"/>
</g>
<!-- Node14&#45;&gt;Node11 -->
<g id="edge14" class="edge">
<title>Node14&#45;&gt;Node11</title>
<path fill="none" stroke="midnightblue" d="M758.65,-117.98C734.61,-107.9 694.4,-91.05 666.84,-79.5"/>
<polygon fill="midnightblue" stroke="midnightblue" points="667.88,-76.15 657.31,-75.51 665.18,-82.6 667.88,-76.15"/>
</g>
<!-- Node20 -->
<g id="node20" class="node">
<title>Node20</title>
<g id="a_node20"><a xlink:title=" ">
<polygon fill="white" stroke="#bfbfbf" points="685,-118 685,-137 733,-137 733,-118 685,-118"/>
<text text-anchor="middle" x="709" y="-125" font-family="Helvetica,sans-Serif" font-size="10.00">iosfwd</text>
</a>
</g>
</g>
<!-- Node19&#45;&gt;Node20 -->
<g id="edge20" class="edge">
<title>Node19&#45;&gt;Node20</title>
<path fill="none" stroke="midnightblue" d="M758.31,-184.73C749.34,-174.5 734.31,-157.36 723.2,-144.69"/>
<polygon fill="midnightblue" stroke="midnightblue" points="725.79,-142.34 716.57,-137.13 720.53,-146.95 725.79,-142.34"/>
</g>
<!-- Node24&#45;&gt;Node5 -->
<g id="edge26" class="edge">
<title>Node24&#45;&gt;Node5</title>
<path fill="none" stroke="midnightblue" d="M1039.71,-246.4C1050.2,-237.54 1063.92,-225.96 1075.61,-216.09"/>
<polygon fill="midnightblue" stroke="midnightblue" points="1077.94,-218.7 1083.32,-209.58 1073.43,-213.35 1077.94,-218.7"/>
</g>
<!-- Node24&#45;&gt;Node7 -->
<g id="edge30" class="edge">
<title>Node24&#45;&gt;Node7</title>
<path fill="none" stroke="midnightblue" d="M1082.55,-246.48C1110.15,-238.38 1142.6,-226.46 1169,-210 1197.1,-192.47 1223.04,-163.68 1237.93,-145.43"/>
<polygon fill="midnightblue" stroke="midnightblue" points="1240.83,-147.41 1244.32,-137.41 1235.35,-143.05 1240.83,-147.41"/>
</g>
<!-- Node24&#45;&gt;Node8 -->
<g id="edge27" class="edge">
<title>Node24&#45;&gt;Node8</title>
<path fill="none" stroke="midnightblue" d="M959.42,-252.44C888.98,-243.25 772.1,-227.27 672,-210 671.9,-209.98 671.8,-209.96 671.69,-209.95"/>
<polygon fill="midnightblue" stroke="midnightblue" points="672.47,-206.53 662.01,-208.22 671.24,-213.42 672.47,-206.53"/>
</g>
<!-- Node24&#45;&gt;Node13 -->
<g id="edge28" class="edge">
<title>Node24&#45;&gt;Node13</title>
<path fill="none" stroke="midnightblue" d="M1006.29,-246.4C993.81,-235.86 976.77,-221.48 963.99,-210.69"/>
<polygon fill="midnightblue" stroke="midnightblue" points="966.2,-207.97 956.3,-204.19 961.68,-213.32 966.2,-207.97"/>
</g>
<!-- Node24&#45;&gt;Node19 -->
<g id="edge29" class="edge">
<title>Node24&#45;&gt;Node19</title>
<path fill="none" stroke="midnightblue" d="M967.55,-246.48C920.18,-234.5 852.99,-217.5 809.45,-206.49"/>
<polygon fill="midnightblue" stroke="midnightblue" points="810.27,-203.09 799.72,-204.03 808.56,-209.87 810.27,-203.09"/>
</g>
</g>
</svg>
