<?xml version="1.0" encoding="UTF-8" standalone="no"?>
<!DOCTYPE svg PUBLIC "-//W3C//DTD SVG 1.1//EN"
 "http://www.w3.org/Graphics/SVG/1.1/DTD/svg11.dtd">
<!-- Generated by graphviz version 2.43.0 (0)
 -->
<!-- Title: solverstatus.hpp Pages: 1 -->
<svg width="1571pt" height="308pt"
 viewBox="0.00 0.00 1570.67 308.00" xmlns="http://www.w3.org/2000/svg" xmlns:xlink="http://www.w3.org/1999/xlink">
<g id="graph0" class="graph" transform="scale(1 1) rotate(0) translate(4 304)">
<title>solverstatus.hpp</title>
<polygon fill="white" stroke="transparent" points="-4,4 -4,-304 1566.67,-304 1566.67,4 -4,4"/>
<!-- Node1 -->
<g id="node1" class="node">
<title>Node1</title>
<g id="a_node1"><a xlink:title=" ">
<polygon fill="#bfbfbf" stroke="black" points="787.17,-280.5 787.17,-299.5 885.17,-299.5 885.17,-280.5 787.17,-280.5"/>
<text text-anchor="middle" x="836.17" y="-287.5" font-family="Helvetica,sans-Serif" font-size="10.00">solverstatus.hpp</text>
</a>
</g>
</g>
<!-- Node2 -->
<g id="node2" class="node">
<title>Node2</title>
<g id="a_node2"><a xlink:href="alm_8hpp.html" target="_top" xlink:title=" ">
<polygon fill="white" stroke="black" points="49.17,-112.5 49.17,-131.5 105.17,-131.5 105.17,-112.5 49.17,-112.5"/>
<text text-anchor="middle" x="77.17" y="-119.5" font-family="Helvetica,sans-Serif" font-size="10.00">alm.hpp</text>
</a>
</g>
</g>
<!-- Node1&#45;&gt;Node2 -->
<g id="edge1" class="edge">
<title>Node1&#45;&gt;Node2</title>
<path fill="none" stroke="midnightblue" d="M776.74,-286.98C638.09,-281.92 296.46,-267.44 184.17,-244 111.65,-228.86 69.86,-248.55 27.17,-188 12.57,-167.29 42.45,-143.95 62.01,-131.66"/>
<polygon fill="midnightblue" stroke="midnightblue" points="776.65,-290.48 786.77,-287.34 776.9,-283.48 776.65,-290.48"/>
</g>
<!-- Node3 -->
<g id="node3" class="node">
<title>Node3</title>
<g id="a_node3"><a xlink:href="polymorphic-inner-solver_8hpp.html" target="_top" xlink:title=" ">
<polygon fill="white" stroke="black" points="377.17,-56.5 377.17,-75.5 537.17,-75.5 537.17,-56.5 377.17,-56.5"/>
<text text-anchor="middle" x="457.17" y="-63.5" font-family="Helvetica,sans-Serif" font-size="10.00">polymorphic&#45;inner&#45;solver.hpp</text>
</a>
</g>
</g>
<!-- Node1&#45;&gt;Node3 -->
<g id="edge58" class="edge">
<title>Node1&#45;&gt;Node3</title>
<path fill="none" stroke="midnightblue" d="M776.99,-280.38C712.97,-268.6 610.49,-242.39 539.17,-188 536.47,-185.94 480.98,-102.77 462.85,-75.54"/>
<polygon fill="midnightblue" stroke="midnightblue" points="776.47,-283.84 786.93,-282.14 777.7,-276.95 776.47,-283.84"/>
</g>
<!-- Node4 -->
<g id="node4" class="node">
<title>Node4</title>
<g id="a_node4"><a xlink:href="panocpy_8cpp.html" target="_top" xlink:title="This file defines all Python bindings.">
<polygon fill="white" stroke="black" points="564.67,-0.5 564.67,-19.5 641.67,-19.5 641.67,-0.5 564.67,-0.5"/>
<text text-anchor="middle" x="603.17" y="-7.5" font-family="Helvetica,sans-Serif" font-size="10.00">panocpy.cpp</text>
</a>
</g>
</g>
<!-- Node1&#45;&gt;Node4 -->
<g id="edge57" class="edge">
<title>Node1&#45;&gt;Node4</title>
<path fill="none" stroke="midnightblue" d="M895.44,-288.86C982.78,-287.36 1150.61,-279.56 1288.17,-244 1358.12,-225.92 1437.17,-251.25 1437.17,-179 1437.17,-179 1437.17,-179 1437.17,-121 1437.17,-39.67 805.75,-16.59 641.72,-11.97"/>
<polygon fill="midnightblue" stroke="midnightblue" points="895.14,-285.36 885.19,-289.01 895.24,-292.36 895.14,-285.36"/>
</g>
<!-- Node7 -->
<g id="node7" class="node">
<title>Node7</title>
<g id="a_node7"><a xlink:href="decl_2alm_8hpp.html" target="_top" xlink:title=" ">
<polygon fill="white" stroke="black" points="193.17,-224.5 193.17,-243.5 249.17,-243.5 249.17,-224.5 193.17,-224.5"/>
<text text-anchor="middle" x="221.17" y="-231.5" font-family="Helvetica,sans-Serif" font-size="10.00">alm.hpp</text>
</a>
</g>
</g>
<!-- Node1&#45;&gt;Node7 -->
<g id="edge6" class="edge">
<title>Node1&#45;&gt;Node7</title>
<path fill="none" stroke="midnightblue" d="M777.02,-283.81C647.57,-272.44 343.26,-245.72 249.3,-237.47"/>
<polygon fill="midnightblue" stroke="midnightblue" points="776.87,-287.31 787.14,-284.69 777.49,-280.33 776.87,-287.31"/>
</g>
<!-- Node12 -->
<g id="node12" class="node">
<title>Node12</title>
<g id="a_node12"><a xlink:href="inner_2decl_2panoc_8hpp.html" target="_top" xlink:title=" ">
<polygon fill="white" stroke="black" points="348.67,-224.5 348.67,-243.5 415.67,-243.5 415.67,-224.5 348.67,-224.5"/>
<text text-anchor="middle" x="382.17" y="-231.5" font-family="Helvetica,sans-Serif" font-size="10.00">panoc.hpp</text>
</a>
</g>
</g>
<!-- Node1&#45;&gt;Node12 -->
<g id="edge14" class="edge">
<title>Node1&#45;&gt;Node12</title>
<path fill="none" stroke="midnightblue" d="M776.97,-281.96C680.42,-270.48 492.15,-248.08 415.67,-238.98"/>
<polygon fill="midnightblue" stroke="midnightblue" points="776.81,-285.46 787.15,-283.17 777.64,-278.51 776.81,-285.46"/>
</g>
<!-- Node17 -->
<g id="node17" class="node">
<title>Node17</title>
<g id="a_node17"><a xlink:href="decl_2second-order-panoc_8hpp.html" target="_top" xlink:title=" ">
<polygon fill="white" stroke="black" points="1109.17,-224.5 1109.17,-243.5 1243.17,-243.5 1243.17,-224.5 1109.17,-224.5"/>
<text text-anchor="middle" x="1176.17" y="-231.5" font-family="Helvetica,sans-Serif" font-size="10.00">second&#45;order&#45;panoc.hpp</text>
</a>
</g>
</g>
<!-- Node1&#45;&gt;Node17 -->
<g id="edge30" class="edge">
<title>Node1&#45;&gt;Node17</title>
<path fill="none" stroke="midnightblue" d="M895.2,-279.62C959.29,-269.45 1060.76,-253.33 1122.62,-243.5"/>
<polygon fill="midnightblue" stroke="midnightblue" points="894.57,-276.18 885.25,-281.21 895.67,-283.09 894.57,-276.18"/>
</g>
<!-- Node20 -->
<g id="node20" class="node">
<title>Node20</title>
<g id="a_node20"><a xlink:href="decl_2structured-panoc-lbfgs_8hpp.html" target="_top" xlink:title=" ">
<polygon fill="white" stroke="black" points="979.17,-168.5 979.17,-187.5 1127.17,-187.5 1127.17,-168.5 979.17,-168.5"/>
<text text-anchor="middle" x="1053.17" y="-175.5" font-family="Helvetica,sans-Serif" font-size="10.00">structured&#45;panoc&#45;lbfgs.hpp</text>
</a>
</g>
</g>
<!-- Node1&#45;&gt;Node20 -->
<g id="edge33" class="edge">
<title>Node1&#45;&gt;Node20</title>
<path fill="none" stroke="midnightblue" d="M867.36,-276.59C888.24,-268.02 916.19,-256.04 940.17,-244 976.98,-225.52 1018.57,-200.46 1039.53,-187.52"/>
<polygon fill="midnightblue" stroke="midnightblue" points="865.95,-273.39 858.01,-280.4 868.59,-279.87 865.95,-273.39"/>
</g>
<!-- Node23 -->
<g id="node23" class="node">
<title>Node23</title>
<g id="a_node23"><a xlink:href="panoc-helpers_8hpp.html" target="_top" xlink:title=" ">
<polygon fill="white" stroke="black" points="823.67,-224.5 823.67,-243.5 930.67,-243.5 930.67,-224.5 823.67,-224.5"/>
<text text-anchor="middle" x="877.17" y="-231.5" font-family="Helvetica,sans-Serif" font-size="10.00">panoc&#45;helpers.hpp</text>
</a>
</g>
</g>
<!-- Node1&#45;&gt;Node23 -->
<g id="edge39" class="edge">
<title>Node1&#45;&gt;Node23</title>
<path fill="none" stroke="midnightblue" d="M849.19,-271.86C856.29,-262.5 864.77,-251.33 870.53,-243.75"/>
<polygon fill="midnightblue" stroke="midnightblue" points="846.2,-270 842.94,-280.08 851.78,-274.24 846.2,-270"/>
</g>
<!-- Node25 -->
<g id="node25" class="node">
<title>Node25</title>
<g id="a_node25"><a xlink:href="guarded-aa-pga_8hpp.html" target="_top" xlink:title=" ">
<polygon fill="white" stroke="black" points="633.67,-168.5 633.67,-187.5 748.67,-187.5 748.67,-168.5 633.67,-168.5"/>
<text text-anchor="middle" x="691.17" y="-175.5" font-family="Helvetica,sans-Serif" font-size="10.00">guarded&#45;aa&#45;pga.hpp</text>
</a>
</g>
</g>
<!-- Node1&#45;&gt;Node25 -->
<g id="edge54" class="edge">
<title>Node1&#45;&gt;Node25</title>
<path fill="none" stroke="midnightblue" d="M816.55,-274.12C785.78,-250.77 727.12,-206.27 702.5,-187.59"/>
<polygon fill="midnightblue" stroke="midnightblue" points="814.71,-277.11 824.79,-280.37 818.94,-271.54 814.71,-277.11"/>
</g>
<!-- Node26 -->
<g id="node26" class="node">
<title>Node26</title>
<g id="a_node26"><a xlink:href="lbfgspp_8hpp.html" target="_top" xlink:title=" ">
<polygon fill="white" stroke="black" points="1335.17,-168.5 1335.17,-187.5 1409.17,-187.5 1409.17,-168.5 1335.17,-168.5"/>
<text text-anchor="middle" x="1372.17" y="-175.5" font-family="Helvetica,sans-Serif" font-size="10.00">lbfgspp.hpp</text>
</a>
</g>
</g>
<!-- Node1&#45;&gt;Node26 -->
<g id="edge55" class="edge">
<title>Node1&#45;&gt;Node26</title>
<path fill="none" stroke="midnightblue" d="M895.59,-289.72C977.66,-289.12 1129.46,-282.24 1252.17,-244 1294.7,-230.75 1339.48,-201.9 1360.27,-187.52"/>
<polygon fill="midnightblue" stroke="midnightblue" points="895.44,-286.22 885.45,-289.76 895.47,-293.22 895.44,-286.22"/>
</g>
<!-- Node27 -->
<g id="node27" class="node">
<title>Node27</title>
<g id="a_node27"><a xlink:href="pga_8hpp.html" target="_top" xlink:title=" ">
<polygon fill="white" stroke="black" points="767.17,-168.5 767.17,-187.5 823.17,-187.5 823.17,-168.5 767.17,-168.5"/>
<text text-anchor="middle" x="795.17" y="-175.5" font-family="Helvetica,sans-Serif" font-size="10.00">pga.hpp</text>
</a>
</g>
</g>
<!-- Node1&#45;&gt;Node27 -->
<g id="edge56" class="edge">
<title>Node1&#45;&gt;Node27</title>
<path fill="none" stroke="midnightblue" d="M827.06,-270.97C823.13,-262.84 818.66,-253.05 815.17,-244 807.53,-224.17 800.75,-200.09 797.39,-187.54"/>
<polygon fill="midnightblue" stroke="midnightblue" points="824.05,-272.78 831.62,-280.19 830.33,-269.68 824.05,-272.78"/>
</g>
<!-- Node28 -->
<g id="node28" class="node">
<title>Node28</title>
<g id="a_node28"><a xlink:href="solverstatus_8cpp.html" target="_top" xlink:title=" ">
<polygon fill="white" stroke="black" points="1465.67,-224.5 1465.67,-243.5 1562.67,-243.5 1562.67,-224.5 1465.67,-224.5"/>
<text text-anchor="middle" x="1514.17" y="-231.5" font-family="Helvetica,sans-Serif" font-size="10.00">solverstatus.cpp</text>
</a>
</g>
</g>
<!-- Node1&#45;&gt;Node28 -->
<g id="edge59" class="edge">
<title>Node1&#45;&gt;Node28</title>
<path fill="none" stroke="midnightblue" d="M895.51,-286.02C1005.37,-280.2 1247.78,-265.94 1451.17,-244 1455.78,-243.5 1460.58,-242.93 1465.37,-242.31"/>
<polygon fill="midnightblue" stroke="midnightblue" points="895.1,-282.54 885.3,-286.56 895.47,-289.53 895.1,-282.54"/>
</g>
<!-- Node2&#45;&gt;Node3 -->
<g id="edge2" class="edge">
<title>Node2&#45;&gt;Node3</title>
<path fill="none" stroke="midnightblue" d="M115.43,-115.56C181.69,-106.15 318.25,-86.74 397.21,-75.52"/>
<polygon fill="midnightblue" stroke="midnightblue" points="114.83,-112.11 105.42,-116.99 115.82,-119.04 114.83,-112.11"/>
</g>
<!-- Node5 -->
<g id="node5" class="node">
<title>Node5</title>
<g id="a_node5"><a xlink:href="alm_8cpp.html" target="_top" xlink:title=" ">
<polygon fill="white" stroke="black" points="139.17,-56.5 139.17,-75.5 195.17,-75.5 195.17,-56.5 139.17,-56.5"/>
<text text-anchor="middle" x="167.17" y="-63.5" font-family="Helvetica,sans-Serif" font-size="10.00">alm.cpp</text>
</a>
</g>
</g>
<!-- Node2&#45;&gt;Node5 -->
<g id="edge4" class="edge">
<title>Node2&#45;&gt;Node5</title>
<path fill="none" stroke="midnightblue" d="M100.21,-107.18C116.77,-97.24 138.59,-84.15 152.75,-75.65"/>
<polygon fill="midnightblue" stroke="midnightblue" points="98.41,-104.18 91.63,-112.32 102.01,-110.18 98.41,-104.18"/>
</g>
<!-- Node6 -->
<g id="node6" class="node">
<title>Node6</title>
<g id="a_node6"><a xlink:href="Presentation_2Cpp_2main_8cpp.html" target="_top" xlink:title=" ">
<polygon fill="white" stroke="black" points="56.17,-56.5 56.17,-75.5 118.17,-75.5 118.17,-56.5 56.17,-56.5"/>
<text text-anchor="middle" x="87.17" y="-63.5" font-family="Helvetica,sans-Serif" font-size="10.00">main.cpp</text>
</a>
</g>
</g>
<!-- Node2&#45;&gt;Node6 -->
<g id="edge5" class="edge">
<title>Node2&#45;&gt;Node6</title>
<path fill="none" stroke="midnightblue" d="M80.67,-102.1C82.33,-93.14 84.23,-82.86 85.55,-75.75"/>
<polygon fill="midnightblue" stroke="midnightblue" points="77.2,-101.61 78.82,-112.08 84.08,-102.89 77.2,-101.61"/>
</g>
<!-- Node3&#45;&gt;Node4 -->
<g id="edge3" class="edge">
<title>Node3&#45;&gt;Node4</title>
<path fill="none" stroke="midnightblue" d="M489.87,-52.91C517.32,-42.75 555.84,-28.51 580.15,-19.52"/>
<polygon fill="midnightblue" stroke="midnightblue" points="488.47,-49.69 480.31,-56.44 490.9,-56.26 488.47,-49.69"/>
</g>
<!-- Node7&#45;&gt;Node4 -->
<g id="edge11" class="edge">
<title>Node7&#45;&gt;Node4</title>
<path fill="none" stroke="midnightblue" d="M182.83,-229.66C131.94,-224.34 46.24,-212 27.17,-188 -9.34,-142.05 -9.81,-98.02 31.17,-56 68.34,-17.89 442.21,-12.05 564.61,-11.16"/>
<polygon fill="midnightblue" stroke="midnightblue" points="182.53,-233.15 192.83,-230.66 183.22,-226.18 182.53,-233.15"/>
</g>
<!-- Node8 -->
<g id="node8" class="node">
<title>Node8</title>
<g id="a_node8"><a xlink:href="alm-helpers_8hpp.html" target="_top" xlink:title=" ">
<polygon fill="white" stroke="black" points="36.17,-168.5 36.17,-187.5 132.17,-187.5 132.17,-168.5 36.17,-168.5"/>
<text text-anchor="middle" x="84.17" y="-175.5" font-family="Helvetica,sans-Serif" font-size="10.00">alm&#45;helpers.hpp</text>
</a>
</g>
</g>
<!-- Node7&#45;&gt;Node8 -->
<g id="edge7" class="edge">
<title>Node7&#45;&gt;Node8</title>
<path fill="none" stroke="midnightblue" d="M190.15,-220.77C164.41,-210.63 128.49,-196.47 105.78,-187.52"/>
<polygon fill="midnightblue" stroke="midnightblue" points="188.88,-224.03 199.46,-224.44 191.44,-217.52 188.88,-224.03"/>
</g>
<!-- Node9 -->
<g id="node9" class="node">
<title>Node9</title>
<g id="a_node9"><a xlink:href="kwargs-to-struct_8hpp.html" target="_top" xlink:title="This file defines mappings from Python dicts (kwargs) to simple parameter structs.">
<polygon fill="white" stroke="black" points="707.17,-112.5 707.17,-131.5 825.17,-131.5 825.17,-112.5 707.17,-112.5"/>
<text text-anchor="middle" x="766.17" y="-119.5" font-family="Helvetica,sans-Serif" font-size="10.00">kwargs&#45;to&#45;struct.hpp</text>
</a>
</g>
</g>
<!-- Node7&#45;&gt;Node9 -->
<g id="edge9" class="edge">
<title>Node7&#45;&gt;Node9</title>
<path fill="none" stroke="midnightblue" d="M259.16,-225.86C300.18,-217.86 367.28,-203.9 424.17,-188 450.84,-180.55 456.29,-174.64 483.17,-168 559.48,-149.14 649.4,-136.42 707.05,-129.44"/>
<polygon fill="midnightblue" stroke="midnightblue" points="258.47,-222.43 249.32,-227.77 259.8,-229.3 258.47,-222.43"/>
</g>
<!-- Node10 -->
<g id="node10" class="node">
<title>Node10</title>
<g id="a_node10"><a xlink:href="CasADi_2Rosenbrock_2main_8cpp.html" target="_top" xlink:title=" ">
<polygon fill="white" stroke="black" points="230.17,-168.5 230.17,-187.5 292.17,-187.5 292.17,-168.5 230.17,-168.5"/>
<text text-anchor="middle" x="261.17" y="-175.5" font-family="Helvetica,sans-Serif" font-size="10.00">main.cpp</text>
</a>
</g>
</g>
<!-- Node7&#45;&gt;Node10 -->
<g id="edge12" class="edge">
<title>Node7&#45;&gt;Node10</title>
<path fill="none" stroke="midnightblue" d="M233.87,-215.86C240.8,-206.5 249.08,-195.33 254.69,-187.75"/>
<polygon fill="midnightblue" stroke="midnightblue" points="230.92,-213.96 227.78,-224.08 236.54,-218.13 230.92,-213.96"/>
</g>
<!-- Node11 -->
<g id="node11" class="node">
<title>Node11</title>
<g id="a_node11"><a xlink:href="CUTEst_2Rosenbrock_2main_8cpp.html" target="_top" xlink:title=" ">
<polygon fill="white" stroke="black" points="150.17,-168.5 150.17,-187.5 212.17,-187.5 212.17,-168.5 150.17,-168.5"/>
<text text-anchor="middle" x="181.17" y="-175.5" font-family="Helvetica,sans-Serif" font-size="10.00">main.cpp</text>
</a>
</g>
</g>
<!-- Node7&#45;&gt;Node11 -->
<g id="edge13" class="edge">
<title>Node7&#45;&gt;Node11</title>
<path fill="none" stroke="midnightblue" d="M208.47,-215.86C201.54,-206.5 193.26,-195.33 187.65,-187.75"/>
<polygon fill="midnightblue" stroke="midnightblue" points="205.8,-218.13 214.57,-224.08 211.43,-213.96 205.8,-218.13"/>
</g>
<!-- Node8&#45;&gt;Node2 -->
<g id="edge8" class="edge">
<title>Node8&#45;&gt;Node2</title>
<path fill="none" stroke="midnightblue" d="M81.72,-158.1C80.56,-149.14 79.23,-138.86 78.31,-131.75"/>
<polygon fill="midnightblue" stroke="midnightblue" points="78.26,-158.62 83.02,-168.08 85.2,-157.72 78.26,-158.62"/>
</g>
<!-- Node9&#45;&gt;Node4 -->
<g id="edge10" class="edge">
<title>Node9&#45;&gt;Node4</title>
<path fill="none" stroke="midnightblue" d="M750.43,-104.74C736.3,-90.71 714.54,-70.48 693.17,-56 670.9,-40.91 642.85,-27.69 624.04,-19.55"/>
<polygon fill="midnightblue" stroke="midnightblue" points="748.28,-107.55 757.81,-112.19 753.26,-102.62 748.28,-107.55"/>
</g>
<!-- Node12&#45;&gt;Node4 -->
<g id="edge27" class="edge">
<title>Node12&#45;&gt;Node4</title>
<path fill="none" stroke="midnightblue" d="M367.26,-216.78C352.18,-201.5 327.4,-179.3 301.17,-168 247.4,-144.84 78.64,-176.14 40.17,-132 27.96,-117.99 23.15,-79 47.17,-56 84.42,-20.34 444.59,-12.87 564.53,-11.36"/>
<polygon fill="midnightblue" stroke="midnightblue" points="364.78,-219.25 374.22,-224.05 369.84,-214.41 364.78,-219.25"/>
</g>
<!-- Node12&#45;&gt;Node9 -->
<g id="edge26" class="edge">
<title>Node12&#45;&gt;Node9</title>
<path fill="none" stroke="midnightblue" d="M408.84,-220.06C439.62,-205.57 492.04,-182.28 539.17,-168 595.12,-151.05 660.8,-138.83 707.07,-131.44"/>
<polygon fill="midnightblue" stroke="midnightblue" points="407.18,-216.97 399.65,-224.42 410.18,-223.29 407.18,-216.97"/>
</g>
<!-- Node12&#45;&gt;Node10 -->
<g id="edge28" class="edge">
<title>Node12&#45;&gt;Node10</title>
<path fill="none" stroke="midnightblue" d="M353.87,-220.37C331.21,-210.26 300.04,-196.35 280.25,-187.52"/>
<polygon fill="midnightblue" stroke="midnightblue" points="352.44,-223.56 363,-224.44 355.29,-217.17 352.44,-223.56"/>
</g>
<!-- Node12&#45;&gt;Node11 -->
<g id="edge29" class="edge">
<title>Node12&#45;&gt;Node11</title>
<path fill="none" stroke="midnightblue" d="M340.53,-221.81C302.34,-211.55 246.63,-196.59 212.21,-187.34"/>
<polygon fill="midnightblue" stroke="midnightblue" points="339.76,-225.23 350.32,-224.44 341.57,-218.47 339.76,-225.23"/>
</g>
<!-- Node13 -->
<g id="node13" class="node">
<title>Node13</title>
<g id="a_node13"><a xlink:href="inner_2panoc_8hpp.html" target="_top" xlink:title=" ">
<polygon fill="white" stroke="black" points="348.67,-168.5 348.67,-187.5 415.67,-187.5 415.67,-168.5 348.67,-168.5"/>
<text text-anchor="middle" x="382.17" y="-175.5" font-family="Helvetica,sans-Serif" font-size="10.00">panoc.hpp</text>
</a>
</g>
</g>
<!-- Node12&#45;&gt;Node13 -->
<g id="edge15" class="edge">
<title>Node12&#45;&gt;Node13</title>
<path fill="none" stroke="midnightblue" d="M382.17,-213.8C382.17,-204.91 382.17,-194.78 382.17,-187.75"/>
<polygon fill="midnightblue" stroke="midnightblue" points="378.67,-214.08 382.17,-224.08 385.67,-214.08 378.67,-214.08"/>
</g>
<!-- Node16 -->
<g id="node16" class="node">
<title>Node16</title>
<g id="a_node16"><a xlink:href="standalone_2panoc_8hpp.html" target="_top" xlink:title=" ">
<polygon fill="white" stroke="black" points="548.67,-168.5 548.67,-187.5 615.67,-187.5 615.67,-168.5 548.67,-168.5"/>
<text text-anchor="middle" x="582.17" y="-175.5" font-family="Helvetica,sans-Serif" font-size="10.00">panoc.hpp</text>
</a>
</g>
</g>
<!-- Node12&#45;&gt;Node16 -->
<g id="edge24" class="edge">
<title>Node12&#45;&gt;Node16</title>
<path fill="none" stroke="midnightblue" d="M423.54,-221.83C461.31,-211.63 516.31,-196.78 550.63,-187.52"/>
<polygon fill="midnightblue" stroke="midnightblue" points="422.6,-218.46 413.86,-224.44 424.43,-225.22 422.6,-218.46"/>
</g>
<!-- Node13&#45;&gt;Node3 -->
<g id="edge17" class="edge">
<title>Node13&#45;&gt;Node3</title>
<path fill="none" stroke="midnightblue" d="M425.62,-165.56C442.58,-158.74 460.29,-148.15 470.17,-132 481.1,-114.13 469.92,-88.82 462.54,-75.68"/>
<polygon fill="midnightblue" stroke="midnightblue" points="423.98,-162.43 415.79,-169.15 426.38,-169.01 423.98,-162.43"/>
</g>
<!-- Node13&#45;&gt;Node4 -->
<g id="edge16" class="edge">
<title>Node13&#45;&gt;Node4</title>
<path fill="none" stroke="midnightblue" d="M418.88,-164.92C439.81,-157.17 466,-145.93 487.17,-132 537,-99.2 581.41,-41.34 597.13,-19.59"/>
<polygon fill="midnightblue" stroke="midnightblue" points="417.6,-161.67 409.38,-168.35 419.97,-168.25 417.6,-161.67"/>
</g>
<!-- Node13&#45;&gt;Node5 -->
<g id="edge21" class="edge">
<title>Node13&#45;&gt;Node5</title>
<path fill="none" stroke="midnightblue" d="M338.44,-167.86C283.52,-156.21 195.75,-137 190.17,-132 173.59,-117.14 168.96,-89.56 167.67,-75.59"/>
<polygon fill="midnightblue" stroke="midnightblue" points="337.78,-171.29 348.29,-169.94 339.23,-164.45 337.78,-171.29"/>
</g>
<!-- Node13&#45;&gt;Node6 -->
<g id="edge23" class="edge">
<title>Node13&#45;&gt;Node6</title>
<path fill="none" stroke="midnightblue" d="M338.09,-168.56C281.28,-157.53 188.02,-138.8 173.17,-132 141.52,-117.5 110.47,-89.76 95.85,-75.67"/>
<polygon fill="midnightblue" stroke="midnightblue" points="337.76,-172.07 348.24,-170.53 339.09,-165.19 337.76,-172.07"/>
</g>
<!-- Node14 -->
<g id="node14" class="node">
<title>Node14</title>
<g id="a_node14"><a xlink:href="polymorphic-panoc-direction_8hpp.html" target="_top" xlink:title=" ">
<polygon fill="white" stroke="black" points="199.17,-112.5 199.17,-131.5 377.17,-131.5 377.17,-112.5 199.17,-112.5"/>
<text text-anchor="middle" x="288.17" y="-119.5" font-family="Helvetica,sans-Serif" font-size="10.00">polymorphic&#45;panoc&#45;direction.hpp</text>
</a>
</g>
</g>
<!-- Node13&#45;&gt;Node14 -->
<g id="edge18" class="edge">
<title>Node13&#45;&gt;Node14</title>
<path fill="none" stroke="midnightblue" d="M358.11,-163.18C340.81,-153.24 318.02,-140.15 303.24,-131.65"/>
<polygon fill="midnightblue" stroke="midnightblue" points="356.65,-166.38 367.07,-168.32 360.14,-160.31 356.65,-166.38"/>
</g>
<!-- Node15 -->
<g id="node15" class="node">
<title>Node15</title>
<g id="a_node15"><a xlink:href="panoc_8cpp.html" target="_top" xlink:title=" ">
<polygon fill="white" stroke="black" points="395.17,-112.5 395.17,-131.5 461.17,-131.5 461.17,-112.5 395.17,-112.5"/>
<text text-anchor="middle" x="428.17" y="-119.5" font-family="Helvetica,sans-Serif" font-size="10.00">panoc.cpp</text>
</a>
</g>
</g>
<!-- Node13&#45;&gt;Node15 -->
<g id="edge22" class="edge">
<title>Node13&#45;&gt;Node15</title>
<path fill="none" stroke="midnightblue" d="M396.28,-160.43C404.35,-150.97 414.13,-139.48 420.72,-131.75"/>
<polygon fill="midnightblue" stroke="midnightblue" points="393.59,-158.2 389.77,-168.08 398.92,-162.74 393.59,-158.2"/>
</g>
<!-- Node14&#45;&gt;Node3 -->
<g id="edge20" class="edge">
<title>Node14&#45;&gt;Node3</title>
<path fill="none" stroke="midnightblue" d="M324.77,-109.3C356.62,-99.13 402.01,-84.62 430.52,-75.52"/>
<polygon fill="midnightblue" stroke="midnightblue" points="323.41,-106.07 314.95,-112.44 325.54,-112.73 323.41,-106.07"/>
</g>
<!-- Node14&#45;&gt;Node4 -->
<g id="edge19" class="edge">
<title>Node14&#45;&gt;Node4</title>
<path fill="none" stroke="midnightblue" d="M303.4,-104.66C318.4,-89.6 342.71,-67.85 368.17,-56 432.75,-25.93 516.27,-15.95 564.37,-12.64"/>
<polygon fill="midnightblue" stroke="midnightblue" points="300.51,-102.61 296.08,-112.23 305.54,-107.48 300.51,-102.61"/>
</g>
<!-- Node16&#45;&gt;Node4 -->
<g id="edge25" class="edge">
<title>Node16&#45;&gt;Node4</title>
<path fill="none" stroke="midnightblue" d="M584.58,-157.93C589.14,-121.92 598.84,-45.23 602.09,-19.57"/>
<polygon fill="midnightblue" stroke="midnightblue" points="581.08,-157.71 583.3,-168.08 588.03,-158.59 581.08,-157.71"/>
</g>
<!-- Node18 -->
<g id="node18" class="node">
<title>Node18</title>
<g id="a_node18"><a xlink:href="second-order-panoc_8hpp.html" target="_top" xlink:title=" ">
<polygon fill="white" stroke="black" points="1183.17,-168.5 1183.17,-187.5 1317.17,-187.5 1317.17,-168.5 1183.17,-168.5"/>
<text text-anchor="middle" x="1250.17" y="-175.5" font-family="Helvetica,sans-Serif" font-size="10.00">second&#45;order&#45;panoc.hpp</text>
</a>
</g>
</g>
<!-- Node17&#45;&gt;Node18 -->
<g id="edge31" class="edge">
<title>Node17&#45;&gt;Node18</title>
<path fill="none" stroke="midnightblue" d="M1196.21,-218.38C1209.58,-208.62 1226.73,-196.11 1238.07,-187.83"/>
<polygon fill="midnightblue" stroke="midnightblue" points="1194.08,-215.6 1188.06,-224.32 1198.2,-221.26 1194.08,-215.6"/>
</g>
<!-- Node19 -->
<g id="node19" class="node">
<title>Node19</title>
<g id="a_node19"><a xlink:href="second-order-panoc_8cpp.html" target="_top" xlink:title=" ">
<polygon fill="white" stroke="black" points="1183.17,-112.5 1183.17,-131.5 1317.17,-131.5 1317.17,-112.5 1183.17,-112.5"/>
<text text-anchor="middle" x="1250.17" y="-119.5" font-family="Helvetica,sans-Serif" font-size="10.00">second&#45;order&#45;panoc.cpp</text>
</a>
</g>
</g>
<!-- Node18&#45;&gt;Node19 -->
<g id="edge32" class="edge">
<title>Node18&#45;&gt;Node19</title>
<path fill="none" stroke="midnightblue" d="M1250.17,-157.8C1250.17,-148.91 1250.17,-138.78 1250.17,-131.75"/>
<polygon fill="midnightblue" stroke="midnightblue" points="1246.67,-158.08 1250.17,-168.08 1253.67,-158.08 1246.67,-158.08"/>
</g>
<!-- Node20&#45;&gt;Node3 -->
<g id="edge38" class="edge">
<title>Node20&#45;&gt;Node3</title>
<path fill="none" stroke="midnightblue" d="M1021.74,-164.81C982.29,-150 912.24,-125.36 850.17,-112 743.25,-88.99 617.28,-77.2 537.33,-71.57"/>
<polygon fill="midnightblue" stroke="midnightblue" points="1020.74,-168.17 1031.33,-168.44 1023.22,-161.62 1020.74,-168.17"/>
</g>
<!-- Node20&#45;&gt;Node9 -->
<g id="edge37" class="edge">
<title>Node20&#45;&gt;Node9</title>
<path fill="none" stroke="midnightblue" d="M997.56,-166.54C943.32,-156.33 861.83,-141 811.43,-131.52"/>
<polygon fill="midnightblue" stroke="midnightblue" points="997.22,-170.03 1007.69,-168.44 998.51,-163.15 997.22,-170.03"/>
</g>
<!-- Node21 -->
<g id="node21" class="node">
<title>Node21</title>
<g id="a_node21"><a xlink:href="structured-panoc-lbfgs_8hpp.html" target="_top" xlink:title=" ">
<polygon fill="white" stroke="black" points="979.17,-112.5 979.17,-131.5 1127.17,-131.5 1127.17,-112.5 979.17,-112.5"/>
<text text-anchor="middle" x="1053.17" y="-119.5" font-family="Helvetica,sans-Serif" font-size="10.00">structured&#45;panoc&#45;lbfgs.hpp</text>
</a>
</g>
</g>
<!-- Node20&#45;&gt;Node21 -->
<g id="edge34" class="edge">
<title>Node20&#45;&gt;Node21</title>
<path fill="none" stroke="midnightblue" d="M1053.17,-157.8C1053.17,-148.91 1053.17,-138.78 1053.17,-131.75"/>
<polygon fill="midnightblue" stroke="midnightblue" points="1049.67,-158.08 1053.17,-168.08 1056.67,-158.08 1049.67,-158.08"/>
</g>
<!-- Node21&#45;&gt;Node4 -->
<g id="edge35" class="edge">
<title>Node21&#45;&gt;Node4</title>
<path fill="none" stroke="midnightblue" d="M1028.33,-107.63C999.53,-92.72 950.23,-69 905.17,-56 812.98,-29.4 700.19,-17.92 642.01,-13.48"/>
<polygon fill="midnightblue" stroke="midnightblue" points="1026.79,-110.78 1037.27,-112.32 1030.04,-104.58 1026.79,-110.78"/>
</g>
<!-- Node22 -->
<g id="node22" class="node">
<title>Node22</title>
<g id="a_node22"><a xlink:href="structured-panoc-lbfgs_8cpp.html" target="_top" xlink:title=" ">
<polygon fill="white" stroke="black" points="979.67,-56.5 979.67,-75.5 1126.67,-75.5 1126.67,-56.5 979.67,-56.5"/>
<text text-anchor="middle" x="1053.17" y="-63.5" font-family="Helvetica,sans-Serif" font-size="10.00">structured&#45;panoc&#45;lbfgs.cpp</text>
</a>
</g>
</g>
<!-- Node21&#45;&gt;Node22 -->
<g id="edge36" class="edge">
<title>Node21&#45;&gt;Node22</title>
<path fill="none" stroke="midnightblue" d="M1053.17,-101.8C1053.17,-92.91 1053.17,-82.78 1053.17,-75.75"/>
<polygon fill="midnightblue" stroke="midnightblue" points="1049.67,-102.08 1053.17,-112.08 1056.67,-102.08 1049.67,-102.08"/>
</g>
<!-- Node23&#45;&gt;Node13 -->
<g id="edge46" class="edge">
<title>Node23&#45;&gt;Node13</title>
<path fill="none" stroke="midnightblue" d="M813.3,-226.03C706.99,-214.43 497.38,-191.57 415.79,-182.67"/>
<polygon fill="midnightblue" stroke="midnightblue" points="812.93,-229.51 823.25,-227.12 813.69,-222.55 812.93,-229.51"/>
</g>
<!-- Node23&#45;&gt;Node16 -->
<g id="edge53" class="edge">
<title>Node23&#45;&gt;Node16</title>
<path fill="none" stroke="midnightblue" d="M816.26,-222.78C764.94,-214.03 689.64,-200.83 624.17,-188 621.54,-187.48 618.81,-186.93 616.08,-186.37"/>
<polygon fill="midnightblue" stroke="midnightblue" points="815.75,-226.25 826.19,-224.47 816.92,-219.34 815.75,-226.25"/>
</g>
<!-- Node23&#45;&gt;Node18 -->
<g id="edge51" class="edge">
<title>Node23&#45;&gt;Node18</title>
<path fill="none" stroke="midnightblue" d="M941.06,-223.75C1011.33,-213.58 1123.28,-197.37 1191.43,-187.5"/>
<polygon fill="midnightblue" stroke="midnightblue" points="940.41,-220.31 931.01,-225.21 941.41,-227.24 940.41,-220.31"/>
</g>
<!-- Node23&#45;&gt;Node21 -->
<g id="edge52" class="edge">
<title>Node23&#45;&gt;Node21</title>
<path fill="none" stroke="midnightblue" d="M941.09,-231C1009.56,-227.36 1111.72,-217.07 1136.17,-188 1156.5,-163.84 1111.74,-142.73 1080.39,-131.52"/>
<polygon fill="midnightblue" stroke="midnightblue" points="940.64,-227.52 930.83,-231.51 940.99,-234.51 940.64,-227.52"/>
</g>
<!-- Node24 -->
<g id="node24" class="node">
<title>Node24</title>
<g id="a_node24"><a xlink:href="specialized-lbfgs_8hpp.html" target="_top" xlink:title=" ">
<polygon fill="white" stroke="black" points="841.17,-168.5 841.17,-187.5 961.17,-187.5 961.17,-168.5 841.17,-168.5"/>
<text text-anchor="middle" x="901.17" y="-175.5" font-family="Helvetica,sans-Serif" font-size="10.00">specialized&#45;lbfgs.hpp</text>
</a>
</g>
</g>
<!-- Node23&#45;&gt;Node24 -->
<g id="edge40" class="edge">
<title>Node23&#45;&gt;Node24</title>
<path fill="none" stroke="midnightblue" d="M885.31,-214.69C889.35,-205.59 894.05,-195.01 897.28,-187.75"/>
<polygon fill="midnightblue" stroke="midnightblue" points="882,-213.52 881.13,-224.08 888.39,-216.37 882,-213.52"/>
</g>
<!-- Node23&#45;&gt;Node25 -->
<g id="edge41" class="edge">
<title>Node23&#45;&gt;Node25</title>
<path fill="none" stroke="midnightblue" d="M837.79,-221.57C802.71,-211.38 752.15,-196.7 720.51,-187.52"/>
<polygon fill="midnightblue" stroke="midnightblue" points="837.12,-225.02 847.7,-224.44 839.07,-218.29 837.12,-225.02"/>
</g>
<!-- Node23&#45;&gt;Node26 -->
<g id="edge45" class="edge">
<title>Node23&#45;&gt;Node26</title>
<path fill="none" stroke="midnightblue" d="M940.94,-228.49C1028.2,-221.9 1189.56,-208.17 1326.17,-188 1329.07,-187.57 1332.06,-187.09 1335.07,-186.57"/>
<polygon fill="midnightblue" stroke="midnightblue" points="940.65,-225 930.93,-229.24 941.17,-231.99 940.65,-225"/>
</g>
<!-- Node23&#45;&gt;Node27 -->
<g id="edge47" class="edge">
<title>Node23&#45;&gt;Node27</title>
<path fill="none" stroke="midnightblue" d="M855.34,-218.62C840.36,-208.76 820.97,-195.99 808.31,-187.65"/>
<polygon fill="midnightblue" stroke="midnightblue" points="853.72,-221.75 864,-224.32 857.57,-215.9 853.72,-221.75"/>
</g>
<!-- Node25&#45;&gt;Node3 -->
<g id="edge44" class="edge">
<title>Node25&#45;&gt;Node3</title>
<path fill="none" stroke="midnightblue" d="M663.56,-164.02C615.17,-141.27 516.29,-94.79 475.45,-75.59"/>
<polygon fill="midnightblue" stroke="midnightblue" points="662.27,-167.28 672.81,-168.37 665.25,-160.95 662.27,-167.28"/>
</g>
<!-- Node25&#45;&gt;Node4 -->
<g id="edge43" class="edge">
<title>Node25&#45;&gt;Node4</title>
<path fill="none" stroke="midnightblue" d="M681.55,-158.86C662.68,-123.25 621.44,-45.45 607.71,-19.57"/>
<polygon fill="midnightblue" stroke="midnightblue" points="678.66,-160.88 686.44,-168.08 684.85,-157.6 678.66,-160.88"/>
</g>
<!-- Node25&#45;&gt;Node9 -->
<g id="edge42" class="edge">
<title>Node25&#45;&gt;Node9</title>
<path fill="none" stroke="midnightblue" d="M711.48,-162.38C725.03,-152.62 742.41,-140.11 753.9,-131.83"/>
<polygon fill="midnightblue" stroke="midnightblue" points="709.29,-159.64 703.22,-168.32 713.38,-165.32 709.29,-159.64"/>
</g>
<!-- Node27&#45;&gt;Node3 -->
<g id="edge50" class="edge">
<title>Node27&#45;&gt;Node3</title>
<path fill="none" stroke="midnightblue" d="M814.92,-161.75C830.56,-147.86 847.71,-127.25 834.17,-112 814.81,-90.19 642,-77.03 537.19,-70.98"/>
<polygon fill="midnightblue" stroke="midnightblue" points="812.47,-159.23 807.05,-168.34 816.96,-164.6 812.47,-159.23"/>
</g>
<!-- Node27&#45;&gt;Node4 -->
<g id="edge49" class="edge">
<title>Node27&#45;&gt;Node4</title>
<path fill="none" stroke="midnightblue" d="M820.56,-163.2C840.39,-150.55 862.64,-130.95 850.17,-112 803.95,-41.76 699.11,-20.35 642.01,-13.84"/>
<polygon fill="midnightblue" stroke="midnightblue" points="818.52,-160.34 811.76,-168.49 822.13,-166.34 818.52,-160.34"/>
</g>
<!-- Node27&#45;&gt;Node9 -->
<g id="edge48" class="edge">
<title>Node27&#45;&gt;Node9</title>
<path fill="none" stroke="midnightblue" d="M785.49,-158.98C780.57,-149.82 774.81,-139.09 770.87,-131.75"/>
<polygon fill="midnightblue" stroke="midnightblue" points="782.57,-160.93 790.38,-168.08 788.73,-157.62 782.57,-160.93"/>
</g>
</g>
</svg>
