<?xml version="1.0" encoding="UTF-8" standalone="no"?>
<!DOCTYPE svg PUBLIC "-//W3C//DTD SVG 1.1//EN"
 "http://www.w3.org/Graphics/SVG/1.1/DTD/svg11.dtd">
<!-- Generated by graphviz version 2.43.0 (0)
 -->
<!-- Title: specialized&#45;lbfgs.hpp Pages: 1 -->
<svg width="1163pt" height="397pt"
 viewBox="0.00 0.00 1162.64 397.00" xmlns="http://www.w3.org/2000/svg" xmlns:xlink="http://www.w3.org/1999/xlink">
<g id="graph0" class="graph" transform="scale(1 1) rotate(0) translate(4 393)">
<title>specialized&#45;lbfgs.hpp</title>
<polygon fill="white" stroke="transparent" points="-4,4 -4,-393 1158.64,-393 1158.64,4 -4,4"/>
<!-- Node1 -->
<g id="node1" class="node">
<title>Node1</title>
<g id="a_node1"><a xlink:title=" ">
<polygon fill="#bfbfbf" stroke="black" points="784.5,-369.5 784.5,-388.5 904.5,-388.5 904.5,-369.5 784.5,-369.5"/>
<text text-anchor="middle" x="844.5" y="-376.5" font-family="Helvetica,sans-Serif" font-size="10.00">specialized&#45;lbfgs.hpp</text>
</a>
</g>
</g>
<!-- Node2 -->
<g id="node2" class="node">
<title>Node2</title>
<g id="a_node2"><a xlink:href="panoc-helpers_8hpp.html" target="_top" xlink:title=" ">
<polygon fill="white" stroke="black" points="257,-302.5 257,-332.5 384,-332.5 384,-302.5 257,-302.5"/>
<text text-anchor="start" x="265" y="-320.5" font-family="Helvetica,sans-Serif" font-size="10.00">panoc&#45;alm/inner/detail</text>
<text text-anchor="middle" x="320.5" y="-309.5" font-family="Helvetica,sans-Serif" font-size="10.00">/panoc&#45;helpers.hpp</text>
</a>
</g>
</g>
<!-- Node1&#45;&gt;Node2 -->
<g id="edge1" class="edge">
<title>Node1&#45;&gt;Node2</title>
<path fill="none" stroke="midnightblue" d="M784.39,-371.17C688,-360.23 499.11,-338.78 394.55,-326.91"/>
<polygon fill="midnightblue" stroke="midnightblue" points="394.72,-323.41 384.39,-325.75 393.93,-330.36 394.72,-323.41"/>
</g>
<!-- Node18 -->
<g id="node18" class="node">
<title>Node18</title>
<g id="a_node18"><a xlink:href="decl_2specialized-lbfgs_8hpp.html" target="_top" xlink:title=" ">
<polygon fill="white" stroke="black" points="873,-302.5 873,-332.5 1020,-332.5 1020,-302.5 873,-302.5"/>
<text text-anchor="start" x="881" y="-320.5" font-family="Helvetica,sans-Serif" font-size="10.00">panoc&#45;alm/inner/directions</text>
<text text-anchor="middle" x="946.5" y="-309.5" font-family="Helvetica,sans-Serif" font-size="10.00">/decl/specialized&#45;lbfgs.hpp</text>
</a>
</g>
</g>
<!-- Node1&#45;&gt;Node18 -->
<g id="edge18" class="edge">
<title>Node1&#45;&gt;Node18</title>
<path fill="none" stroke="midnightblue" d="M859.11,-369.48C873.32,-361.19 895.37,-348.32 913.77,-337.59"/>
<polygon fill="midnightblue" stroke="midnightblue" points="915.59,-340.58 922.46,-332.52 912.06,-334.54 915.59,-340.58"/>
</g>
<!-- Node21 -->
<g id="node21" class="node">
<title>Node21</title>
<g id="a_node21"><a xlink:href="panoc-direction-update_8hpp.html" target="_top" xlink:title=" ">
<polygon fill="white" stroke="black" points="756,-168.5 756,-198.5 933,-198.5 933,-168.5 756,-168.5"/>
<text text-anchor="start" x="764" y="-186.5" font-family="Helvetica,sans-Serif" font-size="10.00">panoc&#45;alm/inner/directions</text>
<text text-anchor="middle" x="844.5" y="-175.5" font-family="Helvetica,sans-Serif" font-size="10.00">/decl/panoc&#45;direction&#45;update.hpp</text>
</a>
</g>
</g>
<!-- Node1&#45;&gt;Node21 -->
<g id="edge29" class="edge">
<title>Node1&#45;&gt;Node21</title>
<path fill="none" stroke="midnightblue" d="M844.5,-369.44C844.5,-341.51 844.5,-252.41 844.5,-208.89"/>
<polygon fill="midnightblue" stroke="midnightblue" points="848,-208.63 844.5,-198.63 841,-208.63 848,-208.63"/>
</g>
<!-- Node22 -->
<g id="node22" class="node">
<title>Node22</title>
<g id="a_node22"><a xlink:href="lbfgs_8hpp.html" target="_top" xlink:title=" ">
<polygon fill="white" stroke="black" points="669,-302.5 669,-332.5 816,-332.5 816,-302.5 669,-302.5"/>
<text text-anchor="start" x="677" y="-320.5" font-family="Helvetica,sans-Serif" font-size="10.00">panoc&#45;alm/inner/directions</text>
<text text-anchor="middle" x="742.5" y="-309.5" font-family="Helvetica,sans-Serif" font-size="10.00">/lbfgs.hpp</text>
</a>
</g>
</g>
<!-- Node1&#45;&gt;Node22 -->
<g id="edge25" class="edge">
<title>Node1&#45;&gt;Node22</title>
<path fill="none" stroke="midnightblue" d="M829.89,-369.48C815.68,-361.19 793.63,-348.32 775.23,-337.59"/>
<polygon fill="midnightblue" stroke="midnightblue" points="776.94,-334.54 766.54,-332.52 773.41,-340.58 776.94,-334.54"/>
</g>
<!-- Node23 -->
<g id="node23" class="node">
<title>Node23</title>
<g id="a_node23"><a xlink:title=" ">
<polygon fill="white" stroke="#bfbfbf" points="1038,-308 1038,-327 1085,-327 1085,-308 1038,-308"/>
<text text-anchor="middle" x="1061.5" y="-315" font-family="Helvetica,sans-Serif" font-size="10.00">cmath</text>
</a>
</g>
</g>
<!-- Node1&#45;&gt;Node23 -->
<g id="edge28" class="edge">
<title>Node1&#45;&gt;Node23</title>
<path fill="none" stroke="midnightblue" d="M889.66,-369.48C927.54,-361.75 982.78,-349.11 1029.5,-333 1031.16,-332.43 1032.86,-331.8 1034.56,-331.13"/>
<polygon fill="midnightblue" stroke="midnightblue" points="1036.29,-334.2 1044.13,-327.08 1033.56,-327.76 1036.29,-334.2"/>
</g>
<!-- Node3 -->
<g id="node3" class="node">
<title>Node3</title>
<g id="a_node3"><a xlink:href="panoc-stop-crit_8hpp.html" target="_top" xlink:title=" ">
<polygon fill="white" stroke="black" points="0,-235.5 0,-265.5 119,-265.5 119,-235.5 0,-235.5"/>
<text text-anchor="start" x="8" y="-253.5" font-family="Helvetica,sans-Serif" font-size="10.00">panoc&#45;alm/inner/decl</text>
<text text-anchor="middle" x="59.5" y="-242.5" font-family="Helvetica,sans-Serif" font-size="10.00">/panoc&#45;stop&#45;crit.hpp</text>
</a>
</g>
</g>
<!-- Node2&#45;&gt;Node3 -->
<g id="edge2" class="edge">
<title>Node2&#45;&gt;Node3</title>
<path fill="none" stroke="midnightblue" d="M264.19,-302.48C223.59,-292.37 168.65,-278.68 125.91,-268.04"/>
<polygon fill="midnightblue" stroke="midnightblue" points="126.71,-264.63 116.16,-265.61 125.02,-271.42 126.71,-264.63"/>
</g>
<!-- Node5 -->
<g id="node5" class="node">
<title>Node5</title>
<g id="a_node5"><a xlink:title=" ">
<polygon fill="white" stroke="#bfbfbf" points="111,-174 111,-193 176,-193 176,-174 111,-174"/>
<text text-anchor="middle" x="143.5" y="-181" font-family="Helvetica,sans-Serif" font-size="10.00">stdexcept</text>
</a>
</g>
</g>
<!-- Node2&#45;&gt;Node5 -->
<g id="edge17" class="edge">
<title>Node2&#45;&gt;Node5</title>
<path fill="none" stroke="midnightblue" d="M256.85,-309.68C225.76,-303.2 190.07,-290.57 166.5,-266 150.32,-249.13 145.37,-221.78 143.93,-203.47"/>
<polygon fill="midnightblue" stroke="midnightblue" points="147.43,-203.23 143.43,-193.41 140.44,-203.58 147.43,-203.23"/>
</g>
<!-- Node6 -->
<g id="node6" class="node">
<title>Node6</title>
<g id="a_node6"><a xlink:href="atomic__stop__signal_8hpp.html" target="_top" xlink:title=" ">
<polygon fill="white" stroke="black" points="175.5,-235.5 175.5,-265.5 299.5,-265.5 299.5,-235.5 175.5,-235.5"/>
<text text-anchor="start" x="183.5" y="-253.5" font-family="Helvetica,sans-Serif" font-size="10.00">panoc&#45;alm/util/atomic</text>
<text text-anchor="middle" x="237.5" y="-242.5" font-family="Helvetica,sans-Serif" font-size="10.00">_stop_signal.hpp</text>
</a>
</g>
</g>
<!-- Node2&#45;&gt;Node6 -->
<g id="edge5" class="edge">
<title>Node2&#45;&gt;Node6</title>
<path fill="none" stroke="midnightblue" d="M302.49,-302.4C291.07,-293.45 276.11,-281.74 263.42,-271.8"/>
<polygon fill="midnightblue" stroke="midnightblue" points="265.51,-268.99 255.47,-265.58 261.19,-274.5 265.51,-268.99"/>
</g>
<!-- Node8 -->
<g id="node8" class="node">
<title>Node8</title>
<g id="a_node8"><a xlink:href="include_2panoc-alm_2util_2problem_8hpp.html" target="_top" xlink:title=" ">
<polygon fill="white" stroke="black" points="507.5,-241 507.5,-260 659.5,-260 659.5,-241 507.5,-241"/>
<text text-anchor="middle" x="583.5" y="-248" font-family="Helvetica,sans-Serif" font-size="10.00">panoc&#45;alm/util/problem.hpp</text>
</a>
</g>
</g>
<!-- Node2&#45;&gt;Node8 -->
<g id="edge7" class="edge">
<title>Node2&#45;&gt;Node8</title>
<path fill="none" stroke="midnightblue" d="M377.24,-302.48C425.72,-290.5 494.48,-273.5 539.04,-262.49"/>
<polygon fill="midnightblue" stroke="midnightblue" points="540.12,-265.83 548.99,-260.03 538.44,-259.03 540.12,-265.83"/>
</g>
<!-- Node16 -->
<g id="node16" class="node">
<title>Node16</title>
<g id="a_node16"><a xlink:href="solverstatus_8hpp.html" target="_top" xlink:title=" ">
<polygon fill="white" stroke="black" points="318,-241 318,-260 489,-260 489,-241 318,-241"/>
<text text-anchor="middle" x="403.5" y="-248" font-family="Helvetica,sans-Serif" font-size="10.00">panoc&#45;alm/util/solverstatus.hpp</text>
</a>
</g>
</g>
<!-- Node2&#45;&gt;Node16 -->
<g id="edge15" class="edge">
<title>Node2&#45;&gt;Node16</title>
<path fill="none" stroke="midnightblue" d="M338.51,-302.4C352.09,-291.76 370.68,-277.2 384.5,-266.38"/>
<polygon fill="midnightblue" stroke="midnightblue" points="386.68,-269.12 392.4,-260.19 382.37,-263.6 386.68,-269.12"/>
</g>
<!-- Node4 -->
<g id="node4" class="node">
<title>Node4</title>
<g id="a_node4"><a xlink:title=" ">
<polygon fill="white" stroke="#bfbfbf" points="31,-174 31,-193 88,-193 88,-174 31,-174"/>
<text text-anchor="middle" x="59.5" y="-181" font-family="Helvetica,sans-Serif" font-size="10.00">ostream</text>
</a>
</g>
</g>
<!-- Node3&#45;&gt;Node4 -->
<g id="edge3" class="edge">
<title>Node3&#45;&gt;Node4</title>
<path fill="none" stroke="midnightblue" d="M59.5,-235.4C59.5,-226.06 59.5,-213.71 59.5,-203.52"/>
<polygon fill="midnightblue" stroke="midnightblue" points="63,-203.19 59.5,-193.19 56,-203.19 63,-203.19"/>
</g>
<!-- Node3&#45;&gt;Node5 -->
<g id="edge4" class="edge">
<title>Node3&#45;&gt;Node5</title>
<path fill="none" stroke="midnightblue" d="M77.73,-235.4C91.47,-224.76 110.28,-210.2 124.27,-199.38"/>
<polygon fill="midnightblue" stroke="midnightblue" points="126.5,-202.08 132.26,-193.19 122.21,-196.55 126.5,-202.08"/>
</g>
<!-- Node7 -->
<g id="node7" class="node">
<title>Node7</title>
<g id="a_node7"><a xlink:title=" ">
<polygon fill="white" stroke="#bfbfbf" points="212.5,-174 212.5,-193 262.5,-193 262.5,-174 212.5,-174"/>
<text text-anchor="middle" x="237.5" y="-181" font-family="Helvetica,sans-Serif" font-size="10.00">atomic</text>
</a>
</g>
</g>
<!-- Node6&#45;&gt;Node7 -->
<g id="edge6" class="edge">
<title>Node6&#45;&gt;Node7</title>
<path fill="none" stroke="midnightblue" d="M237.5,-235.4C237.5,-226.06 237.5,-213.71 237.5,-203.52"/>
<polygon fill="midnightblue" stroke="midnightblue" points="241,-203.19 237.5,-193.19 234,-203.19 241,-203.19"/>
</g>
<!-- Node9 -->
<g id="node9" class="node">
<title>Node9</title>
<g id="a_node9"><a xlink:href="box_8hpp.html" target="_top" xlink:title=" ">
<polygon fill="white" stroke="black" points="874.5,-112.5 874.5,-131.5 930.5,-131.5 930.5,-112.5 874.5,-112.5"/>
<text text-anchor="middle" x="902.5" y="-119.5" font-family="Helvetica,sans-Serif" font-size="10.00">box.hpp</text>
</a>
</g>
</g>
<!-- Node8&#45;&gt;Node9 -->
<g id="edge8" class="edge">
<title>Node8&#45;&gt;Node9</title>
<path fill="none" stroke="midnightblue" d="M590.38,-240.84C605.69,-221.81 642.54,-177.3 659.5,-168 725.17,-131.98 814.29,-124.16 864.33,-122.83"/>
<polygon fill="midnightblue" stroke="midnightblue" points="864.46,-126.33 874.39,-122.64 864.32,-119.33 864.46,-126.33"/>
</g>
<!-- Node12 -->
<g id="node12" class="node">
<title>Node12</title>
<g id="a_node12"><a xlink:title=" ">
<polygon fill="white" stroke="#bfbfbf" points="400.5,-174 400.5,-193 452.5,-193 452.5,-174 400.5,-174"/>
<text text-anchor="middle" x="426.5" y="-181" font-family="Helvetica,sans-Serif" font-size="10.00">cassert</text>
</a>
</g>
</g>
<!-- Node8&#45;&gt;Node12 -->
<g id="edge11" class="edge">
<title>Node8&#45;&gt;Node12</title>
<path fill="none" stroke="midnightblue" d="M562.65,-240.87C535.56,-229.65 488.04,-209.98 456.92,-197.09"/>
<polygon fill="midnightblue" stroke="midnightblue" points="458.01,-193.76 447.43,-193.17 455.34,-200.23 458.01,-193.76"/>
</g>
<!-- Node13 -->
<g id="node13" class="node">
<title>Node13</title>
<g id="a_node13"><a xlink:title=" ">
<polygon fill="white" stroke="#bfbfbf" points="471,-174 471,-193 536,-193 536,-174 471,-174"/>
<text text-anchor="middle" x="503.5" y="-181" font-family="Helvetica,sans-Serif" font-size="10.00">functional</text>
</a>
</g>
</g>
<!-- Node8&#45;&gt;Node13 -->
<g id="edge12" class="edge">
<title>Node8&#45;&gt;Node13</title>
<path fill="none" stroke="midnightblue" d="M572.71,-240.73C559.76,-230.21 537.81,-212.38 522.11,-199.62"/>
<polygon fill="midnightblue" stroke="midnightblue" points="524.09,-196.72 514.12,-193.13 519.67,-202.15 524.09,-196.72"/>
</g>
<!-- Node14 -->
<g id="node14" class="node">
<title>Node14</title>
<g id="a_node14"><a xlink:title=" ">
<polygon fill="white" stroke="#bfbfbf" points="554.5,-174 554.5,-193 612.5,-193 612.5,-174 554.5,-174"/>
<text text-anchor="middle" x="583.5" y="-181" font-family="Helvetica,sans-Serif" font-size="10.00">memory</text>
</a>
</g>
</g>
<!-- Node8&#45;&gt;Node14 -->
<g id="edge13" class="edge">
<title>Node8&#45;&gt;Node14</title>
<path fill="none" stroke="midnightblue" d="M583.5,-240.73C583.5,-231.18 583.5,-215.62 583.5,-203.28"/>
<polygon fill="midnightblue" stroke="midnightblue" points="587,-203.13 583.5,-193.13 580,-203.13 587,-203.13"/>
</g>
<!-- Node15 -->
<g id="node15" class="node">
<title>Node15</title>
<g id="a_node15"><a xlink:title=" ">
<polygon fill="white" stroke="#bfbfbf" points="669,-174 669,-193 738,-193 738,-174 669,-174"/>
<text text-anchor="middle" x="703.5" y="-181" font-family="Helvetica,sans-Serif" font-size="10.00">type_traits</text>
</a>
</g>
</g>
<!-- Node8&#45;&gt;Node15 -->
<g id="edge14" class="edge">
<title>Node8&#45;&gt;Node15</title>
<path fill="none" stroke="midnightblue" d="M599.68,-240.73C619.93,-229.77 654.8,-210.88 678.49,-198.05"/>
<polygon fill="midnightblue" stroke="midnightblue" points="680.45,-200.97 687.57,-193.13 677.11,-194.81 680.45,-200.97"/>
</g>
<!-- Node10 -->
<g id="node10" class="node">
<title>Node10</title>
<g id="a_node10"><a xlink:href="vec_8hpp.html" target="_top" xlink:title=" ">
<polygon fill="white" stroke="black" points="1006,-56.5 1006,-75.5 1061,-75.5 1061,-56.5 1006,-56.5"/>
<text text-anchor="middle" x="1033.5" y="-63.5" font-family="Helvetica,sans-Serif" font-size="10.00">vec.hpp</text>
</a>
</g>
</g>
<!-- Node9&#45;&gt;Node10 -->
<g id="edge9" class="edge">
<title>Node9&#45;&gt;Node10</title>
<path fill="none" stroke="midnightblue" d="M923.26,-112.44C944.82,-103.56 978.76,-89.56 1003.29,-79.45"/>
<polygon fill="midnightblue" stroke="midnightblue" points="1004.93,-82.56 1012.84,-75.52 1002.26,-76.09 1004.93,-82.56"/>
</g>
<!-- Node11 -->
<g id="node11" class="node">
<title>Node11</title>
<g id="a_node11"><a xlink:title=" ">
<polygon fill="white" stroke="#bfbfbf" points="999,-0.5 999,-19.5 1068,-19.5 1068,-0.5 999,-0.5"/>
<text text-anchor="middle" x="1033.5" y="-7.5" font-family="Helvetica,sans-Serif" font-size="10.00">Eigen/Core</text>
</a>
</g>
</g>
<!-- Node10&#45;&gt;Node11 -->
<g id="edge10" class="edge">
<title>Node10&#45;&gt;Node11</title>
<path fill="none" stroke="midnightblue" d="M1033.5,-56.08C1033.5,-49.01 1033.5,-38.86 1033.5,-29.99"/>
<polygon fill="midnightblue" stroke="midnightblue" points="1037,-29.75 1033.5,-19.75 1030,-29.75 1037,-29.75"/>
</g>
<!-- Node17 -->
<g id="node17" class="node">
<title>Node17</title>
<g id="a_node17"><a xlink:title=" ">
<polygon fill="white" stroke="#bfbfbf" points="334.5,-174 334.5,-193 382.5,-193 382.5,-174 334.5,-174"/>
<text text-anchor="middle" x="358.5" y="-181" font-family="Helvetica,sans-Serif" font-size="10.00">iosfwd</text>
</a>
</g>
</g>
<!-- Node16&#45;&gt;Node17 -->
<g id="edge16" class="edge">
<title>Node16&#45;&gt;Node17</title>
<path fill="none" stroke="midnightblue" d="M397.43,-240.73C390.48,-230.7 378.93,-214.01 370.21,-201.42"/>
<polygon fill="midnightblue" stroke="midnightblue" points="373.04,-199.36 364.47,-193.13 367.29,-203.34 373.04,-199.36"/>
</g>
<!-- Node19 -->
<g id="node19" class="node">
<title>Node19</title>
<g id="a_node19"><a xlink:href="decl_2lbfgs_8hpp.html" target="_top" xlink:title=" ">
<polygon fill="white" stroke="black" points="880,-235.5 880,-265.5 1027,-265.5 1027,-235.5 880,-235.5"/>
<text text-anchor="start" x="888" y="-253.5" font-family="Helvetica,sans-Serif" font-size="10.00">panoc&#45;alm/inner/directions</text>
<text text-anchor="middle" x="953.5" y="-242.5" font-family="Helvetica,sans-Serif" font-size="10.00">/decl/lbfgs.hpp</text>
</a>
</g>
</g>
<!-- Node18&#45;&gt;Node19 -->
<g id="edge19" class="edge">
<title>Node18&#45;&gt;Node19</title>
<path fill="none" stroke="midnightblue" d="M948.02,-302.4C948.86,-294.56 949.94,-284.6 950.91,-275.57"/>
<polygon fill="midnightblue" stroke="midnightblue" points="954.39,-275.89 951.98,-265.58 947.43,-275.14 954.39,-275.89"/>
</g>
<!-- Node19&#45;&gt;Node9 -->
<g id="edge20" class="edge">
<title>Node19&#45;&gt;Node9</title>
<path fill="none" stroke="midnightblue" d="M954.04,-235.26C954.14,-218.42 952.57,-189.93 942.5,-168 937.46,-157.03 928.83,-146.8 920.87,-138.87"/>
<polygon fill="midnightblue" stroke="midnightblue" points="922.98,-136.05 913.29,-131.77 918.2,-141.16 922.98,-136.05"/>
</g>
<!-- Node19&#45;&gt;Node10 -->
<g id="edge21" class="edge">
<title>Node19&#45;&gt;Node10</title>
<path fill="none" stroke="midnightblue" d="M1027.22,-239.52C1074.93,-231.37 1130.79,-218.07 1145.5,-199 1180.12,-154.1 1102.89,-103.69 1059.86,-80.28"/>
<polygon fill="midnightblue" stroke="midnightblue" points="1061.47,-77.17 1051,-75.57 1058.19,-83.35 1061.47,-77.17"/>
</g>
<!-- Node20 -->
<g id="node20" class="node">
<title>Node20</title>
<g id="a_node20"><a xlink:href="lbfgs-fwd_8hpp.html" target="_top" xlink:title=" ">
<polygon fill="white" stroke="black" points="989,-168.5 989,-198.5 1136,-198.5 1136,-168.5 989,-168.5"/>
<text text-anchor="start" x="997" y="-186.5" font-family="Helvetica,sans-Serif" font-size="10.00">panoc&#45;alm/inner/directions</text>
<text text-anchor="middle" x="1062.5" y="-175.5" font-family="Helvetica,sans-Serif" font-size="10.00">/decl/lbfgs&#45;fwd.hpp</text>
</a>
</g>
</g>
<!-- Node19&#45;&gt;Node20 -->
<g id="edge22" class="edge">
<title>Node19&#45;&gt;Node20</title>
<path fill="none" stroke="midnightblue" d="M977.15,-235.4C992.58,-226.2 1012.92,-214.07 1029.88,-203.95"/>
<polygon fill="midnightblue" stroke="midnightblue" points="1032.1,-206.7 1038.89,-198.58 1028.51,-200.69 1032.1,-206.7"/>
</g>
<!-- Node19&#45;&gt;Node21 -->
<g id="edge23" class="edge">
<title>Node19&#45;&gt;Node21</title>
<path fill="none" stroke="midnightblue" d="M929.85,-235.4C914.42,-226.2 894.08,-214.07 877.12,-203.95"/>
<polygon fill="midnightblue" stroke="midnightblue" points="878.49,-200.69 868.11,-198.58 874.9,-206.7 878.49,-200.69"/>
</g>
<!-- Node21&#45;&gt;Node9 -->
<g id="edge24" class="edge">
<title>Node21&#45;&gt;Node9</title>
<path fill="none" stroke="midnightblue" d="M858.25,-168.4C866.85,-159.58 877.95,-148.18 886.89,-139.02"/>
<polygon fill="midnightblue" stroke="midnightblue" points="889.59,-141.26 894.06,-131.66 884.57,-136.38 889.59,-141.26"/>
</g>
<!-- Node22&#45;&gt;Node15 -->
<g id="edge27" class="edge">
<title>Node22&#45;&gt;Node15</title>
<path fill="none" stroke="midnightblue" d="M738.33,-302.37C731.21,-278.29 716.74,-229.31 708.88,-202.7"/>
<polygon fill="midnightblue" stroke="midnightblue" points="712.23,-201.7 706.04,-193.1 705.52,-203.68 712.23,-201.7"/>
</g>
<!-- Node22&#45;&gt;Node19 -->
<g id="edge26" class="edge">
<title>Node22&#45;&gt;Node19</title>
<path fill="none" stroke="midnightblue" d="M788.02,-302.48C820.22,-292.56 863.58,-279.2 897.83,-268.65"/>
<polygon fill="midnightblue" stroke="midnightblue" points="899.17,-271.9 907.69,-265.61 897.11,-265.21 899.17,-271.9"/>
</g>
</g>
</svg>
