<?xml version="1.0" encoding="UTF-8" standalone="no"?>
<!DOCTYPE svg PUBLIC "-//W3C//DTD SVG 1.1//EN"
 "http://www.w3.org/Graphics/SVG/1.1/DTD/svg11.dtd">
<!-- Generated by graphviz version 2.43.0 (0)
 -->
<!-- Title: panoc.hpp Pages: 1 -->
<svg width="1789pt" height="341pt"
 viewBox="0.00 0.00 1789.00 341.00" xmlns="http://www.w3.org/2000/svg" xmlns:xlink="http://www.w3.org/1999/xlink">
<g id="graph0" class="graph" transform="scale(1 1) rotate(0) translate(4 337)">
<title>panoc.hpp</title>
<polygon fill="white" stroke="transparent" points="-4,4 -4,-337 1785,-337 1785,4 -4,4"/>
<!-- Node1 -->
<g id="node1" class="node">
<title>Node1</title>
<g id="a_node1"><a xlink:title=" ">
<polygon fill="#bfbfbf" stroke="black" points="1239,-313.5 1239,-332.5 1306,-332.5 1306,-313.5 1239,-313.5"/>
<text text-anchor="middle" x="1272.5" y="-320.5" font-family="Helvetica,sans-Serif" font-size="10.00">panoc.hpp</text>
</a>
</g>
</g>
<!-- Node2 -->
<g id="node2" class="node">
<title>Node2</title>
<g id="a_node2"><a xlink:href="inner_2decl_2panoc_8hpp.html" target="_top" xlink:title=" ">
<polygon fill="white" stroke="black" points="455,-246.5 455,-276.5 574,-276.5 574,-246.5 455,-246.5"/>
<text text-anchor="start" x="463" y="-264.5" font-family="Helvetica,sans-Serif" font-size="10.00">panoc&#45;alm/inner/decl</text>
<text text-anchor="middle" x="514.5" y="-253.5" font-family="Helvetica,sans-Serif" font-size="10.00">/panoc.hpp</text>
</a>
</g>
</g>
<!-- Node1&#45;&gt;Node2 -->
<g id="edge1" class="edge">
<title>Node1&#45;&gt;Node2</title>
<path fill="none" stroke="midnightblue" d="M1238.95,-319.37C1123.72,-310.32 742.54,-280.4 584.3,-267.98"/>
<polygon fill="midnightblue" stroke="midnightblue" points="584.45,-264.48 574.2,-267.19 583.9,-271.46 584.45,-264.48"/>
</g>
<!-- Node8 -->
<g id="node8" class="node">
<title>Node8</title>
<g id="a_node8"><a xlink:title=" ">
<polygon fill="white" stroke="#bfbfbf" points="989,-118 989,-137 1054,-137 1054,-118 989,-118"/>
<text text-anchor="middle" x="1021.5" y="-125" font-family="Helvetica,sans-Serif" font-size="10.00">stdexcept</text>
</a>
</g>
</g>
<!-- Node1&#45;&gt;Node8 -->
<g id="edge45" class="edge">
<title>Node1&#45;&gt;Node8</title>
<path fill="none" stroke="midnightblue" d="M1273.11,-313.42C1274.37,-288.62 1274.37,-216.27 1235.5,-179 1180.38,-126.15 1141.33,-162.5 1067.5,-143 1064.08,-142.1 1060.53,-141.09 1056.99,-140.05"/>
<polygon fill="midnightblue" stroke="midnightblue" points="1057.75,-136.63 1047.16,-137.06 1055.71,-143.32 1057.75,-136.63"/>
</g>
<!-- Node10 -->
<g id="node10" class="node">
<title>Node10</title>
<g id="a_node10"><a xlink:href="box_8hpp.html" target="_top" xlink:title=" ">
<polygon fill="white" stroke="black" points="1076,-118 1076,-137 1205,-137 1205,-118 1076,-118"/>
<text text-anchor="middle" x="1140.5" y="-125" font-family="Helvetica,sans-Serif" font-size="10.00">panoc&#45;alm/util/box.hpp</text>
</a>
</g>
</g>
<!-- Node1&#45;&gt;Node10 -->
<g id="edge42" class="edge">
<title>Node1&#45;&gt;Node10</title>
<path fill="none" stroke="midnightblue" d="M1275.18,-313.26C1281.96,-289.24 1297.25,-221.24 1267.5,-179 1253.57,-159.23 1230.6,-147.19 1207.99,-139.87"/>
<polygon fill="midnightblue" stroke="midnightblue" points="1208.94,-136.5 1198.35,-137.01 1206.95,-143.21 1208.94,-136.5"/>
</g>
<!-- Node13 -->
<g id="node13" class="node">
<title>Node13</title>
<g id="a_node13"><a xlink:href="atomic__stop__signal_8hpp.html" target="_top" xlink:title=" ">
<polygon fill="white" stroke="black" points="542.5,-179.5 542.5,-209.5 666.5,-209.5 666.5,-179.5 542.5,-179.5"/>
<text text-anchor="start" x="550.5" y="-197.5" font-family="Helvetica,sans-Serif" font-size="10.00">panoc&#45;alm/util/atomic</text>
<text text-anchor="middle" x="604.5" y="-186.5" font-family="Helvetica,sans-Serif" font-size="10.00">_stop_signal.hpp</text>
</a>
</g>
</g>
<!-- Node1&#45;&gt;Node13 -->
<g id="edge41" class="edge">
<title>Node1&#45;&gt;Node13</title>
<path fill="none" stroke="midnightblue" d="M1238.85,-319.49C1173.94,-314.29 1027.09,-300.79 905.5,-277 817.68,-259.82 717.77,-230.84 658.01,-212.47"/>
<polygon fill="midnightblue" stroke="midnightblue" points="658.99,-209.11 648.41,-209.51 656.93,-215.8 658.99,-209.11"/>
</g>
<!-- Node26 -->
<g id="node26" class="node">
<title>Node26</title>
<g id="a_node26"><a xlink:href="panoc-helpers_8hpp.html" target="_top" xlink:title=" ">
<polygon fill="white" stroke="black" points="914,-246.5 914,-276.5 1041,-276.5 1041,-246.5 914,-246.5"/>
<text text-anchor="start" x="922" y="-264.5" font-family="Helvetica,sans-Serif" font-size="10.00">panoc&#45;alm/inner/detail</text>
<text text-anchor="middle" x="977.5" y="-253.5" font-family="Helvetica,sans-Serif" font-size="10.00">/panoc&#45;helpers.hpp</text>
</a>
</g>
</g>
<!-- Node1&#45;&gt;Node26 -->
<g id="edge28" class="edge">
<title>Node1&#45;&gt;Node26</title>
<path fill="none" stroke="midnightblue" d="M1238.95,-315.23C1193.53,-306.07 1111.25,-289.48 1051.1,-277.34"/>
<polygon fill="midnightblue" stroke="midnightblue" points="1051.76,-273.91 1041.27,-275.36 1050.38,-280.77 1051.76,-273.91"/>
</g>
<!-- Node27 -->
<g id="node27" class="node">
<title>Node27</title>
<g id="a_node27"><a xlink:href="alloc_8hpp.html" target="_top" xlink:title=" ">
<polygon fill="white" stroke="black" points="1432.5,-252 1432.5,-271 1566.5,-271 1566.5,-252 1432.5,-252"/>
<text text-anchor="middle" x="1499.5" y="-259" font-family="Helvetica,sans-Serif" font-size="10.00">panoc&#45;alm/util/alloc.hpp</text>
</a>
</g>
</g>
<!-- Node1&#45;&gt;Node27 -->
<g id="edge34" class="edge">
<title>Node1&#45;&gt;Node27</title>
<path fill="none" stroke="midnightblue" d="M1305.02,-313.48C1345.06,-302.98 1413.14,-285.14 1457.2,-273.59"/>
<polygon fill="midnightblue" stroke="midnightblue" points="1458.25,-276.93 1467.04,-271.01 1456.48,-270.16 1458.25,-276.93"/>
</g>
<!-- Node32 -->
<g id="node32" class="node">
<title>Node32</title>
<g id="a_node32"><a xlink:title=" ">
<polygon fill="white" stroke="#bfbfbf" points="1584.5,-252 1584.5,-271 1640.5,-271 1640.5,-252 1584.5,-252"/>
<text text-anchor="middle" x="1612.5" y="-259" font-family="Helvetica,sans-Serif" font-size="10.00">iomanip</text>
</a>
</g>
</g>
<!-- Node1&#45;&gt;Node32 -->
<g id="edge43" class="edge">
<title>Node1&#45;&gt;Node32</title>
<path fill="none" stroke="midnightblue" d="M1306.18,-319.5C1362.65,-314.75 1479.66,-302.54 1575.5,-277 1578.16,-276.29 1580.89,-275.45 1583.6,-274.54"/>
<polygon fill="midnightblue" stroke="midnightblue" points="1585.01,-277.75 1593.19,-271.02 1582.6,-271.18 1585.01,-277.75"/>
</g>
<!-- Node33 -->
<g id="node33" class="node">
<title>Node33</title>
<g id="a_node33"><a xlink:title=" ">
<polygon fill="white" stroke="#bfbfbf" points="1658.5,-252 1658.5,-271 1718.5,-271 1718.5,-252 1658.5,-252"/>
<text text-anchor="middle" x="1688.5" y="-259" font-family="Helvetica,sans-Serif" font-size="10.00">iostream</text>
</a>
</g>
</g>
<!-- Node1&#45;&gt;Node33 -->
<g id="edge44" class="edge">
<title>Node1&#45;&gt;Node33</title>
<path fill="none" stroke="midnightblue" d="M1306,-320.66C1372.4,-317.43 1525.05,-307.11 1649.5,-277 1652.49,-276.28 1655.57,-275.39 1658.62,-274.42"/>
<polygon fill="midnightblue" stroke="midnightblue" points="1659.85,-277.7 1668.14,-271.11 1657.54,-271.09 1659.85,-277.7"/>
</g>
<!-- Node3 -->
<g id="node3" class="node">
<title>Node3</title>
<g id="a_node3"><a xlink:href="lbfgs-stepsize_8hpp.html" target="_top" xlink:title=" ">
<polygon fill="white" stroke="black" points="0,-179.5 0,-209.5 119,-209.5 119,-179.5 0,-179.5"/>
<text text-anchor="start" x="8" y="-197.5" font-family="Helvetica,sans-Serif" font-size="10.00">panoc&#45;alm/inner/decl</text>
<text text-anchor="middle" x="59.5" y="-186.5" font-family="Helvetica,sans-Serif" font-size="10.00">/lbfgs&#45;stepsize.hpp</text>
</a>
</g>
</g>
<!-- Node2&#45;&gt;Node3 -->
<g id="edge2" class="edge">
<title>Node2&#45;&gt;Node3</title>
<path fill="none" stroke="midnightblue" d="M454.94,-254.23C380.84,-246.1 250.25,-230.67 129.33,-210.24"/>
<polygon fill="midnightblue" stroke="midnightblue" points="129.6,-206.73 119.15,-208.5 128.42,-213.63 129.6,-206.73"/>
</g>
<!-- Node4 -->
<g id="node4" class="node">
<title>Node4</title>
<g id="a_node4"><a xlink:href="panoc-fwd_8hpp.html" target="_top" xlink:title=" ">
<polygon fill="white" stroke="black" points="137,-179.5 137,-209.5 256,-209.5 256,-179.5 137,-179.5"/>
<text text-anchor="start" x="145" y="-197.5" font-family="Helvetica,sans-Serif" font-size="10.00">panoc&#45;alm/inner/decl</text>
<text text-anchor="middle" x="196.5" y="-186.5" font-family="Helvetica,sans-Serif" font-size="10.00">/panoc&#45;fwd.hpp</text>
</a>
</g>
</g>
<!-- Node2&#45;&gt;Node4 -->
<g id="edge3" class="edge">
<title>Node2&#45;&gt;Node4</title>
<path fill="none" stroke="midnightblue" d="M454.86,-248.53C406.67,-238.82 336.81,-224.7 266.29,-210.15"/>
<polygon fill="midnightblue" stroke="midnightblue" points="266.83,-206.69 256.33,-208.1 265.42,-213.55 266.83,-206.69"/>
</g>
<!-- Node6 -->
<g id="node6" class="node">
<title>Node6</title>
<g id="a_node6"><a xlink:href="panoc-stop-crit_8hpp.html" target="_top" xlink:title=" ">
<polygon fill="white" stroke="black" points="874,-179.5 874,-209.5 993,-209.5 993,-179.5 874,-179.5"/>
<text text-anchor="start" x="882" y="-197.5" font-family="Helvetica,sans-Serif" font-size="10.00">panoc&#45;alm/inner/decl</text>
<text text-anchor="middle" x="933.5" y="-186.5" font-family="Helvetica,sans-Serif" font-size="10.00">/panoc&#45;stop&#45;crit.hpp</text>
</a>
</g>
</g>
<!-- Node2&#45;&gt;Node6 -->
<g id="edge5" class="edge">
<title>Node2&#45;&gt;Node6</title>
<path fill="none" stroke="midnightblue" d="M574,-253.18C641.86,-244.55 756.33,-229.15 863.8,-210.24"/>
<polygon fill="midnightblue" stroke="midnightblue" points="864.61,-213.65 873.84,-208.46 863.38,-206.76 864.61,-213.65"/>
</g>
<!-- Node9 -->
<g id="node9" class="node">
<title>Node9</title>
<g id="a_node9"><a xlink:href="panoc-direction-update_8hpp.html" target="_top" xlink:title=" ">
<polygon fill="white" stroke="black" points="1049,-179.5 1049,-209.5 1226,-209.5 1226,-179.5 1049,-179.5"/>
<text text-anchor="start" x="1057" y="-197.5" font-family="Helvetica,sans-Serif" font-size="10.00">panoc&#45;alm/inner/directions</text>
<text text-anchor="middle" x="1137.5" y="-186.5" font-family="Helvetica,sans-Serif" font-size="10.00">/decl/panoc&#45;direction&#45;update.hpp</text>
</a>
</g>
</g>
<!-- Node2&#45;&gt;Node9 -->
<g id="edge8" class="edge">
<title>Node2&#45;&gt;Node9</title>
<path fill="none" stroke="midnightblue" d="M574.23,-254.39C666.22,-244.97 848.13,-226.28 1002.5,-210 1014.22,-208.76 1026.51,-207.46 1038.71,-206.16"/>
<polygon fill="midnightblue" stroke="midnightblue" points="1039.34,-209.61 1048.91,-205.06 1038.6,-202.65 1039.34,-209.61"/>
</g>
<!-- Node2&#45;&gt;Node13 -->
<g id="edge12" class="edge">
<title>Node2&#45;&gt;Node13</title>
<path fill="none" stroke="midnightblue" d="M534.03,-246.4C546.53,-237.37 562.94,-225.51 576.78,-215.52"/>
<polygon fill="midnightblue" stroke="midnightblue" points="578.95,-218.27 585.01,-209.58 574.85,-212.59 578.95,-218.27"/>
</g>
<!-- Node14 -->
<g id="node14" class="node">
<title>Node14</title>
<g id="a_node14"><a xlink:title=" ">
<polygon fill="white" stroke="#bfbfbf" points="575.5,-118 575.5,-137 625.5,-137 625.5,-118 575.5,-118"/>
<text text-anchor="middle" x="600.5" y="-125" font-family="Helvetica,sans-Serif" font-size="10.00">atomic</text>
</a>
</g>
</g>
<!-- Node2&#45;&gt;Node14 -->
<g id="edge24" class="edge">
<title>Node2&#45;&gt;Node14</title>
<path fill="none" stroke="midnightblue" d="M514.91,-246.4C516.02,-229.19 519.95,-199.82 533.5,-179 543.6,-163.48 560.2,-150.92 574.34,-142.2"/>
<polygon fill="midnightblue" stroke="midnightblue" points="576.32,-145.1 583.19,-137.04 572.79,-139.06 576.32,-145.1"/>
</g>
<!-- Node15 -->
<g id="node15" class="node">
<title>Node15</title>
<g id="a_node15"><a xlink:href="lipschitz_8hpp.html" target="_top" xlink:title=" ">
<polygon fill="white" stroke="black" points="402.5,-118 402.5,-137 554.5,-137 554.5,-118 402.5,-118"/>
<text text-anchor="middle" x="478.5" y="-125" font-family="Helvetica,sans-Serif" font-size="10.00">panoc&#45;alm/util/lipschitz.hpp</text>
</a>
</g>
</g>
<!-- Node2&#45;&gt;Node15 -->
<g id="edge14" class="edge">
<title>Node2&#45;&gt;Node15</title>
<path fill="none" stroke="midnightblue" d="M510.55,-246.36C507.73,-236.24 503.86,-222.29 500.5,-210 494.59,-188.41 487.9,-163.57 483.47,-147.04"/>
<polygon fill="midnightblue" stroke="midnightblue" points="486.76,-145.82 480.79,-137.07 480,-147.64 486.76,-145.82"/>
</g>
<!-- Node16 -->
<g id="node16" class="node">
<title>Node16</title>
<g id="a_node16"><a xlink:href="include_2panoc-alm_2util_2problem_8hpp.html" target="_top" xlink:title=" ">
<polygon fill="white" stroke="black" points="1319.5,-185 1319.5,-204 1471.5,-204 1471.5,-185 1319.5,-185"/>
<text text-anchor="middle" x="1395.5" y="-192" font-family="Helvetica,sans-Serif" font-size="10.00">panoc&#45;alm/util/problem.hpp</text>
</a>
</g>
</g>
<!-- Node2&#45;&gt;Node16 -->
<g id="edge16" class="edge">
<title>Node2&#45;&gt;Node16</title>
<path fill="none" stroke="midnightblue" d="M574.35,-256.72C697.95,-248.83 990.35,-229.69 1235.5,-210 1259.46,-208.08 1285.42,-205.8 1309.33,-203.64"/>
<polygon fill="midnightblue" stroke="midnightblue" points="1309.79,-207.11 1319.43,-202.71 1309.15,-200.14 1309.79,-207.11"/>
</g>
<!-- Node21 -->
<g id="node21" class="node">
<title>Node21</title>
<g id="a_node21"><a xlink:href="solverstatus_8hpp.html" target="_top" xlink:title=" ">
<polygon fill="white" stroke="black" points="685,-185 685,-204 856,-204 856,-185 685,-185"/>
<text text-anchor="middle" x="770.5" y="-192" font-family="Helvetica,sans-Serif" font-size="10.00">panoc&#45;alm/util/solverstatus.hpp</text>
</a>
</g>
</g>
<!-- Node2&#45;&gt;Node21 -->
<g id="edge22" class="edge">
<title>Node2&#45;&gt;Node21</title>
<path fill="none" stroke="midnightblue" d="M569.73,-246.48C616.82,-234.52 683.57,-217.57 726.95,-206.56"/>
<polygon fill="midnightblue" stroke="midnightblue" points="728.08,-209.88 736.91,-204.03 726.36,-203.1 728.08,-209.88"/>
</g>
<!-- Node23 -->
<g id="node23" class="node">
<title>Node23</title>
<g id="a_node23"><a xlink:title=" ">
<polygon fill="white" stroke="#bfbfbf" points="274.5,-185 274.5,-204 324.5,-204 324.5,-185 274.5,-185"/>
<text text-anchor="middle" x="299.5" y="-192" font-family="Helvetica,sans-Serif" font-size="10.00">chrono</text>
</a>
</g>
</g>
<!-- Node2&#45;&gt;Node23 -->
<g id="edge25" class="edge">
<title>Node2&#45;&gt;Node23</title>
<path fill="none" stroke="midnightblue" d="M456.84,-246.47C420.99,-237.24 374.13,-224.26 333.5,-210 331.64,-209.35 329.73,-208.64 327.82,-207.9"/>
<polygon fill="midnightblue" stroke="midnightblue" points="328.97,-204.59 318.39,-204.07 326.34,-211.08 328.97,-204.59"/>
</g>
<!-- Node24 -->
<g id="node24" class="node">
<title>Node24</title>
<g id="a_node24"><a xlink:title=" ">
<polygon fill="white" stroke="#bfbfbf" points="342.5,-185 342.5,-204 386.5,-204 386.5,-185 342.5,-185"/>
<text text-anchor="middle" x="364.5" y="-192" font-family="Helvetica,sans-Serif" font-size="10.00">limits</text>
</a>
</g>
</g>
<!-- Node2&#45;&gt;Node24 -->
<g id="edge26" class="edge">
<title>Node2&#45;&gt;Node24</title>
<path fill="none" stroke="midnightblue" d="M480.51,-246.46C456.63,-236.5 423.99,-222.7 395.5,-210 394.31,-209.47 393.1,-208.92 391.87,-208.37"/>
<polygon fill="midnightblue" stroke="midnightblue" points="393.03,-205.05 382.48,-204.04 390.1,-211.41 393.03,-205.05"/>
</g>
<!-- Node25 -->
<g id="node25" class="node">
<title>Node25</title>
<g id="a_node25"><a xlink:title=" ">
<polygon fill="white" stroke="#bfbfbf" points="404.5,-185 404.5,-204 448.5,-204 448.5,-185 404.5,-185"/>
<text text-anchor="middle" x="426.5" y="-192" font-family="Helvetica,sans-Serif" font-size="10.00">string</text>
</a>
</g>
</g>
<!-- Node2&#45;&gt;Node25 -->
<g id="edge27" class="edge">
<title>Node2&#45;&gt;Node25</title>
<path fill="none" stroke="midnightblue" d="M495.41,-246.4C480.92,-235.7 461.07,-221.03 446.39,-210.19"/>
<polygon fill="midnightblue" stroke="midnightblue" points="448.14,-207.13 438.02,-204.01 443.98,-212.76 448.14,-207.13"/>
</g>
<!-- Node5 -->
<g id="node5" class="node">
<title>Node5</title>
<g id="a_node5"><a xlink:href="lbfgs-fwd_8hpp.html" target="_top" xlink:title=" ">
<polygon fill="white" stroke="black" points="123,-112.5 123,-142.5 270,-142.5 270,-112.5 123,-112.5"/>
<text text-anchor="start" x="131" y="-130.5" font-family="Helvetica,sans-Serif" font-size="10.00">panoc&#45;alm/inner/directions</text>
<text text-anchor="middle" x="196.5" y="-119.5" font-family="Helvetica,sans-Serif" font-size="10.00">/decl/lbfgs&#45;fwd.hpp</text>
</a>
</g>
</g>
<!-- Node4&#45;&gt;Node5 -->
<g id="edge4" class="edge">
<title>Node4&#45;&gt;Node5</title>
<path fill="none" stroke="midnightblue" d="M196.5,-179.4C196.5,-171.64 196.5,-161.81 196.5,-152.86"/>
<polygon fill="midnightblue" stroke="midnightblue" points="200,-152.58 196.5,-142.58 193,-152.58 200,-152.58"/>
</g>
<!-- Node7 -->
<g id="node7" class="node">
<title>Node7</title>
<g id="a_node7"><a xlink:title=" ">
<polygon fill="white" stroke="#bfbfbf" points="905,-118 905,-137 962,-137 962,-118 905,-118"/>
<text text-anchor="middle" x="933.5" y="-125" font-family="Helvetica,sans-Serif" font-size="10.00">ostream</text>
</a>
</g>
</g>
<!-- Node6&#45;&gt;Node7 -->
<g id="edge6" class="edge">
<title>Node6&#45;&gt;Node7</title>
<path fill="none" stroke="midnightblue" d="M933.5,-179.4C933.5,-170.06 933.5,-157.71 933.5,-147.52"/>
<polygon fill="midnightblue" stroke="midnightblue" points="937,-147.19 933.5,-137.19 930,-147.19 937,-147.19"/>
</g>
<!-- Node6&#45;&gt;Node8 -->
<g id="edge7" class="edge">
<title>Node6&#45;&gt;Node8</title>
<path fill="none" stroke="midnightblue" d="M952.59,-179.4C967.08,-168.7 986.93,-154.03 1001.61,-143.19"/>
<polygon fill="midnightblue" stroke="midnightblue" points="1004.02,-145.76 1009.98,-137.01 999.86,-140.13 1004.02,-145.76"/>
</g>
<!-- Node9&#45;&gt;Node10 -->
<g id="edge9" class="edge">
<title>Node9&#45;&gt;Node10</title>
<path fill="none" stroke="midnightblue" d="M1138.15,-179.4C1138.59,-169.96 1139.16,-157.45 1139.64,-147.19"/>
<polygon fill="midnightblue" stroke="midnightblue" points="1143.13,-147.35 1140.1,-137.19 1136.14,-147.02 1143.13,-147.35"/>
</g>
<!-- Node11 -->
<g id="node11" class="node">
<title>Node11</title>
<g id="a_node11"><a xlink:href="vec_8hpp.html" target="_top" xlink:title=" ">
<polygon fill="white" stroke="black" points="781,-56.5 781,-75.5 836,-75.5 836,-56.5 781,-56.5"/>
<text text-anchor="middle" x="808.5" y="-63.5" font-family="Helvetica,sans-Serif" font-size="10.00">vec.hpp</text>
</a>
</g>
</g>
<!-- Node10&#45;&gt;Node11 -->
<g id="edge10" class="edge">
<title>Node10&#45;&gt;Node11</title>
<path fill="none" stroke="midnightblue" d="M1095.73,-117.98C1085.16,-115.99 1073.94,-113.9 1063.5,-112 986.29,-97.92 895.8,-82.11 846.04,-73.49"/>
<polygon fill="midnightblue" stroke="midnightblue" points="846.52,-70.02 836.06,-71.76 845.32,-76.91 846.52,-70.02"/>
</g>
<!-- Node12 -->
<g id="node12" class="node">
<title>Node12</title>
<g id="a_node12"><a xlink:title=" ">
<polygon fill="white" stroke="#bfbfbf" points="774,-0.5 774,-19.5 843,-19.5 843,-0.5 774,-0.5"/>
<text text-anchor="middle" x="808.5" y="-7.5" font-family="Helvetica,sans-Serif" font-size="10.00">Eigen/Core</text>
</a>
</g>
</g>
<!-- Node11&#45;&gt;Node12 -->
<g id="edge11" class="edge">
<title>Node11&#45;&gt;Node12</title>
<path fill="none" stroke="midnightblue" d="M808.5,-56.08C808.5,-49.01 808.5,-38.86 808.5,-29.99"/>
<polygon fill="midnightblue" stroke="midnightblue" points="812,-29.75 808.5,-19.75 805,-29.75 812,-29.75"/>
</g>
<!-- Node13&#45;&gt;Node14 -->
<g id="edge13" class="edge">
<title>Node13&#45;&gt;Node14</title>
<path fill="none" stroke="midnightblue" d="M603.63,-179.4C603.05,-169.96 602.28,-157.45 601.65,-147.19"/>
<polygon fill="midnightblue" stroke="midnightblue" points="605.14,-146.96 601.04,-137.19 598.16,-147.39 605.14,-146.96"/>
</g>
<!-- Node15&#45;&gt;Node11 -->
<g id="edge15" class="edge">
<title>Node15&#45;&gt;Node11</title>
<path fill="none" stroke="midnightblue" d="M525.78,-117.98C591.82,-106.07 710.36,-84.69 770.81,-73.79"/>
<polygon fill="midnightblue" stroke="midnightblue" points="771.48,-77.23 780.7,-72.01 770.24,-70.34 771.48,-77.23"/>
</g>
<!-- Node16&#45;&gt;Node10 -->
<g id="edge17" class="edge">
<title>Node16&#45;&gt;Node10</title>
<path fill="none" stroke="midnightblue" d="M1361.9,-184.94C1316.23,-173.29 1234.47,-152.45 1184.11,-139.62"/>
<polygon fill="midnightblue" stroke="midnightblue" points="1184.73,-136.16 1174.17,-137.08 1183,-142.95 1184.73,-136.16"/>
</g>
<!-- Node17 -->
<g id="node17" class="node">
<title>Node17</title>
<g id="a_node17"><a xlink:title=" ">
<polygon fill="white" stroke="#bfbfbf" points="1473.5,-118 1473.5,-137 1525.5,-137 1525.5,-118 1473.5,-118"/>
<text text-anchor="middle" x="1499.5" y="-125" font-family="Helvetica,sans-Serif" font-size="10.00">cassert</text>
</a>
</g>
</g>
<!-- Node16&#45;&gt;Node17 -->
<g id="edge18" class="edge">
<title>Node16&#45;&gt;Node17</title>
<path fill="none" stroke="midnightblue" d="M1409.53,-184.73C1426.83,-173.92 1456.49,-155.38 1476.99,-142.57"/>
<polygon fill="midnightblue" stroke="midnightblue" points="1479.07,-145.4 1485.7,-137.13 1475.36,-139.46 1479.07,-145.4"/>
</g>
<!-- Node18 -->
<g id="node18" class="node">
<title>Node18</title>
<g id="a_node18"><a xlink:title=" ">
<polygon fill="white" stroke="#bfbfbf" points="1314,-118 1314,-137 1379,-137 1379,-118 1314,-118"/>
<text text-anchor="middle" x="1346.5" y="-125" font-family="Helvetica,sans-Serif" font-size="10.00">functional</text>
</a>
</g>
</g>
<!-- Node16&#45;&gt;Node18 -->
<g id="edge19" class="edge">
<title>Node16&#45;&gt;Node18</title>
<path fill="none" stroke="midnightblue" d="M1388.89,-184.73C1381.32,-174.7 1368.75,-158.01 1359.26,-145.42"/>
<polygon fill="midnightblue" stroke="midnightblue" points="1361.82,-143.01 1353,-137.13 1356.23,-147.22 1361.82,-143.01"/>
</g>
<!-- Node19 -->
<g id="node19" class="node">
<title>Node19</title>
<g id="a_node19"><a xlink:title=" ">
<polygon fill="white" stroke="#bfbfbf" points="1397.5,-118 1397.5,-137 1455.5,-137 1455.5,-118 1397.5,-118"/>
<text text-anchor="middle" x="1426.5" y="-125" font-family="Helvetica,sans-Serif" font-size="10.00">memory</text>
</a>
</g>
</g>
<!-- Node16&#45;&gt;Node19 -->
<g id="edge20" class="edge">
<title>Node16&#45;&gt;Node19</title>
<path fill="none" stroke="midnightblue" d="M1399.68,-184.73C1404.38,-174.89 1412.12,-158.66 1418.08,-146.16"/>
<polygon fill="midnightblue" stroke="midnightblue" points="1421.24,-147.66 1422.39,-137.13 1414.92,-144.65 1421.24,-147.66"/>
</g>
<!-- Node20 -->
<g id="node20" class="node">
<title>Node20</title>
<g id="a_node20"><a xlink:title=" ">
<polygon fill="white" stroke="#bfbfbf" points="1227,-118 1227,-137 1296,-137 1296,-118 1227,-118"/>
<text text-anchor="middle" x="1261.5" y="-125" font-family="Helvetica,sans-Serif" font-size="10.00">type_traits</text>
</a>
</g>
</g>
<!-- Node16&#45;&gt;Node20 -->
<g id="edge21" class="edge">
<title>Node16&#45;&gt;Node20</title>
<path fill="none" stroke="midnightblue" d="M1377.71,-184.87C1354.88,-173.8 1315.07,-154.49 1288.5,-141.6"/>
<polygon fill="midnightblue" stroke="midnightblue" points="1289.89,-138.38 1279.37,-137.17 1286.84,-144.68 1289.89,-138.38"/>
</g>
<!-- Node22 -->
<g id="node22" class="node">
<title>Node22</title>
<g id="a_node22"><a xlink:title=" ">
<polygon fill="white" stroke="#bfbfbf" points="746.5,-118 746.5,-137 794.5,-137 794.5,-118 746.5,-118"/>
<text text-anchor="middle" x="770.5" y="-125" font-family="Helvetica,sans-Serif" font-size="10.00">iosfwd</text>
</a>
</g>
</g>
<!-- Node21&#45;&gt;Node22 -->
<g id="edge23" class="edge">
<title>Node21&#45;&gt;Node22</title>
<path fill="none" stroke="midnightblue" d="M770.5,-184.73C770.5,-175.18 770.5,-159.62 770.5,-147.28"/>
<polygon fill="midnightblue" stroke="midnightblue" points="774,-147.13 770.5,-137.13 767,-147.13 774,-147.13"/>
</g>
<!-- Node26&#45;&gt;Node6 -->
<g id="edge29" class="edge">
<title>Node26&#45;&gt;Node6</title>
<path fill="none" stroke="midnightblue" d="M967.95,-246.4C962.36,-238.13 955.17,-227.51 948.8,-218.1"/>
<polygon fill="midnightblue" stroke="midnightblue" points="951.53,-215.9 943.03,-209.58 945.74,-219.82 951.53,-215.9"/>
</g>
<!-- Node26&#45;&gt;Node8 -->
<g id="edge33" class="edge">
<title>Node26&#45;&gt;Node8</title>
<path fill="none" stroke="midnightblue" d="M985.63,-246.3C991.03,-236.39 997.94,-222.71 1002.5,-210 1009.99,-189.11 1015.31,-164.13 1018.38,-147.38"/>
<polygon fill="midnightblue" stroke="midnightblue" points="1021.87,-147.71 1020.14,-137.25 1014.98,-146.5 1021.87,-147.71"/>
</g>
<!-- Node26&#45;&gt;Node13 -->
<g id="edge30" class="edge">
<title>Node26&#45;&gt;Node13</title>
<path fill="none" stroke="midnightblue" d="M913.75,-250.52C854.76,-241.13 764.38,-226.35 676.66,-210.18"/>
<polygon fill="midnightblue" stroke="midnightblue" points="677.28,-206.74 666.81,-208.36 676.01,-213.62 677.28,-206.74"/>
</g>
<!-- Node26&#45;&gt;Node16 -->
<g id="edge31" class="edge">
<title>Node26&#45;&gt;Node16</title>
<path fill="none" stroke="midnightblue" d="M1041.44,-250.56C1119.69,-238.39 1251.46,-217.9 1330.29,-205.64"/>
<polygon fill="midnightblue" stroke="midnightblue" points="1331.23,-209.04 1340.57,-204.04 1330.15,-202.12 1331.23,-209.04"/>
</g>
<!-- Node26&#45;&gt;Node21 -->
<g id="edge32" class="edge">
<title>Node26&#45;&gt;Node21</title>
<path fill="none" stroke="midnightblue" d="M932.84,-246.48C895.41,-234.72 842.61,-218.14 807.51,-207.12"/>
<polygon fill="midnightblue" stroke="midnightblue" points="808.25,-203.69 797.66,-204.03 806.15,-210.36 808.25,-203.69"/>
</g>
<!-- Node27&#45;&gt;Node16 -->
<g id="edge35" class="edge">
<title>Node27&#45;&gt;Node16</title>
<path fill="none" stroke="midnightblue" d="M1485.47,-251.73C1468.17,-240.92 1438.51,-222.38 1418.01,-209.57"/>
<polygon fill="midnightblue" stroke="midnightblue" points="1419.64,-206.46 1409.3,-204.13 1415.93,-212.4 1419.64,-206.46"/>
</g>
<!-- Node27&#45;&gt;Node17 -->
<g id="edge37" class="edge">
<title>Node27&#45;&gt;Node17</title>
<path fill="none" stroke="midnightblue" d="M1499.5,-251.84C1499.5,-230.67 1499.5,-175.95 1499.5,-147.03"/>
<polygon fill="midnightblue" stroke="midnightblue" points="1503,-147.02 1499.5,-137.02 1496,-147.02 1503,-147.02"/>
</g>
<!-- Node28 -->
<g id="node28" class="node">
<title>Node28</title>
<g id="a_node28"><a xlink:title=" ">
<polygon fill="white" stroke="#bfbfbf" points="1527.5,-185 1527.5,-204 1591.5,-204 1591.5,-185 1527.5,-185"/>
<text text-anchor="middle" x="1559.5" y="-192" font-family="Helvetica,sans-Serif" font-size="10.00">algorithm</text>
</a>
</g>
</g>
<!-- Node27&#45;&gt;Node28 -->
<g id="edge36" class="edge">
<title>Node27&#45;&gt;Node28</title>
<path fill="none" stroke="midnightblue" d="M1507.59,-251.73C1517.04,-241.5 1532.86,-224.36 1544.55,-211.69"/>
<polygon fill="midnightblue" stroke="midnightblue" points="1547.33,-213.85 1551.54,-204.13 1542.18,-209.1 1547.33,-213.85"/>
</g>
<!-- Node29 -->
<g id="node29" class="node">
<title>Node29</title>
<g id="a_node29"><a xlink:title=" ">
<polygon fill="white" stroke="#bfbfbf" points="1610,-185 1610,-204 1653,-204 1653,-185 1610,-185"/>
<text text-anchor="middle" x="1631.5" y="-192" font-family="Helvetica,sans-Serif" font-size="10.00">stack</text>
</a>
</g>
</g>
<!-- Node27&#45;&gt;Node29 -->
<g id="edge38" class="edge">
<title>Node27&#45;&gt;Node29</title>
<path fill="none" stroke="midnightblue" d="M1517.03,-251.87C1539.51,-240.8 1578.73,-221.49 1604.9,-208.6"/>
<polygon fill="midnightblue" stroke="midnightblue" points="1606.47,-211.72 1613.9,-204.17 1603.38,-205.44 1606.47,-211.72"/>
</g>
<!-- Node30 -->
<g id="node30" class="node">
<title>Node30</title>
<g id="a_node30"><a xlink:title=" ">
<polygon fill="white" stroke="#bfbfbf" points="1671,-185 1671,-204 1716,-204 1716,-185 1671,-185"/>
<text text-anchor="middle" x="1693.5" y="-192" font-family="Helvetica,sans-Serif" font-size="10.00">utility</text>
</a>
</g>
</g>
<!-- Node27&#45;&gt;Node30 -->
<g id="edge39" class="edge">
<title>Node27&#45;&gt;Node30</title>
<path fill="none" stroke="midnightblue" d="M1531.49,-251.99C1564.68,-242.84 1617.87,-227.26 1662.5,-210 1663.92,-209.45 1665.37,-208.87 1666.82,-208.26"/>
<polygon fill="midnightblue" stroke="midnightblue" points="1668.58,-211.31 1676.3,-204.05 1665.74,-204.91 1668.58,-211.31"/>
</g>
<!-- Node31 -->
<g id="node31" class="node">
<title>Node31</title>
<g id="a_node31"><a xlink:title=" ">
<polygon fill="white" stroke="#bfbfbf" points="1734,-185 1734,-204 1781,-204 1781,-185 1734,-185"/>
<text text-anchor="middle" x="1757.5" y="-192" font-family="Helvetica,sans-Serif" font-size="10.00">vector</text>
</a>
</g>
</g>
<!-- Node27&#45;&gt;Node31 -->
<g id="edge40" class="edge">
<title>Node27&#45;&gt;Node31</title>
<path fill="none" stroke="midnightblue" d="M1542.56,-251.98C1598.24,-240.77 1692.04,-221.19 1725.5,-210 1727.17,-209.44 1728.87,-208.82 1730.57,-208.17"/>
<polygon fill="midnightblue" stroke="midnightblue" points="1732.29,-211.24 1740.16,-204.14 1729.58,-204.79 1732.29,-211.24"/>
</g>
</g>
</svg>
