<?xml version="1.0" encoding="UTF-8" standalone="no"?>
<!DOCTYPE svg PUBLIC "-//W3C//DTD SVG 1.1//EN"
 "http://www.w3.org/Graphics/SVG/1.1/DTD/svg11.dtd">
<!-- Generated by graphviz version 2.43.0 (0)
 -->
<!-- Title: apply Pages: 1 -->
<svg width="550pt" height="192pt"
 viewBox="0.00 0.00 550.00 191.50" xmlns="http://www.w3.org/2000/svg" xmlns:xlink="http://www.w3.org/1999/xlink">
<g id="graph0" class="graph" transform="scale(1 1) rotate(0) translate(4 187.5)">
<title>apply</title>
<polygon fill="white" stroke="transparent" points="-4,4 -4,-187.5 546,-187.5 546,4 -4,4"/>
<!-- Node1 -->
<g id="node1" class="node">
<title>Node1</title>
<g id="a_node1"><a xlink:title=" ">
<polygon fill="#bfbfbf" stroke="black" points="0,-76.5 0,-95.5 44,-95.5 44,-76.5 0,-76.5"/>
<text text-anchor="middle" x="22" y="-83.5" font-family="Helvetica,sans-Serif" font-size="10.00">apply</text>
</a>
</g>
</g>
<!-- Node2 -->
<g id="node2" class="node">
<title>Node2</title>
<g id="a_node2"><a xlink:href="classpa_1_1SpecializedLBFGS.html#a37dd0ce624f9914a61118d8f02fa1c7f" target="_top" xlink:title="Apply the inverse Hessian approximation to the given vector q.">
<polygon fill="white" stroke="black" points="80,-71 80,-101 202,-101 202,-71 80,-71"/>
<text text-anchor="start" x="88" y="-89" font-family="Helvetica,sans-Serif" font-size="10.00">pa::SpecializedLBFGS</text>
<text text-anchor="middle" x="141" y="-78" font-family="Helvetica,sans-Serif" font-size="10.00">::apply</text>
</a>
</g>
</g>
<!-- Node1&#45;&gt;Node2 -->
<g id="edge1" class="edge">
<title>Node1&#45;&gt;Node2</title>
<path fill="none" stroke="midnightblue" d="M44.19,-86C51.64,-86 60.47,-86 69.71,-86"/>
<polygon fill="midnightblue" stroke="midnightblue" points="69.85,-89.5 79.85,-86 69.85,-82.5 69.85,-89.5"/>
</g>
<!-- Node3 -->
<g id="node3" class="node">
<title>Node3</title>
<g id="a_node3"><a xlink:href="classpa_1_1SpecializedLBFGS.html#a5b5fd504f983f6b5f9beb1576ebf591a" target="_top" xlink:title="Get the number of previous vectors s, y, x and g stored in the buffer.">
<polygon fill="white" stroke="black" points="244,-153 244,-183 366,-183 366,-153 244,-153"/>
<text text-anchor="start" x="252" y="-171" font-family="Helvetica,sans-Serif" font-size="10.00">pa::SpecializedLBFGS</text>
<text text-anchor="middle" x="305" y="-160" font-family="Helvetica,sans-Serif" font-size="10.00">::history</text>
</a>
</g>
</g>
<!-- Node2&#45;&gt;Node3 -->
<g id="edge2" class="edge">
<title>Node2&#45;&gt;Node3</title>
<path fill="none" stroke="midnightblue" d="M165.04,-101.23C184.11,-113.44 212.16,-130.55 238,-143 242.33,-145.08 246.87,-147.12 251.47,-149.06"/>
<polygon fill="midnightblue" stroke="midnightblue" points="250.36,-152.39 260.94,-152.93 253,-145.91 250.36,-152.39"/>
</g>
<!-- Node4 -->
<g id="node4" class="node">
<title>Node4</title>
<g id="a_node4"><a xlink:href="classpa_1_1SpecializedLBFGS.html#a644d66009a70ccc909120ba9afa45ea5" target="_top" xlink:title=" ">
<polygon fill="white" stroke="black" points="238.5,-114.5 238.5,-133.5 371.5,-133.5 371.5,-114.5 238.5,-114.5"/>
<text text-anchor="middle" x="305" y="-121.5" font-family="Helvetica,sans-Serif" font-size="10.00">pa::SpecializedLBFGS::s</text>
</a>
</g>
</g>
<!-- Node2&#45;&gt;Node4 -->
<g id="edge3" class="edge">
<title>Node2&#45;&gt;Node4</title>
<path fill="none" stroke="midnightblue" d="M202.32,-100.15C219.16,-104.1 237.27,-108.35 253.48,-112.15"/>
<polygon fill="midnightblue" stroke="midnightblue" points="252.76,-115.58 263.3,-114.45 254.36,-108.76 252.76,-115.58"/>
</g>
<!-- Node6 -->
<g id="node6" class="node">
<title>Node6</title>
<g id="a_node6"><a xlink:href="classpa_1_1SpecializedLBFGS.html#ac18c0672e61d25800877a42a1def3215" target="_top" xlink:title=" ">
<polygon fill="white" stroke="black" points="238,-76.5 238,-95.5 372,-95.5 372,-76.5 238,-76.5"/>
<text text-anchor="middle" x="305" y="-83.5" font-family="Helvetica,sans-Serif" font-size="10.00">pa::SpecializedLBFGS::y</text>
</a>
</g>
</g>
<!-- Node2&#45;&gt;Node6 -->
<g id="edge5" class="edge">
<title>Node2&#45;&gt;Node6</title>
<path fill="none" stroke="midnightblue" d="M202.32,-86C210.66,-86 219.32,-86 227.9,-86"/>
<polygon fill="midnightblue" stroke="midnightblue" points="227.91,-89.5 237.91,-86 227.91,-82.5 227.91,-89.5"/>
</g>
<!-- Node7 -->
<g id="node7" class="node">
<title>Node7</title>
<g id="a_node7"><a xlink:href="classpa_1_1SpecializedLBFGS.html#a66eb6e38840a556b4c0f0bff0901f80c" target="_top" xlink:title=" ">
<polygon fill="white" stroke="black" points="238,-38.5 238,-57.5 372,-57.5 372,-38.5 238,-38.5"/>
<text text-anchor="middle" x="305" y="-45.5" font-family="Helvetica,sans-Serif" font-size="10.00">pa::SpecializedLBFGS::α</text>
</a>
</g>
</g>
<!-- Node2&#45;&gt;Node7 -->
<g id="edge7" class="edge">
<title>Node2&#45;&gt;Node7</title>
<path fill="none" stroke="midnightblue" d="M202.32,-71.85C219.16,-67.9 237.27,-63.65 253.48,-59.85"/>
<polygon fill="midnightblue" stroke="midnightblue" points="254.36,-63.24 263.3,-57.55 252.76,-56.42 254.36,-63.24"/>
</g>
<!-- Node8 -->
<g id="node8" class="node">
<title>Node8</title>
<g id="a_node8"><a xlink:href="classpa_1_1SpecializedLBFGS.html#a630280b47996370bdb569a2799ffdb9f" target="_top" xlink:title=" ">
<polygon fill="white" stroke="black" points="238,-0.5 238,-19.5 372,-19.5 372,-0.5 238,-0.5"/>
<text text-anchor="middle" x="305" y="-7.5" font-family="Helvetica,sans-Serif" font-size="10.00">pa::SpecializedLBFGS::ρ</text>
</a>
</g>
</g>
<!-- Node2&#45;&gt;Node8 -->
<g id="edge9" class="edge">
<title>Node2&#45;&gt;Node8</title>
<path fill="none" stroke="midnightblue" d="M163.64,-70.96C182.56,-58.36 211.13,-40.61 238,-29 243.4,-26.67 249.17,-24.53 254.96,-22.59"/>
<polygon fill="midnightblue" stroke="midnightblue" points="256.19,-25.87 264.68,-19.53 254.09,-19.2 256.19,-25.87"/>
</g>
<!-- Node5 -->
<g id="node5" class="node">
<title>Node5</title>
<g id="a_node5"><a xlink:href="classpa_1_1SpecializedLBFGS.html#ac88f0961aa7ed7c7415550ab2cad49c8" target="_top" xlink:title="Get the size of the s, y, x and g vectors in the buffer.">
<polygon fill="white" stroke="black" points="408,-57.5 408,-76.5 542,-76.5 542,-57.5 408,-57.5"/>
<text text-anchor="middle" x="475" y="-64.5" font-family="Helvetica,sans-Serif" font-size="10.00">pa::SpecializedLBFGS::n</text>
</a>
</g>
</g>
<!-- Node4&#45;&gt;Node5 -->
<g id="edge4" class="edge">
<title>Node4&#45;&gt;Node5</title>
<path fill="none" stroke="midnightblue" d="M341.09,-114.44C351.12,-111.56 362.03,-108.29 372,-105 395.03,-97.41 420.6,-87.88 440.38,-80.26"/>
<polygon fill="midnightblue" stroke="midnightblue" points="441.81,-83.46 449.87,-76.58 439.28,-76.94 441.81,-83.46"/>
</g>
<!-- Node6&#45;&gt;Node5 -->
<g id="edge6" class="edge">
<title>Node6&#45;&gt;Node5</title>
<path fill="none" stroke="midnightblue" d="M372.4,-78.49C380.68,-77.55 389.2,-76.59 397.62,-75.64"/>
<polygon fill="midnightblue" stroke="midnightblue" points="398.27,-79.09 407.81,-74.49 397.48,-72.13 398.27,-79.09"/>
</g>
<!-- Node7&#45;&gt;Node5 -->
<g id="edge8" class="edge">
<title>Node7&#45;&gt;Node5</title>
<path fill="none" stroke="midnightblue" d="M372.4,-55.51C380.68,-56.45 389.2,-57.41 397.62,-58.36"/>
<polygon fill="midnightblue" stroke="midnightblue" points="397.48,-61.87 407.81,-59.51 398.27,-54.91 397.48,-61.87"/>
</g>
<!-- Node8&#45;&gt;Node5 -->
<g id="edge10" class="edge">
<title>Node8&#45;&gt;Node5</title>
<path fill="none" stroke="midnightblue" d="M341.09,-19.56C351.12,-22.44 362.03,-25.71 372,-29 395.03,-36.59 420.6,-46.12 440.38,-53.74"/>
<polygon fill="midnightblue" stroke="midnightblue" points="439.28,-57.06 449.87,-57.42 441.81,-50.54 439.28,-57.06"/>
</g>
</g>
</svg>
