<?xml version="1.0" encoding="UTF-8" standalone="no"?>
<!DOCTYPE svg PUBLIC "-//W3C//DTD SVG 1.1//EN"
 "http://www.w3.org/Graphics/SVG/1.1/DTD/svg11.dtd">
<!-- Generated by graphviz version 2.43.0 (0)
 -->
<!-- Title: end Pages: 1 -->
<svg width="614pt" height="176pt"
 viewBox="0.00 0.00 614.00 176.00" xmlns="http://www.w3.org/2000/svg" xmlns:xlink="http://www.w3.org/1999/xlink">
<g id="graph0" class="graph" transform="scale(1 1) rotate(0) translate(4 172)">
<title>end</title>
<polygon fill="white" stroke="transparent" points="-4,4 -4,-172 610,-172 610,4 -4,4"/>
<!-- Node1 -->
<g id="node1" class="node">
<title>Node1</title>
<g id="a_node1"><a xlink:title=" ">
<polygon fill="#bfbfbf" stroke="black" points="571,-66.5 571,-85.5 606,-85.5 606,-66.5 571,-66.5"/>
<text text-anchor="middle" x="588.5" y="-73.5" font-family="Helvetica,sans-Serif" font-size="10.00">end</text>
</a>
</g>
</g>
<!-- Node2 -->
<g id="node2" class="node">
<title>Node2</title>
<g id="a_node2"><a xlink:href="classpa_1_1vec__allocator.html#a455bb0797853d67addd58875c671acef" target="_top" xlink:title=" ">
<polygon fill="white" stroke="black" points="410,-66.5 410,-85.5 535,-85.5 535,-66.5 410,-66.5"/>
<text text-anchor="middle" x="472.5" y="-73.5" font-family="Helvetica,sans-Serif" font-size="10.00">pa::vec_allocator::free</text>
</a>
</g>
</g>
<!-- Node1&#45;&gt;Node2 -->
<g id="edge1" class="edge">
<title>Node1&#45;&gt;Node2</title>
<path fill="none" stroke="midnightblue" d="M560.52,-76C552.79,-76 544.02,-76 535.1,-76"/>
<polygon fill="midnightblue" stroke="midnightblue" points="560.68,-79.5 570.68,-76 560.68,-72.5 560.68,-79.5"/>
</g>
<!-- Node3 -->
<g id="node3" class="node">
<title>Node3</title>
<g id="a_node3"><a xlink:href="structpa_1_1vec__allocator_1_1alloc__raii__wrapper.html#a18452e09f909587d1d3c035ca0d82095" target="_top" xlink:title=" ">
<polygon fill="white" stroke="black" points="254.5,-126.5 254.5,-167.5 368.5,-167.5 368.5,-126.5 254.5,-126.5"/>
<text text-anchor="start" x="262.5" y="-155.5" font-family="Helvetica,sans-Serif" font-size="10.00">pa::vec_allocator::</text>
<text text-anchor="start" x="262.5" y="-144.5" font-family="Helvetica,sans-Serif" font-size="10.00">alloc_raii_wrapper::</text>
<text text-anchor="middle" x="311.5" y="-133.5" font-family="Helvetica,sans-Serif" font-size="10.00">~alloc_raii_wrapper</text>
</a>
</g>
</g>
<!-- Node2&#45;&gt;Node3 -->
<g id="edge2" class="edge">
<title>Node2&#45;&gt;Node3</title>
<path fill="none" stroke="midnightblue" d="M440.67,-89.77C417.38,-100.17 385.03,-114.61 358.65,-126.39"/>
<polygon fill="midnightblue" stroke="midnightblue" points="442.35,-92.85 450.06,-85.58 439.5,-86.46 442.35,-92.85"/>
</g>
<!-- Node4 -->
<g id="node4" class="node">
<title>Node4</title>
<g id="a_node4"><a xlink:href="classpa_1_1vec__allocator.html#a821eae82738cb75c706967da497d3181" target="_top" xlink:title=" ">
<polygon fill="white" stroke="black" points="249,-88.5 249,-107.5 374,-107.5 374,-88.5 249,-88.5"/>
<text text-anchor="middle" x="311.5" y="-95.5" font-family="Helvetica,sans-Serif" font-size="10.00">pa::vec_allocator::free</text>
</a>
</g>
</g>
<!-- Node2&#45;&gt;Node4 -->
<g id="edge3" class="edge">
<title>Node2&#45;&gt;Node4</title>
<path fill="none" stroke="midnightblue" d="M399.41,-85.97C391.01,-87.14 382.5,-88.31 374.26,-89.45"/>
<polygon fill="midnightblue" stroke="midnightblue" points="400.15,-89.41 409.57,-84.57 399.19,-82.47 400.15,-89.41"/>
</g>
<!-- Node5 -->
<g id="node5" class="node">
<title>Node5</title>
<g id="a_node5"><a xlink:href="namespacepa_1_1detail.html#acf8b14d5069db17a0ab2113bc641cb08" target="_top" xlink:title="Estimate the Lipschitz constant of the gradient &#160;using finite differences.">
<polygon fill="white" stroke="black" points="256,-39 256,-69 367,-69 367,-39 256,-39"/>
<text text-anchor="start" x="264" y="-57" font-family="Helvetica,sans-Serif" font-size="10.00">pa::detail::initial</text>
<text text-anchor="middle" x="311.5" y="-46" font-family="Helvetica,sans-Serif" font-size="10.00">_lipschitz_estimate</text>
</a>
</g>
</g>
<!-- Node2&#45;&gt;Node5 -->
<g id="edge4" class="edge">
<title>Node2&#45;&gt;Node5</title>
<path fill="none" stroke="midnightblue" d="M399.6,-66.05C388.65,-64.54 377.51,-63 367.02,-61.54"/>
<polygon fill="midnightblue" stroke="midnightblue" points="399.19,-69.53 409.57,-67.43 400.15,-62.59 399.19,-69.53"/>
</g>
<!-- Node6 -->
<g id="node6" class="node">
<title>Node6</title>
<g id="a_node6"><a xlink:href="namespacepa.html#a2b97bf67604c439eca0a540664930d61" target="_top" xlink:title=" ">
<polygon fill="white" stroke="black" points="266,-0.5 266,-19.5 357,-19.5 357,-0.5 266,-0.5"/>
<text text-anchor="middle" x="311.5" y="-7.5" font-family="Helvetica,sans-Serif" font-size="10.00">pa::panoc_impl</text>
</a>
</g>
</g>
<!-- Node2&#45;&gt;Node6 -->
<g id="edge5" class="edge">
<title>Node2&#45;&gt;Node6</title>
<path fill="none" stroke="midnightblue" d="M444,-61.88C424.69,-52.25 398.11,-39.56 374,-30 364.5,-26.23 353.99,-22.62 344.38,-19.52"/>
<polygon fill="midnightblue" stroke="midnightblue" points="442.61,-65.1 453.12,-66.47 445.76,-58.85 442.61,-65.1"/>
</g>
<!-- Node7 -->
<g id="node7" class="node">
<title>Node7</title>
<g id="a_node7"><a xlink:href="namespacepa.html#adf74e7674514afed3ae1c356ffcb9e45" target="_top" xlink:title=" ">
<polygon fill="white" stroke="black" points="149,-0.5 149,-19.5 213,-19.5 213,-0.5 149,-0.5"/>
<text text-anchor="middle" x="181" y="-7.5" font-family="Helvetica,sans-Serif" font-size="10.00">pa::panoc</text>
</a>
</g>
</g>
<!-- Node6&#45;&gt;Node7 -->
<g id="edge6" class="edge">
<title>Node6&#45;&gt;Node7</title>
<path fill="none" stroke="midnightblue" d="M255.52,-10C241.03,-10 225.9,-10 213.16,-10"/>
<polygon fill="midnightblue" stroke="midnightblue" points="255.92,-13.5 265.92,-10 255.92,-6.5 255.92,-13.5"/>
</g>
<!-- Node8 -->
<g id="node8" class="node">
<title>Node8</title>
<g id="a_node8"><a xlink:href="panocpy_8cpp.html#a874ce6effe8570e8994966f291e5e321" target="_top" xlink:title=" ">
<polygon fill="white" stroke="black" points="0,-0.5 0,-19.5 113,-19.5 113,-0.5 0,-0.5"/>
<text text-anchor="middle" x="56.5" y="-7.5" font-family="Helvetica,sans-Serif" font-size="10.00">PYBIND11_MODULE</text>
</a>
</g>
</g>
<!-- Node7&#45;&gt;Node8 -->
<g id="edge7" class="edge">
<title>Node7&#45;&gt;Node8</title>
<path fill="none" stroke="midnightblue" d="M138.52,-10C130.45,-10 121.88,-10 113.43,-10"/>
<polygon fill="midnightblue" stroke="midnightblue" points="138.77,-13.5 148.77,-10 138.77,-6.5 138.77,-13.5"/>
</g>
</g>
</svg>
