<?xml version="1.0" encoding="UTF-8" standalone="no"?>
<!DOCTYPE svg PUBLIC "-//W3C//DTD SVG 1.1//EN"
 "http://www.w3.org/Graphics/SVG/1.1/DTD/svg11.dtd">
<!-- Generated by graphviz version 2.43.0 (0)
 -->
<!-- Title: structured&#45;panoc&#45;lbfgs.hpp Pages: 1 -->
<svg width="1658pt" height="397pt"
 viewBox="0.00 0.00 1657.50 397.00" xmlns="http://www.w3.org/2000/svg" xmlns:xlink="http://www.w3.org/1999/xlink">
<g id="graph0" class="graph" transform="scale(1 1) rotate(0) translate(4 393)">
<title>structured&#45;panoc&#45;lbfgs.hpp</title>
<polygon fill="white" stroke="transparent" points="-4,4 -4,-393 1653.5,-393 1653.5,4 -4,4"/>
<!-- Node1 -->
<g id="node1" class="node">
<title>Node1</title>
<g id="a_node1"><a xlink:title=" ">
<polygon fill="#bfbfbf" stroke="black" points="1203.5,-369.5 1203.5,-388.5 1351.5,-388.5 1351.5,-369.5 1203.5,-369.5"/>
<text text-anchor="middle" x="1277.5" y="-376.5" font-family="Helvetica,sans-Serif" font-size="10.00">structured&#45;panoc&#45;lbfgs.hpp</text>
</a>
</g>
</g>
<!-- Node2 -->
<g id="node2" class="node">
<title>Node2</title>
<g id="a_node2"><a xlink:href="decl_2structured-panoc-lbfgs_8hpp.html" target="_top" xlink:title=" ">
<polygon fill="white" stroke="black" points="709,-302.5 709,-332.5 860,-332.5 860,-302.5 709,-302.5"/>
<text text-anchor="start" x="717" y="-320.5" font-family="Helvetica,sans-Serif" font-size="10.00">panoc&#45;alm/inner/decl</text>
<text text-anchor="middle" x="784.5" y="-309.5" font-family="Helvetica,sans-Serif" font-size="10.00">/structured&#45;panoc&#45;lbfgs.hpp</text>
</a>
</g>
</g>
<!-- Node1&#45;&gt;Node2 -->
<g id="edge1" class="edge">
<title>Node1&#45;&gt;Node2</title>
<path fill="none" stroke="midnightblue" d="M1206.87,-369.48C1118.11,-358.76 965.89,-340.39 870.46,-328.87"/>
<polygon fill="midnightblue" stroke="midnightblue" points="870.61,-325.37 860.26,-327.64 869.77,-332.32 870.61,-325.37"/>
</g>
<!-- Node8 -->
<g id="node8" class="node">
<title>Node8</title>
<g id="a_node8"><a xlink:title=" ">
<polygon fill="white" stroke="#bfbfbf" points="1401,-174 1401,-193 1466,-193 1466,-174 1401,-174"/>
<text text-anchor="middle" x="1433.5" y="-181" font-family="Helvetica,sans-Serif" font-size="10.00">stdexcept</text>
</a>
</g>
</g>
<!-- Node1&#45;&gt;Node8 -->
<g id="edge45" class="edge">
<title>Node1&#45;&gt;Node8</title>
<path fill="none" stroke="midnightblue" d="M1301.22,-369.45C1337.9,-354.77 1407.09,-320.96 1435.5,-266 1445.63,-246.4 1442.68,-220.46 1438.83,-203.16"/>
<polygon fill="midnightblue" stroke="midnightblue" points="1442.15,-202.02 1436.29,-193.19 1435.37,-203.75 1442.15,-202.02"/>
</g>
<!-- Node18 -->
<g id="node18" class="node">
<title>Node18</title>
<g id="a_node18"><a xlink:title=" ">
<polygon fill="white" stroke="#bfbfbf" points="599.5,-174 599.5,-193 651.5,-193 651.5,-174 599.5,-174"/>
<text text-anchor="middle" x="625.5" y="-181" font-family="Helvetica,sans-Serif" font-size="10.00">cassert</text>
</a>
</g>
</g>
<!-- Node1&#45;&gt;Node18 -->
<g id="edge41" class="edge">
<title>Node1&#45;&gt;Node18</title>
<path fill="none" stroke="midnightblue" d="M1203.35,-374.61C996.04,-364.37 422.12,-330.37 369.5,-266 277.9,-153.93 250.96,-266.54 566.5,-199 574.03,-197.39 582.06,-195.52 589.7,-193.66"/>
<polygon fill="midnightblue" stroke="midnightblue" points="590.57,-197.06 599.44,-191.26 588.89,-190.26 590.57,-197.06"/>
</g>
<!-- Node27 -->
<g id="node27" class="node">
<title>Node27</title>
<g id="a_node27"><a xlink:href="panoc-helpers_8hpp.html" target="_top" xlink:title=" ">
<polygon fill="white" stroke="black" points="1168,-302.5 1168,-332.5 1295,-332.5 1295,-302.5 1168,-302.5"/>
<text text-anchor="start" x="1176" y="-320.5" font-family="Helvetica,sans-Serif" font-size="10.00">panoc&#45;alm/inner/detail</text>
<text text-anchor="middle" x="1231.5" y="-309.5" font-family="Helvetica,sans-Serif" font-size="10.00">/panoc&#45;helpers.hpp</text>
</a>
</g>
</g>
<!-- Node1&#45;&gt;Node27 -->
<g id="edge32" class="edge">
<title>Node1&#45;&gt;Node27</title>
<path fill="none" stroke="midnightblue" d="M1270.91,-369.48C1265.09,-361.94 1256.34,-350.63 1248.56,-340.57"/>
<polygon fill="midnightblue" stroke="midnightblue" points="1251.23,-338.29 1242.34,-332.52 1245.69,-342.58 1251.23,-338.29"/>
</g>
<!-- Node28 -->
<g id="node28" class="node">
<title>Node28</title>
<g id="a_node28"><a xlink:href="lbfgs_8hpp.html" target="_top" xlink:title=" ">
<polygon fill="white" stroke="black" points="175,-302.5 175,-332.5 322,-332.5 322,-302.5 175,-302.5"/>
<text text-anchor="start" x="183" y="-320.5" font-family="Helvetica,sans-Serif" font-size="10.00">panoc&#45;alm/inner/directions</text>
<text text-anchor="middle" x="248.5" y="-309.5" font-family="Helvetica,sans-Serif" font-size="10.00">/lbfgs.hpp</text>
</a>
</g>
</g>
<!-- Node1&#45;&gt;Node28 -->
<g id="edge38" class="edge">
<title>Node1&#45;&gt;Node28</title>
<path fill="none" stroke="midnightblue" d="M1203.47,-377.36C1044.36,-375.36 658.13,-367.07 336.5,-333 335.2,-332.86 333.89,-332.72 332.57,-332.57"/>
<polygon fill="midnightblue" stroke="midnightblue" points="332.71,-329.06 322.36,-331.31 331.85,-336.01 332.71,-329.06"/>
</g>
<!-- Node29 -->
<g id="node29" class="node">
<title>Node29</title>
<g id="a_node29"><a xlink:title=" ">
<polygon fill="white" stroke="#bfbfbf" points="1450,-308 1450,-327 1497,-327 1497,-308 1450,-308"/>
<text text-anchor="middle" x="1473.5" y="-315" font-family="Helvetica,sans-Serif" font-size="10.00">cmath</text>
</a>
</g>
</g>
<!-- Node1&#45;&gt;Node29 -->
<g id="edge42" class="edge">
<title>Node1&#45;&gt;Node29</title>
<path fill="none" stroke="midnightblue" d="M1310.74,-369.44C1342.89,-360.94 1392.87,-347.17 1435.5,-333 1437.76,-332.25 1440.09,-331.44 1442.42,-330.61"/>
<polygon fill="midnightblue" stroke="midnightblue" points="1443.74,-333.85 1451.91,-327.11 1441.32,-327.29 1443.74,-333.85"/>
</g>
<!-- Node30 -->
<g id="node30" class="node">
<title>Node30</title>
<g id="a_node30"><a xlink:title=" ">
<polygon fill="white" stroke="#bfbfbf" points="1515.5,-308 1515.5,-327 1571.5,-327 1571.5,-308 1515.5,-308"/>
<text text-anchor="middle" x="1543.5" y="-315" font-family="Helvetica,sans-Serif" font-size="10.00">iomanip</text>
</a>
</g>
</g>
<!-- Node1&#45;&gt;Node30 -->
<g id="edge43" class="edge">
<title>Node1&#45;&gt;Node30</title>
<path fill="none" stroke="midnightblue" d="M1336.07,-369.47C1382.76,-361.95 1449.52,-349.62 1506.5,-333 1508.93,-332.29 1511.43,-331.49 1513.92,-330.63"/>
<polygon fill="midnightblue" stroke="midnightblue" points="1515.2,-333.89 1523.37,-327.14 1512.78,-327.32 1515.2,-333.89"/>
</g>
<!-- Node31 -->
<g id="node31" class="node">
<title>Node31</title>
<g id="a_node31"><a xlink:title=" ">
<polygon fill="white" stroke="#bfbfbf" points="1589.5,-308 1589.5,-327 1649.5,-327 1649.5,-308 1589.5,-308"/>
<text text-anchor="middle" x="1619.5" y="-315" font-family="Helvetica,sans-Serif" font-size="10.00">iostream</text>
</a>
</g>
</g>
<!-- Node1&#45;&gt;Node31 -->
<g id="edge44" class="edge">
<title>Node1&#45;&gt;Node31</title>
<path fill="none" stroke="midnightblue" d="M1351.52,-371.36C1413.4,-364.78 1503.63,-352.77 1580.5,-333 1583.32,-332.27 1586.22,-331.42 1589.1,-330.49"/>
<polygon fill="midnightblue" stroke="midnightblue" points="1590.42,-333.74 1598.71,-327.14 1588.11,-327.13 1590.42,-333.74"/>
</g>
<!-- Node3 -->
<g id="node3" class="node">
<title>Node3</title>
<g id="a_node3"><a xlink:href="lbfgs-stepsize_8hpp.html" target="_top" xlink:title=" ">
<polygon fill="white" stroke="black" points="441,-235.5 441,-265.5 560,-265.5 560,-235.5 441,-235.5"/>
<text text-anchor="start" x="449" y="-253.5" font-family="Helvetica,sans-Serif" font-size="10.00">panoc&#45;alm/inner/decl</text>
<text text-anchor="middle" x="500.5" y="-242.5" font-family="Helvetica,sans-Serif" font-size="10.00">/lbfgs&#45;stepsize.hpp</text>
</a>
</g>
</g>
<!-- Node2&#45;&gt;Node3 -->
<g id="edge2" class="edge">
<title>Node2&#45;&gt;Node3</title>
<path fill="none" stroke="midnightblue" d="M723.23,-302.48C678.16,-292.16 616.86,-278.13 569.98,-267.4"/>
<polygon fill="midnightblue" stroke="midnightblue" points="570.73,-263.98 560.2,-265.16 569.17,-270.81 570.73,-263.98"/>
</g>
<!-- Node4 -->
<g id="node4" class="node">
<title>Node4</title>
<g id="a_node4"><a xlink:href="panoc-fwd_8hpp.html" target="_top" xlink:title=" ">
<polygon fill="white" stroke="black" points="165,-235.5 165,-265.5 284,-265.5 284,-235.5 165,-235.5"/>
<text text-anchor="start" x="173" y="-253.5" font-family="Helvetica,sans-Serif" font-size="10.00">panoc&#45;alm/inner/decl</text>
<text text-anchor="middle" x="224.5" y="-242.5" font-family="Helvetica,sans-Serif" font-size="10.00">/panoc&#45;fwd.hpp</text>
</a>
</g>
</g>
<!-- Node2&#45;&gt;Node4 -->
<g id="edge3" class="edge">
<title>Node2&#45;&gt;Node4</title>
<path fill="none" stroke="midnightblue" d="M708.98,-307.73C600.05,-295.09 400.35,-271.91 294.56,-259.63"/>
<polygon fill="midnightblue" stroke="midnightblue" points="294.65,-256.12 284.31,-258.44 293.84,-263.07 294.65,-256.12"/>
</g>
<!-- Node6 -->
<g id="node6" class="node">
<title>Node6</title>
<g id="a_node6"><a xlink:href="panoc-stop-crit_8hpp.html" target="_top" xlink:title=" ">
<polygon fill="white" stroke="black" points="1286,-235.5 1286,-265.5 1405,-265.5 1405,-235.5 1286,-235.5"/>
<text text-anchor="start" x="1294" y="-253.5" font-family="Helvetica,sans-Serif" font-size="10.00">panoc&#45;alm/inner/decl</text>
<text text-anchor="middle" x="1345.5" y="-242.5" font-family="Helvetica,sans-Serif" font-size="10.00">/panoc&#45;stop&#45;crit.hpp</text>
</a>
</g>
</g>
<!-- Node2&#45;&gt;Node6 -->
<g id="edge5" class="edge">
<title>Node2&#45;&gt;Node6</title>
<path fill="none" stroke="midnightblue" d="M860.42,-311.28C955.43,-304.18 1123.27,-289.74 1275.84,-266.16"/>
<polygon fill="midnightblue" stroke="midnightblue" points="1276.52,-269.6 1285.86,-264.6 1275.44,-262.68 1276.52,-269.6"/>
</g>
<!-- Node9 -->
<g id="node9" class="node">
<title>Node9</title>
<g id="a_node9"><a xlink:href="decl_2lbfgs_8hpp.html" target="_top" xlink:title=" ">
<polygon fill="white" stroke="black" points="0,-235.5 0,-265.5 147,-265.5 147,-235.5 0,-235.5"/>
<text text-anchor="start" x="8" y="-253.5" font-family="Helvetica,sans-Serif" font-size="10.00">panoc&#45;alm/inner/directions</text>
<text text-anchor="middle" x="73.5" y="-242.5" font-family="Helvetica,sans-Serif" font-size="10.00">/decl/lbfgs.hpp</text>
</a>
</g>
</g>
<!-- Node2&#45;&gt;Node9 -->
<g id="edge8" class="edge">
<title>Node2&#45;&gt;Node9</title>
<path fill="none" stroke="midnightblue" d="M708.74,-312.74C592.24,-306.45 361.93,-291.98 157.24,-266.15"/>
<polygon fill="midnightblue" stroke="midnightblue" points="157.57,-262.67 147.21,-264.87 156.68,-269.61 157.57,-262.67"/>
</g>
<!-- Node14 -->
<g id="node14" class="node">
<title>Node14</title>
<g id="a_node14"><a xlink:href="atomic__stop__signal_8hpp.html" target="_top" xlink:title=" ">
<polygon fill="white" stroke="black" points="916.5,-235.5 916.5,-265.5 1040.5,-265.5 1040.5,-235.5 916.5,-235.5"/>
<text text-anchor="start" x="924.5" y="-253.5" font-family="Helvetica,sans-Serif" font-size="10.00">panoc&#45;alm/util/atomic</text>
<text text-anchor="middle" x="978.5" y="-242.5" font-family="Helvetica,sans-Serif" font-size="10.00">_stop_signal.hpp</text>
</a>
</g>
</g>
<!-- Node2&#45;&gt;Node14 -->
<g id="edge16" class="edge">
<title>Node2&#45;&gt;Node14</title>
<path fill="none" stroke="midnightblue" d="M826.6,-302.4C855.96,-292.56 895.33,-279.37 926.63,-268.88"/>
<polygon fill="midnightblue" stroke="midnightblue" points="928.12,-272.07 936.49,-265.58 925.89,-265.43 928.12,-272.07"/>
</g>
<!-- Node15 -->
<g id="node15" class="node">
<title>Node15</title>
<g id="a_node15"><a xlink:title=" ">
<polygon fill="white" stroke="#bfbfbf" points="888.5,-174 888.5,-193 938.5,-193 938.5,-174 888.5,-174"/>
<text text-anchor="middle" x="913.5" y="-181" font-family="Helvetica,sans-Serif" font-size="10.00">atomic</text>
</a>
</g>
</g>
<!-- Node2&#45;&gt;Node15 -->
<g id="edge28" class="edge">
<title>Node2&#45;&gt;Node15</title>
<path fill="none" stroke="midnightblue" d="M817.24,-302.31C834.36,-293.68 854.76,-281.36 869.5,-266 887.29,-247.47 900.01,-220.33 907.06,-202.54"/>
<polygon fill="midnightblue" stroke="midnightblue" points="910.38,-203.65 910.63,-193.06 903.83,-201.18 910.38,-203.65"/>
</g>
<!-- Node16 -->
<g id="node16" class="node">
<title>Node16</title>
<g id="a_node16"><a xlink:href="lipschitz_8hpp.html" target="_top" xlink:title=" ">
<polygon fill="white" stroke="black" points="632.5,-112.5 632.5,-131.5 784.5,-131.5 784.5,-112.5 632.5,-112.5"/>
<text text-anchor="middle" x="708.5" y="-119.5" font-family="Helvetica,sans-Serif" font-size="10.00">panoc&#45;alm/util/lipschitz.hpp</text>
</a>
</g>
</g>
<!-- Node2&#45;&gt;Node16 -->
<g id="edge18" class="edge">
<title>Node2&#45;&gt;Node16</title>
<path fill="none" stroke="midnightblue" d="M860.24,-312.55C929.89,-307.14 1025.84,-294.6 1049.5,-266 1058.28,-255.38 1056.04,-247.13 1049.5,-235 1023.74,-187.27 997.8,-188.3 947.5,-168 898.9,-148.38 841.23,-137.21 794.72,-130.9"/>
<polygon fill="midnightblue" stroke="midnightblue" points="795.04,-127.41 784.67,-129.59 794.13,-134.36 795.04,-127.41"/>
</g>
<!-- Node17 -->
<g id="node17" class="node">
<title>Node17</title>
<g id="a_node17"><a xlink:href="include_2panoc-alm_2util_2problem_8hpp.html" target="_top" xlink:title=" ">
<polygon fill="white" stroke="black" points="708.5,-241 708.5,-260 860.5,-260 860.5,-241 708.5,-241"/>
<text text-anchor="middle" x="784.5" y="-248" font-family="Helvetica,sans-Serif" font-size="10.00">panoc&#45;alm/util/problem.hpp</text>
</a>
</g>
</g>
<!-- Node2&#45;&gt;Node17 -->
<g id="edge20" class="edge">
<title>Node2&#45;&gt;Node17</title>
<path fill="none" stroke="midnightblue" d="M784.5,-302.4C784.5,-293.06 784.5,-280.71 784.5,-270.52"/>
<polygon fill="midnightblue" stroke="midnightblue" points="788,-270.19 784.5,-260.19 781,-270.19 788,-270.19"/>
</g>
<!-- Node22 -->
<g id="node22" class="node">
<title>Node22</title>
<g id="a_node22"><a xlink:href="solverstatus_8hpp.html" target="_top" xlink:title=" ">
<polygon fill="white" stroke="black" points="1097,-241 1097,-260 1268,-260 1268,-241 1097,-241"/>
<text text-anchor="middle" x="1182.5" y="-248" font-family="Helvetica,sans-Serif" font-size="10.00">panoc&#45;alm/util/solverstatus.hpp</text>
</a>
</g>
</g>
<!-- Node2&#45;&gt;Node22 -->
<g id="edge26" class="edge">
<title>Node2&#45;&gt;Node22</title>
<path fill="none" stroke="midnightblue" d="M860.3,-304.12C935.75,-291.8 1050.16,-273.11 1120.41,-261.64"/>
<polygon fill="midnightblue" stroke="midnightblue" points="1121.14,-265.07 1130.44,-260 1120.01,-258.16 1121.14,-265.07"/>
</g>
<!-- Node24 -->
<g id="node24" class="node">
<title>Node24</title>
<g id="a_node24"><a xlink:title=" ">
<polygon fill="white" stroke="#bfbfbf" points="578.5,-241 578.5,-260 628.5,-260 628.5,-241 578.5,-241"/>
<text text-anchor="middle" x="603.5" y="-248" font-family="Helvetica,sans-Serif" font-size="10.00">chrono</text>
</a>
</g>
</g>
<!-- Node2&#45;&gt;Node24 -->
<g id="edge29" class="edge">
<title>Node2&#45;&gt;Node24</title>
<path fill="none" stroke="midnightblue" d="M740.79,-302.4C711.39,-292.7 671.88,-279.22 637.5,-266 635.85,-265.37 634.17,-264.7 632.47,-264.02"/>
<polygon fill="midnightblue" stroke="midnightblue" points="633.4,-260.62 622.82,-260.02 630.72,-267.08 633.4,-260.62"/>
</g>
<!-- Node25 -->
<g id="node25" class="node">
<title>Node25</title>
<g id="a_node25"><a xlink:title=" ">
<polygon fill="white" stroke="#bfbfbf" points="646.5,-241 646.5,-260 690.5,-260 690.5,-241 646.5,-241"/>
<text text-anchor="middle" x="668.5" y="-248" font-family="Helvetica,sans-Serif" font-size="10.00">limits</text>
</a>
</g>
</g>
<!-- Node2&#45;&gt;Node25 -->
<g id="edge30" class="edge">
<title>Node2&#45;&gt;Node25</title>
<path fill="none" stroke="midnightblue" d="M759.33,-302.4C739.52,-291.29 712.08,-275.92 692.56,-264.98"/>
<polygon fill="midnightblue" stroke="midnightblue" points="694.12,-261.84 683.68,-260.01 690.69,-267.95 694.12,-261.84"/>
</g>
<!-- Node26 -->
<g id="node26" class="node">
<title>Node26</title>
<g id="a_node26"><a xlink:title=" ">
<polygon fill="white" stroke="#bfbfbf" points="378.5,-241 378.5,-260 422.5,-260 422.5,-241 378.5,-241"/>
<text text-anchor="middle" x="400.5" y="-248" font-family="Helvetica,sans-Serif" font-size="10.00">string</text>
</a>
</g>
</g>
<!-- Node2&#45;&gt;Node26 -->
<g id="edge31" class="edge">
<title>Node2&#45;&gt;Node26</title>
<path fill="none" stroke="midnightblue" d="M708.75,-312.15C636.31,-306.48 524.64,-293.78 431.5,-266 429.62,-265.44 427.71,-264.78 425.81,-264.06"/>
<polygon fill="midnightblue" stroke="midnightblue" points="427.13,-260.82 416.56,-260.11 424.37,-267.26 427.13,-260.82"/>
</g>
<!-- Node5 -->
<g id="node5" class="node">
<title>Node5</title>
<g id="a_node5"><a xlink:href="lbfgs-fwd_8hpp.html" target="_top" xlink:title=" ">
<polygon fill="white" stroke="black" points="296,-168.5 296,-198.5 443,-198.5 443,-168.5 296,-168.5"/>
<text text-anchor="start" x="304" y="-186.5" font-family="Helvetica,sans-Serif" font-size="10.00">panoc&#45;alm/inner/directions</text>
<text text-anchor="middle" x="369.5" y="-175.5" font-family="Helvetica,sans-Serif" font-size="10.00">/decl/lbfgs&#45;fwd.hpp</text>
</a>
</g>
</g>
<!-- Node4&#45;&gt;Node5 -->
<g id="edge4" class="edge">
<title>Node4&#45;&gt;Node5</title>
<path fill="none" stroke="midnightblue" d="M255.96,-235.4C277.34,-225.81 305.81,-213.05 328.9,-202.7"/>
<polygon fill="midnightblue" stroke="midnightblue" points="330.41,-205.86 338.1,-198.58 327.54,-199.47 330.41,-205.86"/>
</g>
<!-- Node7 -->
<g id="node7" class="node">
<title>Node7</title>
<g id="a_node7"><a xlink:title=" ">
<polygon fill="white" stroke="#bfbfbf" points="1317,-174 1317,-193 1374,-193 1374,-174 1317,-174"/>
<text text-anchor="middle" x="1345.5" y="-181" font-family="Helvetica,sans-Serif" font-size="10.00">ostream</text>
</a>
</g>
</g>
<!-- Node6&#45;&gt;Node7 -->
<g id="edge6" class="edge">
<title>Node6&#45;&gt;Node7</title>
<path fill="none" stroke="midnightblue" d="M1345.5,-235.4C1345.5,-226.06 1345.5,-213.71 1345.5,-203.52"/>
<polygon fill="midnightblue" stroke="midnightblue" points="1349,-203.19 1345.5,-193.19 1342,-203.19 1349,-203.19"/>
</g>
<!-- Node6&#45;&gt;Node8 -->
<g id="edge7" class="edge">
<title>Node6&#45;&gt;Node8</title>
<path fill="none" stroke="midnightblue" d="M1364.59,-235.4C1379.08,-224.7 1398.93,-210.03 1413.61,-199.19"/>
<polygon fill="midnightblue" stroke="midnightblue" points="1416.02,-201.76 1421.98,-193.01 1411.86,-196.13 1416.02,-201.76"/>
</g>
<!-- Node9&#45;&gt;Node5 -->
<g id="edge13" class="edge">
<title>Node9&#45;&gt;Node5</title>
<path fill="none" stroke="midnightblue" d="M137.36,-235.48C183.87,-225.26 246.98,-211.41 295.65,-200.72"/>
<polygon fill="midnightblue" stroke="midnightblue" points="296.48,-204.12 305.5,-198.55 294.98,-197.28 296.48,-204.12"/>
</g>
<!-- Node10 -->
<g id="node10" class="node">
<title>Node10</title>
<g id="a_node10"><a xlink:href="box_8hpp.html" target="_top" xlink:title=" ">
<polygon fill="white" stroke="black" points="125,-112.5 125,-131.5 254,-131.5 254,-112.5 125,-112.5"/>
<text text-anchor="middle" x="189.5" y="-119.5" font-family="Helvetica,sans-Serif" font-size="10.00">panoc&#45;alm/util/box.hpp</text>
</a>
</g>
</g>
<!-- Node9&#45;&gt;Node10 -->
<g id="edge9" class="edge">
<title>Node9&#45;&gt;Node10</title>
<path fill="none" stroke="midnightblue" d="M72.99,-235.2C73.1,-217.52 75.85,-187.4 91.5,-168 104.25,-152.19 123.8,-141.7 142.09,-134.86"/>
<polygon fill="midnightblue" stroke="midnightblue" points="143.47,-138.08 151.79,-131.51 141.19,-131.47 143.47,-138.08"/>
</g>
<!-- Node11 -->
<g id="node11" class="node">
<title>Node11</title>
<g id="a_node11"><a xlink:href="vec_8hpp.html" target="_top" xlink:title=" ">
<polygon fill="white" stroke="black" points="162,-56.5 162,-75.5 217,-75.5 217,-56.5 162,-56.5"/>
<text text-anchor="middle" x="189.5" y="-63.5" font-family="Helvetica,sans-Serif" font-size="10.00">vec.hpp</text>
</a>
</g>
</g>
<!-- Node9&#45;&gt;Node11 -->
<g id="edge12" class="edge">
<title>Node9&#45;&gt;Node11</title>
<path fill="none" stroke="midnightblue" d="M70.84,-235.22C68.33,-218.6 65.98,-190.55 73.5,-168 87.44,-126.17 131.66,-96.28 161.3,-80.33"/>
<polygon fill="midnightblue" stroke="midnightblue" points="163.08,-83.35 170.35,-75.65 159.86,-77.13 163.08,-83.35"/>
</g>
<!-- Node13 -->
<g id="node13" class="node">
<title>Node13</title>
<g id="a_node13"><a xlink:href="panoc-direction-update_8hpp.html" target="_top" xlink:title=" ">
<polygon fill="white" stroke="black" points="101,-168.5 101,-198.5 278,-198.5 278,-168.5 101,-168.5"/>
<text text-anchor="start" x="109" y="-186.5" font-family="Helvetica,sans-Serif" font-size="10.00">panoc&#45;alm/inner/directions</text>
<text text-anchor="middle" x="189.5" y="-175.5" font-family="Helvetica,sans-Serif" font-size="10.00">/decl/panoc&#45;direction&#45;update.hpp</text>
</a>
</g>
</g>
<!-- Node9&#45;&gt;Node13 -->
<g id="edge14" class="edge">
<title>Node9&#45;&gt;Node13</title>
<path fill="none" stroke="midnightblue" d="M98.67,-235.4C115.24,-226.11 137.14,-213.84 155.28,-203.67"/>
<polygon fill="midnightblue" stroke="midnightblue" points="157.37,-206.52 164.38,-198.58 153.94,-200.41 157.37,-206.52"/>
</g>
<!-- Node10&#45;&gt;Node11 -->
<g id="edge10" class="edge">
<title>Node10&#45;&gt;Node11</title>
<path fill="none" stroke="midnightblue" d="M189.5,-112.08C189.5,-105.01 189.5,-94.86 189.5,-85.99"/>
<polygon fill="midnightblue" stroke="midnightblue" points="193,-85.75 189.5,-75.75 186,-85.75 193,-85.75"/>
</g>
<!-- Node12 -->
<g id="node12" class="node">
<title>Node12</title>
<g id="a_node12"><a xlink:title=" ">
<polygon fill="white" stroke="#bfbfbf" points="155,-0.5 155,-19.5 224,-19.5 224,-0.5 155,-0.5"/>
<text text-anchor="middle" x="189.5" y="-7.5" font-family="Helvetica,sans-Serif" font-size="10.00">Eigen/Core</text>
</a>
</g>
</g>
<!-- Node11&#45;&gt;Node12 -->
<g id="edge11" class="edge">
<title>Node11&#45;&gt;Node12</title>
<path fill="none" stroke="midnightblue" d="M189.5,-56.08C189.5,-49.01 189.5,-38.86 189.5,-29.99"/>
<polygon fill="midnightblue" stroke="midnightblue" points="193,-29.75 189.5,-19.75 186,-29.75 193,-29.75"/>
</g>
<!-- Node13&#45;&gt;Node10 -->
<g id="edge15" class="edge">
<title>Node13&#45;&gt;Node10</title>
<path fill="none" stroke="midnightblue" d="M189.5,-168.4C189.5,-160.47 189.5,-150.46 189.5,-141.86"/>
<polygon fill="midnightblue" stroke="midnightblue" points="193,-141.66 189.5,-131.66 186,-141.66 193,-141.66"/>
</g>
<!-- Node14&#45;&gt;Node15 -->
<g id="edge17" class="edge">
<title>Node14&#45;&gt;Node15</title>
<path fill="none" stroke="midnightblue" d="M964.4,-235.4C954.06,-225.06 940.02,-211.02 929.31,-200.31"/>
<polygon fill="midnightblue" stroke="midnightblue" points="931.74,-197.79 922.19,-193.19 926.79,-202.74 931.74,-197.79"/>
</g>
<!-- Node16&#45;&gt;Node11 -->
<g id="edge19" class="edge">
<title>Node16&#45;&gt;Node11</title>
<path fill="none" stroke="midnightblue" d="M632.48,-113.09C519.63,-101.35 312.02,-79.75 227.15,-70.92"/>
<polygon fill="midnightblue" stroke="midnightblue" points="227.5,-67.43 217.19,-69.88 226.77,-74.4 227.5,-67.43"/>
</g>
<!-- Node17&#45;&gt;Node10 -->
<g id="edge21" class="edge">
<title>Node17&#45;&gt;Node10</title>
<path fill="none" stroke="midnightblue" d="M772.78,-240.73C746.82,-221.48 684.8,-176.55 660.5,-168 589.42,-142.99 378.32,-130.71 264.39,-125.77"/>
<polygon fill="midnightblue" stroke="midnightblue" points="264.49,-122.27 254.35,-125.34 264.19,-129.26 264.49,-122.27"/>
</g>
<!-- Node17&#45;&gt;Node18 -->
<g id="edge22" class="edge">
<title>Node17&#45;&gt;Node18</title>
<path fill="none" stroke="midnightblue" d="M763.39,-240.87C735.87,-229.62 687.55,-209.87 656.04,-196.99"/>
<polygon fill="midnightblue" stroke="midnightblue" points="657.03,-193.61 646.45,-193.06 654.38,-200.09 657.03,-193.61"/>
</g>
<!-- Node19 -->
<g id="node19" class="node">
<title>Node19</title>
<g id="a_node19"><a xlink:title=" ">
<polygon fill="white" stroke="#bfbfbf" points="726,-174 726,-193 791,-193 791,-174 726,-174"/>
<text text-anchor="middle" x="758.5" y="-181" font-family="Helvetica,sans-Serif" font-size="10.00">functional</text>
</a>
</g>
</g>
<!-- Node17&#45;&gt;Node19 -->
<g id="edge23" class="edge">
<title>Node17&#45;&gt;Node19</title>
<path fill="none" stroke="midnightblue" d="M780.99,-240.73C777.1,-230.99 770.69,-214.98 765.71,-202.53"/>
<polygon fill="midnightblue" stroke="midnightblue" points="768.91,-201.11 761.95,-193.13 762.42,-203.71 768.91,-201.11"/>
</g>
<!-- Node20 -->
<g id="node20" class="node">
<title>Node20</title>
<g id="a_node20"><a xlink:title=" ">
<polygon fill="white" stroke="#bfbfbf" points="809.5,-174 809.5,-193 867.5,-193 867.5,-174 809.5,-174"/>
<text text-anchor="middle" x="838.5" y="-181" font-family="Helvetica,sans-Serif" font-size="10.00">memory</text>
</a>
</g>
</g>
<!-- Node17&#45;&gt;Node20 -->
<g id="edge24" class="edge">
<title>Node17&#45;&gt;Node20</title>
<path fill="none" stroke="midnightblue" d="M791.78,-240.73C800.2,-230.6 814.25,-213.69 824.75,-201.06"/>
<polygon fill="midnightblue" stroke="midnightblue" points="827.63,-203.06 831.33,-193.13 822.25,-198.58 827.63,-203.06"/>
</g>
<!-- Node21 -->
<g id="node21" class="node">
<title>Node21</title>
<g id="a_node21"><a xlink:title=" ">
<polygon fill="white" stroke="#bfbfbf" points="489,-174 489,-193 558,-193 558,-174 489,-174"/>
<text text-anchor="middle" x="523.5" y="-181" font-family="Helvetica,sans-Serif" font-size="10.00">type_traits</text>
</a>
</g>
</g>
<!-- Node17&#45;&gt;Node21 -->
<g id="edge25" class="edge">
<title>Node17&#45;&gt;Node21</title>
<path fill="none" stroke="midnightblue" d="M750.11,-240.94C703.26,-229.27 619.33,-208.37 567.82,-195.54"/>
<polygon fill="midnightblue" stroke="midnightblue" points="568.52,-192.1 557.97,-193.08 566.82,-198.9 568.52,-192.1"/>
</g>
<!-- Node23 -->
<g id="node23" class="node">
<title>Node23</title>
<g id="a_node23"><a xlink:title=" ">
<polygon fill="white" stroke="#bfbfbf" points="1158.5,-174 1158.5,-193 1206.5,-193 1206.5,-174 1158.5,-174"/>
<text text-anchor="middle" x="1182.5" y="-181" font-family="Helvetica,sans-Serif" font-size="10.00">iosfwd</text>
</a>
</g>
</g>
<!-- Node22&#45;&gt;Node23 -->
<g id="edge27" class="edge">
<title>Node22&#45;&gt;Node23</title>
<path fill="none" stroke="midnightblue" d="M1182.5,-240.73C1182.5,-231.18 1182.5,-215.62 1182.5,-203.28"/>
<polygon fill="midnightblue" stroke="midnightblue" points="1186,-203.13 1182.5,-193.13 1179,-203.13 1186,-203.13"/>
</g>
<!-- Node27&#45;&gt;Node6 -->
<g id="edge33" class="edge">
<title>Node27&#45;&gt;Node6</title>
<path fill="none" stroke="midnightblue" d="M1256.24,-302.4C1272.52,-293.11 1294.04,-280.84 1311.87,-270.67"/>
<polygon fill="midnightblue" stroke="midnightblue" points="1313.86,-273.57 1320.81,-265.58 1310.39,-267.49 1313.86,-273.57"/>
</g>
<!-- Node27&#45;&gt;Node8 -->
<g id="edge37" class="edge">
<title>Node27&#45;&gt;Node8</title>
<path fill="none" stroke="midnightblue" d="M1295.28,-314.78C1334.84,-310.29 1383.79,-297.97 1414.5,-266 1430.59,-249.25 1433.99,-221.65 1434.28,-203.27"/>
<polygon fill="midnightblue" stroke="midnightblue" points="1437.78,-203.16 1434.14,-193.2 1430.78,-203.25 1437.78,-203.16"/>
</g>
<!-- Node27&#45;&gt;Node14 -->
<g id="edge34" class="edge">
<title>Node27&#45;&gt;Node14</title>
<path fill="none" stroke="midnightblue" d="M1176.91,-302.48C1137.65,-292.39 1084.53,-278.74 1043.14,-268.11"/>
<polygon fill="midnightblue" stroke="midnightblue" points="1043.98,-264.71 1033.42,-265.61 1042.24,-271.49 1043.98,-264.71"/>
</g>
<!-- Node27&#45;&gt;Node17 -->
<g id="edge35" class="edge">
<title>Node27&#45;&gt;Node17</title>
<path fill="none" stroke="midnightblue" d="M1167.93,-307.26C1084.58,-295.14 938.91,-273.95 853.12,-261.48"/>
<polygon fill="midnightblue" stroke="midnightblue" points="853.62,-258.01 843.22,-260.04 852.62,-264.94 853.62,-258.01"/>
</g>
<!-- Node27&#45;&gt;Node22 -->
<g id="edge36" class="edge">
<title>Node27&#45;&gt;Node22</title>
<path fill="none" stroke="midnightblue" d="M1220.87,-302.4C1213.3,-292.36 1203.11,-278.84 1195.13,-268.25"/>
<polygon fill="midnightblue" stroke="midnightblue" points="1197.87,-266.07 1189.05,-260.19 1192.28,-270.29 1197.87,-266.07"/>
</g>
<!-- Node28&#45;&gt;Node9 -->
<g id="edge39" class="edge">
<title>Node28&#45;&gt;Node9</title>
<path fill="none" stroke="midnightblue" d="M210.53,-302.4C184.27,-292.64 149.14,-279.59 121.02,-269.15"/>
<polygon fill="midnightblue" stroke="midnightblue" points="121.99,-265.78 111.4,-265.58 119.55,-272.34 121.99,-265.78"/>
</g>
<!-- Node28&#45;&gt;Node21 -->
<g id="edge40" class="edge">
<title>Node28&#45;&gt;Node21</title>
<path fill="none" stroke="midnightblue" d="M259.78,-302.48C275.2,-284.25 304.62,-252.64 336.5,-235 360.83,-221.54 431.76,-204.4 478.93,-193.95"/>
<polygon fill="midnightblue" stroke="midnightblue" points="479.88,-197.32 488.9,-191.76 478.38,-190.48 479.88,-197.32"/>
</g>
</g>
</svg>
