<?xml version="1.0" encoding="UTF-8" standalone="no"?>
<!DOCTYPE svg PUBLIC "-//W3C//DTD SVG 1.1//EN"
 "http://www.w3.org/Graphics/SVG/1.1/DTD/svg11.dtd">
<!-- Generated by graphviz version 2.43.0 (0)
 -->
<!-- Title: alm&#45;helpers.hpp Pages: 1 -->
<svg width="668pt" height="330pt"
 viewBox="0.00 0.00 667.50 330.00" xmlns="http://www.w3.org/2000/svg" xmlns:xlink="http://www.w3.org/1999/xlink">
<g id="graph0" class="graph" transform="scale(1 1) rotate(0) translate(4 326)">
<title>alm&#45;helpers.hpp</title>
<polygon fill="white" stroke="transparent" points="-4,4 -4,-326 663.5,-326 663.5,4 -4,4"/>
<!-- Node1 -->
<g id="node1" class="node">
<title>Node1</title>
<g id="a_node1"><a xlink:title=" ">
<polygon fill="#bfbfbf" stroke="black" points="454.5,-302.5 454.5,-321.5 550.5,-321.5 550.5,-302.5 454.5,-302.5"/>
<text text-anchor="middle" x="502.5" y="-309.5" font-family="Helvetica,sans-Serif" font-size="10.00">alm&#45;helpers.hpp</text>
</a>
</g>
</g>
<!-- Node2 -->
<g id="node2" class="node">
<title>Node2</title>
<g id="a_node2"><a xlink:href="../../d4/dd2/decl_2alm_8hpp.html" target="_top" xlink:title=" ">
<polygon fill="white" stroke="black" points="376.5,-246.5 376.5,-265.5 510.5,-265.5 510.5,-246.5 376.5,-246.5"/>
<text text-anchor="middle" x="443.5" y="-253.5" font-family="Helvetica,sans-Serif" font-size="10.00">panoc&#45;alm/decl/alm.hpp</text>
</a>
</g>
</g>
<!-- Node1&#45;&gt;Node2 -->
<g id="edge1" class="edge">
<title>Node1&#45;&gt;Node2</title>
<path fill="none" stroke="midnightblue" d="M493.02,-302.32C484.3,-294.34 471.16,-282.31 460.6,-272.65"/>
<polygon fill="midnightblue" stroke="midnightblue" points="462.89,-270 453.15,-265.83 458.17,-275.17 462.89,-270"/>
</g>
<!-- Node15 -->
<g id="node15" class="node">
<title>Node15</title>
<g id="a_node15"><a xlink:title=" ">
<polygon fill="white" stroke="#bfbfbf" points="529,-246.5 529,-265.5 594,-265.5 594,-246.5 529,-246.5"/>
<text text-anchor="middle" x="561.5" y="-253.5" font-family="Helvetica,sans-Serif" font-size="10.00">stdexcept</text>
</a>
</g>
</g>
<!-- Node1&#45;&gt;Node15 -->
<g id="edge14" class="edge">
<title>Node1&#45;&gt;Node15</title>
<path fill="none" stroke="midnightblue" d="M511.98,-302.32C520.7,-294.34 533.84,-282.31 544.4,-272.65"/>
<polygon fill="midnightblue" stroke="midnightblue" points="546.83,-275.17 551.85,-265.83 542.11,-270 546.83,-275.17"/>
</g>
<!-- Node3 -->
<g id="node3" class="node">
<title>Node3</title>
<g id="a_node3"><a xlink:href="../../d4/d83/panoc-fwd_8hpp.html" target="_top" xlink:title=" ">
<polygon fill="white" stroke="black" points="37,-179.5 37,-209.5 156,-209.5 156,-179.5 37,-179.5"/>
<text text-anchor="start" x="45" y="-197.5" font-family="Helvetica,sans-Serif" font-size="10.00">panoc&#45;alm/inner/decl</text>
<text text-anchor="middle" x="96.5" y="-186.5" font-family="Helvetica,sans-Serif" font-size="10.00">/panoc&#45;fwd.hpp</text>
</a>
</g>
</g>
<!-- Node2&#45;&gt;Node3 -->
<g id="edge2" class="edge">
<title>Node2&#45;&gt;Node3</title>
<path fill="none" stroke="midnightblue" d="M392.68,-246.48C339.32,-237.5 252.99,-222.91 178.5,-210 174.41,-209.29 170.21,-208.56 165.98,-207.82"/>
<polygon fill="midnightblue" stroke="midnightblue" points="166.51,-204.36 156.06,-206.08 165.3,-211.25 166.51,-204.36"/>
</g>
<!-- Node5 -->
<g id="node5" class="node">
<title>Node5</title>
<g id="a_node5"><a xlink:href="../../d5/d37/problem_8hpp.html" target="_top" xlink:title=" ">
<polygon fill="white" stroke="black" points="187.5,-185 187.5,-204 339.5,-204 339.5,-185 187.5,-185"/>
<text text-anchor="middle" x="263.5" y="-192" font-family="Helvetica,sans-Serif" font-size="10.00">panoc&#45;alm/util/problem.hpp</text>
</a>
</g>
</g>
<!-- Node2&#45;&gt;Node5 -->
<g id="edge4" class="edge">
<title>Node2&#45;&gt;Node5</title>
<path fill="none" stroke="midnightblue" d="M417.71,-246.48C386.57,-236.18 334.02,-218.81 299.05,-207.25"/>
<polygon fill="midnightblue" stroke="midnightblue" points="299.84,-203.82 289.24,-204.01 297.64,-210.47 299.84,-203.82"/>
</g>
<!-- Node11 -->
<g id="node11" class="node">
<title>Node11</title>
<g id="a_node11"><a xlink:href="../../dc/d8c/solverstatus_8hpp.html" target="_top" xlink:title=" ">
<polygon fill="white" stroke="black" points="358,-185 358,-204 529,-204 529,-185 358,-185"/>
<text text-anchor="middle" x="443.5" y="-192" font-family="Helvetica,sans-Serif" font-size="10.00">panoc&#45;alm/util/solverstatus.hpp</text>
</a>
</g>
</g>
<!-- Node2&#45;&gt;Node11 -->
<g id="edge10" class="edge">
<title>Node2&#45;&gt;Node11</title>
<path fill="none" stroke="midnightblue" d="M443.5,-246.48C443.5,-238.08 443.5,-224.98 443.5,-214.16"/>
<polygon fill="midnightblue" stroke="midnightblue" points="447,-214.01 443.5,-204.01 440,-214.01 447,-214.01"/>
</g>
<!-- Node13 -->
<g id="node13" class="node">
<title>Node13</title>
<g id="a_node13"><a xlink:title=" ">
<polygon fill="white" stroke="#bfbfbf" points="547.5,-185 547.5,-204 597.5,-204 597.5,-185 547.5,-185"/>
<text text-anchor="middle" x="572.5" y="-192" font-family="Helvetica,sans-Serif" font-size="10.00">chrono</text>
</a>
</g>
</g>
<!-- Node2&#45;&gt;Node13 -->
<g id="edge12" class="edge">
<title>Node2&#45;&gt;Node13</title>
<path fill="none" stroke="midnightblue" d="M461.98,-246.48C483.63,-236.49 519.71,-219.85 544.73,-208.31"/>
<polygon fill="midnightblue" stroke="midnightblue" points="546.44,-211.38 554.05,-204.01 543.51,-205.02 546.44,-211.38"/>
</g>
<!-- Node14 -->
<g id="node14" class="node">
<title>Node14</title>
<g id="a_node14"><a xlink:title=" ">
<polygon fill="white" stroke="#bfbfbf" points="615.5,-185 615.5,-204 659.5,-204 659.5,-185 615.5,-185"/>
<text text-anchor="middle" x="637.5" y="-192" font-family="Helvetica,sans-Serif" font-size="10.00">string</text>
</a>
</g>
</g>
<!-- Node2&#45;&gt;Node14 -->
<g id="edge13" class="edge">
<title>Node2&#45;&gt;Node14</title>
<path fill="none" stroke="midnightblue" d="M481.29,-246.48C514.69,-238.5 564.5,-225.5 606.5,-210 608.11,-209.41 609.75,-208.76 611.4,-208.09"/>
<polygon fill="midnightblue" stroke="midnightblue" points="612.92,-211.24 620.66,-204 610.1,-204.83 612.92,-211.24"/>
</g>
<!-- Node4 -->
<g id="node4" class="node">
<title>Node4</title>
<g id="a_node4"><a xlink:href="../../d4/d5e/lbfgs-fwd_8hpp.html" target="_top" xlink:title=" ">
<polygon fill="white" stroke="black" points="0,-112.5 0,-142.5 147,-142.5 147,-112.5 0,-112.5"/>
<text text-anchor="start" x="8" y="-130.5" font-family="Helvetica,sans-Serif" font-size="10.00">panoc&#45;alm/inner/directions</text>
<text text-anchor="middle" x="73.5" y="-119.5" font-family="Helvetica,sans-Serif" font-size="10.00">/decl/lbfgs&#45;fwd.hpp</text>
</a>
</g>
</g>
<!-- Node3&#45;&gt;Node4 -->
<g id="edge3" class="edge">
<title>Node3&#45;&gt;Node4</title>
<path fill="none" stroke="midnightblue" d="M91.51,-179.4C88.71,-171.47 85.13,-161.38 81.91,-152.27"/>
<polygon fill="midnightblue" stroke="midnightblue" points="85.12,-150.84 78.48,-142.58 78.52,-153.17 85.12,-150.84"/>
</g>
<!-- Node6 -->
<g id="node6" class="node">
<title>Node6</title>
<g id="a_node6"><a xlink:href="../../d7/de4/box_8hpp.html" target="_top" xlink:title=" ">
<polygon fill="white" stroke="black" points="165.5,-118 165.5,-137 221.5,-137 221.5,-118 165.5,-118"/>
<text text-anchor="middle" x="193.5" y="-125" font-family="Helvetica,sans-Serif" font-size="10.00">box.hpp</text>
</a>
</g>
</g>
<!-- Node5&#45;&gt;Node6 -->
<g id="edge5" class="edge">
<title>Node5&#45;&gt;Node6</title>
<path fill="none" stroke="midnightblue" d="M254.06,-184.73C242.83,-174.31 223.88,-156.71 210.16,-143.97"/>
<polygon fill="midnightblue" stroke="midnightblue" points="212.5,-141.37 202.79,-137.13 207.74,-146.5 212.5,-141.37"/>
</g>
<!-- Node9 -->
<g id="node9" class="node">
<title>Node9</title>
<g id="a_node9"><a xlink:title=" ">
<polygon fill="white" stroke="#bfbfbf" points="240,-118 240,-137 305,-137 305,-118 240,-118"/>
<text text-anchor="middle" x="272.5" y="-125" font-family="Helvetica,sans-Serif" font-size="10.00">functional</text>
</a>
</g>
</g>
<!-- Node5&#45;&gt;Node9 -->
<g id="edge8" class="edge">
<title>Node5&#45;&gt;Node9</title>
<path fill="none" stroke="midnightblue" d="M264.71,-184.73C266.04,-175.18 268.19,-159.62 269.9,-147.28"/>
<polygon fill="midnightblue" stroke="midnightblue" points="273.4,-147.51 271.31,-137.13 266.47,-146.55 273.4,-147.51"/>
</g>
<!-- Node10 -->
<g id="node10" class="node">
<title>Node10</title>
<g id="a_node10"><a xlink:title=" ">
<polygon fill="white" stroke="#bfbfbf" points="323,-118 323,-137 392,-137 392,-118 323,-118"/>
<text text-anchor="middle" x="357.5" y="-125" font-family="Helvetica,sans-Serif" font-size="10.00">type_traits</text>
</a>
</g>
</g>
<!-- Node5&#45;&gt;Node10 -->
<g id="edge9" class="edge">
<title>Node5&#45;&gt;Node10</title>
<path fill="none" stroke="midnightblue" d="M276.18,-184.73C291.68,-174.01 318.14,-155.72 336.66,-142.91"/>
<polygon fill="midnightblue" stroke="midnightblue" points="338.79,-145.69 345.02,-137.13 334.81,-139.94 338.79,-145.69"/>
</g>
<!-- Node7 -->
<g id="node7" class="node">
<title>Node7</title>
<g id="a_node7"><a xlink:href="../../d7/d7c/vec_8hpp.html" target="_top" xlink:title=" ">
<polygon fill="white" stroke="black" points="166,-56.5 166,-75.5 221,-75.5 221,-56.5 166,-56.5"/>
<text text-anchor="middle" x="193.5" y="-63.5" font-family="Helvetica,sans-Serif" font-size="10.00">vec.hpp</text>
</a>
</g>
</g>
<!-- Node6&#45;&gt;Node7 -->
<g id="edge6" class="edge">
<title>Node6&#45;&gt;Node7</title>
<path fill="none" stroke="midnightblue" d="M193.5,-117.98C193.5,-109.58 193.5,-96.48 193.5,-85.66"/>
<polygon fill="midnightblue" stroke="midnightblue" points="197,-85.51 193.5,-75.51 190,-85.51 197,-85.51"/>
</g>
<!-- Node8 -->
<g id="node8" class="node">
<title>Node8</title>
<g id="a_node8"><a xlink:title=" ">
<polygon fill="white" stroke="#bfbfbf" points="159,-0.5 159,-19.5 228,-19.5 228,-0.5 159,-0.5"/>
<text text-anchor="middle" x="193.5" y="-7.5" font-family="Helvetica,sans-Serif" font-size="10.00">Eigen/Core</text>
</a>
</g>
</g>
<!-- Node7&#45;&gt;Node8 -->
<g id="edge7" class="edge">
<title>Node7&#45;&gt;Node8</title>
<path fill="none" stroke="midnightblue" d="M193.5,-56.08C193.5,-49.01 193.5,-38.86 193.5,-29.99"/>
<polygon fill="midnightblue" stroke="midnightblue" points="197,-29.75 193.5,-19.75 190,-29.75 197,-29.75"/>
</g>
<!-- Node12 -->
<g id="node12" class="node">
<title>Node12</title>
<g id="a_node12"><a xlink:title=" ">
<polygon fill="white" stroke="#bfbfbf" points="419.5,-118 419.5,-137 467.5,-137 467.5,-118 419.5,-118"/>
<text text-anchor="middle" x="443.5" y="-125" font-family="Helvetica,sans-Serif" font-size="10.00">iosfwd</text>
</a>
</g>
</g>
<!-- Node11&#45;&gt;Node12 -->
<g id="edge11" class="edge">
<title>Node11&#45;&gt;Node12</title>
<path fill="none" stroke="midnightblue" d="M443.5,-184.73C443.5,-175.18 443.5,-159.62 443.5,-147.28"/>
<polygon fill="midnightblue" stroke="midnightblue" points="447,-147.13 443.5,-137.13 440,-147.13 447,-147.13"/>
</g>
</g>
</svg>
