<?xml version="1.0" encoding="UTF-8" standalone="no"?>
<!DOCTYPE svg PUBLIC "-//W3C//DTD SVG 1.1//EN"
 "http://www.w3.org/Graphics/SVG/1.1/DTD/svg11.dtd">
<!-- Generated by graphviz version 2.43.0 (0)
 -->
<!-- Title: ring_tail Pages: 1 -->
<svg width="625pt" height="127pt"
 viewBox="0.00 0.00 625.00 127.00" xmlns="http://www.w3.org/2000/svg" xmlns:xlink="http://www.w3.org/1999/xlink">
<g id="graph0" class="graph" transform="scale(1 1) rotate(0) translate(4 123)">
<title>ring_tail</title>
<polygon fill="white" stroke="transparent" points="-4,4 -4,-123 621,-123 621,4 -4,4"/>
<!-- Node1 -->
<g id="node1" class="node">
<title>Node1</title>
<g id="a_node1"><a xlink:title="Get the tail index of the circular buffer (points to one past the most recent element).">
<polygon fill="#bfbfbf" stroke="black" points="561,-50 561,-69 617,-69 617,-50 561,-50"/>
<text text-anchor="middle" x="589" y="-57" font-family="Helvetica,sans-Serif" font-size="10.00">ring_tail</text>
</a>
</g>
</g>
<!-- Node2 -->
<g id="node2" class="node">
<title>Node2</title>
<g id="a_node2"><a xlink:href="../../de/d4f/namespacepa.html#a04d9e05002d02fd15c58766c259ef0d7" target="_top" xlink:title="Solve one step of Anderson acceleration to find a fixed point of a function g(x):">
<polygon fill="white" stroke="black" points="406,-88.5 406,-118.5 525,-118.5 525,-88.5 406,-88.5"/>
<text text-anchor="start" x="414" y="-106.5" font-family="Helvetica,sans-Serif" font-size="10.00">pa::minimize_update</text>
<text text-anchor="middle" x="465.5" y="-95.5" font-family="Helvetica,sans-Serif" font-size="10.00">_anderson</text>
</a>
</g>
</g>
<!-- Node1&#45;&gt;Node2 -->
<g id="edge1" class="edge">
<title>Node1&#45;&gt;Node2</title>
<path fill="none" stroke="midnightblue" d="M552.01,-72.53C538.22,-77.53 522.37,-83.27 508.1,-88.43"/>
<polygon fill="midnightblue" stroke="midnightblue" points="553.43,-75.74 561.64,-69.05 551.04,-69.16 553.43,-75.74"/>
</g>
<!-- Node5 -->
<g id="node5" class="node">
<title>Node5</title>
<g id="a_node5"><a xlink:href="../../d8/d33/classpa_1_1GuardedAAPGA.html#a656a1117248ac02387eb817ee135df0e" target="_top" xlink:title=" ">
<polygon fill="white" stroke="black" points="206,-50 206,-69 370,-69 370,-50 206,-50"/>
<text text-anchor="middle" x="288" y="-57" font-family="Helvetica,sans-Serif" font-size="10.00">pa::GuardedAAPGA::operator()</text>
</a>
</g>
</g>
<!-- Node1&#45;&gt;Node5 -->
<g id="edge5" class="edge">
<title>Node1&#45;&gt;Node5</title>
<path fill="none" stroke="midnightblue" d="M550.78,-59.5C505.89,-59.5 429.15,-59.5 370.32,-59.5"/>
<polygon fill="midnightblue" stroke="midnightblue" points="550.94,-63 560.94,-59.5 550.94,-56 550.94,-63"/>
</g>
<!-- Node6 -->
<g id="node6" class="node">
<title>Node6</title>
<g id="a_node6"><a xlink:href="../../da/db8/classpa_1_1AndersonAccel.html#ad20897c5c8bd47f5d4005989bead0e55" target="_top" xlink:title=" ">
<polygon fill="white" stroke="black" points="409,-0.5 409,-30.5 522,-30.5 522,-0.5 409,-0.5"/>
<text text-anchor="start" x="417" y="-18.5" font-family="Helvetica,sans-Serif" font-size="10.00">pa::AndersonAccel::</text>
<text text-anchor="middle" x="465.5" y="-7.5" font-family="Helvetica,sans-Serif" font-size="10.00">reset</text>
</a>
</g>
</g>
<!-- Node1&#45;&gt;Node6 -->
<g id="edge6" class="edge">
<title>Node1&#45;&gt;Node6</title>
<path fill="none" stroke="midnightblue" d="M552.01,-46.47C538.22,-41.47 522.37,-35.73 508.1,-30.57"/>
<polygon fill="midnightblue" stroke="midnightblue" points="551.04,-49.84 561.64,-49.95 553.43,-43.26 551.04,-49.84"/>
</g>
<!-- Node3 -->
<g id="node3" class="node">
<title>Node3</title>
<g id="a_node3"><a xlink:href="../../da/db8/classpa_1_1AndersonAccel.html#a631bbbe30343f7e51af52d3d4e7804c6" target="_top" xlink:title=" ">
<polygon fill="white" stroke="black" points="231.5,-88.5 231.5,-118.5 344.5,-118.5 344.5,-88.5 231.5,-88.5"/>
<text text-anchor="start" x="239.5" y="-106.5" font-family="Helvetica,sans-Serif" font-size="10.00">pa::AndersonAccel::</text>
<text text-anchor="middle" x="288" y="-95.5" font-family="Helvetica,sans-Serif" font-size="10.00">compute</text>
</a>
</g>
</g>
<!-- Node2&#45;&gt;Node3 -->
<g id="edge2" class="edge">
<title>Node2&#45;&gt;Node3</title>
<path fill="none" stroke="midnightblue" d="M395.24,-103.5C378.4,-103.5 360.61,-103.5 344.51,-103.5"/>
<polygon fill="midnightblue" stroke="midnightblue" points="395.57,-107 405.57,-103.5 395.57,-100 395.57,-107"/>
</g>
<!-- Node2&#45;&gt;Node5 -->
<g id="edge4" class="edge">
<title>Node2&#45;&gt;Node5</title>
<path fill="none" stroke="midnightblue" d="M395.98,-86.04C387.24,-83.83 378.41,-81.61 370,-79.5 356.23,-76.05 341.13,-72.31 327.74,-69.01"/>
<polygon fill="midnightblue" stroke="midnightblue" points="395.23,-89.46 405.79,-88.52 396.95,-82.68 395.23,-89.46"/>
</g>
<!-- Node4 -->
<g id="node4" class="node">
<title>Node4</title>
<g id="a_node4"><a xlink:href="../../db/d62/structpa_1_1PANOCDirection_3_01AndersonAccel_01_4.html#ab6c112897f55aafb9f1aeef9541a5272" target="_top" xlink:title=" ">
<polygon fill="white" stroke="black" points="13,-88.5 13,-118.5 157,-118.5 157,-88.5 13,-88.5"/>
<text text-anchor="start" x="21" y="-106.5" font-family="Helvetica,sans-Serif" font-size="10.00">pa::PANOCDirection</text>
<text text-anchor="middle" x="85" y="-95.5" font-family="Helvetica,sans-Serif" font-size="10.00">&lt; AndersonAccel &gt;::apply</text>
</a>
</g>
</g>
<!-- Node3&#45;&gt;Node4 -->
<g id="edge3" class="edge">
<title>Node3&#45;&gt;Node4</title>
<path fill="none" stroke="midnightblue" d="M221.13,-103.5C200.7,-103.5 178.1,-103.5 157.32,-103.5"/>
<polygon fill="midnightblue" stroke="midnightblue" points="221.28,-107 231.28,-103.5 221.28,-100 221.28,-107"/>
</g>
<!-- Node7 -->
<g id="node7" class="node">
<title>Node7</title>
<g id="a_node7"><a xlink:href="../../da/db8/classpa_1_1AndersonAccel.html#af1f7f1b0b1868cb2e03aa548c0ae2e85" target="_top" xlink:title=" ">
<polygon fill="white" stroke="black" points="231.5,-0.5 231.5,-30.5 344.5,-30.5 344.5,-0.5 231.5,-0.5"/>
<text text-anchor="start" x="239.5" y="-18.5" font-family="Helvetica,sans-Serif" font-size="10.00">pa::AndersonAccel::</text>
<text text-anchor="middle" x="288" y="-7.5" font-family="Helvetica,sans-Serif" font-size="10.00">reinitialize</text>
</a>
</g>
</g>
<!-- Node6&#45;&gt;Node7 -->
<g id="edge7" class="edge">
<title>Node6&#45;&gt;Node7</title>
<path fill="none" stroke="midnightblue" d="M398.69,-15.5C380.94,-15.5 361.91,-15.5 344.77,-15.5"/>
<polygon fill="midnightblue" stroke="midnightblue" points="398.97,-19 408.97,-15.5 398.97,-12 398.97,-19"/>
</g>
<!-- Node8 -->
<g id="node8" class="node">
<title>Node8</title>
<g id="a_node8"><a xlink:href="../../db/d62/structpa_1_1PANOCDirection_3_01AndersonAccel_01_4.html#aec1a817f12307745a2f7b39cce9b0a9b" target="_top" xlink:title=" ">
<polygon fill="white" stroke="black" points="0,-0.5 0,-30.5 170,-30.5 170,-0.5 0,-0.5"/>
<text text-anchor="start" x="8" y="-18.5" font-family="Helvetica,sans-Serif" font-size="10.00">pa::PANOCDirection</text>
<text text-anchor="middle" x="85" y="-7.5" font-family="Helvetica,sans-Serif" font-size="10.00">&lt; AndersonAccel &gt;::changed_γ</text>
</a>
</g>
</g>
<!-- Node7&#45;&gt;Node8 -->
<g id="edge8" class="edge">
<title>Node7&#45;&gt;Node8</title>
<path fill="none" stroke="midnightblue" d="M220.83,-15.5C204.61,-15.5 187.02,-15.5 170.08,-15.5"/>
<polygon fill="midnightblue" stroke="midnightblue" points="221.28,-19 231.28,-15.5 221.28,-12 221.28,-19"/>
</g>
</g>
</svg>
