<?xml version="1.0" encoding="UTF-8" standalone="no"?>
<!DOCTYPE svg PUBLIC "-//W3C//DTD SVG 1.1//EN"
 "http://www.w3.org/Graphics/SVG/1.1/DTD/svg11.dtd">
<!-- Generated by graphviz version 2.43.0 (0)
 -->
<!-- Title: r_succ Pages: 1 -->
<svg width="721pt" height="113pt"
 viewBox="0.00 0.00 721.00 112.50" xmlns="http://www.w3.org/2000/svg" xmlns:xlink="http://www.w3.org/1999/xlink">
<g id="graph0" class="graph" transform="scale(1 1) rotate(0) translate(4 108.5)">
<title>r_succ</title>
<polygon fill="white" stroke="transparent" points="-4,4 -4,-108.5 717,-108.5 717,4 -4,4"/>
<!-- Node1 -->
<g id="node1" class="node">
<title>Node1</title>
<g id="a_node1"><a xlink:title="Get the next index in the circular storage for R.">
<polygon fill="#bfbfbf" stroke="black" points="666,-38.5 666,-57.5 713,-57.5 713,-38.5 666,-38.5"/>
<text text-anchor="middle" x="689.5" y="-45.5" font-family="Helvetica,sans-Serif" font-size="10.00">r_succ</text>
</a>
</g>
</g>
<!-- Node2 -->
<g id="node2" class="node">
<title>Node2</title>
<g id="a_node2"><a xlink:href="../../d6/df1/classpa_1_1LimitedMemoryQR.html#a5e3077223e98c1e4e286e01503f220d5" target="_top" xlink:title="Add the given column to the right.">
<polygon fill="white" stroke="black" points="544.5,-76.5 544.5,-95.5 620.5,-95.5 620.5,-76.5 544.5,-76.5"/>
<text text-anchor="middle" x="582.5" y="-83.5" font-family="Helvetica,sans-Serif" font-size="10.00">add_column</text>
</a>
</g>
</g>
<!-- Node1&#45;&gt;Node2 -->
<g id="edge1" class="edge">
<title>Node1&#45;&gt;Node2</title>
<path fill="none" stroke="midnightblue" d="M656.21,-59.69C641.42,-65.04 624.1,-71.31 610.07,-76.38"/>
<polygon fill="midnightblue" stroke="midnightblue" points="657.76,-62.85 665.97,-56.15 655.38,-56.26 657.76,-62.85"/>
</g>
<!-- Node7 -->
<g id="node7" class="node">
<title>Node7</title>
<g id="a_node7"><a xlink:href="../../d6/df1/classpa_1_1LimitedMemoryQR.html#a436c4dbbf0476354ca67a104bc005e55" target="_top" xlink:title="Remove the leftmost column.">
<polygon fill="white" stroke="black" points="535,-38.5 535,-57.5 630,-57.5 630,-38.5 535,-38.5"/>
<text text-anchor="middle" x="582.5" y="-45.5" font-family="Helvetica,sans-Serif" font-size="10.00">remove_column</text>
</a>
</g>
</g>
<!-- Node1&#45;&gt;Node7 -->
<g id="edge6" class="edge">
<title>Node1&#45;&gt;Node7</title>
<path fill="none" stroke="midnightblue" d="M655.8,-48C647.68,-48 638.82,-48 630.16,-48"/>
<polygon fill="midnightblue" stroke="midnightblue" points="655.97,-51.5 665.97,-48 655.97,-44.5 655.97,-51.5"/>
</g>
<!-- Node8 -->
<g id="node8" class="node">
<title>Node8</title>
<g id="a_node8"><a xlink:href="../../d6/df1/classpa_1_1LimitedMemoryQR.html#af7f8c95bb4f88ce659d9eee262afae4b" target="_top" xlink:title="Get the next index in the circular buffer.">
<polygon fill="white" stroke="black" points="551.5,-0.5 551.5,-19.5 613.5,-19.5 613.5,-0.5 551.5,-0.5"/>
<text text-anchor="middle" x="582.5" y="-7.5" font-family="Helvetica,sans-Serif" font-size="10.00">ring_next</text>
</a>
</g>
</g>
<!-- Node1&#45;&gt;Node8 -->
<g id="edge8" class="edge">
<title>Node1&#45;&gt;Node8</title>
<path fill="none" stroke="midnightblue" d="M656.21,-36.31C641.42,-30.96 624.1,-24.69 610.07,-19.62"/>
<polygon fill="midnightblue" stroke="midnightblue" points="655.38,-39.74 665.97,-39.85 657.76,-33.15 655.38,-39.74"/>
</g>
<!-- Node3 -->
<g id="node3" class="node">
<title>Node3</title>
<g id="a_node3"><a xlink:href="../../de/d4f/namespacepa.html#a04d9e05002d02fd15c58766c259ef0d7" target="_top" xlink:title="Solve one step of Anderson acceleration to find a fixed point of a function g(x):">
<polygon fill="white" stroke="black" points="380,-52 380,-82 499,-82 499,-52 380,-52"/>
<text text-anchor="start" x="388" y="-70" font-family="Helvetica,sans-Serif" font-size="10.00">pa::minimize_update</text>
<text text-anchor="middle" x="439.5" y="-59" font-family="Helvetica,sans-Serif" font-size="10.00">_anderson</text>
</a>
</g>
</g>
<!-- Node2&#45;&gt;Node3 -->
<g id="edge2" class="edge">
<title>Node2&#45;&gt;Node3</title>
<path fill="none" stroke="midnightblue" d="M534.37,-79.65C523.07,-78.13 510.87,-76.48 499.12,-74.9"/>
<polygon fill="midnightblue" stroke="midnightblue" points="534.08,-83.14 544.45,-81.01 535.01,-76.2 534.08,-83.14"/>
</g>
<!-- Node4 -->
<g id="node4" class="node">
<title>Node4</title>
<g id="a_node4"><a xlink:href="../../da/db8/classpa_1_1AndersonAccel.html#a631bbbe30343f7e51af52d3d4e7804c6" target="_top" xlink:title=" ">
<polygon fill="white" stroke="black" points="205.5,-74 205.5,-104 318.5,-104 318.5,-74 205.5,-74"/>
<text text-anchor="start" x="213.5" y="-92" font-family="Helvetica,sans-Serif" font-size="10.00">pa::AndersonAccel::</text>
<text text-anchor="middle" x="262" y="-81" font-family="Helvetica,sans-Serif" font-size="10.00">compute</text>
</a>
</g>
</g>
<!-- Node3&#45;&gt;Node4 -->
<g id="edge3" class="edge">
<title>Node3&#45;&gt;Node4</title>
<path fill="none" stroke="midnightblue" d="M369.24,-75.68C352.4,-77.79 334.61,-80.02 318.51,-82.04"/>
<polygon fill="midnightblue" stroke="midnightblue" points="370.09,-79.1 379.57,-74.39 369.22,-72.16 370.09,-79.1"/>
</g>
<!-- Node6 -->
<g id="node6" class="node">
<title>Node6</title>
<g id="a_node6"><a xlink:href="../../d8/d33/classpa_1_1GuardedAAPGA.html#a656a1117248ac02387eb817ee135df0e" target="_top" xlink:title=" ">
<polygon fill="white" stroke="black" points="180,-35.5 180,-54.5 344,-54.5 344,-35.5 180,-35.5"/>
<text text-anchor="middle" x="262" y="-42.5" font-family="Helvetica,sans-Serif" font-size="10.00">pa::GuardedAAPGA::operator()</text>
</a>
</g>
</g>
<!-- Node3&#45;&gt;Node6 -->
<g id="edge5" class="edge">
<title>Node3&#45;&gt;Node6</title>
<path fill="none" stroke="midnightblue" d="M369.63,-58.37C359.55,-57.1 349.12,-55.8 338.91,-54.52"/>
<polygon fill="midnightblue" stroke="midnightblue" points="369.22,-61.84 379.57,-59.61 370.09,-54.9 369.22,-61.84"/>
</g>
<!-- Node5 -->
<g id="node5" class="node">
<title>Node5</title>
<g id="a_node5"><a xlink:href="../../db/d62/structpa_1_1PANOCDirection_3_01AndersonAccel_01_4.html#ab6c112897f55aafb9f1aeef9541a5272" target="_top" xlink:title=" ">
<polygon fill="white" stroke="black" points="0,-74 0,-104 144,-104 144,-74 0,-74"/>
<text text-anchor="start" x="8" y="-92" font-family="Helvetica,sans-Serif" font-size="10.00">pa::PANOCDirection</text>
<text text-anchor="middle" x="72" y="-81" font-family="Helvetica,sans-Serif" font-size="10.00">&lt; AndersonAccel &gt;::apply</text>
</a>
</g>
</g>
<!-- Node4&#45;&gt;Node5 -->
<g id="edge4" class="edge">
<title>Node4&#45;&gt;Node5</title>
<path fill="none" stroke="midnightblue" d="M195.27,-89C178.77,-89 160.98,-89 144.23,-89"/>
<polygon fill="midnightblue" stroke="midnightblue" points="195.36,-92.5 205.36,-89 195.36,-85.5 195.36,-92.5"/>
</g>
<!-- Node7&#45;&gt;Node3 -->
<g id="edge7" class="edge">
<title>Node7&#45;&gt;Node3</title>
<path fill="none" stroke="midnightblue" d="M524.79,-55.64C516.32,-56.78 507.58,-57.96 499.08,-59.11"/>
<polygon fill="midnightblue" stroke="midnightblue" points="525.5,-59.08 534.94,-54.27 524.56,-52.14 525.5,-59.08"/>
</g>
</g>
</svg>
