<?xml version="1.0" encoding="UTF-8" standalone="no"?>
<!DOCTYPE svg PUBLIC "-//W3C//DTD SVG 1.1//EN"
 "http://www.w3.org/Graphics/SVG/1.1/DTD/svg11.dtd">
<!-- Generated by graphviz version 2.43.0 (0)
 -->
<!-- Title: ring_iter Pages: 1 -->
<svg width="833pt" height="146pt"
 viewBox="0.00 0.00 833.00 146.00" xmlns="http://www.w3.org/2000/svg" xmlns:xlink="http://www.w3.org/1999/xlink">
<g id="graph0" class="graph" transform="scale(1 1) rotate(0) translate(4 142)">
<title>ring_iter</title>
<polygon fill="white" stroke="transparent" points="-4,4 -4,-142 829,-142 829,4 -4,4"/>
<!-- Node1 -->
<g id="node1" class="node">
<title>Node1</title>
<g id="a_node1"><a xlink:title="Get iterators in the circular buffer.">
<polygon fill="#bfbfbf" stroke="black" points="768,-61.5 768,-80.5 825,-80.5 825,-61.5 768,-61.5"/>
<text text-anchor="middle" x="796.5" y="-68.5" font-family="Helvetica,sans-Serif" font-size="10.00">ring_iter</text>
</a>
</g>
</g>
<!-- Node2 -->
<g id="node2" class="node">
<title>Node2</title>
<g id="a_node2"><a xlink:href="../../de/d4f/namespacepa.html#a04d9e05002d02fd15c58766c259ef0d7" target="_top" xlink:title="Solve one step of Anderson acceleration to find a fixed point of a function g(x):">
<polygon fill="white" stroke="black" points="380,-39 380,-69 499,-69 499,-39 380,-39"/>
<text text-anchor="start" x="388" y="-57" font-family="Helvetica,sans-Serif" font-size="10.00">pa::minimize_update</text>
<text text-anchor="middle" x="439.5" y="-46" font-family="Helvetica,sans-Serif" font-size="10.00">_anderson</text>
</a>
</g>
</g>
<!-- Node1&#45;&gt;Node2 -->
<g id="edge1" class="edge">
<title>Node1&#45;&gt;Node2</title>
<path fill="none" stroke="midnightblue" d="M757.86,-69.2C696.07,-66.24 572.71,-60.33 499.31,-56.82"/>
<polygon fill="midnightblue" stroke="midnightblue" points="757.78,-72.7 767.94,-69.68 758.12,-65.71 757.78,-72.7"/>
</g>
<!-- Node6 -->
<g id="node6" class="node">
<title>Node6</title>
<g id="a_node6"><a xlink:href="../../d6/df1/classpa_1_1LimitedMemoryQR.html#a53110c85b0c151a290bf8d29533cd370" target="_top" xlink:title="Get reverse iterators in the circular buffer.">
<polygon fill="white" stroke="black" points="633,-118.5 633,-137.5 732,-137.5 732,-118.5 633,-118.5"/>
<text text-anchor="middle" x="682.5" y="-125.5" font-family="Helvetica,sans-Serif" font-size="10.00">ring_reverse_iter</text>
</a>
</g>
</g>
<!-- Node1&#45;&gt;Node6 -->
<g id="edge5" class="edge">
<title>Node1&#45;&gt;Node6</title>
<path fill="none" stroke="midnightblue" d="M768.31,-85.28C757.09,-91.13 743.95,-97.94 732,-104 722.62,-108.76 712.16,-113.95 703.37,-118.28"/>
<polygon fill="midnightblue" stroke="midnightblue" points="769.97,-88.36 777.21,-80.63 766.73,-82.16 769.97,-88.36"/>
</g>
<!-- Node7 -->
<g id="node7" class="node">
<title>Node7</title>
<g id="a_node7"><a xlink:href="../../d6/df1/classpa_1_1LimitedMemoryQR.html#a7a60dfe0a5f68bc1efec69e406a2b619" target="_top" xlink:title="Solve the least squares problem Ax = b.">
<polygon fill="white" stroke="black" points="535,-86.5 535,-105.5 597,-105.5 597,-86.5 535,-86.5"/>
<text text-anchor="middle" x="566" y="-93.5" font-family="Helvetica,sans-Serif" font-size="10.00">solve_col</text>
</a>
</g>
</g>
<!-- Node1&#45;&gt;Node7 -->
<g id="edge12" class="edge">
<title>Node1&#45;&gt;Node7</title>
<path fill="none" stroke="midnightblue" d="M757.72,-75.13C712.74,-80.05 638.54,-88.17 597.2,-92.7"/>
<polygon fill="midnightblue" stroke="midnightblue" points="758.38,-78.58 767.94,-74.02 757.62,-71.62 758.38,-78.58"/>
</g>
<!-- Node10 -->
<g id="node10" class="node">
<title>Node10</title>
<g id="a_node10"><a xlink:href="../../d6/df1/classpa_1_1LimitedMemoryQR.html#adf11f99cb8b119423c86498dbaab9820" target="_top" xlink:title="Multiply the matrix R by a scalar.">
<polygon fill="white" stroke="black" points="539,-3.5 539,-22.5 593,-22.5 593,-3.5 539,-3.5"/>
<text text-anchor="middle" x="566" y="-10.5" font-family="Helvetica,sans-Serif" font-size="10.00">scale_R</text>
</a>
</g>
</g>
<!-- Node1&#45;&gt;Node10 -->
<g id="edge10" class="edge">
<title>Node1&#45;&gt;Node10</title>
<path fill="none" stroke="midnightblue" d="M771.83,-56.32C760.22,-49.75 745.8,-42.49 732,-38 684.48,-22.52 626.08,-16.55 593.04,-14.3"/>
<polygon fill="midnightblue" stroke="midnightblue" points="770.07,-59.35 780.47,-61.38 773.6,-53.31 770.07,-59.35"/>
</g>
<!-- Node3 -->
<g id="node3" class="node">
<title>Node3</title>
<g id="a_node3"><a xlink:href="../../da/db8/classpa_1_1AndersonAccel.html#a631bbbe30343f7e51af52d3d4e7804c6" target="_top" xlink:title=" ">
<polygon fill="white" stroke="black" points="205.5,-39 205.5,-69 318.5,-69 318.5,-39 205.5,-39"/>
<text text-anchor="start" x="213.5" y="-57" font-family="Helvetica,sans-Serif" font-size="10.00">pa::AndersonAccel::</text>
<text text-anchor="middle" x="262" y="-46" font-family="Helvetica,sans-Serif" font-size="10.00">compute</text>
</a>
</g>
</g>
<!-- Node2&#45;&gt;Node3 -->
<g id="edge2" class="edge">
<title>Node2&#45;&gt;Node3</title>
<path fill="none" stroke="midnightblue" d="M369.24,-54C352.4,-54 334.61,-54 318.51,-54"/>
<polygon fill="midnightblue" stroke="midnightblue" points="369.57,-57.5 379.57,-54 369.57,-50.5 369.57,-57.5"/>
</g>
<!-- Node5 -->
<g id="node5" class="node">
<title>Node5</title>
<g id="a_node5"><a xlink:href="../../d8/d33/classpa_1_1GuardedAAPGA.html#a656a1117248ac02387eb817ee135df0e" target="_top" xlink:title=" ">
<polygon fill="white" stroke="black" points="180,-0.5 180,-19.5 344,-19.5 344,-0.5 180,-0.5"/>
<text text-anchor="middle" x="262" y="-7.5" font-family="Helvetica,sans-Serif" font-size="10.00">pa::GuardedAAPGA::operator()</text>
</a>
</g>
</g>
<!-- Node2&#45;&gt;Node5 -->
<g id="edge4" class="edge">
<title>Node2&#45;&gt;Node5</title>
<path fill="none" stroke="midnightblue" d="M372.68,-36.33C363.07,-33.83 353.29,-31.32 344,-29 331.25,-25.82 317.33,-22.5 304.68,-19.54"/>
<polygon fill="midnightblue" stroke="midnightblue" points="372.04,-39.78 382.6,-38.93 373.82,-33.01 372.04,-39.78"/>
</g>
<!-- Node4 -->
<g id="node4" class="node">
<title>Node4</title>
<g id="a_node4"><a xlink:href="../../db/d62/structpa_1_1PANOCDirection_3_01AndersonAccel_01_4.html#ab6c112897f55aafb9f1aeef9541a5272" target="_top" xlink:title=" ">
<polygon fill="white" stroke="black" points="0,-39 0,-69 144,-69 144,-39 0,-39"/>
<text text-anchor="start" x="8" y="-57" font-family="Helvetica,sans-Serif" font-size="10.00">pa::PANOCDirection</text>
<text text-anchor="middle" x="72" y="-46" font-family="Helvetica,sans-Serif" font-size="10.00">&lt; AndersonAccel &gt;::apply</text>
</a>
</g>
</g>
<!-- Node3&#45;&gt;Node4 -->
<g id="edge3" class="edge">
<title>Node3&#45;&gt;Node4</title>
<path fill="none" stroke="midnightblue" d="M195.27,-54C178.77,-54 160.98,-54 144.23,-54"/>
<polygon fill="midnightblue" stroke="midnightblue" points="195.36,-57.5 205.36,-54 195.36,-50.5 195.36,-57.5"/>
</g>
<!-- Node6&#45;&gt;Node7 -->
<g id="edge6" class="edge">
<title>Node6&#45;&gt;Node7</title>
<path fill="none" stroke="midnightblue" d="M637.82,-115.79C624.27,-112.01 609.64,-107.92 597.22,-104.44"/>
<polygon fill="midnightblue" stroke="midnightblue" points="636.88,-119.16 647.46,-118.49 638.77,-112.42 636.88,-119.16"/>
</g>
<!-- Node7&#45;&gt;Node2 -->
<g id="edge7" class="edge">
<title>Node7&#45;&gt;Node2</title>
<path fill="none" stroke="midnightblue" d="M527.05,-83.2C513.85,-78.75 498.93,-73.71 485.24,-69.09"/>
<polygon fill="midnightblue" stroke="midnightblue" points="526.15,-86.59 536.75,-86.47 528.39,-79.96 526.15,-86.59"/>
</g>
<!-- Node8 -->
<g id="node8" class="node">
<title>Node8</title>
<g id="a_node8"><a xlink:href="../../d6/df1/classpa_1_1LimitedMemoryQR.html#a9ec3e86c6cbb239ba0642378b564af41" target="_top" xlink:title="Solve the least squares problem AX = B.">
<polygon fill="white" stroke="black" points="418,-88.5 418,-107.5 461,-107.5 461,-88.5 418,-88.5"/>
<text text-anchor="middle" x="439.5" y="-95.5" font-family="Helvetica,sans-Serif" font-size="10.00">solve</text>
</a>
</g>
</g>
<!-- Node7&#45;&gt;Node8 -->
<g id="edge8" class="edge">
<title>Node7&#45;&gt;Node8</title>
<path fill="none" stroke="midnightblue" d="M524.79,-96.65C503.51,-96.99 478.29,-97.39 461.02,-97.67"/>
<polygon fill="midnightblue" stroke="midnightblue" points="524.92,-100.14 534.86,-96.48 524.81,-93.15 524.92,-100.14"/>
</g>
<!-- Node9 -->
<g id="node9" class="node">
<title>Node9</title>
<g id="a_node9"><a xlink:href="../../d6/df1/classpa_1_1LimitedMemoryQR.html#a1a581dbbeed876108b943e45451d0abf" target="_top" xlink:title="Solve the least squares problem AX = B.">
<polygon fill="white" stroke="black" points="240.5,-88.5 240.5,-107.5 283.5,-107.5 283.5,-88.5 240.5,-88.5"/>
<text text-anchor="middle" x="262" y="-95.5" font-family="Helvetica,sans-Serif" font-size="10.00">solve</text>
</a>
</g>
</g>
<!-- Node8&#45;&gt;Node9 -->
<g id="edge9" class="edge">
<title>Node8&#45;&gt;Node9</title>
<path fill="none" stroke="midnightblue" d="M407.34,-98C371.61,-98 314.04,-98 283.52,-98"/>
<polygon fill="midnightblue" stroke="midnightblue" points="407.68,-101.5 417.68,-98 407.68,-94.5 407.68,-101.5"/>
</g>
<!-- Node10&#45;&gt;Node5 -->
<g id="edge11" class="edge">
<title>Node10&#45;&gt;Node5</title>
<path fill="none" stroke="midnightblue" d="M528.74,-12.64C483.32,-12.19 404.16,-11.4 344.02,-10.8"/>
<polygon fill="midnightblue" stroke="midnightblue" points="528.96,-16.14 538.99,-12.74 529.03,-9.14 528.96,-16.14"/>
</g>
</g>
</svg>
