<?xml version="1.0" encoding="UTF-8" standalone="no"?>
<!DOCTYPE svg PUBLIC "-//W3C//DTD SVG 1.1//EN"
 "http://www.w3.org/Graphics/SVG/1.1/DTD/svg11.dtd">
<!-- Generated by graphviz version 2.43.0 (0)
 -->
<!-- Title: m Pages: 1 -->
<svg width="986pt" height="458pt"
 viewBox="0.00 0.00 986.00 457.50" xmlns="http://www.w3.org/2000/svg" xmlns:xlink="http://www.w3.org/1999/xlink">
<g id="graph0" class="graph" transform="scale(1 1) rotate(0) translate(4 453.5)">
<title>m</title>
<polygon fill="white" stroke="transparent" points="-4,4 -4,-453.5 982,-453.5 982,4 -4,4"/>
<!-- Node1 -->
<g id="node1" class="node">
<title>Node1</title>
<g id="a_node1"><a xlink:title=" ">
<polygon fill="#bfbfbf" stroke="black" points="949,-221 949,-240 978,-240 978,-221 949,-221"/>
<text text-anchor="middle" x="963.5" y="-228" font-family="Helvetica,sans-Serif" font-size="10.00">m</text>
</a>
</g>
</g>
<!-- Node2 -->
<g id="node2" class="node">
<title>Node2</title>
<g id="a_node2"><a xlink:href="../../d6/df1/classpa_1_1LimitedMemoryQR.html#a5e3077223e98c1e4e286e01503f220d5" target="_top" xlink:title="Add the given column to the right.">
<polygon fill="white" stroke="black" points="705,-430 705,-449 781,-449 781,-430 705,-430"/>
<text text-anchor="middle" x="743" y="-437" font-family="Helvetica,sans-Serif" font-size="10.00">add_column</text>
</a>
</g>
</g>
<!-- Node1&#45;&gt;Node2 -->
<g id="edge1" class="edge">
<title>Node1&#45;&gt;Node2</title>
<path fill="none" stroke="midnightblue" d="M962.86,-250.49C962.34,-286.24 955.85,-361.17 913,-401.5 877.52,-434.89 819.27,-441.24 781.27,-441.4"/>
<polygon fill="midnightblue" stroke="midnightblue" points="966.36,-250.35 962.85,-240.35 959.36,-250.35 966.36,-250.35"/>
</g>
<!-- Node3 -->
<g id="node3" class="node">
<title>Node3</title>
<g id="a_node3"><a xlink:href="../../de/d4f/namespacepa.html#a04d9e05002d02fd15c58766c259ef0d7" target="_top" xlink:title="Solve one step of Anderson acceleration to find a fixed point of a function g(x):">
<polygon fill="white" stroke="black" points="380,-306.5 380,-336.5 499,-336.5 499,-306.5 380,-306.5"/>
<text text-anchor="start" x="388" y="-324.5" font-family="Helvetica,sans-Serif" font-size="10.00">pa::minimize_update</text>
<text text-anchor="middle" x="439.5" y="-313.5" font-family="Helvetica,sans-Serif" font-size="10.00">_anderson</text>
</a>
</g>
</g>
<!-- Node1&#45;&gt;Node3 -->
<g id="edge6" class="edge">
<title>Node1&#45;&gt;Node3</title>
<path fill="none" stroke="midnightblue" d="M939.38,-240.63C911.57,-252.42 863.22,-271.64 820,-282.5 708.87,-310.43 574.63,-318.42 499.26,-320.67"/>
<polygon fill="midnightblue" stroke="midnightblue" points="940.83,-243.81 948.65,-236.65 938.08,-237.38 940.83,-243.81"/>
</g>
<!-- Node7 -->
<g id="node7" class="node">
<title>Node7</title>
<g id="a_node7"><a xlink:href="../../d6/df1/classpa_1_1LimitedMemoryQR.html#a6e0de5c03f836ba30eab386837b31be4" target="_top" xlink:title="Get the previous index in the circular storage for R.">
<polygon fill="white" stroke="black" points="861,-88 861,-107 908,-107 908,-88 861,-88"/>
<text text-anchor="middle" x="884.5" y="-95" font-family="Helvetica,sans-Serif" font-size="10.00">r_pred</text>
</a>
</g>
</g>
<!-- Node1&#45;&gt;Node7 -->
<g id="edge7" class="edge">
<title>Node1&#45;&gt;Node7</title>
<path fill="none" stroke="midnightblue" d="M956.53,-211.14C948.86,-188.25 933.99,-149.71 913,-121.5 908.99,-116.11 903.59,-111.07 898.63,-107.01"/>
<polygon fill="midnightblue" stroke="midnightblue" points="953.22,-212.29 959.62,-220.73 959.88,-210.14 953.22,-212.29"/>
</g>
<!-- Node9 -->
<g id="node9" class="node">
<title>Node9</title>
<g id="a_node9"><a xlink:href="../../d6/df1/classpa_1_1LimitedMemoryQR.html#abb2e912e6196e7c6996d3f43fea78237" target="_top" xlink:title="Get the next index in the circular storage for R.">
<polygon fill="white" stroke="black" points="861,-373 861,-392 908,-392 908,-373 861,-373"/>
<text text-anchor="middle" x="884.5" y="-380" font-family="Helvetica,sans-Serif" font-size="10.00">r_succ</text>
</a>
</g>
</g>
<!-- Node1&#45;&gt;Node9 -->
<g id="edge9" class="edge">
<title>Node1&#45;&gt;Node9</title>
<path fill="none" stroke="midnightblue" d="M954.81,-249.57C945.7,-271.65 929.63,-308.9 913,-339.5 906.57,-351.34 898.08,-364.28 892.24,-372.84"/>
<polygon fill="midnightblue" stroke="midnightblue" points="958.16,-250.63 958.7,-240.05 951.68,-247.99 958.16,-250.63"/>
</g>
<!-- Node12 -->
<g id="node12" class="node">
<title>Node12</title>
<g id="a_node12"><a xlink:href="../../d6/df1/classpa_1_1LimitedMemoryQR.html#a94d70718a4b923a645b928bc68524916" target="_top" xlink:title="Re&#45;allocate storage for a problem with a different size.">
<polygon fill="white" stroke="black" points="861.5,-50 861.5,-69 907.5,-69 907.5,-50 861.5,-50"/>
<text text-anchor="middle" x="884.5" y="-57" font-family="Helvetica,sans-Serif" font-size="10.00">resize</text>
</a>
</g>
</g>
<!-- Node1&#45;&gt;Node12 -->
<g id="edge14" class="edge">
<title>Node1&#45;&gt;Node12</title>
<path fill="none" stroke="midnightblue" d="M960.16,-210.68C955.68,-179.76 943.44,-119.34 913,-78.5 910.3,-74.87 906.69,-71.69 902.97,-69.02"/>
<polygon fill="midnightblue" stroke="midnightblue" points="956.75,-211.53 961.53,-220.99 963.69,-210.62 956.75,-211.53"/>
</g>
<!-- Node15 -->
<g id="node15" class="node">
<title>Node15</title>
<g id="a_node15"><a xlink:href="../../d6/df1/classpa_1_1LimitedMemoryQR.html#a7a0e06dceccc0bbe82ebd81247a5a412" target="_top" xlink:title="Get iterators in the circular buffer.">
<polygon fill="white" stroke="black" points="856,-221 856,-240 913,-240 913,-221 856,-221"/>
<text text-anchor="middle" x="884.5" y="-228" font-family="Helvetica,sans-Serif" font-size="10.00">ring_iter</text>
</a>
</g>
</g>
<!-- Node1&#45;&gt;Node15 -->
<g id="edge17" class="edge">
<title>Node1&#45;&gt;Node15</title>
<path fill="none" stroke="midnightblue" d="M938.55,-230.5C930.51,-230.5 921.48,-230.5 913.18,-230.5"/>
<polygon fill="midnightblue" stroke="midnightblue" points="938.73,-234 948.73,-230.5 938.73,-227 938.73,-234"/>
</g>
<!-- Node19 -->
<g id="node19" class="node">
<title>Node19</title>
<g id="a_node19"><a xlink:href="../../d6/df1/classpa_1_1LimitedMemoryQR.html#a1a581dbbeed876108b943e45451d0abf" target="_top" xlink:title="Solve the least squares problem AX = B.">
<polygon fill="white" stroke="black" points="240.5,-136 240.5,-155 283.5,-155 283.5,-136 240.5,-136"/>
<text text-anchor="middle" x="262" y="-143" font-family="Helvetica,sans-Serif" font-size="10.00">solve</text>
</a>
</g>
</g>
<!-- Node1&#45;&gt;Node19 -->
<g id="edge27" class="edge">
<title>Node1&#45;&gt;Node19</title>
<path fill="none" stroke="midnightblue" d="M941.96,-214.72C904.7,-187.71 822.5,-135.5 744,-135.5 744,-135.5 744,-135.5 581.5,-135.5 469.2,-135.5 334.73,-141.79 283.86,-144.39"/>
<polygon fill="midnightblue" stroke="midnightblue" points="939.91,-217.56 950.04,-220.69 944.08,-211.93 939.91,-217.56"/>
</g>
<!-- Node2&#45;&gt;Node3 -->
<g id="edge2" class="edge">
<title>Node2&#45;&gt;Node3</title>
<path fill="none" stroke="midnightblue" d="M694.72,-437.74C651.33,-434.55 586.21,-425.74 535,-401.5 501.58,-385.68 470.41,-355.01 453.55,-336.58"/>
<polygon fill="midnightblue" stroke="midnightblue" points="694.51,-441.23 704.72,-438.4 694.98,-434.25 694.51,-441.23"/>
</g>
<!-- Node4 -->
<g id="node4" class="node">
<title>Node4</title>
<g id="a_node4"><a xlink:href="../../da/db8/classpa_1_1AndersonAccel.html#a631bbbe30343f7e51af52d3d4e7804c6" target="_top" xlink:title=" ">
<polygon fill="white" stroke="black" points="205.5,-306.5 205.5,-336.5 318.5,-336.5 318.5,-306.5 205.5,-306.5"/>
<text text-anchor="start" x="213.5" y="-324.5" font-family="Helvetica,sans-Serif" font-size="10.00">pa::AndersonAccel::</text>
<text text-anchor="middle" x="262" y="-313.5" font-family="Helvetica,sans-Serif" font-size="10.00">compute</text>
</a>
</g>
</g>
<!-- Node3&#45;&gt;Node4 -->
<g id="edge3" class="edge">
<title>Node3&#45;&gt;Node4</title>
<path fill="none" stroke="midnightblue" d="M369.24,-321.5C352.4,-321.5 334.61,-321.5 318.51,-321.5"/>
<polygon fill="midnightblue" stroke="midnightblue" points="369.57,-325 379.57,-321.5 369.57,-318 369.57,-325"/>
</g>
<!-- Node6 -->
<g id="node6" class="node">
<title>Node6</title>
<g id="a_node6"><a xlink:href="../../d8/d33/classpa_1_1GuardedAAPGA.html#a656a1117248ac02387eb817ee135df0e" target="_top" xlink:title=" ">
<polygon fill="white" stroke="black" points="180,-252 180,-271 344,-271 344,-252 180,-252"/>
<text text-anchor="middle" x="262" y="-259" font-family="Helvetica,sans-Serif" font-size="10.00">pa::GuardedAAPGA::operator()</text>
</a>
</g>
</g>
<!-- Node3&#45;&gt;Node6 -->
<g id="edge5" class="edge">
<title>Node3&#45;&gt;Node6</title>
<path fill="none" stroke="midnightblue" d="M384.41,-303.01C353.44,-292.42 315.88,-279.58 290.81,-271.01"/>
<polygon fill="midnightblue" stroke="midnightblue" points="383.62,-306.44 394.21,-306.36 385.88,-299.81 383.62,-306.44"/>
</g>
<!-- Node5 -->
<g id="node5" class="node">
<title>Node5</title>
<g id="a_node5"><a xlink:href="../../db/d62/structpa_1_1PANOCDirection_3_01AndersonAccel_01_4.html#ab6c112897f55aafb9f1aeef9541a5272" target="_top" xlink:title=" ">
<polygon fill="white" stroke="black" points="0,-306.5 0,-336.5 144,-336.5 144,-306.5 0,-306.5"/>
<text text-anchor="start" x="8" y="-324.5" font-family="Helvetica,sans-Serif" font-size="10.00">pa::PANOCDirection</text>
<text text-anchor="middle" x="72" y="-313.5" font-family="Helvetica,sans-Serif" font-size="10.00">&lt; AndersonAccel &gt;::apply</text>
</a>
</g>
</g>
<!-- Node4&#45;&gt;Node5 -->
<g id="edge4" class="edge">
<title>Node4&#45;&gt;Node5</title>
<path fill="none" stroke="midnightblue" d="M195.27,-321.5C178.77,-321.5 160.98,-321.5 144.23,-321.5"/>
<polygon fill="midnightblue" stroke="midnightblue" points="195.36,-325 205.36,-321.5 195.36,-318 195.36,-325"/>
</g>
<!-- Node8 -->
<g id="node8" class="node">
<title>Node8</title>
<g id="a_node8"><a xlink:href="../../d6/df1/classpa_1_1LimitedMemoryQR.html#a1cd3db75f0cb9d7315d073ce5d96df41" target="_top" xlink:title="Get the previous index in the circular buffer.">
<polygon fill="white" stroke="black" points="712,-88 712,-107 774,-107 774,-88 712,-88"/>
<text text-anchor="middle" x="743" y="-95" font-family="Helvetica,sans-Serif" font-size="10.00">ring_prev</text>
</a>
</g>
</g>
<!-- Node7&#45;&gt;Node8 -->
<g id="edge8" class="edge">
<title>Node7&#45;&gt;Node8</title>
<path fill="none" stroke="midnightblue" d="M850.71,-97.5C827.49,-97.5 796.6,-97.5 774.03,-97.5"/>
<polygon fill="midnightblue" stroke="midnightblue" points="850.78,-101 860.78,-97.5 850.78,-94 850.78,-101"/>
</g>
<!-- Node9&#45;&gt;Node2 -->
<g id="edge10" class="edge">
<title>Node9&#45;&gt;Node2</title>
<path fill="none" stroke="midnightblue" d="M857.95,-397.07C846.55,-403.23 832.82,-410.19 820,-415.5 806.7,-421.01 791.67,-426 778.5,-429.99"/>
<polygon fill="midnightblue" stroke="midnightblue" points="859.83,-400.03 866.9,-392.14 856.45,-393.9 859.83,-400.03"/>
</g>
<!-- Node10 -->
<g id="node10" class="node">
<title>Node10</title>
<g id="a_node10"><a xlink:href="../../d6/df1/classpa_1_1LimitedMemoryQR.html#a436c4dbbf0476354ca67a104bc005e55" target="_top" xlink:title="Remove the leftmost column.">
<polygon fill="white" stroke="black" points="535,-373 535,-392 630,-392 630,-373 535,-373"/>
<text text-anchor="middle" x="582.5" y="-380" font-family="Helvetica,sans-Serif" font-size="10.00">remove_column</text>
</a>
</g>
</g>
<!-- Node9&#45;&gt;Node10 -->
<g id="edge11" class="edge">
<title>Node9&#45;&gt;Node10</title>
<path fill="none" stroke="midnightblue" d="M850.69,-382.5C797.3,-382.5 691.41,-382.5 630.19,-382.5"/>
<polygon fill="midnightblue" stroke="midnightblue" points="850.95,-386 860.95,-382.5 850.95,-379 850.95,-386"/>
</g>
<!-- Node11 -->
<g id="node11" class="node">
<title>Node11</title>
<g id="a_node11"><a xlink:href="../../d6/df1/classpa_1_1LimitedMemoryQR.html#af7f8c95bb4f88ce659d9eee262afae4b" target="_top" xlink:title="Get the next index in the circular buffer.">
<polygon fill="white" stroke="black" points="712,-354 712,-373 774,-373 774,-354 712,-354"/>
<text text-anchor="middle" x="743" y="-361" font-family="Helvetica,sans-Serif" font-size="10.00">ring_next</text>
</a>
</g>
</g>
<!-- Node9&#45;&gt;Node11 -->
<g id="edge13" class="edge">
<title>Node9&#45;&gt;Node11</title>
<path fill="none" stroke="midnightblue" d="M850.71,-378.03C827.49,-374.87 796.6,-370.66 774.03,-367.59"/>
<polygon fill="midnightblue" stroke="midnightblue" points="850.4,-381.52 860.78,-379.41 851.34,-374.59 850.4,-381.52"/>
</g>
<!-- Node10&#45;&gt;Node3 -->
<g id="edge12" class="edge">
<title>Node10&#45;&gt;Node3</title>
<path fill="none" stroke="midnightblue" d="M550.16,-368.94C527.97,-359.34 498.19,-346.46 475.26,-336.54"/>
<polygon fill="midnightblue" stroke="midnightblue" points="548.9,-372.21 559.47,-372.97 551.68,-365.79 548.9,-372.21"/>
</g>
<!-- Node13 -->
<g id="node13" class="node">
<title>Node13</title>
<g id="a_node13"><a xlink:href="../../db/d9c/classpa_1_1PANOCSolver.html#a046eb909dc292ea710c9e93ff49d66ab" target="_top" xlink:title=" ">
<polygon fill="white" stroke="black" points="666,-50 666,-69 820,-69 820,-50 666,-50"/>
<text text-anchor="middle" x="743" y="-57" font-family="Helvetica,sans-Serif" font-size="10.00">pa::PANOCSolver::operator()</text>
</a>
</g>
</g>
<!-- Node12&#45;&gt;Node13 -->
<g id="edge15" class="edge">
<title>Node12&#45;&gt;Node13</title>
<path fill="none" stroke="midnightblue" d="M851.33,-59.5C841.86,-59.5 831.09,-59.5 820.09,-59.5"/>
<polygon fill="midnightblue" stroke="midnightblue" points="851.4,-63 861.4,-59.5 851.4,-56 851.4,-63"/>
</g>
<!-- Node14 -->
<g id="node14" class="node">
<title>Node14</title>
<g id="a_node14"><a xlink:href="../../da/db8/classpa_1_1AndersonAccel.html#a94d70718a4b923a645b928bc68524916" target="_top" xlink:title=" ">
<polygon fill="white" stroke="black" points="686.5,-0.5 686.5,-30.5 799.5,-30.5 799.5,-0.5 686.5,-0.5"/>
<text text-anchor="start" x="694.5" y="-18.5" font-family="Helvetica,sans-Serif" font-size="10.00">pa::AndersonAccel::</text>
<text text-anchor="middle" x="743" y="-7.5" font-family="Helvetica,sans-Serif" font-size="10.00">resize</text>
</a>
</g>
</g>
<!-- Node12&#45;&gt;Node14 -->
<g id="edge16" class="edge">
<title>Node12&#45;&gt;Node14</title>
<path fill="none" stroke="midnightblue" d="M851.56,-49.43C833.84,-43.84 811.46,-36.78 791.71,-30.55"/>
<polygon fill="midnightblue" stroke="midnightblue" points="850.81,-52.86 861.4,-52.53 852.91,-46.18 850.81,-52.86"/>
</g>
<!-- Node15&#45;&gt;Node3 -->
<g id="edge18" class="edge">
<title>Node15&#45;&gt;Node3</title>
<path fill="none" stroke="midnightblue" d="M849.31,-243.42C839.9,-246.68 829.63,-249.97 820,-252.5 708.11,-281.87 574.42,-303.02 499.3,-313.67"/>
<polygon fill="midnightblue" stroke="midnightblue" points="850.49,-246.72 858.74,-240.07 848.15,-240.12 850.49,-246.72"/>
</g>
<!-- Node16 -->
<g id="node16" class="node">
<title>Node16</title>
<g id="a_node16"><a xlink:href="../../d6/df1/classpa_1_1LimitedMemoryQR.html#a53110c85b0c151a290bf8d29533cd370" target="_top" xlink:title="Get reverse iterators in the circular buffer.">
<polygon fill="white" stroke="black" points="693.5,-164 693.5,-183 792.5,-183 792.5,-164 693.5,-164"/>
<text text-anchor="middle" x="743" y="-171" font-family="Helvetica,sans-Serif" font-size="10.00">ring_reverse_iter</text>
</a>
</g>
</g>
<!-- Node15&#45;&gt;Node16 -->
<g id="edge19" class="edge">
<title>Node15&#45;&gt;Node16</title>
<path fill="none" stroke="midnightblue" d="M857.95,-215.93C846.55,-209.77 832.82,-202.81 820,-197.5 806.7,-191.99 791.67,-187 778.5,-183.01"/>
<polygon fill="midnightblue" stroke="midnightblue" points="856.45,-219.1 866.9,-220.86 859.83,-212.97 856.45,-219.1"/>
</g>
<!-- Node17 -->
<g id="node17" class="node">
<title>Node17</title>
<g id="a_node17"><a xlink:href="../../d6/df1/classpa_1_1LimitedMemoryQR.html#a7a60dfe0a5f68bc1efec69e406a2b619" target="_top" xlink:title="Solve the least squares problem Ax = b.">
<polygon fill="white" stroke="black" points="551.5,-183 551.5,-202 613.5,-202 613.5,-183 551.5,-183"/>
<text text-anchor="middle" x="582.5" y="-190" font-family="Helvetica,sans-Serif" font-size="10.00">solve_col</text>
</a>
</g>
</g>
<!-- Node15&#45;&gt;Node17 -->
<g id="edge26" class="edge">
<title>Node15&#45;&gt;Node17</title>
<path fill="none" stroke="midnightblue" d="M845.59,-225.7C785.33,-218.06 668.86,-203.31 613.78,-196.34"/>
<polygon fill="midnightblue" stroke="midnightblue" points="845.45,-229.21 855.81,-226.99 846.33,-222.26 845.45,-229.21"/>
</g>
<!-- Node20 -->
<g id="node20" class="node">
<title>Node20</title>
<g id="a_node20"><a xlink:href="../../d6/df1/classpa_1_1LimitedMemoryQR.html#adf11f99cb8b119423c86498dbaab9820" target="_top" xlink:title="Multiply the matrix R by a scalar.">
<polygon fill="white" stroke="black" points="555.5,-240 555.5,-259 609.5,-259 609.5,-240 555.5,-240"/>
<text text-anchor="middle" x="582.5" y="-247" font-family="Helvetica,sans-Serif" font-size="10.00">scale_R</text>
</a>
</g>
</g>
<!-- Node15&#45;&gt;Node20 -->
<g id="edge24" class="edge">
<title>Node15&#45;&gt;Node20</title>
<path fill="none" stroke="midnightblue" d="M845.72,-232.89C784.02,-236.8 663.14,-244.46 609.83,-247.83"/>
<polygon fill="midnightblue" stroke="midnightblue" points="846.06,-236.38 855.81,-232.25 845.61,-229.39 846.06,-236.38"/>
</g>
<!-- Node16&#45;&gt;Node17 -->
<g id="edge20" class="edge">
<title>Node16&#45;&gt;Node17</title>
<path fill="none" stroke="midnightblue" d="M683.18,-180.55C659.48,-183.39 633.17,-186.55 613.53,-188.9"/>
<polygon fill="midnightblue" stroke="midnightblue" points="683.64,-184.02 693.15,-179.36 682.81,-177.07 683.64,-184.02"/>
</g>
<!-- Node17&#45;&gt;Node3 -->
<g id="edge21" class="edge">
<title>Node17&#45;&gt;Node3</title>
<path fill="none" stroke="midnightblue" d="M561.03,-208.63C552.81,-215.26 543.33,-223.1 535,-230.5 506.04,-256.2 473.87,-287.9 455.52,-306.29"/>
<polygon fill="midnightblue" stroke="midnightblue" points="563.41,-211.21 569.03,-202.23 559.04,-205.74 563.41,-211.21"/>
</g>
<!-- Node18 -->
<g id="node18" class="node">
<title>Node18</title>
<g id="a_node18"><a xlink:href="../../d6/df1/classpa_1_1LimitedMemoryQR.html#a9ec3e86c6cbb239ba0642378b564af41" target="_top" xlink:title="Solve the least squares problem AX = B.">
<polygon fill="white" stroke="black" points="418,-174 418,-193 461,-193 461,-174 418,-174"/>
<text text-anchor="middle" x="439.5" y="-181" font-family="Helvetica,sans-Serif" font-size="10.00">solve</text>
</a>
</g>
</g>
<!-- Node17&#45;&gt;Node18 -->
<g id="edge22" class="edge">
<title>Node17&#45;&gt;Node18</title>
<path fill="none" stroke="midnightblue" d="M541.24,-189.93C515.09,-188.26 482.08,-186.15 461.13,-184.82"/>
<polygon fill="midnightblue" stroke="midnightblue" points="541.05,-193.43 551.25,-190.57 541.5,-186.44 541.05,-193.43"/>
</g>
<!-- Node18&#45;&gt;Node19 -->
<g id="edge23" class="edge">
<title>Node18&#45;&gt;Node19</title>
<path fill="none" stroke="midnightblue" d="M407.8,-176.85C372.11,-169.12 314.17,-156.58 283.52,-149.94"/>
<polygon fill="midnightblue" stroke="midnightblue" points="407.16,-180.3 417.68,-178.99 408.65,-173.45 407.16,-180.3"/>
</g>
<!-- Node20&#45;&gt;Node6 -->
<g id="edge25" class="edge">
<title>Node20&#45;&gt;Node6</title>
<path fill="none" stroke="midnightblue" d="M545.4,-250.86C496.82,-252.69 409.01,-256 344.17,-258.44"/>
<polygon fill="midnightblue" stroke="midnightblue" points="545.57,-254.36 555.44,-250.48 545.31,-247.36 545.57,-254.36"/>
</g>
</g>
</svg>
