<?xml version="1.0" encoding="UTF-8" standalone="no"?>
<!DOCTYPE svg PUBLIC "-//W3C//DTD SVG 1.1//EN"
 "http://www.w3.org/Graphics/SVG/1.1/DTD/svg11.dtd">
<!-- Generated by graphviz version 2.43.0 (0)
 -->
<!-- Title: reset Pages: 1 -->
<svg width="645pt" height="166pt"
 viewBox="0.00 0.00 645.00 165.50" xmlns="http://www.w3.org/2000/svg" xmlns:xlink="http://www.w3.org/1999/xlink">
<g id="graph0" class="graph" transform="scale(1 1) rotate(0) translate(4 161.5)">
<title>reset</title>
<polygon fill="white" stroke="transparent" points="-4,4 -4,-161.5 641,-161.5 641,4 -4,4"/>
<!-- Node1 -->
<g id="node1" class="node">
<title>Node1</title>
<g id="a_node1"><a xlink:title="Reset all indices, clearing the Q and R matrices.">
<polygon fill="#bfbfbf" stroke="black" points="596,-94 596,-113 637,-113 637,-94 596,-94"/>
<text text-anchor="middle" x="616.5" y="-101" font-family="Helvetica,sans-Serif" font-size="10.00">reset</text>
</a>
</g>
</g>
<!-- Node2 -->
<g id="node2" class="node">
<title>Node2</title>
<g id="a_node2"><a xlink:href="../../d8/d33/classpa_1_1GuardedAAPGA.html#a656a1117248ac02387eb817ee135df0e" target="_top" xlink:title=" ">
<polygon fill="white" stroke="black" points="396,-138 396,-157 560,-157 560,-138 396,-138"/>
<text text-anchor="middle" x="478" y="-145" font-family="Helvetica,sans-Serif" font-size="10.00">pa::GuardedAAPGA::operator()</text>
</a>
</g>
</g>
<!-- Node1&#45;&gt;Node2 -->
<g id="edge1" class="edge">
<title>Node1&#45;&gt;Node2</title>
<path fill="none" stroke="midnightblue" d="M587.35,-117.44C578.72,-121.38 569.09,-125.42 560,-128.5 549.33,-132.12 537.64,-135.29 526.55,-137.96"/>
<polygon fill="midnightblue" stroke="midnightblue" points="589.03,-120.52 596.6,-113.11 586.06,-114.18 589.03,-120.52"/>
</g>
<!-- Node3 -->
<g id="node3" class="node">
<title>Node3</title>
<g id="a_node3"><a xlink:href="../../da/db8/classpa_1_1AndersonAccel.html#ad20897c5c8bd47f5d4005989bead0e55" target="_top" xlink:title=" ">
<polygon fill="white" stroke="black" points="421.5,-88.5 421.5,-118.5 534.5,-118.5 534.5,-88.5 421.5,-88.5"/>
<text text-anchor="start" x="429.5" y="-106.5" font-family="Helvetica,sans-Serif" font-size="10.00">pa::AndersonAccel::</text>
<text text-anchor="middle" x="478" y="-95.5" font-family="Helvetica,sans-Serif" font-size="10.00">reset</text>
</a>
</g>
</g>
<!-- Node1&#45;&gt;Node3 -->
<g id="edge2" class="edge">
<title>Node1&#45;&gt;Node3</title>
<path fill="none" stroke="midnightblue" d="M585.79,-103.5C570.85,-103.5 552.26,-103.5 534.8,-103.5"/>
<polygon fill="midnightblue" stroke="midnightblue" points="585.94,-107 595.94,-103.5 585.94,-100 585.94,-107"/>
</g>
<!-- Node6 -->
<g id="node6" class="node">
<title>Node6</title>
<g id="a_node6"><a xlink:href="../../d6/df1/classpa_1_1LimitedMemoryQR.html#a94d70718a4b923a645b928bc68524916" target="_top" xlink:title="Re&#45;allocate storage for a problem with a different size.">
<polygon fill="white" stroke="black" points="455,-50 455,-69 501,-69 501,-50 455,-50"/>
<text text-anchor="middle" x="478" y="-57" font-family="Helvetica,sans-Serif" font-size="10.00">resize</text>
</a>
</g>
</g>
<!-- Node1&#45;&gt;Node6 -->
<g id="edge5" class="edge">
<title>Node1&#45;&gt;Node6</title>
<path fill="none" stroke="midnightblue" d="M587.35,-89.56C578.72,-85.62 569.09,-81.58 560,-78.5 540.57,-71.92 517.78,-66.79 501.33,-63.53"/>
<polygon fill="midnightblue" stroke="midnightblue" points="586.06,-92.82 596.6,-93.89 589.03,-86.48 586.06,-92.82"/>
</g>
<!-- Node4 -->
<g id="node4" class="node">
<title>Node4</title>
<g id="a_node4"><a xlink:href="../../da/db8/classpa_1_1AndersonAccel.html#af1f7f1b0b1868cb2e03aa548c0ae2e85" target="_top" xlink:title=" ">
<polygon fill="white" stroke="black" points="226.5,-88.5 226.5,-118.5 339.5,-118.5 339.5,-88.5 226.5,-88.5"/>
<text text-anchor="start" x="234.5" y="-106.5" font-family="Helvetica,sans-Serif" font-size="10.00">pa::AndersonAccel::</text>
<text text-anchor="middle" x="283" y="-95.5" font-family="Helvetica,sans-Serif" font-size="10.00">reinitialize</text>
</a>
</g>
</g>
<!-- Node3&#45;&gt;Node4 -->
<g id="edge3" class="edge">
<title>Node3&#45;&gt;Node4</title>
<path fill="none" stroke="midnightblue" d="M411.27,-103.5C387.93,-103.5 361.91,-103.5 339.51,-103.5"/>
<polygon fill="midnightblue" stroke="midnightblue" points="411.44,-107 421.44,-103.5 411.44,-100 411.44,-107"/>
</g>
<!-- Node5 -->
<g id="node5" class="node">
<title>Node5</title>
<g id="a_node5"><a xlink:href="../../db/d62/structpa_1_1PANOCDirection_3_01AndersonAccel_01_4.html#aec1a817f12307745a2f7b39cce9b0a9b" target="_top" xlink:title=" ">
<polygon fill="white" stroke="black" points="0,-88.5 0,-118.5 170,-118.5 170,-88.5 0,-88.5"/>
<text text-anchor="start" x="8" y="-106.5" font-family="Helvetica,sans-Serif" font-size="10.00">pa::PANOCDirection</text>
<text text-anchor="middle" x="85" y="-95.5" font-family="Helvetica,sans-Serif" font-size="10.00">&lt; AndersonAccel &gt;::changed_γ</text>
</a>
</g>
</g>
<!-- Node4&#45;&gt;Node5 -->
<g id="edge4" class="edge">
<title>Node4&#45;&gt;Node5</title>
<path fill="none" stroke="midnightblue" d="M216.34,-103.5C201.59,-103.5 185.73,-103.5 170.34,-103.5"/>
<polygon fill="midnightblue" stroke="midnightblue" points="216.36,-107 226.36,-103.5 216.36,-100 216.36,-107"/>
</g>
<!-- Node7 -->
<g id="node7" class="node">
<title>Node7</title>
<g id="a_node7"><a xlink:href="../../db/d9c/classpa_1_1PANOCSolver.html#a046eb909dc292ea710c9e93ff49d66ab" target="_top" xlink:title=" ">
<polygon fill="white" stroke="black" points="206,-50 206,-69 360,-69 360,-50 206,-50"/>
<text text-anchor="middle" x="283" y="-57" font-family="Helvetica,sans-Serif" font-size="10.00">pa::PANOCSolver::operator()</text>
</a>
</g>
</g>
<!-- Node6&#45;&gt;Node7 -->
<g id="edge6" class="edge">
<title>Node6&#45;&gt;Node7</title>
<path fill="none" stroke="midnightblue" d="M444.64,-59.5C421.61,-59.5 389.69,-59.5 360.36,-59.5"/>
<polygon fill="midnightblue" stroke="midnightblue" points="444.86,-63 454.86,-59.5 444.86,-56 444.86,-63"/>
</g>
<!-- Node8 -->
<g id="node8" class="node">
<title>Node8</title>
<g id="a_node8"><a xlink:href="../../da/db8/classpa_1_1AndersonAccel.html#a94d70718a4b923a645b928bc68524916" target="_top" xlink:title=" ">
<polygon fill="white" stroke="black" points="226.5,-0.5 226.5,-30.5 339.5,-30.5 339.5,-0.5 226.5,-0.5"/>
<text text-anchor="start" x="234.5" y="-18.5" font-family="Helvetica,sans-Serif" font-size="10.00">pa::AndersonAccel::</text>
<text text-anchor="middle" x="283" y="-7.5" font-family="Helvetica,sans-Serif" font-size="10.00">resize</text>
</a>
</g>
</g>
<!-- Node6&#45;&gt;Node8 -->
<g id="edge7" class="edge">
<title>Node6&#45;&gt;Node8</title>
<path fill="none" stroke="midnightblue" d="M444.98,-52.2C416.35,-45.67 373.74,-35.96 339.56,-28.17"/>
<polygon fill="midnightblue" stroke="midnightblue" points="444.33,-55.64 454.86,-54.45 445.89,-48.82 444.33,-55.64"/>
</g>
</g>
</svg>
