<?xml version="1.0" encoding="UTF-8" standalone="no"?>
<!DOCTYPE svg PUBLIC "-//W3C//DTD SVG 1.1//EN"
 "http://www.w3.org/Graphics/SVG/1.1/DTD/svg11.dtd">
<!-- Generated by graphviz version 2.43.0 (0)
 -->
<!-- Title: remove_column Pages: 1 -->
<svg width="638pt" height="78pt"
 viewBox="0.00 0.00 638.00 77.50" xmlns="http://www.w3.org/2000/svg" xmlns:xlink="http://www.w3.org/1999/xlink">
<g id="graph0" class="graph" transform="scale(1 1) rotate(0) translate(4 73.5)">
<title>remove_column</title>
<polygon fill="white" stroke="transparent" points="-4,4 -4,-73.5 634,-73.5 634,4 -4,4"/>
<!-- Node1 -->
<g id="node1" class="node">
<title>Node1</title>
<g id="a_node1"><a xlink:title="Remove the leftmost column.">
<polygon fill="#bfbfbf" stroke="black" points="535,-22.5 535,-41.5 630,-41.5 630,-22.5 535,-22.5"/>
<text text-anchor="middle" x="582.5" y="-29.5" font-family="Helvetica,sans-Serif" font-size="10.00">remove_column</text>
</a>
</g>
</g>
<!-- Node2 -->
<g id="node2" class="node">
<title>Node2</title>
<g id="a_node2"><a xlink:href="../../de/d4f/namespacepa.html#a04d9e05002d02fd15c58766c259ef0d7" target="_top" xlink:title="Solve one step of Anderson acceleration to find a fixed point of a function g(x):">
<polygon fill="white" stroke="black" points="380,-17 380,-47 499,-47 499,-17 380,-17"/>
<text text-anchor="start" x="388" y="-35" font-family="Helvetica,sans-Serif" font-size="10.00">pa::minimize_update</text>
<text text-anchor="middle" x="439.5" y="-24" font-family="Helvetica,sans-Serif" font-size="10.00">_anderson</text>
</a>
</g>
</g>
<!-- Node1&#45;&gt;Node2 -->
<g id="edge1" class="edge">
<title>Node1&#45;&gt;Node2</title>
<path fill="none" stroke="midnightblue" d="M524.79,-32C516.32,-32 507.58,-32 499.08,-32"/>
<polygon fill="midnightblue" stroke="midnightblue" points="524.94,-35.5 534.94,-32 524.94,-28.5 524.94,-35.5"/>
</g>
<!-- Node3 -->
<g id="node3" class="node">
<title>Node3</title>
<g id="a_node3"><a xlink:href="../../da/db8/classpa_1_1AndersonAccel.html#a631bbbe30343f7e51af52d3d4e7804c6" target="_top" xlink:title=" ">
<polygon fill="white" stroke="black" points="205.5,-39 205.5,-69 318.5,-69 318.5,-39 205.5,-39"/>
<text text-anchor="start" x="213.5" y="-57" font-family="Helvetica,sans-Serif" font-size="10.00">pa::AndersonAccel::</text>
<text text-anchor="middle" x="262" y="-46" font-family="Helvetica,sans-Serif" font-size="10.00">compute</text>
</a>
</g>
</g>
<!-- Node2&#45;&gt;Node3 -->
<g id="edge2" class="edge">
<title>Node2&#45;&gt;Node3</title>
<path fill="none" stroke="midnightblue" d="M369.24,-40.68C352.4,-42.79 334.61,-45.02 318.51,-47.04"/>
<polygon fill="midnightblue" stroke="midnightblue" points="370.09,-44.1 379.57,-39.39 369.22,-37.16 370.09,-44.1"/>
</g>
<!-- Node5 -->
<g id="node5" class="node">
<title>Node5</title>
<g id="a_node5"><a xlink:href="../../d8/d33/classpa_1_1GuardedAAPGA.html#a656a1117248ac02387eb817ee135df0e" target="_top" xlink:title=" ">
<polygon fill="white" stroke="black" points="180,-0.5 180,-19.5 344,-19.5 344,-0.5 180,-0.5"/>
<text text-anchor="middle" x="262" y="-7.5" font-family="Helvetica,sans-Serif" font-size="10.00">pa::GuardedAAPGA::operator()</text>
</a>
</g>
</g>
<!-- Node2&#45;&gt;Node5 -->
<g id="edge4" class="edge">
<title>Node2&#45;&gt;Node5</title>
<path fill="none" stroke="midnightblue" d="M369.63,-23.37C359.55,-22.1 349.12,-20.8 338.91,-19.52"/>
<polygon fill="midnightblue" stroke="midnightblue" points="369.22,-26.84 379.57,-24.61 370.09,-19.9 369.22,-26.84"/>
</g>
<!-- Node4 -->
<g id="node4" class="node">
<title>Node4</title>
<g id="a_node4"><a xlink:href="../../db/d62/structpa_1_1PANOCDirection_3_01AndersonAccel_01_4.html#ab6c112897f55aafb9f1aeef9541a5272" target="_top" xlink:title=" ">
<polygon fill="white" stroke="black" points="0,-39 0,-69 144,-69 144,-39 0,-39"/>
<text text-anchor="start" x="8" y="-57" font-family="Helvetica,sans-Serif" font-size="10.00">pa::PANOCDirection</text>
<text text-anchor="middle" x="72" y="-46" font-family="Helvetica,sans-Serif" font-size="10.00">&lt; AndersonAccel &gt;::apply</text>
</a>
</g>
</g>
<!-- Node3&#45;&gt;Node4 -->
<g id="edge3" class="edge">
<title>Node3&#45;&gt;Node4</title>
<path fill="none" stroke="midnightblue" d="M195.27,-54C178.77,-54 160.98,-54 144.23,-54"/>
<polygon fill="midnightblue" stroke="midnightblue" points="195.36,-57.5 205.36,-54 195.36,-50.5 195.36,-57.5"/>
</g>
</g>
</svg>
