<?xml version="1.0" encoding="UTF-8" standalone="no"?>
<!DOCTYPE svg PUBLIC "-//W3C//DTD SVG 1.1//EN"
 "http://www.w3.org/Graphics/SVG/1.1/DTD/svg11.dtd">
<!-- Generated by graphviz version 2.43.0 (0)
 -->
<!-- Title: main.cpp Pages: 1 -->
<svg width="1119pt" height="341pt"
 viewBox="0.00 0.00 1118.59 341.00" xmlns="http://www.w3.org/2000/svg" xmlns:xlink="http://www.w3.org/1999/xlink">
<g id="graph0" class="graph" transform="scale(1 1) rotate(0) translate(4 337)">
<title>main.cpp</title>
<polygon fill="white" stroke="transparent" points="-4,4 -4,-337 1114.59,-337 1114.59,4 -4,4"/>
<!-- Node1 -->
<g id="node1" class="node">
<title>Node1</title>
<g id="a_node1"><a xlink:title=" ">
<polygon fill="#bfbfbf" stroke="black" points="556,-313.5 556,-332.5 618,-332.5 618,-313.5 556,-313.5"/>
<text text-anchor="middle" x="587" y="-320.5" font-family="Helvetica,sans-Serif" font-size="10.00">main.cpp</text>
</a>
</g>
</g>
<!-- Node2 -->
<g id="node2" class="node">
<title>Node2</title>
<g id="a_node2"><a xlink:href="../../d4/dd2/decl_2alm_8hpp.html" target="_top" xlink:title=" ">
<polygon fill="white" stroke="black" points="375,-252 375,-271 509,-271 509,-252 375,-252"/>
<text text-anchor="middle" x="442" y="-259" font-family="Helvetica,sans-Serif" font-size="10.00">panoc&#45;alm/decl/alm.hpp</text>
</a>
</g>
</g>
<!-- Node1&#45;&gt;Node2 -->
<g id="edge1" class="edge">
<title>Node1&#45;&gt;Node2</title>
<path fill="none" stroke="midnightblue" d="M566.23,-313.48C541.57,-303.36 500.25,-286.4 472.1,-274.85"/>
<polygon fill="midnightblue" stroke="midnightblue" points="473.32,-271.57 462.74,-271.01 470.66,-278.04 473.32,-271.57"/>
</g>
<!-- Node15 -->
<g id="node15" class="node">
<title>Node15</title>
<g id="a_node15"><a xlink:href="../../d1/db5/decl_2lbfgs_8hpp.html" target="_top" xlink:title=" ">
<polygon fill="white" stroke="black" points="804.5,-179.5 804.5,-209.5 951.5,-209.5 951.5,-179.5 804.5,-179.5"/>
<text text-anchor="start" x="812.5" y="-197.5" font-family="Helvetica,sans-Serif" font-size="10.00">panoc&#45;alm/inner/directions</text>
<text text-anchor="middle" x="878" y="-186.5" font-family="Helvetica,sans-Serif" font-size="10.00">/decl/lbfgs.hpp</text>
</a>
</g>
</g>
<!-- Node1&#45;&gt;Node15 -->
<g id="edge14" class="edge">
<title>Node1&#45;&gt;Node15</title>
<path fill="none" stroke="midnightblue" d="M600.78,-313.38C614.69,-304.56 636.67,-290.31 655,-277 672.92,-263.99 674.26,-256.02 694,-246 725.19,-230.17 761.94,-218.81 794.37,-210.92"/>
<polygon fill="midnightblue" stroke="midnightblue" points="795.36,-214.28 804.29,-208.58 793.75,-207.47 795.36,-214.28"/>
</g>
<!-- Node16 -->
<g id="node16" class="node">
<title>Node16</title>
<g id="a_node16"><a xlink:href="../../d2/da2/decl_2panoc_8hpp.html" target="_top" xlink:title=" ">
<polygon fill="white" stroke="black" points="527.5,-246.5 527.5,-276.5 646.5,-276.5 646.5,-246.5 527.5,-246.5"/>
<text text-anchor="start" x="535.5" y="-264.5" font-family="Helvetica,sans-Serif" font-size="10.00">panoc&#45;alm/inner/decl</text>
<text text-anchor="middle" x="587" y="-253.5" font-family="Helvetica,sans-Serif" font-size="10.00">/panoc.hpp</text>
</a>
</g>
</g>
<!-- Node1&#45;&gt;Node16 -->
<g id="edge18" class="edge">
<title>Node1&#45;&gt;Node16</title>
<path fill="none" stroke="midnightblue" d="M587,-313.48C587,-306.47 587,-296.19 587,-286.7"/>
<polygon fill="midnightblue" stroke="midnightblue" points="590.5,-286.52 587,-276.52 583.5,-286.52 590.5,-286.52"/>
</g>
<!-- Node20 -->
<g id="node20" class="node">
<title>Node20</title>
<g id="a_node20"><a xlink:href="../../da/d1e/CUTEstLoader_8hpp.html" target="_top" xlink:title=" ">
<polygon fill="white" stroke="black" points="66.5,-246.5 66.5,-276.5 205.5,-276.5 205.5,-246.5 66.5,-246.5"/>
<text text-anchor="start" x="74.5" y="-264.5" font-family="Helvetica,sans-Serif" font-size="10.00">panoc&#45;alm/interop/cutest</text>
<text text-anchor="middle" x="136" y="-253.5" font-family="Helvetica,sans-Serif" font-size="10.00">/CUTEstLoader.hpp</text>
</a>
</g>
</g>
<!-- Node1&#45;&gt;Node20 -->
<g id="edge28" class="edge">
<title>Node1&#45;&gt;Node20</title>
<path fill="none" stroke="midnightblue" d="M555.64,-317.86C486.02,-308.68 316.73,-286.34 215.73,-273.02"/>
<polygon fill="midnightblue" stroke="midnightblue" points="215.94,-269.52 205.57,-271.68 215.02,-276.46 215.94,-269.52"/>
</g>
<!-- Node22 -->
<g id="node22" class="node">
<title>Node22</title>
<g id="a_node22"><a xlink:title=" ">
<polygon fill="white" stroke="#bfbfbf" points="703,-252 703,-271 763,-271 763,-252 703,-252"/>
<text text-anchor="middle" x="733" y="-259" font-family="Helvetica,sans-Serif" font-size="10.00">iostream</text>
</a>
</g>
</g>
<!-- Node1&#45;&gt;Node22 -->
<g id="edge33" class="edge">
<title>Node1&#45;&gt;Node22</title>
<path fill="none" stroke="midnightblue" d="M607.92,-313.48C632.75,-303.36 674.34,-286.4 702.69,-274.85"/>
<polygon fill="midnightblue" stroke="midnightblue" points="704.18,-278.02 712.12,-271.01 701.54,-271.54 704.18,-278.02"/>
</g>
<!-- Node3 -->
<g id="node3" class="node">
<title>Node3</title>
<g id="a_node3"><a xlink:href="../../d4/d83/panoc-fwd_8hpp.html" target="_top" xlink:title=" ">
<polygon fill="white" stroke="black" points="604.5,-179.5 604.5,-209.5 723.5,-209.5 723.5,-179.5 604.5,-179.5"/>
<text text-anchor="start" x="612.5" y="-197.5" font-family="Helvetica,sans-Serif" font-size="10.00">panoc&#45;alm/inner/decl</text>
<text text-anchor="middle" x="664" y="-186.5" font-family="Helvetica,sans-Serif" font-size="10.00">/panoc&#45;fwd.hpp</text>
</a>
</g>
</g>
<!-- Node2&#45;&gt;Node3 -->
<g id="edge2" class="edge">
<title>Node2&#45;&gt;Node3</title>
<path fill="none" stroke="midnightblue" d="M471.48,-251.87C505.73,-241.84 563.06,-225.06 606.27,-212.4"/>
<polygon fill="midnightblue" stroke="midnightblue" points="607.48,-215.7 616.09,-209.53 605.51,-208.98 607.48,-215.7"/>
</g>
<!-- Node5 -->
<g id="node5" class="node">
<title>Node5</title>
<g id="a_node5"><a xlink:href="../../d5/d37/problem_8hpp.html" target="_top" xlink:title=" ">
<polygon fill="white" stroke="black" points="366,-185 366,-204 518,-204 518,-185 366,-185"/>
<text text-anchor="middle" x="442" y="-192" font-family="Helvetica,sans-Serif" font-size="10.00">panoc&#45;alm/util/problem.hpp</text>
</a>
</g>
</g>
<!-- Node2&#45;&gt;Node5 -->
<g id="edge4" class="edge">
<title>Node2&#45;&gt;Node5</title>
<path fill="none" stroke="midnightblue" d="M442,-251.73C442,-242.18 442,-226.62 442,-214.28"/>
<polygon fill="midnightblue" stroke="midnightblue" points="445.5,-214.13 442,-204.13 438.5,-214.13 445.5,-214.13"/>
</g>
<!-- Node11 -->
<g id="node11" class="node">
<title>Node11</title>
<g id="a_node11"><a xlink:href="../../dc/d8c/solverstatus_8hpp.html" target="_top" xlink:title=" ">
<polygon fill="white" stroke="black" points="176.5,-185 176.5,-204 347.5,-204 347.5,-185 176.5,-185"/>
<text text-anchor="middle" x="262" y="-192" font-family="Helvetica,sans-Serif" font-size="10.00">panoc&#45;alm/util/solverstatus.hpp</text>
</a>
</g>
</g>
<!-- Node2&#45;&gt;Node11 -->
<g id="edge10" class="edge">
<title>Node2&#45;&gt;Node11</title>
<path fill="none" stroke="midnightblue" d="M418.1,-251.87C386.54,-240.47 330.82,-220.35 295.19,-207.49"/>
<polygon fill="midnightblue" stroke="midnightblue" points="296.31,-204.17 285.71,-204.06 293.93,-210.75 296.31,-204.17"/>
</g>
<!-- Node13 -->
<g id="node13" class="node">
<title>Node13</title>
<g id="a_node13"><a xlink:title=" ">
<polygon fill="white" stroke="#bfbfbf" points="536,-185 536,-204 586,-204 586,-185 536,-185"/>
<text text-anchor="middle" x="561" y="-192" font-family="Helvetica,sans-Serif" font-size="10.00">chrono</text>
</a>
</g>
</g>
<!-- Node2&#45;&gt;Node13 -->
<g id="edge12" class="edge">
<title>Node2&#45;&gt;Node13</title>
<path fill="none" stroke="midnightblue" d="M458.05,-251.73C478.12,-240.77 512.7,-221.88 536.19,-209.05"/>
<polygon fill="midnightblue" stroke="midnightblue" points="538.11,-211.99 545.21,-204.13 534.75,-205.85 538.11,-211.99"/>
</g>
<!-- Node14 -->
<g id="node14" class="node">
<title>Node14</title>
<g id="a_node14"><a xlink:title=" ">
<polygon fill="white" stroke="#bfbfbf" points="114,-185 114,-204 158,-204 158,-185 114,-185"/>
<text text-anchor="middle" x="136" y="-192" font-family="Helvetica,sans-Serif" font-size="10.00">string</text>
</a>
</g>
</g>
<!-- Node2&#45;&gt;Node14 -->
<g id="edge13" class="edge">
<title>Node2&#45;&gt;Node14</title>
<path fill="none" stroke="midnightblue" d="M374.99,-253.07C318.57,-245.66 236.24,-232.14 167,-210 165.33,-209.46 163.63,-208.86 161.93,-208.21"/>
<polygon fill="midnightblue" stroke="midnightblue" points="162.99,-204.85 152.42,-204.13 160.23,-211.29 162.99,-204.85"/>
</g>
<!-- Node4 -->
<g id="node4" class="node">
<title>Node4</title>
<g id="a_node4"><a xlink:href="../../d4/d5e/lbfgs-fwd_8hpp.html" target="_top" xlink:title=" ">
<polygon fill="white" stroke="black" points="702.5,-112.5 702.5,-142.5 849.5,-142.5 849.5,-112.5 702.5,-112.5"/>
<text text-anchor="start" x="710.5" y="-130.5" font-family="Helvetica,sans-Serif" font-size="10.00">panoc&#45;alm/inner/directions</text>
<text text-anchor="middle" x="776" y="-119.5" font-family="Helvetica,sans-Serif" font-size="10.00">/decl/lbfgs&#45;fwd.hpp</text>
</a>
</g>
</g>
<!-- Node3&#45;&gt;Node4 -->
<g id="edge3" class="edge">
<title>Node3&#45;&gt;Node4</title>
<path fill="none" stroke="midnightblue" d="M688.3,-179.4C704.3,-170.11 725.44,-157.84 742.96,-147.67"/>
<polygon fill="midnightblue" stroke="midnightblue" points="744.85,-150.62 751.75,-142.58 741.34,-144.57 744.85,-150.62"/>
</g>
<!-- Node6 -->
<g id="node6" class="node">
<title>Node6</title>
<g id="a_node6"><a xlink:href="../../d7/de4/box_8hpp.html" target="_top" xlink:title=" ">
<polygon fill="white" stroke="black" points="628,-118 628,-137 684,-137 684,-118 628,-118"/>
<text text-anchor="middle" x="656" y="-125" font-family="Helvetica,sans-Serif" font-size="10.00">box.hpp</text>
</a>
</g>
</g>
<!-- Node5&#45;&gt;Node6 -->
<g id="edge5" class="edge">
<title>Node5&#45;&gt;Node6</title>
<path fill="none" stroke="midnightblue" d="M470.42,-184.87C508.42,-173.33 575.88,-152.84 618.15,-140"/>
<polygon fill="midnightblue" stroke="midnightblue" points="619.25,-143.32 627.81,-137.06 617.22,-136.62 619.25,-143.32"/>
</g>
<!-- Node9 -->
<g id="node9" class="node">
<title>Node9</title>
<g id="a_node9"><a xlink:title=" ">
<polygon fill="white" stroke="#bfbfbf" points="451.5,-118 451.5,-137 516.5,-137 516.5,-118 451.5,-118"/>
<text text-anchor="middle" x="484" y="-125" font-family="Helvetica,sans-Serif" font-size="10.00">functional</text>
</a>
</g>
</g>
<!-- Node5&#45;&gt;Node9 -->
<g id="edge8" class="edge">
<title>Node5&#45;&gt;Node9</title>
<path fill="none" stroke="midnightblue" d="M447.66,-184.73C454.09,-174.79 464.72,-158.34 472.83,-145.79"/>
<polygon fill="midnightblue" stroke="midnightblue" points="475.94,-147.43 478.43,-137.13 470.06,-143.63 475.94,-147.43"/>
</g>
<!-- Node10 -->
<g id="node10" class="node">
<title>Node10</title>
<g id="a_node10"><a xlink:title=" ">
<polygon fill="white" stroke="#bfbfbf" points="364.5,-118 364.5,-137 433.5,-137 433.5,-118 364.5,-118"/>
<text text-anchor="middle" x="399" y="-125" font-family="Helvetica,sans-Serif" font-size="10.00">type_traits</text>
</a>
</g>
</g>
<!-- Node5&#45;&gt;Node10 -->
<g id="edge9" class="edge">
<title>Node5&#45;&gt;Node10</title>
<path fill="none" stroke="midnightblue" d="M436.2,-184.73C429.62,-174.79 418.74,-158.34 410.44,-145.79"/>
<polygon fill="midnightblue" stroke="midnightblue" points="413.14,-143.54 404.71,-137.13 407.31,-147.4 413.14,-143.54"/>
</g>
<!-- Node7 -->
<g id="node7" class="node">
<title>Node7</title>
<g id="a_node7"><a xlink:href="../../d7/d7c/vec_8hpp.html" target="_top" xlink:title=" ">
<polygon fill="white" stroke="black" points="739.5,-56.5 739.5,-75.5 794.5,-75.5 794.5,-56.5 739.5,-56.5"/>
<text text-anchor="middle" x="767" y="-63.5" font-family="Helvetica,sans-Serif" font-size="10.00">vec.hpp</text>
</a>
</g>
</g>
<!-- Node6&#45;&gt;Node7 -->
<g id="edge6" class="edge">
<title>Node6&#45;&gt;Node7</title>
<path fill="none" stroke="midnightblue" d="M671.9,-117.98C690.28,-108.12 720.76,-91.79 742.24,-80.27"/>
<polygon fill="midnightblue" stroke="midnightblue" points="743.97,-83.32 751.13,-75.51 740.66,-77.15 743.97,-83.32"/>
</g>
<!-- Node8 -->
<g id="node8" class="node">
<title>Node8</title>
<g id="a_node8"><a xlink:title=" ">
<polygon fill="white" stroke="#bfbfbf" points="732.5,-0.5 732.5,-19.5 801.5,-19.5 801.5,-0.5 732.5,-0.5"/>
<text text-anchor="middle" x="767" y="-7.5" font-family="Helvetica,sans-Serif" font-size="10.00">Eigen/Core</text>
</a>
</g>
</g>
<!-- Node7&#45;&gt;Node8 -->
<g id="edge7" class="edge">
<title>Node7&#45;&gt;Node8</title>
<path fill="none" stroke="midnightblue" d="M767,-56.08C767,-49.01 767,-38.86 767,-29.99"/>
<polygon fill="midnightblue" stroke="midnightblue" points="770.5,-29.75 767,-19.75 763.5,-29.75 770.5,-29.75"/>
</g>
<!-- Node12 -->
<g id="node12" class="node">
<title>Node12</title>
<g id="a_node12"><a xlink:title=" ">
<polygon fill="white" stroke="#bfbfbf" points="150,-118 150,-137 198,-137 198,-118 150,-118"/>
<text text-anchor="middle" x="174" y="-125" font-family="Helvetica,sans-Serif" font-size="10.00">iosfwd</text>
</a>
</g>
</g>
<!-- Node11&#45;&gt;Node12 -->
<g id="edge11" class="edge">
<title>Node11&#45;&gt;Node12</title>
<path fill="none" stroke="midnightblue" d="M250.13,-184.73C235.75,-174.11 211.3,-156.05 193.99,-143.26"/>
<polygon fill="midnightblue" stroke="midnightblue" points="195.8,-140.25 185.68,-137.13 191.64,-145.88 195.8,-140.25"/>
</g>
<!-- Node15&#45;&gt;Node4 -->
<g id="edge17" class="edge">
<title>Node15&#45;&gt;Node4</title>
<path fill="none" stroke="midnightblue" d="M855.87,-179.4C841.43,-170.2 822.4,-158.07 806.53,-147.95"/>
<polygon fill="midnightblue" stroke="midnightblue" points="808.4,-145 798.09,-142.58 804.64,-150.9 808.4,-145"/>
</g>
<!-- Node15&#45;&gt;Node6 -->
<g id="edge15" class="edge">
<title>Node15&#45;&gt;Node6</title>
<path fill="none" stroke="midnightblue" d="M820.44,-179.48C783.69,-170.11 735.19,-156.98 693,-143 690.73,-142.25 688.41,-141.44 686.07,-140.59"/>
<polygon fill="midnightblue" stroke="midnightblue" points="687.19,-137.27 676.6,-137.02 684.72,-143.83 687.19,-137.27"/>
</g>
<!-- Node15&#45;&gt;Node7 -->
<g id="edge16" class="edge">
<title>Node15&#45;&gt;Node7</title>
<path fill="none" stroke="midnightblue" d="M878.02,-179.25C877.32,-161.62 873.68,-131.55 858,-112 844.48,-95.14 823.03,-84.11 804.35,-77.19"/>
<polygon fill="midnightblue" stroke="midnightblue" points="805.49,-73.88 794.89,-73.94 803.21,-80.5 805.49,-73.88"/>
</g>
<!-- Node16&#45;&gt;Node3 -->
<g id="edge19" class="edge">
<title>Node16&#45;&gt;Node3</title>
<path fill="none" stroke="midnightblue" d="M603.71,-246.4C614.2,-237.54 627.92,-225.96 639.61,-216.09"/>
<polygon fill="midnightblue" stroke="midnightblue" points="641.94,-218.7 647.32,-209.58 637.43,-213.35 641.94,-218.7"/>
</g>
<!-- Node16&#45;&gt;Node5 -->
<g id="edge22" class="edge">
<title>Node16&#45;&gt;Node5</title>
<path fill="none" stroke="midnightblue" d="M555.54,-246.4C530.1,-234.99 494.6,-219.08 470.1,-208.1"/>
<polygon fill="midnightblue" stroke="midnightblue" points="471.53,-204.9 460.98,-204.01 468.67,-211.29 471.53,-204.9"/>
</g>
<!-- Node16&#45;&gt;Node11 -->
<g id="edge23" class="edge">
<title>Node16&#45;&gt;Node11</title>
<path fill="none" stroke="midnightblue" d="M527.17,-247.88C524.07,-247.24 521,-246.61 518,-246 448.29,-231.8 367.78,-216.02 315.95,-205.94"/>
<polygon fill="midnightblue" stroke="midnightblue" points="316.46,-202.47 305.97,-204 315.12,-209.35 316.46,-202.47"/>
</g>
<!-- Node16&#45;&gt;Node13 -->
<g id="edge25" class="edge">
<title>Node16&#45;&gt;Node13</title>
<path fill="none" stroke="midnightblue" d="M581.36,-246.4C577.51,-236.76 572.37,-223.91 568.21,-213.54"/>
<polygon fill="midnightblue" stroke="midnightblue" points="571.44,-212.18 564.48,-204.19 564.94,-214.78 571.44,-212.18"/>
</g>
<!-- Node16&#45;&gt;Node14 -->
<g id="edge27" class="edge">
<title>Node16&#45;&gt;Node14</title>
<path fill="none" stroke="midnightblue" d="M527.23,-247.54C524.11,-246.99 521.02,-246.47 518,-246 363.05,-221.84 318.14,-251.81 167,-210 165.07,-209.47 163.11,-208.82 161.16,-208.1"/>
<polygon fill="midnightblue" stroke="midnightblue" points="162.27,-204.77 151.7,-204.09 159.53,-211.22 162.27,-204.77"/>
</g>
<!-- Node17 -->
<g id="node17" class="node">
<title>Node17</title>
<g id="a_node17"><a xlink:href="../../d4/d52/atomic__stop__signal_8hpp.html" target="_top" xlink:title=" ">
<polygon fill="white" stroke="black" points="970,-179.5 970,-209.5 1094,-209.5 1094,-179.5 970,-179.5"/>
<text text-anchor="start" x="978" y="-197.5" font-family="Helvetica,sans-Serif" font-size="10.00">panoc&#45;alm/util/atomic</text>
<text text-anchor="middle" x="1032" y="-186.5" font-family="Helvetica,sans-Serif" font-size="10.00">_stop_signal.hpp</text>
</a>
</g>
</g>
<!-- Node16&#45;&gt;Node17 -->
<g id="edge20" class="edge">
<title>Node16&#45;&gt;Node17</title>
<path fill="none" stroke="midnightblue" d="M646.71,-252.4C662.11,-250.31 678.67,-248.07 694,-246 809.42,-230.4 841.22,-230 959.52,-210.19"/>
<polygon fill="midnightblue" stroke="midnightblue" points="960.43,-213.58 969.71,-208.47 959.26,-206.68 960.43,-213.58"/>
</g>
<!-- Node18 -->
<g id="node18" class="node">
<title>Node18</title>
<g id="a_node18"><a xlink:title=" ">
<polygon fill="white" stroke="#bfbfbf" points="1052,-118 1052,-137 1102,-137 1102,-118 1052,-118"/>
<text text-anchor="middle" x="1077" y="-125" font-family="Helvetica,sans-Serif" font-size="10.00">atomic</text>
</a>
</g>
</g>
<!-- Node16&#45;&gt;Node18 -->
<g id="edge24" class="edge">
<title>Node16&#45;&gt;Node18</title>
<path fill="none" stroke="midnightblue" d="M646.65,-251.91C662.05,-249.83 678.63,-247.72 694,-246 739.34,-240.94 1072.19,-243.64 1103,-210 1119.55,-191.93 1103.97,-163.3 1090.79,-145.22"/>
<polygon fill="midnightblue" stroke="midnightblue" points="1093.55,-143.07 1084.67,-137.29 1088.01,-147.35 1093.55,-143.07"/>
</g>
<!-- Node19 -->
<g id="node19" class="node">
<title>Node19</title>
<g id="a_node19"><a xlink:title=" ">
<polygon fill="white" stroke="#bfbfbf" points="742,-185 742,-204 786,-204 786,-185 742,-185"/>
<text text-anchor="middle" x="764" y="-192" font-family="Helvetica,sans-Serif" font-size="10.00">limits</text>
</a>
</g>
</g>
<!-- Node16&#45;&gt;Node19 -->
<g id="edge26" class="edge">
<title>Node16&#45;&gt;Node19</title>
<path fill="none" stroke="midnightblue" d="M630.52,-246.48C659.52,-236.87 698.34,-223.46 732,-210 733.42,-209.43 734.86,-208.84 736.31,-208.23"/>
<polygon fill="midnightblue" stroke="midnightblue" points="738.08,-211.28 745.85,-204.07 735.28,-204.86 738.08,-211.28"/>
</g>
<!-- Node17&#45;&gt;Node18 -->
<g id="edge21" class="edge">
<title>Node17&#45;&gt;Node18</title>
<path fill="none" stroke="midnightblue" d="M1041.76,-179.4C1048.64,-169.46 1057.89,-156.11 1065.18,-145.57"/>
<polygon fill="midnightblue" stroke="midnightblue" points="1068.17,-147.41 1070.98,-137.19 1062.41,-143.42 1068.17,-147.41"/>
</g>
<!-- Node20&#45;&gt;Node5 -->
<g id="edge29" class="edge">
<title>Node20&#45;&gt;Node5</title>
<path fill="none" stroke="midnightblue" d="M202.02,-246.48C259.01,-234.37 340.11,-217.14 391.9,-206.14"/>
<polygon fill="midnightblue" stroke="midnightblue" points="392.8,-209.53 401.85,-204.03 391.34,-202.68 392.8,-209.53"/>
</g>
<!-- Node20&#45;&gt;Node12 -->
<g id="edge30" class="edge">
<title>Node20&#45;&gt;Node12</title>
<path fill="none" stroke="midnightblue" d="M123.45,-246.27C110.44,-229.69 93.49,-201.68 105,-179 113.34,-162.56 129.84,-150.18 144.6,-141.8"/>
<polygon fill="midnightblue" stroke="midnightblue" points="146.29,-144.86 153.49,-137.09 143.01,-138.68 146.29,-144.86"/>
</g>
<!-- Node20&#45;&gt;Node14 -->
<g id="edge32" class="edge">
<title>Node20&#45;&gt;Node14</title>
<path fill="none" stroke="midnightblue" d="M136,-246.4C136,-237.06 136,-224.71 136,-214.52"/>
<polygon fill="midnightblue" stroke="midnightblue" points="139.5,-214.19 136,-204.19 132.5,-214.19 139.5,-214.19"/>
</g>
<!-- Node21 -->
<g id="node21" class="node">
<title>Node21</title>
<g id="a_node21"><a xlink:title=" ">
<polygon fill="white" stroke="#bfbfbf" points="0,-185 0,-204 58,-204 58,-185 0,-185"/>
<text text-anchor="middle" x="29" y="-192" font-family="Helvetica,sans-Serif" font-size="10.00">memory</text>
</a>
</g>
</g>
<!-- Node20&#45;&gt;Node21 -->
<g id="edge31" class="edge">
<title>Node20&#45;&gt;Node21</title>
<path fill="none" stroke="midnightblue" d="M112.78,-246.4C94.67,-235.39 69.66,-220.2 51.69,-209.28"/>
<polygon fill="midnightblue" stroke="midnightblue" points="53.37,-206.21 43,-204.01 49.73,-212.19 53.37,-206.21"/>
</g>
</g>
</svg>
