<?xml version="1.0" encoding="UTF-8" standalone="no"?>
<!DOCTYPE svg PUBLIC "-//W3C//DTD SVG 1.1//EN"
 "http://www.w3.org/Graphics/SVG/1.1/DTD/svg11.dtd">
<!-- Generated by graphviz version 2.43.0 (0)
 -->
<!-- Title: lbfgs.hpp Pages: 1 -->
<svg width="408pt" height="274pt"
 viewBox="0.00 0.00 408.00 274.00" xmlns="http://www.w3.org/2000/svg" xmlns:xlink="http://www.w3.org/1999/xlink">
<g id="graph0" class="graph" transform="scale(1 1) rotate(0) translate(4 270)">
<title>lbfgs.hpp</title>
<polygon fill="white" stroke="transparent" points="-4,4 -4,-270 404,-270 404,4 -4,4"/>
<!-- Node1 -->
<g id="node1" class="node">
<title>Node1</title>
<g id="a_node1"><a xlink:title=" ">
<polygon fill="#bfbfbf" stroke="black" points="147.5,-246.5 147.5,-265.5 209.5,-265.5 209.5,-246.5 147.5,-246.5"/>
<text text-anchor="middle" x="178.5" y="-253.5" font-family="Helvetica,sans-Serif" font-size="10.00">lbfgs.hpp</text>
</a>
</g>
</g>
<!-- Node2 -->
<g id="node2" class="node">
<title>Node2</title>
<g id="a_node2"><a xlink:href="../../d1/db5/decl_2lbfgs_8hpp.html" target="_top" xlink:title=" ">
<polygon fill="white" stroke="black" points="195,-179.5 195,-209.5 342,-209.5 342,-179.5 195,-179.5"/>
<text text-anchor="start" x="203" y="-197.5" font-family="Helvetica,sans-Serif" font-size="10.00">panoc&#45;alm/inner/directions</text>
<text text-anchor="middle" x="268.5" y="-186.5" font-family="Helvetica,sans-Serif" font-size="10.00">/decl/lbfgs.hpp</text>
</a>
</g>
</g>
<!-- Node1&#45;&gt;Node2 -->
<g id="edge1" class="edge">
<title>Node1&#45;&gt;Node2</title>
<path fill="none" stroke="midnightblue" d="M191.39,-246.48C203.7,-238.34 222.68,-225.79 238.73,-215.18"/>
<polygon fill="midnightblue" stroke="midnightblue" points="240.88,-217.96 247.29,-209.52 237.02,-212.12 240.88,-217.96"/>
</g>
<!-- Node7 -->
<g id="node7" class="node">
<title>Node7</title>
<g id="a_node7"><a xlink:href="../../d3/dfa/panoc-direction-update_8hpp.html" target="_top" xlink:title=" ">
<polygon fill="white" stroke="black" points="0,-179.5 0,-209.5 177,-209.5 177,-179.5 0,-179.5"/>
<text text-anchor="start" x="8" y="-197.5" font-family="Helvetica,sans-Serif" font-size="10.00">panoc&#45;alm/inner/directions</text>
<text text-anchor="middle" x="88.5" y="-186.5" font-family="Helvetica,sans-Serif" font-size="10.00">/decl/panoc&#45;direction&#45;update.hpp</text>
</a>
</g>
</g>
<!-- Node1&#45;&gt;Node7 -->
<g id="edge7" class="edge">
<title>Node1&#45;&gt;Node7</title>
<path fill="none" stroke="midnightblue" d="M165.61,-246.48C153.3,-238.34 134.32,-225.79 118.27,-215.18"/>
<polygon fill="midnightblue" stroke="midnightblue" points="119.98,-212.12 109.71,-209.52 116.12,-217.96 119.98,-212.12"/>
</g>
<!-- Node3 -->
<g id="node3" class="node">
<title>Node3</title>
<g id="a_node3"><a xlink:href="../../d7/de4/box_8hpp.html" target="_top" xlink:title=" ">
<polygon fill="white" stroke="black" points="67,-118 67,-137 196,-137 196,-118 67,-118"/>
<text text-anchor="middle" x="131.5" y="-125" font-family="Helvetica,sans-Serif" font-size="10.00">panoc&#45;alm/util/box.hpp</text>
</a>
</g>
</g>
<!-- Node2&#45;&gt;Node3 -->
<g id="edge2" class="edge">
<title>Node2&#45;&gt;Node3</title>
<path fill="none" stroke="midnightblue" d="M238.77,-179.4C214.95,-168.09 181.79,-152.36 158.67,-141.39"/>
<polygon fill="midnightblue" stroke="midnightblue" points="159.97,-138.13 149.43,-137.01 156.96,-144.46 159.97,-138.13"/>
</g>
<!-- Node4 -->
<g id="node4" class="node">
<title>Node4</title>
<g id="a_node4"><a xlink:href="../../d7/d7c/vec_8hpp.html" target="_top" xlink:title=" ">
<polygon fill="white" stroke="black" points="150,-56.5 150,-75.5 205,-75.5 205,-56.5 150,-56.5"/>
<text text-anchor="middle" x="177.5" y="-63.5" font-family="Helvetica,sans-Serif" font-size="10.00">vec.hpp</text>
</a>
</g>
</g>
<!-- Node2&#45;&gt;Node4 -->
<g id="edge5" class="edge">
<title>Node2&#45;&gt;Node4</title>
<path fill="none" stroke="midnightblue" d="M258.41,-179.48C241.6,-156.1 207.9,-109.25 189.75,-84.02"/>
<polygon fill="midnightblue" stroke="midnightblue" points="192.5,-81.86 183.82,-75.79 186.82,-85.95 192.5,-81.86"/>
</g>
<!-- Node6 -->
<g id="node6" class="node">
<title>Node6</title>
<g id="a_node6"><a xlink:href="../../d4/d5e/lbfgs-fwd_8hpp.html" target="_top" xlink:title=" ">
<polygon fill="white" stroke="black" points="253,-112.5 253,-142.5 400,-142.5 400,-112.5 253,-112.5"/>
<text text-anchor="start" x="261" y="-130.5" font-family="Helvetica,sans-Serif" font-size="10.00">panoc&#45;alm/inner/directions</text>
<text text-anchor="middle" x="326.5" y="-119.5" font-family="Helvetica,sans-Serif" font-size="10.00">/decl/lbfgs&#45;fwd.hpp</text>
</a>
</g>
</g>
<!-- Node2&#45;&gt;Node6 -->
<g id="edge6" class="edge">
<title>Node2&#45;&gt;Node6</title>
<path fill="none" stroke="midnightblue" d="M281.09,-179.4C288.69,-170.88 298.53,-159.85 307.11,-150.23"/>
<polygon fill="midnightblue" stroke="midnightblue" points="309.89,-152.37 313.94,-142.58 304.67,-147.71 309.89,-152.37"/>
</g>
<!-- Node3&#45;&gt;Node4 -->
<g id="edge3" class="edge">
<title>Node3&#45;&gt;Node4</title>
<path fill="none" stroke="midnightblue" d="M138.09,-117.98C144.99,-109.05 156,-94.81 164.63,-83.64"/>
<polygon fill="midnightblue" stroke="midnightblue" points="167.57,-85.56 170.92,-75.51 162.04,-81.28 167.57,-85.56"/>
</g>
<!-- Node5 -->
<g id="node5" class="node">
<title>Node5</title>
<g id="a_node5"><a xlink:title=" ">
<polygon fill="white" stroke="#bfbfbf" points="143,-0.5 143,-19.5 212,-19.5 212,-0.5 143,-0.5"/>
<text text-anchor="middle" x="177.5" y="-7.5" font-family="Helvetica,sans-Serif" font-size="10.00">Eigen/Core</text>
</a>
</g>
</g>
<!-- Node4&#45;&gt;Node5 -->
<g id="edge4" class="edge">
<title>Node4&#45;&gt;Node5</title>
<path fill="none" stroke="midnightblue" d="M177.5,-56.08C177.5,-49.01 177.5,-38.86 177.5,-29.99"/>
<polygon fill="midnightblue" stroke="midnightblue" points="181,-29.75 177.5,-19.75 174,-29.75 181,-29.75"/>
</g>
<!-- Node7&#45;&gt;Node3 -->
<g id="edge8" class="edge">
<title>Node7&#45;&gt;Node3</title>
<path fill="none" stroke="midnightblue" d="M97.83,-179.4C104.4,-169.46 113.24,-156.11 120.21,-145.57"/>
<polygon fill="midnightblue" stroke="midnightblue" points="123.15,-147.47 125.75,-137.19 117.31,-143.6 123.15,-147.47"/>
</g>
</g>
</svg>
