<?xml version="1.0" encoding="UTF-8" standalone="no"?>
<!DOCTYPE svg PUBLIC "-//W3C//DTD SVG 1.1//EN"
 "http://www.w3.org/Graphics/SVG/1.1/DTD/svg11.dtd">
<!-- Generated by graphviz version 2.43.0 (0)
 -->
<!-- Title: end Pages: 1 -->
<svg width="355pt" height="39pt"
 viewBox="0.00 0.00 355.00 39.00" xmlns="http://www.w3.org/2000/svg" xmlns:xlink="http://www.w3.org/1999/xlink">
<g id="graph0" class="graph" transform="scale(1 1) rotate(0) translate(4 35)">
<title>end</title>
<polygon fill="white" stroke="transparent" points="-4,4 -4,-35 351,-35 351,4 -4,4"/>
<!-- Node1 -->
<g id="node1" class="node">
<title>Node1</title>
<g id="a_node1"><a xlink:title=" ">
<polygon fill="#bfbfbf" stroke="black" points="0,-6 0,-25 35,-25 35,-6 0,-6"/>
<text text-anchor="middle" x="17.5" y="-13" font-family="Helvetica,sans-Serif" font-size="10.00">end</text>
</a>
</g>
</g>
<!-- Node2 -->
<g id="node2" class="node">
<title>Node2</title>
<g id="a_node2"><a xlink:href="../../d7/d0f/classpa_1_1CircularRange.html#ab3fe1cdacc9a53cc2d0cbe27599036c4" target="_top" xlink:title=" ">
<polygon fill="white" stroke="black" points="71,-6 71,-25 202,-25 202,-6 71,-6"/>
<text text-anchor="middle" x="136.5" y="-13" font-family="Helvetica,sans-Serif" font-size="10.00">pa::CircularRange::rend</text>
</a>
</g>
</g>
<!-- Node1&#45;&gt;Node2 -->
<g id="edge1" class="edge">
<title>Node1&#45;&gt;Node2</title>
<path fill="none" stroke="midnightblue" d="M35.02,-15.5C42.17,-15.5 51.09,-15.5 60.65,-15.5"/>
<polygon fill="midnightblue" stroke="midnightblue" points="60.79,-19 70.79,-15.5 60.79,-12 60.79,-19"/>
</g>
<!-- Node3 -->
<g id="node3" class="node">
<title>Node3</title>
<g id="a_node3"><a xlink:href="../../d7/d0f/classpa_1_1CircularRange.html#a0c62c15c8ed609e7e5e9518cf5f5c712" target="_top" xlink:title=" ">
<polygon fill="white" stroke="black" points="238,-0.5 238,-30.5 347,-30.5 347,-0.5 238,-0.5"/>
<text text-anchor="start" x="246" y="-18.5" font-family="Helvetica,sans-Serif" font-size="10.00">pa::CircularRange::</text>
<text text-anchor="middle" x="292.5" y="-7.5" font-family="Helvetica,sans-Serif" font-size="10.00">begin</text>
</a>
</g>
</g>
<!-- Node2&#45;&gt;Node3 -->
<g id="edge2" class="edge">
<title>Node2&#45;&gt;Node3</title>
<path fill="none" stroke="midnightblue" d="M202.36,-15.5C210.78,-15.5 219.39,-15.5 227.79,-15.5"/>
<polygon fill="midnightblue" stroke="midnightblue" points="227.9,-19 237.89,-15.5 227.89,-12 227.9,-19"/>
</g>
</g>
</svg>
