<?xml version="1.0" encoding="UTF-8" standalone="no"?>
<!DOCTYPE svg PUBLIC "-//W3C//DTD SVG 1.1//EN"
 "http://www.w3.org/Graphics/SVG/1.1/DTD/svg11.dtd">
<!-- Generated by graphviz version 2.43.0 (0)
 -->
<!-- Title: panoc.cpp Pages: 1 -->
<svg width="1478pt" height="397pt"
 viewBox="0.00 0.00 1477.50 397.00" xmlns="http://www.w3.org/2000/svg" xmlns:xlink="http://www.w3.org/1999/xlink">
<g id="graph0" class="graph" transform="scale(1 1) rotate(0) translate(4 393)">
<title>panoc.cpp</title>
<polygon fill="white" stroke="transparent" points="-4,4 -4,-393 1473.5,-393 1473.5,4 -4,4"/>
<!-- Node1 -->
<g id="node1" class="node">
<title>Node1</title>
<g id="a_node1"><a xlink:title=" ">
<polygon fill="#bfbfbf" stroke="black" points="488.5,-369.5 488.5,-388.5 554.5,-388.5 554.5,-369.5 488.5,-369.5"/>
<text text-anchor="middle" x="521.5" y="-376.5" font-family="Helvetica,sans-Serif" font-size="10.00">panoc.cpp</text>
</a>
</g>
</g>
<!-- Node2 -->
<g id="node2" class="node">
<title>Node2</title>
<g id="a_node2"><a xlink:href="../../dd/deb/lbfgs_8hpp.html" target="_top" xlink:title=" ">
<polygon fill="white" stroke="black" points="180,-246.5 180,-276.5 327,-276.5 327,-246.5 180,-246.5"/>
<text text-anchor="start" x="188" y="-264.5" font-family="Helvetica,sans-Serif" font-size="10.00">panoc&#45;alm/inner/directions</text>
<text text-anchor="middle" x="253.5" y="-253.5" font-family="Helvetica,sans-Serif" font-size="10.00">/lbfgs.hpp</text>
</a>
</g>
</g>
<!-- Node1&#45;&gt;Node2 -->
<g id="edge1" class="edge">
<title>Node1&#45;&gt;Node2</title>
<path fill="none" stroke="midnightblue" d="M501.36,-369.32C457.77,-350.53 353.92,-305.78 295.42,-280.57"/>
<polygon fill="midnightblue" stroke="midnightblue" points="296.66,-277.29 286.09,-276.55 293.89,-283.72 296.66,-277.29"/>
</g>
<!-- Node9 -->
<g id="node9" class="node">
<title>Node9</title>
<g id="a_node9"><a xlink:href="../../d5/de9/panoc_8hpp.html" target="_top" xlink:title=" ">
<polygon fill="white" stroke="black" points="632,-313.5 632,-332.5 781,-332.5 781,-313.5 632,-313.5"/>
<text text-anchor="middle" x="706.5" y="-320.5" font-family="Helvetica,sans-Serif" font-size="10.00">panoc&#45;alm/inner/panoc.hpp</text>
</a>
</g>
</g>
<!-- Node1&#45;&gt;Node9 -->
<g id="edge10" class="edge">
<title>Node1&#45;&gt;Node9</title>
<path fill="none" stroke="midnightblue" d="M550.81,-369.44C582.34,-360.24 632.63,-345.56 667.49,-335.39"/>
<polygon fill="midnightblue" stroke="midnightblue" points="668.7,-338.68 677.32,-332.52 666.74,-331.96 668.7,-338.68"/>
</g>
<!-- Node3 -->
<g id="node3" class="node">
<title>Node3</title>
<g id="a_node3"><a xlink:href="../../d1/db5/decl_2lbfgs_8hpp.html" target="_top" xlink:title=" ">
<polygon fill="white" stroke="black" points="0,-179.5 0,-209.5 147,-209.5 147,-179.5 0,-179.5"/>
<text text-anchor="start" x="8" y="-197.5" font-family="Helvetica,sans-Serif" font-size="10.00">panoc&#45;alm/inner/directions</text>
<text text-anchor="middle" x="73.5" y="-186.5" font-family="Helvetica,sans-Serif" font-size="10.00">/decl/lbfgs.hpp</text>
</a>
</g>
</g>
<!-- Node2&#45;&gt;Node3 -->
<g id="edge2" class="edge">
<title>Node2&#45;&gt;Node3</title>
<path fill="none" stroke="midnightblue" d="M214.44,-246.4C187.32,-236.6 150.99,-223.48 122,-213.02"/>
<polygon fill="midnightblue" stroke="midnightblue" points="123.08,-209.68 112.48,-209.58 120.7,-216.26 123.08,-209.68"/>
</g>
<!-- Node8 -->
<g id="node8" class="node">
<title>Node8</title>
<g id="a_node8"><a xlink:href="../../d3/dfa/panoc-direction-update_8hpp.html" target="_top" xlink:title=" ">
<polygon fill="white" stroke="black" points="165,-179.5 165,-209.5 342,-209.5 342,-179.5 165,-179.5"/>
<text text-anchor="start" x="173" y="-197.5" font-family="Helvetica,sans-Serif" font-size="10.00">panoc&#45;alm/inner/directions</text>
<text text-anchor="middle" x="253.5" y="-186.5" font-family="Helvetica,sans-Serif" font-size="10.00">/decl/panoc&#45;direction&#45;update.hpp</text>
</a>
</g>
</g>
<!-- Node2&#45;&gt;Node8 -->
<g id="edge8" class="edge">
<title>Node2&#45;&gt;Node8</title>
<path fill="none" stroke="midnightblue" d="M253.5,-246.4C253.5,-238.64 253.5,-228.81 253.5,-219.86"/>
<polygon fill="midnightblue" stroke="midnightblue" points="257,-219.58 253.5,-209.58 250,-219.58 257,-219.58"/>
</g>
<!-- Node4 -->
<g id="node4" class="node">
<title>Node4</title>
<g id="a_node4"><a xlink:href="../../d7/de4/box_8hpp.html" target="_top" xlink:title=" ">
<polygon fill="white" stroke="black" points="267,-118 267,-137 396,-137 396,-118 267,-118"/>
<text text-anchor="middle" x="331.5" y="-125" font-family="Helvetica,sans-Serif" font-size="10.00">panoc&#45;alm/util/box.hpp</text>
</a>
</g>
</g>
<!-- Node3&#45;&gt;Node4 -->
<g id="edge3" class="edge">
<title>Node3&#45;&gt;Node4</title>
<path fill="none" stroke="midnightblue" d="M129.16,-179.48C176.72,-167.5 244.17,-150.5 287.89,-139.49"/>
<polygon fill="midnightblue" stroke="midnightblue" points="288.81,-142.87 297.65,-137.03 287.1,-136.08 288.81,-142.87"/>
</g>
<!-- Node5 -->
<g id="node5" class="node">
<title>Node5</title>
<g id="a_node5"><a xlink:href="../../d7/d7c/vec_8hpp.html" target="_top" xlink:title=" ">
<polygon fill="white" stroke="black" points="304,-56.5 304,-75.5 359,-75.5 359,-56.5 304,-56.5"/>
<text text-anchor="middle" x="331.5" y="-63.5" font-family="Helvetica,sans-Serif" font-size="10.00">vec.hpp</text>
</a>
</g>
</g>
<!-- Node3&#45;&gt;Node5 -->
<g id="edge6" class="edge">
<title>Node3&#45;&gt;Node5</title>
<path fill="none" stroke="midnightblue" d="M72.49,-179.47C72,-161.22 74.14,-129.59 92.5,-112 120.76,-84.93 233.41,-73.47 293.41,-69.2"/>
<polygon fill="midnightblue" stroke="midnightblue" points="293.88,-72.68 303.62,-68.51 293.41,-65.7 293.88,-72.68"/>
</g>
<!-- Node7 -->
<g id="node7" class="node">
<title>Node7</title>
<g id="a_node7"><a xlink:href="../../d4/d5e/lbfgs-fwd_8hpp.html" target="_top" xlink:title=" ">
<polygon fill="white" stroke="black" points="102,-112.5 102,-142.5 249,-142.5 249,-112.5 102,-112.5"/>
<text text-anchor="start" x="110" y="-130.5" font-family="Helvetica,sans-Serif" font-size="10.00">panoc&#45;alm/inner/directions</text>
<text text-anchor="middle" x="175.5" y="-119.5" font-family="Helvetica,sans-Serif" font-size="10.00">/decl/lbfgs&#45;fwd.hpp</text>
</a>
</g>
</g>
<!-- Node3&#45;&gt;Node7 -->
<g id="edge7" class="edge">
<title>Node3&#45;&gt;Node7</title>
<path fill="none" stroke="midnightblue" d="M95.63,-179.4C110.07,-170.2 129.1,-158.07 144.97,-147.95"/>
<polygon fill="midnightblue" stroke="midnightblue" points="146.86,-150.9 153.41,-142.58 143.1,-145 146.86,-150.9"/>
</g>
<!-- Node4&#45;&gt;Node5 -->
<g id="edge4" class="edge">
<title>Node4&#45;&gt;Node5</title>
<path fill="none" stroke="midnightblue" d="M331.5,-117.98C331.5,-109.58 331.5,-96.48 331.5,-85.66"/>
<polygon fill="midnightblue" stroke="midnightblue" points="335,-85.51 331.5,-75.51 328,-85.51 335,-85.51"/>
</g>
<!-- Node6 -->
<g id="node6" class="node">
<title>Node6</title>
<g id="a_node6"><a xlink:title=" ">
<polygon fill="white" stroke="#bfbfbf" points="297,-0.5 297,-19.5 366,-19.5 366,-0.5 297,-0.5"/>
<text text-anchor="middle" x="331.5" y="-7.5" font-family="Helvetica,sans-Serif" font-size="10.00">Eigen/Core</text>
</a>
</g>
</g>
<!-- Node5&#45;&gt;Node6 -->
<g id="edge5" class="edge">
<title>Node5&#45;&gt;Node6</title>
<path fill="none" stroke="midnightblue" d="M331.5,-56.08C331.5,-49.01 331.5,-38.86 331.5,-29.99"/>
<polygon fill="midnightblue" stroke="midnightblue" points="335,-29.75 331.5,-19.75 328,-29.75 335,-29.75"/>
</g>
<!-- Node8&#45;&gt;Node4 -->
<g id="edge9" class="edge">
<title>Node8&#45;&gt;Node4</title>
<path fill="none" stroke="midnightblue" d="M270.42,-179.4C283.07,-168.86 300.33,-154.48 313.27,-143.69"/>
<polygon fill="midnightblue" stroke="midnightblue" points="315.62,-146.29 321.07,-137.19 311.14,-140.91 315.62,-146.29"/>
</g>
<!-- Node9&#45;&gt;Node8 -->
<g id="edge36" class="edge">
<title>Node9&#45;&gt;Node8</title>
<path fill="none" stroke="midnightblue" d="M631.86,-316.07C574.01,-310.06 492.36,-298.48 423.5,-277 373.38,-261.36 319.32,-233.32 285.94,-214.56"/>
<polygon fill="midnightblue" stroke="midnightblue" points="287.51,-211.43 277.09,-209.53 284.06,-217.52 287.51,-211.43"/>
</g>
<!-- Node10 -->
<g id="node10" class="node">
<title>Node10</title>
<g id="a_node10"><a xlink:href="../../d2/da2/decl_2panoc_8hpp.html" target="_top" xlink:title=" ">
<polygon fill="white" stroke="black" points="949,-246.5 949,-276.5 1068,-276.5 1068,-246.5 949,-246.5"/>
<text text-anchor="start" x="957" y="-264.5" font-family="Helvetica,sans-Serif" font-size="10.00">panoc&#45;alm/inner/decl</text>
<text text-anchor="middle" x="1008.5" y="-253.5" font-family="Helvetica,sans-Serif" font-size="10.00">/panoc.hpp</text>
</a>
</g>
</g>
<!-- Node9&#45;&gt;Node10 -->
<g id="edge11" class="edge">
<title>Node9&#45;&gt;Node10</title>
<path fill="none" stroke="midnightblue" d="M752.29,-313.48C797.38,-305.02 868.48,-291.52 938.88,-277.31"/>
<polygon fill="midnightblue" stroke="midnightblue" points="939.7,-280.71 948.81,-275.3 938.31,-273.85 939.7,-280.71"/>
</g>
<!-- Node22 -->
<g id="node22" class="node">
<title>Node22</title>
<g id="a_node22"><a xlink:href="../../da/d9f/anderson-helpers_8hpp.html" target="_top" xlink:title=" ">
<polygon fill="white" stroke="black" points="1159,-246.5 1159,-276.5 1286,-276.5 1286,-246.5 1159,-246.5"/>
<text text-anchor="start" x="1167" y="-264.5" font-family="Helvetica,sans-Serif" font-size="10.00">panoc&#45;alm/inner/detail</text>
<text text-anchor="middle" x="1222.5" y="-253.5" font-family="Helvetica,sans-Serif" font-size="10.00">/anderson&#45;helpers.hpp</text>
</a>
</g>
</g>
<!-- Node9&#45;&gt;Node22 -->
<g id="edge26" class="edge">
<title>Node9&#45;&gt;Node22</title>
<path fill="none" stroke="midnightblue" d="M780.43,-313.48C878.53,-302.16 1050.73,-282.31 1148.74,-271.01"/>
<polygon fill="midnightblue" stroke="midnightblue" points="1149.33,-274.46 1158.86,-269.84 1148.53,-267.51 1149.33,-274.46"/>
</g>
<!-- Node28 -->
<g id="node28" class="node">
<title>Node28</title>
<g id="a_node28"><a xlink:href="../../d8/df1/panoc-helpers_8hpp.html" target="_top" xlink:title=" ">
<polygon fill="white" stroke="black" points="432,-246.5 432,-276.5 559,-276.5 559,-246.5 432,-246.5"/>
<text text-anchor="start" x="440" y="-264.5" font-family="Helvetica,sans-Serif" font-size="10.00">panoc&#45;alm/inner/detail</text>
<text text-anchor="middle" x="495.5" y="-253.5" font-family="Helvetica,sans-Serif" font-size="10.00">/panoc&#45;helpers.hpp</text>
</a>
</g>
</g>
<!-- Node9&#45;&gt;Node28 -->
<g id="edge34" class="edge">
<title>Node9&#45;&gt;Node28</title>
<path fill="none" stroke="midnightblue" d="M676.27,-313.48C644.75,-304.59 594.54,-290.43 555.03,-279.29"/>
<polygon fill="midnightblue" stroke="midnightblue" points="555.8,-275.87 545.23,-276.52 553.9,-282.61 555.8,-275.87"/>
</g>
<!-- Node29 -->
<g id="node29" class="node">
<title>Node29</title>
<g id="a_node29"><a xlink:title=" ">
<polygon fill="white" stroke="#bfbfbf" points="577.5,-252 577.5,-271 629.5,-271 629.5,-252 577.5,-252"/>
<text text-anchor="middle" x="603.5" y="-259" font-family="Helvetica,sans-Serif" font-size="10.00">cassert</text>
</a>
</g>
</g>
<!-- Node9&#45;&gt;Node29 -->
<g id="edge37" class="edge">
<title>Node9&#45;&gt;Node29</title>
<path fill="none" stroke="midnightblue" d="M691.74,-313.48C674.84,-303.71 646.92,-287.58 627.01,-276.08"/>
<polygon fill="midnightblue" stroke="midnightblue" points="628.64,-272.98 618.23,-271.01 625.14,-279.04 628.64,-272.98"/>
</g>
<!-- Node30 -->
<g id="node30" class="node">
<title>Node30</title>
<g id="a_node30"><a xlink:title=" ">
<polygon fill="white" stroke="#bfbfbf" points="648,-252 648,-271 695,-271 695,-252 648,-252"/>
<text text-anchor="middle" x="671.5" y="-259" font-family="Helvetica,sans-Serif" font-size="10.00">cmath</text>
</a>
</g>
</g>
<!-- Node9&#45;&gt;Node30 -->
<g id="edge38" class="edge">
<title>Node9&#45;&gt;Node30</title>
<path fill="none" stroke="midnightblue" d="M701.49,-313.48C696.34,-304.73 688.19,-290.87 681.68,-279.81"/>
<polygon fill="midnightblue" stroke="midnightblue" points="684.59,-277.85 676.51,-271.01 678.56,-281.4 684.59,-277.85"/>
</g>
<!-- Node31 -->
<g id="node31" class="node">
<title>Node31</title>
<g id="a_node31"><a xlink:title=" ">
<polygon fill="white" stroke="#bfbfbf" points="713.5,-252 713.5,-271 769.5,-271 769.5,-252 713.5,-252"/>
<text text-anchor="middle" x="741.5" y="-259" font-family="Helvetica,sans-Serif" font-size="10.00">iomanip</text>
</a>
</g>
</g>
<!-- Node9&#45;&gt;Node31 -->
<g id="edge39" class="edge">
<title>Node9&#45;&gt;Node31</title>
<path fill="none" stroke="midnightblue" d="M711.51,-313.48C716.66,-304.73 724.81,-290.87 731.32,-279.81"/>
<polygon fill="midnightblue" stroke="midnightblue" points="734.44,-281.4 736.49,-271.01 728.41,-277.85 734.44,-281.4"/>
</g>
<!-- Node32 -->
<g id="node32" class="node">
<title>Node32</title>
<g id="a_node32"><a xlink:title=" ">
<polygon fill="white" stroke="#bfbfbf" points="787.5,-252 787.5,-271 847.5,-271 847.5,-252 787.5,-252"/>
<text text-anchor="middle" x="817.5" y="-259" font-family="Helvetica,sans-Serif" font-size="10.00">iostream</text>
</a>
</g>
</g>
<!-- Node9&#45;&gt;Node32 -->
<g id="edge40" class="edge">
<title>Node9&#45;&gt;Node32</title>
<path fill="none" stroke="midnightblue" d="M722.4,-313.48C740.78,-303.62 771.26,-287.29 792.74,-275.77"/>
<polygon fill="midnightblue" stroke="midnightblue" points="794.47,-278.82 801.63,-271.01 791.16,-272.65 794.47,-278.82"/>
</g>
<!-- Node33 -->
<g id="node33" class="node">
<title>Node33</title>
<g id="a_node33"><a xlink:title=" ">
<polygon fill="white" stroke="#bfbfbf" points="866,-252 866,-271 931,-271 931,-252 866,-252"/>
<text text-anchor="middle" x="898.5" y="-259" font-family="Helvetica,sans-Serif" font-size="10.00">stdexcept</text>
</a>
</g>
</g>
<!-- Node9&#45;&gt;Node33 -->
<g id="edge41" class="edge">
<title>Node9&#45;&gt;Node33</title>
<path fill="none" stroke="midnightblue" d="M736.21,-313.48C766.55,-304.68 814.97,-290.39 856.5,-277 859.09,-276.16 861.77,-275.28 864.46,-274.38"/>
<polygon fill="midnightblue" stroke="midnightblue" points="865.78,-277.63 874.13,-271.1 863.53,-271 865.78,-277.63"/>
</g>
<!-- Node11 -->
<g id="node11" class="node">
<title>Node11</title>
<g id="a_node11"><a xlink:href="../../d4/d83/panoc-fwd_8hpp.html" target="_top" xlink:title=" ">
<polygon fill="white" stroke="black" points="360,-179.5 360,-209.5 479,-209.5 479,-179.5 360,-179.5"/>
<text text-anchor="start" x="368" y="-197.5" font-family="Helvetica,sans-Serif" font-size="10.00">panoc&#45;alm/inner/decl</text>
<text text-anchor="middle" x="419.5" y="-186.5" font-family="Helvetica,sans-Serif" font-size="10.00">/panoc&#45;fwd.hpp</text>
</a>
</g>
</g>
<!-- Node10&#45;&gt;Node11 -->
<g id="edge12" class="edge">
<title>Node10&#45;&gt;Node11</title>
<path fill="none" stroke="midnightblue" d="M948.88,-247.33C946.05,-246.85 943.25,-246.4 940.5,-246 744.3,-217.39 689.71,-238.09 489.22,-209.97"/>
<polygon fill="midnightblue" stroke="midnightblue" points="489.65,-206.49 479.26,-208.54 488.66,-213.42 489.65,-206.49"/>
</g>
<!-- Node12 -->
<g id="node12" class="node">
<title>Node12</title>
<g id="a_node12"><a xlink:href="../../d4/d52/atomic__stop__signal_8hpp.html" target="_top" xlink:title=" ">
<polygon fill="white" stroke="black" points="857.5,-179.5 857.5,-209.5 981.5,-209.5 981.5,-179.5 857.5,-179.5"/>
<text text-anchor="start" x="865.5" y="-197.5" font-family="Helvetica,sans-Serif" font-size="10.00">panoc&#45;alm/util/atomic</text>
<text text-anchor="middle" x="919.5" y="-186.5" font-family="Helvetica,sans-Serif" font-size="10.00">_stop_signal.hpp</text>
</a>
</g>
</g>
<!-- Node10&#45;&gt;Node12 -->
<g id="edge14" class="edge">
<title>Node10&#45;&gt;Node12</title>
<path fill="none" stroke="midnightblue" d="M989.19,-246.4C976.83,-237.37 960.6,-225.51 946.91,-215.52"/>
<polygon fill="midnightblue" stroke="midnightblue" points="948.91,-212.65 938.77,-209.58 944.79,-218.3 948.91,-212.65"/>
</g>
<!-- Node13 -->
<g id="node13" class="node">
<title>Node13</title>
<g id="a_node13"><a xlink:title=" ">
<polygon fill="white" stroke="#bfbfbf" points="939.5,-118 939.5,-137 989.5,-137 989.5,-118 939.5,-118"/>
<text text-anchor="middle" x="964.5" y="-125" font-family="Helvetica,sans-Serif" font-size="10.00">atomic</text>
</a>
</g>
</g>
<!-- Node10&#45;&gt;Node13 -->
<g id="edge22" class="edge">
<title>Node10&#45;&gt;Node13</title>
<path fill="none" stroke="midnightblue" d="M1027.59,-246.42C1047.11,-230.23 1072.73,-202.79 1058.5,-179 1045.7,-157.59 1020.35,-144.73 999.2,-137.35"/>
<polygon fill="midnightblue" stroke="midnightblue" points="1000.13,-133.97 989.53,-134.24 997.98,-140.63 1000.13,-133.97"/>
</g>
<!-- Node14 -->
<g id="node14" class="node">
<title>Node14</title>
<g id="a_node14"><a xlink:href="../../d5/d37/problem_8hpp.html" target="_top" xlink:title=" ">
<polygon fill="white" stroke="black" points="497.5,-185 497.5,-204 649.5,-204 649.5,-185 497.5,-185"/>
<text text-anchor="middle" x="573.5" y="-192" font-family="Helvetica,sans-Serif" font-size="10.00">panoc&#45;alm/util/problem.hpp</text>
</a>
</g>
</g>
<!-- Node10&#45;&gt;Node14 -->
<g id="edge16" class="edge">
<title>Node10&#45;&gt;Node14</title>
<path fill="none" stroke="midnightblue" d="M948.85,-247.49C946.03,-246.97 943.24,-246.47 940.5,-246 816.38,-224.85 784.05,-228.47 659.5,-210 650.59,-208.68 641.18,-207.19 631.98,-205.68"/>
<polygon fill="midnightblue" stroke="midnightblue" points="632.55,-202.23 622.11,-204.04 631.4,-209.13 632.55,-202.23"/>
</g>
<!-- Node17 -->
<g id="node17" class="node">
<title>Node17</title>
<g id="a_node17"><a xlink:href="../../dc/d8c/solverstatus_8hpp.html" target="_top" xlink:title=" ">
<polygon fill="white" stroke="black" points="668,-185 668,-204 839,-204 839,-185 668,-185"/>
<text text-anchor="middle" x="753.5" y="-192" font-family="Helvetica,sans-Serif" font-size="10.00">panoc&#45;alm/util/solverstatus.hpp</text>
</a>
</g>
</g>
<!-- Node10&#45;&gt;Node17 -->
<g id="edge20" class="edge">
<title>Node10&#45;&gt;Node17</title>
<path fill="none" stroke="midnightblue" d="M953.48,-246.48C906.58,-234.52 840.09,-217.57 796.88,-206.56"/>
<polygon fill="midnightblue" stroke="midnightblue" points="797.51,-203.11 786.96,-204.03 795.78,-209.89 797.51,-203.11"/>
</g>
<!-- Node19 -->
<g id="node19" class="node">
<title>Node19</title>
<g id="a_node19"><a xlink:title=" ">
<polygon fill="white" stroke="#bfbfbf" points="999.5,-185 999.5,-204 1049.5,-204 1049.5,-185 999.5,-185"/>
<text text-anchor="middle" x="1024.5" y="-192" font-family="Helvetica,sans-Serif" font-size="10.00">chrono</text>
</a>
</g>
</g>
<!-- Node10&#45;&gt;Node19 -->
<g id="edge23" class="edge">
<title>Node10&#45;&gt;Node19</title>
<path fill="none" stroke="midnightblue" d="M1011.97,-246.4C1014.29,-236.96 1017.37,-224.45 1019.9,-214.19"/>
<polygon fill="midnightblue" stroke="midnightblue" points="1023.37,-214.74 1022.36,-204.19 1016.57,-213.07 1023.37,-214.74"/>
</g>
<!-- Node20 -->
<g id="node20" class="node">
<title>Node20</title>
<g id="a_node20"><a xlink:title=" ">
<polygon fill="white" stroke="#bfbfbf" points="1105.5,-185 1105.5,-204 1149.5,-204 1149.5,-185 1105.5,-185"/>
<text text-anchor="middle" x="1127.5" y="-192" font-family="Helvetica,sans-Serif" font-size="10.00">limits</text>
</a>
</g>
</g>
<!-- Node10&#45;&gt;Node20 -->
<g id="edge24" class="edge">
<title>Node10&#45;&gt;Node20</title>
<path fill="none" stroke="midnightblue" d="M1034.32,-246.4C1054.74,-235.24 1083.05,-219.78 1103.09,-208.83"/>
<polygon fill="midnightblue" stroke="midnightblue" points="1104.83,-211.87 1111.93,-204.01 1101.47,-205.73 1104.83,-211.87"/>
</g>
<!-- Node21 -->
<g id="node21" class="node">
<title>Node21</title>
<g id="a_node21"><a xlink:title=" ">
<polygon fill="white" stroke="#bfbfbf" points="1167.5,-185 1167.5,-204 1211.5,-204 1211.5,-185 1167.5,-185"/>
<text text-anchor="middle" x="1189.5" y="-192" font-family="Helvetica,sans-Serif" font-size="10.00">string</text>
</a>
</g>
</g>
<!-- Node10&#45;&gt;Node21 -->
<g id="edge25" class="edge">
<title>Node10&#45;&gt;Node21</title>
<path fill="none" stroke="midnightblue" d="M1054.61,-246.46C1084.53,-236.99 1124.19,-223.75 1158.5,-210 1159.88,-209.45 1161.28,-208.86 1162.7,-208.26"/>
<polygon fill="midnightblue" stroke="midnightblue" points="1164.24,-211.4 1171.95,-204.13 1161.39,-205.01 1164.24,-211.4"/>
</g>
<!-- Node11&#45;&gt;Node7 -->
<g id="edge13" class="edge">
<title>Node11&#45;&gt;Node7</title>
<path fill="none" stroke="midnightblue" d="M366.86,-179.48C329.14,-169.43 278.19,-155.86 238.35,-145.24"/>
<polygon fill="midnightblue" stroke="midnightblue" points="239.03,-141.8 228.47,-142.61 237.23,-148.57 239.03,-141.8"/>
</g>
<!-- Node12&#45;&gt;Node13 -->
<g id="edge15" class="edge">
<title>Node12&#45;&gt;Node13</title>
<path fill="none" stroke="midnightblue" d="M929.26,-179.4C936.14,-169.46 945.39,-156.11 952.68,-145.57"/>
<polygon fill="midnightblue" stroke="midnightblue" points="955.67,-147.41 958.48,-137.19 949.91,-143.42 955.67,-147.41"/>
</g>
<!-- Node14&#45;&gt;Node4 -->
<g id="edge17" class="edge">
<title>Node14&#45;&gt;Node4</title>
<path fill="none" stroke="midnightblue" d="M541.61,-184.94C498.36,-173.32 421.01,-152.54 373.19,-139.7"/>
<polygon fill="midnightblue" stroke="midnightblue" points="374.02,-136.3 363.46,-137.08 372.21,-143.06 374.02,-136.3"/>
</g>
<!-- Node15 -->
<g id="node15" class="node">
<title>Node15</title>
<g id="a_node15"><a xlink:title=" ">
<polygon fill="white" stroke="#bfbfbf" points="584,-118 584,-137 649,-137 649,-118 584,-118"/>
<text text-anchor="middle" x="616.5" y="-125" font-family="Helvetica,sans-Serif" font-size="10.00">functional</text>
</a>
</g>
</g>
<!-- Node14&#45;&gt;Node15 -->
<g id="edge18" class="edge">
<title>Node14&#45;&gt;Node15</title>
<path fill="none" stroke="midnightblue" d="M579.3,-184.73C585.88,-174.79 596.76,-158.34 605.06,-145.79"/>
<polygon fill="midnightblue" stroke="midnightblue" points="608.19,-147.4 610.79,-137.13 602.36,-143.54 608.19,-147.4"/>
</g>
<!-- Node16 -->
<g id="node16" class="node">
<title>Node16</title>
<g id="a_node16"><a xlink:title=" ">
<polygon fill="white" stroke="#bfbfbf" points="497,-118 497,-137 566,-137 566,-118 497,-118"/>
<text text-anchor="middle" x="531.5" y="-125" font-family="Helvetica,sans-Serif" font-size="10.00">type_traits</text>
</a>
</g>
</g>
<!-- Node14&#45;&gt;Node16 -->
<g id="edge19" class="edge">
<title>Node14&#45;&gt;Node16</title>
<path fill="none" stroke="midnightblue" d="M567.84,-184.73C561.41,-174.79 550.78,-158.34 542.67,-145.79"/>
<polygon fill="midnightblue" stroke="midnightblue" points="545.44,-143.63 537.07,-137.13 539.56,-147.43 545.44,-143.63"/>
</g>
<!-- Node18 -->
<g id="node18" class="node">
<title>Node18</title>
<g id="a_node18"><a xlink:title=" ">
<polygon fill="white" stroke="#bfbfbf" points="729.5,-118 729.5,-137 777.5,-137 777.5,-118 729.5,-118"/>
<text text-anchor="middle" x="753.5" y="-125" font-family="Helvetica,sans-Serif" font-size="10.00">iosfwd</text>
</a>
</g>
</g>
<!-- Node17&#45;&gt;Node18 -->
<g id="edge21" class="edge">
<title>Node17&#45;&gt;Node18</title>
<path fill="none" stroke="midnightblue" d="M753.5,-184.73C753.5,-175.18 753.5,-159.62 753.5,-147.28"/>
<polygon fill="midnightblue" stroke="midnightblue" points="757,-147.13 753.5,-137.13 750,-147.13 757,-147.13"/>
</g>
<!-- Node23 -->
<g id="node23" class="node">
<title>Node23</title>
<g id="a_node23"><a xlink:href="../../db/da3/limited-memory-qr_8hpp.html" target="_top" xlink:title=" ">
<polygon fill="white" stroke="black" points="1230,-179.5 1230,-209.5 1363,-209.5 1363,-179.5 1230,-179.5"/>
<text text-anchor="start" x="1238" y="-197.5" font-family="Helvetica,sans-Serif" font-size="10.00">panoc&#45;alm/inner/detail</text>
<text text-anchor="middle" x="1296.5" y="-186.5" font-family="Helvetica,sans-Serif" font-size="10.00">/limited&#45;memory&#45;qr.hpp</text>
</a>
</g>
</g>
<!-- Node22&#45;&gt;Node23 -->
<g id="edge27" class="edge">
<title>Node22&#45;&gt;Node23</title>
<path fill="none" stroke="midnightblue" d="M1238.56,-246.4C1248.54,-237.62 1261.57,-226.18 1272.74,-216.37"/>
<polygon fill="midnightblue" stroke="midnightblue" points="1275.27,-218.81 1280.47,-209.58 1270.65,-213.55 1275.27,-218.81"/>
</g>
<!-- Node23&#45;&gt;Node5 -->
<g id="edge33" class="edge">
<title>Node23&#45;&gt;Node5</title>
<path fill="none" stroke="midnightblue" d="M1255.14,-179.36C1198.13,-160.52 1091.85,-127.75 998.5,-112 761.41,-71.99 471.24,-67.27 369.17,-66.92"/>
<polygon fill="midnightblue" stroke="midnightblue" points="369.06,-63.42 359.05,-66.9 369.04,-70.42 369.06,-63.42"/>
</g>
<!-- Node24 -->
<g id="node24" class="node">
<title>Node24</title>
<g id="a_node24"><a xlink:title=" ">
<polygon fill="white" stroke="#bfbfbf" points="1393.5,-118 1393.5,-137 1469.5,-137 1469.5,-118 1393.5,-118"/>
<text text-anchor="middle" x="1431.5" y="-125" font-family="Helvetica,sans-Serif" font-size="10.00">Eigen/Jacobi</text>
</a>
</g>
</g>
<!-- Node23&#45;&gt;Node24 -->
<g id="edge28" class="edge">
<title>Node23&#45;&gt;Node24</title>
<path fill="none" stroke="midnightblue" d="M1325.79,-179.4C1349.27,-168.09 1381.94,-152.36 1404.73,-141.39"/>
<polygon fill="midnightblue" stroke="midnightblue" points="1406.34,-144.5 1413.83,-137.01 1403.3,-138.19 1406.34,-144.5"/>
</g>
<!-- Node25 -->
<g id="node25" class="node">
<title>Node25</title>
<g id="a_node25"><a xlink:title=" ">
<polygon fill="white" stroke="#bfbfbf" points="1181,-56.5 1181,-75.5 1234,-75.5 1234,-56.5 1181,-56.5"/>
<text text-anchor="middle" x="1207.5" y="-63.5" font-family="Helvetica,sans-Serif" font-size="10.00">cstddef</text>
</a>
</g>
</g>
<!-- Node23&#45;&gt;Node25 -->
<g id="edge29" class="edge">
<title>Node23&#45;&gt;Node25</title>
<path fill="none" stroke="midnightblue" d="M1253.32,-179.47C1236.27,-171.59 1218.41,-159.86 1208.5,-143 1198.28,-125.62 1199.9,-101.93 1202.87,-85.64"/>
<polygon fill="midnightblue" stroke="midnightblue" points="1206.33,-86.22 1205.01,-75.71 1199.48,-84.75 1206.33,-86.22"/>
</g>
<!-- Node26 -->
<g id="node26" class="node">
<title>Node26</title>
<g id="a_node26"><a xlink:href="../../db/d0f/ringbuffer_8hpp.html" target="_top" xlink:title=" ">
<polygon fill="white" stroke="black" points="1217.5,-118 1217.5,-137 1375.5,-137 1375.5,-118 1217.5,-118"/>
<text text-anchor="middle" x="1296.5" y="-125" font-family="Helvetica,sans-Serif" font-size="10.00">panoc&#45;alm/util/ringbuffer.hpp</text>
</a>
</g>
</g>
<!-- Node23&#45;&gt;Node26 -->
<g id="edge30" class="edge">
<title>Node23&#45;&gt;Node26</title>
<path fill="none" stroke="midnightblue" d="M1296.5,-179.4C1296.5,-170.06 1296.5,-157.71 1296.5,-147.52"/>
<polygon fill="midnightblue" stroke="midnightblue" points="1300,-147.19 1296.5,-137.19 1293,-147.19 1300,-147.19"/>
</g>
<!-- Node26&#45;&gt;Node25 -->
<g id="edge31" class="edge">
<title>Node26&#45;&gt;Node25</title>
<path fill="none" stroke="midnightblue" d="M1283.75,-117.98C1269.47,-108.43 1246.1,-92.81 1228.99,-81.37"/>
<polygon fill="midnightblue" stroke="midnightblue" points="1230.49,-78.16 1220.23,-75.51 1226.6,-83.98 1230.49,-78.16"/>
</g>
<!-- Node27 -->
<g id="node27" class="node">
<title>Node27</title>
<g id="a_node27"><a xlink:title=" ">
<polygon fill="white" stroke="#bfbfbf" points="1270,-56.5 1270,-75.5 1323,-75.5 1323,-56.5 1270,-56.5"/>
<text text-anchor="middle" x="1296.5" y="-63.5" font-family="Helvetica,sans-Serif" font-size="10.00">iterator</text>
</a>
</g>
</g>
<!-- Node26&#45;&gt;Node27 -->
<g id="edge32" class="edge">
<title>Node26&#45;&gt;Node27</title>
<path fill="none" stroke="midnightblue" d="M1296.5,-117.98C1296.5,-109.58 1296.5,-96.48 1296.5,-85.66"/>
<polygon fill="midnightblue" stroke="midnightblue" points="1300,-85.51 1296.5,-75.51 1293,-85.51 1300,-85.51"/>
</g>
<!-- Node28&#45;&gt;Node14 -->
<g id="edge35" class="edge">
<title>Node28&#45;&gt;Node14</title>
<path fill="none" stroke="midnightblue" d="M512.42,-246.4C525.07,-235.86 542.33,-221.48 555.27,-210.69"/>
<polygon fill="midnightblue" stroke="midnightblue" points="557.62,-213.29 563.07,-204.19 553.14,-207.91 557.62,-213.29"/>
</g>
</g>
</svg>
