<?xml version="1.0" encoding="UTF-8" standalone="no"?>
<!DOCTYPE svg PUBLIC "-//W3C//DTD SVG 1.1//EN"
 "http://www.w3.org/Graphics/SVG/1.1/DTD/svg11.dtd">
<!-- Generated by graphviz version 2.43.0 (0)
 -->
<!-- Title: alloc.hpp Pages: 1 -->
<svg width="579pt" height="252pt"
 viewBox="0.00 0.00 579.00 252.00" xmlns="http://www.w3.org/2000/svg" xmlns:xlink="http://www.w3.org/1999/xlink">
<g id="graph0" class="graph" transform="scale(1 1) rotate(0) translate(4 248)">
<title>alloc.hpp</title>
<polygon fill="white" stroke="transparent" points="-4,4 -4,-248 575,-248 575,4 -4,4"/>
<!-- Node1 -->
<g id="node1" class="node">
<title>Node1</title>
<g id="a_node1"><a xlink:title=" ">
<polygon fill="#bfbfbf" stroke="black" points="358,-224.5 358,-243.5 419,-243.5 419,-224.5 358,-224.5"/>
<text text-anchor="middle" x="388.5" y="-231.5" font-family="Helvetica,sans-Serif" font-size="10.00">alloc.hpp</text>
</a>
</g>
</g>
<!-- Node2 -->
<g id="node2" class="node">
<title>Node2</title>
<g id="a_node2"><a xlink:href="include_2panoc-alm_2util_2problem_8hpp.html" target="_top" xlink:title=" ">
<polygon fill="white" stroke="black" points="77.5,-168.5 77.5,-187.5 229.5,-187.5 229.5,-168.5 77.5,-168.5"/>
<text text-anchor="middle" x="153.5" y="-175.5" font-family="Helvetica,sans-Serif" font-size="10.00">panoc&#45;alm/util/problem.hpp</text>
</a>
</g>
</g>
<!-- Node1&#45;&gt;Node2 -->
<g id="edge1" class="edge">
<title>Node1&#45;&gt;Node2</title>
<path fill="none" stroke="midnightblue" d="M357.78,-225.94C317.79,-216.75 247.5,-200.6 200.72,-189.85"/>
<polygon fill="midnightblue" stroke="midnightblue" points="201.35,-186.4 190.82,-187.58 199.78,-193.23 201.35,-186.4"/>
</g>
<!-- Node9 -->
<g id="node9" class="node">
<title>Node9</title>
<g id="a_node9"><a xlink:title=" ">
<polygon fill="white" stroke="#bfbfbf" points="247.5,-168.5 247.5,-187.5 311.5,-187.5 311.5,-168.5 247.5,-168.5"/>
<text text-anchor="middle" x="279.5" y="-175.5" font-family="Helvetica,sans-Serif" font-size="10.00">algorithm</text>
</a>
</g>
</g>
<!-- Node1&#45;&gt;Node9 -->
<g id="edge8" class="edge">
<title>Node1&#45;&gt;Node9</title>
<path fill="none" stroke="midnightblue" d="M370.99,-224.32C353.43,-215.62 326.17,-202.12 305.97,-192.11"/>
<polygon fill="midnightblue" stroke="midnightblue" points="307.48,-188.96 296.97,-187.65 304.38,-195.23 307.48,-188.96"/>
</g>
<!-- Node10 -->
<g id="node10" class="node">
<title>Node10</title>
<g id="a_node10"><a xlink:title=" ">
<polygon fill="white" stroke="#bfbfbf" points="329.5,-168.5 329.5,-187.5 381.5,-187.5 381.5,-168.5 329.5,-168.5"/>
<text text-anchor="middle" x="355.5" y="-175.5" font-family="Helvetica,sans-Serif" font-size="10.00">cassert</text>
</a>
</g>
</g>
<!-- Node1&#45;&gt;Node10 -->
<g id="edge9" class="edge">
<title>Node1&#45;&gt;Node10</title>
<path fill="none" stroke="midnightblue" d="M383.05,-224.08C378.49,-216.61 371.83,-205.72 366.21,-196.52"/>
<polygon fill="midnightblue" stroke="midnightblue" points="369.05,-194.46 360.85,-187.75 363.08,-198.11 369.05,-194.46"/>
</g>
<!-- Node11 -->
<g id="node11" class="node">
<title>Node11</title>
<g id="a_node11"><a xlink:title=" ">
<polygon fill="white" stroke="#bfbfbf" points="400,-168.5 400,-187.5 443,-187.5 443,-168.5 400,-168.5"/>
<text text-anchor="middle" x="421.5" y="-175.5" font-family="Helvetica,sans-Serif" font-size="10.00">stack</text>
</a>
</g>
</g>
<!-- Node1&#45;&gt;Node11 -->
<g id="edge10" class="edge">
<title>Node1&#45;&gt;Node11</title>
<path fill="none" stroke="midnightblue" d="M393.95,-224.08C398.51,-216.61 405.17,-205.72 410.79,-196.52"/>
<polygon fill="midnightblue" stroke="midnightblue" points="413.92,-198.11 416.15,-187.75 407.95,-194.46 413.92,-198.11"/>
</g>
<!-- Node12 -->
<g id="node12" class="node">
<title>Node12</title>
<g id="a_node12"><a xlink:title=" ">
<polygon fill="white" stroke="#bfbfbf" points="461,-168.5 461,-187.5 506,-187.5 506,-168.5 461,-168.5"/>
<text text-anchor="middle" x="483.5" y="-175.5" font-family="Helvetica,sans-Serif" font-size="10.00">utility</text>
</a>
</g>
</g>
<!-- Node1&#45;&gt;Node12 -->
<g id="edge11" class="edge">
<title>Node1&#45;&gt;Node12</title>
<path fill="none" stroke="midnightblue" d="M403.76,-224.32C418.72,-215.82 441.75,-202.73 459.23,-192.8"/>
<polygon fill="midnightblue" stroke="midnightblue" points="461.31,-195.64 468.27,-187.65 457.85,-189.55 461.31,-195.64"/>
</g>
<!-- Node13 -->
<g id="node13" class="node">
<title>Node13</title>
<g id="a_node13"><a xlink:title=" ">
<polygon fill="white" stroke="#bfbfbf" points="524,-168.5 524,-187.5 571,-187.5 571,-168.5 524,-168.5"/>
<text text-anchor="middle" x="547.5" y="-175.5" font-family="Helvetica,sans-Serif" font-size="10.00">vector</text>
</a>
</g>
</g>
<!-- Node1&#45;&gt;Node13 -->
<g id="edge12" class="edge">
<title>Node1&#45;&gt;Node13</title>
<path fill="none" stroke="midnightblue" d="M413.69,-224.44C440.91,-215.2 484.41,-200.43 514.38,-190.25"/>
<polygon fill="midnightblue" stroke="midnightblue" points="515.64,-193.52 523.98,-186.99 513.38,-186.89 515.64,-193.52"/>
</g>
<!-- Node3 -->
<g id="node3" class="node">
<title>Node3</title>
<g id="a_node3"><a xlink:href="box_8hpp.html" target="_top" xlink:title=" ">
<polygon fill="white" stroke="black" points="6.5,-112.5 6.5,-131.5 62.5,-131.5 62.5,-112.5 6.5,-112.5"/>
<text text-anchor="middle" x="34.5" y="-119.5" font-family="Helvetica,sans-Serif" font-size="10.00">box.hpp</text>
</a>
</g>
</g>
<!-- Node2&#45;&gt;Node3 -->
<g id="edge2" class="edge">
<title>Node2&#45;&gt;Node3</title>
<path fill="none" stroke="midnightblue" d="M134.64,-168.44C115.23,-159.64 84.77,-145.81 62.54,-135.72"/>
<polygon fill="midnightblue" stroke="midnightblue" points="63.82,-132.46 53.27,-131.52 60.93,-138.84 63.82,-132.46"/>
</g>
<!-- Node6 -->
<g id="node6" class="node">
<title>Node6</title>
<g id="a_node6"><a xlink:title=" ">
<polygon fill="white" stroke="#bfbfbf" points="81,-112.5 81,-131.5 146,-131.5 146,-112.5 81,-112.5"/>
<text text-anchor="middle" x="113.5" y="-119.5" font-family="Helvetica,sans-Serif" font-size="10.00">functional</text>
</a>
</g>
</g>
<!-- Node2&#45;&gt;Node6 -->
<g id="edge5" class="edge">
<title>Node2&#45;&gt;Node6</title>
<path fill="none" stroke="midnightblue" d="M146.89,-168.08C141.24,-160.46 132.96,-149.26 126.05,-139.94"/>
<polygon fill="midnightblue" stroke="midnightblue" points="128.75,-137.7 119.98,-131.75 123.12,-141.87 128.75,-137.7"/>
</g>
<!-- Node7 -->
<g id="node7" class="node">
<title>Node7</title>
<g id="a_node7"><a xlink:title=" ">
<polygon fill="white" stroke="#bfbfbf" points="164.5,-112.5 164.5,-131.5 222.5,-131.5 222.5,-112.5 164.5,-112.5"/>
<text text-anchor="middle" x="193.5" y="-119.5" font-family="Helvetica,sans-Serif" font-size="10.00">memory</text>
</a>
</g>
</g>
<!-- Node2&#45;&gt;Node7 -->
<g id="edge6" class="edge">
<title>Node2&#45;&gt;Node7</title>
<path fill="none" stroke="midnightblue" d="M160.11,-168.08C165.76,-160.46 174.04,-149.26 180.95,-139.94"/>
<polygon fill="midnightblue" stroke="midnightblue" points="183.88,-141.87 187.02,-131.75 178.25,-137.7 183.88,-141.87"/>
</g>
<!-- Node8 -->
<g id="node8" class="node">
<title>Node8</title>
<g id="a_node8"><a xlink:title=" ">
<polygon fill="white" stroke="#bfbfbf" points="241,-112.5 241,-131.5 310,-131.5 310,-112.5 241,-112.5"/>
<text text-anchor="middle" x="275.5" y="-119.5" font-family="Helvetica,sans-Serif" font-size="10.00">type_traits</text>
</a>
</g>
</g>
<!-- Node2&#45;&gt;Node8 -->
<g id="edge7" class="edge">
<title>Node2&#45;&gt;Node8</title>
<path fill="none" stroke="midnightblue" d="M172.83,-168.44C192.82,-159.6 224.24,-145.69 247.06,-135.59"/>
<polygon fill="midnightblue" stroke="midnightblue" points="248.53,-138.76 256.26,-131.52 245.7,-132.36 248.53,-138.76"/>
</g>
<!-- Node4 -->
<g id="node4" class="node">
<title>Node4</title>
<g id="a_node4"><a xlink:href="vec_8hpp.html" target="_top" xlink:title=" ">
<polygon fill="white" stroke="black" points="7,-56.5 7,-75.5 62,-75.5 62,-56.5 7,-56.5"/>
<text text-anchor="middle" x="34.5" y="-63.5" font-family="Helvetica,sans-Serif" font-size="10.00">vec.hpp</text>
</a>
</g>
</g>
<!-- Node3&#45;&gt;Node4 -->
<g id="edge3" class="edge">
<title>Node3&#45;&gt;Node4</title>
<path fill="none" stroke="midnightblue" d="M34.5,-112.08C34.5,-105.01 34.5,-94.86 34.5,-85.99"/>
<polygon fill="midnightblue" stroke="midnightblue" points="38,-85.75 34.5,-75.75 31,-85.75 38,-85.75"/>
</g>
<!-- Node5 -->
<g id="node5" class="node">
<title>Node5</title>
<g id="a_node5"><a xlink:title=" ">
<polygon fill="white" stroke="#bfbfbf" points="0,-0.5 0,-19.5 69,-19.5 69,-0.5 0,-0.5"/>
<text text-anchor="middle" x="34.5" y="-7.5" font-family="Helvetica,sans-Serif" font-size="10.00">Eigen/Core</text>
</a>
</g>
</g>
<!-- Node4&#45;&gt;Node5 -->
<g id="edge4" class="edge">
<title>Node4&#45;&gt;Node5</title>
<path fill="none" stroke="midnightblue" d="M34.5,-56.08C34.5,-49.01 34.5,-38.86 34.5,-29.99"/>
<polygon fill="midnightblue" stroke="midnightblue" points="38,-29.75 34.5,-19.75 31,-29.75 38,-29.75"/>
</g>
</g>
</svg>
