<?xml version="1.0" encoding="UTF-8" standalone="no"?>
<!DOCTYPE svg PUBLIC "-//W3C//DTD SVG 1.1//EN"
 "http://www.w3.org/Graphics/SVG/1.1/DTD/svg11.dtd">
<!-- Generated by graphviz version 2.43.0 (0)
 -->
<!-- Title: alm.hpp Pages: 1 -->
<svg width="645pt" height="397pt"
 viewBox="0.00 0.00 645.00 397.00" xmlns="http://www.w3.org/2000/svg" xmlns:xlink="http://www.w3.org/1999/xlink">
<g id="graph0" class="graph" transform="scale(1 1) rotate(0) translate(4 393)">
<title>alm.hpp</title>
<polygon fill="white" stroke="transparent" points="-4,4 -4,-393 641,-393 641,4 -4,4"/>
<!-- Node1 -->
<g id="node1" class="node">
<title>Node1</title>
<g id="a_node1"><a xlink:title=" ">
<polygon fill="#bfbfbf" stroke="black" points="447,-369.5 447,-388.5 503,-388.5 503,-369.5 447,-369.5"/>
<text text-anchor="middle" x="475" y="-376.5" font-family="Helvetica,sans-Serif" font-size="10.00">alm.hpp</text>
</a>
</g>
</g>
<!-- Node2 -->
<g id="node2" class="node">
<title>Node2</title>
<g id="a_node2"><a xlink:title=" ">
<polygon fill="white" stroke="#bfbfbf" points="0,-185 0,-204 50,-204 50,-185 0,-185"/>
<text text-anchor="middle" x="25" y="-192" font-family="Helvetica,sans-Serif" font-size="10.00">chrono</text>
</a>
</g>
</g>
<!-- Node1&#45;&gt;Node2 -->
<g id="edge1" class="edge">
<title>Node1&#45;&gt;Node2</title>
<path fill="none" stroke="midnightblue" d="M446.98,-371.56C414.86,-363.84 360.86,-349.81 316,-333 214.22,-294.85 99.09,-235.28 49.67,-208.88"/>
<polygon fill="midnightblue" stroke="midnightblue" points="51.15,-205.7 40.69,-204.05 47.84,-211.87 51.15,-205.7"/>
</g>
<!-- Node3 -->
<g id="node3" class="node">
<title>Node3</title>
<g id="a_node3"><a xlink:href="alm-helpers_8hpp.html" target="_top" xlink:title=" ">
<polygon fill="white" stroke="black" points="325.5,-302.5 325.5,-332.5 446.5,-332.5 446.5,-302.5 325.5,-302.5"/>
<text text-anchor="start" x="333.5" y="-320.5" font-family="Helvetica,sans-Serif" font-size="10.00">panoc&#45;alm/detail/alm</text>
<text text-anchor="middle" x="386" y="-309.5" font-family="Helvetica,sans-Serif" font-size="10.00">&#45;helpers.hpp</text>
</a>
</g>
</g>
<!-- Node1&#45;&gt;Node3 -->
<g id="edge2" class="edge">
<title>Node1&#45;&gt;Node3</title>
<path fill="none" stroke="midnightblue" d="M462.25,-369.48C450.08,-361.34 431.31,-348.79 415.44,-338.18"/>
<polygon fill="midnightblue" stroke="midnightblue" points="417.23,-335.17 406.98,-332.52 413.34,-340.99 417.23,-335.17"/>
</g>
<!-- Node14 -->
<g id="node14" class="node">
<title>Node14</title>
<g id="a_node14"><a xlink:href="solverstatus_8hpp.html" target="_top" xlink:title=" ">
<polygon fill="white" stroke="black" points="438.5,-185 438.5,-204 609.5,-204 609.5,-185 438.5,-185"/>
<text text-anchor="middle" x="524" y="-192" font-family="Helvetica,sans-Serif" font-size="10.00">panoc&#45;alm/util/solverstatus.hpp</text>
</a>
</g>
</g>
<!-- Node1&#45;&gt;Node14 -->
<g id="edge18" class="edge">
<title>Node1&#45;&gt;Node14</title>
<path fill="none" stroke="midnightblue" d="M477.14,-369.09C480.57,-354.87 487.57,-326.19 494,-302 502.24,-271 512.49,-235.13 518.63,-213.93"/>
<polygon fill="midnightblue" stroke="midnightblue" points="522.08,-214.61 521.5,-204.04 515.35,-212.66 522.08,-214.61"/>
</g>
<!-- Node18 -->
<g id="node18" class="node">
<title>Node18</title>
<g id="a_node18"><a xlink:title=" ">
<polygon fill="white" stroke="#bfbfbf" points="503,-308 503,-327 559,-327 559,-308 503,-308"/>
<text text-anchor="middle" x="531" y="-315" font-family="Helvetica,sans-Serif" font-size="10.00">iomanip</text>
</a>
</g>
</g>
<!-- Node1&#45;&gt;Node18 -->
<g id="edge19" class="edge">
<title>Node1&#45;&gt;Node18</title>
<path fill="none" stroke="midnightblue" d="M483.02,-369.48C491.59,-360.37 505.36,-345.74 515.96,-334.48"/>
<polygon fill="midnightblue" stroke="midnightblue" points="518.69,-336.69 522.99,-327.01 513.59,-331.89 518.69,-336.69"/>
</g>
<!-- Node19 -->
<g id="node19" class="node">
<title>Node19</title>
<g id="a_node19"><a xlink:title=" ">
<polygon fill="white" stroke="#bfbfbf" points="577,-308 577,-327 637,-327 637,-308 577,-308"/>
<text text-anchor="middle" x="607" y="-315" font-family="Helvetica,sans-Serif" font-size="10.00">iostream</text>
</a>
</g>
</g>
<!-- Node1&#45;&gt;Node19 -->
<g id="edge20" class="edge">
<title>Node1&#45;&gt;Node19</title>
<path fill="none" stroke="midnightblue" d="M493.91,-369.48C516.16,-359.45 553.31,-342.7 578.93,-331.15"/>
<polygon fill="midnightblue" stroke="midnightblue" points="580.44,-334.31 588.12,-327.01 577.57,-327.93 580.44,-334.31"/>
</g>
<!-- Node4 -->
<g id="node4" class="node">
<title>Node4</title>
<g id="a_node4"><a xlink:href="decl_2alm_8hpp.html" target="_top" xlink:title=" ">
<polygon fill="white" stroke="black" points="215,-246.5 215,-265.5 349,-265.5 349,-246.5 215,-246.5"/>
<text text-anchor="middle" x="282" y="-253.5" font-family="Helvetica,sans-Serif" font-size="10.00">panoc&#45;alm/decl/alm.hpp</text>
</a>
</g>
</g>
<!-- Node3&#45;&gt;Node4 -->
<g id="edge3" class="edge">
<title>Node3&#45;&gt;Node4</title>
<path fill="none" stroke="midnightblue" d="M361.35,-302.4C344.68,-292.86 322.77,-280.32 306.19,-270.84"/>
<polygon fill="midnightblue" stroke="midnightblue" points="307.55,-267.59 297.13,-265.66 304.07,-273.66 307.55,-267.59"/>
</g>
<!-- Node17 -->
<g id="node17" class="node">
<title>Node17</title>
<g id="a_node17"><a xlink:title=" ">
<polygon fill="white" stroke="#bfbfbf" points="367.5,-246.5 367.5,-265.5 432.5,-265.5 432.5,-246.5 367.5,-246.5"/>
<text text-anchor="middle" x="400" y="-253.5" font-family="Helvetica,sans-Serif" font-size="10.00">stdexcept</text>
</a>
</g>
</g>
<!-- Node3&#45;&gt;Node17 -->
<g id="edge17" class="edge">
<title>Node3&#45;&gt;Node17</title>
<path fill="none" stroke="midnightblue" d="M389.32,-302.4C391.21,-294.38 393.59,-284.23 395.63,-275.57"/>
<polygon fill="midnightblue" stroke="midnightblue" points="399.08,-276.19 397.96,-265.66 392.27,-274.59 399.08,-276.19"/>
</g>
<!-- Node4&#45;&gt;Node2 -->
<g id="edge15" class="edge">
<title>Node4&#45;&gt;Node2</title>
<path fill="none" stroke="midnightblue" d="M222.96,-246.46C177.53,-239.08 113.5,-226.93 59,-210 56.86,-209.34 54.67,-208.58 52.48,-207.78"/>
<polygon fill="midnightblue" stroke="midnightblue" points="53.68,-204.48 43.09,-204.02 51.08,-210.99 53.68,-204.48"/>
</g>
<!-- Node5 -->
<g id="node5" class="node">
<title>Node5</title>
<g id="a_node5"><a xlink:href="panoc-fwd_8hpp.html" target="_top" xlink:title=" ">
<polygon fill="white" stroke="black" points="68.5,-179.5 68.5,-209.5 187.5,-209.5 187.5,-179.5 68.5,-179.5"/>
<text text-anchor="start" x="76.5" y="-197.5" font-family="Helvetica,sans-Serif" font-size="10.00">panoc&#45;alm/inner/decl</text>
<text text-anchor="middle" x="128" y="-186.5" font-family="Helvetica,sans-Serif" font-size="10.00">/panoc&#45;fwd.hpp</text>
</a>
</g>
</g>
<!-- Node4&#45;&gt;Node5 -->
<g id="edge4" class="edge">
<title>Node4&#45;&gt;Node5</title>
<path fill="none" stroke="midnightblue" d="M259.94,-246.48C237.52,-237.81 202.14,-224.15 173.66,-213.14"/>
<polygon fill="midnightblue" stroke="midnightblue" points="174.88,-209.86 164.29,-209.52 172.36,-216.39 174.88,-209.86"/>
</g>
<!-- Node7 -->
<g id="node7" class="node">
<title>Node7</title>
<g id="a_node7"><a xlink:href="include_2panoc-alm_2util_2problem_8hpp.html" target="_top" xlink:title=" ">
<polygon fill="white" stroke="black" points="206,-185 206,-204 358,-204 358,-185 206,-185"/>
<text text-anchor="middle" x="282" y="-192" font-family="Helvetica,sans-Serif" font-size="10.00">panoc&#45;alm/util/problem.hpp</text>
</a>
</g>
</g>
<!-- Node4&#45;&gt;Node7 -->
<g id="edge6" class="edge">
<title>Node4&#45;&gt;Node7</title>
<path fill="none" stroke="midnightblue" d="M282,-246.48C282,-238.08 282,-224.98 282,-214.16"/>
<polygon fill="midnightblue" stroke="midnightblue" points="285.5,-214.01 282,-204.01 278.5,-214.01 285.5,-214.01"/>
</g>
<!-- Node4&#45;&gt;Node14 -->
<g id="edge13" class="edge">
<title>Node4&#45;&gt;Node14</title>
<path fill="none" stroke="midnightblue" d="M316.67,-246.48C359.53,-235.94 432.54,-217.99 479.5,-206.44"/>
<polygon fill="midnightblue" stroke="midnightblue" points="480.52,-209.8 489.39,-204.01 478.85,-203 480.52,-209.8"/>
</g>
<!-- Node16 -->
<g id="node16" class="node">
<title>Node16</title>
<g id="a_node16"><a xlink:title=" ">
<polygon fill="white" stroke="#bfbfbf" points="376,-185 376,-204 420,-204 420,-185 376,-185"/>
<text text-anchor="middle" x="398" y="-192" font-family="Helvetica,sans-Serif" font-size="10.00">string</text>
</a>
</g>
</g>
<!-- Node4&#45;&gt;Node16 -->
<g id="edge16" class="edge">
<title>Node4&#45;&gt;Node16</title>
<path fill="none" stroke="midnightblue" d="M298.62,-246.48C317.92,-236.58 349.96,-220.14 372.43,-208.62"/>
<polygon fill="midnightblue" stroke="midnightblue" points="374.11,-211.69 381.41,-204.01 370.92,-205.46 374.11,-211.69"/>
</g>
<!-- Node6 -->
<g id="node6" class="node">
<title>Node6</title>
<g id="a_node6"><a xlink:href="lbfgs-fwd_8hpp.html" target="_top" xlink:title=" ">
<polygon fill="white" stroke="black" points="9.5,-112.5 9.5,-142.5 156.5,-142.5 156.5,-112.5 9.5,-112.5"/>
<text text-anchor="start" x="17.5" y="-130.5" font-family="Helvetica,sans-Serif" font-size="10.00">panoc&#45;alm/inner/directions</text>
<text text-anchor="middle" x="83" y="-119.5" font-family="Helvetica,sans-Serif" font-size="10.00">/decl/lbfgs&#45;fwd.hpp</text>
</a>
</g>
</g>
<!-- Node5&#45;&gt;Node6 -->
<g id="edge5" class="edge">
<title>Node5&#45;&gt;Node6</title>
<path fill="none" stroke="midnightblue" d="M118.24,-179.4C112.46,-171.05 105.01,-160.29 98.45,-150.81"/>
<polygon fill="midnightblue" stroke="midnightblue" points="101.32,-148.81 92.75,-142.58 95.56,-152.79 101.32,-148.81"/>
</g>
<!-- Node8 -->
<g id="node8" class="node">
<title>Node8</title>
<g id="a_node8"><a xlink:href="box_8hpp.html" target="_top" xlink:title=" ">
<polygon fill="white" stroke="black" points="175,-118 175,-137 231,-137 231,-118 175,-118"/>
<text text-anchor="middle" x="203" y="-125" font-family="Helvetica,sans-Serif" font-size="10.00">box.hpp</text>
</a>
</g>
</g>
<!-- Node7&#45;&gt;Node8 -->
<g id="edge7" class="edge">
<title>Node7&#45;&gt;Node8</title>
<path fill="none" stroke="midnightblue" d="M271.35,-184.73C258.55,-174.21 236.88,-156.38 221.37,-143.62"/>
<polygon fill="midnightblue" stroke="midnightblue" points="223.43,-140.78 213.49,-137.13 218.98,-146.18 223.43,-140.78"/>
</g>
<!-- Node11 -->
<g id="node11" class="node">
<title>Node11</title>
<g id="a_node11"><a xlink:title=" ">
<polygon fill="white" stroke="#bfbfbf" points="249.5,-118 249.5,-137 314.5,-137 314.5,-118 249.5,-118"/>
<text text-anchor="middle" x="282" y="-125" font-family="Helvetica,sans-Serif" font-size="10.00">functional</text>
</a>
</g>
</g>
<!-- Node7&#45;&gt;Node11 -->
<g id="edge10" class="edge">
<title>Node7&#45;&gt;Node11</title>
<path fill="none" stroke="midnightblue" d="M282,-184.73C282,-175.18 282,-159.62 282,-147.28"/>
<polygon fill="midnightblue" stroke="midnightblue" points="285.5,-147.13 282,-137.13 278.5,-147.13 285.5,-147.13"/>
</g>
<!-- Node12 -->
<g id="node12" class="node">
<title>Node12</title>
<g id="a_node12"><a xlink:title=" ">
<polygon fill="white" stroke="#bfbfbf" points="333,-118 333,-137 391,-137 391,-118 333,-118"/>
<text text-anchor="middle" x="362" y="-125" font-family="Helvetica,sans-Serif" font-size="10.00">memory</text>
</a>
</g>
</g>
<!-- Node7&#45;&gt;Node12 -->
<g id="edge11" class="edge">
<title>Node7&#45;&gt;Node12</title>
<path fill="none" stroke="midnightblue" d="M292.79,-184.73C305.74,-174.21 327.69,-156.38 343.39,-143.62"/>
<polygon fill="midnightblue" stroke="midnightblue" points="345.83,-146.15 351.38,-137.13 341.41,-140.72 345.83,-146.15"/>
</g>
<!-- Node13 -->
<g id="node13" class="node">
<title>Node13</title>
<g id="a_node13"><a xlink:title=" ">
<polygon fill="white" stroke="#bfbfbf" points="409.5,-118 409.5,-137 478.5,-137 478.5,-118 409.5,-118"/>
<text text-anchor="middle" x="444" y="-125" font-family="Helvetica,sans-Serif" font-size="10.00">type_traits</text>
</a>
</g>
</g>
<!-- Node7&#45;&gt;Node13 -->
<g id="edge12" class="edge">
<title>Node7&#45;&gt;Node13</title>
<path fill="none" stroke="midnightblue" d="M303.51,-184.87C331.67,-173.57 381.2,-153.7 413.3,-140.82"/>
<polygon fill="midnightblue" stroke="midnightblue" points="414.68,-144.04 422.66,-137.06 412.07,-137.54 414.68,-144.04"/>
</g>
<!-- Node9 -->
<g id="node9" class="node">
<title>Node9</title>
<g id="a_node9"><a xlink:href="vec_8hpp.html" target="_top" xlink:title=" ">
<polygon fill="white" stroke="black" points="175.5,-56.5 175.5,-75.5 230.5,-75.5 230.5,-56.5 175.5,-56.5"/>
<text text-anchor="middle" x="203" y="-63.5" font-family="Helvetica,sans-Serif" font-size="10.00">vec.hpp</text>
</a>
</g>
</g>
<!-- Node8&#45;&gt;Node9 -->
<g id="edge8" class="edge">
<title>Node8&#45;&gt;Node9</title>
<path fill="none" stroke="midnightblue" d="M203,-117.98C203,-109.58 203,-96.48 203,-85.66"/>
<polygon fill="midnightblue" stroke="midnightblue" points="206.5,-85.51 203,-75.51 199.5,-85.51 206.5,-85.51"/>
</g>
<!-- Node10 -->
<g id="node10" class="node">
<title>Node10</title>
<g id="a_node10"><a xlink:title=" ">
<polygon fill="white" stroke="#bfbfbf" points="168.5,-0.5 168.5,-19.5 237.5,-19.5 237.5,-0.5 168.5,-0.5"/>
<text text-anchor="middle" x="203" y="-7.5" font-family="Helvetica,sans-Serif" font-size="10.00">Eigen/Core</text>
</a>
</g>
</g>
<!-- Node9&#45;&gt;Node10 -->
<g id="edge9" class="edge">
<title>Node9&#45;&gt;Node10</title>
<path fill="none" stroke="midnightblue" d="M203,-56.08C203,-49.01 203,-38.86 203,-29.99"/>
<polygon fill="midnightblue" stroke="midnightblue" points="206.5,-29.75 203,-19.75 199.5,-29.75 206.5,-29.75"/>
</g>
<!-- Node15 -->
<g id="node15" class="node">
<title>Node15</title>
<g id="a_node15"><a xlink:title=" ">
<polygon fill="white" stroke="#bfbfbf" points="500,-118 500,-137 548,-137 548,-118 500,-118"/>
<text text-anchor="middle" x="524" y="-125" font-family="Helvetica,sans-Serif" font-size="10.00">iosfwd</text>
</a>
</g>
</g>
<!-- Node14&#45;&gt;Node15 -->
<g id="edge14" class="edge">
<title>Node14&#45;&gt;Node15</title>
<path fill="none" stroke="midnightblue" d="M524,-184.73C524,-175.18 524,-159.62 524,-147.28"/>
<polygon fill="midnightblue" stroke="midnightblue" points="527.5,-147.13 524,-137.13 520.5,-147.13 527.5,-147.13"/>
</g>
</g>
</svg>
