<?xml version="1.0" encoding="UTF-8" standalone="no"?>
<!DOCTYPE svg PUBLIC "-//W3C//DTD SVG 1.1//EN"
 "http://www.w3.org/Graphics/SVG/1.1/DTD/svg11.dtd">
<!-- Generated by graphviz version 2.43.0 (0)
 -->
<!-- Title: alm.cpp Pages: 1 -->
<svg width="1606pt" height="464pt"
 viewBox="0.00 0.00 1606.49 464.00" xmlns="http://www.w3.org/2000/svg" xmlns:xlink="http://www.w3.org/1999/xlink">
<g id="graph0" class="graph" transform="scale(1 1) rotate(0) translate(4 460)">
<title>alm.cpp</title>
<polygon fill="white" stroke="transparent" points="-4,4 -4,-460 1602.49,-460 1602.49,4 -4,4"/>
<!-- Node1 -->
<g id="node1" class="node">
<title>Node1</title>
<g id="a_node1"><a xlink:title=" ">
<polygon fill="#bfbfbf" stroke="black" points="465.5,-436.5 465.5,-455.5 521.5,-455.5 521.5,-436.5 465.5,-436.5"/>
<text text-anchor="middle" x="493.5" y="-443.5" font-family="Helvetica,sans-Serif" font-size="10.00">alm.cpp</text>
</a>
</g>
</g>
<!-- Node2 -->
<g id="node2" class="node">
<title>Node2</title>
<g id="a_node2"><a xlink:href="alm_8hpp.html" target="_top" xlink:title=" ">
<polygon fill="white" stroke="black" points="438,-380.5 438,-399.5 549,-399.5 549,-380.5 438,-380.5"/>
<text text-anchor="middle" x="493.5" y="-387.5" font-family="Helvetica,sans-Serif" font-size="10.00">panoc&#45;alm/alm.hpp</text>
</a>
</g>
</g>
<!-- Node1&#45;&gt;Node2 -->
<g id="edge1" class="edge">
<title>Node1&#45;&gt;Node2</title>
<path fill="none" stroke="midnightblue" d="M493.5,-436.08C493.5,-429.01 493.5,-418.86 493.5,-409.99"/>
<polygon fill="midnightblue" stroke="midnightblue" points="497,-409.75 493.5,-399.75 490,-409.75 497,-409.75"/>
</g>
<!-- Node21 -->
<g id="node21" class="node">
<title>Node21</title>
<g id="a_node21"><a xlink:href="lbfgs_8hpp.html" target="_top" xlink:title=" ">
<polygon fill="white" stroke="black" points="186,-313.5 186,-343.5 333,-343.5 333,-313.5 186,-313.5"/>
<text text-anchor="start" x="194" y="-331.5" font-family="Helvetica,sans-Serif" font-size="10.00">panoc&#45;alm/inner/directions</text>
<text text-anchor="middle" x="259.5" y="-320.5" font-family="Helvetica,sans-Serif" font-size="10.00">/lbfgs.hpp</text>
</a>
</g>
</g>
<!-- Node1&#45;&gt;Node21 -->
<g id="edge22" class="edge">
<title>Node1&#45;&gt;Node21</title>
<path fill="none" stroke="midnightblue" d="M475.91,-436.32C438.09,-417.65 348.3,-373.33 297.05,-348.04"/>
<polygon fill="midnightblue" stroke="midnightblue" points="298.47,-344.83 287.96,-343.55 295.37,-351.11 298.47,-344.83"/>
</g>
<!-- Node24 -->
<g id="node24" class="node">
<title>Node24</title>
<g id="a_node24"><a xlink:href="inner_2panoc_8hpp.html" target="_top" xlink:title=" ">
<polygon fill="white" stroke="black" points="807,-319 807,-338 956,-338 956,-319 807,-319"/>
<text text-anchor="middle" x="881.5" y="-326" font-family="Helvetica,sans-Serif" font-size="10.00">panoc&#45;alm/inner/panoc.hpp</text>
</a>
</g>
</g>
<!-- Node1&#45;&gt;Node24 -->
<g id="edge30" class="edge">
<title>Node1&#45;&gt;Node24</title>
<path fill="none" stroke="midnightblue" d="M521.72,-436.6C590.14,-416.23 765,-364.18 842.97,-340.97"/>
<polygon fill="midnightblue" stroke="midnightblue" points="844.28,-344.23 852.86,-338.02 842.28,-337.52 844.28,-344.23"/>
</g>
<!-- Node3 -->
<g id="node3" class="node">
<title>Node3</title>
<g id="a_node3"><a xlink:title=" ">
<polygon fill="white" stroke="#bfbfbf" points="333.5,-185 333.5,-204 383.5,-204 383.5,-185 333.5,-185"/>
<text text-anchor="middle" x="358.5" y="-192" font-family="Helvetica,sans-Serif" font-size="10.00">chrono</text>
</a>
</g>
</g>
<!-- Node2&#45;&gt;Node3 -->
<g id="edge2" class="edge">
<title>Node2&#45;&gt;Node3</title>
<path fill="none" stroke="midnightblue" d="M481.12,-380.41C457.69,-363.47 406.85,-323.34 380.5,-277 369.21,-257.14 363.51,-231.25 360.78,-214.04"/>
<polygon fill="midnightblue" stroke="midnightblue" points="364.25,-213.55 359.39,-204.13 357.32,-214.52 364.25,-213.55"/>
</g>
<!-- Node4 -->
<g id="node4" class="node">
<title>Node4</title>
<g id="a_node4"><a xlink:href="alm-helpers_8hpp.html" target="_top" xlink:title=" ">
<polygon fill="white" stroke="black" points="974,-313.5 974,-343.5 1095,-343.5 1095,-313.5 974,-313.5"/>
<text text-anchor="start" x="982" y="-331.5" font-family="Helvetica,sans-Serif" font-size="10.00">panoc&#45;alm/detail/alm</text>
<text text-anchor="middle" x="1034.5" y="-320.5" font-family="Helvetica,sans-Serif" font-size="10.00">&#45;helpers.hpp</text>
</a>
</g>
</g>
<!-- Node2&#45;&gt;Node4 -->
<g id="edge3" class="edge">
<title>Node2&#45;&gt;Node4</title>
<path fill="none" stroke="midnightblue" d="M549.21,-385.65C635.7,-380.02 807.66,-367.09 963.62,-344.02"/>
<polygon fill="midnightblue" stroke="midnightblue" points="964.49,-347.42 973.87,-342.48 963.46,-340.5 964.49,-347.42"/>
</g>
<!-- Node15 -->
<g id="node15" class="node">
<title>Node15</title>
<g id="a_node15"><a xlink:href="solverstatus_8hpp.html" target="_top" xlink:title=" ">
<polygon fill="white" stroke="black" points="602,-185 602,-204 773,-204 773,-185 602,-185"/>
<text text-anchor="middle" x="687.5" y="-192" font-family="Helvetica,sans-Serif" font-size="10.00">panoc&#45;alm/util/solverstatus.hpp</text>
</a>
</g>
</g>
<!-- Node2&#45;&gt;Node15 -->
<g id="edge19" class="edge">
<title>Node2&#45;&gt;Node15</title>
<path fill="none" stroke="midnightblue" d="M549.03,-383.45C612.47,-373.81 713.53,-347.64 760.5,-277 768.13,-265.53 766.9,-258.2 760.5,-246 751.73,-229.27 734.63,-216.99 719.18,-208.72"/>
<polygon fill="midnightblue" stroke="midnightblue" points="720.37,-205.41 709.86,-204.09 717.26,-211.68 720.37,-205.41"/>
</g>
<!-- Node19 -->
<g id="node19" class="node">
<title>Node19</title>
<g id="a_node19"><a xlink:title=" ">
<polygon fill="white" stroke="#bfbfbf" points="389.5,-252 389.5,-271 445.5,-271 445.5,-252 389.5,-252"/>
<text text-anchor="middle" x="417.5" y="-259" font-family="Helvetica,sans-Serif" font-size="10.00">iomanip</text>
</a>
</g>
</g>
<!-- Node2&#45;&gt;Node19 -->
<g id="edge20" class="edge">
<title>Node2&#45;&gt;Node19</title>
<path fill="none" stroke="midnightblue" d="M488.28,-380.31C475.91,-359.72 444.65,-307.69 428.12,-280.18"/>
<polygon fill="midnightblue" stroke="midnightblue" points="430.91,-278.03 422.76,-271.26 424.91,-281.63 430.91,-278.03"/>
</g>
<!-- Node20 -->
<g id="node20" class="node">
<title>Node20</title>
<g id="a_node20"><a xlink:title=" ">
<polygon fill="white" stroke="#bfbfbf" points="463.5,-252 463.5,-271 523.5,-271 523.5,-252 463.5,-252"/>
<text text-anchor="middle" x="493.5" y="-259" font-family="Helvetica,sans-Serif" font-size="10.00">iostream</text>
</a>
</g>
</g>
<!-- Node2&#45;&gt;Node20 -->
<g id="edge21" class="edge">
<title>Node2&#45;&gt;Node20</title>
<path fill="none" stroke="midnightblue" d="M493.5,-380.31C493.5,-359.99 493.5,-309.05 493.5,-281.28"/>
<polygon fill="midnightblue" stroke="midnightblue" points="497,-281.26 493.5,-271.26 490,-281.26 497,-281.26"/>
</g>
<!-- Node5 -->
<g id="node5" class="node">
<title>Node5</title>
<g id="a_node5"><a xlink:href="decl_2alm_8hpp.html" target="_top" xlink:title=" ">
<polygon fill="white" stroke="black" points="617.5,-252 617.5,-271 751.5,-271 751.5,-252 617.5,-252"/>
<text text-anchor="middle" x="684.5" y="-259" font-family="Helvetica,sans-Serif" font-size="10.00">panoc&#45;alm/decl/alm.hpp</text>
</a>
</g>
</g>
<!-- Node4&#45;&gt;Node5 -->
<g id="edge4" class="edge">
<title>Node4&#45;&gt;Node5</title>
<path fill="none" stroke="midnightblue" d="M973.81,-314.83C970.66,-314.2 967.55,-313.59 964.5,-313 888.45,-298.27 800.49,-282.63 743.76,-272.73"/>
<polygon fill="midnightblue" stroke="midnightblue" points="744.34,-269.28 733.89,-271.01 743.14,-276.17 744.34,-269.28"/>
</g>
<!-- Node18 -->
<g id="node18" class="node">
<title>Node18</title>
<g id="a_node18"><a xlink:title=" ">
<polygon fill="white" stroke="#bfbfbf" points="1514,-118 1514,-137 1579,-137 1579,-118 1514,-118"/>
<text text-anchor="middle" x="1546.5" y="-125" font-family="Helvetica,sans-Serif" font-size="10.00">stdexcept</text>
</a>
</g>
</g>
<!-- Node4&#45;&gt;Node18 -->
<g id="edge18" class="edge">
<title>Node4&#45;&gt;Node18</title>
<path fill="none" stroke="midnightblue" d="M1095,-326.44C1231.09,-323.44 1552,-312.62 1584.5,-277 1618.64,-239.59 1581.02,-175.73 1559.46,-145.42"/>
<polygon fill="midnightblue" stroke="midnightblue" points="1562.13,-143.14 1553.39,-137.16 1556.49,-147.29 1562.13,-143.14"/>
</g>
<!-- Node5&#45;&gt;Node3 -->
<g id="edge16" class="edge">
<title>Node5&#45;&gt;Node3</title>
<path fill="none" stroke="midnightblue" d="M636.97,-251.92C625.98,-249.96 614.34,-247.89 603.5,-246 509.79,-229.62 483.77,-236.84 392.5,-210 390.35,-209.37 388.15,-208.64 385.96,-207.85"/>
<polygon fill="midnightblue" stroke="midnightblue" points="387.15,-204.55 376.56,-204.13 384.57,-211.06 387.15,-204.55"/>
</g>
<!-- Node6 -->
<g id="node6" class="node">
<title>Node6</title>
<g id="a_node6"><a xlink:href="panoc-fwd_8hpp.html" target="_top" xlink:title=" ">
<polygon fill="white" stroke="black" points="402,-179.5 402,-209.5 521,-209.5 521,-179.5 402,-179.5"/>
<text text-anchor="start" x="410" y="-197.5" font-family="Helvetica,sans-Serif" font-size="10.00">panoc&#45;alm/inner/decl</text>
<text text-anchor="middle" x="461.5" y="-186.5" font-family="Helvetica,sans-Serif" font-size="10.00">/panoc&#45;fwd.hpp</text>
</a>
</g>
</g>
<!-- Node5&#45;&gt;Node6 -->
<g id="edge5" class="edge">
<title>Node5&#45;&gt;Node6</title>
<path fill="none" stroke="midnightblue" d="M654.89,-251.87C620.48,-241.84 562.9,-225.06 519.49,-212.4"/>
<polygon fill="midnightblue" stroke="midnightblue" points="520.21,-208.97 509.63,-209.53 518.25,-215.69 520.21,-208.97"/>
</g>
<!-- Node8 -->
<g id="node8" class="node">
<title>Node8</title>
<g id="a_node8"><a xlink:href="include_2panoc-alm_2util_2problem_8hpp.html" target="_top" xlink:title=" ">
<polygon fill="white" stroke="black" points="791.5,-185 791.5,-204 943.5,-204 943.5,-185 791.5,-185"/>
<text text-anchor="middle" x="867.5" y="-192" font-family="Helvetica,sans-Serif" font-size="10.00">panoc&#45;alm/util/problem.hpp</text>
</a>
</g>
</g>
<!-- Node5&#45;&gt;Node8 -->
<g id="edge7" class="edge">
<title>Node5&#45;&gt;Node8</title>
<path fill="none" stroke="midnightblue" d="M708.8,-251.87C740.88,-240.47 797.53,-220.35 833.75,-207.49"/>
<polygon fill="midnightblue" stroke="midnightblue" points="835.14,-210.71 843.39,-204.06 832.8,-204.11 835.14,-210.71"/>
</g>
<!-- Node5&#45;&gt;Node15 -->
<g id="edge14" class="edge">
<title>Node5&#45;&gt;Node15</title>
<path fill="none" stroke="midnightblue" d="M684.9,-251.73C685.35,-242.18 686.06,-226.62 686.63,-214.28"/>
<polygon fill="midnightblue" stroke="midnightblue" points="690.14,-214.28 687.1,-204.13 683.14,-213.96 690.14,-214.28"/>
</g>
<!-- Node17 -->
<g id="node17" class="node">
<title>Node17</title>
<g id="a_node17"><a xlink:title=" ">
<polygon fill="white" stroke="#bfbfbf" points="539.5,-185 539.5,-204 583.5,-204 583.5,-185 539.5,-185"/>
<text text-anchor="middle" x="561.5" y="-192" font-family="Helvetica,sans-Serif" font-size="10.00">string</text>
</a>
</g>
</g>
<!-- Node5&#45;&gt;Node17 -->
<g id="edge17" class="edge">
<title>Node5&#45;&gt;Node17</title>
<path fill="none" stroke="midnightblue" d="M668.17,-251.87C647.4,-240.89 611.31,-221.82 586.93,-208.94"/>
<polygon fill="midnightblue" stroke="midnightblue" points="588.38,-205.75 577.9,-204.17 585.11,-211.93 588.38,-205.75"/>
</g>
<!-- Node7 -->
<g id="node7" class="node">
<title>Node7</title>
<g id="a_node7"><a xlink:href="lbfgs-fwd_8hpp.html" target="_top" xlink:title=" ">
<polygon fill="white" stroke="black" points="26,-112.5 26,-142.5 173,-142.5 173,-112.5 26,-112.5"/>
<text text-anchor="start" x="34" y="-130.5" font-family="Helvetica,sans-Serif" font-size="10.00">panoc&#45;alm/inner/directions</text>
<text text-anchor="middle" x="99.5" y="-119.5" font-family="Helvetica,sans-Serif" font-size="10.00">/decl/lbfgs&#45;fwd.hpp</text>
</a>
</g>
</g>
<!-- Node6&#45;&gt;Node7 -->
<g id="edge6" class="edge">
<title>Node6&#45;&gt;Node7</title>
<path fill="none" stroke="midnightblue" d="M401.69,-180.79C398.58,-180.17 395.51,-179.57 392.5,-179 302.57,-161.85 277.46,-159.31 183.22,-143.12"/>
<polygon fill="midnightblue" stroke="midnightblue" points="183.71,-139.65 173.26,-141.4 182.52,-146.55 183.71,-139.65"/>
</g>
<!-- Node9 -->
<g id="node9" class="node">
<title>Node9</title>
<g id="a_node9"><a xlink:href="box_8hpp.html" target="_top" xlink:title=" ">
<polygon fill="white" stroke="black" points="191.5,-118 191.5,-137 247.5,-137 247.5,-118 191.5,-118"/>
<text text-anchor="middle" x="219.5" y="-125" font-family="Helvetica,sans-Serif" font-size="10.00">box.hpp</text>
</a>
</g>
</g>
<!-- Node8&#45;&gt;Node9 -->
<g id="edge8" class="edge">
<title>Node8&#45;&gt;Node9</title>
<path fill="none" stroke="midnightblue" d="M820.73,-184.94C808.03,-182.8 794.26,-180.65 781.5,-179 679.6,-165.85 367.36,-140.34 257.9,-131.56"/>
<polygon fill="midnightblue" stroke="midnightblue" points="257.9,-128.05 247.66,-130.74 257.34,-135.03 257.9,-128.05"/>
</g>
<!-- Node12 -->
<g id="node12" class="node">
<title>Node12</title>
<g id="a_node12"><a xlink:title=" ">
<polygon fill="white" stroke="#bfbfbf" points="745,-118 745,-137 810,-137 810,-118 745,-118"/>
<text text-anchor="middle" x="777.5" y="-125" font-family="Helvetica,sans-Serif" font-size="10.00">functional</text>
</a>
</g>
</g>
<!-- Node8&#45;&gt;Node12 -->
<g id="edge11" class="edge">
<title>Node8&#45;&gt;Node12</title>
<path fill="none" stroke="midnightblue" d="M855.36,-184.73C840.65,-174.11 815.64,-156.05 797.94,-143.26"/>
<polygon fill="midnightblue" stroke="midnightblue" points="799.6,-140.14 789.45,-137.13 795.5,-145.82 799.6,-140.14"/>
</g>
<!-- Node13 -->
<g id="node13" class="node">
<title>Node13</title>
<g id="a_node13"><a xlink:title=" ">
<polygon fill="white" stroke="#bfbfbf" points="828.5,-118 828.5,-137 886.5,-137 886.5,-118 828.5,-118"/>
<text text-anchor="middle" x="857.5" y="-125" font-family="Helvetica,sans-Serif" font-size="10.00">memory</text>
</a>
</g>
</g>
<!-- Node8&#45;&gt;Node13 -->
<g id="edge12" class="edge">
<title>Node8&#45;&gt;Node13</title>
<path fill="none" stroke="midnightblue" d="M866.15,-184.73C864.68,-175.18 862.29,-159.62 860.39,-147.28"/>
<polygon fill="midnightblue" stroke="midnightblue" points="863.81,-146.48 858.83,-137.13 856.89,-147.54 863.81,-146.48"/>
</g>
<!-- Node14 -->
<g id="node14" class="node">
<title>Node14</title>
<g id="a_node14"><a xlink:title=" ">
<polygon fill="white" stroke="#bfbfbf" points="424,-118 424,-137 493,-137 493,-118 424,-118"/>
<text text-anchor="middle" x="458.5" y="-125" font-family="Helvetica,sans-Serif" font-size="10.00">type_traits</text>
</a>
</g>
</g>
<!-- Node8&#45;&gt;Node14 -->
<g id="edge13" class="edge">
<title>Node8&#45;&gt;Node14</title>
<path fill="none" stroke="midnightblue" d="M817.49,-184.96C805.69,-182.98 793.16,-180.89 781.5,-179 682.26,-162.88 565.71,-144.89 503.32,-135.33"/>
<polygon fill="midnightblue" stroke="midnightblue" points="503.83,-131.87 493.41,-133.82 502.77,-138.79 503.83,-131.87"/>
</g>
<!-- Node10 -->
<g id="node10" class="node">
<title>Node10</title>
<g id="a_node10"><a xlink:href="vec_8hpp.html" target="_top" xlink:title=" ">
<polygon fill="white" stroke="black" points="192,-56.5 192,-75.5 247,-75.5 247,-56.5 192,-56.5"/>
<text text-anchor="middle" x="219.5" y="-63.5" font-family="Helvetica,sans-Serif" font-size="10.00">vec.hpp</text>
</a>
</g>
</g>
<!-- Node9&#45;&gt;Node10 -->
<g id="edge9" class="edge">
<title>Node9&#45;&gt;Node10</title>
<path fill="none" stroke="midnightblue" d="M219.5,-117.98C219.5,-109.58 219.5,-96.48 219.5,-85.66"/>
<polygon fill="midnightblue" stroke="midnightblue" points="223,-85.51 219.5,-75.51 216,-85.51 223,-85.51"/>
</g>
<!-- Node11 -->
<g id="node11" class="node">
<title>Node11</title>
<g id="a_node11"><a xlink:title=" ">
<polygon fill="white" stroke="#bfbfbf" points="185,-0.5 185,-19.5 254,-19.5 254,-0.5 185,-0.5"/>
<text text-anchor="middle" x="219.5" y="-7.5" font-family="Helvetica,sans-Serif" font-size="10.00">Eigen/Core</text>
</a>
</g>
</g>
<!-- Node10&#45;&gt;Node11 -->
<g id="edge10" class="edge">
<title>Node10&#45;&gt;Node11</title>
<path fill="none" stroke="midnightblue" d="M219.5,-56.08C219.5,-49.01 219.5,-38.86 219.5,-29.99"/>
<polygon fill="midnightblue" stroke="midnightblue" points="223,-29.75 219.5,-19.75 216,-29.75 223,-29.75"/>
</g>
<!-- Node16 -->
<g id="node16" class="node">
<title>Node16</title>
<g id="a_node16"><a xlink:title=" ">
<polygon fill="white" stroke="#bfbfbf" points="663.5,-118 663.5,-137 711.5,-137 711.5,-118 663.5,-118"/>
<text text-anchor="middle" x="687.5" y="-125" font-family="Helvetica,sans-Serif" font-size="10.00">iosfwd</text>
</a>
</g>
</g>
<!-- Node15&#45;&gt;Node16 -->
<g id="edge15" class="edge">
<title>Node15&#45;&gt;Node16</title>
<path fill="none" stroke="midnightblue" d="M687.5,-184.73C687.5,-175.18 687.5,-159.62 687.5,-147.28"/>
<polygon fill="midnightblue" stroke="midnightblue" points="691,-147.13 687.5,-137.13 684,-147.13 691,-147.13"/>
</g>
<!-- Node21&#45;&gt;Node14 -->
<g id="edge29" class="edge">
<title>Node21&#45;&gt;Node14</title>
<path fill="none" stroke="midnightblue" d="M261.94,-313.11C267.64,-283.85 284.49,-216.97 324.5,-179 349.1,-155.65 385.53,-142.85 414.2,-135.98"/>
<polygon fill="midnightblue" stroke="midnightblue" points="414.99,-139.39 423.99,-133.79 413.46,-132.56 414.99,-139.39"/>
</g>
<!-- Node22 -->
<g id="node22" class="node">
<title>Node22</title>
<g id="a_node22"><a xlink:href="decl_2lbfgs_8hpp.html" target="_top" xlink:title=" ">
<polygon fill="white" stroke="black" points="0,-246.5 0,-276.5 147,-276.5 147,-246.5 0,-246.5"/>
<text text-anchor="start" x="8" y="-264.5" font-family="Helvetica,sans-Serif" font-size="10.00">panoc&#45;alm/inner/directions</text>
<text text-anchor="middle" x="73.5" y="-253.5" font-family="Helvetica,sans-Serif" font-size="10.00">/decl/lbfgs.hpp</text>
</a>
</g>
</g>
<!-- Node21&#45;&gt;Node22 -->
<g id="edge23" class="edge">
<title>Node21&#45;&gt;Node22</title>
<path fill="none" stroke="midnightblue" d="M219.14,-313.4C190.99,-303.56 153.24,-290.37 123.23,-279.88"/>
<polygon fill="midnightblue" stroke="midnightblue" points="124.38,-276.57 113.78,-276.58 122.07,-283.18 124.38,-276.57"/>
</g>
<!-- Node22&#45;&gt;Node7 -->
<g id="edge26" class="edge">
<title>Node22&#45;&gt;Node7</title>
<path fill="none" stroke="midnightblue" d="M66.86,-246.3C60.08,-229.76 51.57,-201.78 59.5,-179 63.14,-168.54 69.95,-158.62 76.93,-150.38"/>
<polygon fill="midnightblue" stroke="midnightblue" points="79.72,-152.51 83.85,-142.75 74.54,-147.81 79.72,-152.51"/>
</g>
<!-- Node22&#45;&gt;Node9 -->
<g id="edge24" class="edge">
<title>Node22&#45;&gt;Node9</title>
<path fill="none" stroke="midnightblue" d="M72.82,-246.37C72.73,-228.59 75.23,-198.07 91.5,-179 93.16,-177.05 150.15,-155.01 187.52,-140.7"/>
<polygon fill="midnightblue" stroke="midnightblue" points="188.92,-143.91 197.01,-137.07 186.42,-137.37 188.92,-143.91"/>
</g>
<!-- Node22&#45;&gt;Node10 -->
<g id="edge25" class="edge">
<title>Node22&#45;&gt;Node10</title>
<path fill="none" stroke="midnightblue" d="M59.59,-246.38C33.51,-218.18 -17.21,-154 16.5,-112 36.84,-86.66 128.93,-74.71 181.83,-69.84"/>
<polygon fill="midnightblue" stroke="midnightblue" points="182.19,-73.33 191.85,-68.96 181.58,-66.35 182.19,-73.33"/>
</g>
<!-- Node23 -->
<g id="node23" class="node">
<title>Node23</title>
<g id="a_node23"><a xlink:href="panoc-direction-update_8hpp.html" target="_top" xlink:title=" ">
<polygon fill="white" stroke="black" points="101,-179.5 101,-209.5 278,-209.5 278,-179.5 101,-179.5"/>
<text text-anchor="start" x="109" y="-197.5" font-family="Helvetica,sans-Serif" font-size="10.00">panoc&#45;alm/inner/directions</text>
<text text-anchor="middle" x="189.5" y="-186.5" font-family="Helvetica,sans-Serif" font-size="10.00">/decl/panoc&#45;direction&#45;update.hpp</text>
</a>
</g>
</g>
<!-- Node22&#45;&gt;Node23 -->
<g id="edge27" class="edge">
<title>Node22&#45;&gt;Node23</title>
<path fill="none" stroke="midnightblue" d="M98.67,-246.4C115.24,-237.11 137.14,-224.84 155.28,-214.67"/>
<polygon fill="midnightblue" stroke="midnightblue" points="157.37,-217.52 164.38,-209.58 153.94,-211.41 157.37,-217.52"/>
</g>
<!-- Node23&#45;&gt;Node9 -->
<g id="edge28" class="edge">
<title>Node23&#45;&gt;Node9</title>
<path fill="none" stroke="midnightblue" d="M196.01,-179.4C200.46,-169.76 206.39,-156.91 211.18,-146.54"/>
<polygon fill="midnightblue" stroke="midnightblue" points="214.47,-147.74 215.49,-137.19 208.12,-144.81 214.47,-147.74"/>
</g>
<!-- Node24&#45;&gt;Node3 -->
<g id="edge31" class="edge">
<title>Node24&#45;&gt;Node3</title>
<path fill="none" stroke="midnightblue" d="M806.82,-322.59C750.45,-316.8 672.22,-304.22 608.5,-277 586.83,-267.74 587.06,-255.5 565.5,-246 493.63,-214.34 467.43,-233.52 392.5,-210 390.36,-209.33 388.17,-208.57 385.99,-207.76"/>
<polygon fill="midnightblue" stroke="midnightblue" points="387.19,-204.47 376.6,-204 384.58,-210.97 387.19,-204.47"/>
</g>
<!-- Node24&#45;&gt;Node18 -->
<g id="edge60" class="edge">
<title>Node24&#45;&gt;Node18</title>
<path fill="none" stroke="midnightblue" d="M928.98,-318.98C940.89,-316.93 953.65,-314.81 965.5,-313 1028.9,-303.29 1489.58,-256.74 1533.5,-210 1549.18,-193.31 1550.35,-165.69 1549.01,-147.3"/>
<polygon fill="midnightblue" stroke="midnightblue" points="1552.48,-146.8 1547.97,-137.22 1545.52,-147.52 1552.48,-146.8"/>
</g>
<!-- Node24&#45;&gt;Node19 -->
<g id="edge58" class="edge">
<title>Node24&#45;&gt;Node19</title>
<path fill="none" stroke="midnightblue" d="M806.79,-324.45C720.72,-319.6 575.6,-307.36 454.5,-277 451.83,-276.33 449.1,-275.52 446.38,-274.62"/>
<polygon fill="midnightblue" stroke="midnightblue" points="447.37,-271.26 436.78,-271.13 444.98,-277.84 447.37,-271.26"/>
</g>
<!-- Node24&#45;&gt;Node20 -->
<g id="edge59" class="edge">
<title>Node24&#45;&gt;Node20</title>
<path fill="none" stroke="midnightblue" d="M806.99,-320.32C736.84,-312.67 629.14,-298.66 537.5,-277 534.03,-276.18 530.44,-275.21 526.88,-274.16"/>
<polygon fill="midnightblue" stroke="midnightblue" points="527.62,-270.73 517.03,-271.09 525.53,-277.41 527.62,-270.73"/>
</g>
<!-- Node24&#45;&gt;Node23 -->
<g id="edge55" class="edge">
<title>Node24&#45;&gt;Node23</title>
<path fill="none" stroke="midnightblue" d="M806.91,-327.77C740.42,-325.25 642.05,-314.58 565.5,-277 547.44,-268.13 550.62,-254.76 532.5,-246 510.77,-235.5 381.61,-218.33 288.17,-206.97"/>
<polygon fill="midnightblue" stroke="midnightblue" points="288.46,-203.48 278.11,-205.76 287.62,-210.43 288.46,-203.48"/>
</g>
<!-- Node25 -->
<g id="node25" class="node">
<title>Node25</title>
<g id="a_node25"><a xlink:href="inner_2decl_2panoc_8hpp.html" target="_top" xlink:title=" ">
<polygon fill="white" stroke="black" points="822,-246.5 822,-276.5 941,-276.5 941,-246.5 822,-246.5"/>
<text text-anchor="start" x="830" y="-264.5" font-family="Helvetica,sans-Serif" font-size="10.00">panoc&#45;alm/inner/decl</text>
<text text-anchor="middle" x="881.5" y="-253.5" font-family="Helvetica,sans-Serif" font-size="10.00">/panoc.hpp</text>
</a>
</g>
</g>
<!-- Node24&#45;&gt;Node25 -->
<g id="edge32" class="edge">
<title>Node24&#45;&gt;Node25</title>
<path fill="none" stroke="midnightblue" d="M881.5,-318.73C881.5,-310.54 881.5,-297.92 881.5,-286.71"/>
<polygon fill="midnightblue" stroke="midnightblue" points="885,-286.59 881.5,-276.59 878,-286.59 885,-286.59"/>
</g>
<!-- Node33 -->
<g id="node33" class="node">
<title>Node33</title>
<g id="a_node33"><a xlink:href="panoc-helpers_8hpp.html" target="_top" xlink:title=" ">
<polygon fill="white" stroke="black" points="1098,-246.5 1098,-276.5 1225,-276.5 1225,-246.5 1098,-246.5"/>
<text text-anchor="start" x="1106" y="-264.5" font-family="Helvetica,sans-Serif" font-size="10.00">panoc&#45;alm/inner/detail</text>
<text text-anchor="middle" x="1161.5" y="-253.5" font-family="Helvetica,sans-Serif" font-size="10.00">/panoc&#45;helpers.hpp</text>
</a>
</g>
</g>
<!-- Node24&#45;&gt;Node33 -->
<g id="edge49" class="edge">
<title>Node24&#45;&gt;Node33</title>
<path fill="none" stroke="midnightblue" d="M918.39,-318.94C962.15,-308.78 1036.06,-291.62 1090.93,-278.88"/>
<polygon fill="midnightblue" stroke="midnightblue" points="1091.99,-282.23 1100.94,-276.56 1090.41,-275.41 1091.99,-282.23"/>
</g>
<!-- Node34 -->
<g id="node34" class="node">
<title>Node34</title>
<g id="a_node34"><a xlink:title=" ">
<polygon fill="white" stroke="#bfbfbf" points="1457.5,-252 1457.5,-271 1509.5,-271 1509.5,-252 1457.5,-252"/>
<text text-anchor="middle" x="1483.5" y="-259" font-family="Helvetica,sans-Serif" font-size="10.00">cassert</text>
</a>
</g>
</g>
<!-- Node24&#45;&gt;Node34 -->
<g id="edge56" class="edge">
<title>Node24&#45;&gt;Node34</title>
<path fill="none" stroke="midnightblue" d="M926.28,-318.95C938.93,-316.76 952.72,-314.58 965.5,-313 1176.94,-286.85 1235.2,-321.72 1443.5,-277 1446.75,-276.3 1450.09,-275.4 1453.4,-274.39"/>
<polygon fill="midnightblue" stroke="midnightblue" points="1454.7,-277.64 1463.05,-271.12 1452.46,-271.01 1454.7,-277.64"/>
</g>
<!-- Node35 -->
<g id="node35" class="node">
<title>Node35</title>
<g id="a_node35"><a xlink:title=" ">
<polygon fill="white" stroke="#bfbfbf" points="1528,-252 1528,-271 1575,-271 1575,-252 1528,-252"/>
<text text-anchor="middle" x="1551.5" y="-259" font-family="Helvetica,sans-Serif" font-size="10.00">cmath</text>
</a>
</g>
</g>
<!-- Node24&#45;&gt;Node35 -->
<g id="edge57" class="edge">
<title>Node24&#45;&gt;Node35</title>
<path fill="none" stroke="midnightblue" d="M925.84,-318.94C938.6,-316.73 952.57,-314.53 965.5,-313 1210.09,-284.01 1279.23,-335.43 1518.5,-277 1520.86,-276.42 1523.26,-275.69 1525.64,-274.86"/>
<polygon fill="midnightblue" stroke="midnightblue" points="1527.14,-278.03 1535.11,-271.05 1524.52,-271.53 1527.14,-278.03"/>
</g>
<!-- Node25&#45;&gt;Node3 -->
<g id="edge46" class="edge">
<title>Node25&#45;&gt;Node3</title>
<path fill="none" stroke="midnightblue" d="M821.83,-253.09C802.3,-250.73 780.48,-248.17 760.5,-246 597.13,-228.22 551.71,-250.71 392.5,-210 390.14,-209.4 387.73,-208.65 385.34,-207.82"/>
<polygon fill="midnightblue" stroke="midnightblue" points="386.38,-204.47 375.79,-204.08 383.82,-210.99 386.38,-204.47"/>
</g>
<!-- Node25&#45;&gt;Node6 -->
<g id="edge34" class="edge">
<title>Node25&#45;&gt;Node6</title>
<path fill="none" stroke="midnightblue" d="M821.69,-253.08C753.8,-244.4 639.53,-228.98 531.4,-210.09"/>
<polygon fill="midnightblue" stroke="midnightblue" points="531.75,-206.6 521.29,-208.31 530.54,-213.49 531.75,-206.6"/>
</g>
<!-- Node25&#45;&gt;Node8 -->
<g id="edge43" class="edge">
<title>Node25&#45;&gt;Node8</title>
<path fill="none" stroke="midnightblue" d="M878.46,-246.4C876.43,-236.96 873.74,-224.45 871.53,-214.19"/>
<polygon fill="midnightblue" stroke="midnightblue" points="874.9,-213.23 869.37,-204.19 868.06,-214.71 874.9,-213.23"/>
</g>
<!-- Node25&#45;&gt;Node15 -->
<g id="edge44" class="edge">
<title>Node25&#45;&gt;Node15</title>
<path fill="none" stroke="midnightblue" d="M839.4,-246.4C804.46,-234.69 755.34,-218.23 722.52,-207.23"/>
<polygon fill="midnightblue" stroke="midnightblue" points="723.48,-203.87 712.89,-204.01 721.26,-210.5 723.48,-203.87"/>
</g>
<!-- Node25&#45;&gt;Node17 -->
<g id="edge48" class="edge">
<title>Node25&#45;&gt;Node17</title>
<path fill="none" stroke="midnightblue" d="M821.75,-251.96C750.04,-241.38 634.22,-223.15 592.5,-210 590.63,-209.41 588.73,-208.73 586.83,-208"/>
<polygon fill="midnightblue" stroke="midnightblue" points="588.15,-204.76 577.59,-204.01 585.38,-211.18 588.15,-204.76"/>
</g>
<!-- Node25&#45;&gt;Node23 -->
<g id="edge38" class="edge">
<title>Node25&#45;&gt;Node23</title>
<path fill="none" stroke="midnightblue" d="M821.85,-252.91C802.32,-250.54 780.5,-248.02 760.5,-246 567.05,-226.43 518.07,-228.38 324.5,-210 312.77,-208.89 300.47,-207.65 288.27,-206.39"/>
<polygon fill="midnightblue" stroke="midnightblue" points="288.37,-202.88 278.06,-205.33 287.65,-209.85 288.37,-202.88"/>
</g>
<!-- Node26 -->
<g id="node26" class="node">
<title>Node26</title>
<g id="a_node26"><a xlink:href="lbfgs-stepsize_8hpp.html" target="_top" xlink:title=" ">
<polygon fill="white" stroke="black" points="1100,-179.5 1100,-209.5 1219,-209.5 1219,-179.5 1100,-179.5"/>
<text text-anchor="start" x="1108" y="-197.5" font-family="Helvetica,sans-Serif" font-size="10.00">panoc&#45;alm/inner/decl</text>
<text text-anchor="middle" x="1159.5" y="-186.5" font-family="Helvetica,sans-Serif" font-size="10.00">/lbfgs&#45;stepsize.hpp</text>
</a>
</g>
</g>
<!-- Node25&#45;&gt;Node26 -->
<g id="edge33" class="edge">
<title>Node25&#45;&gt;Node26</title>
<path fill="none" stroke="midnightblue" d="M941.14,-246.56C984.84,-236.34 1044.27,-222.44 1090.1,-211.73"/>
<polygon fill="midnightblue" stroke="midnightblue" points="1091.02,-215.11 1099.96,-209.42 1089.43,-208.29 1091.02,-215.11"/>
</g>
<!-- Node27 -->
<g id="node27" class="node">
<title>Node27</title>
<g id="a_node27"><a xlink:href="panoc-stop-crit_8hpp.html" target="_top" xlink:title=" ">
<polygon fill="white" stroke="black" points="1380,-179.5 1380,-209.5 1499,-209.5 1499,-179.5 1380,-179.5"/>
<text text-anchor="start" x="1388" y="-197.5" font-family="Helvetica,sans-Serif" font-size="10.00">panoc&#45;alm/inner/decl</text>
<text text-anchor="middle" x="1439.5" y="-186.5" font-family="Helvetica,sans-Serif" font-size="10.00">/panoc&#45;stop&#45;crit.hpp</text>
</a>
</g>
</g>
<!-- Node25&#45;&gt;Node27 -->
<g id="edge35" class="edge">
<title>Node25&#45;&gt;Node27</title>
<path fill="none" stroke="midnightblue" d="M941.22,-256.35C1031.72,-249.62 1209.14,-234.68 1369.67,-210.02"/>
<polygon fill="midnightblue" stroke="midnightblue" points="1370.39,-213.45 1379.73,-208.46 1369.31,-206.53 1370.39,-213.45"/>
</g>
<!-- Node29 -->
<g id="node29" class="node">
<title>Node29</title>
<g id="a_node29"><a xlink:href="atomic__stop__signal_8hpp.html" target="_top" xlink:title=" ">
<polygon fill="white" stroke="black" points="1237.5,-179.5 1237.5,-209.5 1361.5,-209.5 1361.5,-179.5 1237.5,-179.5"/>
<text text-anchor="start" x="1245.5" y="-197.5" font-family="Helvetica,sans-Serif" font-size="10.00">panoc&#45;alm/util/atomic</text>
<text text-anchor="middle" x="1299.5" y="-186.5" font-family="Helvetica,sans-Serif" font-size="10.00">_stop_signal.hpp</text>
</a>
</g>
</g>
<!-- Node25&#45;&gt;Node29 -->
<g id="edge39" class="edge">
<title>Node25&#45;&gt;Node29</title>
<path fill="none" stroke="midnightblue" d="M941.22,-252.86C1008.4,-244.03 1120.98,-228.53 1227.27,-210.16"/>
<polygon fill="midnightblue" stroke="midnightblue" points="1227.95,-213.59 1237.2,-208.43 1226.75,-206.7 1227.95,-213.59"/>
</g>
<!-- Node30 -->
<g id="node30" class="node">
<title>Node30</title>
<g id="a_node30"><a xlink:title=" ">
<polygon fill="white" stroke="#bfbfbf" points="1178.5,-118 1178.5,-137 1228.5,-137 1228.5,-118 1178.5,-118"/>
<text text-anchor="middle" x="1203.5" y="-125" font-family="Helvetica,sans-Serif" font-size="10.00">atomic</text>
</a>
</g>
</g>
<!-- Node25&#45;&gt;Node30 -->
<g id="edge45" class="edge">
<title>Node25&#45;&gt;Node30</title>
<path fill="none" stroke="midnightblue" d="M908.05,-246.3C926.7,-236.27 952.2,-222.45 974.5,-210 998.66,-196.51 1003.02,-189.8 1028.5,-179 1075.27,-159.17 1132.25,-144.34 1168.21,-136.05"/>
<polygon fill="midnightblue" stroke="midnightblue" points="1169.24,-139.4 1178.22,-133.78 1167.69,-132.58 1169.24,-139.4"/>
</g>
<!-- Node31 -->
<g id="node31" class="node">
<title>Node31</title>
<g id="a_node31"><a xlink:href="lipschitz_8hpp.html" target="_top" xlink:title=" ">
<polygon fill="white" stroke="black" points="904.5,-118 904.5,-137 1056.5,-137 1056.5,-118 904.5,-118"/>
<text text-anchor="middle" x="980.5" y="-125" font-family="Helvetica,sans-Serif" font-size="10.00">panoc&#45;alm/util/lipschitz.hpp</text>
</a>
</g>
</g>
<!-- Node25&#45;&gt;Node31 -->
<g id="edge41" class="edge">
<title>Node25&#45;&gt;Node31</title>
<path fill="none" stroke="midnightblue" d="M909.01,-246.47C923.71,-237.74 941.09,-225.27 952.5,-210 966.6,-191.13 973.95,-164.65 977.51,-147.05"/>
<polygon fill="midnightblue" stroke="midnightblue" points="980.97,-147.63 979.31,-137.17 974.08,-146.38 980.97,-147.63"/>
</g>
<!-- Node32 -->
<g id="node32" class="node">
<title>Node32</title>
<g id="a_node32"><a xlink:title=" ">
<polygon fill="white" stroke="#bfbfbf" points="1037.5,-185 1037.5,-204 1081.5,-204 1081.5,-185 1037.5,-185"/>
<text text-anchor="middle" x="1059.5" y="-192" font-family="Helvetica,sans-Serif" font-size="10.00">limits</text>
</a>
</g>
</g>
<!-- Node25&#45;&gt;Node32 -->
<g id="edge47" class="edge">
<title>Node25&#45;&gt;Node32</title>
<path fill="none" stroke="midnightblue" d="M922.37,-246.47C950.83,-236.57 989.61,-222.84 1023.5,-210 1025.34,-209.3 1027.23,-208.57 1029.14,-207.83"/>
<polygon fill="midnightblue" stroke="midnightblue" points="1030.61,-211.01 1038.62,-204.08 1028.03,-204.51 1030.61,-211.01"/>
</g>
<!-- Node27&#45;&gt;Node18 -->
<g id="edge37" class="edge">
<title>Node27&#45;&gt;Node18</title>
<path fill="none" stroke="midnightblue" d="M1462.72,-179.4C1480.83,-168.39 1505.84,-153.2 1523.81,-142.28"/>
<polygon fill="midnightblue" stroke="midnightblue" points="1525.77,-145.19 1532.5,-137.01 1522.13,-139.21 1525.77,-145.19"/>
</g>
<!-- Node28 -->
<g id="node28" class="node">
<title>Node28</title>
<g id="a_node28"><a xlink:title=" ">
<polygon fill="white" stroke="#bfbfbf" points="1411,-118 1411,-137 1468,-137 1468,-118 1411,-118"/>
<text text-anchor="middle" x="1439.5" y="-125" font-family="Helvetica,sans-Serif" font-size="10.00">ostream</text>
</a>
</g>
</g>
<!-- Node27&#45;&gt;Node28 -->
<g id="edge36" class="edge">
<title>Node27&#45;&gt;Node28</title>
<path fill="none" stroke="midnightblue" d="M1439.5,-179.4C1439.5,-170.06 1439.5,-157.71 1439.5,-147.52"/>
<polygon fill="midnightblue" stroke="midnightblue" points="1443,-147.19 1439.5,-137.19 1436,-147.19 1443,-147.19"/>
</g>
<!-- Node29&#45;&gt;Node30 -->
<g id="edge40" class="edge">
<title>Node29&#45;&gt;Node30</title>
<path fill="none" stroke="midnightblue" d="M1278.67,-179.4C1262.72,-168.6 1240.8,-153.76 1224.75,-142.89"/>
<polygon fill="midnightblue" stroke="midnightblue" points="1226.31,-139.72 1216.06,-137.01 1222.38,-145.51 1226.31,-139.72"/>
</g>
<!-- Node31&#45;&gt;Node10 -->
<g id="edge42" class="edge">
<title>Node31&#45;&gt;Node10</title>
<path fill="none" stroke="midnightblue" d="M935.63,-117.96C922.71,-115.74 908.58,-113.55 895.5,-112 653.51,-83.38 360.48,-71.61 257.49,-68.16"/>
<polygon fill="midnightblue" stroke="midnightblue" points="257.39,-64.66 247.28,-67.83 257.16,-71.65 257.39,-64.66"/>
</g>
<!-- Node33&#45;&gt;Node8 -->
<g id="edge52" class="edge">
<title>Node33&#45;&gt;Node8</title>
<path fill="none" stroke="midnightblue" d="M1098.07,-246.48C1043.43,-234.4 965.72,-217.21 915.95,-206.21"/>
<polygon fill="midnightblue" stroke="midnightblue" points="916.6,-202.77 906.08,-204.03 915.08,-209.6 916.6,-202.77"/>
</g>
<!-- Node33&#45;&gt;Node15 -->
<g id="edge53" class="edge">
<title>Node33&#45;&gt;Node15</title>
<path fill="none" stroke="midnightblue" d="M1097.74,-252.38C1022.39,-242.7 893.23,-225.83 782.5,-210 772.71,-208.6 762.37,-207.07 752.25,-205.55"/>
<polygon fill="midnightblue" stroke="midnightblue" points="752.64,-202.07 742.23,-204.04 751.59,-208.99 752.64,-202.07"/>
</g>
<!-- Node33&#45;&gt;Node18 -->
<g id="edge54" class="edge">
<title>Node33&#45;&gt;Node18</title>
<path fill="none" stroke="midnightblue" d="M1225.3,-258.35C1312.97,-254.22 1464.84,-242.47 1508.5,-210 1528.92,-194.81 1538.74,-165.92 1543.18,-146.94"/>
<polygon fill="midnightblue" stroke="midnightblue" points="1546.62,-147.58 1545.22,-137.08 1539.77,-146.17 1546.62,-147.58"/>
</g>
<!-- Node33&#45;&gt;Node27 -->
<g id="edge50" class="edge">
<title>Node33&#45;&gt;Node27</title>
<path fill="none" stroke="midnightblue" d="M1221.48,-246.48C1265.05,-236.29 1324.13,-222.47 1369.8,-211.8"/>
<polygon fill="midnightblue" stroke="midnightblue" points="1370.69,-215.18 1379.63,-209.5 1369.09,-208.37 1370.69,-215.18"/>
</g>
<!-- Node33&#45;&gt;Node29 -->
<g id="edge51" class="edge">
<title>Node33&#45;&gt;Node29</title>
<path fill="none" stroke="midnightblue" d="M1191.44,-246.4C1211.7,-236.86 1238.65,-224.16 1260.56,-213.84"/>
<polygon fill="midnightblue" stroke="midnightblue" points="1262.06,-217 1269.61,-209.58 1259.08,-210.67 1262.06,-217"/>
</g>
</g>
</svg>
