<?xml version="1.0" encoding="UTF-8" standalone="no"?>
<!DOCTYPE svg PUBLIC "-//W3C//DTD SVG 1.1//EN"
 "http://www.w3.org/Graphics/SVG/1.1/DTD/svg11.dtd">
<!-- Generated by graphviz version 2.43.0 (0)
 -->
<!-- Title: main.cpp Pages: 1 -->
<svg width="1441pt" height="341pt"
 viewBox="0.00 0.00 1440.55 341.00" xmlns="http://www.w3.org/2000/svg" xmlns:xlink="http://www.w3.org/1999/xlink">
<g id="graph0" class="graph" transform="scale(1 1) rotate(0) translate(4 337)">
<title>main.cpp</title>
<polygon fill="white" stroke="transparent" points="-4,4 -4,-337 1436.55,-337 1436.55,4 -4,4"/>
<!-- Node1 -->
<g id="node1" class="node">
<title>Node1</title>
<g id="a_node1"><a xlink:title=" ">
<polygon fill="#bfbfbf" stroke="black" points="543.05,-313.5 543.05,-332.5 605.05,-332.5 605.05,-313.5 543.05,-313.5"/>
<text text-anchor="middle" x="574.05" y="-320.5" font-family="Helvetica,sans-Serif" font-size="10.00">main.cpp</text>
</a>
</g>
</g>
<!-- Node2 -->
<g id="node2" class="node">
<title>Node2</title>
<g id="a_node2"><a xlink:href="decl_2alm_8hpp.html" target="_top" xlink:title=" ">
<polygon fill="white" stroke="black" points="507.05,-252 507.05,-271 641.05,-271 641.05,-252 507.05,-252"/>
<text text-anchor="middle" x="574.05" y="-259" font-family="Helvetica,sans-Serif" font-size="10.00">panoc&#45;alm/decl/alm.hpp</text>
</a>
</g>
</g>
<!-- Node1&#45;&gt;Node2 -->
<g id="edge1" class="edge">
<title>Node1&#45;&gt;Node2</title>
<path fill="none" stroke="midnightblue" d="M574.05,-313.48C574.05,-305.08 574.05,-291.98 574.05,-281.16"/>
<polygon fill="midnightblue" stroke="midnightblue" points="577.55,-281.01 574.05,-271.01 570.55,-281.01 577.55,-281.01"/>
</g>
<!-- Node16 -->
<g id="node16" class="node">
<title>Node16</title>
<g id="a_node16"><a xlink:href="inner_2decl_2panoc_8hpp.html" target="_top" xlink:title=" ">
<polygon fill="white" stroke="black" points="702.55,-246.5 702.55,-276.5 821.55,-276.5 821.55,-246.5 702.55,-246.5"/>
<text text-anchor="start" x="710.55" y="-264.5" font-family="Helvetica,sans-Serif" font-size="10.00">panoc&#45;alm/inner/decl</text>
<text text-anchor="middle" x="762.05" y="-253.5" font-family="Helvetica,sans-Serif" font-size="10.00">/panoc.hpp</text>
</a>
</g>
</g>
<!-- Node1&#45;&gt;Node16 -->
<g id="edge15" class="edge">
<title>Node1&#45;&gt;Node16</title>
<path fill="none" stroke="midnightblue" d="M600.99,-313.48C628.83,-304.66 673.05,-290.67 708.12,-279.57"/>
<polygon fill="midnightblue" stroke="midnightblue" points="709.27,-282.88 717.74,-276.52 707.15,-276.2 709.27,-282.88"/>
</g>
<!-- Node26 -->
<g id="node26" class="node">
<title>Node26</title>
<g id="a_node26"><a xlink:href="decl_2lbfgs_8hpp.html" target="_top" xlink:title=" ">
<polygon fill="white" stroke="black" points="41.55,-246.5 41.55,-276.5 188.55,-276.5 188.55,-246.5 41.55,-246.5"/>
<text text-anchor="start" x="49.55" y="-264.5" font-family="Helvetica,sans-Serif" font-size="10.00">panoc&#45;alm/inner/directions</text>
<text text-anchor="middle" x="115.05" y="-253.5" font-family="Helvetica,sans-Serif" font-size="10.00">/decl/lbfgs.hpp</text>
</a>
</g>
</g>
<!-- Node1&#45;&gt;Node26 -->
<g id="edge33" class="edge">
<title>Node1&#45;&gt;Node26</title>
<path fill="none" stroke="midnightblue" d="M542.86,-317.96C473.05,-308.91 302.24,-286.77 198.81,-273.36"/>
<polygon fill="midnightblue" stroke="midnightblue" points="199.07,-269.86 188.7,-272.05 198.17,-276.8 199.07,-269.86"/>
</g>
<!-- Node27 -->
<g id="node27" class="node">
<title>Node27</title>
<g id="a_node27"><a xlink:href="CasADiLoader_8hpp.html" target="_top" xlink:title=" ">
<polygon fill="white" stroke="black" points="349.05,-246.5 349.05,-276.5 489.05,-276.5 489.05,-246.5 349.05,-246.5"/>
<text text-anchor="start" x="357.05" y="-264.5" font-family="Helvetica,sans-Serif" font-size="10.00">panoc&#45;alm/interop/casadi</text>
<text text-anchor="middle" x="419.05" y="-253.5" font-family="Helvetica,sans-Serif" font-size="10.00">/CasADiLoader.hpp</text>
</a>
</g>
</g>
<!-- Node1&#45;&gt;Node27 -->
<g id="edge38" class="edge">
<title>Node1&#45;&gt;Node27</title>
<path fill="none" stroke="midnightblue" d="M551.84,-313.48C529.28,-304.81 493.67,-291.15 465.01,-280.14"/>
<polygon fill="midnightblue" stroke="midnightblue" points="466.17,-276.84 455.58,-276.52 463.66,-283.37 466.17,-276.84"/>
</g>
<!-- Node28 -->
<g id="node28" class="node">
<title>Node28</title>
<g id="a_node28"><a xlink:title=" ">
<polygon fill="white" stroke="#bfbfbf" points="840.05,-252 840.05,-271 900.05,-271 900.05,-252 840.05,-252"/>
<text text-anchor="middle" x="870.05" y="-259" font-family="Helvetica,sans-Serif" font-size="10.00">iostream</text>
</a>
</g>
</g>
<!-- Node1&#45;&gt;Node28 -->
<g id="edge41" class="edge">
<title>Node1&#45;&gt;Node28</title>
<path fill="none" stroke="midnightblue" d="M605.31,-318.4C654.09,-312.36 751.04,-298.68 831.05,-277 833.86,-276.24 836.75,-275.36 839.63,-274.41"/>
<polygon fill="midnightblue" stroke="midnightblue" points="840.96,-277.66 849.23,-271.04 838.64,-271.05 840.96,-277.66"/>
</g>
<!-- Node3 -->
<g id="node3" class="node">
<title>Node3</title>
<g id="a_node3"><a xlink:href="panoc-fwd_8hpp.html" target="_top" xlink:title=" ">
<polygon fill="white" stroke="black" points="492.55,-179.5 492.55,-209.5 611.55,-209.5 611.55,-179.5 492.55,-179.5"/>
<text text-anchor="start" x="500.55" y="-197.5" font-family="Helvetica,sans-Serif" font-size="10.00">panoc&#45;alm/inner/decl</text>
<text text-anchor="middle" x="552.05" y="-186.5" font-family="Helvetica,sans-Serif" font-size="10.00">/panoc&#45;fwd.hpp</text>
</a>
</g>
</g>
<!-- Node2&#45;&gt;Node3 -->
<g id="edge2" class="edge">
<title>Node2&#45;&gt;Node3</title>
<path fill="none" stroke="midnightblue" d="M571.08,-251.73C568.28,-243.46 563.95,-230.66 560.13,-219.37"/>
<polygon fill="midnightblue" stroke="midnightblue" points="563.34,-217.94 556.82,-209.59 556.71,-220.18 563.34,-217.94"/>
</g>
<!-- Node5 -->
<g id="node5" class="node">
<title>Node5</title>
<g id="a_node5"><a xlink:href="include_2panoc-alm_2util_2problem_8hpp.html" target="_top" xlink:title=" ">
<polygon fill="white" stroke="black" points="222.05,-185 222.05,-204 374.05,-204 374.05,-185 222.05,-185"/>
<text text-anchor="middle" x="298.05" y="-192" font-family="Helvetica,sans-Serif" font-size="10.00">panoc&#45;alm/util/problem.hpp</text>
</a>
</g>
</g>
<!-- Node2&#45;&gt;Node5 -->
<g id="edge4" class="edge">
<title>Node2&#45;&gt;Node5</title>
<path fill="none" stroke="midnightblue" d="M537.69,-251.94C487.94,-240.22 398.65,-219.19 344.24,-206.38"/>
<polygon fill="midnightblue" stroke="midnightblue" points="345.03,-202.97 334.5,-204.08 343.43,-209.78 345.03,-202.97"/>
</g>
<!-- Node12 -->
<g id="node12" class="node">
<title>Node12</title>
<g id="a_node12"><a xlink:href="solverstatus_8hpp.html" target="_top" xlink:title=" ">
<polygon fill="white" stroke="black" points="698.55,-185 698.55,-204 869.55,-204 869.55,-185 698.55,-185"/>
<text text-anchor="middle" x="784.05" y="-192" font-family="Helvetica,sans-Serif" font-size="10.00">panoc&#45;alm/util/solverstatus.hpp</text>
</a>
</g>
</g>
<!-- Node2&#45;&gt;Node12 -->
<g id="edge11" class="edge">
<title>Node2&#45;&gt;Node12</title>
<path fill="none" stroke="midnightblue" d="M601.94,-251.87C639.15,-240.35 705.15,-219.92 746.65,-207.08"/>
<polygon fill="midnightblue" stroke="midnightblue" points="747.87,-210.36 756.38,-204.06 745.8,-203.68 747.87,-210.36"/>
</g>
<!-- Node14 -->
<g id="node14" class="node">
<title>Node14</title>
<g id="a_node14"><a xlink:title=" ">
<polygon fill="white" stroke="#bfbfbf" points="630.05,-185 630.05,-204 680.05,-204 680.05,-185 630.05,-185"/>
<text text-anchor="middle" x="655.05" y="-192" font-family="Helvetica,sans-Serif" font-size="10.00">chrono</text>
</a>
</g>
</g>
<!-- Node2&#45;&gt;Node14 -->
<g id="edge13" class="edge">
<title>Node2&#45;&gt;Node14</title>
<path fill="none" stroke="midnightblue" d="M584.98,-251.73C598.09,-241.21 620.31,-223.38 636.21,-210.62"/>
<polygon fill="midnightblue" stroke="midnightblue" points="638.69,-213.12 644.3,-204.13 634.31,-207.66 638.69,-213.12"/>
</g>
<!-- Node15 -->
<g id="node15" class="node">
<title>Node15</title>
<g id="a_node15"><a xlink:title=" ">
<polygon fill="white" stroke="#bfbfbf" points="430.05,-185 430.05,-204 474.05,-204 474.05,-185 430.05,-185"/>
<text text-anchor="middle" x="452.05" y="-192" font-family="Helvetica,sans-Serif" font-size="10.00">string</text>
</a>
</g>
</g>
<!-- Node2&#45;&gt;Node15 -->
<g id="edge14" class="edge">
<title>Node2&#45;&gt;Node15</title>
<path fill="none" stroke="midnightblue" d="M557.85,-251.87C537.25,-240.89 501.46,-221.82 477.27,-208.94"/>
<polygon fill="midnightblue" stroke="midnightblue" points="478.79,-205.78 468.32,-204.17 475.5,-211.96 478.79,-205.78"/>
</g>
<!-- Node4 -->
<g id="node4" class="node">
<title>Node4</title>
<g id="a_node4"><a xlink:href="lbfgs-fwd_8hpp.html" target="_top" xlink:title=" ">
<polygon fill="white" stroke="black" points="452.55,-112.5 452.55,-142.5 599.55,-142.5 599.55,-112.5 452.55,-112.5"/>
<text text-anchor="start" x="460.55" y="-130.5" font-family="Helvetica,sans-Serif" font-size="10.00">panoc&#45;alm/inner/directions</text>
<text text-anchor="middle" x="526.05" y="-119.5" font-family="Helvetica,sans-Serif" font-size="10.00">/decl/lbfgs&#45;fwd.hpp</text>
</a>
</g>
</g>
<!-- Node3&#45;&gt;Node4 -->
<g id="edge3" class="edge">
<title>Node3&#45;&gt;Node4</title>
<path fill="none" stroke="midnightblue" d="M546.41,-179.4C543.21,-171.39 539.12,-161.16 535.44,-151.98"/>
<polygon fill="midnightblue" stroke="midnightblue" points="538.65,-150.56 531.68,-142.58 532.15,-153.16 538.65,-150.56"/>
</g>
<!-- Node6 -->
<g id="node6" class="node">
<title>Node6</title>
<g id="a_node6"><a xlink:href="box_8hpp.html" target="_top" xlink:title=" ">
<polygon fill="white" stroke="black" points="87.05,-118 87.05,-137 143.05,-137 143.05,-118 87.05,-118"/>
<text text-anchor="middle" x="115.05" y="-125" font-family="Helvetica,sans-Serif" font-size="10.00">box.hpp</text>
</a>
</g>
</g>
<!-- Node5&#45;&gt;Node6 -->
<g id="edge5" class="edge">
<title>Node5&#45;&gt;Node6</title>
<path fill="none" stroke="midnightblue" d="M273.75,-184.87C241.67,-173.47 185.02,-153.35 148.8,-140.49"/>
<polygon fill="midnightblue" stroke="midnightblue" points="149.76,-137.11 139.16,-137.06 147.41,-143.71 149.76,-137.11"/>
</g>
<!-- Node9 -->
<g id="node9" class="node">
<title>Node9</title>
<g id="a_node9"><a xlink:title=" ">
<polygon fill="white" stroke="#bfbfbf" points="265.55,-118 265.55,-137 330.55,-137 330.55,-118 265.55,-118"/>
<text text-anchor="middle" x="298.05" y="-125" font-family="Helvetica,sans-Serif" font-size="10.00">functional</text>
</a>
</g>
</g>
<!-- Node5&#45;&gt;Node9 -->
<g id="edge8" class="edge">
<title>Node5&#45;&gt;Node9</title>
<path fill="none" stroke="midnightblue" d="M298.05,-184.73C298.05,-175.18 298.05,-159.62 298.05,-147.28"/>
<polygon fill="midnightblue" stroke="midnightblue" points="301.55,-147.13 298.05,-137.13 294.55,-147.13 301.55,-147.13"/>
</g>
<!-- Node10 -->
<g id="node10" class="node">
<title>Node10</title>
<g id="a_node10"><a xlink:title=" ">
<polygon fill="white" stroke="#bfbfbf" points="349.05,-118 349.05,-137 407.05,-137 407.05,-118 349.05,-118"/>
<text text-anchor="middle" x="378.05" y="-125" font-family="Helvetica,sans-Serif" font-size="10.00">memory</text>
</a>
</g>
</g>
<!-- Node5&#45;&gt;Node10 -->
<g id="edge9" class="edge">
<title>Node5&#45;&gt;Node10</title>
<path fill="none" stroke="midnightblue" d="M308.84,-184.73C321.8,-174.21 343.74,-156.38 359.45,-143.62"/>
<polygon fill="midnightblue" stroke="midnightblue" points="361.88,-146.15 367.43,-137.13 357.46,-140.72 361.88,-146.15"/>
</g>
<!-- Node11 -->
<g id="node11" class="node">
<title>Node11</title>
<g id="a_node11"><a xlink:title=" ">
<polygon fill="white" stroke="#bfbfbf" points="178.55,-118 178.55,-137 247.55,-137 247.55,-118 178.55,-118"/>
<text text-anchor="middle" x="213.05" y="-125" font-family="Helvetica,sans-Serif" font-size="10.00">type_traits</text>
</a>
</g>
</g>
<!-- Node5&#45;&gt;Node11 -->
<g id="edge10" class="edge">
<title>Node5&#45;&gt;Node11</title>
<path fill="none" stroke="midnightblue" d="M286.59,-184.73C272.7,-174.11 249.08,-156.05 232.36,-143.26"/>
<polygon fill="midnightblue" stroke="midnightblue" points="234.4,-140.42 224.33,-137.13 230.15,-145.98 234.4,-140.42"/>
</g>
<!-- Node7 -->
<g id="node7" class="node">
<title>Node7</title>
<g id="a_node7"><a xlink:href="vec_8hpp.html" target="_top" xlink:title=" ">
<polygon fill="white" stroke="black" points="87.55,-56.5 87.55,-75.5 142.55,-75.5 142.55,-56.5 87.55,-56.5"/>
<text text-anchor="middle" x="115.05" y="-63.5" font-family="Helvetica,sans-Serif" font-size="10.00">vec.hpp</text>
</a>
</g>
</g>
<!-- Node6&#45;&gt;Node7 -->
<g id="edge6" class="edge">
<title>Node6&#45;&gt;Node7</title>
<path fill="none" stroke="midnightblue" d="M115.05,-117.98C115.05,-109.58 115.05,-96.48 115.05,-85.66"/>
<polygon fill="midnightblue" stroke="midnightblue" points="118.55,-85.51 115.05,-75.51 111.55,-85.51 118.55,-85.51"/>
</g>
<!-- Node8 -->
<g id="node8" class="node">
<title>Node8</title>
<g id="a_node8"><a xlink:title=" ">
<polygon fill="white" stroke="#bfbfbf" points="80.55,-0.5 80.55,-19.5 149.55,-19.5 149.55,-0.5 80.55,-0.5"/>
<text text-anchor="middle" x="115.05" y="-7.5" font-family="Helvetica,sans-Serif" font-size="10.00">Eigen/Core</text>
</a>
</g>
</g>
<!-- Node7&#45;&gt;Node8 -->
<g id="edge7" class="edge">
<title>Node7&#45;&gt;Node8</title>
<path fill="none" stroke="midnightblue" d="M115.05,-56.08C115.05,-49.01 115.05,-38.86 115.05,-29.99"/>
<polygon fill="midnightblue" stroke="midnightblue" points="118.55,-29.75 115.05,-19.75 111.55,-29.75 118.55,-29.75"/>
</g>
<!-- Node13 -->
<g id="node13" class="node">
<title>Node13</title>
<g id="a_node13"><a xlink:title=" ">
<polygon fill="white" stroke="#bfbfbf" points="756.05,-118 756.05,-137 804.05,-137 804.05,-118 756.05,-118"/>
<text text-anchor="middle" x="780.05" y="-125" font-family="Helvetica,sans-Serif" font-size="10.00">iosfwd</text>
</a>
</g>
</g>
<!-- Node12&#45;&gt;Node13 -->
<g id="edge12" class="edge">
<title>Node12&#45;&gt;Node13</title>
<path fill="none" stroke="midnightblue" d="M783.51,-184.73C782.92,-175.18 781.97,-159.62 781.21,-147.28"/>
<polygon fill="midnightblue" stroke="midnightblue" points="784.69,-146.89 780.58,-137.13 777.7,-147.32 784.69,-146.89"/>
</g>
<!-- Node16&#45;&gt;Node3 -->
<g id="edge17" class="edge">
<title>Node16&#45;&gt;Node3</title>
<path fill="none" stroke="midnightblue" d="M716.74,-246.48C684.7,-236.56 641.55,-223.2 607.45,-212.65"/>
<polygon fill="midnightblue" stroke="midnightblue" points="608.23,-209.22 597.64,-209.61 606.16,-215.91 608.23,-209.22"/>
</g>
<!-- Node16&#45;&gt;Node5 -->
<g id="edge27" class="edge">
<title>Node16&#45;&gt;Node5</title>
<path fill="none" stroke="midnightblue" d="M702.34,-252.14C616.94,-240.17 460.18,-218.21 368.98,-205.44"/>
<polygon fill="midnightblue" stroke="midnightblue" points="369.39,-201.96 359.01,-204.04 368.42,-208.89 369.39,-201.96"/>
</g>
<!-- Node16&#45;&gt;Node12 -->
<g id="edge28" class="edge">
<title>Node16&#45;&gt;Node12</title>
<path fill="none" stroke="midnightblue" d="M766.82,-246.4C770.05,-236.86 774.34,-224.18 777.84,-213.86"/>
<polygon fill="midnightblue" stroke="midnightblue" points="781.22,-214.79 781.11,-204.19 774.59,-212.54 781.22,-214.79"/>
</g>
<!-- Node16&#45;&gt;Node14 -->
<g id="edge30" class="edge">
<title>Node16&#45;&gt;Node14</title>
<path fill="none" stroke="midnightblue" d="M738.83,-246.4C720.72,-235.39 695.71,-220.2 677.74,-209.28"/>
<polygon fill="midnightblue" stroke="midnightblue" points="679.42,-206.21 669.06,-204.01 675.78,-212.19 679.42,-206.21"/>
</g>
<!-- Node16&#45;&gt;Node15 -->
<g id="edge32" class="edge">
<title>Node16&#45;&gt;Node15</title>
<path fill="none" stroke="midnightblue" d="M702.55,-251.58C633.19,-240.85 522.98,-222.71 483.05,-210 481.38,-209.47 479.68,-208.86 477.98,-208.21"/>
<polygon fill="midnightblue" stroke="midnightblue" points="479.04,-204.86 468.47,-204.14 476.28,-211.29 479.04,-204.86"/>
</g>
<!-- Node17 -->
<g id="node17" class="node">
<title>Node17</title>
<g id="a_node17"><a xlink:href="lbfgs-stepsize_8hpp.html" target="_top" xlink:title=" ">
<polygon fill="white" stroke="black" points="1168.55,-179.5 1168.55,-209.5 1287.55,-209.5 1287.55,-179.5 1168.55,-179.5"/>
<text text-anchor="start" x="1176.55" y="-197.5" font-family="Helvetica,sans-Serif" font-size="10.00">panoc&#45;alm/inner/decl</text>
<text text-anchor="middle" x="1228.05" y="-186.5" font-family="Helvetica,sans-Serif" font-size="10.00">/lbfgs&#45;stepsize.hpp</text>
</a>
</g>
</g>
<!-- Node16&#45;&gt;Node17 -->
<g id="edge16" class="edge">
<title>Node16&#45;&gt;Node17</title>
<path fill="none" stroke="midnightblue" d="M821.82,-247.57C824.94,-247.01 828.03,-246.48 831.05,-246 972.62,-223.41 1012.45,-232.67 1158.07,-210.04"/>
<polygon fill="midnightblue" stroke="midnightblue" points="1158.95,-213.45 1168.28,-208.43 1157.86,-206.54 1158.95,-213.45"/>
</g>
<!-- Node18 -->
<g id="node18" class="node">
<title>Node18</title>
<g id="a_node18"><a xlink:href="panoc-stop-crit_8hpp.html" target="_top" xlink:title=" ">
<polygon fill="white" stroke="black" points="1305.55,-179.5 1305.55,-209.5 1424.55,-209.5 1424.55,-179.5 1305.55,-179.5"/>
<text text-anchor="start" x="1313.55" y="-197.5" font-family="Helvetica,sans-Serif" font-size="10.00">panoc&#45;alm/inner/decl</text>
<text text-anchor="middle" x="1365.05" y="-186.5" font-family="Helvetica,sans-Serif" font-size="10.00">/panoc&#45;stop&#45;crit.hpp</text>
</a>
</g>
</g>
<!-- Node16&#45;&gt;Node18 -->
<g id="edge18" class="edge">
<title>Node16&#45;&gt;Node18</title>
<path fill="none" stroke="midnightblue" d="M821.81,-247.45C824.93,-246.92 828.02,-246.43 831.05,-246 1033.47,-217.04 1089.71,-239.02 1295.51,-210.1"/>
<polygon fill="midnightblue" stroke="midnightblue" points="1296.02,-213.56 1305.43,-208.68 1295.03,-206.63 1296.02,-213.56"/>
</g>
<!-- Node21 -->
<g id="node21" class="node">
<title>Node21</title>
<g id="a_node21"><a xlink:href="panoc-direction-update_8hpp.html" target="_top" xlink:title=" ">
<polygon fill="white" stroke="black" points="26.55,-179.5 26.55,-209.5 203.55,-209.5 203.55,-179.5 26.55,-179.5"/>
<text text-anchor="start" x="34.55" y="-197.5" font-family="Helvetica,sans-Serif" font-size="10.00">panoc&#45;alm/inner/directions</text>
<text text-anchor="middle" x="115.05" y="-186.5" font-family="Helvetica,sans-Serif" font-size="10.00">/decl/panoc&#45;direction&#45;update.hpp</text>
</a>
</g>
</g>
<!-- Node16&#45;&gt;Node21 -->
<g id="edge21" class="edge">
<title>Node16&#45;&gt;Node21</title>
<path fill="none" stroke="midnightblue" d="M702.53,-252.27C685.59,-250.07 667.11,-247.81 650.05,-246 459.47,-225.82 408.34,-232.06 213.67,-210.02"/>
<polygon fill="midnightblue" stroke="midnightblue" points="214.02,-206.54 203.69,-208.88 213.23,-213.49 214.02,-206.54"/>
</g>
<!-- Node22 -->
<g id="node22" class="node">
<title>Node22</title>
<g id="a_node22"><a xlink:href="atomic__stop__signal_8hpp.html" target="_top" xlink:title=" ">
<polygon fill="white" stroke="black" points="926.05,-179.5 926.05,-209.5 1050.05,-209.5 1050.05,-179.5 926.05,-179.5"/>
<text text-anchor="start" x="934.05" y="-197.5" font-family="Helvetica,sans-Serif" font-size="10.00">panoc&#45;alm/util/atomic</text>
<text text-anchor="middle" x="988.05" y="-186.5" font-family="Helvetica,sans-Serif" font-size="10.00">_stop_signal.hpp</text>
</a>
</g>
</g>
<!-- Node16&#45;&gt;Node22 -->
<g id="edge23" class="edge">
<title>Node16&#45;&gt;Node22</title>
<path fill="none" stroke="midnightblue" d="M810.81,-246.48C845.59,-236.47 892.54,-222.97 929.37,-212.38"/>
<polygon fill="midnightblue" stroke="midnightblue" points="930.35,-215.74 938.99,-209.61 928.41,-209.01 930.35,-215.74"/>
</g>
<!-- Node23 -->
<g id="node23" class="node">
<title>Node23</title>
<g id="a_node23"><a xlink:title=" ">
<polygon fill="white" stroke="#bfbfbf" points="1023.05,-118 1023.05,-137 1073.05,-137 1073.05,-118 1023.05,-118"/>
<text text-anchor="middle" x="1048.05" y="-125" font-family="Helvetica,sans-Serif" font-size="10.00">atomic</text>
</a>
</g>
</g>
<!-- Node16&#45;&gt;Node23 -->
<g id="edge29" class="edge">
<title>Node16&#45;&gt;Node23</title>
<path fill="none" stroke="midnightblue" d="M821.85,-247.74C824.96,-247.14 828.04,-246.55 831.05,-246 881.5,-236.72 1025.73,-249 1059.05,-210 1074.01,-192.5 1065.76,-164.71 1057.6,-146.54"/>
<polygon fill="midnightblue" stroke="midnightblue" points="1060.64,-144.78 1053.11,-137.33 1054.35,-147.85 1060.64,-144.78"/>
</g>
<!-- Node24 -->
<g id="node24" class="node">
<title>Node24</title>
<g id="a_node24"><a xlink:href="lipschitz_8hpp.html" target="_top" xlink:title=" ">
<polygon fill="white" stroke="black" points="822.05,-118 822.05,-137 974.05,-137 974.05,-118 822.05,-118"/>
<text text-anchor="middle" x="898.05" y="-125" font-family="Helvetica,sans-Serif" font-size="10.00">panoc&#45;alm/util/lipschitz.hpp</text>
</a>
</g>
</g>
<!-- Node16&#45;&gt;Node24 -->
<g id="edge25" class="edge">
<title>Node16&#45;&gt;Node24</title>
<path fill="none" stroke="midnightblue" d="M821.81,-246.68C842.64,-239.07 864.44,-227.48 879.05,-210 893.8,-192.36 897.57,-165.38 898.31,-147.36"/>
<polygon fill="midnightblue" stroke="midnightblue" points="901.81,-147.27 898.44,-137.22 894.81,-147.17 901.81,-147.27"/>
</g>
<!-- Node25 -->
<g id="node25" class="node">
<title>Node25</title>
<g id="a_node25"><a xlink:title=" ">
<polygon fill="white" stroke="#bfbfbf" points="1106.05,-185 1106.05,-204 1150.05,-204 1150.05,-185 1106.05,-185"/>
<text text-anchor="middle" x="1128.05" y="-192" font-family="Helvetica,sans-Serif" font-size="10.00">limits</text>
</a>
</g>
</g>
<!-- Node16&#45;&gt;Node25 -->
<g id="edge31" class="edge">
<title>Node16&#45;&gt;Node25</title>
<path fill="none" stroke="midnightblue" d="M821.84,-247.67C824.95,-247.08 828.04,-246.52 831.05,-246 946.42,-225.95 978.89,-240.1 1092.05,-210 1094.56,-209.33 1097.13,-208.54 1099.68,-207.67"/>
<polygon fill="midnightblue" stroke="midnightblue" points="1101.16,-210.85 1109.29,-204.07 1098.7,-204.3 1101.16,-210.85"/>
</g>
<!-- Node19 -->
<g id="node19" class="node">
<title>Node19</title>
<g id="a_node19"><a xlink:title=" ">
<polygon fill="white" stroke="#bfbfbf" points="1375.55,-118 1375.55,-137 1432.55,-137 1432.55,-118 1375.55,-118"/>
<text text-anchor="middle" x="1404.05" y="-125" font-family="Helvetica,sans-Serif" font-size="10.00">ostream</text>
</a>
</g>
</g>
<!-- Node18&#45;&gt;Node19 -->
<g id="edge19" class="edge">
<title>Node18&#45;&gt;Node19</title>
<path fill="none" stroke="midnightblue" d="M1373.51,-179.4C1379.41,-169.56 1387.32,-156.38 1393.62,-145.89"/>
<polygon fill="midnightblue" stroke="midnightblue" points="1396.69,-147.57 1398.83,-137.19 1390.69,-143.97 1396.69,-147.57"/>
</g>
<!-- Node20 -->
<g id="node20" class="node">
<title>Node20</title>
<g id="a_node20"><a xlink:title=" ">
<polygon fill="white" stroke="#bfbfbf" points="1292.55,-118 1292.55,-137 1357.55,-137 1357.55,-118 1292.55,-118"/>
<text text-anchor="middle" x="1325.05" y="-125" font-family="Helvetica,sans-Serif" font-size="10.00">stdexcept</text>
</a>
</g>
</g>
<!-- Node18&#45;&gt;Node20 -->
<g id="edge20" class="edge">
<title>Node18&#45;&gt;Node20</title>
<path fill="none" stroke="midnightblue" d="M1356.37,-179.4C1350.32,-169.56 1342.21,-156.38 1335.75,-145.89"/>
<polygon fill="midnightblue" stroke="midnightblue" points="1338.62,-143.88 1330.4,-137.19 1332.66,-147.55 1338.62,-143.88"/>
</g>
<!-- Node21&#45;&gt;Node6 -->
<g id="edge22" class="edge">
<title>Node21&#45;&gt;Node6</title>
<path fill="none" stroke="midnightblue" d="M115.05,-179.4C115.05,-170.06 115.05,-157.71 115.05,-147.52"/>
<polygon fill="midnightblue" stroke="midnightblue" points="118.55,-147.19 115.05,-137.19 111.55,-147.19 118.55,-147.19"/>
</g>
<!-- Node22&#45;&gt;Node23 -->
<g id="edge24" class="edge">
<title>Node22&#45;&gt;Node23</title>
<path fill="none" stroke="midnightblue" d="M1001.07,-179.4C1010.52,-169.16 1023.32,-155.3 1033.17,-144.62"/>
<polygon fill="midnightblue" stroke="midnightblue" points="1035.81,-146.92 1040.03,-137.19 1030.67,-142.17 1035.81,-146.92"/>
</g>
<!-- Node24&#45;&gt;Node7 -->
<g id="edge26" class="edge">
<title>Node24&#45;&gt;Node7</title>
<path fill="none" stroke="midnightblue" d="M853.18,-117.94C840.27,-115.73 826.14,-113.53 813.05,-112 562.07,-82.58 257.89,-71.26 152.85,-68.05"/>
<polygon fill="midnightblue" stroke="midnightblue" points="152.85,-64.55 142.75,-67.74 152.64,-71.54 152.85,-64.55"/>
</g>
<!-- Node26&#45;&gt;Node4 -->
<g id="edge36" class="edge">
<title>Node26&#45;&gt;Node4</title>
<path fill="none" stroke="midnightblue" d="M188.56,-256.47C244.16,-251.13 321.23,-238.75 383.05,-210 402.81,-200.81 402.66,-190.69 421.05,-179 440.27,-166.78 462.89,-155.54 482.2,-146.79"/>
<polygon fill="midnightblue" stroke="midnightblue" points="483.68,-149.96 491.39,-142.69 480.83,-143.57 483.68,-149.96"/>
</g>
<!-- Node26&#45;&gt;Node6 -->
<g id="edge34" class="edge">
<title>Node26&#45;&gt;Node6</title>
<path fill="none" stroke="midnightblue" d="M63.91,-246.43C45.88,-238.74 27.51,-227.16 17.05,-210 9.88,-198.24 9.88,-190.76 17.05,-179 30.1,-157.6 55.44,-144.88 77.08,-137.56"/>
<polygon fill="midnightblue" stroke="midnightblue" points="78.2,-140.88 86.71,-134.56 76.12,-134.19 78.2,-140.88"/>
</g>
<!-- Node26&#45;&gt;Node7 -->
<g id="edge35" class="edge">
<title>Node26&#45;&gt;Node7</title>
<path fill="none" stroke="midnightblue" d="M56.53,-246.43C37.78,-238.85 19.05,-227.35 8.05,-210 -23.44,-160.31 50.51,-105.73 90.92,-80.8"/>
<polygon fill="midnightblue" stroke="midnightblue" points="92.91,-83.68 99.68,-75.53 89.31,-77.68 92.91,-83.68"/>
</g>
<!-- Node26&#45;&gt;Node21 -->
<g id="edge37" class="edge">
<title>Node26&#45;&gt;Node21</title>
<path fill="none" stroke="midnightblue" d="M115.05,-246.4C115.05,-238.64 115.05,-228.81 115.05,-219.86"/>
<polygon fill="midnightblue" stroke="midnightblue" points="118.55,-219.58 115.05,-209.58 111.55,-219.58 118.55,-219.58"/>
</g>
<!-- Node27&#45;&gt;Node5 -->
<g id="edge39" class="edge">
<title>Node27&#45;&gt;Node5</title>
<path fill="none" stroke="midnightblue" d="M392.8,-246.4C372.03,-235.24 343.25,-219.78 322.87,-208.83"/>
<polygon fill="midnightblue" stroke="midnightblue" points="324.35,-205.66 313.89,-204.01 321.04,-211.82 324.35,-205.66"/>
</g>
<!-- Node27&#45;&gt;Node15 -->
<g id="edge40" class="edge">
<title>Node27&#45;&gt;Node15</title>
<path fill="none" stroke="midnightblue" d="M426.21,-246.4C431.15,-236.66 437.76,-223.65 443.06,-213.21"/>
<polygon fill="midnightblue" stroke="midnightblue" points="446.23,-214.7 447.64,-204.19 439.99,-211.53 446.23,-214.7"/>
</g>
</g>
</svg>
