<?xml version="1.0" encoding="UTF-8" standalone="no"?>
<!DOCTYPE svg PUBLIC "-//W3C//DTD SVG 1.1//EN"
 "http://www.w3.org/Graphics/SVG/1.1/DTD/svg11.dtd">
<!-- Generated by graphviz version 2.43.0 (0)
 -->
<!-- Title: operator() Pages: 1 -->
<svg width="231pt" height="165pt"
 viewBox="0.00 0.00 231.00 165.00" xmlns="http://www.w3.org/2000/svg" xmlns:xlink="http://www.w3.org/1999/xlink">
<g id="graph0" class="graph" transform="scale(1 1) rotate(0) translate(4 161)">
<title>operator()</title>
<polygon fill="white" stroke="transparent" points="-4,4 -4,-161 227,-161 227,4 -4,4"/>
<!-- Node1 -->
<g id="node1" class="node">
<title>Node1</title>
<g id="a_node1"><a xlink:title=" ">
<polygon fill="#bfbfbf" stroke="black" points="0,-69 0,-88 65,-88 65,-69 0,-69"/>
<text text-anchor="middle" x="32.5" y="-76" font-family="Helvetica,sans-Serif" font-size="10.00">operator()</text>
</a>
</g>
</g>
<!-- Node2 -->
<g id="node2" class="node">
<title>Node2</title>
<g id="a_node2"><a xlink:href="namespacepa_1_1detail.html#a4d5a573a7a528ad69cc7169af968aed6" target="_top" xlink:title=" ">
<polygon fill="white" stroke="black" points="107,-126.5 107,-156.5 217,-156.5 217,-126.5 107,-126.5"/>
<text text-anchor="start" x="115" y="-144.5" font-family="Helvetica,sans-Serif" font-size="10.00">pa::detail::initialize</text>
<text text-anchor="middle" x="162" y="-133.5" font-family="Helvetica,sans-Serif" font-size="10.00">_penalty</text>
</a>
</g>
</g>
<!-- Node1&#45;&gt;Node2 -->
<g id="edge1" class="edge">
<title>Node1&#45;&gt;Node2</title>
<path fill="none" stroke="midnightblue" d="M49.31,-88.1C62.81,-96.13 82.87,-107.66 101,-116.5 105.05,-118.47 109.29,-120.44 113.57,-122.35"/>
<polygon fill="midnightblue" stroke="midnightblue" points="112.36,-125.64 122.93,-126.43 115.16,-119.23 112.36,-125.64"/>
</g>
<!-- Node3 -->
<g id="node3" class="node">
<title>Node3</title>
<g id="a_node3"><a xlink:href="namespacepa_1_1vec__util.html#af8e650634ec3d7b82a78a4d313632ed0" target="_top" xlink:title="Get the maximum or infinity&#45;norm of the given vector.">
<polygon fill="white" stroke="black" points="101,-88 101,-107 223,-107 223,-88 101,-88"/>
<text text-anchor="middle" x="162" y="-95" font-family="Helvetica,sans-Serif" font-size="10.00">pa::vec_util::norm_inf</text>
</a>
</g>
</g>
<!-- Node1&#45;&gt;Node3 -->
<g id="edge2" class="edge">
<title>Node1&#45;&gt;Node3</title>
<path fill="none" stroke="midnightblue" d="M65.02,-83.2C73.03,-84.39 81.97,-85.72 91.08,-87.08"/>
<polygon fill="midnightblue" stroke="midnightblue" points="90.58,-90.54 100.99,-88.56 91.61,-83.62 90.58,-90.54"/>
</g>
<!-- Node4 -->
<g id="node4" class="node">
<title>Node4</title>
<g id="a_node4"><a xlink:href="namespacepa_1_1detail.html#a083f78dc67eda89cd3fa56e0664cddd1" target="_top" xlink:title=" ">
<polygon fill="white" stroke="black" points="105.5,-50 105.5,-69 218.5,-69 218.5,-50 105.5,-50"/>
<text text-anchor="middle" x="162" y="-57" font-family="Helvetica,sans-Serif" font-size="10.00">pa::detail::project_y</text>
</a>
</g>
</g>
<!-- Node1&#45;&gt;Node4 -->
<g id="edge3" class="edge">
<title>Node1&#45;&gt;Node4</title>
<path fill="none" stroke="midnightblue" d="M65.02,-73.8C74.24,-72.43 84.68,-70.87 95.2,-69.31"/>
<polygon fill="midnightblue" stroke="midnightblue" points="95.89,-72.74 105.26,-67.81 94.86,-65.82 95.89,-72.74"/>
</g>
<!-- Node5 -->
<g id="node5" class="node">
<title>Node5</title>
<g id="a_node5"><a xlink:href="namespacepa_1_1detail.html#a57dcf7e868466d577ee26ebff5cc2fa3" target="_top" xlink:title=" ">
<polygon fill="white" stroke="black" points="111,-0.5 111,-30.5 213,-30.5 213,-0.5 111,-0.5"/>
<text text-anchor="start" x="119" y="-18.5" font-family="Helvetica,sans-Serif" font-size="10.00">pa::detail::update</text>
<text text-anchor="middle" x="162" y="-7.5" font-family="Helvetica,sans-Serif" font-size="10.00">_penalty_weights</text>
</a>
</g>
</g>
<!-- Node1&#45;&gt;Node5 -->
<g id="edge4" class="edge">
<title>Node1&#45;&gt;Node5</title>
<path fill="none" stroke="midnightblue" d="M49.31,-68.9C62.81,-60.87 82.87,-49.34 101,-40.5 105.05,-38.53 109.29,-36.56 113.57,-34.65"/>
<polygon fill="midnightblue" stroke="midnightblue" points="115.16,-37.77 122.93,-30.57 112.36,-31.36 115.16,-37.77"/>
</g>
</g>
</svg>
