<?xml version="1.0" encoding="UTF-8" standalone="no"?>
<!DOCTYPE svg PUBLIC "-//W3C//DTD SVG 1.1//EN"
 "http://www.w3.org/Graphics/SVG/1.1/DTD/svg11.dtd">
<!-- Generated by graphviz version 2.43.0 (0)
 -->
<!-- Title: operator() Pages: 1 -->
<svg width="845pt" height="436pt"
 viewBox="0.00 0.00 845.00 435.94" xmlns="http://www.w3.org/2000/svg" xmlns:xlink="http://www.w3.org/1999/xlink">
<g id="graph0" class="graph" transform="scale(1 1) rotate(0) translate(4 431.94)">
<title>operator()</title>
<polygon fill="white" stroke="transparent" points="-4,4 -4,-431.94 841,-431.94 841,4 -4,4"/>
<!-- Node1 -->
<g id="node1" class="node">
<title>Node1</title>
<g id="a_node1"><a xlink:title=" ">
<polygon fill="#bfbfbf" stroke="black" points="0,-197.5 0,-216.5 65,-216.5 65,-197.5 0,-197.5"/>
<text text-anchor="middle" x="32.5" y="-204.5" font-family="Helvetica,sans-Serif" font-size="10.00">operator()</text>
</a>
</g>
</g>
<!-- Node2 -->
<g id="node2" class="node">
<title>Node2</title>
<g id="a_node2"><a xlink:href="namespacepa_1_1detail.html#a22e222a3f2d7f01ceee380154e140ea9" target="_top" xlink:title="Calculate the error between ẑ and g(x).">
<polygon fill="white" stroke="black" points="606,-367.5 606,-386.5 723,-386.5 723,-367.5 606,-367.5"/>
<text text-anchor="middle" x="664.5" y="-374.5" font-family="Helvetica,sans-Serif" font-size="10.00">pa::detail::calc_err_z</text>
</a>
</g>
</g>
<!-- Node1&#45;&gt;Node2 -->
<g id="edge1" class="edge">
<title>Node1&#45;&gt;Node2</title>
<path fill="none" stroke="midnightblue" d="M34.33,-216.81C37.31,-245.06 50.17,-326.74 101,-361 265.7,-472.01 523.57,-416.79 622.75,-389.36"/>
<polygon fill="midnightblue" stroke="midnightblue" points="624,-392.64 632.67,-386.56 622.1,-385.9 624,-392.64"/>
</g>
<!-- Node4 -->
<g id="node4" class="node">
<title>Node4</title>
<g id="a_node4"><a xlink:href="namespacepa_1_1detail.html#a886972efd9fe413c62efea5eb2cdd0e9" target="_top" xlink:title=" ">
<polygon fill="white" stroke="black" points="112,-88 112,-118 228,-118 228,-88 112,-88"/>
<text text-anchor="start" x="120" y="-106" font-family="Helvetica,sans-Serif" font-size="10.00">pa::detail::calc_error</text>
<text text-anchor="middle" x="170" y="-95" font-family="Helvetica,sans-Serif" font-size="10.00">_stop_crit</text>
</a>
</g>
</g>
<!-- Node1&#45;&gt;Node4 -->
<g id="edge3" class="edge">
<title>Node1&#45;&gt;Node4</title>
<path fill="none" stroke="midnightblue" d="M40.35,-197.16C51.52,-181.74 75.02,-151.68 101,-133 106.23,-129.24 112,-125.81 117.9,-122.72"/>
<polygon fill="midnightblue" stroke="midnightblue" points="119.79,-125.69 127.23,-118.15 116.71,-119.41 119.79,-125.69"/>
</g>
<!-- Node7 -->
<g id="node7" class="node">
<title>Node7</title>
<g id="a_node7"><a xlink:href="namespacepa_1_1detail.html#a908a0589ddf8734417f5481395e197d2" target="_top" xlink:title="Calculate ∇ψ(x) using ŷ.">
<polygon fill="white" stroke="black" points="439,-182 439,-212 554,-212 554,-182 439,-182"/>
<text text-anchor="start" x="447" y="-200" font-family="Helvetica,sans-Serif" font-size="10.00">pa::detail::calc_grad</text>
<text text-anchor="middle" x="496.5" y="-189" font-family="Helvetica,sans-Serif" font-size="10.00">_ψ_from_ŷ</text>
</a>
</g>
</g>
<!-- Node1&#45;&gt;Node7 -->
<g id="edge6" class="edge">
<title>Node1&#45;&gt;Node7</title>
<path fill="none" stroke="midnightblue" d="M65.09,-206C76.42,-205.66 89.28,-205.29 101,-205 216.19,-202.13 350.31,-199.57 428.76,-198.16"/>
<polygon fill="midnightblue" stroke="midnightblue" points="429.05,-201.66 438.99,-197.98 428.93,-194.66 429.05,-201.66"/>
</g>
<!-- Node8 -->
<g id="node8" class="node">
<title>Node8</title>
<g id="a_node8"><a xlink:href="namespacepa_1_1detail.html#a65e07c07e714bb62d30f35802076a3b2" target="_top" xlink:title=" ">
<polygon fill="white" stroke="black" points="286.5,-137.5 286.5,-156.5 385.5,-156.5 385.5,-137.5 286.5,-137.5"/>
<text text-anchor="middle" x="336" y="-144.5" font-family="Helvetica,sans-Serif" font-size="10.00">pa::detail::calc_x̂</text>
</a>
</g>
</g>
<!-- Node1&#45;&gt;Node8 -->
<g id="edge7" class="edge">
<title>Node1&#45;&gt;Node8</title>
<path fill="none" stroke="midnightblue" d="M47.54,-197.42C60.72,-188.94 81.31,-177.01 101,-171 158.86,-153.35 228.11,-148.09 276.19,-146.79"/>
<polygon fill="midnightblue" stroke="midnightblue" points="276.5,-150.29 286.42,-146.57 276.35,-143.29 276.5,-150.29"/>
</g>
<!-- Node9 -->
<g id="node9" class="node">
<title>Node9</title>
<g id="a_node9"><a xlink:href="namespacepa_1_1detail.html#aa986daa1d5f0dfdbc75c143d2aae2919" target="_top" xlink:title="Calculate both ψ(x) and its gradient ∇ψ(x).">
<polygon fill="white" stroke="black" points="286,-258 286,-288 386,-288 386,-258 286,-258"/>
<text text-anchor="start" x="294" y="-276" font-family="Helvetica,sans-Serif" font-size="10.00">pa::detail::calc_ψ</text>
<text text-anchor="middle" x="336" y="-265" font-family="Helvetica,sans-Serif" font-size="10.00">_grad_ψ</text>
</a>
</g>
</g>
<!-- Node1&#45;&gt;Node9 -->
<g id="edge9" class="edge">
<title>Node1&#45;&gt;Node9</title>
<path fill="none" stroke="midnightblue" d="M43.5,-216.57C55.88,-227.76 78.15,-245.8 101,-254 157.95,-274.44 227.53,-277.56 275.95,-276.58"/>
<polygon fill="midnightblue" stroke="midnightblue" points="276.04,-280.08 285.94,-276.31 275.85,-273.08 276.04,-280.08"/>
</g>
<!-- Node10 -->
<g id="node10" class="node">
<title>Node10</title>
<g id="a_node10"><a xlink:href="namespacepa_1_1detail.html#a82a03662e6ce5bcfd57ee2df719aec21" target="_top" xlink:title="Calculate both ψ(x) and the vector ŷ that can later be used to compute ∇ψ.">
<polygon fill="white" stroke="black" points="441,-266.5 441,-285.5 552,-285.5 552,-266.5 441,-266.5"/>
<text text-anchor="middle" x="496.5" y="-273.5" font-family="Helvetica,sans-Serif" font-size="10.00">pa::detail::calc_ψ_ŷ</text>
</a>
</g>
</g>
<!-- Node1&#45;&gt;Node10 -->
<g id="edge14" class="edge">
<title>Node1&#45;&gt;Node10</title>
<path fill="none" stroke="midnightblue" d="M34.9,-216.81C39.2,-242.82 54.86,-313.48 101,-342 160.52,-378.79 370.79,-316.76 457.59,-288.69"/>
<polygon fill="midnightblue" stroke="midnightblue" points="458.88,-291.95 467.31,-285.53 456.71,-285.3 458.88,-291.95"/>
</g>
<!-- Node12 -->
<g id="node12" class="node">
<title>Node12</title>
<g id="a_node12"><a xlink:href="namespacepa_1_1detail.html#aa916ebec71616d1d0379aaaaca02fc19" target="_top" xlink:title="Check all stop conditions (required tolerance reached, out of time, maximum number of iterations exce...">
<polygon fill="white" stroke="black" points="113,-39 113,-69 227,-69 227,-39 113,-39"/>
<text text-anchor="start" x="121" y="-57" font-family="Helvetica,sans-Serif" font-size="10.00">pa::detail::check_all</text>
<text text-anchor="middle" x="170" y="-46" font-family="Helvetica,sans-Serif" font-size="10.00">_stop_conditions</text>
</a>
</g>
</g>
<!-- Node1&#45;&gt;Node12 -->
<g id="edge15" class="edge">
<title>Node1&#45;&gt;Node12</title>
<path fill="none" stroke="midnightblue" d="M35.9,-197.37C42.31,-173.63 62.03,-111.77 101,-78 102.49,-76.71 104.05,-75.49 105.68,-74.33"/>
<polygon fill="midnightblue" stroke="midnightblue" points="107.55,-77.29 114.22,-69.06 103.87,-71.33 107.55,-77.29"/>
</g>
<!-- Node14 -->
<g id="node14" class="node">
<title>Node14</title>
<g id="a_node14"><a xlink:href="namespacepa_1_1detail.html#ac7d4fa127500b38a8cec94984c4f598d" target="_top" xlink:title="Increase the estimate of the Lipschitz constant of the objective gradient and decrease the step size ...">
<polygon fill="white" stroke="black" points="116.5,-214 116.5,-244 223.5,-244 223.5,-214 116.5,-214"/>
<text text-anchor="start" x="124.5" y="-232" font-family="Helvetica,sans-Serif" font-size="10.00">pa::detail::descent</text>
<text text-anchor="middle" x="170" y="-221" font-family="Helvetica,sans-Serif" font-size="10.00">_lemma</text>
</a>
</g>
</g>
<!-- Node1&#45;&gt;Node14 -->
<g id="edge17" class="edge">
<title>Node1&#45;&gt;Node14</title>
<path fill="none" stroke="midnightblue" d="M65.27,-212.16C77.54,-214.15 92.04,-216.5 106.24,-218.81"/>
<polygon fill="midnightblue" stroke="midnightblue" points="106.06,-222.33 116.49,-220.47 107.18,-215.42 106.06,-222.33"/>
</g>
<!-- Node15 -->
<g id="node15" class="node">
<title>Node15</title>
<g id="a_node15"><a xlink:href="namespacepa_1_1detail.html#a92963cadf7f44fcf9f3ab6bddff08796" target="_top" xlink:title="Estimate the Lipschitz constant of the gradient &#160;using finite differences.">
<polygon fill="white" stroke="black" points="114.5,-302 114.5,-332 225.5,-332 225.5,-302 114.5,-302"/>
<text text-anchor="start" x="122.5" y="-320" font-family="Helvetica,sans-Serif" font-size="10.00">pa::detail::initial</text>
<text text-anchor="middle" x="170" y="-309" font-family="Helvetica,sans-Serif" font-size="10.00">_lipschitz_estimate</text>
</a>
</g>
</g>
<!-- Node1&#45;&gt;Node15 -->
<g id="edge20" class="edge">
<title>Node1&#45;&gt;Node15</title>
<path fill="none" stroke="midnightblue" d="M39.47,-216.6C50.07,-232.98 73.65,-266.52 101,-287 106.08,-290.81 111.73,-294.26 117.52,-297.35"/>
<polygon fill="midnightblue" stroke="midnightblue" points="116.19,-300.6 126.71,-301.91 119.31,-294.33 116.19,-300.6"/>
</g>
<!-- Node17 -->
<g id="node17" class="node">
<title>Node17</title>
<g id="a_node17"><a xlink:href="namespacepa_1_1detail.html#aea72ee13ae482d948d1b994deb457578" target="_top" xlink:title=" ">
<polygon fill="white" stroke="black" points="101,-0.5 101,-19.5 239,-19.5 239,-0.5 101,-0.5"/>
<text text-anchor="middle" x="170" y="-7.5" font-family="Helvetica,sans-Serif" font-size="10.00">pa::detail::print_progress</text>
</a>
</g>
</g>
<!-- Node1&#45;&gt;Node17 -->
<g id="edge24" class="edge">
<title>Node1&#45;&gt;Node17</title>
<path fill="none" stroke="midnightblue" d="M34.21,-197.22C36.93,-167.32 49.28,-76.27 101,-29 102.73,-27.42 104.58,-25.97 106.52,-24.64"/>
<polygon fill="midnightblue" stroke="midnightblue" points="108.56,-27.51 115.54,-19.54 105.11,-21.42 108.56,-27.51"/>
</g>
<!-- Node3 -->
<g id="node3" class="node">
<title>Node3</title>
<g id="a_node3"><a xlink:href="namespacepa.html#a5414901c2fb62f1fd47857642964cc71" target="_top" xlink:title="Project a vector onto a box.">
<polygon fill="white" stroke="black" points="769,-326.5 769,-345.5 837,-345.5 837,-326.5 769,-326.5"/>
<text text-anchor="middle" x="803" y="-333.5" font-family="Helvetica,sans-Serif" font-size="10.00">pa::project</text>
</a>
</g>
</g>
<!-- Node2&#45;&gt;Node3 -->
<g id="edge2" class="edge">
<title>Node2&#45;&gt;Node3</title>
<path fill="none" stroke="midnightblue" d="M697.16,-367.49C715.97,-361.84 740.06,-354.61 760.4,-348.5"/>
<polygon fill="midnightblue" stroke="midnightblue" points="761.47,-351.83 770.04,-345.6 759.46,-345.12 761.47,-351.83"/>
</g>
<!-- Node5 -->
<g id="node5" class="node">
<title>Node5</title>
<g id="a_node5"><a xlink:href="namespacepa_1_1vec__util.html#af8e650634ec3d7b82a78a4d313632ed0" target="_top" xlink:title="Get the maximum or infinity&#45;norm of the given vector.">
<polygon fill="white" stroke="black" points="275,-61.5 275,-80.5 397,-80.5 397,-61.5 275,-61.5"/>
<text text-anchor="middle" x="336" y="-68.5" font-family="Helvetica,sans-Serif" font-size="10.00">pa::vec_util::norm_inf</text>
</a>
</g>
</g>
<!-- Node4&#45;&gt;Node5 -->
<g id="edge4" class="edge">
<title>Node4&#45;&gt;Node5</title>
<path fill="none" stroke="midnightblue" d="M228.36,-91.81C243.82,-88.79 260.56,-85.52 276.1,-82.49"/>
<polygon fill="midnightblue" stroke="midnightblue" points="276.97,-85.89 286.11,-80.54 275.63,-79.02 276.97,-85.89"/>
</g>
<!-- Node6 -->
<g id="node6" class="node">
<title>Node6</title>
<g id="a_node6"><a xlink:href="namespacepa_1_1detail.html#a8ed4d487878856942843707b5a131b85" target="_top" xlink:title="Projected gradient step.">
<polygon fill="white" stroke="black" points="439.5,-120 439.5,-150 553.5,-150 553.5,-120 439.5,-120"/>
<text text-anchor="start" x="447.5" y="-138" font-family="Helvetica,sans-Serif" font-size="10.00">pa::detail::projected</text>
<text text-anchor="middle" x="496.5" y="-127" font-family="Helvetica,sans-Serif" font-size="10.00">_gradient_step</text>
</a>
</g>
</g>
<!-- Node4&#45;&gt;Node6 -->
<g id="edge5" class="edge">
<title>Node4&#45;&gt;Node6</title>
<path fill="none" stroke="midnightblue" d="M228.27,-108.65C284.51,-114.19 370.25,-122.65 429.37,-128.48"/>
<polygon fill="midnightblue" stroke="midnightblue" points="429.05,-131.96 439.35,-129.46 429.74,-125 429.05,-131.96"/>
</g>
<!-- Node8&#45;&gt;Node6 -->
<g id="edge8" class="edge">
<title>Node8&#45;&gt;Node6</title>
<path fill="none" stroke="midnightblue" d="M385.85,-143.3C399.46,-142.27 414.49,-141.13 428.93,-140.04"/>
<polygon fill="midnightblue" stroke="midnightblue" points="429.62,-143.5 439.32,-139.25 429.09,-136.52 429.62,-143.5"/>
</g>
<!-- Node9&#45;&gt;Node7 -->
<g id="edge10" class="edge">
<title>Node9&#45;&gt;Node7</title>
<path fill="none" stroke="midnightblue" d="M368.31,-257.98C393.09,-246.1 427.88,-229.42 454.81,-216.51"/>
<polygon fill="midnightblue" stroke="midnightblue" points="456.48,-219.59 463.98,-212.11 453.45,-213.28 456.48,-219.59"/>
</g>
<!-- Node9&#45;&gt;Node10 -->
<g id="edge11" class="edge">
<title>Node9&#45;&gt;Node10</title>
<path fill="none" stroke="midnightblue" d="M386.28,-273.93C400.31,-274.2 415.81,-274.49 430.61,-274.77"/>
<polygon fill="midnightblue" stroke="midnightblue" points="430.66,-278.27 440.73,-274.96 430.8,-271.27 430.66,-278.27"/>
</g>
<!-- Node11 -->
<g id="node11" class="node">
<title>Node11</title>
<g id="a_node11"><a xlink:href="namespacepa.html#aee505a26e46aa4c0ce09d0fed72f0dac" target="_top" xlink:title="Get the difference between the given vector and its projection.">
<polygon fill="white" stroke="black" points="596,-307.5 596,-326.5 733,-326.5 733,-307.5 596,-307.5"/>
<text text-anchor="middle" x="664.5" y="-314.5" font-family="Helvetica,sans-Serif" font-size="10.00">pa::projecting_difference</text>
</a>
</g>
</g>
<!-- Node10&#45;&gt;Node11 -->
<g id="edge12" class="edge">
<title>Node10&#45;&gt;Node11</title>
<path fill="none" stroke="midnightblue" d="M536,-285.51C559.59,-291.34 589.99,-298.84 615.19,-305.07"/>
<polygon fill="midnightblue" stroke="midnightblue" points="614.37,-308.47 624.92,-307.47 616.05,-301.68 614.37,-308.47"/>
</g>
<!-- Node11&#45;&gt;Node3 -->
<g id="edge13" class="edge">
<title>Node11&#45;&gt;Node3</title>
<path fill="none" stroke="midnightblue" d="M733.35,-326.44C742.01,-327.65 750.67,-328.86 758.79,-329.99"/>
<polygon fill="midnightblue" stroke="midnightblue" points="758.35,-333.46 768.73,-331.37 759.31,-326.52 758.35,-333.46"/>
</g>
<!-- Node13 -->
<g id="node13" class="node">
<title>Node13</title>
<g id="a_node13"><a xlink:href="classpa_1_1AtomicStopSignal.html#aa0097deccc19b49f8ab5344d8d6d5cf6" target="_top" xlink:title=" ">
<polygon fill="white" stroke="black" points="275.5,-12 275.5,-42 396.5,-42 396.5,-12 275.5,-12"/>
<text text-anchor="start" x="283.5" y="-30" font-family="Helvetica,sans-Serif" font-size="10.00">pa::AtomicStopSignal</text>
<text text-anchor="middle" x="336" y="-19" font-family="Helvetica,sans-Serif" font-size="10.00">::stop_requested</text>
</a>
</g>
</g>
<!-- Node12&#45;&gt;Node13 -->
<g id="edge16" class="edge">
<title>Node12&#45;&gt;Node13</title>
<path fill="none" stroke="midnightblue" d="M227.44,-44.71C239.65,-42.7 252.7,-40.55 265.35,-38.47"/>
<polygon fill="midnightblue" stroke="midnightblue" points="266.08,-41.89 275.38,-36.82 264.95,-34.99 266.08,-41.89"/>
</g>
<!-- Node14&#45;&gt;Node8 -->
<g id="edge18" class="edge">
<title>Node14&#45;&gt;Node8</title>
<path fill="none" stroke="midnightblue" d="M201.08,-213.96C231.16,-198.92 277.06,-175.97 306.55,-161.23"/>
<polygon fill="midnightblue" stroke="midnightblue" points="308.49,-164.17 315.87,-156.56 305.36,-157.91 308.49,-164.17"/>
</g>
<!-- Node14&#45;&gt;Node10 -->
<g id="edge19" class="edge">
<title>Node14&#45;&gt;Node10</title>
<path fill="none" stroke="midnightblue" d="M223.87,-231C269.9,-233.37 338.27,-238.44 397,-249 416.79,-252.56 438.37,-258.26 456.27,-263.51"/>
<polygon fill="midnightblue" stroke="midnightblue" points="455.49,-266.93 466.08,-266.45 457.5,-260.22 455.49,-266.93"/>
</g>
<!-- Node15&#45;&gt;Node9 -->
<g id="edge23" class="edge">
<title>Node15&#45;&gt;Node9</title>
<path fill="none" stroke="midnightblue" d="M225.61,-302.35C241.74,-298.02 259.46,-293.27 275.86,-288.87"/>
<polygon fill="midnightblue" stroke="midnightblue" points="277.12,-292.15 285.87,-286.18 275.31,-285.39 277.12,-292.15"/>
</g>
<!-- Node16 -->
<g id="node16" class="node">
<title>Node16</title>
<g id="a_node16"><a xlink:href="namespacepa_1_1detail.html#a6572cf745448d2b40e9d5e977d17d5e2" target="_top" xlink:title="Calculate the gradient ∇ψ(x).">
<polygon fill="white" stroke="black" points="433,-307.5 433,-326.5 560,-326.5 560,-307.5 433,-307.5"/>
<text text-anchor="middle" x="496.5" y="-314.5" font-family="Helvetica,sans-Serif" font-size="10.00">pa::detail::calc_grad_ψ</text>
</a>
</g>
</g>
<!-- Node15&#45;&gt;Node16 -->
<g id="edge21" class="edge">
<title>Node15&#45;&gt;Node16</title>
<path fill="none" stroke="midnightblue" d="M225.68,-317C279.81,-317 363,-317 422.7,-317"/>
<polygon fill="midnightblue" stroke="midnightblue" points="422.81,-320.5 432.81,-317 422.81,-313.5 422.81,-320.5"/>
</g>
<!-- Node16&#45;&gt;Node11 -->
<g id="edge22" class="edge">
<title>Node16&#45;&gt;Node11</title>
<path fill="none" stroke="midnightblue" d="M560.26,-317C568.64,-317 577.31,-317 585.91,-317"/>
<polygon fill="midnightblue" stroke="midnightblue" points="585.94,-320.5 595.94,-317 585.94,-313.5 585.94,-320.5"/>
</g>
</g>
</svg>
