<?xml version="1.0" encoding="UTF-8" standalone="no"?>
<!DOCTYPE svg PUBLIC "-//W3C//DTD SVG 1.1//EN"
 "http://www.w3.org/Graphics/SVG/1.1/DTD/svg11.dtd">
<!-- Generated by graphviz version 2.43.0 (0)
 -->
<!-- Title: operator() Pages: 1 -->
<svg width="856pt" height="467pt"
 viewBox="0.00 0.00 856.00 466.50" xmlns="http://www.w3.org/2000/svg" xmlns:xlink="http://www.w3.org/1999/xlink">
<g id="graph0" class="graph" transform="scale(1 1) rotate(0) translate(4 462.5)">
<title>operator()</title>
<polygon fill="white" stroke="transparent" points="-4,4 -4,-462.5 852,-462.5 852,4 -4,4"/>
<!-- Node1 -->
<g id="node1" class="node">
<title>Node1</title>
<g id="a_node1"><a xlink:title=" ">
<polygon fill="#bfbfbf" stroke="black" points="0,-219.5 0,-238.5 65,-238.5 65,-219.5 0,-219.5"/>
<text text-anchor="middle" x="32.5" y="-226.5" font-family="Helvetica,sans-Serif" font-size="10.00">operator()</text>
</a>
</g>
</g>
<!-- Node2 -->
<g id="node2" class="node">
<title>Node2</title>
<g id="a_node2"><a xlink:href="namespacepa_1_1detail.html#afa4897c33999179a21da8a5cfde12178" target="_top" xlink:title="Compute the Hessian matrix of the augmented Lagrangian function.">
<polygon fill="white" stroke="black" points="101,-428 101,-458 250,-458 250,-428 101,-428"/>
<text text-anchor="start" x="109" y="-446" font-family="Helvetica,sans-Serif" font-size="10.00">pa::detail::calc_augmented</text>
<text text-anchor="middle" x="175.5" y="-435" font-family="Helvetica,sans-Serif" font-size="10.00">_lagrangian_hessian</text>
</a>
</g>
</g>
<!-- Node1&#45;&gt;Node2 -->
<g id="edge1" class="edge">
<title>Node1&#45;&gt;Node2</title>
<path fill="none" stroke="midnightblue" d="M34.36,-238.84C37.49,-268.97 50.92,-361.08 101,-413 104.56,-416.69 108.63,-419.94 113,-422.8"/>
<polygon fill="midnightblue" stroke="midnightblue" points="111.28,-425.85 121.69,-427.83 114.79,-419.79 111.28,-425.85"/>
</g>
<!-- Node3 -->
<g id="node3" class="node">
<title>Node3</title>
<g id="a_node3"><a xlink:href="namespacepa_1_1detail.html#a22e222a3f2d7f01ceee380154e140ea9" target="_top" xlink:title="Calculate the error between ẑ and g(x).">
<polygon fill="white" stroke="black" points="617,-367.5 617,-386.5 734,-386.5 734,-367.5 617,-367.5"/>
<text text-anchor="middle" x="675.5" y="-374.5" font-family="Helvetica,sans-Serif" font-size="10.00">pa::detail::calc_err_z</text>
</a>
</g>
</g>
<!-- Node1&#45;&gt;Node3 -->
<g id="edge2" class="edge">
<title>Node1&#45;&gt;Node3</title>
<path fill="none" stroke="midnightblue" d="M35.02,-238.53C39.62,-263.81 55.94,-332.56 101,-361 271.81,-468.8 531.87,-415.86 632.6,-389.19"/>
<polygon fill="midnightblue" stroke="midnightblue" points="633.67,-392.53 642.41,-386.54 631.84,-385.77 633.67,-392.53"/>
</g>
<!-- Node5 -->
<g id="node5" class="node">
<title>Node5</title>
<g id="a_node5"><a xlink:href="namespacepa_1_1detail.html#a886972efd9fe413c62efea5eb2cdd0e9" target="_top" xlink:title=" ">
<polygon fill="white" stroke="black" points="117.5,-88 117.5,-118 233.5,-118 233.5,-88 117.5,-88"/>
<text text-anchor="start" x="125.5" y="-106" font-family="Helvetica,sans-Serif" font-size="10.00">pa::detail::calc_error</text>
<text text-anchor="middle" x="175.5" y="-95" font-family="Helvetica,sans-Serif" font-size="10.00">_stop_crit</text>
</a>
</g>
</g>
<!-- Node1&#45;&gt;Node5 -->
<g id="edge4" class="edge">
<title>Node1&#45;&gt;Node5</title>
<path fill="none" stroke="midnightblue" d="M37.88,-219.46C47.03,-200.5 69.93,-157.76 101,-133 105.88,-129.11 111.33,-125.66 117.01,-122.61"/>
<polygon fill="midnightblue" stroke="midnightblue" points="118.63,-125.71 126.05,-118.15 115.53,-119.44 118.63,-125.71"/>
</g>
<!-- Node8 -->
<g id="node8" class="node">
<title>Node8</title>
<g id="a_node8"><a xlink:href="namespacepa_1_1detail.html#a908a0589ddf8734417f5481395e197d2" target="_top" xlink:title="Calculate ∇ψ(x) using ŷ.">
<polygon fill="white" stroke="black" points="450,-191 450,-221 565,-221 565,-191 450,-191"/>
<text text-anchor="start" x="458" y="-209" font-family="Helvetica,sans-Serif" font-size="10.00">pa::detail::calc_grad</text>
<text text-anchor="middle" x="507.5" y="-198" font-family="Helvetica,sans-Serif" font-size="10.00">_ψ_from_ŷ</text>
</a>
</g>
</g>
<!-- Node1&#45;&gt;Node8 -->
<g id="edge7" class="edge">
<title>Node1&#45;&gt;Node8</title>
<path fill="none" stroke="midnightblue" d="M54.58,-219.4C67.65,-213.99 84.94,-207.77 101,-205 218.92,-184.66 359.02,-191.77 439.86,-198.85"/>
<polygon fill="midnightblue" stroke="midnightblue" points="439.63,-202.34 449.9,-199.75 440.26,-195.37 439.63,-202.34"/>
</g>
<!-- Node9 -->
<g id="node9" class="node">
<title>Node9</title>
<g id="a_node9"><a xlink:href="namespacepa_1_1detail.html#a65e07c07e714bb62d30f35802076a3b2" target="_top" xlink:title=" ">
<polygon fill="white" stroke="black" points="297.5,-137.5 297.5,-156.5 396.5,-156.5 396.5,-137.5 297.5,-137.5"/>
<text text-anchor="middle" x="347" y="-144.5" font-family="Helvetica,sans-Serif" font-size="10.00">pa::detail::calc_x̂</text>
</a>
</g>
</g>
<!-- Node1&#45;&gt;Node9 -->
<g id="edge8" class="edge">
<title>Node1&#45;&gt;Node9</title>
<path fill="none" stroke="midnightblue" d="M41.44,-219.14C52.95,-205.62 75.71,-181.8 101,-171 160.75,-145.47 235.94,-141.8 287.15,-143.03"/>
<polygon fill="midnightblue" stroke="midnightblue" points="287.28,-146.53 297.39,-143.35 287.5,-139.54 287.28,-146.53"/>
</g>
<!-- Node10 -->
<g id="node10" class="node">
<title>Node10</title>
<g id="a_node10"><a xlink:href="namespacepa_1_1detail.html#aa986daa1d5f0dfdbc75c143d2aae2919" target="_top" xlink:title="Calculate both ψ(x) and its gradient ∇ψ(x).">
<polygon fill="white" stroke="black" points="297,-258 297,-288 397,-288 397,-258 297,-258"/>
<text text-anchor="start" x="305" y="-276" font-family="Helvetica,sans-Serif" font-size="10.00">pa::detail::calc_ψ</text>
<text text-anchor="middle" x="347" y="-265" font-family="Helvetica,sans-Serif" font-size="10.00">_grad_ψ</text>
</a>
</g>
</g>
<!-- Node1&#45;&gt;Node10 -->
<g id="edge10" class="edge">
<title>Node1&#45;&gt;Node10</title>
<path fill="none" stroke="midnightblue" d="M54.63,-238.55C67.71,-244.03 85.01,-250.49 101,-254 163.38,-267.69 236.57,-271.87 286.61,-272.97"/>
<polygon fill="midnightblue" stroke="midnightblue" points="286.54,-276.47 296.61,-273.16 286.68,-269.47 286.54,-276.47"/>
</g>
<!-- Node11 -->
<g id="node11" class="node">
<title>Node11</title>
<g id="a_node11"><a xlink:href="namespacepa_1_1detail.html#a82a03662e6ce5bcfd57ee2df719aec21" target="_top" xlink:title="Calculate both ψ(x) and the vector ŷ that can later be used to compute ∇ψ.">
<polygon fill="white" stroke="black" points="452,-266.5 452,-285.5 563,-285.5 563,-266.5 452,-266.5"/>
<text text-anchor="middle" x="507.5" y="-273.5" font-family="Helvetica,sans-Serif" font-size="10.00">pa::detail::calc_ψ_ŷ</text>
</a>
</g>
</g>
<!-- Node1&#45;&gt;Node11 -->
<g id="edge15" class="edge">
<title>Node1&#45;&gt;Node11</title>
<path fill="none" stroke="midnightblue" d="M35.79,-238.58C41.85,-261.47 60.65,-319.1 101,-342 163.42,-377.42 378.29,-316.37 467.35,-288.63"/>
<polygon fill="midnightblue" stroke="midnightblue" points="468.58,-291.91 477.07,-285.58 466.48,-285.23 468.58,-291.91"/>
</g>
<!-- Node13 -->
<g id="node13" class="node">
<title>Node13</title>
<g id="a_node13"><a xlink:href="namespacepa_1_1detail.html#aa916ebec71616d1d0379aaaaca02fc19" target="_top" xlink:title="Check all stop conditions (required tolerance reached, out of time, maximum number of iterations exce...">
<polygon fill="white" stroke="black" points="118.5,-39 118.5,-69 232.5,-69 232.5,-39 118.5,-39"/>
<text text-anchor="start" x="126.5" y="-57" font-family="Helvetica,sans-Serif" font-size="10.00">pa::detail::check_all</text>
<text text-anchor="middle" x="175.5" y="-46" font-family="Helvetica,sans-Serif" font-size="10.00">_stop_conditions</text>
</a>
</g>
</g>
<!-- Node1&#45;&gt;Node13 -->
<g id="edge16" class="edge">
<title>Node1&#45;&gt;Node13</title>
<path fill="none" stroke="midnightblue" d="M35.05,-219.28C39.79,-192.67 56.61,-117.96 101,-78 103.62,-75.64 106.48,-73.51 109.5,-71.59"/>
<polygon fill="midnightblue" stroke="midnightblue" points="111.3,-74.59 118.38,-66.71 107.93,-68.46 111.3,-74.59"/>
</g>
<!-- Node15 -->
<g id="node15" class="node">
<title>Node15</title>
<g id="a_node15"><a xlink:href="namespacepa_1_1detail.html#ac7d4fa127500b38a8cec94984c4f598d" target="_top" xlink:title="Increase the estimate of the Lipschitz constant of the objective gradient and decrease the step size ...">
<polygon fill="white" stroke="black" points="122,-214 122,-244 229,-244 229,-214 122,-214"/>
<text text-anchor="start" x="130" y="-232" font-family="Helvetica,sans-Serif" font-size="10.00">pa::detail::descent</text>
<text text-anchor="middle" x="175.5" y="-221" font-family="Helvetica,sans-Serif" font-size="10.00">_lemma</text>
</a>
</g>
</g>
<!-- Node1&#45;&gt;Node15 -->
<g id="edge18" class="edge">
<title>Node1&#45;&gt;Node15</title>
<path fill="none" stroke="midnightblue" d="M65.14,-229C78.86,-229 95.44,-229 111.49,-229"/>
<polygon fill="midnightblue" stroke="midnightblue" points="111.93,-232.5 121.93,-229 111.93,-225.5 111.93,-232.5"/>
</g>
<!-- Node16 -->
<g id="node16" class="node">
<title>Node16</title>
<g id="a_node16"><a xlink:href="namespacepa_1_1detail.html#a92963cadf7f44fcf9f3ab6bddff08796" target="_top" xlink:title="Estimate the Lipschitz constant of the gradient &#160;using finite differences.">
<polygon fill="white" stroke="black" points="120,-302 120,-332 231,-332 231,-302 120,-302"/>
<text text-anchor="start" x="128" y="-320" font-family="Helvetica,sans-Serif" font-size="10.00">pa::detail::initial</text>
<text text-anchor="middle" x="175.5" y="-309" font-family="Helvetica,sans-Serif" font-size="10.00">_lipschitz_estimate</text>
</a>
</g>
</g>
<!-- Node1&#45;&gt;Node16 -->
<g id="edge21" class="edge">
<title>Node1&#45;&gt;Node16</title>
<path fill="none" stroke="midnightblue" d="M42.78,-238.72C55.12,-251.22 78.06,-272.98 101,-287 107.39,-290.9 114.37,-294.5 121.41,-297.75"/>
<polygon fill="midnightblue" stroke="midnightblue" points="120.44,-301.14 131,-301.95 123.25,-294.73 120.44,-301.14"/>
</g>
<!-- Node18 -->
<g id="node18" class="node">
<title>Node18</title>
<g id="a_node18"><a xlink:href="namespacepa_1_1detail.html#aea72ee13ae482d948d1b994deb457578" target="_top" xlink:title=" ">
<polygon fill="white" stroke="black" points="106.5,-0.5 106.5,-19.5 244.5,-19.5 244.5,-0.5 106.5,-0.5"/>
<text text-anchor="middle" x="175.5" y="-7.5" font-family="Helvetica,sans-Serif" font-size="10.00">pa::detail::print_progress</text>
</a>
</g>
</g>
<!-- Node1&#45;&gt;Node18 -->
<g id="edge25" class="edge">
<title>Node1&#45;&gt;Node18</title>
<path fill="none" stroke="midnightblue" d="M33.7,-219.38C34.91,-187.25 43.3,-82.66 101,-29 102.69,-27.43 104.48,-25.99 106.37,-24.66"/>
<polygon fill="midnightblue" stroke="midnightblue" points="108.26,-27.61 115.14,-19.56 104.74,-21.56 108.26,-27.61"/>
</g>
<!-- Node4 -->
<g id="node4" class="node">
<title>Node4</title>
<g id="a_node4"><a xlink:href="namespacepa.html#a5414901c2fb62f1fd47857642964cc71" target="_top" xlink:title="Project a vector onto a box.">
<polygon fill="white" stroke="black" points="780,-326.5 780,-345.5 848,-345.5 848,-326.5 780,-326.5"/>
<text text-anchor="middle" x="814" y="-333.5" font-family="Helvetica,sans-Serif" font-size="10.00">pa::project</text>
</a>
</g>
</g>
<!-- Node3&#45;&gt;Node4 -->
<g id="edge3" class="edge">
<title>Node3&#45;&gt;Node4</title>
<path fill="none" stroke="midnightblue" d="M708.16,-367.49C726.97,-361.84 751.06,-354.61 771.4,-348.5"/>
<polygon fill="midnightblue" stroke="midnightblue" points="772.47,-351.83 781.04,-345.6 770.46,-345.12 772.47,-351.83"/>
</g>
<!-- Node6 -->
<g id="node6" class="node">
<title>Node6</title>
<g id="a_node6"><a xlink:href="namespacepa_1_1vec__util.html#af8e650634ec3d7b82a78a4d313632ed0" target="_top" xlink:title="Get the maximum or infinity&#45;norm of the given vector.">
<polygon fill="white" stroke="black" points="286,-99.5 286,-118.5 408,-118.5 408,-99.5 286,-99.5"/>
<text text-anchor="middle" x="347" y="-106.5" font-family="Helvetica,sans-Serif" font-size="10.00">pa::vec_util::norm_inf</text>
</a>
</g>
</g>
<!-- Node5&#45;&gt;Node6 -->
<g id="edge5" class="edge">
<title>Node5&#45;&gt;Node6</title>
<path fill="none" stroke="midnightblue" d="M233.88,-105.03C247.33,-105.51 261.81,-106.02 275.75,-106.51"/>
<polygon fill="midnightblue" stroke="midnightblue" points="275.66,-110.01 285.78,-106.87 275.91,-103.02 275.66,-110.01"/>
</g>
<!-- Node7 -->
<g id="node7" class="node">
<title>Node7</title>
<g id="a_node7"><a xlink:href="namespacepa_1_1detail.html#a8ed4d487878856942843707b5a131b85" target="_top" xlink:title="Projected gradient step.">
<polygon fill="white" stroke="black" points="450.5,-110 450.5,-140 564.5,-140 564.5,-110 450.5,-110"/>
<text text-anchor="start" x="458.5" y="-128" font-family="Helvetica,sans-Serif" font-size="10.00">pa::detail::projected</text>
<text text-anchor="middle" x="507.5" y="-117" font-family="Helvetica,sans-Serif" font-size="10.00">_gradient_step</text>
</a>
</g>
</g>
<!-- Node5&#45;&gt;Node7 -->
<g id="edge6" class="edge">
<title>Node5&#45;&gt;Node7</title>
<path fill="none" stroke="midnightblue" d="M233.52,-92.68C280.63,-85.85 349.09,-79.84 408,-90 426.69,-93.22 446.53,-99.64 463.47,-106.12"/>
<polygon fill="midnightblue" stroke="midnightblue" points="462.49,-109.5 473.08,-109.91 465.06,-102.98 462.49,-109.5"/>
</g>
<!-- Node9&#45;&gt;Node7 -->
<g id="edge9" class="edge">
<title>Node9&#45;&gt;Node7</title>
<path fill="none" stroke="midnightblue" d="M396.85,-140.22C410.59,-138.31 425.78,-136.2 440.36,-134.18"/>
<polygon fill="midnightblue" stroke="midnightblue" points="440.9,-137.64 450.32,-132.8 439.94,-130.71 440.9,-137.64"/>
</g>
<!-- Node10&#45;&gt;Node8 -->
<g id="edge11" class="edge">
<title>Node10&#45;&gt;Node8</title>
<path fill="none" stroke="midnightblue" d="M383.57,-257.96C406.53,-248.26 436.61,-235.54 461.27,-225.12"/>
<polygon fill="midnightblue" stroke="midnightblue" points="462.93,-228.22 470.77,-221.1 460.2,-221.77 462.93,-228.22"/>
</g>
<!-- Node10&#45;&gt;Node11 -->
<g id="edge12" class="edge">
<title>Node10&#45;&gt;Node11</title>
<path fill="none" stroke="midnightblue" d="M397.28,-273.93C411.31,-274.2 426.81,-274.49 441.61,-274.77"/>
<polygon fill="midnightblue" stroke="midnightblue" points="441.66,-278.27 451.73,-274.96 441.8,-271.27 441.66,-278.27"/>
</g>
<!-- Node12 -->
<g id="node12" class="node">
<title>Node12</title>
<g id="a_node12"><a xlink:href="namespacepa.html#aee505a26e46aa4c0ce09d0fed72f0dac" target="_top" xlink:title="Get the difference between the given vector and its projection.">
<polygon fill="white" stroke="black" points="607,-307.5 607,-326.5 744,-326.5 744,-307.5 607,-307.5"/>
<text text-anchor="middle" x="675.5" y="-314.5" font-family="Helvetica,sans-Serif" font-size="10.00">pa::projecting_difference</text>
</a>
</g>
</g>
<!-- Node11&#45;&gt;Node12 -->
<g id="edge13" class="edge">
<title>Node11&#45;&gt;Node12</title>
<path fill="none" stroke="midnightblue" d="M547,-285.51C570.59,-291.34 600.99,-298.84 626.19,-305.07"/>
<polygon fill="midnightblue" stroke="midnightblue" points="625.37,-308.47 635.92,-307.47 627.05,-301.68 625.37,-308.47"/>
</g>
<!-- Node12&#45;&gt;Node4 -->
<g id="edge14" class="edge">
<title>Node12&#45;&gt;Node4</title>
<path fill="none" stroke="midnightblue" d="M744.35,-326.44C753.01,-327.65 761.67,-328.86 769.79,-329.99"/>
<polygon fill="midnightblue" stroke="midnightblue" points="769.35,-333.46 779.73,-331.37 770.31,-326.52 769.35,-333.46"/>
</g>
<!-- Node14 -->
<g id="node14" class="node">
<title>Node14</title>
<g id="a_node14"><a xlink:href="classpa_1_1AtomicStopSignal.html#aa0097deccc19b49f8ab5344d8d6d5cf6" target="_top" xlink:title=" ">
<polygon fill="white" stroke="black" points="286.5,-12 286.5,-42 407.5,-42 407.5,-12 286.5,-12"/>
<text text-anchor="start" x="294.5" y="-30" font-family="Helvetica,sans-Serif" font-size="10.00">pa::AtomicStopSignal</text>
<text text-anchor="middle" x="347" y="-19" font-family="Helvetica,sans-Serif" font-size="10.00">::stop_requested</text>
</a>
</g>
</g>
<!-- Node13&#45;&gt;Node14 -->
<g id="edge17" class="edge">
<title>Node13&#45;&gt;Node14</title>
<path fill="none" stroke="midnightblue" d="M232.94,-45.01C246.87,-42.79 261.95,-40.39 276.42,-38.08"/>
<polygon fill="midnightblue" stroke="midnightblue" points="276.99,-41.54 286.32,-36.51 275.89,-34.62 276.99,-41.54"/>
</g>
<!-- Node15&#45;&gt;Node9 -->
<g id="edge19" class="edge">
<title>Node15&#45;&gt;Node9</title>
<path fill="none" stroke="midnightblue" d="M207.59,-213.96C238.81,-198.86 286.53,-175.77 316.99,-161.03"/>
<polygon fill="midnightblue" stroke="midnightblue" points="318.75,-164.07 326.23,-156.56 315.7,-157.77 318.75,-164.07"/>
</g>
<!-- Node15&#45;&gt;Node11 -->
<g id="edge20" class="edge">
<title>Node15&#45;&gt;Node11</title>
<path fill="none" stroke="midnightblue" d="M229.26,-230.83C276.42,-233.12 347.24,-238.14 408,-249 427.79,-252.54 449.37,-258.24 467.28,-263.49"/>
<polygon fill="midnightblue" stroke="midnightblue" points="466.5,-266.91 477.08,-266.43 468.5,-260.21 466.5,-266.91"/>
</g>
<!-- Node16&#45;&gt;Node10 -->
<g id="edge24" class="edge">
<title>Node16&#45;&gt;Node10</title>
<path fill="none" stroke="midnightblue" d="M231.06,-302.84C248.95,-298.19 268.89,-293.02 287.08,-288.29"/>
<polygon fill="midnightblue" stroke="midnightblue" points="288.18,-291.62 296.98,-285.72 286.42,-284.85 288.18,-291.62"/>
</g>
<!-- Node17 -->
<g id="node17" class="node">
<title>Node17</title>
<g id="a_node17"><a xlink:href="namespacepa_1_1detail.html#a6572cf745448d2b40e9d5e977d17d5e2" target="_top" xlink:title="Calculate the gradient ∇ψ(x).">
<polygon fill="white" stroke="black" points="444,-307.5 444,-326.5 571,-326.5 571,-307.5 444,-307.5"/>
<text text-anchor="middle" x="507.5" y="-314.5" font-family="Helvetica,sans-Serif" font-size="10.00">pa::detail::calc_grad_ψ</text>
</a>
</g>
</g>
<!-- Node16&#45;&gt;Node17 -->
<g id="edge22" class="edge">
<title>Node16&#45;&gt;Node17</title>
<path fill="none" stroke="midnightblue" d="M231.36,-317C286.72,-317 372.51,-317 433.56,-317"/>
<polygon fill="midnightblue" stroke="midnightblue" points="433.9,-320.5 443.9,-317 433.9,-313.5 433.9,-320.5"/>
</g>
<!-- Node17&#45;&gt;Node12 -->
<g id="edge23" class="edge">
<title>Node17&#45;&gt;Node12</title>
<path fill="none" stroke="midnightblue" d="M571.26,-317C579.64,-317 588.31,-317 596.91,-317"/>
<polygon fill="midnightblue" stroke="midnightblue" points="596.94,-320.5 606.94,-317 596.94,-313.5 596.94,-320.5"/>
</g>
</g>
</svg>
