<?xml version="1.0" encoding="UTF-8" standalone="no"?>
<!DOCTYPE svg PUBLIC "-//W3C//DTD SVG 1.1//EN"
 "http://www.w3.org/Graphics/SVG/1.1/DTD/svg11.dtd">
<!-- Generated by graphviz version 2.43.0 (0)
 -->
<!-- Title: ProblemFullWithParam Pages: 1 -->
<svg width="136pt" height="497pt"
 viewBox="0.00 0.00 136.00 497.00" xmlns="http://www.w3.org/2000/svg" xmlns:xlink="http://www.w3.org/1999/xlink">
<g id="graph0" class="graph" transform="scale(1 1) rotate(0) translate(4 493)">
<title>ProblemFullWithParam</title>
<polygon fill="white" stroke="transparent" points="-4,4 -4,-493 132,-493 132,4 -4,4"/>
<!-- Node1 -->
<g id="node1" class="node">
<title>Node1</title>
<g id="a_node1"><a xlink:title=" ">
<polygon fill="#bfbfbf" stroke="black" points="0,-0.5 0,-101.5 128,-101.5 128,-0.5 0,-0.5"/>
<text text-anchor="middle" x="64" y="-89.5" font-family="Helvetica,sans-Serif" font-size="10.00">ProblemFullWithParam</text>
<polyline fill="none" stroke="black" points="0,-82.5 128,-82.5 "/>
<text text-anchor="start" x="8" y="-70.5" font-family="Helvetica,sans-Serif" font-size="10.00">&#45; param</text>
<polyline fill="none" stroke="black" points="0,-63.5 128,-63.5 "/>
<text text-anchor="start" x="8" y="-51.5" font-family="Helvetica,sans-Serif" font-size="10.00">+ set_param()</text>
<text text-anchor="start" x="8" y="-40.5" font-family="Helvetica,sans-Serif" font-size="10.00">+ set_param()</text>
<text text-anchor="start" x="8" y="-29.5" font-family="Helvetica,sans-Serif" font-size="10.00">+ get_param()</text>
<text text-anchor="start" x="8" y="-18.5" font-family="Helvetica,sans-Serif" font-size="10.00">+ get_param()</text>
<text text-anchor="start" x="8" y="-7.5" font-family="Helvetica,sans-Serif" font-size="10.00">+ get_param_ptr()</text>
</a>
</g>
</g>
<!-- Node2 -->
<g id="node2" class="node">
<title>Node2</title>
<g id="a_node2"><a xlink:href="structpa_1_1ProblemFull.html" target="_top" xlink:title="Problem description for minimization problems.">
<polygon fill="white" stroke="black" points="17,-139.5 17,-350.5 111,-350.5 111,-139.5 17,-139.5"/>
<text text-anchor="middle" x="64" y="-338.5" font-family="Helvetica,sans-Serif" font-size="10.00">ProblemFull</text>
<polyline fill="none" stroke="black" points="17,-331.5 111,-331.5 "/>
<text text-anchor="start" x="25" y="-319.5" font-family="Helvetica,sans-Serif" font-size="10.00">+ n</text>
<text text-anchor="start" x="25" y="-308.5" font-family="Helvetica,sans-Serif" font-size="10.00">+ m1</text>
<text text-anchor="start" x="25" y="-297.5" font-family="Helvetica,sans-Serif" font-size="10.00">+ m2</text>
<text text-anchor="start" x="25" y="-286.5" font-family="Helvetica,sans-Serif" font-size="10.00">+ f</text>
<text text-anchor="start" x="25" y="-275.5" font-family="Helvetica,sans-Serif" font-size="10.00">+ grad_f</text>
<text text-anchor="start" x="25" y="-264.5" font-family="Helvetica,sans-Serif" font-size="10.00">+ g1</text>
<text text-anchor="start" x="25" y="-253.5" font-family="Helvetica,sans-Serif" font-size="10.00">+ grad_g1_prod</text>
<text text-anchor="start" x="25" y="-242.5" font-family="Helvetica,sans-Serif" font-size="10.00">+ grad_g1i</text>
<text text-anchor="start" x="25" y="-231.5" font-family="Helvetica,sans-Serif" font-size="10.00">+ g2</text>
<text text-anchor="start" x="25" y="-220.5" font-family="Helvetica,sans-Serif" font-size="10.00">+ grad_g2_prod</text>
<text text-anchor="start" x="25" y="-209.5" font-family="Helvetica,sans-Serif" font-size="10.00">+ grad_g2i</text>
<text text-anchor="start" x="25" y="-198.5" font-family="Helvetica,sans-Serif" font-size="10.00">+ hess_L_prod</text>
<text text-anchor="start" x="25" y="-187.5" font-family="Helvetica,sans-Serif" font-size="10.00">+ hess_L</text>
<polyline fill="none" stroke="black" points="17,-180.5 111,-180.5 "/>
<text text-anchor="start" x="25" y="-168.5" font-family="Helvetica,sans-Serif" font-size="10.00">+ ProblemFull()</text>
<text text-anchor="start" x="25" y="-157.5" font-family="Helvetica,sans-Serif" font-size="10.00">+ ProblemFull()</text>
<text text-anchor="start" x="25" y="-146.5" font-family="Helvetica,sans-Serif" font-size="10.00">+ ProblemFull()</text>
</a>
</g>
</g>
<!-- Node2&#45;&gt;Node1 -->
<g id="edge1" class="edge">
<title>Node2&#45;&gt;Node1</title>
<path fill="none" stroke="midnightblue" d="M64,-129.01C64,-119.6 64,-110.45 64,-101.93"/>
<polygon fill="none" stroke="midnightblue" points="60.5,-129.29 64,-139.29 67.5,-129.29 60.5,-129.29"/>
</g>
<!-- Node3 -->
<g id="node3" class="node">
<title>Node3</title>
<g id="a_node3"><a xlink:href="namespacepa.html#structpa_1_1Box" target="_top" xlink:title=" ">
<polygon fill="white" stroke="black" points="21,-420.5 21,-488.5 107,-488.5 107,-420.5 21,-420.5"/>
<text text-anchor="middle" x="64" y="-476.5" font-family="Helvetica,sans-Serif" font-size="10.00">Box</text>
<polyline fill="none" stroke="black" points="21,-469.5 107,-469.5 "/>
<text text-anchor="start" x="29" y="-457.5" font-family="Helvetica,sans-Serif" font-size="10.00">+ upperbound</text>
<text text-anchor="start" x="29" y="-446.5" font-family="Helvetica,sans-Serif" font-size="10.00">+ lowerbound</text>
<polyline fill="none" stroke="black" points="21,-439.5 107,-439.5 "/>
<text text-anchor="middle" x="64" y="-427.5" font-family="Helvetica,sans-Serif" font-size="10.00"> </text>
</a>
</g>
</g>
<!-- Node3&#45;&gt;Node2 -->
<g id="edge2" class="edge">
<title>Node3&#45;&gt;Node2</title>
<path fill="none" stroke="#404040" d="M64,-420.16C64,-404.09 64,-383.76 64,-362.7"/>
<polygon fill="none" stroke="#404040" points="64,-362.6 60,-356.6 64,-350.6 68,-356.6 64,-362.6"/>
<text text-anchor="middle" x="75" y="-394" font-family="Helvetica,sans-Serif" font-size="10.00"> +C</text>
<text text-anchor="middle" x="75" y="-383" font-family="Helvetica,sans-Serif" font-size="10.00">+D1</text>
<text text-anchor="middle" x="75" y="-372" font-family="Helvetica,sans-Serif" font-size="10.00">+D2</text>
</g>
</g>
</svg>
