<?xml version="1.0" encoding="UTF-8" standalone="no"?>
<!DOCTYPE svg PUBLIC "-//W3C//DTD SVG 1.1//EN"
 "http://www.w3.org/Graphics/SVG/1.1/DTD/svg11.dtd">
<!-- Generated by graphviz version 2.43.0 (0)
 -->
<!-- Title: ALMSolverFull&lt; InnerSolverT &gt; Pages: 1 -->
<svg width="566pt" height="945pt"
 viewBox="0.00 0.00 566.00 945.00" xmlns="http://www.w3.org/2000/svg" xmlns:xlink="http://www.w3.org/1999/xlink">
<g id="graph0" class="graph" transform="scale(1 1) rotate(0) translate(4 941)">
<title>ALMSolverFull&lt; InnerSolverT &gt;</title>
<polygon fill="white" stroke="transparent" points="-4,4 -4,-941 562,-941 562,4 -4,4"/>
<!-- Node1 -->
<g id="node1" class="node">
<title>Node1</title>
<g id="a_node1"><a xlink:title=" ">
<polygon fill="#bfbfbf" stroke="black" points="73,-0.5 73,-112.5 243,-112.5 243,-0.5 73,-0.5"/>
<text text-anchor="middle" x="158" y="-100.5" font-family="Helvetica,sans-Serif" font-size="10.00">ALMSolverFull&lt; InnerSolverT &gt;</text>
<polyline fill="none" stroke="black" points="73,-93.5 243,-93.5 "/>
<text text-anchor="middle" x="158" y="-81.5" font-family="Helvetica,sans-Serif" font-size="10.00"> </text>
<polyline fill="none" stroke="black" points="73,-74.5 243,-74.5 "/>
<text text-anchor="start" x="81" y="-62.5" font-family="Helvetica,sans-Serif" font-size="10.00">+ ALMSolverFull()</text>
<text text-anchor="start" x="81" y="-51.5" font-family="Helvetica,sans-Serif" font-size="10.00">+ ALMSolverFull()</text>
<text text-anchor="start" x="81" y="-40.5" font-family="Helvetica,sans-Serif" font-size="10.00">+ operator()()</text>
<text text-anchor="start" x="81" y="-29.5" font-family="Helvetica,sans-Serif" font-size="10.00">+ get_name()</text>
<text text-anchor="start" x="81" y="-18.5" font-family="Helvetica,sans-Serif" font-size="10.00">+ stop()</text>
<text text-anchor="start" x="81" y="-7.5" font-family="Helvetica,sans-Serif" font-size="10.00">+ get_params()</text>
</a>
</g>
</g>
<!-- Node2 -->
<g id="node2" class="node">
<title>Node2</title>
<g id="a_node2"><a xlink:href="namespacepa.html#structpa_1_1ALMParams" target="_top" xlink:title="Parameters for the Augmented Lagrangian solver.">
<polygon fill="white" stroke="black" points="0,-302.5 0,-590.5 146,-590.5 146,-302.5 0,-302.5"/>
<text text-anchor="middle" x="73" y="-578.5" font-family="Helvetica,sans-Serif" font-size="10.00">ALMParams</text>
<polyline fill="none" stroke="black" points="0,-571.5 146,-571.5 "/>
<text text-anchor="start" x="8" y="-559.5" font-family="Helvetica,sans-Serif" font-size="10.00">+ ε</text>
<text text-anchor="start" x="8" y="-548.5" font-family="Helvetica,sans-Serif" font-size="10.00">+ δ</text>
<text text-anchor="start" x="8" y="-537.5" font-family="Helvetica,sans-Serif" font-size="10.00">+ Δ</text>
<text text-anchor="start" x="8" y="-526.5" font-family="Helvetica,sans-Serif" font-size="10.00">+ Δ_lower</text>
<text text-anchor="start" x="8" y="-515.5" font-family="Helvetica,sans-Serif" font-size="10.00">+ Σ₀</text>
<text text-anchor="start" x="8" y="-504.5" font-family="Helvetica,sans-Serif" font-size="10.00">+ σ₀</text>
<text text-anchor="start" x="8" y="-493.5" font-family="Helvetica,sans-Serif" font-size="10.00">+ Σ₀_lower</text>
<text text-anchor="start" x="8" y="-482.5" font-family="Helvetica,sans-Serif" font-size="10.00">+ ε₀</text>
<text text-anchor="start" x="8" y="-471.5" font-family="Helvetica,sans-Serif" font-size="10.00">+ ε₀_increase</text>
<text text-anchor="start" x="8" y="-460.5" font-family="Helvetica,sans-Serif" font-size="10.00">+ ρ</text>
<text text-anchor="start" x="8" y="-449.5" font-family="Helvetica,sans-Serif" font-size="10.00">+ ρ_increase</text>
<text text-anchor="start" x="8" y="-438.5" font-family="Helvetica,sans-Serif" font-size="10.00">+ θ</text>
<text text-anchor="start" x="8" y="-427.5" font-family="Helvetica,sans-Serif" font-size="10.00">+ M</text>
<text text-anchor="start" x="8" y="-416.5" font-family="Helvetica,sans-Serif" font-size="10.00">+ Σ_max</text>
<text text-anchor="start" x="8" y="-405.5" font-family="Helvetica,sans-Serif" font-size="10.00">+ Σ_min</text>
<text text-anchor="start" x="8" y="-394.5" font-family="Helvetica,sans-Serif" font-size="10.00">+ max_iter</text>
<text text-anchor="start" x="8" y="-383.5" font-family="Helvetica,sans-Serif" font-size="10.00">+ max_num_initial_retries</text>
<text text-anchor="start" x="8" y="-372.5" font-family="Helvetica,sans-Serif" font-size="10.00">+ max_num_retries</text>
<text text-anchor="start" x="8" y="-361.5" font-family="Helvetica,sans-Serif" font-size="10.00">+ max_total_num_retries</text>
<text text-anchor="start" x="8" y="-350.5" font-family="Helvetica,sans-Serif" font-size="10.00">+ print_interval</text>
<text text-anchor="start" x="8" y="-339.5" font-family="Helvetica,sans-Serif" font-size="10.00">+ preconditioning</text>
<text text-anchor="start" x="8" y="-328.5" font-family="Helvetica,sans-Serif" font-size="10.00">+ single_penalty_factor</text>
<polyline fill="none" stroke="black" points="0,-321.5 146,-321.5 "/>
<text text-anchor="middle" x="73" y="-309.5" font-family="Helvetica,sans-Serif" font-size="10.00"> </text>
</a>
</g>
</g>
<!-- Node2&#45;&gt;Node1 -->
<g id="edge1" class="edge">
<title>Node2&#45;&gt;Node1</title>
<path fill="none" stroke="#404040" d="M104.35,-302.4C117.65,-241.67 132.52,-173.79 143.23,-124.92"/>
<polygon fill="none" stroke="#404040" points="143.29,-124.64 140.67,-117.93 145.86,-112.92 148.48,-119.64 143.29,-124.64"/>
<text text-anchor="middle" x="157" y="-219.5" font-family="Helvetica,sans-Serif" font-size="10.00"> &#45;params</text>
</g>
<!-- Node3 -->
<g id="node3" class="node">
<title>Node3</title>
<g id="a_node3"><a xlink:title=" ">
<polygon fill="white" stroke="#bfbfbf" points="23,-863 23,-920 107,-920 107,-863 23,-863"/>
<text text-anchor="middle" x="65" y="-908" font-family="Helvetica,sans-Serif" font-size="10.00">microseconds</text>
<polyline fill="none" stroke="#bfbfbf" points="23,-901 107,-901 "/>
<text text-anchor="middle" x="65" y="-889" font-family="Helvetica,sans-Serif" font-size="10.00"> </text>
<polyline fill="none" stroke="#bfbfbf" points="23,-882 107,-882 "/>
<text text-anchor="middle" x="65" y="-870" font-family="Helvetica,sans-Serif" font-size="10.00"> </text>
</a>
</g>
</g>
<!-- Node3&#45;&gt;Node2 -->
<g id="edge2" class="edge">
<title>Node3&#45;&gt;Node2</title>
<path fill="none" stroke="#404040" d="M52.96,-862.73C48.95,-852.08 45,-839.68 43,-828 42.18,-823.18 42.8,-821.88 43,-817 45.85,-746.62 51.75,-668.89 57.56,-602.95"/>
<polygon fill="none" stroke="#404040" points="57.58,-602.74 54.13,-596.4 58.65,-590.78 62.1,-597.11 57.58,-602.74"/>
<text text-anchor="middle" x="73.5" y="-820" font-family="Helvetica,sans-Serif" font-size="10.00"> +max_time</text>
</g>
<!-- Node5 -->
<g id="node5" class="node">
<title>Node5</title>
<g id="a_node5"><a xlink:href="namespacepa.html#structpa_1_1PANOCParams" target="_top" xlink:title="Tuning parameters for the PANOC algorithm.">
<polygon fill="white" stroke="black" points="74.5,-609.5 74.5,-798.5 239.5,-798.5 239.5,-609.5 74.5,-609.5"/>
<text text-anchor="middle" x="157" y="-786.5" font-family="Helvetica,sans-Serif" font-size="10.00">PANOCParams</text>
<polyline fill="none" stroke="black" points="74.5,-779.5 239.5,-779.5 "/>
<text text-anchor="start" x="82.5" y="-767.5" font-family="Helvetica,sans-Serif" font-size="10.00">+ max_iter</text>
<text text-anchor="start" x="82.5" y="-756.5" font-family="Helvetica,sans-Serif" font-size="10.00">+ τ_min</text>
<text text-anchor="start" x="82.5" y="-745.5" font-family="Helvetica,sans-Serif" font-size="10.00">+ L_min</text>
<text text-anchor="start" x="82.5" y="-734.5" font-family="Helvetica,sans-Serif" font-size="10.00">+ L_max</text>
<text text-anchor="start" x="82.5" y="-723.5" font-family="Helvetica,sans-Serif" font-size="10.00">+ stop_crit</text>
<text text-anchor="start" x="82.5" y="-712.5" font-family="Helvetica,sans-Serif" font-size="10.00">+ max_no_progress</text>
<text text-anchor="start" x="82.5" y="-701.5" font-family="Helvetica,sans-Serif" font-size="10.00">+ print_interval</text>
<text text-anchor="start" x="82.5" y="-690.5" font-family="Helvetica,sans-Serif" font-size="10.00">+ quadratic_upperbound</text>
<text text-anchor="start" x="82.5" y="-679.5" font-family="Helvetica,sans-Serif" font-size="10.00">_tolerance_factor</text>
<text text-anchor="start" x="82.5" y="-668.5" font-family="Helvetica,sans-Serif" font-size="10.00">+ update_lipschitz_in</text>
<text text-anchor="start" x="82.5" y="-657.5" font-family="Helvetica,sans-Serif" font-size="10.00">_linesearch</text>
<text text-anchor="start" x="82.5" y="-646.5" font-family="Helvetica,sans-Serif" font-size="10.00">+ alternative_linesearch_cond</text>
<text text-anchor="start" x="82.5" y="-635.5" font-family="Helvetica,sans-Serif" font-size="10.00">+ lbfgs_stepsize</text>
<polyline fill="none" stroke="black" points="74.5,-628.5 239.5,-628.5 "/>
<text text-anchor="middle" x="157" y="-616.5" font-family="Helvetica,sans-Serif" font-size="10.00"> </text>
</a>
</g>
</g>
<!-- Node3&#45;&gt;Node5 -->
<g id="edge6" class="edge">
<title>Node3&#45;&gt;Node5</title>
<path fill="none" stroke="#404040" d="M86.09,-862.72C93.55,-852.18 101.67,-839.85 108,-828 111.12,-822.17 114.15,-816.1 117.08,-809.92"/>
<polygon fill="none" stroke="#404040" points="117.23,-809.59 116.1,-802.47 122.24,-798.69 123.37,-805.81 117.23,-809.59"/>
<text text-anchor="middle" x="143.5" y="-820" font-family="Helvetica,sans-Serif" font-size="10.00"> +max_time</text>
</g>
<!-- Node4 -->
<g id="node4" class="node">
<title>Node4</title>
<g id="a_node4"><a xlink:href="classpa_1_1PANOCSolverFull.html" target="_top" xlink:title=" ">
<polygon fill="white" stroke="black" points="242.5,-160.5 242.5,-283.5 385.5,-283.5 385.5,-160.5 242.5,-160.5"/>
<text text-anchor="middle" x="314" y="-271.5" font-family="Helvetica,sans-Serif" font-size="10.00">PANOCSolverFull&lt;&gt;</text>
<polyline fill="none" stroke="black" points="242.5,-264.5 385.5,-264.5 "/>
<text text-anchor="start" x="250.5" y="-252.5" font-family="Helvetica,sans-Serif" font-size="10.00">&#45; progress_cb</text>
<polyline fill="none" stroke="black" points="242.5,-245.5 385.5,-245.5 "/>
<text text-anchor="start" x="250.5" y="-233.5" font-family="Helvetica,sans-Serif" font-size="10.00">+ PANOCSolverFull()</text>
<text text-anchor="start" x="250.5" y="-222.5" font-family="Helvetica,sans-Serif" font-size="10.00">+ PANOCSolverFull()</text>
<text text-anchor="start" x="250.5" y="-211.5" font-family="Helvetica,sans-Serif" font-size="10.00">+ operator()()</text>
<text text-anchor="start" x="250.5" y="-200.5" font-family="Helvetica,sans-Serif" font-size="10.00">+ set_progress_callback()</text>
<text text-anchor="start" x="250.5" y="-189.5" font-family="Helvetica,sans-Serif" font-size="10.00">+ get_name()</text>
<text text-anchor="start" x="250.5" y="-178.5" font-family="Helvetica,sans-Serif" font-size="10.00">+ stop()</text>
<text text-anchor="start" x="250.5" y="-167.5" font-family="Helvetica,sans-Serif" font-size="10.00">+ get_params()</text>
</a>
</g>
</g>
<!-- Node4&#45;&gt;Node1 -->
<g id="edge3" class="edge">
<title>Node4&#45;&gt;Node1</title>
<path fill="none" stroke="#404040" d="M255.91,-160.12C243.88,-147.5 231.16,-134.18 219.02,-121.46"/>
<polygon fill="none" stroke="#404040" points="219.01,-121.45 211.98,-119.87 210.73,-112.76 217.77,-114.34 219.01,-121.45"/>
<text text-anchor="middle" x="272" y="-134" font-family="Helvetica,sans-Serif" font-size="10.00"> +inner_solver</text>
</g>
<!-- Node5&#45;&gt;Node4 -->
<g id="edge4" class="edge">
<title>Node5&#45;&gt;Node4</title>
<path fill="none" stroke="#404040" d="M176.31,-609.25C194.95,-526.57 226.58,-403.74 269,-302 269.97,-299.67 271,-297.32 272.07,-294.96"/>
<polygon fill="none" stroke="#404040" points="272.17,-294.75 271.16,-287.61 277.36,-283.93 278.37,-291.07 272.17,-294.75"/>
<text text-anchor="middle" x="291" y="-444" font-family="Helvetica,sans-Serif" font-size="10.00"> &#45;params</text>
</g>
<!-- Node6 -->
<g id="node6" class="node">
<title>Node6</title>
<g id="a_node6"><a xlink:href="namespacepa.html#structpa_1_1LipschitzEstimateParams" target="_top" xlink:title=" ">
<polygon fill="white" stroke="black" points="144.5,-846.5 144.5,-936.5 283.5,-936.5 283.5,-846.5 144.5,-846.5"/>
<text text-anchor="middle" x="214" y="-924.5" font-family="Helvetica,sans-Serif" font-size="10.00">LipschitzEstimateParams</text>
<polyline fill="none" stroke="black" points="144.5,-917.5 283.5,-917.5 "/>
<text text-anchor="start" x="152.5" y="-905.5" font-family="Helvetica,sans-Serif" font-size="10.00">+ L₀</text>
<text text-anchor="start" x="152.5" y="-894.5" font-family="Helvetica,sans-Serif" font-size="10.00">+ ε</text>
<text text-anchor="start" x="152.5" y="-883.5" font-family="Helvetica,sans-Serif" font-size="10.00">+ δ</text>
<text text-anchor="start" x="152.5" y="-872.5" font-family="Helvetica,sans-Serif" font-size="10.00">+ Lγ_factor</text>
<polyline fill="none" stroke="black" points="144.5,-865.5 283.5,-865.5 "/>
<text text-anchor="middle" x="214" y="-853.5" font-family="Helvetica,sans-Serif" font-size="10.00"> </text>
</a>
</g>
</g>
<!-- Node6&#45;&gt;Node5 -->
<g id="edge5" class="edge">
<title>Node6&#45;&gt;Node5</title>
<path fill="none" stroke="#404040" d="M200.82,-846.17C197.94,-836.54 194.88,-826.43 192,-817 191.32,-814.77 190.63,-812.52 189.93,-810.25"/>
<polygon fill="none" stroke="#404040" points="189.93,-810.25 184.34,-805.69 186.4,-798.78 191.99,-803.34 189.93,-810.25"/>
<text text-anchor="middle" x="222.5" y="-820" font-family="Helvetica,sans-Serif" font-size="10.00"> +Lipschitz</text>
</g>
<!-- Node7 -->
<g id="node7" class="node">
<title>Node7</title>
<g id="a_node7"><a xlink:href="structpa_1_1PANOCDirection.html" target="_top" xlink:title=" ">
<polygon fill="white" stroke="black" points="258,-653.5 258,-754.5 408,-754.5 408,-653.5 258,-653.5"/>
<text text-anchor="start" x="266" y="-742.5" font-family="Helvetica,sans-Serif" font-size="10.00">PANOCDirection&lt; Direction</text>
<text text-anchor="middle" x="333" y="-731.5" font-family="Helvetica,sans-Serif" font-size="10.00">Provider &gt;</text>
<polyline fill="none" stroke="black" points="258,-724.5 408,-724.5 "/>
<text text-anchor="middle" x="333" y="-712.5" font-family="Helvetica,sans-Serif" font-size="10.00"> </text>
<polyline fill="none" stroke="black" points="258,-705.5 408,-705.5 "/>
<text text-anchor="start" x="266" y="-693.5" font-family="Helvetica,sans-Serif" font-size="10.00">+ initialize()</text>
<text text-anchor="start" x="266" y="-682.5" font-family="Helvetica,sans-Serif" font-size="10.00">+ update()</text>
<text text-anchor="start" x="266" y="-671.5" font-family="Helvetica,sans-Serif" font-size="10.00">+ apply()</text>
<text text-anchor="start" x="266" y="-660.5" font-family="Helvetica,sans-Serif" font-size="10.00">+ changed_γ()</text>
</a>
</g>
</g>
<!-- Node7&#45;&gt;Node4 -->
<g id="edge7" class="edge">
<title>Node7&#45;&gt;Node4</title>
<path fill="none" stroke="#404040" d="M331.04,-653.44C327.67,-568.45 320.79,-394.53 316.88,-295.76"/>
<polygon fill="none" stroke="#404040" points="316.87,-295.5 312.64,-289.66 316.4,-283.51 320.63,-289.35 316.87,-295.5"/>
<text text-anchor="middle" x="378" y="-444" font-family="Helvetica,sans-Serif" font-size="10.00"> +direction_provider</text>
</g>
<!-- Node8 -->
<g id="node8" class="node">
<title>Node8</title>
<g id="a_node8"><a xlink:href="classpa_1_1AtomicStopSignal.html" target="_top" xlink:title=" ">
<polygon fill="white" stroke="black" points="426,-642.5 426,-765.5 548,-765.5 548,-642.5 426,-642.5"/>
<text text-anchor="middle" x="487" y="-753.5" font-family="Helvetica,sans-Serif" font-size="10.00">AtomicStopSignal</text>
<polyline fill="none" stroke="black" points="426,-746.5 548,-746.5 "/>
<text text-anchor="start" x="434" y="-734.5" font-family="Helvetica,sans-Serif" font-size="10.00">&#45; stop_flag</text>
<polyline fill="none" stroke="black" points="426,-727.5 548,-727.5 "/>
<text text-anchor="start" x="434" y="-715.5" font-family="Helvetica,sans-Serif" font-size="10.00">+ AtomicStopSignal()</text>
<text text-anchor="start" x="434" y="-704.5" font-family="Helvetica,sans-Serif" font-size="10.00">+ AtomicStopSignal()</text>
<text text-anchor="start" x="434" y="-693.5" font-family="Helvetica,sans-Serif" font-size="10.00">+ operator=()</text>
<text text-anchor="start" x="434" y="-682.5" font-family="Helvetica,sans-Serif" font-size="10.00">+ AtomicStopSignal()</text>
<text text-anchor="start" x="434" y="-671.5" font-family="Helvetica,sans-Serif" font-size="10.00">+ operator=()</text>
<text text-anchor="start" x="434" y="-660.5" font-family="Helvetica,sans-Serif" font-size="10.00">+ stop()</text>
<text text-anchor="start" x="434" y="-649.5" font-family="Helvetica,sans-Serif" font-size="10.00">+ stop_requested()</text>
</a>
</g>
</g>
<!-- Node8&#45;&gt;Node4 -->
<g id="edge8" class="edge">
<title>Node8&#45;&gt;Node4</title>
<path fill="none" stroke="#404040" d="M493.33,-642.49C498.98,-559.22 498.01,-407.62 432,-302 422.76,-287.22 409.63,-274.58 395.46,-264.03"/>
<polygon fill="none" stroke="#404040" points="395.34,-263.94 388.13,-263.77 385.52,-257.05 392.73,-257.22 395.34,-263.94"/>
<text text-anchor="middle" x="526.5" y="-444" font-family="Helvetica,sans-Serif" font-size="10.00"> &#45;stop_signal</text>
</g>
</g>
</svg>
