<?xml version="1.0" encoding="UTF-8" standalone="no"?>
<!DOCTYPE svg PUBLIC "-//W3C//DTD SVG 1.1//EN"
 "http://www.w3.org/Graphics/SVG/1.1/DTD/svg11.dtd">
<!-- Generated by graphviz version 2.43.0 (0)
 -->
<!-- Title: ProblemWithCounters Pages: 1 -->
<svg width="150pt" height="369pt"
 viewBox="0.00 0.00 150.00 369.00" xmlns="http://www.w3.org/2000/svg" xmlns:xlink="http://www.w3.org/1999/xlink">
<g id="graph0" class="graph" transform="scale(1 1) rotate(0) translate(4 365)">
<title>ProblemWithCounters</title>
<polygon fill="white" stroke="transparent" points="-4,4 -4,-365 146,-365 146,4 -4,4"/>
<!-- Node1 -->
<g id="node1" class="node">
<title>Node1</title>
<g id="a_node1"><a xlink:title=" ">
<polygon fill="#bfbfbf" stroke="black" points="0,-0.5 0,-134.5 142,-134.5 142,-0.5 0,-0.5"/>
<text text-anchor="middle" x="71" y="-122.5" font-family="Helvetica,sans-Serif" font-size="10.00">ProblemWithCounters</text>
<polyline fill="none" stroke="black" points="0,-115.5 142,-115.5 "/>
<text text-anchor="start" x="8" y="-103.5" font-family="Helvetica,sans-Serif" font-size="10.00">+ evaluations</text>
<polyline fill="none" stroke="black" points="0,-96.5 142,-96.5 "/>
<text text-anchor="start" x="8" y="-84.5" font-family="Helvetica,sans-Serif" font-size="10.00">+ ProblemWithCounters()</text>
<text text-anchor="start" x="8" y="-73.5" font-family="Helvetica,sans-Serif" font-size="10.00">+ ProblemWithCounters()</text>
<text text-anchor="start" x="8" y="-62.5" font-family="Helvetica,sans-Serif" font-size="10.00">+ ProblemWithCounters()</text>
<text text-anchor="start" x="8" y="-51.5" font-family="Helvetica,sans-Serif" font-size="10.00">+ ProblemWithCounters()</text>
<text text-anchor="start" x="8" y="-40.5" font-family="Helvetica,sans-Serif" font-size="10.00">+ ProblemWithCounters()</text>
<text text-anchor="start" x="8" y="-29.5" font-family="Helvetica,sans-Serif" font-size="10.00">+ operator=()</text>
<text text-anchor="start" x="8" y="-18.5" font-family="Helvetica,sans-Serif" font-size="10.00">+ operator=()</text>
<text text-anchor="start" x="8" y="-7.5" font-family="Helvetica,sans-Serif" font-size="10.00">&#45; attach_counters()</text>
</a>
</g>
</g>
<!-- Node2 -->
<g id="node2" class="node">
<title>Node2</title>
<g id="a_node2"><a xlink:href="structpa_1_1Problem.html" target="_top" xlink:title="Problem description for minimization problems.">
<polygon fill="white" stroke="black" points="27,-171.5 27,-360.5 115,-360.5 115,-171.5 27,-171.5"/>
<text text-anchor="middle" x="71" y="-348.5" font-family="Helvetica,sans-Serif" font-size="10.00">Problem</text>
<polyline fill="none" stroke="black" points="27,-341.5 115,-341.5 "/>
<text text-anchor="start" x="35" y="-329.5" font-family="Helvetica,sans-Serif" font-size="10.00">+ n</text>
<text text-anchor="start" x="35" y="-318.5" font-family="Helvetica,sans-Serif" font-size="10.00">+ m</text>
<text text-anchor="start" x="35" y="-307.5" font-family="Helvetica,sans-Serif" font-size="10.00">+ C</text>
<text text-anchor="start" x="35" y="-296.5" font-family="Helvetica,sans-Serif" font-size="10.00">+ D</text>
<text text-anchor="start" x="35" y="-285.5" font-family="Helvetica,sans-Serif" font-size="10.00">+ f</text>
<text text-anchor="start" x="35" y="-274.5" font-family="Helvetica,sans-Serif" font-size="10.00">+ grad_f</text>
<text text-anchor="start" x="35" y="-263.5" font-family="Helvetica,sans-Serif" font-size="10.00">+ g</text>
<text text-anchor="start" x="35" y="-252.5" font-family="Helvetica,sans-Serif" font-size="10.00">+ grad_g_prod</text>
<text text-anchor="start" x="35" y="-241.5" font-family="Helvetica,sans-Serif" font-size="10.00">+ grad_gi</text>
<text text-anchor="start" x="35" y="-230.5" font-family="Helvetica,sans-Serif" font-size="10.00">+ hess_L_prod</text>
<text text-anchor="start" x="35" y="-219.5" font-family="Helvetica,sans-Serif" font-size="10.00">+ hess_L</text>
<polyline fill="none" stroke="black" points="27,-212.5 115,-212.5 "/>
<text text-anchor="start" x="35" y="-200.5" font-family="Helvetica,sans-Serif" font-size="10.00">+ Problem()</text>
<text text-anchor="start" x="35" y="-189.5" font-family="Helvetica,sans-Serif" font-size="10.00">+ Problem()</text>
<text text-anchor="start" x="35" y="-178.5" font-family="Helvetica,sans-Serif" font-size="10.00">+ Problem()</text>
</a>
</g>
</g>
<!-- Node2&#45;&gt;Node1 -->
<g id="edge1" class="edge">
<title>Node2&#45;&gt;Node1</title>
<path fill="none" stroke="midnightblue" d="M71,-161.21C71,-152.24 71,-143.33 71,-134.78"/>
<polygon fill="none" stroke="midnightblue" points="67.5,-161.35 71,-171.35 74.5,-161.35 67.5,-161.35"/>
</g>
</g>
</svg>
