<?xml version="1.0" encoding="UTF-8" standalone="no"?>
<!DOCTYPE svg PUBLIC "-//W3C//DTD SVG 1.1//EN"
 "http://www.w3.org/Graphics/SVG/1.1/DTD/svg11.dtd">
<!-- Generated by graphviz version 2.43.0 (0)
 -->
<!-- Title: stop Pages: 1 -->
<svg width="263pt" height="328pt"
 viewBox="0.00 0.00 263.00 328.00" xmlns="http://www.w3.org/2000/svg" xmlns:xlink="http://www.w3.org/1999/xlink">
<g id="graph0" class="graph" transform="scale(1 1) rotate(0) translate(4 324)">
<title>stop</title>
<polygon fill="white" stroke="transparent" points="-4,4 -4,-324 259,-324 259,4 -4,4"/>
<!-- Node1 -->
<g id="node1" class="node">
<title>Node1</title>
<g id="a_node1"><a xlink:title=" ">
<polygon fill="#bfbfbf" stroke="black" points="217,-136.5 217,-155.5 255,-155.5 255,-136.5 217,-136.5"/>
<text text-anchor="middle" x="236" y="-143.5" font-family="Helvetica,sans-Serif" font-size="10.00">stop</text>
</a>
</g>
</g>
<!-- Node2 -->
<g id="node2" class="node">
<title>Node2</title>
<g id="a_node2"><a xlink:href="classpa_1_1PANOCSolver.html#a8c528baf37154d347366083f0f816846" target="_top" xlink:title=" ">
<polygon fill="white" stroke="black" points="19,-300.5 19,-319.5 162,-319.5 162,-300.5 19,-300.5"/>
<text text-anchor="middle" x="90.5" y="-307.5" font-family="Helvetica,sans-Serif" font-size="10.00">pa::PANOCSolver&lt;&gt;::stop</text>
</a>
</g>
</g>
<!-- Node1&#45;&gt;Node2 -->
<g id="edge1" class="edge">
<title>Node1&#45;&gt;Node2</title>
<path fill="none" stroke="midnightblue" d="M233.54,-165.66C230.1,-197.11 218.68,-258.5 181,-291 175.47,-295.77 169.03,-299.44 162.2,-302.25"/>
<polygon fill="midnightblue" stroke="midnightblue" points="237.04,-165.81 234.48,-155.53 230.07,-165.17 237.04,-165.81"/>
</g>
<!-- Node3 -->
<g id="node3" class="node">
<title>Node3</title>
<g id="a_node3"><a xlink:href="classpa_1_1PANOCSolverFull.html#a8c528baf37154d347366083f0f816846" target="_top" xlink:title=" ">
<polygon fill="white" stroke="black" points="32.5,-251 32.5,-281 148.5,-281 148.5,-251 32.5,-251"/>
<text text-anchor="start" x="40.5" y="-269" font-family="Helvetica,sans-Serif" font-size="10.00">pa::PANOCSolverFull</text>
<text text-anchor="middle" x="90.5" y="-258" font-family="Helvetica,sans-Serif" font-size="10.00">&lt;&gt;::stop</text>
</a>
</g>
</g>
<!-- Node1&#45;&gt;Node3 -->
<g id="edge2" class="edge">
<title>Node1&#45;&gt;Node3</title>
<path fill="none" stroke="midnightblue" d="M229.3,-165.08C221.78,-186.93 206.44,-222.25 181,-242 171.6,-249.3 160.15,-254.39 148.63,-257.93"/>
<polygon fill="midnightblue" stroke="midnightblue" points="232.63,-166.15 232.37,-155.56 225.97,-164 232.63,-166.15"/>
</g>
<!-- Node4 -->
<g id="node4" class="node">
<title>Node4</title>
<g id="a_node4"><a xlink:href="classpa_1_1SecondOrderPANOCSolver.html#a8c528baf37154d347366083f0f816846" target="_top" xlink:title=" ">
<polygon fill="white" stroke="black" points="10,-202 10,-232 171,-232 171,-202 10,-202"/>
<text text-anchor="start" x="18" y="-220" font-family="Helvetica,sans-Serif" font-size="10.00">pa::SecondOrderPANOCSolver</text>
<text text-anchor="middle" x="90.5" y="-209" font-family="Helvetica,sans-Serif" font-size="10.00">::stop</text>
</a>
</g>
</g>
<!-- Node1&#45;&gt;Node4 -->
<g id="edge3" class="edge">
<title>Node1&#45;&gt;Node4</title>
<path fill="none" stroke="midnightblue" d="M219.23,-163.21C209.17,-173.23 195.37,-185.35 181,-193 174.61,-196.4 167.7,-199.35 160.65,-201.9"/>
<polygon fill="midnightblue" stroke="midnightblue" points="222,-165.37 226.42,-155.75 216.96,-160.51 222,-165.37"/>
</g>
<!-- Node5 -->
<g id="node5" class="node">
<title>Node5</title>
<g id="a_node5"><a xlink:href="classpa_1_1StructuredPANOCLBFGSSolver.html#a8c528baf37154d347366083f0f816846" target="_top" xlink:title=" ">
<polygon fill="white" stroke="black" points="0,-153 0,-183 181,-183 181,-153 0,-153"/>
<text text-anchor="start" x="8" y="-171" font-family="Helvetica,sans-Serif" font-size="10.00">pa::StructuredPANOCLBFGSSolver</text>
<text text-anchor="middle" x="90.5" y="-160" font-family="Helvetica,sans-Serif" font-size="10.00">::stop</text>
</a>
</g>
</g>
<!-- Node1&#45;&gt;Node5 -->
<g id="edge4" class="edge">
<title>Node1&#45;&gt;Node5</title>
<path fill="none" stroke="midnightblue" d="M206.78,-150.33C199.12,-151.5 190.41,-152.84 181.27,-154.24"/>
<polygon fill="midnightblue" stroke="midnightblue" points="207.47,-153.76 216.83,-148.79 206.41,-146.84 207.47,-153.76"/>
</g>
<!-- Node6 -->
<g id="node6" class="node">
<title>Node6</title>
<g id="a_node6"><a xlink:href="classpa_1_1GAAPGASolver.html#a8c528baf37154d347366083f0f816846" target="_top" xlink:title=" ">
<polygon fill="white" stroke="black" points="23.5,-114.5 23.5,-133.5 157.5,-133.5 157.5,-114.5 23.5,-114.5"/>
<text text-anchor="middle" x="90.5" y="-121.5" font-family="Helvetica,sans-Serif" font-size="10.00">pa::GAAPGASolver::stop</text>
</a>
</g>
</g>
<!-- Node1&#45;&gt;Node6 -->
<g id="edge5" class="edge">
<title>Node1&#45;&gt;Node6</title>
<path fill="none" stroke="midnightblue" d="M206.58,-141.64C191.42,-139.32 172.13,-136.36 153.69,-133.53"/>
<polygon fill="midnightblue" stroke="midnightblue" points="206.41,-145.16 216.83,-143.21 207.47,-138.24 206.41,-145.16"/>
</g>
<!-- Node7 -->
<g id="node7" class="node">
<title>Node7</title>
<g id="a_node7"><a xlink:href="classpa_1_1LBFGSSolver.html#a8c528baf37154d347366083f0f816846" target="_top" xlink:title=" ">
<polygon fill="white" stroke="black" points="28.5,-76.5 28.5,-95.5 152.5,-95.5 152.5,-76.5 28.5,-76.5"/>
<text text-anchor="middle" x="90.5" y="-83.5" font-family="Helvetica,sans-Serif" font-size="10.00">pa::LBFGSSolver::stop</text>
</a>
</g>
</g>
<!-- Node1&#45;&gt;Node7 -->
<g id="edge6" class="edge">
<title>Node1&#45;&gt;Node7</title>
<path fill="none" stroke="midnightblue" d="M217.56,-129.59C207.57,-121.04 194.38,-111.12 181,-105 172.19,-100.97 162.5,-97.78 152.84,-95.26"/>
<polygon fill="midnightblue" stroke="midnightblue" points="215.34,-132.3 225.14,-136.33 220,-127.07 215.34,-132.3"/>
</g>
<!-- Node8 -->
<g id="node8" class="node">
<title>Node8</title>
<g id="a_node8"><a xlink:href="classpa_1_1LBFGSBSolver.html#a8c528baf37154d347366083f0f816846" target="_top" xlink:title=" ">
<polygon fill="white" stroke="black" points="25,-38.5 25,-57.5 156,-57.5 156,-38.5 25,-38.5"/>
<text text-anchor="middle" x="90.5" y="-45.5" font-family="Helvetica,sans-Serif" font-size="10.00">pa::LBFGSBSolver::stop</text>
</a>
</g>
</g>
<!-- Node1&#45;&gt;Node8 -->
<g id="edge7" class="edge">
<title>Node1&#45;&gt;Node8</title>
<path fill="none" stroke="midnightblue" d="M227.16,-127.1C218.57,-108.81 203.03,-81.75 181,-67 173.48,-61.96 164.87,-58.22 156.03,-55.46"/>
<polygon fill="midnightblue" stroke="midnightblue" points="224.06,-128.73 231.31,-136.46 230.46,-125.9 224.06,-128.73"/>
</g>
<!-- Node9 -->
<g id="node9" class="node">
<title>Node9</title>
<g id="a_node9"><a xlink:href="classpa_1_1PGASolver.html#a8c528baf37154d347366083f0f816846" target="_top" xlink:title=" ">
<polygon fill="white" stroke="black" points="34,-0.5 34,-19.5 147,-19.5 147,-0.5 34,-0.5"/>
<text text-anchor="middle" x="90.5" y="-7.5" font-family="Helvetica,sans-Serif" font-size="10.00">pa::PGASolver::stop</text>
</a>
</g>
</g>
<!-- Node1&#45;&gt;Node9 -->
<g id="edge8" class="edge">
<title>Node1&#45;&gt;Node9</title>
<path fill="none" stroke="midnightblue" d="M231.56,-126.4C225.87,-100.05 211.9,-53.67 181,-29 171.32,-21.27 159.23,-16.49 147.09,-13.57"/>
<polygon fill="midnightblue" stroke="midnightblue" points="228.15,-127.21 233.52,-136.34 235.02,-125.85 228.15,-127.21"/>
</g>
</g>
</svg>
