<?xml version="1.0" encoding="UTF-8" standalone="no"?>
<!DOCTYPE svg PUBLIC "-//W3C//DTD SVG 1.1//EN"
 "http://www.w3.org/Graphics/SVG/1.1/DTD/svg11.dtd">
<!-- Generated by graphviz version 2.43.0 (0)
 -->
<!-- Title: operator() Pages: 1 -->
<svg width="285pt" height="204pt"
 viewBox="0.00 0.00 285.00 203.50" xmlns="http://www.w3.org/2000/svg" xmlns:xlink="http://www.w3.org/1999/xlink">
<g id="graph0" class="graph" transform="scale(1 1) rotate(0) translate(4 199.5)">
<title>operator()</title>
<polygon fill="white" stroke="transparent" points="-4,4 -4,-199.5 281,-199.5 281,4 -4,4"/>
<!-- Node1 -->
<g id="node1" class="node">
<title>Node1</title>
<g id="a_node1"><a xlink:title=" ">
<polygon fill="#bfbfbf" stroke="black" points="0,-88 0,-107 65,-107 65,-88 0,-88"/>
<text text-anchor="middle" x="32.5" y="-95" font-family="Helvetica,sans-Serif" font-size="10.00">operator()</text>
</a>
</g>
</g>
<!-- Node2 -->
<g id="node2" class="node">
<title>Node2</title>
<g id="a_node2"><a xlink:href="namespacepa_1_1detail.html#ac03409e1d84d7fd574cd1b594e2bfeee" target="_top" xlink:title=" ">
<polygon fill="white" stroke="black" points="101,-176 101,-195 277,-195 277,-176 101,-176"/>
<text text-anchor="middle" x="189" y="-183" font-family="Helvetica,sans-Serif" font-size="10.00">pa::detail::apply_preconditioning</text>
</a>
</g>
</g>
<!-- Node1&#45;&gt;Node2 -->
<g id="edge1" class="edge">
<title>Node1&#45;&gt;Node2</title>
<path fill="none" stroke="midnightblue" d="M40.11,-107.26C50.96,-122.45 74.02,-151.56 101,-166.5 105.18,-168.81 109.61,-170.84 114.18,-172.63"/>
<polygon fill="midnightblue" stroke="midnightblue" points="113.11,-175.96 123.71,-175.95 115.42,-169.35 113.11,-175.96"/>
</g>
<!-- Node3 -->
<g id="node3" class="node">
<title>Node3</title>
<g id="a_node3"><a xlink:href="namespacepa_1_1detail.html#a4d5a573a7a528ad69cc7169af968aed6" target="_top" xlink:title=" ">
<polygon fill="white" stroke="black" points="134,-126.5 134,-156.5 244,-156.5 244,-126.5 134,-126.5"/>
<text text-anchor="start" x="142" y="-144.5" font-family="Helvetica,sans-Serif" font-size="10.00">pa::detail::initialize</text>
<text text-anchor="middle" x="189" y="-133.5" font-family="Helvetica,sans-Serif" font-size="10.00">_penalty</text>
</a>
</g>
</g>
<!-- Node1&#45;&gt;Node3 -->
<g id="edge2" class="edge">
<title>Node1&#45;&gt;Node3</title>
<path fill="none" stroke="midnightblue" d="M65.14,-106.51C82.51,-111.46 104.69,-117.77 125.4,-123.67"/>
<polygon fill="midnightblue" stroke="midnightblue" points="124.53,-127.06 135.11,-126.44 126.45,-120.33 124.53,-127.06"/>
</g>
<!-- Node4 -->
<g id="node4" class="node">
<title>Node4</title>
<g id="a_node4"><a xlink:href="namespacepa_1_1vec__util.html#af8e650634ec3d7b82a78a4d313632ed0" target="_top" xlink:title="Get the maximum or infinity&#45;norm of the given vector.">
<polygon fill="white" stroke="black" points="128,-88 128,-107 250,-107 250,-88 128,-88"/>
<text text-anchor="middle" x="189" y="-95" font-family="Helvetica,sans-Serif" font-size="10.00">pa::vec_util::norm_inf</text>
</a>
</g>
</g>
<!-- Node1&#45;&gt;Node4 -->
<g id="edge3" class="edge">
<title>Node1&#45;&gt;Node4</title>
<path fill="none" stroke="midnightblue" d="M65.14,-97.5C80.41,-97.5 99.38,-97.5 117.82,-97.5"/>
<polygon fill="midnightblue" stroke="midnightblue" points="117.98,-101 127.98,-97.5 117.98,-94 117.98,-101"/>
</g>
<!-- Node5 -->
<g id="node5" class="node">
<title>Node5</title>
<g id="a_node5"><a xlink:href="namespacepa_1_1detail.html#a083f78dc67eda89cd3fa56e0664cddd1" target="_top" xlink:title=" ">
<polygon fill="white" stroke="black" points="132.5,-50 132.5,-69 245.5,-69 245.5,-50 132.5,-50"/>
<text text-anchor="middle" x="189" y="-57" font-family="Helvetica,sans-Serif" font-size="10.00">pa::detail::project_y</text>
</a>
</g>
</g>
<!-- Node1&#45;&gt;Node5 -->
<g id="edge4" class="edge">
<title>Node1&#45;&gt;Node5</title>
<path fill="none" stroke="midnightblue" d="M65.33,-88.12C76.56,-84.92 89.31,-81.42 101,-78.5 111,-76 121.7,-73.52 132.05,-71.21"/>
<polygon fill="midnightblue" stroke="midnightblue" points="132.81,-74.62 141.83,-69.05 131.31,-67.78 132.81,-74.62"/>
</g>
<!-- Node6 -->
<g id="node6" class="node">
<title>Node6</title>
<g id="a_node6"><a xlink:href="namespacepa_1_1detail.html#a57dcf7e868466d577ee26ebff5cc2fa3" target="_top" xlink:title=" ">
<polygon fill="white" stroke="black" points="138,-0.5 138,-30.5 240,-30.5 240,-0.5 138,-0.5"/>
<text text-anchor="start" x="146" y="-18.5" font-family="Helvetica,sans-Serif" font-size="10.00">pa::detail::update</text>
<text text-anchor="middle" x="189" y="-7.5" font-family="Helvetica,sans-Serif" font-size="10.00">_penalty_weights</text>
</a>
</g>
</g>
<!-- Node1&#45;&gt;Node6 -->
<g id="edge5" class="edge">
<title>Node1&#45;&gt;Node6</title>
<path fill="none" stroke="midnightblue" d="M42.59,-87.57C54.74,-74.89 77.46,-53.07 101,-40.5 109.44,-35.99 118.78,-32.22 128.12,-29.08"/>
<polygon fill="midnightblue" stroke="midnightblue" points="129.32,-32.37 137.81,-26.03 127.22,-25.69 129.32,-32.37"/>
</g>
</g>
</svg>
