<?xml version="1.0" encoding="UTF-8" standalone="no"?>
<!DOCTYPE svg PUBLIC "-//W3C//DTD SVG 1.1//EN"
 "http://www.w3.org/Graphics/SVG/1.1/DTD/svg11.dtd">
<!-- Generated by graphviz version 2.43.0 (0)
 -->
<!-- Title: ALMSolver&lt; InnerSolverT &gt; Pages: 1 -->
<svg width="579pt" height="945pt"
 viewBox="0.00 0.00 578.50 945.00" xmlns="http://www.w3.org/2000/svg" xmlns:xlink="http://www.w3.org/1999/xlink">
<g id="graph0" class="graph" transform="scale(1 1) rotate(0) translate(4 941)">
<title>ALMSolver&lt; InnerSolverT &gt;</title>
<polygon fill="white" stroke="transparent" points="-4,4 -4,-941 574.5,-941 574.5,4 -4,4"/>
<!-- Node1 -->
<g id="node1" class="node">
<title>Node1</title>
<g id="a_node1"><a xlink:title="Augmented Lagrangian Method solver.">
<polygon fill="#bfbfbf" stroke="black" points="104,-0.5 104,-112.5 256,-112.5 256,-0.5 104,-0.5"/>
<text text-anchor="middle" x="180" y="-100.5" font-family="Helvetica,sans-Serif" font-size="10.00">ALMSolver&lt; InnerSolverT &gt;</text>
<polyline fill="none" stroke="black" points="104,-93.5 256,-93.5 "/>
<text text-anchor="middle" x="180" y="-81.5" font-family="Helvetica,sans-Serif" font-size="10.00"> </text>
<polyline fill="none" stroke="black" points="104,-74.5 256,-74.5 "/>
<text text-anchor="start" x="112" y="-62.5" font-family="Helvetica,sans-Serif" font-size="10.00">+ ALMSolver()</text>
<text text-anchor="start" x="112" y="-51.5" font-family="Helvetica,sans-Serif" font-size="10.00">+ ALMSolver()</text>
<text text-anchor="start" x="112" y="-40.5" font-family="Helvetica,sans-Serif" font-size="10.00">+ operator()()</text>
<text text-anchor="start" x="112" y="-29.5" font-family="Helvetica,sans-Serif" font-size="10.00">+ get_name()</text>
<text text-anchor="start" x="112" y="-18.5" font-family="Helvetica,sans-Serif" font-size="10.00">+ stop()</text>
<text text-anchor="start" x="112" y="-7.5" font-family="Helvetica,sans-Serif" font-size="10.00">+ get_params()</text>
</a>
</g>
</g>
<!-- Node2 -->
<g id="node2" class="node">
<title>Node2</title>
<g id="a_node2"><a xlink:href="classpa_1_1PANOCSolver.html" target="_top" xlink:title=" ">
<polygon fill="white" stroke="black" points="223.5,-160.5 223.5,-283.5 366.5,-283.5 366.5,-160.5 223.5,-160.5"/>
<text text-anchor="middle" x="295" y="-271.5" font-family="Helvetica,sans-Serif" font-size="10.00">PANOCSolver&lt;&gt;</text>
<polyline fill="none" stroke="black" points="223.5,-264.5 366.5,-264.5 "/>
<text text-anchor="start" x="231.5" y="-252.5" font-family="Helvetica,sans-Serif" font-size="10.00">&#45; progress_cb</text>
<polyline fill="none" stroke="black" points="223.5,-245.5 366.5,-245.5 "/>
<text text-anchor="start" x="231.5" y="-233.5" font-family="Helvetica,sans-Serif" font-size="10.00">+ PANOCSolver()</text>
<text text-anchor="start" x="231.5" y="-222.5" font-family="Helvetica,sans-Serif" font-size="10.00">+ PANOCSolver()</text>
<text text-anchor="start" x="231.5" y="-211.5" font-family="Helvetica,sans-Serif" font-size="10.00">+ operator()()</text>
<text text-anchor="start" x="231.5" y="-200.5" font-family="Helvetica,sans-Serif" font-size="10.00">+ set_progress_callback()</text>
<text text-anchor="start" x="231.5" y="-189.5" font-family="Helvetica,sans-Serif" font-size="10.00">+ get_name()</text>
<text text-anchor="start" x="231.5" y="-178.5" font-family="Helvetica,sans-Serif" font-size="10.00">+ stop()</text>
<text text-anchor="start" x="231.5" y="-167.5" font-family="Helvetica,sans-Serif" font-size="10.00">+ get_params()</text>
</a>
</g>
</g>
<!-- Node2&#45;&gt;Node1 -->
<g id="edge1" class="edge">
<title>Node2&#45;&gt;Node1</title>
<path fill="none" stroke="#404040" d="M252.18,-160.12C243.65,-147.99 234.65,-135.2 226.02,-122.93"/>
<polygon fill="none" stroke="#404040" points="225.77,-122.58 219.05,-119.97 218.87,-112.76 225.59,-115.37 225.77,-122.58"/>
<text text-anchor="middle" x="274" y="-134" font-family="Helvetica,sans-Serif" font-size="10.00"> +inner_solver</text>
</g>
<!-- Node3 -->
<g id="node3" class="node">
<title>Node3</title>
<g id="a_node3"><a xlink:href="namespacepa.html#structpa_1_1PANOCParams" target="_top" xlink:title="Tuning parameters for the PANOC algorithm.">
<polygon fill="white" stroke="black" points="405.5,-609.5 405.5,-798.5 570.5,-798.5 570.5,-609.5 405.5,-609.5"/>
<text text-anchor="middle" x="488" y="-786.5" font-family="Helvetica,sans-Serif" font-size="10.00">PANOCParams</text>
<polyline fill="none" stroke="black" points="405.5,-779.5 570.5,-779.5 "/>
<text text-anchor="start" x="413.5" y="-767.5" font-family="Helvetica,sans-Serif" font-size="10.00">+ max_iter</text>
<text text-anchor="start" x="413.5" y="-756.5" font-family="Helvetica,sans-Serif" font-size="10.00">+ τ_min</text>
<text text-anchor="start" x="413.5" y="-745.5" font-family="Helvetica,sans-Serif" font-size="10.00">+ L_min</text>
<text text-anchor="start" x="413.5" y="-734.5" font-family="Helvetica,sans-Serif" font-size="10.00">+ L_max</text>
<text text-anchor="start" x="413.5" y="-723.5" font-family="Helvetica,sans-Serif" font-size="10.00">+ stop_crit</text>
<text text-anchor="start" x="413.5" y="-712.5" font-family="Helvetica,sans-Serif" font-size="10.00">+ max_no_progress</text>
<text text-anchor="start" x="413.5" y="-701.5" font-family="Helvetica,sans-Serif" font-size="10.00">+ print_interval</text>
<text text-anchor="start" x="413.5" y="-690.5" font-family="Helvetica,sans-Serif" font-size="10.00">+ quadratic_upperbound</text>
<text text-anchor="start" x="413.5" y="-679.5" font-family="Helvetica,sans-Serif" font-size="10.00">_tolerance_factor</text>
<text text-anchor="start" x="413.5" y="-668.5" font-family="Helvetica,sans-Serif" font-size="10.00">+ update_lipschitz_in</text>
<text text-anchor="start" x="413.5" y="-657.5" font-family="Helvetica,sans-Serif" font-size="10.00">_linesearch</text>
<text text-anchor="start" x="413.5" y="-646.5" font-family="Helvetica,sans-Serif" font-size="10.00">+ alternative_linesearch_cond</text>
<text text-anchor="start" x="413.5" y="-635.5" font-family="Helvetica,sans-Serif" font-size="10.00">+ lbfgs_stepsize</text>
<polyline fill="none" stroke="black" points="405.5,-628.5 570.5,-628.5 "/>
<text text-anchor="middle" x="488" y="-616.5" font-family="Helvetica,sans-Serif" font-size="10.00"> </text>
</a>
</g>
</g>
<!-- Node3&#45;&gt;Node2 -->
<g id="edge2" class="edge">
<title>Node3&#45;&gt;Node2</title>
<path fill="none" stroke="#404040" d="M479.79,-609.33C468.78,-523.91 443.32,-396.93 385,-302 381.96,-297.06 378.52,-292.25 374.79,-287.62"/>
<polygon fill="none" stroke="#404040" points="374.63,-287.42 367.68,-285.5 366.79,-278.34 373.73,-280.27 374.63,-287.42"/>
<text text-anchor="middle" x="499" y="-444" font-family="Helvetica,sans-Serif" font-size="10.00"> &#45;params</text>
</g>
<!-- Node4 -->
<g id="node4" class="node">
<title>Node4</title>
<g id="a_node4"><a xlink:href="namespacepa.html#structpa_1_1LipschitzEstimateParams" target="_top" xlink:title=" ">
<polygon fill="white" stroke="black" points="418.5,-846.5 418.5,-936.5 557.5,-936.5 557.5,-846.5 418.5,-846.5"/>
<text text-anchor="middle" x="488" y="-924.5" font-family="Helvetica,sans-Serif" font-size="10.00">LipschitzEstimateParams</text>
<polyline fill="none" stroke="black" points="418.5,-917.5 557.5,-917.5 "/>
<text text-anchor="start" x="426.5" y="-905.5" font-family="Helvetica,sans-Serif" font-size="10.00">+ L₀</text>
<text text-anchor="start" x="426.5" y="-894.5" font-family="Helvetica,sans-Serif" font-size="10.00">+ ε</text>
<text text-anchor="start" x="426.5" y="-883.5" font-family="Helvetica,sans-Serif" font-size="10.00">+ δ</text>
<text text-anchor="start" x="426.5" y="-872.5" font-family="Helvetica,sans-Serif" font-size="10.00">+ Lγ_factor</text>
<polyline fill="none" stroke="black" points="418.5,-865.5 557.5,-865.5 "/>
<text text-anchor="middle" x="488" y="-853.5" font-family="Helvetica,sans-Serif" font-size="10.00"> </text>
</a>
</g>
</g>
<!-- Node4&#45;&gt;Node3 -->
<g id="edge3" class="edge">
<title>Node4&#45;&gt;Node3</title>
<path fill="none" stroke="#404040" d="M488,-846.07C488,-835.3 488,-823.32 488,-811.02"/>
<polygon fill="none" stroke="#404040" points="488,-810.65 484,-804.65 488,-798.65 492,-804.65 488,-810.65"/>
<text text-anchor="middle" x="515.5" y="-820" font-family="Helvetica,sans-Serif" font-size="10.00"> +Lipschitz</text>
</g>
<!-- Node5 -->
<g id="node5" class="node">
<title>Node5</title>
<g id="a_node5"><a xlink:title=" ">
<polygon fill="white" stroke="#bfbfbf" points="172,-863 172,-920 256,-920 256,-863 172,-863"/>
<text text-anchor="middle" x="214" y="-908" font-family="Helvetica,sans-Serif" font-size="10.00">microseconds</text>
<polyline fill="none" stroke="#bfbfbf" points="172,-901 256,-901 "/>
<text text-anchor="middle" x="214" y="-889" font-family="Helvetica,sans-Serif" font-size="10.00"> </text>
<polyline fill="none" stroke="#bfbfbf" points="172,-882 256,-882 "/>
<text text-anchor="middle" x="214" y="-870" font-family="Helvetica,sans-Serif" font-size="10.00"> </text>
</a>
</g>
</g>
<!-- Node5&#45;&gt;Node3 -->
<g id="edge4" class="edge">
<title>Node5&#45;&gt;Node3</title>
<path fill="none" stroke="#404040" d="M256.34,-873.96C292.4,-858.86 345.03,-834.42 395.61,-798.84"/>
<polygon fill="none" stroke="#404040" points="395.62,-798.83 398.15,-792.08 405.36,-791.82 402.83,-798.58 395.62,-798.83"/>
<text text-anchor="middle" x="398.5" y="-820" font-family="Helvetica,sans-Serif" font-size="10.00"> +max_time</text>
</g>
<!-- Node8 -->
<g id="node8" class="node">
<title>Node8</title>
<g id="a_node8"><a xlink:href="namespacepa.html#structpa_1_1ALMParams" target="_top" xlink:title="Parameters for the Augmented Lagrangian solver.">
<polygon fill="white" stroke="black" points="0,-302.5 0,-590.5 146,-590.5 146,-302.5 0,-302.5"/>
<text text-anchor="middle" x="73" y="-578.5" font-family="Helvetica,sans-Serif" font-size="10.00">ALMParams</text>
<polyline fill="none" stroke="black" points="0,-571.5 146,-571.5 "/>
<text text-anchor="start" x="8" y="-559.5" font-family="Helvetica,sans-Serif" font-size="10.00">+ ε</text>
<text text-anchor="start" x="8" y="-548.5" font-family="Helvetica,sans-Serif" font-size="10.00">+ δ</text>
<text text-anchor="start" x="8" y="-537.5" font-family="Helvetica,sans-Serif" font-size="10.00">+ Δ</text>
<text text-anchor="start" x="8" y="-526.5" font-family="Helvetica,sans-Serif" font-size="10.00">+ Δ_lower</text>
<text text-anchor="start" x="8" y="-515.5" font-family="Helvetica,sans-Serif" font-size="10.00">+ Σ₀</text>
<text text-anchor="start" x="8" y="-504.5" font-family="Helvetica,sans-Serif" font-size="10.00">+ σ₀</text>
<text text-anchor="start" x="8" y="-493.5" font-family="Helvetica,sans-Serif" font-size="10.00">+ Σ₀_lower</text>
<text text-anchor="start" x="8" y="-482.5" font-family="Helvetica,sans-Serif" font-size="10.00">+ ε₀</text>
<text text-anchor="start" x="8" y="-471.5" font-family="Helvetica,sans-Serif" font-size="10.00">+ ε₀_increase</text>
<text text-anchor="start" x="8" y="-460.5" font-family="Helvetica,sans-Serif" font-size="10.00">+ ρ</text>
<text text-anchor="start" x="8" y="-449.5" font-family="Helvetica,sans-Serif" font-size="10.00">+ ρ_increase</text>
<text text-anchor="start" x="8" y="-438.5" font-family="Helvetica,sans-Serif" font-size="10.00">+ θ</text>
<text text-anchor="start" x="8" y="-427.5" font-family="Helvetica,sans-Serif" font-size="10.00">+ M</text>
<text text-anchor="start" x="8" y="-416.5" font-family="Helvetica,sans-Serif" font-size="10.00">+ Σ_max</text>
<text text-anchor="start" x="8" y="-405.5" font-family="Helvetica,sans-Serif" font-size="10.00">+ Σ_min</text>
<text text-anchor="start" x="8" y="-394.5" font-family="Helvetica,sans-Serif" font-size="10.00">+ max_iter</text>
<text text-anchor="start" x="8" y="-383.5" font-family="Helvetica,sans-Serif" font-size="10.00">+ max_num_initial_retries</text>
<text text-anchor="start" x="8" y="-372.5" font-family="Helvetica,sans-Serif" font-size="10.00">+ max_num_retries</text>
<text text-anchor="start" x="8" y="-361.5" font-family="Helvetica,sans-Serif" font-size="10.00">+ max_total_num_retries</text>
<text text-anchor="start" x="8" y="-350.5" font-family="Helvetica,sans-Serif" font-size="10.00">+ print_interval</text>
<text text-anchor="start" x="8" y="-339.5" font-family="Helvetica,sans-Serif" font-size="10.00">+ preconditioning</text>
<text text-anchor="start" x="8" y="-328.5" font-family="Helvetica,sans-Serif" font-size="10.00">+ single_penalty_factor</text>
<polyline fill="none" stroke="black" points="0,-321.5 146,-321.5 "/>
<text text-anchor="middle" x="73" y="-309.5" font-family="Helvetica,sans-Serif" font-size="10.00"> </text>
</a>
</g>
</g>
<!-- Node5&#45;&gt;Node8 -->
<g id="edge8" class="edge">
<title>Node5&#45;&gt;Node8</title>
<path fill="none" stroke="#404040" d="M171.79,-872.19C142.68,-857.1 106.09,-832.7 88,-799 56.31,-739.97 49.02,-667 51.04,-602.87"/>
<polygon fill="none" stroke="#404040" points="51.06,-602.58 47.31,-596.42 51.55,-590.59 55.3,-596.75 51.06,-602.58"/>
<text text-anchor="middle" x="140.5" y="-820" font-family="Helvetica,sans-Serif" font-size="10.00"> +max_time</text>
</g>
<!-- Node6 -->
<g id="node6" class="node">
<title>Node6</title>
<g id="a_node6"><a xlink:href="structpa_1_1PANOCDirection.html" target="_top" xlink:title=" ">
<polygon fill="white" stroke="black" points="97,-653.5 97,-754.5 247,-754.5 247,-653.5 97,-653.5"/>
<text text-anchor="start" x="105" y="-742.5" font-family="Helvetica,sans-Serif" font-size="10.00">PANOCDirection&lt; Direction</text>
<text text-anchor="middle" x="172" y="-731.5" font-family="Helvetica,sans-Serif" font-size="10.00">Provider &gt;</text>
<polyline fill="none" stroke="black" points="97,-724.5 247,-724.5 "/>
<text text-anchor="middle" x="172" y="-712.5" font-family="Helvetica,sans-Serif" font-size="10.00"> </text>
<polyline fill="none" stroke="black" points="97,-705.5 247,-705.5 "/>
<text text-anchor="start" x="105" y="-693.5" font-family="Helvetica,sans-Serif" font-size="10.00">+ initialize()</text>
<text text-anchor="start" x="105" y="-682.5" font-family="Helvetica,sans-Serif" font-size="10.00">+ update()</text>
<text text-anchor="start" x="105" y="-671.5" font-family="Helvetica,sans-Serif" font-size="10.00">+ apply()</text>
<text text-anchor="start" x="105" y="-660.5" font-family="Helvetica,sans-Serif" font-size="10.00">+ changed_γ()</text>
</a>
</g>
</g>
<!-- Node6&#45;&gt;Node2 -->
<g id="edge5" class="edge">
<title>Node6&#45;&gt;Node2</title>
<path fill="none" stroke="#404040" d="M162.7,-653.36C150.44,-574.09 136.75,-416.22 196,-302 200.86,-292.64 207.37,-284.01 214.74,-276.18"/>
<polygon fill="none" stroke="#404040" points="214.84,-276.08 216.31,-269.02 223.39,-267.67 221.92,-274.73 214.84,-276.08"/>
<text text-anchor="middle" x="246" y="-444" font-family="Helvetica,sans-Serif" font-size="10.00"> +direction_provider</text>
</g>
<!-- Node7 -->
<g id="node7" class="node">
<title>Node7</title>
<g id="a_node7"><a xlink:href="classpa_1_1AtomicStopSignal.html" target="_top" xlink:title=" ">
<polygon fill="white" stroke="black" points="265,-642.5 265,-765.5 387,-765.5 387,-642.5 265,-642.5"/>
<text text-anchor="middle" x="326" y="-753.5" font-family="Helvetica,sans-Serif" font-size="10.00">AtomicStopSignal</text>
<polyline fill="none" stroke="black" points="265,-746.5 387,-746.5 "/>
<text text-anchor="start" x="273" y="-734.5" font-family="Helvetica,sans-Serif" font-size="10.00">&#45; stop_flag</text>
<polyline fill="none" stroke="black" points="265,-727.5 387,-727.5 "/>
<text text-anchor="start" x="273" y="-715.5" font-family="Helvetica,sans-Serif" font-size="10.00">+ AtomicStopSignal()</text>
<text text-anchor="start" x="273" y="-704.5" font-family="Helvetica,sans-Serif" font-size="10.00">+ AtomicStopSignal()</text>
<text text-anchor="start" x="273" y="-693.5" font-family="Helvetica,sans-Serif" font-size="10.00">+ operator=()</text>
<text text-anchor="start" x="273" y="-682.5" font-family="Helvetica,sans-Serif" font-size="10.00">+ AtomicStopSignal()</text>
<text text-anchor="start" x="273" y="-671.5" font-family="Helvetica,sans-Serif" font-size="10.00">+ operator=()</text>
<text text-anchor="start" x="273" y="-660.5" font-family="Helvetica,sans-Serif" font-size="10.00">+ stop()</text>
<text text-anchor="start" x="273" y="-649.5" font-family="Helvetica,sans-Serif" font-size="10.00">+ stop_requested()</text>
</a>
</g>
</g>
<!-- Node7&#45;&gt;Node2 -->
<g id="edge6" class="edge">
<title>Node7&#45;&gt;Node2</title>
<path fill="none" stroke="#404040" d="M322.07,-642.21C316.37,-553.88 305.8,-390.3 299.7,-295.71"/>
<polygon fill="none" stroke="#404040" points="299.69,-295.65 295.31,-289.92 298.92,-283.68 303.3,-289.41 299.69,-295.65"/>
<text text-anchor="middle" x="349.5" y="-444" font-family="Helvetica,sans-Serif" font-size="10.00"> &#45;stop_signal</text>
</g>
<!-- Node8&#45;&gt;Node1 -->
<g id="edge7" class="edge">
<title>Node8&#45;&gt;Node1</title>
<path fill="none" stroke="#404040" d="M112.46,-302.4C129.25,-241.55 148.01,-173.5 161.49,-124.61"/>
<polygon fill="none" stroke="#404040" points="161.53,-124.49 159.27,-117.64 164.72,-112.92 166.98,-119.77 161.53,-124.49"/>
<text text-anchor="middle" x="173" y="-219.5" font-family="Helvetica,sans-Serif" font-size="10.00"> &#45;params</text>
</g>
</g>
</svg>
