<?xml version="1.0" encoding="UTF-8" standalone="no"?>
<!DOCTYPE svg PUBLIC "-//W3C//DTD SVG 1.1//EN"
 "http://www.w3.org/Graphics/SVG/1.1/DTD/svg11.dtd">
<!-- Generated by graphviz version 2.43.0 (0)
 -->
<!-- Title: stop_requested Pages: 1 -->
<svg width="760pt" height="247pt"
 viewBox="0.00 0.00 760.00 246.50" xmlns="http://www.w3.org/2000/svg" xmlns:xlink="http://www.w3.org/1999/xlink">
<g id="graph0" class="graph" transform="scale(1 1) rotate(0) translate(4 242.5)">
<title>stop_requested</title>
<polygon fill="white" stroke="transparent" points="-4,4 -4,-242.5 756,-242.5 756,4 -4,4"/>
<!-- Node1 -->
<g id="node1" class="node">
<title>Node1</title>
<g id="a_node1"><a xlink:title=" ">
<polygon fill="#bfbfbf" stroke="black" points="660,-57.5 660,-76.5 752,-76.5 752,-57.5 660,-57.5"/>
<text text-anchor="middle" x="706" y="-64.5" font-family="Helvetica,sans-Serif" font-size="10.00">stop_requested</text>
</a>
</g>
</g>
<!-- Node2 -->
<g id="node2" class="node">
<title>Node2</title>
<g id="a_node2"><a xlink:href="namespacepa_1_1detail.html#aa916ebec71616d1d0379aaaaca02fc19" target="_top" xlink:title="Check all stop conditions (required tolerance reached, out of time, maximum number of iterations exce...">
<polygon fill="white" stroke="black" points="488,-115 488,-145 602,-145 602,-115 488,-115"/>
<text text-anchor="start" x="496" y="-133" font-family="Helvetica,sans-Serif" font-size="10.00">pa::detail::check_all</text>
<text text-anchor="middle" x="545" y="-122" font-family="Helvetica,sans-Serif" font-size="10.00">_stop_conditions</text>
</a>
</g>
</g>
<!-- Node1&#45;&gt;Node2 -->
<g id="edge1" class="edge">
<title>Node1&#45;&gt;Node2</title>
<path fill="none" stroke="midnightblue" d="M677.29,-81.08C661.82,-88.67 642.08,-97.9 624,-105 615.13,-108.48 605.56,-111.86 596.27,-114.94"/>
<polygon fill="midnightblue" stroke="midnightblue" points="678.91,-84.18 686.32,-76.6 675.8,-77.91 678.91,-84.18"/>
</g>
<!-- Node10 -->
<g id="node10" class="node">
<title>Node10</title>
<g id="a_node10"><a xlink:href="classpa_1_1LBFGSSolver.html#a8540540028b02dfe8b7e3ec0c49c07dd" target="_top" xlink:title=" ">
<polygon fill="white" stroke="black" points="469,-76.5 469,-95.5 621,-95.5 621,-76.5 469,-76.5"/>
<text text-anchor="middle" x="545" y="-83.5" font-family="Helvetica,sans-Serif" font-size="10.00">pa::LBFGSSolver::operator()</text>
</a>
</g>
</g>
<!-- Node1&#45;&gt;Node10 -->
<g id="edge9" class="edge">
<title>Node1&#45;&gt;Node10</title>
<path fill="none" stroke="midnightblue" d="M649.66,-73.61C640.41,-74.72 630.68,-75.88 621.03,-77.03"/>
<polygon fill="midnightblue" stroke="midnightblue" points="650.35,-77.06 659.86,-72.39 649.52,-70.11 650.35,-77.06"/>
</g>
<!-- Node11 -->
<g id="node11" class="node">
<title>Node11</title>
<g id="a_node11"><a xlink:href="classpa_1_1LBFGSBSolver.html#a8540540028b02dfe8b7e3ec0c49c07dd" target="_top" xlink:title=" ">
<polygon fill="white" stroke="black" points="466,-38.5 466,-57.5 624,-57.5 624,-38.5 466,-38.5"/>
<text text-anchor="middle" x="545" y="-45.5" font-family="Helvetica,sans-Serif" font-size="10.00">pa::LBFGSBSolver::operator()</text>
</a>
</g>
</g>
<!-- Node1&#45;&gt;Node11 -->
<g id="edge10" class="edge">
<title>Node1&#45;&gt;Node11</title>
<path fill="none" stroke="midnightblue" d="M649.89,-60.42C641.54,-59.42 632.78,-58.37 624.05,-57.33"/>
<polygon fill="midnightblue" stroke="midnightblue" points="649.52,-63.89 659.86,-61.61 650.35,-56.94 649.52,-63.89"/>
</g>
<!-- Node12 -->
<g id="node12" class="node">
<title>Node12</title>
<g id="a_node12"><a xlink:href="classpa_1_1PGASolver.html#af516b794e244432023aea7ba3cd0d1d8" target="_top" xlink:title=" ">
<polygon fill="white" stroke="black" points="475,-0.5 475,-19.5 615,-19.5 615,-0.5 475,-0.5"/>
<text text-anchor="middle" x="545" y="-7.5" font-family="Helvetica,sans-Serif" font-size="10.00">pa::PGASolver::operator()</text>
</a>
</g>
</g>
<!-- Node1&#45;&gt;Node12 -->
<g id="edge11" class="edge">
<title>Node1&#45;&gt;Node12</title>
<path fill="none" stroke="midnightblue" d="M678.39,-52.87C662.85,-45.04 642.68,-35.58 624,-29 613.75,-25.39 602.5,-22.21 591.82,-19.54"/>
<polygon fill="midnightblue" stroke="midnightblue" points="676.92,-56.05 687.42,-57.5 680.11,-49.82 676.92,-56.05"/>
</g>
<!-- Node3 -->
<g id="node3" class="node">
<title>Node3</title>
<g id="a_node3"><a xlink:href="classpa_1_1SecondOrderPANOCSolver.html#acb04b3f19dafad9b4e7e7c1c19018d19" target="_top" xlink:title=" ">
<polygon fill="white" stroke="black" points="259,-208 259,-238 420,-238 420,-208 259,-208"/>
<text text-anchor="start" x="267" y="-226" font-family="Helvetica,sans-Serif" font-size="10.00">pa::SecondOrderPANOCSolver</text>
<text text-anchor="middle" x="339.5" y="-215" font-family="Helvetica,sans-Serif" font-size="10.00">::operator()</text>
</a>
</g>
</g>
<!-- Node2&#45;&gt;Node3 -->
<g id="edge2" class="edge">
<title>Node2&#45;&gt;Node3</title>
<path fill="none" stroke="midnightblue" d="M514.77,-150.87C492.44,-166.01 460.43,-186.02 430,-199 422.16,-202.34 413.73,-205.33 405.29,-207.97"/>
<polygon fill="midnightblue" stroke="midnightblue" points="516.86,-153.68 523.12,-145.13 512.9,-147.91 516.86,-153.68"/>
</g>
<!-- Node4 -->
<g id="node4" class="node">
<title>Node4</title>
<g id="a_node4"><a xlink:href="classpa_1_1StructuredPANOCLBFGSSolver.html#ade95d8a7a1892d4087d6fffc958cde6e" target="_top" xlink:title=" ">
<polygon fill="white" stroke="black" points="249,-159 249,-189 430,-189 430,-159 249,-159"/>
<text text-anchor="start" x="257" y="-177" font-family="Helvetica,sans-Serif" font-size="10.00">pa::StructuredPANOCLBFGSSolver</text>
<text text-anchor="middle" x="339.5" y="-166" font-family="Helvetica,sans-Serif" font-size="10.00">::operator()</text>
</a>
</g>
</g>
<!-- Node2&#45;&gt;Node4 -->
<g id="edge3" class="edge">
<title>Node2&#45;&gt;Node4</title>
<path fill="none" stroke="midnightblue" d="M478.03,-144.26C456.24,-148.98 431.93,-154.23 409.89,-159"/>
<polygon fill="midnightblue" stroke="midnightblue" points="478.82,-147.67 487.85,-142.14 477.34,-140.83 478.82,-147.67"/>
</g>
<!-- Node5 -->
<g id="node5" class="node">
<title>Node5</title>
<g id="a_node5"><a xlink:href="classpa_1_1GAAPGASolver.html#a570ec001ea8eee359be8a1b90b782cfb" target="_top" xlink:title=" ">
<polygon fill="white" stroke="black" points="259,-120.5 259,-139.5 420,-139.5 420,-120.5 259,-120.5"/>
<text text-anchor="middle" x="339.5" y="-127.5" font-family="Helvetica,sans-Serif" font-size="10.00">pa::GAAPGASolver::operator()</text>
</a>
</g>
</g>
<!-- Node2&#45;&gt;Node5 -->
<g id="edge4" class="edge">
<title>Node2&#45;&gt;Node5</title>
<path fill="none" stroke="midnightblue" d="M477.82,-130C459.39,-130 439.18,-130 420.07,-130"/>
<polygon fill="midnightblue" stroke="midnightblue" points="477.85,-133.5 487.85,-130 477.85,-126.5 477.85,-133.5"/>
</g>
<!-- Node6 -->
<g id="node6" class="node">
<title>Node6</title>
<g id="a_node6"><a xlink:href="classpa_1_1PANOCSolverFull.html#adc37030e7641b91004d8c509489bc917" target="_top" xlink:title=" ">
<polygon fill="white" stroke="black" points="281.5,-71 281.5,-101 397.5,-101 397.5,-71 281.5,-71"/>
<text text-anchor="start" x="289.5" y="-89" font-family="Helvetica,sans-Serif" font-size="10.00">pa::PANOCSolverFull</text>
<text text-anchor="middle" x="339.5" y="-78" font-family="Helvetica,sans-Serif" font-size="10.00">::operator()</text>
</a>
</g>
</g>
<!-- Node2&#45;&gt;Node6 -->
<g id="edge5" class="edge">
<title>Node2&#45;&gt;Node6</title>
<path fill="none" stroke="midnightblue" d="M477.75,-115.67C451.85,-110.08 422.45,-103.72 397.52,-98.33"/>
<polygon fill="midnightblue" stroke="midnightblue" points="477.34,-119.17 487.85,-117.86 478.82,-112.33 477.34,-119.17"/>
</g>
<!-- Node7 -->
<g id="node7" class="node">
<title>Node7</title>
<g id="a_node7"><a xlink:href="namespacepa.html#a2b97bf67604c439eca0a540664930d61" target="_top" xlink:title=" ">
<polygon fill="white" stroke="black" points="294,-32.5 294,-51.5 385,-51.5 385,-32.5 294,-32.5"/>
<text text-anchor="middle" x="339.5" y="-39.5" font-family="Helvetica,sans-Serif" font-size="10.00">pa::panoc_impl</text>
</a>
</g>
</g>
<!-- Node2&#45;&gt;Node7 -->
<g id="edge6" class="edge">
<title>Node2&#45;&gt;Node7</title>
<path fill="none" stroke="midnightblue" d="M478.48,-112.2C474.12,-110.05 469.91,-107.66 466,-105 445.11,-90.78 451.58,-74.14 430,-61 416.57,-52.82 400.14,-48.12 385.04,-45.44"/>
<polygon fill="midnightblue" stroke="midnightblue" points="477.06,-115.4 487.62,-116.27 479.91,-109 477.06,-115.4"/>
</g>
<!-- Node8 -->
<g id="node8" class="node">
<title>Node8</title>
<g id="a_node8"><a xlink:href="namespacepa.html#adf74e7674514afed3ae1c356ffcb9e45" target="_top" xlink:title=" ">
<polygon fill="white" stroke="black" points="149,-32.5 149,-51.5 213,-51.5 213,-32.5 149,-32.5"/>
<text text-anchor="middle" x="181" y="-39.5" font-family="Helvetica,sans-Serif" font-size="10.00">pa::panoc</text>
</a>
</g>
</g>
<!-- Node7&#45;&gt;Node8 -->
<g id="edge7" class="edge">
<title>Node7&#45;&gt;Node8</title>
<path fill="none" stroke="midnightblue" d="M283.47,-42C260.01,-42 233.49,-42 213.44,-42"/>
<polygon fill="midnightblue" stroke="midnightblue" points="283.65,-45.5 293.65,-42 283.65,-38.5 283.65,-45.5"/>
</g>
<!-- Node9 -->
<g id="node9" class="node">
<title>Node9</title>
<g id="a_node9"><a xlink:href="panocpy_8cpp.html#a874ce6effe8570e8994966f291e5e321" target="_top" xlink:title=" ">
<polygon fill="white" stroke="black" points="0,-32.5 0,-51.5 113,-51.5 113,-32.5 0,-32.5"/>
<text text-anchor="middle" x="56.5" y="-39.5" font-family="Helvetica,sans-Serif" font-size="10.00">PYBIND11_MODULE</text>
</a>
</g>
</g>
<!-- Node8&#45;&gt;Node9 -->
<g id="edge8" class="edge">
<title>Node8&#45;&gt;Node9</title>
<path fill="none" stroke="midnightblue" d="M138.52,-42C130.45,-42 121.88,-42 113.43,-42"/>
<polygon fill="midnightblue" stroke="midnightblue" points="138.77,-45.5 148.77,-42 138.77,-38.5 138.77,-45.5"/>
</g>
</g>
</svg>
