<?xml version="1.0" encoding="UTF-8" standalone="no"?>
<!DOCTYPE svg PUBLIC "-//W3C//DTD SVG 1.1//EN"
 "http://www.w3.org/Graphics/SVG/1.1/DTD/svg11.dtd">
<!-- Generated by graphviz version 2.43.0 (0)
 -->
<!-- Title: guarded&#45;aa&#45;pga.hpp Pages: 1 -->
<svg width="1128pt" height="330pt"
 viewBox="0.00 0.00 1127.50 330.00" xmlns="http://www.w3.org/2000/svg" xmlns:xlink="http://www.w3.org/1999/xlink">
<g id="graph0" class="graph" transform="scale(1 1) rotate(0) translate(4 326)">
<title>guarded&#45;aa&#45;pga.hpp</title>
<polygon fill="white" stroke="transparent" points="-4,4 -4,-326 1123.5,-326 1123.5,4 -4,4"/>
<!-- Node1 -->
<g id="node1" class="node">
<title>Node1</title>
<g id="a_node1"><a xlink:title=" ">
<polygon fill="#bfbfbf" stroke="black" points="633,-302.5 633,-321.5 748,-321.5 748,-302.5 633,-302.5"/>
<text text-anchor="middle" x="690.5" y="-309.5" font-family="Helvetica,sans-Serif" font-size="10.00">guarded&#45;aa&#45;pga.hpp</text>
</a>
</g>
</g>
<!-- Node2 -->
<g id="node2" class="node">
<title>Node2</title>
<g id="a_node2"><a xlink:href="panoc-stop-crit_8hpp.html" target="_top" xlink:title=" ">
<polygon fill="white" stroke="black" points="110,-168.5 110,-198.5 229,-198.5 229,-168.5 110,-168.5"/>
<text text-anchor="start" x="118" y="-186.5" font-family="Helvetica,sans-Serif" font-size="10.00">panoc&#45;alm/inner/decl</text>
<text text-anchor="middle" x="169.5" y="-175.5" font-family="Helvetica,sans-Serif" font-size="10.00">/panoc&#45;stop&#45;crit.hpp</text>
</a>
</g>
</g>
<!-- Node1&#45;&gt;Node2 -->
<g id="edge1" class="edge">
<title>Node1&#45;&gt;Node2</title>
<path fill="none" stroke="midnightblue" d="M632.8,-310.96C557.87,-309.36 423.85,-301.22 315.5,-266 271.66,-251.75 226.02,-223.81 197.69,-204.66"/>
<polygon fill="midnightblue" stroke="midnightblue" points="199.35,-201.55 189.13,-198.78 195.39,-207.32 199.35,-201.55"/>
</g>
<!-- Node4 -->
<g id="node4" class="node">
<title>Node4</title>
<g id="a_node4"><a xlink:title=" ">
<polygon fill="white" stroke="#bfbfbf" points="0,-112.5 0,-131.5 65,-131.5 65,-112.5 0,-112.5"/>
<text text-anchor="middle" x="32.5" y="-119.5" font-family="Helvetica,sans-Serif" font-size="10.00">stdexcept</text>
</a>
</g>
</g>
<!-- Node1&#45;&gt;Node4 -->
<g id="edge36" class="edge">
<title>Node1&#45;&gt;Node4</title>
<path fill="none" stroke="midnightblue" d="M632.85,-311.21C546.93,-310.19 380.89,-303.01 245.5,-266 177.02,-247.28 157.57,-241.22 100.5,-199 77.68,-182.12 56.78,-156.58 44.33,-139.84"/>
<polygon fill="midnightblue" stroke="midnightblue" points="47.04,-137.61 38.34,-131.56 41.37,-141.71 47.04,-137.61"/>
</g>
<!-- Node5 -->
<g id="node5" class="node">
<title>Node5</title>
<g id="a_node5"><a xlink:href="anderson-helpers_8hpp.html" target="_top" xlink:title=" ">
<polygon fill="white" stroke="black" points="325,-235.5 325,-265.5 452,-265.5 452,-235.5 325,-235.5"/>
<text text-anchor="start" x="333" y="-253.5" font-family="Helvetica,sans-Serif" font-size="10.00">panoc&#45;alm/inner/detail</text>
<text text-anchor="middle" x="388.5" y="-242.5" font-family="Helvetica,sans-Serif" font-size="10.00">/anderson&#45;helpers.hpp</text>
</a>
</g>
</g>
<!-- Node1&#45;&gt;Node5 -->
<g id="edge4" class="edge">
<title>Node1&#45;&gt;Node5</title>
<path fill="none" stroke="midnightblue" d="M647.23,-302.48C598.97,-292.97 520.08,-277.42 462.08,-266"/>
<polygon fill="midnightblue" stroke="midnightblue" points="462.73,-262.56 452.24,-264.06 461.37,-269.42 462.73,-262.56"/>
</g>
<!-- Node14 -->
<g id="node14" class="node">
<title>Node14</title>
<g id="a_node14"><a xlink:href="panoc-helpers_8hpp.html" target="_top" xlink:title=" ">
<polygon fill="white" stroke="black" points="478,-235.5 478,-265.5 605,-265.5 605,-235.5 478,-235.5"/>
<text text-anchor="start" x="486" y="-253.5" font-family="Helvetica,sans-Serif" font-size="10.00">panoc&#45;alm/inner/detail</text>
<text text-anchor="middle" x="541.5" y="-242.5" font-family="Helvetica,sans-Serif" font-size="10.00">/panoc&#45;helpers.hpp</text>
</a>
</g>
</g>
<!-- Node1&#45;&gt;Node14 -->
<g id="edge14" class="edge">
<title>Node1&#45;&gt;Node14</title>
<path fill="none" stroke="midnightblue" d="M669.15,-302.48C647.56,-293.85 613.53,-280.26 586.04,-269.29"/>
<polygon fill="midnightblue" stroke="midnightblue" points="587.2,-265.98 576.62,-265.52 584.61,-272.48 587.2,-265.98"/>
</g>
<!-- Node15 -->
<g id="node15" class="node">
<title>Node15</title>
<g id="a_node15"><a xlink:href="atomic__stop__signal_8hpp.html" target="_top" xlink:title=" ">
<polygon fill="white" stroke="black" points="635.5,-168.5 635.5,-198.5 759.5,-198.5 759.5,-168.5 635.5,-168.5"/>
<text text-anchor="start" x="643.5" y="-186.5" font-family="Helvetica,sans-Serif" font-size="10.00">panoc&#45;alm/util/atomic</text>
<text text-anchor="middle" x="697.5" y="-175.5" font-family="Helvetica,sans-Serif" font-size="10.00">_stop_signal.hpp</text>
</a>
</g>
</g>
<!-- Node1&#45;&gt;Node15 -->
<g id="edge27" class="edge">
<title>Node1&#45;&gt;Node15</title>
<path fill="none" stroke="midnightblue" d="M681.48,-302.34C673.43,-293.93 662.2,-280.36 657.5,-266 653.21,-252.91 652.97,-248.01 657.5,-235 661.14,-224.54 667.95,-214.62 674.93,-206.38"/>
<polygon fill="midnightblue" stroke="midnightblue" points="677.72,-208.51 681.85,-198.75 672.54,-203.81 677.72,-208.51"/>
</g>
<!-- Node21 -->
<g id="node21" class="node">
<title>Node21</title>
<g id="a_node21"><a xlink:href="solverstatus_8hpp.html" target="_top" xlink:title=" ">
<polygon fill="white" stroke="black" points="778,-174 778,-193 949,-193 949,-174 778,-174"/>
<text text-anchor="middle" x="863.5" y="-181" font-family="Helvetica,sans-Serif" font-size="10.00">panoc&#45;alm/util/solverstatus.hpp</text>
</a>
</g>
</g>
<!-- Node1&#45;&gt;Node21 -->
<g id="edge30" class="edge">
<title>Node1&#45;&gt;Node21</title>
<path fill="none" stroke="midnightblue" d="M688.21,-302.37C684.68,-287 679.85,-254.66 695.5,-235 709.24,-217.74 761.24,-203.84 803.79,-195.03"/>
<polygon fill="midnightblue" stroke="midnightblue" points="804.71,-198.41 813.82,-193.01 803.32,-191.55 804.71,-198.41"/>
</g>
<!-- Node23 -->
<g id="node23" class="node">
<title>Node23</title>
<g id="a_node23"><a xlink:href="lipschitz_8hpp.html" target="_top" xlink:title=" ">
<polygon fill="white" stroke="black" points="967.5,-174 967.5,-193 1119.5,-193 1119.5,-174 967.5,-174"/>
<text text-anchor="middle" x="1043.5" y="-181" font-family="Helvetica,sans-Serif" font-size="10.00">panoc&#45;alm/util/lipschitz.hpp</text>
</a>
</g>
</g>
<!-- Node1&#45;&gt;Node23 -->
<g id="edge28" class="edge">
<title>Node1&#45;&gt;Node23</title>
<path fill="none" stroke="midnightblue" d="M692.15,-302.26C695.69,-286.11 705.64,-251.72 728.5,-235 811.66,-174.17 855.81,-215.56 957.5,-199 965.88,-197.64 974.71,-196.17 983.4,-194.72"/>
<polygon fill="midnightblue" stroke="midnightblue" points="984.21,-198.13 993.49,-193.03 983.05,-191.23 984.21,-198.13"/>
</g>
<!-- Node24 -->
<g id="node24" class="node">
<title>Node24</title>
<g id="a_node24"><a xlink:title=" ">
<polygon fill="white" stroke="#bfbfbf" points="737.5,-241 737.5,-260 789.5,-260 789.5,-241 737.5,-241"/>
<text text-anchor="middle" x="763.5" y="-248" font-family="Helvetica,sans-Serif" font-size="10.00">cassert</text>
</a>
</g>
</g>
<!-- Node1&#45;&gt;Node24 -->
<g id="edge31" class="edge">
<title>Node1&#45;&gt;Node24</title>
<path fill="none" stroke="midnightblue" d="M700.96,-302.48C712.45,-293.11 731.13,-277.88 745.09,-266.51"/>
<polygon fill="midnightblue" stroke="midnightblue" points="747.52,-269.04 753.06,-260.01 743.1,-263.61 747.52,-269.04"/>
</g>
<!-- Node25 -->
<g id="node25" class="node">
<title>Node25</title>
<g id="a_node25"><a xlink:title=" ">
<polygon fill="white" stroke="#bfbfbf" points="807.5,-241 807.5,-260 857.5,-260 857.5,-241 807.5,-241"/>
<text text-anchor="middle" x="832.5" y="-248" font-family="Helvetica,sans-Serif" font-size="10.00">chrono</text>
</a>
</g>
</g>
<!-- Node1&#45;&gt;Node25 -->
<g id="edge32" class="edge">
<title>Node1&#45;&gt;Node25</title>
<path fill="none" stroke="midnightblue" d="M711.23,-302.42C732.98,-293.41 768.18,-278.78 798.5,-266 799.9,-265.41 801.34,-264.8 802.79,-264.19"/>
<polygon fill="midnightblue" stroke="midnightblue" points="804.54,-267.25 812.38,-260.12 801.8,-260.8 804.54,-267.25"/>
</g>
<!-- Node26 -->
<g id="node26" class="node">
<title>Node26</title>
<g id="a_node26"><a xlink:title=" ">
<polygon fill="white" stroke="#bfbfbf" points="876,-241 876,-260 923,-260 923,-241 876,-241"/>
<text text-anchor="middle" x="899.5" y="-248" font-family="Helvetica,sans-Serif" font-size="10.00">cmath</text>
</a>
</g>
</g>
<!-- Node1&#45;&gt;Node26 -->
<g id="edge33" class="edge">
<title>Node1&#45;&gt;Node26</title>
<path fill="none" stroke="midnightblue" d="M731.6,-302.49C767.63,-294.57 821.18,-281.63 866.5,-266 868.36,-265.36 870.27,-264.65 872.18,-263.91"/>
<polygon fill="midnightblue" stroke="midnightblue" points="873.66,-267.09 881.56,-260.02 870.98,-260.62 873.66,-267.09"/>
</g>
<!-- Node27 -->
<g id="node27" class="node">
<title>Node27</title>
<g id="a_node27"><a xlink:title=" ">
<polygon fill="white" stroke="#bfbfbf" points="941.5,-241 941.5,-260 997.5,-260 997.5,-241 941.5,-241"/>
<text text-anchor="middle" x="969.5" y="-248" font-family="Helvetica,sans-Serif" font-size="10.00">iomanip</text>
</a>
</g>
</g>
<!-- Node1&#45;&gt;Node27 -->
<g id="edge34" class="edge">
<title>Node1&#45;&gt;Node27</title>
<path fill="none" stroke="midnightblue" d="M748.14,-303.22C797.39,-295.87 869.84,-283.37 931.5,-266 934.15,-265.25 936.87,-264.4 939.58,-263.49"/>
<polygon fill="midnightblue" stroke="midnightblue" points="941,-266.7 949.22,-260.01 938.62,-260.11 941,-266.7"/>
</g>
<!-- Node28 -->
<g id="node28" class="node">
<title>Node28</title>
<g id="a_node28"><a xlink:title=" ">
<polygon fill="white" stroke="#bfbfbf" points="1015.5,-241 1015.5,-260 1075.5,-260 1075.5,-241 1015.5,-241"/>
<text text-anchor="middle" x="1045.5" y="-248" font-family="Helvetica,sans-Serif" font-size="10.00">iostream</text>
</a>
</g>
</g>
<!-- Node1&#45;&gt;Node28 -->
<g id="edge35" class="edge">
<title>Node1&#45;&gt;Node28</title>
<path fill="none" stroke="midnightblue" d="M748.02,-306.54C811.9,-300.73 917.74,-288.54 1006.5,-266 1009.48,-265.24 1012.56,-264.33 1015.6,-263.35"/>
<polygon fill="midnightblue" stroke="midnightblue" points="1016.84,-266.63 1025.12,-260.02 1014.52,-260.02 1016.84,-266.63"/>
</g>
<!-- Node3 -->
<g id="node3" class="node">
<title>Node3</title>
<g id="a_node3"><a xlink:title=" ">
<polygon fill="white" stroke="#bfbfbf" points="83,-112.5 83,-131.5 140,-131.5 140,-112.5 83,-112.5"/>
<text text-anchor="middle" x="111.5" y="-119.5" font-family="Helvetica,sans-Serif" font-size="10.00">ostream</text>
</a>
</g>
</g>
<!-- Node2&#45;&gt;Node3 -->
<g id="edge2" class="edge">
<title>Node2&#45;&gt;Node3</title>
<path fill="none" stroke="midnightblue" d="M155.75,-168.4C147.15,-159.58 136.05,-148.18 127.11,-139.02"/>
<polygon fill="midnightblue" stroke="midnightblue" points="129.43,-136.38 119.94,-131.66 124.41,-141.26 129.43,-136.38"/>
</g>
<!-- Node2&#45;&gt;Node4 -->
<g id="edge3" class="edge">
<title>Node2&#45;&gt;Node4</title>
<path fill="none" stroke="midnightblue" d="M137.03,-168.4C114.15,-158.46 83.77,-145.26 61.66,-135.66"/>
<polygon fill="midnightblue" stroke="midnightblue" points="63,-132.43 52.43,-131.66 60.21,-138.85 63,-132.43"/>
</g>
<!-- Node6 -->
<g id="node6" class="node">
<title>Node6</title>
<g id="a_node6"><a xlink:href="limited-memory-qr_8hpp.html" target="_top" xlink:title=" ">
<polygon fill="white" stroke="black" points="314,-168.5 314,-198.5 447,-198.5 447,-168.5 314,-168.5"/>
<text text-anchor="start" x="322" y="-186.5" font-family="Helvetica,sans-Serif" font-size="10.00">panoc&#45;alm/inner/detail</text>
<text text-anchor="middle" x="380.5" y="-175.5" font-family="Helvetica,sans-Serif" font-size="10.00">/limited&#45;memory&#45;qr.hpp</text>
</a>
</g>
</g>
<!-- Node5&#45;&gt;Node6 -->
<g id="edge5" class="edge">
<title>Node5&#45;&gt;Node6</title>
<path fill="none" stroke="midnightblue" d="M386.76,-235.4C385.8,-227.56 384.57,-217.6 383.46,-208.57"/>
<polygon fill="midnightblue" stroke="midnightblue" points="386.93,-208.07 382.23,-198.58 379.98,-208.93 386.93,-208.07"/>
</g>
<!-- Node7 -->
<g id="node7" class="node">
<title>Node7</title>
<g id="a_node7"><a xlink:title=" ">
<polygon fill="white" stroke="#bfbfbf" points="410.5,-112.5 410.5,-131.5 486.5,-131.5 486.5,-112.5 410.5,-112.5"/>
<text text-anchor="middle" x="448.5" y="-119.5" font-family="Helvetica,sans-Serif" font-size="10.00">Eigen/Jacobi</text>
</a>
</g>
</g>
<!-- Node6&#45;&gt;Node7 -->
<g id="edge6" class="edge">
<title>Node6&#45;&gt;Node7</title>
<path fill="none" stroke="midnightblue" d="M396.62,-168.4C406.9,-159.4 420.25,-147.72 430.83,-138.47"/>
<polygon fill="midnightblue" stroke="midnightblue" points="433.38,-140.88 438.61,-131.66 428.77,-135.61 433.38,-140.88"/>
</g>
<!-- Node8 -->
<g id="node8" class="node">
<title>Node8</title>
<g id="a_node8"><a xlink:title=" ">
<polygon fill="white" stroke="#bfbfbf" points="160,-56.5 160,-75.5 213,-75.5 213,-56.5 160,-56.5"/>
<text text-anchor="middle" x="186.5" y="-63.5" font-family="Helvetica,sans-Serif" font-size="10.00">cstddef</text>
</a>
</g>
</g>
<!-- Node6&#45;&gt;Node8 -->
<g id="edge7" class="edge">
<title>Node6&#45;&gt;Node8</title>
<path fill="none" stroke="midnightblue" d="M313.8,-169.17C261.27,-158.01 195.57,-142.29 187.5,-132 177.39,-119.11 178.42,-99.93 181.22,-85.75"/>
<polygon fill="midnightblue" stroke="midnightblue" points="184.71,-86.2 183.65,-75.66 177.9,-84.55 184.71,-86.2"/>
</g>
<!-- Node9 -->
<g id="node9" class="node">
<title>Node9</title>
<g id="a_node9"><a xlink:href="ringbuffer_8hpp.html" target="_top" xlink:title=" ">
<polygon fill="white" stroke="black" points="196.5,-112.5 196.5,-131.5 354.5,-131.5 354.5,-112.5 196.5,-112.5"/>
<text text-anchor="middle" x="275.5" y="-119.5" font-family="Helvetica,sans-Serif" font-size="10.00">panoc&#45;alm/util/ringbuffer.hpp</text>
</a>
</g>
</g>
<!-- Node6&#45;&gt;Node9 -->
<g id="edge8" class="edge">
<title>Node6&#45;&gt;Node9</title>
<path fill="none" stroke="midnightblue" d="M355.62,-168.4C338.79,-158.86 316.66,-146.32 299.93,-136.84"/>
<polygon fill="midnightblue" stroke="midnightblue" points="301.2,-133.54 290.78,-131.66 297.75,-139.63 301.2,-133.54"/>
</g>
<!-- Node11 -->
<g id="node11" class="node">
<title>Node11</title>
<g id="a_node11"><a xlink:href="vec_8hpp.html" target="_top" xlink:title=" ">
<polygon fill="white" stroke="black" points="556.5,-56.5 556.5,-75.5 684.5,-75.5 684.5,-56.5 556.5,-56.5"/>
<text text-anchor="middle" x="620.5" y="-63.5" font-family="Helvetica,sans-Serif" font-size="10.00">panoc&#45;alm/util/vec.hpp</text>
</a>
</g>
</g>
<!-- Node6&#45;&gt;Node11 -->
<g id="edge11" class="edge">
<title>Node6&#45;&gt;Node11</title>
<path fill="none" stroke="midnightblue" d="M380.63,-168.38C381.58,-152.33 385.68,-126.5 401.5,-112 422.48,-92.77 491.27,-80.81 546.22,-74.09"/>
<polygon fill="midnightblue" stroke="midnightblue" points="546.78,-77.55 556.3,-72.9 545.96,-70.6 546.78,-77.55"/>
</g>
<!-- Node13 -->
<g id="node13" class="node">
<title>Node13</title>
<g id="a_node13"><a xlink:title=" ">
<polygon fill="white" stroke="#bfbfbf" points="505,-112.5 505,-131.5 574,-131.5 574,-112.5 505,-112.5"/>
<text text-anchor="middle" x="539.5" y="-119.5" font-family="Helvetica,sans-Serif" font-size="10.00">type_traits</text>
</a>
</g>
</g>
<!-- Node6&#45;&gt;Node13 -->
<g id="edge13" class="edge">
<title>Node6&#45;&gt;Node13</title>
<path fill="none" stroke="midnightblue" d="M418.18,-168.4C445.1,-158.33 480.95,-144.91 506.69,-135.28"/>
<polygon fill="midnightblue" stroke="midnightblue" points="508.23,-138.44 516.36,-131.66 505.77,-131.88 508.23,-138.44"/>
</g>
<!-- Node9&#45;&gt;Node8 -->
<g id="edge9" class="edge">
<title>Node9&#45;&gt;Node8</title>
<path fill="none" stroke="midnightblue" d="M261.2,-112.32C247.32,-103.9 226.01,-90.97 209.7,-81.07"/>
<polygon fill="midnightblue" stroke="midnightblue" points="211.13,-77.85 200.76,-75.65 207.5,-83.83 211.13,-77.85"/>
</g>
<!-- Node10 -->
<g id="node10" class="node">
<title>Node10</title>
<g id="a_node10"><a xlink:title=" ">
<polygon fill="white" stroke="#bfbfbf" points="249,-56.5 249,-75.5 302,-75.5 302,-56.5 249,-56.5"/>
<text text-anchor="middle" x="275.5" y="-63.5" font-family="Helvetica,sans-Serif" font-size="10.00">iterator</text>
</a>
</g>
</g>
<!-- Node9&#45;&gt;Node10 -->
<g id="edge10" class="edge">
<title>Node9&#45;&gt;Node10</title>
<path fill="none" stroke="midnightblue" d="M275.5,-112.08C275.5,-105.01 275.5,-94.86 275.5,-85.99"/>
<polygon fill="midnightblue" stroke="midnightblue" points="279,-85.75 275.5,-75.75 272,-85.75 279,-85.75"/>
</g>
<!-- Node12 -->
<g id="node12" class="node">
<title>Node12</title>
<g id="a_node12"><a xlink:title=" ">
<polygon fill="white" stroke="#bfbfbf" points="586,-0.5 586,-19.5 655,-19.5 655,-0.5 586,-0.5"/>
<text text-anchor="middle" x="620.5" y="-7.5" font-family="Helvetica,sans-Serif" font-size="10.00">Eigen/Core</text>
</a>
</g>
</g>
<!-- Node11&#45;&gt;Node12 -->
<g id="edge12" class="edge">
<title>Node11&#45;&gt;Node12</title>
<path fill="none" stroke="midnightblue" d="M620.5,-56.08C620.5,-49.01 620.5,-38.86 620.5,-29.99"/>
<polygon fill="midnightblue" stroke="midnightblue" points="624,-29.75 620.5,-19.75 617,-29.75 624,-29.75"/>
</g>
<!-- Node14&#45;&gt;Node2 -->
<g id="edge15" class="edge">
<title>Node14&#45;&gt;Node2</title>
<path fill="none" stroke="midnightblue" d="M477.83,-238.07C471.97,-237.03 466.13,-235.99 460.5,-235 384.84,-221.66 298.06,-206.64 239.1,-196.47"/>
<polygon fill="midnightblue" stroke="midnightblue" points="239.6,-193.01 229.15,-194.76 238.41,-199.9 239.6,-193.01"/>
</g>
<!-- Node14&#45;&gt;Node4 -->
<g id="edge26" class="edge">
<title>Node14&#45;&gt;Node4</title>
<path fill="none" stroke="midnightblue" d="M477.76,-237.58C418.92,-226.28 336.03,-209.51 304.5,-199 273.37,-188.63 268.6,-178.47 237.5,-168 237.38,-167.96 135.45,-145.59 75.39,-132.41"/>
<polygon fill="midnightblue" stroke="midnightblue" points="75.93,-128.95 65.41,-130.22 74.43,-135.78 75.93,-128.95"/>
</g>
<!-- Node14&#45;&gt;Node15 -->
<g id="edge16" class="edge">
<title>Node14&#45;&gt;Node15</title>
<path fill="none" stroke="midnightblue" d="M575.35,-235.4C598.55,-225.73 629.53,-212.82 654.48,-202.43"/>
<polygon fill="midnightblue" stroke="midnightblue" points="655.83,-205.65 663.72,-198.58 653.14,-199.19 655.83,-205.65"/>
</g>
<!-- Node17 -->
<g id="node17" class="node">
<title>Node17</title>
<g id="a_node17"><a xlink:href="include_2panoc-alm_2util_2problem_8hpp.html" target="_top" xlink:title=" ">
<polygon fill="white" stroke="black" points="465.5,-174 465.5,-193 617.5,-193 617.5,-174 465.5,-174"/>
<text text-anchor="middle" x="541.5" y="-181" font-family="Helvetica,sans-Serif" font-size="10.00">panoc&#45;alm/util/problem.hpp</text>
</a>
</g>
</g>
<!-- Node14&#45;&gt;Node17 -->
<g id="edge18" class="edge">
<title>Node14&#45;&gt;Node17</title>
<path fill="none" stroke="midnightblue" d="M541.5,-235.4C541.5,-226.06 541.5,-213.71 541.5,-203.52"/>
<polygon fill="midnightblue" stroke="midnightblue" points="545,-203.19 541.5,-193.19 538,-203.19 545,-203.19"/>
</g>
<!-- Node14&#45;&gt;Node21 -->
<g id="edge24" class="edge">
<title>Node14&#45;&gt;Node21</title>
<path fill="none" stroke="midnightblue" d="M605.12,-236.66C665.33,-224.5 754.67,-206.47 810.95,-195.11"/>
<polygon fill="midnightblue" stroke="midnightblue" points="811.95,-198.48 821.06,-193.07 810.57,-191.62 811.95,-198.48"/>
</g>
<!-- Node16 -->
<g id="node16" class="node">
<title>Node16</title>
<g id="a_node16"><a xlink:title=" ">
<polygon fill="white" stroke="#bfbfbf" points="826.5,-112.5 826.5,-131.5 876.5,-131.5 876.5,-112.5 826.5,-112.5"/>
<text text-anchor="middle" x="851.5" y="-119.5" font-family="Helvetica,sans-Serif" font-size="10.00">atomic</text>
</a>
</g>
</g>
<!-- Node15&#45;&gt;Node16 -->
<g id="edge17" class="edge">
<title>Node15&#45;&gt;Node16</title>
<path fill="none" stroke="midnightblue" d="M734,-168.4C760.07,-158.33 794.79,-144.91 819.72,-135.28"/>
<polygon fill="midnightblue" stroke="midnightblue" points="821.03,-138.53 829.09,-131.66 818.5,-132 821.03,-138.53"/>
</g>
<!-- Node17&#45;&gt;Node13 -->
<g id="edge23" class="edge">
<title>Node17&#45;&gt;Node13</title>
<path fill="none" stroke="midnightblue" d="M541.21,-173.98C540.93,-165.58 540.49,-152.48 540.13,-141.66"/>
<polygon fill="midnightblue" stroke="midnightblue" points="543.62,-141.39 539.79,-131.51 536.62,-141.62 543.62,-141.39"/>
</g>
<!-- Node18 -->
<g id="node18" class="node">
<title>Node18</title>
<g id="a_node18"><a xlink:href="box_8hpp.html" target="_top" xlink:title=" ">
<polygon fill="white" stroke="black" points="592.5,-112.5 592.5,-131.5 648.5,-131.5 648.5,-112.5 592.5,-112.5"/>
<text text-anchor="middle" x="620.5" y="-119.5" font-family="Helvetica,sans-Serif" font-size="10.00">box.hpp</text>
</a>
</g>
</g>
<!-- Node17&#45;&gt;Node18 -->
<g id="edge19" class="edge">
<title>Node17&#45;&gt;Node18</title>
<path fill="none" stroke="midnightblue" d="M552.82,-173.98C565.37,-164.52 585.85,-149.1 601,-137.69"/>
<polygon fill="midnightblue" stroke="midnightblue" points="603.32,-140.32 609.2,-131.51 599.11,-134.73 603.32,-140.32"/>
</g>
<!-- Node19 -->
<g id="node19" class="node">
<title>Node19</title>
<g id="a_node19"><a xlink:title=" ">
<polygon fill="white" stroke="#bfbfbf" points="667,-112.5 667,-131.5 732,-131.5 732,-112.5 667,-112.5"/>
<text text-anchor="middle" x="699.5" y="-119.5" font-family="Helvetica,sans-Serif" font-size="10.00">functional</text>
</a>
</g>
</g>
<!-- Node17&#45;&gt;Node19 -->
<g id="edge21" class="edge">
<title>Node17&#45;&gt;Node19</title>
<path fill="none" stroke="midnightblue" d="M564.14,-173.98C591.24,-163.77 636.81,-146.61 667.5,-135.05"/>
<polygon fill="midnightblue" stroke="midnightblue" points="668.78,-138.31 676.9,-131.51 666.31,-131.76 668.78,-138.31"/>
</g>
<!-- Node20 -->
<g id="node20" class="node">
<title>Node20</title>
<g id="a_node20"><a xlink:title=" ">
<polygon fill="white" stroke="#bfbfbf" points="750.5,-112.5 750.5,-131.5 808.5,-131.5 808.5,-112.5 750.5,-112.5"/>
<text text-anchor="middle" x="779.5" y="-119.5" font-family="Helvetica,sans-Serif" font-size="10.00">memory</text>
</a>
</g>
</g>
<!-- Node17&#45;&gt;Node20 -->
<g id="edge22" class="edge">
<title>Node17&#45;&gt;Node20</title>
<path fill="none" stroke="midnightblue" d="M575.6,-173.98C619.22,-163.07 694.58,-144.23 740.45,-132.76"/>
<polygon fill="midnightblue" stroke="midnightblue" points="741.48,-136.11 750.33,-130.29 739.78,-129.32 741.48,-136.11"/>
</g>
<!-- Node18&#45;&gt;Node11 -->
<g id="edge20" class="edge">
<title>Node18&#45;&gt;Node11</title>
<path fill="none" stroke="midnightblue" d="M620.5,-112.08C620.5,-105.01 620.5,-94.86 620.5,-85.99"/>
<polygon fill="midnightblue" stroke="midnightblue" points="624,-85.75 620.5,-75.75 617,-85.75 624,-85.75"/>
</g>
<!-- Node22 -->
<g id="node22" class="node">
<title>Node22</title>
<g id="a_node22"><a xlink:title=" ">
<polygon fill="white" stroke="#bfbfbf" points="894.5,-112.5 894.5,-131.5 942.5,-131.5 942.5,-112.5 894.5,-112.5"/>
<text text-anchor="middle" x="918.5" y="-119.5" font-family="Helvetica,sans-Serif" font-size="10.00">iosfwd</text>
</a>
</g>
</g>
<!-- Node21&#45;&gt;Node22 -->
<g id="edge25" class="edge">
<title>Node21&#45;&gt;Node22</title>
<path fill="none" stroke="midnightblue" d="M871.38,-173.98C879.79,-164.87 893.32,-150.24 903.73,-138.98"/>
<polygon fill="midnightblue" stroke="midnightblue" points="906.42,-141.23 910.63,-131.51 901.28,-136.48 906.42,-141.23"/>
</g>
<!-- Node23&#45;&gt;Node11 -->
<g id="edge29" class="edge">
<title>Node23&#45;&gt;Node11</title>
<path fill="none" stroke="midnightblue" d="M1035.35,-173.79C1020.38,-158.41 986.8,-126.69 951.5,-112 906.46,-93.25 777.67,-79.71 694.66,-72.63"/>
<polygon fill="midnightblue" stroke="midnightblue" points="694.78,-69.13 684.52,-71.78 694.19,-76.1 694.78,-69.13"/>
</g>
</g>
</svg>
