<?xml version="1.0" encoding="UTF-8" standalone="no"?>
<!DOCTYPE svg PUBLIC "-//W3C//DTD SVG 1.1//EN"
 "http://www.w3.org/Graphics/SVG/1.1/DTD/svg11.dtd">
<!-- Generated by graphviz version 2.43.0 (0)
 -->
<!-- Title: himmelblau.cpp Pages: 1 -->
<svg width="311pt" height="319pt"
 viewBox="0.00 0.00 310.50 319.00" xmlns="http://www.w3.org/2000/svg" xmlns:xlink="http://www.w3.org/1999/xlink">
<g id="graph0" class="graph" transform="scale(1 1) rotate(0) translate(4 315)">
<title>himmelblau.cpp</title>
<polygon fill="white" stroke="transparent" points="-4,4 -4,-315 306.5,-315 306.5,4 -4,4"/>
<!-- Node1 -->
<g id="node1" class="node">
<title>Node1</title>
<g id="a_node1"><a xlink:title=" ">
<polygon fill="#bfbfbf" stroke="black" points="32.5,-291.5 32.5,-310.5 127.5,-310.5 127.5,-291.5 32.5,-291.5"/>
<text text-anchor="middle" x="80" y="-298.5" font-family="Helvetica,sans-Serif" font-size="10.00">himmelblau.cpp</text>
</a>
</g>
</g>
<!-- Node2 -->
<g id="node2" class="node">
<title>Node2</title>
<g id="a_node2"><a xlink:title=" ">
<polygon fill="white" stroke="#bfbfbf" points="0,-112.5 0,-131.5 58,-131.5 58,-112.5 0,-112.5"/>
<text text-anchor="middle" x="29" y="-119.5" font-family="Helvetica,sans-Serif" font-size="10.00">memory</text>
</a>
</g>
</g>
<!-- Node1&#45;&gt;Node2 -->
<g id="edge1" class="edge">
<title>Node1&#45;&gt;Node2</title>
<path fill="none" stroke="midnightblue" d="M72.27,-291.39C65.03,-282.81 54.52,-268.94 49,-255 33.84,-216.7 30.09,-167.97 29.22,-141.74"/>
<polygon fill="midnightblue" stroke="midnightblue" points="32.71,-141.6 28.99,-131.68 25.71,-141.76 32.71,-141.6"/>
</g>
<!-- Node3 -->
<g id="node3" class="node">
<title>Node3</title>
<g id="a_node3"><a xlink:href="himmelblau_8hpp.html" target="_top" xlink:title=" ">
<polygon fill="white" stroke="black" points="57.5,-224.5 57.5,-254.5 206.5,-254.5 206.5,-224.5 57.5,-224.5"/>
<text text-anchor="start" x="65.5" y="-242.5" font-family="Helvetica,sans-Serif" font-size="10.00">panoc&#45;alm/reference</text>
<text text-anchor="middle" x="132" y="-231.5" font-family="Helvetica,sans-Serif" font-size="10.00">&#45;problems/himmelblau.hpp</text>
</a>
</g>
</g>
<!-- Node1&#45;&gt;Node3 -->
<g id="edge2" class="edge">
<title>Node1&#45;&gt;Node3</title>
<path fill="none" stroke="midnightblue" d="M87.45,-291.48C94.1,-283.87 104.12,-272.4 112.98,-262.26"/>
<polygon fill="midnightblue" stroke="midnightblue" points="115.8,-264.36 119.74,-254.52 110.53,-259.75 115.8,-264.36"/>
</g>
<!-- Node4 -->
<g id="node4" class="node">
<title>Node4</title>
<g id="a_node4"><a xlink:href="include_2panoc-alm_2util_2problem_8hpp.html" target="_top" xlink:title=" ">
<polygon fill="white" stroke="black" points="57,-168.5 57,-187.5 209,-187.5 209,-168.5 57,-168.5"/>
<text text-anchor="middle" x="133" y="-175.5" font-family="Helvetica,sans-Serif" font-size="10.00">panoc&#45;alm/util/problem.hpp</text>
</a>
</g>
</g>
<!-- Node3&#45;&gt;Node4 -->
<g id="edge3" class="edge">
<title>Node3&#45;&gt;Node4</title>
<path fill="none" stroke="midnightblue" d="M132.24,-224.4C132.37,-216.47 132.54,-206.46 132.68,-197.86"/>
<polygon fill="midnightblue" stroke="midnightblue" points="136.19,-197.72 132.85,-187.66 129.19,-197.6 136.19,-197.72"/>
</g>
<!-- Node4&#45;&gt;Node2 -->
<g id="edge8" class="edge">
<title>Node4&#45;&gt;Node2</title>
<path fill="none" stroke="midnightblue" d="M116.29,-168.32C99.69,-159.7 74,-146.36 54.78,-136.39"/>
<polygon fill="midnightblue" stroke="midnightblue" points="56.16,-133.16 45.67,-131.65 52.93,-139.37 56.16,-133.16"/>
</g>
<!-- Node5 -->
<g id="node5" class="node">
<title>Node5</title>
<g id="a_node5"><a xlink:href="box_8hpp.html" target="_top" xlink:title=" ">
<polygon fill="white" stroke="black" points="76,-112.5 76,-131.5 132,-131.5 132,-112.5 76,-112.5"/>
<text text-anchor="middle" x="104" y="-119.5" font-family="Helvetica,sans-Serif" font-size="10.00">box.hpp</text>
</a>
</g>
</g>
<!-- Node4&#45;&gt;Node5 -->
<g id="edge4" class="edge">
<title>Node4&#45;&gt;Node5</title>
<path fill="none" stroke="midnightblue" d="M128.21,-168.08C124.24,-160.69 118.47,-149.95 113.57,-140.81"/>
<polygon fill="midnightblue" stroke="midnightblue" points="116.51,-138.91 108.7,-131.75 110.35,-142.22 116.51,-138.91"/>
</g>
<!-- Node8 -->
<g id="node8" class="node">
<title>Node8</title>
<g id="a_node8"><a xlink:title=" ">
<polygon fill="white" stroke="#bfbfbf" points="150.5,-112.5 150.5,-131.5 215.5,-131.5 215.5,-112.5 150.5,-112.5"/>
<text text-anchor="middle" x="183" y="-119.5" font-family="Helvetica,sans-Serif" font-size="10.00">functional</text>
</a>
</g>
</g>
<!-- Node4&#45;&gt;Node8 -->
<g id="edge7" class="edge">
<title>Node4&#45;&gt;Node8</title>
<path fill="none" stroke="midnightblue" d="M141.26,-168.08C148.46,-160.3 159.11,-148.8 167.85,-139.37"/>
<polygon fill="midnightblue" stroke="midnightblue" points="170.67,-141.47 174.9,-131.75 165.53,-136.71 170.67,-141.47"/>
</g>
<!-- Node9 -->
<g id="node9" class="node">
<title>Node9</title>
<g id="a_node9"><a xlink:title=" ">
<polygon fill="white" stroke="#bfbfbf" points="233.5,-112.5 233.5,-131.5 302.5,-131.5 302.5,-112.5 233.5,-112.5"/>
<text text-anchor="middle" x="268" y="-119.5" font-family="Helvetica,sans-Serif" font-size="10.00">type_traits</text>
</a>
</g>
</g>
<!-- Node4&#45;&gt;Node9 -->
<g id="edge9" class="edge">
<title>Node4&#45;&gt;Node9</title>
<path fill="none" stroke="midnightblue" d="M154.39,-168.44C176.71,-159.52 211.9,-145.44 237.21,-135.32"/>
<polygon fill="midnightblue" stroke="midnightblue" points="238.72,-138.48 246.71,-131.52 236.12,-131.98 238.72,-138.48"/>
</g>
<!-- Node6 -->
<g id="node6" class="node">
<title>Node6</title>
<g id="a_node6"><a xlink:href="vec_8hpp.html" target="_top" xlink:title=" ">
<polygon fill="white" stroke="black" points="76.5,-56.5 76.5,-75.5 131.5,-75.5 131.5,-56.5 76.5,-56.5"/>
<text text-anchor="middle" x="104" y="-63.5" font-family="Helvetica,sans-Serif" font-size="10.00">vec.hpp</text>
</a>
</g>
</g>
<!-- Node5&#45;&gt;Node6 -->
<g id="edge5" class="edge">
<title>Node5&#45;&gt;Node6</title>
<path fill="none" stroke="midnightblue" d="M104,-112.08C104,-105.01 104,-94.86 104,-85.99"/>
<polygon fill="midnightblue" stroke="midnightblue" points="107.5,-85.75 104,-75.75 100.5,-85.75 107.5,-85.75"/>
</g>
<!-- Node7 -->
<g id="node7" class="node">
<title>Node7</title>
<g id="a_node7"><a xlink:title=" ">
<polygon fill="white" stroke="#bfbfbf" points="69.5,-0.5 69.5,-19.5 138.5,-19.5 138.5,-0.5 69.5,-0.5"/>
<text text-anchor="middle" x="104" y="-7.5" font-family="Helvetica,sans-Serif" font-size="10.00">Eigen/Core</text>
</a>
</g>
</g>
<!-- Node6&#45;&gt;Node7 -->
<g id="edge6" class="edge">
<title>Node6&#45;&gt;Node7</title>
<path fill="none" stroke="midnightblue" d="M104,-56.08C104,-49.01 104,-38.86 104,-29.99"/>
<polygon fill="midnightblue" stroke="midnightblue" points="107.5,-29.75 104,-19.75 100.5,-29.75 107.5,-29.75"/>
</g>
</g>
</svg>
