<?xml version="1.0" encoding="UTF-8" standalone="no"?>
<!DOCTYPE svg PUBLIC "-//W3C//DTD SVG 1.1//EN"
 "http://www.w3.org/Graphics/SVG/1.1/DTD/svg11.dtd">
<!-- Generated by graphviz version 2.43.0 (0)
 -->
<!-- Title: problem.hpp Pages: 1 -->
<svg width="1728pt" height="308pt"
 viewBox="0.00 0.00 1728.00 308.00" xmlns="http://www.w3.org/2000/svg" xmlns:xlink="http://www.w3.org/1999/xlink">
<g id="graph0" class="graph" transform="scale(1 1) rotate(0) translate(4 304)">
<title>problem.hpp</title>
<polygon fill="white" stroke="transparent" points="-4,4 -4,-304 1724,-304 1724,4 -4,4"/>
<!-- Node1 -->
<g id="node1" class="node">
<title>Node1</title>
<g id="a_node1"><a xlink:title=" ">
<polygon fill="#bfbfbf" stroke="black" points="942,-280.5 942,-299.5 1020,-299.5 1020,-280.5 942,-280.5"/>
<text text-anchor="middle" x="981" y="-287.5" font-family="Helvetica,sans-Serif" font-size="10.00">problem.hpp</text>
</a>
</g>
</g>
<!-- Node2 -->
<g id="node2" class="node">
<title>Node2</title>
<g id="a_node2"><a xlink:href="decl_2alm_8hpp.html" target="_top" xlink:title=" ">
<polygon fill="white" stroke="black" points="329,-224.5 329,-243.5 385,-243.5 385,-224.5 329,-224.5"/>
<text text-anchor="middle" x="357" y="-231.5" font-family="Helvetica,sans-Serif" font-size="10.00">alm.hpp</text>
</a>
</g>
</g>
<!-- Node1&#45;&gt;Node2 -->
<g id="edge1" class="edge">
<title>Node1&#45;&gt;Node2</title>
<path fill="none" stroke="midnightblue" d="M931.77,-285.2C837.2,-277.82 623.57,-260.81 444,-244 424.35,-242.16 402.22,-239.87 385.2,-238.06"/>
<polygon fill="midnightblue" stroke="midnightblue" points="931.66,-288.7 941.9,-285.99 932.2,-281.72 931.66,-288.7"/>
</g>
<!-- Node12 -->
<g id="node12" class="node">
<title>Node12</title>
<g id="a_node12"><a xlink:href="inner_2decl_2panoc_8hpp.html" target="_top" xlink:title=" ">
<polygon fill="white" stroke="black" points="614.5,-224.5 614.5,-243.5 681.5,-243.5 681.5,-224.5 614.5,-224.5"/>
<text text-anchor="middle" x="648" y="-231.5" font-family="Helvetica,sans-Serif" font-size="10.00">panoc.hpp</text>
</a>
</g>
</g>
<!-- Node1&#45;&gt;Node12 -->
<g id="edge13" class="edge">
<title>Node1&#45;&gt;Node12</title>
<path fill="none" stroke="midnightblue" d="M931.69,-281C863.05,-269.87 740.51,-250 681.53,-240.44"/>
<polygon fill="midnightblue" stroke="midnightblue" points="931.39,-284.5 941.82,-282.65 932.51,-277.59 931.39,-284.5"/>
</g>
<!-- Node17 -->
<g id="node17" class="node">
<title>Node17</title>
<g id="a_node17"><a xlink:href="decl_2second-order-panoc_8hpp.html" target="_top" xlink:title=" ">
<polygon fill="white" stroke="black" points="1155,-224.5 1155,-243.5 1289,-243.5 1289,-224.5 1155,-224.5"/>
<text text-anchor="middle" x="1222" y="-231.5" font-family="Helvetica,sans-Serif" font-size="10.00">second&#45;order&#45;panoc.hpp</text>
</a>
</g>
</g>
<!-- Node1&#45;&gt;Node17 -->
<g id="edge29" class="edge">
<title>Node1&#45;&gt;Node17</title>
<path fill="none" stroke="midnightblue" d="M1029.12,-278.22C1074.66,-268.01 1142.11,-252.9 1183.99,-243.52"/>
<polygon fill="midnightblue" stroke="midnightblue" points="1028.18,-274.84 1019.19,-280.44 1029.71,-281.67 1028.18,-274.84"/>
</g>
<!-- Node20 -->
<g id="node20" class="node">
<title>Node20</title>
<g id="a_node20"><a xlink:href="decl_2structured-panoc-lbfgs_8hpp.html" target="_top" xlink:title=" ">
<polygon fill="white" stroke="black" points="874,-112.5 874,-131.5 1022,-131.5 1022,-112.5 874,-112.5"/>
<text text-anchor="middle" x="948" y="-119.5" font-family="Helvetica,sans-Serif" font-size="10.00">structured&#45;panoc&#45;lbfgs.hpp</text>
</a>
</g>
</g>
<!-- Node1&#45;&gt;Node20 -->
<g id="edge32" class="edge">
<title>Node1&#45;&gt;Node20</title>
<path fill="none" stroke="midnightblue" d="M962.21,-273.66C954.03,-265.76 945.34,-255.4 941,-244 925.89,-204.27 938.99,-151.9 945.18,-131.58"/>
<polygon fill="midnightblue" stroke="midnightblue" points="959.96,-276.34 969.73,-280.43 964.64,-271.14 959.96,-276.34"/>
</g>
<!-- Node23 -->
<g id="node23" class="node">
<title>Node23</title>
<g id="a_node23"><a xlink:href="panoc-helpers_8hpp.html" target="_top" xlink:title=" ">
<polygon fill="white" stroke="black" points="1029.5,-224.5 1029.5,-243.5 1136.5,-243.5 1136.5,-224.5 1029.5,-224.5"/>
<text text-anchor="middle" x="1083" y="-231.5" font-family="Helvetica,sans-Serif" font-size="10.00">panoc&#45;helpers.hpp</text>
</a>
</g>
</g>
<!-- Node1&#45;&gt;Node23 -->
<g id="edge38" class="edge">
<title>Node1&#45;&gt;Node23</title>
<path fill="none" stroke="midnightblue" d="M1006.33,-275.59C1025.19,-265.61 1050.38,-252.27 1066.65,-243.65"/>
<polygon fill="midnightblue" stroke="midnightblue" points="1004.59,-272.55 997.39,-280.32 1007.86,-278.74 1004.59,-272.55"/>
</g>
<!-- Node26 -->
<g id="node26" class="node">
<title>Node26</title>
<g id="a_node26"><a xlink:href="lbfgspp_8hpp.html" target="_top" xlink:title=" ">
<polygon fill="white" stroke="black" points="1402,-168.5 1402,-187.5 1476,-187.5 1476,-168.5 1402,-168.5"/>
<text text-anchor="middle" x="1439" y="-175.5" font-family="Helvetica,sans-Serif" font-size="10.00">lbfgspp.hpp</text>
</a>
</g>
</g>
<!-- Node1&#45;&gt;Node26 -->
<g id="edge53" class="edge">
<title>Node1&#45;&gt;Node26</title>
<path fill="none" stroke="midnightblue" d="M1030.12,-287.23C1093.45,-283.78 1206.32,-273.65 1298,-244 1316.16,-238.13 1318.8,-232.27 1336,-224 1364.14,-210.47 1397.34,-196.27 1418.28,-187.53"/>
<polygon fill="midnightblue" stroke="midnightblue" points="1029.83,-283.74 1020.02,-287.74 1030.18,-290.73 1029.83,-283.74"/>
</g>
<!-- Node28 -->
<g id="node28" class="node">
<title>Node28</title>
<g id="a_node28"><a xlink:href="CasADiLoader_8hpp.html" target="_top" xlink:title=" ">
<polygon fill="white" stroke="black" points="453.5,-224.5 453.5,-243.5 558.5,-243.5 558.5,-224.5 453.5,-224.5"/>
<text text-anchor="middle" x="506" y="-231.5" font-family="Helvetica,sans-Serif" font-size="10.00">CasADiLoader.hpp</text>
</a>
</g>
</g>
<!-- Node1&#45;&gt;Node28 -->
<g id="edge54" class="edge">
<title>Node1&#45;&gt;Node28</title>
<path fill="none" stroke="midnightblue" d="M931.78,-283.4C841.78,-273.17 651.44,-251.53 558.83,-241.01"/>
<polygon fill="midnightblue" stroke="midnightblue" points="931.39,-286.88 941.72,-284.54 932.18,-279.93 931.39,-286.88"/>
</g>
<!-- Node30 -->
<g id="node30" class="node">
<title>Node30</title>
<g id="a_node30"><a xlink:href="CUTEstLoader_8hpp.html" target="_top" xlink:title=" ">
<polygon fill="white" stroke="black" points="158.5,-224.5 158.5,-243.5 263.5,-243.5 263.5,-224.5 158.5,-224.5"/>
<text text-anchor="middle" x="211" y="-231.5" font-family="Helvetica,sans-Serif" font-size="10.00">CUTEstLoader.hpp</text>
</a>
</g>
</g>
<!-- Node1&#45;&gt;Node30 -->
<g id="edge57" class="edge">
<title>Node1&#45;&gt;Node30</title>
<path fill="none" stroke="midnightblue" d="M931.76,-285.89C821.94,-278.9 548.62,-261.22 320,-244 301.63,-242.62 281.54,-240.99 263.66,-239.5"/>
<polygon fill="midnightblue" stroke="midnightblue" points="931.67,-289.39 941.87,-286.53 932.11,-282.41 931.67,-289.39"/>
</g>
<!-- Node32 -->
<g id="node32" class="node">
<title>Node32</title>
<g id="a_node32"><a xlink:href="himmelblau_8hpp.html" target="_top" xlink:title=" ">
<polygon fill="white" stroke="black" points="1345,-224.5 1345,-243.5 1441,-243.5 1441,-224.5 1345,-224.5"/>
<text text-anchor="middle" x="1393" y="-231.5" font-family="Helvetica,sans-Serif" font-size="10.00">himmelblau.hpp</text>
</a>
</g>
</g>
<!-- Node1&#45;&gt;Node32 -->
<g id="edge60" class="edge">
<title>Node1&#45;&gt;Node32</title>
<path fill="none" stroke="midnightblue" d="M1030.09,-282.94C1097.83,-274.53 1223.76,-258.68 1331,-244 1335.53,-243.38 1340.24,-242.72 1344.95,-242.05"/>
<polygon fill="midnightblue" stroke="midnightblue" points="1029.63,-279.48 1020.13,-284.18 1030.49,-286.42 1029.63,-279.48"/>
</g>
<!-- Node34 -->
<g id="node34" class="node">
<title>Node34</title>
<g id="a_node34"><a xlink:href="riskaverse-mpc_8hpp.html" target="_top" xlink:title=" ">
<polygon fill="white" stroke="black" points="1459.5,-224.5 1459.5,-243.5 1572.5,-243.5 1572.5,-224.5 1459.5,-224.5"/>
<text text-anchor="middle" x="1516" y="-231.5" font-family="Helvetica,sans-Serif" font-size="10.00">riskaverse&#45;mpc.hpp</text>
</a>
</g>
</g>
<!-- Node1&#45;&gt;Node34 -->
<g id="edge62" class="edge">
<title>Node1&#45;&gt;Node34</title>
<path fill="none" stroke="midnightblue" d="M1030.48,-284.91C1116.08,-277.68 1297.32,-261.73 1450,-244 1453.1,-243.64 1456.28,-243.26 1459.49,-242.86"/>
<polygon fill="midnightblue" stroke="midnightblue" points="1029.95,-281.44 1020.28,-285.76 1030.54,-288.41 1029.95,-281.44"/>
</g>
<!-- Node36 -->
<g id="node36" class="node">
<title>Node36</title>
<g id="a_node36"><a xlink:href="alloc_8hpp.html" target="_top" xlink:title=" ">
<polygon fill="white" stroke="black" points="950.5,-224.5 950.5,-243.5 1011.5,-243.5 1011.5,-224.5 950.5,-224.5"/>
<text text-anchor="middle" x="981" y="-231.5" font-family="Helvetica,sans-Serif" font-size="10.00">alloc.hpp</text>
</a>
</g>
</g>
<!-- Node1&#45;&gt;Node36 -->
<g id="edge64" class="edge">
<title>Node1&#45;&gt;Node36</title>
<path fill="none" stroke="midnightblue" d="M981,-269.8C981,-260.91 981,-250.78 981,-243.75"/>
<polygon fill="midnightblue" stroke="midnightblue" points="977.5,-270.08 981,-280.08 984.5,-270.08 977.5,-270.08"/>
</g>
<!-- Node37 -->
<g id="node37" class="node">
<title>Node37</title>
<g id="a_node37"><a xlink:href="panocpy_2problem_8hpp.html" target="_top" xlink:title=" ">
<polygon fill="white" stroke="black" points="0,-56.5 0,-75.5 78,-75.5 78,-56.5 0,-56.5"/>
<text text-anchor="middle" x="39" y="-63.5" font-family="Helvetica,sans-Serif" font-size="10.00">problem.hpp</text>
</a>
</g>
</g>
<!-- Node1&#45;&gt;Node37 -->
<g id="edge66" class="edge">
<title>Node1&#45;&gt;Node37</title>
<path fill="none" stroke="midnightblue" d="M931.42,-288.46C775.95,-286.44 299.43,-277.6 149,-244 84.4,-229.57 47.97,-242.9 11,-188 -13.45,-151.69 18.48,-96.88 32.75,-75.74"/>
<polygon fill="midnightblue" stroke="midnightblue" points="931.57,-291.97 941.62,-288.59 931.66,-284.97 931.57,-291.97"/>
</g>
<!-- Node38 -->
<g id="node38" class="node">
<title>Node38</title>
<g id="a_node38"><a xlink:href="problem_8cpp.html" target="_top" xlink:title=" ">
<polygon fill="white" stroke="black" points="1590.5,-224.5 1590.5,-243.5 1667.5,-243.5 1667.5,-224.5 1590.5,-224.5"/>
<text text-anchor="middle" x="1629" y="-231.5" font-family="Helvetica,sans-Serif" font-size="10.00">problem.cpp</text>
</a>
</g>
</g>
<!-- Node1&#45;&gt;Node38 -->
<g id="edge68" class="edge">
<title>Node1&#45;&gt;Node38</title>
<path fill="none" stroke="midnightblue" d="M1030.27,-287.22C1133.16,-283.09 1378.18,-271.05 1582,-244 1584.72,-243.64 1587.52,-243.22 1590.33,-242.77"/>
<polygon fill="midnightblue" stroke="midnightblue" points="1030.04,-283.73 1020.18,-287.62 1030.31,-290.72 1030.04,-283.73"/>
</g>
<!-- Node3 -->
<g id="node3" class="node">
<title>Node3</title>
<g id="a_node3"><a xlink:href="alm-helpers_8hpp.html" target="_top" xlink:title=" ">
<polygon fill="white" stroke="black" points="260,-168.5 260,-187.5 356,-187.5 356,-168.5 260,-168.5"/>
<text text-anchor="middle" x="308" y="-175.5" font-family="Helvetica,sans-Serif" font-size="10.00">alm&#45;helpers.hpp</text>
</a>
</g>
</g>
<!-- Node2&#45;&gt;Node3 -->
<g id="edge2" class="edge">
<title>Node2&#45;&gt;Node3</title>
<path fill="none" stroke="midnightblue" d="M341.97,-216.43C333.38,-206.97 322.96,-195.48 315.94,-187.75"/>
<polygon fill="midnightblue" stroke="midnightblue" points="339.6,-219.03 348.91,-224.08 344.78,-214.33 339.6,-219.03"/>
</g>
<!-- Node6 -->
<g id="node6" class="node">
<title>Node6</title>
<g id="a_node6"><a xlink:href="panocpy_8cpp.html" target="_top" xlink:title="This file defines all Python bindings.">
<polygon fill="white" stroke="black" points="590.5,-0.5 590.5,-19.5 667.5,-19.5 667.5,-0.5 590.5,-0.5"/>
<text text-anchor="middle" x="629" y="-7.5" font-family="Helvetica,sans-Serif" font-size="10.00">panocpy.cpp</text>
</a>
</g>
</g>
<!-- Node2&#45;&gt;Node6 -->
<g id="edge10" class="edge">
<title>Node2&#45;&gt;Node6</title>
<path fill="none" stroke="midnightblue" d="M318.44,-229.21C269.43,-223.51 188.99,-210.86 171,-188 138.02,-146.09 95.85,-147.47 225,-56 283.17,-14.8 501.08,-10.6 590.42,-10.66"/>
<polygon fill="midnightblue" stroke="midnightblue" points="318.36,-232.72 328.69,-230.36 319.14,-225.77 318.36,-232.72"/>
</g>
<!-- Node9 -->
<g id="node9" class="node">
<title>Node9</title>
<g id="a_node9"><a xlink:href="kwargs-to-struct_8hpp.html" target="_top" xlink:title="This file defines mappings from Python dicts (kwargs) to simple parameter structs.">
<polygon fill="white" stroke="black" points="784,-56.5 784,-75.5 902,-75.5 902,-56.5 784,-56.5"/>
<text text-anchor="middle" x="843" y="-63.5" font-family="Helvetica,sans-Serif" font-size="10.00">kwargs&#45;to&#45;struct.hpp</text>
</a>
</g>
</g>
<!-- Node2&#45;&gt;Node9 -->
<g id="edge8" class="edge">
<title>Node2&#45;&gt;Node9</title>
<path fill="none" stroke="midnightblue" d="M395.6,-228.62C477.31,-219.22 662.55,-197.24 690,-188 737.91,-171.88 750.21,-164.42 789,-132 809.49,-114.88 828.14,-89.25 837.21,-75.86"/>
<polygon fill="midnightblue" stroke="midnightblue" points="394.78,-225.19 385.24,-229.81 395.57,-232.14 394.78,-225.19"/>
</g>
<!-- Node10 -->
<g id="node10" class="node">
<title>Node10</title>
<g id="a_node10"><a xlink:href="CasADi_2Rosenbrock_2main_8cpp.html" target="_top" xlink:title=" ">
<polygon fill="white" stroke="black" points="374,-168.5 374,-187.5 436,-187.5 436,-168.5 374,-168.5"/>
<text text-anchor="middle" x="405" y="-175.5" font-family="Helvetica,sans-Serif" font-size="10.00">main.cpp</text>
</a>
</g>
</g>
<!-- Node2&#45;&gt;Node10 -->
<g id="edge11" class="edge">
<title>Node2&#45;&gt;Node10</title>
<path fill="none" stroke="midnightblue" d="M371.73,-216.43C380.14,-206.97 390.35,-195.48 397.22,-187.75"/>
<polygon fill="midnightblue" stroke="midnightblue" points="368.95,-214.28 364.93,-224.08 374.19,-218.93 368.95,-214.28"/>
</g>
<!-- Node11 -->
<g id="node11" class="node">
<title>Node11</title>
<g id="a_node11"><a xlink:href="CUTEst_2Rosenbrock_2main_8cpp.html" target="_top" xlink:title=" ">
<polygon fill="white" stroke="black" points="180,-168.5 180,-187.5 242,-187.5 242,-168.5 180,-168.5"/>
<text text-anchor="middle" x="211" y="-175.5" font-family="Helvetica,sans-Serif" font-size="10.00">main.cpp</text>
</a>
</g>
</g>
<!-- Node2&#45;&gt;Node11 -->
<g id="edge12" class="edge">
<title>Node2&#45;&gt;Node11</title>
<path fill="none" stroke="midnightblue" d="M324.3,-220.91C296.85,-210.75 258.33,-196.51 234.03,-187.52"/>
<polygon fill="midnightblue" stroke="midnightblue" points="323.27,-224.26 333.87,-224.44 325.7,-217.69 323.27,-224.26"/>
</g>
<!-- Node4 -->
<g id="node4" class="node">
<title>Node4</title>
<g id="a_node4"><a xlink:href="alm_8hpp.html" target="_top" xlink:title=" ">
<polygon fill="white" stroke="black" points="294,-112.5 294,-131.5 350,-131.5 350,-112.5 294,-112.5"/>
<text text-anchor="middle" x="322" y="-119.5" font-family="Helvetica,sans-Serif" font-size="10.00">alm.hpp</text>
</a>
</g>
</g>
<!-- Node3&#45;&gt;Node4 -->
<g id="edge3" class="edge">
<title>Node3&#45;&gt;Node4</title>
<path fill="none" stroke="midnightblue" d="M312.82,-158.4C315.17,-149.36 317.87,-138.94 319.73,-131.75"/>
<polygon fill="midnightblue" stroke="midnightblue" points="309.43,-157.52 310.31,-168.08 316.21,-159.28 309.43,-157.52"/>
</g>
<!-- Node5 -->
<g id="node5" class="node">
<title>Node5</title>
<g id="a_node5"><a xlink:href="polymorphic-inner-solver_8hpp.html" target="_top" xlink:title=" ">
<polygon fill="white" stroke="black" points="549,-56.5 549,-75.5 709,-75.5 709,-56.5 549,-56.5"/>
<text text-anchor="middle" x="629" y="-63.5" font-family="Helvetica,sans-Serif" font-size="10.00">polymorphic&#45;inner&#45;solver.hpp</text>
</a>
</g>
</g>
<!-- Node4&#45;&gt;Node5 -->
<g id="edge4" class="edge">
<title>Node4&#45;&gt;Node5</title>
<path fill="none" stroke="midnightblue" d="M360.22,-114.28C416,-104.47 519.68,-86.23 580.67,-75.5"/>
<polygon fill="midnightblue" stroke="midnightblue" points="359.3,-110.89 350.06,-116.06 360.51,-117.78 359.3,-110.89"/>
</g>
<!-- Node7 -->
<g id="node7" class="node">
<title>Node7</title>
<g id="a_node7"><a xlink:href="alm_8cpp.html" target="_top" xlink:title=" ">
<polygon fill="white" stroke="black" points="346,-56.5 346,-75.5 402,-75.5 402,-56.5 346,-56.5"/>
<text text-anchor="middle" x="374" y="-63.5" font-family="Helvetica,sans-Serif" font-size="10.00">alm.cpp</text>
</a>
</g>
</g>
<!-- Node4&#45;&gt;Node7 -->
<g id="edge6" class="edge">
<title>Node4&#45;&gt;Node7</title>
<path fill="none" stroke="midnightblue" d="M337.68,-104.72C346.84,-95.2 358.05,-83.56 365.57,-75.75"/>
<polygon fill="midnightblue" stroke="midnightblue" points="335,-102.45 330.59,-112.08 340.04,-107.31 335,-102.45"/>
</g>
<!-- Node8 -->
<g id="node8" class="node">
<title>Node8</title>
<g id="a_node8"><a xlink:href="Presentation_2Cpp_2main_8cpp.html" target="_top" xlink:title=" ">
<polygon fill="white" stroke="black" points="263,-56.5 263,-75.5 325,-75.5 325,-56.5 263,-56.5"/>
<text text-anchor="middle" x="294" y="-63.5" font-family="Helvetica,sans-Serif" font-size="10.00">main.cpp</text>
</a>
</g>
</g>
<!-- Node4&#45;&gt;Node8 -->
<g id="edge7" class="edge">
<title>Node4&#45;&gt;Node8</title>
<path fill="none" stroke="midnightblue" d="M312.66,-102.98C307.91,-93.82 302.34,-83.09 298.54,-75.75"/>
<polygon fill="midnightblue" stroke="midnightblue" points="309.67,-104.82 317.38,-112.08 315.88,-101.59 309.67,-104.82"/>
</g>
<!-- Node5&#45;&gt;Node6 -->
<g id="edge5" class="edge">
<title>Node5&#45;&gt;Node6</title>
<path fill="none" stroke="midnightblue" d="M629,-45.8C629,-36.91 629,-26.78 629,-19.75"/>
<polygon fill="midnightblue" stroke="midnightblue" points="625.5,-46.08 629,-56.08 632.5,-46.08 625.5,-46.08"/>
</g>
<!-- Node9&#45;&gt;Node6 -->
<g id="edge9" class="edge">
<title>Node9&#45;&gt;Node6</title>
<path fill="none" stroke="midnightblue" d="M799.24,-53.96C758.83,-43.76 699.63,-28.82 662.75,-19.52"/>
<polygon fill="midnightblue" stroke="midnightblue" points="798.54,-57.39 809.09,-56.44 800.25,-50.6 798.54,-57.39"/>
</g>
<!-- Node12&#45;&gt;Node6 -->
<g id="edge26" class="edge">
<title>Node12&#45;&gt;Node6</title>
<path fill="none" stroke="midnightblue" d="M633.63,-217.14C618.64,-201.74 593.64,-179.1 567,-168 501.76,-140.81 302.95,-179.92 251,-132 225.91,-108.86 217.3,-81.48 240,-56 263.07,-30.11 496.39,-16.91 590.23,-12.61"/>
<polygon fill="midnightblue" stroke="midnightblue" points="631.11,-219.57 640.51,-224.44 636.2,-214.76 631.11,-219.57"/>
</g>
<!-- Node12&#45;&gt;Node9 -->
<g id="edge25" class="edge">
<title>Node12&#45;&gt;Node9</title>
<path fill="none" stroke="midnightblue" d="M691.7,-227.16C737.3,-220.15 804.55,-206.93 822,-188 851.63,-155.86 847.27,-97.6 844.36,-75.67"/>
<polygon fill="midnightblue" stroke="midnightblue" points="691.13,-223.71 681.75,-228.64 692.16,-230.63 691.13,-223.71"/>
</g>
<!-- Node12&#45;&gt;Node10 -->
<g id="edge27" class="edge">
<title>Node12&#45;&gt;Node10</title>
<path fill="none" stroke="midnightblue" d="M604.27,-223.35C563.15,-214.26 499.89,-200.26 445,-188 442.08,-187.35 439.05,-186.67 436.01,-185.99"/>
<polygon fill="midnightblue" stroke="midnightblue" points="603.71,-226.81 614.23,-225.55 605.22,-219.97 603.71,-226.81"/>
</g>
<!-- Node12&#45;&gt;Node11 -->
<g id="edge28" class="edge">
<title>Node12&#45;&gt;Node11</title>
<path fill="none" stroke="midnightblue" d="M604.12,-228.09C502.64,-216.72 259.65,-189.46 251,-188 248.19,-187.53 245.29,-186.98 242.38,-186.4"/>
<polygon fill="midnightblue" stroke="midnightblue" points="604.02,-231.6 614.35,-229.23 604.8,-224.64 604.02,-231.6"/>
</g>
<!-- Node13 -->
<g id="node13" class="node">
<title>Node13</title>
<g id="a_node13"><a xlink:href="inner_2panoc_8hpp.html" target="_top" xlink:title=" ">
<polygon fill="white" stroke="black" points="614.5,-168.5 614.5,-187.5 681.5,-187.5 681.5,-168.5 614.5,-168.5"/>
<text text-anchor="middle" x="648" y="-175.5" font-family="Helvetica,sans-Serif" font-size="10.00">panoc.hpp</text>
</a>
</g>
</g>
<!-- Node12&#45;&gt;Node13 -->
<g id="edge14" class="edge">
<title>Node12&#45;&gt;Node13</title>
<path fill="none" stroke="midnightblue" d="M648,-213.8C648,-204.91 648,-194.78 648,-187.75"/>
<polygon fill="midnightblue" stroke="midnightblue" points="644.5,-214.08 648,-224.08 651.5,-214.08 644.5,-214.08"/>
</g>
<!-- Node16 -->
<g id="node16" class="node">
<title>Node16</title>
<g id="a_node16"><a xlink:href="standalone_2panoc_8hpp.html" target="_top" xlink:title=" ">
<polygon fill="white" stroke="black" points="950.5,-168.5 950.5,-187.5 1017.5,-187.5 1017.5,-168.5 950.5,-168.5"/>
<text text-anchor="middle" x="984" y="-175.5" font-family="Helvetica,sans-Serif" font-size="10.00">panoc.hpp</text>
</a>
</g>
</g>
<!-- Node12&#45;&gt;Node16 -->
<g id="edge23" class="edge">
<title>Node12&#45;&gt;Node16</title>
<path fill="none" stroke="midnightblue" d="M691.71,-225.98C759.62,-215.06 889.03,-194.26 950.27,-184.42"/>
<polygon fill="midnightblue" stroke="midnightblue" points="691.07,-222.53 681.76,-227.58 692.18,-229.44 691.07,-222.53"/>
</g>
<!-- Node13&#45;&gt;Node5 -->
<g id="edge16" class="edge">
<title>Node13&#45;&gt;Node5</title>
<path fill="none" stroke="midnightblue" d="M639.69,-159.12C636.33,-151.02 632.83,-141.22 631,-132 627.04,-112.07 627.66,-88.03 628.38,-75.51"/>
<polygon fill="midnightblue" stroke="midnightblue" points="636.49,-160.54 643.72,-168.29 642.9,-157.73 636.49,-160.54"/>
</g>
<!-- Node13&#45;&gt;Node6 -->
<g id="edge15" class="edge">
<title>Node13&#45;&gt;Node6</title>
<path fill="none" stroke="midnightblue" d="M604.46,-168.69C602.96,-168.45 601.47,-168.22 600,-168 528.13,-157.3 332.35,-176.62 275,-132 247.34,-110.48 230.74,-82.21 254,-56 276.08,-31.11 498.94,-17.4 590.28,-12.79"/>
<polygon fill="midnightblue" stroke="midnightblue" points="604.04,-172.17 614.48,-170.38 605.21,-165.27 604.04,-172.17"/>
</g>
<!-- Node13&#45;&gt;Node7 -->
<g id="edge20" class="edge">
<title>Node13&#45;&gt;Node7</title>
<path fill="none" stroke="midnightblue" d="M604.44,-168.81C602.94,-168.54 601.46,-168.27 600,-168 509.86,-151.56 466.9,-191.25 397,-132 380.02,-117.6 375.57,-89.81 374.41,-75.69"/>
<polygon fill="midnightblue" stroke="midnightblue" points="603.97,-172.29 614.44,-170.66 605.24,-165.4 603.97,-172.29"/>
</g>
<!-- Node13&#45;&gt;Node8 -->
<g id="edge22" class="edge">
<title>Node13&#45;&gt;Node8</title>
<path fill="none" stroke="midnightblue" d="M604.46,-168.7C602.96,-168.45 601.47,-168.22 600,-168 530.33,-157.5 331.91,-184.57 285,-132 271.04,-116.36 281.8,-89.62 288.95,-75.82"/>
<polygon fill="midnightblue" stroke="midnightblue" points="604.04,-172.17 614.48,-170.4 605.21,-165.27 604.04,-172.17"/>
</g>
<!-- Node14 -->
<g id="node14" class="node">
<title>Node14</title>
<g id="a_node14"><a xlink:href="polymorphic-panoc-direction_8hpp.html" target="_top" xlink:title=" ">
<polygon fill="white" stroke="black" points="406,-112.5 406,-131.5 584,-131.5 584,-112.5 406,-112.5"/>
<text text-anchor="middle" x="495" y="-119.5" font-family="Helvetica,sans-Serif" font-size="10.00">polymorphic&#45;panoc&#45;direction.hpp</text>
</a>
</g>
</g>
<!-- Node13&#45;&gt;Node14 -->
<g id="edge17" class="edge">
<title>Node13&#45;&gt;Node14</title>
<path fill="none" stroke="midnightblue" d="M614.11,-165.04C585.32,-154.88 544.71,-140.55 519.13,-131.52"/>
<polygon fill="midnightblue" stroke="midnightblue" points="613.16,-168.42 623.76,-168.44 615.49,-161.81 613.16,-168.42"/>
</g>
<!-- Node15 -->
<g id="node15" class="node">
<title>Node15</title>
<g id="a_node15"><a xlink:href="panoc_8cpp.html" target="_top" xlink:title=" ">
<polygon fill="white" stroke="black" points="640,-112.5 640,-131.5 706,-131.5 706,-112.5 640,-112.5"/>
<text text-anchor="middle" x="673" y="-119.5" font-family="Helvetica,sans-Serif" font-size="10.00">panoc.cpp</text>
</a>
</g>
</g>
<!-- Node13&#45;&gt;Node15 -->
<g id="edge21" class="edge">
<title>Node13&#45;&gt;Node15</title>
<path fill="none" stroke="midnightblue" d="M656.34,-158.98C660.58,-149.82 665.55,-139.09 668.95,-131.75"/>
<polygon fill="midnightblue" stroke="midnightblue" points="653.15,-157.54 652.13,-168.08 659.51,-160.48 653.15,-157.54"/>
</g>
<!-- Node14&#45;&gt;Node5 -->
<g id="edge19" class="edge">
<title>Node14&#45;&gt;Node5</title>
<path fill="none" stroke="midnightblue" d="M525.68,-108.64C550.82,-98.5 585.75,-84.43 607.87,-75.52"/>
<polygon fill="midnightblue" stroke="midnightblue" points="524.2,-105.46 516.23,-112.44 526.82,-111.95 524.2,-105.46"/>
</g>
<!-- Node14&#45;&gt;Node6 -->
<g id="edge18" class="edge">
<title>Node14&#45;&gt;Node6</title>
<path fill="none" stroke="midnightblue" d="M504.08,-103.2C512.03,-89 524.68,-69.35 540,-56 559.06,-39.39 585.33,-27.09 604.38,-19.59"/>
<polygon fill="midnightblue" stroke="midnightblue" points="500.79,-101.94 499.16,-112.4 506.96,-105.24 500.79,-101.94"/>
</g>
<!-- Node16&#45;&gt;Node6 -->
<g id="edge24" class="edge">
<title>Node16&#45;&gt;Node6</title>
<path fill="none" stroke="midnightblue" d="M1027.94,-172.18C1075.69,-165.93 1147.42,-153.23 1164,-132 1169.47,-124.99 1169.4,-119.06 1164,-112 1103.46,-32.91 780.01,-15.59 667.56,-11.94"/>
<polygon fill="midnightblue" stroke="midnightblue" points="1027.33,-168.73 1017.85,-173.45 1028.21,-175.67 1027.33,-168.73"/>
</g>
<!-- Node18 -->
<g id="node18" class="node">
<title>Node18</title>
<g id="a_node18"><a xlink:href="second-order-panoc_8hpp.html" target="_top" xlink:title=" ">
<polygon fill="white" stroke="black" points="1250,-168.5 1250,-187.5 1384,-187.5 1384,-168.5 1250,-168.5"/>
<text text-anchor="middle" x="1317" y="-175.5" font-family="Helvetica,sans-Serif" font-size="10.00">second&#45;order&#45;panoc.hpp</text>
</a>
</g>
</g>
<!-- Node17&#45;&gt;Node18 -->
<g id="edge30" class="edge">
<title>Node17&#45;&gt;Node18</title>
<path fill="none" stroke="midnightblue" d="M1246.32,-219.18C1263.8,-209.24 1286.83,-196.15 1301.77,-187.65"/>
<polygon fill="midnightblue" stroke="midnightblue" points="1244.23,-216.34 1237.26,-224.32 1247.69,-222.43 1244.23,-216.34"/>
</g>
<!-- Node19 -->
<g id="node19" class="node">
<title>Node19</title>
<g id="a_node19"><a xlink:href="second-order-panoc_8cpp.html" target="_top" xlink:title=" ">
<polygon fill="white" stroke="black" points="1250,-112.5 1250,-131.5 1384,-131.5 1384,-112.5 1250,-112.5"/>
<text text-anchor="middle" x="1317" y="-119.5" font-family="Helvetica,sans-Serif" font-size="10.00">second&#45;order&#45;panoc.cpp</text>
</a>
</g>
</g>
<!-- Node18&#45;&gt;Node19 -->
<g id="edge31" class="edge">
<title>Node18&#45;&gt;Node19</title>
<path fill="none" stroke="midnightblue" d="M1317,-157.8C1317,-148.91 1317,-138.78 1317,-131.75"/>
<polygon fill="midnightblue" stroke="midnightblue" points="1313.5,-158.08 1317,-168.08 1320.5,-158.08 1313.5,-158.08"/>
</g>
<!-- Node20&#45;&gt;Node5 -->
<g id="edge37" class="edge">
<title>Node20&#45;&gt;Node5</title>
<path fill="none" stroke="midnightblue" d="M887.32,-110.73C827.03,-100.52 735.68,-85.06 679.31,-75.52"/>
<polygon fill="midnightblue" stroke="midnightblue" points="887.01,-114.23 897.45,-112.44 888.18,-107.32 887.01,-114.23"/>
</g>
<!-- Node20&#45;&gt;Node9 -->
<g id="edge36" class="edge">
<title>Node20&#45;&gt;Node9</title>
<path fill="none" stroke="midnightblue" d="M922.19,-107.73C902.75,-97.73 876.65,-84.31 859.83,-75.65"/>
<polygon fill="midnightblue" stroke="midnightblue" points="920.64,-110.86 931.13,-112.32 923.84,-104.64 920.64,-110.86"/>
</g>
<!-- Node21 -->
<g id="node21" class="node">
<title>Node21</title>
<g id="a_node21"><a xlink:href="structured-panoc-lbfgs_8hpp.html" target="_top" xlink:title=" ">
<polygon fill="white" stroke="black" points="1180,-56.5 1180,-75.5 1328,-75.5 1328,-56.5 1180,-56.5"/>
<text text-anchor="middle" x="1254" y="-63.5" font-family="Helvetica,sans-Serif" font-size="10.00">structured&#45;panoc&#45;lbfgs.hpp</text>
</a>
</g>
</g>
<!-- Node20&#45;&gt;Node21 -->
<g id="edge33" class="edge">
<title>Node20&#45;&gt;Node21</title>
<path fill="none" stroke="midnightblue" d="M1006.57,-110.66C1064.4,-100.46 1151.78,-85.04 1205.74,-75.52"/>
<polygon fill="midnightblue" stroke="midnightblue" points="1005.73,-107.26 996.49,-112.44 1006.94,-114.15 1005.73,-107.26"/>
</g>
<!-- Node21&#45;&gt;Node6 -->
<g id="edge34" class="edge">
<title>Node21&#45;&gt;Node6</title>
<path fill="none" stroke="midnightblue" d="M1169.35,-56.31C1168.23,-56.21 1167.11,-56.1 1166,-56 979.46,-38.65 756.17,-20.91 667.77,-14"/>
<polygon fill="midnightblue" stroke="midnightblue" points="1169.3,-59.83 1179.59,-57.29 1169.97,-52.86 1169.3,-59.83"/>
</g>
<!-- Node22 -->
<g id="node22" class="node">
<title>Node22</title>
<g id="a_node22"><a xlink:href="structured-panoc-lbfgs_8cpp.html" target="_top" xlink:title=" ">
<polygon fill="white" stroke="black" points="1180.5,-0.5 1180.5,-19.5 1327.5,-19.5 1327.5,-0.5 1180.5,-0.5"/>
<text text-anchor="middle" x="1254" y="-7.5" font-family="Helvetica,sans-Serif" font-size="10.00">structured&#45;panoc&#45;lbfgs.cpp</text>
</a>
</g>
</g>
<!-- Node21&#45;&gt;Node22 -->
<g id="edge35" class="edge">
<title>Node21&#45;&gt;Node22</title>
<path fill="none" stroke="midnightblue" d="M1254,-45.8C1254,-36.91 1254,-26.78 1254,-19.75"/>
<polygon fill="midnightblue" stroke="midnightblue" points="1250.5,-46.08 1254,-56.08 1257.5,-46.08 1250.5,-46.08"/>
</g>
<!-- Node23&#45;&gt;Node13 -->
<g id="edge45" class="edge">
<title>Node23&#45;&gt;Node13</title>
<path fill="none" stroke="midnightblue" d="M1019.16,-223.91C887.88,-206.69 745.26,-190.11 681.63,-182.82"/>
<polygon fill="midnightblue" stroke="midnightblue" points="1019.02,-227.43 1029.39,-225.26 1019.94,-220.49 1019.02,-227.43"/>
</g>
<!-- Node23&#45;&gt;Node16 -->
<g id="edge52" class="edge">
<title>Node23&#45;&gt;Node16</title>
<path fill="none" stroke="midnightblue" d="M1058.16,-219.45C1039.89,-209.48 1015.58,-196.23 999.87,-187.65"/>
<polygon fill="midnightblue" stroke="midnightblue" points="1056.64,-222.61 1067.09,-224.32 1059.99,-216.46 1056.64,-222.61"/>
</g>
<!-- Node23&#45;&gt;Node18 -->
<g id="edge50" class="edge">
<title>Node23&#45;&gt;Node18</title>
<path fill="none" stroke="midnightblue" d="M1130,-222.15C1174.22,-211.95 1239.52,-196.88 1280.1,-187.52"/>
<polygon fill="midnightblue" stroke="midnightblue" points="1129.03,-218.78 1120.08,-224.44 1130.61,-225.61 1129.03,-218.78"/>
</g>
<!-- Node23&#45;&gt;Node21 -->
<g id="edge51" class="edge">
<title>Node23&#45;&gt;Node21</title>
<path fill="none" stroke="midnightblue" d="M1140.66,-221.63C1162.39,-214.91 1185.95,-204.37 1203,-188 1220.26,-171.42 1243.52,-100.62 1251.32,-75.71"/>
<polygon fill="midnightblue" stroke="midnightblue" points="1139.47,-218.33 1130.83,-224.46 1141.41,-225.06 1139.47,-218.33"/>
</g>
<!-- Node24 -->
<g id="node24" class="node">
<title>Node24</title>
<g id="a_node24"><a xlink:href="specialized-lbfgs_8hpp.html" target="_top" xlink:title=" ">
<polygon fill="white" stroke="black" points="1074,-168.5 1074,-187.5 1194,-187.5 1194,-168.5 1074,-168.5"/>
<text text-anchor="middle" x="1134" y="-175.5" font-family="Helvetica,sans-Serif" font-size="10.00">specialized&#45;lbfgs.hpp</text>
</a>
</g>
</g>
<!-- Node23&#45;&gt;Node24 -->
<g id="edge39" class="edge">
<title>Node23&#45;&gt;Node24</title>
<path fill="none" stroke="midnightblue" d="M1098.38,-216.72C1107.37,-207.2 1118.36,-195.56 1125.74,-187.75"/>
<polygon fill="midnightblue" stroke="midnightblue" points="1095.74,-214.41 1091.42,-224.08 1100.83,-219.22 1095.74,-214.41"/>
</g>
<!-- Node25 -->
<g id="node25" class="node">
<title>Node25</title>
<g id="a_node25"><a xlink:href="guarded-aa-pga_8hpp.html" target="_top" xlink:title=" ">
<polygon fill="white" stroke="black" points="1040.5,-112.5 1040.5,-131.5 1155.5,-131.5 1155.5,-112.5 1040.5,-112.5"/>
<text text-anchor="middle" x="1098" y="-119.5" font-family="Helvetica,sans-Serif" font-size="10.00">guarded&#45;aa&#45;pga.hpp</text>
</a>
</g>
</g>
<!-- Node23&#45;&gt;Node25 -->
<g id="edge40" class="edge">
<title>Node23&#45;&gt;Node25</title>
<path fill="none" stroke="midnightblue" d="M1072.37,-215.17C1065.92,-202.03 1059.83,-183.78 1065,-168 1069.7,-153.64 1080.93,-140.07 1088.98,-131.66"/>
<polygon fill="midnightblue" stroke="midnightblue" points="1069.36,-216.96 1077.2,-224.09 1075.52,-213.63 1069.36,-216.96"/>
</g>
<!-- Node23&#45;&gt;Node26 -->
<g id="edge44" class="edge">
<title>Node23&#45;&gt;Node26</title>
<path fill="none" stroke="midnightblue" d="M1146.78,-223.82C1233.97,-211.27 1380.99,-190.04 1393,-188 1395.89,-187.51 1398.87,-186.98 1401.87,-186.43"/>
<polygon fill="midnightblue" stroke="midnightblue" points="1146.12,-220.38 1136.72,-225.27 1147.12,-227.31 1146.12,-220.38"/>
</g>
<!-- Node27 -->
<g id="node27" class="node">
<title>Node27</title>
<g id="a_node27"><a xlink:href="pga_8hpp.html" target="_top" xlink:title=" ">
<polygon fill="white" stroke="black" points="724,-112.5 724,-131.5 780,-131.5 780,-112.5 724,-112.5"/>
<text text-anchor="middle" x="752" y="-119.5" font-family="Helvetica,sans-Serif" font-size="10.00">pga.hpp</text>
</a>
</g>
</g>
<!-- Node23&#45;&gt;Node27 -->
<g id="edge46" class="edge">
<title>Node23&#45;&gt;Node27</title>
<path fill="none" stroke="midnightblue" d="M1045.83,-221.49C1017.13,-212.54 976.48,-199.72 941,-188 881.69,-168.41 812.35,-144.23 776.4,-131.6"/>
<polygon fill="midnightblue" stroke="midnightblue" points="1044.86,-224.86 1055.45,-224.49 1046.94,-218.17 1044.86,-224.86"/>
</g>
<!-- Node25&#45;&gt;Node5 -->
<g id="edge43" class="edge">
<title>Node25&#45;&gt;Node5</title>
<path fill="none" stroke="midnightblue" d="M1030.34,-111.94C912.45,-97.5 788.11,-83.89 709.15,-75.45"/>
<polygon fill="midnightblue" stroke="midnightblue" points="1029.91,-115.42 1040.27,-113.16 1030.77,-108.47 1029.91,-115.42"/>
</g>
<!-- Node25&#45;&gt;Node6 -->
<g id="edge42" class="edge">
<title>Node25&#45;&gt;Node6</title>
<path fill="none" stroke="midnightblue" d="M1067.77,-108.63C1031.2,-94.11 967.52,-70.21 911,-56 825.42,-34.48 722.51,-21.13 667.75,-14.99"/>
<polygon fill="midnightblue" stroke="midnightblue" points="1066.75,-112 1077.33,-112.46 1069.35,-105.5 1066.75,-112"/>
</g>
<!-- Node25&#45;&gt;Node9 -->
<g id="edge41" class="edge">
<title>Node25&#45;&gt;Node9</title>
<path fill="none" stroke="midnightblue" d="M1047.69,-110.35C999.5,-100.14 927.72,-84.94 883.22,-75.52"/>
<polygon fill="midnightblue" stroke="midnightblue" points="1047.09,-113.8 1057.59,-112.44 1048.54,-106.95 1047.09,-113.8"/>
</g>
<!-- Node27&#45;&gt;Node5 -->
<g id="edge49" class="edge">
<title>Node27&#45;&gt;Node5</title>
<path fill="none" stroke="midnightblue" d="M723.23,-108.37C700.19,-98.26 668.52,-84.35 648.4,-75.52"/>
<polygon fill="midnightblue" stroke="midnightblue" points="721.95,-111.63 732.51,-112.44 724.76,-105.22 721.95,-111.63"/>
</g>
<!-- Node27&#45;&gt;Node6 -->
<g id="edge48" class="edge">
<title>Node27&#45;&gt;Node6</title>
<path fill="none" stroke="midnightblue" d="M745.96,-102.72C740.51,-88.53 731.29,-69.11 718,-56 700.5,-38.74 675.03,-26.78 655.81,-19.55"/>
<polygon fill="midnightblue" stroke="midnightblue" points="742.75,-104.13 749.4,-112.37 749.34,-101.78 742.75,-104.13"/>
</g>
<!-- Node27&#45;&gt;Node9 -->
<g id="edge47" class="edge">
<title>Node27&#45;&gt;Node9</title>
<path fill="none" stroke="midnightblue" d="M775.29,-107.18C792.04,-97.24 814.1,-84.15 828.42,-75.65"/>
<polygon fill="midnightblue" stroke="midnightblue" points="773.43,-104.21 766.62,-112.32 777.01,-110.23 773.43,-104.21"/>
</g>
<!-- Node28&#45;&gt;Node10 -->
<g id="edge56" class="edge">
<title>Node28&#45;&gt;Node10</title>
<path fill="none" stroke="midnightblue" d="M480.92,-219.59C462.24,-209.61 437.3,-196.27 421.19,-187.65"/>
<polygon fill="midnightblue" stroke="midnightblue" points="479.3,-222.7 489.77,-224.32 482.6,-216.52 479.3,-222.7"/>
</g>
<!-- Node29 -->
<g id="node29" class="node">
<title>Node29</title>
<g id="a_node29"><a xlink:href="CasADiLoader_8cpp.html" target="_top" xlink:title=" ">
<polygon fill="white" stroke="black" points="454,-168.5 454,-187.5 558,-187.5 558,-168.5 454,-168.5"/>
<text text-anchor="middle" x="506" y="-175.5" font-family="Helvetica,sans-Serif" font-size="10.00">CasADiLoader.cpp</text>
</a>
</g>
</g>
<!-- Node28&#45;&gt;Node29 -->
<g id="edge55" class="edge">
<title>Node28&#45;&gt;Node29</title>
<path fill="none" stroke="midnightblue" d="M506,-213.8C506,-204.91 506,-194.78 506,-187.75"/>
<polygon fill="midnightblue" stroke="midnightblue" points="502.5,-214.08 506,-224.08 509.5,-214.08 502.5,-214.08"/>
</g>
<!-- Node30&#45;&gt;Node11 -->
<g id="edge59" class="edge">
<title>Node30&#45;&gt;Node11</title>
<path fill="none" stroke="midnightblue" d="M211,-213.8C211,-204.91 211,-194.78 211,-187.75"/>
<polygon fill="midnightblue" stroke="midnightblue" points="207.5,-214.08 211,-224.08 214.5,-214.08 207.5,-214.08"/>
</g>
<!-- Node31 -->
<g id="node31" class="node">
<title>Node31</title>
<g id="a_node31"><a xlink:href="CUTEstLoader_8cpp.html" target="_top" xlink:title=" ">
<polygon fill="white" stroke="black" points="20,-168.5 20,-187.5 124,-187.5 124,-168.5 20,-168.5"/>
<text text-anchor="middle" x="72" y="-175.5" font-family="Helvetica,sans-Serif" font-size="10.00">CUTEstLoader.cpp</text>
</a>
</g>
</g>
<!-- Node30&#45;&gt;Node31 -->
<g id="edge58" class="edge">
<title>Node30&#45;&gt;Node31</title>
<path fill="none" stroke="midnightblue" d="M179.52,-220.77C153.41,-210.63 116.96,-196.47 93.92,-187.52"/>
<polygon fill="midnightblue" stroke="midnightblue" points="178.39,-224.08 188.98,-224.44 180.92,-217.56 178.39,-224.08"/>
</g>
<!-- Node33 -->
<g id="node33" class="node">
<title>Node33</title>
<g id="a_node33"><a xlink:href="himmelblau_8cpp.html" target="_top" xlink:title=" ">
<polygon fill="white" stroke="black" points="1494.5,-168.5 1494.5,-187.5 1589.5,-187.5 1589.5,-168.5 1494.5,-168.5"/>
<text text-anchor="middle" x="1542" y="-175.5" font-family="Helvetica,sans-Serif" font-size="10.00">himmelblau.cpp</text>
</a>
</g>
</g>
<!-- Node32&#45;&gt;Node33 -->
<g id="edge61" class="edge">
<title>Node32&#45;&gt;Node33</title>
<path fill="none" stroke="midnightblue" d="M1426.37,-220.91C1454.38,-210.75 1493.7,-196.51 1518.5,-187.52"/>
<polygon fill="midnightblue" stroke="midnightblue" points="1424.82,-217.75 1416.61,-224.44 1427.2,-224.33 1424.82,-217.75"/>
</g>
<!-- Node35 -->
<g id="node35" class="node">
<title>Node35</title>
<g id="a_node35"><a xlink:href="riskaverse-mpc_8cpp.html" target="_top" xlink:title=" ">
<polygon fill="white" stroke="black" points="1608,-168.5 1608,-187.5 1720,-187.5 1720,-168.5 1608,-168.5"/>
<text text-anchor="middle" x="1664" y="-175.5" font-family="Helvetica,sans-Serif" font-size="10.00">riskaverse&#45;mpc.cpp</text>
</a>
</g>
</g>
<!-- Node34&#45;&gt;Node35 -->
<g id="edge63" class="edge">
<title>Node34&#45;&gt;Node35</title>
<path fill="none" stroke="midnightblue" d="M1549.15,-220.91C1576.97,-210.75 1616.02,-196.51 1640.66,-187.52"/>
<polygon fill="midnightblue" stroke="midnightblue" points="1547.65,-217.73 1539.45,-224.44 1550.04,-224.3 1547.65,-217.73"/>
</g>
<!-- Node36&#45;&gt;Node16 -->
<g id="edge65" class="edge">
<title>Node36&#45;&gt;Node16</title>
<path fill="none" stroke="midnightblue" d="M982.07,-213.8C982.56,-204.91 983.12,-194.78 983.51,-187.75"/>
<polygon fill="midnightblue" stroke="midnightblue" points="978.56,-213.9 981.5,-224.08 985.54,-214.29 978.56,-213.9"/>
</g>
<!-- Node37&#45;&gt;Node6 -->
<g id="edge67" class="edge">
<title>Node37&#45;&gt;Node6</title>
<path fill="none" stroke="midnightblue" d="M88.43,-60.48C203.35,-49.96 486.62,-24.03 590.23,-14.55"/>
<polygon fill="midnightblue" stroke="midnightblue" points="87.81,-57.02 78.17,-61.42 88.45,-63.99 87.81,-57.02"/>
</g>
</g>
</svg>
