<?xml version="1.0" encoding="UTF-8" standalone="no"?>
<!DOCTYPE svg PUBLIC "-//W3C//DTD SVG 1.1//EN"
 "http://www.w3.org/Graphics/SVG/1.1/DTD/svg11.dtd">
<!-- Generated by graphviz version 2.43.0 (0)
 -->
<!-- Title: panoc.hpp Pages: 1 -->
<svg width="1680pt" height="341pt"
 viewBox="0.00 0.00 1680.00 341.00" xmlns="http://www.w3.org/2000/svg" xmlns:xlink="http://www.w3.org/1999/xlink">
<g id="graph0" class="graph" transform="scale(1 1) rotate(0) translate(4 337)">
<title>panoc.hpp</title>
<polygon fill="white" stroke="transparent" points="-4,4 -4,-337 1676,-337 1676,4 -4,4"/>
<!-- Node1 -->
<g id="node1" class="node">
<title>Node1</title>
<g id="a_node1"><a xlink:title=" ">
<polygon fill="#bfbfbf" stroke="black" points="1340.5,-313.5 1340.5,-332.5 1407.5,-332.5 1407.5,-313.5 1340.5,-313.5"/>
<text text-anchor="middle" x="1374" y="-320.5" font-family="Helvetica,sans-Serif" font-size="10.00">panoc.hpp</text>
</a>
</g>
</g>
<!-- Node2 -->
<g id="node2" class="node">
<title>Node2</title>
<g id="a_node2"><a xlink:title=" ">
<polygon fill="white" stroke="#bfbfbf" points="0,-185 0,-204 50,-204 50,-185 0,-185"/>
<text text-anchor="middle" x="25" y="-192" font-family="Helvetica,sans-Serif" font-size="10.00">chrono</text>
</a>
</g>
</g>
<!-- Node1&#45;&gt;Node2 -->
<g id="edge1" class="edge">
<title>Node1&#45;&gt;Node2</title>
<path fill="none" stroke="midnightblue" d="M1340.15,-322.02C1218.71,-321.73 793.65,-317.68 446,-277 301.52,-260.09 132.34,-221.52 60.33,-204.2"/>
<polygon fill="midnightblue" stroke="midnightblue" points="60.96,-200.75 50.42,-201.8 59.32,-207.56 60.96,-200.75"/>
</g>
<!-- Node3 -->
<g id="node3" class="node">
<title>Node3</title>
<g id="a_node3"><a xlink:href="inner_2decl_2panoc_8hpp.html" target="_top" xlink:title=" ">
<polygon fill="white" stroke="black" points="455.5,-246.5 455.5,-276.5 574.5,-276.5 574.5,-246.5 455.5,-246.5"/>
<text text-anchor="start" x="463.5" y="-264.5" font-family="Helvetica,sans-Serif" font-size="10.00">panoc&#45;alm/inner/decl</text>
<text text-anchor="middle" x="515" y="-253.5" font-family="Helvetica,sans-Serif" font-size="10.00">/panoc.hpp</text>
</a>
</g>
</g>
<!-- Node1&#45;&gt;Node3 -->
<g id="edge2" class="edge">
<title>Node1&#45;&gt;Node3</title>
<path fill="none" stroke="midnightblue" d="M1340.33,-319.67C1213.05,-310.85 759.69,-279.45 584.66,-267.32"/>
<polygon fill="midnightblue" stroke="midnightblue" points="584.75,-263.82 574.53,-266.62 584.27,-270.81 584.75,-263.82"/>
</g>
<!-- Node9 -->
<g id="node9" class="node">
<title>Node9</title>
<g id="a_node9"><a xlink:title=" ">
<polygon fill="white" stroke="#bfbfbf" points="1353.5,-118 1353.5,-137 1418.5,-137 1418.5,-118 1353.5,-118"/>
<text text-anchor="middle" x="1386" y="-125" font-family="Helvetica,sans-Serif" font-size="10.00">stdexcept</text>
</a>
</g>
</g>
<!-- Node1&#45;&gt;Node9 -->
<g id="edge39" class="edge">
<title>Node1&#45;&gt;Node9</title>
<path fill="none" stroke="midnightblue" d="M1375.46,-313.32C1378.53,-294.55 1385.59,-248.72 1388,-210 1388.86,-196.25 1388.27,-192.78 1388,-179 1387.79,-168.52 1387.34,-156.83 1386.92,-147.34"/>
<polygon fill="midnightblue" stroke="midnightblue" points="1390.41,-146.9 1386.44,-137.07 1383.41,-147.23 1390.41,-146.9"/>
</g>
<!-- Node10 -->
<g id="node10" class="node">
<title>Node10</title>
<g id="a_node10"><a xlink:href="panoc-direction-update_8hpp.html" target="_top" xlink:title=" ">
<polygon fill="white" stroke="black" points="542.5,-179.5 542.5,-209.5 719.5,-209.5 719.5,-179.5 542.5,-179.5"/>
<text text-anchor="start" x="550.5" y="-197.5" font-family="Helvetica,sans-Serif" font-size="10.00">panoc&#45;alm/inner/directions</text>
<text text-anchor="middle" x="631" y="-186.5" font-family="Helvetica,sans-Serif" font-size="10.00">/decl/panoc&#45;direction&#45;update.hpp</text>
</a>
</g>
</g>
<!-- Node1&#45;&gt;Node10 -->
<g id="edge34" class="edge">
<title>Node1&#45;&gt;Node10</title>
<path fill="none" stroke="midnightblue" d="M1340.14,-316.24C1231.63,-297.76 889.88,-239.58 723.64,-211.27"/>
<polygon fill="midnightblue" stroke="midnightblue" points="723.88,-207.76 713.43,-209.53 722.7,-214.66 723.88,-207.76"/>
</g>
<!-- Node25 -->
<g id="node25" class="node">
<title>Node25</title>
<g id="a_node25"><a xlink:href="panoc-helpers_8hpp.html" target="_top" xlink:title=" ">
<polygon fill="white" stroke="black" points="1120.5,-246.5 1120.5,-276.5 1247.5,-276.5 1247.5,-246.5 1120.5,-246.5"/>
<text text-anchor="start" x="1128.5" y="-264.5" font-family="Helvetica,sans-Serif" font-size="10.00">panoc&#45;alm/inner/detail</text>
<text text-anchor="middle" x="1184" y="-253.5" font-family="Helvetica,sans-Serif" font-size="10.00">/panoc&#45;helpers.hpp</text>
</a>
</g>
</g>
<!-- Node1&#45;&gt;Node25 -->
<g id="edge28" class="edge">
<title>Node1&#45;&gt;Node25</title>
<path fill="none" stroke="midnightblue" d="M1346.78,-313.48C1318.64,-304.66 1273.95,-290.67 1238.51,-279.57"/>
<polygon fill="midnightblue" stroke="midnightblue" points="1239.37,-276.17 1228.78,-276.52 1237.28,-282.85 1239.37,-276.17"/>
</g>
<!-- Node26 -->
<g id="node26" class="node">
<title>Node26</title>
<g id="a_node26"><a xlink:title=" ">
<polygon fill="white" stroke="#bfbfbf" points="1402,-252 1402,-271 1454,-271 1454,-252 1402,-252"/>
<text text-anchor="middle" x="1428" y="-259" font-family="Helvetica,sans-Serif" font-size="10.00">cassert</text>
</a>
</g>
</g>
<!-- Node1&#45;&gt;Node26 -->
<g id="edge35" class="edge">
<title>Node1&#45;&gt;Node26</title>
<path fill="none" stroke="midnightblue" d="M1381.74,-313.48C1390,-304.37 1403.28,-289.74 1413.49,-278.48"/>
<polygon fill="midnightblue" stroke="midnightblue" points="1416.15,-280.77 1420.28,-271.01 1410.97,-276.06 1416.15,-280.77"/>
</g>
<!-- Node27 -->
<g id="node27" class="node">
<title>Node27</title>
<g id="a_node27"><a xlink:title=" ">
<polygon fill="white" stroke="#bfbfbf" points="1472.5,-252 1472.5,-271 1519.5,-271 1519.5,-252 1472.5,-252"/>
<text text-anchor="middle" x="1496" y="-259" font-family="Helvetica,sans-Serif" font-size="10.00">cmath</text>
</a>
</g>
</g>
<!-- Node1&#45;&gt;Node27 -->
<g id="edge36" class="edge">
<title>Node1&#45;&gt;Node27</title>
<path fill="none" stroke="midnightblue" d="M1391.48,-313.48C1411.86,-303.53 1445.78,-286.99 1469.42,-275.46"/>
<polygon fill="midnightblue" stroke="midnightblue" points="1471.1,-278.54 1478.55,-271.01 1468.03,-272.25 1471.1,-278.54"/>
</g>
<!-- Node28 -->
<g id="node28" class="node">
<title>Node28</title>
<g id="a_node28"><a xlink:title=" ">
<polygon fill="white" stroke="#bfbfbf" points="1538,-252 1538,-271 1594,-271 1594,-252 1538,-252"/>
<text text-anchor="middle" x="1566" y="-259" font-family="Helvetica,sans-Serif" font-size="10.00">iomanip</text>
</a>
</g>
</g>
<!-- Node1&#45;&gt;Node28 -->
<g id="edge37" class="edge">
<title>Node1&#45;&gt;Node28</title>
<path fill="none" stroke="midnightblue" d="M1406.63,-313.46C1438.18,-304.97 1487.22,-291.22 1529,-277 1531.12,-276.28 1533.3,-275.5 1535.49,-274.71"/>
<polygon fill="midnightblue" stroke="midnightblue" points="1536.87,-277.93 1544.99,-271.12 1534.4,-271.38 1536.87,-277.93"/>
</g>
<!-- Node29 -->
<g id="node29" class="node">
<title>Node29</title>
<g id="a_node29"><a xlink:title=" ">
<polygon fill="white" stroke="#bfbfbf" points="1612,-252 1612,-271 1672,-271 1672,-252 1612,-252"/>
<text text-anchor="middle" x="1642" y="-259" font-family="Helvetica,sans-Serif" font-size="10.00">iostream</text>
</a>
</g>
</g>
<!-- Node1&#45;&gt;Node29 -->
<g id="edge38" class="edge">
<title>Node1&#45;&gt;Node29</title>
<path fill="none" stroke="midnightblue" d="M1407.77,-317.12C1452.8,-310.21 1534.76,-296.25 1603,-277 1605.65,-276.25 1608.37,-275.41 1611.08,-274.51"/>
<polygon fill="midnightblue" stroke="midnightblue" points="1612.48,-277.73 1620.75,-271.11 1610.16,-271.13 1612.48,-277.73"/>
</g>
<!-- Node3&#45;&gt;Node2 -->
<g id="edge25" class="edge">
<title>Node3&#45;&gt;Node2</title>
<path fill="none" stroke="midnightblue" d="M455.47,-258.46C368.42,-254.44 201.77,-242.8 64,-210 61,-209.29 57.93,-208.41 54.87,-207.44"/>
<polygon fill="midnightblue" stroke="midnightblue" points="55.95,-204.11 45.35,-204.14 53.65,-210.72 55.95,-204.11"/>
</g>
<!-- Node4 -->
<g id="node4" class="node">
<title>Node4</title>
<g id="a_node4"><a xlink:href="lbfgs-stepsize_8hpp.html" target="_top" xlink:title=" ">
<polygon fill="white" stroke="black" points="230.5,-179.5 230.5,-209.5 349.5,-209.5 349.5,-179.5 230.5,-179.5"/>
<text text-anchor="start" x="238.5" y="-197.5" font-family="Helvetica,sans-Serif" font-size="10.00">panoc&#45;alm/inner/decl</text>
<text text-anchor="middle" x="290" y="-186.5" font-family="Helvetica,sans-Serif" font-size="10.00">/lbfgs&#45;stepsize.hpp</text>
</a>
</g>
</g>
<!-- Node3&#45;&gt;Node4 -->
<g id="edge3" class="edge">
<title>Node3&#45;&gt;Node4</title>
<path fill="none" stroke="midnightblue" d="M466.46,-246.48C431.97,-236.51 385.49,-223.09 348.89,-212.51"/>
<polygon fill="midnightblue" stroke="midnightblue" points="349.42,-209.02 338.85,-209.61 347.48,-215.75 349.42,-209.02"/>
</g>
<!-- Node5 -->
<g id="node5" class="node">
<title>Node5</title>
<g id="a_node5"><a xlink:href="panoc-fwd_8hpp.html" target="_top" xlink:title=" ">
<polygon fill="white" stroke="black" points="367.5,-179.5 367.5,-209.5 486.5,-209.5 486.5,-179.5 367.5,-179.5"/>
<text text-anchor="start" x="375.5" y="-197.5" font-family="Helvetica,sans-Serif" font-size="10.00">panoc&#45;alm/inner/decl</text>
<text text-anchor="middle" x="427" y="-186.5" font-family="Helvetica,sans-Serif" font-size="10.00">/panoc&#45;fwd.hpp</text>
</a>
</g>
</g>
<!-- Node3&#45;&gt;Node5 -->
<g id="edge4" class="edge">
<title>Node3&#45;&gt;Node5</title>
<path fill="none" stroke="midnightblue" d="M495.91,-246.4C483.68,-237.37 467.63,-225.51 454.1,-215.52"/>
<polygon fill="midnightblue" stroke="midnightblue" points="456.18,-212.7 446.06,-209.58 452.02,-218.33 456.18,-212.7"/>
</g>
<!-- Node7 -->
<g id="node7" class="node">
<title>Node7</title>
<g id="a_node7"><a xlink:href="panoc-stop-crit_8hpp.html" target="_top" xlink:title=" ">
<polygon fill="white" stroke="black" points="1238.5,-179.5 1238.5,-209.5 1357.5,-209.5 1357.5,-179.5 1238.5,-179.5"/>
<text text-anchor="start" x="1246.5" y="-197.5" font-family="Helvetica,sans-Serif" font-size="10.00">panoc&#45;alm/inner/decl</text>
<text text-anchor="middle" x="1298" y="-186.5" font-family="Helvetica,sans-Serif" font-size="10.00">/panoc&#45;stop&#45;crit.hpp</text>
</a>
</g>
</g>
<!-- Node3&#45;&gt;Node7 -->
<g id="edge6" class="edge">
<title>Node3&#45;&gt;Node7</title>
<path fill="none" stroke="midnightblue" d="M574.62,-259.1C696.05,-255.64 980.85,-244.41 1228.48,-210.09"/>
<polygon fill="midnightblue" stroke="midnightblue" points="1228.96,-213.56 1238.38,-208.71 1227.99,-206.63 1228.96,-213.56"/>
</g>
<!-- Node3&#45;&gt;Node10 -->
<g id="edge9" class="edge">
<title>Node3&#45;&gt;Node10</title>
<path fill="none" stroke="midnightblue" d="M540.17,-246.4C556.74,-237.11 578.64,-224.84 596.78,-214.67"/>
<polygon fill="midnightblue" stroke="midnightblue" points="598.87,-217.52 605.88,-209.58 595.44,-211.41 598.87,-217.52"/>
</g>
<!-- Node14 -->
<g id="node14" class="node">
<title>Node14</title>
<g id="a_node14"><a xlink:href="atomic__stop__signal_8hpp.html" target="_top" xlink:title=" ">
<polygon fill="white" stroke="black" points="737,-179.5 737,-209.5 861,-209.5 861,-179.5 737,-179.5"/>
<text text-anchor="start" x="745" y="-197.5" font-family="Helvetica,sans-Serif" font-size="10.00">panoc&#45;alm/util/atomic</text>
<text text-anchor="middle" x="799" y="-186.5" font-family="Helvetica,sans-Serif" font-size="10.00">_stop_signal.hpp</text>
</a>
</g>
</g>
<!-- Node3&#45;&gt;Node14 -->
<g id="edge13" class="edge">
<title>Node3&#45;&gt;Node14</title>
<path fill="none" stroke="midnightblue" d="M574.54,-246.87C619.18,-236.66 680.47,-222.63 727.72,-211.81"/>
<polygon fill="midnightblue" stroke="midnightblue" points="728.61,-215.2 737.58,-209.56 727.05,-208.38 728.61,-215.2"/>
</g>
<!-- Node15 -->
<g id="node15" class="node">
<title>Node15</title>
<g id="a_node15"><a xlink:title=" ">
<polygon fill="white" stroke="#bfbfbf" points="508,-118 508,-137 558,-137 558,-118 508,-118"/>
<text text-anchor="middle" x="533" y="-125" font-family="Helvetica,sans-Serif" font-size="10.00">atomic</text>
</a>
</g>
</g>
<!-- Node3&#45;&gt;Node15 -->
<g id="edge24" class="edge">
<title>Node3&#45;&gt;Node15</title>
<path fill="none" stroke="midnightblue" d="M516.93,-246.37C520.2,-222.4 526.83,-173.75 530.47,-147.06"/>
<polygon fill="midnightblue" stroke="midnightblue" points="533.94,-147.48 531.83,-137.1 527.01,-146.53 533.94,-147.48"/>
</g>
<!-- Node16 -->
<g id="node16" class="node">
<title>Node16</title>
<g id="a_node16"><a xlink:href="lipschitz_8hpp.html" target="_top" xlink:title=" ">
<polygon fill="white" stroke="black" points="92,-118 92,-137 244,-137 244,-118 92,-118"/>
<text text-anchor="middle" x="168" y="-125" font-family="Helvetica,sans-Serif" font-size="10.00">panoc&#45;alm/util/lipschitz.hpp</text>
</a>
</g>
</g>
<!-- Node3&#45;&gt;Node16 -->
<g id="edge15" class="edge">
<title>Node3&#45;&gt;Node16</title>
<path fill="none" stroke="midnightblue" d="M455.34,-257.6C345.51,-251.65 120.37,-236.36 97,-210 75.97,-186.28 113.6,-158.38 141.64,-142.14"/>
<polygon fill="midnightblue" stroke="midnightblue" points="143.65,-145.03 150.68,-137.11 140.24,-138.92 143.65,-145.03"/>
</g>
<!-- Node17 -->
<g id="node17" class="node">
<title>Node17</title>
<g id="a_node17"><a xlink:href="include_2panoc-alm_2util_2problem_8hpp.html" target="_top" xlink:title=" ">
<polygon fill="white" stroke="black" points="879,-185 879,-204 1031,-204 1031,-185 879,-185"/>
<text text-anchor="middle" x="955" y="-192" font-family="Helvetica,sans-Serif" font-size="10.00">panoc&#45;alm/util/problem.hpp</text>
</a>
</g>
</g>
<!-- Node3&#45;&gt;Node17 -->
<g id="edge17" class="edge">
<title>Node3&#45;&gt;Node17</title>
<path fill="none" stroke="midnightblue" d="M574.75,-252.51C645.36,-242.96 766.36,-226.21 870,-210 878.6,-208.66 887.67,-207.17 896.56,-205.69"/>
<polygon fill="midnightblue" stroke="midnightblue" points="897.21,-209.13 906.49,-204.01 896.05,-202.22 897.21,-209.13"/>
</g>
<!-- Node21 -->
<g id="node21" class="node">
<title>Node21</title>
<g id="a_node21"><a xlink:href="solverstatus_8hpp.html" target="_top" xlink:title=" ">
<polygon fill="white" stroke="black" points="1049.5,-185 1049.5,-204 1220.5,-204 1220.5,-185 1049.5,-185"/>
<text text-anchor="middle" x="1135" y="-192" font-family="Helvetica,sans-Serif" font-size="10.00">panoc&#45;alm/util/solverstatus.hpp</text>
</a>
</g>
</g>
<!-- Node3&#45;&gt;Node21 -->
<g id="edge22" class="edge">
<title>Node3&#45;&gt;Node21</title>
<path fill="none" stroke="midnightblue" d="M574.56,-255.86C672.04,-248.01 871.67,-230.93 1040,-210 1050.41,-208.71 1061.45,-207.17 1072.16,-205.59"/>
<polygon fill="midnightblue" stroke="midnightblue" points="1072.94,-209.02 1082.31,-204.08 1071.9,-202.09 1072.94,-209.02"/>
</g>
<!-- Node23 -->
<g id="node23" class="node">
<title>Node23</title>
<g id="a_node23"><a xlink:title=" ">
<polygon fill="white" stroke="#bfbfbf" points="106,-185 106,-204 150,-204 150,-185 106,-185"/>
<text text-anchor="middle" x="128" y="-192" font-family="Helvetica,sans-Serif" font-size="10.00">limits</text>
</a>
</g>
</g>
<!-- Node3&#45;&gt;Node23 -->
<g id="edge26" class="edge">
<title>Node3&#45;&gt;Node23</title>
<path fill="none" stroke="midnightblue" d="M455.27,-257.44C383.6,-252.53 260.41,-240.18 159,-210 157.12,-209.44 155.21,-208.78 153.31,-208.07"/>
<polygon fill="midnightblue" stroke="midnightblue" points="154.63,-204.82 144.05,-204.11 151.87,-211.26 154.63,-204.82"/>
</g>
<!-- Node24 -->
<g id="node24" class="node">
<title>Node24</title>
<g id="a_node24"><a xlink:title=" ">
<polygon fill="white" stroke="#bfbfbf" points="168,-185 168,-204 212,-204 212,-185 168,-185"/>
<text text-anchor="middle" x="190" y="-192" font-family="Helvetica,sans-Serif" font-size="10.00">string</text>
</a>
</g>
</g>
<!-- Node3&#45;&gt;Node24 -->
<g id="edge27" class="edge">
<title>Node3&#45;&gt;Node24</title>
<path fill="none" stroke="midnightblue" d="M455.33,-254.98C395.14,-248.32 300.07,-234.79 221,-210 219.13,-209.41 217.23,-208.74 215.33,-208"/>
<polygon fill="midnightblue" stroke="midnightblue" points="216.65,-204.76 206.08,-204.02 213.88,-211.19 216.65,-204.76"/>
</g>
<!-- Node6 -->
<g id="node6" class="node">
<title>Node6</title>
<g id="a_node6"><a xlink:href="lbfgs-fwd_8hpp.html" target="_top" xlink:title=" ">
<polygon fill="white" stroke="black" points="342.5,-112.5 342.5,-142.5 489.5,-142.5 489.5,-112.5 342.5,-112.5"/>
<text text-anchor="start" x="350.5" y="-130.5" font-family="Helvetica,sans-Serif" font-size="10.00">panoc&#45;alm/inner/directions</text>
<text text-anchor="middle" x="416" y="-119.5" font-family="Helvetica,sans-Serif" font-size="10.00">/decl/lbfgs&#45;fwd.hpp</text>
</a>
</g>
</g>
<!-- Node5&#45;&gt;Node6 -->
<g id="edge5" class="edge">
<title>Node5&#45;&gt;Node6</title>
<path fill="none" stroke="midnightblue" d="M424.61,-179.4C423.29,-171.56 421.6,-161.6 420.07,-152.57"/>
<polygon fill="midnightblue" stroke="midnightblue" points="423.5,-151.85 418.38,-142.58 416.6,-153.02 423.5,-151.85"/>
</g>
<!-- Node8 -->
<g id="node8" class="node">
<title>Node8</title>
<g id="a_node8"><a xlink:title=" ">
<polygon fill="white" stroke="#bfbfbf" points="1269.5,-118 1269.5,-137 1326.5,-137 1326.5,-118 1269.5,-118"/>
<text text-anchor="middle" x="1298" y="-125" font-family="Helvetica,sans-Serif" font-size="10.00">ostream</text>
</a>
</g>
</g>
<!-- Node7&#45;&gt;Node8 -->
<g id="edge7" class="edge">
<title>Node7&#45;&gt;Node8</title>
<path fill="none" stroke="midnightblue" d="M1298,-179.4C1298,-170.06 1298,-157.71 1298,-147.52"/>
<polygon fill="midnightblue" stroke="midnightblue" points="1301.5,-147.19 1298,-137.19 1294.5,-147.19 1301.5,-147.19"/>
</g>
<!-- Node7&#45;&gt;Node9 -->
<g id="edge8" class="edge">
<title>Node7&#45;&gt;Node9</title>
<path fill="none" stroke="midnightblue" d="M1317.09,-179.4C1331.58,-168.7 1351.43,-154.03 1366.11,-143.19"/>
<polygon fill="midnightblue" stroke="midnightblue" points="1368.52,-145.76 1374.48,-137.01 1364.36,-140.13 1368.52,-145.76"/>
</g>
<!-- Node11 -->
<g id="node11" class="node">
<title>Node11</title>
<g id="a_node11"><a xlink:href="box_8hpp.html" target="_top" xlink:title=" ">
<polygon fill="white" stroke="black" points="576.5,-118 576.5,-137 705.5,-137 705.5,-118 576.5,-118"/>
<text text-anchor="middle" x="641" y="-125" font-family="Helvetica,sans-Serif" font-size="10.00">panoc&#45;alm/util/box.hpp</text>
</a>
</g>
</g>
<!-- Node10&#45;&gt;Node11 -->
<g id="edge10" class="edge">
<title>Node10&#45;&gt;Node11</title>
<path fill="none" stroke="midnightblue" d="M633.17,-179.4C634.62,-169.96 636.55,-157.45 638.12,-147.19"/>
<polygon fill="midnightblue" stroke="midnightblue" points="641.6,-147.61 639.66,-137.19 634.68,-146.55 641.6,-147.61"/>
</g>
<!-- Node12 -->
<g id="node12" class="node">
<title>Node12</title>
<g id="a_node12"><a xlink:href="vec_8hpp.html" target="_top" xlink:title=" ">
<polygon fill="white" stroke="black" points="336.5,-56.5 336.5,-75.5 391.5,-75.5 391.5,-56.5 336.5,-56.5"/>
<text text-anchor="middle" x="364" y="-63.5" font-family="Helvetica,sans-Serif" font-size="10.00">vec.hpp</text>
</a>
</g>
</g>
<!-- Node11&#45;&gt;Node12 -->
<g id="edge11" class="edge">
<title>Node11&#45;&gt;Node12</title>
<path fill="none" stroke="midnightblue" d="M601.31,-117.98C548.02,-106.53 454,-86.33 401.73,-75.1"/>
<polygon fill="midnightblue" stroke="midnightblue" points="402.36,-71.66 391.85,-72.98 400.89,-78.5 402.36,-71.66"/>
</g>
<!-- Node13 -->
<g id="node13" class="node">
<title>Node13</title>
<g id="a_node13"><a xlink:title=" ">
<polygon fill="white" stroke="#bfbfbf" points="329.5,-0.5 329.5,-19.5 398.5,-19.5 398.5,-0.5 329.5,-0.5"/>
<text text-anchor="middle" x="364" y="-7.5" font-family="Helvetica,sans-Serif" font-size="10.00">Eigen/Core</text>
</a>
</g>
</g>
<!-- Node12&#45;&gt;Node13 -->
<g id="edge12" class="edge">
<title>Node12&#45;&gt;Node13</title>
<path fill="none" stroke="midnightblue" d="M364,-56.08C364,-49.01 364,-38.86 364,-29.99"/>
<polygon fill="midnightblue" stroke="midnightblue" points="367.5,-29.75 364,-19.75 360.5,-29.75 367.5,-29.75"/>
</g>
<!-- Node14&#45;&gt;Node15 -->
<g id="edge14" class="edge">
<title>Node14&#45;&gt;Node15</title>
<path fill="none" stroke="midnightblue" d="M736.88,-180.51C674.07,-167.29 584.03,-148.03 568,-143 565.86,-142.33 563.67,-141.58 561.47,-140.78"/>
<polygon fill="midnightblue" stroke="midnightblue" points="562.62,-137.47 552.03,-137.1 560.08,-143.99 562.62,-137.47"/>
</g>
<!-- Node16&#45;&gt;Node12 -->
<g id="edge16" class="edge">
<title>Node16&#45;&gt;Node12</title>
<path fill="none" stroke="midnightblue" d="M196.08,-117.98C230.38,-107.56 288.53,-89.91 326.59,-78.36"/>
<polygon fill="midnightblue" stroke="midnightblue" points="327.73,-81.67 336.29,-75.41 325.7,-74.97 327.73,-81.67"/>
</g>
<!-- Node17&#45;&gt;Node11 -->
<g id="edge18" class="edge">
<title>Node17&#45;&gt;Node11</title>
<path fill="none" stroke="midnightblue" d="M913.63,-184.94C856.68,-173.15 754.19,-151.93 692.39,-139.14"/>
<polygon fill="midnightblue" stroke="midnightblue" points="692.97,-135.68 682.46,-137.08 691.55,-142.54 692.97,-135.68"/>
</g>
<!-- Node18 -->
<g id="node18" class="node">
<title>Node18</title>
<g id="a_node18"><a xlink:title=" ">
<polygon fill="white" stroke="#bfbfbf" points="1007.5,-118 1007.5,-137 1072.5,-137 1072.5,-118 1007.5,-118"/>
<text text-anchor="middle" x="1040" y="-125" font-family="Helvetica,sans-Serif" font-size="10.00">functional</text>
</a>
</g>
</g>
<!-- Node17&#45;&gt;Node18 -->
<g id="edge19" class="edge">
<title>Node17&#45;&gt;Node18</title>
<path fill="none" stroke="midnightblue" d="M966.46,-184.73C980.36,-174.11 1003.98,-156.05 1020.69,-143.26"/>
<polygon fill="midnightblue" stroke="midnightblue" points="1022.9,-145.98 1028.72,-137.13 1018.65,-140.42 1022.9,-145.98"/>
</g>
<!-- Node19 -->
<g id="node19" class="node">
<title>Node19</title>
<g id="a_node19"><a xlink:title=" ">
<polygon fill="white" stroke="#bfbfbf" points="844,-118 844,-137 902,-137 902,-118 844,-118"/>
<text text-anchor="middle" x="873" y="-125" font-family="Helvetica,sans-Serif" font-size="10.00">memory</text>
</a>
</g>
</g>
<!-- Node17&#45;&gt;Node19 -->
<g id="edge20" class="edge">
<title>Node17&#45;&gt;Node19</title>
<path fill="none" stroke="midnightblue" d="M943.94,-184.73C930.66,-174.21 908.17,-156.38 892.07,-143.62"/>
<polygon fill="midnightblue" stroke="midnightblue" points="893.89,-140.6 883.88,-137.13 889.55,-146.08 893.89,-140.6"/>
</g>
<!-- Node20 -->
<g id="node20" class="node">
<title>Node20</title>
<g id="a_node20"><a xlink:title=" ">
<polygon fill="white" stroke="#bfbfbf" points="920.5,-118 920.5,-137 989.5,-137 989.5,-118 920.5,-118"/>
<text text-anchor="middle" x="955" y="-125" font-family="Helvetica,sans-Serif" font-size="10.00">type_traits</text>
</a>
</g>
</g>
<!-- Node17&#45;&gt;Node20 -->
<g id="edge21" class="edge">
<title>Node17&#45;&gt;Node20</title>
<path fill="none" stroke="midnightblue" d="M955,-184.73C955,-175.18 955,-159.62 955,-147.28"/>
<polygon fill="midnightblue" stroke="midnightblue" points="958.5,-147.13 955,-137.13 951.5,-147.13 958.5,-147.13"/>
</g>
<!-- Node22 -->
<g id="node22" class="node">
<title>Node22</title>
<g id="a_node22"><a xlink:title=" ">
<polygon fill="white" stroke="#bfbfbf" points="1111,-118 1111,-137 1159,-137 1159,-118 1111,-118"/>
<text text-anchor="middle" x="1135" y="-125" font-family="Helvetica,sans-Serif" font-size="10.00">iosfwd</text>
</a>
</g>
</g>
<!-- Node21&#45;&gt;Node22 -->
<g id="edge23" class="edge">
<title>Node21&#45;&gt;Node22</title>
<path fill="none" stroke="midnightblue" d="M1135,-184.73C1135,-175.18 1135,-159.62 1135,-147.28"/>
<polygon fill="midnightblue" stroke="midnightblue" points="1138.5,-147.13 1135,-137.13 1131.5,-147.13 1138.5,-147.13"/>
</g>
<!-- Node25&#45;&gt;Node7 -->
<g id="edge29" class="edge">
<title>Node25&#45;&gt;Node7</title>
<path fill="none" stroke="midnightblue" d="M1208.74,-246.4C1225.02,-237.11 1246.54,-224.84 1264.37,-214.67"/>
<polygon fill="midnightblue" stroke="midnightblue" points="1266.36,-217.57 1273.31,-209.58 1262.89,-211.49 1266.36,-217.57"/>
</g>
<!-- Node25&#45;&gt;Node9 -->
<g id="edge33" class="edge">
<title>Node25&#45;&gt;Node9</title>
<path fill="none" stroke="midnightblue" d="M1247.78,-258.78C1287.34,-254.29 1336.29,-241.97 1367,-210 1383.09,-193.25 1386.49,-165.65 1386.78,-147.27"/>
<polygon fill="midnightblue" stroke="midnightblue" points="1390.28,-147.16 1386.64,-137.2 1383.28,-147.25 1390.28,-147.16"/>
</g>
<!-- Node25&#45;&gt;Node14 -->
<g id="edge30" class="edge">
<title>Node25&#45;&gt;Node14</title>
<path fill="none" stroke="midnightblue" d="M1120.42,-251.08C1059.13,-241.81 963.51,-226.88 871.37,-210.21"/>
<polygon fill="midnightblue" stroke="midnightblue" points="871.77,-206.72 861.31,-208.38 870.52,-213.61 871.77,-206.72"/>
</g>
<!-- Node25&#45;&gt;Node17 -->
<g id="edge31" class="edge">
<title>Node25&#45;&gt;Node17</title>
<path fill="none" stroke="midnightblue" d="M1134.59,-246.48C1092.83,-234.62 1033.77,-217.86 994.94,-206.84"/>
<polygon fill="midnightblue" stroke="midnightblue" points="995.62,-203.39 985.05,-204.03 993.71,-210.13 995.62,-203.39"/>
</g>
<!-- Node25&#45;&gt;Node21 -->
<g id="edge32" class="edge">
<title>Node25&#45;&gt;Node21</title>
<path fill="none" stroke="midnightblue" d="M1173.37,-246.4C1165.8,-236.36 1155.61,-222.84 1147.63,-212.25"/>
<polygon fill="midnightblue" stroke="midnightblue" points="1150.37,-210.07 1141.55,-204.19 1144.78,-214.29 1150.37,-210.07"/>
</g>
</g>
</svg>
