<?xml version="1.0" encoding="UTF-8" standalone="no"?>
<!DOCTYPE svg PUBLIC "-//W3C//DTD SVG 1.1//EN"
 "http://www.w3.org/Graphics/SVG/1.1/DTD/svg11.dtd">
<!-- Generated by graphviz version 2.43.0 (0)
 -->
<!-- Title: lipschitz.hpp Pages: 1 -->
<svg width="1153pt" height="308pt"
 viewBox="0.00 0.00 1153.00 308.00" xmlns="http://www.w3.org/2000/svg" xmlns:xlink="http://www.w3.org/1999/xlink">
<g id="graph0" class="graph" transform="scale(1 1) rotate(0) translate(4 304)">
<title>lipschitz.hpp</title>
<polygon fill="white" stroke="transparent" points="-4,4 -4,-304 1149,-304 1149,4 -4,4"/>
<!-- Node1 -->
<g id="node1" class="node">
<title>Node1</title>
<g id="a_node1"><a xlink:title=" ">
<polygon fill="#bfbfbf" stroke="black" points="196,-280.5 196,-299.5 274,-299.5 274,-280.5 196,-280.5"/>
<text text-anchor="middle" x="235" y="-287.5" font-family="Helvetica,sans-Serif" font-size="10.00">lipschitz.hpp</text>
</a>
</g>
</g>
<!-- Node2 -->
<g id="node2" class="node">
<title>Node2</title>
<g id="a_node2"><a xlink:href="inner_2decl_2panoc_8hpp.html" target="_top" xlink:title=" ">
<polygon fill="white" stroke="black" points="609.5,-224.5 609.5,-243.5 676.5,-243.5 676.5,-224.5 609.5,-224.5"/>
<text text-anchor="middle" x="643" y="-231.5" font-family="Helvetica,sans-Serif" font-size="10.00">panoc.hpp</text>
</a>
</g>
</g>
<!-- Node1&#45;&gt;Node2 -->
<g id="edge1" class="edge">
<title>Node1&#45;&gt;Node2</title>
<path fill="none" stroke="midnightblue" d="M284.17,-282.49C368.17,-271.37 537.18,-249.01 609.22,-239.47"/>
<polygon fill="midnightblue" stroke="midnightblue" points="283.58,-279.04 274.12,-283.82 284.49,-285.98 283.58,-279.04"/>
</g>
<!-- Node14 -->
<g id="node14" class="node">
<title>Node14</title>
<g id="a_node14"><a xlink:href="decl_2second-order-panoc_8hpp.html" target="_top" xlink:title=" ">
<polygon fill="white" stroke="black" points="872,-224.5 872,-243.5 1006,-243.5 1006,-224.5 872,-224.5"/>
<text text-anchor="middle" x="939" y="-231.5" font-family="Helvetica,sans-Serif" font-size="10.00">second&#45;order&#45;panoc.hpp</text>
</a>
</g>
</g>
<!-- Node1&#45;&gt;Node14 -->
<g id="edge19" class="edge">
<title>Node1&#45;&gt;Node14</title>
<path fill="none" stroke="midnightblue" d="M284.4,-285.21C408.08,-275.72 731.18,-250.94 871.89,-240.15"/>
<polygon fill="midnightblue" stroke="midnightblue" points="283.81,-281.75 274.11,-286 284.34,-288.73 283.81,-281.75"/>
</g>
<!-- Node17 -->
<g id="node17" class="node">
<title>Node17</title>
<g id="a_node17"><a xlink:href="decl_2structured-panoc-lbfgs_8hpp.html" target="_top" xlink:title=" ">
<polygon fill="white" stroke="black" points="13,-112.5 13,-131.5 161,-131.5 161,-112.5 13,-112.5"/>
<text text-anchor="middle" x="87" y="-119.5" font-family="Helvetica,sans-Serif" font-size="10.00">structured&#45;panoc&#45;lbfgs.hpp</text>
</a>
</g>
</g>
<!-- Node1&#45;&gt;Node17 -->
<g id="edge22" class="edge">
<title>Node1&#45;&gt;Node17</title>
<path fill="none" stroke="midnightblue" d="M220.03,-272.21C188.87,-237.26 118.01,-157.79 94.64,-131.57"/>
<polygon fill="midnightblue" stroke="midnightblue" points="217.78,-274.94 227.04,-280.08 223,-270.28 217.78,-274.94"/>
</g>
<!-- Node20 -->
<g id="node20" class="node">
<title>Node20</title>
<g id="a_node20"><a xlink:href="guarded-aa-pga_8hpp.html" target="_top" xlink:title=" ">
<polygon fill="white" stroke="black" points="291.5,-112.5 291.5,-131.5 406.5,-131.5 406.5,-112.5 291.5,-112.5"/>
<text text-anchor="middle" x="349" y="-119.5" font-family="Helvetica,sans-Serif" font-size="10.00">guarded&#45;aa&#45;pga.hpp</text>
</a>
</g>
</g>
<!-- Node1&#45;&gt;Node20 -->
<g id="edge28" class="edge">
<title>Node1&#45;&gt;Node20</title>
<path fill="none" stroke="midnightblue" d="M246.84,-271.76C270.99,-236.59 325.19,-157.68 343.12,-131.57"/>
<polygon fill="midnightblue" stroke="midnightblue" points="243.91,-269.85 241.13,-280.08 249.68,-273.81 243.91,-269.85"/>
</g>
<!-- Node21 -->
<g id="node21" class="node">
<title>Node21</title>
<g id="a_node21"><a xlink:href="pga_8hpp.html" target="_top" xlink:title=" ">
<polygon fill="white" stroke="black" points="179,-112.5 179,-131.5 235,-131.5 235,-112.5 179,-112.5"/>
<text text-anchor="middle" x="207" y="-119.5" font-family="Helvetica,sans-Serif" font-size="10.00">pga.hpp</text>
</a>
</g>
</g>
<!-- Node1&#45;&gt;Node21 -->
<g id="edge32" class="edge">
<title>Node1&#45;&gt;Node21</title>
<path fill="none" stroke="midnightblue" d="M228.54,-270.95C225.85,-262.81 222.91,-253.02 221,-244 212.21,-202.41 208.59,-151.54 207.44,-131.6"/>
<polygon fill="midnightblue" stroke="midnightblue" points="225.26,-272.19 231.83,-280.5 231.88,-269.9 225.26,-272.19"/>
</g>
<!-- Node3 -->
<g id="node3" class="node">
<title>Node3</title>
<g id="a_node3"><a xlink:href="inner_2panoc_8hpp.html" target="_top" xlink:title=" ">
<polygon fill="white" stroke="black" points="692.5,-168.5 692.5,-187.5 759.5,-187.5 759.5,-168.5 692.5,-168.5"/>
<text text-anchor="middle" x="726" y="-175.5" font-family="Helvetica,sans-Serif" font-size="10.00">panoc.hpp</text>
</a>
</g>
</g>
<!-- Node2&#45;&gt;Node3 -->
<g id="edge2" class="edge">
<title>Node2&#45;&gt;Node3</title>
<path fill="none" stroke="midnightblue" d="M665.1,-218.62C680.26,-208.76 699.88,-195.99 712.7,-187.65"/>
<polygon fill="midnightblue" stroke="midnightblue" points="662.81,-215.94 656.34,-224.32 666.63,-221.8 662.81,-215.94"/>
</g>
<!-- Node4 -->
<g id="node4" class="node">
<title>Node4</title>
<g id="a_node4"><a xlink:href="panocpy_8cpp.html" target="_top" xlink:title="This file defines all Python bindings.">
<polygon fill="white" stroke="black" points="419.5,-0.5 419.5,-19.5 496.5,-19.5 496.5,-0.5 419.5,-0.5"/>
<text text-anchor="middle" x="458" y="-7.5" font-family="Helvetica,sans-Serif" font-size="10.00">panocpy.cpp</text>
</a>
</g>
</g>
<!-- Node2&#45;&gt;Node4 -->
<g id="edge16" class="edge">
<title>Node2&#45;&gt;Node4</title>
<path fill="none" stroke="midnightblue" d="M686.72,-230.32C773.13,-223.14 953.44,-197.72 905,-112 881.26,-70 857.58,-71.83 812,-56 702.12,-17.84 563,-11.45 496.64,-10.75"/>
<polygon fill="midnightblue" stroke="midnightblue" points="686.36,-226.84 676.66,-231.11 686.91,-233.82 686.36,-226.84"/>
</g>
<!-- Node10 -->
<g id="node10" class="node">
<title>Node10</title>
<g id="a_node10"><a xlink:href="standalone_2panoc_8hpp.html" target="_top" xlink:title=" ">
<polygon fill="white" stroke="black" points="973.5,-56.5 973.5,-75.5 1040.5,-75.5 1040.5,-56.5 973.5,-56.5"/>
<text text-anchor="middle" x="1007" y="-63.5" font-family="Helvetica,sans-Serif" font-size="10.00">panoc.hpp</text>
</a>
</g>
</g>
<!-- Node2&#45;&gt;Node10 -->
<g id="edge12" class="edge">
<title>Node2&#45;&gt;Node10</title>
<path fill="none" stroke="midnightblue" d="M686.86,-232.07C763.51,-229.59 917.64,-220.59 959,-188 995.57,-159.19 1004.37,-98.4 1006.41,-75.75"/>
<polygon fill="midnightblue" stroke="midnightblue" points="686.47,-228.58 676.58,-232.38 686.68,-235.57 686.47,-228.58"/>
</g>
<!-- Node11 -->
<g id="node11" class="node">
<title>Node11</title>
<g id="a_node11"><a xlink:href="kwargs-to-struct_8hpp.html" target="_top" xlink:title="This file defines mappings from Python dicts (kwargs) to simple parameter structs.">
<polygon fill="white" stroke="black" points="204,-56.5 204,-75.5 322,-75.5 322,-56.5 204,-56.5"/>
<text text-anchor="middle" x="263" y="-63.5" font-family="Helvetica,sans-Serif" font-size="10.00">kwargs&#45;to&#45;struct.hpp</text>
</a>
</g>
</g>
<!-- Node2&#45;&gt;Node11 -->
<g id="edge14" class="edge">
<title>Node2&#45;&gt;Node11</title>
<path fill="none" stroke="midnightblue" d="M599.29,-233.63C523.95,-232.26 369.31,-218.3 282,-132 266.61,-116.79 263.53,-89.87 263.01,-75.92"/>
<polygon fill="midnightblue" stroke="midnightblue" points="599.34,-237.13 609.38,-233.74 599.42,-230.13 599.34,-237.13"/>
</g>
<!-- Node12 -->
<g id="node12" class="node">
<title>Node12</title>
<g id="a_node12"><a xlink:href="CasADi_2Rosenbrock_2main_8cpp.html" target="_top" xlink:title=" ">
<polygon fill="white" stroke="black" points="532,-168.5 532,-187.5 594,-187.5 594,-168.5 532,-168.5"/>
<text text-anchor="middle" x="563" y="-175.5" font-family="Helvetica,sans-Serif" font-size="10.00">main.cpp</text>
</a>
</g>
</g>
<!-- Node2&#45;&gt;Node12 -->
<g id="edge17" class="edge">
<title>Node2&#45;&gt;Node12</title>
<path fill="none" stroke="midnightblue" d="M621.7,-218.62C607.08,-208.76 588.17,-195.99 575.82,-187.65"/>
<polygon fill="midnightblue" stroke="midnightblue" points="619.9,-221.63 630.15,-224.32 623.82,-215.83 619.9,-221.63"/>
</g>
<!-- Node13 -->
<g id="node13" class="node">
<title>Node13</title>
<g id="a_node13"><a xlink:href="CUTEst_2Rosenbrock_2main_8cpp.html" target="_top" xlink:title=" ">
<polygon fill="white" stroke="black" points="612,-168.5 612,-187.5 674,-187.5 674,-168.5 612,-168.5"/>
<text text-anchor="middle" x="643" y="-175.5" font-family="Helvetica,sans-Serif" font-size="10.00">main.cpp</text>
</a>
</g>
</g>
<!-- Node2&#45;&gt;Node13 -->
<g id="edge18" class="edge">
<title>Node2&#45;&gt;Node13</title>
<path fill="none" stroke="midnightblue" d="M643,-213.8C643,-204.91 643,-194.78 643,-187.75"/>
<polygon fill="midnightblue" stroke="midnightblue" points="639.5,-214.08 643,-224.08 646.5,-214.08 639.5,-214.08"/>
</g>
<!-- Node3&#45;&gt;Node4 -->
<g id="edge3" class="edge">
<title>Node3&#45;&gt;Node4</title>
<path fill="none" stroke="midnightblue" d="M770.06,-174.46C828.82,-169.39 921.73,-154.57 888,-112 839.19,-50.39 592.81,-22.69 496.59,-14.09"/>
<polygon fill="midnightblue" stroke="midnightblue" points="769.57,-170.98 759.88,-175.27 770.13,-177.96 769.57,-170.98"/>
</g>
<!-- Node5 -->
<g id="node5" class="node">
<title>Node5</title>
<g id="a_node5"><a xlink:href="polymorphic-inner-solver_8hpp.html" target="_top" xlink:title=" ">
<polygon fill="white" stroke="black" points="378,-56.5 378,-75.5 538,-75.5 538,-56.5 378,-56.5"/>
<text text-anchor="middle" x="458" y="-63.5" font-family="Helvetica,sans-Serif" font-size="10.00">polymorphic&#45;inner&#45;solver.hpp</text>
</a>
</g>
</g>
<!-- Node3&#45;&gt;Node5 -->
<g id="edge4" class="edge">
<title>Node3&#45;&gt;Node5</title>
<path fill="none" stroke="midnightblue" d="M682.07,-168.2C617.36,-159.89 485.71,-169.09 454,-132 440.48,-116.19 448.46,-89.53 454.02,-75.78"/>
<polygon fill="midnightblue" stroke="midnightblue" points="681.81,-171.7 692.23,-169.76 682.88,-164.78 681.81,-171.7"/>
</g>
<!-- Node6 -->
<g id="node6" class="node">
<title>Node6</title>
<g id="a_node6"><a xlink:href="polymorphic-panoc-direction_8hpp.html" target="_top" xlink:title=" ">
<polygon fill="white" stroke="black" points="463,-112.5 463,-131.5 641,-131.5 641,-112.5 463,-112.5"/>
<text text-anchor="middle" x="552" y="-119.5" font-family="Helvetica,sans-Serif" font-size="10.00">polymorphic&#45;panoc&#45;direction.hpp</text>
</a>
</g>
</g>
<!-- Node3&#45;&gt;Node6 -->
<g id="edge6" class="edge">
<title>Node3&#45;&gt;Node6</title>
<path fill="none" stroke="midnightblue" d="M688.74,-165.44C655.93,-155.26 608.92,-140.66 579.44,-131.52"/>
<polygon fill="midnightblue" stroke="midnightblue" points="687.84,-168.82 698.43,-168.44 689.92,-162.14 687.84,-168.82"/>
</g>
<!-- Node7 -->
<g id="node7" class="node">
<title>Node7</title>
<g id="a_node7"><a xlink:href="alm_8cpp.html" target="_top" xlink:title=" ">
<polygon fill="white" stroke="black" points="659,-112.5 659,-131.5 715,-131.5 715,-112.5 659,-112.5"/>
<text text-anchor="middle" x="687" y="-119.5" font-family="Helvetica,sans-Serif" font-size="10.00">alm.cpp</text>
</a>
</g>
</g>
<!-- Node3&#45;&gt;Node7 -->
<g id="edge9" class="edge">
<title>Node3&#45;&gt;Node7</title>
<path fill="none" stroke="midnightblue" d="M713.62,-159.86C706.86,-150.5 698.79,-139.33 693.32,-131.75"/>
<polygon fill="midnightblue" stroke="midnightblue" points="710.87,-162.03 719.56,-168.08 716.54,-157.93 710.87,-162.03"/>
</g>
<!-- Node8 -->
<g id="node8" class="node">
<title>Node8</title>
<g id="a_node8"><a xlink:href="panoc_8cpp.html" target="_top" xlink:title=" ">
<polygon fill="white" stroke="black" points="733,-112.5 733,-131.5 799,-131.5 799,-112.5 733,-112.5"/>
<text text-anchor="middle" x="766" y="-119.5" font-family="Helvetica,sans-Serif" font-size="10.00">panoc.cpp</text>
</a>
</g>
</g>
<!-- Node3&#45;&gt;Node8 -->
<g id="edge10" class="edge">
<title>Node3&#45;&gt;Node8</title>
<path fill="none" stroke="midnightblue" d="M738.7,-159.86C745.63,-150.5 753.91,-139.33 759.52,-131.75"/>
<polygon fill="midnightblue" stroke="midnightblue" points="735.75,-157.96 732.61,-168.08 741.37,-162.13 735.75,-157.96"/>
</g>
<!-- Node9 -->
<g id="node9" class="node">
<title>Node9</title>
<g id="a_node9"><a xlink:href="Presentation_2Cpp_2main_8cpp.html" target="_top" xlink:title=" ">
<polygon fill="white" stroke="black" points="817,-112.5 817,-131.5 879,-131.5 879,-112.5 817,-112.5"/>
<text text-anchor="middle" x="848" y="-119.5" font-family="Helvetica,sans-Serif" font-size="10.00">main.cpp</text>
</a>
</g>
</g>
<!-- Node3&#45;&gt;Node9 -->
<g id="edge11" class="edge">
<title>Node3&#45;&gt;Node9</title>
<path fill="none" stroke="midnightblue" d="M754.54,-164.37C777.39,-154.26 808.81,-140.35 828.76,-131.52"/>
<polygon fill="midnightblue" stroke="midnightblue" points="753.06,-161.2 745.33,-168.44 755.89,-167.6 753.06,-161.2"/>
</g>
<!-- Node5&#45;&gt;Node4 -->
<g id="edge5" class="edge">
<title>Node5&#45;&gt;Node4</title>
<path fill="none" stroke="midnightblue" d="M458,-45.8C458,-36.91 458,-26.78 458,-19.75"/>
<polygon fill="midnightblue" stroke="midnightblue" points="454.5,-46.08 458,-56.08 461.5,-46.08 454.5,-46.08"/>
</g>
<!-- Node6&#45;&gt;Node4 -->
<g id="edge7" class="edge">
<title>Node6&#45;&gt;Node4</title>
<path fill="none" stroke="midnightblue" d="M555.22,-101.81C556.5,-87.94 555.95,-69.37 547,-56 534.58,-37.44 512.08,-26.16 492.81,-19.53"/>
<polygon fill="midnightblue" stroke="midnightblue" points="551.7,-101.77 553.86,-112.14 558.64,-102.68 551.7,-101.77"/>
</g>
<!-- Node6&#45;&gt;Node5 -->
<g id="edge8" class="edge">
<title>Node6&#45;&gt;Node5</title>
<path fill="none" stroke="midnightblue" d="M527.94,-107.18C510.64,-97.24 487.85,-84.15 473.07,-75.65"/>
<polygon fill="midnightblue" stroke="midnightblue" points="526.48,-110.38 536.9,-112.32 529.97,-104.31 526.48,-110.38"/>
</g>
<!-- Node10&#45;&gt;Node4 -->
<g id="edge13" class="edge">
<title>Node10&#45;&gt;Node4</title>
<path fill="none" stroke="midnightblue" d="M963.47,-56.65C961.96,-56.42 960.47,-56.2 959,-56 787.5,-32.28 581.17,-18.31 496.8,-13.21"/>
<polygon fill="midnightblue" stroke="midnightblue" points="963.06,-60.13 973.5,-58.29 964.2,-53.22 963.06,-60.13"/>
</g>
<!-- Node11&#45;&gt;Node4 -->
<g id="edge15" class="edge">
<title>Node11&#45;&gt;Node4</title>
<path fill="none" stroke="midnightblue" d="M303.81,-53.7C340.61,-43.51 393.93,-28.74 427.25,-19.52"/>
<polygon fill="midnightblue" stroke="midnightblue" points="302.6,-50.4 293.9,-56.44 304.47,-57.15 302.6,-50.4"/>
</g>
<!-- Node15 -->
<g id="node15" class="node">
<title>Node15</title>
<g id="a_node15"><a xlink:href="second-order-panoc_8hpp.html" target="_top" xlink:title=" ">
<polygon fill="white" stroke="black" points="1011,-168.5 1011,-187.5 1145,-187.5 1145,-168.5 1011,-168.5"/>
<text text-anchor="middle" x="1078" y="-175.5" font-family="Helvetica,sans-Serif" font-size="10.00">second&#45;order&#45;panoc.hpp</text>
</a>
</g>
</g>
<!-- Node14&#45;&gt;Node15 -->
<g id="edge20" class="edge">
<title>Node14&#45;&gt;Node15</title>
<path fill="none" stroke="midnightblue" d="M970.48,-220.77C996.59,-210.63 1033.04,-196.47 1056.08,-187.52"/>
<polygon fill="midnightblue" stroke="midnightblue" points="969.08,-217.56 961.02,-224.44 971.61,-224.08 969.08,-217.56"/>
</g>
<!-- Node16 -->
<g id="node16" class="node">
<title>Node16</title>
<g id="a_node16"><a xlink:href="second-order-panoc_8cpp.html" target="_top" xlink:title=" ">
<polygon fill="white" stroke="black" points="1011,-112.5 1011,-131.5 1145,-131.5 1145,-112.5 1011,-112.5"/>
<text text-anchor="middle" x="1078" y="-119.5" font-family="Helvetica,sans-Serif" font-size="10.00">second&#45;order&#45;panoc.cpp</text>
</a>
</g>
</g>
<!-- Node15&#45;&gt;Node16 -->
<g id="edge21" class="edge">
<title>Node15&#45;&gt;Node16</title>
<path fill="none" stroke="midnightblue" d="M1078,-157.8C1078,-148.91 1078,-138.78 1078,-131.75"/>
<polygon fill="midnightblue" stroke="midnightblue" points="1074.5,-158.08 1078,-168.08 1081.5,-158.08 1074.5,-158.08"/>
</g>
<!-- Node17&#45;&gt;Node5 -->
<g id="edge27" class="edge">
<title>Node17&#45;&gt;Node5</title>
<path fill="none" stroke="midnightblue" d="M155.85,-110.98C225.93,-100.78 333.39,-85.14 399.49,-75.52"/>
<polygon fill="midnightblue" stroke="midnightblue" points="155.18,-107.54 145.79,-112.44 156.19,-114.47 155.18,-107.54"/>
</g>
<!-- Node17&#45;&gt;Node11 -->
<g id="edge26" class="edge">
<title>Node17&#45;&gt;Node11</title>
<path fill="none" stroke="midnightblue" d="M124.69,-109.44C157.87,-99.26 205.43,-84.66 235.24,-75.52"/>
<polygon fill="midnightblue" stroke="midnightblue" points="123.42,-106.16 114.89,-112.44 125.47,-112.86 123.42,-106.16"/>
</g>
<!-- Node18 -->
<g id="node18" class="node">
<title>Node18</title>
<g id="a_node18"><a xlink:href="structured-panoc-lbfgs_8hpp.html" target="_top" xlink:title=" ">
<polygon fill="white" stroke="black" points="0,-56.5 0,-75.5 148,-75.5 148,-56.5 0,-56.5"/>
<text text-anchor="middle" x="74" y="-63.5" font-family="Helvetica,sans-Serif" font-size="10.00">structured&#45;panoc&#45;lbfgs.hpp</text>
</a>
</g>
</g>
<!-- Node17&#45;&gt;Node18 -->
<g id="edge23" class="edge">
<title>Node17&#45;&gt;Node18</title>
<path fill="none" stroke="midnightblue" d="M82.45,-102.1C80.29,-93.14 77.82,-82.86 76.11,-75.75"/>
<polygon fill="midnightblue" stroke="midnightblue" points="79.11,-103.18 84.85,-112.08 85.92,-101.54 79.11,-103.18"/>
</g>
<!-- Node18&#45;&gt;Node4 -->
<g id="edge24" class="edge">
<title>Node18&#45;&gt;Node4</title>
<path fill="none" stroke="midnightblue" d="M144.95,-55.02C225.86,-43.64 355.21,-25.46 419.34,-16.44"/>
<polygon fill="midnightblue" stroke="midnightblue" points="144.26,-51.59 134.85,-56.44 145.24,-58.52 144.26,-51.59"/>
</g>
<!-- Node19 -->
<g id="node19" class="node">
<title>Node19</title>
<g id="a_node19"><a xlink:href="structured-panoc-lbfgs_8cpp.html" target="_top" xlink:title=" ">
<polygon fill="white" stroke="black" points="0.5,-0.5 0.5,-19.5 147.5,-19.5 147.5,-0.5 0.5,-0.5"/>
<text text-anchor="middle" x="74" y="-7.5" font-family="Helvetica,sans-Serif" font-size="10.00">structured&#45;panoc&#45;lbfgs.cpp</text>
</a>
</g>
</g>
<!-- Node18&#45;&gt;Node19 -->
<g id="edge25" class="edge">
<title>Node18&#45;&gt;Node19</title>
<path fill="none" stroke="midnightblue" d="M74,-45.8C74,-36.91 74,-26.78 74,-19.75"/>
<polygon fill="midnightblue" stroke="midnightblue" points="70.5,-46.08 74,-56.08 77.5,-46.08 70.5,-46.08"/>
</g>
<!-- Node20&#45;&gt;Node4 -->
<g id="edge30" class="edge">
<title>Node20&#45;&gt;Node4</title>
<path fill="none" stroke="midnightblue" d="M350.79,-102.37C353,-88.25 357.95,-69.1 369,-56 384.18,-38 408.35,-26.42 427.67,-19.53"/>
<polygon fill="midnightblue" stroke="midnightblue" points="347.3,-102.05 349.53,-112.41 354.25,-102.92 347.3,-102.05"/>
</g>
<!-- Node20&#45;&gt;Node5 -->
<g id="edge31" class="edge">
<title>Node20&#45;&gt;Node5</title>
<path fill="none" stroke="midnightblue" d="M375.52,-107.86C395.73,-97.85 422.99,-84.35 440.53,-75.65"/>
<polygon fill="midnightblue" stroke="midnightblue" points="373.92,-104.75 366.51,-112.32 377.03,-111.02 373.92,-104.75"/>
</g>
<!-- Node20&#45;&gt;Node11 -->
<g id="edge29" class="edge">
<title>Node20&#45;&gt;Node11</title>
<path fill="none" stroke="midnightblue" d="M326.55,-106.9C310.78,-97 290.19,-84.07 276.78,-75.65"/>
<polygon fill="midnightblue" stroke="midnightblue" points="324.85,-109.97 335.18,-112.32 328.57,-104.04 324.85,-109.97"/>
</g>
<!-- Node21&#45;&gt;Node4 -->
<g id="edge34" class="edge">
<title>Node21&#45;&gt;Node4</title>
<path fill="none" stroke="midnightblue" d="M196.75,-103.42C189.89,-89.08 183.94,-69.11 195,-56 223.26,-22.49 353.47,-13.93 419.45,-11.75"/>
<polygon fill="midnightblue" stroke="midnightblue" points="193.68,-105.1 201.46,-112.3 199.87,-101.82 193.68,-105.1"/>
</g>
<!-- Node21&#45;&gt;Node5 -->
<g id="edge35" class="edge">
<title>Node21&#45;&gt;Node5</title>
<path fill="none" stroke="midnightblue" d="M245.35,-112.75C292.14,-102.68 370.85,-85.75 418.26,-75.55"/>
<polygon fill="midnightblue" stroke="midnightblue" points="244.35,-109.39 235.3,-114.91 245.82,-116.23 244.35,-109.39"/>
</g>
<!-- Node21&#45;&gt;Node11 -->
<g id="edge33" class="edge">
<title>Node21&#45;&gt;Node11</title>
<path fill="none" stroke="midnightblue" d="M223.33,-105.25C233.26,-95.67 245.59,-83.79 253.84,-75.83"/>
<polygon fill="midnightblue" stroke="midnightblue" points="220.77,-102.86 216,-112.32 225.63,-107.9 220.77,-102.86"/>
</g>
</g>
</svg>
