<?xml version="1.0" encoding="UTF-8" standalone="no"?>
<!DOCTYPE svg PUBLIC "-//W3C//DTD SVG 1.1//EN"
 "http://www.w3.org/Graphics/SVG/1.1/DTD/svg11.dtd">
<!-- Generated by graphviz version 2.43.0 (0)
 -->
<!-- Title: norm_inf Pages: 1 -->
<svg width="711pt" height="253pt"
 viewBox="0.00 0.00 711.00 252.50" xmlns="http://www.w3.org/2000/svg" xmlns:xlink="http://www.w3.org/1999/xlink">
<g id="graph0" class="graph" transform="scale(1 1) rotate(0) translate(4 248.5)">
<title>norm_inf</title>
<polygon fill="white" stroke="transparent" points="-4,4 -4,-248.5 707,-248.5 707,4 -4,4"/>
<!-- Node1 -->
<g id="node1" class="node">
<title>Node1</title>
<g id="a_node1"><a xlink:title="Get the maximum or infinity&#45;norm of the given vector.">
<polygon fill="#bfbfbf" stroke="black" points="643,-63.5 643,-82.5 703,-82.5 703,-63.5 643,-63.5"/>
<text text-anchor="middle" x="673" y="-70.5" font-family="Helvetica,sans-Serif" font-size="10.00">norm_inf</text>
</a>
</g>
</g>
<!-- Node2 -->
<g id="node2" class="node">
<title>Node2</title>
<g id="a_node2"><a xlink:href="namespacepa_1_1detail.html#a886972efd9fe413c62efea5eb2cdd0e9" target="_top" xlink:title=" ">
<polygon fill="white" stroke="black" points="478.5,-102 478.5,-132 594.5,-132 594.5,-102 478.5,-102"/>
<text text-anchor="start" x="486.5" y="-120" font-family="Helvetica,sans-Serif" font-size="10.00">pa::detail::calc_error</text>
<text text-anchor="middle" x="536.5" y="-109" font-family="Helvetica,sans-Serif" font-size="10.00">_stop_crit</text>
</a>
</g>
</g>
<!-- Node1&#45;&gt;Node2 -->
<g id="edge1" class="edge">
<title>Node1&#45;&gt;Node2</title>
<path fill="none" stroke="midnightblue" d="M633.05,-85.74C617.57,-90.8 599.66,-96.67 583.55,-101.93"/>
<polygon fill="midnightblue" stroke="midnightblue" points="634.4,-88.98 642.82,-82.55 632.22,-82.33 634.4,-88.98"/>
</g>
<!-- Node11 -->
<g id="node11" class="node">
<title>Node11</title>
<g id="a_node11"><a xlink:href="classpa_1_1ALMSolver.html#a3383f0f2b3a6516f8f031396e1a1289c" target="_top" xlink:title=" ">
<polygon fill="white" stroke="black" points="466,-63.5 466,-82.5 607,-82.5 607,-63.5 466,-63.5"/>
<text text-anchor="middle" x="536.5" y="-70.5" font-family="Helvetica,sans-Serif" font-size="10.00">pa::ALMSolver::operator()</text>
</a>
</g>
</g>
<!-- Node1&#45;&gt;Node11 -->
<g id="edge10" class="edge">
<title>Node1&#45;&gt;Node11</title>
<path fill="none" stroke="midnightblue" d="M632.67,-73C624.63,-73 615.94,-73 607.2,-73"/>
<polygon fill="midnightblue" stroke="midnightblue" points="632.82,-76.5 642.82,-73 632.82,-69.5 632.82,-76.5"/>
</g>
<!-- Node12 -->
<g id="node12" class="node">
<title>Node12</title>
<g id="a_node12"><a xlink:href="classpa_1_1ALMSolverFull.html#ad403c68bcc7c193bbfc1ae7697343016" target="_top" xlink:title=" ">
<polygon fill="white" stroke="black" points="481.5,-14 481.5,-44 591.5,-44 591.5,-14 481.5,-14"/>
<text text-anchor="start" x="489.5" y="-32" font-family="Helvetica,sans-Serif" font-size="10.00">pa::ALMSolverFull::</text>
<text text-anchor="middle" x="536.5" y="-21" font-family="Helvetica,sans-Serif" font-size="10.00">operator()</text>
</a>
</g>
</g>
<!-- Node1&#45;&gt;Node12 -->
<g id="edge11" class="edge">
<title>Node1&#45;&gt;Node12</title>
<path fill="none" stroke="midnightblue" d="M633.05,-60.26C617.57,-55.2 599.66,-49.33 583.55,-44.07"/>
<polygon fill="midnightblue" stroke="midnightblue" points="632.22,-63.67 642.82,-63.45 634.4,-57.02 632.22,-63.67"/>
</g>
<!-- Node3 -->
<g id="node3" class="node">
<title>Node3</title>
<g id="a_node3"><a xlink:href="classpa_1_1SecondOrderPANOCSolver.html#acb04b3f19dafad9b4e7e7c1c19018d19" target="_top" xlink:title=" ">
<polygon fill="white" stroke="black" points="259,-214 259,-244 420,-244 420,-214 259,-214"/>
<text text-anchor="start" x="267" y="-232" font-family="Helvetica,sans-Serif" font-size="10.00">pa::SecondOrderPANOCSolver</text>
<text text-anchor="middle" x="339.5" y="-221" font-family="Helvetica,sans-Serif" font-size="10.00">::operator()</text>
</a>
</g>
</g>
<!-- Node2&#45;&gt;Node3 -->
<g id="edge2" class="edge">
<title>Node2&#45;&gt;Node3</title>
<path fill="none" stroke="midnightblue" d="M514.58,-139.27C494.64,-159.24 462.85,-187.95 430,-205 423.43,-208.41 416.33,-211.37 409.11,-213.93"/>
<polygon fill="midnightblue" stroke="midnightblue" points="517.13,-141.67 521.63,-132.08 512.13,-136.77 517.13,-141.67"/>
</g>
<!-- Node4 -->
<g id="node4" class="node">
<title>Node4</title>
<g id="a_node4"><a xlink:href="classpa_1_1StructuredPANOCLBFGSSolver.html#ade95d8a7a1892d4087d6fffc958cde6e" target="_top" xlink:title=" ">
<polygon fill="white" stroke="black" points="249,-165 249,-195 430,-195 430,-165 249,-165"/>
<text text-anchor="start" x="257" y="-183" font-family="Helvetica,sans-Serif" font-size="10.00">pa::StructuredPANOCLBFGSSolver</text>
<text text-anchor="middle" x="339.5" y="-172" font-family="Helvetica,sans-Serif" font-size="10.00">::operator()</text>
</a>
</g>
</g>
<!-- Node2&#45;&gt;Node4 -->
<g id="edge3" class="edge">
<title>Node2&#45;&gt;Node4</title>
<path fill="none" stroke="midnightblue" d="M486.15,-135.62C468.52,-142.05 448.46,-149.1 430,-155 419.4,-158.39 408.01,-161.76 397.02,-164.89"/>
<polygon fill="midnightblue" stroke="midnightblue" points="487.48,-138.86 495.66,-132.13 485.06,-132.29 487.48,-138.86"/>
</g>
<!-- Node5 -->
<g id="node5" class="node">
<title>Node5</title>
<g id="a_node5"><a xlink:href="classpa_1_1GAAPGASolver.html#a570ec001ea8eee359be8a1b90b782cfb" target="_top" xlink:title=" ">
<polygon fill="white" stroke="black" points="259,-126.5 259,-145.5 420,-145.5 420,-126.5 259,-126.5"/>
<text text-anchor="middle" x="339.5" y="-133.5" font-family="Helvetica,sans-Serif" font-size="10.00">pa::GAAPGASolver::operator()</text>
</a>
</g>
</g>
<!-- Node2&#45;&gt;Node5 -->
<g id="edge4" class="edge">
<title>Node2&#45;&gt;Node5</title>
<path fill="none" stroke="midnightblue" d="M468.3,-123.55C452.78,-125.06 436.12,-126.68 420.13,-128.24"/>
<polygon fill="midnightblue" stroke="midnightblue" points="468.7,-127.03 478.31,-122.57 468.02,-120.06 468.7,-127.03"/>
</g>
<!-- Node6 -->
<g id="node6" class="node">
<title>Node6</title>
<g id="a_node6"><a xlink:href="classpa_1_1PGASolver.html#af516b794e244432023aea7ba3cd0d1d8" target="_top" xlink:title=" ">
<polygon fill="white" stroke="black" points="269.5,-88.5 269.5,-107.5 409.5,-107.5 409.5,-88.5 269.5,-88.5"/>
<text text-anchor="middle" x="339.5" y="-95.5" font-family="Helvetica,sans-Serif" font-size="10.00">pa::PGASolver::operator()</text>
</a>
</g>
</g>
<!-- Node2&#45;&gt;Node6 -->
<g id="edge5" class="edge">
<title>Node2&#45;&gt;Node6</title>
<path fill="none" stroke="midnightblue" d="M468.3,-110.45C449.39,-108.61 428.8,-106.6 409.77,-104.75"/>
<polygon fill="midnightblue" stroke="midnightblue" points="468.02,-113.94 478.31,-111.43 468.7,-106.97 468.02,-113.94"/>
</g>
<!-- Node7 -->
<g id="node7" class="node">
<title>Node7</title>
<g id="a_node7"><a xlink:href="classpa_1_1PANOCSolverFull.html#adc37030e7641b91004d8c509489bc917" target="_top" xlink:title=" ">
<polygon fill="white" stroke="black" points="281.5,-39 281.5,-69 397.5,-69 397.5,-39 281.5,-39"/>
<text text-anchor="start" x="289.5" y="-57" font-family="Helvetica,sans-Serif" font-size="10.00">pa::PANOCSolverFull</text>
<text text-anchor="middle" x="339.5" y="-46" font-family="Helvetica,sans-Serif" font-size="10.00">::operator()</text>
</a>
</g>
</g>
<!-- Node2&#45;&gt;Node7 -->
<g id="edge6" class="edge">
<title>Node2&#45;&gt;Node7</title>
<path fill="none" stroke="midnightblue" d="M484.09,-98.52C477.99,-96.32 471.86,-94.11 466,-92 450,-86.23 446.2,-84.18 430,-79 419.4,-75.61 408.01,-72.23 397.03,-69.1"/>
<polygon fill="midnightblue" stroke="midnightblue" points="483.01,-101.84 493.6,-101.94 485.38,-95.26 483.01,-101.84"/>
</g>
<!-- Node8 -->
<g id="node8" class="node">
<title>Node8</title>
<g id="a_node8"><a xlink:href="namespacepa.html#a2b97bf67604c439eca0a540664930d61" target="_top" xlink:title=" ">
<polygon fill="white" stroke="black" points="294,-0.5 294,-19.5 385,-19.5 385,-0.5 294,-0.5"/>
<text text-anchor="middle" x="339.5" y="-7.5" font-family="Helvetica,sans-Serif" font-size="10.00">pa::panoc_impl</text>
</a>
</g>
</g>
<!-- Node2&#45;&gt;Node8 -->
<g id="edge7" class="edge">
<title>Node2&#45;&gt;Node8</title>
<path fill="none" stroke="midnightblue" d="M472.4,-96.76C470.16,-95.28 468.02,-93.7 466,-92 441.3,-71.26 456.05,-48.01 430,-29 417.17,-19.64 400.71,-14.69 385.41,-12.14"/>
<polygon fill="midnightblue" stroke="midnightblue" points="470.99,-99.99 481.4,-101.97 474.49,-93.93 470.99,-99.99"/>
</g>
<!-- Node9 -->
<g id="node9" class="node">
<title>Node9</title>
<g id="a_node9"><a xlink:href="namespacepa.html#adf74e7674514afed3ae1c356ffcb9e45" target="_top" xlink:title=" ">
<polygon fill="white" stroke="black" points="149,-0.5 149,-19.5 213,-19.5 213,-0.5 149,-0.5"/>
<text text-anchor="middle" x="181" y="-7.5" font-family="Helvetica,sans-Serif" font-size="10.00">pa::panoc</text>
</a>
</g>
</g>
<!-- Node8&#45;&gt;Node9 -->
<g id="edge8" class="edge">
<title>Node8&#45;&gt;Node9</title>
<path fill="none" stroke="midnightblue" d="M283.47,-10C260.01,-10 233.49,-10 213.44,-10"/>
<polygon fill="midnightblue" stroke="midnightblue" points="283.65,-13.5 293.65,-10 283.65,-6.5 283.65,-13.5"/>
</g>
<!-- Node10 -->
<g id="node10" class="node">
<title>Node10</title>
<g id="a_node10"><a xlink:href="panocpy_8cpp.html#a874ce6effe8570e8994966f291e5e321" target="_top" xlink:title=" ">
<polygon fill="white" stroke="black" points="0,-0.5 0,-19.5 113,-19.5 113,-0.5 0,-0.5"/>
<text text-anchor="middle" x="56.5" y="-7.5" font-family="Helvetica,sans-Serif" font-size="10.00">PYBIND11_MODULE</text>
</a>
</g>
</g>
<!-- Node9&#45;&gt;Node10 -->
<g id="edge9" class="edge">
<title>Node9&#45;&gt;Node10</title>
<path fill="none" stroke="midnightblue" d="M138.52,-10C130.45,-10 121.88,-10 113.43,-10"/>
<polygon fill="midnightblue" stroke="midnightblue" points="138.77,-13.5 148.77,-10 138.77,-6.5 138.77,-13.5"/>
</g>
</g>
</svg>
