<?xml version="1.0" encoding="UTF-8" standalone="no"?>
<!DOCTYPE svg PUBLIC "-//W3C//DTD SVG 1.1//EN"
 "http://www.w3.org/Graphics/SVG/1.1/DTD/svg11.dtd">
<!-- Generated by graphviz version 2.43.0 (0)
 -->
<!-- Title: update_penalty_weights Pages: 1 -->
<svg width="321pt" height="78pt"
 viewBox="0.00 0.00 321.00 77.50" xmlns="http://www.w3.org/2000/svg" xmlns:xlink="http://www.w3.org/1999/xlink">
<g id="graph0" class="graph" transform="scale(1 1) rotate(0) translate(4 73.5)">
<title>update_penalty_weights</title>
<polygon fill="white" stroke="transparent" points="-4,4 -4,-73.5 317,-73.5 317,4 -4,4"/>
<!-- Node1 -->
<g id="node1" class="node">
<title>Node1</title>
<g id="a_node1"><a xlink:title=" ">
<polygon fill="#bfbfbf" stroke="black" points="177,-28 177,-47 313,-47 313,-28 177,-28"/>
<text text-anchor="middle" x="245" y="-35" font-family="Helvetica,sans-Serif" font-size="10.00">update_penalty_weights</text>
</a>
</g>
</g>
<!-- Node2 -->
<g id="node2" class="node">
<title>Node2</title>
<g id="a_node2"><a xlink:href="classpa_1_1ALMSolver.html#a3383f0f2b3a6516f8f031396e1a1289c" target="_top" xlink:title=" ">
<polygon fill="white" stroke="black" points="0,-50 0,-69 141,-69 141,-50 0,-50"/>
<text text-anchor="middle" x="70.5" y="-57" font-family="Helvetica,sans-Serif" font-size="10.00">pa::ALMSolver::operator()</text>
</a>
</g>
</g>
<!-- Node1&#45;&gt;Node2 -->
<g id="edge1" class="edge">
<title>Node1&#45;&gt;Node2</title>
<path fill="none" stroke="midnightblue" d="M166.82,-47.34C158.24,-48.44 149.54,-49.55 141.06,-50.63"/>
<polygon fill="midnightblue" stroke="midnightblue" points="167.34,-50.81 176.81,-46.07 166.45,-43.86 167.34,-50.81"/>
</g>
<!-- Node3 -->
<g id="node3" class="node">
<title>Node3</title>
<g id="a_node3"><a xlink:href="classpa_1_1ALMSolverFull.html#ad403c68bcc7c193bbfc1ae7697343016" target="_top" xlink:title=" ">
<polygon fill="white" stroke="black" points="15.5,-0.5 15.5,-30.5 125.5,-30.5 125.5,-0.5 15.5,-0.5"/>
<text text-anchor="start" x="23.5" y="-18.5" font-family="Helvetica,sans-Serif" font-size="10.00">pa::ALMSolverFull::</text>
<text text-anchor="middle" x="70.5" y="-7.5" font-family="Helvetica,sans-Serif" font-size="10.00">operator()</text>
</a>
</g>
</g>
<!-- Node1&#45;&gt;Node3 -->
<g id="edge2" class="edge">
<title>Node1&#45;&gt;Node3</title>
<path fill="none" stroke="midnightblue" d="M166.79,-27.65C152.93,-25.89 138.75,-24.08 125.71,-22.41"/>
<polygon fill="midnightblue" stroke="midnightblue" points="166.45,-31.14 176.81,-28.93 167.34,-24.19 166.45,-31.14"/>
</g>
</g>
</svg>
