<?xml version="1.0" encoding="UTF-8" standalone="no"?>
<!DOCTYPE svg PUBLIC "-//W3C//DTD SVG 1.1//EN"
 "http://www.w3.org/Graphics/SVG/1.1/DTD/svg11.dtd">
<!-- Generated by graphviz version 2.43.0 (0)
 -->
<!-- Title: calc_x̂ Pages: 1 -->
<svg width="652pt" height="302pt"
 viewBox="0.00 0.00 652.00 301.50" xmlns="http://www.w3.org/2000/svg" xmlns:xlink="http://www.w3.org/1999/xlink">
<g id="graph0" class="graph" transform="scale(1 1) rotate(0) translate(4 297.5)">
<title>calc_x̂</title>
<polygon fill="white" stroke="transparent" points="-4,4 -4,-297.5 648,-297.5 648,4 -4,4"/>
<!-- Node1 -->
<g id="node1" class="node">
<title>Node1</title>
<g id="a_node1"><a xlink:title=" ">
<polygon fill="#bfbfbf" stroke="black" points="597,-135.5 597,-154.5 644,-154.5 644,-135.5 597,-135.5"/>
<text text-anchor="middle" x="620.5" y="-142.5" font-family="Helvetica,sans-Serif" font-size="10.00">calc_x̂</text>
</a>
</g>
</g>
<!-- Node2 -->
<g id="node2" class="node">
<title>Node2</title>
<g id="a_node2"><a xlink:href="namespacepa_1_1detail.html#ac7d4fa127500b38a8cec94984c4f598d" target="_top" xlink:title="Increase the estimate of the Lipschitz constant of the objective gradient and decrease the step size ...">
<polygon fill="white" stroke="black" points="466,-154.5 466,-173.5 561,-173.5 561,-154.5 466,-154.5"/>
<text text-anchor="middle" x="513.5" y="-161.5" font-family="Helvetica,sans-Serif" font-size="10.00">descent_lemma</text>
</a>
</g>
</g>
<!-- Node1&#45;&gt;Node2 -->
<g id="edge1" class="edge">
<title>Node1&#45;&gt;Node2</title>
<path fill="none" stroke="midnightblue" d="M587.08,-150.87C578.88,-152.35 569.91,-153.97 561.16,-155.56"/>
<polygon fill="midnightblue" stroke="midnightblue" points="587.76,-154.3 596.97,-149.08 586.51,-147.41 587.76,-154.3"/>
</g>
<!-- Node3 -->
<g id="node3" class="node">
<title>Node3</title>
<g id="a_node3"><a xlink:href="classpa_1_1SecondOrderPANOCSolver.html#acb04b3f19dafad9b4e7e7c1c19018d19" target="_top" xlink:title=" ">
<polygon fill="white" stroke="black" points="259,-263 259,-293 420,-293 420,-263 259,-263"/>
<text text-anchor="start" x="267" y="-281" font-family="Helvetica,sans-Serif" font-size="10.00">pa::SecondOrderPANOCSolver</text>
<text text-anchor="middle" x="339.5" y="-270" font-family="Helvetica,sans-Serif" font-size="10.00">::operator()</text>
</a>
</g>
</g>
<!-- Node1&#45;&gt;Node3 -->
<g id="edge12" class="edge">
<title>Node1&#45;&gt;Node3</title>
<path fill="none" stroke="midnightblue" d="M611.21,-163.96C601.83,-183.13 584.72,-212.12 561,-228 519.49,-255.79 464.77,-268.3 420.22,-273.87"/>
<polygon fill="midnightblue" stroke="midnightblue" points="614.47,-165.26 615.51,-154.71 608.12,-162.31 614.47,-165.26"/>
</g>
<!-- Node4 -->
<g id="node4" class="node">
<title>Node4</title>
<g id="a_node4"><a xlink:href="classpa_1_1StructuredPANOCLBFGSSolver.html#ade95d8a7a1892d4087d6fffc958cde6e" target="_top" xlink:title=" ">
<polygon fill="white" stroke="black" points="249,-214 249,-244 430,-244 430,-214 249,-214"/>
<text text-anchor="start" x="257" y="-232" font-family="Helvetica,sans-Serif" font-size="10.00">pa::StructuredPANOCLBFGSSolver</text>
<text text-anchor="middle" x="339.5" y="-221" font-family="Helvetica,sans-Serif" font-size="10.00">::operator()</text>
</a>
</g>
</g>
<!-- Node1&#45;&gt;Node4 -->
<g id="edge13" class="edge">
<title>Node1&#45;&gt;Node4</title>
<path fill="none" stroke="midnightblue" d="M606.72,-162.57C596.07,-175.76 579.67,-193.05 561,-202 520.66,-221.34 471.6,-228.7 430.01,-230.96"/>
<polygon fill="midnightblue" stroke="midnightblue" points="609.52,-164.67 612.86,-154.61 603.98,-160.39 609.52,-164.67"/>
</g>
<!-- Node5 -->
<g id="node5" class="node">
<title>Node5</title>
<g id="a_node5"><a xlink:href="classpa_1_1PANOCSolver.html#aa782dc3f118d5447eeed004c17bd91f5" target="_top" xlink:title=" ">
<polygon fill="white" stroke="black" points="278.5,-165 278.5,-195 400.5,-195 400.5,-165 278.5,-165"/>
<text text-anchor="start" x="286.5" y="-183" font-family="Helvetica,sans-Serif" font-size="10.00">pa::PANOCSolver&lt;&gt;::</text>
<text text-anchor="middle" x="339.5" y="-172" font-family="Helvetica,sans-Serif" font-size="10.00">operator()</text>
</a>
</g>
</g>
<!-- Node1&#45;&gt;Node5 -->
<g id="edge14" class="edge">
<title>Node1&#45;&gt;Node5</title>
<path fill="none" stroke="midnightblue" d="M600.95,-161.04C590.09,-169.36 575.66,-178.66 561,-183 508.51,-198.55 445.86,-195.79 400.78,-190.33"/>
<polygon fill="midnightblue" stroke="midnightblue" points="603.23,-163.7 608.83,-154.7 598.84,-158.24 603.23,-163.7"/>
</g>
<!-- Node6 -->
<g id="node6" class="node">
<title>Node6</title>
<g id="a_node6"><a xlink:href="classpa_1_1GAAPGASolver.html#a570ec001ea8eee359be8a1b90b782cfb" target="_top" xlink:title=" ">
<polygon fill="white" stroke="black" points="259,-126.5 259,-145.5 420,-145.5 420,-126.5 259,-126.5"/>
<text text-anchor="middle" x="339.5" y="-133.5" font-family="Helvetica,sans-Serif" font-size="10.00">pa::GAAPGASolver::operator()</text>
</a>
</g>
</g>
<!-- Node1&#45;&gt;Node6 -->
<g id="edge15" class="edge">
<title>Node1&#45;&gt;Node6</title>
<path fill="none" stroke="midnightblue" d="M586.5,-143.94C545.8,-142.62 475.23,-140.35 420.08,-138.57"/>
<polygon fill="midnightblue" stroke="midnightblue" points="586.56,-147.44 596.67,-144.26 586.79,-140.44 586.56,-147.44"/>
</g>
<!-- Node7 -->
<g id="node7" class="node">
<title>Node7</title>
<g id="a_node7"><a xlink:href="classpa_1_1PGASolver.html#af516b794e244432023aea7ba3cd0d1d8" target="_top" xlink:title=" ">
<polygon fill="white" stroke="black" points="269.5,-88.5 269.5,-107.5 409.5,-107.5 409.5,-88.5 269.5,-88.5"/>
<text text-anchor="middle" x="339.5" y="-95.5" font-family="Helvetica,sans-Serif" font-size="10.00">pa::PGASolver::operator()</text>
</a>
</g>
</g>
<!-- Node1&#45;&gt;Node7 -->
<g id="edge16" class="edge">
<title>Node1&#45;&gt;Node7</title>
<path fill="none" stroke="midnightblue" d="M586.8,-139.49C540.19,-131.64 453.98,-117.12 396.92,-107.51"/>
<polygon fill="midnightblue" stroke="midnightblue" points="586.23,-142.94 596.67,-141.15 587.39,-136.04 586.23,-142.94"/>
</g>
<!-- Node8 -->
<g id="node8" class="node">
<title>Node8</title>
<g id="a_node8"><a xlink:href="classpa_1_1PANOCSolverFull.html#adc37030e7641b91004d8c509489bc917" target="_top" xlink:title=" ">
<polygon fill="white" stroke="black" points="281.5,-39 281.5,-69 397.5,-69 397.5,-39 281.5,-39"/>
<text text-anchor="start" x="289.5" y="-57" font-family="Helvetica,sans-Serif" font-size="10.00">pa::PANOCSolverFull</text>
<text text-anchor="middle" x="339.5" y="-46" font-family="Helvetica,sans-Serif" font-size="10.00">::operator()</text>
</a>
</g>
</g>
<!-- Node1&#45;&gt;Node8 -->
<g id="edge17" class="edge">
<title>Node1&#45;&gt;Node8</title>
<path fill="none" stroke="midnightblue" d="M593.26,-130.7C583.34,-125.64 571.82,-120.17 561,-116 506.82,-95.13 442.72,-77.9 397.64,-66.94"/>
<polygon fill="midnightblue" stroke="midnightblue" points="591.73,-133.85 602.22,-135.38 594.97,-127.65 591.73,-133.85"/>
</g>
<!-- Node9 -->
<g id="node9" class="node">
<title>Node9</title>
<g id="a_node9"><a xlink:href="namespacepa.html#a2b97bf67604c439eca0a540664930d61" target="_top" xlink:title=" ">
<polygon fill="white" stroke="black" points="294,-0.5 294,-19.5 385,-19.5 385,-0.5 294,-0.5"/>
<text text-anchor="middle" x="339.5" y="-7.5" font-family="Helvetica,sans-Serif" font-size="10.00">pa::panoc_impl</text>
</a>
</g>
</g>
<!-- Node1&#45;&gt;Node9 -->
<g id="edge18" class="edge">
<title>Node1&#45;&gt;Node9</title>
<path fill="none" stroke="midnightblue" d="M606.32,-126.95C595.45,-113.12 578.94,-94.37 561,-82 506.95,-44.75 432.34,-25.75 385.26,-16.85"/>
<polygon fill="midnightblue" stroke="midnightblue" points="603.77,-129.38 612.61,-135.22 609.34,-125.14 603.77,-129.38"/>
</g>
<!-- Node2&#45;&gt;Node3 -->
<g id="edge2" class="edge">
<title>Node2&#45;&gt;Node3</title>
<path fill="none" stroke="midnightblue" d="M500.81,-181.96C486.53,-202.45 460.49,-235.5 430,-254 424.36,-257.42 418.23,-260.36 411.92,-262.89"/>
<polygon fill="midnightblue" stroke="midnightblue" points="503.81,-183.77 506.51,-173.53 498.01,-179.85 503.81,-183.77"/>
</g>
<!-- Node2&#45;&gt;Node4 -->
<g id="edge3" class="edge">
<title>Node2&#45;&gt;Node4</title>
<path fill="none" stroke="midnightblue" d="M486.36,-178.67C470.42,-187.18 449.45,-197.64 430,-205 421.42,-208.24 412.23,-211.23 403.12,-213.92"/>
<polygon fill="midnightblue" stroke="midnightblue" points="488.45,-181.52 495.57,-173.67 485.11,-175.37 488.45,-181.52"/>
</g>
<!-- Node2&#45;&gt;Node5 -->
<g id="edge4" class="edge">
<title>Node2&#45;&gt;Node5</title>
<path fill="none" stroke="midnightblue" d="M455.79,-162.89C438.12,-164.08 418.58,-165.87 400.68,-167.93"/>
<polygon fill="midnightblue" stroke="midnightblue" points="456.19,-166.37 465.95,-162.26 455.76,-159.38 456.19,-166.37"/>
</g>
<!-- Node2&#45;&gt;Node5 -->
<g id="edge5" class="edge">
<title>Node2&#45;&gt;Node5</title>
<path fill="none" stroke="midnightblue" d="M462.51,-174.84C443.2,-177.27 420.93,-179.44 400.75,-180.87"/>
<polygon fill="midnightblue" stroke="midnightblue" points="463.15,-178.29 472.61,-173.51 462.24,-171.35 463.15,-178.29"/>
</g>
<!-- Node2&#45;&gt;Node6 -->
<g id="edge6" class="edge">
<title>Node2&#45;&gt;Node6</title>
<path fill="none" stroke="midnightblue" d="M456.04,-154.81C437.78,-151.84 417.5,-148.54 399.09,-145.54"/>
<polygon fill="midnightblue" stroke="midnightblue" points="455.52,-158.27 465.95,-156.42 456.65,-151.36 455.52,-158.27"/>
</g>
<!-- Node2&#45;&gt;Node7 -->
<g id="edge7" class="edge">
<title>Node2&#45;&gt;Node7</title>
<path fill="none" stroke="midnightblue" d="M490.18,-148.76C474.09,-138.42 451.51,-125.18 430,-117 420.05,-113.22 409.18,-110.11 398.55,-107.59"/>
<polygon fill="midnightblue" stroke="midnightblue" points="488.57,-151.89 498.85,-154.46 492.41,-146.04 488.57,-151.89"/>
</g>
<!-- Node2&#45;&gt;Node8 -->
<g id="edge8" class="edge">
<title>Node2&#45;&gt;Node8</title>
<path fill="none" stroke="midnightblue" d="M499.66,-145.95C484.97,-126.6 459.15,-96.33 430,-79 420.15,-73.15 408.89,-68.62 397.74,-65.13"/>
<polygon fill="midnightblue" stroke="midnightblue" points="497.02,-148.26 505.77,-154.23 502.65,-144.1 497.02,-148.26"/>
</g>
<!-- Node2&#45;&gt;Node9 -->
<g id="edge9" class="edge">
<title>Node2&#45;&gt;Node9</title>
<path fill="none" stroke="midnightblue" d="M506.29,-144.64C495.69,-114.83 471.14,-58.1 430,-29 417.03,-19.83 400.54,-14.92 385.25,-12.35"/>
<polygon fill="midnightblue" stroke="midnightblue" points="503.04,-145.96 509.57,-154.3 509.67,-143.71 503.04,-145.96"/>
</g>
<!-- Node10 -->
<g id="node10" class="node">
<title>Node10</title>
<g id="a_node10"><a xlink:href="namespacepa.html#adf74e7674514afed3ae1c356ffcb9e45" target="_top" xlink:title=" ">
<polygon fill="white" stroke="black" points="149,-0.5 149,-19.5 213,-19.5 213,-0.5 149,-0.5"/>
<text text-anchor="middle" x="181" y="-7.5" font-family="Helvetica,sans-Serif" font-size="10.00">pa::panoc</text>
</a>
</g>
</g>
<!-- Node9&#45;&gt;Node10 -->
<g id="edge10" class="edge">
<title>Node9&#45;&gt;Node10</title>
<path fill="none" stroke="midnightblue" d="M283.47,-10C260.01,-10 233.49,-10 213.44,-10"/>
<polygon fill="midnightblue" stroke="midnightblue" points="283.65,-13.5 293.65,-10 283.65,-6.5 283.65,-13.5"/>
</g>
<!-- Node11 -->
<g id="node11" class="node">
<title>Node11</title>
<g id="a_node11"><a xlink:href="panocpy_8cpp.html#a874ce6effe8570e8994966f291e5e321" target="_top" xlink:title=" ">
<polygon fill="white" stroke="black" points="0,-0.5 0,-19.5 113,-19.5 113,-0.5 0,-0.5"/>
<text text-anchor="middle" x="56.5" y="-7.5" font-family="Helvetica,sans-Serif" font-size="10.00">PYBIND11_MODULE</text>
</a>
</g>
</g>
<!-- Node10&#45;&gt;Node11 -->
<g id="edge11" class="edge">
<title>Node10&#45;&gt;Node11</title>
<path fill="none" stroke="midnightblue" d="M138.52,-10C130.45,-10 121.88,-10 113.43,-10"/>
<polygon fill="midnightblue" stroke="midnightblue" points="138.77,-13.5 148.77,-10 138.77,-6.5 138.77,-13.5"/>
</g>
</g>
</svg>
