<?xml version="1.0" encoding="UTF-8" standalone="no"?>
<!DOCTYPE svg PUBLIC "-//W3C//DTD SVG 1.1//EN"
 "http://www.w3.org/Graphics/SVG/1.1/DTD/svg11.dtd">
<!-- Generated by graphviz version 2.43.0 (0)
 -->
<!-- Title: project_y Pages: 1 -->
<svg width="247pt" height="78pt"
 viewBox="0.00 0.00 247.00 77.50" xmlns="http://www.w3.org/2000/svg" xmlns:xlink="http://www.w3.org/1999/xlink">
<g id="graph0" class="graph" transform="scale(1 1) rotate(0) translate(4 73.5)">
<title>project_y</title>
<polygon fill="white" stroke="transparent" points="-4,4 -4,-73.5 243,-73.5 243,4 -4,4"/>
<!-- Node1 -->
<g id="node1" class="node">
<title>Node1</title>
<g id="a_node1"><a xlink:title=" ">
<polygon fill="#bfbfbf" stroke="black" points="177,-28 177,-47 239,-47 239,-28 177,-28"/>
<text text-anchor="middle" x="208" y="-35" font-family="Helvetica,sans-Serif" font-size="10.00">project_y</text>
</a>
</g>
</g>
<!-- Node2 -->
<g id="node2" class="node">
<title>Node2</title>
<g id="a_node2"><a xlink:href="classpa_1_1ALMSolver.html#a3383f0f2b3a6516f8f031396e1a1289c" target="_top" xlink:title=" ">
<polygon fill="white" stroke="black" points="0,-50 0,-69 141,-69 141,-50 0,-50"/>
<text text-anchor="middle" x="70.5" y="-57" font-family="Helvetica,sans-Serif" font-size="10.00">pa::ALMSolver::operator()</text>
</a>
</g>
</g>
<!-- Node1&#45;&gt;Node2 -->
<g id="edge1" class="edge">
<title>Node1&#45;&gt;Node2</title>
<path fill="none" stroke="midnightblue" d="M166.77,-44.03C155.26,-45.9 142.48,-47.97 130.12,-49.98"/>
<polygon fill="midnightblue" stroke="midnightblue" points="167.62,-47.44 176.93,-42.38 166.5,-40.53 167.62,-47.44"/>
</g>
<!-- Node3 -->
<g id="node3" class="node">
<title>Node3</title>
<g id="a_node3"><a xlink:href="classpa_1_1ALMSolverFull.html#ad403c68bcc7c193bbfc1ae7697343016" target="_top" xlink:title=" ">
<polygon fill="white" stroke="black" points="15.5,-0.5 15.5,-30.5 125.5,-30.5 125.5,-0.5 15.5,-0.5"/>
<text text-anchor="start" x="23.5" y="-18.5" font-family="Helvetica,sans-Serif" font-size="10.00">pa::ALMSolverFull::</text>
<text text-anchor="middle" x="70.5" y="-7.5" font-family="Helvetica,sans-Serif" font-size="10.00">operator()</text>
</a>
</g>
</g>
<!-- Node1&#45;&gt;Node3 -->
<g id="edge2" class="edge">
<title>Node1&#45;&gt;Node3</title>
<path fill="none" stroke="midnightblue" d="M166.97,-31C154.05,-28.9 139.52,-26.54 125.76,-24.31"/>
<polygon fill="midnightblue" stroke="midnightblue" points="166.5,-34.47 176.93,-32.62 167.62,-27.56 166.5,-34.47"/>
</g>
</g>
</svg>
