<?xml version="1.0" encoding="UTF-8" standalone="no"?>
<!DOCTYPE svg PUBLIC "-//W3C//DTD SVG 1.1//EN"
 "http://www.w3.org/Graphics/SVG/1.1/DTD/svg11.dtd">
<!-- Generated by graphviz version 2.43.0 (0)
 -->
<!-- Title: calc_grad_ψ_from_ŷ Pages: 1 -->
<svg width="906pt" height="484pt"
 viewBox="0.00 0.00 906.00 484.30" xmlns="http://www.w3.org/2000/svg" xmlns:xlink="http://www.w3.org/1999/xlink">
<g id="graph0" class="graph" transform="scale(1 1) rotate(0) translate(4 480.3)">
<title>calc_grad_ψ_from_ŷ</title>
<polygon fill="white" stroke="transparent" points="-4,4 -4,-480.3 902,-480.3 902,4 -4,4"/>
<!-- Node1 -->
<g id="node1" class="node">
<title>Node1</title>
<g id="a_node1"><a xlink:title="Calculate ∇ψ(x) using ŷ.">
<polygon fill="#bfbfbf" stroke="black" points="783,-114.8 783,-133.8 898,-133.8 898,-114.8 783,-114.8"/>
<text text-anchor="middle" x="840.5" y="-121.8" font-family="Helvetica,sans-Serif" font-size="10.00">calc_grad_ψ_from_ŷ</text>
</a>
</g>
</g>
<!-- Node2 -->
<g id="node2" class="node">
<title>Node2</title>
<g id="a_node2"><a xlink:href="namespacepa_1_1detail.html#aa986daa1d5f0dfdbc75c143d2aae2919" target="_top" xlink:title="Calculate both ψ(x) and its gradient ∇ψ(x).">
<polygon fill="white" stroke="black" points="660,-247.8 660,-266.8 747,-266.8 747,-247.8 660,-247.8"/>
<text text-anchor="middle" x="703.5" y="-254.8" font-family="Helvetica,sans-Serif" font-size="10.00">calc_ψ_grad_ψ</text>
</a>
</g>
</g>
<!-- Node1&#45;&gt;Node2 -->
<g id="edge1" class="edge">
<title>Node1&#45;&gt;Node2</title>
<path fill="none" stroke="midnightblue" d="M822.55,-141C794.06,-169.07 737.42,-224.87 714.49,-247.46"/>
<polygon fill="midnightblue" stroke="midnightblue" points="825.12,-143.38 829.79,-133.87 820.21,-138.39 825.12,-143.38"/>
</g>
<!-- Node5 -->
<g id="node5" class="node">
<title>Node5</title>
<g id="a_node5"><a xlink:href="classpa_1_1SecondOrderPANOCSolver.html#acb04b3f19dafad9b4e7e7c1c19018d19" target="_top" xlink:title=" ">
<polygon fill="white" stroke="black" points="259,-375.3 259,-405.3 420,-405.3 420,-375.3 259,-375.3"/>
<text text-anchor="start" x="267" y="-393.3" font-family="Helvetica,sans-Serif" font-size="10.00">pa::SecondOrderPANOCSolver</text>
<text text-anchor="middle" x="339.5" y="-382.3" font-family="Helvetica,sans-Serif" font-size="10.00">::operator()</text>
</a>
</g>
</g>
<!-- Node1&#45;&gt;Node5 -->
<g id="edge20" class="edge">
<title>Node1&#45;&gt;Node5</title>
<path fill="none" stroke="midnightblue" d="M832.42,-143.49C811.11,-197.83 741.75,-351.97 624,-401.3 548.93,-432.75 452.65,-419.02 393.82,-405.33"/>
<polygon fill="midnightblue" stroke="midnightblue" points="835.74,-144.61 836.04,-134.02 829.2,-142.11 835.74,-144.61"/>
</g>
<!-- Node6 -->
<g id="node6" class="node">
<title>Node6</title>
<g id="a_node6"><a xlink:href="classpa_1_1StructuredPANOCLBFGSSolver.html#ade95d8a7a1892d4087d6fffc958cde6e" target="_top" xlink:title=" ">
<polygon fill="white" stroke="black" points="249,-179.3 249,-209.3 430,-209.3 430,-179.3 249,-179.3"/>
<text text-anchor="start" x="257" y="-197.3" font-family="Helvetica,sans-Serif" font-size="10.00">pa::StructuredPANOCLBFGSSolver</text>
<text text-anchor="middle" x="339.5" y="-186.3" font-family="Helvetica,sans-Serif" font-size="10.00">::operator()</text>
</a>
</g>
</g>
<!-- Node1&#45;&gt;Node6 -->
<g id="edge21" class="edge">
<title>Node1&#45;&gt;Node6</title>
<path fill="none" stroke="midnightblue" d="M818.76,-108.51C800.85,-95.92 773.71,-79.29 747,-72.3 626.18,-40.67 568.41,-0.82 466,-72.3 427.95,-98.86 464.25,-139 430,-170.3 426.32,-173.67 422.22,-176.57 417.85,-179.07"/>
<polygon fill="midnightblue" stroke="midnightblue" points="817.08,-111.61 827.24,-114.65 821.19,-105.95 817.08,-111.61"/>
</g>
<!-- Node7 -->
<g id="node7" class="node">
<title>Node7</title>
<g id="a_node7"><a xlink:href="classpa_1_1GAAPGASolver.html#a570ec001ea8eee359be8a1b90b782cfb" target="_top" xlink:title=" ">
<polygon fill="white" stroke="black" points="259,-228.8 259,-247.8 420,-247.8 420,-228.8 259,-228.8"/>
<text text-anchor="middle" x="339.5" y="-235.8" font-family="Helvetica,sans-Serif" font-size="10.00">pa::GAAPGASolver::operator()</text>
</a>
</g>
</g>
<!-- Node1&#45;&gt;Node7 -->
<g id="edge23" class="edge">
<title>Node1&#45;&gt;Node7</title>
<path fill="none" stroke="midnightblue" d="M782.32,-112.88C690.31,-95.89 514.77,-69.56 466,-105.3 423.14,-136.71 469.34,-183.59 430,-219.3 425.88,-223.04 421.22,-226.11 416.23,-228.62"/>
<polygon fill="midnightblue" stroke="midnightblue" points="781.83,-116.35 792.3,-114.75 783.11,-109.47 781.83,-116.35"/>
</g>
<!-- Node8 -->
<g id="node8" class="node">
<title>Node8</title>
<g id="a_node8"><a xlink:href="classpa_1_1PGASolver.html#af516b794e244432023aea7ba3cd0d1d8" target="_top" xlink:title=" ">
<polygon fill="white" stroke="black" points="269.5,-456.8 269.5,-475.8 409.5,-475.8 409.5,-456.8 269.5,-456.8"/>
<text text-anchor="middle" x="339.5" y="-463.8" font-family="Helvetica,sans-Serif" font-size="10.00">pa::PGASolver::operator()</text>
</a>
</g>
</g>
<!-- Node1&#45;&gt;Node8 -->
<g id="edge24" class="edge">
<title>Node1&#45;&gt;Node8</title>
<path fill="none" stroke="midnightblue" d="M835.37,-143.91C825.78,-185.77 798.79,-285.51 747,-352.3 705.33,-406.04 687.67,-419.41 624,-443.3 554.3,-469.45 468.38,-472.78 409.51,-471.1"/>
<polygon fill="midnightblue" stroke="midnightblue" points="838.83,-144.44 837.57,-133.92 832,-142.93 838.83,-144.44"/>
</g>
<!-- Node9 -->
<g id="node9" class="node">
<title>Node9</title>
<g id="a_node9"><a xlink:href="classpa_1_1PANOCSolverFull.html#adc37030e7641b91004d8c509489bc917" target="_top" xlink:title=" ">
<polygon fill="white" stroke="black" points="281.5,-130.3 281.5,-160.3 397.5,-160.3 397.5,-130.3 281.5,-130.3"/>
<text text-anchor="start" x="289.5" y="-148.3" font-family="Helvetica,sans-Serif" font-size="10.00">pa::PANOCSolverFull</text>
<text text-anchor="middle" x="339.5" y="-137.3" font-family="Helvetica,sans-Serif" font-size="10.00">::operator()</text>
</a>
</g>
</g>
<!-- Node1&#45;&gt;Node9 -->
<g id="edge25" class="edge">
<title>Node1&#45;&gt;Node9</title>
<path fill="none" stroke="midnightblue" d="M827.56,-106.08C812.02,-84.24 782.6,-48.76 747,-34.3 631.29,12.7 582.79,9.94 466,-34.3 414.86,-53.67 371.15,-104.45 351.54,-130.07"/>
<polygon fill="midnightblue" stroke="midnightblue" points="824.8,-108.25 833.34,-114.51 830.57,-104.29 824.8,-108.25"/>
</g>
<!-- Node15 -->
<g id="node15" class="node">
<title>Node15</title>
<g id="a_node15"><a xlink:href="classpa_1_1PANOCSolver.html#aa782dc3f118d5447eeed004c17bd91f5" target="_top" xlink:title=" ">
<polygon fill="white" stroke="black" points="468,-114.8 468,-133.8 622,-133.8 622,-114.8 468,-114.8"/>
<text text-anchor="middle" x="545" y="-121.8" font-family="Helvetica,sans-Serif" font-size="10.00">pa::PANOCSolver::operator()</text>
</a>
</g>
</g>
<!-- Node1&#45;&gt;Node15 -->
<g id="edge22" class="edge">
<title>Node1&#45;&gt;Node15</title>
<path fill="none" stroke="midnightblue" d="M772.71,-124.3C727.9,-124.3 668.76,-124.3 622.12,-124.3"/>
<polygon fill="midnightblue" stroke="midnightblue" points="772.91,-127.8 782.91,-124.3 772.91,-120.8 772.91,-127.8"/>
</g>
<!-- Node3 -->
<g id="node3" class="node">
<title>Node3</title>
<g id="a_node3"><a xlink:href="namespacepa_1_1detail.html#a92963cadf7f44fcf9f3ab6bddff08796" target="_top" xlink:title="Estimate the Lipschitz constant of the gradient &#160;using finite differences.">
<polygon fill="white" stroke="black" points="475.5,-266.8 475.5,-285.8 614.5,-285.8 614.5,-266.8 475.5,-266.8"/>
<text text-anchor="middle" x="545" y="-273.8" font-family="Helvetica,sans-Serif" font-size="10.00">initial_lipschitz_estimate</text>
</a>
</g>
</g>
<!-- Node2&#45;&gt;Node3 -->
<g id="edge2" class="edge">
<title>Node2&#45;&gt;Node3</title>
<path fill="none" stroke="midnightblue" d="M649.65,-263.72C638.4,-265.08 626.36,-266.55 614.61,-267.97"/>
<polygon fill="midnightblue" stroke="midnightblue" points="650.23,-267.17 659.74,-262.49 649.39,-260.22 650.23,-267.17"/>
</g>
<!-- Node2&#45;&gt;Node5 -->
<g id="edge12" class="edge">
<title>Node2&#45;&gt;Node5</title>
<path fill="none" stroke="midnightblue" d="M695.65,-276.17C684.92,-302.66 661.43,-350 624,-371.3 562.15,-406.49 479.99,-408.06 420.05,-402.72"/>
<polygon fill="midnightblue" stroke="midnightblue" points="698.92,-277.42 699.25,-266.83 692.39,-274.91 698.92,-277.42"/>
</g>
<!-- Node2&#45;&gt;Node6 -->
<g id="edge13" class="edge">
<title>Node2&#45;&gt;Node6</title>
<path fill="none" stroke="midnightblue" d="M650.42,-245.62C641.62,-243.76 632.56,-241.92 624,-240.3 559.33,-228.06 485.98,-216.21 430.09,-207.61"/>
<polygon fill="midnightblue" stroke="midnightblue" points="649.7,-249.05 660.21,-247.72 651.17,-242.2 649.7,-249.05"/>
</g>
<!-- Node2&#45;&gt;Node7 -->
<g id="edge17" class="edge">
<title>Node2&#45;&gt;Node7</title>
<path fill="none" stroke="midnightblue" d="M649.85,-254.54C589.52,-251.37 490.01,-246.15 420.18,-242.48"/>
<polygon fill="midnightblue" stroke="midnightblue" points="649.74,-258.04 659.91,-255.07 650.11,-251.05 649.74,-258.04"/>
</g>
<!-- Node2&#45;&gt;Node8 -->
<g id="edge18" class="edge">
<title>Node2&#45;&gt;Node8</title>
<path fill="none" stroke="midnightblue" d="M697.58,-276.51C688.54,-307.75 666.22,-369.3 624,-401.3 561.82,-448.42 471.44,-462.34 409.54,-465.97"/>
<polygon fill="midnightblue" stroke="midnightblue" points="700.97,-277.39 700.23,-266.82 694.22,-275.54 700.97,-277.39"/>
</g>
<!-- Node2&#45;&gt;Node9 -->
<g id="edge19" class="edge">
<title>Node2&#45;&gt;Node9</title>
<path fill="none" stroke="midnightblue" d="M681.66,-241.94C666.39,-231.36 644.79,-217.74 624,-209.3 548.72,-178.76 456,-161.32 397.55,-152.58"/>
<polygon fill="midnightblue" stroke="midnightblue" points="679.68,-244.83 689.87,-247.76 683.73,-239.12 679.68,-244.83"/>
</g>
<!-- Node13 -->
<g id="node13" class="node">
<title>Node13</title>
<g id="a_node13"><a xlink:href="classpa_1_1LBFGSSolver.html#a8540540028b02dfe8b7e3ec0c49c07dd" target="_top" xlink:title=" ">
<polygon fill="white" stroke="black" points="469,-342.8 469,-361.8 621,-361.8 621,-342.8 469,-342.8"/>
<text text-anchor="middle" x="545" y="-349.8" font-family="Helvetica,sans-Serif" font-size="10.00">pa::LBFGSSolver::operator()</text>
</a>
</g>
</g>
<!-- Node2&#45;&gt;Node13 -->
<g id="edge14" class="edge">
<title>Node2&#45;&gt;Node13</title>
<path fill="none" stroke="midnightblue" d="M688.9,-275.13C674.62,-292.59 650.59,-318.63 624,-333.3 616.92,-337.21 609.05,-340.32 601.1,-342.79"/>
<polygon fill="midnightblue" stroke="midnightblue" points="691.96,-276.9 695.44,-266.89 686.48,-272.55 691.96,-276.9"/>
</g>
<!-- Node14 -->
<g id="node14" class="node">
<title>Node14</title>
<g id="a_node14"><a xlink:href="classpa_1_1LBFGSBSolver.html#a8540540028b02dfe8b7e3ec0c49c07dd" target="_top" xlink:title=" ">
<polygon fill="white" stroke="black" points="466,-304.8 466,-323.8 624,-323.8 624,-304.8 466,-304.8"/>
<text text-anchor="middle" x="545" y="-311.8" font-family="Helvetica,sans-Serif" font-size="10.00">pa::LBFGSBSolver::operator()</text>
</a>
</g>
</g>
<!-- Node2&#45;&gt;Node14 -->
<g id="edge15" class="edge">
<title>Node2&#45;&gt;Node14</title>
<path fill="none" stroke="midnightblue" d="M676.34,-271.7C661.35,-279.5 642,-288.83 624,-295.3 613.9,-298.93 602.82,-302.09 592.26,-304.75"/>
<polygon fill="midnightblue" stroke="midnightblue" points="678.3,-274.62 685.5,-266.84 675.02,-268.43 678.3,-274.62"/>
</g>
<!-- Node2&#45;&gt;Node15 -->
<g id="edge16" class="edge">
<title>Node2&#45;&gt;Node15</title>
<path fill="none" stroke="midnightblue" d="M693.67,-238.25C681.42,-213.88 656.99,-171.98 624,-148.3 615.25,-142.02 604.82,-137.36 594.48,-133.9"/>
<polygon fill="midnightblue" stroke="midnightblue" points="690.65,-240.05 698.17,-247.52 696.95,-237 690.65,-240.05"/>
</g>
<!-- Node4 -->
<g id="node4" class="node">
<title>Node4</title>
<g id="a_node4"><a xlink:href="classpa_1_1PANOCSolver.html#a0789ba541bd61b1b394ff4d411a40790" target="_top" xlink:title=" ">
<polygon fill="white" stroke="black" points="278.5,-305.3 278.5,-335.3 400.5,-335.3 400.5,-305.3 278.5,-305.3"/>
<text text-anchor="start" x="286.5" y="-323.3" font-family="Helvetica,sans-Serif" font-size="10.00">pa::PANOCSolver&lt;&gt;::</text>
<text text-anchor="middle" x="339.5" y="-312.3" font-family="Helvetica,sans-Serif" font-size="10.00">get_name</text>
</a>
</g>
</g>
<!-- Node3&#45;&gt;Node4 -->
<g id="edge3" class="edge">
<title>Node3&#45;&gt;Node4</title>
<path fill="none" stroke="midnightblue" d="M490.02,-287.97C462.55,-293.91 429.09,-301.15 400.78,-307.27"/>
<polygon fill="midnightblue" stroke="midnightblue" points="490.81,-291.38 499.84,-285.85 489.33,-284.54 490.81,-291.38"/>
</g>
<!-- Node3&#45;&gt;Node5 -->
<g id="edge4" class="edge">
<title>Node3&#45;&gt;Node5</title>
<path fill="none" stroke="midnightblue" d="M475.74,-289.75C472.34,-291.39 469.07,-293.23 466,-295.3 443.29,-310.6 450.83,-327.53 430,-345.3 415.45,-357.72 396.88,-367.77 380.43,-375.2"/>
<polygon fill="midnightblue" stroke="midnightblue" points="477.14,-292.96 484.99,-285.85 474.42,-286.51 477.14,-292.96"/>
</g>
<!-- Node3&#45;&gt;Node6 -->
<g id="edge5" class="edge">
<title>Node3&#45;&gt;Node6</title>
<path fill="none" stroke="midnightblue" d="M518.49,-261.78C495.8,-249.29 461.43,-231.42 430,-219.3 420.67,-215.7 410.61,-212.38 400.72,-209.41"/>
<polygon fill="midnightblue" stroke="midnightblue" points="517.02,-264.96 527.46,-266.77 520.43,-258.85 517.02,-264.96"/>
</g>
<!-- Node3&#45;&gt;Node7 -->
<g id="edge6" class="edge">
<title>Node3&#45;&gt;Node7</title>
<path fill="none" stroke="midnightblue" d="M482.85,-264.88C453.74,-259.45 419.31,-253.02 391.61,-247.85"/>
<polygon fill="midnightblue" stroke="midnightblue" points="482.44,-268.37 492.91,-266.76 483.72,-261.49 482.44,-268.37"/>
</g>
<!-- Node3&#45;&gt;Node8 -->
<g id="edge7" class="edge">
<title>Node3&#45;&gt;Node8</title>
<path fill="none" stroke="midnightblue" d="M470.8,-291.29C469.12,-292.53 467.52,-293.86 466,-295.3 425.61,-333.63 464.67,-371.73 430,-415.3 414.19,-435.17 388.38,-448.69 368.53,-456.79"/>
<polygon fill="midnightblue" stroke="midnightblue" points="473.02,-294.04 479.76,-285.86 469.39,-288.05 473.02,-294.04"/>
</g>
<!-- Node3&#45;&gt;Node9 -->
<g id="edge8" class="edge">
<title>Node3&#45;&gt;Node9</title>
<path fill="none" stroke="midnightblue" d="M530.13,-259.02C510.35,-235.52 471.79,-193.71 430,-170.3 420.01,-164.7 408.67,-160.29 397.51,-156.83"/>
<polygon fill="midnightblue" stroke="midnightblue" points="527.48,-261.3 536.54,-266.79 532.87,-256.85 527.48,-261.3"/>
</g>
<!-- Node10 -->
<g id="node10" class="node">
<title>Node10</title>
<g id="a_node10"><a xlink:href="namespacepa.html#a2b97bf67604c439eca0a540664930d61" target="_top" xlink:title=" ">
<polygon fill="white" stroke="black" points="294,-266.8 294,-285.8 385,-285.8 385,-266.8 294,-266.8"/>
<text text-anchor="middle" x="339.5" y="-273.8" font-family="Helvetica,sans-Serif" font-size="10.00">pa::panoc_impl</text>
</a>
</g>
</g>
<!-- Node3&#45;&gt;Node10 -->
<g id="edge9" class="edge">
<title>Node3&#45;&gt;Node10</title>
<path fill="none" stroke="midnightblue" d="M465.12,-276.3C438.01,-276.3 408.61,-276.3 385.17,-276.3"/>
<polygon fill="midnightblue" stroke="midnightblue" points="465.39,-279.8 475.39,-276.3 465.39,-272.8 465.39,-279.8"/>
</g>
<!-- Node11 -->
<g id="node11" class="node">
<title>Node11</title>
<g id="a_node11"><a xlink:href="namespacepa.html#adf74e7674514afed3ae1c356ffcb9e45" target="_top" xlink:title=" ">
<polygon fill="white" stroke="black" points="149,-266.8 149,-285.8 213,-285.8 213,-266.8 149,-266.8"/>
<text text-anchor="middle" x="181" y="-273.8" font-family="Helvetica,sans-Serif" font-size="10.00">pa::panoc</text>
</a>
</g>
</g>
<!-- Node10&#45;&gt;Node11 -->
<g id="edge10" class="edge">
<title>Node10&#45;&gt;Node11</title>
<path fill="none" stroke="midnightblue" d="M283.47,-276.3C260.01,-276.3 233.49,-276.3 213.44,-276.3"/>
<polygon fill="midnightblue" stroke="midnightblue" points="283.65,-279.8 293.65,-276.3 283.65,-272.8 283.65,-279.8"/>
</g>
<!-- Node12 -->
<g id="node12" class="node">
<title>Node12</title>
<g id="a_node12"><a xlink:href="panocpy_8cpp.html#a874ce6effe8570e8994966f291e5e321" target="_top" xlink:title=" ">
<polygon fill="white" stroke="black" points="0,-266.8 0,-285.8 113,-285.8 113,-266.8 0,-266.8"/>
<text text-anchor="middle" x="56.5" y="-273.8" font-family="Helvetica,sans-Serif" font-size="10.00">PYBIND11_MODULE</text>
</a>
</g>
</g>
<!-- Node11&#45;&gt;Node12 -->
<g id="edge11" class="edge">
<title>Node11&#45;&gt;Node12</title>
<path fill="none" stroke="midnightblue" d="M138.52,-276.3C130.45,-276.3 121.88,-276.3 113.43,-276.3"/>
<polygon fill="midnightblue" stroke="midnightblue" points="138.77,-279.8 148.77,-276.3 138.77,-272.8 138.77,-279.8"/>
</g>
</g>
</svg>
