<?xml version="1.0" encoding="UTF-8" standalone="no"?>
<!DOCTYPE svg PUBLIC "-//W3C//DTD SVG 1.1//EN"
 "http://www.w3.org/Graphics/SVG/1.1/DTD/svg11.dtd">
<!-- Generated by graphviz version 2.43.0 (0)
 -->
<!-- Title: initial_lipschitz_estimate Pages: 1 -->
<svg width="613pt" height="302pt"
 viewBox="0.00 0.00 613.00 301.50" xmlns="http://www.w3.org/2000/svg" xmlns:xlink="http://www.w3.org/1999/xlink">
<g id="graph0" class="graph" transform="scale(1 1) rotate(0) translate(4 297.5)">
<title>initial_lipschitz_estimate</title>
<polygon fill="white" stroke="transparent" points="-4,4 -4,-297.5 609,-297.5 609,4 -4,4"/>
<!-- Node1 -->
<g id="node1" class="node">
<title>Node1</title>
<g id="a_node1"><a xlink:title="Estimate the Lipschitz constant of the gradient &#160;using finite differences.">
<polygon fill="#bfbfbf" stroke="black" points="466,-126.5 466,-145.5 605,-145.5 605,-126.5 466,-126.5"/>
<text text-anchor="middle" x="535.5" y="-133.5" font-family="Helvetica,sans-Serif" font-size="10.00">initial_lipschitz_estimate</text>
</a>
</g>
</g>
<!-- Node2 -->
<g id="node2" class="node">
<title>Node2</title>
<g id="a_node2"><a xlink:href="classpa_1_1PANOCSolver.html#a0789ba541bd61b1b394ff4d411a40790" target="_top" xlink:title=" ">
<polygon fill="white" stroke="black" points="278.5,-263 278.5,-293 400.5,-293 400.5,-263 278.5,-263"/>
<text text-anchor="start" x="286.5" y="-281" font-family="Helvetica,sans-Serif" font-size="10.00">pa::PANOCSolver&lt;&gt;::</text>
<text text-anchor="middle" x="339.5" y="-270" font-family="Helvetica,sans-Serif" font-size="10.00">get_name</text>
</a>
</g>
</g>
<!-- Node1&#45;&gt;Node2 -->
<g id="edge1" class="edge">
<title>Node1&#45;&gt;Node2</title>
<path fill="none" stroke="midnightblue" d="M523.39,-154.21C506.5,-180.33 471.87,-228.1 430,-254 421.11,-259.5 410.96,-263.76 400.77,-267.04"/>
<polygon fill="midnightblue" stroke="midnightblue" points="526.41,-155.98 528.79,-145.65 520.49,-152.24 526.41,-155.98"/>
</g>
<!-- Node3 -->
<g id="node3" class="node">
<title>Node3</title>
<g id="a_node3"><a xlink:href="classpa_1_1SecondOrderPANOCSolver.html#acb04b3f19dafad9b4e7e7c1c19018d19" target="_top" xlink:title=" ">
<polygon fill="white" stroke="black" points="259,-214 259,-244 420,-244 420,-214 259,-214"/>
<text text-anchor="start" x="267" y="-232" font-family="Helvetica,sans-Serif" font-size="10.00">pa::SecondOrderPANOCSolver</text>
<text text-anchor="middle" x="339.5" y="-221" font-family="Helvetica,sans-Serif" font-size="10.00">::operator()</text>
</a>
</g>
</g>
<!-- Node1&#45;&gt;Node3 -->
<g id="edge2" class="edge">
<title>Node1&#45;&gt;Node3</title>
<path fill="none" stroke="midnightblue" d="M514.59,-151.98C494.37,-167.52 461.6,-190.78 430,-205 422.52,-208.37 414.46,-211.34 406.37,-213.95"/>
<polygon fill="midnightblue" stroke="midnightblue" points="516.98,-154.56 522.7,-145.65 512.67,-149.05 516.98,-154.56"/>
</g>
<!-- Node4 -->
<g id="node4" class="node">
<title>Node4</title>
<g id="a_node4"><a xlink:href="classpa_1_1StructuredPANOCLBFGSSolver.html#ade95d8a7a1892d4087d6fffc958cde6e" target="_top" xlink:title=" ">
<polygon fill="white" stroke="black" points="249,-165 249,-195 430,-195 430,-165 249,-165"/>
<text text-anchor="start" x="257" y="-183" font-family="Helvetica,sans-Serif" font-size="10.00">pa::StructuredPANOCLBFGSSolver</text>
<text text-anchor="middle" x="339.5" y="-172" font-family="Helvetica,sans-Serif" font-size="10.00">::operator()</text>
</a>
</g>
</g>
<!-- Node1&#45;&gt;Node4 -->
<g id="edge3" class="edge">
<title>Node1&#45;&gt;Node4</title>
<path fill="none" stroke="midnightblue" d="M482.41,-147.81C459.21,-153.08 431.6,-159.34 406.92,-164.93"/>
<polygon fill="midnightblue" stroke="midnightblue" points="483.43,-151.17 492.4,-145.55 481.88,-144.35 483.43,-151.17"/>
</g>
<!-- Node5 -->
<g id="node5" class="node">
<title>Node5</title>
<g id="a_node5"><a xlink:href="classpa_1_1GAAPGASolver.html#a570ec001ea8eee359be8a1b90b782cfb" target="_top" xlink:title=" ">
<polygon fill="white" stroke="black" points="259,-126.5 259,-145.5 420,-145.5 420,-126.5 259,-126.5"/>
<text text-anchor="middle" x="339.5" y="-133.5" font-family="Helvetica,sans-Serif" font-size="10.00">pa::GAAPGASolver::operator()</text>
</a>
</g>
</g>
<!-- Node1&#45;&gt;Node5 -->
<g id="edge4" class="edge">
<title>Node1&#45;&gt;Node5</title>
<path fill="none" stroke="midnightblue" d="M455.62,-136C443.88,-136 431.77,-136 420.02,-136"/>
<polygon fill="midnightblue" stroke="midnightblue" points="455.83,-139.5 465.83,-136 455.83,-132.5 455.83,-139.5"/>
</g>
<!-- Node6 -->
<g id="node6" class="node">
<title>Node6</title>
<g id="a_node6"><a xlink:href="classpa_1_1PGASolver.html#af516b794e244432023aea7ba3cd0d1d8" target="_top" xlink:title=" ">
<polygon fill="white" stroke="black" points="269.5,-88.5 269.5,-107.5 409.5,-107.5 409.5,-88.5 269.5,-88.5"/>
<text text-anchor="middle" x="339.5" y="-95.5" font-family="Helvetica,sans-Serif" font-size="10.00">pa::PGASolver::operator()</text>
</a>
</g>
</g>
<!-- Node1&#45;&gt;Node6 -->
<g id="edge5" class="edge">
<title>Node1&#45;&gt;Node6</title>
<path fill="none" stroke="midnightblue" d="M475.59,-124.46C447.92,-119.04 415.34,-112.66 389.1,-107.52"/>
<polygon fill="midnightblue" stroke="midnightblue" points="475.06,-127.92 485.55,-126.41 476.4,-121.05 475.06,-127.92"/>
</g>
<!-- Node7 -->
<g id="node7" class="node">
<title>Node7</title>
<g id="a_node7"><a xlink:href="classpa_1_1PANOCSolverFull.html#adc37030e7641b91004d8c509489bc917" target="_top" xlink:title=" ">
<polygon fill="white" stroke="black" points="281.5,-39 281.5,-69 397.5,-69 397.5,-39 281.5,-39"/>
<text text-anchor="start" x="289.5" y="-57" font-family="Helvetica,sans-Serif" font-size="10.00">pa::PANOCSolverFull</text>
<text text-anchor="middle" x="339.5" y="-46" font-family="Helvetica,sans-Serif" font-size="10.00">::operator()</text>
</a>
</g>
</g>
<!-- Node1&#45;&gt;Node7 -->
<g id="edge6" class="edge">
<title>Node1&#45;&gt;Node7</title>
<path fill="none" stroke="midnightblue" d="M510.73,-121C490.03,-108.44 458.89,-90.74 430,-79 419.84,-74.87 408.76,-71.17 397.97,-67.97"/>
<polygon fill="midnightblue" stroke="midnightblue" points="509.11,-124.11 519.46,-126.37 512.77,-118.15 509.11,-124.11"/>
</g>
<!-- Node8 -->
<g id="node8" class="node">
<title>Node8</title>
<g id="a_node8"><a xlink:href="namespacepa.html#a2b97bf67604c439eca0a540664930d61" target="_top" xlink:title=" ">
<polygon fill="white" stroke="black" points="294,-0.5 294,-19.5 385,-19.5 385,-0.5 294,-0.5"/>
<text text-anchor="middle" x="339.5" y="-7.5" font-family="Helvetica,sans-Serif" font-size="10.00">pa::panoc_impl</text>
</a>
</g>
</g>
<!-- Node1&#45;&gt;Node8 -->
<g id="edge7" class="edge">
<title>Node1&#45;&gt;Node8</title>
<path fill="none" stroke="midnightblue" d="M522.05,-118.06C504.43,-94.1 469.88,-52.11 430,-30 416.35,-22.43 400.04,-17.73 385.1,-14.81"/>
<polygon fill="midnightblue" stroke="midnightblue" points="519.28,-120.2 527.95,-126.28 524.97,-116.12 519.28,-120.2"/>
</g>
<!-- Node9 -->
<g id="node9" class="node">
<title>Node9</title>
<g id="a_node9"><a xlink:href="namespacepa.html#adf74e7674514afed3ae1c356ffcb9e45" target="_top" xlink:title=" ">
<polygon fill="white" stroke="black" points="149,-0.5 149,-19.5 213,-19.5 213,-0.5 149,-0.5"/>
<text text-anchor="middle" x="181" y="-7.5" font-family="Helvetica,sans-Serif" font-size="10.00">pa::panoc</text>
</a>
</g>
</g>
<!-- Node8&#45;&gt;Node9 -->
<g id="edge8" class="edge">
<title>Node8&#45;&gt;Node9</title>
<path fill="none" stroke="midnightblue" d="M283.47,-10C260.01,-10 233.49,-10 213.44,-10"/>
<polygon fill="midnightblue" stroke="midnightblue" points="283.65,-13.5 293.65,-10 283.65,-6.5 283.65,-13.5"/>
</g>
<!-- Node10 -->
<g id="node10" class="node">
<title>Node10</title>
<g id="a_node10"><a xlink:href="panocpy_8cpp.html#a874ce6effe8570e8994966f291e5e321" target="_top" xlink:title=" ">
<polygon fill="white" stroke="black" points="0,-0.5 0,-19.5 113,-19.5 113,-0.5 0,-0.5"/>
<text text-anchor="middle" x="56.5" y="-7.5" font-family="Helvetica,sans-Serif" font-size="10.00">PYBIND11_MODULE</text>
</a>
</g>
</g>
<!-- Node9&#45;&gt;Node10 -->
<g id="edge9" class="edge">
<title>Node9&#45;&gt;Node10</title>
<path fill="none" stroke="midnightblue" d="M138.52,-10C130.45,-10 121.88,-10 113.43,-10"/>
<polygon fill="midnightblue" stroke="midnightblue" points="138.77,-13.5 148.77,-10 138.77,-6.5 138.77,-13.5"/>
</g>
</g>
</svg>
