<?xml version="1.0" encoding="UTF-8" standalone="no"?>
<!DOCTYPE svg PUBLIC "-//W3C//DTD SVG 1.1//EN"
 "http://www.w3.org/Graphics/SVG/1.1/DTD/svg11.dtd">
<!-- Generated by graphviz version 2.43.0 (0)
 -->
<!-- Title: stats_to_dict Pages: 1 -->
<svg width="275pt" height="176pt"
 viewBox="0.00 0.00 275.00 175.50" xmlns="http://www.w3.org/2000/svg" xmlns:xlink="http://www.w3.org/1999/xlink">
<g id="graph0" class="graph" transform="scale(1 1) rotate(0) translate(4 171.5)">
<title>stats_to_dict</title>
<polygon fill="white" stroke="transparent" points="-4,4 -4,-171.5 271,-171.5 271,4 -4,4"/>
<!-- Node1 -->
<g id="node1" class="node">
<title>Node1</title>
<g id="a_node1"><a xlink:title=" ">
<polygon fill="#bfbfbf" stroke="black" points="188,-85 188,-104 267,-104 267,-85 188,-85"/>
<text text-anchor="middle" x="227.5" y="-92" font-family="Helvetica,sans-Serif" font-size="10.00">stats_to_dict</text>
</a>
</g>
</g>
<!-- Node2 -->
<g id="node2" class="node">
<title>Node2</title>
<g id="a_node2"><a xlink:href="panocpy_8cpp.html#a874ce6effe8570e8994966f291e5e321" target="_top" xlink:title=" ">
<polygon fill="white" stroke="black" points="19.5,-148 19.5,-167 132.5,-167 132.5,-148 19.5,-148"/>
<text text-anchor="middle" x="76" y="-155" font-family="Helvetica,sans-Serif" font-size="10.00">PYBIND11_MODULE</text>
</a>
</g>
</g>
<!-- Node1&#45;&gt;Node2 -->
<g id="edge1" class="edge">
<title>Node1&#45;&gt;Node2</title>
<path fill="none" stroke="midnightblue" d="M204.45,-109.79C190.07,-119.19 170.57,-130.85 152,-138.5 142.93,-142.24 132.94,-145.39 123.28,-147.98"/>
<polygon fill="midnightblue" stroke="midnightblue" points="206.74,-112.47 213.11,-104.01 202.85,-106.65 206.74,-112.47"/>
</g>
<!-- Node3 -->
<g id="node3" class="node">
<title>Node3</title>
<g id="a_node3"><a xlink:href="namespacepa.html#a3beb6d15f29053886e441b574531105c" target="_top" xlink:title=" ">
<polygon fill="white" stroke="black" points="36.5,-110 36.5,-129 115.5,-129 115.5,-110 36.5,-110"/>
<text text-anchor="middle" x="76" y="-117" font-family="Helvetica,sans-Serif" font-size="10.00">stats_to_dict</text>
</a>
</g>
</g>
<!-- Node1&#45;&gt;Node3 -->
<g id="edge2" class="edge">
<title>Node1&#45;&gt;Node3</title>
<path fill="none" stroke="midnightblue" d="M177.7,-102.66C157.59,-106.02 134.61,-109.87 115.69,-113.03"/>
<polygon fill="midnightblue" stroke="midnightblue" points="178.33,-106.1 187.61,-101 177.17,-99.2 178.33,-106.1"/>
</g>
<!-- Node4 -->
<g id="node4" class="node">
<title>Node4</title>
<g id="a_node4"><a xlink:href="structpa_1_1PolymorphicInnerSolver_1_1WrappedStatsAccumulator.html#adfca1d4dbe1269c5a5e5c09d8f02e6af" target="_top" xlink:title=" ">
<polygon fill="white" stroke="black" points="0,-50 0,-91 152,-91 152,-50 0,-50"/>
<text text-anchor="start" x="8" y="-79" font-family="Helvetica,sans-Serif" font-size="10.00">pa::PolymorphicInnerSolver</text>
<text text-anchor="start" x="8" y="-68" font-family="Helvetica,sans-Serif" font-size="10.00">::WrappedStatsAccumulator</text>
<text text-anchor="middle" x="76" y="-57" font-family="Helvetica,sans-Serif" font-size="10.00">::to_dict</text>
</a>
</g>
</g>
<!-- Node1&#45;&gt;Node4 -->
<g id="edge3" class="edge">
<title>Node1&#45;&gt;Node4</title>
<path fill="none" stroke="midnightblue" d="M177.58,-86.65C169.44,-85.34 160.84,-83.96 152.22,-82.58"/>
<polygon fill="midnightblue" stroke="midnightblue" points="177.18,-90.13 187.61,-88.26 178.29,-83.22 177.18,-90.13"/>
</g>
<!-- Node5 -->
<g id="node5" class="node">
<title>Node5</title>
<g id="a_node5"><a xlink:href="structpa_1_1PolymorphicInnerSolver_1_1WrappedStats.html#adfca1d4dbe1269c5a5e5c09d8f02e6af" target="_top" xlink:title=" ">
<polygon fill="white" stroke="black" points="0.5,-0.5 0.5,-30.5 151.5,-30.5 151.5,-0.5 0.5,-0.5"/>
<text text-anchor="start" x="8.5" y="-18.5" font-family="Helvetica,sans-Serif" font-size="10.00">pa::PolymorphicInnerSolver</text>
<text text-anchor="middle" x="76" y="-7.5" font-family="Helvetica,sans-Serif" font-size="10.00">::WrappedStats::to_dict</text>
</a>
</g>
</g>
<!-- Node1&#45;&gt;Node5 -->
<g id="edge4" class="edge">
<title>Node1&#45;&gt;Node5</title>
<path fill="none" stroke="midnightblue" d="M207.88,-78.52C193.41,-66.73 172.43,-50.99 152,-40.5 144.8,-36.8 136.93,-33.48 129.09,-30.56"/>
<polygon fill="midnightblue" stroke="midnightblue" points="205.67,-81.23 215.59,-84.93 210.14,-75.84 205.67,-81.23"/>
</g>
</g>
</svg>
