<?xml version="1.0" encoding="UTF-8" standalone="no"?>
<!DOCTYPE svg PUBLIC "-//W3C//DTD SVG 1.1//EN"
 "http://www.w3.org/Graphics/SVG/1.1/DTD/svg11.dtd">
<!-- Generated by graphviz version 2.43.0 (0)
 -->
<!-- Title: projecting_difference Pages: 1 -->
<svg width="1079pt" height="695pt"
 viewBox="0.00 0.00 1079.00 695.46" xmlns="http://www.w3.org/2000/svg" xmlns:xlink="http://www.w3.org/1999/xlink">
<g id="graph0" class="graph" transform="scale(1 1) rotate(0) translate(4 691.46)">
<title>projecting_difference</title>
<polygon fill="white" stroke="transparent" points="-4,4 -4,-691.46 1075,-691.46 1075,4 -4,4"/>
<!-- Node1 -->
<g id="node1" class="node">
<title>Node1</title>
<g id="a_node1"><a xlink:title="Get the difference between the given vector and its projection.">
<polygon fill="#bfbfbf" stroke="black" points="952,-290.46 952,-309.46 1071,-309.46 1071,-290.46 952,-290.46"/>
<text text-anchor="middle" x="1011.5" y="-297.46" font-family="Helvetica,sans-Serif" font-size="10.00">projecting_difference</text>
</a>
</g>
</g>
<!-- Node2 -->
<g id="node2" class="node">
<title>Node2</title>
<g id="a_node2"><a xlink:href="namespacepa_1_1detail.html#a6572cf745448d2b40e9d5e977d17d5e2" target="_top" xlink:title="Calculate the gradient ∇ψ(x).">
<polygon fill="white" stroke="black" points="642,-656.46 642,-675.46 769,-675.46 769,-656.46 642,-656.46"/>
<text text-anchor="middle" x="705.5" y="-663.46" font-family="Helvetica,sans-Serif" font-size="10.00">pa::detail::calc_grad_ψ</text>
</a>
</g>
</g>
<!-- Node1&#45;&gt;Node2 -->
<g id="edge1" class="edge">
<title>Node1&#45;&gt;Node2</title>
<path fill="none" stroke="midnightblue" d="M1002.09,-318.94C975.89,-375.96 890.24,-547.62 769,-641.96 761.11,-648.1 751.47,-652.83 742.14,-656.39"/>
<polygon fill="midnightblue" stroke="midnightblue" points="1005.35,-320.23 1006.28,-309.67 998.97,-317.34 1005.35,-320.23"/>
</g>
<!-- Node14 -->
<g id="node14" class="node">
<title>Node14</title>
<g id="a_node14"><a xlink:href="namespacepa_1_1detail.html#a82a03662e6ce5bcfd57ee2df719aec21" target="_top" xlink:title="Calculate both ψ(x) and the vector ŷ that can later be used to compute ∇ψ.">
<polygon fill="white" stroke="black" points="805,-290.46 805,-309.46 916,-309.46 916,-290.46 805,-290.46"/>
<text text-anchor="middle" x="860.5" y="-297.46" font-family="Helvetica,sans-Serif" font-size="10.00">pa::detail::calc_ψ_ŷ</text>
</a>
</g>
</g>
<!-- Node1&#45;&gt;Node14 -->
<g id="edge14" class="edge">
<title>Node1&#45;&gt;Node14</title>
<path fill="none" stroke="midnightblue" d="M941.35,-299.96C932.87,-299.96 924.3,-299.96 916.08,-299.96"/>
<polygon fill="midnightblue" stroke="midnightblue" points="941.61,-303.46 951.61,-299.96 941.61,-296.46 941.61,-303.46"/>
</g>
<!-- Node20 -->
<g id="node20" class="node">
<title>Node20</title>
<g id="a_node20"><a xlink:href="namespacepa.html#a841a5169cd34615a1d9942e6ceead589" target="_top" xlink:title="Get the distance squared between the given vector and its projection.">
<polygon fill="white" stroke="black" points="821,-252.46 821,-271.46 900,-271.46 900,-252.46 821,-252.46"/>
<text text-anchor="middle" x="860.5" y="-259.46" font-family="Helvetica,sans-Serif" font-size="10.00">dist_squared</text>
</a>
</g>
</g>
<!-- Node1&#45;&gt;Node20 -->
<g id="edge42" class="edge">
<title>Node1&#45;&gt;Node20</title>
<path fill="none" stroke="midnightblue" d="M963.01,-287.85C942.26,-282.56 918.27,-276.44 898.83,-271.48"/>
<polygon fill="midnightblue" stroke="midnightblue" points="962.35,-291.3 972.9,-290.38 964.08,-284.51 962.35,-291.3"/>
</g>
<!-- Node3 -->
<g id="node3" class="node">
<title>Node3</title>
<g id="a_node3"><a xlink:href="namespacepa_1_1detail.html#a384dd0255096b08c79472df49f7f9388" target="_top" xlink:title="Compute the Hessian matrix of the augmented Lagrangian function multiplied by the given vector,...">
<polygon fill="white" stroke="black" points="448,-656.96 448,-686.96 606,-686.96 606,-656.96 448,-656.96"/>
<text text-anchor="start" x="456" y="-674.96" font-family="Helvetica,sans-Serif" font-size="10.00">pa::detail::calc_augmented</text>
<text text-anchor="middle" x="527" y="-663.96" font-family="Helvetica,sans-Serif" font-size="10.00">_lagrangian_hessian_prod_fd</text>
</a>
</g>
</g>
<!-- Node2&#45;&gt;Node3 -->
<g id="edge2" class="edge">
<title>Node2&#45;&gt;Node3</title>
<path fill="none" stroke="midnightblue" d="M631.67,-668.44C623.29,-668.73 614.72,-669.02 606.27,-669.3"/>
<polygon fill="midnightblue" stroke="midnightblue" points="631.9,-671.93 641.78,-668.1 631.66,-664.94 631.9,-671.93"/>
</g>
<!-- Node5 -->
<g id="node5" class="node">
<title>Node5</title>
<g id="a_node5"><a xlink:href="namespacepa_1_1detail.html#a92963cadf7f44fcf9f3ab6bddff08796" target="_top" xlink:title="Estimate the Lipschitz constant of the gradient &#160;using finite differences.">
<polygon fill="white" stroke="black" points="471.5,-454.96 471.5,-484.96 582.5,-484.96 582.5,-454.96 471.5,-454.96"/>
<text text-anchor="start" x="479.5" y="-472.96" font-family="Helvetica,sans-Serif" font-size="10.00">pa::detail::initial</text>
<text text-anchor="middle" x="527" y="-461.96" font-family="Helvetica,sans-Serif" font-size="10.00">_lipschitz_estimate</text>
</a>
</g>
</g>
<!-- Node2&#45;&gt;Node5 -->
<g id="edge4" class="edge">
<title>Node2&#45;&gt;Node5</title>
<path fill="none" stroke="midnightblue" d="M688.84,-648.57C654.67,-610.63 573.93,-520.97 541.67,-485.15"/>
<polygon fill="midnightblue" stroke="midnightblue" points="686.45,-651.16 695.75,-656.25 691.66,-646.47 686.45,-651.16"/>
</g>
<!-- Node4 -->
<g id="node4" class="node">
<title>Node4</title>
<g id="a_node4"><a xlink:href="classpa_1_1StructuredPANOCLBFGSSolver.html#ade95d8a7a1892d4087d6fffc958cde6e" target="_top" xlink:title=" ">
<polygon fill="white" stroke="black" points="231,-574.96 231,-604.96 412,-604.96 412,-574.96 231,-574.96"/>
<text text-anchor="start" x="239" y="-592.96" font-family="Helvetica,sans-Serif" font-size="10.00">pa::StructuredPANOCLBFGSSolver</text>
<text text-anchor="middle" x="321.5" y="-581.96" font-family="Helvetica,sans-Serif" font-size="10.00">::operator()</text>
</a>
</g>
</g>
<!-- Node3&#45;&gt;Node4 -->
<g id="edge3" class="edge">
<title>Node3&#45;&gt;Node4</title>
<path fill="none" stroke="midnightblue" d="M476.83,-653.27C467.25,-649.57 457.3,-645.68 448,-641.96 417.56,-629.81 383.17,-615.52 358.1,-605"/>
<polygon fill="midnightblue" stroke="midnightblue" points="475.65,-656.57 486.24,-656.9 478.17,-650.04 475.65,-656.57"/>
</g>
<!-- Node5&#45;&gt;Node4 -->
<g id="edge7" class="edge">
<title>Node5&#45;&gt;Node4</title>
<path fill="none" stroke="midnightblue" d="M491.48,-490.32C450.85,-514.28 384.34,-553.5 348.06,-574.89"/>
<polygon fill="midnightblue" stroke="midnightblue" points="493.39,-493.26 500.23,-485.16 489.83,-487.23 493.39,-493.26"/>
</g>
<!-- Node6 -->
<g id="node6" class="node">
<title>Node6</title>
<g id="a_node6"><a xlink:href="classpa_1_1PANOCSolver.html#a0789ba541bd61b1b394ff4d411a40790" target="_top" xlink:title=" ">
<polygon fill="white" stroke="black" points="260.5,-454.96 260.5,-484.96 382.5,-484.96 382.5,-454.96 260.5,-454.96"/>
<text text-anchor="start" x="268.5" y="-472.96" font-family="Helvetica,sans-Serif" font-size="10.00">pa::PANOCSolver&lt;&gt;::</text>
<text text-anchor="middle" x="321.5" y="-461.96" font-family="Helvetica,sans-Serif" font-size="10.00">get_name</text>
</a>
</g>
</g>
<!-- Node5&#45;&gt;Node6 -->
<g id="edge5" class="edge">
<title>Node5&#45;&gt;Node6</title>
<path fill="none" stroke="midnightblue" d="M461.26,-469.96C436.04,-469.96 407.31,-469.96 382.56,-469.96"/>
<polygon fill="midnightblue" stroke="midnightblue" points="461.47,-473.46 471.47,-469.96 461.47,-466.46 461.47,-473.46"/>
</g>
<!-- Node7 -->
<g id="node7" class="node">
<title>Node7</title>
<g id="a_node7"><a xlink:href="classpa_1_1SecondOrderPANOCSolver.html#acb04b3f19dafad9b4e7e7c1c19018d19" target="_top" xlink:title=" ">
<polygon fill="white" stroke="black" points="241,-404.96 241,-434.96 402,-434.96 402,-404.96 241,-404.96"/>
<text text-anchor="start" x="249" y="-422.96" font-family="Helvetica,sans-Serif" font-size="10.00">pa::SecondOrderPANOCSolver</text>
<text text-anchor="middle" x="321.5" y="-411.96" font-family="Helvetica,sans-Serif" font-size="10.00">::operator()</text>
</a>
</g>
</g>
<!-- Node5&#45;&gt;Node7 -->
<g id="edge6" class="edge">
<title>Node5&#45;&gt;Node7</title>
<path fill="none" stroke="midnightblue" d="M461.73,-454.17C436.76,-448.04 408.3,-441.05 383.65,-434.99"/>
<polygon fill="midnightblue" stroke="midnightblue" points="460.92,-457.58 471.47,-456.57 462.59,-450.78 460.92,-457.58"/>
</g>
<!-- Node8 -->
<g id="node8" class="node">
<title>Node8</title>
<g id="a_node8"><a xlink:href="classpa_1_1GAAPGASolver.html#a570ec001ea8eee359be8a1b90b782cfb" target="_top" xlink:title=" ">
<polygon fill="white" stroke="black" points="241,-504.46 241,-523.46 402,-523.46 402,-504.46 241,-504.46"/>
<text text-anchor="middle" x="321.5" y="-511.46" font-family="Helvetica,sans-Serif" font-size="10.00">pa::GAAPGASolver::operator()</text>
</a>
</g>
</g>
<!-- Node5&#45;&gt;Node8 -->
<g id="edge8" class="edge">
<title>Node5&#45;&gt;Node8</title>
<path fill="none" stroke="midnightblue" d="M461.35,-484.22C445.24,-487.75 427.99,-491.51 412,-494.96 397.56,-498.08 381.8,-501.44 367.58,-504.46"/>
<polygon fill="midnightblue" stroke="midnightblue" points="462.2,-487.62 471.22,-482.06 460.7,-480.78 462.2,-487.62"/>
</g>
<!-- Node9 -->
<g id="node9" class="node">
<title>Node9</title>
<g id="a_node9"><a xlink:href="classpa_1_1PGASolver.html#af516b794e244432023aea7ba3cd0d1d8" target="_top" xlink:title=" ">
<polygon fill="white" stroke="black" points="251.5,-323.46 251.5,-342.46 391.5,-342.46 391.5,-323.46 251.5,-323.46"/>
<text text-anchor="middle" x="321.5" y="-330.46" font-family="Helvetica,sans-Serif" font-size="10.00">pa::PGASolver::operator()</text>
</a>
</g>
</g>
<!-- Node5&#45;&gt;Node9 -->
<g id="edge9" class="edge">
<title>Node5&#45;&gt;Node9</title>
<path fill="none" stroke="midnightblue" d="M509.1,-446.37C488.96,-420.05 452.88,-378.12 412,-354.96 402.67,-349.68 392.1,-345.66 381.56,-342.59"/>
<polygon fill="midnightblue" stroke="midnightblue" points="506.5,-448.75 515.3,-454.65 512.1,-444.55 506.5,-448.75"/>
</g>
<!-- Node10 -->
<g id="node10" class="node">
<title>Node10</title>
<g id="a_node10"><a xlink:href="classpa_1_1PANOCSolverFull.html#adc37030e7641b91004d8c509489bc917" target="_top" xlink:title=" ">
<polygon fill="white" stroke="black" points="263.5,-266.96 263.5,-296.96 379.5,-296.96 379.5,-266.96 263.5,-266.96"/>
<text text-anchor="start" x="271.5" y="-284.96" font-family="Helvetica,sans-Serif" font-size="10.00">pa::PANOCSolverFull</text>
<text text-anchor="middle" x="321.5" y="-273.96" font-family="Helvetica,sans-Serif" font-size="10.00">::operator()</text>
</a>
</g>
</g>
<!-- Node5&#45;&gt;Node10 -->
<g id="edge10" class="edge">
<title>Node5&#45;&gt;Node10</title>
<path fill="none" stroke="midnightblue" d="M507.31,-446.84C491.17,-426.61 467.45,-396.29 448,-368.96 431.06,-345.16 434.95,-332.05 412,-313.96 402.54,-306.51 391.19,-300.7 379.81,-296.21"/>
<polygon fill="midnightblue" stroke="midnightblue" points="504.74,-449.23 513.73,-454.85 510.21,-444.85 504.74,-449.23"/>
</g>
<!-- Node11 -->
<g id="node11" class="node">
<title>Node11</title>
<g id="a_node11"><a xlink:href="namespacepa.html#a2b97bf67604c439eca0a540664930d61" target="_top" xlink:title=" ">
<polygon fill="white" stroke="black" points="285,-364.46 285,-383.46 358,-383.46 358,-364.46 285,-364.46"/>
<text text-anchor="middle" x="321.5" y="-371.46" font-family="Helvetica,sans-Serif" font-size="10.00">panoc_impl</text>
</a>
</g>
</g>
<!-- Node5&#45;&gt;Node11 -->
<g id="edge11" class="edge">
<title>Node5&#45;&gt;Node11</title>
<path fill="none" stroke="midnightblue" d="M498.71,-448.48C476.49,-431.96 443.74,-409.7 412,-395.96 394.97,-388.59 374.99,-383.39 358.24,-379.89"/>
<polygon fill="midnightblue" stroke="midnightblue" points="496.88,-451.49 506.97,-454.73 501.1,-445.9 496.88,-451.49"/>
</g>
<!-- Node12 -->
<g id="node12" class="node">
<title>Node12</title>
<g id="a_node12"><a xlink:href="namespacepa.html#adf74e7674514afed3ae1c356ffcb9e45" target="_top" xlink:title=" ">
<polygon fill="white" stroke="black" points="149,-364.46 149,-383.46 195,-383.46 195,-364.46 149,-364.46"/>
<text text-anchor="middle" x="172" y="-371.46" font-family="Helvetica,sans-Serif" font-size="10.00">panoc</text>
</a>
</g>
</g>
<!-- Node11&#45;&gt;Node12 -->
<g id="edge12" class="edge">
<title>Node11&#45;&gt;Node12</title>
<path fill="none" stroke="midnightblue" d="M274.59,-373.96C248.12,-373.96 216.04,-373.96 195.1,-373.96"/>
<polygon fill="midnightblue" stroke="midnightblue" points="274.79,-377.46 284.79,-373.96 274.79,-370.46 274.79,-377.46"/>
</g>
<!-- Node13 -->
<g id="node13" class="node">
<title>Node13</title>
<g id="a_node13"><a xlink:href="panocpy_8cpp.html#a874ce6effe8570e8994966f291e5e321" target="_top" xlink:title=" ">
<polygon fill="white" stroke="black" points="0,-364.46 0,-383.46 113,-383.46 113,-364.46 0,-364.46"/>
<text text-anchor="middle" x="56.5" y="-371.46" font-family="Helvetica,sans-Serif" font-size="10.00">PYBIND11_MODULE</text>
</a>
</g>
</g>
<!-- Node12&#45;&gt;Node13 -->
<g id="edge13" class="edge">
<title>Node12&#45;&gt;Node13</title>
<path fill="none" stroke="midnightblue" d="M138.8,-373.96C130.74,-373.96 121.86,-373.96 113.02,-373.96"/>
<polygon fill="midnightblue" stroke="midnightblue" points="138.85,-377.46 148.85,-373.96 138.85,-370.46 138.85,-377.46"/>
</g>
<!-- Node14&#45;&gt;Node4 -->
<g id="edge35" class="edge">
<title>Node14&#45;&gt;Node4</title>
<path fill="none" stroke="midnightblue" d="M853.39,-319.75C841.79,-354.68 813.66,-427.99 769,-474.96 711.22,-535.73 686.13,-545.26 606,-569.96 543.17,-589.34 468.94,-593.96 412.2,-593.94"/>
<polygon fill="midnightblue" stroke="midnightblue" points="856.85,-320.43 856.58,-309.84 850.18,-318.29 856.85,-320.43"/>
</g>
<!-- Node14&#45;&gt;Node7 -->
<g id="edge34" class="edge">
<title>Node14&#45;&gt;Node7</title>
<path fill="none" stroke="midnightblue" d="M833.31,-314.5C815.48,-324.09 791.18,-336.57 769,-345.96 698.46,-375.84 681.12,-386.96 606,-401.96 538.05,-415.54 459.29,-419.63 402.06,-420.57"/>
<polygon fill="midnightblue" stroke="midnightblue" points="835.38,-317.36 842.49,-309.51 832.03,-311.21 835.38,-317.36"/>
</g>
<!-- Node14&#45;&gt;Node8 -->
<g id="edge39" class="edge">
<title>Node14&#45;&gt;Node8</title>
<path fill="none" stroke="midnightblue" d="M846.98,-318.06C814.01,-363.91 719.46,-484.02 606,-526.96 520.06,-559.49 408.87,-537.72 354.84,-523.51"/>
<polygon fill="midnightblue" stroke="midnightblue" points="849.99,-319.88 852.91,-309.69 844.27,-315.83 849.99,-319.88"/>
</g>
<!-- Node14&#45;&gt;Node9 -->
<g id="edge40" class="edge">
<title>Node14&#45;&gt;Node9</title>
<path fill="none" stroke="midnightblue" d="M809.59,-284.98C807.97,-283.74 806.42,-282.41 805,-280.96 769.47,-244.94 805.8,-207.69 769,-172.96 716.63,-123.55 503.73,-83.38 448,-128.96 385.53,-180.07 466.65,-247.57 412,-306.96 405.32,-314.23 396.74,-319.51 387.54,-323.33"/>
<polygon fill="midnightblue" stroke="midnightblue" points="807.99,-288.1 818.35,-290.34 811.65,-282.13 807.99,-288.1"/>
</g>
<!-- Node14&#45;&gt;Node10 -->
<g id="edge41" class="edge">
<title>Node14&#45;&gt;Node10</title>
<path fill="none" stroke="midnightblue" d="M808.73,-284.68C807.4,-283.53 806.15,-282.29 805,-280.96 750.16,-217.65 833.64,-149.24 769,-95.96 713.95,-50.6 504.09,-51.89 448,-95.96 394.77,-137.8 455.81,-192.36 412,-243.96 403.48,-254 391.84,-261.45 379.78,-266.96"/>
<polygon fill="midnightblue" stroke="midnightblue" points="806.83,-287.62 817.06,-290.36 810.77,-281.83 806.83,-287.62"/>
</g>
<!-- Node15 -->
<g id="node15" class="node">
<title>Node15</title>
<g id="a_node15"><a xlink:href="namespacepa_1_1detail.html#aa986daa1d5f0dfdbc75c143d2aae2919" target="_top" xlink:title="Calculate both ψ(x) and its gradient ∇ψ(x).">
<polygon fill="white" stroke="black" points="655.5,-284.96 655.5,-314.96 755.5,-314.96 755.5,-284.96 655.5,-284.96"/>
<text text-anchor="start" x="663.5" y="-302.96" font-family="Helvetica,sans-Serif" font-size="10.00">pa::detail::calc_ψ</text>
<text text-anchor="middle" x="705.5" y="-291.96" font-family="Helvetica,sans-Serif" font-size="10.00">_grad_ψ</text>
</a>
</g>
</g>
<!-- Node14&#45;&gt;Node15 -->
<g id="edge15" class="edge">
<title>Node14&#45;&gt;Node15</title>
<path fill="none" stroke="midnightblue" d="M794.39,-299.96C781.39,-299.96 767.94,-299.96 755.59,-299.96"/>
<polygon fill="midnightblue" stroke="midnightblue" points="794.7,-303.46 804.7,-299.96 794.7,-296.46 794.7,-303.46"/>
</g>
<!-- Node16 -->
<g id="node16" class="node">
<title>Node16</title>
<g id="a_node16"><a xlink:href="classpa_1_1LBFGSSolver.html#a8540540028b02dfe8b7e3ec0c49c07dd" target="_top" xlink:title=" ">
<polygon fill="white" stroke="black" points="451,-176.46 451,-195.46 603,-195.46 603,-176.46 451,-176.46"/>
<text text-anchor="middle" x="527" y="-183.46" font-family="Helvetica,sans-Serif" font-size="10.00">pa::LBFGSSolver::operator()</text>
</a>
</g>
</g>
<!-- Node14&#45;&gt;Node16 -->
<g id="edge36" class="edge">
<title>Node14&#45;&gt;Node16</title>
<path fill="none" stroke="midnightblue" d="M822.05,-287.09C754.87,-263.98 615.34,-216 555.85,-195.54"/>
<polygon fill="midnightblue" stroke="midnightblue" points="821.21,-290.5 831.81,-290.44 823.49,-283.88 821.21,-290.5"/>
</g>
<!-- Node17 -->
<g id="node17" class="node">
<title>Node17</title>
<g id="a_node17"><a xlink:href="classpa_1_1LBFGSBSolver.html#a8540540028b02dfe8b7e3ec0c49c07dd" target="_top" xlink:title=" ">
<polygon fill="white" stroke="black" points="448,-138.46 448,-157.46 606,-157.46 606,-138.46 448,-138.46"/>
<text text-anchor="middle" x="527" y="-145.46" font-family="Helvetica,sans-Serif" font-size="10.00">pa::LBFGSBSolver::operator()</text>
</a>
</g>
</g>
<!-- Node14&#45;&gt;Node17 -->
<g id="edge37" class="edge">
<title>Node14&#45;&gt;Node17</title>
<path fill="none" stroke="midnightblue" d="M811.91,-285.73C809.48,-284.29 807.16,-282.7 805,-280.96 781.1,-261.67 793,-241.14 769,-221.96 709.27,-174.24 679.43,-188.25 606,-166.96 594.49,-163.63 581.91,-160.39 570.28,-157.56"/>
<polygon fill="midnightblue" stroke="midnightblue" points="810.58,-288.98 821.09,-290.37 813.74,-282.74 810.58,-288.98"/>
</g>
<!-- Node18 -->
<g id="node18" class="node">
<title>Node18</title>
<g id="a_node18"><a xlink:href="classpa_1_1PANOCSolver.html#aa782dc3f118d5447eeed004c17bd91f5" target="_top" xlink:title=" ">
<polygon fill="white" stroke="black" points="244.5,-215.46 244.5,-234.46 398.5,-234.46 398.5,-215.46 244.5,-215.46"/>
<text text-anchor="middle" x="321.5" y="-222.46" font-family="Helvetica,sans-Serif" font-size="10.00">pa::PANOCSolver::operator()</text>
</a>
</g>
</g>
<!-- Node14&#45;&gt;Node18 -->
<g id="edge38" class="edge">
<title>Node14&#45;&gt;Node18</title>
<path fill="none" stroke="midnightblue" d="M808.67,-284.72C807.36,-283.56 806.13,-282.31 805,-280.96 741.01,-204.75 844.62,-124.66 769,-59.96 660.6,32.78 575.73,4.59 448,-58.96 379.1,-93.25 337.97,-185.4 326.1,-215.39"/>
<polygon fill="midnightblue" stroke="midnightblue" points="806.74,-287.64 816.95,-290.46 810.72,-281.88 806.74,-287.64"/>
</g>
<!-- Node19 -->
<g id="node19" class="node">
<title>Node19</title>
<g id="a_node19"><a xlink:href="namespacepa_1_1detail.html#ac7d4fa127500b38a8cec94984c4f598d" target="_top" xlink:title="Increase the estimate of the Lipschitz constant of the objective gradient and decrease the step size ...">
<polygon fill="white" stroke="black" points="473.5,-328.96 473.5,-358.96 580.5,-358.96 580.5,-328.96 473.5,-328.96"/>
<text text-anchor="start" x="481.5" y="-346.96" font-family="Helvetica,sans-Serif" font-size="10.00">pa::detail::descent</text>
<text text-anchor="middle" x="527" y="-335.96" font-family="Helvetica,sans-Serif" font-size="10.00">_lemma</text>
</a>
</g>
</g>
<!-- Node14&#45;&gt;Node19 -->
<g id="edge25" class="edge">
<title>Node14&#45;&gt;Node19</title>
<path fill="none" stroke="midnightblue" d="M820.51,-312.49C804.68,-317.11 786.12,-321.95 769,-324.96 704.72,-336.27 629.61,-340.85 580.55,-342.71"/>
<polygon fill="midnightblue" stroke="midnightblue" points="821.9,-315.73 830.48,-309.5 819.89,-309.02 821.9,-315.73"/>
</g>
<!-- Node15&#45;&gt;Node4 -->
<g id="edge18" class="edge">
<title>Node15&#45;&gt;Node4</title>
<path fill="none" stroke="midnightblue" d="M701.1,-325.22C693.34,-372.49 669.78,-474.32 606,-526.96 551.95,-571.58 473.02,-586.32 412.15,-590.47"/>
<polygon fill="midnightblue" stroke="midnightblue" points="704.58,-325.63 702.64,-315.21 697.66,-324.56 704.58,-325.63"/>
</g>
<!-- Node15&#45;&gt;Node5 -->
<g id="edge16" class="edge">
<title>Node15&#45;&gt;Node5</title>
<path fill="none" stroke="midnightblue" d="M683.58,-322.72C664,-343.76 633.69,-375.65 606,-401.96 586.21,-420.78 562.42,-441.22 546.36,-454.73"/>
<polygon fill="midnightblue" stroke="midnightblue" points="686.3,-324.94 690.54,-315.22 681.17,-320.18 686.3,-324.94"/>
</g>
<!-- Node15&#45;&gt;Node7 -->
<g id="edge17" class="edge">
<title>Node15&#45;&gt;Node7</title>
<path fill="none" stroke="midnightblue" d="M679.92,-321.77C661.01,-337.34 633.54,-357.5 606,-368.96 540.44,-396.26 460.39,-408.97 402.09,-414.87"/>
<polygon fill="midnightblue" stroke="midnightblue" points="682.33,-324.31 687.73,-315.19 677.82,-318.96 682.33,-324.31"/>
</g>
<!-- Node15&#45;&gt;Node8 -->
<g id="edge22" class="edge">
<title>Node15&#45;&gt;Node8</title>
<path fill="none" stroke="midnightblue" d="M700.07,-324.92C690.97,-367.97 665.76,-455.38 606,-494.96 533.31,-543.11 425.85,-533.83 366.29,-523.47"/>
<polygon fill="midnightblue" stroke="midnightblue" points="703.53,-325.48 702.05,-314.99 696.66,-324.11 703.53,-325.48"/>
</g>
<!-- Node15&#45;&gt;Node9 -->
<g id="edge23" class="edge">
<title>Node15&#45;&gt;Node9</title>
<path fill="none" stroke="midnightblue" d="M645.25,-304.16C593.24,-307.94 515.56,-313.83 448,-319.96 429.68,-321.63 409.86,-323.6 391.51,-325.5"/>
<polygon fill="midnightblue" stroke="midnightblue" points="645.57,-307.64 655.3,-303.43 645.07,-300.66 645.57,-307.64"/>
</g>
<!-- Node15&#45;&gt;Node10 -->
<g id="edge24" class="edge">
<title>Node15&#45;&gt;Node10</title>
<path fill="none" stroke="midnightblue" d="M645.14,-290.29C632.27,-288.53 618.7,-286.95 606,-285.96 527.72,-279.87 436.94,-279.82 379.61,-280.65"/>
<polygon fill="midnightblue" stroke="midnightblue" points="644.89,-293.79 655.28,-291.72 645.87,-286.85 644.89,-293.79"/>
</g>
<!-- Node15&#45;&gt;Node16 -->
<g id="edge19" class="edge">
<title>Node15&#45;&gt;Node16</title>
<path fill="none" stroke="midnightblue" d="M684.97,-277.11C666.51,-256.83 637.07,-227.73 606,-209.96 595.3,-203.85 582.86,-199.11 571.11,-195.53"/>
<polygon fill="midnightblue" stroke="midnightblue" points="682.46,-279.55 691.73,-284.68 687.68,-274.89 682.46,-279.55"/>
</g>
<!-- Node15&#45;&gt;Node17 -->
<g id="edge20" class="edge">
<title>Node15&#45;&gt;Node17</title>
<path fill="none" stroke="midnightblue" d="M693.28,-275.89C677.92,-245.68 647.47,-194.5 606,-166.96 600.19,-163.11 593.68,-160.04 586.96,-157.59"/>
<polygon fill="midnightblue" stroke="midnightblue" points="690.16,-277.49 697.73,-284.91 696.44,-274.39 690.16,-277.49"/>
</g>
<!-- Node15&#45;&gt;Node18 -->
<g id="edge21" class="edge">
<title>Node15&#45;&gt;Node18</title>
<path fill="none" stroke="midnightblue" d="M645.52,-284.97C632.54,-281.85 618.83,-278.68 606,-275.96 528.7,-259.61 438.82,-244.02 381.34,-234.47"/>
<polygon fill="midnightblue" stroke="midnightblue" points="644.74,-288.39 655.28,-287.35 646.39,-281.58 644.74,-288.39"/>
</g>
<!-- Node19&#45;&gt;Node4 -->
<g id="edge27" class="edge">
<title>Node19&#45;&gt;Node4</title>
<path fill="none" stroke="midnightblue" d="M505.94,-366.58C488.97,-386.48 464.82,-416.76 448,-445.96 427.11,-482.23 438.89,-500.91 412,-532.96 396.96,-550.89 374.82,-565.06 356.32,-574.78"/>
<polygon fill="midnightblue" stroke="midnightblue" points="508.62,-368.83 512.5,-358.97 503.32,-364.26 508.62,-368.83"/>
</g>
<!-- Node19&#45;&gt;Node7 -->
<g id="edge26" class="edge">
<title>Node19&#45;&gt;Node7</title>
<path fill="none" stroke="midnightblue" d="M474.41,-362.81C465.53,-366.34 456.44,-370.13 448,-373.96 431.53,-381.45 428.74,-386.1 412,-392.96 401.34,-397.34 389.71,-401.36 378.46,-404.9"/>
<polygon fill="midnightblue" stroke="midnightblue" points="475.88,-366 483.93,-359.1 473.34,-359.47 475.88,-366"/>
</g>
<!-- Node19&#45;&gt;Node8 -->
<g id="edge30" class="edge">
<title>Node19&#45;&gt;Node8</title>
<path fill="none" stroke="midnightblue" d="M507.98,-367.26C492.09,-387.87 468.36,-418.81 448,-445.96 431.79,-467.59 434.7,-480.31 412,-494.96 405.99,-498.84 399.33,-501.94 392.44,-504.42"/>
<polygon fill="midnightblue" stroke="midnightblue" points="510.94,-369.16 514.28,-359.1 505.4,-364.88 510.94,-369.16"/>
</g>
<!-- Node19&#45;&gt;Node9 -->
<g id="edge31" class="edge">
<title>Node19&#45;&gt;Node9</title>
<path fill="none" stroke="midnightblue" d="M463.18,-340.57C440.57,-339.35 414.95,-337.96 391.83,-336.71"/>
<polygon fill="midnightblue" stroke="midnightblue" points="463.15,-344.07 473.33,-341.12 463.53,-337.08 463.15,-344.07"/>
</g>
<!-- Node19&#45;&gt;Node10 -->
<g id="edge32" class="edge">
<title>Node19&#45;&gt;Node10</title>
<path fill="none" stroke="midnightblue" d="M466.79,-325.93C436.72,-316.76 400.59,-305.76 372.01,-297.05"/>
<polygon fill="midnightblue" stroke="midnightblue" points="466.15,-329.39 476.74,-328.96 468.19,-322.69 466.15,-329.39"/>
</g>
<!-- Node19&#45;&gt;Node11 -->
<g id="edge33" class="edge">
<title>Node19&#45;&gt;Node11</title>
<path fill="none" stroke="midnightblue" d="M463.34,-353.2C428.85,-358.29 387.29,-364.41 358.29,-368.69"/>
<polygon fill="midnightblue" stroke="midnightblue" points="463.95,-356.65 473.33,-351.73 462.93,-349.73 463.95,-356.65"/>
</g>
<!-- Node19&#45;&gt;Node18 -->
<g id="edge28" class="edge">
<title>Node19&#45;&gt;Node18</title>
<path fill="none" stroke="midnightblue" d="M508.27,-321.55C486.77,-300.17 448.82,-269.07 412,-248.96 401.97,-243.49 390.85,-238.57 379.94,-234.48"/>
<polygon fill="midnightblue" stroke="midnightblue" points="505.95,-324.18 515.42,-328.94 510.99,-319.32 505.95,-324.18"/>
</g>
<!-- Node19&#45;&gt;Node18 -->
<g id="edge29" class="edge">
<title>Node19&#45;&gt;Node18</title>
<path fill="none" stroke="midnightblue" d="M492.82,-322.5C470.98,-305.67 441.13,-282.87 412,-266.96 386.27,-252.92 353.34,-242.52 335.46,-234.47"/>
<polygon fill="midnightblue" stroke="midnightblue" points="490.72,-325.31 500.78,-328.64 495,-319.76 490.72,-325.31"/>
</g>
</g>
</svg>
