<?xml version="1.0" encoding="UTF-8" standalone="no"?>
<!DOCTYPE svg PUBLIC "-//W3C//DTD SVG 1.1//EN"
 "http://www.w3.org/Graphics/SVG/1.1/DTD/svg11.dtd">
<!-- Generated by graphviz version 2.43.0 (0)
 -->
<!-- Title: polymorphic&#45;panoc&#45;direction.hpp Pages: 1 -->
<svg width="1890pt" height="408pt"
 viewBox="0.00 0.00 1890.00 408.00" xmlns="http://www.w3.org/2000/svg" xmlns:xlink="http://www.w3.org/1999/xlink">
<g id="graph0" class="graph" transform="scale(1 1) rotate(0) translate(4 404)">
<title>polymorphic&#45;panoc&#45;direction.hpp</title>
<polygon fill="white" stroke="transparent" points="-4,4 -4,-404 1886,-404 1886,4 -4,4"/>
<!-- Node1 -->
<g id="node1" class="node">
<title>Node1</title>
<g id="a_node1"><a xlink:title=" ">
<polygon fill="#bfbfbf" stroke="black" points="1539.5,-380.5 1539.5,-399.5 1717.5,-399.5 1717.5,-380.5 1539.5,-380.5"/>
<text text-anchor="middle" x="1628.5" y="-387.5" font-family="Helvetica,sans-Serif" font-size="10.00">polymorphic&#45;panoc&#45;direction.hpp</text>
</a>
</g>
</g>
<!-- Node2 -->
<g id="node2" class="node">
<title>Node2</title>
<g id="a_node2"><a xlink:href="lbfgs_8hpp.html" target="_top" xlink:title=" ">
<polygon fill="white" stroke="black" points="102,-313.5 102,-343.5 249,-343.5 249,-313.5 102,-313.5"/>
<text text-anchor="start" x="110" y="-331.5" font-family="Helvetica,sans-Serif" font-size="10.00">panoc&#45;alm/inner/directions</text>
<text text-anchor="middle" x="175.5" y="-320.5" font-family="Helvetica,sans-Serif" font-size="10.00">/lbfgs.hpp</text>
</a>
</g>
</g>
<!-- Node1&#45;&gt;Node2 -->
<g id="edge1" class="edge">
<title>Node1&#45;&gt;Node2</title>
<path fill="none" stroke="midnightblue" d="M1539.25,-385.35C1277.53,-374.63 514.46,-343.38 259.54,-332.94"/>
<polygon fill="midnightblue" stroke="midnightblue" points="259.37,-329.43 249.23,-332.52 259.08,-336.43 259.37,-329.43"/>
</g>
<!-- Node10 -->
<g id="node10" class="node">
<title>Node10</title>
<g id="a_node10"><a xlink:href="inner_2panoc_8hpp.html" target="_top" xlink:title=" ">
<polygon fill="white" stroke="black" points="1032,-319 1032,-338 1181,-338 1181,-319 1032,-319"/>
<text text-anchor="middle" x="1106.5" y="-326" font-family="Helvetica,sans-Serif" font-size="10.00">panoc&#45;alm/inner/panoc.hpp</text>
</a>
</g>
</g>
<!-- Node1&#45;&gt;Node10 -->
<g id="edge11" class="edge">
<title>Node1&#45;&gt;Node10</title>
<path fill="none" stroke="midnightblue" d="M1553.71,-380.48C1457.77,-369.54 1291.8,-350.62 1191.27,-339.16"/>
<polygon fill="midnightblue" stroke="midnightblue" points="1191.48,-335.66 1181.15,-338.01 1190.69,-342.62 1191.48,-335.66"/>
</g>
<!-- Node23 -->
<g id="node23" class="node">
<title>Node23</title>
<g id="a_node23"><a xlink:title=" ">
<polygon fill="white" stroke="#bfbfbf" points="1225.5,-118 1225.5,-137 1283.5,-137 1283.5,-118 1225.5,-118"/>
<text text-anchor="middle" x="1254.5" y="-125" font-family="Helvetica,sans-Serif" font-size="10.00">memory</text>
</a>
</g>
</g>
<!-- Node1&#45;&gt;Node23 -->
<g id="edge48" class="edge">
<title>Node1&#45;&gt;Node23</title>
<path fill="none" stroke="midnightblue" d="M1629.2,-380.08C1631.21,-347.41 1633.39,-233.33 1571.5,-179 1526.84,-139.8 1364.7,-155.01 1306.5,-143 1301.81,-142.03 1296.93,-140.87 1292.11,-139.64"/>
<polygon fill="midnightblue" stroke="midnightblue" points="1292.96,-136.25 1282.39,-137.04 1291.15,-143.01 1292.96,-136.25"/>
</g>
<!-- Node33 -->
<g id="node33" class="node">
<title>Node33</title>
<g id="a_node33"><a xlink:title=" ">
<polygon fill="white" stroke="#bfbfbf" points="1656.5,-319 1656.5,-338 1750.5,-338 1750.5,-319 1656.5,-319"/>
<text text-anchor="middle" x="1703.5" y="-326" font-family="Helvetica,sans-Serif" font-size="10.00">pybind11/cast.h</text>
</a>
</g>
</g>
<!-- Node1&#45;&gt;Node33 -->
<g id="edge49" class="edge">
<title>Node1&#45;&gt;Node33</title>
<path fill="none" stroke="midnightblue" d="M1639.25,-380.48C1651.05,-371.11 1670.24,-355.88 1684.58,-344.51"/>
<polygon fill="midnightblue" stroke="midnightblue" points="1687.12,-346.97 1692.77,-338.01 1682.76,-341.48 1687.12,-346.97"/>
</g>
<!-- Node34 -->
<g id="node34" class="node">
<title>Node34</title>
<g id="a_node34"><a xlink:title=" ">
<polygon fill="white" stroke="#bfbfbf" points="1769,-319 1769,-338 1882,-338 1882,-319 1769,-319"/>
<text text-anchor="middle" x="1825.5" y="-326" font-family="Helvetica,sans-Serif" font-size="10.00">pybind11/pytypes.h</text>
</a>
</g>
</g>
<!-- Node1&#45;&gt;Node34 -->
<g id="edge50" class="edge">
<title>Node1&#45;&gt;Node34</title>
<path fill="none" stroke="midnightblue" d="M1656.73,-380.48C1691.1,-370.09 1749.31,-352.51 1787.58,-340.95"/>
<polygon fill="midnightblue" stroke="midnightblue" points="1788.77,-344.25 1797.33,-338.01 1786.74,-337.55 1788.77,-344.25"/>
</g>
<!-- Node3 -->
<g id="node3" class="node">
<title>Node3</title>
<g id="a_node3"><a xlink:href="decl_2lbfgs_8hpp.html" target="_top" xlink:title=" ">
<polygon fill="white" stroke="black" points="0,-246.5 0,-276.5 147,-276.5 147,-246.5 0,-246.5"/>
<text text-anchor="start" x="8" y="-264.5" font-family="Helvetica,sans-Serif" font-size="10.00">panoc&#45;alm/inner/directions</text>
<text text-anchor="middle" x="73.5" y="-253.5" font-family="Helvetica,sans-Serif" font-size="10.00">/decl/lbfgs.hpp</text>
</a>
</g>
</g>
<!-- Node2&#45;&gt;Node3 -->
<g id="edge2" class="edge">
<title>Node2&#45;&gt;Node3</title>
<path fill="none" stroke="midnightblue" d="M153.37,-313.4C138.93,-304.2 119.9,-292.07 104.03,-281.95"/>
<polygon fill="midnightblue" stroke="midnightblue" points="105.9,-279 95.59,-276.58 102.14,-284.9 105.9,-279"/>
</g>
<!-- Node9 -->
<g id="node9" class="node">
<title>Node9</title>
<g id="a_node9"><a xlink:title=" ">
<polygon fill="white" stroke="#bfbfbf" points="965,-118 965,-137 1034,-137 1034,-118 965,-118"/>
<text text-anchor="middle" x="999.5" y="-125" font-family="Helvetica,sans-Serif" font-size="10.00">type_traits</text>
</a>
</g>
</g>
<!-- Node2&#45;&gt;Node9 -->
<g id="edge10" class="edge">
<title>Node2&#45;&gt;Node9</title>
<path fill="none" stroke="midnightblue" d="M172.17,-313.47C166.02,-283.67 156.73,-213.95 194.5,-179 253.54,-124.37 837.57,-152.02 917.5,-143 929.73,-141.62 942.9,-139.55 955.03,-137.41"/>
<polygon fill="midnightblue" stroke="midnightblue" points="955.72,-140.84 964.93,-135.6 954.46,-133.96 955.72,-140.84"/>
</g>
<!-- Node4 -->
<g id="node4" class="node">
<title>Node4</title>
<g id="a_node4"><a xlink:href="box_8hpp.html" target="_top" xlink:title=" ">
<polygon fill="white" stroke="black" points="255,-118 255,-137 384,-137 384,-118 255,-118"/>
<text text-anchor="middle" x="319.5" y="-125" font-family="Helvetica,sans-Serif" font-size="10.00">panoc&#45;alm/util/box.hpp</text>
</a>
</g>
</g>
<!-- Node3&#45;&gt;Node4 -->
<g id="edge3" class="edge">
<title>Node3&#45;&gt;Node4</title>
<path fill="none" stroke="midnightblue" d="M87.21,-246.4C107.56,-225.71 145.13,-188.55 161.5,-179 193.82,-160.14 234.03,-147.42 265.8,-139.46"/>
<polygon fill="midnightblue" stroke="midnightblue" points="266.91,-142.79 275.8,-137.04 265.26,-135.99 266.91,-142.79"/>
</g>
<!-- Node5 -->
<g id="node5" class="node">
<title>Node5</title>
<g id="a_node5"><a xlink:href="vec_8hpp.html" target="_top" xlink:title=" ">
<polygon fill="white" stroke="black" points="292,-56.5 292,-75.5 347,-75.5 347,-56.5 292,-56.5"/>
<text text-anchor="middle" x="319.5" y="-63.5" font-family="Helvetica,sans-Serif" font-size="10.00">vec.hpp</text>
</a>
</g>
</g>
<!-- Node3&#45;&gt;Node5 -->
<g id="edge6" class="edge">
<title>Node3&#45;&gt;Node5</title>
<path fill="none" stroke="midnightblue" d="M69,-246.14C60.83,-216.94 47.3,-150.17 80.5,-112 106.25,-82.4 220.56,-72.06 281.29,-68.62"/>
<polygon fill="midnightblue" stroke="midnightblue" points="281.82,-72.09 291.62,-68.07 281.45,-65.1 281.82,-72.09"/>
</g>
<!-- Node7 -->
<g id="node7" class="node">
<title>Node7</title>
<g id="a_node7"><a xlink:href="lbfgs-fwd_8hpp.html" target="_top" xlink:title=" ">
<polygon fill="white" stroke="black" points="90,-112.5 90,-142.5 237,-142.5 237,-112.5 90,-112.5"/>
<text text-anchor="start" x="98" y="-130.5" font-family="Helvetica,sans-Serif" font-size="10.00">panoc&#45;alm/inner/directions</text>
<text text-anchor="middle" x="163.5" y="-119.5" font-family="Helvetica,sans-Serif" font-size="10.00">/decl/lbfgs&#45;fwd.hpp</text>
</a>
</g>
</g>
<!-- Node3&#45;&gt;Node7 -->
<g id="edge7" class="edge">
<title>Node3&#45;&gt;Node7</title>
<path fill="none" stroke="midnightblue" d="M81.5,-246.33C90.98,-229.81 107.52,-201.86 123.5,-179 130.2,-169.41 138.1,-159.23 145.11,-150.54"/>
<polygon fill="midnightblue" stroke="midnightblue" points="147.87,-152.69 151.48,-142.73 142.44,-148.27 147.87,-152.69"/>
</g>
<!-- Node8 -->
<g id="node8" class="node">
<title>Node8</title>
<g id="a_node8"><a xlink:href="panoc-direction-update_8hpp.html" target="_top" xlink:title=" ">
<polygon fill="white" stroke="black" points="203,-179.5 203,-209.5 380,-209.5 380,-179.5 203,-179.5"/>
<text text-anchor="start" x="211" y="-197.5" font-family="Helvetica,sans-Serif" font-size="10.00">panoc&#45;alm/inner/directions</text>
<text text-anchor="middle" x="291.5" y="-186.5" font-family="Helvetica,sans-Serif" font-size="10.00">/decl/panoc&#45;direction&#45;update.hpp</text>
</a>
</g>
</g>
<!-- Node3&#45;&gt;Node8 -->
<g id="edge8" class="edge">
<title>Node3&#45;&gt;Node8</title>
<path fill="none" stroke="midnightblue" d="M120.53,-246.48C153.94,-236.51 198.98,-223.09 234.44,-212.51"/>
<polygon fill="midnightblue" stroke="midnightblue" points="235.59,-215.82 244.17,-209.61 233.59,-209.11 235.59,-215.82"/>
</g>
<!-- Node4&#45;&gt;Node5 -->
<g id="edge4" class="edge">
<title>Node4&#45;&gt;Node5</title>
<path fill="none" stroke="midnightblue" d="M319.5,-117.98C319.5,-109.58 319.5,-96.48 319.5,-85.66"/>
<polygon fill="midnightblue" stroke="midnightblue" points="323,-85.51 319.5,-75.51 316,-85.51 323,-85.51"/>
</g>
<!-- Node6 -->
<g id="node6" class="node">
<title>Node6</title>
<g id="a_node6"><a xlink:title=" ">
<polygon fill="white" stroke="#bfbfbf" points="285,-0.5 285,-19.5 354,-19.5 354,-0.5 285,-0.5"/>
<text text-anchor="middle" x="319.5" y="-7.5" font-family="Helvetica,sans-Serif" font-size="10.00">Eigen/Core</text>
</a>
</g>
</g>
<!-- Node5&#45;&gt;Node6 -->
<g id="edge5" class="edge">
<title>Node5&#45;&gt;Node6</title>
<path fill="none" stroke="midnightblue" d="M319.5,-56.08C319.5,-49.01 319.5,-38.86 319.5,-29.99"/>
<polygon fill="midnightblue" stroke="midnightblue" points="323,-29.75 319.5,-19.75 316,-29.75 323,-29.75"/>
</g>
<!-- Node8&#45;&gt;Node4 -->
<g id="edge9" class="edge">
<title>Node8&#45;&gt;Node4</title>
<path fill="none" stroke="midnightblue" d="M297.58,-179.4C301.73,-169.76 307.26,-156.91 311.73,-146.54"/>
<polygon fill="midnightblue" stroke="midnightblue" points="315.01,-147.76 315.75,-137.19 308.58,-144.99 315.01,-147.76"/>
</g>
<!-- Node10&#45;&gt;Node8 -->
<g id="edge42" class="edge">
<title>Node10&#45;&gt;Node8</title>
<path fill="none" stroke="midnightblue" d="M1035.89,-318.96C960.76,-309.64 838.52,-293.78 733.5,-277 606.63,-256.73 460.11,-228.82 371.71,-211.48"/>
<polygon fill="midnightblue" stroke="midnightblue" points="372.24,-208.02 361.75,-209.52 370.89,-214.89 372.24,-208.02"/>
</g>
<!-- Node11 -->
<g id="node11" class="node">
<title>Node11</title>
<g id="a_node11"><a xlink:title=" ">
<polygon fill="white" stroke="#bfbfbf" points="873.5,-185 873.5,-204 923.5,-204 923.5,-185 873.5,-185"/>
<text text-anchor="middle" x="898.5" y="-192" font-family="Helvetica,sans-Serif" font-size="10.00">chrono</text>
</a>
</g>
</g>
<!-- Node10&#45;&gt;Node11 -->
<g id="edge12" class="edge">
<title>Node10&#45;&gt;Node11</title>
<path fill="none" stroke="midnightblue" d="M1091.82,-318.92C1074.97,-309.01 1046.56,-292.13 1022.5,-277 986.15,-254.14 944.56,-226.49 919.97,-209.99"/>
<polygon fill="midnightblue" stroke="midnightblue" points="921.67,-206.92 911.42,-204.24 917.77,-212.72 921.67,-206.92"/>
</g>
<!-- Node12 -->
<g id="node12" class="node">
<title>Node12</title>
<g id="a_node12"><a xlink:href="inner_2decl_2panoc_8hpp.html" target="_top" xlink:title=" ">
<polygon fill="white" stroke="black" points="813,-246.5 813,-276.5 932,-276.5 932,-246.5 813,-246.5"/>
<text text-anchor="start" x="821" y="-264.5" font-family="Helvetica,sans-Serif" font-size="10.00">panoc&#45;alm/inner/decl</text>
<text text-anchor="middle" x="872.5" y="-253.5" font-family="Helvetica,sans-Serif" font-size="10.00">/panoc.hpp</text>
</a>
</g>
</g>
<!-- Node10&#45;&gt;Node12 -->
<g id="edge13" class="edge">
<title>Node10&#45;&gt;Node12</title>
<path fill="none" stroke="midnightblue" d="M1075.43,-318.87C1039.17,-308.8 978.39,-291.91 932.78,-279.24"/>
<polygon fill="midnightblue" stroke="midnightblue" points="933.57,-275.83 923,-276.53 931.7,-282.58 933.57,-275.83"/>
</g>
<!-- Node17 -->
<g id="node17" class="node">
<title>Node17</title>
<g id="a_node17"><a xlink:title=" ">
<polygon fill="white" stroke="#bfbfbf" points="1558,-118 1558,-137 1623,-137 1623,-118 1558,-118"/>
<text text-anchor="middle" x="1590.5" y="-125" font-family="Helvetica,sans-Serif" font-size="10.00">stdexcept</text>
</a>
</g>
</g>
<!-- Node10&#45;&gt;Node17 -->
<g id="edge47" class="edge">
<title>Node10&#45;&gt;Node17</title>
<path fill="none" stroke="midnightblue" d="M1181.13,-321.01C1305.26,-308.46 1545.31,-276.05 1593.5,-210 1606.83,-191.73 1602.36,-164.52 1597.11,-146.65"/>
<polygon fill="midnightblue" stroke="midnightblue" points="1600.42,-145.52 1593.97,-137.12 1593.77,-147.71 1600.42,-145.52"/>
</g>
<!-- Node28 -->
<g id="node28" class="node">
<title>Node28</title>
<g id="a_node28"><a xlink:href="panoc-helpers_8hpp.html" target="_top" xlink:title=" ">
<polygon fill="white" stroke="black" points="1096,-246.5 1096,-276.5 1223,-276.5 1223,-246.5 1096,-246.5"/>
<text text-anchor="start" x="1104" y="-264.5" font-family="Helvetica,sans-Serif" font-size="10.00">panoc&#45;alm/inner/detail</text>
<text text-anchor="middle" x="1159.5" y="-253.5" font-family="Helvetica,sans-Serif" font-size="10.00">/panoc&#45;helpers.hpp</text>
</a>
</g>
</g>
<!-- Node10&#45;&gt;Node28 -->
<g id="edge36" class="edge">
<title>Node10&#45;&gt;Node28</title>
<path fill="none" stroke="midnightblue" d="M1113.65,-318.73C1120.74,-310.03 1131.9,-296.34 1141.44,-284.65"/>
<polygon fill="midnightblue" stroke="midnightblue" points="1144.41,-286.55 1148.01,-276.59 1138.98,-282.13 1144.41,-286.55"/>
</g>
<!-- Node29 -->
<g id="node29" class="node">
<title>Node29</title>
<g id="a_node29"><a xlink:title=" ">
<polygon fill="white" stroke="#bfbfbf" points="742.5,-252 742.5,-271 794.5,-271 794.5,-252 742.5,-252"/>
<text text-anchor="middle" x="768.5" y="-259" font-family="Helvetica,sans-Serif" font-size="10.00">cassert</text>
</a>
</g>
</g>
<!-- Node10&#45;&gt;Node29 -->
<g id="edge43" class="edge">
<title>Node10&#45;&gt;Node29</title>
<path fill="none" stroke="midnightblue" d="M1031.98,-319.61C970.24,-312 880.62,-298.42 804.5,-277 802.06,-276.31 799.56,-275.52 797.07,-274.65"/>
<polygon fill="midnightblue" stroke="midnightblue" points="798.25,-271.36 787.66,-271.11 795.79,-277.91 798.25,-271.36"/>
</g>
<!-- Node30 -->
<g id="node30" class="node">
<title>Node30</title>
<g id="a_node30"><a xlink:title=" ">
<polygon fill="white" stroke="#bfbfbf" points="1031,-252 1031,-271 1078,-271 1078,-252 1031,-252"/>
<text text-anchor="middle" x="1054.5" y="-259" font-family="Helvetica,sans-Serif" font-size="10.00">cmath</text>
</a>
</g>
</g>
<!-- Node10&#45;&gt;Node30 -->
<g id="edge44" class="edge">
<title>Node10&#45;&gt;Node30</title>
<path fill="none" stroke="midnightblue" d="M1099.49,-318.73C1091.38,-308.6 1077.85,-291.69 1067.74,-279.06"/>
<polygon fill="midnightblue" stroke="midnightblue" points="1070.38,-276.75 1061.4,-271.13 1064.92,-281.12 1070.38,-276.75"/>
</g>
<!-- Node31 -->
<g id="node31" class="node">
<title>Node31</title>
<g id="a_node31"><a xlink:title=" ">
<polygon fill="white" stroke="#bfbfbf" points="1241.5,-252 1241.5,-271 1297.5,-271 1297.5,-252 1241.5,-252"/>
<text text-anchor="middle" x="1269.5" y="-259" font-family="Helvetica,sans-Serif" font-size="10.00">iomanip</text>
</a>
</g>
</g>
<!-- Node10&#45;&gt;Node31 -->
<g id="edge45" class="edge">
<title>Node10&#45;&gt;Node31</title>
<path fill="none" stroke="midnightblue" d="M1128.15,-318.87C1156.48,-307.57 1206.32,-287.7 1238.61,-274.82"/>
<polygon fill="midnightblue" stroke="midnightblue" points="1240.03,-278.02 1248.02,-271.06 1237.44,-271.52 1240.03,-278.02"/>
</g>
<!-- Node32 -->
<g id="node32" class="node">
<title>Node32</title>
<g id="a_node32"><a xlink:title=" ">
<polygon fill="white" stroke="#bfbfbf" points="1315.5,-252 1315.5,-271 1375.5,-271 1375.5,-252 1315.5,-252"/>
<text text-anchor="middle" x="1345.5" y="-259" font-family="Helvetica,sans-Serif" font-size="10.00">iostream</text>
</a>
</g>
</g>
<!-- Node10&#45;&gt;Node32 -->
<g id="edge46" class="edge">
<title>Node10&#45;&gt;Node32</title>
<path fill="none" stroke="midnightblue" d="M1145.56,-318.96C1186.13,-309.78 1251.27,-294.18 1306.5,-277 1309.06,-276.2 1311.7,-275.33 1314.34,-274.42"/>
<polygon fill="midnightblue" stroke="midnightblue" points="1315.54,-277.71 1323.78,-271.05 1313.18,-271.12 1315.54,-277.71"/>
</g>
<!-- Node12&#45;&gt;Node8 -->
<g id="edge20" class="edge">
<title>Node12&#45;&gt;Node8</title>
<path fill="none" stroke="midnightblue" d="M812.74,-247.48C809.62,-246.95 806.53,-246.45 803.5,-246 624.01,-219.43 574.66,-231.1 390.18,-210.02"/>
<polygon fill="midnightblue" stroke="midnightblue" points="390.48,-206.53 380.14,-208.86 389.67,-213.49 390.48,-206.53"/>
</g>
<!-- Node12&#45;&gt;Node11 -->
<g id="edge33" class="edge">
<title>Node12&#45;&gt;Node11</title>
<path fill="none" stroke="midnightblue" d="M878.14,-246.4C881.99,-236.76 887.13,-223.91 891.29,-213.54"/>
<polygon fill="midnightblue" stroke="midnightblue" points="894.56,-214.78 895.02,-204.19 888.06,-212.18 894.56,-214.78"/>
</g>
<!-- Node13 -->
<g id="node13" class="node">
<title>Node13</title>
<g id="a_node13"><a xlink:href="lbfgs-stepsize_8hpp.html" target="_top" xlink:title=" ">
<polygon fill="white" stroke="black" points="698,-179.5 698,-209.5 817,-209.5 817,-179.5 698,-179.5"/>
<text text-anchor="start" x="706" y="-197.5" font-family="Helvetica,sans-Serif" font-size="10.00">panoc&#45;alm/inner/decl</text>
<text text-anchor="middle" x="757.5" y="-186.5" font-family="Helvetica,sans-Serif" font-size="10.00">/lbfgs&#45;stepsize.hpp</text>
</a>
</g>
</g>
<!-- Node12&#45;&gt;Node13 -->
<g id="edge14" class="edge">
<title>Node12&#45;&gt;Node13</title>
<path fill="none" stroke="midnightblue" d="M847.55,-246.4C831.12,-237.11 809.41,-224.84 791.42,-214.67"/>
<polygon fill="midnightblue" stroke="midnightblue" points="792.83,-211.45 782.4,-209.58 789.39,-217.54 792.83,-211.45"/>
</g>
<!-- Node14 -->
<g id="node14" class="node">
<title>Node14</title>
<g id="a_node14"><a xlink:href="panoc-fwd_8hpp.html" target="_top" xlink:title=" ">
<polygon fill="white" stroke="black" points="398,-179.5 398,-209.5 517,-209.5 517,-179.5 398,-179.5"/>
<text text-anchor="start" x="406" y="-197.5" font-family="Helvetica,sans-Serif" font-size="10.00">panoc&#45;alm/inner/decl</text>
<text text-anchor="middle" x="457.5" y="-186.5" font-family="Helvetica,sans-Serif" font-size="10.00">/panoc&#45;fwd.hpp</text>
</a>
</g>
</g>
<!-- Node12&#45;&gt;Node14 -->
<g id="edge15" class="edge">
<title>Node12&#45;&gt;Node14</title>
<path fill="none" stroke="midnightblue" d="M812.71,-247.65C809.6,-247.07 806.52,-246.52 803.5,-246 683.3,-225.45 651.84,-229.73 531.5,-210 530.05,-209.76 528.58,-209.52 527.1,-209.26"/>
<polygon fill="midnightblue" stroke="midnightblue" points="527.67,-205.81 517.22,-207.53 526.46,-212.71 527.67,-205.81"/>
</g>
<!-- Node15 -->
<g id="node15" class="node">
<title>Node15</title>
<g id="a_node15"><a xlink:href="panoc-stop-crit_8hpp.html" target="_top" xlink:title=" ">
<polygon fill="white" stroke="black" points="1443,-179.5 1443,-209.5 1562,-209.5 1562,-179.5 1443,-179.5"/>
<text text-anchor="start" x="1451" y="-197.5" font-family="Helvetica,sans-Serif" font-size="10.00">panoc&#45;alm/inner/decl</text>
<text text-anchor="middle" x="1502.5" y="-186.5" font-family="Helvetica,sans-Serif" font-size="10.00">/panoc&#45;stop&#45;crit.hpp</text>
</a>
</g>
</g>
<!-- Node12&#45;&gt;Node15 -->
<g id="edge17" class="edge">
<title>Node12&#45;&gt;Node15</title>
<path fill="none" stroke="midnightblue" d="M932.34,-254.59C959.81,-251.91 992.8,-248.73 1022.5,-246 1202.32,-229.45 1251.02,-236.94 1432.97,-210.12"/>
<polygon fill="midnightblue" stroke="midnightblue" points="1433.5,-213.58 1442.87,-208.65 1432.47,-206.66 1433.5,-213.58"/>
</g>
<!-- Node18 -->
<g id="node18" class="node">
<title>Node18</title>
<g id="a_node18"><a xlink:href="atomic__stop__signal_8hpp.html" target="_top" xlink:title=" ">
<polygon fill="white" stroke="black" points="941.5,-179.5 941.5,-209.5 1065.5,-209.5 1065.5,-179.5 941.5,-179.5"/>
<text text-anchor="start" x="949.5" y="-197.5" font-family="Helvetica,sans-Serif" font-size="10.00">panoc&#45;alm/util/atomic</text>
<text text-anchor="middle" x="1003.5" y="-186.5" font-family="Helvetica,sans-Serif" font-size="10.00">_stop_signal.hpp</text>
</a>
</g>
</g>
<!-- Node12&#45;&gt;Node18 -->
<g id="edge21" class="edge">
<title>Node12&#45;&gt;Node18</title>
<path fill="none" stroke="midnightblue" d="M900.93,-246.4C919.98,-236.94 945.28,-224.39 965.98,-214.12"/>
<polygon fill="midnightblue" stroke="midnightblue" points="967.73,-217.16 975.13,-209.58 964.62,-210.89 967.73,-217.16"/>
</g>
<!-- Node19 -->
<g id="node19" class="node">
<title>Node19</title>
<g id="a_node19"><a xlink:title=" ">
<polygon fill="white" stroke="#bfbfbf" points="858.5,-118 858.5,-137 908.5,-137 908.5,-118 858.5,-118"/>
<text text-anchor="middle" x="883.5" y="-125" font-family="Helvetica,sans-Serif" font-size="10.00">atomic</text>
</a>
</g>
</g>
<!-- Node12&#45;&gt;Node19 -->
<g id="edge32" class="edge">
<title>Node12&#45;&gt;Node19</title>
<path fill="none" stroke="midnightblue" d="M868.73,-246.27C864.95,-229.92 860.25,-202.36 864.5,-179 866.54,-167.76 870.95,-155.78 875,-146.3"/>
<polygon fill="midnightblue" stroke="midnightblue" points="878.21,-147.72 879.14,-137.16 871.83,-144.83 878.21,-147.72"/>
</g>
<!-- Node20 -->
<g id="node20" class="node">
<title>Node20</title>
<g id="a_node20"><a xlink:href="lipschitz_8hpp.html" target="_top" xlink:title=" ">
<polygon fill="white" stroke="black" points="436.5,-118 436.5,-137 588.5,-137 588.5,-118 436.5,-118"/>
<text text-anchor="middle" x="512.5" y="-125" font-family="Helvetica,sans-Serif" font-size="10.00">panoc&#45;alm/util/lipschitz.hpp</text>
</a>
</g>
</g>
<!-- Node12&#45;&gt;Node20 -->
<g id="edge23" class="edge">
<title>Node12&#45;&gt;Node20</title>
<path fill="none" stroke="midnightblue" d="M812.7,-247.71C809.59,-247.12 806.51,-246.54 803.5,-246 697.78,-226.95 654.58,-268.53 564.5,-210 541.34,-194.95 526.47,-165.58 518.8,-146.52"/>
<polygon fill="midnightblue" stroke="midnightblue" points="522.07,-145.27 515.28,-137.14 515.52,-147.73 522.07,-145.27"/>
</g>
<!-- Node21 -->
<g id="node21" class="node">
<title>Node21</title>
<g id="a_node21"><a xlink:href="include_2panoc-alm_2util_2problem_8hpp.html" target="_top" xlink:title=" ">
<polygon fill="white" stroke="black" points="1083.5,-185 1083.5,-204 1235.5,-204 1235.5,-185 1083.5,-185"/>
<text text-anchor="middle" x="1159.5" y="-192" font-family="Helvetica,sans-Serif" font-size="10.00">panoc&#45;alm/util/problem.hpp</text>
</a>
</g>
</g>
<!-- Node12&#45;&gt;Node21 -->
<g id="edge25" class="edge">
<title>Node12&#45;&gt;Node21</title>
<path fill="none" stroke="midnightblue" d="M932.32,-246.95C985.65,-234.87 1062.68,-217.43 1111.92,-206.28"/>
<polygon fill="midnightblue" stroke="midnightblue" points="1112.71,-209.69 1121.69,-204.06 1111.16,-202.86 1112.71,-209.69"/>
</g>
<!-- Node24 -->
<g id="node24" class="node">
<title>Node24</title>
<g id="a_node24"><a xlink:href="solverstatus_8hpp.html" target="_top" xlink:title=" ">
<polygon fill="white" stroke="black" points="1254,-185 1254,-204 1425,-204 1425,-185 1254,-185"/>
<text text-anchor="middle" x="1339.5" y="-192" font-family="Helvetica,sans-Serif" font-size="10.00">panoc&#45;alm/util/solverstatus.hpp</text>
</a>
</g>
</g>
<!-- Node12&#45;&gt;Node24 -->
<g id="edge30" class="edge">
<title>Node12&#45;&gt;Node24</title>
<path fill="none" stroke="midnightblue" d="M932.14,-252.71C1005.64,-243.04 1134.35,-225.88 1244.5,-210 1254.28,-208.59 1264.63,-207.05 1274.75,-205.53"/>
<polygon fill="midnightblue" stroke="midnightblue" points="1275.4,-208.97 1284.77,-204.01 1274.35,-202.05 1275.4,-208.97"/>
</g>
<!-- Node26 -->
<g id="node26" class="node">
<title>Node26</title>
<g id="a_node26"><a xlink:title=" ">
<polygon fill="white" stroke="#bfbfbf" points="573.5,-185 573.5,-204 617.5,-204 617.5,-185 573.5,-185"/>
<text text-anchor="middle" x="595.5" y="-192" font-family="Helvetica,sans-Serif" font-size="10.00">limits</text>
</a>
</g>
</g>
<!-- Node12&#45;&gt;Node26 -->
<g id="edge34" class="edge">
<title>Node12&#45;&gt;Node26</title>
<path fill="none" stroke="midnightblue" d="M812.67,-247.9C809.57,-247.26 806.5,-246.62 803.5,-246 724.89,-229.75 702.73,-235.18 626.5,-210 624.83,-209.45 623.14,-208.83 621.44,-208.17"/>
<polygon fill="midnightblue" stroke="midnightblue" points="622.5,-204.82 611.94,-204.07 619.73,-211.25 622.5,-204.82"/>
</g>
<!-- Node27 -->
<g id="node27" class="node">
<title>Node27</title>
<g id="a_node27"><a xlink:title=" ">
<polygon fill="white" stroke="#bfbfbf" points="635.5,-185 635.5,-204 679.5,-204 679.5,-185 635.5,-185"/>
<text text-anchor="middle" x="657.5" y="-192" font-family="Helvetica,sans-Serif" font-size="10.00">string</text>
</a>
</g>
</g>
<!-- Node12&#45;&gt;Node27 -->
<g id="edge35" class="edge">
<title>Node12&#45;&gt;Node27</title>
<path fill="none" stroke="midnightblue" d="M812.84,-246.55C776.71,-237.48 729.94,-224.64 689.5,-210 687.88,-209.41 686.23,-208.78 684.58,-208.12"/>
<polygon fill="midnightblue" stroke="midnightblue" points="685.81,-204.84 675.24,-204.13 683.06,-211.28 685.81,-204.84"/>
</g>
<!-- Node14&#45;&gt;Node7 -->
<g id="edge16" class="edge">
<title>Node14&#45;&gt;Node7</title>
<path fill="none" stroke="midnightblue" d="M397.65,-180.27C351.16,-169.99 286.46,-155.69 236.85,-144.72"/>
<polygon fill="midnightblue" stroke="midnightblue" points="237.34,-141.24 226.82,-142.5 235.83,-148.08 237.34,-141.24"/>
</g>
<!-- Node16 -->
<g id="node16" class="node">
<title>Node16</title>
<g id="a_node16"><a xlink:title=" ">
<polygon fill="white" stroke="#bfbfbf" points="1474,-118 1474,-137 1531,-137 1531,-118 1474,-118"/>
<text text-anchor="middle" x="1502.5" y="-125" font-family="Helvetica,sans-Serif" font-size="10.00">ostream</text>
</a>
</g>
</g>
<!-- Node15&#45;&gt;Node16 -->
<g id="edge18" class="edge">
<title>Node15&#45;&gt;Node16</title>
<path fill="none" stroke="midnightblue" d="M1502.5,-179.4C1502.5,-170.06 1502.5,-157.71 1502.5,-147.52"/>
<polygon fill="midnightblue" stroke="midnightblue" points="1506,-147.19 1502.5,-137.19 1499,-147.19 1506,-147.19"/>
</g>
<!-- Node15&#45;&gt;Node17 -->
<g id="edge19" class="edge">
<title>Node15&#45;&gt;Node17</title>
<path fill="none" stroke="midnightblue" d="M1521.59,-179.4C1536.08,-168.7 1555.93,-154.03 1570.61,-143.19"/>
<polygon fill="midnightblue" stroke="midnightblue" points="1573.02,-145.76 1578.98,-137.01 1568.86,-140.13 1573.02,-145.76"/>
</g>
<!-- Node18&#45;&gt;Node19 -->
<g id="edge22" class="edge">
<title>Node18&#45;&gt;Node19</title>
<path fill="none" stroke="midnightblue" d="M977.46,-179.4C956.87,-168.24 928.33,-152.78 908.12,-141.83"/>
<polygon fill="midnightblue" stroke="midnightblue" points="909.67,-138.69 899.21,-137.01 906.33,-144.85 909.67,-138.69"/>
</g>
<!-- Node20&#45;&gt;Node5 -->
<g id="edge24" class="edge">
<title>Node20&#45;&gt;Node5</title>
<path fill="none" stroke="midnightblue" d="M484.85,-117.98C451.31,-107.64 394.63,-90.16 357.13,-78.6"/>
<polygon fill="midnightblue" stroke="midnightblue" points="357.69,-75.11 347.1,-75.51 355.63,-81.8 357.69,-75.11"/>
</g>
<!-- Node21&#45;&gt;Node4 -->
<g id="edge26" class="edge">
<title>Node21&#45;&gt;Node4</title>
<path fill="none" stroke="midnightblue" d="M1115.08,-184.94C1102.05,-182.7 1087.74,-180.49 1074.5,-179 788.31,-146.73 714.21,-170.18 427.5,-143 414.29,-141.75 400.22,-140.09 386.74,-138.35"/>
<polygon fill="midnightblue" stroke="midnightblue" points="386.95,-134.85 376.58,-137.01 386.03,-141.79 386.95,-134.85"/>
</g>
<!-- Node21&#45;&gt;Node9 -->
<g id="edge29" class="edge">
<title>Node21&#45;&gt;Node9</title>
<path fill="none" stroke="midnightblue" d="M1138.25,-184.87C1110.56,-173.62 1061.94,-153.87 1030.23,-140.99"/>
<polygon fill="midnightblue" stroke="midnightblue" points="1031.16,-137.58 1020.58,-137.06 1028.53,-144.07 1031.16,-137.58"/>
</g>
<!-- Node22 -->
<g id="node22" class="node">
<title>Node22</title>
<g id="a_node22"><a xlink:title=" ">
<polygon fill="white" stroke="#bfbfbf" points="1127,-118 1127,-137 1192,-137 1192,-118 1127,-118"/>
<text text-anchor="middle" x="1159.5" y="-125" font-family="Helvetica,sans-Serif" font-size="10.00">functional</text>
</a>
</g>
</g>
<!-- Node21&#45;&gt;Node22 -->
<g id="edge27" class="edge">
<title>Node21&#45;&gt;Node22</title>
<path fill="none" stroke="midnightblue" d="M1159.5,-184.73C1159.5,-175.18 1159.5,-159.62 1159.5,-147.28"/>
<polygon fill="midnightblue" stroke="midnightblue" points="1163,-147.13 1159.5,-137.13 1156,-147.13 1163,-147.13"/>
</g>
<!-- Node21&#45;&gt;Node23 -->
<g id="edge28" class="edge">
<title>Node21&#45;&gt;Node23</title>
<path fill="none" stroke="midnightblue" d="M1172.31,-184.73C1187.98,-174.01 1214.72,-155.72 1233.43,-142.91"/>
<polygon fill="midnightblue" stroke="midnightblue" points="1235.61,-145.66 1241.89,-137.13 1231.66,-139.89 1235.61,-145.66"/>
</g>
<!-- Node25 -->
<g id="node25" class="node">
<title>Node25</title>
<g id="a_node25"><a xlink:title=" ">
<polygon fill="white" stroke="#bfbfbf" points="1315.5,-118 1315.5,-137 1363.5,-137 1363.5,-118 1315.5,-118"/>
<text text-anchor="middle" x="1339.5" y="-125" font-family="Helvetica,sans-Serif" font-size="10.00">iosfwd</text>
</a>
</g>
</g>
<!-- Node24&#45;&gt;Node25 -->
<g id="edge31" class="edge">
<title>Node24&#45;&gt;Node25</title>
<path fill="none" stroke="midnightblue" d="M1339.5,-184.73C1339.5,-175.18 1339.5,-159.62 1339.5,-147.28"/>
<polygon fill="midnightblue" stroke="midnightblue" points="1343,-147.13 1339.5,-137.13 1336,-147.13 1343,-147.13"/>
</g>
<!-- Node28&#45;&gt;Node15 -->
<g id="edge37" class="edge">
<title>Node28&#45;&gt;Node15</title>
<path fill="none" stroke="midnightblue" d="M1223.19,-247.77C1226.33,-247.17 1229.45,-246.57 1232.5,-246 1318.97,-229.71 1343.31,-227.64 1432.77,-210.3"/>
<polygon fill="midnightblue" stroke="midnightblue" points="1433.67,-213.69 1442.82,-208.34 1432.33,-206.82 1433.67,-213.69"/>
</g>
<!-- Node28&#45;&gt;Node17 -->
<g id="edge41" class="edge">
<title>Node28&#45;&gt;Node17</title>
<path fill="none" stroke="midnightblue" d="M1223.14,-247.51C1226.3,-246.97 1229.43,-246.47 1232.5,-246 1307.4,-234.61 1514.73,-260.17 1571.5,-210 1589.07,-194.47 1592.04,-166.12 1591.83,-147.3"/>
<polygon fill="midnightblue" stroke="midnightblue" points="1595.33,-147.09 1591.41,-137.24 1588.33,-147.38 1595.33,-147.09"/>
</g>
<!-- Node28&#45;&gt;Node18 -->
<g id="edge38" class="edge">
<title>Node28&#45;&gt;Node18</title>
<path fill="none" stroke="midnightblue" d="M1125.65,-246.4C1102.45,-236.73 1071.47,-223.82 1046.52,-213.43"/>
<polygon fill="midnightblue" stroke="midnightblue" points="1047.86,-210.19 1037.28,-209.58 1045.17,-216.65 1047.86,-210.19"/>
</g>
<!-- Node28&#45;&gt;Node21 -->
<g id="edge39" class="edge">
<title>Node28&#45;&gt;Node21</title>
<path fill="none" stroke="midnightblue" d="M1159.5,-246.4C1159.5,-237.06 1159.5,-224.71 1159.5,-214.52"/>
<polygon fill="midnightblue" stroke="midnightblue" points="1163,-214.19 1159.5,-204.19 1156,-214.19 1163,-214.19"/>
</g>
<!-- Node28&#45;&gt;Node24 -->
<g id="edge40" class="edge">
<title>Node28&#45;&gt;Node24</title>
<path fill="none" stroke="midnightblue" d="M1198.56,-246.4C1230.7,-234.79 1275.77,-218.51 1306.22,-207.52"/>
<polygon fill="midnightblue" stroke="midnightblue" points="1307.73,-210.7 1315.94,-204.01 1305.35,-204.11 1307.73,-210.7"/>
</g>
</g>
</svg>
