<?xml version="1.0" encoding="UTF-8" standalone="no"?>
<!DOCTYPE svg PUBLIC "-//W3C//DTD SVG 1.1//EN"
 "http://www.w3.org/Graphics/SVG/1.1/DTD/svg11.dtd">
<!-- Generated by graphviz version 2.43.0 (0)
 -->
<!-- Title: main.cpp Pages: 1 -->
<svg width="1822pt" height="464pt"
 viewBox="0.00 0.00 1822.00 464.00" xmlns="http://www.w3.org/2000/svg" xmlns:xlink="http://www.w3.org/1999/xlink">
<g id="graph0" class="graph" transform="scale(1 1) rotate(0) translate(4 460)">
<title>main.cpp</title>
<polygon fill="white" stroke="transparent" points="-4,4 -4,-460 1818,-460 1818,4 -4,4"/>
<!-- Node1 -->
<g id="node1" class="node">
<title>Node1</title>
<g id="a_node1"><a xlink:title=" ">
<polygon fill="#bfbfbf" stroke="black" points="651.5,-436.5 651.5,-455.5 713.5,-455.5 713.5,-436.5 651.5,-436.5"/>
<text text-anchor="middle" x="682.5" y="-443.5" font-family="Helvetica,sans-Serif" font-size="10.00">main.cpp</text>
</a>
</g>
</g>
<!-- Node2 -->
<g id="node2" class="node">
<title>Node2</title>
<g id="a_node2"><a xlink:href="alm_8hpp.html" target="_top" xlink:title=" ">
<polygon fill="white" stroke="black" points="564,-380.5 564,-399.5 675,-399.5 675,-380.5 564,-380.5"/>
<text text-anchor="middle" x="619.5" y="-387.5" font-family="Helvetica,sans-Serif" font-size="10.00">panoc&#45;alm/alm.hpp</text>
</a>
</g>
</g>
<!-- Node1&#45;&gt;Node2 -->
<g id="edge1" class="edge">
<title>Node1&#45;&gt;Node2</title>
<path fill="none" stroke="midnightblue" d="M672.38,-436.32C662.97,-428.26 648.76,-416.08 637.43,-406.37"/>
<polygon fill="midnightblue" stroke="midnightblue" points="639.68,-403.68 629.81,-399.83 635.12,-409 639.68,-403.68"/>
</g>
<!-- Node20 -->
<g id="node20" class="node">
<title>Node20</title>
<g id="a_node20"><a xlink:title=" ">
<polygon fill="white" stroke="#bfbfbf" points="780.5,-252 780.5,-271 840.5,-271 840.5,-252 780.5,-252"/>
<text text-anchor="middle" x="810.5" y="-259" font-family="Helvetica,sans-Serif" font-size="10.00">iostream</text>
</a>
</g>
</g>
<!-- Node1&#45;&gt;Node20 -->
<g id="edge61" class="edge">
<title>Node1&#45;&gt;Node20</title>
<path fill="none" stroke="midnightblue" d="M690.78,-436.29C706.62,-419.35 741.85,-380.47 766.5,-344 780.52,-323.26 793.76,-297.6 801.98,-280.68"/>
<polygon fill="midnightblue" stroke="midnightblue" points="805.27,-281.93 806.42,-271.39 798.95,-278.91 805.27,-281.93"/>
</g>
<!-- Node21 -->
<g id="node21" class="node">
<title>Node21</title>
<g id="a_node21"><a xlink:href="inner_2panoc_8hpp.html" target="_top" xlink:title=" ">
<polygon fill="white" stroke="black" points="855,-319 855,-338 1004,-338 1004,-319 855,-319"/>
<text text-anchor="middle" x="929.5" y="-326" font-family="Helvetica,sans-Serif" font-size="10.00">panoc&#45;alm/inner/panoc.hpp</text>
</a>
</g>
</g>
<!-- Node1&#45;&gt;Node21 -->
<g id="edge22" class="edge">
<title>Node1&#45;&gt;Node21</title>
<path fill="none" stroke="midnightblue" d="M713.66,-436.5C740.9,-428.58 781.19,-415.65 814.5,-400 849.34,-383.63 886.84,-359.22 909.23,-343.84"/>
<polygon fill="midnightblue" stroke="midnightblue" points="911.36,-346.62 917.58,-338.05 907.37,-340.88 911.36,-346.62"/>
</g>
<!-- Node34 -->
<g id="node34" class="node">
<title>Node34</title>
<g id="a_node34"><a xlink:href="lbfgs_8hpp.html" target="_top" xlink:title=" ">
<polygon fill="white" stroke="black" points="102,-313.5 102,-343.5 249,-343.5 249,-313.5 102,-313.5"/>
<text text-anchor="start" x="110" y="-331.5" font-family="Helvetica,sans-Serif" font-size="10.00">panoc&#45;alm/inner/directions</text>
<text text-anchor="middle" x="175.5" y="-320.5" font-family="Helvetica,sans-Serif" font-size="10.00">/lbfgs.hpp</text>
</a>
</g>
</g>
<!-- Node1&#45;&gt;Node34 -->
<g id="edge54" class="edge">
<title>Node1&#45;&gt;Node34</title>
<path fill="none" stroke="midnightblue" d="M651.17,-437.86C571.43,-419.7 359.19,-371.35 247.12,-345.82"/>
<polygon fill="midnightblue" stroke="midnightblue" points="247.79,-342.38 237.26,-343.57 246.23,-349.2 247.79,-342.38"/>
</g>
<!-- Node3 -->
<g id="node3" class="node">
<title>Node3</title>
<g id="a_node3"><a xlink:title=" ">
<polygon fill="white" stroke="#bfbfbf" points="203.5,-185 203.5,-204 253.5,-204 253.5,-185 203.5,-185"/>
<text text-anchor="middle" x="228.5" y="-192" font-family="Helvetica,sans-Serif" font-size="10.00">chrono</text>
</a>
</g>
</g>
<!-- Node2&#45;&gt;Node3 -->
<g id="edge2" class="edge">
<title>Node2&#45;&gt;Node3</title>
<path fill="none" stroke="midnightblue" d="M602.19,-380.44C540.38,-349.85 330.21,-245.84 255.3,-208.76"/>
<polygon fill="midnightblue" stroke="midnightblue" points="256.56,-205.48 246.05,-204.18 253.46,-211.76 256.56,-205.48"/>
</g>
<!-- Node4 -->
<g id="node4" class="node">
<title>Node4</title>
<g id="a_node4"><a xlink:href="alm-helpers_8hpp.html" target="_top" xlink:title=" ">
<polygon fill="white" stroke="black" points="603,-313.5 603,-343.5 724,-343.5 724,-313.5 603,-313.5"/>
<text text-anchor="start" x="611" y="-331.5" font-family="Helvetica,sans-Serif" font-size="10.00">panoc&#45;alm/detail/alm</text>
<text text-anchor="middle" x="663.5" y="-320.5" font-family="Helvetica,sans-Serif" font-size="10.00">&#45;helpers.hpp</text>
</a>
</g>
</g>
<!-- Node2&#45;&gt;Node4 -->
<g id="edge3" class="edge">
<title>Node2&#45;&gt;Node4</title>
<path fill="none" stroke="midnightblue" d="M625.8,-380.48C631.37,-372.94 639.74,-361.63 647.18,-351.57"/>
<polygon fill="midnightblue" stroke="midnightblue" points="650,-353.64 653.13,-343.52 644.37,-349.48 650,-353.64"/>
</g>
<!-- Node15 -->
<g id="node15" class="node">
<title>Node15</title>
<g id="a_node15"><a xlink:href="solverstatus_8hpp.html" target="_top" xlink:title=" ">
<polygon fill="white" stroke="black" points="667,-185 667,-204 838,-204 838,-185 667,-185"/>
<text text-anchor="middle" x="752.5" y="-192" font-family="Helvetica,sans-Serif" font-size="10.00">panoc&#45;alm/util/solverstatus.hpp</text>
</a>
</g>
</g>
<!-- Node2&#45;&gt;Node15 -->
<g id="edge19" class="edge">
<title>Node2&#45;&gt;Node15</title>
<path fill="none" stroke="midnightblue" d="M671.27,-380.42C693.45,-374.07 717.62,-363.06 732.5,-344 762.17,-306 759.36,-245.19 755.55,-214.52"/>
<polygon fill="midnightblue" stroke="midnightblue" points="758.98,-213.75 754.11,-204.34 752.05,-214.74 758.98,-213.75"/>
</g>
<!-- Node19 -->
<g id="node19" class="node">
<title>Node19</title>
<g id="a_node19"><a xlink:title=" ">
<polygon fill="white" stroke="#bfbfbf" points="478.5,-252 478.5,-271 534.5,-271 534.5,-252 478.5,-252"/>
<text text-anchor="middle" x="506.5" y="-259" font-family="Helvetica,sans-Serif" font-size="10.00">iomanip</text>
</a>
</g>
</g>
<!-- Node2&#45;&gt;Node19 -->
<g id="edge20" class="edge">
<title>Node2&#45;&gt;Node19</title>
<path fill="none" stroke="midnightblue" d="M605.81,-380.48C593.14,-372.17 574.23,-358.67 560.5,-344 541.98,-324.21 525.56,-297.4 515.82,-280.03"/>
<polygon fill="midnightblue" stroke="midnightblue" points="518.76,-278.11 510.89,-271.02 512.62,-281.47 518.76,-278.11"/>
</g>
<!-- Node2&#45;&gt;Node20 -->
<g id="edge21" class="edge">
<title>Node2&#45;&gt;Node20</title>
<path fill="none" stroke="midnightblue" d="M611.52,-380.11C598.86,-364.89 577.2,-333.53 593.5,-313 599.04,-306.02 709.12,-282.91 770.31,-270.52"/>
<polygon fill="midnightblue" stroke="midnightblue" points="771.3,-273.89 780.41,-268.48 769.91,-267.02 771.3,-273.89"/>
</g>
<!-- Node5 -->
<g id="node5" class="node">
<title>Node5</title>
<g id="a_node5"><a xlink:href="decl_2alm_8hpp.html" target="_top" xlink:title=" ">
<polygon fill="white" stroke="black" points="590.5,-252 590.5,-271 724.5,-271 724.5,-252 590.5,-252"/>
<text text-anchor="middle" x="657.5" y="-259" font-family="Helvetica,sans-Serif" font-size="10.00">panoc&#45;alm/decl/alm.hpp</text>
</a>
</g>
</g>
<!-- Node4&#45;&gt;Node5 -->
<g id="edge4" class="edge">
<title>Node4&#45;&gt;Node5</title>
<path fill="none" stroke="midnightblue" d="M662.2,-313.4C661.33,-303.96 660.17,-291.45 659.23,-281.19"/>
<polygon fill="midnightblue" stroke="midnightblue" points="662.71,-280.83 658.3,-271.19 655.74,-281.47 662.71,-280.83"/>
</g>
<!-- Node18 -->
<g id="node18" class="node">
<title>Node18</title>
<g id="a_node18"><a xlink:title=" ">
<polygon fill="white" stroke="#bfbfbf" points="1579,-118 1579,-137 1644,-137 1644,-118 1579,-118"/>
<text text-anchor="middle" x="1611.5" y="-125" font-family="Helvetica,sans-Serif" font-size="10.00">stdexcept</text>
</a>
</g>
</g>
<!-- Node4&#45;&gt;Node18 -->
<g id="edge18" class="edge">
<title>Node4&#45;&gt;Node18</title>
<path fill="none" stroke="midnightblue" d="M724.08,-322.69C759.72,-319.86 805.67,-316.22 846.5,-313 1014.65,-299.73 1483.22,-333.13 1598.5,-210 1614.15,-193.28 1615.33,-165.67 1614,-147.29"/>
<polygon fill="midnightblue" stroke="midnightblue" points="1617.47,-146.8 1612.96,-137.21 1610.51,-147.52 1617.47,-146.8"/>
</g>
<!-- Node5&#45;&gt;Node3 -->
<g id="edge16" class="edge">
<title>Node5&#45;&gt;Node3</title>
<path fill="none" stroke="midnightblue" d="M612.6,-251.94C600.87,-249.85 588.23,-247.72 576.5,-246 437.52,-225.61 398.3,-245.93 262.5,-210 260.14,-209.38 257.74,-208.62 255.35,-207.78"/>
<polygon fill="midnightblue" stroke="midnightblue" points="256.39,-204.43 245.8,-204.02 253.83,-210.94 256.39,-204.43"/>
</g>
<!-- Node6 -->
<g id="node6" class="node">
<title>Node6</title>
<g id="a_node6"><a xlink:href="panoc-fwd_8hpp.html" target="_top" xlink:title=" ">
<polygon fill="white" stroke="black" points="467,-179.5 467,-209.5 586,-209.5 586,-179.5 467,-179.5"/>
<text text-anchor="start" x="475" y="-197.5" font-family="Helvetica,sans-Serif" font-size="10.00">panoc&#45;alm/inner/decl</text>
<text text-anchor="middle" x="526.5" y="-186.5" font-family="Helvetica,sans-Serif" font-size="10.00">/panoc&#45;fwd.hpp</text>
</a>
</g>
</g>
<!-- Node5&#45;&gt;Node6 -->
<g id="edge5" class="edge">
<title>Node5&#45;&gt;Node6</title>
<path fill="none" stroke="midnightblue" d="M640.1,-251.87C620.85,-242.31 589.23,-226.63 564.24,-214.22"/>
<polygon fill="midnightblue" stroke="midnightblue" points="565.53,-210.96 555.02,-209.65 562.42,-217.23 565.53,-210.96"/>
</g>
<!-- Node8 -->
<g id="node8" class="node">
<title>Node8</title>
<g id="a_node8"><a xlink:href="include_2panoc-alm_2util_2problem_8hpp.html" target="_top" xlink:title=" ">
<polygon fill="white" stroke="black" points="856.5,-185 856.5,-204 1008.5,-204 1008.5,-185 856.5,-185"/>
<text text-anchor="middle" x="932.5" y="-192" font-family="Helvetica,sans-Serif" font-size="10.00">panoc&#45;alm/util/problem.hpp</text>
</a>
</g>
</g>
<!-- Node5&#45;&gt;Node8 -->
<g id="edge7" class="edge">
<title>Node5&#45;&gt;Node8</title>
<path fill="none" stroke="midnightblue" d="M693.73,-251.94C743.2,-240.24 831.89,-219.28 886.15,-206.46"/>
<polygon fill="midnightblue" stroke="midnightblue" points="887.26,-209.79 896.19,-204.08 885.65,-202.98 887.26,-209.79"/>
</g>
<!-- Node5&#45;&gt;Node15 -->
<g id="edge14" class="edge">
<title>Node5&#45;&gt;Node15</title>
<path fill="none" stroke="midnightblue" d="M670.31,-251.73C685.98,-241.01 712.72,-222.72 731.43,-209.91"/>
<polygon fill="midnightblue" stroke="midnightblue" points="733.61,-212.66 739.89,-204.13 729.66,-206.89 733.61,-212.66"/>
</g>
<!-- Node17 -->
<g id="node17" class="node">
<title>Node17</title>
<g id="a_node17"><a xlink:title=" ">
<polygon fill="white" stroke="#bfbfbf" points="604.5,-185 604.5,-204 648.5,-204 648.5,-185 604.5,-185"/>
<text text-anchor="middle" x="626.5" y="-192" font-family="Helvetica,sans-Serif" font-size="10.00">string</text>
</a>
</g>
</g>
<!-- Node5&#45;&gt;Node17 -->
<g id="edge17" class="edge">
<title>Node5&#45;&gt;Node17</title>
<path fill="none" stroke="midnightblue" d="M653.32,-251.73C648.62,-241.89 640.88,-225.66 634.92,-213.16"/>
<polygon fill="midnightblue" stroke="midnightblue" points="638.08,-211.65 630.61,-204.13 631.76,-214.66 638.08,-211.65"/>
</g>
<!-- Node7 -->
<g id="node7" class="node">
<title>Node7</title>
<g id="a_node7"><a xlink:href="lbfgs-fwd_8hpp.html" target="_top" xlink:title=" ">
<polygon fill="white" stroke="black" points="129,-112.5 129,-142.5 276,-142.5 276,-112.5 129,-112.5"/>
<text text-anchor="start" x="137" y="-130.5" font-family="Helvetica,sans-Serif" font-size="10.00">panoc&#45;alm/inner/directions</text>
<text text-anchor="middle" x="202.5" y="-119.5" font-family="Helvetica,sans-Serif" font-size="10.00">/decl/lbfgs&#45;fwd.hpp</text>
</a>
</g>
</g>
<!-- Node6&#45;&gt;Node7 -->
<g id="edge6" class="edge">
<title>Node6&#45;&gt;Node7</title>
<path fill="none" stroke="midnightblue" d="M466.67,-180.88C463.57,-180.24 460.5,-179.61 457.5,-179 399.79,-167.22 334.65,-154.33 284.65,-144.52"/>
<polygon fill="midnightblue" stroke="midnightblue" points="285.03,-141.02 274.54,-142.53 283.68,-147.89 285.03,-141.02"/>
</g>
<!-- Node9 -->
<g id="node9" class="node">
<title>Node9</title>
<g id="a_node9"><a xlink:href="box_8hpp.html" target="_top" xlink:title=" ">
<polygon fill="white" stroke="black" points="332.5,-118 332.5,-137 388.5,-137 388.5,-118 332.5,-118"/>
<text text-anchor="middle" x="360.5" y="-125" font-family="Helvetica,sans-Serif" font-size="10.00">box.hpp</text>
</a>
</g>
</g>
<!-- Node8&#45;&gt;Node9 -->
<g id="edge8" class="edge">
<title>Node8&#45;&gt;Node9</title>
<path fill="none" stroke="midnightblue" d="M885.82,-184.97C873.39,-182.85 859.96,-180.71 847.5,-179 760.66,-167.1 497.67,-141.6 398.71,-132.13"/>
<polygon fill="midnightblue" stroke="midnightblue" points="398.85,-128.63 388.56,-131.16 398.18,-135.6 398.85,-128.63"/>
</g>
<!-- Node12 -->
<g id="node12" class="node">
<title>Node12</title>
<g id="a_node12"><a xlink:title=" ">
<polygon fill="white" stroke="#bfbfbf" points="810,-118 810,-137 875,-137 875,-118 810,-118"/>
<text text-anchor="middle" x="842.5" y="-125" font-family="Helvetica,sans-Serif" font-size="10.00">functional</text>
</a>
</g>
</g>
<!-- Node8&#45;&gt;Node12 -->
<g id="edge11" class="edge">
<title>Node8&#45;&gt;Node12</title>
<path fill="none" stroke="midnightblue" d="M920.36,-184.73C905.65,-174.11 880.64,-156.05 862.94,-143.26"/>
<polygon fill="midnightblue" stroke="midnightblue" points="864.6,-140.14 854.45,-137.13 860.5,-145.82 864.6,-140.14"/>
</g>
<!-- Node13 -->
<g id="node13" class="node">
<title>Node13</title>
<g id="a_node13"><a xlink:title=" ">
<polygon fill="white" stroke="#bfbfbf" points="893.5,-118 893.5,-137 951.5,-137 951.5,-118 893.5,-118"/>
<text text-anchor="middle" x="922.5" y="-125" font-family="Helvetica,sans-Serif" font-size="10.00">memory</text>
</a>
</g>
</g>
<!-- Node8&#45;&gt;Node13 -->
<g id="edge12" class="edge">
<title>Node8&#45;&gt;Node13</title>
<path fill="none" stroke="midnightblue" d="M931.15,-184.73C929.68,-175.18 927.29,-159.62 925.39,-147.28"/>
<polygon fill="midnightblue" stroke="midnightblue" points="928.81,-146.48 923.83,-137.13 921.89,-147.54 928.81,-146.48"/>
</g>
<!-- Node14 -->
<g id="node14" class="node">
<title>Node14</title>
<g id="a_node14"><a xlink:title=" ">
<polygon fill="white" stroke="#bfbfbf" points="524,-118 524,-137 593,-137 593,-118 524,-118"/>
<text text-anchor="middle" x="558.5" y="-125" font-family="Helvetica,sans-Serif" font-size="10.00">type_traits</text>
</a>
</g>
</g>
<!-- Node8&#45;&gt;Node14 -->
<g id="edge13" class="edge">
<title>Node8&#45;&gt;Node14</title>
<path fill="none" stroke="midnightblue" d="M883.22,-184.94C809.96,-172.2 673.42,-148.47 603.02,-136.24"/>
<polygon fill="midnightblue" stroke="midnightblue" points="603.58,-132.78 593.13,-134.52 602.38,-139.68 603.58,-132.78"/>
</g>
<!-- Node10 -->
<g id="node10" class="node">
<title>Node10</title>
<g id="a_node10"><a xlink:href="vec_8hpp.html" target="_top" xlink:title=" ">
<polygon fill="white" stroke="black" points="333,-56.5 333,-75.5 388,-75.5 388,-56.5 333,-56.5"/>
<text text-anchor="middle" x="360.5" y="-63.5" font-family="Helvetica,sans-Serif" font-size="10.00">vec.hpp</text>
</a>
</g>
</g>
<!-- Node9&#45;&gt;Node10 -->
<g id="edge9" class="edge">
<title>Node9&#45;&gt;Node10</title>
<path fill="none" stroke="midnightblue" d="M360.5,-117.98C360.5,-109.58 360.5,-96.48 360.5,-85.66"/>
<polygon fill="midnightblue" stroke="midnightblue" points="364,-85.51 360.5,-75.51 357,-85.51 364,-85.51"/>
</g>
<!-- Node11 -->
<g id="node11" class="node">
<title>Node11</title>
<g id="a_node11"><a xlink:title=" ">
<polygon fill="white" stroke="#bfbfbf" points="326,-0.5 326,-19.5 395,-19.5 395,-0.5 326,-0.5"/>
<text text-anchor="middle" x="360.5" y="-7.5" font-family="Helvetica,sans-Serif" font-size="10.00">Eigen/Core</text>
</a>
</g>
</g>
<!-- Node10&#45;&gt;Node11 -->
<g id="edge10" class="edge">
<title>Node10&#45;&gt;Node11</title>
<path fill="none" stroke="midnightblue" d="M360.5,-56.08C360.5,-49.01 360.5,-38.86 360.5,-29.99"/>
<polygon fill="midnightblue" stroke="midnightblue" points="364,-29.75 360.5,-19.75 357,-29.75 364,-29.75"/>
</g>
<!-- Node16 -->
<g id="node16" class="node">
<title>Node16</title>
<g id="a_node16"><a xlink:title=" ">
<polygon fill="white" stroke="#bfbfbf" points="728.5,-118 728.5,-137 776.5,-137 776.5,-118 728.5,-118"/>
<text text-anchor="middle" x="752.5" y="-125" font-family="Helvetica,sans-Serif" font-size="10.00">iosfwd</text>
</a>
</g>
</g>
<!-- Node15&#45;&gt;Node16 -->
<g id="edge15" class="edge">
<title>Node15&#45;&gt;Node16</title>
<path fill="none" stroke="midnightblue" d="M752.5,-184.73C752.5,-175.18 752.5,-159.62 752.5,-147.28"/>
<polygon fill="midnightblue" stroke="midnightblue" points="756,-147.13 752.5,-137.13 749,-147.13 756,-147.13"/>
</g>
<!-- Node21&#45;&gt;Node3 -->
<g id="edge23" class="edge">
<title>Node21&#45;&gt;Node3</title>
<path fill="none" stroke="midnightblue" d="M854.92,-321.37C767.69,-313.39 629.14,-297.95 581.5,-277 561.55,-268.23 563.53,-254.61 543.5,-246 427.82,-196.29 384.01,-243.01 262.5,-210 260.2,-209.38 257.85,-208.63 255.52,-207.8"/>
<polygon fill="midnightblue" stroke="midnightblue" points="256.76,-204.53 246.17,-204.13 254.19,-211.04 256.76,-204.53"/>
</g>
<!-- Node21&#45;&gt;Node18 -->
<g id="edge53" class="edge">
<title>Node21&#45;&gt;Node18</title>
<path fill="none" stroke="midnightblue" d="M1004.18,-327.84C1178.65,-327.87 1601.52,-323.12 1644.5,-277 1674.19,-245.14 1656.93,-220.74 1644.5,-179 1640.79,-166.52 1632.9,-154.26 1625.77,-144.94"/>
<polygon fill="midnightblue" stroke="midnightblue" points="1628.34,-142.56 1619.32,-137 1622.91,-146.97 1628.34,-142.56"/>
</g>
<!-- Node21&#45;&gt;Node19 -->
<g id="edge51" class="edge">
<title>Node21&#45;&gt;Node19</title>
<path fill="none" stroke="midnightblue" d="M854.95,-322.07C777.56,-315.4 653.37,-301.79 548.5,-277 545.09,-276.19 541.58,-275.22 538.09,-274.16"/>
<polygon fill="midnightblue" stroke="midnightblue" points="539.08,-270.8 528.49,-271.02 536.91,-277.45 539.08,-270.8"/>
</g>
<!-- Node21&#45;&gt;Node20 -->
<g id="edge52" class="edge">
<title>Node21&#45;&gt;Node20</title>
<path fill="none" stroke="midnightblue" d="M913.45,-318.73C893.38,-307.77 858.8,-288.88 835.31,-276.05"/>
<polygon fill="midnightblue" stroke="midnightblue" points="836.75,-272.85 826.29,-271.13 833.39,-278.99 836.75,-272.85"/>
</g>
<!-- Node22 -->
<g id="node22" class="node">
<title>Node22</title>
<g id="a_node22"><a xlink:href="inner_2decl_2panoc_8hpp.html" target="_top" xlink:title=" ">
<polygon fill="white" stroke="black" points="897,-246.5 897,-276.5 1016,-276.5 1016,-246.5 897,-246.5"/>
<text text-anchor="start" x="905" y="-264.5" font-family="Helvetica,sans-Serif" font-size="10.00">panoc&#45;alm/inner/decl</text>
<text text-anchor="middle" x="956.5" y="-253.5" font-family="Helvetica,sans-Serif" font-size="10.00">/panoc.hpp</text>
</a>
</g>
</g>
<!-- Node21&#45;&gt;Node22 -->
<g id="edge24" class="edge">
<title>Node21&#45;&gt;Node22</title>
<path fill="none" stroke="midnightblue" d="M933.14,-318.73C936.61,-310.37 942,-297.4 946.73,-286.02"/>
<polygon fill="midnightblue" stroke="midnightblue" points="950.04,-287.17 950.65,-276.59 943.58,-284.48 950.04,-287.17"/>
</g>
<!-- Node26 -->
<g id="node26" class="node">
<title>Node26</title>
<g id="a_node26"><a xlink:href="panoc-direction-update_8hpp.html" target="_top" xlink:title=" ">
<polygon fill="white" stroke="black" points="272,-179.5 272,-209.5 449,-209.5 449,-179.5 272,-179.5"/>
<text text-anchor="start" x="280" y="-197.5" font-family="Helvetica,sans-Serif" font-size="10.00">panoc&#45;alm/inner/directions</text>
<text text-anchor="middle" x="360.5" y="-186.5" font-family="Helvetica,sans-Serif" font-size="10.00">/decl/panoc&#45;direction&#45;update.hpp</text>
</a>
</g>
</g>
<!-- Node21&#45;&gt;Node26 -->
<g id="edge48" class="edge">
<title>Node21&#45;&gt;Node26</title>
<path fill="none" stroke="midnightblue" d="M922.26,-318.73C906.16,-299.46 867.41,-254.5 849.5,-246 773.17,-209.77 559.63,-219.71 459.24,-210.05"/>
<polygon fill="midnightblue" stroke="midnightblue" points="459.34,-206.54 449.02,-208.94 458.59,-213.5 459.34,-206.54"/>
</g>
<!-- Node31 -->
<g id="node31" class="node">
<title>Node31</title>
<g id="a_node31"><a xlink:href="panoc-helpers_8hpp.html" target="_top" xlink:title=" ">
<polygon fill="white" stroke="black" points="1168,-246.5 1168,-276.5 1295,-276.5 1295,-246.5 1168,-246.5"/>
<text text-anchor="start" x="1176" y="-264.5" font-family="Helvetica,sans-Serif" font-size="10.00">panoc&#45;alm/inner/detail</text>
<text text-anchor="middle" x="1231.5" y="-253.5" font-family="Helvetica,sans-Serif" font-size="10.00">/panoc&#45;helpers.hpp</text>
</a>
</g>
</g>
<!-- Node21&#45;&gt;Node31 -->
<g id="edge42" class="edge">
<title>Node21&#45;&gt;Node31</title>
<path fill="none" stroke="midnightblue" d="M969.29,-318.94C1017.14,-308.64 1098.41,-291.15 1157.81,-278.36"/>
<polygon fill="midnightblue" stroke="midnightblue" points="1158.85,-281.72 1167.89,-276.19 1157.38,-274.87 1158.85,-281.72"/>
</g>
<!-- Node32 -->
<g id="node32" class="node">
<title>Node32</title>
<g id="a_node32"><a xlink:title=" ">
<polygon fill="white" stroke="#bfbfbf" points="1696.5,-252 1696.5,-271 1748.5,-271 1748.5,-252 1696.5,-252"/>
<text text-anchor="middle" x="1722.5" y="-259" font-family="Helvetica,sans-Serif" font-size="10.00">cassert</text>
</a>
</g>
</g>
<!-- Node21&#45;&gt;Node32 -->
<g id="edge49" class="edge">
<title>Node21&#45;&gt;Node32</title>
<path fill="none" stroke="midnightblue" d="M1004.04,-325.16C1167.78,-319.59 1554.44,-303.94 1682.5,-277 1685.93,-276.28 1689.46,-275.33 1692.94,-274.25"/>
<polygon fill="midnightblue" stroke="midnightblue" points="1694.14,-277.54 1702.47,-271.01 1691.88,-270.92 1694.14,-277.54"/>
</g>
<!-- Node33 -->
<g id="node33" class="node">
<title>Node33</title>
<g id="a_node33"><a xlink:title=" ">
<polygon fill="white" stroke="#bfbfbf" points="1767,-252 1767,-271 1814,-271 1814,-252 1767,-252"/>
<text text-anchor="middle" x="1790.5" y="-259" font-family="Helvetica,sans-Serif" font-size="10.00">cmath</text>
</a>
</g>
</g>
<!-- Node21&#45;&gt;Node33 -->
<g id="edge50" class="edge">
<title>Node21&#45;&gt;Node33</title>
<path fill="none" stroke="midnightblue" d="M1004.3,-326.3C1180.18,-322.93 1615.77,-311.3 1757.5,-277 1759.86,-276.43 1762.26,-275.7 1764.64,-274.87"/>
<polygon fill="midnightblue" stroke="midnightblue" points="1766.14,-278.04 1774.11,-271.06 1763.53,-271.54 1766.14,-278.04"/>
</g>
<!-- Node22&#45;&gt;Node3 -->
<g id="edge39" class="edge">
<title>Node22&#45;&gt;Node3</title>
<path fill="none" stroke="midnightblue" d="M896.88,-251.63C881.48,-249.56 864.89,-247.51 849.5,-246 589.37,-220.43 516.87,-270.14 262.5,-210 259.99,-209.41 257.42,-208.64 254.89,-207.77"/>
<polygon fill="midnightblue" stroke="midnightblue" points="256,-204.45 245.41,-204.06 253.44,-210.96 256,-204.45"/>
</g>
<!-- Node22&#45;&gt;Node6 -->
<g id="edge26" class="edge">
<title>Node22&#45;&gt;Node6</title>
<path fill="none" stroke="midnightblue" d="M896.79,-248.43C891.96,-247.57 887.15,-246.75 882.5,-246 758.79,-226.15 724.04,-230.97 596.45,-210.06"/>
<polygon fill="midnightblue" stroke="midnightblue" points="596.72,-206.56 586.28,-208.38 595.57,-213.47 596.72,-206.56"/>
</g>
<!-- Node22&#45;&gt;Node8 -->
<g id="edge36" class="edge">
<title>Node22&#45;&gt;Node8</title>
<path fill="none" stroke="midnightblue" d="M951.29,-246.4C947.77,-236.86 943.09,-224.18 939.28,-213.86"/>
<polygon fill="midnightblue" stroke="midnightblue" points="942.46,-212.36 935.71,-204.19 935.89,-214.79 942.46,-212.36"/>
</g>
<!-- Node22&#45;&gt;Node15 -->
<g id="edge37" class="edge">
<title>Node22&#45;&gt;Node15</title>
<path fill="none" stroke="midnightblue" d="M912.49,-246.48C875.6,-234.72 823.57,-218.14 788.97,-207.12"/>
<polygon fill="midnightblue" stroke="midnightblue" points="789.86,-203.73 779.27,-204.03 787.73,-210.4 789.86,-203.73"/>
</g>
<!-- Node22&#45;&gt;Node17 -->
<g id="edge41" class="edge">
<title>Node22&#45;&gt;Node17</title>
<path fill="none" stroke="midnightblue" d="M896.76,-248.61C891.94,-247.71 887.14,-246.83 882.5,-246 782.79,-228.26 754.31,-239.74 657.5,-210 655.63,-209.42 653.72,-208.76 651.82,-208.03"/>
<polygon fill="midnightblue" stroke="midnightblue" points="653.14,-204.79 642.57,-204.05 650.38,-211.22 653.14,-204.79"/>
</g>
<!-- Node23 -->
<g id="node23" class="node">
<title>Node23</title>
<g id="a_node23"><a xlink:href="lbfgs-stepsize_8hpp.html" target="_top" xlink:title=" ">
<polygon fill="white" stroke="black" points="1103,-179.5 1103,-209.5 1222,-209.5 1222,-179.5 1103,-179.5"/>
<text text-anchor="start" x="1111" y="-197.5" font-family="Helvetica,sans-Serif" font-size="10.00">panoc&#45;alm/inner/decl</text>
<text text-anchor="middle" x="1162.5" y="-186.5" font-family="Helvetica,sans-Serif" font-size="10.00">/lbfgs&#45;stepsize.hpp</text>
</a>
</g>
</g>
<!-- Node22&#45;&gt;Node23 -->
<g id="edge25" class="edge">
<title>Node22&#45;&gt;Node23</title>
<path fill="none" stroke="midnightblue" d="M1000.95,-246.48C1032.38,-236.56 1074.71,-223.2 1108.15,-212.65"/>
<polygon fill="midnightblue" stroke="midnightblue" points="1109.3,-215.96 1117.78,-209.61 1107.19,-209.28 1109.3,-215.96"/>
</g>
<!-- Node24 -->
<g id="node24" class="node">
<title>Node24</title>
<g id="a_node24"><a xlink:href="panoc-stop-crit_8hpp.html" target="_top" xlink:title=" ">
<polygon fill="white" stroke="black" points="1445,-179.5 1445,-209.5 1564,-209.5 1564,-179.5 1445,-179.5"/>
<text text-anchor="start" x="1453" y="-197.5" font-family="Helvetica,sans-Serif" font-size="10.00">panoc&#45;alm/inner/decl</text>
<text text-anchor="middle" x="1504.5" y="-186.5" font-family="Helvetica,sans-Serif" font-size="10.00">/panoc&#45;stop&#45;crit.hpp</text>
</a>
</g>
</g>
<!-- Node22&#45;&gt;Node24 -->
<g id="edge27" class="edge">
<title>Node22&#45;&gt;Node24</title>
<path fill="none" stroke="midnightblue" d="M1016.12,-256.18C1105.02,-249.31 1277.74,-234.29 1434.43,-210.06"/>
<polygon fill="midnightblue" stroke="midnightblue" points="1435.39,-213.45 1444.73,-208.45 1434.31,-206.54 1435.39,-213.45"/>
</g>
<!-- Node22&#45;&gt;Node26 -->
<g id="edge30" class="edge">
<title>Node22&#45;&gt;Node26</title>
<path fill="none" stroke="midnightblue" d="M896.82,-248.23C891.99,-247.41 887.17,-246.65 882.5,-246 697.97,-220.18 647.5,-231.62 458.98,-210.12"/>
<polygon fill="midnightblue" stroke="midnightblue" points="459.35,-206.64 449.02,-208.97 458.55,-213.6 459.35,-206.64"/>
</g>
<!-- Node27 -->
<g id="node27" class="node">
<title>Node27</title>
<g id="a_node27"><a xlink:href="atomic__stop__signal_8hpp.html" target="_top" xlink:title=" ">
<polygon fill="white" stroke="black" points="1302.5,-179.5 1302.5,-209.5 1426.5,-209.5 1426.5,-179.5 1302.5,-179.5"/>
<text text-anchor="start" x="1310.5" y="-197.5" font-family="Helvetica,sans-Serif" font-size="10.00">panoc&#45;alm/util/atomic</text>
<text text-anchor="middle" x="1364.5" y="-186.5" font-family="Helvetica,sans-Serif" font-size="10.00">_stop_signal.hpp</text>
</a>
</g>
</g>
<!-- Node22&#45;&gt;Node27 -->
<g id="edge32" class="edge">
<title>Node22&#45;&gt;Node27</title>
<path fill="none" stroke="midnightblue" d="M1016.01,-252.55C1081.36,-243.6 1189.62,-228.14 1292.28,-210.16"/>
<polygon fill="midnightblue" stroke="midnightblue" points="1292.96,-213.6 1302.2,-208.42 1291.74,-206.71 1292.96,-213.6"/>
</g>
<!-- Node28 -->
<g id="node28" class="node">
<title>Node28</title>
<g id="a_node28"><a xlink:title=" ">
<polygon fill="white" stroke="#bfbfbf" points="1239.5,-118 1239.5,-137 1289.5,-137 1289.5,-118 1239.5,-118"/>
<text text-anchor="middle" x="1264.5" y="-125" font-family="Helvetica,sans-Serif" font-size="10.00">atomic</text>
</a>
</g>
</g>
<!-- Node22&#45;&gt;Node28 -->
<g id="edge38" class="edge">
<title>Node22&#45;&gt;Node28</title>
<path fill="none" stroke="midnightblue" d="M979.73,-246.36C1015.89,-224.41 1082.7,-184.14 1094.5,-179 1139.58,-159.35 1194.59,-144.56 1229.59,-136.22"/>
<polygon fill="midnightblue" stroke="midnightblue" points="1230.4,-139.62 1239.34,-133.93 1228.8,-132.8 1230.4,-139.62"/>
</g>
<!-- Node29 -->
<g id="node29" class="node">
<title>Node29</title>
<g id="a_node29"><a xlink:href="lipschitz_8hpp.html" target="_top" xlink:title=" ">
<polygon fill="white" stroke="black" points="969.5,-118 969.5,-137 1121.5,-137 1121.5,-118 969.5,-118"/>
<text text-anchor="middle" x="1045.5" y="-125" font-family="Helvetica,sans-Serif" font-size="10.00">panoc&#45;alm/util/lipschitz.hpp</text>
</a>
</g>
</g>
<!-- Node22&#45;&gt;Node29 -->
<g id="edge34" class="edge">
<title>Node22&#45;&gt;Node29</title>
<path fill="none" stroke="midnightblue" d="M979.19,-246.32C992,-237.3 1007.41,-224.59 1017.5,-210 1030.83,-190.72 1038.33,-164.51 1042.15,-147.08"/>
<polygon fill="midnightblue" stroke="midnightblue" points="1045.62,-147.54 1044.15,-137.05 1038.76,-146.17 1045.62,-147.54"/>
</g>
<!-- Node30 -->
<g id="node30" class="node">
<title>Node30</title>
<g id="a_node30"><a xlink:title=" ">
<polygon fill="white" stroke="#bfbfbf" points="1240.5,-185 1240.5,-204 1284.5,-204 1284.5,-185 1240.5,-185"/>
<text text-anchor="middle" x="1262.5" y="-192" font-family="Helvetica,sans-Serif" font-size="10.00">limits</text>
</a>
</g>
</g>
<!-- Node22&#45;&gt;Node30 -->
<g id="edge40" class="edge">
<title>Node22&#45;&gt;Node30</title>
<path fill="none" stroke="midnightblue" d="M1016.04,-254.03C1072.48,-246.86 1159.14,-233.14 1231.5,-210 1233.17,-209.46 1234.87,-208.86 1236.57,-208.21"/>
<polygon fill="midnightblue" stroke="midnightblue" points="1238.27,-211.29 1246.08,-204.13 1235.51,-204.85 1238.27,-211.29"/>
</g>
<!-- Node24&#45;&gt;Node18 -->
<g id="edge29" class="edge">
<title>Node24&#45;&gt;Node18</title>
<path fill="none" stroke="midnightblue" d="M1527.72,-179.4C1545.83,-168.39 1570.84,-153.2 1588.81,-142.28"/>
<polygon fill="midnightblue" stroke="midnightblue" points="1590.77,-145.19 1597.5,-137.01 1587.13,-139.21 1590.77,-145.19"/>
</g>
<!-- Node25 -->
<g id="node25" class="node">
<title>Node25</title>
<g id="a_node25"><a xlink:title=" ">
<polygon fill="white" stroke="#bfbfbf" points="1476,-118 1476,-137 1533,-137 1533,-118 1476,-118"/>
<text text-anchor="middle" x="1504.5" y="-125" font-family="Helvetica,sans-Serif" font-size="10.00">ostream</text>
</a>
</g>
</g>
<!-- Node24&#45;&gt;Node25 -->
<g id="edge28" class="edge">
<title>Node24&#45;&gt;Node25</title>
<path fill="none" stroke="midnightblue" d="M1504.5,-179.4C1504.5,-170.06 1504.5,-157.71 1504.5,-147.52"/>
<polygon fill="midnightblue" stroke="midnightblue" points="1508,-147.19 1504.5,-137.19 1501,-147.19 1508,-147.19"/>
</g>
<!-- Node26&#45;&gt;Node9 -->
<g id="edge31" class="edge">
<title>Node26&#45;&gt;Node9</title>
<path fill="none" stroke="midnightblue" d="M360.5,-179.4C360.5,-170.06 360.5,-157.71 360.5,-147.52"/>
<polygon fill="midnightblue" stroke="midnightblue" points="364,-147.19 360.5,-137.19 357,-147.19 364,-147.19"/>
</g>
<!-- Node27&#45;&gt;Node28 -->
<g id="edge33" class="edge">
<title>Node27&#45;&gt;Node28</title>
<path fill="none" stroke="midnightblue" d="M1342.8,-179.4C1326.03,-168.5 1302.93,-153.48 1286.17,-142.58"/>
<polygon fill="midnightblue" stroke="midnightblue" points="1287.88,-139.52 1277.59,-137.01 1284.06,-145.39 1287.88,-139.52"/>
</g>
<!-- Node29&#45;&gt;Node10 -->
<g id="edge35" class="edge">
<title>Node29&#45;&gt;Node10</title>
<path fill="none" stroke="midnightblue" d="M1000.18,-117.96C987.39,-115.77 973.43,-113.58 960.5,-112 748.85,-86.07 493.23,-72.88 398.34,-68.6"/>
<polygon fill="midnightblue" stroke="midnightblue" points="398.25,-65.09 388.1,-68.14 397.94,-72.09 398.25,-65.09"/>
</g>
<!-- Node31&#45;&gt;Node8 -->
<g id="edge45" class="edge">
<title>Node31&#45;&gt;Node8</title>
<path fill="none" stroke="midnightblue" d="M1167.72,-246.64C1112.21,-234.57 1032.87,-217.32 982.02,-206.26"/>
<polygon fill="midnightblue" stroke="midnightblue" points="982.45,-202.78 971.93,-204.07 980.96,-209.62 982.45,-202.78"/>
</g>
<!-- Node31&#45;&gt;Node15 -->
<g id="edge46" class="edge">
<title>Node31&#45;&gt;Node15</title>
<path fill="none" stroke="midnightblue" d="M1167.91,-252.55C1091.71,-242.92 960.17,-226.01 847.5,-210 837.65,-208.6 827.24,-207.07 817.05,-205.54"/>
<polygon fill="midnightblue" stroke="midnightblue" points="817.39,-202.05 806.98,-204.01 816.34,-208.97 817.39,-202.05"/>
</g>
<!-- Node31&#45;&gt;Node18 -->
<g id="edge47" class="edge">
<title>Node31&#45;&gt;Node18</title>
<path fill="none" stroke="midnightblue" d="M1295.11,-258.2C1381.64,-253.9 1530.61,-241.97 1573.5,-210 1593.9,-194.79 1603.73,-165.91 1608.18,-146.93"/>
<polygon fill="midnightblue" stroke="midnightblue" points="1611.62,-147.58 1610.21,-137.08 1604.76,-146.16 1611.62,-147.58"/>
</g>
<!-- Node31&#45;&gt;Node24 -->
<g id="edge43" class="edge">
<title>Node31&#45;&gt;Node24</title>
<path fill="none" stroke="midnightblue" d="M1290.4,-246.48C1332.95,-236.34 1390.57,-222.63 1435.31,-211.97"/>
<polygon fill="midnightblue" stroke="midnightblue" points="1436.32,-215.33 1445.23,-209.61 1434.7,-208.52 1436.32,-215.33"/>
</g>
<!-- Node31&#45;&gt;Node27 -->
<g id="edge44" class="edge">
<title>Node31&#45;&gt;Node27</title>
<path fill="none" stroke="midnightblue" d="M1260.36,-246.4C1279.79,-236.9 1305.62,-224.28 1326.69,-213.98"/>
<polygon fill="midnightblue" stroke="midnightblue" points="1328.25,-217.11 1335.7,-209.58 1325.18,-210.82 1328.25,-217.11"/>
</g>
<!-- Node34&#45;&gt;Node14 -->
<g id="edge60" class="edge">
<title>Node34&#45;&gt;Node14</title>
<path fill="none" stroke="midnightblue" d="M172.32,-313.27C166.65,-283.72 158.49,-215.4 194.5,-179 205.65,-167.73 418.99,-143.51 513.77,-133.25"/>
<polygon fill="midnightblue" stroke="midnightblue" points="514.35,-136.71 523.91,-132.16 513.6,-129.75 514.35,-136.71"/>
</g>
<!-- Node35 -->
<g id="node35" class="node">
<title>Node35</title>
<g id="a_node35"><a xlink:href="decl_2lbfgs_8hpp.html" target="_top" xlink:title=" ">
<polygon fill="white" stroke="black" points="0,-246.5 0,-276.5 147,-276.5 147,-246.5 0,-246.5"/>
<text text-anchor="start" x="8" y="-264.5" font-family="Helvetica,sans-Serif" font-size="10.00">panoc&#45;alm/inner/directions</text>
<text text-anchor="middle" x="73.5" y="-253.5" font-family="Helvetica,sans-Serif" font-size="10.00">/decl/lbfgs.hpp</text>
</a>
</g>
</g>
<!-- Node34&#45;&gt;Node35 -->
<g id="edge55" class="edge">
<title>Node34&#45;&gt;Node35</title>
<path fill="none" stroke="midnightblue" d="M153.37,-313.4C138.93,-304.2 119.9,-292.07 104.03,-281.95"/>
<polygon fill="midnightblue" stroke="midnightblue" points="105.9,-279 95.59,-276.58 102.14,-284.9 105.9,-279"/>
</g>
<!-- Node35&#45;&gt;Node7 -->
<g id="edge58" class="edge">
<title>Node35&#45;&gt;Node7</title>
<path fill="none" stroke="midnightblue" d="M79.8,-246.21C87.99,-228.82 103.61,-199.26 123.5,-179 135.47,-166.8 150.92,-156.12 164.97,-147.75"/>
<polygon fill="midnightblue" stroke="midnightblue" points="167.02,-150.61 173.95,-142.6 163.53,-144.54 167.02,-150.61"/>
</g>
<!-- Node35&#45;&gt;Node9 -->
<g id="edge56" class="edge">
<title>Node35&#45;&gt;Node9</title>
<path fill="none" stroke="midnightblue" d="M87.13,-246.28C107.4,-225.42 144.85,-188.05 161.5,-179 189.06,-164.02 272.77,-145.77 322.4,-135.83"/>
<polygon fill="midnightblue" stroke="midnightblue" points="323.32,-139.21 332.45,-133.84 321.96,-132.35 323.32,-139.21"/>
</g>
<!-- Node35&#45;&gt;Node10 -->
<g id="edge57" class="edge">
<title>Node35&#45;&gt;Node10</title>
<path fill="none" stroke="midnightblue" d="M73.29,-246.47C73.66,-216.66 79.06,-146.93 119.5,-112 149.36,-86.21 262.34,-74.18 322.41,-69.5"/>
<polygon fill="midnightblue" stroke="midnightblue" points="322.91,-72.97 332.62,-68.73 322.39,-65.99 322.91,-72.97"/>
</g>
<!-- Node35&#45;&gt;Node26 -->
<g id="edge59" class="edge">
<title>Node35&#45;&gt;Node26</title>
<path fill="none" stroke="midnightblue" d="M135.42,-246.48C180.34,-236.3 241.24,-222.51 288.36,-211.84"/>
<polygon fill="midnightblue" stroke="midnightblue" points="289.22,-215.23 298.19,-209.61 287.67,-208.41 289.22,-215.23"/>
</g>
</g>
</svg>
