<?xml version="1.0" encoding="UTF-8" standalone="no"?>
<!DOCTYPE svg PUBLIC "-//W3C//DTD SVG 1.1//EN"
 "http://www.w3.org/Graphics/SVG/1.1/DTD/svg11.dtd">
<!-- Generated by graphviz version 2.43.0 (0)
 -->
<!-- Title: PANOCFullProgressInfo Pages: 1 -->
<svg width="380pt" height="661pt"
 viewBox="0.00 0.00 379.50 661.00" xmlns="http://www.w3.org/2000/svg" xmlns:xlink="http://www.w3.org/1999/xlink">
<g id="graph0" class="graph" transform="scale(1 1) rotate(0) translate(4 657)">
<title>PANOCFullProgressInfo</title>
<polygon fill="white" stroke="transparent" points="-4,4 -4,-657 375.5,-657 375.5,4 -4,4"/>
<!-- Node1 -->
<g id="node1" class="node">
<title>Node1</title>
<g id="a_node1"><a xlink:title=" ">
<polygon fill="#bfbfbf" stroke="black" points="186.5,-0.5 186.5,-233.5 314.5,-233.5 314.5,-0.5 186.5,-0.5"/>
<text text-anchor="middle" x="250.5" y="-221.5" font-family="Helvetica,sans-Serif" font-size="10.00">PANOCFullProgressInfo</text>
<polyline fill="none" stroke="black" points="186.5,-214.5 314.5,-214.5 "/>
<text text-anchor="start" x="194.5" y="-202.5" font-family="Helvetica,sans-Serif" font-size="10.00">+ k</text>
<text text-anchor="start" x="194.5" y="-191.5" font-family="Helvetica,sans-Serif" font-size="10.00">+ x</text>
<text text-anchor="start" x="194.5" y="-180.5" font-family="Helvetica,sans-Serif" font-size="10.00">+ p</text>
<text text-anchor="start" x="194.5" y="-169.5" font-family="Helvetica,sans-Serif" font-size="10.00">+ norm_sq_p</text>
<text text-anchor="start" x="194.5" y="-158.5" font-family="Helvetica,sans-Serif" font-size="10.00">+ x_hat</text>
<text text-anchor="start" x="194.5" y="-147.5" font-family="Helvetica,sans-Serif" font-size="10.00">+ φγ</text>
<text text-anchor="start" x="194.5" y="-136.5" font-family="Helvetica,sans-Serif" font-size="10.00">+ ψ</text>
<text text-anchor="start" x="194.5" y="-125.5" font-family="Helvetica,sans-Serif" font-size="10.00">+ grad_ψ</text>
<text text-anchor="start" x="194.5" y="-114.5" font-family="Helvetica,sans-Serif" font-size="10.00">+ ψ_hat</text>
<text text-anchor="start" x="194.5" y="-103.5" font-family="Helvetica,sans-Serif" font-size="10.00">+ grad_ψ_hat</text>
<text text-anchor="start" x="194.5" y="-92.5" font-family="Helvetica,sans-Serif" font-size="10.00">+ L</text>
<text text-anchor="start" x="194.5" y="-81.5" font-family="Helvetica,sans-Serif" font-size="10.00">+ γ</text>
<text text-anchor="start" x="194.5" y="-70.5" font-family="Helvetica,sans-Serif" font-size="10.00">+ τ</text>
<text text-anchor="start" x="194.5" y="-59.5" font-family="Helvetica,sans-Serif" font-size="10.00">+ ε</text>
<text text-anchor="start" x="194.5" y="-48.5" font-family="Helvetica,sans-Serif" font-size="10.00">+ Σ1</text>
<text text-anchor="start" x="194.5" y="-37.5" font-family="Helvetica,sans-Serif" font-size="10.00">+ Σ2</text>
<text text-anchor="start" x="194.5" y="-26.5" font-family="Helvetica,sans-Serif" font-size="10.00">+ y</text>
<polyline fill="none" stroke="black" points="186.5,-19.5 314.5,-19.5 "/>
<text text-anchor="middle" x="250.5" y="-7.5" font-family="Helvetica,sans-Serif" font-size="10.00"> </text>
</a>
</g>
</g>
<!-- Node2 -->
<g id="node2" class="node">
<title>Node2</title>
<g id="a_node2"><a xlink:href="namespacepa.html#structpa_1_1PANOCParams" target="_top" xlink:title="Tuning parameters for the PANOC algorithm.">
<polygon fill="white" stroke="black" points="94,-292.5 94,-481.5 259,-481.5 259,-292.5 94,-292.5"/>
<text text-anchor="middle" x="176.5" y="-469.5" font-family="Helvetica,sans-Serif" font-size="10.00">PANOCParams</text>
<polyline fill="none" stroke="black" points="94,-462.5 259,-462.5 "/>
<text text-anchor="start" x="102" y="-450.5" font-family="Helvetica,sans-Serif" font-size="10.00">+ max_iter</text>
<text text-anchor="start" x="102" y="-439.5" font-family="Helvetica,sans-Serif" font-size="10.00">+ τ_min</text>
<text text-anchor="start" x="102" y="-428.5" font-family="Helvetica,sans-Serif" font-size="10.00">+ L_min</text>
<text text-anchor="start" x="102" y="-417.5" font-family="Helvetica,sans-Serif" font-size="10.00">+ L_max</text>
<text text-anchor="start" x="102" y="-406.5" font-family="Helvetica,sans-Serif" font-size="10.00">+ stop_crit</text>
<text text-anchor="start" x="102" y="-395.5" font-family="Helvetica,sans-Serif" font-size="10.00">+ max_no_progress</text>
<text text-anchor="start" x="102" y="-384.5" font-family="Helvetica,sans-Serif" font-size="10.00">+ print_interval</text>
<text text-anchor="start" x="102" y="-373.5" font-family="Helvetica,sans-Serif" font-size="10.00">+ quadratic_upperbound</text>
<text text-anchor="start" x="102" y="-362.5" font-family="Helvetica,sans-Serif" font-size="10.00">_tolerance_factor</text>
<text text-anchor="start" x="102" y="-351.5" font-family="Helvetica,sans-Serif" font-size="10.00">+ update_lipschitz_in</text>
<text text-anchor="start" x="102" y="-340.5" font-family="Helvetica,sans-Serif" font-size="10.00">_linesearch</text>
<text text-anchor="start" x="102" y="-329.5" font-family="Helvetica,sans-Serif" font-size="10.00">+ alternative_linesearch_cond</text>
<text text-anchor="start" x="102" y="-318.5" font-family="Helvetica,sans-Serif" font-size="10.00">+ lbfgs_stepsize</text>
<polyline fill="none" stroke="black" points="94,-311.5 259,-311.5 "/>
<text text-anchor="middle" x="176.5" y="-299.5" font-family="Helvetica,sans-Serif" font-size="10.00"> </text>
</a>
</g>
</g>
<!-- Node2&#45;&gt;Node1 -->
<g id="edge1" class="edge">
<title>Node2&#45;&gt;Node1</title>
<path fill="none" stroke="#404040" d="M202.38,-292.27C206.53,-277.23 210.89,-261.45 215.22,-245.78"/>
<polygon fill="none" stroke="#404040" points="215.32,-245.41 213.06,-238.56 218.51,-233.84 220.77,-240.69 215.32,-245.41"/>
<text text-anchor="middle" x="238" y="-255" font-family="Helvetica,sans-Serif" font-size="10.00"> +params</text>
</g>
<!-- Node3 -->
<g id="node3" class="node">
<title>Node3</title>
<g id="a_node3"><a xlink:href="namespacepa.html#structpa_1_1LipschitzEstimateParams" target="_top" xlink:title=" ">
<polygon fill="white" stroke="black" points="0,-562.5 0,-652.5 139,-652.5 139,-562.5 0,-562.5"/>
<text text-anchor="middle" x="69.5" y="-640.5" font-family="Helvetica,sans-Serif" font-size="10.00">LipschitzEstimateParams</text>
<polyline fill="none" stroke="black" points="0,-633.5 139,-633.5 "/>
<text text-anchor="start" x="8" y="-621.5" font-family="Helvetica,sans-Serif" font-size="10.00">+ L₀</text>
<text text-anchor="start" x="8" y="-610.5" font-family="Helvetica,sans-Serif" font-size="10.00">+ ε</text>
<text text-anchor="start" x="8" y="-599.5" font-family="Helvetica,sans-Serif" font-size="10.00">+ δ</text>
<text text-anchor="start" x="8" y="-588.5" font-family="Helvetica,sans-Serif" font-size="10.00">+ Lγ_factor</text>
<polyline fill="none" stroke="black" points="0,-581.5 139,-581.5 "/>
<text text-anchor="middle" x="69.5" y="-569.5" font-family="Helvetica,sans-Serif" font-size="10.00"> </text>
</a>
</g>
</g>
<!-- Node3&#45;&gt;Node2 -->
<g id="edge2" class="edge">
<title>Node3&#45;&gt;Node2</title>
<path fill="none" stroke="#404040" d="M91.15,-562.28C101.05,-542.08 113.23,-517.21 125.25,-492.65"/>
<polygon fill="none" stroke="#404040" points="125.3,-492.56 124.34,-485.41 130.57,-481.78 131.53,-488.93 125.3,-492.56"/>
<text text-anchor="middle" x="141" y="-525" font-family="Helvetica,sans-Serif" font-size="10.00"> +Lipschitz</text>
</g>
<!-- Node4 -->
<g id="node4" class="node">
<title>Node4</title>
<g id="a_node4"><a xlink:title=" ">
<polygon fill="white" stroke="#bfbfbf" points="157.5,-579 157.5,-636 241.5,-636 241.5,-579 157.5,-579"/>
<text text-anchor="middle" x="199.5" y="-624" font-family="Helvetica,sans-Serif" font-size="10.00">microseconds</text>
<polyline fill="none" stroke="#bfbfbf" points="157.5,-617 241.5,-617 "/>
<text text-anchor="middle" x="199.5" y="-605" font-family="Helvetica,sans-Serif" font-size="10.00"> </text>
<polyline fill="none" stroke="#bfbfbf" points="157.5,-598 241.5,-598 "/>
<text text-anchor="middle" x="199.5" y="-586" font-family="Helvetica,sans-Serif" font-size="10.00"> </text>
</a>
</g>
</g>
<!-- Node4&#45;&gt;Node2 -->
<g id="edge3" class="edge">
<title>Node4&#45;&gt;Node2</title>
<path fill="none" stroke="#404040" d="M196.59,-578.83C194.29,-557.04 190.94,-525.19 187.63,-493.73"/>
<polygon fill="none" stroke="#404040" points="187.62,-493.64 183.01,-488.09 186.36,-481.71 190.97,-487.26 187.62,-493.64"/>
<text text-anchor="middle" x="224" y="-525" font-family="Helvetica,sans-Serif" font-size="10.00"> +max_time</text>
</g>
<!-- Node5 -->
<g id="node5" class="node">
<title>Node5</title>
<g id="a_node5"><a xlink:href="structpa_1_1ProblemFull.html" target="_top" xlink:title="Problem description for minimization problems.">
<polygon fill="white" stroke="black" points="277.5,-281.5 277.5,-492.5 371.5,-492.5 371.5,-281.5 277.5,-281.5"/>
<text text-anchor="middle" x="324.5" y="-480.5" font-family="Helvetica,sans-Serif" font-size="10.00">ProblemFull</text>
<polyline fill="none" stroke="black" points="277.5,-473.5 371.5,-473.5 "/>
<text text-anchor="start" x="285.5" y="-461.5" font-family="Helvetica,sans-Serif" font-size="10.00">+ n</text>
<text text-anchor="start" x="285.5" y="-450.5" font-family="Helvetica,sans-Serif" font-size="10.00">+ m1</text>
<text text-anchor="start" x="285.5" y="-439.5" font-family="Helvetica,sans-Serif" font-size="10.00">+ m2</text>
<text text-anchor="start" x="285.5" y="-428.5" font-family="Helvetica,sans-Serif" font-size="10.00">+ f</text>
<text text-anchor="start" x="285.5" y="-417.5" font-family="Helvetica,sans-Serif" font-size="10.00">+ grad_f</text>
<text text-anchor="start" x="285.5" y="-406.5" font-family="Helvetica,sans-Serif" font-size="10.00">+ g1</text>
<text text-anchor="start" x="285.5" y="-395.5" font-family="Helvetica,sans-Serif" font-size="10.00">+ grad_g1_prod</text>
<text text-anchor="start" x="285.5" y="-384.5" font-family="Helvetica,sans-Serif" font-size="10.00">+ grad_g1i</text>
<text text-anchor="start" x="285.5" y="-373.5" font-family="Helvetica,sans-Serif" font-size="10.00">+ g2</text>
<text text-anchor="start" x="285.5" y="-362.5" font-family="Helvetica,sans-Serif" font-size="10.00">+ grad_g2_prod</text>
<text text-anchor="start" x="285.5" y="-351.5" font-family="Helvetica,sans-Serif" font-size="10.00">+ grad_g2i</text>
<text text-anchor="start" x="285.5" y="-340.5" font-family="Helvetica,sans-Serif" font-size="10.00">+ hess_L_prod</text>
<text text-anchor="start" x="285.5" y="-329.5" font-family="Helvetica,sans-Serif" font-size="10.00">+ hess_L</text>
<polyline fill="none" stroke="black" points="277.5,-322.5 371.5,-322.5 "/>
<text text-anchor="start" x="285.5" y="-310.5" font-family="Helvetica,sans-Serif" font-size="10.00">+ ProblemFull()</text>
<text text-anchor="start" x="285.5" y="-299.5" font-family="Helvetica,sans-Serif" font-size="10.00">+ ProblemFull()</text>
<text text-anchor="start" x="285.5" y="-288.5" font-family="Helvetica,sans-Serif" font-size="10.00">+ ProblemFull()</text>
</a>
</g>
</g>
<!-- Node5&#45;&gt;Node1 -->
<g id="edge4" class="edge">
<title>Node5&#45;&gt;Node1</title>
<path fill="none" stroke="#404040" d="M295.57,-281.23C292.35,-269.56 289.04,-257.58 285.75,-245.66"/>
<polygon fill="none" stroke="#404040" points="285.66,-245.35 280.21,-240.63 282.47,-233.78 287.92,-238.5 285.66,-245.35"/>
<text text-anchor="middle" x="316.5" y="-255" font-family="Helvetica,sans-Serif" font-size="10.00"> +problem</text>
</g>
<!-- Node6 -->
<g id="node6" class="node">
<title>Node6</title>
<g id="a_node6"><a xlink:href="namespacepa.html#structpa_1_1Box" target="_top" xlink:title=" ">
<polygon fill="white" stroke="black" points="281.5,-573.5 281.5,-641.5 367.5,-641.5 367.5,-573.5 281.5,-573.5"/>
<text text-anchor="middle" x="324.5" y="-629.5" font-family="Helvetica,sans-Serif" font-size="10.00">Box</text>
<polyline fill="none" stroke="black" points="281.5,-622.5 367.5,-622.5 "/>
<text text-anchor="start" x="289.5" y="-610.5" font-family="Helvetica,sans-Serif" font-size="10.00">+ upperbound</text>
<text text-anchor="start" x="289.5" y="-599.5" font-family="Helvetica,sans-Serif" font-size="10.00">+ lowerbound</text>
<polyline fill="none" stroke="black" points="281.5,-592.5 367.5,-592.5 "/>
<text text-anchor="middle" x="324.5" y="-580.5" font-family="Helvetica,sans-Serif" font-size="10.00"> </text>
</a>
</g>
</g>
<!-- Node6&#45;&gt;Node5 -->
<g id="edge5" class="edge">
<title>Node6&#45;&gt;Node5</title>
<path fill="none" stroke="#404040" d="M324.5,-573.31C324.5,-554.56 324.5,-529.86 324.5,-504.64"/>
<polygon fill="none" stroke="#404040" points="324.5,-504.64 320.5,-498.64 324.5,-492.64 328.5,-498.64 324.5,-504.64"/>
<text text-anchor="middle" x="335.5" y="-536" font-family="Helvetica,sans-Serif" font-size="10.00"> +C</text>
<text text-anchor="middle" x="335.5" y="-525" font-family="Helvetica,sans-Serif" font-size="10.00">+D1</text>
<text text-anchor="middle" x="335.5" y="-514" font-family="Helvetica,sans-Serif" font-size="10.00">+D2</text>
</g>
</g>
</svg>
