<?xml version="1.0" encoding="UTF-8" standalone="no"?>
<!DOCTYPE svg PUBLIC "-//W3C//DTD SVG 1.1//EN"
 "http://www.w3.org/Graphics/SVG/1.1/DTD/svg11.dtd">
<!-- Generated by graphviz version 2.43.0 (0)
 -->
<!-- Title: from_dict Pages: 1 -->
<svg width="258pt" height="78pt"
 viewBox="0.00 0.00 258.00 77.50" xmlns="http://www.w3.org/2000/svg" xmlns:xlink="http://www.w3.org/1999/xlink">
<g id="graph0" class="graph" transform="scale(1 1) rotate(0) translate(4 73.5)">
<title>from_dict</title>
<polygon fill="white" stroke="transparent" points="-4,4 -4,-73.5 254,-73.5 254,4 -4,4"/>
<!-- Node1 -->
<g id="node1" class="node">
<title>Node1</title>
<g id="a_node1"><a xlink:title=" ">
<polygon fill="#bfbfbf" stroke="black" points="187,-22.5 187,-41.5 250,-41.5 250,-22.5 187,-22.5"/>
<text text-anchor="middle" x="218.5" y="-29.5" font-family="Helvetica,sans-Serif" font-size="10.00">from_dict</text>
</a>
</g>
</g>
<!-- Node2 -->
<g id="node2" class="node">
<title>Node2</title>
<g id="a_node2"><a xlink:href="classpa_1_1PolymorphicInnerSolverTrampoline.html#a5f34ce553ea14846a641f8bb3fc619f7" target="_top" xlink:title=" ">
<polygon fill="white" stroke="black" points="0,-39 0,-69 151,-69 151,-39 0,-39"/>
<text text-anchor="start" x="8" y="-57" font-family="Helvetica,sans-Serif" font-size="10.00">pa::PolymorphicInnerSolver</text>
<text text-anchor="middle" x="75.5" y="-46" font-family="Helvetica,sans-Serif" font-size="10.00">Trampoline::operator()</text>
</a>
</g>
</g>
<!-- Node1&#45;&gt;Node2 -->
<g id="edge1" class="edge">
<title>Node1&#45;&gt;Node2</title>
<path fill="none" stroke="midnightblue" d="M176.94,-38.33C168.77,-39.6 159.93,-40.98 151.01,-42.37"/>
<polygon fill="midnightblue" stroke="midnightblue" points="177.56,-41.77 186.91,-36.77 176.49,-34.86 177.56,-41.77"/>
</g>
<!-- Node3 -->
<g id="node3" class="node">
<title>Node3</title>
<g id="a_node3"><a xlink:href="panocpy_8cpp.html#a874ce6effe8570e8994966f291e5e321" target="_top" xlink:title=" ">
<polygon fill="white" stroke="black" points="19,-0.5 19,-19.5 132,-19.5 132,-0.5 19,-0.5"/>
<text text-anchor="middle" x="75.5" y="-7.5" font-family="Helvetica,sans-Serif" font-size="10.00">PYBIND11_MODULE</text>
</a>
</g>
</g>
<!-- Node1&#45;&gt;Node3 -->
<g id="edge2" class="edge">
<title>Node1&#45;&gt;Node3</title>
<path fill="none" stroke="midnightblue" d="M176.67,-25.63C162.74,-23.46 146.93,-20.99 132.05,-18.67"/>
<polygon fill="midnightblue" stroke="midnightblue" points="176.49,-29.14 186.91,-27.23 177.56,-22.23 176.49,-29.14"/>
</g>
</g>
</svg>
