<?xml version="1.0" encoding="UTF-8" standalone="no"?>
<!DOCTYPE svg PUBLIC "-//W3C//DTD SVG 1.1//EN"
 "http://www.w3.org/Graphics/SVG/1.1/DTD/svg11.dtd">
<!-- Generated by graphviz version 2.43.0 (0)
 -->
<!-- Title: StructuredPANOCLBFGSParams Pages: 1 -->
<svg width="250pt" height="380pt"
 viewBox="0.00 0.00 249.50 380.00" xmlns="http://www.w3.org/2000/svg" xmlns:xlink="http://www.w3.org/1999/xlink">
<g id="graph0" class="graph" transform="scale(1 1) rotate(0) translate(4 376)">
<title>StructuredPANOCLBFGSParams</title>
<polygon fill="white" stroke="transparent" points="-4,4 -4,-376 245.5,-376 245.5,4 -4,4"/>
<!-- Node1 -->
<g id="node1" class="node">
<title>Node1</title>
<g id="a_node1"><a xlink:title="Tuning parameters for the second order PANOC algorithm.">
<polygon fill="#bfbfbf" stroke="black" points="50.5,-0.5 50.5,-233.5 218.5,-233.5 218.5,-0.5 50.5,-0.5"/>
<text text-anchor="middle" x="134.5" y="-221.5" font-family="Helvetica,sans-Serif" font-size="10.00">StructuredPANOCLBFGSParams</text>
<polyline fill="none" stroke="black" points="50.5,-214.5 218.5,-214.5 "/>
<text text-anchor="start" x="58.5" y="-202.5" font-family="Helvetica,sans-Serif" font-size="10.00">+ max_iter</text>
<text text-anchor="start" x="58.5" y="-191.5" font-family="Helvetica,sans-Serif" font-size="10.00">+ τ_min</text>
<text text-anchor="start" x="58.5" y="-180.5" font-family="Helvetica,sans-Serif" font-size="10.00">+ L_min</text>
<text text-anchor="start" x="58.5" y="-169.5" font-family="Helvetica,sans-Serif" font-size="10.00">+ L_max</text>
<text text-anchor="start" x="58.5" y="-158.5" font-family="Helvetica,sans-Serif" font-size="10.00">+ nonmonotone_linesearch</text>
<text text-anchor="start" x="58.5" y="-147.5" font-family="Helvetica,sans-Serif" font-size="10.00">+ stop_crit</text>
<text text-anchor="start" x="58.5" y="-136.5" font-family="Helvetica,sans-Serif" font-size="10.00">+ max_no_progress</text>
<text text-anchor="start" x="58.5" y="-125.5" font-family="Helvetica,sans-Serif" font-size="10.00">+ print_interval</text>
<text text-anchor="start" x="58.5" y="-114.5" font-family="Helvetica,sans-Serif" font-size="10.00">+ quadratic_upperbound</text>
<text text-anchor="start" x="58.5" y="-103.5" font-family="Helvetica,sans-Serif" font-size="10.00">_tolerance_factor</text>
<text text-anchor="start" x="58.5" y="-92.5" font-family="Helvetica,sans-Serif" font-size="10.00">+ update_lipschitz_in</text>
<text text-anchor="start" x="58.5" y="-81.5" font-family="Helvetica,sans-Serif" font-size="10.00">_linesearch</text>
<text text-anchor="start" x="58.5" y="-70.5" font-family="Helvetica,sans-Serif" font-size="10.00">+ alternative_linesearch_cond</text>
<text text-anchor="start" x="58.5" y="-59.5" font-family="Helvetica,sans-Serif" font-size="10.00">+ hessian_vec_finited</text>
<text text-anchor="start" x="58.5" y="-48.5" font-family="Helvetica,sans-Serif" font-size="10.00">_differences</text>
<text text-anchor="start" x="58.5" y="-37.5" font-family="Helvetica,sans-Serif" font-size="10.00">+ full_augmented_hessian</text>
<text text-anchor="start" x="58.5" y="-26.5" font-family="Helvetica,sans-Serif" font-size="10.00">+ lbfgs_stepsize</text>
<polyline fill="none" stroke="black" points="50.5,-19.5 218.5,-19.5 "/>
<text text-anchor="middle" x="134.5" y="-7.5" font-family="Helvetica,sans-Serif" font-size="10.00"> </text>
</a>
</g>
</g>
<!-- Node2 -->
<g id="node2" class="node">
<title>Node2</title>
<g id="a_node2"><a xlink:href="namespacepa.html#structpa_1_1LipschitzEstimateParams" target="_top" xlink:title=" ">
<polygon fill="white" stroke="black" points="0,-281.5 0,-371.5 139,-371.5 139,-281.5 0,-281.5"/>
<text text-anchor="middle" x="69.5" y="-359.5" font-family="Helvetica,sans-Serif" font-size="10.00">LipschitzEstimateParams</text>
<polyline fill="none" stroke="black" points="0,-352.5 139,-352.5 "/>
<text text-anchor="start" x="8" y="-340.5" font-family="Helvetica,sans-Serif" font-size="10.00">+ L₀</text>
<text text-anchor="start" x="8" y="-329.5" font-family="Helvetica,sans-Serif" font-size="10.00">+ ε</text>
<text text-anchor="start" x="8" y="-318.5" font-family="Helvetica,sans-Serif" font-size="10.00">+ δ</text>
<text text-anchor="start" x="8" y="-307.5" font-family="Helvetica,sans-Serif" font-size="10.00">+ Lγ_factor</text>
<polyline fill="none" stroke="black" points="0,-300.5 139,-300.5 "/>
<text text-anchor="middle" x="69.5" y="-288.5" font-family="Helvetica,sans-Serif" font-size="10.00"> </text>
</a>
</g>
</g>
<!-- Node2&#45;&gt;Node1 -->
<g id="edge1" class="edge">
<title>Node2&#45;&gt;Node1</title>
<path fill="none" stroke="#404040" d="M83.28,-281.49C86.74,-270.45 90.63,-258.04 94.68,-245.12"/>
<polygon fill="none" stroke="#404040" points="94.68,-245.11 92.66,-238.19 98.27,-233.66 100.29,-240.58 94.68,-245.11"/>
<text text-anchor="middle" x="120" y="-255" font-family="Helvetica,sans-Serif" font-size="10.00"> +Lipschitz</text>
</g>
<!-- Node3 -->
<g id="node3" class="node">
<title>Node3</title>
<g id="a_node3"><a xlink:title=" ">
<polygon fill="white" stroke="#bfbfbf" points="157.5,-298 157.5,-355 241.5,-355 241.5,-298 157.5,-298"/>
<text text-anchor="middle" x="199.5" y="-343" font-family="Helvetica,sans-Serif" font-size="10.00">microseconds</text>
<polyline fill="none" stroke="#bfbfbf" points="157.5,-336 241.5,-336 "/>
<text text-anchor="middle" x="199.5" y="-324" font-family="Helvetica,sans-Serif" font-size="10.00"> </text>
<polyline fill="none" stroke="#bfbfbf" points="157.5,-317 241.5,-317 "/>
<text text-anchor="middle" x="199.5" y="-305" font-family="Helvetica,sans-Serif" font-size="10.00"> </text>
</a>
</g>
</g>
<!-- Node3&#45;&gt;Node1 -->
<g id="edge2" class="edge">
<title>Node3&#45;&gt;Node1</title>
<path fill="none" stroke="#404040" d="M190.87,-297.95C186.37,-283.59 180.52,-264.91 174.29,-245.02"/>
<polygon fill="none" stroke="#404040" points="174.28,-244.98 168.67,-240.45 170.69,-233.53 176.3,-238.06 174.28,-244.98"/>
<text text-anchor="middle" x="208" y="-255" font-family="Helvetica,sans-Serif" font-size="10.00"> +max_time</text>
</g>
</g>
</svg>
