<?xml version="1.0" encoding="UTF-8" standalone="no"?>
<!DOCTYPE svg PUBLIC "-//W3C//DTD SVG 1.1//EN"
 "http://www.w3.org/Graphics/SVG/1.1/DTD/svg11.dtd">
<!-- Generated by graphviz version 2.43.0 (0)
 -->
<!-- Title: ALMSolver&lt; InnerSolverT &gt;::Stats Pages: 1 -->
<svg width="257pt" height="281pt"
 viewBox="0.00 0.00 257.00 281.00" xmlns="http://www.w3.org/2000/svg" xmlns:xlink="http://www.w3.org/1999/xlink">
<g id="graph0" class="graph" transform="scale(1 1) rotate(0) translate(4 277)">
<title>ALMSolver&lt; InnerSolverT &gt;::Stats</title>
<polygon fill="white" stroke="transparent" points="-4,4 -4,-277 253,-277 253,4 -4,4"/>
<!-- Node1 -->
<g id="node1" class="node">
<title>Node1</title>
<g id="a_node1"><a xlink:title=" ">
<polygon fill="#bfbfbf" stroke="black" points="51,-0.5 51,-145.5 213,-145.5 213,-0.5 51,-0.5"/>
<text text-anchor="start" x="59" y="-133.5" font-family="Helvetica,sans-Serif" font-size="10.00">ALMSolver&lt; InnerSolverT</text>
<text text-anchor="middle" x="132" y="-122.5" font-family="Helvetica,sans-Serif" font-size="10.00"> &gt;::Stats</text>
<polyline fill="none" stroke="black" points="51,-115.5 213,-115.5 "/>
<text text-anchor="start" x="59" y="-103.5" font-family="Helvetica,sans-Serif" font-size="10.00">+ outer_iterations</text>
<text text-anchor="start" x="59" y="-92.5" font-family="Helvetica,sans-Serif" font-size="10.00">+ initial_penalty_reduced</text>
<text text-anchor="start" x="59" y="-81.5" font-family="Helvetica,sans-Serif" font-size="10.00">+ penalty_reduced</text>
<text text-anchor="start" x="59" y="-70.5" font-family="Helvetica,sans-Serif" font-size="10.00">+ inner_convergence_failures</text>
<text text-anchor="start" x="59" y="-59.5" font-family="Helvetica,sans-Serif" font-size="10.00">+ ε</text>
<text text-anchor="start" x="59" y="-48.5" font-family="Helvetica,sans-Serif" font-size="10.00">+ δ</text>
<text text-anchor="start" x="59" y="-37.5" font-family="Helvetica,sans-Serif" font-size="10.00">+ norm_penalty</text>
<text text-anchor="start" x="59" y="-26.5" font-family="Helvetica,sans-Serif" font-size="10.00">+ status</text>
<polyline fill="none" stroke="black" points="51,-19.5 213,-19.5 "/>
<text text-anchor="middle" x="132" y="-7.5" font-family="Helvetica,sans-Serif" font-size="10.00"> </text>
</a>
</g>
</g>
<!-- Node2 -->
<g id="node2" class="node">
<title>Node2</title>
<g id="a_node2"><a xlink:href="namespacepa.html#namespacepa" target="_top" xlink:title=" ">
<polygon fill="white" stroke="black" points="0,-193.5 0,-272.5 136,-272.5 136,-193.5 0,-193.5"/>
<text text-anchor="start" x="8" y="-260.5" font-family="Helvetica,sans-Serif" font-size="10.00">InnerStatsAccumulator</text>
<text text-anchor="start" x="8" y="-249.5" font-family="Helvetica,sans-Serif" font-size="10.00">&lt; typename InnerSolver</text>
<text text-anchor="middle" x="68" y="-238.5" font-family="Helvetica,sans-Serif" font-size="10.00">::Stats &gt;</text>
<polyline fill="none" stroke="black" points="0,-231.5 136,-231.5 "/>
<text text-anchor="middle" x="68" y="-219.5" font-family="Helvetica,sans-Serif" font-size="10.00"> </text>
<polyline fill="none" stroke="black" points="0,-212.5 136,-212.5 "/>
<text text-anchor="middle" x="68" y="-200.5" font-family="Helvetica,sans-Serif" font-size="10.00"> </text>
</a>
</g>
</g>
<!-- Node2&#45;&gt;Node1 -->
<g id="edge1" class="edge">
<title>Node2&#45;&gt;Node1</title>
<path fill="none" stroke="#404040" d="M83.66,-193.35C88.18,-182.18 93.3,-169.55 98.47,-156.78"/>
<polygon fill="none" stroke="#404040" points="98.51,-156.69 97.05,-149.62 103.01,-145.57 104.47,-152.63 98.51,-156.69"/>
<text text-anchor="middle" x="113.5" y="-167" font-family="Helvetica,sans-Serif" font-size="10.00"> +inner</text>
</g>
<!-- Node3 -->
<g id="node3" class="node">
<title>Node3</title>
<g id="a_node3"><a xlink:title=" ">
<polygon fill="white" stroke="#bfbfbf" points="154,-204.5 154,-261.5 238,-261.5 238,-204.5 154,-204.5"/>
<text text-anchor="middle" x="196" y="-249.5" font-family="Helvetica,sans-Serif" font-size="10.00">microseconds</text>
<polyline fill="none" stroke="#bfbfbf" points="154,-242.5 238,-242.5 "/>
<text text-anchor="middle" x="196" y="-230.5" font-family="Helvetica,sans-Serif" font-size="10.00"> </text>
<polyline fill="none" stroke="#bfbfbf" points="154,-223.5 238,-223.5 "/>
<text text-anchor="middle" x="196" y="-211.5" font-family="Helvetica,sans-Serif" font-size="10.00"> </text>
</a>
</g>
</g>
<!-- Node3&#45;&gt;Node1 -->
<g id="edge2" class="edge">
<title>Node3&#45;&gt;Node1</title>
<path fill="none" stroke="#404040" d="M184.85,-204.48C179.42,-191.06 172.56,-174.13 165.6,-156.96"/>
<polygon fill="none" stroke="#404040" points="165.54,-156.79 159.58,-152.73 161.03,-145.67 166.99,-149.73 165.54,-156.79"/>
<text text-anchor="middle" x="210" y="-167" font-family="Helvetica,sans-Serif" font-size="10.00"> +elapsed_time</text>
</g>
</g>
</svg>
