<?xml version="1.0" encoding="UTF-8" standalone="no"?>
<!DOCTYPE svg PUBLIC "-//W3C//DTD SVG 1.1//EN"
 "http://www.w3.org/Graphics/SVG/1.1/DTD/svg11.dtd">
<!-- Generated by graphviz version 2.43.0 (0)
 -->
<!-- Title: structured&#45;panoc&#45;lbfgs.hpp Pages: 1 -->
<svg width="1769pt" height="397pt"
 viewBox="0.00 0.00 1769.48 397.00" xmlns="http://www.w3.org/2000/svg" xmlns:xlink="http://www.w3.org/1999/xlink">
<g id="graph0" class="graph" transform="scale(1 1) rotate(0) translate(4 393)">
<title>structured&#45;panoc&#45;lbfgs.hpp</title>
<polygon fill="white" stroke="transparent" points="-4,4 -4,-393 1765.48,-393 1765.48,4 -4,4"/>
<!-- Node1 -->
<g id="node1" class="node">
<title>Node1</title>
<g id="a_node1"><a xlink:title=" ">
<polygon fill="#bfbfbf" stroke="black" points="1416.48,-369.5 1416.48,-388.5 1564.48,-388.5 1564.48,-369.5 1416.48,-369.5"/>
<text text-anchor="middle" x="1490.48" y="-376.5" font-family="Helvetica,sans-Serif" font-size="10.00">structured&#45;panoc&#45;lbfgs.hpp</text>
</a>
</g>
</g>
<!-- Node2 -->
<g id="node2" class="node">
<title>Node2</title>
<g id="a_node2"><a xlink:href="decl_2structured-panoc-lbfgs_8hpp.html" target="_top" xlink:title=" ">
<polygon fill="white" stroke="black" points="634.98,-302.5 634.98,-332.5 785.98,-332.5 785.98,-302.5 634.98,-302.5"/>
<text text-anchor="start" x="642.98" y="-320.5" font-family="Helvetica,sans-Serif" font-size="10.00">panoc&#45;alm/inner/decl</text>
<text text-anchor="middle" x="710.48" y="-309.5" font-family="Helvetica,sans-Serif" font-size="10.00">/structured&#45;panoc&#45;lbfgs.hpp</text>
</a>
</g>
</g>
<!-- Node1&#45;&gt;Node2 -->
<g id="edge1" class="edge">
<title>Node1&#45;&gt;Node2</title>
<path fill="none" stroke="midnightblue" d="M1416.4,-372.35C1271.33,-361.28 950.54,-336.81 796.43,-325.06"/>
<polygon fill="midnightblue" stroke="midnightblue" points="796.31,-321.54 786.07,-324.27 795.78,-328.52 796.31,-321.54"/>
</g>
<!-- Node8 -->
<g id="node8" class="node">
<title>Node8</title>
<g id="a_node8"><a xlink:title=" ">
<polygon fill="white" stroke="#bfbfbf" points="1392.98,-174 1392.98,-193 1457.98,-193 1457.98,-174 1392.98,-174"/>
<text text-anchor="middle" x="1425.48" y="-181" font-family="Helvetica,sans-Serif" font-size="10.00">stdexcept</text>
</a>
</g>
</g>
<!-- Node1&#45;&gt;Node8 -->
<g id="edge44" class="edge">
<title>Node1&#45;&gt;Node8</title>
<path fill="none" stroke="midnightblue" d="M1487.6,-369.44C1477.77,-340.16 1445.35,-243.65 1431.66,-202.91"/>
<polygon fill="midnightblue" stroke="midnightblue" points="1434.98,-201.77 1428.47,-193.41 1428.34,-204 1434.98,-201.77"/>
</g>
<!-- Node26 -->
<g id="node26" class="node">
<title>Node26</title>
<g id="a_node26"><a xlink:href="panoc-helpers_8hpp.html" target="_top" xlink:title=" ">
<polygon fill="white" stroke="black" points="1191.98,-302.5 1191.98,-332.5 1318.98,-332.5 1318.98,-302.5 1191.98,-302.5"/>
<text text-anchor="start" x="1199.98" y="-320.5" font-family="Helvetica,sans-Serif" font-size="10.00">panoc&#45;alm/inner/detail</text>
<text text-anchor="middle" x="1255.48" y="-309.5" font-family="Helvetica,sans-Serif" font-size="10.00">/panoc&#45;helpers.hpp</text>
</a>
</g>
</g>
<!-- Node1&#45;&gt;Node26 -->
<g id="edge31" class="edge">
<title>Node1&#45;&gt;Node26</title>
<path fill="none" stroke="midnightblue" d="M1456.81,-369.48C1421.41,-360.51 1364.84,-346.19 1320.66,-335"/>
<polygon fill="midnightblue" stroke="midnightblue" points="1321.42,-331.58 1310.87,-332.52 1319.7,-338.37 1321.42,-331.58"/>
</g>
<!-- Node27 -->
<g id="node27" class="node">
<title>Node27</title>
<g id="a_node27"><a xlink:href="lbfgs_8hpp.html" target="_top" xlink:title=" ">
<polygon fill="white" stroke="black" points="268.98,-302.5 268.98,-332.5 415.98,-332.5 415.98,-302.5 268.98,-302.5"/>
<text text-anchor="start" x="276.98" y="-320.5" font-family="Helvetica,sans-Serif" font-size="10.00">panoc&#45;alm/inner/directions</text>
<text text-anchor="middle" x="342.48" y="-309.5" font-family="Helvetica,sans-Serif" font-size="10.00">/lbfgs.hpp</text>
</a>
</g>
</g>
<!-- Node1&#45;&gt;Node27 -->
<g id="edge37" class="edge">
<title>Node1&#45;&gt;Node27</title>
<path fill="none" stroke="midnightblue" d="M1416.04,-374.14C1211.46,-363.54 641.6,-334 426.3,-322.84"/>
<polygon fill="midnightblue" stroke="midnightblue" points="426.18,-319.33 416.01,-322.31 425.81,-326.32 426.18,-319.33"/>
</g>
<!-- Node28 -->
<g id="node28" class="node">
<title>Node28</title>
<g id="a_node28"><a xlink:title=" ">
<polygon fill="white" stroke="#bfbfbf" points="1491.48,-308 1491.48,-327 1543.48,-327 1543.48,-308 1491.48,-308"/>
<text text-anchor="middle" x="1517.48" y="-315" font-family="Helvetica,sans-Serif" font-size="10.00">cassert</text>
</a>
</g>
</g>
<!-- Node1&#45;&gt;Node28 -->
<g id="edge40" class="edge">
<title>Node1&#45;&gt;Node28</title>
<path fill="none" stroke="midnightblue" d="M1494.35,-369.48C1498.28,-360.82 1504.48,-347.15 1509.47,-336.15"/>
<polygon fill="midnightblue" stroke="midnightblue" points="1512.67,-337.56 1513.62,-327.01 1506.3,-334.67 1512.67,-337.56"/>
</g>
<!-- Node29 -->
<g id="node29" class="node">
<title>Node29</title>
<g id="a_node29"><a xlink:title=" ">
<polygon fill="white" stroke="#bfbfbf" points="1561.98,-308 1561.98,-327 1608.98,-327 1608.98,-308 1561.98,-308"/>
<text text-anchor="middle" x="1585.48" y="-315" font-family="Helvetica,sans-Serif" font-size="10.00">cmath</text>
</a>
</g>
</g>
<!-- Node1&#45;&gt;Node29 -->
<g id="edge41" class="edge">
<title>Node1&#45;&gt;Node29</title>
<path fill="none" stroke="midnightblue" d="M1504.09,-369.48C1519.54,-359.8 1544.97,-343.87 1563.3,-332.39"/>
<polygon fill="midnightblue" stroke="midnightblue" points="1565.28,-335.28 1571.89,-327.01 1561.56,-329.35 1565.28,-335.28"/>
</g>
<!-- Node30 -->
<g id="node30" class="node">
<title>Node30</title>
<g id="a_node30"><a xlink:title=" ">
<polygon fill="white" stroke="#bfbfbf" points="1627.48,-308 1627.48,-327 1683.48,-327 1683.48,-308 1627.48,-308"/>
<text text-anchor="middle" x="1655.48" y="-315" font-family="Helvetica,sans-Serif" font-size="10.00">iomanip</text>
</a>
</g>
</g>
<!-- Node1&#45;&gt;Node30 -->
<g id="edge42" class="edge">
<title>Node1&#45;&gt;Node30</title>
<path fill="none" stroke="midnightblue" d="M1515.59,-369.47C1541.47,-360.6 1582.93,-346.21 1618.48,-333 1620.37,-332.3 1622.31,-331.57 1624.27,-330.82"/>
<polygon fill="midnightblue" stroke="midnightblue" points="1625.94,-333.93 1634.01,-327.06 1623.42,-327.4 1625.94,-333.93"/>
</g>
<!-- Node31 -->
<g id="node31" class="node">
<title>Node31</title>
<g id="a_node31"><a xlink:title=" ">
<polygon fill="white" stroke="#bfbfbf" points="1701.48,-308 1701.48,-327 1761.48,-327 1761.48,-308 1701.48,-308"/>
<text text-anchor="middle" x="1731.48" y="-315" font-family="Helvetica,sans-Serif" font-size="10.00">iostream</text>
</a>
</g>
</g>
<!-- Node1&#45;&gt;Node31 -->
<g id="edge43" class="edge">
<title>Node1&#45;&gt;Node31</title>
<path fill="none" stroke="midnightblue" d="M1537.48,-369.42C1578.72,-361.45 1640.11,-348.49 1692.48,-333 1695.12,-332.22 1697.83,-331.35 1700.54,-330.44"/>
<polygon fill="midnightblue" stroke="midnightblue" points="1701.95,-333.65 1710.2,-327.01 1699.61,-327.06 1701.95,-333.65"/>
</g>
<!-- Node3 -->
<g id="node3" class="node">
<title>Node3</title>
<g id="a_node3"><a xlink:href="lbfgs-stepsize_8hpp.html" target="_top" xlink:title=" ">
<polygon fill="white" stroke="black" points="494.98,-235.5 494.98,-265.5 613.98,-265.5 613.98,-235.5 494.98,-235.5"/>
<text text-anchor="start" x="502.98" y="-253.5" font-family="Helvetica,sans-Serif" font-size="10.00">panoc&#45;alm/inner/decl</text>
<text text-anchor="middle" x="554.48" y="-242.5" font-family="Helvetica,sans-Serif" font-size="10.00">/lbfgs&#45;stepsize.hpp</text>
</a>
</g>
</g>
<!-- Node2&#45;&gt;Node3 -->
<g id="edge2" class="edge">
<title>Node2&#45;&gt;Node3</title>
<path fill="none" stroke="midnightblue" d="M676.63,-302.4C653.43,-292.73 622.46,-279.82 597.5,-269.43"/>
<polygon fill="midnightblue" stroke="midnightblue" points="598.84,-266.19 588.26,-265.58 596.15,-272.65 598.84,-266.19"/>
</g>
<!-- Node4 -->
<g id="node4" class="node">
<title>Node4</title>
<g id="a_node4"><a xlink:href="panoc-fwd_8hpp.html" target="_top" xlink:title=" ">
<polygon fill="white" stroke="black" points="194.98,-235.5 194.98,-265.5 313.98,-265.5 313.98,-235.5 194.98,-235.5"/>
<text text-anchor="start" x="202.98" y="-253.5" font-family="Helvetica,sans-Serif" font-size="10.00">panoc&#45;alm/inner/decl</text>
<text text-anchor="middle" x="254.48" y="-242.5" font-family="Helvetica,sans-Serif" font-size="10.00">/panoc&#45;fwd.hpp</text>
</a>
</g>
</g>
<!-- Node2&#45;&gt;Node4 -->
<g id="edge3" class="edge">
<title>Node2&#45;&gt;Node4</title>
<path fill="none" stroke="midnightblue" d="M634.93,-305.73C548.46,-293.41 408.01,-273.39 324.11,-261.43"/>
<polygon fill="midnightblue" stroke="midnightblue" points="324.56,-257.95 314.17,-260.01 323.57,-264.88 324.56,-257.95"/>
</g>
<!-- Node6 -->
<g id="node6" class="node">
<title>Node6</title>
<g id="a_node6"><a xlink:href="panoc-stop-crit_8hpp.html" target="_top" xlink:title=" ">
<polygon fill="white" stroke="black" points="1277.98,-235.5 1277.98,-265.5 1396.98,-265.5 1396.98,-235.5 1277.98,-235.5"/>
<text text-anchor="start" x="1285.98" y="-253.5" font-family="Helvetica,sans-Serif" font-size="10.00">panoc&#45;alm/inner/decl</text>
<text text-anchor="middle" x="1337.48" y="-242.5" font-family="Helvetica,sans-Serif" font-size="10.00">/panoc&#45;stop&#45;crit.hpp</text>
</a>
</g>
</g>
<!-- Node2&#45;&gt;Node6 -->
<g id="edge5" class="edge">
<title>Node2&#45;&gt;Node6</title>
<path fill="none" stroke="midnightblue" d="M786.32,-312.54C892.15,-306.38 1090.22,-292.5 1267.8,-266.15"/>
<polygon fill="midnightblue" stroke="midnightblue" points="1268.48,-269.58 1277.85,-264.64 1267.44,-262.66 1268.48,-269.58"/>
</g>
<!-- Node9 -->
<g id="node9" class="node">
<title>Node9</title>
<g id="a_node9"><a xlink:href="decl_2lbfgs_8hpp.html" target="_top" xlink:title=" ">
<polygon fill="white" stroke="black" points="29.98,-235.5 29.98,-265.5 176.98,-265.5 176.98,-235.5 29.98,-235.5"/>
<text text-anchor="start" x="37.98" y="-253.5" font-family="Helvetica,sans-Serif" font-size="10.00">panoc&#45;alm/inner/directions</text>
<text text-anchor="middle" x="103.48" y="-242.5" font-family="Helvetica,sans-Serif" font-size="10.00">/decl/lbfgs.hpp</text>
</a>
</g>
</g>
<!-- Node2&#45;&gt;Node9 -->
<g id="edge8" class="edge">
<title>Node2&#45;&gt;Node9</title>
<path fill="none" stroke="midnightblue" d="M634.63,-311.1C534.45,-303.54 352.37,-288.34 187.53,-266.22"/>
<polygon fill="midnightblue" stroke="midnightblue" points="187.57,-262.69 177.19,-264.82 186.63,-269.63 187.57,-262.69"/>
</g>
<!-- Node14 -->
<g id="node14" class="node">
<title>Node14</title>
<g id="a_node14"><a xlink:href="atomic__stop__signal_8hpp.html" target="_top" xlink:title=" ">
<polygon fill="white" stroke="black" points="738.48,-235.5 738.48,-265.5 862.48,-265.5 862.48,-235.5 738.48,-235.5"/>
<text text-anchor="start" x="746.48" y="-253.5" font-family="Helvetica,sans-Serif" font-size="10.00">panoc&#45;alm/util/atomic</text>
<text text-anchor="middle" x="800.48" y="-242.5" font-family="Helvetica,sans-Serif" font-size="10.00">_stop_signal.hpp</text>
</a>
</g>
</g>
<!-- Node2&#45;&gt;Node14 -->
<g id="edge16" class="edge">
<title>Node2&#45;&gt;Node14</title>
<path fill="none" stroke="midnightblue" d="M730.01,-302.4C742.51,-293.37 758.92,-281.51 772.76,-271.52"/>
<polygon fill="midnightblue" stroke="midnightblue" points="774.93,-274.27 780.99,-265.58 770.83,-268.59 774.93,-274.27"/>
</g>
<!-- Node15 -->
<g id="node15" class="node">
<title>Node15</title>
<g id="a_node15"><a xlink:title=" ">
<polygon fill="white" stroke="#bfbfbf" points="709.48,-174 709.48,-193 759.48,-193 759.48,-174 709.48,-174"/>
<text text-anchor="middle" x="734.48" y="-181" font-family="Helvetica,sans-Serif" font-size="10.00">atomic</text>
</a>
</g>
</g>
<!-- Node2&#45;&gt;Node15 -->
<g id="edge27" class="edge">
<title>Node2&#45;&gt;Node15</title>
<path fill="none" stroke="midnightblue" d="M713.05,-302.37C717.41,-278.4 726.25,-229.75 731.11,-203.06"/>
<polygon fill="midnightblue" stroke="midnightblue" points="734.57,-203.56 732.92,-193.1 727.69,-202.31 734.57,-203.56"/>
</g>
<!-- Node16 -->
<g id="node16" class="node">
<title>Node16</title>
<g id="a_node16"><a xlink:href="lipschitz_8hpp.html" target="_top" xlink:title=" ">
<polygon fill="white" stroke="black" points="643.48,-112.5 643.48,-131.5 795.48,-131.5 795.48,-112.5 643.48,-112.5"/>
<text text-anchor="middle" x="719.48" y="-119.5" font-family="Helvetica,sans-Serif" font-size="10.00">panoc&#45;alm/util/lipschitz.hpp</text>
</a>
</g>
</g>
<!-- Node2&#45;&gt;Node16 -->
<g id="edge18" class="edge">
<title>Node2&#45;&gt;Node16</title>
<path fill="none" stroke="midnightblue" d="M786.16,-315.93C873.49,-313.48 1009.24,-303.54 1041.48,-266 1062.39,-241.66 1028.83,-177.33 1017.48,-168 985.91,-142.03 881.89,-131 805.6,-126.35"/>
<polygon fill="midnightblue" stroke="midnightblue" points="805.69,-122.85 795.5,-125.76 805.28,-129.83 805.69,-122.85"/>
</g>
<!-- Node17 -->
<g id="node17" class="node">
<title>Node17</title>
<g id="a_node17"><a xlink:href="include_2panoc-alm_2util_2problem_8hpp.html" target="_top" xlink:title=" ">
<polygon fill="white" stroke="black" points="880.48,-241 880.48,-260 1032.48,-260 1032.48,-241 880.48,-241"/>
<text text-anchor="middle" x="956.48" y="-248" font-family="Helvetica,sans-Serif" font-size="10.00">panoc&#45;alm/util/problem.hpp</text>
</a>
</g>
</g>
<!-- Node2&#45;&gt;Node17 -->
<g id="edge20" class="edge">
<title>Node2&#45;&gt;Node17</title>
<path fill="none" stroke="midnightblue" d="M763.56,-302.48C808.7,-290.55 872.67,-273.64 914.37,-262.63"/>
<polygon fill="midnightblue" stroke="midnightblue" points="915.43,-265.97 924.2,-260.03 913.64,-259.2 915.43,-265.97"/>
</g>
<!-- Node21 -->
<g id="node21" class="node">
<title>Node21</title>
<g id="a_node21"><a xlink:href="solverstatus_8hpp.html" target="_top" xlink:title=" ">
<polygon fill="white" stroke="black" points="1088.98,-241 1088.98,-260 1259.98,-260 1259.98,-241 1088.98,-241"/>
<text text-anchor="middle" x="1174.48" y="-248" font-family="Helvetica,sans-Serif" font-size="10.00">panoc&#45;alm/util/solverstatus.hpp</text>
</a>
</g>
</g>
<!-- Node2&#45;&gt;Node21 -->
<g id="edge25" class="edge">
<title>Node2&#45;&gt;Node21</title>
<path fill="none" stroke="midnightblue" d="M786.14,-306.14C859.78,-296.03 974.83,-280.14 1074.48,-266 1084.68,-264.55 1095.47,-263.01 1106.03,-261.48"/>
<polygon fill="midnightblue" stroke="midnightblue" points="1106.66,-264.93 1116.06,-260.03 1105.66,-258 1106.66,-264.93"/>
</g>
<!-- Node23 -->
<g id="node23" class="node">
<title>Node23</title>
<g id="a_node23"><a xlink:title=" ">
<polygon fill="white" stroke="#bfbfbf" points="632.48,-241 632.48,-260 682.48,-260 682.48,-241 632.48,-241"/>
<text text-anchor="middle" x="657.48" y="-248" font-family="Helvetica,sans-Serif" font-size="10.00">chrono</text>
</a>
</g>
</g>
<!-- Node2&#45;&gt;Node23 -->
<g id="edge28" class="edge">
<title>Node2&#45;&gt;Node23</title>
<path fill="none" stroke="midnightblue" d="M698.98,-302.4C690.8,-292.36 679.77,-278.84 671.14,-268.25"/>
<polygon fill="midnightblue" stroke="midnightblue" points="673.6,-265.73 664.57,-260.19 668.18,-270.16 673.6,-265.73"/>
</g>
<!-- Node24 -->
<g id="node24" class="node">
<title>Node24</title>
<g id="a_node24"><a xlink:title=" ">
<polygon fill="white" stroke="#bfbfbf" points="370.48,-241 370.48,-260 414.48,-260 414.48,-241 370.48,-241"/>
<text text-anchor="middle" x="392.48" y="-248" font-family="Helvetica,sans-Serif" font-size="10.00">limits</text>
</a>
</g>
</g>
<!-- Node2&#45;&gt;Node24 -->
<g id="edge29" class="edge">
<title>Node2&#45;&gt;Node24</title>
<path fill="none" stroke="midnightblue" d="M634.86,-308.71C576.22,-301.36 493.43,-288.09 423.48,-266 421.61,-265.41 419.71,-264.73 417.81,-264"/>
<polygon fill="midnightblue" stroke="midnightblue" points="419.14,-260.75 408.57,-260 416.36,-267.18 419.14,-260.75"/>
</g>
<!-- Node25 -->
<g id="node25" class="node">
<title>Node25</title>
<g id="a_node25"><a xlink:title=" ">
<polygon fill="white" stroke="#bfbfbf" points="432.48,-241 432.48,-260 476.48,-260 476.48,-241 432.48,-241"/>
<text text-anchor="middle" x="454.48" y="-248" font-family="Helvetica,sans-Serif" font-size="10.00">string</text>
</a>
</g>
</g>
<!-- Node2&#45;&gt;Node25 -->
<g id="edge30" class="edge">
<title>Node2&#45;&gt;Node25</title>
<path fill="none" stroke="midnightblue" d="M634.87,-303.77C590.66,-295.29 534.16,-282.63 485.48,-266 483.82,-265.43 482.13,-264.8 480.43,-264.13"/>
<polygon fill="midnightblue" stroke="midnightblue" points="481.51,-260.78 470.94,-260.01 478.72,-267.2 481.51,-260.78"/>
</g>
<!-- Node5 -->
<g id="node5" class="node">
<title>Node5</title>
<g id="a_node5"><a xlink:href="lbfgs-fwd_8hpp.html" target="_top" xlink:title=" ">
<polygon fill="white" stroke="black" points="247.98,-168.5 247.98,-198.5 394.98,-198.5 394.98,-168.5 247.98,-168.5"/>
<text text-anchor="start" x="255.98" y="-186.5" font-family="Helvetica,sans-Serif" font-size="10.00">panoc&#45;alm/inner/directions</text>
<text text-anchor="middle" x="321.48" y="-175.5" font-family="Helvetica,sans-Serif" font-size="10.00">/decl/lbfgs&#45;fwd.hpp</text>
</a>
</g>
</g>
<!-- Node4&#45;&gt;Node5 -->
<g id="edge4" class="edge">
<title>Node4&#45;&gt;Node5</title>
<path fill="none" stroke="midnightblue" d="M269.02,-235.4C277.97,-226.71 289.63,-215.4 299.67,-205.66"/>
<polygon fill="midnightblue" stroke="midnightblue" points="302.23,-208.05 306.97,-198.58 297.36,-203.03 302.23,-208.05"/>
</g>
<!-- Node7 -->
<g id="node7" class="node">
<title>Node7</title>
<g id="a_node7"><a xlink:title=" ">
<polygon fill="white" stroke="#bfbfbf" points="1308.98,-174 1308.98,-193 1365.98,-193 1365.98,-174 1308.98,-174"/>
<text text-anchor="middle" x="1337.48" y="-181" font-family="Helvetica,sans-Serif" font-size="10.00">ostream</text>
</a>
</g>
</g>
<!-- Node6&#45;&gt;Node7 -->
<g id="edge6" class="edge">
<title>Node6&#45;&gt;Node7</title>
<path fill="none" stroke="midnightblue" d="M1337.48,-235.4C1337.48,-226.06 1337.48,-213.71 1337.48,-203.52"/>
<polygon fill="midnightblue" stroke="midnightblue" points="1340.98,-203.19 1337.48,-193.19 1333.98,-203.19 1340.98,-203.19"/>
</g>
<!-- Node6&#45;&gt;Node8 -->
<g id="edge7" class="edge">
<title>Node6&#45;&gt;Node8</title>
<path fill="none" stroke="midnightblue" d="M1356.58,-235.4C1371.06,-224.7 1390.91,-210.03 1405.59,-199.19"/>
<polygon fill="midnightblue" stroke="midnightblue" points="1408,-201.76 1413.96,-193.01 1403.84,-196.13 1408,-201.76"/>
</g>
<!-- Node9&#45;&gt;Node5 -->
<g id="edge13" class="edge">
<title>Node9&#45;&gt;Node5</title>
<path fill="none" stroke="midnightblue" d="M150.52,-235.48C183.92,-225.51 228.96,-212.09 264.42,-201.51"/>
<polygon fill="midnightblue" stroke="midnightblue" points="265.57,-204.82 274.16,-198.61 263.57,-198.11 265.57,-204.82"/>
</g>
<!-- Node10 -->
<g id="node10" class="node">
<title>Node10</title>
<g id="a_node10"><a xlink:href="box_8hpp.html" target="_top" xlink:title=" ">
<polygon fill="white" stroke="black" points="154.98,-112.5 154.98,-131.5 283.98,-131.5 283.98,-112.5 154.98,-112.5"/>
<text text-anchor="middle" x="219.48" y="-119.5" font-family="Helvetica,sans-Serif" font-size="10.00">panoc&#45;alm/util/box.hpp</text>
</a>
</g>
</g>
<!-- Node9&#45;&gt;Node10 -->
<g id="edge9" class="edge">
<title>Node9&#45;&gt;Node10</title>
<path fill="none" stroke="midnightblue" d="M148.53,-235.39C167.1,-227.45 187.31,-215.7 200.48,-199 213.48,-182.52 217.71,-158.28 219.02,-141.63"/>
<polygon fill="midnightblue" stroke="midnightblue" points="222.53,-141.67 219.53,-131.5 215.53,-141.31 222.53,-141.67"/>
</g>
<!-- Node11 -->
<g id="node11" class="node">
<title>Node11</title>
<g id="a_node11"><a xlink:href="vec_8hpp.html" target="_top" xlink:title=" ">
<polygon fill="white" stroke="black" points="191.98,-56.5 191.98,-75.5 246.98,-75.5 246.98,-56.5 191.98,-56.5"/>
<text text-anchor="middle" x="219.48" y="-63.5" font-family="Helvetica,sans-Serif" font-size="10.00">vec.hpp</text>
</a>
</g>
</g>
<!-- Node9&#45;&gt;Node11 -->
<g id="edge12" class="edge">
<title>Node9&#45;&gt;Node11</title>
<path fill="none" stroke="midnightblue" d="M52.34,-235.43C34.31,-227.74 15.94,-216.16 5.48,-199 -1.69,-187.24 -1.89,-179.64 5.48,-168 44.29,-106.77 131.26,-81.97 181.57,-72.46"/>
<polygon fill="midnightblue" stroke="midnightblue" points="182.49,-75.85 191.72,-70.66 181.26,-68.96 182.49,-75.85"/>
</g>
<!-- Node13 -->
<g id="node13" class="node">
<title>Node13</title>
<g id="a_node13"><a xlink:href="panoc-direction-update_8hpp.html" target="_top" xlink:title=" ">
<polygon fill="white" stroke="black" points="14.98,-168.5 14.98,-198.5 191.98,-198.5 191.98,-168.5 14.98,-168.5"/>
<text text-anchor="start" x="22.98" y="-186.5" font-family="Helvetica,sans-Serif" font-size="10.00">panoc&#45;alm/inner/directions</text>
<text text-anchor="middle" x="103.48" y="-175.5" font-family="Helvetica,sans-Serif" font-size="10.00">/decl/panoc&#45;direction&#45;update.hpp</text>
</a>
</g>
</g>
<!-- Node9&#45;&gt;Node13 -->
<g id="edge14" class="edge">
<title>Node9&#45;&gt;Node13</title>
<path fill="none" stroke="midnightblue" d="M103.48,-235.4C103.48,-227.64 103.48,-217.81 103.48,-208.86"/>
<polygon fill="midnightblue" stroke="midnightblue" points="106.98,-208.58 103.48,-198.58 99.98,-208.58 106.98,-208.58"/>
</g>
<!-- Node10&#45;&gt;Node11 -->
<g id="edge10" class="edge">
<title>Node10&#45;&gt;Node11</title>
<path fill="none" stroke="midnightblue" d="M219.48,-112.08C219.48,-105.01 219.48,-94.86 219.48,-85.99"/>
<polygon fill="midnightblue" stroke="midnightblue" points="222.98,-85.75 219.48,-75.75 215.98,-85.75 222.98,-85.75"/>
</g>
<!-- Node12 -->
<g id="node12" class="node">
<title>Node12</title>
<g id="a_node12"><a xlink:title=" ">
<polygon fill="white" stroke="#bfbfbf" points="184.98,-0.5 184.98,-19.5 253.98,-19.5 253.98,-0.5 184.98,-0.5"/>
<text text-anchor="middle" x="219.48" y="-7.5" font-family="Helvetica,sans-Serif" font-size="10.00">Eigen/Core</text>
</a>
</g>
</g>
<!-- Node11&#45;&gt;Node12 -->
<g id="edge11" class="edge">
<title>Node11&#45;&gt;Node12</title>
<path fill="none" stroke="midnightblue" d="M219.48,-56.08C219.48,-49.01 219.48,-38.86 219.48,-29.99"/>
<polygon fill="midnightblue" stroke="midnightblue" points="222.98,-29.75 219.48,-19.75 215.98,-29.75 222.98,-29.75"/>
</g>
<!-- Node13&#45;&gt;Node10 -->
<g id="edge15" class="edge">
<title>Node13&#45;&gt;Node10</title>
<path fill="none" stroke="midnightblue" d="M130.97,-168.4C149.91,-158.68 174.92,-145.86 193.52,-136.31"/>
<polygon fill="midnightblue" stroke="midnightblue" points="195.3,-139.34 202.6,-131.66 192.11,-133.11 195.3,-139.34"/>
</g>
<!-- Node14&#45;&gt;Node15 -->
<g id="edge17" class="edge">
<title>Node14&#45;&gt;Node15</title>
<path fill="none" stroke="midnightblue" d="M786.16,-235.4C775.67,-225.06 761.41,-211.02 750.53,-200.31"/>
<polygon fill="midnightblue" stroke="midnightblue" points="752.89,-197.72 743.31,-193.19 747.98,-202.71 752.89,-197.72"/>
</g>
<!-- Node16&#45;&gt;Node11 -->
<g id="edge19" class="edge">
<title>Node16&#45;&gt;Node11</title>
<path fill="none" stroke="midnightblue" d="M643.27,-112.77C534.58,-101.03 339.16,-79.93 257.24,-71.08"/>
<polygon fill="midnightblue" stroke="midnightblue" points="257.45,-67.58 247.13,-69.99 256.7,-74.54 257.45,-67.58"/>
</g>
<!-- Node17&#45;&gt;Node10 -->
<g id="edge21" class="edge">
<title>Node17&#45;&gt;Node10</title>
<path fill="none" stroke="midnightblue" d="M941.49,-240.96C910.39,-223.71 836.12,-184.94 768.48,-168 680.76,-146.03 423.01,-131.96 294.34,-126.11"/>
<polygon fill="midnightblue" stroke="midnightblue" points="294.32,-122.61 284.17,-125.65 294,-129.6 294.32,-122.61"/>
</g>
<!-- Node18 -->
<g id="node18" class="node">
<title>Node18</title>
<g id="a_node18"><a xlink:title=" ">
<polygon fill="white" stroke="#bfbfbf" points="866.98,-174 866.98,-193 931.98,-193 931.98,-174 866.98,-174"/>
<text text-anchor="middle" x="899.48" y="-181" font-family="Helvetica,sans-Serif" font-size="10.00">functional</text>
</a>
</g>
</g>
<!-- Node17&#45;&gt;Node18 -->
<g id="edge22" class="edge">
<title>Node17&#45;&gt;Node18</title>
<path fill="none" stroke="midnightblue" d="M948.79,-240.73C939.82,-230.5 924.79,-213.36 913.68,-200.69"/>
<polygon fill="midnightblue" stroke="midnightblue" points="916.27,-198.34 907.05,-193.13 911.01,-202.95 916.27,-198.34"/>
</g>
<!-- Node19 -->
<g id="node19" class="node">
<title>Node19</title>
<g id="a_node19"><a xlink:title=" ">
<polygon fill="white" stroke="#bfbfbf" points="950.48,-174 950.48,-193 1008.48,-193 1008.48,-174 950.48,-174"/>
<text text-anchor="middle" x="979.48" y="-181" font-family="Helvetica,sans-Serif" font-size="10.00">memory</text>
</a>
</g>
</g>
<!-- Node17&#45;&gt;Node19 -->
<g id="edge23" class="edge">
<title>Node17&#45;&gt;Node19</title>
<path fill="none" stroke="midnightblue" d="M959.58,-240.73C963,-231.09 968.58,-215.3 972.97,-202.91"/>
<polygon fill="midnightblue" stroke="midnightblue" points="976.39,-203.72 976.43,-193.13 969.79,-201.39 976.39,-203.72"/>
</g>
<!-- Node20 -->
<g id="node20" class="node">
<title>Node20</title>
<g id="a_node20"><a xlink:title=" ">
<polygon fill="white" stroke="#bfbfbf" points="529.98,-174 529.98,-193 598.98,-193 598.98,-174 529.98,-174"/>
<text text-anchor="middle" x="564.48" y="-181" font-family="Helvetica,sans-Serif" font-size="10.00">type_traits</text>
</a>
</g>
</g>
<!-- Node17&#45;&gt;Node20 -->
<g id="edge24" class="edge">
<title>Node17&#45;&gt;Node20</title>
<path fill="none" stroke="midnightblue" d="M906.6,-240.94C895.07,-238.98 882.85,-236.9 871.48,-235 778.26,-219.38 669.03,-201.52 609.24,-191.78"/>
<polygon fill="midnightblue" stroke="midnightblue" points="609.45,-188.27 599.02,-190.11 608.33,-195.18 609.45,-188.27"/>
</g>
<!-- Node22 -->
<g id="node22" class="node">
<title>Node22</title>
<g id="a_node22"><a xlink:title=" ">
<polygon fill="white" stroke="#bfbfbf" points="1150.48,-174 1150.48,-193 1198.48,-193 1198.48,-174 1150.48,-174"/>
<text text-anchor="middle" x="1174.48" y="-181" font-family="Helvetica,sans-Serif" font-size="10.00">iosfwd</text>
</a>
</g>
</g>
<!-- Node21&#45;&gt;Node22 -->
<g id="edge26" class="edge">
<title>Node21&#45;&gt;Node22</title>
<path fill="none" stroke="midnightblue" d="M1174.48,-240.73C1174.48,-231.18 1174.48,-215.62 1174.48,-203.28"/>
<polygon fill="midnightblue" stroke="midnightblue" points="1177.98,-203.13 1174.48,-193.13 1170.98,-203.13 1177.98,-203.13"/>
</g>
<!-- Node26&#45;&gt;Node6 -->
<g id="edge32" class="edge">
<title>Node26&#45;&gt;Node6</title>
<path fill="none" stroke="midnightblue" d="M1273.27,-302.4C1284.56,-293.45 1299.34,-281.74 1311.87,-271.8"/>
<polygon fill="midnightblue" stroke="midnightblue" points="1314.06,-274.53 1319.72,-265.58 1309.71,-269.05 1314.06,-274.53"/>
</g>
<!-- Node26&#45;&gt;Node8 -->
<g id="edge36" class="edge">
<title>Node26&#45;&gt;Node8</title>
<path fill="none" stroke="midnightblue" d="M1319.14,-309.65C1349.58,-303.16 1384.15,-290.53 1406.48,-266 1422.03,-248.92 1425.6,-221.62 1426.06,-203.38"/>
<polygon fill="midnightblue" stroke="midnightblue" points="1429.56,-203.36 1426.03,-193.37 1422.56,-203.38 1429.56,-203.36"/>
</g>
<!-- Node26&#45;&gt;Node14 -->
<g id="edge33" class="edge">
<title>Node26&#45;&gt;Node14</title>
<path fill="none" stroke="midnightblue" d="M1191.75,-309.52C1117.48,-301.06 990.88,-285.69 872.72,-266.14"/>
<polygon fill="midnightblue" stroke="midnightblue" points="873.21,-262.67 862.77,-264.48 872.06,-269.58 873.21,-262.67"/>
</g>
<!-- Node26&#45;&gt;Node17 -->
<g id="edge34" class="edge">
<title>Node26&#45;&gt;Node17</title>
<path fill="none" stroke="midnightblue" d="M1191.7,-302.64C1136.19,-290.57 1056.85,-273.32 1006,-262.26"/>
<polygon fill="midnightblue" stroke="midnightblue" points="1006.43,-258.78 995.91,-260.07 1004.94,-265.62 1006.43,-258.78"/>
</g>
<!-- Node26&#45;&gt;Node21 -->
<g id="edge35" class="edge">
<title>Node26&#45;&gt;Node21</title>
<path fill="none" stroke="midnightblue" d="M1237.91,-302.4C1224.78,-291.86 1206.85,-277.48 1193.41,-266.69"/>
<polygon fill="midnightblue" stroke="midnightblue" points="1195.31,-263.72 1185.32,-260.19 1190.92,-269.18 1195.31,-263.72"/>
</g>
<!-- Node27&#45;&gt;Node9 -->
<g id="edge38" class="edge">
<title>Node27&#45;&gt;Node9</title>
<path fill="none" stroke="midnightblue" d="M290.92,-302.48C253.98,-292.43 204.07,-278.86 165.04,-268.24"/>
<polygon fill="midnightblue" stroke="midnightblue" points="165.93,-264.86 155.37,-265.61 164.1,-271.61 165.93,-264.86"/>
</g>
<!-- Node27&#45;&gt;Node20 -->
<g id="edge39" class="edge">
<title>Node27&#45;&gt;Node20</title>
<path fill="none" stroke="midnightblue" d="M341.62,-302.31C341.34,-284.19 343.74,-253.01 361.48,-235 383.29,-212.87 466.62,-197.76 519.5,-190.18"/>
<polygon fill="midnightblue" stroke="midnightblue" points="520.22,-193.61 529.64,-188.76 519.25,-186.68 520.22,-193.61"/>
</g>
</g>
</svg>
