<?xml version="1.0" encoding="UTF-8" standalone="no"?>
<!DOCTYPE svg PUBLIC "-//W3C//DTD SVG 1.1//EN"
 "http://www.w3.org/Graphics/SVG/1.1/DTD/svg11.dtd">
<!-- Generated by graphviz version 2.43.0 (0)
 -->
<!-- Title: StructuredPANOCLBFGSProgressInfo Pages: 1 -->
<svg width="376pt" height="661pt"
 viewBox="0.00 0.00 375.50 661.00" xmlns="http://www.w3.org/2000/svg" xmlns:xlink="http://www.w3.org/1999/xlink">
<g id="graph0" class="graph" transform="scale(1 1) rotate(0) translate(4 657)">
<title>StructuredPANOCLBFGSProgressInfo</title>
<polygon fill="white" stroke="transparent" points="-4,4 -4,-657 371.5,-657 371.5,4 -4,4"/>
<!-- Node1 -->
<g id="node1" class="node">
<title>Node1</title>
<g id="a_node1"><a xlink:title=" ">
<polygon fill="#bfbfbf" stroke="black" points="154,-0.5 154,-222.5 347,-222.5 347,-0.5 154,-0.5"/>
<text text-anchor="middle" x="250.5" y="-210.5" font-family="Helvetica,sans-Serif" font-size="10.00">StructuredPANOCLBFGSProgressInfo</text>
<polyline fill="none" stroke="black" points="154,-203.5 347,-203.5 "/>
<text text-anchor="start" x="162" y="-191.5" font-family="Helvetica,sans-Serif" font-size="10.00">+ k</text>
<text text-anchor="start" x="162" y="-180.5" font-family="Helvetica,sans-Serif" font-size="10.00">+ x</text>
<text text-anchor="start" x="162" y="-169.5" font-family="Helvetica,sans-Serif" font-size="10.00">+ p</text>
<text text-anchor="start" x="162" y="-158.5" font-family="Helvetica,sans-Serif" font-size="10.00">+ norm_sq_p</text>
<text text-anchor="start" x="162" y="-147.5" font-family="Helvetica,sans-Serif" font-size="10.00">+ x_hat</text>
<text text-anchor="start" x="162" y="-136.5" font-family="Helvetica,sans-Serif" font-size="10.00">+ φγ</text>
<text text-anchor="start" x="162" y="-125.5" font-family="Helvetica,sans-Serif" font-size="10.00">+ ψ</text>
<text text-anchor="start" x="162" y="-114.5" font-family="Helvetica,sans-Serif" font-size="10.00">+ grad_ψ</text>
<text text-anchor="start" x="162" y="-103.5" font-family="Helvetica,sans-Serif" font-size="10.00">+ ψ_hat</text>
<text text-anchor="start" x="162" y="-92.5" font-family="Helvetica,sans-Serif" font-size="10.00">+ grad_ψ_hat</text>
<text text-anchor="start" x="162" y="-81.5" font-family="Helvetica,sans-Serif" font-size="10.00">+ L</text>
<text text-anchor="start" x="162" y="-70.5" font-family="Helvetica,sans-Serif" font-size="10.00">+ γ</text>
<text text-anchor="start" x="162" y="-59.5" font-family="Helvetica,sans-Serif" font-size="10.00">+ τ</text>
<text text-anchor="start" x="162" y="-48.5" font-family="Helvetica,sans-Serif" font-size="10.00">+ ε</text>
<text text-anchor="start" x="162" y="-37.5" font-family="Helvetica,sans-Serif" font-size="10.00">+ Σ</text>
<text text-anchor="start" x="162" y="-26.5" font-family="Helvetica,sans-Serif" font-size="10.00">+ y</text>
<polyline fill="none" stroke="black" points="154,-19.5 347,-19.5 "/>
<text text-anchor="middle" x="250.5" y="-7.5" font-family="Helvetica,sans-Serif" font-size="10.00"> </text>
</a>
</g>
</g>
<!-- Node2 -->
<g id="node2" class="node">
<title>Node2</title>
<g id="a_node2"><a xlink:href="namespacepa.html#structpa_1_1StructuredPANOCLBFGSParams" target="_top" xlink:title="Tuning parameters for the second order PANOC algorithm.">
<polygon fill="white" stroke="black" points="93.5,-270.5 93.5,-503.5 261.5,-503.5 261.5,-270.5 93.5,-270.5"/>
<text text-anchor="middle" x="177.5" y="-491.5" font-family="Helvetica,sans-Serif" font-size="10.00">StructuredPANOCLBFGSParams</text>
<polyline fill="none" stroke="black" points="93.5,-484.5 261.5,-484.5 "/>
<text text-anchor="start" x="101.5" y="-472.5" font-family="Helvetica,sans-Serif" font-size="10.00">+ max_iter</text>
<text text-anchor="start" x="101.5" y="-461.5" font-family="Helvetica,sans-Serif" font-size="10.00">+ τ_min</text>
<text text-anchor="start" x="101.5" y="-450.5" font-family="Helvetica,sans-Serif" font-size="10.00">+ L_min</text>
<text text-anchor="start" x="101.5" y="-439.5" font-family="Helvetica,sans-Serif" font-size="10.00">+ L_max</text>
<text text-anchor="start" x="101.5" y="-428.5" font-family="Helvetica,sans-Serif" font-size="10.00">+ nonmonotone_linesearch</text>
<text text-anchor="start" x="101.5" y="-417.5" font-family="Helvetica,sans-Serif" font-size="10.00">+ stop_crit</text>
<text text-anchor="start" x="101.5" y="-406.5" font-family="Helvetica,sans-Serif" font-size="10.00">+ max_no_progress</text>
<text text-anchor="start" x="101.5" y="-395.5" font-family="Helvetica,sans-Serif" font-size="10.00">+ print_interval</text>
<text text-anchor="start" x="101.5" y="-384.5" font-family="Helvetica,sans-Serif" font-size="10.00">+ quadratic_upperbound</text>
<text text-anchor="start" x="101.5" y="-373.5" font-family="Helvetica,sans-Serif" font-size="10.00">_tolerance_factor</text>
<text text-anchor="start" x="101.5" y="-362.5" font-family="Helvetica,sans-Serif" font-size="10.00">+ update_lipschitz_in</text>
<text text-anchor="start" x="101.5" y="-351.5" font-family="Helvetica,sans-Serif" font-size="10.00">_linesearch</text>
<text text-anchor="start" x="101.5" y="-340.5" font-family="Helvetica,sans-Serif" font-size="10.00">+ alternative_linesearch_cond</text>
<text text-anchor="start" x="101.5" y="-329.5" font-family="Helvetica,sans-Serif" font-size="10.00">+ hessian_vec_finited</text>
<text text-anchor="start" x="101.5" y="-318.5" font-family="Helvetica,sans-Serif" font-size="10.00">_differences</text>
<text text-anchor="start" x="101.5" y="-307.5" font-family="Helvetica,sans-Serif" font-size="10.00">+ full_augmented_hessian</text>
<text text-anchor="start" x="101.5" y="-296.5" font-family="Helvetica,sans-Serif" font-size="10.00">+ lbfgs_stepsize</text>
<polyline fill="none" stroke="black" points="93.5,-289.5 261.5,-289.5 "/>
<text text-anchor="middle" x="177.5" y="-277.5" font-family="Helvetica,sans-Serif" font-size="10.00"> </text>
</a>
</g>
</g>
<!-- Node2&#45;&gt;Node1 -->
<g id="edge1" class="edge">
<title>Node2&#45;&gt;Node1</title>
<path fill="none" stroke="#404040" d="M208.35,-270.41C211.5,-258.6 214.71,-246.57 217.88,-234.7"/>
<polygon fill="none" stroke="#404040" points="217.94,-234.48 215.63,-227.65 221.04,-222.88 223.35,-229.71 217.94,-234.48"/>
<text text-anchor="middle" x="241" y="-244" font-family="Helvetica,sans-Serif" font-size="10.00"> +params</text>
</g>
<!-- Node3 -->
<g id="node3" class="node">
<title>Node3</title>
<g id="a_node3"><a xlink:href="namespacepa.html#structpa_1_1LipschitzEstimateParams" target="_top" xlink:title=" ">
<polygon fill="white" stroke="black" points="0,-562.5 0,-652.5 139,-652.5 139,-562.5 0,-562.5"/>
<text text-anchor="middle" x="69.5" y="-640.5" font-family="Helvetica,sans-Serif" font-size="10.00">LipschitzEstimateParams</text>
<polyline fill="none" stroke="black" points="0,-633.5 139,-633.5 "/>
<text text-anchor="start" x="8" y="-621.5" font-family="Helvetica,sans-Serif" font-size="10.00">+ L₀</text>
<text text-anchor="start" x="8" y="-610.5" font-family="Helvetica,sans-Serif" font-size="10.00">+ ε</text>
<text text-anchor="start" x="8" y="-599.5" font-family="Helvetica,sans-Serif" font-size="10.00">+ δ</text>
<text text-anchor="start" x="8" y="-588.5" font-family="Helvetica,sans-Serif" font-size="10.00">+ Lγ_factor</text>
<polyline fill="none" stroke="black" points="0,-581.5 139,-581.5 "/>
<text text-anchor="middle" x="69.5" y="-569.5" font-family="Helvetica,sans-Serif" font-size="10.00"> </text>
</a>
</g>
</g>
<!-- Node3&#45;&gt;Node2 -->
<g id="edge2" class="edge">
<title>Node3&#45;&gt;Node2</title>
<path fill="none" stroke="#404040" d="M91.36,-562.28C98.33,-548.17 106.44,-531.77 114.83,-514.8"/>
<polygon fill="none" stroke="#404040" points="115.05,-514.34 114.13,-507.18 120.37,-503.58 121.3,-510.73 115.05,-514.34"/>
<text text-anchor="middle" x="139" y="-530.5" font-family="Helvetica,sans-Serif" font-size="10.00"> +Lipschitz</text>
</g>
<!-- Node4 -->
<g id="node4" class="node">
<title>Node4</title>
<g id="a_node4"><a xlink:title=" ">
<polygon fill="white" stroke="#bfbfbf" points="157.5,-579 157.5,-636 241.5,-636 241.5,-579 157.5,-579"/>
<text text-anchor="middle" x="199.5" y="-624" font-family="Helvetica,sans-Serif" font-size="10.00">microseconds</text>
<polyline fill="none" stroke="#bfbfbf" points="157.5,-617 241.5,-617 "/>
<text text-anchor="middle" x="199.5" y="-605" font-family="Helvetica,sans-Serif" font-size="10.00"> </text>
<polyline fill="none" stroke="#bfbfbf" points="157.5,-598 241.5,-598 "/>
<text text-anchor="middle" x="199.5" y="-586" font-family="Helvetica,sans-Serif" font-size="10.00"> </text>
</a>
</g>
</g>
<!-- Node4&#45;&gt;Node2 -->
<g id="edge3" class="edge">
<title>Node4&#45;&gt;Node2</title>
<path fill="none" stroke="#404040" d="M196.71,-578.83C195.03,-562.13 192.76,-539.52 190.36,-515.7"/>
<polygon fill="none" stroke="#404040" points="190.34,-515.49 185.76,-509.92 189.13,-503.55 193.72,-509.12 190.34,-515.49"/>
<text text-anchor="middle" x="224" y="-530.5" font-family="Helvetica,sans-Serif" font-size="10.00"> +max_time</text>
</g>
<!-- Node5 -->
<g id="node5" class="node">
<title>Node5</title>
<g id="a_node5"><a xlink:href="structpa_1_1Problem.html" target="_top" xlink:title="Problem description for minimization problems.">
<polygon fill="white" stroke="black" points="279.5,-303.5 279.5,-470.5 367.5,-470.5 367.5,-303.5 279.5,-303.5"/>
<text text-anchor="middle" x="323.5" y="-458.5" font-family="Helvetica,sans-Serif" font-size="10.00">Problem</text>
<polyline fill="none" stroke="black" points="279.5,-451.5 367.5,-451.5 "/>
<text text-anchor="start" x="287.5" y="-439.5" font-family="Helvetica,sans-Serif" font-size="10.00">+ n</text>
<text text-anchor="start" x="287.5" y="-428.5" font-family="Helvetica,sans-Serif" font-size="10.00">+ m</text>
<text text-anchor="start" x="287.5" y="-417.5" font-family="Helvetica,sans-Serif" font-size="10.00">+ f</text>
<text text-anchor="start" x="287.5" y="-406.5" font-family="Helvetica,sans-Serif" font-size="10.00">+ grad_f</text>
<text text-anchor="start" x="287.5" y="-395.5" font-family="Helvetica,sans-Serif" font-size="10.00">+ g</text>
<text text-anchor="start" x="287.5" y="-384.5" font-family="Helvetica,sans-Serif" font-size="10.00">+ grad_g_prod</text>
<text text-anchor="start" x="287.5" y="-373.5" font-family="Helvetica,sans-Serif" font-size="10.00">+ grad_gi</text>
<text text-anchor="start" x="287.5" y="-362.5" font-family="Helvetica,sans-Serif" font-size="10.00">+ hess_L_prod</text>
<text text-anchor="start" x="287.5" y="-351.5" font-family="Helvetica,sans-Serif" font-size="10.00">+ hess_L</text>
<polyline fill="none" stroke="black" points="279.5,-344.5 367.5,-344.5 "/>
<text text-anchor="start" x="287.5" y="-332.5" font-family="Helvetica,sans-Serif" font-size="10.00">+ Problem()</text>
<text text-anchor="start" x="287.5" y="-321.5" font-family="Helvetica,sans-Serif" font-size="10.00">+ Problem()</text>
<text text-anchor="start" x="287.5" y="-310.5" font-family="Helvetica,sans-Serif" font-size="10.00">+ Problem()</text>
</a>
</g>
</g>
<!-- Node5&#45;&gt;Node1 -->
<g id="edge4" class="edge">
<title>Node5&#45;&gt;Node1</title>
<path fill="none" stroke="#404040" d="M301.4,-303.2C295.62,-281.54 289.27,-257.74 283.07,-234.51"/>
<polygon fill="none" stroke="#404040" points="283.03,-234.39 277.62,-229.63 279.94,-222.8 285.35,-227.56 283.03,-234.39"/>
<text text-anchor="middle" x="313.5" y="-244" font-family="Helvetica,sans-Serif" font-size="10.00"> +problem</text>
</g>
<!-- Node6 -->
<g id="node6" class="node">
<title>Node6</title>
<g id="a_node6"><a xlink:href="namespacepa.html#structpa_1_1Box" target="_top" xlink:title=" ">
<polygon fill="white" stroke="black" points="280.5,-573.5 280.5,-641.5 366.5,-641.5 366.5,-573.5 280.5,-573.5"/>
<text text-anchor="middle" x="323.5" y="-629.5" font-family="Helvetica,sans-Serif" font-size="10.00">Box</text>
<polyline fill="none" stroke="black" points="280.5,-622.5 366.5,-622.5 "/>
<text text-anchor="start" x="288.5" y="-610.5" font-family="Helvetica,sans-Serif" font-size="10.00">+ upperbound</text>
<text text-anchor="start" x="288.5" y="-599.5" font-family="Helvetica,sans-Serif" font-size="10.00">+ lowerbound</text>
<polyline fill="none" stroke="black" points="280.5,-592.5 366.5,-592.5 "/>
<text text-anchor="middle" x="323.5" y="-580.5" font-family="Helvetica,sans-Serif" font-size="10.00"> </text>
</a>
</g>
</g>
<!-- Node6&#45;&gt;Node5 -->
<g id="edge5" class="edge">
<title>Node6&#45;&gt;Node5</title>
<path fill="none" stroke="#404040" d="M323.5,-573.31C323.5,-549.18 323.5,-515.21 323.5,-482.94"/>
<polygon fill="none" stroke="#404040" points="323.5,-482.67 319.5,-476.67 323.5,-470.67 327.5,-476.67 323.5,-482.67"/>
<text text-anchor="middle" x="333" y="-536" font-family="Helvetica,sans-Serif" font-size="10.00"> +C</text>
<text text-anchor="middle" x="333" y="-525" font-family="Helvetica,sans-Serif" font-size="10.00">+D</text>
</g>
</g>
</svg>
