<?xml version="1.0" encoding="UTF-8" standalone="no"?>
<!DOCTYPE svg PUBLIC "-//W3C//DTD SVG 1.1//EN"
 "http://www.w3.org/Graphics/SVG/1.1/DTD/svg11.dtd">
<!-- Generated by graphviz version 2.43.0 (0)
 -->
<!-- Title: changed_γ Pages: 1 -->
<svg width="537pt" height="88pt"
 viewBox="0.00 0.00 537.00 88.00" xmlns="http://www.w3.org/2000/svg" xmlns:xlink="http://www.w3.org/1999/xlink">
<g id="graph0" class="graph" transform="scale(1 1) rotate(0) translate(4 84)">
<title>changed_γ</title>
<polygon fill="white" stroke="transparent" points="-4,4 -4,-84 533,-84 533,4 -4,4"/>
<!-- Node1 -->
<g id="node1" class="node">
<title>Node1</title>
<g id="a_node1"><a xlink:title=" ">
<polygon fill="#bfbfbf" stroke="black" points="0,-30 0,-49 69,-49 69,-30 0,-30"/>
<text text-anchor="middle" x="34.5" y="-37" font-family="Helvetica,sans-Serif" font-size="10.00">changed_γ</text>
</a>
</g>
</g>
<!-- Node2 -->
<g id="node2" class="node">
<title>Node2</title>
<g id="a_node2"><a xlink:href="classpa_1_1AndersonAccel.html#af1f7f1b0b1868cb2e03aa548c0ae2e85" target="_top" xlink:title=" ">
<polygon fill="white" stroke="black" points="105,-24.5 105,-54.5 218,-54.5 218,-24.5 105,-24.5"/>
<text text-anchor="start" x="113" y="-42.5" font-family="Helvetica,sans-Serif" font-size="10.00">pa::AndersonAccel::</text>
<text text-anchor="middle" x="161.5" y="-31.5" font-family="Helvetica,sans-Serif" font-size="10.00">reinitialize</text>
</a>
</g>
</g>
<!-- Node1&#45;&gt;Node2 -->
<g id="edge1" class="edge">
<title>Node1&#45;&gt;Node2</title>
<path fill="none" stroke="midnightblue" d="M69.33,-39.5C77.31,-39.5 86.09,-39.5 94.96,-39.5"/>
<polygon fill="midnightblue" stroke="midnightblue" points="94.96,-43 104.96,-39.5 94.96,-36 94.96,-43"/>
</g>
<!-- Node3 -->
<g id="node3" class="node">
<title>Node3</title>
<g id="a_node3"><a xlink:href="classpa_1_1AndersonAccel.html#ad20897c5c8bd47f5d4005989bead0e55" target="_top" xlink:title=" ">
<polygon fill="white" stroke="black" points="254,-24.5 254,-54.5 367,-54.5 367,-24.5 254,-24.5"/>
<text text-anchor="start" x="262" y="-42.5" font-family="Helvetica,sans-Serif" font-size="10.00">pa::AndersonAccel::</text>
<text text-anchor="middle" x="310.5" y="-31.5" font-family="Helvetica,sans-Serif" font-size="10.00">reset</text>
</a>
</g>
</g>
<!-- Node2&#45;&gt;Node3 -->
<g id="edge2" class="edge">
<title>Node2&#45;&gt;Node3</title>
<path fill="none" stroke="midnightblue" d="M218.07,-39.5C226.49,-39.5 235.24,-39.5 243.84,-39.5"/>
<polygon fill="midnightblue" stroke="midnightblue" points="243.85,-43 253.85,-39.5 243.85,-36 243.85,-43"/>
</g>
<!-- Node4 -->
<g id="node4" class="node">
<title>Node4</title>
<g id="a_node4"><a xlink:href="classpa_1_1LimitedMemoryQR.html#ad20897c5c8bd47f5d4005989bead0e55" target="_top" xlink:title="Reset all indices, clearing the Q and R matrices.">
<polygon fill="white" stroke="black" points="403,-49.5 403,-79.5 529,-79.5 529,-49.5 403,-49.5"/>
<text text-anchor="start" x="411" y="-67.5" font-family="Helvetica,sans-Serif" font-size="10.00">pa::LimitedMemoryQR</text>
<text text-anchor="middle" x="466" y="-56.5" font-family="Helvetica,sans-Serif" font-size="10.00">::reset</text>
</a>
</g>
</g>
<!-- Node3&#45;&gt;Node4 -->
<g id="edge3" class="edge">
<title>Node3&#45;&gt;Node4</title>
<path fill="none" stroke="midnightblue" d="M367.35,-48.6C375.67,-49.95 384.34,-51.36 392.93,-52.76"/>
<polygon fill="midnightblue" stroke="midnightblue" points="392.53,-56.24 402.96,-54.4 393.65,-49.33 392.53,-56.24"/>
</g>
<!-- Node5 -->
<g id="node5" class="node">
<title>Node5</title>
<g id="a_node5"><a xlink:href="classpa_1_1LimitedMemoryQR.html#a25b6259a3ee886a9a54f3a66ab019084" target="_top" xlink:title="Get the tail index of the circular buffer (points to one past the most recent element).">
<polygon fill="white" stroke="black" points="403,-0.5 403,-30.5 529,-30.5 529,-0.5 403,-0.5"/>
<text text-anchor="start" x="411" y="-18.5" font-family="Helvetica,sans-Serif" font-size="10.00">pa::LimitedMemoryQR</text>
<text text-anchor="middle" x="466" y="-7.5" font-family="Helvetica,sans-Serif" font-size="10.00">::ring_tail</text>
</a>
</g>
</g>
<!-- Node3&#45;&gt;Node5 -->
<g id="edge4" class="edge">
<title>Node3&#45;&gt;Node5</title>
<path fill="none" stroke="midnightblue" d="M367.35,-30.77C375.67,-29.47 384.34,-28.11 392.93,-26.77"/>
<polygon fill="midnightblue" stroke="midnightblue" points="393.62,-30.2 402.96,-25.2 392.54,-23.29 393.62,-30.2"/>
</g>
</g>
</svg>
