<?xml version="1.0" encoding="UTF-8" standalone="no"?>
<!DOCTYPE svg PUBLIC "-//W3C//DTD SVG 1.1//EN"
 "http://www.w3.org/Graphics/SVG/1.1/DTD/svg11.dtd">
<!-- Generated by graphviz version 2.43.0 (0)
 -->
<!-- Title: guarded&#45;aa&#45;pga.hpp Pages: 1 -->
<svg width="1214pt" height="330pt"
 viewBox="0.00 0.00 1214.00 330.00" xmlns="http://www.w3.org/2000/svg" xmlns:xlink="http://www.w3.org/1999/xlink">
<g id="graph0" class="graph" transform="scale(1 1) rotate(0) translate(4 326)">
<title>guarded&#45;aa&#45;pga.hpp</title>
<polygon fill="white" stroke="transparent" points="-4,4 -4,-326 1210,-326 1210,4 -4,4"/>
<!-- Node1 -->
<g id="node1" class="node">
<title>Node1</title>
<g id="a_node1"><a xlink:title=" ">
<polygon fill="#bfbfbf" stroke="black" points="753,-302.5 753,-321.5 868,-321.5 868,-302.5 753,-302.5"/>
<text text-anchor="middle" x="810.5" y="-309.5" font-family="Helvetica,sans-Serif" font-size="10.00">guarded&#45;aa&#45;pga.hpp</text>
</a>
</g>
</g>
<!-- Node2 -->
<g id="node2" class="node">
<title>Node2</title>
<g id="a_node2"><a xlink:title=" ">
<polygon fill="white" stroke="#bfbfbf" points="0,-56.5 0,-75.5 53,-75.5 53,-56.5 0,-56.5"/>
<text text-anchor="middle" x="26.5" y="-63.5" font-family="Helvetica,sans-Serif" font-size="10.00">cstddef</text>
</a>
</g>
</g>
<!-- Node1&#45;&gt;Node2 -->
<g id="edge1" class="edge">
<title>Node1&#45;&gt;Node2</title>
<path fill="none" stroke="midnightblue" d="M752.73,-309.49C602.2,-305.22 205.84,-291.65 152.5,-266 79.64,-230.97 60.56,-206.64 29.5,-132 23.4,-117.33 23.09,-99.17 24.06,-85.77"/>
<polygon fill="midnightblue" stroke="midnightblue" points="27.54,-86.12 25.07,-75.82 20.58,-85.42 27.54,-86.12"/>
</g>
<!-- Node3 -->
<g id="node3" class="node">
<title>Node3</title>
<g id="a_node3"><a xlink:href="../../da/d9f/anderson-helpers_8hpp.html" target="_top" xlink:title=" ">
<polygon fill="white" stroke="black" points="162,-235.5 162,-265.5 289,-265.5 289,-235.5 162,-235.5"/>
<text text-anchor="start" x="170" y="-253.5" font-family="Helvetica,sans-Serif" font-size="10.00">panoc&#45;alm/inner/detail</text>
<text text-anchor="middle" x="225.5" y="-242.5" font-family="Helvetica,sans-Serif" font-size="10.00">/anderson&#45;helpers.hpp</text>
</a>
</g>
</g>
<!-- Node1&#45;&gt;Node3 -->
<g id="edge2" class="edge">
<title>Node1&#45;&gt;Node3</title>
<path fill="none" stroke="midnightblue" d="M752.94,-308.04C659.65,-302.8 469.49,-290.19 299.19,-266.14"/>
<polygon fill="midnightblue" stroke="midnightblue" points="299.43,-262.64 289.04,-264.69 298.44,-269.57 299.43,-262.64"/>
</g>
<!-- Node10 -->
<g id="node10" class="node">
<title>Node10</title>
<g id="a_node10"><a xlink:href="../../d8/df1/panoc-helpers_8hpp.html" target="_top" xlink:title=" ">
<polygon fill="white" stroke="black" points="307,-235.5 307,-265.5 434,-265.5 434,-235.5 307,-235.5"/>
<text text-anchor="start" x="315" y="-253.5" font-family="Helvetica,sans-Serif" font-size="10.00">panoc&#45;alm/inner/detail</text>
<text text-anchor="middle" x="370.5" y="-242.5" font-family="Helvetica,sans-Serif" font-size="10.00">/panoc&#45;helpers.hpp</text>
</a>
</g>
</g>
<!-- Node1&#45;&gt;Node10 -->
<g id="edge11" class="edge">
<title>Node1&#45;&gt;Node10</title>
<path fill="none" stroke="midnightblue" d="M752.79,-305.26C682.39,-297.96 559.56,-284.26 444.22,-266.04"/>
<polygon fill="midnightblue" stroke="midnightblue" points="444.58,-262.55 434.15,-264.43 443.48,-269.46 444.58,-262.55"/>
</g>
<!-- Node15 -->
<g id="node15" class="node">
<title>Node15</title>
<g id="a_node15"><a xlink:href="../../d4/d52/atomic__stop__signal_8hpp.html" target="_top" xlink:title=" ">
<polygon fill="white" stroke="black" points="452.5,-235.5 452.5,-265.5 576.5,-265.5 576.5,-235.5 452.5,-235.5"/>
<text text-anchor="start" x="460.5" y="-253.5" font-family="Helvetica,sans-Serif" font-size="10.00">panoc&#45;alm/util/atomic</text>
<text text-anchor="middle" x="514.5" y="-242.5" font-family="Helvetica,sans-Serif" font-size="10.00">_stop_signal.hpp</text>
</a>
</g>
</g>
<!-- Node1&#45;&gt;Node15 -->
<g id="edge17" class="edge">
<title>Node1&#45;&gt;Node15</title>
<path fill="none" stroke="midnightblue" d="M767.36,-302.43C724.18,-293.83 655.57,-280.14 586.96,-266.29"/>
<polygon fill="midnightblue" stroke="midnightblue" points="587.33,-262.8 576.84,-264.25 585.94,-269.66 587.33,-262.8"/>
</g>
<!-- Node17 -->
<g id="node17" class="node">
<title>Node17</title>
<g id="a_node17"><a xlink:href="../../dc/d8c/solverstatus_8hpp.html" target="_top" xlink:title=" ">
<polygon fill="white" stroke="black" points="595,-241 595,-260 766,-260 766,-241 595,-241"/>
<text text-anchor="middle" x="680.5" y="-248" font-family="Helvetica,sans-Serif" font-size="10.00">panoc&#45;alm/util/solverstatus.hpp</text>
</a>
</g>
</g>
<!-- Node1&#45;&gt;Node17 -->
<g id="edge19" class="edge">
<title>Node1&#45;&gt;Node17</title>
<path fill="none" stroke="midnightblue" d="M791.87,-302.48C770.06,-292.49 733.7,-275.85 708.48,-264.31"/>
<polygon fill="midnightblue" stroke="midnightblue" points="709.64,-260.99 699.09,-260.01 706.73,-267.35 709.64,-260.99"/>
</g>
<!-- Node19 -->
<g id="node19" class="node">
<title>Node19</title>
<g id="a_node19"><a xlink:title=" ">
<polygon fill="white" stroke="#bfbfbf" points="784.5,-241 784.5,-260 836.5,-260 836.5,-241 784.5,-241"/>
<text text-anchor="middle" x="810.5" y="-248" font-family="Helvetica,sans-Serif" font-size="10.00">cassert</text>
</a>
</g>
</g>
<!-- Node1&#45;&gt;Node19 -->
<g id="edge21" class="edge">
<title>Node1&#45;&gt;Node19</title>
<path fill="none" stroke="midnightblue" d="M810.5,-302.48C810.5,-294.08 810.5,-280.98 810.5,-270.16"/>
<polygon fill="midnightblue" stroke="midnightblue" points="814,-270.01 810.5,-260.01 807,-270.01 814,-270.01"/>
</g>
<!-- Node20 -->
<g id="node20" class="node">
<title>Node20</title>
<g id="a_node20"><a xlink:title=" ">
<polygon fill="white" stroke="#bfbfbf" points="854.5,-241 854.5,-260 904.5,-260 904.5,-241 854.5,-241"/>
<text text-anchor="middle" x="879.5" y="-248" font-family="Helvetica,sans-Serif" font-size="10.00">chrono</text>
</a>
</g>
</g>
<!-- Node1&#45;&gt;Node20 -->
<g id="edge22" class="edge">
<title>Node1&#45;&gt;Node20</title>
<path fill="none" stroke="midnightblue" d="M820.39,-302.48C831.15,-293.2 848.57,-278.17 861.72,-266.83"/>
<polygon fill="midnightblue" stroke="midnightblue" points="864.34,-269.19 869.63,-260.01 859.77,-263.89 864.34,-269.19"/>
</g>
<!-- Node21 -->
<g id="node21" class="node">
<title>Node21</title>
<g id="a_node21"><a xlink:title=" ">
<polygon fill="white" stroke="#bfbfbf" points="923,-241 923,-260 970,-260 970,-241 923,-241"/>
<text text-anchor="middle" x="946.5" y="-248" font-family="Helvetica,sans-Serif" font-size="10.00">cmath</text>
</a>
</g>
</g>
<!-- Node1&#45;&gt;Node21 -->
<g id="edge23" class="edge">
<title>Node1&#45;&gt;Node21</title>
<path fill="none" stroke="midnightblue" d="M830.25,-302.39C850.99,-293.34 884.54,-278.69 913.5,-266 914.86,-265.4 916.25,-264.79 917.66,-264.18"/>
<polygon fill="midnightblue" stroke="midnightblue" points="919.21,-267.32 926.96,-260.09 916.4,-260.91 919.21,-267.32"/>
</g>
<!-- Node22 -->
<g id="node22" class="node">
<title>Node22</title>
<g id="a_node22"><a xlink:title=" ">
<polygon fill="white" stroke="#bfbfbf" points="988.5,-241 988.5,-260 1044.5,-260 1044.5,-241 988.5,-241"/>
<text text-anchor="middle" x="1016.5" y="-248" font-family="Helvetica,sans-Serif" font-size="10.00">iomanip</text>
</a>
</g>
</g>
<!-- Node1&#45;&gt;Node22 -->
<g id="edge24" class="edge">
<title>Node1&#45;&gt;Node22</title>
<path fill="none" stroke="midnightblue" d="M847.44,-302.44C881.92,-294.15 934.64,-280.71 979.5,-266 981.77,-265.26 984.1,-264.45 986.43,-263.61"/>
<polygon fill="midnightblue" stroke="midnightblue" points="987.78,-266.84 995.91,-260.05 985.32,-260.29 987.78,-266.84"/>
</g>
<!-- Node23 -->
<g id="node23" class="node">
<title>Node23</title>
<g id="a_node23"><a xlink:title=" ">
<polygon fill="white" stroke="#bfbfbf" points="1062.5,-241 1062.5,-260 1122.5,-260 1122.5,-241 1062.5,-241"/>
<text text-anchor="middle" x="1092.5" y="-248" font-family="Helvetica,sans-Serif" font-size="10.00">iostream</text>
</a>
</g>
</g>
<!-- Node1&#45;&gt;Node23 -->
<g id="edge25" class="edge">
<title>Node1&#45;&gt;Node23</title>
<path fill="none" stroke="midnightblue" d="M868.09,-303.21C917.73,-295.81 991.05,-283.25 1053.5,-266 1056.31,-265.22 1059.2,-264.33 1062.07,-263.38"/>
<polygon fill="midnightblue" stroke="midnightblue" points="1063.4,-266.63 1071.67,-260 1061.07,-260.02 1063.4,-266.63"/>
</g>
<!-- Node24 -->
<g id="node24" class="node">
<title>Node24</title>
<g id="a_node24"><a xlink:title=" ">
<polygon fill="white" stroke="#bfbfbf" points="1141,-241 1141,-260 1206,-260 1206,-241 1141,-241"/>
<text text-anchor="middle" x="1173.5" y="-248" font-family="Helvetica,sans-Serif" font-size="10.00">stdexcept</text>
</a>
</g>
</g>
<!-- Node1&#45;&gt;Node24 -->
<g id="edge26" class="edge">
<title>Node1&#45;&gt;Node24</title>
<path fill="none" stroke="midnightblue" d="M868.24,-306.29C932.99,-300.23 1040.81,-287.8 1131.5,-266 1134.73,-265.22 1138.05,-264.3 1141.35,-263.3"/>
<polygon fill="midnightblue" stroke="midnightblue" points="1142.64,-266.56 1151.07,-260.14 1140.48,-259.91 1142.64,-266.56"/>
</g>
<!-- Node4 -->
<g id="node4" class="node">
<title>Node4</title>
<g id="a_node4"><a xlink:href="../../db/da3/limited-memory-qr_8hpp.html" target="_top" xlink:title=" ">
<polygon fill="white" stroke="black" points="159,-168.5 159,-198.5 292,-198.5 292,-168.5 159,-168.5"/>
<text text-anchor="start" x="167" y="-186.5" font-family="Helvetica,sans-Serif" font-size="10.00">panoc&#45;alm/inner/detail</text>
<text text-anchor="middle" x="225.5" y="-175.5" font-family="Helvetica,sans-Serif" font-size="10.00">/limited&#45;memory&#45;qr.hpp</text>
</a>
</g>
</g>
<!-- Node3&#45;&gt;Node4 -->
<g id="edge3" class="edge">
<title>Node3&#45;&gt;Node4</title>
<path fill="none" stroke="midnightblue" d="M225.5,-235.4C225.5,-227.64 225.5,-217.81 225.5,-208.86"/>
<polygon fill="midnightblue" stroke="midnightblue" points="229,-208.58 225.5,-198.58 222,-208.58 229,-208.58"/>
</g>
<!-- Node4&#45;&gt;Node2 -->
<g id="edge5" class="edge">
<title>Node4&#45;&gt;Node2</title>
<path fill="none" stroke="midnightblue" d="M158.97,-179.35C121.09,-174.13 75.38,-161.56 45.5,-132 33.36,-120 28.88,-100.7 27.28,-86.25"/>
<polygon fill="midnightblue" stroke="midnightblue" points="30.74,-85.64 26.51,-75.92 23.76,-86.15 30.74,-85.64"/>
</g>
<!-- Node5 -->
<g id="node5" class="node">
<title>Node5</title>
<g id="a_node5"><a xlink:title=" ">
<polygon fill="white" stroke="#bfbfbf" points="54.5,-112.5 54.5,-131.5 130.5,-131.5 130.5,-112.5 54.5,-112.5"/>
<text text-anchor="middle" x="92.5" y="-119.5" font-family="Helvetica,sans-Serif" font-size="10.00">Eigen/Jacobi</text>
</a>
</g>
</g>
<!-- Node4&#45;&gt;Node5 -->
<g id="edge4" class="edge">
<title>Node4&#45;&gt;Node5</title>
<path fill="none" stroke="midnightblue" d="M193.98,-168.4C171.86,-158.51 142.53,-145.38 121.09,-135.79"/>
<polygon fill="midnightblue" stroke="midnightblue" points="122.41,-132.55 111.85,-131.66 119.55,-138.94 122.41,-132.55"/>
</g>
<!-- Node6 -->
<g id="node6" class="node">
<title>Node6</title>
<g id="a_node6"><a xlink:href="../../db/d0f/ringbuffer_8hpp.html" target="_top" xlink:title=" ">
<polygon fill="white" stroke="black" points="148.5,-112.5 148.5,-131.5 306.5,-131.5 306.5,-112.5 148.5,-112.5"/>
<text text-anchor="middle" x="227.5" y="-119.5" font-family="Helvetica,sans-Serif" font-size="10.00">panoc&#45;alm/util/ringbuffer.hpp</text>
</a>
</g>
</g>
<!-- Node4&#45;&gt;Node6 -->
<g id="edge6" class="edge">
<title>Node4&#45;&gt;Node6</title>
<path fill="none" stroke="midnightblue" d="M225.97,-168.4C226.24,-160.47 226.58,-150.46 226.87,-141.86"/>
<polygon fill="midnightblue" stroke="midnightblue" points="230.37,-141.77 227.21,-131.66 223.37,-141.53 230.37,-141.77"/>
</g>
<!-- Node8 -->
<g id="node8" class="node">
<title>Node8</title>
<g id="a_node8"><a xlink:href="../../d7/d7c/vec_8hpp.html" target="_top" xlink:title=" ">
<polygon fill="white" stroke="black" points="299.5,-56.5 299.5,-75.5 427.5,-75.5 427.5,-56.5 299.5,-56.5"/>
<text text-anchor="middle" x="363.5" y="-63.5" font-family="Helvetica,sans-Serif" font-size="10.00">panoc&#45;alm/util/vec.hpp</text>
</a>
</g>
</g>
<!-- Node4&#45;&gt;Node8 -->
<g id="edge9" class="edge">
<title>Node4&#45;&gt;Node8</title>
<path fill="none" stroke="midnightblue" d="M258.03,-168.42C276.16,-159.6 298.44,-147.06 315.5,-132 331.05,-118.27 344.65,-98.72 353.37,-84.65"/>
<polygon fill="midnightblue" stroke="midnightblue" points="356.46,-86.3 358.59,-75.92 350.45,-82.71 356.46,-86.3"/>
</g>
<!-- Node6&#45;&gt;Node2 -->
<g id="edge7" class="edge">
<title>Node6&#45;&gt;Node2</title>
<path fill="none" stroke="midnightblue" d="M195.65,-112.44C159.63,-102.77 101.07,-87.03 63.17,-76.85"/>
<polygon fill="midnightblue" stroke="midnightblue" points="63.63,-73.35 53.06,-74.14 61.81,-80.11 63.63,-73.35"/>
</g>
<!-- Node7 -->
<g id="node7" class="node">
<title>Node7</title>
<g id="a_node7"><a xlink:title=" ">
<polygon fill="white" stroke="#bfbfbf" points="201,-56.5 201,-75.5 254,-75.5 254,-56.5 201,-56.5"/>
<text text-anchor="middle" x="227.5" y="-63.5" font-family="Helvetica,sans-Serif" font-size="10.00">iterator</text>
</a>
</g>
</g>
<!-- Node6&#45;&gt;Node7 -->
<g id="edge8" class="edge">
<title>Node6&#45;&gt;Node7</title>
<path fill="none" stroke="midnightblue" d="M227.5,-112.08C227.5,-105.01 227.5,-94.86 227.5,-85.99"/>
<polygon fill="midnightblue" stroke="midnightblue" points="231,-85.75 227.5,-75.75 224,-85.75 231,-85.75"/>
</g>
<!-- Node9 -->
<g id="node9" class="node">
<title>Node9</title>
<g id="a_node9"><a xlink:title=" ">
<polygon fill="white" stroke="#bfbfbf" points="329,-0.5 329,-19.5 398,-19.5 398,-0.5 329,-0.5"/>
<text text-anchor="middle" x="363.5" y="-7.5" font-family="Helvetica,sans-Serif" font-size="10.00">Eigen/Core</text>
</a>
</g>
</g>
<!-- Node8&#45;&gt;Node9 -->
<g id="edge10" class="edge">
<title>Node8&#45;&gt;Node9</title>
<path fill="none" stroke="midnightblue" d="M363.5,-56.08C363.5,-49.01 363.5,-38.86 363.5,-29.99"/>
<polygon fill="midnightblue" stroke="midnightblue" points="367,-29.75 363.5,-19.75 360,-29.75 367,-29.75"/>
</g>
<!-- Node11 -->
<g id="node11" class="node">
<title>Node11</title>
<g id="a_node11"><a xlink:href="../../d5/d37/problem_8hpp.html" target="_top" xlink:title=" ">
<polygon fill="white" stroke="black" points="316.5,-174 316.5,-193 468.5,-193 468.5,-174 316.5,-174"/>
<text text-anchor="middle" x="392.5" y="-181" font-family="Helvetica,sans-Serif" font-size="10.00">panoc&#45;alm/util/problem.hpp</text>
</a>
</g>
</g>
<!-- Node10&#45;&gt;Node11 -->
<g id="edge12" class="edge">
<title>Node10&#45;&gt;Node11</title>
<path fill="none" stroke="midnightblue" d="M375.27,-235.4C378.5,-225.86 382.79,-213.18 386.29,-202.86"/>
<polygon fill="midnightblue" stroke="midnightblue" points="389.67,-203.79 389.56,-193.19 383.04,-201.54 389.67,-203.79"/>
</g>
<!-- Node12 -->
<g id="node12" class="node">
<title>Node12</title>
<g id="a_node12"><a xlink:href="../../d7/de4/box_8hpp.html" target="_top" xlink:title=" ">
<polygon fill="white" stroke="black" points="362.5,-112.5 362.5,-131.5 418.5,-131.5 418.5,-112.5 362.5,-112.5"/>
<text text-anchor="middle" x="390.5" y="-119.5" font-family="Helvetica,sans-Serif" font-size="10.00">box.hpp</text>
</a>
</g>
</g>
<!-- Node11&#45;&gt;Node12 -->
<g id="edge13" class="edge">
<title>Node11&#45;&gt;Node12</title>
<path fill="none" stroke="midnightblue" d="M392.21,-173.98C391.93,-165.58 391.49,-152.48 391.13,-141.66"/>
<polygon fill="midnightblue" stroke="midnightblue" points="394.62,-141.39 390.79,-131.51 387.62,-141.62 394.62,-141.39"/>
</g>
<!-- Node13 -->
<g id="node13" class="node">
<title>Node13</title>
<g id="a_node13"><a xlink:title=" ">
<polygon fill="white" stroke="#bfbfbf" points="437,-112.5 437,-131.5 502,-131.5 502,-112.5 437,-112.5"/>
<text text-anchor="middle" x="469.5" y="-119.5" font-family="Helvetica,sans-Serif" font-size="10.00">functional</text>
</a>
</g>
</g>
<!-- Node11&#45;&gt;Node13 -->
<g id="edge15" class="edge">
<title>Node11&#45;&gt;Node13</title>
<path fill="none" stroke="midnightblue" d="M403.53,-173.98C415.77,-164.52 435.73,-149.1 450.49,-137.69"/>
<polygon fill="midnightblue" stroke="midnightblue" points="452.72,-140.39 458.49,-131.51 448.44,-134.85 452.72,-140.39"/>
</g>
<!-- Node14 -->
<g id="node14" class="node">
<title>Node14</title>
<g id="a_node14"><a xlink:title=" ">
<polygon fill="white" stroke="#bfbfbf" points="520,-112.5 520,-131.5 589,-131.5 589,-112.5 520,-112.5"/>
<text text-anchor="middle" x="554.5" y="-119.5" font-family="Helvetica,sans-Serif" font-size="10.00">type_traits</text>
</a>
</g>
</g>
<!-- Node11&#45;&gt;Node14 -->
<g id="edge16" class="edge">
<title>Node11&#45;&gt;Node14</title>
<path fill="none" stroke="midnightblue" d="M415.71,-173.98C443.5,-163.77 490.22,-146.61 521.69,-135.05"/>
<polygon fill="midnightblue" stroke="midnightblue" points="523.15,-138.24 531.33,-131.51 520.74,-131.67 523.15,-138.24"/>
</g>
<!-- Node12&#45;&gt;Node8 -->
<g id="edge14" class="edge">
<title>Node12&#45;&gt;Node8</title>
<path fill="none" stroke="midnightblue" d="M386.04,-112.08C382.35,-104.69 376.98,-93.95 372.41,-84.81"/>
<polygon fill="midnightblue" stroke="midnightblue" points="375.48,-83.13 367.88,-75.75 369.22,-86.26 375.48,-83.13"/>
</g>
<!-- Node16 -->
<g id="node16" class="node">
<title>Node16</title>
<g id="a_node16"><a xlink:title=" ">
<polygon fill="white" stroke="#bfbfbf" points="489.5,-174 489.5,-193 539.5,-193 539.5,-174 489.5,-174"/>
<text text-anchor="middle" x="514.5" y="-181" font-family="Helvetica,sans-Serif" font-size="10.00">atomic</text>
</a>
</g>
</g>
<!-- Node15&#45;&gt;Node16 -->
<g id="edge18" class="edge">
<title>Node15&#45;&gt;Node16</title>
<path fill="none" stroke="midnightblue" d="M514.5,-235.4C514.5,-226.06 514.5,-213.71 514.5,-203.52"/>
<polygon fill="midnightblue" stroke="midnightblue" points="518,-203.19 514.5,-193.19 511,-203.19 518,-203.19"/>
</g>
<!-- Node18 -->
<g id="node18" class="node">
<title>Node18</title>
<g id="a_node18"><a xlink:title=" ">
<polygon fill="white" stroke="#bfbfbf" points="656.5,-174 656.5,-193 704.5,-193 704.5,-174 656.5,-174"/>
<text text-anchor="middle" x="680.5" y="-181" font-family="Helvetica,sans-Serif" font-size="10.00">iosfwd</text>
</a>
</g>
</g>
<!-- Node17&#45;&gt;Node18 -->
<g id="edge20" class="edge">
<title>Node17&#45;&gt;Node18</title>
<path fill="none" stroke="midnightblue" d="M680.5,-240.73C680.5,-231.18 680.5,-215.62 680.5,-203.28"/>
<polygon fill="midnightblue" stroke="midnightblue" points="684,-203.13 680.5,-193.13 677,-203.13 684,-203.13"/>
</g>
</g>
</svg>
