<?xml version="1.0" encoding="UTF-8" standalone="no"?>
<!DOCTYPE svg PUBLIC "-//W3C//DTD SVG 1.1//EN"
 "http://www.w3.org/Graphics/SVG/1.1/DTD/svg11.dtd">
<!-- Generated by graphviz version 2.43.0 (0)
 -->
<!-- Title: box.hpp Pages: 1 -->
<svg width="1878pt" height="308pt"
 viewBox="0.00 0.00 1878.00 308.00" xmlns="http://www.w3.org/2000/svg" xmlns:xlink="http://www.w3.org/1999/xlink">
<g id="graph0" class="graph" transform="scale(1 1) rotate(0) translate(4 304)">
<title>box.hpp</title>
<polygon fill="white" stroke="transparent" points="-4,4 -4,-304 1874,-304 1874,4 -4,4"/>
<!-- Node1 -->
<g id="node1" class="node">
<title>Node1</title>
<g id="a_node1"><a xlink:title=" ">
<polygon fill="#bfbfbf" stroke="black" points="836,-280.5 836,-299.5 892,-299.5 892,-280.5 836,-280.5"/>
<text text-anchor="middle" x="864" y="-287.5" font-family="Helvetica,sans-Serif" font-size="10.00">box.hpp</text>
</a>
</g>
</g>
<!-- Node2 -->
<g id="node2" class="node">
<title>Node2</title>
<g id="a_node2"><a xlink:href="../../d1/db5/decl_2lbfgs_8hpp.html" target="_top" xlink:title=" ">
<polygon fill="white" stroke="black" points="693,-168.5 693,-187.5 755,-187.5 755,-168.5 693,-168.5"/>
<text text-anchor="middle" x="724" y="-175.5" font-family="Helvetica,sans-Serif" font-size="10.00">lbfgs.hpp</text>
</a>
</g>
</g>
<!-- Node1&#45;&gt;Node2 -->
<g id="edge1" class="edge">
<title>Node1&#45;&gt;Node2</title>
<path fill="none" stroke="midnightblue" d="M845.06,-274.12C815.34,-250.77 758.71,-206.27 734.93,-187.59"/>
<polygon fill="midnightblue" stroke="midnightblue" points="842.99,-276.94 853.01,-280.37 847.31,-271.44 842.99,-276.94"/>
</g>
<!-- Node14 -->
<g id="node14" class="node">
<title>Node14</title>
<g id="a_node14"><a xlink:href="../../d3/dfa/panoc-direction-update_8hpp.html" target="_top" xlink:title=" ">
<polygon fill="white" stroke="black" points="178.5,-168.5 178.5,-187.5 329.5,-187.5 329.5,-168.5 178.5,-168.5"/>
<text text-anchor="middle" x="254" y="-175.5" font-family="Helvetica,sans-Serif" font-size="10.00">panoc&#45;direction&#45;update.hpp</text>
</a>
</g>
</g>
<!-- Node1&#45;&gt;Node14 -->
<g id="edge14" class="edge">
<title>Node1&#45;&gt;Node14</title>
<path fill="none" stroke="midnightblue" d="M825.81,-282.11C719.14,-262.88 418.24,-208.62 301.3,-187.53"/>
<polygon fill="midnightblue" stroke="midnightblue" points="825.34,-285.58 835.8,-283.92 826.58,-278.7 825.34,-285.58"/>
</g>
<!-- Node17 -->
<g id="node17" class="node">
<title>Node17</title>
<g id="a_node17"><a xlink:href="../../d5/d37/problem_8hpp.html" target="_top" xlink:title=" ">
<polygon fill="white" stroke="black" points="926,-224.5 926,-243.5 1004,-243.5 1004,-224.5 926,-224.5"/>
<text text-anchor="middle" x="965" y="-231.5" font-family="Helvetica,sans-Serif" font-size="10.00">problem.hpp</text>
</a>
</g>
</g>
<!-- Node1&#45;&gt;Node17 -->
<g id="edge21" class="edge">
<title>Node1&#45;&gt;Node17</title>
<path fill="none" stroke="midnightblue" d="M889.08,-275.59C907.76,-265.61 932.7,-252.27 948.81,-243.65"/>
<polygon fill="midnightblue" stroke="midnightblue" points="887.4,-272.52 880.23,-280.32 890.7,-278.7 887.4,-272.52"/>
</g>
<!-- Node33 -->
<g id="node33" class="node">
<title>Node33</title>
<g id="a_node33"><a xlink:href="../../d1/dce/box_8cpp.html" target="_top" xlink:title=" ">
<polygon fill="white" stroke="black" points="1022.5,-224.5 1022.5,-243.5 1077.5,-243.5 1077.5,-224.5 1022.5,-224.5"/>
<text text-anchor="middle" x="1050" y="-231.5" font-family="Helvetica,sans-Serif" font-size="10.00">box.cpp</text>
</a>
</g>
</g>
<!-- Node1&#45;&gt;Node33 -->
<g id="edge56" class="edge">
<title>Node1&#45;&gt;Node33</title>
<path fill="none" stroke="midnightblue" d="M901.86,-278.01C937.63,-267.62 990.44,-252.29 1022.4,-243.01"/>
<polygon fill="midnightblue" stroke="midnightblue" points="900.88,-274.65 892.25,-280.8 902.83,-281.37 900.88,-274.65"/>
</g>
<!-- Node3 -->
<g id="node3" class="node">
<title>Node3</title>
<g id="a_node3"><a xlink:href="../../d1/dbb/decl_2specialized-lbfgs_8hpp.html" target="_top" xlink:title=" ">
<polygon fill="white" stroke="black" points="552,-112.5 552,-131.5 672,-131.5 672,-112.5 552,-112.5"/>
<text text-anchor="middle" x="612" y="-119.5" font-family="Helvetica,sans-Serif" font-size="10.00">specialized&#45;lbfgs.hpp</text>
</a>
</g>
</g>
<!-- Node2&#45;&gt;Node3 -->
<g id="edge2" class="edge">
<title>Node2&#45;&gt;Node3</title>
<path fill="none" stroke="midnightblue" d="M696.75,-163.86C675.98,-153.85 647.98,-140.35 629.95,-131.65"/>
<polygon fill="midnightblue" stroke="midnightblue" points="695.48,-167.13 706.01,-168.32 698.52,-160.83 695.48,-167.13"/>
</g>
<!-- Node5 -->
<g id="node5" class="node">
<title>Node5</title>
<g id="a_node5"><a xlink:href="../../dd/deb/lbfgs_8hpp.html" target="_top" xlink:title=" ">
<polygon fill="white" stroke="black" points="164,-112.5 164,-131.5 226,-131.5 226,-112.5 164,-112.5"/>
<text text-anchor="middle" x="195" y="-119.5" font-family="Helvetica,sans-Serif" font-size="10.00">lbfgs.hpp</text>
</a>
</g>
</g>
<!-- Node2&#45;&gt;Node5 -->
<g id="edge4" class="edge">
<title>Node2&#45;&gt;Node5</title>
<path fill="none" stroke="midnightblue" d="M682.74,-173.1C603.36,-165.54 423.87,-148.23 273,-132 257.55,-130.34 240.39,-128.37 226.11,-126.7"/>
<polygon fill="midnightblue" stroke="midnightblue" points="682.53,-176.59 692.82,-174.06 683.19,-169.63 682.53,-176.59"/>
</g>
<!-- Node9 -->
<g id="node9" class="node">
<title>Node9</title>
<g id="a_node9"><a xlink:href="../../dc/dd2/CasADi_2Rosenbrock_2main_8cpp.html" target="_top" xlink:title=" ">
<polygon fill="white" stroke="black" points="776,-112.5 776,-131.5 838,-131.5 838,-112.5 776,-112.5"/>
<text text-anchor="middle" x="807" y="-119.5" font-family="Helvetica,sans-Serif" font-size="10.00">main.cpp</text>
</a>
</g>
</g>
<!-- Node2&#45;&gt;Node9 -->
<g id="edge9" class="edge">
<title>Node2&#45;&gt;Node9</title>
<path fill="none" stroke="midnightblue" d="M746.1,-162.62C761.26,-152.76 780.88,-139.99 793.7,-131.65"/>
<polygon fill="midnightblue" stroke="midnightblue" points="743.81,-159.94 737.34,-168.32 747.63,-165.8 743.81,-159.94"/>
</g>
<!-- Node10 -->
<g id="node10" class="node">
<title>Node10</title>
<g id="a_node10"><a xlink:href="../../da/d1e/CUTEst_2Rosenbrock_2main_8cpp.html" target="_top" xlink:title=" ">
<polygon fill="white" stroke="black" points="1090,-112.5 1090,-131.5 1152,-131.5 1152,-112.5 1090,-112.5"/>
<text text-anchor="middle" x="1121" y="-119.5" font-family="Helvetica,sans-Serif" font-size="10.00">main.cpp</text>
</a>
</g>
</g>
<!-- Node2&#45;&gt;Node10 -->
<g id="edge10" class="edge">
<title>Node2&#45;&gt;Node10</title>
<path fill="none" stroke="midnightblue" d="M765.61,-167.89C905.18,-144.94 943.83,-154.64 1080,-132 1083.16,-131.47 1086.45,-130.86 1089.72,-130.21"/>
<polygon fill="midnightblue" stroke="midnightblue" points="764.67,-164.5 755.38,-169.6 765.82,-171.41 764.67,-164.5"/>
</g>
<!-- Node11 -->
<g id="node11" class="node">
<title>Node11</title>
<g id="a_node11"><a xlink:href="../../d1/d5a/experiment_8cpp.html" target="_top" xlink:title=" ">
<polygon fill="white" stroke="black" points="978.5,-112.5 978.5,-131.5 1071.5,-131.5 1071.5,-112.5 978.5,-112.5"/>
<text text-anchor="middle" x="1025" y="-119.5" font-family="Helvetica,sans-Serif" font-size="10.00">experiment.cpp</text>
</a>
</g>
</g>
<!-- Node2&#45;&gt;Node11 -->
<g id="edge11" class="edge">
<title>Node2&#45;&gt;Node11</title>
<path fill="none" stroke="midnightblue" d="M765.24,-167.85C817.77,-157.73 918.62,-140.72 978.25,-130.77"/>
<polygon fill="midnightblue" stroke="midnightblue" points="764.55,-164.42 755.41,-169.77 765.9,-171.29 764.55,-164.42"/>
</g>
<!-- Node12 -->
<g id="node12" class="node">
<title>Node12</title>
<g id="a_node12"><a xlink:href="../../db/dbf/panocexperiment_8cpp.html" target="_top" xlink:title=" ">
<polygon fill="white" stroke="black" points="412,-112.5 412,-131.5 534,-131.5 534,-112.5 412,-112.5"/>
<text text-anchor="middle" x="473" y="-119.5" font-family="Helvetica,sans-Serif" font-size="10.00">panocexperiment.cpp</text>
</a>
</g>
</g>
<!-- Node2&#45;&gt;Node12 -->
<g id="edge12" class="edge">
<title>Node2&#45;&gt;Node12</title>
<path fill="none" stroke="midnightblue" d="M683.11,-168.2C636.02,-158.07 559.18,-141.54 512.63,-131.53"/>
<polygon fill="midnightblue" stroke="midnightblue" points="682.46,-171.64 692.97,-170.32 683.93,-164.8 682.46,-171.64"/>
</g>
<!-- Node13 -->
<g id="node13" class="node">
<title>Node13</title>
<g id="a_node13"><a xlink:href="../../d3/dba/secondorderpanoc_8cpp.html" target="_top" xlink:title=" ">
<polygon fill="white" stroke="black" points="1284,-112.5 1284,-131.5 1410,-131.5 1410,-112.5 1284,-112.5"/>
<text text-anchor="middle" x="1347" y="-119.5" font-family="Helvetica,sans-Serif" font-size="10.00">secondorderpanoc.cpp</text>
</a>
</g>
</g>
<!-- Node2&#45;&gt;Node13 -->
<g id="edge13" class="edge">
<title>Node2&#45;&gt;Node13</title>
<path fill="none" stroke="midnightblue" d="M765.53,-167.99C991.03,-135.47 1051.72,-153.8 1275,-132 1277.88,-131.72 1280.83,-131.41 1283.81,-131.1"/>
<polygon fill="midnightblue" stroke="midnightblue" points="764.75,-164.57 755.36,-169.47 765.76,-171.49 764.75,-164.57"/>
</g>
<!-- Node4 -->
<g id="node4" class="node">
<title>Node4</title>
<g id="a_node4"><a xlink:href="../../d2/d36/specialized-lbfgs_8hpp.html" target="_top" xlink:title=" ">
<polygon fill="white" stroke="black" points="459,-56.5 459,-75.5 579,-75.5 579,-56.5 459,-56.5"/>
<text text-anchor="middle" x="519" y="-63.5" font-family="Helvetica,sans-Serif" font-size="10.00">specialized&#45;lbfgs.hpp</text>
</a>
</g>
</g>
<!-- Node3&#45;&gt;Node4 -->
<g id="edge3" class="edge">
<title>Node3&#45;&gt;Node4</title>
<path fill="none" stroke="midnightblue" d="M588.19,-107.18C571.08,-97.24 548.53,-84.15 533.9,-75.65"/>
<polygon fill="midnightblue" stroke="midnightblue" points="586.65,-110.33 597.06,-112.32 590.17,-104.28 586.65,-110.33"/>
</g>
<!-- Node5&#45;&gt;Node4 -->
<g id="edge5" class="edge">
<title>Node5&#45;&gt;Node4</title>
<path fill="none" stroke="midnightblue" d="M236.67,-112.61C237.79,-112.4 238.9,-112.2 240,-112 316.77,-98.14 405.8,-84.14 462.25,-75.52"/>
<polygon fill="midnightblue" stroke="midnightblue" points="235.61,-109.25 226.44,-114.56 236.92,-116.12 235.61,-109.25"/>
</g>
<!-- Node6 -->
<g id="node6" class="node">
<title>Node6</title>
<g id="a_node6"><a xlink:href="../../d4/db5/alm_8cpp.html" target="_top" xlink:title=" ">
<polygon fill="white" stroke="black" points="696,-0.5 696,-19.5 752,-19.5 752,-0.5 696,-0.5"/>
<text text-anchor="middle" x="724" y="-7.5" font-family="Helvetica,sans-Serif" font-size="10.00">alm.cpp</text>
</a>
</g>
</g>
<!-- Node5&#45;&gt;Node6 -->
<g id="edge6" class="edge">
<title>Node5&#45;&gt;Node6</title>
<path fill="none" stroke="midnightblue" d="M219.31,-107.63C247.98,-92.51 297.51,-68.38 343,-56 471.54,-21.02 631.78,-13.23 695.73,-11.5"/>
<polygon fill="midnightblue" stroke="midnightblue" points="217.59,-104.58 210.42,-112.38 220.89,-110.75 217.59,-104.58"/>
</g>
<!-- Node7 -->
<g id="node7" class="node">
<title>Node7</title>
<g id="a_node7"><a xlink:href="../../d9/daa/lbfgs_8cpp.html" target="_top" xlink:title=" ">
<polygon fill="white" stroke="black" points="164.5,-56.5 164.5,-75.5 225.5,-75.5 225.5,-56.5 164.5,-56.5"/>
<text text-anchor="middle" x="195" y="-63.5" font-family="Helvetica,sans-Serif" font-size="10.00">lbfgs.cpp</text>
</a>
</g>
</g>
<!-- Node5&#45;&gt;Node7 -->
<g id="edge7" class="edge">
<title>Node5&#45;&gt;Node7</title>
<path fill="none" stroke="midnightblue" d="M195,-101.8C195,-92.91 195,-82.78 195,-75.75"/>
<polygon fill="midnightblue" stroke="midnightblue" points="191.5,-102.08 195,-112.08 198.5,-102.08 191.5,-102.08"/>
</g>
<!-- Node8 -->
<g id="node8" class="node">
<title>Node8</title>
<g id="a_node8"><a xlink:href="../../d7/d9f/panoc_8cpp.html" target="_top" xlink:title=" ">
<polygon fill="white" stroke="black" points="352,-56.5 352,-75.5 418,-75.5 418,-56.5 352,-56.5"/>
<text text-anchor="middle" x="385" y="-63.5" font-family="Helvetica,sans-Serif" font-size="10.00">panoc.cpp</text>
</a>
</g>
</g>
<!-- Node5&#45;&gt;Node8 -->
<g id="edge8" class="edge">
<title>Node5&#45;&gt;Node8</title>
<path fill="none" stroke="midnightblue" d="M234.76,-109.7C270.62,-99.51 322.57,-84.74 355.03,-75.52"/>
<polygon fill="midnightblue" stroke="midnightblue" points="233.77,-106.34 225.11,-112.44 235.68,-113.08 233.77,-106.34"/>
</g>
<!-- Node14&#45;&gt;Node4 -->
<g id="edge17" class="edge">
<title>Node14&#45;&gt;Node4</title>
<path fill="none" stroke="midnightblue" d="M254.39,-158.34C255.73,-143.61 260.06,-123.67 273,-112 286.68,-99.66 390.38,-83.9 458.7,-74.68"/>
<polygon fill="midnightblue" stroke="midnightblue" points="250.89,-158.19 253.84,-168.36 257.88,-158.57 250.89,-158.19"/>
</g>
<!-- Node14&#45;&gt;Node5 -->
<g id="edge16" class="edge">
<title>Node14&#45;&gt;Node5</title>
<path fill="none" stroke="midnightblue" d="M237.11,-161.54C226.59,-151.91 213.43,-139.87 204.65,-131.83"/>
<polygon fill="midnightblue" stroke="midnightblue" points="234.78,-164.15 244.52,-168.32 239.51,-158.99 234.78,-164.15"/>
</g>
<!-- Node15 -->
<g id="node15" class="node">
<title>Node15</title>
<g id="a_node15"><a xlink:href="../../dd/dfe/anderson-acceleration_8hpp.html" target="_top" xlink:title=" ">
<polygon fill="white" stroke="black" points="0,-112.5 0,-131.5 146,-131.5 146,-112.5 0,-112.5"/>
<text text-anchor="middle" x="73" y="-119.5" font-family="Helvetica,sans-Serif" font-size="10.00">anderson&#45;acceleration.hpp</text>
</a>
</g>
</g>
<!-- Node14&#45;&gt;Node15 -->
<g id="edge15" class="edge">
<title>Node14&#45;&gt;Node15</title>
<path fill="none" stroke="midnightblue" d="M215.68,-165.57C181.54,-155.38 132.34,-140.7 101.55,-131.52"/>
<polygon fill="midnightblue" stroke="midnightblue" points="214.74,-168.94 225.32,-168.44 216.74,-162.23 214.74,-168.94"/>
</g>
<!-- Node16 -->
<g id="node16" class="node">
<title>Node16</title>
<g id="a_node16"><a xlink:href="../../d5/de9/panoc_8hpp.html" target="_top" xlink:title=" ">
<polygon fill="white" stroke="black" points="690.5,-112.5 690.5,-131.5 757.5,-131.5 757.5,-112.5 690.5,-112.5"/>
<text text-anchor="middle" x="724" y="-119.5" font-family="Helvetica,sans-Serif" font-size="10.00">panoc.hpp</text>
</a>
</g>
</g>
<!-- Node14&#45;&gt;Node16 -->
<g id="edge18" class="edge">
<title>Node14&#45;&gt;Node16</title>
<path fill="none" stroke="midnightblue" d="M339.53,-170.55C425.97,-163.43 563.23,-150.48 681,-132 684.01,-131.53 687.14,-130.98 690.26,-130.4"/>
<polygon fill="midnightblue" stroke="midnightblue" points="339.19,-167.07 329.51,-171.37 339.76,-174.04 339.19,-167.07"/>
</g>
<!-- Node16&#45;&gt;Node6 -->
<g id="edge19" class="edge">
<title>Node16&#45;&gt;Node6</title>
<path fill="none" stroke="midnightblue" d="M724,-102.35C724,-78.25 724,-37.31 724,-19.59"/>
<polygon fill="midnightblue" stroke="midnightblue" points="720.5,-102.37 724,-112.37 727.5,-102.37 720.5,-102.37"/>
</g>
<!-- Node16&#45;&gt;Node8 -->
<g id="edge20" class="edge">
<title>Node16&#45;&gt;Node8</title>
<path fill="none" stroke="midnightblue" d="M680.15,-111.96C615.7,-100.72 480.87,-80.93 418.15,-71.8"/>
<polygon fill="midnightblue" stroke="midnightblue" points="679.78,-115.44 690.23,-113.75 681,-108.55 679.78,-115.44"/>
</g>
<!-- Node18 -->
<g id="node18" class="node">
<title>Node18</title>
<g id="a_node18"><a xlink:href="../../d4/dd2/decl_2alm_8hpp.html" target="_top" xlink:title=" ">
<polygon fill="white" stroke="black" points="1077,-168.5 1077,-187.5 1133,-187.5 1133,-168.5 1077,-168.5"/>
<text text-anchor="middle" x="1105" y="-175.5" font-family="Helvetica,sans-Serif" font-size="10.00">alm.hpp</text>
</a>
</g>
</g>
<!-- Node17&#45;&gt;Node18 -->
<g id="edge22" class="edge">
<title>Node17&#45;&gt;Node18</title>
<path fill="none" stroke="midnightblue" d="M996.7,-220.77C1023,-210.63 1059.72,-196.47 1082.92,-187.52"/>
<polygon fill="midnightblue" stroke="midnightblue" points="995.25,-217.58 987.18,-224.44 997.77,-224.11 995.25,-217.58"/>
</g>
<!-- Node21 -->
<g id="node21" class="node">
<title>Node21</title>
<g id="a_node21"><a xlink:href="../../d2/da2/decl_2panoc_8hpp.html" target="_top" xlink:title=" ">
<polygon fill="white" stroke="black" points="773.5,-168.5 773.5,-187.5 840.5,-187.5 840.5,-168.5 773.5,-168.5"/>
<text text-anchor="middle" x="807" y="-175.5" font-family="Helvetica,sans-Serif" font-size="10.00">panoc.hpp</text>
</a>
</g>
</g>
<!-- Node17&#45;&gt;Node21 -->
<g id="edge29" class="edge">
<title>Node17&#45;&gt;Node21</title>
<path fill="none" stroke="midnightblue" d="M930.39,-221.17C900.64,-211 858.45,-196.59 831.92,-187.52"/>
<polygon fill="midnightblue" stroke="midnightblue" points="929.37,-224.52 939.96,-224.44 931.63,-217.9 929.37,-224.52"/>
</g>
<!-- Node22 -->
<g id="node22" class="node">
<title>Node22</title>
<g id="a_node22"><a xlink:href="../../d8/df1/panoc-helpers_8hpp.html" target="_top" xlink:title=" ">
<polygon fill="white" stroke="black" points="1506.5,-168.5 1506.5,-187.5 1613.5,-187.5 1613.5,-168.5 1506.5,-168.5"/>
<text text-anchor="middle" x="1560" y="-175.5" font-family="Helvetica,sans-Serif" font-size="10.00">panoc&#45;helpers.hpp</text>
</a>
</g>
</g>
<!-- Node17&#45;&gt;Node22 -->
<g id="edge35" class="edge">
<title>Node17&#45;&gt;Node22</title>
<path fill="none" stroke="midnightblue" d="M1014.21,-223.97C1200.42,-199.34 1409.68,-186.61 1506.23,-181.58"/>
<polygon fill="midnightblue" stroke="midnightblue" points="1013.69,-220.51 1004.24,-225.3 1014.62,-227.44 1013.69,-220.51"/>
</g>
<!-- Node24 -->
<g id="node24" class="node">
<title>Node24</title>
<g id="a_node24"><a xlink:href="../../da/df4/lbfgspp_8hpp.html" target="_top" xlink:title=" ">
<polygon fill="white" stroke="black" points="1796,-112.5 1796,-131.5 1870,-131.5 1870,-112.5 1796,-112.5"/>
<text text-anchor="middle" x="1833" y="-119.5" font-family="Helvetica,sans-Serif" font-size="10.00">lbfgspp.hpp</text>
</a>
</g>
</g>
<!-- Node17&#45;&gt;Node24 -->
<g id="edge42" class="edge">
<title>Node17&#45;&gt;Node24</title>
<path fill="none" stroke="midnightblue" d="M1014.33,-224.01C1284.38,-192.01 1359.05,-235.91 1623,-188 1693.6,-175.19 1773.76,-146.14 1811.36,-131.61"/>
<polygon fill="midnightblue" stroke="midnightblue" points="1013.74,-220.55 1004.23,-225.23 1014.58,-227.5 1013.74,-220.55"/>
</g>
<!-- Node26 -->
<g id="node26" class="node">
<title>Node26</title>
<g id="a_node26"><a xlink:href="../../d2/dde/CasADiLoader_8hpp.html" target="_top" xlink:title=" ">
<polygon fill="white" stroke="black" points="858.5,-168.5 858.5,-187.5 963.5,-187.5 963.5,-168.5 858.5,-168.5"/>
<text text-anchor="middle" x="911" y="-175.5" font-family="Helvetica,sans-Serif" font-size="10.00">CasADiLoader.hpp</text>
</a>
</g>
</g>
<!-- Node17&#45;&gt;Node26 -->
<g id="edge43" class="edge">
<title>Node17&#45;&gt;Node26</title>
<path fill="none" stroke="midnightblue" d="M949,-217C939.43,-207.43 927.64,-195.64 919.75,-187.75"/>
<polygon fill="midnightblue" stroke="midnightblue" points="946.54,-219.49 956.08,-224.08 951.49,-214.54 946.54,-219.49"/>
</g>
<!-- Node28 -->
<g id="node28" class="node">
<title>Node28</title>
<g id="a_node28"><a xlink:href="../../da/d1e/CUTEstLoader_8hpp.html" target="_top" xlink:title=" ">
<polygon fill="white" stroke="black" points="1151.5,-168.5 1151.5,-187.5 1256.5,-187.5 1256.5,-168.5 1151.5,-168.5"/>
<text text-anchor="middle" x="1204" y="-175.5" font-family="Helvetica,sans-Serif" font-size="10.00">CUTEstLoader.hpp</text>
</a>
</g>
</g>
<!-- Node17&#45;&gt;Node28 -->
<g id="edge47" class="edge">
<title>Node17&#45;&gt;Node28</title>
<path fill="none" stroke="midnightblue" d="M1012.72,-222.22C1057.89,-212.01 1124.77,-196.9 1166.31,-187.52"/>
<polygon fill="midnightblue" stroke="midnightblue" points="1011.85,-218.83 1002.87,-224.44 1013.4,-225.65 1011.85,-218.83"/>
</g>
<!-- Node30 -->
<g id="node30" class="node">
<title>Node30</title>
<g id="a_node30"><a xlink:href="../../de/db7/riskaverse-mpc_8hpp.html" target="_top" xlink:title=" ">
<polygon fill="white" stroke="black" points="416.5,-168.5 416.5,-187.5 529.5,-187.5 529.5,-168.5 416.5,-168.5"/>
<text text-anchor="middle" x="473" y="-175.5" font-family="Helvetica,sans-Serif" font-size="10.00">riskaverse&#45;mpc.hpp</text>
</a>
</g>
</g>
<!-- Node17&#45;&gt;Node30 -->
<g id="edge52" class="edge">
<title>Node17&#45;&gt;Node30</title>
<path fill="none" stroke="midnightblue" d="M915.85,-227.61C824.06,-217.53 627.08,-195.91 529.78,-185.23"/>
<polygon fill="midnightblue" stroke="midnightblue" points="915.66,-231.11 925.98,-228.72 916.42,-224.15 915.66,-231.11"/>
</g>
<!-- Node32 -->
<g id="node32" class="node">
<title>Node32</title>
<g id="a_node32"><a xlink:href="../../d8/d58/problem_8cpp.html" target="_top" xlink:title=" ">
<polygon fill="white" stroke="black" points="981.5,-168.5 981.5,-187.5 1058.5,-187.5 1058.5,-168.5 981.5,-168.5"/>
<text text-anchor="middle" x="1020" y="-175.5" font-family="Helvetica,sans-Serif" font-size="10.00">problem.cpp</text>
</a>
</g>
</g>
<!-- Node17&#45;&gt;Node32 -->
<g id="edge55" class="edge">
<title>Node17&#45;&gt;Node32</title>
<path fill="none" stroke="midnightblue" d="M981.29,-217C991.04,-207.43 1003.05,-195.64 1011.09,-187.75"/>
<polygon fill="midnightblue" stroke="midnightblue" points="978.77,-214.58 974.08,-224.08 983.67,-219.57 978.77,-214.58"/>
</g>
<!-- Node18&#45;&gt;Node9 -->
<g id="edge26" class="edge">
<title>Node18&#45;&gt;Node9</title>
<path fill="none" stroke="midnightblue" d="M1066.74,-167.87C968.73,-148.38 941.55,-150.32 847,-132 844.2,-131.46 841.31,-130.87 838.41,-130.25"/>
<polygon fill="midnightblue" stroke="midnightblue" points="1066.27,-171.35 1076.77,-169.9 1067.66,-164.49 1066.27,-171.35"/>
</g>
<!-- Node18&#45;&gt;Node10 -->
<g id="edge27" class="edge">
<title>Node18&#45;&gt;Node10</title>
<path fill="none" stroke="midnightblue" d="M1110.51,-158.4C1113.19,-149.36 1116.28,-138.94 1118.41,-131.75"/>
<polygon fill="midnightblue" stroke="midnightblue" points="1107.13,-157.5 1107.64,-168.08 1113.84,-159.49 1107.13,-157.5"/>
</g>
<!-- Node18&#45;&gt;Node11 -->
<g id="edge28" class="edge">
<title>Node18&#45;&gt;Node11</title>
<path fill="none" stroke="midnightblue" d="M1083.7,-162.62C1069.08,-152.76 1050.17,-139.99 1037.82,-131.65"/>
<polygon fill="midnightblue" stroke="midnightblue" points="1081.9,-165.63 1092.15,-168.32 1085.82,-159.83 1081.9,-165.63"/>
</g>
<!-- Node19 -->
<g id="node19" class="node">
<title>Node19</title>
<g id="a_node19"><a xlink:href="../../d6/de7/alm-helpers_8hpp.html" target="_top" xlink:title=" ">
<polygon fill="white" stroke="black" points="1170,-112.5 1170,-131.5 1266,-131.5 1266,-112.5 1170,-112.5"/>
<text text-anchor="middle" x="1218" y="-119.5" font-family="Helvetica,sans-Serif" font-size="10.00">alm&#45;helpers.hpp</text>
</a>
</g>
</g>
<!-- Node18&#45;&gt;Node19 -->
<g id="edge23" class="edge">
<title>Node18&#45;&gt;Node19</title>
<path fill="none" stroke="midnightblue" d="M1132,-164.1C1153.11,-154.01 1181.86,-140.27 1200.18,-131.52"/>
<polygon fill="midnightblue" stroke="midnightblue" points="1130.42,-160.97 1122.91,-168.44 1133.44,-167.29 1130.42,-160.97"/>
</g>
<!-- Node20 -->
<g id="node20" class="node">
<title>Node20</title>
<g id="a_node20"><a xlink:href="../../d2/ddc/alm_8hpp.html" target="_top" xlink:title=" ">
<polygon fill="white" stroke="black" points="971,-56.5 971,-75.5 1027,-75.5 1027,-56.5 971,-56.5"/>
<text text-anchor="middle" x="999" y="-63.5" font-family="Helvetica,sans-Serif" font-size="10.00">alm.hpp</text>
</a>
</g>
</g>
<!-- Node19&#45;&gt;Node20 -->
<g id="edge24" class="edge">
<title>Node19&#45;&gt;Node20</title>
<path fill="none" stroke="midnightblue" d="M1173.5,-110.03C1129.76,-99.24 1064.33,-83.11 1027.27,-73.97"/>
<polygon fill="midnightblue" stroke="midnightblue" points="1172.75,-113.45 1183.3,-112.44 1174.43,-106.65 1172.75,-113.45"/>
</g>
<!-- Node20&#45;&gt;Node6 -->
<g id="edge25" class="edge">
<title>Node20&#45;&gt;Node6</title>
<path fill="none" stroke="midnightblue" d="M961,-57.54C905.12,-46.57 802.04,-26.32 752.3,-16.56"/>
<polygon fill="midnightblue" stroke="midnightblue" points="960.38,-60.98 970.86,-59.47 961.72,-54.11 960.38,-60.98"/>
</g>
<!-- Node21&#45;&gt;Node9 -->
<g id="edge31" class="edge">
<title>Node21&#45;&gt;Node9</title>
<path fill="none" stroke="midnightblue" d="M807,-157.8C807,-148.91 807,-138.78 807,-131.75"/>
<polygon fill="midnightblue" stroke="midnightblue" points="803.5,-158.08 807,-168.08 810.5,-158.08 803.5,-158.08"/>
</g>
<!-- Node21&#45;&gt;Node10 -->
<g id="edge32" class="edge">
<title>Node21&#45;&gt;Node10</title>
<path fill="none" stroke="midnightblue" d="M850.99,-167.71C952.92,-149.21 981.07,-150.55 1080,-132 1083.15,-131.41 1086.43,-130.76 1089.7,-130.08"/>
<polygon fill="midnightblue" stroke="midnightblue" points="850.1,-164.32 840.89,-169.57 851.36,-171.2 850.1,-164.32"/>
</g>
<!-- Node21&#45;&gt;Node11 -->
<g id="edge33" class="edge">
<title>Node21&#45;&gt;Node11</title>
<path fill="none" stroke="midnightblue" d="M850.35,-166.26C891.56,-156.05 952.72,-140.9 990.66,-131.51"/>
<polygon fill="midnightblue" stroke="midnightblue" points="849.45,-162.88 840.58,-168.68 851.13,-169.67 849.45,-162.88"/>
</g>
<!-- Node21&#45;&gt;Node12 -->
<g id="edge34" class="edge">
<title>Node21&#45;&gt;Node12</title>
<path fill="none" stroke="midnightblue" d="M763.39,-167.97C678.15,-152.61 591,-139.61 534.19,-131.5"/>
<polygon fill="midnightblue" stroke="midnightblue" points="762.77,-171.41 773.23,-169.76 764.02,-164.53 762.77,-171.41"/>
</g>
<!-- Node21&#45;&gt;Node16 -->
<g id="edge30" class="edge">
<title>Node21&#45;&gt;Node16</title>
<path fill="none" stroke="midnightblue" d="M784.9,-162.62C769.74,-152.76 750.12,-139.99 737.3,-131.65"/>
<polygon fill="midnightblue" stroke="midnightblue" points="783.37,-165.8 793.66,-168.32 787.19,-159.94 783.37,-165.8"/>
</g>
<!-- Node22&#45;&gt;Node4 -->
<g id="edge36" class="edge">
<title>Node22&#45;&gt;Node4</title>
<path fill="none" stroke="midnightblue" d="M1560.02,-157.86C1558.91,-142.85 1554.71,-122.76 1541,-112 1521.98,-97.08 795.9,-74.98 579.36,-68.71"/>
<polygon fill="midnightblue" stroke="midnightblue" points="1556.53,-158.23 1560.37,-168.11 1563.53,-157.99 1556.53,-158.23"/>
</g>
<!-- Node22&#45;&gt;Node13 -->
<g id="edge41" class="edge">
<title>Node22&#45;&gt;Node13</title>
<path fill="none" stroke="midnightblue" d="M1516.45,-165.96C1476.22,-155.76 1417.3,-140.82 1380.59,-131.52"/>
<polygon fill="midnightblue" stroke="midnightblue" points="1515.7,-169.38 1526.25,-168.44 1517.42,-162.59 1515.7,-169.38"/>
</g>
<!-- Node22&#45;&gt;Node16 -->
<g id="edge39" class="edge">
<title>Node22&#45;&gt;Node16</title>
<path fill="none" stroke="midnightblue" d="M1495.97,-174.61C1333.36,-168.33 907.46,-150.58 767,-132 763.98,-131.6 760.85,-131.11 757.72,-130.56"/>
<polygon fill="midnightblue" stroke="midnightblue" points="1496.17,-178.12 1506.29,-175 1496.43,-171.12 1496.17,-178.12"/>
</g>
<!-- Node23 -->
<g id="node23" class="node">
<title>Node23</title>
<g id="a_node23"><a xlink:href="../../d3/d61/guarded-aa-pga_8hpp.html" target="_top" xlink:title=" ">
<polygon fill="white" stroke="black" points="1588.5,-112.5 1588.5,-131.5 1703.5,-131.5 1703.5,-112.5 1588.5,-112.5"/>
<text text-anchor="middle" x="1646" y="-119.5" font-family="Helvetica,sans-Serif" font-size="10.00">guarded&#45;aa&#45;pga.hpp</text>
</a>
</g>
</g>
<!-- Node22&#45;&gt;Node23 -->
<g id="edge37" class="edge">
<title>Node22&#45;&gt;Node23</title>
<path fill="none" stroke="midnightblue" d="M1582.45,-162.9C1598.22,-153 1618.81,-140.07 1632.22,-131.65"/>
<polygon fill="midnightblue" stroke="midnightblue" points="1580.43,-160.04 1573.82,-168.32 1584.15,-165.97 1580.43,-160.04"/>
</g>
<!-- Node22&#45;&gt;Node24 -->
<g id="edge38" class="edge">
<title>Node22&#45;&gt;Node24</title>
<path fill="none" stroke="midnightblue" d="M1613.28,-166.46C1666.98,-155.84 1748.47,-139.72 1795.65,-130.39"/>
<polygon fill="midnightblue" stroke="midnightblue" points="1612.39,-163.07 1603.26,-168.44 1613.75,-169.94 1612.39,-163.07"/>
</g>
<!-- Node25 -->
<g id="node25" class="node">
<title>Node25</title>
<g id="a_node25"><a xlink:href="../../d6/d5a/pga_8hpp.html" target="_top" xlink:title=" ">
<polygon fill="white" stroke="black" points="1722,-112.5 1722,-131.5 1778,-131.5 1778,-112.5 1722,-112.5"/>
<text text-anchor="middle" x="1750" y="-119.5" font-family="Helvetica,sans-Serif" font-size="10.00">pga.hpp</text>
</a>
</g>
</g>
<!-- Node22&#45;&gt;Node25 -->
<g id="edge40" class="edge">
<title>Node22&#45;&gt;Node25</title>
<path fill="none" stroke="midnightblue" d="M1599.94,-165.65C1636.49,-155.26 1689.64,-140.16 1721.89,-130.99"/>
<polygon fill="midnightblue" stroke="midnightblue" points="1598.77,-162.34 1590.11,-168.44 1600.68,-169.08 1598.77,-162.34"/>
</g>
<!-- Node26&#45;&gt;Node9 -->
<g id="edge45" class="edge">
<title>Node26&#45;&gt;Node9</title>
<path fill="none" stroke="midnightblue" d="M885.17,-163.59C865.94,-153.61 840.26,-140.27 823.67,-131.65"/>
<polygon fill="midnightblue" stroke="midnightblue" points="883.8,-166.82 894.29,-168.32 887.03,-160.61 883.8,-166.82"/>
</g>
<!-- Node26&#45;&gt;Node13 -->
<g id="edge46" class="edge">
<title>Node26&#45;&gt;Node13</title>
<path fill="none" stroke="midnightblue" d="M973.83,-167.78C1108.15,-150.01 1143.67,-148.01 1275,-132 1277.88,-131.65 1280.82,-131.29 1283.79,-130.92"/>
<polygon fill="midnightblue" stroke="midnightblue" points="973.01,-164.36 963.56,-169.15 973.93,-171.3 973.01,-164.36"/>
</g>
<!-- Node27 -->
<g id="node27" class="node">
<title>Node27</title>
<g id="a_node27"><a xlink:href="../../dc/d60/CasADiLoader_8cpp.html" target="_top" xlink:title=" ">
<polygon fill="white" stroke="black" points="856,-112.5 856,-131.5 960,-131.5 960,-112.5 856,-112.5"/>
<text text-anchor="middle" x="908" y="-119.5" font-family="Helvetica,sans-Serif" font-size="10.00">CasADiLoader.cpp</text>
</a>
</g>
</g>
<!-- Node26&#45;&gt;Node27 -->
<g id="edge44" class="edge">
<title>Node26&#45;&gt;Node27</title>
<path fill="none" stroke="midnightblue" d="M909.93,-157.8C909.44,-148.91 908.88,-138.78 908.49,-131.75"/>
<polygon fill="midnightblue" stroke="midnightblue" points="906.46,-158.29 910.5,-168.08 913.44,-157.9 906.46,-158.29"/>
</g>
<!-- Node28&#45;&gt;Node10 -->
<g id="edge49" class="edge">
<title>Node28&#45;&gt;Node10</title>
<path fill="none" stroke="midnightblue" d="M1181.9,-162.62C1166.74,-152.76 1147.12,-139.99 1134.3,-131.65"/>
<polygon fill="midnightblue" stroke="midnightblue" points="1180.37,-165.8 1190.66,-168.32 1184.19,-159.94 1180.37,-165.8"/>
</g>
<!-- Node28&#45;&gt;Node11 -->
<g id="edge50" class="edge">
<title>Node28&#45;&gt;Node11</title>
<path fill="none" stroke="midnightblue" d="M1165.67,-165.44C1131.92,-155.26 1083.55,-140.66 1053.23,-131.52"/>
<polygon fill="midnightblue" stroke="midnightblue" points="1165.05,-168.91 1175.64,-168.44 1167.07,-162.2 1165.05,-168.91"/>
</g>
<!-- Node28&#45;&gt;Node13 -->
<g id="edge51" class="edge">
<title>Node28&#45;&gt;Node13</title>
<path fill="none" stroke="midnightblue" d="M1236.03,-164.91C1262.91,-154.75 1300.64,-140.51 1324.45,-131.52"/>
<polygon fill="midnightblue" stroke="midnightblue" points="1234.78,-161.64 1226.66,-168.44 1237.25,-168.19 1234.78,-161.64"/>
</g>
<!-- Node29 -->
<g id="node29" class="node">
<title>Node29</title>
<g id="a_node29"><a xlink:href="../../d9/dcf/CUTEstLoader_8cpp.html" target="_top" xlink:title=" ">
<polygon fill="white" stroke="black" points="1428,-112.5 1428,-131.5 1532,-131.5 1532,-112.5 1428,-112.5"/>
<text text-anchor="middle" x="1480" y="-119.5" font-family="Helvetica,sans-Serif" font-size="10.00">CUTEstLoader.cpp</text>
</a>
</g>
</g>
<!-- Node28&#45;&gt;Node29 -->
<g id="edge48" class="edge">
<title>Node28&#45;&gt;Node29</title>
<path fill="none" stroke="midnightblue" d="M1257.8,-166.47C1309.96,-156.27 1388.11,-140.98 1436.47,-131.52"/>
<polygon fill="midnightblue" stroke="midnightblue" points="1256.87,-163.09 1247.73,-168.44 1258.22,-169.96 1256.87,-163.09"/>
</g>
<!-- Node30&#45;&gt;Node12 -->
<g id="edge54" class="edge">
<title>Node30&#45;&gt;Node12</title>
<path fill="none" stroke="midnightblue" d="M473,-157.8C473,-148.91 473,-138.78 473,-131.75"/>
<polygon fill="midnightblue" stroke="midnightblue" points="469.5,-158.08 473,-168.08 476.5,-158.08 469.5,-158.08"/>
</g>
<!-- Node31 -->
<g id="node31" class="node">
<title>Node31</title>
<g id="a_node31"><a xlink:href="../../df/d4c/riskaverse-mpc_8cpp.html" target="_top" xlink:title=" ">
<polygon fill="white" stroke="black" points="282,-112.5 282,-131.5 394,-131.5 394,-112.5 282,-112.5"/>
<text text-anchor="middle" x="338" y="-119.5" font-family="Helvetica,sans-Serif" font-size="10.00">riskaverse&#45;mpc.cpp</text>
</a>
</g>
</g>
<!-- Node30&#45;&gt;Node31 -->
<g id="edge53" class="edge">
<title>Node30&#45;&gt;Node31</title>
<path fill="none" stroke="midnightblue" d="M442.09,-164.64C416.76,-154.5 381.57,-140.43 359.29,-131.52"/>
<polygon fill="midnightblue" stroke="midnightblue" points="441.02,-167.98 451.61,-168.44 443.62,-161.48 441.02,-167.98"/>
</g>
</g>
</svg>
