<?xml version="1.0" encoding="UTF-8" standalone="no"?>
<!DOCTYPE svg PUBLIC "-//W3C//DTD SVG 1.1//EN"
 "http://www.w3.org/Graphics/SVG/1.1/DTD/svg11.dtd">
<!-- Generated by graphviz version 2.43.0 (0)
 -->
<!-- Title: main.cpp Pages: 1 -->
<svg width="1026pt" height="341pt"
 viewBox="0.00 0.00 1025.50 341.00" xmlns="http://www.w3.org/2000/svg" xmlns:xlink="http://www.w3.org/1999/xlink">
<g id="graph0" class="graph" transform="scale(1 1) rotate(0) translate(4 337)">
<title>main.cpp</title>
<polygon fill="white" stroke="transparent" points="-4,4 -4,-337 1021.5,-337 1021.5,4 -4,4"/>
<!-- Node1 -->
<g id="node1" class="node">
<title>Node1</title>
<g id="a_node1"><a xlink:title=" ">
<polygon fill="#bfbfbf" stroke="black" points="387.5,-313.5 387.5,-332.5 449.5,-332.5 449.5,-313.5 387.5,-313.5"/>
<text text-anchor="middle" x="418.5" y="-320.5" font-family="Helvetica,sans-Serif" font-size="10.00">main.cpp</text>
</a>
</g>
</g>
<!-- Node2 -->
<g id="node2" class="node">
<title>Node2</title>
<g id="a_node2"><a xlink:href="../../d4/dd2/decl_2alm_8hpp.html" target="_top" xlink:title=" ">
<polygon fill="white" stroke="black" points="351.5,-252 351.5,-271 485.5,-271 485.5,-252 351.5,-252"/>
<text text-anchor="middle" x="418.5" y="-259" font-family="Helvetica,sans-Serif" font-size="10.00">panoc&#45;alm/decl/alm.hpp</text>
</a>
</g>
</g>
<!-- Node1&#45;&gt;Node2 -->
<g id="edge1" class="edge">
<title>Node1&#45;&gt;Node2</title>
<path fill="none" stroke="midnightblue" d="M418.5,-313.48C418.5,-305.08 418.5,-291.98 418.5,-281.16"/>
<polygon fill="midnightblue" stroke="midnightblue" points="422,-281.01 418.5,-271.01 415,-281.01 422,-281.01"/>
</g>
<!-- Node15 -->
<g id="node15" class="node">
<title>Node15</title>
<g id="a_node15"><a xlink:href="../../d1/db5/decl_2lbfgs_8hpp.html" target="_top" xlink:title=" ">
<polygon fill="white" stroke="black" points="0,-179.5 0,-209.5 147,-209.5 147,-179.5 0,-179.5"/>
<text text-anchor="start" x="8" y="-197.5" font-family="Helvetica,sans-Serif" font-size="10.00">panoc&#45;alm/inner/directions</text>
<text text-anchor="middle" x="73.5" y="-186.5" font-family="Helvetica,sans-Serif" font-size="10.00">/decl/lbfgs.hpp</text>
</a>
</g>
</g>
<!-- Node1&#45;&gt;Node15 -->
<g id="edge14" class="edge">
<title>Node1&#45;&gt;Node15</title>
<path fill="none" stroke="midnightblue" d="M387.23,-321.19C339.15,-318.87 245.15,-310.1 173.5,-277 142.19,-262.54 112.36,-235.98 93.56,-217.12"/>
<polygon fill="midnightblue" stroke="midnightblue" points="95.69,-214.29 86.21,-209.56 90.68,-219.17 95.69,-214.29"/>
</g>
<!-- Node16 -->
<g id="node16" class="node">
<title>Node16</title>
<g id="a_node16"><a xlink:href="../../d2/da2/decl_2panoc_8hpp.html" target="_top" xlink:title=" ">
<polygon fill="white" stroke="black" points="504,-246.5 504,-276.5 623,-276.5 623,-246.5 504,-246.5"/>
<text text-anchor="start" x="512" y="-264.5" font-family="Helvetica,sans-Serif" font-size="10.00">panoc&#45;alm/inner/decl</text>
<text text-anchor="middle" x="563.5" y="-253.5" font-family="Helvetica,sans-Serif" font-size="10.00">/panoc.hpp</text>
</a>
</g>
</g>
<!-- Node1&#45;&gt;Node16 -->
<g id="edge18" class="edge">
<title>Node1&#45;&gt;Node16</title>
<path fill="none" stroke="midnightblue" d="M439.27,-313.48C460.2,-304.89 493.11,-291.38 519.81,-280.43"/>
<polygon fill="midnightblue" stroke="midnightblue" points="521.4,-283.56 529.33,-276.52 518.75,-277.08 521.4,-283.56"/>
</g>
<!-- Node20 -->
<g id="node20" class="node">
<title>Node20</title>
<g id="a_node20"><a xlink:href="../../d2/dde/CasADiLoader_8hpp.html" target="_top" xlink:title=" ">
<polygon fill="white" stroke="black" points="182.5,-246.5 182.5,-276.5 322.5,-276.5 322.5,-246.5 182.5,-246.5"/>
<text text-anchor="start" x="190.5" y="-264.5" font-family="Helvetica,sans-Serif" font-size="10.00">panoc&#45;alm/interop/casadi</text>
<text text-anchor="middle" x="252.5" y="-253.5" font-family="Helvetica,sans-Serif" font-size="10.00">/CasADiLoader.hpp</text>
</a>
</g>
</g>
<!-- Node1&#45;&gt;Node20 -->
<g id="edge28" class="edge">
<title>Node1&#45;&gt;Node20</title>
<path fill="none" stroke="midnightblue" d="M394.72,-313.48C370.45,-304.78 332.09,-291.03 301.32,-280"/>
<polygon fill="midnightblue" stroke="midnightblue" points="302.22,-276.6 291.62,-276.52 299.86,-283.19 302.22,-276.6"/>
</g>
<!-- Node21 -->
<g id="node21" class="node">
<title>Node21</title>
<g id="a_node21"><a xlink:title=" ">
<polygon fill="white" stroke="#bfbfbf" points="641.5,-252 641.5,-271 701.5,-271 701.5,-252 641.5,-252"/>
<text text-anchor="middle" x="671.5" y="-259" font-family="Helvetica,sans-Serif" font-size="10.00">iostream</text>
</a>
</g>
</g>
<!-- Node1&#45;&gt;Node21 -->
<g id="edge30" class="edge">
<title>Node1&#45;&gt;Node21</title>
<path fill="none" stroke="midnightblue" d="M449.69,-316.94C491.67,-309.79 568.5,-295.52 632.5,-277 635.14,-276.24 637.86,-275.38 640.57,-274.47"/>
<polygon fill="midnightblue" stroke="midnightblue" points="641.97,-277.69 650.24,-271.06 639.64,-271.09 641.97,-277.69"/>
</g>
<!-- Node3 -->
<g id="node3" class="node">
<title>Node3</title>
<g id="a_node3"><a xlink:href="../../d4/d83/panoc-fwd_8hpp.html" target="_top" xlink:title=" ">
<polygon fill="white" stroke="black" points="336,-179.5 336,-209.5 455,-209.5 455,-179.5 336,-179.5"/>
<text text-anchor="start" x="344" y="-197.5" font-family="Helvetica,sans-Serif" font-size="10.00">panoc&#45;alm/inner/decl</text>
<text text-anchor="middle" x="395.5" y="-186.5" font-family="Helvetica,sans-Serif" font-size="10.00">/panoc&#45;fwd.hpp</text>
</a>
</g>
</g>
<!-- Node2&#45;&gt;Node3 -->
<g id="edge2" class="edge">
<title>Node2&#45;&gt;Node3</title>
<path fill="none" stroke="midnightblue" d="M415.4,-251.73C412.44,-243.37 407.85,-230.4 403.82,-219.02"/>
<polygon fill="midnightblue" stroke="midnightblue" points="407.12,-217.85 400.49,-209.59 400.52,-220.18 407.12,-217.85"/>
</g>
<!-- Node5 -->
<g id="node5" class="node">
<title>Node5</title>
<g id="a_node5"><a xlink:href="../../d5/d37/problem_8hpp.html" target="_top" xlink:title=" ">
<polygon fill="white" stroke="black" points="165.5,-185 165.5,-204 317.5,-204 317.5,-185 165.5,-185"/>
<text text-anchor="middle" x="241.5" y="-192" font-family="Helvetica,sans-Serif" font-size="10.00">panoc&#45;alm/util/problem.hpp</text>
</a>
</g>
</g>
<!-- Node2&#45;&gt;Node5 -->
<g id="edge4" class="edge">
<title>Node2&#45;&gt;Node5</title>
<path fill="none" stroke="midnightblue" d="M395,-251.87C364.1,-240.52 309.64,-220.52 274.59,-207.65"/>
<polygon fill="midnightblue" stroke="midnightblue" points="275.41,-204.23 264.82,-204.06 273,-210.8 275.41,-204.23"/>
</g>
<!-- Node11 -->
<g id="node11" class="node">
<title>Node11</title>
<g id="a_node11"><a xlink:href="../../dc/d8c/solverstatus_8hpp.html" target="_top" xlink:title=" ">
<polygon fill="white" stroke="black" points="604,-185 604,-204 775,-204 775,-185 604,-185"/>
<text text-anchor="middle" x="689.5" y="-192" font-family="Helvetica,sans-Serif" font-size="10.00">panoc&#45;alm/util/solverstatus.hpp</text>
</a>
</g>
</g>
<!-- Node2&#45;&gt;Node11 -->
<g id="edge10" class="edge">
<title>Node2&#45;&gt;Node11</title>
<path fill="none" stroke="midnightblue" d="M454.21,-251.94C502.95,-240.24 590.36,-219.28 643.82,-206.46"/>
<polygon fill="midnightblue" stroke="midnightblue" points="644.81,-209.82 653.71,-204.08 643.17,-203.01 644.81,-209.82"/>
</g>
<!-- Node13 -->
<g id="node13" class="node">
<title>Node13</title>
<g id="a_node13"><a xlink:title=" ">
<polygon fill="white" stroke="#bfbfbf" points="473.5,-185 473.5,-204 523.5,-204 523.5,-185 473.5,-185"/>
<text text-anchor="middle" x="498.5" y="-192" font-family="Helvetica,sans-Serif" font-size="10.00">chrono</text>
</a>
</g>
</g>
<!-- Node2&#45;&gt;Node13 -->
<g id="edge12" class="edge">
<title>Node2&#45;&gt;Node13</title>
<path fill="none" stroke="midnightblue" d="M429.29,-251.73C442.24,-241.21 464.19,-223.38 479.89,-210.62"/>
<polygon fill="midnightblue" stroke="midnightblue" points="482.33,-213.15 487.88,-204.13 477.91,-207.72 482.33,-213.15"/>
</g>
<!-- Node14 -->
<g id="node14" class="node">
<title>Node14</title>
<g id="a_node14"><a xlink:title=" ">
<polygon fill="white" stroke="#bfbfbf" points="541.5,-185 541.5,-204 585.5,-204 585.5,-185 541.5,-185"/>
<text text-anchor="middle" x="563.5" y="-192" font-family="Helvetica,sans-Serif" font-size="10.00">string</text>
</a>
</g>
</g>
<!-- Node2&#45;&gt;Node14 -->
<g id="edge13" class="edge">
<title>Node2&#45;&gt;Node14</title>
<path fill="none" stroke="midnightblue" d="M438.33,-251.86C461.11,-241.91 499.6,-224.98 532.5,-210 533.66,-209.47 534.83,-208.93 536.02,-208.39"/>
<polygon fill="midnightblue" stroke="midnightblue" points="537.57,-211.53 545.17,-204.15 534.62,-205.18 537.57,-211.53"/>
</g>
<!-- Node4 -->
<g id="node4" class="node">
<title>Node4</title>
<g id="a_node4"><a xlink:href="../../d4/d5e/lbfgs-fwd_8hpp.html" target="_top" xlink:title=" ">
<polygon fill="white" stroke="black" points="120,-112.5 120,-142.5 267,-142.5 267,-112.5 120,-112.5"/>
<text text-anchor="start" x="128" y="-130.5" font-family="Helvetica,sans-Serif" font-size="10.00">panoc&#45;alm/inner/directions</text>
<text text-anchor="middle" x="193.5" y="-119.5" font-family="Helvetica,sans-Serif" font-size="10.00">/decl/lbfgs&#45;fwd.hpp</text>
</a>
</g>
</g>
<!-- Node3&#45;&gt;Node4 -->
<g id="edge3" class="edge">
<title>Node3&#45;&gt;Node4</title>
<path fill="none" stroke="midnightblue" d="M351.67,-179.4C320.96,-169.52 279.75,-156.25 247.09,-145.74"/>
<polygon fill="midnightblue" stroke="midnightblue" points="247.84,-142.31 237.25,-142.58 245.69,-148.97 247.84,-142.31"/>
</g>
<!-- Node6 -->
<g id="node6" class="node">
<title>Node6</title>
<g id="a_node6"><a xlink:href="../../d7/de4/box_8hpp.html" target="_top" xlink:title=" ">
<polygon fill="white" stroke="black" points="45.5,-118 45.5,-137 101.5,-137 101.5,-118 45.5,-118"/>
<text text-anchor="middle" x="73.5" y="-125" font-family="Helvetica,sans-Serif" font-size="10.00">box.hpp</text>
</a>
</g>
</g>
<!-- Node5&#45;&gt;Node6 -->
<g id="edge5" class="edge">
<title>Node5&#45;&gt;Node6</title>
<path fill="none" stroke="midnightblue" d="M219.23,-184.96C193.16,-174.95 148.67,-157.84 110.5,-143 108.67,-142.29 106.78,-141.55 104.88,-140.81"/>
<polygon fill="midnightblue" stroke="midnightblue" points="105.99,-137.49 95.4,-137.11 103.44,-144.01 105.99,-137.49"/>
</g>
<!-- Node9 -->
<g id="node9" class="node">
<title>Node9</title>
<g id="a_node9"><a xlink:title=" ">
<polygon fill="white" stroke="#bfbfbf" points="372,-118 372,-137 437,-137 437,-118 372,-118"/>
<text text-anchor="middle" x="404.5" y="-125" font-family="Helvetica,sans-Serif" font-size="10.00">functional</text>
</a>
</g>
</g>
<!-- Node5&#45;&gt;Node9 -->
<g id="edge8" class="edge">
<title>Node5&#45;&gt;Node9</title>
<path fill="none" stroke="midnightblue" d="M263.15,-184.87C291.48,-173.57 341.32,-153.7 373.61,-140.82"/>
<polygon fill="midnightblue" stroke="midnightblue" points="375.03,-144.02 383.02,-137.06 372.44,-137.52 375.03,-144.02"/>
</g>
<!-- Node10 -->
<g id="node10" class="node">
<title>Node10</title>
<g id="a_node10"><a xlink:title=" ">
<polygon fill="white" stroke="#bfbfbf" points="285,-118 285,-137 354,-137 354,-118 285,-118"/>
<text text-anchor="middle" x="319.5" y="-125" font-family="Helvetica,sans-Serif" font-size="10.00">type_traits</text>
</a>
</g>
</g>
<!-- Node5&#45;&gt;Node10 -->
<g id="edge9" class="edge">
<title>Node5&#45;&gt;Node10</title>
<path fill="none" stroke="midnightblue" d="M252.02,-184.73C264.65,-174.21 286.04,-156.38 301.36,-143.62"/>
<polygon fill="midnightblue" stroke="midnightblue" points="303.71,-146.22 309.15,-137.13 299.22,-140.84 303.71,-146.22"/>
</g>
<!-- Node7 -->
<g id="node7" class="node">
<title>Node7</title>
<g id="a_node7"><a xlink:href="../../d7/d7c/vec_8hpp.html" target="_top" xlink:title=" ">
<polygon fill="white" stroke="black" points="18,-56.5 18,-75.5 73,-75.5 73,-56.5 18,-56.5"/>
<text text-anchor="middle" x="45.5" y="-63.5" font-family="Helvetica,sans-Serif" font-size="10.00">vec.hpp</text>
</a>
</g>
</g>
<!-- Node6&#45;&gt;Node7 -->
<g id="edge6" class="edge">
<title>Node6&#45;&gt;Node7</title>
<path fill="none" stroke="midnightblue" d="M69.49,-117.98C65.41,-109.32 58.98,-95.65 53.8,-84.65"/>
<polygon fill="midnightblue" stroke="midnightblue" points="56.93,-83.07 49.5,-75.51 50.6,-86.05 56.93,-83.07"/>
</g>
<!-- Node8 -->
<g id="node8" class="node">
<title>Node8</title>
<g id="a_node8"><a xlink:title=" ">
<polygon fill="white" stroke="#bfbfbf" points="11,-0.5 11,-19.5 80,-19.5 80,-0.5 11,-0.5"/>
<text text-anchor="middle" x="45.5" y="-7.5" font-family="Helvetica,sans-Serif" font-size="10.00">Eigen/Core</text>
</a>
</g>
</g>
<!-- Node7&#45;&gt;Node8 -->
<g id="edge7" class="edge">
<title>Node7&#45;&gt;Node8</title>
<path fill="none" stroke="midnightblue" d="M45.5,-56.08C45.5,-49.01 45.5,-38.86 45.5,-29.99"/>
<polygon fill="midnightblue" stroke="midnightblue" points="49,-29.75 45.5,-19.75 42,-29.75 49,-29.75"/>
</g>
<!-- Node12 -->
<g id="node12" class="node">
<title>Node12</title>
<g id="a_node12"><a xlink:title=" ">
<polygon fill="white" stroke="#bfbfbf" points="665.5,-118 665.5,-137 713.5,-137 713.5,-118 665.5,-118"/>
<text text-anchor="middle" x="689.5" y="-125" font-family="Helvetica,sans-Serif" font-size="10.00">iosfwd</text>
</a>
</g>
</g>
<!-- Node11&#45;&gt;Node12 -->
<g id="edge11" class="edge">
<title>Node11&#45;&gt;Node12</title>
<path fill="none" stroke="midnightblue" d="M689.5,-184.73C689.5,-175.18 689.5,-159.62 689.5,-147.28"/>
<polygon fill="midnightblue" stroke="midnightblue" points="693,-147.13 689.5,-137.13 686,-147.13 693,-147.13"/>
</g>
<!-- Node15&#45;&gt;Node4 -->
<g id="edge17" class="edge">
<title>Node15&#45;&gt;Node4</title>
<path fill="none" stroke="midnightblue" d="M99.54,-179.4C116.84,-170.03 139.75,-157.62 158.62,-147.39"/>
<polygon fill="midnightblue" stroke="midnightblue" points="160.39,-150.42 167.51,-142.58 157.05,-144.26 160.39,-150.42"/>
</g>
<!-- Node15&#45;&gt;Node6 -->
<g id="edge15" class="edge">
<title>Node15&#45;&gt;Node6</title>
<path fill="none" stroke="midnightblue" d="M73.5,-179.4C73.5,-170.06 73.5,-157.71 73.5,-147.52"/>
<polygon fill="midnightblue" stroke="midnightblue" points="77,-147.19 73.5,-137.19 70,-147.19 77,-147.19"/>
</g>
<!-- Node15&#45;&gt;Node7 -->
<g id="edge16" class="edge">
<title>Node15&#45;&gt;Node7</title>
<path fill="none" stroke="midnightblue" d="M59.39,-179.46C50.95,-170.03 41.03,-156.84 36.5,-143 30.26,-123.92 34.52,-100.88 39.06,-85.21"/>
<polygon fill="midnightblue" stroke="midnightblue" points="42.4,-86.26 42.13,-75.67 35.73,-84.12 42.4,-86.26"/>
</g>
<!-- Node16&#45;&gt;Node3 -->
<g id="edge19" class="edge">
<title>Node16&#45;&gt;Node3</title>
<path fill="none" stroke="midnightblue" d="M527.05,-246.4C501.95,-236.69 468.41,-223.71 441.48,-213.29"/>
<polygon fill="midnightblue" stroke="midnightblue" points="442.47,-209.92 431.88,-209.58 439.95,-216.45 442.47,-209.92"/>
</g>
<!-- Node16&#45;&gt;Node5 -->
<g id="edge22" class="edge">
<title>Node16&#45;&gt;Node5</title>
<path fill="none" stroke="midnightblue" d="M503.67,-247.89C500.57,-247.25 497.5,-246.61 494.5,-246 425.6,-231.88 346.03,-216.08 294.81,-205.98"/>
<polygon fill="midnightblue" stroke="midnightblue" points="295.44,-202.54 284.95,-204.03 294.09,-209.4 295.44,-202.54"/>
</g>
<!-- Node16&#45;&gt;Node11 -->
<g id="edge23" class="edge">
<title>Node16&#45;&gt;Node11</title>
<path fill="none" stroke="midnightblue" d="M590.84,-246.4C612.56,-235.19 642.7,-219.64 663.94,-208.69"/>
<polygon fill="midnightblue" stroke="midnightblue" points="665.73,-211.7 673.01,-204.01 662.52,-205.48 665.73,-211.7"/>
</g>
<!-- Node16&#45;&gt;Node13 -->
<g id="edge25" class="edge">
<title>Node16&#45;&gt;Node13</title>
<path fill="none" stroke="midnightblue" d="M549.4,-246.4C539.06,-236.06 525.02,-222.02 514.31,-211.31"/>
<polygon fill="midnightblue" stroke="midnightblue" points="516.74,-208.79 507.19,-204.19 511.79,-213.74 516.74,-208.79"/>
</g>
<!-- Node16&#45;&gt;Node14 -->
<g id="edge27" class="edge">
<title>Node16&#45;&gt;Node14</title>
<path fill="none" stroke="midnightblue" d="M563.5,-246.4C563.5,-237.06 563.5,-224.71 563.5,-214.52"/>
<polygon fill="midnightblue" stroke="midnightblue" points="567,-214.19 563.5,-204.19 560,-214.19 567,-214.19"/>
</g>
<!-- Node17 -->
<g id="node17" class="node">
<title>Node17</title>
<g id="a_node17"><a xlink:href="../../d4/d52/atomic__stop__signal_8hpp.html" target="_top" xlink:title=" ">
<polygon fill="white" stroke="black" points="793.5,-179.5 793.5,-209.5 917.5,-209.5 917.5,-179.5 793.5,-179.5"/>
<text text-anchor="start" x="801.5" y="-197.5" font-family="Helvetica,sans-Serif" font-size="10.00">panoc&#45;alm/util/atomic</text>
<text text-anchor="middle" x="855.5" y="-186.5" font-family="Helvetica,sans-Serif" font-size="10.00">_stop_signal.hpp</text>
</a>
</g>
</g>
<!-- Node16&#45;&gt;Node17 -->
<g id="edge20" class="edge">
<title>Node16&#45;&gt;Node17</title>
<path fill="none" stroke="midnightblue" d="M623.3,-247.19C669.66,-236.87 734.09,-222.53 783.32,-211.57"/>
<polygon fill="midnightblue" stroke="midnightblue" points="784.27,-214.94 793.27,-209.35 782.74,-208.11 784.27,-214.94"/>
</g>
<!-- Node18 -->
<g id="node18" class="node">
<title>Node18</title>
<g id="a_node18"><a xlink:title=" ">
<polygon fill="white" stroke="#bfbfbf" points="875.5,-118 875.5,-137 925.5,-137 925.5,-118 875.5,-118"/>
<text text-anchor="middle" x="900.5" y="-125" font-family="Helvetica,sans-Serif" font-size="10.00">atomic</text>
</a>
</g>
</g>
<!-- Node16&#45;&gt;Node18 -->
<g id="edge24" class="edge">
<title>Node16&#45;&gt;Node18</title>
<path fill="none" stroke="midnightblue" d="M623.28,-247.61C626.39,-247.04 629.48,-246.5 632.5,-246 697.43,-235.22 882.88,-259.29 926.5,-210 942.59,-191.82 927.52,-163.62 914.53,-145.61"/>
<polygon fill="midnightblue" stroke="midnightblue" points="916.97,-143.03 908.11,-137.23 911.42,-147.3 916.97,-143.03"/>
</g>
<!-- Node19 -->
<g id="node19" class="node">
<title>Node19</title>
<g id="a_node19"><a xlink:title=" ">
<polygon fill="white" stroke="#bfbfbf" points="973.5,-185 973.5,-204 1017.5,-204 1017.5,-185 973.5,-185"/>
<text text-anchor="middle" x="995.5" y="-192" font-family="Helvetica,sans-Serif" font-size="10.00">limits</text>
</a>
</g>
</g>
<!-- Node16&#45;&gt;Node19 -->
<g id="edge26" class="edge">
<title>Node16&#45;&gt;Node19</title>
<path fill="none" stroke="midnightblue" d="M623.27,-247.57C626.39,-247.01 629.48,-246.48 632.5,-246 776.88,-222.94 817.7,-245.65 959.5,-210 962.16,-209.33 964.89,-208.51 967.6,-207.59"/>
<polygon fill="midnightblue" stroke="midnightblue" points="969,-210.81 977.14,-204.02 966.55,-204.25 969,-210.81"/>
</g>
<!-- Node17&#45;&gt;Node18 -->
<g id="edge21" class="edge">
<title>Node17&#45;&gt;Node18</title>
<path fill="none" stroke="midnightblue" d="M865.26,-179.4C872.14,-169.46 881.39,-156.11 888.68,-145.57"/>
<polygon fill="midnightblue" stroke="midnightblue" points="891.67,-147.41 894.48,-137.19 885.91,-143.42 891.67,-147.41"/>
</g>
<!-- Node20&#45;&gt;Node5 -->
<g id="edge29" class="edge">
<title>Node20&#45;&gt;Node5</title>
<path fill="none" stroke="midnightblue" d="M250.11,-246.4C248.52,-236.96 246.4,-224.45 244.66,-214.19"/>
<polygon fill="midnightblue" stroke="midnightblue" points="248.09,-213.47 242.97,-204.19 241.19,-214.64 248.09,-213.47"/>
</g>
</g>
</svg>
