<?xml version="1.0" encoding="UTF-8" standalone="no"?>
<!DOCTYPE svg PUBLIC "-//W3C//DTD SVG 1.1//EN"
 "http://www.w3.org/Graphics/SVG/1.1/DTD/svg11.dtd">
<!-- Generated by graphviz version 2.43.0 (0)
 -->
<!-- Title: decl Pages: 1 -->
<svg width="114pt" height="223pt"
 viewBox="0.00 0.00 113.50 223.00" xmlns="http://www.w3.org/2000/svg" xmlns:xlink="http://www.w3.org/1999/xlink">
<g id="graph0" class="graph" transform="scale(1 1) rotate(0) translate(4 219)">
<title>decl</title>
<polygon fill="white" stroke="transparent" points="-4,4 -4,-219 109.5,-219 109.5,4 -4,4"/>
<g id="clust1" class="cluster">
<title>clusterdir_3e9c4e5327a81a71a89d9f82f5b1fa78</title>
<g id="a_clust1"><a xlink:href="dir_3e9c4e5327a81a71a89d9f82f5b1fa78.html" target="_top" xlink:title="inner">
<polygon fill="#ddddee" stroke="black" points="8,-136 8,-207 78,-207 78,-136 8,-136"/>
<text text-anchor="middle" x="43" y="-195" font-family="Helvetica,sans-Serif" font-size="10.00">inner</text>
</a>
</g>
</g>
<!-- dir_f541ccf84a3e496034f5ec9176c672a2 -->
<g id="node1" class="node">
<title>dir_f541ccf84a3e496034f5ec9176c672a2</title>
<g id="a_node1"><a xlink:href="dir_f541ccf84a3e496034f5ec9176c672a2.html" target="_top" xlink:title="decl">
<polygon fill="#eeeeff" stroke="black" points="70,-180 16,-180 16,-144 70,-144 70,-180"/>
<text text-anchor="middle" x="43" y="-159.5" font-family="Helvetica,sans-Serif" font-size="10.00">decl</text>
</a>
</g>
</g>
<!-- dir_2bd50800112c18592c4fbe8af353e3db -->
<g id="node2" class="node">
<title>dir_2bd50800112c18592c4fbe8af353e3db</title>
<g id="a_node2"><a xlink:href="dir_2bd50800112c18592c4fbe8af353e3db.html" target="_top" xlink:title="util">
<polygon fill="none" stroke="black" points="69,-36 15,-36 15,0 69,0 69,-36"/>
<text text-anchor="middle" x="42" y="-15.5" font-family="Helvetica,sans-Serif" font-size="10.00">util</text>
</a>
</g>
</g>
<!-- dir_f541ccf84a3e496034f5ec9176c672a2&#45;&gt;dir_2bd50800112c18592c4fbe8af353e3db -->
<g id="edge2" class="edge">
<title>dir_f541ccf84a3e496034f5ec9176c672a2&#45;&gt;dir_2bd50800112c18592c4fbe8af353e3db</title>
<path fill="none" stroke="black" d="M38.54,-143.95C36.06,-133.63 33.25,-120.15 32,-108 30.37,-92.08 30.51,-87.93 32,-72 32.8,-63.48 34.3,-54.28 35.9,-45.99"/>
<polygon fill="black" stroke="black" points="39.36,-46.57 37.94,-36.07 32.5,-45.16 39.36,-46.57"/>
<g id="a_edge2&#45;headlabel"><a xlink:href="dir_000027_000009.html" target="_top" xlink:title="3">
<text text-anchor="middle" x="41.41" y="-48.16" font-family="Helvetica,sans-Serif" font-size="10.00">3</text>
</a>
</g>
</g>
<!-- dir_0458df1e67485cf5278eafdb508857b1 -->
<g id="node3" class="node">
<title>dir_0458df1e67485cf5278eafdb508857b1</title>
<g id="a_node3"><a xlink:href="dir_0458df1e67485cf5278eafdb508857b1.html" target="_top" xlink:title="directions">
<polygon fill="white" stroke="red" points="105.5,-108 40.5,-108 40.5,-72 105.5,-72 105.5,-108"/>
<text text-anchor="middle" x="73" y="-87.5" font-family="Helvetica,sans-Serif" font-size="10.00">directions</text>
</a>
</g>
</g>
<!-- dir_f541ccf84a3e496034f5ec9176c672a2&#45;&gt;dir_0458df1e67485cf5278eafdb508857b1 -->
<g id="edge3" class="edge">
<title>dir_f541ccf84a3e496034f5ec9176c672a2&#45;&gt;dir_0458df1e67485cf5278eafdb508857b1</title>
<path fill="none" stroke="black" d="M50.42,-143.7C53.79,-135.81 57.87,-126.3 61.62,-117.55"/>
<polygon fill="black" stroke="black" points="64.95,-118.67 65.67,-108.1 58.51,-115.92 64.95,-118.67"/>
<g id="a_edge3&#45;headlabel"><a xlink:href="dir_000027_000007.html" target="_top" xlink:title="1">
<text text-anchor="middle" x="66.14" y="-120.6" font-family="Helvetica,sans-Serif" font-size="10.00">1</text>
</a>
</g>
</g>
<!-- dir_0458df1e67485cf5278eafdb508857b1&#45;&gt;dir_2bd50800112c18592c4fbe8af353e3db -->
<g id="edge1" class="edge">
<title>dir_0458df1e67485cf5278eafdb508857b1&#45;&gt;dir_2bd50800112c18592c4fbe8af353e3db</title>
<path fill="none" stroke="black" d="M65.34,-71.7C61.81,-63.73 57.54,-54.1 53.63,-45.26"/>
<polygon fill="black" stroke="black" points="56.82,-43.83 49.57,-36.1 50.42,-46.67 56.82,-43.83"/>
<g id="a_edge1&#45;headlabel"><a xlink:href="dir_000007_000009.html" target="_top" xlink:title="3">
<text text-anchor="middle" x="60.88" y="-43.47" font-family="Helvetica,sans-Serif" font-size="10.00">3</text>
</a>
</g>
</g>
</g>
</svg>
