<?xml version="1.0" encoding="UTF-8" standalone="no"?>
<!DOCTYPE svg PUBLIC "-//W3C//DTD SVG 1.1//EN"
 "http://www.w3.org/Graphics/SVG/1.1/DTD/svg11.dtd">
<!-- Generated by graphviz version 2.43.0 (0)
 -->
<!-- Title: src Pages: 1 -->
<svg width="458pt" height="159pt"
 viewBox="0.00 0.00 458.00 159.00" xmlns="http://www.w3.org/2000/svg" xmlns:xlink="http://www.w3.org/1999/xlink">
<g id="graph0" class="graph" transform="scale(1 1) rotate(0) translate(4 155)">
<title>src</title>
<polygon fill="white" stroke="transparent" points="-4,4 -4,-155 454,-155 454,4 -4,4"/>
<g id="clust1" class="cluster">
<title>clusterdir_68267d1309a1af8e8297ef4c3efbcdba</title>
<g id="a_clust1"><a xlink:href="dir_68267d1309a1af8e8297ef4c3efbcdba.html" target="_top" xlink:title="src">
<polygon fill="#ddddee" stroke="black" points="8,-56 8,-143 442,-143 442,-56 8,-56"/>
<text text-anchor="middle" x="225" y="-131" font-family="Helvetica,sans-Serif" font-size="10.00">src</text>
</a>
</g>
</g>
<g id="clust2" class="cluster">
<title>clusterdir_98cdb10f369f6a3b9149e010b312bf5d</title>
<g id="a_clust2"><a xlink:href="dir_98cdb10f369f6a3b9149e010b312bf5d.html" target="_top">
<polygon fill="#eeeeff" stroke="black" points="16,-64 16,-116 434,-116 434,-64 16,-64"/>
</a>
</g>
</g>
<!-- dir_98cdb10f369f6a3b9149e010b312bf5d -->
<g id="node1" class="node">
<title>dir_98cdb10f369f6a3b9149e010b312bf5d</title>
<text text-anchor="middle" x="399" y="-87.5" font-family="Helvetica,sans-Serif" font-size="10.00">src</text>
</g>
<!-- dir_0a7a0849c028ebab3f9353613f47001a -->
<g id="node2" class="node">
<title>dir_0a7a0849c028ebab3f9353613f47001a</title>
<g id="a_node2"><a xlink:href="dir_0a7a0849c028ebab3f9353613f47001a.html" target="_top" xlink:title="inner">
<polygon fill="white" stroke="red" points="354,-108 300,-108 300,-72 354,-72 354,-108"/>
<text text-anchor="middle" x="327" y="-87.5" font-family="Helvetica,sans-Serif" font-size="10.00">inner</text>
</a>
</g>
</g>
<!-- dir_b0856f6b0d80ccb263b2f415c91f9e17 -->
<g id="node6" class="node">
<title>dir_b0856f6b0d80ccb263b2f415c91f9e17</title>
<g id="a_node6"><a xlink:href="dir_b0856f6b0d80ccb263b2f415c91f9e17.html" target="_top" xlink:title="include">
<polygon fill="white" stroke="red" points="231,-36 177,-36 177,0 231,0 231,-36"/>
<text text-anchor="middle" x="204" y="-15.5" font-family="Helvetica,sans-Serif" font-size="10.00">include</text>
</a>
</g>
</g>
<!-- dir_0a7a0849c028ebab3f9353613f47001a&#45;&gt;dir_b0856f6b0d80ccb263b2f415c91f9e17 -->
<g id="edge2" class="edge">
<title>dir_0a7a0849c028ebab3f9353613f47001a&#45;&gt;dir_b0856f6b0d80ccb263b2f415c91f9e17</title>
<path fill="none" stroke="black" d="M310.77,-71.95C304.9,-66.39 297.99,-60.5 291,-56 275.46,-45.99 256.75,-37.63 240.67,-31.4"/>
<polygon fill="black" stroke="black" points="241.65,-28.03 231.06,-27.8 239.2,-34.58 241.65,-28.03"/>
<g id="a_edge2&#45;headlabel"><a xlink:href="dir_000021_000001.html" target="_top" xlink:title="3">
<text text-anchor="middle" x="246.01" y="-24.13" font-family="Helvetica,sans-Serif" font-size="10.00">3</text>
</a>
</g>
</g>
<!-- dir_95d1a31f2b0a33ae45ff21ad5e1e4817 -->
<g id="node3" class="node">
<title>dir_95d1a31f2b0a33ae45ff21ad5e1e4817</title>
<g id="a_node3"><a xlink:href="dir_95d1a31f2b0a33ae45ff21ad5e1e4817.html" target="_top" xlink:title="interop">
<polygon fill="white" stroke="red" points="282,-108 228,-108 228,-72 282,-72 282,-108"/>
<text text-anchor="middle" x="255" y="-87.5" font-family="Helvetica,sans-Serif" font-size="10.00">interop</text>
</a>
</g>
</g>
<!-- dir_95d1a31f2b0a33ae45ff21ad5e1e4817&#45;&gt;dir_b0856f6b0d80ccb263b2f415c91f9e17 -->
<g id="edge1" class="edge">
<title>dir_95d1a31f2b0a33ae45ff21ad5e1e4817&#45;&gt;dir_b0856f6b0d80ccb263b2f415c91f9e17</title>
<path fill="none" stroke="black" d="M242.39,-71.7C236.4,-63.47 229.12,-53.48 222.52,-44.42"/>
<polygon fill="black" stroke="black" points="225.18,-42.13 216.46,-36.1 219.52,-46.25 225.18,-42.13"/>
<g id="a_edge1&#45;headlabel"><a xlink:href="dir_000013_000001.html" target="_top" xlink:title="3">
<text text-anchor="middle" x="229.59" y="-40.86" font-family="Helvetica,sans-Serif" font-size="10.00">3</text>
</a>
</g>
</g>
<!-- dir_bf0c3669ce9ace6dffd6819bb12c691a -->
<g id="node4" class="node">
<title>dir_bf0c3669ce9ace6dffd6819bb12c691a</title>
<g id="a_node4"><a xlink:href="dir_bf0c3669ce9ace6dffd6819bb12c691a.html" target="_top" xlink:title="reference&#45;problems">
<polygon fill="white" stroke="black" points="209.5,-108 96.5,-108 96.5,-72 209.5,-72 209.5,-108"/>
<text text-anchor="middle" x="153" y="-87.5" font-family="Helvetica,sans-Serif" font-size="10.00">reference&#45;problems</text>
</a>
</g>
</g>
<!-- dir_bf0c3669ce9ace6dffd6819bb12c691a&#45;&gt;dir_b0856f6b0d80ccb263b2f415c91f9e17 -->
<g id="edge4" class="edge">
<title>dir_bf0c3669ce9ace6dffd6819bb12c691a&#45;&gt;dir_b0856f6b0d80ccb263b2f415c91f9e17</title>
<path fill="none" stroke="black" d="M165.61,-71.7C171.6,-63.47 178.88,-53.48 185.48,-44.42"/>
<polygon fill="black" stroke="black" points="188.48,-46.25 191.54,-36.1 182.82,-42.13 188.48,-46.25"/>
<g id="a_edge4&#45;headlabel"><a xlink:href="dir_000028_000001.html" target="_top" xlink:title="1">
<text text-anchor="middle" x="188.66" y="-48.32" font-family="Helvetica,sans-Serif" font-size="10.00">1</text>
</a>
</g>
</g>
<!-- dir_05ed51314894a002c5f2843dde80676d -->
<g id="node5" class="node">
<title>dir_05ed51314894a002c5f2843dde80676d</title>
<g id="a_node5"><a xlink:href="dir_05ed51314894a002c5f2843dde80676d.html" target="_top" xlink:title="util">
<polygon fill="white" stroke="black" points="78,-108 24,-108 24,-72 78,-72 78,-108"/>
<text text-anchor="middle" x="51" y="-87.5" font-family="Helvetica,sans-Serif" font-size="10.00">util</text>
</a>
</g>
</g>
<!-- dir_05ed51314894a002c5f2843dde80676d&#45;&gt;dir_b0856f6b0d80ccb263b2f415c91f9e17 -->
<g id="edge3" class="edge">
<title>dir_05ed51314894a002c5f2843dde80676d&#45;&gt;dir_b0856f6b0d80ccb263b2f415c91f9e17</title>
<path fill="none" stroke="black" d="M67.15,-71.92C73.24,-66.23 80.52,-60.27 88,-56 112.63,-41.95 143.3,-32.46 166.92,-26.62"/>
<polygon fill="black" stroke="black" points="167.97,-29.96 176.89,-24.26 166.36,-23.15 167.97,-29.96"/>
<g id="a_edge3&#45;headlabel"><a xlink:href="dir_000010_000001.html" target="_top" xlink:title="3">
<text text-anchor="middle" x="165.12" y="-31.05" font-family="Helvetica,sans-Serif" font-size="10.00">3</text>
</a>
</g>
</g>
</g>
</svg>
