<?xml version="1.0" encoding="UTF-8" standalone="no"?>
<!DOCTYPE svg PUBLIC "-//W3C//DTD SVG 1.1//EN"
 "http://www.w3.org/Graphics/SVG/1.1/DTD/svg11.dtd">
<!-- Generated by graphviz version 2.43.0 (0)
 -->
<!-- Title: inner Pages: 1 -->
<svg width="141pt" height="375pt"
 viewBox="0.00 0.00 141.00 375.00" xmlns="http://www.w3.org/2000/svg" xmlns:xlink="http://www.w3.org/1999/xlink">
<g id="graph0" class="graph" transform="scale(1 1) rotate(0) translate(4 371)">
<title>inner</title>
<polygon fill="white" stroke="transparent" points="-4,4 -4,-371 137,-371 137,4 -4,4"/>
<g id="clust1" class="cluster">
<title>clusterdir_90b5b0cae34bc1cd1e0eaa0196dab481</title>
<g id="a_clust1"><a xlink:href="dir_90b5b0cae34bc1cd1e0eaa0196dab481.html" target="_top" xlink:title="panoc&#45;alm">
<polygon fill="#ddddee" stroke="black" points="8,-56 8,-359 106,-359 106,-56 8,-56"/>
<text text-anchor="middle" x="57" y="-347" font-family="Helvetica,sans-Serif" font-size="10.00">panoc&#45;alm</text>
</a>
</g>
</g>
<g id="clust2" class="cluster">
<title>clusterdir_3e9c4e5327a81a71a89d9f82f5b1fa78</title>
<g id="a_clust2"><a xlink:href="dir_3e9c4e5327a81a71a89d9f82f5b1fa78.html" target="_top">
<polygon fill="#eeeeff" stroke="black" points="16,-64 16,-332 98,-332 98,-64 16,-64"/>
</a>
</g>
</g>
<!-- dir_3e9c4e5327a81a71a89d9f82f5b1fa78 -->
<g id="node1" class="node">
<title>dir_3e9c4e5327a81a71a89d9f82f5b1fa78</title>
<text text-anchor="middle" x="60" y="-303.5" font-family="Helvetica,sans-Serif" font-size="10.00">inner</text>
</g>
<!-- dir_f541ccf84a3e496034f5ec9176c672a2 -->
<g id="node2" class="node">
<title>dir_f541ccf84a3e496034f5ec9176c672a2</title>
<g id="a_node2"><a xlink:href="dir_f541ccf84a3e496034f5ec9176c672a2.html" target="_top" xlink:title="decl">
<polygon fill="white" stroke="black" points="87,-252 33,-252 33,-216 87,-216 87,-252"/>
<text text-anchor="middle" x="60" y="-231.5" font-family="Helvetica,sans-Serif" font-size="10.00">decl</text>
</a>
</g>
</g>
<!-- dir_3e9c4e5327a81a71a89d9f82f5b1fa78&#45;&gt;dir_f541ccf84a3e496034f5ec9176c672a2 -->
<g id="edge2" class="edge">
<title>dir_3e9c4e5327a81a71a89d9f82f5b1fa78&#45;&gt;dir_f541ccf84a3e496034f5ec9176c672a2</title>
<path fill="none" stroke="black" d="M60,-287.7C60,-279.98 60,-270.71 60,-262.11"/>
<polygon fill="black" stroke="black" points="63.5,-262.1 60,-252.1 56.5,-262.1 63.5,-262.1"/>
<g id="a_edge2&#45;headlabel"><a xlink:href="dir_000006_000027.html" target="_top" xlink:title="1">
<text text-anchor="middle" x="66.34" y="-263.2" font-family="Helvetica,sans-Serif" font-size="10.00">1</text>
</a>
</g>
</g>
<!-- dir_0458df1e67485cf5278eafdb508857b1 -->
<g id="node4" class="node">
<title>dir_0458df1e67485cf5278eafdb508857b1</title>
<g id="a_node4"><a xlink:href="dir_0458df1e67485cf5278eafdb508857b1.html" target="_top" xlink:title="directions">
<polygon fill="white" stroke="red" points="89.5,-180 24.5,-180 24.5,-144 89.5,-144 89.5,-180"/>
<text text-anchor="middle" x="57" y="-159.5" font-family="Helvetica,sans-Serif" font-size="10.00">directions</text>
</a>
</g>
</g>
<!-- dir_f541ccf84a3e496034f5ec9176c672a2&#45;&gt;dir_0458df1e67485cf5278eafdb508857b1 -->
<g id="edge6" class="edge">
<title>dir_f541ccf84a3e496034f5ec9176c672a2&#45;&gt;dir_0458df1e67485cf5278eafdb508857b1</title>
<path fill="none" stroke="black" d="M59.26,-215.7C58.93,-207.98 58.53,-198.71 58.16,-190.11"/>
<polygon fill="black" stroke="black" points="61.66,-189.95 57.73,-180.1 54.66,-190.25 61.66,-189.95"/>
<g id="a_edge6&#45;headlabel"><a xlink:href="dir_000027_000007.html" target="_top" xlink:title="1">
<text text-anchor="middle" x="64.65" y="-190.92" font-family="Helvetica,sans-Serif" font-size="10.00">1</text>
</a>
</g>
</g>
<!-- dir_2bd50800112c18592c4fbe8af353e3db -->
<g id="node5" class="node">
<title>dir_2bd50800112c18592c4fbe8af353e3db</title>
<g id="a_node5"><a xlink:href="dir_2bd50800112c18592c4fbe8af353e3db.html" target="_top" xlink:title="util">
<polygon fill="none" stroke="black" points="133,-36 79,-36 79,0 133,0 133,-36"/>
<text text-anchor="middle" x="106" y="-15.5" font-family="Helvetica,sans-Serif" font-size="10.00">util</text>
</a>
</g>
</g>
<!-- dir_f541ccf84a3e496034f5ec9176c672a2&#45;&gt;dir_2bd50800112c18592c4fbe8af353e3db -->
<g id="edge5" class="edge">
<title>dir_f541ccf84a3e496034f5ec9176c672a2&#45;&gt;dir_2bd50800112c18592c4fbe8af353e3db</title>
<path fill="none" stroke="black" d="M76.3,-215.78C84.53,-206.04 93.84,-193.19 99,-180 116.29,-135.75 113.72,-79.37 110.03,-46.42"/>
<polygon fill="black" stroke="black" points="113.47,-45.68 108.77,-36.19 106.52,-46.55 113.47,-45.68"/>
<g id="a_edge5&#45;headlabel"><a xlink:href="dir_000027_000009.html" target="_top" xlink:title="3">
<text text-anchor="middle" x="116.73" y="-46.4" font-family="Helvetica,sans-Serif" font-size="10.00">3</text>
</a>
</g>
</g>
<!-- dir_82fd9c8b47b758db73e98a227e698837 -->
<g id="node3" class="node">
<title>dir_82fd9c8b47b758db73e98a227e698837</title>
<g id="a_node3"><a xlink:href="dir_82fd9c8b47b758db73e98a227e698837.html" target="_top" xlink:title="detail">
<polygon fill="white" stroke="black" points="78,-108 24,-108 24,-72 78,-72 78,-108"/>
<text text-anchor="middle" x="51" y="-87.5" font-family="Helvetica,sans-Serif" font-size="10.00">detail</text>
</a>
</g>
</g>
<!-- dir_82fd9c8b47b758db73e98a227e698837&#45;&gt;dir_2bd50800112c18592c4fbe8af353e3db -->
<g id="edge1" class="edge">
<title>dir_82fd9c8b47b758db73e98a227e698837&#45;&gt;dir_2bd50800112c18592c4fbe8af353e3db</title>
<path fill="none" stroke="black" d="M64.6,-71.7C71.12,-63.39 79.07,-53.28 86.25,-44.14"/>
<polygon fill="black" stroke="black" points="89.13,-46.13 92.56,-36.1 83.63,-41.81 89.13,-46.13"/>
<g id="a_edge1&#45;headlabel"><a xlink:href="dir_000008_000009.html" target="_top" xlink:title="3">
<text text-anchor="middle" x="89.15" y="-48.21" font-family="Helvetica,sans-Serif" font-size="10.00">3</text>
</a>
</g>
</g>
<!-- dir_0458df1e67485cf5278eafdb508857b1&#45;&gt;dir_82fd9c8b47b758db73e98a227e698837 -->
<g id="edge3" class="edge">
<title>dir_0458df1e67485cf5278eafdb508857b1&#45;&gt;dir_82fd9c8b47b758db73e98a227e698837</title>
<path fill="none" stroke="black" d="M55.52,-143.7C54.86,-135.98 54.06,-126.71 53.32,-118.11"/>
<polygon fill="black" stroke="black" points="56.81,-117.77 52.47,-108.1 49.83,-118.37 56.81,-117.77"/>
<g id="a_edge3&#45;headlabel"><a xlink:href="dir_000007_000008.html" target="_top" xlink:title="2">
<text text-anchor="middle" x="59.94" y="-118.61" font-family="Helvetica,sans-Serif" font-size="10.00">2</text>
</a>
</g>
</g>
<!-- dir_0458df1e67485cf5278eafdb508857b1&#45;&gt;dir_2bd50800112c18592c4fbe8af353e3db -->
<g id="edge4" class="edge">
<title>dir_0458df1e67485cf5278eafdb508857b1&#45;&gt;dir_2bd50800112c18592c4fbe8af353e3db</title>
<path fill="none" stroke="black" d="M68.4,-143.99C74.7,-133.9 82.2,-120.65 87,-108 94.6,-87.97 99.48,-64.18 102.39,-46.24"/>
<polygon fill="black" stroke="black" points="105.88,-46.58 103.92,-36.17 98.96,-45.53 105.88,-46.58"/>
<g id="a_edge4&#45;headlabel"><a xlink:href="dir_000007_000009.html" target="_top" xlink:title="3">
<text text-anchor="middle" x="108.15" y="-48.06" font-family="Helvetica,sans-Serif" font-size="10.00">3</text>
</a>
</g>
</g>
</g>
</svg>
