<?xml version="1.0" encoding="UTF-8" standalone="no"?>
<!DOCTYPE svg PUBLIC "-//W3C//DTD SVG 1.1//EN"
 "http://www.w3.org/Graphics/SVG/1.1/DTD/svg11.dtd">
<!-- Generated by graphviz version 2.43.0 (0)
 -->
<!-- Title: examples Pages: 1 -->
<svg width="346pt" height="132pt"
 viewBox="0.00 0.00 346.00 132.00" xmlns="http://www.w3.org/2000/svg" xmlns:xlink="http://www.w3.org/1999/xlink">
<g id="graph0" class="graph" transform="scale(1 1) rotate(0) translate(4 128)">
<title>examples</title>
<polygon fill="white" stroke="transparent" points="-4,4 -4,-128 342,-128 342,4 -4,4"/>
<g id="clust1" class="cluster">
<title>clusterdir_d28a4824dc47e487b107a5db32ef43c4</title>
<g id="a_clust1"><a xlink:href="dir_d28a4824dc47e487b107a5db32ef43c4.html" target="_top">
<polygon fill="#eeeeff" stroke="black" points="8,-64 8,-116 330,-116 330,-64 8,-64"/>
</a>
</g>
</g>
<!-- dir_d28a4824dc47e487b107a5db32ef43c4 -->
<g id="node1" class="node">
<title>dir_d28a4824dc47e487b107a5db32ef43c4</title>
<text text-anchor="middle" x="289" y="-87.5" font-family="Helvetica,sans-Serif" font-size="10.00">examples</text>
</g>
<!-- dir_ec1fd854e558f8e9d0ef0dbf180823d9 -->
<g id="node2" class="node">
<title>dir_ec1fd854e558f8e9d0ef0dbf180823d9</title>
<g id="a_node2"><a xlink:href="dir_ec1fd854e558f8e9d0ef0dbf180823d9.html" target="_top" xlink:title="CasADi">
<polygon fill="white" stroke="red" points="238,-108 184,-108 184,-72 238,-72 238,-108"/>
<text text-anchor="middle" x="211" y="-87.5" font-family="Helvetica,sans-Serif" font-size="10.00">CasADi</text>
</a>
</g>
</g>
<!-- dir_68267d1309a1af8e8297ef4c3efbcdba -->
<g id="node5" class="node">
<title>dir_68267d1309a1af8e8297ef4c3efbcdba</title>
<g id="a_node5"><a xlink:href="dir_68267d1309a1af8e8297ef4c3efbcdba.html" target="_top" xlink:title="src">
<polygon fill="white" stroke="red" points="166,-36 112,-36 112,0 166,0 166,-36"/>
<text text-anchor="middle" x="139" y="-15.5" font-family="Helvetica,sans-Serif" font-size="10.00">src</text>
</a>
</g>
</g>
<!-- dir_ec1fd854e558f8e9d0ef0dbf180823d9&#45;&gt;dir_68267d1309a1af8e8297ef4c3efbcdba -->
<g id="edge3" class="edge">
<title>dir_ec1fd854e558f8e9d0ef0dbf180823d9&#45;&gt;dir_68267d1309a1af8e8297ef4c3efbcdba</title>
<path fill="none" stroke="black" d="M193.2,-71.7C184.4,-63.14 173.62,-52.66 164,-43.3"/>
<polygon fill="black" stroke="black" points="166.2,-40.57 156.59,-36.1 161.32,-45.58 166.2,-40.57"/>
<g id="a_edge3&#45;headlabel"><a xlink:href="dir_000023_000000.html" target="_top" xlink:title="4">
<text text-anchor="middle" x="170.76" y="-38.54" font-family="Helvetica,sans-Serif" font-size="10.00">4</text>
</a>
</g>
</g>
<!-- dir_8e00f3122b89f4402dfd722681639447 -->
<g id="node3" class="node">
<title>dir_8e00f3122b89f4402dfd722681639447</title>
<g id="a_node3"><a xlink:href="dir_8e00f3122b89f4402dfd722681639447.html" target="_top" xlink:title="CUTEst">
<polygon fill="white" stroke="red" points="166,-108 112,-108 112,-72 166,-72 166,-108"/>
<text text-anchor="middle" x="139" y="-87.5" font-family="Helvetica,sans-Serif" font-size="10.00">CUTEst</text>
</a>
</g>
</g>
<!-- dir_8e00f3122b89f4402dfd722681639447&#45;&gt;dir_68267d1309a1af8e8297ef4c3efbcdba -->
<g id="edge2" class="edge">
<title>dir_8e00f3122b89f4402dfd722681639447&#45;&gt;dir_68267d1309a1af8e8297ef4c3efbcdba</title>
<path fill="none" stroke="black" d="M139,-71.7C139,-63.98 139,-54.71 139,-46.11"/>
<polygon fill="black" stroke="black" points="142.5,-46.1 139,-36.1 135.5,-46.1 142.5,-46.1"/>
<g id="a_edge2&#45;headlabel"><a xlink:href="dir_000025_000000.html" target="_top" xlink:title="4">
<text text-anchor="middle" x="145.34" y="-47.2" font-family="Helvetica,sans-Serif" font-size="10.00">4</text>
</a>
</g>
</g>
<!-- dir_4d3c4fd42acf566296574fd85a2bd137 -->
<g id="node4" class="node">
<title>dir_4d3c4fd42acf566296574fd85a2bd137</title>
<g id="a_node4"><a xlink:href="dir_4d3c4fd42acf566296574fd85a2bd137.html" target="_top" xlink:title="experiments">
<polygon fill="white" stroke="black" points="94,-108 16,-108 16,-72 94,-72 94,-108"/>
<text text-anchor="middle" x="55" y="-87.5" font-family="Helvetica,sans-Serif" font-size="10.00">experiments</text>
</a>
</g>
</g>
<!-- dir_4d3c4fd42acf566296574fd85a2bd137&#45;&gt;dir_68267d1309a1af8e8297ef4c3efbcdba -->
<g id="edge1" class="edge">
<title>dir_4d3c4fd42acf566296574fd85a2bd137&#45;&gt;dir_68267d1309a1af8e8297ef4c3efbcdba</title>
<path fill="none" stroke="black" d="M75.76,-71.7C86.24,-62.97 99.11,-52.24 110.5,-42.75"/>
<polygon fill="black" stroke="black" points="113.03,-45.19 118.47,-36.1 108.55,-39.82 113.03,-45.19"/>
<g id="a_edge1&#45;headlabel"><a xlink:href="dir_000018_000000.html" target="_top" xlink:title="11">
<text text-anchor="middle" x="112.09" y="-47.18" font-family="Helvetica,sans-Serif" font-size="10.00">11</text>
</a>
</g>
</g>
</g>
</svg>
