<?xml version="1.0" encoding="UTF-8" standalone="no"?>
<!DOCTYPE svg PUBLIC "-//W3C//DTD SVG 1.1//EN"
 "http://www.w3.org/Graphics/SVG/1.1/DTD/svg11.dtd">
<!-- Generated by graphviz version 2.43.0 (0)
 -->
<!-- Title: LBFGSBSolver&lt; LineSearchT &gt;::Stats Pages: 1 -->
<svg width="161pt" height="237pt"
 viewBox="0.00 0.00 161.00 237.00" xmlns="http://www.w3.org/2000/svg" xmlns:xlink="http://www.w3.org/1999/xlink">
<g id="graph0" class="graph" transform="scale(1 1) rotate(0) translate(4 233)">
<title>LBFGSBSolver&lt; LineSearchT &gt;::Stats</title>
<polygon fill="white" stroke="transparent" points="-4,4 -4,-233 157,-233 157,4 -4,4"/>
<!-- Node1 -->
<g id="node1" class="node">
<title>Node1</title>
<g id="a_node1"><a xlink:title=" ">
<polygon fill="#bfbfbf" stroke="black" points="0,-0.5 0,-123.5 150,-123.5 150,-0.5 0,-0.5"/>
<text text-anchor="start" x="8" y="-111.5" font-family="Helvetica,sans-Serif" font-size="10.00">LBFGSBSolver&lt; LineSearch</text>
<text text-anchor="middle" x="75" y="-100.5" font-family="Helvetica,sans-Serif" font-size="10.00">T &gt;::Stats</text>
<polyline fill="none" stroke="black" points="0,-93.5 150,-93.5 "/>
<text text-anchor="start" x="8" y="-81.5" font-family="Helvetica,sans-Serif" font-size="10.00">+ iterations</text>
<text text-anchor="start" x="8" y="-70.5" font-family="Helvetica,sans-Serif" font-size="10.00">+ ε</text>
<text text-anchor="start" x="8" y="-59.5" font-family="Helvetica,sans-Serif" font-size="10.00">+ status</text>
<text text-anchor="start" x="8" y="-48.5" font-family="Helvetica,sans-Serif" font-size="10.00">+ linesearch_failures</text>
<text text-anchor="start" x="8" y="-37.5" font-family="Helvetica,sans-Serif" font-size="10.00">+ lbfgs_failures</text>
<text text-anchor="start" x="8" y="-26.5" font-family="Helvetica,sans-Serif" font-size="10.00">+ lbfgs_rejected</text>
<polyline fill="none" stroke="black" points="0,-19.5 150,-19.5 "/>
<text text-anchor="middle" x="75" y="-7.5" font-family="Helvetica,sans-Serif" font-size="10.00"> </text>
</a>
</g>
</g>
<!-- Node2 -->
<g id="node2" class="node">
<title>Node2</title>
<g id="a_node2"><a xlink:title=" ">
<polygon fill="white" stroke="#bfbfbf" points="33,-171.5 33,-228.5 117,-228.5 117,-171.5 33,-171.5"/>
<text text-anchor="middle" x="75" y="-216.5" font-family="Helvetica,sans-Serif" font-size="10.00">microseconds</text>
<polyline fill="none" stroke="#bfbfbf" points="33,-209.5 117,-209.5 "/>
<text text-anchor="middle" x="75" y="-197.5" font-family="Helvetica,sans-Serif" font-size="10.00"> </text>
<polyline fill="none" stroke="#bfbfbf" points="33,-190.5 117,-190.5 "/>
<text text-anchor="middle" x="75" y="-178.5" font-family="Helvetica,sans-Serif" font-size="10.00"> </text>
</a>
</g>
</g>
<!-- Node2&#45;&gt;Node1 -->
<g id="edge1" class="edge">
<title>Node2&#45;&gt;Node1</title>
<path fill="none" stroke="#404040" d="M75,-171.48C75,-161.01 75,-148.53 75,-135.82"/>
<polygon fill="none" stroke="#404040" points="75,-135.62 71,-129.62 75,-123.62 79,-129.62 75,-135.62"/>
<text text-anchor="middle" x="114" y="-145" font-family="Helvetica,sans-Serif" font-size="10.00"> +elapsed_time</text>
</g>
</g>
</svg>
