<?xml version="1.0" encoding="UTF-8" standalone="no"?>
<!DOCTYPE svg PUBLIC "-//W3C//DTD SVG 1.1//EN"
 "http://www.w3.org/Graphics/SVG/1.1/DTD/svg11.dtd">
<!-- Generated by graphviz version 2.43.0 (0)
 -->
<!-- Title: solverstatus.hpp Pages: 1 -->
<svg width="767pt" height="252pt"
 viewBox="0.00 0.00 766.84 252.00" xmlns="http://www.w3.org/2000/svg" xmlns:xlink="http://www.w3.org/1999/xlink">
<g id="graph0" class="graph" transform="scale(1 1) rotate(0) translate(4 248)">
<title>solverstatus.hpp</title>
<polygon fill="white" stroke="transparent" points="-4,4 -4,-248 762.84,-248 762.84,4 -4,4"/>
<!-- Node1 -->
<g id="node1" class="node">
<title>Node1</title>
<g id="a_node1"><a xlink:title=" ">
<polygon fill="#bfbfbf" stroke="black" points="370.34,-224.5 370.34,-243.5 468.34,-243.5 468.34,-224.5 370.34,-224.5"/>
<text text-anchor="middle" x="419.34" y="-231.5" font-family="Helvetica,sans-Serif" font-size="10.00">solverstatus.hpp</text>
</a>
</g>
</g>
<!-- Node2 -->
<g id="node2" class="node">
<title>Node2</title>
<g id="a_node2"><a xlink:href="../../d2/ddc/alm_8hpp.html" target="_top" xlink:title=" ">
<polygon fill="white" stroke="black" points="33.34,-56.5 33.34,-75.5 89.34,-75.5 89.34,-56.5 33.34,-56.5"/>
<text text-anchor="middle" x="61.34" y="-63.5" font-family="Helvetica,sans-Serif" font-size="10.00">alm.hpp</text>
</a>
</g>
</g>
<!-- Node1&#45;&gt;Node2 -->
<g id="edge1" class="edge">
<title>Node1&#45;&gt;Node2</title>
<path fill="none" stroke="midnightblue" d="M360.28,-227.69C256.1,-216.93 46.63,-188.64 4.34,-132 -11.56,-110.71 21.78,-87.79 43.86,-75.67"/>
<polygon fill="midnightblue" stroke="midnightblue" points="360.03,-231.18 370.33,-228.7 360.74,-224.22 360.03,-231.18"/>
</g>
<!-- Node4 -->
<g id="node4" class="node">
<title>Node4</title>
<g id="a_node4"><a xlink:href="../../d4/dd2/decl_2alm_8hpp.html" target="_top" xlink:title=" ">
<polygon fill="white" stroke="black" points="202.34,-168.5 202.34,-187.5 258.34,-187.5 258.34,-168.5 202.34,-168.5"/>
<text text-anchor="middle" x="230.34" y="-175.5" font-family="Helvetica,sans-Serif" font-size="10.00">alm.hpp</text>
</a>
</g>
</g>
<!-- Node1&#45;&gt;Node4 -->
<g id="edge3" class="edge">
<title>Node1&#45;&gt;Node4</title>
<path fill="none" stroke="midnightblue" d="M379.63,-221.66C343.39,-211.3 290.73,-196.25 258.6,-187.08"/>
<polygon fill="midnightblue" stroke="midnightblue" points="378.81,-225.06 389.39,-224.44 380.74,-218.33 378.81,-225.06"/>
</g>
<!-- Node9 -->
<g id="node9" class="node">
<title>Node9</title>
<g id="a_node9"><a xlink:href="../../d2/da2/decl_2panoc_8hpp.html" target="_top" xlink:title=" ">
<polygon fill="white" stroke="black" points="276.84,-168.5 276.84,-187.5 343.84,-187.5 343.84,-168.5 276.84,-168.5"/>
<text text-anchor="middle" x="310.34" y="-175.5" font-family="Helvetica,sans-Serif" font-size="10.00">panoc.hpp</text>
</a>
</g>
</g>
<!-- Node1&#45;&gt;Node9 -->
<g id="edge9" class="edge">
<title>Node1&#45;&gt;Node9</title>
<path fill="none" stroke="midnightblue" d="M392.82,-219.86C372.61,-209.85 345.35,-196.35 327.81,-187.65"/>
<polygon fill="midnightblue" stroke="midnightblue" points="391.31,-223.02 401.82,-224.32 394.42,-216.75 391.31,-223.02"/>
</g>
<!-- Node13 -->
<g id="node13" class="node">
<title>Node13</title>
<g id="a_node13"><a xlink:href="../../d3/d61/guarded-aa-pga_8hpp.html" target="_top" xlink:title=" ">
<polygon fill="white" stroke="black" points="361.84,-168.5 361.84,-187.5 476.84,-187.5 476.84,-168.5 361.84,-168.5"/>
<text text-anchor="middle" x="419.34" y="-175.5" font-family="Helvetica,sans-Serif" font-size="10.00">guarded&#45;aa&#45;pga.hpp</text>
</a>
</g>
</g>
<!-- Node1&#45;&gt;Node13 -->
<g id="edge17" class="edge">
<title>Node1&#45;&gt;Node13</title>
<path fill="none" stroke="midnightblue" d="M419.34,-213.8C419.34,-204.91 419.34,-194.78 419.34,-187.75"/>
<polygon fill="midnightblue" stroke="midnightblue" points="415.84,-214.08 419.34,-224.08 422.84,-214.08 415.84,-214.08"/>
</g>
<!-- Node14 -->
<g id="node14" class="node">
<title>Node14</title>
<g id="a_node14"><a xlink:href="../../da/df4/lbfgspp_8hpp.html" target="_top" xlink:title=" ">
<polygon fill="white" stroke="black" points="495.34,-168.5 495.34,-187.5 569.34,-187.5 569.34,-168.5 495.34,-168.5"/>
<text text-anchor="middle" x="532.34" y="-175.5" font-family="Helvetica,sans-Serif" font-size="10.00">lbfgspp.hpp</text>
</a>
</g>
</g>
<!-- Node1&#45;&gt;Node14 -->
<g id="edge18" class="edge">
<title>Node1&#45;&gt;Node14</title>
<path fill="none" stroke="midnightblue" d="M446.34,-220.1C467.45,-210.01 496.2,-196.27 514.52,-187.52"/>
<polygon fill="midnightblue" stroke="midnightblue" points="444.76,-216.97 437.24,-224.44 447.77,-223.29 444.76,-216.97"/>
</g>
<!-- Node15 -->
<g id="node15" class="node">
<title>Node15</title>
<g id="a_node15"><a xlink:href="../../d6/d5a/pga_8hpp.html" target="_top" xlink:title=" ">
<polygon fill="white" stroke="black" points="587.34,-168.5 587.34,-187.5 643.34,-187.5 643.34,-168.5 587.34,-168.5"/>
<text text-anchor="middle" x="615.34" y="-175.5" font-family="Helvetica,sans-Serif" font-size="10.00">pga.hpp</text>
</a>
</g>
</g>
<!-- Node1&#45;&gt;Node15 -->
<g id="edge19" class="edge">
<title>Node1&#45;&gt;Node15</title>
<path fill="none" stroke="midnightblue" d="M460.15,-221.76C498.21,-211.27 553.99,-195.9 587.28,-186.73"/>
<polygon fill="midnightblue" stroke="midnightblue" points="459.11,-218.41 450.39,-224.44 460.96,-225.16 459.11,-218.41"/>
</g>
<!-- Node16 -->
<g id="node16" class="node">
<title>Node16</title>
<g id="a_node16"><a xlink:href="../../d3/d94/solverstatus_8cpp.html" target="_top" xlink:title=" ">
<polygon fill="white" stroke="black" points="661.84,-168.5 661.84,-187.5 758.84,-187.5 758.84,-168.5 661.84,-168.5"/>
<text text-anchor="middle" x="710.34" y="-175.5" font-family="Helvetica,sans-Serif" font-size="10.00">solverstatus.cpp</text>
</a>
</g>
</g>
<!-- Node1&#45;&gt;Node16 -->
<g id="edge20" class="edge">
<title>Node1&#45;&gt;Node16</title>
<path fill="none" stroke="midnightblue" d="M475.38,-222.6C530.37,-212.4 613.24,-197.02 664.44,-187.52"/>
<polygon fill="midnightblue" stroke="midnightblue" points="474.64,-219.18 465.45,-224.44 475.92,-226.06 474.64,-219.18"/>
</g>
<!-- Node3 -->
<g id="node3" class="node">
<title>Node3</title>
<g id="a_node3"><a xlink:href="../../d4/db5/alm_8cpp.html" target="_top" xlink:title=" ">
<polygon fill="white" stroke="black" points="258.34,-0.5 258.34,-19.5 314.34,-19.5 314.34,-0.5 258.34,-0.5"/>
<text text-anchor="middle" x="286.34" y="-7.5" font-family="Helvetica,sans-Serif" font-size="10.00">alm.cpp</text>
</a>
</g>
</g>
<!-- Node2&#45;&gt;Node3 -->
<g id="edge2" class="edge">
<title>Node2&#45;&gt;Node3</title>
<path fill="none" stroke="midnightblue" d="M99.34,-55.88C144.32,-45.08 218.19,-27.36 258.3,-17.73"/>
<polygon fill="midnightblue" stroke="midnightblue" points="98.29,-52.53 89.38,-58.27 99.92,-59.34 98.29,-52.53"/>
</g>
<!-- Node5 -->
<g id="node5" class="node">
<title>Node5</title>
<g id="a_node5"><a xlink:href="../../d6/de7/alm-helpers_8hpp.html" target="_top" xlink:title=" ">
<polygon fill="white" stroke="black" points="13.34,-112.5 13.34,-131.5 109.34,-131.5 109.34,-112.5 13.34,-112.5"/>
<text text-anchor="middle" x="61.34" y="-119.5" font-family="Helvetica,sans-Serif" font-size="10.00">alm&#45;helpers.hpp</text>
</a>
</g>
</g>
<!-- Node4&#45;&gt;Node5 -->
<g id="edge4" class="edge">
<title>Node4&#45;&gt;Node5</title>
<path fill="none" stroke="midnightblue" d="M193.73,-165.3C161.89,-155.13 116.5,-140.62 87.99,-131.52"/>
<polygon fill="midnightblue" stroke="midnightblue" points="192.97,-168.73 203.56,-168.44 195.1,-162.07 192.97,-168.73"/>
</g>
<!-- Node6 -->
<g id="node6" class="node">
<title>Node6</title>
<g id="a_node6"><a xlink:href="../../dc/dd2/CasADi_2Rosenbrock_2main_8cpp.html" target="_top" xlink:title=" ">
<polygon fill="white" stroke="black" points="239.34,-112.5 239.34,-131.5 301.34,-131.5 301.34,-112.5 239.34,-112.5"/>
<text text-anchor="middle" x="270.34" y="-119.5" font-family="Helvetica,sans-Serif" font-size="10.00">main.cpp</text>
</a>
</g>
</g>
<!-- Node4&#45;&gt;Node6 -->
<g id="edge6" class="edge">
<title>Node4&#45;&gt;Node6</title>
<path fill="none" stroke="midnightblue" d="M243.04,-159.86C249.96,-150.5 258.24,-139.33 263.86,-131.75"/>
<polygon fill="midnightblue" stroke="midnightblue" points="240.08,-157.96 236.94,-168.08 245.71,-162.13 240.08,-157.96"/>
</g>
<!-- Node7 -->
<g id="node7" class="node">
<title>Node7</title>
<g id="a_node7"><a xlink:href="../../da/d1e/CUTEst_2Rosenbrock_2main_8cpp.html" target="_top" xlink:title=" ">
<polygon fill="white" stroke="black" points="319.34,-112.5 319.34,-131.5 381.34,-131.5 381.34,-112.5 319.34,-112.5"/>
<text text-anchor="middle" x="350.34" y="-119.5" font-family="Helvetica,sans-Serif" font-size="10.00">main.cpp</text>
</a>
</g>
</g>
<!-- Node4&#45;&gt;Node7 -->
<g id="edge7" class="edge">
<title>Node4&#45;&gt;Node7</title>
<path fill="none" stroke="midnightblue" d="M258.71,-164.23C281.16,-154.13 311.87,-140.31 331.41,-131.52"/>
<polygon fill="midnightblue" stroke="midnightblue" points="257.03,-161.15 249.35,-168.44 259.91,-167.53 257.03,-161.15"/>
</g>
<!-- Node8 -->
<g id="node8" class="node">
<title>Node8</title>
<g id="a_node8"><a xlink:href="../../d1/d5a/experiment_8cpp.html" target="_top" xlink:title=" ">
<polygon fill="white" stroke="black" points="127.84,-112.5 127.84,-131.5 220.84,-131.5 220.84,-112.5 127.84,-112.5"/>
<text text-anchor="middle" x="174.34" y="-119.5" font-family="Helvetica,sans-Serif" font-size="10.00">experiment.cpp</text>
</a>
</g>
</g>
<!-- Node4&#45;&gt;Node8 -->
<g id="edge8" class="edge">
<title>Node4&#45;&gt;Node8</title>
<path fill="none" stroke="midnightblue" d="M214.01,-161.25C204.07,-151.67 191.75,-139.79 183.5,-131.83"/>
<polygon fill="midnightblue" stroke="midnightblue" points="211.71,-163.9 221.34,-168.32 216.57,-158.86 211.71,-163.9"/>
</g>
<!-- Node5&#45;&gt;Node2 -->
<g id="edge5" class="edge">
<title>Node5&#45;&gt;Node2</title>
<path fill="none" stroke="midnightblue" d="M61.34,-101.8C61.34,-92.91 61.34,-82.78 61.34,-75.75"/>
<polygon fill="midnightblue" stroke="midnightblue" points="57.84,-102.08 61.34,-112.08 64.84,-102.08 57.84,-102.08"/>
</g>
<!-- Node9&#45;&gt;Node6 -->
<g id="edge13" class="edge">
<title>Node9&#45;&gt;Node6</title>
<path fill="none" stroke="midnightblue" d="M297.64,-159.86C290.71,-150.5 282.43,-139.33 276.82,-131.75"/>
<polygon fill="midnightblue" stroke="midnightblue" points="294.97,-162.13 303.73,-168.08 300.59,-157.96 294.97,-162.13"/>
</g>
<!-- Node9&#45;&gt;Node7 -->
<g id="edge14" class="edge">
<title>Node9&#45;&gt;Node7</title>
<path fill="none" stroke="midnightblue" d="M323.04,-159.86C329.96,-150.5 338.24,-139.33 343.86,-131.75"/>
<polygon fill="midnightblue" stroke="midnightblue" points="320.08,-157.96 316.94,-168.08 325.71,-162.13 320.08,-157.96"/>
</g>
<!-- Node9&#45;&gt;Node8 -->
<g id="edge15" class="edge">
<title>Node9&#45;&gt;Node8</title>
<path fill="none" stroke="midnightblue" d="M279.2,-164.64C253.68,-154.5 218.23,-140.43 195.79,-131.52"/>
<polygon fill="midnightblue" stroke="midnightblue" points="278.2,-168.01 288.79,-168.44 280.79,-161.5 278.2,-168.01"/>
</g>
<!-- Node10 -->
<g id="node10" class="node">
<title>Node10</title>
<g id="a_node10"><a xlink:href="../../d5/de9/panoc_8hpp.html" target="_top" xlink:title=" ">
<polygon fill="white" stroke="black" points="539.84,-112.5 539.84,-131.5 606.84,-131.5 606.84,-112.5 539.84,-112.5"/>
<text text-anchor="middle" x="573.34" y="-119.5" font-family="Helvetica,sans-Serif" font-size="10.00">panoc.hpp</text>
</a>
</g>
</g>
<!-- Node9&#45;&gt;Node10 -->
<g id="edge10" class="edge">
<title>Node9&#45;&gt;Node10</title>
<path fill="none" stroke="midnightblue" d="M354.12,-167.85C433.59,-151.48 454.79,-147.59 530.34,-132 533.33,-131.38 536.43,-130.74 539.54,-130.09"/>
<polygon fill="midnightblue" stroke="midnightblue" points="353.22,-164.46 344.13,-169.91 354.64,-171.32 353.22,-164.46"/>
</g>
<!-- Node12 -->
<g id="node12" class="node">
<title>Node12</title>
<g id="a_node12"><a xlink:href="../../db/dbf/panocexperiment_8cpp.html" target="_top" xlink:title=" ">
<polygon fill="white" stroke="black" points="399.34,-112.5 399.34,-131.5 521.34,-131.5 521.34,-112.5 399.34,-112.5"/>
<text text-anchor="middle" x="460.34" y="-119.5" font-family="Helvetica,sans-Serif" font-size="10.00">panocexperiment.cpp</text>
</a>
</g>
</g>
<!-- Node9&#45;&gt;Node12 -->
<g id="edge16" class="edge">
<title>Node9&#45;&gt;Node12</title>
<path fill="none" stroke="midnightblue" d="M343.56,-165.04C371.79,-154.88 411.6,-140.55 436.68,-131.52"/>
<polygon fill="midnightblue" stroke="midnightblue" points="342.33,-161.76 334.11,-168.44 344.7,-168.35 342.33,-161.76"/>
</g>
<!-- Node10&#45;&gt;Node3 -->
<g id="edge11" class="edge">
<title>Node10&#45;&gt;Node3</title>
<path fill="none" stroke="midnightblue" d="M541.31,-108.73C482.66,-86.25 359.37,-38.99 308.75,-19.59"/>
<polygon fill="midnightblue" stroke="midnightblue" points="540.23,-112.06 550.82,-112.37 542.73,-105.52 540.23,-112.06"/>
</g>
<!-- Node11 -->
<g id="node11" class="node">
<title>Node11</title>
<g id="a_node11"><a xlink:href="../../d7/d9f/panoc_8cpp.html" target="_top" xlink:title=" ">
<polygon fill="white" stroke="black" points="540.34,-56.5 540.34,-75.5 606.34,-75.5 606.34,-56.5 540.34,-56.5"/>
<text text-anchor="middle" x="573.34" y="-63.5" font-family="Helvetica,sans-Serif" font-size="10.00">panoc.cpp</text>
</a>
</g>
</g>
<!-- Node10&#45;&gt;Node11 -->
<g id="edge12" class="edge">
<title>Node10&#45;&gt;Node11</title>
<path fill="none" stroke="midnightblue" d="M573.34,-101.8C573.34,-92.91 573.34,-82.78 573.34,-75.75"/>
<polygon fill="midnightblue" stroke="midnightblue" points="569.84,-102.08 573.34,-112.08 576.84,-102.08 569.84,-102.08"/>
</g>
</g>
</svg>
