<?xml version="1.0" encoding="UTF-8" standalone="no"?>
<!DOCTYPE svg PUBLIC "-//W3C//DTD SVG 1.1//EN"
 "http://www.w3.org/Graphics/SVG/1.1/DTD/svg11.dtd">
<!-- Generated by graphviz version 2.43.0 (0)
 -->
<!-- Title: PGA Pages: 1 -->
<svg width="256pt" height="386pt"
 viewBox="0.00 0.00 256.00 386.00" xmlns="http://www.w3.org/2000/svg" xmlns:xlink="http://www.w3.org/1999/xlink">
<g id="graph0" class="graph" transform="scale(1 1) rotate(0) translate(4 382)">
<title>PGA</title>
<polygon fill="white" stroke="transparent" points="-4,4 -4,-382 252,-382 252,4 -4,4"/>
<!-- Node1 -->
<g id="node1" class="node">
<title>Node1</title>
<g id="a_node1"><a xlink:title="Standard Proximal Gradient Algorithm without any bells and whistles.">
<polygon fill="#bfbfbf" stroke="black" points="57.5,-0.5 57.5,-101.5 150.5,-101.5 150.5,-0.5 57.5,-0.5"/>
<text text-anchor="middle" x="104" y="-89.5" font-family="Helvetica,sans-Serif" font-size="10.00">PGA</text>
<polyline fill="none" stroke="black" points="57.5,-82.5 150.5,-82.5 "/>
<text text-anchor="middle" x="104" y="-70.5" font-family="Helvetica,sans-Serif" font-size="10.00"> </text>
<polyline fill="none" stroke="black" points="57.5,-63.5 150.5,-63.5 "/>
<text text-anchor="start" x="65.5" y="-51.5" font-family="Helvetica,sans-Serif" font-size="10.00">+ PGA()</text>
<text text-anchor="start" x="65.5" y="-40.5" font-family="Helvetica,sans-Serif" font-size="10.00">+ operator()()</text>
<text text-anchor="start" x="65.5" y="-29.5" font-family="Helvetica,sans-Serif" font-size="10.00">+ get_name()</text>
<text text-anchor="start" x="65.5" y="-18.5" font-family="Helvetica,sans-Serif" font-size="10.00">+ stop()</text>
<text text-anchor="start" x="65.5" y="-7.5" font-family="Helvetica,sans-Serif" font-size="10.00">+ get_params()</text>
</a>
</g>
</g>
<!-- Node2 -->
<g id="node2" class="node">
<title>Node2</title>
<g id="a_node2"><a xlink:href="../../d5/db1/classpa_1_1AtomicStopSignal.html" target="_top" xlink:title=" ">
<polygon fill="white" stroke="black" points="0,-149.5 0,-272.5 122,-272.5 122,-149.5 0,-149.5"/>
<text text-anchor="middle" x="61" y="-260.5" font-family="Helvetica,sans-Serif" font-size="10.00">AtomicStopSignal</text>
<polyline fill="none" stroke="black" points="0,-253.5 122,-253.5 "/>
<text text-anchor="start" x="8" y="-241.5" font-family="Helvetica,sans-Serif" font-size="10.00">&#45; stop_flag</text>
<polyline fill="none" stroke="black" points="0,-234.5 122,-234.5 "/>
<text text-anchor="start" x="8" y="-222.5" font-family="Helvetica,sans-Serif" font-size="10.00">+ AtomicStopSignal()</text>
<text text-anchor="start" x="8" y="-211.5" font-family="Helvetica,sans-Serif" font-size="10.00">+ AtomicStopSignal()</text>
<text text-anchor="start" x="8" y="-200.5" font-family="Helvetica,sans-Serif" font-size="10.00">+ operator=()</text>
<text text-anchor="start" x="8" y="-189.5" font-family="Helvetica,sans-Serif" font-size="10.00">+ AtomicStopSignal()</text>
<text text-anchor="start" x="8" y="-178.5" font-family="Helvetica,sans-Serif" font-size="10.00">+ operator=()</text>
<text text-anchor="start" x="8" y="-167.5" font-family="Helvetica,sans-Serif" font-size="10.00">+ stop()</text>
<text text-anchor="start" x="8" y="-156.5" font-family="Helvetica,sans-Serif" font-size="10.00">+ stop_requested()</text>
</a>
</g>
</g>
<!-- Node2&#45;&gt;Node1 -->
<g id="edge1" class="edge">
<title>Node2&#45;&gt;Node1</title>
<path fill="none" stroke="#404040" d="M74.43,-149.31C76.82,-139.48 79.38,-129.43 82,-120 82.62,-117.76 83.27,-115.48 83.94,-113.18"/>
<polygon fill="none" stroke="#404040" points="83.96,-113.11 81.86,-106.21 87.42,-101.62 89.52,-108.52 83.96,-113.11"/>
<text text-anchor="middle" x="113.5" y="-123" font-family="Helvetica,sans-Serif" font-size="10.00"> &#45;stop_signal</text>
</g>
<!-- Node3 -->
<g id="node3" class="node">
<title>Node3</title>
<g id="a_node3"><a xlink:href="../../de/d4f/namespacepa.html#df/da7/structpa_1_1PGAParams" target="_top" xlink:title=" ">
<polygon fill="white" stroke="black" points="140.5,-171.5 140.5,-250.5 233.5,-250.5 233.5,-171.5 140.5,-171.5"/>
<text text-anchor="middle" x="187" y="-238.5" font-family="Helvetica,sans-Serif" font-size="10.00">PGAParams</text>
<polyline fill="none" stroke="black" points="140.5,-231.5 233.5,-231.5 "/>
<text text-anchor="start" x="148.5" y="-219.5" font-family="Helvetica,sans-Serif" font-size="10.00">+ Lipschitz</text>
<text text-anchor="start" x="148.5" y="-208.5" font-family="Helvetica,sans-Serif" font-size="10.00">+ max_iter</text>
<text text-anchor="start" x="148.5" y="-197.5" font-family="Helvetica,sans-Serif" font-size="10.00">+ print_interval</text>
<polyline fill="none" stroke="black" points="140.5,-190.5 233.5,-190.5 "/>
<text text-anchor="middle" x="187" y="-178.5" font-family="Helvetica,sans-Serif" font-size="10.00"> </text>
</a>
</g>
</g>
<!-- Node3&#45;&gt;Node1 -->
<g id="edge2" class="edge">
<title>Node3&#45;&gt;Node1</title>
<path fill="none" stroke="#404040" d="M170.1,-171.46C162.76,-155.36 153.84,-136.59 145,-120 143.66,-117.49 142.27,-114.93 140.84,-112.37"/>
<polygon fill="none" stroke="#404040" points="140.76,-112.22 134.32,-108.98 134.84,-101.79 141.28,-105.03 140.76,-112.22"/>
<text text-anchor="middle" x="171" y="-123" font-family="Helvetica,sans-Serif" font-size="10.00"> &#45;params</text>
</g>
<!-- Node4 -->
<g id="node4" class="node">
<title>Node4</title>
<g id="a_node4"><a xlink:title=" ">
<polygon fill="white" stroke="#bfbfbf" points="145,-320.5 145,-377.5 229,-377.5 229,-320.5 145,-320.5"/>
<text text-anchor="middle" x="187" y="-365.5" font-family="Helvetica,sans-Serif" font-size="10.00">microseconds</text>
<polyline fill="none" stroke="#bfbfbf" points="145,-358.5 229,-358.5 "/>
<text text-anchor="middle" x="187" y="-346.5" font-family="Helvetica,sans-Serif" font-size="10.00"> </text>
<polyline fill="none" stroke="#bfbfbf" points="145,-339.5 229,-339.5 "/>
<text text-anchor="middle" x="187" y="-327.5" font-family="Helvetica,sans-Serif" font-size="10.00"> </text>
</a>
</g>
</g>
<!-- Node4&#45;&gt;Node3 -->
<g id="edge3" class="edge">
<title>Node4&#45;&gt;Node3</title>
<path fill="none" stroke="#404040" d="M187,-320.48C187,-303.91 187,-282.3 187,-262.73"/>
<polygon fill="none" stroke="#404040" points="187,-262.56 183,-256.56 187,-250.56 191,-256.56 187,-262.56"/>
<text text-anchor="middle" x="217.5" y="-294" font-family="Helvetica,sans-Serif" font-size="10.00"> +max_time</text>
</g>
</g>
</svg>
