<?xml version="1.0" encoding="UTF-8" standalone="no"?>
<!DOCTYPE svg PUBLIC "-//W3C//DTD SVG 1.1//EN"
 "http://www.w3.org/Graphics/SVG/1.1/DTD/svg11.dtd">
<!-- Generated by graphviz version 2.43.0 (0)
 -->
<!-- Title: operator() Pages: 1 -->
<svg width="260pt" height="78pt"
 viewBox="0.00 0.00 260.00 77.50" xmlns="http://www.w3.org/2000/svg" xmlns:xlink="http://www.w3.org/1999/xlink">
<g id="graph0" class="graph" transform="scale(1 1) rotate(0) translate(4 73.5)">
<title>operator()</title>
<polygon fill="white" stroke="transparent" points="-4,4 -4,-73.5 256,-73.5 256,4 -4,4"/>
<!-- Node1 -->
<g id="node1" class="node">
<title>Node1</title>
<g id="a_node1"><a xlink:title=" ">
<polygon fill="#bfbfbf" stroke="black" points="0,-28 0,-47 65,-47 65,-28 0,-28"/>
<text text-anchor="middle" x="32.5" y="-35" font-family="Helvetica,sans-Serif" font-size="10.00">operator()</text>
</a>
</g>
</g>
<!-- Node2 -->
<g id="node2" class="node">
<title>Node2</title>
<g id="a_node2"><a xlink:href="classpa_1_1PolymorphicInnerSolverTrampoline.html#a0ce7b5ca4c72eb8e0ee20e3c7a236c8c" target="_top" xlink:title=" ">
<polygon fill="white" stroke="black" points="159.5,-50 159.5,-69 193.5,-69 193.5,-50 159.5,-50"/>
<text text-anchor="middle" x="176.5" y="-57" font-family="Helvetica,sans-Serif" font-size="10.00">call</text>
</a>
</g>
</g>
<!-- Node1&#45;&gt;Node2 -->
<g id="edge1" class="edge">
<title>Node1&#45;&gt;Node2</title>
<path fill="none" stroke="midnightblue" d="M65.01,-42.38C90.38,-46.31 125.61,-51.77 149.41,-55.46"/>
<polygon fill="midnightblue" stroke="midnightblue" points="149.05,-58.94 159.47,-57.02 150.12,-52.03 149.05,-58.94"/>
</g>
<!-- Node3 -->
<g id="node3" class="node">
<title>Node3</title>
<g id="a_node3"><a xlink:href="structpa_1_1PolymorphicInnerSolverBase_1_1Stats.html#a2b19ef70fce315531e25f9b1af097099" target="_top" xlink:title=" ">
<polygon fill="white" stroke="black" points="101,-0.5 101,-30.5 252,-30.5 252,-0.5 101,-0.5"/>
<text text-anchor="start" x="109" y="-18.5" font-family="Helvetica,sans-Serif" font-size="10.00">pa::PolymorphicInnerSolver</text>
<text text-anchor="middle" x="176.5" y="-7.5" font-family="Helvetica,sans-Serif" font-size="10.00">Base::Stats::from_dict</text>
</a>
</g>
</g>
<!-- Node1&#45;&gt;Node3 -->
<g id="edge2" class="edge">
<title>Node1&#45;&gt;Node3</title>
<path fill="none" stroke="midnightblue" d="M65.01,-32.62C72.87,-31.4 81.68,-30.04 90.8,-28.62"/>
<polygon fill="midnightblue" stroke="midnightblue" points="91.45,-32.06 100.79,-27.07 90.38,-25.15 91.45,-32.06"/>
</g>
</g>
</svg>
