<?xml version="1.0" encoding="UTF-8" standalone="no"?>
<!DOCTYPE svg PUBLIC "-//W3C//DTD SVG 1.1//EN"
 "http://www.w3.org/Graphics/SVG/1.1/DTD/svg11.dtd">
<!-- Generated by graphviz version 2.43.0 (0)
 -->
<!-- Title: size Pages: 1 -->
<svg width="626pt" height="145pt"
 viewBox="0.00 0.00 626.00 144.94" xmlns="http://www.w3.org/2000/svg" xmlns:xlink="http://www.w3.org/1999/xlink">
<g id="graph0" class="graph" transform="scale(1 1) rotate(0) translate(4 140.94)">
<title>size</title>
<polygon fill="white" stroke="transparent" points="-4,4 -4,-140.94 622,-140.94 622,4 -4,4"/>
<!-- Node1 -->
<g id="node1" class="node">
<title>Node1</title>
<g id="a_node1"><a xlink:title=" ">
<polygon fill="#bfbfbf" stroke="black" points="582,-107.5 582,-126.5 618,-126.5 618,-107.5 582,-107.5"/>
<text text-anchor="middle" x="600" y="-114.5" font-family="Helvetica,sans-Serif" font-size="10.00">size</text>
</a>
</g>
</g>
<!-- Node2 -->
<g id="node2" class="node">
<title>Node2</title>
<g id="a_node2"><a xlink:href="namespacepa.html#adf74e7674514afed3ae1c356ffcb9e45" target="_top" xlink:title=" ">
<polygon fill="white" stroke="black" points="149,-63.5 149,-82.5 213,-82.5 213,-63.5 149,-63.5"/>
<text text-anchor="middle" x="181" y="-70.5" font-family="Helvetica,sans-Serif" font-size="10.00">pa::panoc</text>
</a>
</g>
</g>
<!-- Node1&#45;&gt;Node2 -->
<g id="edge1" class="edge">
<title>Node1&#45;&gt;Node2</title>
<path fill="none" stroke="midnightblue" d="M571.57,-122.21C511.55,-132.5 364.64,-151.58 249,-117 226.6,-110.3 204.75,-93.45 192.37,-82.65"/>
<polygon fill="midnightblue" stroke="midnightblue" points="572.51,-125.6 581.74,-120.4 571.29,-118.7 572.51,-125.6"/>
</g>
<!-- Node4 -->
<g id="node4" class="node">
<title>Node4</title>
<g id="a_node4"><a xlink:href="classpa_1_1vec__allocator.html#ac6f0ae398f6cbe67f4b845dcede0874a" target="_top" xlink:title=" ">
<polygon fill="white" stroke="black" points="472,-88.5 472,-107.5 546,-107.5 546,-88.5 472,-88.5"/>
<text text-anchor="middle" x="509" y="-95.5" font-family="Helvetica,sans-Serif" font-size="10.00">used_space</text>
</a>
</g>
</g>
<!-- Node1&#45;&gt;Node4 -->
<g id="edge3" class="edge">
<title>Node1&#45;&gt;Node4</title>
<path fill="none" stroke="midnightblue" d="M571.86,-111.21C563.79,-109.48 554.82,-107.57 546.26,-105.74"/>
<polygon fill="midnightblue" stroke="midnightblue" points="571.33,-114.67 581.84,-113.34 572.79,-107.83 571.33,-114.67"/>
</g>
<!-- Node3 -->
<g id="node3" class="node">
<title>Node3</title>
<g id="a_node3"><a xlink:href="panocpy_8cpp.html#a874ce6effe8570e8994966f291e5e321" target="_top" xlink:title=" ">
<polygon fill="white" stroke="black" points="0,-63.5 0,-82.5 113,-82.5 113,-63.5 0,-63.5"/>
<text text-anchor="middle" x="56.5" y="-70.5" font-family="Helvetica,sans-Serif" font-size="10.00">PYBIND11_MODULE</text>
</a>
</g>
</g>
<!-- Node2&#45;&gt;Node3 -->
<g id="edge2" class="edge">
<title>Node2&#45;&gt;Node3</title>
<path fill="none" stroke="midnightblue" d="M138.52,-73C130.45,-73 121.88,-73 113.43,-73"/>
<polygon fill="midnightblue" stroke="midnightblue" points="138.77,-76.5 148.77,-73 138.77,-69.5 138.77,-76.5"/>
</g>
<!-- Node5 -->
<g id="node5" class="node">
<title>Node5</title>
<g id="a_node5"><a xlink:href="classpa_1_1vec__allocator.html#afa36e1f076dd1627a83324e717038836" target="_top" xlink:title=" ">
<polygon fill="white" stroke="black" points="396,-66.5 396,-85.5 436,-85.5 436,-66.5 396,-66.5"/>
<text text-anchor="middle" x="416" y="-73.5" font-family="Helvetica,sans-Serif" font-size="10.00">alloc</text>
</a>
</g>
</g>
<!-- Node4&#45;&gt;Node5 -->
<g id="edge4" class="edge">
<title>Node4&#45;&gt;Node5</title>
<path fill="none" stroke="midnightblue" d="M461.93,-86.86C452.81,-84.66 443.71,-82.46 436.12,-80.62"/>
<polygon fill="midnightblue" stroke="midnightblue" points="461.23,-90.29 471.77,-89.24 462.88,-83.49 461.23,-90.29"/>
</g>
<!-- Node6 -->
<g id="node6" class="node">
<title>Node6</title>
<g id="a_node6"><a xlink:href="classpa_1_1vec__allocator.html#a13b31e77cb42e84dcb0a27d9f60b53f5" target="_top" xlink:title=" ">
<polygon fill="white" stroke="black" points="274,-88.5 274,-107.5 335,-107.5 335,-88.5 274,-88.5"/>
<text text-anchor="middle" x="304.5" y="-95.5" font-family="Helvetica,sans-Serif" font-size="10.00">alloc_raii</text>
</a>
</g>
</g>
<!-- Node5&#45;&gt;Node6 -->
<g id="edge5" class="edge">
<title>Node5&#45;&gt;Node6</title>
<path fill="none" stroke="midnightblue" d="M385.73,-81.88C370.06,-85.03 350.79,-88.9 335.07,-92.06"/>
<polygon fill="midnightblue" stroke="midnightblue" points="386.81,-85.23 395.93,-79.83 385.43,-78.37 386.81,-85.23"/>
</g>
<!-- Node7 -->
<g id="node7" class="node">
<title>Node7</title>
<g id="a_node7"><a xlink:href="namespacepa_1_1detail.html#acf8b14d5069db17a0ab2113bc641cb08" target="_top" xlink:title="Estimate the Lipschitz constant of the gradient &#160;using finite differences.">
<polygon fill="white" stroke="black" points="249,-39 249,-69 360,-69 360,-39 249,-39"/>
<text text-anchor="start" x="257" y="-57" font-family="Helvetica,sans-Serif" font-size="10.00">pa::detail::initial</text>
<text text-anchor="middle" x="304.5" y="-46" font-family="Helvetica,sans-Serif" font-size="10.00">_lipschitz_estimate</text>
</a>
</g>
</g>
<!-- Node5&#45;&gt;Node7 -->
<g id="edge6" class="edge">
<title>Node5&#45;&gt;Node7</title>
<path fill="none" stroke="midnightblue" d="M386.03,-70.18C378.02,-68.57 369.06,-66.77 360.11,-64.97"/>
<polygon fill="midnightblue" stroke="midnightblue" points="385.43,-73.63 395.93,-72.17 386.81,-66.77 385.43,-73.63"/>
</g>
<!-- Node8 -->
<g id="node8" class="node">
<title>Node8</title>
<g id="a_node8"><a xlink:href="namespacepa.html#a2b97bf67604c439eca0a540664930d61" target="_top" xlink:title=" ">
<polygon fill="white" stroke="black" points="259,-0.5 259,-19.5 350,-19.5 350,-0.5 259,-0.5"/>
<text text-anchor="middle" x="304.5" y="-7.5" font-family="Helvetica,sans-Serif" font-size="10.00">pa::panoc_impl</text>
</a>
</g>
</g>
<!-- Node5&#45;&gt;Node8 -->
<g id="edge7" class="edge">
<title>Node5&#45;&gt;Node8</title>
<path fill="none" stroke="midnightblue" d="M398.29,-58.83C387.99,-49.01 374.09,-37.09 360,-29 353.57,-25.31 346.3,-22.16 339.22,-19.56"/>
<polygon fill="midnightblue" stroke="midnightblue" points="396.13,-61.61 405.72,-66.13 401.04,-56.62 396.13,-61.61"/>
</g>
<!-- Node8&#45;&gt;Node2 -->
<g id="edge8" class="edge">
<title>Node8&#45;&gt;Node2</title>
<path fill="none" stroke="midnightblue" d="M262.43,-23.09C257.83,-24.92 253.27,-26.89 249,-29 229.03,-38.85 207.85,-53.58 194.78,-63.23"/>
<polygon fill="midnightblue" stroke="midnightblue" points="263.7,-26.35 271.83,-19.56 261.24,-19.8 263.7,-26.35"/>
</g>
</g>
</svg>
