<?xml version="1.0" encoding="UTF-8" standalone="no"?>
<!DOCTYPE svg PUBLIC "-//W3C//DTD SVG 1.1//EN"
 "http://www.w3.org/Graphics/SVG/1.1/DTD/svg11.dtd">
<!-- Generated by graphviz version 2.43.0 (0)
 -->
<!-- Title: end Pages: 1 -->
<svg width="401pt" height="170pt"
 viewBox="0.00 0.00 401.00 170.00" xmlns="http://www.w3.org/2000/svg" xmlns:xlink="http://www.w3.org/1999/xlink">
<g id="graph0" class="graph" transform="scale(1 1) rotate(0) translate(4 166)">
<title>end</title>
<polygon fill="white" stroke="transparent" points="-4,4 -4,-166 397,-166 397,4 -4,4"/>
<!-- Node1 -->
<g id="node1" class="node">
<title>Node1</title>
<g id="a_node1"><a xlink:title=" ">
<polygon fill="#bfbfbf" stroke="black" points="358,-69 358,-88 393,-88 393,-69 358,-69"/>
<text text-anchor="middle" x="375.5" y="-76" font-family="Helvetica,sans-Serif" font-size="10.00">end</text>
</a>
</g>
</g>
<!-- Node2 -->
<g id="node2" class="node">
<title>Node2</title>
<g id="a_node2"><a xlink:href="classpa_1_1CircularRange.html#a93791e61ab486b4022c389d634b4facc" target="_top" xlink:title=" ">
<polygon fill="white" stroke="black" points="230.5,-131 230.5,-150 270.5,-150 270.5,-131 230.5,-131"/>
<text text-anchor="middle" x="250.5" y="-138" font-family="Helvetica,sans-Serif" font-size="10.00">cend</text>
</a>
</g>
</g>
<!-- Node1&#45;&gt;Node2 -->
<g id="edge1" class="edge">
<title>Node1&#45;&gt;Node2</title>
<path fill="none" stroke="midnightblue" d="M355.06,-94.71C345.54,-102.09 333.63,-110.48 322,-116.5 305.46,-125.05 285.22,-131.58 270.68,-135.65"/>
<polygon fill="midnightblue" stroke="midnightblue" points="357.43,-97.3 363.07,-88.33 353.07,-91.83 357.43,-97.3"/>
</g>
<!-- Node4 -->
<g id="node4" class="node">
<title>Node4</title>
<g id="a_node4"><a xlink:href="classpa_1_1CircularRange.html#a81f80a31923e85af56a7b1ae0712a33b" target="_top" xlink:title=" ">
<polygon fill="white" stroke="black" points="224,-88 224,-107 277,-107 277,-88 224,-88"/>
<text text-anchor="middle" x="250.5" y="-95" font-family="Helvetica,sans-Serif" font-size="10.00">crbegin</text>
</a>
</g>
</g>
<!-- Node1&#45;&gt;Node4 -->
<g id="edge3" class="edge">
<title>Node1&#45;&gt;Node4</title>
<path fill="none" stroke="midnightblue" d="M347.78,-82.63C326.85,-85.86 297.91,-90.33 277.23,-93.52"/>
<polygon fill="midnightblue" stroke="midnightblue" points="348.56,-86.05 357.91,-81.06 347.49,-79.13 348.56,-86.05"/>
</g>
<!-- Node6 -->
<g id="node6" class="node">
<title>Node6</title>
<g id="a_node6"><a xlink:href="classpa_1_1CircularRange.html#a4da62c698565a7f1bab4a15a86b167e1" target="_top" xlink:title=" ">
<polygon fill="white" stroke="black" points="227,-50 227,-69 274,-69 274,-50 227,-50"/>
<text text-anchor="middle" x="250.5" y="-57" font-family="Helvetica,sans-Serif" font-size="10.00">rbegin</text>
</a>
</g>
</g>
<!-- Node1&#45;&gt;Node6 -->
<g id="edge5" class="edge">
<title>Node1&#45;&gt;Node6</title>
<path fill="none" stroke="midnightblue" d="M347.9,-74.39C325.87,-70.99 294.91,-66.21 274.08,-62.99"/>
<polygon fill="midnightblue" stroke="midnightblue" points="347.49,-77.87 357.91,-75.94 348.56,-70.95 347.49,-77.87"/>
</g>
<!-- Node8 -->
<g id="node8" class="node">
<title>Node8</title>
<g id="a_node8"><a xlink:href="classpa_1_1ReverseCircularRange.html#ab3fe1cdacc9a53cc2d0cbe27599036c4" target="_top" xlink:title=" ">
<polygon fill="white" stroke="black" points="179,-0.5 179,-30.5 322,-30.5 322,-0.5 179,-0.5"/>
<text text-anchor="start" x="187" y="-18.5" font-family="Helvetica,sans-Serif" font-size="10.00">pa::ReverseCircularRange</text>
<text text-anchor="middle" x="250.5" y="-7.5" font-family="Helvetica,sans-Serif" font-size="10.00">::rend</text>
</a>
</g>
</g>
<!-- Node1&#45;&gt;Node8 -->
<g id="edge7" class="edge">
<title>Node1&#45;&gt;Node8</title>
<path fill="none" stroke="midnightblue" d="M355.03,-62.35C345.49,-54.99 333.59,-46.59 322,-40.5 314.99,-36.82 307.31,-33.47 299.69,-30.51"/>
<polygon fill="midnightblue" stroke="midnightblue" points="353.04,-65.24 363.04,-68.72 357.39,-59.76 353.04,-65.24"/>
</g>
<!-- Node3 -->
<g id="node3" class="node">
<title>Node3</title>
<g id="a_node3"><a xlink:href="classpa_1_1ReverseCircularRange.html#abef9dfc7607c7e1a3854788ba56a4f34" target="_top" xlink:title=" ">
<polygon fill="white" stroke="black" points="0,-131.5 0,-161.5 143,-161.5 143,-131.5 0,-131.5"/>
<text text-anchor="start" x="8" y="-149.5" font-family="Helvetica,sans-Serif" font-size="10.00">pa::ReverseCircularRange</text>
<text text-anchor="middle" x="71.5" y="-138.5" font-family="Helvetica,sans-Serif" font-size="10.00">::crend</text>
</a>
</g>
</g>
<!-- Node2&#45;&gt;Node3 -->
<g id="edge2" class="edge">
<title>Node2&#45;&gt;Node3</title>
<path fill="none" stroke="midnightblue" d="M220.08,-141.5C199.16,-142.21 170.14,-143.19 143.36,-144.1"/>
<polygon fill="midnightblue" stroke="midnightblue" points="220.35,-144.99 230.22,-141.15 220.11,-137.99 220.35,-144.99"/>
</g>
<!-- Node5 -->
<g id="node5" class="node">
<title>Node5</title>
<g id="a_node5"><a xlink:href="classpa_1_1ReverseCircularRange.html#a39112ae08f6ffc7ee58c6aa79772e094" target="_top" xlink:title=" ">
<polygon fill="white" stroke="black" points="0,-82.5 0,-112.5 143,-112.5 143,-82.5 0,-82.5"/>
<text text-anchor="start" x="8" y="-100.5" font-family="Helvetica,sans-Serif" font-size="10.00">pa::ReverseCircularRange</text>
<text text-anchor="middle" x="71.5" y="-89.5" font-family="Helvetica,sans-Serif" font-size="10.00">::cbegin</text>
</a>
</g>
</g>
<!-- Node4&#45;&gt;Node5 -->
<g id="edge4" class="edge">
<title>Node4&#45;&gt;Node5</title>
<path fill="none" stroke="midnightblue" d="M213.71,-97.5C193.4,-97.5 167.27,-97.5 143.01,-97.5"/>
<polygon fill="midnightblue" stroke="midnightblue" points="213.76,-101 223.76,-97.5 213.76,-94 213.76,-101"/>
</g>
<!-- Node7 -->
<g id="node7" class="node">
<title>Node7</title>
<g id="a_node7"><a xlink:href="classpa_1_1ReverseCircularRange.html#a0c62c15c8ed609e7e5e9518cf5f5c712" target="_top" xlink:title=" ">
<polygon fill="white" stroke="black" points="0,-33.5 0,-63.5 143,-63.5 143,-33.5 0,-33.5"/>
<text text-anchor="start" x="8" y="-51.5" font-family="Helvetica,sans-Serif" font-size="10.00">pa::ReverseCircularRange</text>
<text text-anchor="middle" x="71.5" y="-40.5" font-family="Helvetica,sans-Serif" font-size="10.00">::begin</text>
</a>
</g>
</g>
<!-- Node6&#45;&gt;Node7 -->
<g id="edge6" class="edge">
<title>Node6&#45;&gt;Node7</title>
<path fill="none" stroke="midnightblue" d="M216.62,-57.46C196.03,-56.18 168.68,-54.48 143.35,-52.9"/>
<polygon fill="midnightblue" stroke="midnightblue" points="216.52,-60.96 226.72,-58.08 216.96,-53.97 216.52,-60.96"/>
</g>
</g>
</svg>
