<?xml version="1.0" encoding="UTF-8" standalone="no"?>
<!DOCTYPE svg PUBLIC "-//W3C//DTD SVG 1.1//EN"
 "http://www.w3.org/Graphics/SVG/1.1/DTD/svg11.dtd">
<!-- Generated by graphviz version 2.43.0 (0)
 -->
<!-- Title: PANOCSolver&lt; DirectionProviderT &gt; Pages: 1 -->
<svg width="534pt" height="507pt"
 viewBox="0.00 0.00 533.50 507.00" xmlns="http://www.w3.org/2000/svg" xmlns:xlink="http://www.w3.org/1999/xlink">
<g id="graph0" class="graph" transform="scale(1 1) rotate(0) translate(4 503)">
<title>PANOCSolver&lt; DirectionProviderT &gt;</title>
<polygon fill="white" stroke="transparent" points="-4,4 -4,-503 529.5,-503 529.5,4 -4,4"/>
<!-- Node1 -->
<g id="node1" class="node">
<title>Node1</title>
<g id="a_node1"><a xlink:title="PANOC solver for ALM.">
<polygon fill="#bfbfbf" stroke="black" points="213.5,-0.5 213.5,-123.5 407.5,-123.5 407.5,-0.5 213.5,-0.5"/>
<text text-anchor="middle" x="310.5" y="-111.5" font-family="Helvetica,sans-Serif" font-size="10.00">PANOCSolver&lt; DirectionProviderT &gt;</text>
<polyline fill="none" stroke="black" points="213.5,-104.5 407.5,-104.5 "/>
<text text-anchor="start" x="221.5" y="-92.5" font-family="Helvetica,sans-Serif" font-size="10.00">&#45; progress_cb</text>
<polyline fill="none" stroke="black" points="213.5,-85.5 407.5,-85.5 "/>
<text text-anchor="start" x="221.5" y="-73.5" font-family="Helvetica,sans-Serif" font-size="10.00">+ PANOCSolver()</text>
<text text-anchor="start" x="221.5" y="-62.5" font-family="Helvetica,sans-Serif" font-size="10.00">+ PANOCSolver()</text>
<text text-anchor="start" x="221.5" y="-51.5" font-family="Helvetica,sans-Serif" font-size="10.00">+ operator()()</text>
<text text-anchor="start" x="221.5" y="-40.5" font-family="Helvetica,sans-Serif" font-size="10.00">+ set_progress_callback()</text>
<text text-anchor="start" x="221.5" y="-29.5" font-family="Helvetica,sans-Serif" font-size="10.00">+ get_name()</text>
<text text-anchor="start" x="221.5" y="-18.5" font-family="Helvetica,sans-Serif" font-size="10.00">+ stop()</text>
<text text-anchor="start" x="221.5" y="-7.5" font-family="Helvetica,sans-Serif" font-size="10.00">+ get_params()</text>
</a>
</g>
</g>
<!-- Node2 -->
<g id="node2" class="node">
<title>Node2</title>
<g id="a_node2"><a xlink:href="namespacepa.html#structpa_1_1PANOCParams" target="_top" xlink:title="Tuning parameters for the PANOC algorithm.">
<polygon fill="white" stroke="black" points="52,-171.5 52,-360.5 217,-360.5 217,-171.5 52,-171.5"/>
<text text-anchor="middle" x="134.5" y="-348.5" font-family="Helvetica,sans-Serif" font-size="10.00">PANOCParams</text>
<polyline fill="none" stroke="black" points="52,-341.5 217,-341.5 "/>
<text text-anchor="start" x="60" y="-329.5" font-family="Helvetica,sans-Serif" font-size="10.00">+ max_iter</text>
<text text-anchor="start" x="60" y="-318.5" font-family="Helvetica,sans-Serif" font-size="10.00">+ τ_min</text>
<text text-anchor="start" x="60" y="-307.5" font-family="Helvetica,sans-Serif" font-size="10.00">+ L_min</text>
<text text-anchor="start" x="60" y="-296.5" font-family="Helvetica,sans-Serif" font-size="10.00">+ L_max</text>
<text text-anchor="start" x="60" y="-285.5" font-family="Helvetica,sans-Serif" font-size="10.00">+ stop_crit</text>
<text text-anchor="start" x="60" y="-274.5" font-family="Helvetica,sans-Serif" font-size="10.00">+ max_no_progress</text>
<text text-anchor="start" x="60" y="-263.5" font-family="Helvetica,sans-Serif" font-size="10.00">+ print_interval</text>
<text text-anchor="start" x="60" y="-252.5" font-family="Helvetica,sans-Serif" font-size="10.00">+ quadratic_upperbound</text>
<text text-anchor="start" x="60" y="-241.5" font-family="Helvetica,sans-Serif" font-size="10.00">_tolerance_factor</text>
<text text-anchor="start" x="60" y="-230.5" font-family="Helvetica,sans-Serif" font-size="10.00">+ update_lipschitz_in</text>
<text text-anchor="start" x="60" y="-219.5" font-family="Helvetica,sans-Serif" font-size="10.00">_linesearch</text>
<text text-anchor="start" x="60" y="-208.5" font-family="Helvetica,sans-Serif" font-size="10.00">+ alternative_linesearch_cond</text>
<text text-anchor="start" x="60" y="-197.5" font-family="Helvetica,sans-Serif" font-size="10.00">+ lbfgs_stepsize</text>
<polyline fill="none" stroke="black" points="52,-190.5 217,-190.5 "/>
<text text-anchor="middle" x="134.5" y="-178.5" font-family="Helvetica,sans-Serif" font-size="10.00"> </text>
</a>
</g>
</g>
<!-- Node2&#45;&gt;Node1 -->
<g id="edge1" class="edge">
<title>Node2&#45;&gt;Node1</title>
<path fill="none" stroke="#404040" d="M216.06,-171.39C227.31,-158.48 238.7,-145.41 249.49,-133.02"/>
<polygon fill="none" stroke="#404040" points="249.73,-132.75 250.66,-125.59 257.61,-123.7 256.69,-130.85 249.73,-132.75"/>
<text text-anchor="middle" x="260.5" y="-145" font-family="Helvetica,sans-Serif" font-size="10.00"> &#45;params</text>
</g>
<!-- Node3 -->
<g id="node3" class="node">
<title>Node3</title>
<g id="a_node3"><a xlink:href="namespacepa.html#structpa_1_1LipschitzEstimateParams" target="_top" xlink:title=" ">
<polygon fill="white" stroke="black" points="0,-408.5 0,-498.5 139,-498.5 139,-408.5 0,-408.5"/>
<text text-anchor="middle" x="69.5" y="-486.5" font-family="Helvetica,sans-Serif" font-size="10.00">LipschitzEstimateParams</text>
<polyline fill="none" stroke="black" points="0,-479.5 139,-479.5 "/>
<text text-anchor="start" x="8" y="-467.5" font-family="Helvetica,sans-Serif" font-size="10.00">+ L₀</text>
<text text-anchor="start" x="8" y="-456.5" font-family="Helvetica,sans-Serif" font-size="10.00">+ ε</text>
<text text-anchor="start" x="8" y="-445.5" font-family="Helvetica,sans-Serif" font-size="10.00">+ δ</text>
<text text-anchor="start" x="8" y="-434.5" font-family="Helvetica,sans-Serif" font-size="10.00">+ Lγ_factor</text>
<polyline fill="none" stroke="black" points="0,-427.5 139,-427.5 "/>
<text text-anchor="middle" x="69.5" y="-415.5" font-family="Helvetica,sans-Serif" font-size="10.00"> </text>
</a>
</g>
</g>
<!-- Node3&#45;&gt;Node2 -->
<g id="edge2" class="edge">
<title>Node3&#45;&gt;Node2</title>
<path fill="none" stroke="#404040" d="M85.07,-408.07C88.92,-397.07 93.22,-384.82 97.62,-372.25"/>
<polygon fill="none" stroke="#404040" points="97.72,-371.98 95.92,-364.99 101.68,-360.65 103.47,-367.64 97.72,-371.98"/>
<text text-anchor="middle" x="122" y="-382" font-family="Helvetica,sans-Serif" font-size="10.00"> +Lipschitz</text>
</g>
<!-- Node4 -->
<g id="node4" class="node">
<title>Node4</title>
<g id="a_node4"><a xlink:title=" ">
<polygon fill="white" stroke="#bfbfbf" points="157.5,-425 157.5,-482 241.5,-482 241.5,-425 157.5,-425"/>
<text text-anchor="middle" x="199.5" y="-470" font-family="Helvetica,sans-Serif" font-size="10.00">microseconds</text>
<polyline fill="none" stroke="#bfbfbf" points="157.5,-463 241.5,-463 "/>
<text text-anchor="middle" x="199.5" y="-451" font-family="Helvetica,sans-Serif" font-size="10.00"> </text>
<polyline fill="none" stroke="#bfbfbf" points="157.5,-444 241.5,-444 "/>
<text text-anchor="middle" x="199.5" y="-432" font-family="Helvetica,sans-Serif" font-size="10.00"> </text>
</a>
</g>
</g>
<!-- Node4&#45;&gt;Node2 -->
<g id="edge3" class="edge">
<title>Node4&#45;&gt;Node2</title>
<path fill="none" stroke="#404040" d="M189.77,-424.73C184.71,-410.28 178.16,-391.61 171.36,-372.19"/>
<polygon fill="none" stroke="#404040" points="171.3,-372.02 165.54,-367.69 167.33,-360.7 173.09,-365.04 171.3,-372.02"/>
<text text-anchor="middle" x="208" y="-382" font-family="Helvetica,sans-Serif" font-size="10.00"> +max_time</text>
</g>
<!-- Node5 -->
<g id="node5" class="node">
<title>Node5</title>
<g id="a_node5"><a xlink:href="structpa_1_1PANOCDirection.html" target="_top" xlink:title=" ">
<polygon fill="white" stroke="black" points="235.5,-215.5 235.5,-316.5 385.5,-316.5 385.5,-215.5 235.5,-215.5"/>
<text text-anchor="start" x="243.5" y="-304.5" font-family="Helvetica,sans-Serif" font-size="10.00">PANOCDirection&lt; Direction</text>
<text text-anchor="middle" x="310.5" y="-293.5" font-family="Helvetica,sans-Serif" font-size="10.00">Provider &gt;</text>
<polyline fill="none" stroke="black" points="235.5,-286.5 385.5,-286.5 "/>
<text text-anchor="middle" x="310.5" y="-274.5" font-family="Helvetica,sans-Serif" font-size="10.00"> </text>
<polyline fill="none" stroke="black" points="235.5,-267.5 385.5,-267.5 "/>
<text text-anchor="start" x="243.5" y="-255.5" font-family="Helvetica,sans-Serif" font-size="10.00">+ initialize()</text>
<text text-anchor="start" x="243.5" y="-244.5" font-family="Helvetica,sans-Serif" font-size="10.00">+ update()</text>
<text text-anchor="start" x="243.5" y="-233.5" font-family="Helvetica,sans-Serif" font-size="10.00">+ apply()</text>
<text text-anchor="start" x="243.5" y="-222.5" font-family="Helvetica,sans-Serif" font-size="10.00">+ changed_γ()</text>
</a>
</g>
</g>
<!-- Node5&#45;&gt;Node1 -->
<g id="edge4" class="edge">
<title>Node5&#45;&gt;Node1</title>
<path fill="none" stroke="#404040" d="M310.5,-215.33C310.5,-191.43 310.5,-162.3 310.5,-135.95"/>
<polygon fill="none" stroke="#404040" points="310.5,-135.67 306.5,-129.67 310.5,-123.67 314.5,-129.67 310.5,-135.67"/>
<text text-anchor="middle" x="360.5" y="-145" font-family="Helvetica,sans-Serif" font-size="10.00"> +direction_provider</text>
</g>
<!-- Node6 -->
<g id="node6" class="node">
<title>Node6</title>
<g id="a_node6"><a xlink:href="classpa_1_1AtomicStopSignal.html" target="_top" xlink:title=" ">
<polygon fill="white" stroke="black" points="403.5,-204.5 403.5,-327.5 525.5,-327.5 525.5,-204.5 403.5,-204.5"/>
<text text-anchor="middle" x="464.5" y="-315.5" font-family="Helvetica,sans-Serif" font-size="10.00">AtomicStopSignal</text>
<polyline fill="none" stroke="black" points="403.5,-308.5 525.5,-308.5 "/>
<text text-anchor="start" x="411.5" y="-296.5" font-family="Helvetica,sans-Serif" font-size="10.00">&#45; stop_flag</text>
<polyline fill="none" stroke="black" points="403.5,-289.5 525.5,-289.5 "/>
<text text-anchor="start" x="411.5" y="-277.5" font-family="Helvetica,sans-Serif" font-size="10.00">+ AtomicStopSignal()</text>
<text text-anchor="start" x="411.5" y="-266.5" font-family="Helvetica,sans-Serif" font-size="10.00">+ AtomicStopSignal()</text>
<text text-anchor="start" x="411.5" y="-255.5" font-family="Helvetica,sans-Serif" font-size="10.00">+ operator=()</text>
<text text-anchor="start" x="411.5" y="-244.5" font-family="Helvetica,sans-Serif" font-size="10.00">+ AtomicStopSignal()</text>
<text text-anchor="start" x="411.5" y="-233.5" font-family="Helvetica,sans-Serif" font-size="10.00">+ operator=()</text>
<text text-anchor="start" x="411.5" y="-222.5" font-family="Helvetica,sans-Serif" font-size="10.00">+ stop()</text>
<text text-anchor="start" x="411.5" y="-211.5" font-family="Helvetica,sans-Serif" font-size="10.00">+ stop_requested()</text>
</a>
</g>
</g>
<!-- Node6&#45;&gt;Node1 -->
<g id="edge5" class="edge">
<title>Node6&#45;&gt;Node1</title>
<path fill="none" stroke="#404040" d="M447.16,-204.34C439.32,-183.3 428.59,-160.39 414.5,-142 412.09,-138.85 409.52,-135.76 406.83,-132.74"/>
<polygon fill="none" stroke="#404040" points="406.68,-132.59 399.65,-130.99 398.41,-123.89 405.44,-125.48 406.68,-132.59"/>
<text text-anchor="middle" x="452" y="-145" font-family="Helvetica,sans-Serif" font-size="10.00"> &#45;stop_signal</text>
</g>
</g>
</svg>
