<?xml version="1.0" encoding="UTF-8" standalone="no"?>
<!DOCTYPE svg PUBLIC "-//W3C//DTD SVG 1.1//EN"
 "http://www.w3.org/Graphics/SVG/1.1/DTD/svg11.dtd">
<!-- Generated by graphviz version 2.43.0 (0)
 -->
<!-- Title: CasADiFun_4Vi1Vo Pages: 1 -->
<svg width="166pt" height="331pt"
 viewBox="0.00 0.00 166.00 331.00" xmlns="http://www.w3.org/2000/svg" xmlns:xlink="http://www.w3.org/1999/xlink">
<g id="graph0" class="graph" transform="scale(1 1) rotate(0) translate(4 327)">
<title>CasADiFun_4Vi1Vo</title>
<polygon fill="white" stroke="transparent" points="-4,4 -4,-327 162,-327 162,4 -4,4"/>
<!-- Node1 -->
<g id="node1" class="node">
<title>Node1</title>
<g id="a_node1"><a xlink:title="Wrapper for CasADiFunctionEvaluator with 4 vector inputs, 1 vector output.">
<polygon fill="#bfbfbf" stroke="black" points="15.5,-0.5 15.5,-68.5 142.5,-68.5 142.5,-0.5 15.5,-0.5"/>
<text text-anchor="middle" x="79" y="-56.5" font-family="Helvetica,sans-Serif" font-size="10.00">CasADiFun_4Vi1Vo</text>
<polyline fill="none" stroke="black" points="15.5,-49.5 142.5,-49.5 "/>
<text text-anchor="middle" x="79" y="-37.5" font-family="Helvetica,sans-Serif" font-size="10.00"> </text>
<polyline fill="none" stroke="black" points="15.5,-30.5 142.5,-30.5 "/>
<text text-anchor="start" x="23.5" y="-18.5" font-family="Helvetica,sans-Serif" font-size="10.00">+ CasADiFun_4Vi1Vo()</text>
<text text-anchor="start" x="23.5" y="-7.5" font-family="Helvetica,sans-Serif" font-size="10.00">+ operator()()</text>
</a>
</g>
</g>
<!-- Node2 -->
<g id="node2" class="node">
<title>Node2</title>
<g id="a_node2"><a xlink:href="classCasADiFunctionEvaluator.html" target="_top" xlink:title=" ">
<polygon fill="white" stroke="black" points="0,-116.5 0,-217.5 158,-217.5 158,-116.5 0,-116.5"/>
<text text-anchor="start" x="8" y="-205.5" font-family="Helvetica,sans-Serif" font-size="10.00">CasADiFunctionEvaluator</text>
<text text-anchor="middle" x="79" y="-194.5" font-family="Helvetica,sans-Serif" font-size="10.00">&lt; 4, 1 &gt;</text>
<polyline fill="none" stroke="black" points="0,-187.5 158,-187.5 "/>
<text text-anchor="start" x="8" y="-175.5" font-family="Helvetica,sans-Serif" font-size="10.00">&#45; iwork</text>
<text text-anchor="start" x="8" y="-164.5" font-family="Helvetica,sans-Serif" font-size="10.00">&#45; dwork</text>
<polyline fill="none" stroke="black" points="0,-157.5 158,-157.5 "/>
<text text-anchor="start" x="8" y="-145.5" font-family="Helvetica,sans-Serif" font-size="10.00">+ CasADiFunctionEvaluator()</text>
<text text-anchor="start" x="8" y="-134.5" font-family="Helvetica,sans-Serif" font-size="10.00">+ operator()()</text>
<text text-anchor="start" x="8" y="-123.5" font-family="Helvetica,sans-Serif" font-size="10.00"># operator()()</text>
</a>
</g>
</g>
<!-- Node2&#45;&gt;Node1 -->
<g id="edge1" class="edge">
<title>Node2&#45;&gt;Node1</title>
<path fill="none" stroke="#404040" d="M79,-116.29C79,-104.55 79,-92.09 79,-80.57"/>
<polygon fill="none" stroke="#404040" points="79,-80.51 75,-74.51 79,-68.51 83,-74.51 79,-80.51"/>
<text text-anchor="middle" x="90.5" y="-90" font-family="Helvetica,sans-Serif" font-size="10.00"> &#45;fun</text>
</g>
<!-- Node3 -->
<g id="node3" class="node">
<title>Node3</title>
<g id="a_node3"><a xlink:title=" ">
<polygon fill="white" stroke="#bfbfbf" points="50,-265.5 50,-322.5 108,-322.5 108,-265.5 50,-265.5"/>
<text text-anchor="middle" x="79" y="-310.5" font-family="Helvetica,sans-Serif" font-size="10.00">Function</text>
<polyline fill="none" stroke="#bfbfbf" points="50,-303.5 108,-303.5 "/>
<text text-anchor="middle" x="79" y="-291.5" font-family="Helvetica,sans-Serif" font-size="10.00"> </text>
<polyline fill="none" stroke="#bfbfbf" points="50,-284.5 108,-284.5 "/>
<text text-anchor="middle" x="79" y="-272.5" font-family="Helvetica,sans-Serif" font-size="10.00"> </text>
</a>
</g>
</g>
<!-- Node3&#45;&gt;Node2 -->
<g id="edge2" class="edge">
<title>Node3&#45;&gt;Node2</title>
<path fill="none" stroke="#404040" d="M79,-265.26C79,-254.79 79,-242.42 79,-230.07"/>
<polygon fill="none" stroke="#404040" points="79,-229.8 75,-223.8 79,-217.8 83,-223.8 79,-229.8"/>
<text text-anchor="middle" x="90.5" y="-239" font-family="Helvetica,sans-Serif" font-size="10.00"> &#45;fun</text>
</g>
</g>
</svg>
