<?xml version="1.0" encoding="UTF-8" standalone="no"?>
<!DOCTYPE svg PUBLIC "-//W3C//DTD SVG 1.1//EN"
 "http://www.w3.org/Graphics/SVG/1.1/DTD/svg11.dtd">
<!-- Generated by graphviz version 2.43.0 (0)
 -->
<!-- Title: lbfgs.hpp Pages: 1 -->
<svg width="1058pt" height="252pt"
 viewBox="0.00 0.00 1058.00 252.00" xmlns="http://www.w3.org/2000/svg" xmlns:xlink="http://www.w3.org/1999/xlink">
<g id="graph0" class="graph" transform="scale(1 1) rotate(0) translate(4 248)">
<title>lbfgs.hpp</title>
<polygon fill="white" stroke="transparent" points="-4,4 -4,-248 1054,-248 1054,4 -4,4"/>
<!-- Node1 -->
<g id="node1" class="node">
<title>Node1</title>
<g id="a_node1"><a xlink:title=" ">
<polygon fill="#bfbfbf" stroke="black" points="547,-224.5 547,-243.5 609,-243.5 609,-224.5 547,-224.5"/>
<text text-anchor="middle" x="578" y="-231.5" font-family="Helvetica,sans-Serif" font-size="10.00">lbfgs.hpp</text>
</a>
</g>
</g>
<!-- Node2 -->
<g id="node2" class="node">
<title>Node2</title>
<g id="a_node2"><a xlink:href="decl_2structured-panoc-lbfgs_8hpp.html" target="_top" xlink:title=" ">
<polygon fill="white" stroke="black" points="200,-168.5 200,-187.5 348,-187.5 348,-168.5 200,-168.5"/>
<text text-anchor="middle" x="274" y="-175.5" font-family="Helvetica,sans-Serif" font-size="10.00">structured&#45;panoc&#45;lbfgs.hpp</text>
</a>
</g>
</g>
<!-- Node1&#45;&gt;Node2 -->
<g id="edge1" class="edge">
<title>Node1&#45;&gt;Node2</title>
<path fill="none" stroke="midnightblue" d="M536.99,-225.72C481.11,-215.79 381.24,-198.05 321.96,-187.52"/>
<polygon fill="midnightblue" stroke="midnightblue" points="536.44,-229.17 546.9,-227.47 537.66,-222.28 536.44,-229.17"/>
</g>
<!-- Node6 -->
<g id="node6" class="node">
<title>Node6</title>
<g id="a_node6"><a xlink:href="kwargs-to-struct_8hpp.html" target="_top" xlink:title="This file defines mappings from Python dicts (kwargs) to simple parameter structs.">
<polygon fill="white" stroke="black" points="0,-112.5 0,-131.5 118,-131.5 118,-112.5 0,-112.5"/>
<text text-anchor="middle" x="59" y="-119.5" font-family="Helvetica,sans-Serif" font-size="10.00">kwargs&#45;to&#45;struct.hpp</text>
</a>
</g>
</g>
<!-- Node1&#45;&gt;Node6 -->
<g id="edge23" class="edge">
<title>Node1&#45;&gt;Node6</title>
<path fill="none" stroke="midnightblue" d="M536.52,-232.77C464.66,-231.38 313.04,-223.97 191,-188 145.18,-174.49 95.87,-146.04 72.61,-131.68"/>
<polygon fill="midnightblue" stroke="midnightblue" points="536.88,-236.28 546.94,-232.95 537,-229.28 536.88,-236.28"/>
</g>
<!-- Node8 -->
<g id="node8" class="node">
<title>Node8</title>
<g id="a_node8"><a xlink:href="decl_2specialized-lbfgs_8hpp.html" target="_top" xlink:title=" ">
<polygon fill="white" stroke="black" points="573,-168.5 573,-187.5 693,-187.5 693,-168.5 573,-168.5"/>
<text text-anchor="middle" x="633" y="-175.5" font-family="Helvetica,sans-Serif" font-size="10.00">specialized&#45;lbfgs.hpp</text>
</a>
</g>
</g>
<!-- Node1&#45;&gt;Node8 -->
<g id="edge9" class="edge">
<title>Node1&#45;&gt;Node8</title>
<path fill="none" stroke="midnightblue" d="M594.29,-217C604.04,-207.43 616.05,-195.64 624.09,-187.75"/>
<polygon fill="midnightblue" stroke="midnightblue" points="591.77,-214.58 587.08,-224.08 596.67,-219.57 591.77,-214.58"/>
</g>
<!-- Node10 -->
<g id="node10" class="node">
<title>Node10</title>
<g id="a_node10"><a xlink:href="lbfgs_8hpp.html" target="_top" xlink:title=" ">
<polygon fill="white" stroke="black" points="493,-168.5 493,-187.5 555,-187.5 555,-168.5 493,-168.5"/>
<text text-anchor="middle" x="524" y="-175.5" font-family="Helvetica,sans-Serif" font-size="10.00">lbfgs.hpp</text>
</a>
</g>
</g>
<!-- Node1&#45;&gt;Node10 -->
<g id="edge11" class="edge">
<title>Node1&#45;&gt;Node10</title>
<path fill="none" stroke="midnightblue" d="M562,-217C552.43,-207.43 540.64,-195.64 532.75,-187.75"/>
<polygon fill="midnightblue" stroke="midnightblue" points="559.54,-219.49 569.08,-224.08 564.49,-214.54 559.54,-219.49"/>
</g>
<!-- Node16 -->
<g id="node16" class="node">
<title>Node16</title>
<g id="a_node16"><a xlink:href="CasADi_2Rosenbrock_2main_8cpp.html" target="_top" xlink:title=" ">
<polygon fill="white" stroke="black" points="711,-168.5 711,-187.5 773,-187.5 773,-168.5 711,-168.5"/>
<text text-anchor="middle" x="742" y="-175.5" font-family="Helvetica,sans-Serif" font-size="10.00">main.cpp</text>
</a>
</g>
</g>
<!-- Node1&#45;&gt;Node16 -->
<g id="edge24" class="edge">
<title>Node1&#45;&gt;Node16</title>
<path fill="none" stroke="midnightblue" d="M613.52,-221.3C644.42,-211.13 688.47,-196.62 716.14,-187.52"/>
<polygon fill="midnightblue" stroke="midnightblue" points="612.39,-217.99 603.99,-224.44 614.58,-224.64 612.39,-217.99"/>
</g>
<!-- Node17 -->
<g id="node17" class="node">
<title>Node17</title>
<g id="a_node17"><a xlink:href="CUTEst_2Rosenbrock_2main_8cpp.html" target="_top" xlink:title=" ">
<polygon fill="white" stroke="black" points="791,-168.5 791,-187.5 853,-187.5 853,-168.5 791,-168.5"/>
<text text-anchor="middle" x="822" y="-175.5" font-family="Helvetica,sans-Serif" font-size="10.00">main.cpp</text>
</a>
</g>
</g>
<!-- Node1&#45;&gt;Node17 -->
<g id="edge25" class="edge">
<title>Node1&#45;&gt;Node17</title>
<path fill="none" stroke="midnightblue" d="M619.05,-224C660.25,-214.95 725.54,-200.58 782,-188 784.92,-187.35 787.96,-186.67 790.99,-185.99"/>
<polygon fill="midnightblue" stroke="midnightblue" points="618.13,-220.62 609.11,-226.18 619.63,-227.45 618.13,-220.62"/>
</g>
<!-- Node3 -->
<g id="node3" class="node">
<title>Node3</title>
<g id="a_node3"><a xlink:href="structured-panoc-lbfgs_8hpp.html" target="_top" xlink:title=" ">
<polygon fill="white" stroke="black" points="136,-112.5 136,-131.5 284,-131.5 284,-112.5 136,-112.5"/>
<text text-anchor="middle" x="210" y="-119.5" font-family="Helvetica,sans-Serif" font-size="10.00">structured&#45;panoc&#45;lbfgs.hpp</text>
</a>
</g>
</g>
<!-- Node2&#45;&gt;Node3 -->
<g id="edge2" class="edge">
<title>Node2&#45;&gt;Node3</title>
<path fill="none" stroke="midnightblue" d="M256.01,-161.82C244.54,-152.15 230.09,-139.95 220.47,-131.83"/>
<polygon fill="midnightblue" stroke="midnightblue" points="253.82,-164.55 263.72,-168.32 258.33,-159.2 253.82,-164.55"/>
</g>
<!-- Node2&#45;&gt;Node6 -->
<g id="edge5" class="edge">
<title>Node2&#45;&gt;Node6</title>
<path fill="none" stroke="midnightblue" d="M230.04,-165.96C189.43,-155.76 129.96,-140.82 92.91,-131.52"/>
<polygon fill="midnightblue" stroke="midnightblue" points="229.38,-169.4 239.93,-168.44 231.09,-162.61 229.38,-169.4"/>
</g>
<!-- Node7 -->
<g id="node7" class="node">
<title>Node7</title>
<g id="a_node7"><a xlink:href="polymorphic-inner-solver_8hpp.html" target="_top" xlink:title=" ">
<polygon fill="white" stroke="black" points="316,-56.5 316,-75.5 476,-75.5 476,-56.5 316,-56.5"/>
<text text-anchor="middle" x="396" y="-63.5" font-family="Helvetica,sans-Serif" font-size="10.00">polymorphic&#45;inner&#45;solver.hpp</text>
</a>
</g>
</g>
<!-- Node2&#45;&gt;Node7 -->
<g id="edge7" class="edge">
<title>Node2&#45;&gt;Node7</title>
<path fill="none" stroke="midnightblue" d="M288.32,-160.53C300.46,-146.94 318.62,-127.44 336,-112 351.38,-98.34 370.63,-84.4 383.12,-75.73"/>
<polygon fill="midnightblue" stroke="midnightblue" points="285.59,-158.33 281.6,-168.14 290.84,-162.96 285.59,-158.33"/>
</g>
<!-- Node4 -->
<g id="node4" class="node">
<title>Node4</title>
<g id="a_node4"><a xlink:href="panocpy_8cpp.html" target="_top" xlink:title="This file defines all Python bindings.">
<polygon fill="white" stroke="black" points="357.5,-0.5 357.5,-19.5 434.5,-19.5 434.5,-0.5 357.5,-0.5"/>
<text text-anchor="middle" x="396" y="-7.5" font-family="Helvetica,sans-Serif" font-size="10.00">panocpy.cpp</text>
</a>
</g>
</g>
<!-- Node3&#45;&gt;Node4 -->
<g id="edge3" class="edge">
<title>Node3&#45;&gt;Node4</title>
<path fill="none" stroke="midnightblue" d="M230.25,-106.37C249.56,-92.68 279.66,-71.99 307,-56 330.61,-42.19 358.98,-28.28 377.24,-19.66"/>
<polygon fill="midnightblue" stroke="midnightblue" points="228.05,-103.64 221.94,-112.3 232.12,-109.34 228.05,-103.64"/>
</g>
<!-- Node5 -->
<g id="node5" class="node">
<title>Node5</title>
<g id="a_node5"><a xlink:href="structured-panoc-lbfgs_8cpp.html" target="_top" xlink:title=" ">
<polygon fill="white" stroke="black" points="112.5,-56.5 112.5,-75.5 259.5,-75.5 259.5,-56.5 112.5,-56.5"/>
<text text-anchor="middle" x="186" y="-63.5" font-family="Helvetica,sans-Serif" font-size="10.00">structured&#45;panoc&#45;lbfgs.cpp</text>
</a>
</g>
</g>
<!-- Node3&#45;&gt;Node5 -->
<g id="edge4" class="edge">
<title>Node3&#45;&gt;Node5</title>
<path fill="none" stroke="midnightblue" d="M201.86,-102.69C197.82,-93.59 193.12,-83.01 189.89,-75.75"/>
<polygon fill="midnightblue" stroke="midnightblue" points="198.78,-104.37 206.04,-112.08 205.17,-101.52 198.78,-104.37"/>
</g>
<!-- Node6&#45;&gt;Node4 -->
<g id="edge6" class="edge">
<title>Node6&#45;&gt;Node4</title>
<path fill="none" stroke="midnightblue" d="M66.34,-102.75C73.41,-87.67 85.6,-67.01 103,-56 144.59,-29.69 287.57,-17.58 357.23,-13.13"/>
<polygon fill="midnightblue" stroke="midnightblue" points="63.05,-101.55 62.27,-112.12 69.47,-104.34 63.05,-101.55"/>
</g>
<!-- Node7&#45;&gt;Node4 -->
<g id="edge8" class="edge">
<title>Node7&#45;&gt;Node4</title>
<path fill="none" stroke="midnightblue" d="M396,-45.8C396,-36.91 396,-26.78 396,-19.75"/>
<polygon fill="midnightblue" stroke="midnightblue" points="392.5,-46.08 396,-56.08 399.5,-46.08 392.5,-46.08"/>
</g>
<!-- Node9 -->
<g id="node9" class="node">
<title>Node9</title>
<g id="a_node9"><a xlink:href="specialized-lbfgs_8hpp.html" target="_top" xlink:title=" ">
<polygon fill="white" stroke="black" points="930,-112.5 930,-131.5 1050,-131.5 1050,-112.5 930,-112.5"/>
<text text-anchor="middle" x="990" y="-119.5" font-family="Helvetica,sans-Serif" font-size="10.00">specialized&#45;lbfgs.hpp</text>
</a>
</g>
</g>
<!-- Node8&#45;&gt;Node9 -->
<g id="edge10" class="edge">
<title>Node8&#45;&gt;Node9</title>
<path fill="none" stroke="midnightblue" d="M699.66,-166.92C767.11,-156.71 870.22,-141.12 933.7,-131.52"/>
<polygon fill="midnightblue" stroke="midnightblue" points="698.93,-163.49 689.57,-168.44 699.98,-170.41 698.93,-163.49"/>
</g>
<!-- Node10&#45;&gt;Node3 -->
<g id="edge13" class="edge">
<title>Node10&#45;&gt;Node3</title>
<path fill="none" stroke="midnightblue" d="M482.56,-169.87C425.04,-159.98 321.14,-142.11 259.58,-131.53"/>
<polygon fill="midnightblue" stroke="midnightblue" points="482.3,-173.38 492.74,-171.62 483.48,-166.48 482.3,-173.38"/>
</g>
<!-- Node10&#45;&gt;Node4 -->
<g id="edge14" class="edge">
<title>Node10&#45;&gt;Node4</title>
<path fill="none" stroke="midnightblue" d="M565.37,-168.16C656.84,-156.85 926.7,-165.7 883,-112 826.25,-42.27 539.56,-19.15 434.59,-12.95"/>
<polygon fill="midnightblue" stroke="midnightblue" points="564.78,-164.71 555.38,-169.6 565.78,-171.63 564.78,-164.71"/>
</g>
<!-- Node10&#45;&gt;Node7 -->
<g id="edge15" class="edge">
<title>Node10&#45;&gt;Node7</title>
<path fill="none" stroke="midnightblue" d="M482.71,-170.69C441.59,-163.46 382.69,-150.23 369,-132 355.65,-114.22 374.93,-88.87 387.19,-75.7"/>
<polygon fill="midnightblue" stroke="midnightblue" points="482.29,-174.17 492.74,-172.4 483.46,-167.27 482.29,-174.17"/>
</g>
<!-- Node10&#45;&gt;Node9 -->
<g id="edge12" class="edge">
<title>Node10&#45;&gt;Node9</title>
<path fill="none" stroke="midnightblue" d="M565.3,-167.96C720.92,-142.96 762.92,-149.14 916,-132 920.5,-131.5 925.16,-130.96 929.84,-130.41"/>
<polygon fill="midnightblue" stroke="midnightblue" points="564.68,-164.51 555.37,-169.57 565.81,-171.42 564.68,-164.51"/>
</g>
<!-- Node11 -->
<g id="node11" class="node">
<title>Node11</title>
<g id="a_node11"><a xlink:href="polymorphic-panoc-direction_8hpp.html" target="_top" xlink:title=" ">
<polygon fill="white" stroke="black" points="696,-112.5 696,-131.5 874,-131.5 874,-112.5 696,-112.5"/>
<text text-anchor="middle" x="785" y="-119.5" font-family="Helvetica,sans-Serif" font-size="10.00">polymorphic&#45;panoc&#45;direction.hpp</text>
</a>
</g>
</g>
<!-- Node10&#45;&gt;Node11 -->
<g id="edge16" class="edge">
<title>Node10&#45;&gt;Node11</title>
<path fill="none" stroke="midnightblue" d="M565.31,-167.75C632.29,-153.45 699.25,-139.98 741.75,-131.53"/>
<polygon fill="midnightblue" stroke="midnightblue" points="564.48,-164.35 555.43,-169.86 565.94,-171.19 564.48,-164.35"/>
</g>
<!-- Node12 -->
<g id="node12" class="node">
<title>Node12</title>
<g id="a_node12"><a xlink:href="alm_8cpp.html" target="_top" xlink:title=" ">
<polygon fill="white" stroke="black" points="378,-112.5 378,-131.5 434,-131.5 434,-112.5 378,-112.5"/>
<text text-anchor="middle" x="406" y="-119.5" font-family="Helvetica,sans-Serif" font-size="10.00">alm.cpp</text>
</a>
</g>
</g>
<!-- Node10&#45;&gt;Node12 -->
<g id="edge19" class="edge">
<title>Node10&#45;&gt;Node12</title>
<path fill="none" stroke="midnightblue" d="M496.1,-164.23C474.03,-154.13 443.82,-140.31 424.61,-131.52"/>
<polygon fill="midnightblue" stroke="midnightblue" points="494.75,-167.46 505.3,-168.44 497.67,-161.1 494.75,-167.46"/>
</g>
<!-- Node13 -->
<g id="node13" class="node">
<title>Node13</title>
<g id="a_node13"><a xlink:href="lbfgs_8cpp.html" target="_top" xlink:title=" ">
<polygon fill="white" stroke="black" points="452.5,-112.5 452.5,-131.5 513.5,-131.5 513.5,-112.5 452.5,-112.5"/>
<text text-anchor="middle" x="483" y="-119.5" font-family="Helvetica,sans-Serif" font-size="10.00">lbfgs.cpp</text>
</a>
</g>
</g>
<!-- Node10&#45;&gt;Node13 -->
<g id="edge20" class="edge">
<title>Node10&#45;&gt;Node13</title>
<path fill="none" stroke="midnightblue" d="M510.98,-159.86C503.88,-150.5 495.4,-139.33 489.64,-131.75"/>
<polygon fill="midnightblue" stroke="midnightblue" points="508.39,-162.24 517.23,-168.08 513.97,-158 508.39,-162.24"/>
</g>
<!-- Node14 -->
<g id="node14" class="node">
<title>Node14</title>
<g id="a_node14"><a xlink:href="panoc_8cpp.html" target="_top" xlink:title=" ">
<polygon fill="white" stroke="black" points="532,-112.5 532,-131.5 598,-131.5 598,-112.5 532,-112.5"/>
<text text-anchor="middle" x="565" y="-119.5" font-family="Helvetica,sans-Serif" font-size="10.00">panoc.cpp</text>
</a>
</g>
</g>
<!-- Node10&#45;&gt;Node14 -->
<g id="edge21" class="edge">
<title>Node10&#45;&gt;Node14</title>
<path fill="none" stroke="midnightblue" d="M537.02,-159.86C544.12,-150.5 552.6,-139.33 558.36,-131.75"/>
<polygon fill="midnightblue" stroke="midnightblue" points="534.03,-158 530.77,-168.08 539.61,-162.24 534.03,-158"/>
</g>
<!-- Node15 -->
<g id="node15" class="node">
<title>Node15</title>
<g id="a_node15"><a xlink:href="Presentation_2Cpp_2main_8cpp.html" target="_top" xlink:title=" ">
<polygon fill="white" stroke="black" points="616,-112.5 616,-131.5 678,-131.5 678,-112.5 616,-112.5"/>
<text text-anchor="middle" x="647" y="-119.5" font-family="Helvetica,sans-Serif" font-size="10.00">main.cpp</text>
</a>
</g>
</g>
<!-- Node10&#45;&gt;Node15 -->
<g id="edge22" class="edge">
<title>Node10&#45;&gt;Node15</title>
<path fill="none" stroke="midnightblue" d="M552.77,-164.37C575.81,-154.26 607.48,-140.35 627.6,-131.52"/>
<polygon fill="midnightblue" stroke="midnightblue" points="551.24,-161.22 543.49,-168.44 554.05,-167.63 551.24,-161.22"/>
</g>
<!-- Node11&#45;&gt;Node4 -->
<g id="edge17" class="edge">
<title>Node11&#45;&gt;Node4</title>
<path fill="none" stroke="midnightblue" d="M744.85,-109.65C666.67,-87.54 495.61,-39.17 426.18,-19.53"/>
<polygon fill="midnightblue" stroke="midnightblue" points="744.22,-113.11 754.8,-112.46 746.13,-106.37 744.22,-113.11"/>
</g>
<!-- Node11&#45;&gt;Node7 -->
<g id="edge18" class="edge">
<title>Node11&#45;&gt;Node7</title>
<path fill="none" stroke="midnightblue" d="M713.27,-111.04C639.8,-100.84 526.8,-85.16 457.35,-75.52"/>
<polygon fill="midnightblue" stroke="midnightblue" points="712.98,-114.54 723.36,-112.44 713.94,-107.6 712.98,-114.54"/>
</g>
</g>
</svg>
