<?xml version="1.0" encoding="UTF-8" standalone="no"?>
<!DOCTYPE svg PUBLIC "-//W3C//DTD SVG 1.1//EN"
 "http://www.w3.org/Graphics/SVG/1.1/DTD/svg11.dtd">
<!-- Generated by graphviz version 2.43.0 (0)
 -->
<!-- Title: panoc&#45;alm Pages: 1 -->
<svg width="354pt" height="399pt"
 viewBox="0.00 0.00 354.00 399.00" xmlns="http://www.w3.org/2000/svg" xmlns:xlink="http://www.w3.org/1999/xlink">
<g id="graph0" class="graph" transform="scale(1 1) rotate(0) translate(4 395)">
<title>panoc&#45;alm</title>
<polygon fill="white" stroke="transparent" points="-4,4 -4,-395 350,-395 350,4 -4,4"/>
<g id="clust1" class="cluster">
<title>clusterdir_b0856f6b0d80ccb263b2f415c91f9e17</title>
<g id="a_clust1"><a xlink:href="dir_b0856f6b0d80ccb263b2f415c91f9e17.html" target="_top" xlink:title="include">
<polygon fill="#ddddee" stroke="black" points="8,-8 8,-383 338,-383 338,-8 8,-8"/>
<text text-anchor="middle" x="173" y="-371" font-family="Helvetica,sans-Serif" font-size="10.00">include</text>
</a>
</g>
</g>
<g id="clust2" class="cluster">
<title>clusterdir_90b5b0cae34bc1cd1e0eaa0196dab481</title>
<g id="a_clust2"><a xlink:href="dir_90b5b0cae34bc1cd1e0eaa0196dab481.html" target="_top">
<polygon fill="#eeeeff" stroke="black" points="16,-16 16,-356 330,-356 330,-16 16,-16"/>
</a>
</g>
</g>
<!-- dir_90b5b0cae34bc1cd1e0eaa0196dab481 -->
<g id="node1" class="node">
<title>dir_90b5b0cae34bc1cd1e0eaa0196dab481</title>
<text text-anchor="middle" x="217" y="-327.5" font-family="Helvetica,sans-Serif" font-size="10.00">panoc&#45;alm</text>
</g>
<!-- dir_38b9936a81b7c2f7f0c4a08a6b955e24 -->
<g id="node3" class="node">
<title>dir_38b9936a81b7c2f7f0c4a08a6b955e24</title>
<g id="a_node3"><a xlink:href="dir_38b9936a81b7c2f7f0c4a08a6b955e24.html" target="_top" xlink:title="detail">
<polygon fill="white" stroke="black" points="244,-276 190,-276 190,-240 244,-240 244,-276"/>
<text text-anchor="middle" x="217" y="-255.5" font-family="Helvetica,sans-Serif" font-size="10.00">detail</text>
</a>
</g>
</g>
<!-- dir_90b5b0cae34bc1cd1e0eaa0196dab481&#45;&gt;dir_38b9936a81b7c2f7f0c4a08a6b955e24 -->
<g id="edge9" class="edge">
<title>dir_90b5b0cae34bc1cd1e0eaa0196dab481&#45;&gt;dir_38b9936a81b7c2f7f0c4a08a6b955e24</title>
<path fill="none" stroke="black" d="M217,-311.7C217,-303.98 217,-294.71 217,-286.11"/>
<polygon fill="black" stroke="black" points="220.5,-286.1 217,-276.1 213.5,-286.1 220.5,-286.1"/>
<g id="a_edge9&#45;headlabel"><a xlink:href="dir_000003_000005.html" target="_top" xlink:title="1">
<text text-anchor="middle" x="223.34" y="-287.2" font-family="Helvetica,sans-Serif" font-size="10.00">1</text>
</a>
</g>
</g>
<!-- dir_4d9a259b1a4bae6d9975f656fbdc4a16 -->
<g id="node2" class="node">
<title>dir_4d9a259b1a4bae6d9975f656fbdc4a16</title>
<g id="a_node2"><a xlink:href="dir_4d9a259b1a4bae6d9975f656fbdc4a16.html" target="_top" xlink:title="decl">
<polygon fill="white" stroke="black" points="244,-204 190,-204 190,-168 244,-168 244,-204"/>
<text text-anchor="middle" x="217" y="-183.5" font-family="Helvetica,sans-Serif" font-size="10.00">decl</text>
</a>
</g>
</g>
<!-- dir_3e9c4e5327a81a71a89d9f82f5b1fa78 -->
<g id="node4" class="node">
<title>dir_3e9c4e5327a81a71a89d9f82f5b1fa78</title>
<g id="a_node4"><a xlink:href="dir_3e9c4e5327a81a71a89d9f82f5b1fa78.html" target="_top" xlink:title="inner">
<polygon fill="white" stroke="red" points="98,-132 44,-132 44,-96 98,-96 98,-132"/>
<text text-anchor="middle" x="71" y="-111.5" font-family="Helvetica,sans-Serif" font-size="10.00">inner</text>
</a>
</g>
</g>
<!-- dir_4d9a259b1a4bae6d9975f656fbdc4a16&#45;&gt;dir_3e9c4e5327a81a71a89d9f82f5b1fa78 -->
<g id="edge2" class="edge">
<title>dir_4d9a259b1a4bae6d9975f656fbdc4a16&#45;&gt;dir_3e9c4e5327a81a71a89d9f82f5b1fa78</title>
<path fill="none" stroke="black" d="M189.88,-172C166.67,-160.87 133.06,-144.75 107.49,-132.5"/>
<polygon fill="black" stroke="black" points="109,-129.34 98.47,-128.17 105.97,-135.65 109,-129.34"/>
<g id="a_edge2&#45;headlabel"><a xlink:href="dir_000007_000008.html" target="_top" xlink:title="1">
<text text-anchor="middle" x="113.47" y="-125.83" font-family="Helvetica,sans-Serif" font-size="10.00">1</text>
</a>
</g>
</g>
<!-- dir_2bd50800112c18592c4fbe8af353e3db -->
<g id="node8" class="node">
<title>dir_2bd50800112c18592c4fbe8af353e3db</title>
<g id="a_node8"><a xlink:href="dir_2bd50800112c18592c4fbe8af353e3db.html" target="_top" xlink:title="util">
<polygon fill="white" stroke="black" points="200,-60 146,-60 146,-24 200,-24 200,-60"/>
<text text-anchor="middle" x="173" y="-39.5" font-family="Helvetica,sans-Serif" font-size="10.00">util</text>
</a>
</g>
</g>
<!-- dir_4d9a259b1a4bae6d9975f656fbdc4a16&#45;&gt;dir_2bd50800112c18592c4fbe8af353e3db -->
<g id="edge3" class="edge">
<title>dir_4d9a259b1a4bae6d9975f656fbdc4a16&#45;&gt;dir_2bd50800112c18592c4fbe8af353e3db</title>
<path fill="none" stroke="black" d="M244.27,-177.89C266.59,-170.48 296.73,-156.43 311,-132 319.07,-118.18 320.06,-109.19 311,-96 288.51,-63.27 242.78,-50.74 210.13,-45.95"/>
<polygon fill="black" stroke="black" points="210.4,-42.46 200.03,-44.65 209.5,-49.4 210.4,-42.46"/>
<g id="a_edge3&#45;headlabel"><a xlink:href="dir_000007_000004.html" target="_top" xlink:title="2">
<text text-anchor="middle" x="214.32" y="-37.6" font-family="Helvetica,sans-Serif" font-size="10.00">2</text>
</a>
</g>
</g>
<!-- dir_38b9936a81b7c2f7f0c4a08a6b955e24&#45;&gt;dir_4d9a259b1a4bae6d9975f656fbdc4a16 -->
<g id="edge8" class="edge">
<title>dir_38b9936a81b7c2f7f0c4a08a6b955e24&#45;&gt;dir_4d9a259b1a4bae6d9975f656fbdc4a16</title>
<path fill="none" stroke="black" d="M217,-239.7C217,-231.98 217,-222.71 217,-214.11"/>
<polygon fill="black" stroke="black" points="220.5,-214.1 217,-204.1 213.5,-214.1 220.5,-214.1"/>
<g id="a_edge8&#45;headlabel"><a xlink:href="dir_000005_000007.html" target="_top" xlink:title="1">
<text text-anchor="middle" x="223.34" y="-215.2" font-family="Helvetica,sans-Serif" font-size="10.00">1</text>
</a>
</g>
</g>
<!-- dir_3e9c4e5327a81a71a89d9f82f5b1fa78&#45;&gt;dir_2bd50800112c18592c4fbe8af353e3db -->
<g id="edge6" class="edge">
<title>dir_3e9c4e5327a81a71a89d9f82f5b1fa78&#45;&gt;dir_2bd50800112c18592c4fbe8af353e3db</title>
<path fill="none" stroke="black" d="M95.95,-95.88C109.04,-86.89 125.26,-75.76 139.44,-66.03"/>
<polygon fill="black" stroke="black" points="141.69,-68.73 147.95,-60.19 137.73,-62.96 141.69,-68.73"/>
<g id="a_edge6&#45;headlabel"><a xlink:href="dir_000008_000004.html" target="_top" xlink:title="29">
<text text-anchor="middle" x="140.33" y="-70.61" font-family="Helvetica,sans-Serif" font-size="10.00">29</text>
</a>
</g>
</g>
<!-- dir_07e6aa43d1415ab01bdec52979eaebf1 -->
<g id="node5" class="node">
<title>dir_07e6aa43d1415ab01bdec52979eaebf1</title>
<g id="a_node5"><a xlink:href="dir_07e6aa43d1415ab01bdec52979eaebf1.html" target="_top" xlink:title="interop">
<polygon fill="white" stroke="red" points="302,-132 248,-132 248,-96 302,-96 302,-132"/>
<text text-anchor="middle" x="275" y="-111.5" font-family="Helvetica,sans-Serif" font-size="10.00">interop</text>
</a>
</g>
</g>
<!-- dir_07e6aa43d1415ab01bdec52979eaebf1&#45;&gt;dir_2bd50800112c18592c4fbe8af353e3db -->
<g id="edge1" class="edge">
<title>dir_07e6aa43d1415ab01bdec52979eaebf1&#45;&gt;dir_2bd50800112c18592c4fbe8af353e3db</title>
<path fill="none" stroke="black" d="M250.05,-95.88C236.96,-86.89 220.74,-75.76 206.56,-66.03"/>
<polygon fill="black" stroke="black" points="208.27,-62.96 198.05,-60.19 204.31,-68.73 208.27,-62.96"/>
<g id="a_edge1&#45;headlabel"><a xlink:href="dir_000015_000004.html" target="_top" xlink:title="3">
<text text-anchor="middle" x="212.84" y="-60.16" font-family="Helvetica,sans-Serif" font-size="10.00">3</text>
</a>
</g>
</g>
<!-- dir_2ef00cd1d568f193a5d6d8c857f8f410 -->
<g id="node6" class="node">
<title>dir_2ef00cd1d568f193a5d6d8c857f8f410</title>
<g id="a_node6"><a xlink:href="dir_2ef00cd1d568f193a5d6d8c857f8f410.html" target="_top" xlink:title="reference&#45;problems">
<polygon fill="white" stroke="black" points="229.5,-132 116.5,-132 116.5,-96 229.5,-96 229.5,-132"/>
<text text-anchor="middle" x="173" y="-111.5" font-family="Helvetica,sans-Serif" font-size="10.00">reference&#45;problems</text>
</a>
</g>
</g>
<!-- dir_2ef00cd1d568f193a5d6d8c857f8f410&#45;&gt;dir_2bd50800112c18592c4fbe8af353e3db -->
<g id="edge7" class="edge">
<title>dir_2ef00cd1d568f193a5d6d8c857f8f410&#45;&gt;dir_2bd50800112c18592c4fbe8af353e3db</title>
<path fill="none" stroke="black" d="M173,-95.7C173,-87.98 173,-78.71 173,-70.11"/>
<polygon fill="black" stroke="black" points="176.5,-70.1 173,-60.1 169.5,-70.1 176.5,-70.1"/>
<g id="a_edge7&#45;headlabel"><a xlink:href="dir_000025_000004.html" target="_top" xlink:title="2">
<text text-anchor="middle" x="179.34" y="-71.2" font-family="Helvetica,sans-Serif" font-size="10.00">2</text>
</a>
</g>
</g>
<!-- dir_0e7faab4b75838a7d7c0fe8154971249 -->
<g id="node7" class="node">
<title>dir_0e7faab4b75838a7d7c0fe8154971249</title>
<g id="a_node7"><a xlink:href="dir_0e7faab4b75838a7d7c0fe8154971249.html" target="_top" xlink:title="standalone">
<polygon fill="white" stroke="black" points="100.5,-204 29.5,-204 29.5,-168 100.5,-168 100.5,-204"/>
<text text-anchor="middle" x="65" y="-183.5" font-family="Helvetica,sans-Serif" font-size="10.00">standalone</text>
</a>
</g>
</g>
<!-- dir_0e7faab4b75838a7d7c0fe8154971249&#45;&gt;dir_3e9c4e5327a81a71a89d9f82f5b1fa78 -->
<g id="edge4" class="edge">
<title>dir_0e7faab4b75838a7d7c0fe8154971249&#45;&gt;dir_3e9c4e5327a81a71a89d9f82f5b1fa78</title>
<path fill="none" stroke="black" d="M66.48,-167.7C67.14,-159.98 67.94,-150.71 68.68,-142.11"/>
<polygon fill="black" stroke="black" points="72.17,-142.37 69.53,-132.1 65.19,-141.77 72.17,-142.37"/>
<g id="a_edge4&#45;headlabel"><a xlink:href="dir_000035_000008.html" target="_top" xlink:title="2">
<text text-anchor="middle" x="74.69" y="-143.69" font-family="Helvetica,sans-Serif" font-size="10.00">2</text>
</a>
</g>
</g>
<!-- dir_0e7faab4b75838a7d7c0fe8154971249&#45;&gt;dir_2bd50800112c18592c4fbe8af353e3db -->
<g id="edge5" class="edge">
<title>dir_0e7faab4b75838a7d7c0fe8154971249&#45;&gt;dir_2bd50800112c18592c4fbe8af353e3db</title>
<path fill="none" stroke="black" d="M50.55,-167.66C36.63,-148.74 19.76,-118.17 35,-96 57.49,-63.27 103.22,-50.74 135.87,-45.95"/>
<polygon fill="black" stroke="black" points="136.5,-49.4 145.97,-44.65 135.6,-42.46 136.5,-49.4"/>
<g id="a_edge5&#45;headlabel"><a xlink:href="dir_000035_000004.html" target="_top" xlink:title="3">
<text text-anchor="middle" x="133.29" y="-50.18" font-family="Helvetica,sans-Serif" font-size="10.00">3</text>
</a>
</g>
</g>
</g>
</svg>
