<?xml version="1.0" encoding="UTF-8" standalone="no"?>
<!DOCTYPE svg PUBLIC "-//W3C//DTD SVG 1.1//EN"
 "http://www.w3.org/Graphics/SVG/1.1/DTD/svg11.dtd">
<!-- Generated by graphviz version 2.43.0 (0)
 -->
<!-- Title: panoc.hpp Pages: 1 -->
<svg width="1367pt" height="274pt"
 viewBox="0.00 0.00 1366.50 274.00" xmlns="http://www.w3.org/2000/svg" xmlns:xlink="http://www.w3.org/1999/xlink">
<g id="graph0" class="graph" transform="scale(1 1) rotate(0) translate(4 270)">
<title>panoc.hpp</title>
<polygon fill="white" stroke="transparent" points="-4,4 -4,-270 1362.5,-270 1362.5,4 -4,4"/>
<!-- Node1 -->
<g id="node1" class="node">
<title>Node1</title>
<g id="a_node1"><a xlink:title=" ">
<polygon fill="#bfbfbf" stroke="black" points="626,-246.5 626,-265.5 693,-265.5 693,-246.5 626,-246.5"/>
<text text-anchor="middle" x="659.5" y="-253.5" font-family="Helvetica,sans-Serif" font-size="10.00">panoc.hpp</text>
</a>
</g>
</g>
<!-- Node2 -->
<g id="node2" class="node">
<title>Node2</title>
<g id="a_node2"><a xlink:href="lbfgs-stepsize_8hpp.html" target="_top" xlink:title=" ">
<polygon fill="white" stroke="black" points="0,-179.5 0,-209.5 119,-209.5 119,-179.5 0,-179.5"/>
<text text-anchor="start" x="8" y="-197.5" font-family="Helvetica,sans-Serif" font-size="10.00">panoc&#45;alm/inner/decl</text>
<text text-anchor="middle" x="59.5" y="-186.5" font-family="Helvetica,sans-Serif" font-size="10.00">/lbfgs&#45;stepsize.hpp</text>
</a>
</g>
</g>
<!-- Node1&#45;&gt;Node2 -->
<g id="edge1" class="edge">
<title>Node1&#45;&gt;Node2</title>
<path fill="none" stroke="midnightblue" d="M625.72,-253.62C542.75,-249.91 322.25,-238.15 129.17,-210.13"/>
<polygon fill="midnightblue" stroke="midnightblue" points="129.53,-206.65 119.13,-208.66 128.51,-213.57 129.53,-206.65"/>
</g>
<!-- Node3 -->
<g id="node3" class="node">
<title>Node3</title>
<g id="a_node3"><a xlink:href="panoc-fwd_8hpp.html" target="_top" xlink:title=" ">
<polygon fill="white" stroke="black" points="137,-179.5 137,-209.5 256,-209.5 256,-179.5 137,-179.5"/>
<text text-anchor="start" x="145" y="-197.5" font-family="Helvetica,sans-Serif" font-size="10.00">panoc&#45;alm/inner/decl</text>
<text text-anchor="middle" x="196.5" y="-186.5" font-family="Helvetica,sans-Serif" font-size="10.00">/panoc&#45;fwd.hpp</text>
</a>
</g>
</g>
<!-- Node1&#45;&gt;Node3 -->
<g id="edge2" class="edge">
<title>Node1&#45;&gt;Node3</title>
<path fill="none" stroke="midnightblue" d="M625.8,-252.27C559,-246.61 404.95,-232.39 266.11,-210.17"/>
<polygon fill="midnightblue" stroke="midnightblue" points="266.57,-206.7 256.14,-208.56 265.45,-213.61 266.57,-206.7"/>
</g>
<!-- Node5 -->
<g id="node5" class="node">
<title>Node5</title>
<g id="a_node5"><a xlink:href="panoc-stop-crit_8hpp.html" target="_top" xlink:title=" ">
<polygon fill="white" stroke="black" points="274,-179.5 274,-209.5 393,-209.5 393,-179.5 274,-179.5"/>
<text text-anchor="start" x="282" y="-197.5" font-family="Helvetica,sans-Serif" font-size="10.00">panoc&#45;alm/inner/decl</text>
<text text-anchor="middle" x="333.5" y="-186.5" font-family="Helvetica,sans-Serif" font-size="10.00">/panoc&#45;stop&#45;crit.hpp</text>
</a>
</g>
</g>
<!-- Node1&#45;&gt;Node5 -->
<g id="edge4" class="edge">
<title>Node1&#45;&gt;Node5</title>
<path fill="none" stroke="midnightblue" d="M625.76,-249.47C578.39,-241.62 489.27,-226.55 403.24,-210.11"/>
<polygon fill="midnightblue" stroke="midnightblue" points="403.79,-206.65 393.31,-208.2 402.47,-213.52 403.79,-206.65"/>
</g>
<!-- Node8 -->
<g id="node8" class="node">
<title>Node8</title>
<g id="a_node8"><a xlink:href="panoc-direction-update_8hpp.html" target="_top" xlink:title=" ">
<polygon fill="white" stroke="black" points="629,-179.5 629,-209.5 806,-209.5 806,-179.5 629,-179.5"/>
<text text-anchor="start" x="637" y="-197.5" font-family="Helvetica,sans-Serif" font-size="10.00">panoc&#45;alm/inner/directions</text>
<text text-anchor="middle" x="717.5" y="-186.5" font-family="Helvetica,sans-Serif" font-size="10.00">/decl/panoc&#45;direction&#45;update.hpp</text>
</a>
</g>
</g>
<!-- Node1&#45;&gt;Node8 -->
<g id="edge7" class="edge">
<title>Node1&#45;&gt;Node8</title>
<path fill="none" stroke="midnightblue" d="M667.81,-246.48C675.3,-238.79 686.63,-227.17 696.58,-216.96"/>
<polygon fill="midnightblue" stroke="midnightblue" points="699.36,-219.13 703.83,-209.52 694.34,-214.24 699.36,-219.13"/>
</g>
<!-- Node12 -->
<g id="node12" class="node">
<title>Node12</title>
<g id="a_node12"><a xlink:href="atomic__stop__signal_8hpp.html" target="_top" xlink:title=" ">
<polygon fill="white" stroke="black" points="411.5,-179.5 411.5,-209.5 535.5,-209.5 535.5,-179.5 411.5,-179.5"/>
<text text-anchor="start" x="419.5" y="-197.5" font-family="Helvetica,sans-Serif" font-size="10.00">panoc&#45;alm/util/atomic</text>
<text text-anchor="middle" x="473.5" y="-186.5" font-family="Helvetica,sans-Serif" font-size="10.00">_stop_signal.hpp</text>
</a>
</g>
</g>
<!-- Node1&#45;&gt;Node12 -->
<g id="edge11" class="edge">
<title>Node1&#45;&gt;Node12</title>
<path fill="none" stroke="midnightblue" d="M632.85,-246.48C605.31,-237.66 561.56,-223.67 526.86,-212.57"/>
<polygon fill="midnightblue" stroke="midnightblue" points="527.93,-209.24 517.34,-209.52 525.79,-215.9 527.93,-209.24"/>
</g>
<!-- Node13 -->
<g id="node13" class="node">
<title>Node13</title>
<g id="a_node13"><a xlink:title=" ">
<polygon fill="white" stroke="#bfbfbf" points="448.5,-118 448.5,-137 498.5,-137 498.5,-118 448.5,-118"/>
<text text-anchor="middle" x="473.5" y="-125" font-family="Helvetica,sans-Serif" font-size="10.00">atomic</text>
</a>
</g>
</g>
<!-- Node1&#45;&gt;Node13 -->
<g id="edge22" class="edge">
<title>Node1&#45;&gt;Node13</title>
<path fill="none" stroke="midnightblue" d="M646.72,-246.31C615.26,-224.91 533.83,-169.53 494.88,-143.04"/>
<polygon fill="midnightblue" stroke="midnightblue" points="496.61,-139.99 486.37,-137.26 492.67,-145.77 496.61,-139.99"/>
</g>
<!-- Node14 -->
<g id="node14" class="node">
<title>Node14</title>
<g id="a_node14"><a xlink:href="lipschitz_8hpp.html" target="_top" xlink:title=" ">
<polygon fill="white" stroke="black" points="516.5,-118 516.5,-137 668.5,-137 668.5,-118 516.5,-118"/>
<text text-anchor="middle" x="592.5" y="-125" font-family="Helvetica,sans-Serif" font-size="10.00">panoc&#45;alm/util/lipschitz.hpp</text>
</a>
</g>
</g>
<!-- Node1&#45;&gt;Node14 -->
<g id="edge13" class="edge">
<title>Node1&#45;&gt;Node14</title>
<path fill="none" stroke="midnightblue" d="M650.31,-246.49C641.6,-237.98 628.65,-224.15 620.5,-210 608.86,-189.79 601.02,-163.98 596.66,-146.88"/>
<polygon fill="midnightblue" stroke="midnightblue" points="600.04,-145.95 594.29,-137.05 593.23,-147.59 600.04,-145.95"/>
</g>
<!-- Node15 -->
<g id="node15" class="node">
<title>Node15</title>
<g id="a_node15"><a xlink:href="include_2panoc-alm_2util_2problem_8hpp.html" target="_top" xlink:title=" ">
<polygon fill="white" stroke="black" points="824.5,-185 824.5,-204 976.5,-204 976.5,-185 824.5,-185"/>
<text text-anchor="middle" x="900.5" y="-192" font-family="Helvetica,sans-Serif" font-size="10.00">panoc&#45;alm/util/problem.hpp</text>
</a>
</g>
</g>
<!-- Node1&#45;&gt;Node15 -->
<g id="edge15" class="edge">
<title>Node1&#45;&gt;Node15</title>
<path fill="none" stroke="midnightblue" d="M693.01,-246.73C735.42,-236.26 808.63,-218.18 855.78,-206.54"/>
<polygon fill="midnightblue" stroke="midnightblue" points="856.84,-209.88 865.71,-204.09 855.17,-203.09 856.84,-209.88"/>
</g>
<!-- Node19 -->
<g id="node19" class="node">
<title>Node19</title>
<g id="a_node19"><a xlink:href="solverstatus_8hpp.html" target="_top" xlink:title=" ">
<polygon fill="white" stroke="black" points="995,-185 995,-204 1166,-204 1166,-185 995,-185"/>
<text text-anchor="middle" x="1080.5" y="-192" font-family="Helvetica,sans-Serif" font-size="10.00">panoc&#45;alm/util/solverstatus.hpp</text>
</a>
</g>
</g>
<!-- Node1&#45;&gt;Node19 -->
<g id="edge20" class="edge">
<title>Node1&#45;&gt;Node19</title>
<path fill="none" stroke="midnightblue" d="M693.31,-250.49C752.55,-242.57 878.92,-225.49 985.5,-210 995.22,-208.59 1005.49,-207.06 1015.55,-205.54"/>
<polygon fill="midnightblue" stroke="midnightblue" points="1016.15,-208.99 1025.51,-204.03 1015.1,-202.07 1016.15,-208.99"/>
</g>
<!-- Node21 -->
<g id="node21" class="node">
<title>Node21</title>
<g id="a_node21"><a xlink:title=" ">
<polygon fill="white" stroke="#bfbfbf" points="1184.5,-185 1184.5,-204 1234.5,-204 1234.5,-185 1184.5,-185"/>
<text text-anchor="middle" x="1209.5" y="-192" font-family="Helvetica,sans-Serif" font-size="10.00">chrono</text>
</a>
</g>
</g>
<!-- Node1&#45;&gt;Node21 -->
<g id="edge23" class="edge">
<title>Node1&#45;&gt;Node21</title>
<path fill="none" stroke="midnightblue" d="M693.3,-255.7C776.63,-256.64 997.97,-254.4 1175.5,-210 1177.86,-209.41 1180.27,-208.67 1182.67,-207.85"/>
<polygon fill="midnightblue" stroke="midnightblue" points="1184.18,-211.02 1192.22,-204.12 1181.63,-204.5 1184.18,-211.02"/>
</g>
<!-- Node22 -->
<g id="node22" class="node">
<title>Node22</title>
<g id="a_node22"><a xlink:title=" ">
<polygon fill="white" stroke="#bfbfbf" points="1252.5,-185 1252.5,-204 1296.5,-204 1296.5,-185 1252.5,-185"/>
<text text-anchor="middle" x="1274.5" y="-192" font-family="Helvetica,sans-Serif" font-size="10.00">limits</text>
</a>
</g>
</g>
<!-- Node1&#45;&gt;Node22 -->
<g id="edge24" class="edge">
<title>Node1&#45;&gt;Node22</title>
<path fill="none" stroke="midnightblue" d="M693,-254C800.88,-250.53 1138.27,-237.68 1243.5,-210 1245.48,-209.48 1247.49,-208.83 1249.49,-208.11"/>
<polygon fill="midnightblue" stroke="midnightblue" points="1251.3,-211.14 1259.14,-204.02 1248.57,-204.7 1251.3,-211.14"/>
</g>
<!-- Node23 -->
<g id="node23" class="node">
<title>Node23</title>
<g id="a_node23"><a xlink:title=" ">
<polygon fill="white" stroke="#bfbfbf" points="1314.5,-185 1314.5,-204 1358.5,-204 1358.5,-185 1314.5,-185"/>
<text text-anchor="middle" x="1336.5" y="-192" font-family="Helvetica,sans-Serif" font-size="10.00">string</text>
</a>
</g>
</g>
<!-- Node1&#45;&gt;Node23 -->
<g id="edge25" class="edge">
<title>Node1&#45;&gt;Node23</title>
<path fill="none" stroke="midnightblue" d="M693.28,-254.28C808.87,-251.55 1187.96,-240.45 1305.5,-210 1307.48,-209.49 1309.5,-208.85 1311.49,-208.13"/>
<polygon fill="midnightblue" stroke="midnightblue" points="1313.3,-211.16 1321.15,-204.04 1310.57,-204.71 1313.3,-211.16"/>
</g>
<!-- Node4 -->
<g id="node4" class="node">
<title>Node4</title>
<g id="a_node4"><a xlink:href="lbfgs-fwd_8hpp.html" target="_top" xlink:title=" ">
<polygon fill="white" stroke="black" points="123,-112.5 123,-142.5 270,-142.5 270,-112.5 123,-112.5"/>
<text text-anchor="start" x="131" y="-130.5" font-family="Helvetica,sans-Serif" font-size="10.00">panoc&#45;alm/inner/directions</text>
<text text-anchor="middle" x="196.5" y="-119.5" font-family="Helvetica,sans-Serif" font-size="10.00">/decl/lbfgs&#45;fwd.hpp</text>
</a>
</g>
</g>
<!-- Node3&#45;&gt;Node4 -->
<g id="edge3" class="edge">
<title>Node3&#45;&gt;Node4</title>
<path fill="none" stroke="midnightblue" d="M196.5,-179.4C196.5,-171.64 196.5,-161.81 196.5,-152.86"/>
<polygon fill="midnightblue" stroke="midnightblue" points="200,-152.58 196.5,-142.58 193,-152.58 200,-152.58"/>
</g>
<!-- Node6 -->
<g id="node6" class="node">
<title>Node6</title>
<g id="a_node6"><a xlink:title=" ">
<polygon fill="white" stroke="#bfbfbf" points="289,-118 289,-137 346,-137 346,-118 289,-118"/>
<text text-anchor="middle" x="317.5" y="-125" font-family="Helvetica,sans-Serif" font-size="10.00">ostream</text>
</a>
</g>
</g>
<!-- Node5&#45;&gt;Node6 -->
<g id="edge5" class="edge">
<title>Node5&#45;&gt;Node6</title>
<path fill="none" stroke="midnightblue" d="M330.03,-179.4C327.71,-169.96 324.63,-157.45 322.1,-147.19"/>
<polygon fill="midnightblue" stroke="midnightblue" points="325.43,-146.07 319.64,-137.19 318.63,-147.74 325.43,-146.07"/>
</g>
<!-- Node7 -->
<g id="node7" class="node">
<title>Node7</title>
<g id="a_node7"><a xlink:title=" ">
<polygon fill="white" stroke="#bfbfbf" points="364,-118 364,-137 429,-137 429,-118 364,-118"/>
<text text-anchor="middle" x="396.5" y="-125" font-family="Helvetica,sans-Serif" font-size="10.00">stdexcept</text>
</a>
</g>
</g>
<!-- Node5&#45;&gt;Node7 -->
<g id="edge6" class="edge">
<title>Node5&#45;&gt;Node7</title>
<path fill="none" stroke="midnightblue" d="M347.17,-179.4C357.09,-169.16 370.53,-155.3 380.87,-144.62"/>
<polygon fill="midnightblue" stroke="midnightblue" points="383.63,-146.81 388.07,-137.19 378.6,-141.94 383.63,-146.81"/>
</g>
<!-- Node9 -->
<g id="node9" class="node">
<title>Node9</title>
<g id="a_node9"><a xlink:href="box_8hpp.html" target="_top" xlink:title=" ">
<polygon fill="white" stroke="black" points="687,-118 687,-137 816,-137 816,-118 687,-118"/>
<text text-anchor="middle" x="751.5" y="-125" font-family="Helvetica,sans-Serif" font-size="10.00">panoc&#45;alm/util/box.hpp</text>
</a>
</g>
</g>
<!-- Node8&#45;&gt;Node9 -->
<g id="edge8" class="edge">
<title>Node8&#45;&gt;Node9</title>
<path fill="none" stroke="midnightblue" d="M724.88,-179.4C729.97,-169.66 736.78,-156.65 742.23,-146.21"/>
<polygon fill="midnightblue" stroke="midnightblue" points="745.42,-147.68 746.95,-137.19 739.22,-144.43 745.42,-147.68"/>
</g>
<!-- Node10 -->
<g id="node10" class="node">
<title>Node10</title>
<g id="a_node10"><a xlink:href="vec_8hpp.html" target="_top" xlink:title=" ">
<polygon fill="white" stroke="black" points="644,-56.5 644,-75.5 699,-75.5 699,-56.5 644,-56.5"/>
<text text-anchor="middle" x="671.5" y="-63.5" font-family="Helvetica,sans-Serif" font-size="10.00">vec.hpp</text>
</a>
</g>
</g>
<!-- Node9&#45;&gt;Node10 -->
<g id="edge9" class="edge">
<title>Node9&#45;&gt;Node10</title>
<path fill="none" stroke="midnightblue" d="M740.04,-117.98C727.33,-108.52 706.59,-93.1 691.25,-81.69"/>
<polygon fill="midnightblue" stroke="midnightblue" points="693.05,-78.67 682.94,-75.51 688.88,-84.29 693.05,-78.67"/>
</g>
<!-- Node11 -->
<g id="node11" class="node">
<title>Node11</title>
<g id="a_node11"><a xlink:title=" ">
<polygon fill="white" stroke="#bfbfbf" points="637,-0.5 637,-19.5 706,-19.5 706,-0.5 637,-0.5"/>
<text text-anchor="middle" x="671.5" y="-7.5" font-family="Helvetica,sans-Serif" font-size="10.00">Eigen/Core</text>
</a>
</g>
</g>
<!-- Node10&#45;&gt;Node11 -->
<g id="edge10" class="edge">
<title>Node10&#45;&gt;Node11</title>
<path fill="none" stroke="midnightblue" d="M671.5,-56.08C671.5,-49.01 671.5,-38.86 671.5,-29.99"/>
<polygon fill="midnightblue" stroke="midnightblue" points="675,-29.75 671.5,-19.75 668,-29.75 675,-29.75"/>
</g>
<!-- Node12&#45;&gt;Node13 -->
<g id="edge12" class="edge">
<title>Node12&#45;&gt;Node13</title>
<path fill="none" stroke="midnightblue" d="M473.5,-179.4C473.5,-170.06 473.5,-157.71 473.5,-147.52"/>
<polygon fill="midnightblue" stroke="midnightblue" points="477,-147.19 473.5,-137.19 470,-147.19 477,-147.19"/>
</g>
<!-- Node14&#45;&gt;Node10 -->
<g id="edge14" class="edge">
<title>Node14&#45;&gt;Node10</title>
<path fill="none" stroke="midnightblue" d="M603.82,-117.98C616.37,-108.52 636.85,-93.1 652,-81.69"/>
<polygon fill="midnightblue" stroke="midnightblue" points="654.32,-84.32 660.2,-75.51 650.11,-78.73 654.32,-84.32"/>
</g>
<!-- Node15&#45;&gt;Node9 -->
<g id="edge16" class="edge">
<title>Node15&#45;&gt;Node9</title>
<path fill="none" stroke="midnightblue" d="M880.71,-184.87C855.11,-173.7 810.29,-154.15 780.75,-141.26"/>
<polygon fill="midnightblue" stroke="midnightblue" points="781.93,-137.96 771.37,-137.17 779.13,-144.37 781.93,-137.96"/>
</g>
<!-- Node16 -->
<g id="node16" class="node">
<title>Node16</title>
<g id="a_node16"><a xlink:title=" ">
<polygon fill="white" stroke="#bfbfbf" points="998,-118 998,-137 1063,-137 1063,-118 998,-118"/>
<text text-anchor="middle" x="1030.5" y="-125" font-family="Helvetica,sans-Serif" font-size="10.00">functional</text>
</a>
</g>
</g>
<!-- Node15&#45;&gt;Node16 -->
<g id="edge17" class="edge">
<title>Node15&#45;&gt;Node16</title>
<path fill="none" stroke="midnightblue" d="M917.76,-184.87C939.81,-173.84 978.19,-154.66 1003.96,-141.77"/>
<polygon fill="midnightblue" stroke="midnightblue" points="1005.79,-144.77 1013.17,-137.17 1002.66,-138.51 1005.79,-144.77"/>
</g>
<!-- Node17 -->
<g id="node17" class="node">
<title>Node17</title>
<g id="a_node17"><a xlink:title=" ">
<polygon fill="white" stroke="#bfbfbf" points="834.5,-118 834.5,-137 892.5,-137 892.5,-118 834.5,-118"/>
<text text-anchor="middle" x="863.5" y="-125" font-family="Helvetica,sans-Serif" font-size="10.00">memory</text>
</a>
</g>
</g>
<!-- Node15&#45;&gt;Node17 -->
<g id="edge18" class="edge">
<title>Node15&#45;&gt;Node17</title>
<path fill="none" stroke="midnightblue" d="M895.51,-184.73C889.91,-174.89 880.67,-158.66 873.55,-146.16"/>
<polygon fill="midnightblue" stroke="midnightblue" points="876.4,-144.09 868.41,-137.13 870.32,-147.55 876.4,-144.09"/>
</g>
<!-- Node18 -->
<g id="node18" class="node">
<title>Node18</title>
<g id="a_node18"><a xlink:title=" ">
<polygon fill="white" stroke="#bfbfbf" points="911,-118 911,-137 980,-137 980,-118 911,-118"/>
<text text-anchor="middle" x="945.5" y="-125" font-family="Helvetica,sans-Serif" font-size="10.00">type_traits</text>
</a>
</g>
</g>
<!-- Node15&#45;&gt;Node18 -->
<g id="edge19" class="edge">
<title>Node15&#45;&gt;Node18</title>
<path fill="none" stroke="midnightblue" d="M906.57,-184.73C913.52,-174.7 925.07,-158.01 933.79,-145.42"/>
<polygon fill="midnightblue" stroke="midnightblue" points="936.71,-147.34 939.53,-137.13 930.96,-143.36 936.71,-147.34"/>
</g>
<!-- Node20 -->
<g id="node20" class="node">
<title>Node20</title>
<g id="a_node20"><a xlink:title=" ">
<polygon fill="white" stroke="#bfbfbf" points="1081.5,-118 1081.5,-137 1129.5,-137 1129.5,-118 1081.5,-118"/>
<text text-anchor="middle" x="1105.5" y="-125" font-family="Helvetica,sans-Serif" font-size="10.00">iosfwd</text>
</a>
</g>
</g>
<!-- Node19&#45;&gt;Node20 -->
<g id="edge21" class="edge">
<title>Node19&#45;&gt;Node20</title>
<path fill="none" stroke="midnightblue" d="M1083.87,-184.73C1087.62,-174.99 1093.78,-158.98 1098.56,-146.53"/>
<polygon fill="midnightblue" stroke="midnightblue" points="1101.86,-147.72 1102.18,-137.13 1095.33,-145.2 1101.86,-147.72"/>
</g>
</g>
</svg>
