<?xml version="1.0" encoding="UTF-8" standalone="no"?>
<!DOCTYPE svg PUBLIC "-//W3C//DTD SVG 1.1//EN"
 "http://www.w3.org/Graphics/SVG/1.1/DTD/svg11.dtd">
<!-- Generated by graphviz version 2.43.0 (0)
 -->
<!-- Title: lbfgs&#45;fwd.hpp Pages: 1 -->
<svg width="1520pt" height="364pt"
 viewBox="0.00 0.00 1519.50 364.00" xmlns="http://www.w3.org/2000/svg" xmlns:xlink="http://www.w3.org/1999/xlink">
<g id="graph0" class="graph" transform="scale(1 1) rotate(0) translate(4 360)">
<title>lbfgs&#45;fwd.hpp</title>
<polygon fill="white" stroke="transparent" points="-4,4 -4,-360 1515.5,-360 1515.5,4 -4,4"/>
<!-- Node1 -->
<g id="node1" class="node">
<title>Node1</title>
<g id="a_node1"><a xlink:title=" ">
<polygon fill="#bfbfbf" stroke="black" points="535,-336.5 535,-355.5 618,-355.5 618,-336.5 535,-336.5"/>
<text text-anchor="middle" x="576.5" y="-343.5" font-family="Helvetica,sans-Serif" font-size="10.00">lbfgs&#45;fwd.hpp</text>
</a>
</g>
</g>
<!-- Node2 -->
<g id="node2" class="node">
<title>Node2</title>
<g id="a_node2"><a xlink:href="panoc-fwd_8hpp.html" target="_top" xlink:title=" ">
<polygon fill="white" stroke="black" points="496.5,-280.5 496.5,-299.5 584.5,-299.5 584.5,-280.5 496.5,-280.5"/>
<text text-anchor="middle" x="540.5" y="-287.5" font-family="Helvetica,sans-Serif" font-size="10.00">panoc&#45;fwd.hpp</text>
</a>
</g>
</g>
<!-- Node1&#45;&gt;Node2 -->
<g id="edge1" class="edge">
<title>Node1&#45;&gt;Node2</title>
<path fill="none" stroke="midnightblue" d="M564.88,-327.57C558.68,-318.27 551.33,-307.25 546.33,-299.75"/>
<polygon fill="midnightblue" stroke="midnightblue" points="562.1,-329.7 570.56,-336.08 567.92,-325.82 562.1,-329.7"/>
</g>
<!-- Node24 -->
<g id="node24" class="node">
<title>Node24</title>
<g id="a_node24"><a xlink:href="decl_2lbfgs_8hpp.html" target="_top" xlink:title=" ">
<polygon fill="white" stroke="black" points="581.5,-224.5 581.5,-243.5 643.5,-243.5 643.5,-224.5 581.5,-224.5"/>
<text text-anchor="middle" x="612.5" y="-231.5" font-family="Helvetica,sans-Serif" font-size="10.00">lbfgs.hpp</text>
</a>
</g>
</g>
<!-- Node1&#45;&gt;Node24 -->
<g id="edge39" class="edge">
<title>Node1&#45;&gt;Node24</title>
<path fill="none" stroke="midnightblue" d="M583.72,-326.86C586.87,-318.7 590.52,-308.92 593.5,-300 600.14,-280.15 606.73,-256.48 610.13,-243.9"/>
<polygon fill="midnightblue" stroke="midnightblue" points="580.35,-325.86 579.96,-336.44 586.87,-328.41 580.35,-325.86"/>
</g>
<!-- Node3 -->
<g id="node3" class="node">
<title>Node3</title>
<g id="a_node3"><a xlink:href="decl_2alm_8hpp.html" target="_top" xlink:title=" ">
<polygon fill="white" stroke="black" points="340.5,-224.5 340.5,-243.5 396.5,-243.5 396.5,-224.5 340.5,-224.5"/>
<text text-anchor="middle" x="368.5" y="-231.5" font-family="Helvetica,sans-Serif" font-size="10.00">alm.hpp</text>
</a>
</g>
</g>
<!-- Node2&#45;&gt;Node3 -->
<g id="edge2" class="edge">
<title>Node2&#45;&gt;Node3</title>
<path fill="none" stroke="midnightblue" d="M503.67,-277.44C471.24,-267.26 424.76,-252.66 395.63,-243.52"/>
<polygon fill="midnightblue" stroke="midnightblue" points="502.66,-280.79 513.25,-280.44 504.75,-274.11 502.66,-280.79"/>
</g>
<!-- Node13 -->
<g id="node13" class="node">
<title>Node13</title>
<g id="a_node13"><a xlink:href="inner_2decl_2panoc_8hpp.html" target="_top" xlink:title=" ">
<polygon fill="white" stroke="black" points="159,-224.5 159,-243.5 226,-243.5 226,-224.5 159,-224.5"/>
<text text-anchor="middle" x="192.5" y="-231.5" font-family="Helvetica,sans-Serif" font-size="10.00">panoc.hpp</text>
</a>
</g>
</g>
<!-- Node2&#45;&gt;Node13 -->
<g id="edge14" class="edge">
<title>Node2&#45;&gt;Node13</title>
<path fill="none" stroke="midnightblue" d="M486.1,-280.56C413.39,-269.28 286.68,-249.61 226.33,-240.25"/>
<polygon fill="midnightblue" stroke="midnightblue" points="486.01,-284.09 496.43,-282.16 487.08,-277.17 486.01,-284.09"/>
</g>
<!-- Node18 -->
<g id="node18" class="node">
<title>Node18</title>
<g id="a_node18"><a xlink:href="decl_2second-order-panoc_8hpp.html" target="_top" xlink:title=" ">
<polygon fill="white" stroke="black" points="1048.5,-224.5 1048.5,-243.5 1182.5,-243.5 1182.5,-224.5 1048.5,-224.5"/>
<text text-anchor="middle" x="1115.5" y="-231.5" font-family="Helvetica,sans-Serif" font-size="10.00">second&#45;order&#45;panoc.hpp</text>
</a>
</g>
</g>
<!-- Node2&#45;&gt;Node18 -->
<g id="edge30" class="edge">
<title>Node2&#45;&gt;Node18</title>
<path fill="none" stroke="midnightblue" d="M594.78,-283.9C700.36,-273.99 933.08,-252.13 1048.24,-241.32"/>
<polygon fill="midnightblue" stroke="midnightblue" points="594.29,-280.43 584.66,-284.85 594.95,-287.4 594.29,-280.43"/>
</g>
<!-- Node21 -->
<g id="node21" class="node">
<title>Node21</title>
<g id="a_node21"><a xlink:href="decl_2structured-panoc-lbfgs_8hpp.html" target="_top" xlink:title=" ">
<polygon fill="white" stroke="black" points="597.5,-168.5 597.5,-187.5 745.5,-187.5 745.5,-168.5 597.5,-168.5"/>
<text text-anchor="middle" x="671.5" y="-175.5" font-family="Helvetica,sans-Serif" font-size="10.00">structured&#45;panoc&#45;lbfgs.hpp</text>
</a>
</g>
</g>
<!-- Node2&#45;&gt;Node21 -->
<g id="edge33" class="edge">
<title>Node2&#45;&gt;Node21</title>
<path fill="none" stroke="midnightblue" d="M545.78,-270.57C550.69,-256.29 559.26,-236.84 572.5,-224 590.93,-206.13 617.72,-194.54 638.79,-187.61"/>
<polygon fill="midnightblue" stroke="midnightblue" points="542.39,-269.7 542.73,-280.29 549.07,-271.8 542.39,-269.7"/>
</g>
<!-- Node4 -->
<g id="node4" class="node">
<title>Node4</title>
<g id="a_node4"><a xlink:href="alm-helpers_8hpp.html" target="_top" xlink:title=" ">
<polygon fill="white" stroke="black" points="483.5,-168.5 483.5,-187.5 579.5,-187.5 579.5,-168.5 483.5,-168.5"/>
<text text-anchor="middle" x="531.5" y="-175.5" font-family="Helvetica,sans-Serif" font-size="10.00">alm&#45;helpers.hpp</text>
</a>
</g>
</g>
<!-- Node3&#45;&gt;Node4 -->
<g id="edge3" class="edge">
<title>Node3&#45;&gt;Node4</title>
<path fill="none" stroke="midnightblue" d="M404.2,-221.17C434.9,-211 478.42,-196.59 505.79,-187.52"/>
<polygon fill="midnightblue" stroke="midnightblue" points="402.72,-217.98 394.33,-224.44 404.92,-224.62 402.72,-217.98"/>
</g>
<!-- Node7 -->
<g id="node7" class="node">
<title>Node7</title>
<g id="a_node7"><a xlink:href="panocpy_8cpp.html" target="_top" xlink:title="This file defines all Python bindings.">
<polygon fill="white" stroke="black" points="614,-0.5 614,-19.5 691,-19.5 691,-0.5 614,-0.5"/>
<text text-anchor="middle" x="652.5" y="-7.5" font-family="Helvetica,sans-Serif" font-size="10.00">panocpy.cpp</text>
</a>
</g>
</g>
<!-- Node3&#45;&gt;Node7 -->
<g id="edge11" class="edge">
<title>Node3&#45;&gt;Node7</title>
<path fill="none" stroke="midnightblue" d="M406.76,-231.32C562.29,-224.09 1141.35,-193.22 1192.5,-132 1239.08,-76.25 1218.99,-95.92 1094.5,-56 1019.77,-32.04 784.55,-17.74 691.21,-12.88"/>
<polygon fill="midnightblue" stroke="midnightblue" points="406.55,-227.83 396.72,-231.78 406.87,-234.82 406.55,-227.83"/>
</g>
<!-- Node10 -->
<g id="node10" class="node">
<title>Node10</title>
<g id="a_node10"><a xlink:href="kwargs-to-struct_8hpp.html" target="_top" xlink:title="This file defines mappings from Python dicts (kwargs) to simple parameter structs.">
<polygon fill="white" stroke="black" points="123.5,-112.5 123.5,-131.5 241.5,-131.5 241.5,-112.5 123.5,-112.5"/>
<text text-anchor="middle" x="182.5" y="-119.5" font-family="Helvetica,sans-Serif" font-size="10.00">kwargs&#45;to&#45;struct.hpp</text>
</a>
</g>
</g>
<!-- Node3&#45;&gt;Node10 -->
<g id="edge9" class="edge">
<title>Node3&#45;&gt;Node10</title>
<path fill="none" stroke="midnightblue" d="M337.04,-220.51C317.4,-212.24 291.88,-200.62 270.5,-188 240.57,-170.33 208.46,-144.71 192.58,-131.53"/>
<polygon fill="midnightblue" stroke="midnightblue" points="335.86,-223.81 346.44,-224.4 338.54,-217.34 335.86,-223.81"/>
</g>
<!-- Node11 -->
<g id="node11" class="node">
<title>Node11</title>
<g id="a_node11"><a xlink:href="CasADi_2Rosenbrock_2main_8cpp.html" target="_top" xlink:title=" ">
<polygon fill="white" stroke="black" points="279.5,-168.5 279.5,-187.5 341.5,-187.5 341.5,-168.5 279.5,-168.5"/>
<text text-anchor="middle" x="310.5" y="-175.5" font-family="Helvetica,sans-Serif" font-size="10.00">main.cpp</text>
</a>
</g>
</g>
<!-- Node3&#45;&gt;Node11 -->
<g id="edge12" class="edge">
<title>Node3&#45;&gt;Node11</title>
<path fill="none" stroke="midnightblue" d="M351.59,-217.25C341.3,-207.67 328.53,-195.79 319.99,-187.83"/>
<polygon fill="midnightblue" stroke="midnightblue" points="349.48,-220.07 359.18,-224.32 354.25,-214.95 349.48,-220.07"/>
</g>
<!-- Node12 -->
<g id="node12" class="node">
<title>Node12</title>
<g id="a_node12"><a xlink:href="CUTEst_2Rosenbrock_2main_8cpp.html" target="_top" xlink:title=" ">
<polygon fill="white" stroke="black" points="161.5,-168.5 161.5,-187.5 223.5,-187.5 223.5,-168.5 161.5,-168.5"/>
<text text-anchor="middle" x="192.5" y="-175.5" font-family="Helvetica,sans-Serif" font-size="10.00">main.cpp</text>
</a>
</g>
</g>
<!-- Node3&#45;&gt;Node12 -->
<g id="edge13" class="edge">
<title>Node3&#45;&gt;Node12</title>
<path fill="none" stroke="midnightblue" d="M330.81,-221.44C297.63,-211.26 250.07,-196.66 220.26,-187.52"/>
<polygon fill="midnightblue" stroke="midnightblue" points="330.03,-224.86 340.61,-224.44 332.08,-218.16 330.03,-224.86"/>
</g>
<!-- Node5 -->
<g id="node5" class="node">
<title>Node5</title>
<g id="a_node5"><a xlink:href="alm_8hpp.html" target="_top" xlink:title=" ">
<polygon fill="white" stroke="black" points="495.5,-112.5 495.5,-131.5 551.5,-131.5 551.5,-112.5 495.5,-112.5"/>
<text text-anchor="middle" x="523.5" y="-119.5" font-family="Helvetica,sans-Serif" font-size="10.00">alm.hpp</text>
</a>
</g>
</g>
<!-- Node4&#45;&gt;Node5 -->
<g id="edge4" class="edge">
<title>Node4&#45;&gt;Node5</title>
<path fill="none" stroke="midnightblue" d="M528.7,-158.1C527.37,-149.14 525.85,-138.86 524.8,-131.75"/>
<polygon fill="midnightblue" stroke="midnightblue" points="525.25,-158.7 530.18,-168.08 532.18,-157.68 525.25,-158.7"/>
</g>
<!-- Node6 -->
<g id="node6" class="node">
<title>Node6</title>
<g id="a_node6"><a xlink:href="polymorphic-inner-solver_8hpp.html" target="_top" xlink:title=" ">
<polygon fill="white" stroke="black" points="572.5,-56.5 572.5,-75.5 732.5,-75.5 732.5,-56.5 572.5,-56.5"/>
<text text-anchor="middle" x="652.5" y="-63.5" font-family="Helvetica,sans-Serif" font-size="10.00">polymorphic&#45;inner&#45;solver.hpp</text>
</a>
</g>
</g>
<!-- Node5&#45;&gt;Node6 -->
<g id="edge5" class="edge">
<title>Node5&#45;&gt;Node6</title>
<path fill="none" stroke="midnightblue" d="M553.35,-108.5C577.54,-98.38 610.96,-84.39 632.16,-75.52"/>
<polygon fill="midnightblue" stroke="midnightblue" points="551.81,-105.35 543.94,-112.44 554.52,-111.81 551.81,-105.35"/>
</g>
<!-- Node8 -->
<g id="node8" class="node">
<title>Node8</title>
<g id="a_node8"><a xlink:href="alm_8cpp.html" target="_top" xlink:title=" ">
<polygon fill="white" stroke="black" points="418.5,-56.5 418.5,-75.5 474.5,-75.5 474.5,-56.5 418.5,-56.5"/>
<text text-anchor="middle" x="446.5" y="-63.5" font-family="Helvetica,sans-Serif" font-size="10.00">alm.cpp</text>
</a>
</g>
</g>
<!-- Node5&#45;&gt;Node8 -->
<g id="edge7" class="edge">
<title>Node5&#45;&gt;Node8</title>
<path fill="none" stroke="midnightblue" d="M502.6,-106.34C488.59,-96.52 470.62,-83.91 458.84,-75.65"/>
<polygon fill="midnightblue" stroke="midnightblue" points="500.93,-109.45 511.13,-112.32 504.95,-103.72 500.93,-109.45"/>
</g>
<!-- Node9 -->
<g id="node9" class="node">
<title>Node9</title>
<g id="a_node9"><a xlink:href="Presentation_2Cpp_2main_8cpp.html" target="_top" xlink:title=" ">
<polygon fill="white" stroke="black" points="492.5,-56.5 492.5,-75.5 554.5,-75.5 554.5,-56.5 492.5,-56.5"/>
<text text-anchor="middle" x="523.5" y="-63.5" font-family="Helvetica,sans-Serif" font-size="10.00">main.cpp</text>
</a>
</g>
</g>
<!-- Node5&#45;&gt;Node9 -->
<g id="edge8" class="edge">
<title>Node5&#45;&gt;Node9</title>
<path fill="none" stroke="midnightblue" d="M523.5,-101.8C523.5,-92.91 523.5,-82.78 523.5,-75.75"/>
<polygon fill="midnightblue" stroke="midnightblue" points="520,-102.08 523.5,-112.08 527,-102.08 520,-102.08"/>
</g>
<!-- Node6&#45;&gt;Node7 -->
<g id="edge6" class="edge">
<title>Node6&#45;&gt;Node7</title>
<path fill="none" stroke="midnightblue" d="M652.5,-45.8C652.5,-36.91 652.5,-26.78 652.5,-19.75"/>
<polygon fill="midnightblue" stroke="midnightblue" points="649,-46.08 652.5,-56.08 656,-46.08 649,-46.08"/>
</g>
<!-- Node10&#45;&gt;Node7 -->
<g id="edge10" class="edge">
<title>Node10&#45;&gt;Node7</title>
<path fill="none" stroke="midnightblue" d="M195.48,-104.71C208.78,-89.31 230.92,-66.98 255.5,-56 319.07,-27.6 527.07,-16.07 613.89,-12.41"/>
<polygon fill="midnightblue" stroke="midnightblue" points="192.76,-102.51 189.05,-112.43 198.14,-106.99 192.76,-102.51"/>
</g>
<!-- Node13&#45;&gt;Node7 -->
<g id="edge27" class="edge">
<title>Node13&#45;&gt;Node7</title>
<path fill="none" stroke="midnightblue" d="M170.81,-218.27C140.28,-195.64 90.87,-150.88 114.5,-112 166.64,-26.23 499.08,-13.24 613.71,-11.32"/>
<polygon fill="midnightblue" stroke="midnightblue" points="169.04,-221.31 179.21,-224.29 173.12,-215.62 169.04,-221.31"/>
</g>
<!-- Node13&#45;&gt;Node10 -->
<g id="edge26" class="edge">
<title>Node13&#45;&gt;Node10</title>
<path fill="none" stroke="midnightblue" d="M173.71,-217.66C165.53,-209.76 156.84,-199.4 152.5,-188 144.64,-167.32 162.21,-143.97 173.65,-131.67"/>
<polygon fill="midnightblue" stroke="midnightblue" points="171.46,-220.34 181.23,-224.43 176.14,-215.14 171.46,-220.34"/>
</g>
<!-- Node13&#45;&gt;Node11 -->
<g id="edge28" class="edge">
<title>Node13&#45;&gt;Node11</title>
<path fill="none" stroke="midnightblue" d="M220.4,-220.23C242.47,-210.13 272.68,-196.31 291.89,-187.52"/>
<polygon fill="midnightblue" stroke="midnightblue" points="218.83,-217.1 211.2,-224.44 221.75,-223.46 218.83,-217.1"/>
</g>
<!-- Node13&#45;&gt;Node12 -->
<g id="edge29" class="edge">
<title>Node13&#45;&gt;Node12</title>
<path fill="none" stroke="midnightblue" d="M192.5,-213.8C192.5,-204.91 192.5,-194.78 192.5,-187.75"/>
<polygon fill="midnightblue" stroke="midnightblue" points="189,-214.08 192.5,-224.08 196,-214.08 189,-214.08"/>
</g>
<!-- Node14 -->
<g id="node14" class="node">
<title>Node14</title>
<g id="a_node14"><a xlink:href="inner_2panoc_8hpp.html" target="_top" xlink:title=" ">
<polygon fill="white" stroke="black" points="398,-168.5 398,-187.5 465,-187.5 465,-168.5 398,-168.5"/>
<text text-anchor="middle" x="431.5" y="-175.5" font-family="Helvetica,sans-Serif" font-size="10.00">panoc.hpp</text>
</a>
</g>
</g>
<!-- Node13&#45;&gt;Node14 -->
<g id="edge15" class="edge">
<title>Node13&#45;&gt;Node14</title>
<path fill="none" stroke="midnightblue" d="M236.05,-223.16C282.65,-212.63 355.58,-196.15 397.94,-186.58"/>
<polygon fill="midnightblue" stroke="midnightblue" points="235.22,-219.76 226.24,-225.38 236.76,-226.59 235.22,-219.76"/>
</g>
<!-- Node17 -->
<g id="node17" class="node">
<title>Node17</title>
<g id="a_node17"><a xlink:href="standalone_2panoc_8hpp.html" target="_top" xlink:title=" ">
<polygon fill="white" stroke="black" points="0,-56.5 0,-75.5 67,-75.5 67,-56.5 0,-56.5"/>
<text text-anchor="middle" x="33.5" y="-63.5" font-family="Helvetica,sans-Serif" font-size="10.00">panoc.hpp</text>
</a>
</g>
</g>
<!-- Node13&#45;&gt;Node17 -->
<g id="edge24" class="edge">
<title>Node13&#45;&gt;Node17</title>
<path fill="none" stroke="midnightblue" d="M149.2,-224.13C126.52,-217.53 99.75,-206.38 81.5,-188 48.86,-155.12 37.72,-97.31 34.57,-75.58"/>
<polygon fill="midnightblue" stroke="midnightblue" points="148.39,-227.54 158.96,-226.77 150.22,-220.78 148.39,-227.54"/>
</g>
<!-- Node14&#45;&gt;Node6 -->
<g id="edge17" class="edge">
<title>Node14&#45;&gt;Node6</title>
<path fill="none" stroke="midnightblue" d="M473.65,-165.56C499.47,-157.77 532.76,-146.28 560.5,-132 592.49,-115.53 626.02,-89.16 642.35,-75.62"/>
<polygon fill="midnightblue" stroke="midnightblue" points="472.4,-162.28 463.8,-168.46 474.38,-168.99 472.4,-162.28"/>
</g>
<!-- Node14&#45;&gt;Node7 -->
<g id="edge16" class="edge">
<title>Node14&#45;&gt;Node7</title>
<path fill="none" stroke="midnightblue" d="M387.7,-168.79C351.06,-159.65 307.2,-142.07 323.5,-112 345.24,-71.9 367.14,-72.92 409.5,-56 478.23,-28.54 564.67,-17.65 613.74,-13.47"/>
<polygon fill="midnightblue" stroke="midnightblue" points="387.25,-172.28 397.79,-171.14 388.85,-165.46 387.25,-172.28"/>
</g>
<!-- Node14&#45;&gt;Node8 -->
<g id="edge21" class="edge">
<title>Node14&#45;&gt;Node8</title>
<path fill="none" stroke="midnightblue" d="M387.84,-166.77C353.27,-156.47 313.55,-138.31 331.5,-112 350.84,-83.67 390.93,-73.17 418.27,-69.29"/>
<polygon fill="midnightblue" stroke="midnightblue" points="387.29,-170.25 397.87,-169.6 389.19,-163.52 387.29,-170.25"/>
</g>
<!-- Node14&#45;&gt;Node9 -->
<g id="edge23" class="edge">
<title>Node14&#45;&gt;Node9</title>
<path fill="none" stroke="midnightblue" d="M401.45,-164.03C377.17,-151.68 349.33,-132.06 364.5,-112 368.44,-106.79 447.14,-86.25 492.31,-74.8"/>
<polygon fill="midnightblue" stroke="midnightblue" points="399.96,-167.19 410.48,-168.39 403,-160.89 399.96,-167.19"/>
</g>
<!-- Node15 -->
<g id="node15" class="node">
<title>Node15</title>
<g id="a_node15"><a xlink:href="polymorphic-panoc-direction_8hpp.html" target="_top" xlink:title=" ">
<polygon fill="white" stroke="black" points="683.5,-112.5 683.5,-131.5 861.5,-131.5 861.5,-112.5 683.5,-112.5"/>
<text text-anchor="middle" x="772.5" y="-119.5" font-family="Helvetica,sans-Serif" font-size="10.00">polymorphic&#45;panoc&#45;direction.hpp</text>
</a>
</g>
</g>
<!-- Node14&#45;&gt;Node15 -->
<g id="edge18" class="edge">
<title>Node14&#45;&gt;Node15</title>
<path fill="none" stroke="midnightblue" d="M475.28,-167.95C561.98,-152.49 650.76,-139.6 708.96,-131.54"/>
<polygon fill="midnightblue" stroke="midnightblue" points="474.49,-164.53 465.27,-169.74 475.73,-171.42 474.49,-164.53"/>
</g>
<!-- Node16 -->
<g id="node16" class="node">
<title>Node16</title>
<g id="a_node16"><a xlink:href="panoc_8cpp.html" target="_top" xlink:title=" ">
<polygon fill="white" stroke="black" points="373.5,-112.5 373.5,-131.5 439.5,-131.5 439.5,-112.5 373.5,-112.5"/>
<text text-anchor="middle" x="406.5" y="-119.5" font-family="Helvetica,sans-Serif" font-size="10.00">panoc.cpp</text>
</a>
</g>
</g>
<!-- Node14&#45;&gt;Node16 -->
<g id="edge22" class="edge">
<title>Node14&#45;&gt;Node16</title>
<path fill="none" stroke="midnightblue" d="M423.16,-158.98C418.92,-149.82 413.95,-139.09 410.55,-131.75"/>
<polygon fill="midnightblue" stroke="midnightblue" points="419.99,-160.48 427.37,-168.08 426.35,-157.54 419.99,-160.48"/>
</g>
<!-- Node15&#45;&gt;Node6 -->
<g id="edge20" class="edge">
<title>Node15&#45;&gt;Node6</title>
<path fill="none" stroke="midnightblue" d="M744.13,-108.23C721.68,-98.13 690.96,-84.31 671.43,-75.52"/>
<polygon fill="midnightblue" stroke="midnightblue" points="742.93,-111.53 753.49,-112.44 745.8,-105.15 742.93,-111.53"/>
</g>
<!-- Node15&#45;&gt;Node7 -->
<g id="edge19" class="edge">
<title>Node15&#45;&gt;Node7</title>
<path fill="none" stroke="midnightblue" d="M767.38,-102.72C762.62,-88.53 754.31,-69.11 741.5,-56 724.44,-38.54 699.17,-26.66 679.91,-19.51"/>
<polygon fill="midnightblue" stroke="midnightblue" points="764.06,-103.84 770.34,-112.37 770.75,-101.78 764.06,-103.84"/>
</g>
<!-- Node17&#45;&gt;Node7 -->
<g id="edge25" class="edge">
<title>Node17&#45;&gt;Node7</title>
<path fill="none" stroke="midnightblue" d="M77.55,-56.55C78.88,-56.36 80.2,-56.17 81.5,-56 280.87,-29.53 521.61,-16.8 613.92,-12.62"/>
<polygon fill="midnightblue" stroke="midnightblue" points="76.58,-53.16 67.26,-58.2 77.68,-60.08 76.58,-53.16"/>
</g>
<!-- Node19 -->
<g id="node19" class="node">
<title>Node19</title>
<g id="a_node19"><a xlink:href="second-order-panoc_8hpp.html" target="_top" xlink:title=" ">
<polygon fill="white" stroke="black" points="1377.5,-168.5 1377.5,-187.5 1511.5,-187.5 1511.5,-168.5 1377.5,-168.5"/>
<text text-anchor="middle" x="1444.5" y="-175.5" font-family="Helvetica,sans-Serif" font-size="10.00">second&#45;order&#45;panoc.hpp</text>
</a>
</g>
</g>
<!-- Node18&#45;&gt;Node19 -->
<g id="edge31" class="edge">
<title>Node18&#45;&gt;Node19</title>
<path fill="none" stroke="midnightblue" d="M1177.7,-222.79C1239.87,-212.59 1334.36,-197.08 1392.61,-187.52"/>
<polygon fill="midnightblue" stroke="midnightblue" points="1176.93,-219.37 1167.63,-224.44 1178.07,-226.28 1176.93,-219.37"/>
</g>
<!-- Node20 -->
<g id="node20" class="node">
<title>Node20</title>
<g id="a_node20"><a xlink:href="second-order-panoc_8cpp.html" target="_top" xlink:title=" ">
<polygon fill="white" stroke="black" points="1377.5,-112.5 1377.5,-131.5 1511.5,-131.5 1511.5,-112.5 1377.5,-112.5"/>
<text text-anchor="middle" x="1444.5" y="-119.5" font-family="Helvetica,sans-Serif" font-size="10.00">second&#45;order&#45;panoc.cpp</text>
</a>
</g>
</g>
<!-- Node19&#45;&gt;Node20 -->
<g id="edge32" class="edge">
<title>Node19&#45;&gt;Node20</title>
<path fill="none" stroke="midnightblue" d="M1444.5,-157.8C1444.5,-148.91 1444.5,-138.78 1444.5,-131.75"/>
<polygon fill="midnightblue" stroke="midnightblue" points="1441,-158.08 1444.5,-168.08 1448,-158.08 1441,-158.08"/>
</g>
<!-- Node21&#45;&gt;Node6 -->
<g id="edge38" class="edge">
<title>Node21&#45;&gt;Node6</title>
<path fill="none" stroke="midnightblue" d="M668.28,-158.35C664.12,-134.25 657.04,-93.31 653.98,-75.59"/>
<polygon fill="midnightblue" stroke="midnightblue" points="664.86,-159.11 670.01,-168.37 671.76,-157.92 664.86,-159.11"/>
</g>
<!-- Node21&#45;&gt;Node10 -->
<g id="edge37" class="edge">
<title>Node21&#45;&gt;Node10</title>
<path fill="none" stroke="midnightblue" d="M587.27,-167.7C488.71,-156.81 328.04,-139.07 241.75,-129.54"/>
<polygon fill="midnightblue" stroke="midnightblue" points="587.17,-171.21 597.5,-168.83 587.94,-164.25 587.17,-171.21"/>
</g>
<!-- Node22 -->
<g id="node22" class="node">
<title>Node22</title>
<g id="a_node22"><a xlink:href="structured-panoc-lbfgs_8hpp.html" target="_top" xlink:title=" ">
<polygon fill="white" stroke="black" points="917.5,-112.5 917.5,-131.5 1065.5,-131.5 1065.5,-112.5 917.5,-112.5"/>
<text text-anchor="middle" x="991.5" y="-119.5" font-family="Helvetica,sans-Serif" font-size="10.00">structured&#45;panoc&#45;lbfgs.hpp</text>
</a>
</g>
</g>
<!-- Node21&#45;&gt;Node22 -->
<g id="edge34" class="edge">
<title>Node21&#45;&gt;Node22</title>
<path fill="none" stroke="midnightblue" d="M732.37,-166.73C792.84,-156.52 884.49,-141.06 941.03,-131.52"/>
<polygon fill="midnightblue" stroke="midnightblue" points="731.48,-163.33 722.2,-168.44 732.65,-170.23 731.48,-163.33"/>
</g>
<!-- Node22&#45;&gt;Node7 -->
<g id="edge35" class="edge">
<title>Node22&#45;&gt;Node7</title>
<path fill="none" stroke="midnightblue" d="M955.26,-109.24C886.66,-86.98 739.32,-39.17 679.04,-19.61"/>
<polygon fill="midnightblue" stroke="midnightblue" points="954.59,-112.7 965.18,-112.46 956.75,-106.04 954.59,-112.7"/>
</g>
<!-- Node23 -->
<g id="node23" class="node">
<title>Node23</title>
<g id="a_node23"><a xlink:href="structured-panoc-lbfgs_8cpp.html" target="_top" xlink:title=" ">
<polygon fill="white" stroke="black" points="918,-56.5 918,-75.5 1065,-75.5 1065,-56.5 918,-56.5"/>
<text text-anchor="middle" x="991.5" y="-63.5" font-family="Helvetica,sans-Serif" font-size="10.00">structured&#45;panoc&#45;lbfgs.cpp</text>
</a>
</g>
</g>
<!-- Node22&#45;&gt;Node23 -->
<g id="edge36" class="edge">
<title>Node22&#45;&gt;Node23</title>
<path fill="none" stroke="midnightblue" d="M991.5,-101.8C991.5,-92.91 991.5,-82.78 991.5,-75.75"/>
<polygon fill="midnightblue" stroke="midnightblue" points="988,-102.08 991.5,-112.08 995,-102.08 988,-102.08"/>
</g>
<!-- Node24&#45;&gt;Node10 -->
<g id="edge53" class="edge">
<title>Node24&#45;&gt;Node10</title>
<path fill="none" stroke="midnightblue" d="M571.2,-228.3C525.52,-222.29 450.22,-209.93 388.5,-188 370.52,-181.61 368.27,-174.96 350.5,-168 308.89,-151.71 259.24,-139.22 224.75,-131.57"/>
<polygon fill="midnightblue" stroke="midnightblue" points="570.95,-231.8 581.32,-229.6 571.84,-224.86 570.95,-231.8"/>
</g>
<!-- Node24&#45;&gt;Node11 -->
<g id="edge54" class="edge">
<title>Node24&#45;&gt;Node11</title>
<path fill="none" stroke="midnightblue" d="M571.26,-226.09C520.45,-217.51 431.51,-202.25 355.5,-188 351.11,-187.18 346.49,-186.28 341.95,-185.39"/>
<polygon fill="midnightblue" stroke="midnightblue" points="570.76,-229.56 581.2,-227.77 571.92,-222.66 570.76,-229.56"/>
</g>
<!-- Node24&#45;&gt;Node12 -->
<g id="edge55" class="edge">
<title>Node24&#45;&gt;Node12</title>
<path fill="none" stroke="midnightblue" d="M571.34,-227.71C487.45,-216.92 298.3,-192.6 223.65,-183"/>
<polygon fill="midnightblue" stroke="midnightblue" points="570.91,-231.18 581.27,-228.99 571.8,-224.24 570.91,-231.18"/>
</g>
<!-- Node24&#45;&gt;Node21 -->
<g id="edge40" class="edge">
<title>Node24&#45;&gt;Node21</title>
<path fill="none" stroke="midnightblue" d="M629.39,-217.54C639.91,-207.91 653.07,-195.87 661.85,-187.83"/>
<polygon fill="midnightblue" stroke="midnightblue" points="626.99,-214.99 621.98,-224.32 631.72,-220.15 626.99,-214.99"/>
</g>
<!-- Node25 -->
<g id="node25" class="node">
<title>Node25</title>
<g id="a_node25"><a xlink:href="decl_2specialized-lbfgs_8hpp.html" target="_top" xlink:title=" ">
<polygon fill="white" stroke="black" points="1239.5,-168.5 1239.5,-187.5 1359.5,-187.5 1359.5,-168.5 1239.5,-168.5"/>
<text text-anchor="middle" x="1299.5" y="-175.5" font-family="Helvetica,sans-Serif" font-size="10.00">specialized&#45;lbfgs.hpp</text>
</a>
</g>
</g>
<!-- Node24&#45;&gt;Node25 -->
<g id="edge41" class="edge">
<title>Node24&#45;&gt;Node25</title>
<path fill="none" stroke="midnightblue" d="M653.98,-230.64C752.98,-224.86 1010.82,-208.92 1225.5,-188 1230.01,-187.56 1234.67,-187.07 1239.35,-186.56"/>
<polygon fill="midnightblue" stroke="midnightblue" points="653.58,-227.16 643.8,-231.23 653.99,-234.15 653.58,-227.16"/>
</g>
<!-- Node27 -->
<g id="node27" class="node">
<title>Node27</title>
<g id="a_node27"><a xlink:href="lbfgs_8hpp.html" target="_top" xlink:title=" ">
<polygon fill="white" stroke="black" points="811.5,-168.5 811.5,-187.5 873.5,-187.5 873.5,-168.5 811.5,-168.5"/>
<text text-anchor="middle" x="842.5" y="-175.5" font-family="Helvetica,sans-Serif" font-size="10.00">lbfgs.hpp</text>
</a>
</g>
</g>
<!-- Node24&#45;&gt;Node27 -->
<g id="edge43" class="edge">
<title>Node24&#45;&gt;Node27</title>
<path fill="none" stroke="midnightblue" d="M653.29,-223.42C698.46,-212.82 770.3,-195.95 811.24,-186.34"/>
<polygon fill="midnightblue" stroke="midnightblue" points="652.45,-220.02 643.52,-225.72 654.05,-226.84 652.45,-220.02"/>
</g>
<!-- Node26 -->
<g id="node26" class="node">
<title>Node26</title>
<g id="a_node26"><a xlink:href="specialized-lbfgs_8hpp.html" target="_top" xlink:title=" ">
<polygon fill="white" stroke="black" points="1239.5,-112.5 1239.5,-131.5 1359.5,-131.5 1359.5,-112.5 1239.5,-112.5"/>
<text text-anchor="middle" x="1299.5" y="-119.5" font-family="Helvetica,sans-Serif" font-size="10.00">specialized&#45;lbfgs.hpp</text>
</a>
</g>
</g>
<!-- Node25&#45;&gt;Node26 -->
<g id="edge42" class="edge">
<title>Node25&#45;&gt;Node26</title>
<path fill="none" stroke="midnightblue" d="M1299.5,-157.8C1299.5,-148.91 1299.5,-138.78 1299.5,-131.75"/>
<polygon fill="midnightblue" stroke="midnightblue" points="1296,-158.08 1299.5,-168.08 1303,-158.08 1296,-158.08"/>
</g>
<!-- Node27&#45;&gt;Node6 -->
<g id="edge47" class="edge">
<title>Node27&#45;&gt;Node6</title>
<path fill="none" stroke="midnightblue" d="M858.42,-160.74C870.19,-146.72 882.31,-126.49 870.5,-112 853.08,-90.62 787.3,-79.09 732.51,-73.07"/>
<polygon fill="midnightblue" stroke="midnightblue" points="855.8,-158.42 851.71,-168.19 861,-163.1 855.8,-158.42"/>
</g>
<!-- Node27&#45;&gt;Node7 -->
<g id="edge46" class="edge">
<title>Node27&#45;&gt;Node7</title>
<path fill="none" stroke="midnightblue" d="M883.89,-175.09C943.98,-171.35 1050.8,-160.74 1074.5,-132 1095.99,-105.94 1097.08,-81.12 1074.5,-56 1049.1,-27.75 790.71,-15.81 691.24,-12.24"/>
<polygon fill="midnightblue" stroke="midnightblue" points="883.38,-171.61 873.6,-175.69 883.79,-178.6 883.38,-171.61"/>
</g>
<!-- Node27&#45;&gt;Node8 -->
<g id="edge49" class="edge">
<title>Node27&#45;&gt;Node8</title>
<path fill="none" stroke="midnightblue" d="M801.44,-172.77C710.61,-163.28 499.63,-140.46 486.5,-132 465.78,-118.65 454.05,-90.39 449.19,-75.93"/>
<polygon fill="midnightblue" stroke="midnightblue" points="801.08,-176.25 811.39,-173.8 801.8,-169.29 801.08,-176.25"/>
</g>
<!-- Node27&#45;&gt;Node9 -->
<g id="edge52" class="edge">
<title>Node27&#45;&gt;Node9</title>
<path fill="none" stroke="midnightblue" d="M801.32,-167.73C766.99,-159.59 717.02,-146.76 674.5,-132 625.16,-114.87 569.2,-89.02 541.3,-75.66"/>
<polygon fill="midnightblue" stroke="midnightblue" points="800.9,-171.23 811.44,-170.11 802.5,-164.42 800.9,-171.23"/>
</g>
<!-- Node27&#45;&gt;Node15 -->
<g id="edge48" class="edge">
<title>Node27&#45;&gt;Node15</title>
<path fill="none" stroke="midnightblue" d="M823.19,-162.1C810.59,-152.38 794.57,-140.03 783.95,-131.83"/>
<polygon fill="midnightblue" stroke="midnightblue" points="821.2,-164.99 831.25,-168.32 825.47,-159.44 821.2,-164.99"/>
</g>
<!-- Node27&#45;&gt;Node16 -->
<g id="edge51" class="edge">
<title>Node27&#45;&gt;Node16</title>
<path fill="none" stroke="midnightblue" d="M801.26,-172.62C715.38,-163.44 519.86,-142.18 453.5,-132 448.98,-131.31 444.24,-130.5 439.57,-129.65"/>
<polygon fill="midnightblue" stroke="midnightblue" points="801.1,-176.12 811.41,-173.7 801.84,-169.16 801.1,-176.12"/>
</g>
<!-- Node27&#45;&gt;Node22 -->
<g id="edge45" class="edge">
<title>Node27&#45;&gt;Node22</title>
<path fill="none" stroke="midnightblue" d="M875.87,-164.91C903.88,-154.75 943.2,-140.51 968,-131.52"/>
<polygon fill="midnightblue" stroke="midnightblue" points="874.32,-161.75 866.11,-168.44 876.7,-168.33 874.32,-161.75"/>
</g>
<!-- Node27&#45;&gt;Node26 -->
<g id="edge44" class="edge">
<title>Node27&#45;&gt;Node26</title>
<path fill="none" stroke="midnightblue" d="M883.86,-172.11C964.93,-162.53 1145.05,-141.25 1239.33,-130.11"/>
<polygon fill="midnightblue" stroke="midnightblue" points="883.07,-168.68 873.55,-173.33 883.89,-175.63 883.07,-168.68"/>
</g>
<!-- Node28 -->
<g id="node28" class="node">
<title>Node28</title>
<g id="a_node28"><a xlink:href="lbfgs_8cpp.html" target="_top" xlink:title=" ">
<polygon fill="white" stroke="black" points="1122,-112.5 1122,-131.5 1183,-131.5 1183,-112.5 1122,-112.5"/>
<text text-anchor="middle" x="1152.5" y="-119.5" font-family="Helvetica,sans-Serif" font-size="10.00">lbfgs.cpp</text>
</a>
</g>
</g>
<!-- Node27&#45;&gt;Node28 -->
<g id="edge50" class="edge">
<title>Node27&#45;&gt;Node28</title>
<path fill="none" stroke="midnightblue" d="M883.75,-170.38C935.93,-161.91 1028.51,-146.6 1107.5,-132 1112.04,-131.16 1116.84,-130.24 1121.54,-129.32"/>
<polygon fill="midnightblue" stroke="midnightblue" points="882.87,-166.97 873.56,-172.03 883.99,-173.88 882.87,-166.97"/>
</g>
</g>
</svg>
