<?xml version="1.0" encoding="UTF-8" standalone="no"?>
<!DOCTYPE svg PUBLIC "-//W3C//DTD SVG 1.1//EN"
 "http://www.w3.org/Graphics/SVG/1.1/DTD/svg11.dtd">
<!-- Generated by graphviz version 2.43.0 (0)
 -->
<!-- Title: lbfgspp.hpp Pages: 1 -->
<svg width="719pt" height="330pt"
 viewBox="0.00 0.00 718.72 330.00" xmlns="http://www.w3.org/2000/svg" xmlns:xlink="http://www.w3.org/1999/xlink">
<g id="graph0" class="graph" transform="scale(1 1) rotate(0) translate(4 326)">
<title>lbfgspp.hpp</title>
<polygon fill="white" stroke="transparent" points="-4,4 -4,-326 714.72,-326 714.72,4 -4,4"/>
<!-- Node1 -->
<g id="node1" class="node">
<title>Node1</title>
<g id="a_node1"><a xlink:title=" ">
<polygon fill="#bfbfbf" stroke="black" points="348.22,-302.5 348.22,-321.5 422.22,-321.5 422.22,-302.5 348.22,-302.5"/>
<text text-anchor="middle" x="385.22" y="-309.5" font-family="Helvetica,sans-Serif" font-size="10.00">lbfgspp.hpp</text>
</a>
</g>
</g>
<!-- Node2 -->
<g id="node2" class="node">
<title>Node2</title>
<g id="a_node2"><a xlink:href="atomic__stop__signal_8hpp.html" target="_top" xlink:title=" ">
<polygon fill="white" stroke="black" points="13.22,-168.5 13.22,-198.5 137.22,-198.5 137.22,-168.5 13.22,-168.5"/>
<text text-anchor="start" x="21.22" y="-186.5" font-family="Helvetica,sans-Serif" font-size="10.00">panoc&#45;alm/util/atomic</text>
<text text-anchor="middle" x="75.22" y="-175.5" font-family="Helvetica,sans-Serif" font-size="10.00">_stop_signal.hpp</text>
</a>
</g>
</g>
<!-- Node1&#45;&gt;Node2 -->
<g id="edge1" class="edge">
<title>Node1&#45;&gt;Node2</title>
<path fill="none" stroke="midnightblue" d="M347.96,-310.83C299.68,-309.11 214.21,-300.84 151.22,-266 125.5,-251.77 103.54,-225.73 89.93,-206.9"/>
<polygon fill="midnightblue" stroke="midnightblue" points="92.71,-204.77 84.12,-198.58 86.97,-208.78 92.71,-204.77"/>
</g>
<!-- Node3 -->
<g id="node3" class="node">
<title>Node3</title>
<g id="a_node3"><a xlink:title=" ">
<polygon fill="white" stroke="#bfbfbf" points="5.22,-112.5 5.22,-131.5 55.22,-131.5 55.22,-112.5 5.22,-112.5"/>
<text text-anchor="middle" x="30.22" y="-119.5" font-family="Helvetica,sans-Serif" font-size="10.00">atomic</text>
</a>
</g>
</g>
<!-- Node1&#45;&gt;Node3 -->
<g id="edge20" class="edge">
<title>Node1&#45;&gt;Node3</title>
<path fill="none" stroke="midnightblue" d="M347.97,-309.61C293.94,-306.55 191.4,-296.83 110.22,-266 58.12,-246.21 31.11,-247.81 4.22,-199 -6.24,-180.01 5.59,-156.05 16.5,-140.17"/>
<polygon fill="midnightblue" stroke="midnightblue" points="19.52,-141.97 22.64,-131.84 13.89,-137.81 19.52,-141.97"/>
</g>
<!-- Node4 -->
<g id="node4" class="node">
<title>Node4</title>
<g id="a_node4"><a xlink:href="panoc-helpers_8hpp.html" target="_top" xlink:title=" ">
<polygon fill="white" stroke="black" points="210.72,-235.5 210.72,-265.5 337.72,-265.5 337.72,-235.5 210.72,-235.5"/>
<text text-anchor="start" x="218.72" y="-253.5" font-family="Helvetica,sans-Serif" font-size="10.00">panoc&#45;alm/inner/detail</text>
<text text-anchor="middle" x="274.22" y="-242.5" font-family="Helvetica,sans-Serif" font-size="10.00">/panoc&#45;helpers.hpp</text>
</a>
</g>
</g>
<!-- Node1&#45;&gt;Node4 -->
<g id="edge3" class="edge">
<title>Node1&#45;&gt;Node4</title>
<path fill="none" stroke="midnightblue" d="M369.32,-302.48C353.72,-294.12 329.42,-281.09 309.29,-270.3"/>
<polygon fill="midnightblue" stroke="midnightblue" points="310.85,-267.16 300.38,-265.52 307.54,-273.33 310.85,-267.16"/>
</g>
<!-- Node7 -->
<g id="node7" class="node">
<title>Node7</title>
<g id="a_node7"><a xlink:title=" ">
<polygon fill="white" stroke="#bfbfbf" points="170.72,-112.5 170.72,-131.5 235.72,-131.5 235.72,-112.5 170.72,-112.5"/>
<text text-anchor="middle" x="203.22" y="-119.5" font-family="Helvetica,sans-Serif" font-size="10.00">stdexcept</text>
</a>
</g>
</g>
<!-- Node1&#45;&gt;Node7 -->
<g id="edge22" class="edge">
<title>Node1&#45;&gt;Node7</title>
<path fill="none" stroke="midnightblue" d="M348.19,-307.28C299.81,-301.57 219.14,-288.83 201.22,-266 172.68,-229.64 186.7,-170.56 196.48,-141.01"/>
<polygon fill="midnightblue" stroke="midnightblue" points="199.79,-142.16 199.8,-131.56 193.18,-139.84 199.79,-142.16"/>
</g>
<!-- Node8 -->
<g id="node8" class="node">
<title>Node8</title>
<g id="a_node8"><a xlink:href="include_2panoc-alm_2util_2problem_8hpp.html" target="_top" xlink:title=" ">
<polygon fill="white" stroke="black" points="369.22,-174 369.22,-193 521.22,-193 521.22,-174 369.22,-174"/>
<text text-anchor="middle" x="445.22" y="-181" font-family="Helvetica,sans-Serif" font-size="10.00">panoc&#45;alm/util/problem.hpp</text>
</a>
</g>
</g>
<!-- Node1&#45;&gt;Node8 -->
<g id="edge18" class="edge">
<title>Node1&#45;&gt;Node8</title>
<path fill="none" stroke="midnightblue" d="M383.75,-302.04C381.77,-287.25 379.59,-257.18 390.22,-235 397.3,-220.23 410.78,-207.74 422.63,-198.88"/>
<polygon fill="midnightblue" stroke="midnightblue" points="424.69,-201.7 430.85,-193.08 420.66,-195.98 424.69,-201.7"/>
</g>
<!-- Node15 -->
<g id="node15" class="node">
<title>Node15</title>
<g id="a_node15"><a xlink:href="solverstatus_8hpp.html" target="_top" xlink:title=" ">
<polygon fill="white" stroke="black" points="539.72,-174 539.72,-193 710.72,-193 710.72,-174 539.72,-174"/>
<text text-anchor="middle" x="625.22" y="-181" font-family="Helvetica,sans-Serif" font-size="10.00">panoc&#45;alm/util/solverstatus.hpp</text>
</a>
</g>
</g>
<!-- Node1&#45;&gt;Node15 -->
<g id="edge19" class="edge">
<title>Node1&#45;&gt;Node15</title>
<path fill="none" stroke="midnightblue" d="M387.01,-302.45C390.8,-286.61 401.13,-252.72 423.22,-235 444.24,-218.14 509.26,-203.79 559.93,-194.75"/>
<polygon fill="midnightblue" stroke="midnightblue" points="560.6,-198.18 569.85,-193.01 559.4,-191.29 560.6,-198.18"/>
</g>
<!-- Node17 -->
<g id="node17" class="node">
<title>Node17</title>
<g id="a_node17"><a xlink:title=" ">
<polygon fill="white" stroke="#bfbfbf" points="432.22,-241 432.22,-260 482.22,-260 482.22,-241 432.22,-241"/>
<text text-anchor="middle" x="457.22" y="-248" font-family="Helvetica,sans-Serif" font-size="10.00">chrono</text>
</a>
</g>
</g>
<!-- Node1&#45;&gt;Node17 -->
<g id="edge21" class="edge">
<title>Node1&#45;&gt;Node17</title>
<path fill="none" stroke="midnightblue" d="M395.54,-302.48C406.87,-293.11 425.29,-277.88 439.06,-266.51"/>
<polygon fill="midnightblue" stroke="midnightblue" points="441.44,-269.08 446.92,-260.01 436.99,-263.68 441.44,-269.08"/>
</g>
<!-- Node18 -->
<g id="node18" class="node">
<title>Node18</title>
<g id="a_node18"><a xlink:title=" ">
<polygon fill="white" stroke="#bfbfbf" points="500.22,-241 500.22,-260 544.22,-260 544.22,-241 500.22,-241"/>
<text text-anchor="middle" x="522.22" y="-248" font-family="Helvetica,sans-Serif" font-size="10.00">string</text>
</a>
</g>
</g>
<!-- Node1&#45;&gt;Node18 -->
<g id="edge23" class="edge">
<title>Node1&#45;&gt;Node18</title>
<path fill="none" stroke="midnightblue" d="M406.03,-302.42C427.48,-293.53 461.82,-279.11 491.22,-266 492.41,-265.47 493.62,-264.92 494.85,-264.37"/>
<polygon fill="midnightblue" stroke="midnightblue" points="496.62,-267.41 504.24,-260.04 493.69,-261.05 496.62,-267.41"/>
</g>
<!-- Node19 -->
<g id="node19" class="node">
<title>Node19</title>
<g id="a_node19"><a xlink:title=" ">
<polygon fill="white" stroke="#bfbfbf" points="562.72,-241 562.72,-260 619.72,-260 619.72,-241 562.72,-241"/>
<text text-anchor="middle" x="591.22" y="-248" font-family="Helvetica,sans-Serif" font-size="10.00">LBFGS.h</text>
</a>
</g>
</g>
<!-- Node1&#45;&gt;Node19 -->
<g id="edge24" class="edge">
<title>Node1&#45;&gt;Node19</title>
<path fill="none" stroke="midnightblue" d="M421.25,-302.49C455.49,-294.13 508.26,-280.56 553.22,-266 555.63,-265.22 558.11,-264.37 560.6,-263.49"/>
<polygon fill="midnightblue" stroke="midnightblue" points="561.87,-266.75 570.05,-260.02 559.46,-260.18 561.87,-266.75"/>
</g>
<!-- Node20 -->
<g id="node20" class="node">
<title>Node20</title>
<g id="a_node20"><a xlink:title=" ">
<polygon fill="white" stroke="#bfbfbf" points="638.22,-241 638.22,-260 702.22,-260 702.22,-241 638.22,-241"/>
<text text-anchor="middle" x="670.22" y="-248" font-family="Helvetica,sans-Serif" font-size="10.00">LBFGSB.h</text>
</a>
</g>
</g>
<!-- Node1&#45;&gt;Node20 -->
<g id="edge25" class="edge">
<title>Node1&#45;&gt;Node20</title>
<path fill="none" stroke="midnightblue" d="M422.24,-305.9C470.21,-298.9 556.24,-284.98 628.22,-266 631.25,-265.2 634.39,-264.29 637.51,-263.32"/>
<polygon fill="midnightblue" stroke="midnightblue" points="638.89,-266.55 647.3,-260.1 636.71,-259.9 638.89,-266.55"/>
</g>
<!-- Node2&#45;&gt;Node3 -->
<g id="edge2" class="edge">
<title>Node2&#45;&gt;Node3</title>
<path fill="none" stroke="midnightblue" d="M64.56,-168.4C58.08,-159.84 49.79,-148.87 42.97,-139.86"/>
<polygon fill="midnightblue" stroke="midnightblue" points="45.59,-137.52 36.77,-131.66 40.01,-141.74 45.59,-137.52"/>
</g>
<!-- Node4&#45;&gt;Node2 -->
<g id="edge7" class="edge">
<title>Node4&#45;&gt;Node2</title>
<path fill="none" stroke="midnightblue" d="M231.04,-235.4C200.79,-225.52 160.19,-212.25 128.01,-201.74"/>
<polygon fill="midnightblue" stroke="midnightblue" points="128.91,-198.35 118.32,-198.58 126.73,-205.01 128.91,-198.35"/>
</g>
<!-- Node5 -->
<g id="node5" class="node">
<title>Node5</title>
<g id="a_node5"><a xlink:href="panoc-stop-crit_8hpp.html" target="_top" xlink:title=" ">
<polygon fill="white" stroke="black" points="231.72,-168.5 231.72,-198.5 350.72,-198.5 350.72,-168.5 231.72,-168.5"/>
<text text-anchor="start" x="239.72" y="-186.5" font-family="Helvetica,sans-Serif" font-size="10.00">panoc&#45;alm/inner/decl</text>
<text text-anchor="middle" x="291.22" y="-175.5" font-family="Helvetica,sans-Serif" font-size="10.00">/panoc&#45;stop&#45;crit.hpp</text>
</a>
</g>
</g>
<!-- Node4&#45;&gt;Node5 -->
<g id="edge4" class="edge">
<title>Node4&#45;&gt;Node5</title>
<path fill="none" stroke="midnightblue" d="M277.91,-235.4C279.98,-227.47 282.62,-217.38 285,-208.27"/>
<polygon fill="midnightblue" stroke="midnightblue" points="288.39,-209.14 287.54,-198.58 281.62,-207.37 288.39,-209.14"/>
</g>
<!-- Node4&#45;&gt;Node7 -->
<g id="edge17" class="edge">
<title>Node4&#45;&gt;Node7</title>
<path fill="none" stroke="midnightblue" d="M255.02,-235.36C243.87,-226.17 230.45,-213.29 222.22,-199 211.95,-181.17 207.18,-157.87 205,-141.8"/>
<polygon fill="midnightblue" stroke="midnightblue" points="208.44,-141.08 203.83,-131.55 201.49,-141.88 208.44,-141.08"/>
</g>
<!-- Node4&#45;&gt;Node8 -->
<g id="edge8" class="edge">
<title>Node4&#45;&gt;Node8</title>
<path fill="none" stroke="midnightblue" d="M311.32,-235.4C341.73,-223.84 384.3,-207.66 413.22,-196.66"/>
<polygon fill="midnightblue" stroke="midnightblue" points="414.74,-199.83 422.84,-193.01 412.25,-193.29 414.74,-199.83"/>
</g>
<!-- Node4&#45;&gt;Node15 -->
<g id="edge15" class="edge">
<title>Node4&#45;&gt;Node15</title>
<path fill="none" stroke="midnightblue" d="M337.78,-237.73C403.75,-225.51 505.93,-206.59 569.03,-194.91"/>
<polygon fill="midnightblue" stroke="midnightblue" points="569.99,-198.29 579.19,-193.02 568.72,-191.4 569.99,-198.29"/>
</g>
<!-- Node6 -->
<g id="node6" class="node">
<title>Node6</title>
<g id="a_node6"><a xlink:title=" ">
<polygon fill="white" stroke="#bfbfbf" points="257.72,-112.5 257.72,-131.5 314.72,-131.5 314.72,-112.5 257.72,-112.5"/>
<text text-anchor="middle" x="286.22" y="-119.5" font-family="Helvetica,sans-Serif" font-size="10.00">ostream</text>
</a>
</g>
</g>
<!-- Node5&#45;&gt;Node6 -->
<g id="edge5" class="edge">
<title>Node5&#45;&gt;Node6</title>
<path fill="none" stroke="midnightblue" d="M290.03,-168.4C289.37,-160.47 288.53,-150.46 287.8,-141.86"/>
<polygon fill="midnightblue" stroke="midnightblue" points="291.27,-141.33 286.95,-131.66 284.3,-141.92 291.27,-141.33"/>
</g>
<!-- Node5&#45;&gt;Node7 -->
<g id="edge6" class="edge">
<title>Node5&#45;&gt;Node7</title>
<path fill="none" stroke="midnightblue" d="M270.37,-168.4C256.52,-159.04 238.41,-146.79 224.48,-137.38"/>
<polygon fill="midnightblue" stroke="midnightblue" points="226.27,-134.36 216.02,-131.66 222.35,-140.16 226.27,-134.36"/>
</g>
<!-- Node9 -->
<g id="node9" class="node">
<title>Node9</title>
<g id="a_node9"><a xlink:href="box_8hpp.html" target="_top" xlink:title=" ">
<polygon fill="white" stroke="black" points="333.22,-112.5 333.22,-131.5 389.22,-131.5 389.22,-112.5 333.22,-112.5"/>
<text text-anchor="middle" x="361.22" y="-119.5" font-family="Helvetica,sans-Serif" font-size="10.00">box.hpp</text>
</a>
</g>
</g>
<!-- Node8&#45;&gt;Node9 -->
<g id="edge9" class="edge">
<title>Node8&#45;&gt;Node9</title>
<path fill="none" stroke="midnightblue" d="M433.18,-173.98C419.71,-164.43 397.65,-148.81 381.5,-137.37"/>
<polygon fill="midnightblue" stroke="midnightblue" points="383.42,-134.43 373.23,-131.51 379.37,-140.15 383.42,-134.43"/>
</g>
<!-- Node12 -->
<g id="node12" class="node">
<title>Node12</title>
<g id="a_node12"><a xlink:title=" ">
<polygon fill="white" stroke="#bfbfbf" points="407.72,-112.5 407.72,-131.5 472.72,-131.5 472.72,-112.5 407.72,-112.5"/>
<text text-anchor="middle" x="440.22" y="-119.5" font-family="Helvetica,sans-Serif" font-size="10.00">functional</text>
</a>
</g>
</g>
<!-- Node8&#45;&gt;Node12 -->
<g id="edge12" class="edge">
<title>Node8&#45;&gt;Node12</title>
<path fill="none" stroke="midnightblue" d="M444.5,-173.98C443.8,-165.58 442.7,-152.48 441.79,-141.66"/>
<polygon fill="midnightblue" stroke="midnightblue" points="445.26,-141.18 440.93,-131.51 438.28,-141.77 445.26,-141.18"/>
</g>
<!-- Node13 -->
<g id="node13" class="node">
<title>Node13</title>
<g id="a_node13"><a xlink:title=" ">
<polygon fill="white" stroke="#bfbfbf" points="491.22,-112.5 491.22,-131.5 549.22,-131.5 549.22,-112.5 491.22,-112.5"/>
<text text-anchor="middle" x="520.22" y="-119.5" font-family="Helvetica,sans-Serif" font-size="10.00">memory</text>
</a>
</g>
</g>
<!-- Node8&#45;&gt;Node13 -->
<g id="edge13" class="edge">
<title>Node8&#45;&gt;Node13</title>
<path fill="none" stroke="midnightblue" d="M455.97,-173.98C467.77,-164.61 486.96,-149.38 501.3,-138.01"/>
<polygon fill="midnightblue" stroke="midnightblue" points="503.84,-140.47 509.49,-131.51 499.48,-134.98 503.84,-140.47"/>
</g>
<!-- Node14 -->
<g id="node14" class="node">
<title>Node14</title>
<g id="a_node14"><a xlink:title=" ">
<polygon fill="white" stroke="#bfbfbf" points="567.72,-112.5 567.72,-131.5 636.72,-131.5 636.72,-112.5 567.72,-112.5"/>
<text text-anchor="middle" x="602.22" y="-119.5" font-family="Helvetica,sans-Serif" font-size="10.00">type_traits</text>
</a>
</g>
</g>
<!-- Node8&#45;&gt;Node14 -->
<g id="edge14" class="edge">
<title>Node8&#45;&gt;Node14</title>
<path fill="none" stroke="midnightblue" d="M467.71,-173.98C494.53,-163.81 539.53,-146.76 570.03,-135.2"/>
<polygon fill="midnightblue" stroke="midnightblue" points="571.66,-138.33 579.77,-131.51 569.18,-131.78 571.66,-138.33"/>
</g>
<!-- Node10 -->
<g id="node10" class="node">
<title>Node10</title>
<g id="a_node10"><a xlink:href="vec_8hpp.html" target="_top" xlink:title=" ">
<polygon fill="white" stroke="black" points="333.72,-56.5 333.72,-75.5 388.72,-75.5 388.72,-56.5 333.72,-56.5"/>
<text text-anchor="middle" x="361.22" y="-63.5" font-family="Helvetica,sans-Serif" font-size="10.00">vec.hpp</text>
</a>
</g>
</g>
<!-- Node9&#45;&gt;Node10 -->
<g id="edge10" class="edge">
<title>Node9&#45;&gt;Node10</title>
<path fill="none" stroke="midnightblue" d="M361.22,-112.08C361.22,-105.01 361.22,-94.86 361.22,-85.99"/>
<polygon fill="midnightblue" stroke="midnightblue" points="364.72,-85.75 361.22,-75.75 357.72,-85.75 364.72,-85.75"/>
</g>
<!-- Node11 -->
<g id="node11" class="node">
<title>Node11</title>
<g id="a_node11"><a xlink:title=" ">
<polygon fill="white" stroke="#bfbfbf" points="326.72,-0.5 326.72,-19.5 395.72,-19.5 395.72,-0.5 326.72,-0.5"/>
<text text-anchor="middle" x="361.22" y="-7.5" font-family="Helvetica,sans-Serif" font-size="10.00">Eigen/Core</text>
</a>
</g>
</g>
<!-- Node10&#45;&gt;Node11 -->
<g id="edge11" class="edge">
<title>Node10&#45;&gt;Node11</title>
<path fill="none" stroke="midnightblue" d="M361.22,-56.08C361.22,-49.01 361.22,-38.86 361.22,-29.99"/>
<polygon fill="midnightblue" stroke="midnightblue" points="364.72,-29.75 361.22,-19.75 357.72,-29.75 364.72,-29.75"/>
</g>
<!-- Node16 -->
<g id="node16" class="node">
<title>Node16</title>
<g id="a_node16"><a xlink:title=" ">
<polygon fill="white" stroke="#bfbfbf" points="655.22,-112.5 655.22,-131.5 703.22,-131.5 703.22,-112.5 655.22,-112.5"/>
<text text-anchor="middle" x="679.22" y="-119.5" font-family="Helvetica,sans-Serif" font-size="10.00">iosfwd</text>
</a>
</g>
</g>
<!-- Node15&#45;&gt;Node16 -->
<g id="edge16" class="edge">
<title>Node15&#45;&gt;Node16</title>
<path fill="none" stroke="midnightblue" d="M632.96,-173.98C641.22,-164.87 654.5,-150.24 664.71,-138.98"/>
<polygon fill="midnightblue" stroke="midnightblue" points="667.37,-141.27 671.5,-131.51 662.19,-136.56 667.37,-141.27"/>
</g>
</g>
</svg>
