<?xml version="1.0" encoding="UTF-8" standalone="no"?>
<!DOCTYPE svg PUBLIC "-//W3C//DTD SVG 1.1//EN"
 "http://www.w3.org/Graphics/SVG/1.1/DTD/svg11.dtd">
<!-- Generated by graphviz version 2.43.0 (0)
 -->
<!-- Title: limited&#45;memory&#45;qr.hpp Pages: 1 -->
<svg width="418pt" height="252pt"
 viewBox="0.00 0.00 418.00 252.00" xmlns="http://www.w3.org/2000/svg" xmlns:xlink="http://www.w3.org/1999/xlink">
<g id="graph0" class="graph" transform="scale(1 1) rotate(0) translate(4 248)">
<title>limited&#45;memory&#45;qr.hpp</title>
<polygon fill="white" stroke="transparent" points="-4,4 -4,-248 414,-248 414,4 -4,4"/>
<!-- Node1 -->
<g id="node1" class="node">
<title>Node1</title>
<g id="a_node1"><a xlink:title=" ">
<polygon fill="#bfbfbf" stroke="black" points="82,-224.5 82,-243.5 212,-243.5 212,-224.5 82,-224.5"/>
<text text-anchor="middle" x="147" y="-231.5" font-family="Helvetica,sans-Serif" font-size="10.00">limited&#45;memory&#45;qr.hpp</text>
</a>
</g>
</g>
<!-- Node2 -->
<g id="node2" class="node">
<title>Node2</title>
<g id="a_node2"><a xlink:href="anderson-helpers_8hpp.html" target="_top" xlink:title=" ">
<polygon fill="white" stroke="black" points="86,-168.5 86,-187.5 208,-187.5 208,-168.5 86,-168.5"/>
<text text-anchor="middle" x="147" y="-175.5" font-family="Helvetica,sans-Serif" font-size="10.00">anderson&#45;helpers.hpp</text>
</a>
</g>
</g>
<!-- Node1&#45;&gt;Node2 -->
<g id="edge1" class="edge">
<title>Node1&#45;&gt;Node2</title>
<path fill="none" stroke="midnightblue" d="M147,-213.8C147,-204.91 147,-194.78 147,-187.75"/>
<polygon fill="midnightblue" stroke="midnightblue" points="143.5,-214.08 147,-224.08 150.5,-214.08 143.5,-214.08"/>
</g>
<!-- Node3 -->
<g id="node3" class="node">
<title>Node3</title>
<g id="a_node3"><a xlink:href="anderson-acceleration_8hpp.html" target="_top" xlink:title=" ">
<polygon fill="white" stroke="black" points="0,-112.5 0,-131.5 146,-131.5 146,-112.5 0,-112.5"/>
<text text-anchor="middle" x="73" y="-119.5" font-family="Helvetica,sans-Serif" font-size="10.00">anderson&#45;acceleration.hpp</text>
</a>
</g>
</g>
<!-- Node2&#45;&gt;Node3 -->
<g id="edge2" class="edge">
<title>Node2&#45;&gt;Node3</title>
<path fill="none" stroke="midnightblue" d="M126.97,-162.38C113.59,-152.62 96.44,-140.11 85.11,-131.83"/>
<polygon fill="midnightblue" stroke="midnightblue" points="124.97,-165.26 135.11,-168.32 129.1,-159.6 124.97,-165.26"/>
</g>
<!-- Node4 -->
<g id="node4" class="node">
<title>Node4</title>
<g id="a_node4"><a xlink:href="guarded-aa-pga_8hpp.html" target="_top" xlink:title=" ">
<polygon fill="white" stroke="black" points="164.5,-112.5 164.5,-131.5 279.5,-131.5 279.5,-112.5 164.5,-112.5"/>
<text text-anchor="middle" x="222" y="-119.5" font-family="Helvetica,sans-Serif" font-size="10.00">guarded&#45;aa&#45;pga.hpp</text>
</a>
</g>
</g>
<!-- Node2&#45;&gt;Node4 -->
<g id="edge3" class="edge">
<title>Node2&#45;&gt;Node4</title>
<path fill="none" stroke="midnightblue" d="M167.31,-162.38C180.86,-152.62 198.24,-140.11 209.73,-131.83"/>
<polygon fill="midnightblue" stroke="midnightblue" points="165.12,-159.64 159.05,-168.32 169.21,-165.32 165.12,-159.64"/>
</g>
<!-- Node5 -->
<g id="node5" class="node">
<title>Node5</title>
<g id="a_node5"><a xlink:href="kwargs-to-struct_8hpp.html" target="_top" xlink:title="This file defines mappings from Python dicts (kwargs) to simple parameter structs.">
<polygon fill="white" stroke="black" points="76,-56.5 76,-75.5 194,-75.5 194,-56.5 76,-56.5"/>
<text text-anchor="middle" x="135" y="-63.5" font-family="Helvetica,sans-Serif" font-size="10.00">kwargs&#45;to&#45;struct.hpp</text>
</a>
</g>
</g>
<!-- Node4&#45;&gt;Node5 -->
<g id="edge4" class="edge">
<title>Node4&#45;&gt;Node5</title>
<path fill="none" stroke="midnightblue" d="M199.28,-106.9C183.33,-97 162.5,-84.07 148.94,-75.65"/>
<polygon fill="midnightblue" stroke="midnightblue" points="197.68,-110.02 208.02,-112.32 201.37,-104.08 197.68,-110.02"/>
</g>
<!-- Node6 -->
<g id="node6" class="node">
<title>Node6</title>
<g id="a_node6"><a xlink:href="panocpy_8cpp.html" target="_top" xlink:title="This file defines all Python bindings.">
<polygon fill="white" stroke="black" points="183.5,-0.5 183.5,-19.5 260.5,-19.5 260.5,-0.5 183.5,-0.5"/>
<text text-anchor="middle" x="222" y="-7.5" font-family="Helvetica,sans-Serif" font-size="10.00">panocpy.cpp</text>
</a>
</g>
</g>
<!-- Node4&#45;&gt;Node6 -->
<g id="edge6" class="edge">
<title>Node4&#45;&gt;Node6</title>
<path fill="none" stroke="midnightblue" d="M222,-102.35C222,-78.25 222,-37.31 222,-19.59"/>
<polygon fill="midnightblue" stroke="midnightblue" points="218.5,-102.37 222,-112.37 225.5,-102.37 218.5,-102.37"/>
</g>
<!-- Node7 -->
<g id="node7" class="node">
<title>Node7</title>
<g id="a_node7"><a xlink:href="polymorphic-inner-solver_8hpp.html" target="_top" xlink:title=" ">
<polygon fill="white" stroke="black" points="250,-56.5 250,-75.5 410,-75.5 410,-56.5 250,-56.5"/>
<text text-anchor="middle" x="330" y="-63.5" font-family="Helvetica,sans-Serif" font-size="10.00">polymorphic&#45;inner&#45;solver.hpp</text>
</a>
</g>
</g>
<!-- Node4&#45;&gt;Node7 -->
<g id="edge7" class="edge">
<title>Node4&#45;&gt;Node7</title>
<path fill="none" stroke="midnightblue" d="M248.55,-107.73C268.55,-97.73 295.39,-84.31 312.69,-75.65"/>
<polygon fill="midnightblue" stroke="midnightblue" points="246.73,-104.72 239.35,-112.32 249.86,-110.98 246.73,-104.72"/>
</g>
<!-- Node5&#45;&gt;Node6 -->
<g id="edge5" class="edge">
<title>Node5&#45;&gt;Node6</title>
<path fill="none" stroke="midnightblue" d="M157.72,-50.9C173.67,-41 194.5,-28.07 208.06,-19.65"/>
<polygon fill="midnightblue" stroke="midnightblue" points="155.63,-48.08 148.98,-56.32 159.32,-54.02 155.63,-48.08"/>
</g>
<!-- Node7&#45;&gt;Node6 -->
<g id="edge8" class="edge">
<title>Node7&#45;&gt;Node6</title>
<path fill="none" stroke="midnightblue" d="M303.45,-51.73C283.45,-41.73 256.61,-28.31 239.31,-19.65"/>
<polygon fill="midnightblue" stroke="midnightblue" points="302.14,-54.98 312.65,-56.32 305.27,-48.72 302.14,-54.98"/>
</g>
</g>
</svg>
