<?xml version="1.0" encoding="UTF-8" standalone="no"?>
<!DOCTYPE svg PUBLIC "-//W3C//DTD SVG 1.1//EN"
 "http://www.w3.org/Graphics/SVG/1.1/DTD/svg11.dtd">
<!-- Generated by graphviz version 2.43.0 (0)
 -->
<!-- Title: panoc_impl Pages: 1 -->
<svg width="817pt" height="427pt"
 viewBox="0.00 0.00 817.00 426.50" xmlns="http://www.w3.org/2000/svg" xmlns:xlink="http://www.w3.org/1999/xlink">
<g id="graph0" class="graph" transform="scale(1 1) rotate(0) translate(4 422.5)">
<title>panoc_impl</title>
<polygon fill="white" stroke="transparent" points="-4,4 -4,-422.5 813,-422.5 813,4 -4,4"/>
<!-- Node1 -->
<g id="node1" class="node">
<title>Node1</title>
<g id="a_node1"><a xlink:title=" ">
<polygon fill="#bfbfbf" stroke="black" points="0,-210.5 0,-229.5 73,-229.5 73,-210.5 0,-210.5"/>
<text text-anchor="middle" x="36.5" y="-217.5" font-family="Helvetica,sans-Serif" font-size="10.00">panoc_impl</text>
</a>
</g>
</g>
<!-- Node2 -->
<g id="node2" class="node">
<title>Node2</title>
<g id="a_node2"><a xlink:href="classpa_1_1vec__allocator.html#afa36e1f076dd1627a83324e717038836" target="_top" xlink:title=" ">
<polygon fill="white" stroke="black" points="125,-377 125,-407 231,-407 231,-377 125,-377"/>
<text text-anchor="start" x="133" y="-395" font-family="Helvetica,sans-Serif" font-size="10.00">pa::vec_allocator::</text>
<text text-anchor="middle" x="178" y="-384" font-family="Helvetica,sans-Serif" font-size="10.00">alloc</text>
</a>
</g>
</g>
<!-- Node1&#45;&gt;Node2 -->
<g id="edge1" class="edge">
<title>Node1&#45;&gt;Node2</title>
<path fill="none" stroke="midnightblue" d="M40.19,-229.63C47.45,-254.04 69.61,-319.17 109,-358 114.36,-363.29 120.72,-367.91 127.35,-371.89"/>
<polygon fill="midnightblue" stroke="midnightblue" points="126.05,-375.18 136.5,-376.94 129.43,-369.05 126.05,-375.18"/>
</g>
<!-- Node5 -->
<g id="node5" class="node">
<title>Node5</title>
<g id="a_node5"><a xlink:href="namespacepa_1_1detail.html#a886972efd9fe413c62efea5eb2cdd0e9" target="_top" xlink:title=" ">
<polygon fill="white" stroke="black" points="120,-318 120,-348 236,-348 236,-318 120,-318"/>
<text text-anchor="start" x="128" y="-336" font-family="Helvetica,sans-Serif" font-size="10.00">pa::detail::calc_error</text>
<text text-anchor="middle" x="178" y="-325" font-family="Helvetica,sans-Serif" font-size="10.00">_stop_crit</text>
</a>
</g>
</g>
<!-- Node1&#45;&gt;Node5 -->
<g id="edge4" class="edge">
<title>Node1&#45;&gt;Node5</title>
<path fill="none" stroke="midnightblue" d="M43.69,-229.68C54.91,-246.56 80.12,-281.6 109,-303 114.1,-306.78 119.76,-310.22 125.56,-313.3"/>
<polygon fill="midnightblue" stroke="midnightblue" points="124.24,-316.55 134.75,-317.86 127.35,-310.28 124.24,-316.55"/>
</g>
<!-- Node8 -->
<g id="node8" class="node">
<title>Node8</title>
<g id="a_node8"><a xlink:href="namespacepa_1_1detail.html#ac32d0e6b012b801731e55225b7505fa9" target="_top" xlink:title=" ">
<polygon fill="white" stroke="black" points="294.5,-273.5 294.5,-292.5 393.5,-292.5 393.5,-273.5 294.5,-273.5"/>
<text text-anchor="middle" x="344" y="-280.5" font-family="Helvetica,sans-Serif" font-size="10.00">pa::detail::calc_x̂</text>
</a>
</g>
</g>
<!-- Node1&#45;&gt;Node8 -->
<g id="edge7" class="edge">
<title>Node1&#45;&gt;Node8</title>
<path fill="none" stroke="midnightblue" d="M47.59,-229.87C60.56,-241.84 84.38,-261.49 109,-270 166.26,-289.8 236.08,-290.96 284.47,-288.47"/>
<polygon fill="midnightblue" stroke="midnightblue" points="284.68,-291.97 294.46,-287.89 284.28,-284.98 284.68,-291.97"/>
</g>
<!-- Node9 -->
<g id="node9" class="node">
<title>Node9</title>
<g id="a_node9"><a xlink:href="namespacepa_1_1detail.html#aa916ebec71616d1d0379aaaaca02fc19" target="_top" xlink:title="Check all stop conditions (required tolerance reached, out of time, maximum number of iterations exce...">
<polygon fill="white" stroke="black" points="121,-181 121,-211 235,-211 235,-181 121,-181"/>
<text text-anchor="start" x="129" y="-199" font-family="Helvetica,sans-Serif" font-size="10.00">pa::detail::check_all</text>
<text text-anchor="middle" x="178" y="-188" font-family="Helvetica,sans-Serif" font-size="10.00">_stop_conditions</text>
</a>
</g>
</g>
<!-- Node1&#45;&gt;Node9 -->
<g id="edge9" class="edge">
<title>Node1&#45;&gt;Node9</title>
<path fill="none" stroke="midnightblue" d="M73.06,-213.88C84.64,-211.89 97.89,-209.61 110.96,-207.36"/>
<polygon fill="midnightblue" stroke="midnightblue" points="111.64,-210.8 120.9,-205.65 110.45,-203.9 111.64,-210.8"/>
</g>
<!-- Node11 -->
<g id="node11" class="node">
<title>Node11</title>
<g id="a_node11"><a xlink:href="namespacepa_1_1detail.html#ac7d4fa127500b38a8cec94984c4f598d" target="_top" xlink:title="Increase the estimate of the Lipschitz constant of the objective gradient and decrease the step size ...">
<polygon fill="white" stroke="black" points="124.5,-230 124.5,-260 231.5,-260 231.5,-230 124.5,-230"/>
<text text-anchor="start" x="132.5" y="-248" font-family="Helvetica,sans-Serif" font-size="10.00">pa::detail::descent</text>
<text text-anchor="middle" x="178" y="-237" font-family="Helvetica,sans-Serif" font-size="10.00">_lemma</text>
</a>
</g>
</g>
<!-- Node1&#45;&gt;Node11 -->
<g id="edge11" class="edge">
<title>Node1&#45;&gt;Node11</title>
<path fill="none" stroke="midnightblue" d="M73.06,-226.37C85.6,-228.62 100.09,-231.22 114.2,-233.75"/>
<polygon fill="midnightblue" stroke="midnightblue" points="113.92,-237.25 124.38,-235.57 115.15,-230.36 113.92,-237.25"/>
</g>
<!-- Node15 -->
<g id="node15" class="node">
<title>Node15</title>
<g id="a_node15"><a xlink:href="classpa_1_1vec__allocator.html#a455bb0797853d67addd58875c671acef" target="_top" xlink:title=" ">
<polygon fill="white" stroke="black" points="115.5,-142.5 115.5,-161.5 240.5,-161.5 240.5,-142.5 115.5,-142.5"/>
<text text-anchor="middle" x="178" y="-149.5" font-family="Helvetica,sans-Serif" font-size="10.00">pa::vec_allocator::free</text>
</a>
</g>
</g>
<!-- Node1&#45;&gt;Node15 -->
<g id="edge16" class="edge">
<title>Node1&#45;&gt;Node15</title>
<path fill="none" stroke="midnightblue" d="M49.47,-210.28C63.14,-199.59 86.53,-182.54 109,-172 114.78,-169.29 121,-166.86 127.26,-164.7"/>
<polygon fill="midnightblue" stroke="midnightblue" points="128.61,-167.94 137.05,-161.54 126.46,-161.28 128.61,-167.94"/>
</g>
<!-- Node18 -->
<g id="node18" class="node">
<title>Node18</title>
<g id="a_node18"><a xlink:href="namespacepa_1_1detail.html#a92963cadf7f44fcf9f3ab6bddff08796" target="_top" xlink:title="Estimate the Lipschitz constant of the gradient &#160;using finite differences.">
<polygon fill="white" stroke="black" points="122.5,-66 122.5,-96 233.5,-96 233.5,-66 122.5,-66"/>
<text text-anchor="start" x="130.5" y="-84" font-family="Helvetica,sans-Serif" font-size="10.00">pa::detail::initial</text>
<text text-anchor="middle" x="178" y="-73" font-family="Helvetica,sans-Serif" font-size="10.00">_lipschitz_estimate</text>
</a>
</g>
</g>
<!-- Node1&#45;&gt;Node18 -->
<g id="edge19" class="edge">
<title>Node1&#45;&gt;Node18</title>
<path fill="none" stroke="midnightblue" d="M44.36,-210.25C56.39,-193.48 82.56,-158.53 109,-133 120.47,-121.93 134.26,-111.01 146.42,-102.05"/>
<polygon fill="midnightblue" stroke="midnightblue" points="148.47,-104.89 154.53,-96.19 144.37,-99.21 148.47,-104.89"/>
</g>
<!-- Node22 -->
<g id="node22" class="node">
<title>Node22</title>
<g id="a_node22"><a xlink:href="namespacepa_1_1detail.html#aea72ee13ae482d948d1b994deb457578" target="_top" xlink:title=" ">
<polygon fill="white" stroke="black" points="109,-27.5 109,-46.5 247,-46.5 247,-27.5 109,-27.5"/>
<text text-anchor="middle" x="178" y="-34.5" font-family="Helvetica,sans-Serif" font-size="10.00">pa::detail::print_progress</text>
</a>
</g>
</g>
<!-- Node1&#45;&gt;Node22 -->
<g id="edge25" class="edge">
<title>Node1&#45;&gt;Node22</title>
<path fill="none" stroke="midnightblue" d="M38.83,-210.16C43.2,-181.74 59.79,-98.82 109,-56 110.94,-54.31 113.02,-52.77 115.21,-51.37"/>
<polygon fill="midnightblue" stroke="midnightblue" points="116.92,-54.42 124.07,-46.6 113.6,-48.26 116.92,-54.42"/>
</g>
<!-- Node3 -->
<g id="node3" class="node">
<title>Node3</title>
<g id="a_node3"><a xlink:href="classpa_1_1vec__allocator.html#ac6f0ae398f6cbe67f4b845dcede0874a" target="_top" xlink:title=" ">
<polygon fill="white" stroke="black" points="291,-388 291,-418 397,-418 397,-388 291,-388"/>
<text text-anchor="start" x="299" y="-406" font-family="Helvetica,sans-Serif" font-size="10.00">pa::vec_allocator::</text>
<text text-anchor="middle" x="344" y="-395" font-family="Helvetica,sans-Serif" font-size="10.00">used_space</text>
</a>
</g>
</g>
<!-- Node2&#45;&gt;Node3 -->
<g id="edge2" class="edge">
<title>Node2&#45;&gt;Node3</title>
<path fill="none" stroke="midnightblue" d="M231.34,-395.51C247.1,-396.57 264.55,-397.74 280.88,-398.83"/>
<polygon fill="midnightblue" stroke="midnightblue" points="280.66,-402.33 290.87,-399.5 281.13,-395.34 280.66,-402.33"/>
</g>
<!-- Node4 -->
<g id="node4" class="node">
<title>Node4</title>
<g id="a_node4"><a xlink:href="classpa_1_1vec__allocator.html#a259cb5a711406a8c3e5d937eb9350cca" target="_top" xlink:title=" ">
<polygon fill="white" stroke="black" points="442,-393.5 442,-412.5 567,-412.5 567,-393.5 442,-393.5"/>
<text text-anchor="middle" x="504.5" y="-400.5" font-family="Helvetica,sans-Serif" font-size="10.00">pa::vec_allocator::size</text>
</a>
</g>
</g>
<!-- Node3&#45;&gt;Node4 -->
<g id="edge3" class="edge">
<title>Node3&#45;&gt;Node4</title>
<path fill="none" stroke="midnightblue" d="M397.34,-403C408.36,-403 420.16,-403 431.75,-403"/>
<polygon fill="midnightblue" stroke="midnightblue" points="431.86,-406.5 441.86,-403 431.86,-399.5 431.86,-406.5"/>
</g>
<!-- Node6 -->
<g id="node6" class="node">
<title>Node6</title>
<g id="a_node6"><a xlink:href="namespacepa_1_1vec__util.html#af8e650634ec3d7b82a78a4d313632ed0" target="_top" xlink:title="Get the maximum or infinity&#45;norm of the given vector.">
<polygon fill="white" stroke="black" points="283,-349.5 283,-368.5 405,-368.5 405,-349.5 283,-349.5"/>
<text text-anchor="middle" x="344" y="-356.5" font-family="Helvetica,sans-Serif" font-size="10.00">pa::vec_util::norm_inf</text>
</a>
</g>
</g>
<!-- Node5&#45;&gt;Node6 -->
<g id="edge5" class="edge">
<title>Node5&#45;&gt;Node6</title>
<path fill="none" stroke="midnightblue" d="M236.36,-342.09C248.12,-343.96 260.63,-345.94 272.79,-347.87"/>
<polygon fill="midnightblue" stroke="midnightblue" points="272.46,-351.36 282.89,-349.47 273.56,-344.45 272.46,-351.36"/>
</g>
<!-- Node7 -->
<g id="node7" class="node">
<title>Node7</title>
<g id="a_node7"><a xlink:href="namespacepa_1_1detail.html#a8ed4d487878856942843707b5a131b85" target="_top" xlink:title="Projected gradient step.">
<polygon fill="white" stroke="black" points="447.5,-287 447.5,-317 561.5,-317 561.5,-287 447.5,-287"/>
<text text-anchor="start" x="455.5" y="-305" font-family="Helvetica,sans-Serif" font-size="10.00">pa::detail::projected</text>
<text text-anchor="middle" x="504.5" y="-294" font-family="Helvetica,sans-Serif" font-size="10.00">_gradient_step</text>
</a>
</g>
</g>
<!-- Node5&#45;&gt;Node7 -->
<g id="edge6" class="edge">
<title>Node5&#45;&gt;Node7</title>
<path fill="none" stroke="midnightblue" d="M236.27,-327.53C292.51,-322.16 378.25,-313.97 437.37,-308.32"/>
<polygon fill="midnightblue" stroke="midnightblue" points="437.73,-311.8 447.35,-307.36 437.06,-304.83 437.73,-311.8"/>
</g>
<!-- Node8&#45;&gt;Node7 -->
<g id="edge8" class="edge">
<title>Node8&#45;&gt;Node7</title>
<path fill="none" stroke="midnightblue" d="M393.85,-288.86C407.59,-290.5 422.78,-292.32 437.36,-294.07"/>
<polygon fill="midnightblue" stroke="midnightblue" points="436.98,-297.55 447.32,-295.27 437.81,-290.6 436.98,-297.55"/>
</g>
<!-- Node10 -->
<g id="node10" class="node">
<title>Node10</title>
<g id="a_node10"><a xlink:href="classpa_1_1AtomicStopSignal.html#aa0097deccc19b49f8ab5344d8d6d5cf6" target="_top" xlink:title=" ">
<polygon fill="white" stroke="black" points="283.5,-186 283.5,-216 404.5,-216 404.5,-186 283.5,-186"/>
<text text-anchor="start" x="291.5" y="-204" font-family="Helvetica,sans-Serif" font-size="10.00">pa::AtomicStopSignal</text>
<text text-anchor="middle" x="344" y="-193" font-family="Helvetica,sans-Serif" font-size="10.00">::stop_requested</text>
</a>
</g>
</g>
<!-- Node9&#45;&gt;Node10 -->
<g id="edge10" class="edge">
<title>Node9&#45;&gt;Node10</title>
<path fill="none" stroke="midnightblue" d="M235.44,-197.72C247.65,-198.09 260.7,-198.49 273.35,-198.88"/>
<polygon fill="midnightblue" stroke="midnightblue" points="273.28,-202.38 283.38,-199.18 273.49,-195.38 273.28,-202.38"/>
</g>
<!-- Node11&#45;&gt;Node8 -->
<g id="edge12" class="edge">
<title>Node11&#45;&gt;Node8</title>
<path fill="none" stroke="midnightblue" d="M231.79,-257.23C251,-261.68 272.67,-266.7 291.74,-271.12"/>
<polygon fill="midnightblue" stroke="midnightblue" points="291.21,-274.59 301.74,-273.44 292.79,-267.77 291.21,-274.59"/>
</g>
<!-- Node12 -->
<g id="node12" class="node">
<title>Node12</title>
<g id="a_node12"><a xlink:href="namespacepa_1_1detail.html#a82a03662e6ce5bcfd57ee2df719aec21" target="_top" xlink:title="Calculate both ψ(x) and the vector ŷ that can later be used to compute ∇ψ.">
<polygon fill="white" stroke="black" points="449,-88.5 449,-107.5 560,-107.5 560,-88.5 449,-88.5"/>
<text text-anchor="middle" x="504.5" y="-95.5" font-family="Helvetica,sans-Serif" font-size="10.00">pa::detail::calc_ψ_ŷ</text>
</a>
</g>
</g>
<!-- Node11&#45;&gt;Node12 -->
<g id="edge13" class="edge">
<title>Node11&#45;&gt;Node12</title>
<path fill="none" stroke="midnightblue" d="M231.76,-252.11C279.87,-256.03 351.42,-255.23 405,-226 450.36,-201.26 481.45,-145.81 495.32,-116.69"/>
<polygon fill="midnightblue" stroke="midnightblue" points="498.51,-118.12 499.5,-107.58 492.15,-115.2 498.51,-118.12"/>
</g>
<!-- Node13 -->
<g id="node13" class="node">
<title>Node13</title>
<g id="a_node13"><a xlink:href="namespacepa.html#aee505a26e46aa4c0ce09d0fed72f0dac" target="_top" xlink:title="Get the difference between the given vector and its projection.">
<polygon fill="white" stroke="black" points="604,-44.5 604,-63.5 723,-63.5 723,-44.5 604,-44.5"/>
<text text-anchor="middle" x="663.5" y="-51.5" font-family="Helvetica,sans-Serif" font-size="10.00">projecting_difference</text>
</a>
</g>
</g>
<!-- Node12&#45;&gt;Node13 -->
<g id="edge14" class="edge">
<title>Node12&#45;&gt;Node13</title>
<path fill="none" stroke="midnightblue" d="M539.57,-88.45C562.81,-81.94 593.82,-73.25 618.87,-66.23"/>
<polygon fill="midnightblue" stroke="midnightblue" points="619.82,-69.6 628.5,-63.53 617.93,-62.86 619.82,-69.6"/>
</g>
<!-- Node14 -->
<g id="node14" class="node">
<title>Node14</title>
<g id="a_node14"><a xlink:href="namespacepa.html#a5414901c2fb62f1fd47857642964cc71" target="_top" xlink:title="Project a vector onto a box.">
<polygon fill="white" stroke="black" points="759,-44.5 759,-63.5 809,-63.5 809,-44.5 759,-44.5"/>
<text text-anchor="middle" x="784" y="-51.5" font-family="Helvetica,sans-Serif" font-size="10.00">project</text>
</a>
</g>
</g>
<!-- Node13&#45;&gt;Node14 -->
<g id="edge15" class="edge">
<title>Node13&#45;&gt;Node14</title>
<path fill="none" stroke="midnightblue" d="M723.06,-54C731.89,-54 740.75,-54 748.85,-54"/>
<polygon fill="midnightblue" stroke="midnightblue" points="748.98,-57.5 758.98,-54 748.98,-50.5 748.98,-57.5"/>
</g>
<!-- Node16 -->
<g id="node16" class="node">
<title>Node16</title>
<g id="a_node16"><a xlink:href="structpa_1_1vec__allocator_1_1findstack.html#ad950587c89b4306f927b08b5e5cb7e89" target="_top" xlink:title=" ">
<polygon fill="white" stroke="black" points="291,-137 291,-167 397,-167 397,-137 291,-137"/>
<text text-anchor="start" x="299" y="-155" font-family="Helvetica,sans-Serif" font-size="10.00">pa::vec_allocator::</text>
<text text-anchor="middle" x="344" y="-144" font-family="Helvetica,sans-Serif" font-size="10.00">findstack::begin</text>
</a>
</g>
</g>
<!-- Node15&#45;&gt;Node16 -->
<g id="edge17" class="edge">
<title>Node15&#45;&gt;Node16</title>
<path fill="none" stroke="midnightblue" d="M240.53,-152C253.59,-152 267.38,-152 280.47,-152"/>
<polygon fill="midnightblue" stroke="midnightblue" points="280.79,-155.5 290.79,-152 280.79,-148.5 280.79,-155.5"/>
</g>
<!-- Node17 -->
<g id="node17" class="node">
<title>Node17</title>
<g id="a_node17"><a xlink:href="structpa_1_1vec__allocator_1_1findstack.html#a7727305d5e1ec66a181e22c43af9a581" target="_top" xlink:title=" ">
<polygon fill="white" stroke="black" points="291,-88 291,-118 397,-118 397,-88 291,-88"/>
<text text-anchor="start" x="299" y="-106" font-family="Helvetica,sans-Serif" font-size="10.00">pa::vec_allocator::</text>
<text text-anchor="middle" x="344" y="-95" font-family="Helvetica,sans-Serif" font-size="10.00">findstack::end</text>
</a>
</g>
</g>
<!-- Node15&#45;&gt;Node17 -->
<g id="edge18" class="edge">
<title>Node15&#45;&gt;Node17</title>
<path fill="none" stroke="midnightblue" d="M211.01,-142.44C231.41,-136.34 258.49,-128.25 282.8,-120.99"/>
<polygon fill="midnightblue" stroke="midnightblue" points="284.09,-124.25 292.67,-118.04 282.09,-117.55 284.09,-124.25"/>
</g>
<!-- Node19 -->
<g id="node19" class="node">
<title>Node19</title>
<g id="a_node19"><a xlink:href="namespacepa_1_1detail.html#a6572cf745448d2b40e9d5e977d17d5e2" target="_top" xlink:title="Calculate the gradient ∇ψ(x).">
<polygon fill="white" stroke="black" points="441,-0.5 441,-19.5 568,-19.5 568,-0.5 441,-0.5"/>
<text text-anchor="middle" x="504.5" y="-7.5" font-family="Helvetica,sans-Serif" font-size="10.00">pa::detail::calc_grad_ψ</text>
</a>
</g>
</g>
<!-- Node18&#45;&gt;Node19 -->
<g id="edge20" class="edge">
<title>Node18&#45;&gt;Node19</title>
<path fill="none" stroke="midnightblue" d="M225.52,-65.96C232.87,-63 240.26,-59.66 247,-56 264.57,-46.45 264.32,-36.13 283,-29 329.96,-11.07 386.5,-6.5 430.57,-6.33"/>
<polygon fill="midnightblue" stroke="midnightblue" points="430.62,-9.83 440.63,-6.36 430.64,-2.83 430.62,-9.83"/>
</g>
<!-- Node20 -->
<g id="node20" class="node">
<title>Node20</title>
<g id="a_node20"><a xlink:href="namespacepa_1_1detail.html#aa986daa1d5f0dfdbc75c143d2aae2919" target="_top" xlink:title="Calculate both ψ(x) and its gradient ∇ψ(x).">
<polygon fill="white" stroke="black" points="294,-39 294,-69 394,-69 394,-39 294,-39"/>
<text text-anchor="start" x="302" y="-57" font-family="Helvetica,sans-Serif" font-size="10.00">pa::detail::calc_ψ</text>
<text text-anchor="middle" x="344" y="-46" font-family="Helvetica,sans-Serif" font-size="10.00">_grad_ψ</text>
</a>
</g>
</g>
<!-- Node18&#45;&gt;Node20 -->
<g id="edge22" class="edge">
<title>Node18&#45;&gt;Node20</title>
<path fill="none" stroke="midnightblue" d="M233.61,-72.01C249.74,-69.35 267.46,-66.44 283.86,-63.74"/>
<polygon fill="midnightblue" stroke="midnightblue" points="284.57,-67.17 293.87,-62.09 283.44,-60.26 284.57,-67.17"/>
</g>
<!-- Node19&#45;&gt;Node13 -->
<g id="edge21" class="edge">
<title>Node19&#45;&gt;Node13</title>
<path fill="none" stroke="midnightblue" d="M539.57,-19.55C562.81,-26.06 593.82,-34.75 618.87,-41.77"/>
<polygon fill="midnightblue" stroke="midnightblue" points="617.93,-45.14 628.5,-44.47 619.82,-38.4 617.93,-45.14"/>
</g>
<!-- Node20&#45;&gt;Node12 -->
<g id="edge24" class="edge">
<title>Node20&#45;&gt;Node12</title>
<path fill="none" stroke="midnightblue" d="M394.28,-67.68C414.96,-73.42 438.83,-80.05 458.97,-85.64"/>
<polygon fill="midnightblue" stroke="midnightblue" points="458.26,-89.07 468.83,-88.38 460.13,-82.33 458.26,-89.07"/>
</g>
<!-- Node21 -->
<g id="node21" class="node">
<title>Node21</title>
<g id="a_node21"><a xlink:href="namespacepa_1_1detail.html#a908a0589ddf8734417f5481395e197d2" target="_top" xlink:title="Calculate ∇ψ(x) using ŷ.">
<polygon fill="white" stroke="black" points="447,-39 447,-69 562,-69 562,-39 447,-39"/>
<text text-anchor="start" x="455" y="-57" font-family="Helvetica,sans-Serif" font-size="10.00">pa::detail::calc_grad</text>
<text text-anchor="middle" x="504.5" y="-46" font-family="Helvetica,sans-Serif" font-size="10.00">_ψ_from_ŷ</text>
</a>
</g>
</g>
<!-- Node20&#45;&gt;Node21 -->
<g id="edge23" class="edge">
<title>Node20&#45;&gt;Node21</title>
<path fill="none" stroke="midnightblue" d="M394.28,-54C407.66,-54 422.38,-54 436.56,-54"/>
<polygon fill="midnightblue" stroke="midnightblue" points="436.77,-57.5 446.77,-54 436.77,-50.5 436.77,-57.5"/>
</g>
</g>
</svg>
