<?xml version="1.0" encoding="UTF-8" standalone="no"?>
<!DOCTYPE svg PUBLIC "-//W3C//DTD SVG 1.1//EN"
 "http://www.w3.org/Graphics/SVG/1.1/DTD/svg11.dtd">
<!-- Generated by graphviz version 2.43.0 (0)
 -->
<!-- Title: panoc Pages: 1 -->
<svg width="932pt" height="477pt"
 viewBox="0.00 0.00 932.00 477.17" xmlns="http://www.w3.org/2000/svg" xmlns:xlink="http://www.w3.org/1999/xlink">
<g id="graph0" class="graph" transform="scale(1 1) rotate(0) translate(4 473.17)">
<title>panoc</title>
<polygon fill="white" stroke="transparent" points="-4,4 -4,-473.17 928,-473.17 928,4 -4,4"/>
<!-- Node1 -->
<g id="node1" class="node">
<title>Node1</title>
<g id="a_node1"><a xlink:title=" ">
<polygon fill="#bfbfbf" stroke="black" points="0,-274.5 0,-293.5 46,-293.5 46,-274.5 0,-274.5"/>
<text text-anchor="middle" x="23" y="-281.5" font-family="Helvetica,sans-Serif" font-size="10.00">panoc</text>
</a>
</g>
</g>
<!-- Node2 -->
<g id="node2" class="node">
<title>Node2</title>
<g id="a_node2"><a xlink:href="namespacepa.html#a2b97bf67604c439eca0a540664930d61" target="_top" xlink:title=" ">
<polygon fill="white" stroke="black" points="98.5,-274.5 98.5,-293.5 171.5,-293.5 171.5,-274.5 98.5,-274.5"/>
<text text-anchor="middle" x="135" y="-281.5" font-family="Helvetica,sans-Serif" font-size="10.00">panoc_impl</text>
</a>
</g>
</g>
<!-- Node1&#45;&gt;Node2 -->
<g id="edge1" class="edge">
<title>Node1&#45;&gt;Node2</title>
<path fill="none" stroke="midnightblue" d="M46.26,-284C58.28,-284 73.59,-284 88.04,-284"/>
<polygon fill="midnightblue" stroke="midnightblue" points="88.35,-287.5 98.35,-284 88.35,-280.5 88.35,-287.5"/>
</g>
<!-- Node5 -->
<g id="node5" class="node">
<title>Node5</title>
<g id="a_node5"><a xlink:href="classpa_1_1vec__allocator.html#a259cb5a711406a8c3e5d937eb9350cca" target="_top" xlink:title=" ">
<polygon fill="white" stroke="black" points="557,-427.5 557,-446.5 682,-446.5 682,-427.5 557,-427.5"/>
<text text-anchor="middle" x="619.5" y="-434.5" font-family="Helvetica,sans-Serif" font-size="10.00">pa::vec_allocator::size</text>
</a>
</g>
</g>
<!-- Node1&#45;&gt;Node5 -->
<g id="edge27" class="edge">
<title>Node1&#45;&gt;Node5</title>
<path fill="none" stroke="midnightblue" d="M31.8,-293.85C56.21,-323.79 134.88,-413.58 224,-445 342.56,-486.79 493.86,-464.56 570.04,-448.61"/>
<polygon fill="midnightblue" stroke="midnightblue" points="570.79,-452.03 579.84,-446.51 569.32,-445.19 570.79,-452.03"/>
</g>
<!-- Node24 -->
<g id="node24" class="node">
<title>Node24</title>
<g id="a_node24"><a xlink:href="classpa_1_1vec__allocator.html#a2e036dd8859f446200ade78fabcc9a6a" target="_top" xlink:title=" ">
<polygon fill="white" stroke="black" points="82,-225 82,-255 188,-255 188,-225 82,-225"/>
<text text-anchor="start" x="90" y="-243" font-family="Helvetica,sans-Serif" font-size="10.00">pa::vec_allocator::</text>
<text text-anchor="middle" x="135" y="-232" font-family="Helvetica,sans-Serif" font-size="10.00">vector_size</text>
</a>
</g>
</g>
<!-- Node1&#45;&gt;Node24 -->
<g id="edge28" class="edge">
<title>Node1&#45;&gt;Node24</title>
<path fill="none" stroke="midnightblue" d="M46.26,-275.1C57.89,-270.44 72.59,-264.56 86.62,-258.95"/>
<polygon fill="midnightblue" stroke="midnightblue" points="88.19,-262.09 96.17,-255.13 85.59,-255.6 88.19,-262.09"/>
</g>
<!-- Node3 -->
<g id="node3" class="node">
<title>Node3</title>
<g id="a_node3"><a xlink:href="classpa_1_1vec__allocator.html#afa36e1f076dd1627a83324e717038836" target="_top" xlink:title=" ">
<polygon fill="white" stroke="black" points="240,-367 240,-397 346,-397 346,-367 240,-367"/>
<text text-anchor="start" x="248" y="-385" font-family="Helvetica,sans-Serif" font-size="10.00">pa::vec_allocator::</text>
<text text-anchor="middle" x="293" y="-374" font-family="Helvetica,sans-Serif" font-size="10.00">alloc</text>
</a>
</g>
</g>
<!-- Node2&#45;&gt;Node3 -->
<g id="edge2" class="edge">
<title>Node2&#45;&gt;Node3</title>
<path fill="none" stroke="midnightblue" d="M145.4,-293.94C160.6,-309.52 192.11,-339.77 224,-358 226.88,-359.65 229.89,-361.21 232.98,-362.69"/>
<polygon fill="midnightblue" stroke="midnightblue" points="231.84,-366.01 242.4,-366.87 234.68,-359.61 231.84,-366.01"/>
</g>
<!-- Node6 -->
<g id="node6" class="node">
<title>Node6</title>
<g id="a_node6"><a xlink:href="namespacepa_1_1detail.html#a886972efd9fe413c62efea5eb2cdd0e9" target="_top" xlink:title=" ">
<polygon fill="white" stroke="black" points="235,-269 235,-299 351,-299 351,-269 235,-269"/>
<text text-anchor="start" x="243" y="-287" font-family="Helvetica,sans-Serif" font-size="10.00">pa::detail::calc_error</text>
<text text-anchor="middle" x="293" y="-276" font-family="Helvetica,sans-Serif" font-size="10.00">_stop_crit</text>
</a>
</g>
</g>
<!-- Node2&#45;&gt;Node6 -->
<g id="edge5" class="edge">
<title>Node2&#45;&gt;Node6</title>
<path fill="none" stroke="midnightblue" d="M171.79,-284C187.58,-284 206.66,-284 224.94,-284"/>
<polygon fill="midnightblue" stroke="midnightblue" points="224.98,-287.5 234.98,-284 224.98,-280.5 224.98,-287.5"/>
</g>
<!-- Node9 -->
<g id="node9" class="node">
<title>Node9</title>
<g id="a_node9"><a xlink:href="namespacepa_1_1detail.html#ac32d0e6b012b801731e55225b7505fa9" target="_top" xlink:title=" ">
<polygon fill="white" stroke="black" points="409.5,-224.5 409.5,-243.5 508.5,-243.5 508.5,-224.5 409.5,-224.5"/>
<text text-anchor="middle" x="459" y="-231.5" font-family="Helvetica,sans-Serif" font-size="10.00">pa::detail::calc_x̂</text>
</a>
</g>
</g>
<!-- Node2&#45;&gt;Node9 -->
<g id="edge8" class="edge">
<title>Node2&#45;&gt;Node9</title>
<path fill="none" stroke="midnightblue" d="M166.27,-274.49C183.12,-269.52 204.56,-263.71 224,-260 283.1,-248.73 351.6,-241.82 399.15,-237.99"/>
<polygon fill="midnightblue" stroke="midnightblue" points="399.57,-241.47 409.27,-237.19 399.03,-234.49 399.57,-241.47"/>
</g>
<!-- Node10 -->
<g id="node10" class="node">
<title>Node10</title>
<g id="a_node10"><a xlink:href="namespacepa_1_1detail.html#aa916ebec71616d1d0379aaaaca02fc19" target="_top" xlink:title="Check all stop conditions (required tolerance reached, out of time, maximum number of iterations exce...">
<polygon fill="white" stroke="black" points="236,-318 236,-348 350,-348 350,-318 236,-318"/>
<text text-anchor="start" x="244" y="-336" font-family="Helvetica,sans-Serif" font-size="10.00">pa::detail::check_all</text>
<text text-anchor="middle" x="293" y="-325" font-family="Helvetica,sans-Serif" font-size="10.00">_stop_conditions</text>
</a>
</g>
</g>
<!-- Node2&#45;&gt;Node10 -->
<g id="edge10" class="edge">
<title>Node2&#45;&gt;Node10</title>
<path fill="none" stroke="midnightblue" d="M166.45,-293.56C185.77,-299.63 211.38,-307.68 234.43,-314.92"/>
<polygon fill="midnightblue" stroke="midnightblue" points="233.54,-318.31 244.13,-317.96 235.64,-311.63 233.54,-318.31"/>
</g>
<!-- Node12 -->
<g id="node12" class="node">
<title>Node12</title>
<g id="a_node12"><a xlink:href="namespacepa_1_1detail.html#ac7d4fa127500b38a8cec94984c4f598d" target="_top" xlink:title="Increase the estimate of the Lipschitz constant of the objective gradient and decrease the step size ...">
<polygon fill="white" stroke="black" points="239.5,-181 239.5,-211 346.5,-211 346.5,-181 239.5,-181"/>
<text text-anchor="start" x="247.5" y="-199" font-family="Helvetica,sans-Serif" font-size="10.00">pa::detail::descent</text>
<text text-anchor="middle" x="293" y="-188" font-family="Helvetica,sans-Serif" font-size="10.00">_lemma</text>
</a>
</g>
</g>
<!-- Node2&#45;&gt;Node12 -->
<g id="edge12" class="edge">
<title>Node2&#45;&gt;Node12</title>
<path fill="none" stroke="midnightblue" d="M169.6,-274.39C175.98,-271.84 182.4,-268.73 188,-265 207.63,-251.92 204.81,-239.71 224,-226 229.43,-222.12 235.44,-218.58 241.58,-215.41"/>
<polygon fill="midnightblue" stroke="midnightblue" points="243.15,-218.54 250.61,-211.02 240.09,-212.24 243.15,-218.54"/>
</g>
<!-- Node16 -->
<g id="node16" class="node">
<title>Node16</title>
<g id="a_node16"><a xlink:href="classpa_1_1vec__allocator.html#a455bb0797853d67addd58875c671acef" target="_top" xlink:title=" ">
<polygon fill="white" stroke="black" points="230.5,-142.5 230.5,-161.5 355.5,-161.5 355.5,-142.5 230.5,-142.5"/>
<text text-anchor="middle" x="293" y="-149.5" font-family="Helvetica,sans-Serif" font-size="10.00">pa::vec_allocator::free</text>
</a>
</g>
</g>
<!-- Node2&#45;&gt;Node16 -->
<g id="edge17" class="edge">
<title>Node2&#45;&gt;Node16</title>
<path fill="none" stroke="midnightblue" d="M171.66,-275.6C177.65,-272.96 183.4,-269.51 188,-265 219.64,-233.96 191.38,-202.01 224,-172 226.28,-169.9 228.77,-168.02 231.41,-166.34"/>
<polygon fill="midnightblue" stroke="midnightblue" points="233.08,-169.41 240.25,-161.61 229.78,-163.24 233.08,-169.41"/>
</g>
<!-- Node19 -->
<g id="node19" class="node">
<title>Node19</title>
<g id="a_node19"><a xlink:href="namespacepa_1_1detail.html#a92963cadf7f44fcf9f3ab6bddff08796" target="_top" xlink:title="Estimate the Lipschitz constant of the gradient &#160;using finite differences.">
<polygon fill="white" stroke="black" points="237.5,-39 237.5,-69 348.5,-69 348.5,-39 237.5,-39"/>
<text text-anchor="start" x="245.5" y="-57" font-family="Helvetica,sans-Serif" font-size="10.00">pa::detail::initial</text>
<text text-anchor="middle" x="293" y="-46" font-family="Helvetica,sans-Serif" font-size="10.00">_lipschitz_estimate</text>
</a>
</g>
</g>
<!-- Node2&#45;&gt;Node19 -->
<g id="edge20" class="edge">
<title>Node2&#45;&gt;Node19</title>
<path fill="none" stroke="midnightblue" d="M171.52,-276.21C177.67,-273.51 183.51,-269.88 188,-265 229.15,-220.23 195.46,-186.7 224,-133 235.35,-111.64 253.4,-91.04 268.04,-76.24"/>
<polygon fill="midnightblue" stroke="midnightblue" points="270.67,-78.56 275.34,-69.05 265.76,-73.57 270.67,-78.56"/>
</g>
<!-- Node23 -->
<g id="node23" class="node">
<title>Node23</title>
<g id="a_node23"><a xlink:href="namespacepa_1_1detail.html#aea72ee13ae482d948d1b994deb457578" target="_top" xlink:title=" ">
<polygon fill="white" stroke="black" points="224,-416.5 224,-435.5 362,-435.5 362,-416.5 224,-416.5"/>
<text text-anchor="middle" x="293" y="-423.5" font-family="Helvetica,sans-Serif" font-size="10.00">pa::detail::print_progress</text>
</a>
</g>
</g>
<!-- Node2&#45;&gt;Node23 -->
<g id="edge26" class="edge">
<title>Node2&#45;&gt;Node23</title>
<path fill="none" stroke="midnightblue" d="M140.14,-293.7C150.59,-316.99 180.35,-376.42 224,-407 226.85,-408.99 229.9,-410.78 233.07,-412.38"/>
<polygon fill="midnightblue" stroke="midnightblue" points="231.71,-415.61 242.28,-416.41 234.52,-409.19 231.71,-415.61"/>
</g>
<!-- Node4 -->
<g id="node4" class="node">
<title>Node4</title>
<g id="a_node4"><a xlink:href="classpa_1_1vec__allocator.html#ac6f0ae398f6cbe67f4b845dcede0874a" target="_top" xlink:title=" ">
<polygon fill="white" stroke="black" points="406,-396 406,-426 512,-426 512,-396 406,-396"/>
<text text-anchor="start" x="414" y="-414" font-family="Helvetica,sans-Serif" font-size="10.00">pa::vec_allocator::</text>
<text text-anchor="middle" x="459" y="-403" font-family="Helvetica,sans-Serif" font-size="10.00">used_space</text>
</a>
</g>
</g>
<!-- Node3&#45;&gt;Node4 -->
<g id="edge3" class="edge">
<title>Node3&#45;&gt;Node4</title>
<path fill="none" stroke="midnightblue" d="M346.34,-391.26C362.1,-394.04 379.55,-397.13 395.88,-400.01"/>
<polygon fill="midnightblue" stroke="midnightblue" points="395.42,-403.49 405.87,-401.78 396.64,-396.59 395.42,-403.49"/>
</g>
<!-- Node4&#45;&gt;Node5 -->
<g id="edge4" class="edge">
<title>Node4&#45;&gt;Node5</title>
<path fill="none" stroke="midnightblue" d="M512.34,-419.59C524.5,-421.58 537.63,-423.73 550.37,-425.82"/>
<polygon fill="midnightblue" stroke="midnightblue" points="550.04,-429.32 560.47,-427.48 551.17,-422.41 550.04,-429.32"/>
</g>
<!-- Node7 -->
<g id="node7" class="node">
<title>Node7</title>
<g id="a_node7"><a xlink:href="namespacepa_1_1vec__util.html#af8e650634ec3d7b82a78a4d313632ed0" target="_top" xlink:title="Get the maximum or infinity&#45;norm of the given vector.">
<polygon fill="white" stroke="black" points="398,-300.5 398,-319.5 520,-319.5 520,-300.5 398,-300.5"/>
<text text-anchor="middle" x="459" y="-307.5" font-family="Helvetica,sans-Serif" font-size="10.00">pa::vec_util::norm_inf</text>
</a>
</g>
</g>
<!-- Node6&#45;&gt;Node7 -->
<g id="edge6" class="edge">
<title>Node6&#45;&gt;Node7</title>
<path fill="none" stroke="midnightblue" d="M351.36,-293.09C363.12,-294.96 375.63,-296.94 387.79,-298.87"/>
<polygon fill="midnightblue" stroke="midnightblue" points="387.46,-302.36 397.89,-300.47 388.56,-295.45 387.46,-302.36"/>
</g>
<!-- Node8 -->
<g id="node8" class="node">
<title>Node8</title>
<g id="a_node8"><a xlink:href="namespacepa_1_1detail.html#a8ed4d487878856942843707b5a131b85" target="_top" xlink:title="Projected gradient step.">
<polygon fill="white" stroke="black" points="562.5,-238 562.5,-268 676.5,-268 676.5,-238 562.5,-238"/>
<text text-anchor="start" x="570.5" y="-256" font-family="Helvetica,sans-Serif" font-size="10.00">pa::detail::projected</text>
<text text-anchor="middle" x="619.5" y="-245" font-family="Helvetica,sans-Serif" font-size="10.00">_gradient_step</text>
</a>
</g>
</g>
<!-- Node6&#45;&gt;Node8 -->
<g id="edge7" class="edge">
<title>Node6&#45;&gt;Node8</title>
<path fill="none" stroke="midnightblue" d="M351.27,-278.53C407.51,-273.16 493.25,-264.97 552.37,-259.32"/>
<polygon fill="midnightblue" stroke="midnightblue" points="552.73,-262.8 562.35,-258.36 552.06,-255.83 552.73,-262.8"/>
</g>
<!-- Node9&#45;&gt;Node8 -->
<g id="edge9" class="edge">
<title>Node9&#45;&gt;Node8</title>
<path fill="none" stroke="midnightblue" d="M508.85,-239.86C522.59,-241.5 537.78,-243.32 552.36,-245.07"/>
<polygon fill="midnightblue" stroke="midnightblue" points="551.98,-248.55 562.32,-246.27 552.81,-241.6 551.98,-248.55"/>
</g>
<!-- Node11 -->
<g id="node11" class="node">
<title>Node11</title>
<g id="a_node11"><a xlink:href="classpa_1_1AtomicStopSignal.html#aa0097deccc19b49f8ab5344d8d6d5cf6" target="_top" xlink:title=" ">
<polygon fill="white" stroke="black" points="398.5,-339 398.5,-369 519.5,-369 519.5,-339 398.5,-339"/>
<text text-anchor="start" x="406.5" y="-357" font-family="Helvetica,sans-Serif" font-size="10.00">pa::AtomicStopSignal</text>
<text text-anchor="middle" x="459" y="-346" font-family="Helvetica,sans-Serif" font-size="10.00">::stop_requested</text>
</a>
</g>
</g>
<!-- Node10&#45;&gt;Node11 -->
<g id="edge11" class="edge">
<title>Node10&#45;&gt;Node11</title>
<path fill="none" stroke="midnightblue" d="M350.44,-340.23C362.65,-341.79 375.7,-343.46 388.35,-345.08"/>
<polygon fill="midnightblue" stroke="midnightblue" points="388.02,-348.57 398.38,-346.37 388.91,-341.62 388.02,-348.57"/>
</g>
<!-- Node12&#45;&gt;Node9 -->
<g id="edge13" class="edge">
<title>Node12&#45;&gt;Node9</title>
<path fill="none" stroke="midnightblue" d="M346.79,-208.23C366,-212.68 387.67,-217.7 406.74,-222.12"/>
<polygon fill="midnightblue" stroke="midnightblue" points="406.21,-225.59 416.74,-224.44 407.79,-218.77 406.21,-225.59"/>
</g>
<!-- Node13 -->
<g id="node13" class="node">
<title>Node13</title>
<g id="a_node13"><a xlink:href="namespacepa_1_1detail.html#a82a03662e6ce5bcfd57ee2df719aec21" target="_top" xlink:title="Calculate both ψ(x) and the vector ŷ that can later be used to compute ∇ψ.">
<polygon fill="white" stroke="black" points="564,-88.5 564,-107.5 675,-107.5 675,-88.5 564,-88.5"/>
<text text-anchor="middle" x="619.5" y="-95.5" font-family="Helvetica,sans-Serif" font-size="10.00">pa::detail::calc_ψ_ŷ</text>
</a>
</g>
</g>
<!-- Node12&#45;&gt;Node13 -->
<g id="edge14" class="edge">
<title>Node12&#45;&gt;Node13</title>
<path fill="none" stroke="midnightblue" d="M346.68,-200.08C393.8,-201.78 463.87,-199.41 520,-177 553.87,-163.47 585.32,-134.16 603.19,-115.29"/>
<polygon fill="midnightblue" stroke="midnightblue" points="605.99,-117.42 610.19,-107.69 600.85,-112.67 605.99,-117.42"/>
</g>
<!-- Node14 -->
<g id="node14" class="node">
<title>Node14</title>
<g id="a_node14"><a xlink:href="namespacepa.html#aee505a26e46aa4c0ce09d0fed72f0dac" target="_top" xlink:title="Get the difference between the given vector and its projection.">
<polygon fill="white" stroke="black" points="719,-44.5 719,-63.5 838,-63.5 838,-44.5 719,-44.5"/>
<text text-anchor="middle" x="778.5" y="-51.5" font-family="Helvetica,sans-Serif" font-size="10.00">projecting_difference</text>
</a>
</g>
</g>
<!-- Node13&#45;&gt;Node14 -->
<g id="edge15" class="edge">
<title>Node13&#45;&gt;Node14</title>
<path fill="none" stroke="midnightblue" d="M654.57,-88.45C677.81,-81.94 708.82,-73.25 733.87,-66.23"/>
<polygon fill="midnightblue" stroke="midnightblue" points="734.82,-69.6 743.5,-63.53 732.93,-62.86 734.82,-69.6"/>
</g>
<!-- Node15 -->
<g id="node15" class="node">
<title>Node15</title>
<g id="a_node15"><a xlink:href="namespacepa.html#a5414901c2fb62f1fd47857642964cc71" target="_top" xlink:title="Project a vector onto a box.">
<polygon fill="white" stroke="black" points="874,-44.5 874,-63.5 924,-63.5 924,-44.5 874,-44.5"/>
<text text-anchor="middle" x="899" y="-51.5" font-family="Helvetica,sans-Serif" font-size="10.00">project</text>
</a>
</g>
</g>
<!-- Node14&#45;&gt;Node15 -->
<g id="edge16" class="edge">
<title>Node14&#45;&gt;Node15</title>
<path fill="none" stroke="midnightblue" d="M838.06,-54C846.89,-54 855.75,-54 863.85,-54"/>
<polygon fill="midnightblue" stroke="midnightblue" points="863.98,-57.5 873.98,-54 863.98,-50.5 863.98,-57.5"/>
</g>
<!-- Node17 -->
<g id="node17" class="node">
<title>Node17</title>
<g id="a_node17"><a xlink:href="structpa_1_1vec__allocator_1_1findstack.html#ad950587c89b4306f927b08b5e5cb7e89" target="_top" xlink:title=" ">
<polygon fill="white" stroke="black" points="406,-88 406,-118 512,-118 512,-88 406,-88"/>
<text text-anchor="start" x="414" y="-106" font-family="Helvetica,sans-Serif" font-size="10.00">pa::vec_allocator::</text>
<text text-anchor="middle" x="459" y="-95" font-family="Helvetica,sans-Serif" font-size="10.00">findstack::begin</text>
</a>
</g>
</g>
<!-- Node16&#45;&gt;Node17 -->
<g id="edge18" class="edge">
<title>Node16&#45;&gt;Node17</title>
<path fill="none" stroke="midnightblue" d="M326.01,-142.44C346.41,-136.34 373.49,-128.25 397.8,-120.99"/>
<polygon fill="midnightblue" stroke="midnightblue" points="399.09,-124.25 407.67,-118.04 397.09,-117.55 399.09,-124.25"/>
</g>
<!-- Node18 -->
<g id="node18" class="node">
<title>Node18</title>
<g id="a_node18"><a xlink:href="structpa_1_1vec__allocator_1_1findstack.html#a7727305d5e1ec66a181e22c43af9a581" target="_top" xlink:title=" ">
<polygon fill="white" stroke="black" points="406,-137 406,-167 512,-167 512,-137 406,-137"/>
<text text-anchor="start" x="414" y="-155" font-family="Helvetica,sans-Serif" font-size="10.00">pa::vec_allocator::</text>
<text text-anchor="middle" x="459" y="-144" font-family="Helvetica,sans-Serif" font-size="10.00">findstack::end</text>
</a>
</g>
</g>
<!-- Node16&#45;&gt;Node18 -->
<g id="edge19" class="edge">
<title>Node16&#45;&gt;Node18</title>
<path fill="none" stroke="midnightblue" d="M355.53,-152C368.59,-152 382.38,-152 395.47,-152"/>
<polygon fill="midnightblue" stroke="midnightblue" points="395.79,-155.5 405.79,-152 395.79,-148.5 395.79,-155.5"/>
</g>
<!-- Node20 -->
<g id="node20" class="node">
<title>Node20</title>
<g id="a_node20"><a xlink:href="namespacepa_1_1detail.html#a6572cf745448d2b40e9d5e977d17d5e2" target="_top" xlink:title="Calculate the gradient ∇ψ(x).">
<polygon fill="white" stroke="black" points="556,-0.5 556,-19.5 683,-19.5 683,-0.5 556,-0.5"/>
<text text-anchor="middle" x="619.5" y="-7.5" font-family="Helvetica,sans-Serif" font-size="10.00">pa::detail::calc_grad_ψ</text>
</a>
</g>
</g>
<!-- Node19&#45;&gt;Node20 -->
<g id="edge21" class="edge">
<title>Node19&#45;&gt;Node20</title>
<path fill="none" stroke="midnightblue" d="M348.74,-39.21C364.54,-35.39 381.87,-31.62 398,-29 446.98,-21.05 502.66,-16.28 545.81,-13.52"/>
<polygon fill="midnightblue" stroke="midnightblue" points="546.17,-17 555.94,-12.89 545.74,-10.01 546.17,-17"/>
</g>
<!-- Node21 -->
<g id="node21" class="node">
<title>Node21</title>
<g id="a_node21"><a xlink:href="namespacepa_1_1detail.html#aa986daa1d5f0dfdbc75c143d2aae2919" target="_top" xlink:title="Calculate both ψ(x) and its gradient ∇ψ(x).">
<polygon fill="white" stroke="black" points="409,-39 409,-69 509,-69 509,-39 409,-39"/>
<text text-anchor="start" x="417" y="-57" font-family="Helvetica,sans-Serif" font-size="10.00">pa::detail::calc_ψ</text>
<text text-anchor="middle" x="459" y="-46" font-family="Helvetica,sans-Serif" font-size="10.00">_grad_ψ</text>
</a>
</g>
</g>
<!-- Node19&#45;&gt;Node21 -->
<g id="edge23" class="edge">
<title>Node19&#45;&gt;Node21</title>
<path fill="none" stroke="midnightblue" d="M348.61,-54C364.74,-54 382.46,-54 398.86,-54"/>
<polygon fill="midnightblue" stroke="midnightblue" points="398.87,-57.5 408.87,-54 398.87,-50.5 398.87,-57.5"/>
</g>
<!-- Node20&#45;&gt;Node14 -->
<g id="edge22" class="edge">
<title>Node20&#45;&gt;Node14</title>
<path fill="none" stroke="midnightblue" d="M654.57,-19.55C677.81,-26.06 708.82,-34.75 733.87,-41.77"/>
<polygon fill="midnightblue" stroke="midnightblue" points="732.93,-45.14 743.5,-44.47 734.82,-38.4 732.93,-45.14"/>
</g>
<!-- Node21&#45;&gt;Node13 -->
<g id="edge25" class="edge">
<title>Node21&#45;&gt;Node13</title>
<path fill="none" stroke="midnightblue" d="M509.28,-67.68C529.96,-73.42 553.83,-80.05 573.97,-85.64"/>
<polygon fill="midnightblue" stroke="midnightblue" points="573.26,-89.07 583.83,-88.38 575.13,-82.33 573.26,-89.07"/>
</g>
<!-- Node22 -->
<g id="node22" class="node">
<title>Node22</title>
<g id="a_node22"><a xlink:href="namespacepa_1_1detail.html#a908a0589ddf8734417f5481395e197d2" target="_top" xlink:title="Calculate ∇ψ(x) using ŷ.">
<polygon fill="white" stroke="black" points="562,-39 562,-69 677,-69 677,-39 562,-39"/>
<text text-anchor="start" x="570" y="-57" font-family="Helvetica,sans-Serif" font-size="10.00">pa::detail::calc_grad</text>
<text text-anchor="middle" x="619.5" y="-46" font-family="Helvetica,sans-Serif" font-size="10.00">_ψ_from_ŷ</text>
</a>
</g>
</g>
<!-- Node21&#45;&gt;Node22 -->
<g id="edge24" class="edge">
<title>Node21&#45;&gt;Node22</title>
<path fill="none" stroke="midnightblue" d="M509.28,-54C522.66,-54 537.38,-54 551.56,-54"/>
<polygon fill="midnightblue" stroke="midnightblue" points="551.77,-57.5 561.77,-54 551.77,-50.5 551.77,-57.5"/>
</g>
</g>
</svg>
