<?xml version="1.0" encoding="UTF-8" standalone="no"?>
<!DOCTYPE svg PUBLIC "-//W3C//DTD SVG 1.1//EN"
 "http://www.w3.org/Graphics/SVG/1.1/DTD/svg11.dtd">
<!-- Generated by graphviz version 2.43.0 (0)
 -->
<!-- Title: minimize_update_anderson Pages: 1 -->
<svg width="824pt" height="320pt"
 viewBox="0.00 0.00 824.00 319.53" xmlns="http://www.w3.org/2000/svg" xmlns:xlink="http://www.w3.org/1999/xlink">
<g id="graph0" class="graph" transform="scale(1 1) rotate(0) translate(4 315.53)">
<title>minimize_update_anderson</title>
<polygon fill="white" stroke="transparent" points="-4,4 -4,-315.53 820,-315.53 820,4 -4,4"/>
<!-- Node1 -->
<g id="node1" class="node">
<title>Node1</title>
<g id="a_node1"><a xlink:title="Solve one step of Anderson acceleration to find a fixed point of a function g(x):">
<polygon fill="#bfbfbf" stroke="black" points="0,-143 0,-162 152,-162 152,-143 0,-143"/>
<text text-anchor="middle" x="76" y="-150" font-family="Helvetica,sans-Serif" font-size="10.00">minimize_update_anderson</text>
</a>
</g>
</g>
<!-- Node2 -->
<g id="node2" class="node">
<title>Node2</title>
<g id="a_node2"><a xlink:href="classpa_1_1LimitedMemoryQR.html#a5e3077223e98c1e4e286e01503f220d5" target="_top" xlink:title="Add the given column to the right.">
<polygon fill="white" stroke="black" points="188,-235.5 188,-265.5 314,-265.5 314,-235.5 188,-235.5"/>
<text text-anchor="start" x="196" y="-253.5" font-family="Helvetica,sans-Serif" font-size="10.00">pa::LimitedMemoryQR</text>
<text text-anchor="middle" x="251" y="-242.5" font-family="Helvetica,sans-Serif" font-size="10.00">::add_column</text>
</a>
</g>
</g>
<!-- Node1&#45;&gt;Node2 -->
<g id="edge1" class="edge">
<title>Node1&#45;&gt;Node2</title>
<path fill="none" stroke="midnightblue" d="M89.43,-162.11C109.38,-177.23 150.17,-206.87 188,-226.5 191.27,-228.19 194.68,-229.84 198.15,-231.42"/>
<polygon fill="midnightblue" stroke="midnightblue" points="196.86,-234.68 207.43,-235.45 199.65,-228.25 196.86,-234.68"/>
</g>
<!-- Node3 -->
<g id="node3" class="node">
<title>Node3</title>
<g id="a_node3"><a xlink:href="classpa_1_1LimitedMemoryQR.html#af83f6287b8ea07acdcfa4670af30cbbf" target="_top" xlink:title=" ">
<polygon fill="white" stroke="black" points="674,-222 674,-241 816,-241 816,-222 674,-222"/>
<text text-anchor="middle" x="745" y="-229" font-family="Helvetica,sans-Serif" font-size="10.00">pa::LimitedMemoryQR::m</text>
</a>
</g>
</g>
<!-- Node1&#45;&gt;Node3 -->
<g id="edge5" class="edge">
<title>Node1&#45;&gt;Node3</title>
<path fill="none" stroke="midnightblue" d="M82.05,-162.35C95.35,-187.08 134.12,-251.55 188,-275.5 371.17,-356.93 621.69,-277.88 710.85,-244.66"/>
<polygon fill="midnightblue" stroke="midnightblue" points="712.31,-247.85 720.42,-241.03 709.83,-241.3 712.31,-247.85"/>
</g>
<!-- Node5 -->
<g id="node5" class="node">
<title>Node5</title>
<g id="a_node5"><a xlink:href="classpa_1_1LimitedMemoryQR.html#a98e2d9685769a3ebb2c0c9600a4c77b2" target="_top" xlink:title="Get the number of columns that are currently stored.">
<polygon fill="white" stroke="black" points="188,-186.5 188,-216.5 314,-216.5 314,-186.5 188,-186.5"/>
<text text-anchor="start" x="196" y="-204.5" font-family="Helvetica,sans-Serif" font-size="10.00">pa::LimitedMemoryQR</text>
<text text-anchor="middle" x="251" y="-193.5" font-family="Helvetica,sans-Serif" font-size="10.00">::num_columns</text>
</a>
</g>
</g>
<!-- Node1&#45;&gt;Node5 -->
<g id="edge6" class="edge">
<title>Node1&#45;&gt;Node5</title>
<path fill="none" stroke="midnightblue" d="M110.77,-162.06C132.48,-168.21 161.36,-176.39 187.18,-183.71"/>
<polygon fill="midnightblue" stroke="midnightblue" points="186.33,-187.11 196.91,-186.46 188.24,-180.37 186.33,-187.11"/>
</g>
<!-- Node6 -->
<g id="node6" class="node">
<title>Node6</title>
<g id="a_node6"><a xlink:href="classpa_1_1LimitedMemoryQR.html#a436c4dbbf0476354ca67a104bc005e55" target="_top" xlink:title="Remove the leftmost column.">
<polygon fill="white" stroke="black" points="188,-137.5 188,-167.5 314,-167.5 314,-137.5 188,-137.5"/>
<text text-anchor="start" x="196" y="-155.5" font-family="Helvetica,sans-Serif" font-size="10.00">pa::LimitedMemoryQR</text>
<text text-anchor="middle" x="251" y="-144.5" font-family="Helvetica,sans-Serif" font-size="10.00">::remove_column</text>
</a>
</g>
</g>
<!-- Node1&#45;&gt;Node6 -->
<g id="edge7" class="edge">
<title>Node1&#45;&gt;Node6</title>
<path fill="none" stroke="midnightblue" d="M152.13,-152.5C160.62,-152.5 169.26,-152.5 177.71,-152.5"/>
<polygon fill="midnightblue" stroke="midnightblue" points="177.91,-156 187.91,-152.5 177.91,-149 177.91,-156"/>
</g>
<!-- Node7 -->
<g id="node7" class="node">
<title>Node7</title>
<g id="a_node7"><a xlink:href="classpa_1_1LimitedMemoryQR.html#a7a0e06dceccc0bbe82ebd81247a5a412" target="_top" xlink:title="Get iterators in the circular buffer.">
<polygon fill="white" stroke="black" points="512,-73.5 512,-103.5 638,-103.5 638,-73.5 512,-73.5"/>
<text text-anchor="start" x="520" y="-91.5" font-family="Helvetica,sans-Serif" font-size="10.00">pa::LimitedMemoryQR</text>
<text text-anchor="middle" x="575" y="-80.5" font-family="Helvetica,sans-Serif" font-size="10.00">::ring_iter</text>
</a>
</g>
</g>
<!-- Node1&#45;&gt;Node7 -->
<g id="edge9" class="edge">
<title>Node1&#45;&gt;Node7</title>
<path fill="none" stroke="midnightblue" d="M116.1,-142.95C137.28,-138.05 163.95,-132.33 188,-128.5 296.72,-111.17 423.93,-99.66 501.71,-93.61"/>
<polygon fill="midnightblue" stroke="midnightblue" points="502.19,-97.08 511.89,-92.83 501.65,-90.1 502.19,-97.08"/>
</g>
<!-- Node8 -->
<g id="node8" class="node">
<title>Node8</title>
<g id="a_node8"><a xlink:href="classpa_1_1LimitedMemoryQR.html#a25b6259a3ee886a9a54f3a66ab019084" target="_top" xlink:title="Get the tail index of the circular buffer (points to one past the most recent element).">
<polygon fill="white" stroke="black" points="188,-49.5 188,-79.5 314,-79.5 314,-49.5 188,-49.5"/>
<text text-anchor="start" x="196" y="-67.5" font-family="Helvetica,sans-Serif" font-size="10.00">pa::LimitedMemoryQR</text>
<text text-anchor="middle" x="251" y="-56.5" font-family="Helvetica,sans-Serif" font-size="10.00">::ring_tail</text>
</a>
</g>
</g>
<!-- Node1&#45;&gt;Node8 -->
<g id="edge11" class="edge">
<title>Node1&#45;&gt;Node8</title>
<path fill="none" stroke="midnightblue" d="M94.98,-142.88C116.87,-131.24 154.98,-111.11 188,-94.5 194.76,-91.1 201.96,-87.55 208.97,-84.13"/>
<polygon fill="midnightblue" stroke="midnightblue" points="210.9,-87.09 218.37,-79.57 207.84,-80.79 210.9,-87.09"/>
</g>
<!-- Node9 -->
<g id="node9" class="node">
<title>Node9</title>
<g id="a_node9"><a xlink:href="classpa_1_1LimitedMemoryQR.html#a7a60dfe0a5f68bc1efec69e406a2b619" target="_top" xlink:title="Solve the least squares problem Ax = b.">
<polygon fill="white" stroke="black" points="188,-0.5 188,-30.5 314,-30.5 314,-0.5 188,-0.5"/>
<text text-anchor="start" x="196" y="-18.5" font-family="Helvetica,sans-Serif" font-size="10.00">pa::LimitedMemoryQR</text>
<text text-anchor="middle" x="251" y="-7.5" font-family="Helvetica,sans-Serif" font-size="10.00">::solve_col</text>
</a>
</g>
</g>
<!-- Node1&#45;&gt;Node9 -->
<g id="edge12" class="edge">
<title>Node1&#45;&gt;Node9</title>
<path fill="none" stroke="midnightblue" d="M84.01,-142.98C100.15,-121.69 142.05,-69.73 188,-39.5 190.27,-38.01 192.65,-36.58 195.1,-35.23"/>
<polygon fill="midnightblue" stroke="midnightblue" points="196.83,-38.28 204.19,-30.65 193.68,-32.03 196.83,-38.28"/>
</g>
<!-- Node2&#45;&gt;Node3 -->
<g id="edge2" class="edge">
<title>Node2&#45;&gt;Node3</title>
<path fill="none" stroke="midnightblue" d="M314.31,-248.09C403.09,-244.67 566.04,-238.37 663.75,-234.6"/>
<polygon fill="midnightblue" stroke="midnightblue" points="664.01,-238.09 673.87,-234.21 663.74,-231.1 664.01,-238.09"/>
</g>
<!-- Node4 -->
<g id="node4" class="node">
<title>Node4</title>
<g id="a_node4"><a xlink:href="classpa_1_1LimitedMemoryQR.html#abb2e912e6196e7c6996d3f43fea78237" target="_top" xlink:title="Get the next index in the circular storage for R.">
<polygon fill="white" stroke="black" points="350,-191.5 350,-221.5 476,-221.5 476,-191.5 350,-191.5"/>
<text text-anchor="start" x="358" y="-209.5" font-family="Helvetica,sans-Serif" font-size="10.00">pa::LimitedMemoryQR</text>
<text text-anchor="middle" x="413" y="-198.5" font-family="Helvetica,sans-Serif" font-size="10.00">::r_succ</text>
</a>
</g>
</g>
<!-- Node2&#45;&gt;Node4 -->
<g id="edge3" class="edge">
<title>Node2&#45;&gt;Node4</title>
<path fill="none" stroke="midnightblue" d="M306.62,-235.48C319.8,-231.85 334.01,-227.95 347.6,-224.21"/>
<polygon fill="midnightblue" stroke="midnightblue" points="348.65,-227.55 357.36,-221.53 346.79,-220.8 348.65,-227.55"/>
</g>
<!-- Node4&#45;&gt;Node3 -->
<g id="edge4" class="edge">
<title>Node4&#45;&gt;Node3</title>
<path fill="none" stroke="midnightblue" d="M476.07,-211.2C529.17,-215.23 605.96,-221.04 663.73,-225.42"/>
<polygon fill="midnightblue" stroke="midnightblue" points="663.68,-228.93 673.92,-226.19 664.21,-221.95 663.68,-228.93"/>
</g>
<!-- Node6&#45;&gt;Node4 -->
<g id="edge8" class="edge">
<title>Node6&#45;&gt;Node4</title>
<path fill="none" stroke="midnightblue" d="M296.57,-167.54C315.56,-173.95 337.89,-181.49 357.82,-188.22"/>
<polygon fill="midnightblue" stroke="midnightblue" points="356.8,-191.56 367.39,-191.45 359.04,-184.93 356.8,-191.56"/>
</g>
<!-- Node7&#45;&gt;Node3 -->
<g id="edge10" class="edge">
<title>Node7&#45;&gt;Node3</title>
<path fill="none" stroke="midnightblue" d="M593.66,-103.53C625.37,-130.52 691.7,-186.98 724.61,-215"/>
<polygon fill="midnightblue" stroke="midnightblue" points="722.71,-217.97 732.59,-221.79 727.24,-212.64 722.71,-217.97"/>
</g>
<!-- Node9&#45;&gt;Node7 -->
<g id="edge13" class="edge">
<title>Node9&#45;&gt;Node7</title>
<path fill="none" stroke="midnightblue" d="M303.96,-30.51C318.79,-34.6 334.99,-38.89 350,-42.5 400.5,-54.63 457.87,-66.37 501.92,-74.96"/>
<polygon fill="midnightblue" stroke="midnightblue" points="501.47,-78.44 511.96,-76.91 502.8,-71.56 501.47,-78.44"/>
</g>
<!-- Node10 -->
<g id="node10" class="node">
<title>Node10</title>
<g id="a_node10"><a xlink:href="classpa_1_1LimitedMemoryQR.html#a53110c85b0c151a290bf8d29533cd370" target="_top" xlink:title="Get reverse iterators in the circular buffer.">
<polygon fill="white" stroke="black" points="350,-3.5 350,-33.5 476,-33.5 476,-3.5 350,-3.5"/>
<text text-anchor="start" x="358" y="-21.5" font-family="Helvetica,sans-Serif" font-size="10.00">pa::LimitedMemoryQR</text>
<text text-anchor="middle" x="413" y="-10.5" font-family="Helvetica,sans-Serif" font-size="10.00">::ring_reverse_iter</text>
</a>
</g>
</g>
<!-- Node9&#45;&gt;Node10 -->
<g id="edge14" class="edge">
<title>Node9&#45;&gt;Node10</title>
<path fill="none" stroke="midnightblue" d="M314.32,-16.67C322.62,-16.82 331.18,-16.98 339.63,-17.14"/>
<polygon fill="midnightblue" stroke="midnightblue" points="339.79,-20.65 349.85,-17.33 339.92,-13.65 339.79,-20.65"/>
</g>
<!-- Node10&#45;&gt;Node7 -->
<g id="edge15" class="edge">
<title>Node10&#45;&gt;Node7</title>
<path fill="none" stroke="midnightblue" d="M448.32,-33.52C472.29,-44 504.47,-58.08 530.27,-69.37"/>
<polygon fill="midnightblue" stroke="midnightblue" points="528.89,-72.59 539.46,-73.39 531.7,-66.17 528.89,-72.59"/>
</g>
</g>
</svg>
