<?xml version="1.0" encoding="UTF-8" standalone="no"?>
<!DOCTYPE svg PUBLIC "-//W3C//DTD SVG 1.1//EN"
 "http://www.w3.org/Graphics/SVG/1.1/DTD/svg11.dtd">
<!-- Generated by graphviz version 2.43.0 (0)
 -->
<!-- Title: initial_lipschitz_estimate Pages: 1 -->
<svg width="611pt" height="137pt"
 viewBox="0.00 0.00 611.00 137.00" xmlns="http://www.w3.org/2000/svg" xmlns:xlink="http://www.w3.org/1999/xlink">
<g id="graph0" class="graph" transform="scale(1 1) rotate(0) translate(4 133)">
<title>initial_lipschitz_estimate</title>
<polygon fill="white" stroke="transparent" points="-4,4 -4,-133 607,-133 607,4 -4,4"/>
<!-- Node1 -->
<g id="node1" class="node">
<title>Node1</title>
<g id="a_node1"><a xlink:title="Estimate the Lipschitz constant of the gradient &#160;using finite differences.">
<polygon fill="#bfbfbf" stroke="black" points="0,-77 0,-96 139,-96 139,-77 0,-77"/>
<text text-anchor="middle" x="69.5" y="-84" font-family="Helvetica,sans-Serif" font-size="10.00">initial_lipschitz_estimate</text>
</a>
</g>
</g>
<!-- Node2 -->
<g id="node2" class="node">
<title>Node2</title>
<g id="a_node2"><a xlink:href="classpa_1_1vec__allocator.html#afa36e1f076dd1627a83324e717038836" target="_top" xlink:title=" ">
<polygon fill="white" stroke="black" points="184.5,-95.5 184.5,-125.5 290.5,-125.5 290.5,-95.5 184.5,-95.5"/>
<text text-anchor="start" x="192.5" y="-113.5" font-family="Helvetica,sans-Serif" font-size="10.00">pa::vec_allocator::</text>
<text text-anchor="middle" x="237.5" y="-102.5" font-family="Helvetica,sans-Serif" font-size="10.00">alloc</text>
</a>
</g>
</g>
<!-- Node1&#45;&gt;Node2 -->
<g id="edge1" class="edge">
<title>Node1&#45;&gt;Node2</title>
<path fill="none" stroke="midnightblue" d="M136.58,-96.05C149.02,-97.85 161.98,-99.73 174.29,-101.51"/>
<polygon fill="midnightblue" stroke="midnightblue" points="174.05,-105.01 184.45,-102.97 175.05,-98.08 174.05,-105.01"/>
</g>
<!-- Node5 -->
<g id="node5" class="node">
<title>Node5</title>
<g id="a_node5"><a xlink:href="classpa_1_1vec__allocator.html#a455bb0797853d67addd58875c671acef" target="_top" xlink:title=" ">
<polygon fill="white" stroke="black" points="175,-55 175,-74 300,-74 300,-55 175,-55"/>
<text text-anchor="middle" x="237.5" y="-62" font-family="Helvetica,sans-Serif" font-size="10.00">pa::vec_allocator::free</text>
</a>
</g>
</g>
<!-- Node1&#45;&gt;Node5 -->
<g id="edge4" class="edge">
<title>Node1&#45;&gt;Node5</title>
<path fill="none" stroke="midnightblue" d="M139.46,-77.36C147.82,-76.25 156.37,-75.12 164.77,-74.01"/>
<polygon fill="midnightblue" stroke="midnightblue" points="165.46,-77.45 174.91,-72.66 164.54,-70.51 165.46,-77.45"/>
</g>
<!-- Node3 -->
<g id="node3" class="node">
<title>Node3</title>
<g id="a_node3"><a xlink:href="classpa_1_1vec__allocator.html#ac6f0ae398f6cbe67f4b845dcede0874a" target="_top" xlink:title=" ">
<polygon fill="white" stroke="black" points="336,-98.5 336,-128.5 442,-128.5 442,-98.5 336,-98.5"/>
<text text-anchor="start" x="344" y="-116.5" font-family="Helvetica,sans-Serif" font-size="10.00">pa::vec_allocator::</text>
<text text-anchor="middle" x="389" y="-105.5" font-family="Helvetica,sans-Serif" font-size="10.00">used_space</text>
</a>
</g>
</g>
<!-- Node2&#45;&gt;Node3 -->
<g id="edge2" class="edge">
<title>Node2&#45;&gt;Node3</title>
<path fill="none" stroke="midnightblue" d="M290.79,-111.55C302.12,-111.78 314.21,-112.02 325.88,-112.25"/>
<polygon fill="midnightblue" stroke="midnightblue" points="325.93,-115.75 335.99,-112.46 326.07,-108.76 325.93,-115.75"/>
</g>
<!-- Node4 -->
<g id="node4" class="node">
<title>Node4</title>
<g id="a_node4"><a xlink:href="classpa_1_1vec__allocator.html#a259cb5a711406a8c3e5d937eb9350cca" target="_top" xlink:title=" ">
<polygon fill="white" stroke="black" points="478,-104 478,-123 603,-123 603,-104 478,-104"/>
<text text-anchor="middle" x="540.5" y="-111" font-family="Helvetica,sans-Serif" font-size="10.00">pa::vec_allocator::size</text>
</a>
</g>
</g>
<!-- Node3&#45;&gt;Node4 -->
<g id="edge3" class="edge">
<title>Node3&#45;&gt;Node4</title>
<path fill="none" stroke="midnightblue" d="M442.29,-113.5C450.52,-113.5 459.15,-113.5 467.73,-113.5"/>
<polygon fill="midnightblue" stroke="midnightblue" points="467.75,-117 477.75,-113.5 467.75,-110 467.75,-117"/>
</g>
<!-- Node6 -->
<g id="node6" class="node">
<title>Node6</title>
<g id="a_node6"><a xlink:href="structpa_1_1vec__allocator_1_1findstack.html#ad950587c89b4306f927b08b5e5cb7e89" target="_top" xlink:title=" ">
<polygon fill="white" stroke="black" points="336,-49.5 336,-79.5 442,-79.5 442,-49.5 336,-49.5"/>
<text text-anchor="start" x="344" y="-67.5" font-family="Helvetica,sans-Serif" font-size="10.00">pa::vec_allocator::</text>
<text text-anchor="middle" x="389" y="-56.5" font-family="Helvetica,sans-Serif" font-size="10.00">findstack::begin</text>
</a>
</g>
</g>
<!-- Node5&#45;&gt;Node6 -->
<g id="edge5" class="edge">
<title>Node5&#45;&gt;Node6</title>
<path fill="none" stroke="midnightblue" d="M300.17,-64.5C308.63,-64.5 317.33,-64.5 325.8,-64.5"/>
<polygon fill="midnightblue" stroke="midnightblue" points="325.99,-68 335.99,-64.5 325.99,-61 325.99,-68"/>
</g>
<!-- Node7 -->
<g id="node7" class="node">
<title>Node7</title>
<g id="a_node7"><a xlink:href="structpa_1_1vec__allocator_1_1findstack.html#a7727305d5e1ec66a181e22c43af9a581" target="_top" xlink:title=" ">
<polygon fill="white" stroke="black" points="336,-0.5 336,-30.5 442,-30.5 442,-0.5 336,-0.5"/>
<text text-anchor="start" x="344" y="-18.5" font-family="Helvetica,sans-Serif" font-size="10.00">pa::vec_allocator::</text>
<text text-anchor="middle" x="389" y="-7.5" font-family="Helvetica,sans-Serif" font-size="10.00">findstack::end</text>
</a>
</g>
</g>
<!-- Node5&#45;&gt;Node7 -->
<g id="edge6" class="edge">
<title>Node5&#45;&gt;Node7</title>
<path fill="none" stroke="midnightblue" d="M267.68,-54.94C286.11,-48.89 310.52,-40.89 332.53,-33.68"/>
<polygon fill="midnightblue" stroke="midnightblue" points="333.71,-36.98 342.12,-30.54 331.53,-30.33 333.71,-36.98"/>
</g>
</g>
</svg>
