<?xml version="1.0" encoding="UTF-8" standalone="no"?>
<!DOCTYPE svg PUBLIC "-//W3C//DTD SVG 1.1//EN"
 "http://www.w3.org/Graphics/SVG/1.1/DTD/svg11.dtd">
<!-- Generated by graphviz version 2.43.0 (0)
 -->
<!-- Title: specialized&#45;lbfgs.hpp Pages: 1 -->
<svg width="1124pt" height="397pt"
 viewBox="0.00 0.00 1124.36 397.00" xmlns="http://www.w3.org/2000/svg" xmlns:xlink="http://www.w3.org/1999/xlink">
<g id="graph0" class="graph" transform="scale(1 1) rotate(0) translate(4 393)">
<title>specialized&#45;lbfgs.hpp</title>
<polygon fill="white" stroke="transparent" points="-4,4 -4,-393 1120.36,-393 1120.36,4 -4,4"/>
<!-- Node1 -->
<g id="node1" class="node">
<title>Node1</title>
<g id="a_node1"><a xlink:title=" ">
<polygon fill="#bfbfbf" stroke="black" points="769,-369.5 769,-388.5 889,-388.5 889,-369.5 769,-369.5"/>
<text text-anchor="middle" x="829" y="-376.5" font-family="Helvetica,sans-Serif" font-size="10.00">specialized&#45;lbfgs.hpp</text>
</a>
</g>
</g>
<!-- Node2 -->
<g id="node2" class="node">
<title>Node2</title>
<g id="a_node2"><a xlink:href="panoc-helpers_8hpp.html" target="_top" xlink:title=" ">
<polygon fill="white" stroke="black" points="371.5,-302.5 371.5,-332.5 498.5,-332.5 498.5,-302.5 371.5,-302.5"/>
<text text-anchor="start" x="379.5" y="-320.5" font-family="Helvetica,sans-Serif" font-size="10.00">panoc&#45;alm/inner/detail</text>
<text text-anchor="middle" x="435" y="-309.5" font-family="Helvetica,sans-Serif" font-size="10.00">/panoc&#45;helpers.hpp</text>
</a>
</g>
</g>
<!-- Node1&#45;&gt;Node2 -->
<g id="edge1" class="edge">
<title>Node1&#45;&gt;Node2</title>
<path fill="none" stroke="midnightblue" d="M772.55,-369.48C703.11,-358.99 585.05,-341.16 508.57,-329.61"/>
<polygon fill="midnightblue" stroke="midnightblue" points="508.94,-326.13 498.53,-328.09 507.89,-333.05 508.94,-326.13"/>
</g>
<!-- Node17 -->
<g id="node17" class="node">
<title>Node17</title>
<g id="a_node17"><a xlink:href="decl_2specialized-lbfgs_8hpp.html" target="_top" xlink:title=" ">
<polygon fill="white" stroke="black" points="857.5,-302.5 857.5,-332.5 1004.5,-332.5 1004.5,-302.5 857.5,-302.5"/>
<text text-anchor="start" x="865.5" y="-320.5" font-family="Helvetica,sans-Serif" font-size="10.00">panoc&#45;alm/inner/directions</text>
<text text-anchor="middle" x="931" y="-309.5" font-family="Helvetica,sans-Serif" font-size="10.00">/decl/specialized&#45;lbfgs.hpp</text>
</a>
</g>
</g>
<!-- Node1&#45;&gt;Node17 -->
<g id="edge17" class="edge">
<title>Node1&#45;&gt;Node17</title>
<path fill="none" stroke="midnightblue" d="M843.61,-369.48C857.82,-361.19 879.87,-348.32 898.27,-337.59"/>
<polygon fill="midnightblue" stroke="midnightblue" points="900.09,-340.58 906.96,-332.52 896.56,-334.54 900.09,-340.58"/>
</g>
<!-- Node20 -->
<g id="node20" class="node">
<title>Node20</title>
<g id="a_node20"><a xlink:href="panoc-direction-update_8hpp.html" target="_top" xlink:title=" ">
<polygon fill="white" stroke="black" points="740.5,-168.5 740.5,-198.5 917.5,-198.5 917.5,-168.5 740.5,-168.5"/>
<text text-anchor="start" x="748.5" y="-186.5" font-family="Helvetica,sans-Serif" font-size="10.00">panoc&#45;alm/inner/directions</text>
<text text-anchor="middle" x="829" y="-175.5" font-family="Helvetica,sans-Serif" font-size="10.00">/decl/panoc&#45;direction&#45;update.hpp</text>
</a>
</g>
</g>
<!-- Node1&#45;&gt;Node20 -->
<g id="edge28" class="edge">
<title>Node1&#45;&gt;Node20</title>
<path fill="none" stroke="midnightblue" d="M829,-369.44C829,-341.51 829,-252.41 829,-208.89"/>
<polygon fill="midnightblue" stroke="midnightblue" points="832.5,-208.63 829,-198.63 825.5,-208.63 832.5,-208.63"/>
</g>
<!-- Node21 -->
<g id="node21" class="node">
<title>Node21</title>
<g id="a_node21"><a xlink:href="lbfgs_8hpp.html" target="_top" xlink:title=" ">
<polygon fill="white" stroke="black" points="653.5,-302.5 653.5,-332.5 800.5,-332.5 800.5,-302.5 653.5,-302.5"/>
<text text-anchor="start" x="661.5" y="-320.5" font-family="Helvetica,sans-Serif" font-size="10.00">panoc&#45;alm/inner/directions</text>
<text text-anchor="middle" x="727" y="-309.5" font-family="Helvetica,sans-Serif" font-size="10.00">/lbfgs.hpp</text>
</a>
</g>
</g>
<!-- Node1&#45;&gt;Node21 -->
<g id="edge24" class="edge">
<title>Node1&#45;&gt;Node21</title>
<path fill="none" stroke="midnightblue" d="M814.39,-369.48C800.18,-361.19 778.13,-348.32 759.73,-337.59"/>
<polygon fill="midnightblue" stroke="midnightblue" points="761.44,-334.54 751.04,-332.52 757.91,-340.58 761.44,-334.54"/>
</g>
<!-- Node22 -->
<g id="node22" class="node">
<title>Node22</title>
<g id="a_node22"><a xlink:title=" ">
<polygon fill="white" stroke="#bfbfbf" points="1022.5,-308 1022.5,-327 1069.5,-327 1069.5,-308 1022.5,-308"/>
<text text-anchor="middle" x="1046" y="-315" font-family="Helvetica,sans-Serif" font-size="10.00">cmath</text>
</a>
</g>
</g>
<!-- Node1&#45;&gt;Node22 -->
<g id="edge27" class="edge">
<title>Node1&#45;&gt;Node22</title>
<path fill="none" stroke="midnightblue" d="M874.16,-369.48C912.04,-361.75 967.28,-349.11 1014,-333 1015.66,-332.43 1017.36,-331.8 1019.06,-331.13"/>
<polygon fill="midnightblue" stroke="midnightblue" points="1020.79,-334.2 1028.63,-327.08 1018.06,-327.76 1020.79,-334.2"/>
</g>
<!-- Node3 -->
<g id="node3" class="node">
<title>Node3</title>
<g id="a_node3"><a xlink:href="panoc-stop-crit_8hpp.html" target="_top" xlink:title=" ">
<polygon fill="white" stroke="black" points="331.5,-235.5 331.5,-265.5 450.5,-265.5 450.5,-235.5 331.5,-235.5"/>
<text text-anchor="start" x="339.5" y="-253.5" font-family="Helvetica,sans-Serif" font-size="10.00">panoc&#45;alm/inner/decl</text>
<text text-anchor="middle" x="391" y="-242.5" font-family="Helvetica,sans-Serif" font-size="10.00">/panoc&#45;stop&#45;crit.hpp</text>
</a>
</g>
</g>
<!-- Node2&#45;&gt;Node3 -->
<g id="edge2" class="edge">
<title>Node2&#45;&gt;Node3</title>
<path fill="none" stroke="midnightblue" d="M425.45,-302.4C419.86,-294.13 412.67,-283.51 406.3,-274.1"/>
<polygon fill="midnightblue" stroke="midnightblue" points="409.03,-271.9 400.53,-265.58 403.24,-275.82 409.03,-271.9"/>
</g>
<!-- Node5 -->
<g id="node5" class="node">
<title>Node5</title>
<g id="a_node5"><a xlink:title=" ">
<polygon fill="white" stroke="#bfbfbf" points="372.5,-174 372.5,-193 437.5,-193 437.5,-174 372.5,-174"/>
<text text-anchor="middle" x="405" y="-181" font-family="Helvetica,sans-Serif" font-size="10.00">stdexcept</text>
</a>
</g>
</g>
<!-- Node2&#45;&gt;Node5 -->
<g id="edge16" class="edge">
<title>Node2&#45;&gt;Node5</title>
<path fill="none" stroke="midnightblue" d="M445.06,-302.29C455.45,-285.73 468.86,-257.73 459,-235 452.54,-220.12 439.31,-207.63 427.56,-198.79"/>
<polygon fill="midnightblue" stroke="midnightblue" points="429.57,-195.93 419.38,-193.02 425.53,-201.65 429.57,-195.93"/>
</g>
<!-- Node6 -->
<g id="node6" class="node">
<title>Node6</title>
<g id="a_node6"><a xlink:href="atomic__stop__signal_8hpp.html" target="_top" xlink:title=" ">
<polygon fill="white" stroke="black" points="0,-235.5 0,-265.5 124,-265.5 124,-235.5 0,-235.5"/>
<text text-anchor="start" x="8" y="-253.5" font-family="Helvetica,sans-Serif" font-size="10.00">panoc&#45;alm/util/atomic</text>
<text text-anchor="middle" x="62" y="-242.5" font-family="Helvetica,sans-Serif" font-size="10.00">_stop_signal.hpp</text>
</a>
</g>
</g>
<!-- Node2&#45;&gt;Node6 -->
<g id="edge5" class="edge">
<title>Node2&#45;&gt;Node6</title>
<path fill="none" stroke="midnightblue" d="M371.25,-306.52C312.26,-297.13 221.88,-282.35 134.16,-266.18"/>
<polygon fill="midnightblue" stroke="midnightblue" points="134.78,-262.74 124.31,-264.36 133.51,-269.62 134.78,-262.74"/>
</g>
<!-- Node8 -->
<g id="node8" class="node">
<title>Node8</title>
<g id="a_node8"><a xlink:href="include_2panoc-alm_2util_2problem_8hpp.html" target="_top" xlink:title=" ">
<polygon fill="white" stroke="black" points="507,-241 507,-260 659,-260 659,-241 507,-241"/>
<text text-anchor="middle" x="583" y="-248" font-family="Helvetica,sans-Serif" font-size="10.00">panoc&#45;alm/util/problem.hpp</text>
</a>
</g>
</g>
<!-- Node2&#45;&gt;Node8 -->
<g id="edge7" class="edge">
<title>Node2&#45;&gt;Node8</title>
<path fill="none" stroke="midnightblue" d="M467.11,-302.4C493.08,-290.99 529.31,-275.08 554.32,-264.1"/>
<polygon fill="midnightblue" stroke="midnightblue" points="555.88,-267.23 563.63,-260.01 553.07,-260.82 555.88,-267.23"/>
</g>
<!-- Node15 -->
<g id="node15" class="node">
<title>Node15</title>
<g id="a_node15"><a xlink:href="solverstatus_8hpp.html" target="_top" xlink:title=" ">
<polygon fill="white" stroke="black" points="142.5,-241 142.5,-260 313.5,-260 313.5,-241 142.5,-241"/>
<text text-anchor="middle" x="228" y="-248" font-family="Helvetica,sans-Serif" font-size="10.00">panoc&#45;alm/util/solverstatus.hpp</text>
</a>
</g>
</g>
<!-- Node2&#45;&gt;Node15 -->
<g id="edge14" class="edge">
<title>Node2&#45;&gt;Node15</title>
<path fill="none" stroke="midnightblue" d="M390.34,-302.48C352.91,-290.72 300.11,-274.14 265.01,-263.12"/>
<polygon fill="midnightblue" stroke="midnightblue" points="265.75,-259.69 255.16,-260.03 263.65,-266.36 265.75,-259.69"/>
</g>
<!-- Node4 -->
<g id="node4" class="node">
<title>Node4</title>
<g id="a_node4"><a xlink:title=" ">
<polygon fill="white" stroke="#bfbfbf" points="297.5,-174 297.5,-193 354.5,-193 354.5,-174 297.5,-174"/>
<text text-anchor="middle" x="326" y="-181" font-family="Helvetica,sans-Serif" font-size="10.00">ostream</text>
</a>
</g>
</g>
<!-- Node3&#45;&gt;Node4 -->
<g id="edge3" class="edge">
<title>Node3&#45;&gt;Node4</title>
<path fill="none" stroke="midnightblue" d="M376.9,-235.4C366.56,-225.06 352.52,-211.02 341.81,-200.31"/>
<polygon fill="midnightblue" stroke="midnightblue" points="344.24,-197.79 334.69,-193.19 339.29,-202.74 344.24,-197.79"/>
</g>
<!-- Node3&#45;&gt;Node5 -->
<g id="edge4" class="edge">
<title>Node3&#45;&gt;Node5</title>
<path fill="none" stroke="midnightblue" d="M394.04,-235.4C396.07,-225.96 398.76,-213.45 400.97,-203.19"/>
<polygon fill="midnightblue" stroke="midnightblue" points="404.44,-203.71 403.13,-193.19 397.6,-202.23 404.44,-203.71"/>
</g>
<!-- Node7 -->
<g id="node7" class="node">
<title>Node7</title>
<g id="a_node7"><a xlink:title=" ">
<polygon fill="white" stroke="#bfbfbf" points="37,-174 37,-193 87,-193 87,-174 37,-174"/>
<text text-anchor="middle" x="62" y="-181" font-family="Helvetica,sans-Serif" font-size="10.00">atomic</text>
</a>
</g>
</g>
<!-- Node6&#45;&gt;Node7 -->
<g id="edge6" class="edge">
<title>Node6&#45;&gt;Node7</title>
<path fill="none" stroke="midnightblue" d="M62,-235.4C62,-226.06 62,-213.71 62,-203.52"/>
<polygon fill="midnightblue" stroke="midnightblue" points="65.5,-203.19 62,-193.19 58.5,-203.19 65.5,-203.19"/>
</g>
<!-- Node9 -->
<g id="node9" class="node">
<title>Node9</title>
<g id="a_node9"><a xlink:href="box_8hpp.html" target="_top" xlink:title=" ">
<polygon fill="white" stroke="black" points="933,-112.5 933,-131.5 989,-131.5 989,-112.5 933,-112.5"/>
<text text-anchor="middle" x="961" y="-119.5" font-family="Helvetica,sans-Serif" font-size="10.00">box.hpp</text>
</a>
</g>
</g>
<!-- Node8&#45;&gt;Node9 -->
<g id="edge8" class="edge">
<title>Node8&#45;&gt;Node9</title>
<path fill="none" stroke="midnightblue" d="M586.69,-240.81C594.47,-223.66 614.35,-185.56 644,-168 690.44,-140.5 848.84,-128.83 922.62,-124.79"/>
<polygon fill="midnightblue" stroke="midnightblue" points="923.06,-128.27 932.86,-124.25 922.69,-121.28 923.06,-128.27"/>
</g>
<!-- Node12 -->
<g id="node12" class="node">
<title>Node12</title>
<g id="a_node12"><a xlink:title=" ">
<polygon fill="white" stroke="#bfbfbf" points="455.5,-174 455.5,-193 520.5,-193 520.5,-174 455.5,-174"/>
<text text-anchor="middle" x="488" y="-181" font-family="Helvetica,sans-Serif" font-size="10.00">functional</text>
</a>
</g>
</g>
<!-- Node8&#45;&gt;Node12 -->
<g id="edge11" class="edge">
<title>Node8&#45;&gt;Node12</title>
<path fill="none" stroke="midnightblue" d="M570.19,-240.73C554.52,-230.01 527.78,-211.72 509.07,-198.91"/>
<polygon fill="midnightblue" stroke="midnightblue" points="510.84,-195.89 500.61,-193.13 506.89,-201.66 510.84,-195.89"/>
</g>
<!-- Node13 -->
<g id="node13" class="node">
<title>Node13</title>
<g id="a_node13"><a xlink:title=" ">
<polygon fill="white" stroke="#bfbfbf" points="539,-174 539,-193 597,-193 597,-174 539,-174"/>
<text text-anchor="middle" x="568" y="-181" font-family="Helvetica,sans-Serif" font-size="10.00">memory</text>
</a>
</g>
</g>
<!-- Node8&#45;&gt;Node13 -->
<g id="edge12" class="edge">
<title>Node8&#45;&gt;Node13</title>
<path fill="none" stroke="midnightblue" d="M580.98,-240.73C578.75,-231.09 575.11,-215.3 572.25,-202.91"/>
<polygon fill="midnightblue" stroke="midnightblue" points="575.65,-202.08 569.99,-193.13 568.83,-203.66 575.65,-202.08"/>
</g>
<!-- Node14 -->
<g id="node14" class="node">
<title>Node14</title>
<g id="a_node14"><a xlink:title=" ">
<polygon fill="white" stroke="#bfbfbf" points="653.5,-174 653.5,-193 722.5,-193 722.5,-174 653.5,-174"/>
<text text-anchor="middle" x="688" y="-181" font-family="Helvetica,sans-Serif" font-size="10.00">type_traits</text>
</a>
</g>
</g>
<!-- Node8&#45;&gt;Node14 -->
<g id="edge13" class="edge">
<title>Node8&#45;&gt;Node14</title>
<path fill="none" stroke="midnightblue" d="M597.16,-240.73C614.71,-229.87 644.84,-211.22 665.56,-198.39"/>
<polygon fill="midnightblue" stroke="midnightblue" points="667.4,-201.37 674.06,-193.13 663.72,-195.41 667.4,-201.37"/>
</g>
<!-- Node10 -->
<g id="node10" class="node">
<title>Node10</title>
<g id="a_node10"><a xlink:href="vec_8hpp.html" target="_top" xlink:title=" ">
<polygon fill="white" stroke="black" points="961.5,-56.5 961.5,-75.5 1016.5,-75.5 1016.5,-56.5 961.5,-56.5"/>
<text text-anchor="middle" x="989" y="-63.5" font-family="Helvetica,sans-Serif" font-size="10.00">vec.hpp</text>
</a>
</g>
</g>
<!-- Node9&#45;&gt;Node10 -->
<g id="edge9" class="edge">
<title>Node9&#45;&gt;Node10</title>
<path fill="none" stroke="midnightblue" d="M965.62,-112.08C969.46,-104.69 975.02,-93.95 979.76,-84.81"/>
<polygon fill="midnightblue" stroke="midnightblue" points="982.97,-86.24 984.46,-75.75 976.75,-83.02 982.97,-86.24"/>
</g>
<!-- Node11 -->
<g id="node11" class="node">
<title>Node11</title>
<g id="a_node11"><a xlink:title=" ">
<polygon fill="white" stroke="#bfbfbf" points="954.5,-0.5 954.5,-19.5 1023.5,-19.5 1023.5,-0.5 954.5,-0.5"/>
<text text-anchor="middle" x="989" y="-7.5" font-family="Helvetica,sans-Serif" font-size="10.00">Eigen/Core</text>
</a>
</g>
</g>
<!-- Node10&#45;&gt;Node11 -->
<g id="edge10" class="edge">
<title>Node10&#45;&gt;Node11</title>
<path fill="none" stroke="midnightblue" d="M989,-56.08C989,-49.01 989,-38.86 989,-29.99"/>
<polygon fill="midnightblue" stroke="midnightblue" points="992.5,-29.75 989,-19.75 985.5,-29.75 992.5,-29.75"/>
</g>
<!-- Node16 -->
<g id="node16" class="node">
<title>Node16</title>
<g id="a_node16"><a xlink:title=" ">
<polygon fill="white" stroke="#bfbfbf" points="204,-174 204,-193 252,-193 252,-174 204,-174"/>
<text text-anchor="middle" x="228" y="-181" font-family="Helvetica,sans-Serif" font-size="10.00">iosfwd</text>
</a>
</g>
</g>
<!-- Node15&#45;&gt;Node16 -->
<g id="edge15" class="edge">
<title>Node15&#45;&gt;Node16</title>
<path fill="none" stroke="midnightblue" d="M228,-240.73C228,-231.18 228,-215.62 228,-203.28"/>
<polygon fill="midnightblue" stroke="midnightblue" points="231.5,-203.13 228,-193.13 224.5,-203.13 231.5,-203.13"/>
</g>
<!-- Node18 -->
<g id="node18" class="node">
<title>Node18</title>
<g id="a_node18"><a xlink:href="decl_2lbfgs_8hpp.html" target="_top" xlink:title=" ">
<polygon fill="white" stroke="black" points="896.5,-235.5 896.5,-265.5 1043.5,-265.5 1043.5,-235.5 896.5,-235.5"/>
<text text-anchor="start" x="904.5" y="-253.5" font-family="Helvetica,sans-Serif" font-size="10.00">panoc&#45;alm/inner/directions</text>
<text text-anchor="middle" x="970" y="-242.5" font-family="Helvetica,sans-Serif" font-size="10.00">/decl/lbfgs.hpp</text>
</a>
</g>
</g>
<!-- Node17&#45;&gt;Node18 -->
<g id="edge18" class="edge">
<title>Node17&#45;&gt;Node18</title>
<path fill="none" stroke="midnightblue" d="M939.46,-302.4C944.37,-294.22 950.66,-283.73 956.26,-274.39"/>
<polygon fill="midnightblue" stroke="midnightblue" points="959.41,-275.95 961.55,-265.58 953.41,-272.35 959.41,-275.95"/>
</g>
<!-- Node18&#45;&gt;Node9 -->
<g id="edge19" class="edge">
<title>Node18&#45;&gt;Node9</title>
<path fill="none" stroke="midnightblue" d="M1026.01,-235.41C1067.89,-222.03 1114.35,-199.3 1092,-168 1071.13,-138.76 1030.01,-128.32 999.38,-124.7"/>
<polygon fill="midnightblue" stroke="midnightblue" points="999.32,-121.18 989.03,-123.68 998.64,-128.14 999.32,-121.18"/>
</g>
<!-- Node18&#45;&gt;Node10 -->
<g id="edge20" class="edge">
<title>Node18&#45;&gt;Node10</title>
<path fill="none" stroke="midnightblue" d="M1043.55,-239.82C1068.16,-232.68 1093.09,-220.33 1108,-199 1141.17,-151.54 1061.77,-102.73 1017.01,-80.05"/>
<polygon fill="midnightblue" stroke="midnightblue" points="1018.55,-76.91 1008.04,-75.62 1015.45,-83.19 1018.55,-76.91"/>
</g>
<!-- Node19 -->
<g id="node19" class="node">
<title>Node19</title>
<g id="a_node19"><a xlink:href="lbfgs-fwd_8hpp.html" target="_top" xlink:title=" ">
<polygon fill="white" stroke="black" points="935.5,-168.5 935.5,-198.5 1082.5,-198.5 1082.5,-168.5 935.5,-168.5"/>
<text text-anchor="start" x="943.5" y="-186.5" font-family="Helvetica,sans-Serif" font-size="10.00">panoc&#45;alm/inner/directions</text>
<text text-anchor="middle" x="1009" y="-175.5" font-family="Helvetica,sans-Serif" font-size="10.00">/decl/lbfgs&#45;fwd.hpp</text>
</a>
</g>
</g>
<!-- Node18&#45;&gt;Node19 -->
<g id="edge21" class="edge">
<title>Node18&#45;&gt;Node19</title>
<path fill="none" stroke="midnightblue" d="M978.46,-235.4C983.37,-227.22 989.66,-216.73 995.26,-207.39"/>
<polygon fill="midnightblue" stroke="midnightblue" points="998.41,-208.95 1000.55,-198.58 992.41,-205.35 998.41,-208.95"/>
</g>
<!-- Node18&#45;&gt;Node20 -->
<g id="edge22" class="edge">
<title>Node18&#45;&gt;Node20</title>
<path fill="none" stroke="midnightblue" d="M939.41,-235.4C918.71,-225.86 891.18,-213.16 868.78,-202.84"/>
<polygon fill="midnightblue" stroke="midnightblue" points="870.08,-199.58 859.54,-198.58 867.15,-205.94 870.08,-199.58"/>
</g>
<!-- Node20&#45;&gt;Node9 -->
<g id="edge23" class="edge">
<title>Node20&#45;&gt;Node9</title>
<path fill="none" stroke="midnightblue" d="M860.28,-168.4C882.23,-158.51 911.34,-145.38 932.62,-135.79"/>
<polygon fill="midnightblue" stroke="midnightblue" points="934.11,-138.96 941.79,-131.66 931.24,-132.58 934.11,-138.96"/>
</g>
<!-- Node21&#45;&gt;Node14 -->
<g id="edge26" class="edge">
<title>Node21&#45;&gt;Node14</title>
<path fill="none" stroke="midnightblue" d="M722.83,-302.37C715.71,-278.29 701.24,-229.31 693.38,-202.7"/>
<polygon fill="midnightblue" stroke="midnightblue" points="696.73,-201.7 690.54,-193.1 690.02,-203.68 696.73,-201.7"/>
</g>
<!-- Node21&#45;&gt;Node18 -->
<g id="edge25" class="edge">
<title>Node21&#45;&gt;Node18</title>
<path fill="none" stroke="midnightblue" d="M779.43,-302.48C816.99,-292.43 867.73,-278.86 907.41,-268.24"/>
<polygon fill="midnightblue" stroke="midnightblue" points="908.49,-271.58 917.25,-265.61 906.68,-264.81 908.49,-271.58"/>
</g>
</g>
</svg>
