<?xml version="1.0" encoding="UTF-8" standalone="no"?>
<!DOCTYPE svg PUBLIC "-//W3C//DTD SVG 1.1//EN"
 "http://www.w3.org/Graphics/SVG/1.1/DTD/svg11.dtd">
<!-- Generated by graphviz version 2.43.0 (0)
 -->
<!-- Title: panoc.hpp Pages: 1 -->
<svg width="1826pt" height="341pt"
 viewBox="0.00 0.00 1825.50 341.00" xmlns="http://www.w3.org/2000/svg" xmlns:xlink="http://www.w3.org/1999/xlink">
<g id="graph0" class="graph" transform="scale(1 1) rotate(0) translate(4 337)">
<title>panoc.hpp</title>
<polygon fill="white" stroke="transparent" points="-4,4 -4,-337 1821.5,-337 1821.5,4 -4,4"/>
<!-- Node1 -->
<g id="node1" class="node">
<title>Node1</title>
<g id="a_node1"><a xlink:title=" ">
<polygon fill="#bfbfbf" stroke="black" points="1243.5,-313.5 1243.5,-332.5 1310.5,-332.5 1310.5,-313.5 1243.5,-313.5"/>
<text text-anchor="middle" x="1277" y="-320.5" font-family="Helvetica,sans-Serif" font-size="10.00">panoc.hpp</text>
</a>
</g>
</g>
<!-- Node2 -->
<g id="node2" class="node">
<title>Node2</title>
<g id="a_node2"><a xlink:href="inner_2decl_2panoc_8hpp.html" target="_top" xlink:title=" ">
<polygon fill="white" stroke="black" points="447.5,-246.5 447.5,-276.5 566.5,-276.5 566.5,-246.5 447.5,-246.5"/>
<text text-anchor="start" x="455.5" y="-264.5" font-family="Helvetica,sans-Serif" font-size="10.00">panoc&#45;alm/inner/decl</text>
<text text-anchor="middle" x="507" y="-253.5" font-family="Helvetica,sans-Serif" font-size="10.00">/panoc.hpp</text>
</a>
</g>
</g>
<!-- Node1&#45;&gt;Node2 -->
<g id="edge1" class="edge">
<title>Node1&#45;&gt;Node2</title>
<path fill="none" stroke="midnightblue" d="M1243.42,-319.41C1126.72,-310.39 737.22,-280.29 576.88,-267.9"/>
<polygon fill="midnightblue" stroke="midnightblue" points="576.9,-264.39 566.66,-267.11 576.36,-271.37 576.9,-264.39"/>
</g>
<!-- Node8 -->
<g id="node8" class="node">
<title>Node8</title>
<g id="a_node8"><a xlink:title=" ">
<polygon fill="white" stroke="#bfbfbf" points="993.5,-118 993.5,-137 1058.5,-137 1058.5,-118 993.5,-118"/>
<text text-anchor="middle" x="1026" y="-125" font-family="Helvetica,sans-Serif" font-size="10.00">stdexcept</text>
</a>
</g>
</g>
<!-- Node1&#45;&gt;Node8 -->
<g id="edge44" class="edge">
<title>Node1&#45;&gt;Node8</title>
<path fill="none" stroke="midnightblue" d="M1277.57,-313.46C1278.73,-288.76 1278.49,-216.67 1240,-179 1233.83,-172.96 1129.37,-150.21 1068.72,-137.4"/>
<polygon fill="midnightblue" stroke="midnightblue" points="1069.17,-133.92 1058.67,-135.28 1067.73,-140.77 1069.17,-133.92"/>
</g>
<!-- Node10 -->
<g id="node10" class="node">
<title>Node10</title>
<g id="a_node10"><a xlink:href="box_8hpp.html" target="_top" xlink:title=" ">
<polygon fill="white" stroke="black" points="1105.5,-118 1105.5,-137 1234.5,-137 1234.5,-118 1105.5,-118"/>
<text text-anchor="middle" x="1170" y="-125" font-family="Helvetica,sans-Serif" font-size="10.00">panoc&#45;alm/util/box.hpp</text>
</a>
</g>
</g>
<!-- Node1&#45;&gt;Node10 -->
<g id="edge41" class="edge">
<title>Node1&#45;&gt;Node10</title>
<path fill="none" stroke="midnightblue" d="M1279.49,-313.38C1285.81,-289.68 1300.01,-222.42 1272,-179 1259.75,-160.01 1238.08,-147.91 1217.86,-140.33"/>
<polygon fill="midnightblue" stroke="midnightblue" points="1219,-137.02 1208.4,-137.06 1216.71,-143.63 1219,-137.02"/>
</g>
<!-- Node13 -->
<g id="node13" class="node">
<title>Node13</title>
<g id="a_node13"><a xlink:href="atomic__stop__signal_8hpp.html" target="_top" xlink:title=" ">
<polygon fill="white" stroke="black" points="547,-179.5 547,-209.5 671,-209.5 671,-179.5 547,-179.5"/>
<text text-anchor="start" x="555" y="-197.5" font-family="Helvetica,sans-Serif" font-size="10.00">panoc&#45;alm/util/atomic</text>
<text text-anchor="middle" x="609" y="-186.5" font-family="Helvetica,sans-Serif" font-size="10.00">_stop_signal.hpp</text>
</a>
</g>
</g>
<!-- Node1&#45;&gt;Node13 -->
<g id="edge40" class="edge">
<title>Node1&#45;&gt;Node13</title>
<path fill="none" stroke="midnightblue" d="M1243.35,-319.49C1178.44,-314.29 1031.59,-300.79 910,-277 822.18,-259.82 722.27,-230.84 662.51,-212.47"/>
<polygon fill="midnightblue" stroke="midnightblue" points="663.49,-209.11 652.91,-209.51 661.43,-215.8 663.49,-209.11"/>
</g>
<!-- Node25 -->
<g id="node25" class="node">
<title>Node25</title>
<g id="a_node25"><a xlink:href="panoc-helpers_8hpp.html" target="_top" xlink:title=" ">
<polygon fill="white" stroke="black" points="918.5,-246.5 918.5,-276.5 1045.5,-276.5 1045.5,-246.5 918.5,-246.5"/>
<text text-anchor="start" x="926.5" y="-264.5" font-family="Helvetica,sans-Serif" font-size="10.00">panoc&#45;alm/inner/detail</text>
<text text-anchor="middle" x="982" y="-253.5" font-family="Helvetica,sans-Serif" font-size="10.00">/panoc&#45;helpers.hpp</text>
</a>
</g>
</g>
<!-- Node1&#45;&gt;Node25 -->
<g id="edge27" class="edge">
<title>Node1&#45;&gt;Node25</title>
<path fill="none" stroke="midnightblue" d="M1243.45,-315.23C1198.03,-306.07 1115.75,-289.48 1055.6,-277.34"/>
<polygon fill="midnightblue" stroke="midnightblue" points="1056.26,-273.91 1045.77,-275.36 1054.88,-280.77 1056.26,-273.91"/>
</g>
<!-- Node26 -->
<g id="node26" class="node">
<title>Node26</title>
<g id="a_node26"><a xlink:href="alloc_8hpp.html" target="_top" xlink:title=" ">
<polygon fill="white" stroke="black" points="1459,-252 1459,-271 1593,-271 1593,-252 1459,-252"/>
<text text-anchor="middle" x="1526" y="-259" font-family="Helvetica,sans-Serif" font-size="10.00">panoc&#45;alm/util/alloc.hpp</text>
</a>
</g>
</g>
<!-- Node1&#45;&gt;Node26 -->
<g id="edge33" class="edge">
<title>Node1&#45;&gt;Node26</title>
<path fill="none" stroke="midnightblue" d="M1310.58,-313.98C1354.42,-303.5 1431.33,-285.12 1480.41,-273.39"/>
<polygon fill="midnightblue" stroke="midnightblue" points="1481.22,-276.8 1490.14,-271.07 1479.6,-269.99 1481.22,-276.8"/>
</g>
<!-- Node32 -->
<g id="node32" class="node">
<title>Node32</title>
<g id="a_node32"><a xlink:title=" ">
<polygon fill="white" stroke="#bfbfbf" points="1611,-252 1611,-271 1667,-271 1667,-252 1611,-252"/>
<text text-anchor="middle" x="1639" y="-259" font-family="Helvetica,sans-Serif" font-size="10.00">iomanip</text>
</a>
</g>
</g>
<!-- Node1&#45;&gt;Node32 -->
<g id="edge42" class="edge">
<title>Node1&#45;&gt;Node32</title>
<path fill="none" stroke="midnightblue" d="M1310.73,-319.96C1370.33,-315.77 1497.84,-304.21 1602,-277 1604.66,-276.3 1607.39,-275.47 1610.1,-274.57"/>
<polygon fill="midnightblue" stroke="midnightblue" points="1611.51,-277.78 1619.7,-271.06 1609.11,-271.21 1611.51,-277.78"/>
</g>
<!-- Node33 -->
<g id="node33" class="node">
<title>Node33</title>
<g id="a_node33"><a xlink:title=" ">
<polygon fill="white" stroke="#bfbfbf" points="1685,-252 1685,-271 1745,-271 1745,-252 1685,-252"/>
<text text-anchor="middle" x="1715" y="-259" font-family="Helvetica,sans-Serif" font-size="10.00">iostream</text>
</a>
</g>
</g>
<!-- Node1&#45;&gt;Node33 -->
<g id="edge43" class="edge">
<title>Node1&#45;&gt;Node33</title>
<path fill="none" stroke="midnightblue" d="M1310.58,-320.97C1379.81,-318.24 1543.1,-308.7 1676,-277 1679,-276.29 1682.07,-275.41 1685.13,-274.44"/>
<polygon fill="midnightblue" stroke="midnightblue" points="1686.35,-277.72 1694.65,-271.13 1684.05,-271.11 1686.35,-277.72"/>
</g>
<!-- Node3 -->
<g id="node3" class="node">
<title>Node3</title>
<g id="a_node3"><a xlink:href="lbfgs-stepsize_8hpp.html" target="_top" xlink:title=" ">
<polygon fill="white" stroke="black" points="241.5,-179.5 241.5,-209.5 360.5,-209.5 360.5,-179.5 241.5,-179.5"/>
<text text-anchor="start" x="249.5" y="-197.5" font-family="Helvetica,sans-Serif" font-size="10.00">panoc&#45;alm/inner/decl</text>
<text text-anchor="middle" x="301" y="-186.5" font-family="Helvetica,sans-Serif" font-size="10.00">/lbfgs&#45;stepsize.hpp</text>
</a>
</g>
</g>
<!-- Node2&#45;&gt;Node3 -->
<g id="edge2" class="edge">
<title>Node2&#45;&gt;Node3</title>
<path fill="none" stroke="midnightblue" d="M462.55,-246.48C431.12,-236.56 388.79,-223.2 355.35,-212.65"/>
<polygon fill="midnightblue" stroke="midnightblue" points="356.31,-209.28 345.72,-209.61 354.2,-215.96 356.31,-209.28"/>
</g>
<!-- Node4 -->
<g id="node4" class="node">
<title>Node4</title>
<g id="a_node4"><a xlink:href="panoc-fwd_8hpp.html" target="_top" xlink:title=" ">
<polygon fill="white" stroke="black" points="104.5,-179.5 104.5,-209.5 223.5,-209.5 223.5,-179.5 104.5,-179.5"/>
<text text-anchor="start" x="112.5" y="-197.5" font-family="Helvetica,sans-Serif" font-size="10.00">panoc&#45;alm/inner/decl</text>
<text text-anchor="middle" x="164" y="-186.5" font-family="Helvetica,sans-Serif" font-size="10.00">/panoc&#45;fwd.hpp</text>
</a>
</g>
</g>
<!-- Node2&#45;&gt;Node4 -->
<g id="edge3" class="edge">
<title>Node2&#45;&gt;Node4</title>
<path fill="none" stroke="midnightblue" d="M447.36,-250.05C393.88,-240.57 313.01,-225.95 233.83,-210.34"/>
<polygon fill="midnightblue" stroke="midnightblue" points="234.17,-206.84 223.68,-208.33 232.81,-213.7 234.17,-206.84"/>
</g>
<!-- Node6 -->
<g id="node6" class="node">
<title>Node6</title>
<g id="a_node6"><a xlink:href="panoc-stop-crit_8hpp.html" target="_top" xlink:title=" ">
<polygon fill="white" stroke="black" points="878.5,-179.5 878.5,-209.5 997.5,-209.5 997.5,-179.5 878.5,-179.5"/>
<text text-anchor="start" x="886.5" y="-197.5" font-family="Helvetica,sans-Serif" font-size="10.00">panoc&#45;alm/inner/decl</text>
<text text-anchor="middle" x="938" y="-186.5" font-family="Helvetica,sans-Serif" font-size="10.00">/panoc&#45;stop&#45;crit.hpp</text>
</a>
</g>
</g>
<!-- Node2&#45;&gt;Node6 -->
<g id="edge5" class="edge">
<title>Node2&#45;&gt;Node6</title>
<path fill="none" stroke="midnightblue" d="M566.62,-253.54C636.61,-245.07 756.35,-229.65 868.24,-210.24"/>
<polygon fill="midnightblue" stroke="midnightblue" points="869.1,-213.65 878.34,-208.47 867.89,-206.75 869.1,-213.65"/>
</g>
<!-- Node9 -->
<g id="node9" class="node">
<title>Node9</title>
<g id="a_node9"><a xlink:href="panoc-direction-update_8hpp.html" target="_top" xlink:title=" ">
<polygon fill="white" stroke="black" points="1053.5,-179.5 1053.5,-209.5 1230.5,-209.5 1230.5,-179.5 1053.5,-179.5"/>
<text text-anchor="start" x="1061.5" y="-197.5" font-family="Helvetica,sans-Serif" font-size="10.00">panoc&#45;alm/inner/directions</text>
<text text-anchor="middle" x="1142" y="-186.5" font-family="Helvetica,sans-Serif" font-size="10.00">/decl/panoc&#45;direction&#45;update.hpp</text>
</a>
</g>
</g>
<!-- Node2&#45;&gt;Node9 -->
<g id="edge8" class="edge">
<title>Node2&#45;&gt;Node9</title>
<path fill="none" stroke="midnightblue" d="M566.66,-254.6C660.42,-245.29 847.98,-226.57 1007,-210 1018.72,-208.78 1031.02,-207.48 1043.21,-206.18"/>
<polygon fill="midnightblue" stroke="midnightblue" points="1043.84,-209.64 1053.41,-205.1 1043.1,-202.68 1043.84,-209.64"/>
</g>
<!-- Node2&#45;&gt;Node13 -->
<g id="edge12" class="edge">
<title>Node2&#45;&gt;Node13</title>
<path fill="none" stroke="midnightblue" d="M529.13,-246.4C543.57,-237.2 562.6,-225.07 578.47,-214.95"/>
<polygon fill="midnightblue" stroke="midnightblue" points="580.36,-217.9 586.91,-209.58 576.6,-212 580.36,-217.9"/>
</g>
<!-- Node14 -->
<g id="node14" class="node">
<title>Node14</title>
<g id="a_node14"><a xlink:title=" ">
<polygon fill="white" stroke="#bfbfbf" points="474,-118 474,-137 524,-137 524,-118 474,-118"/>
<text text-anchor="middle" x="499" y="-125" font-family="Helvetica,sans-Serif" font-size="10.00">atomic</text>
</a>
</g>
</g>
<!-- Node2&#45;&gt;Node14 -->
<g id="edge23" class="edge">
<title>Node2&#45;&gt;Node14</title>
<path fill="none" stroke="midnightblue" d="M455.09,-246.44C436.96,-238.77 418.53,-227.19 408,-210 400.8,-198.25 401.01,-190.87 408,-179 420.13,-158.39 444.04,-145.6 464.31,-138.04"/>
<polygon fill="midnightblue" stroke="midnightblue" points="465.58,-141.31 473.9,-134.74 463.3,-134.69 465.58,-141.31"/>
</g>
<!-- Node15 -->
<g id="node15" class="node">
<title>Node15</title>
<g id="a_node15"><a xlink:href="lipschitz_8hpp.html" target="_top" xlink:title=" ">
<polygon fill="white" stroke="black" points="0,-118 0,-137 152,-137 152,-118 0,-118"/>
<text text-anchor="middle" x="76" y="-125" font-family="Helvetica,sans-Serif" font-size="10.00">panoc&#45;alm/util/lipschitz.hpp</text>
</a>
</g>
</g>
<!-- Node2&#45;&gt;Node15 -->
<g id="edge14" class="edge">
<title>Node2&#45;&gt;Node15</title>
<path fill="none" stroke="midnightblue" d="M447.12,-261.29C345.55,-261.33 145.59,-255.45 95,-210 77.55,-194.33 74.55,-166.02 74.72,-147.24"/>
<polygon fill="midnightblue" stroke="midnightblue" points="78.22,-147.34 75.11,-137.21 71.22,-147.07 78.22,-147.34"/>
</g>
<!-- Node16 -->
<g id="node16" class="node">
<title>Node16</title>
<g id="a_node16"><a xlink:href="include_2panoc-alm_2util_2problem_8hpp.html" target="_top" xlink:title=" ">
<polygon fill="white" stroke="black" points="1324,-185 1324,-204 1476,-204 1476,-185 1324,-185"/>
<text text-anchor="middle" x="1400" y="-192" font-family="Helvetica,sans-Serif" font-size="10.00">panoc&#45;alm/util/problem.hpp</text>
</a>
</g>
</g>
<!-- Node2&#45;&gt;Node16 -->
<g id="edge16" class="edge">
<title>Node2&#45;&gt;Node16</title>
<path fill="none" stroke="midnightblue" d="M566.89,-256.81C691.99,-249.02 990.14,-229.93 1240,-210 1263.96,-208.09 1289.93,-205.82 1313.83,-203.65"/>
<polygon fill="midnightblue" stroke="midnightblue" points="1314.29,-207.13 1323.93,-202.73 1313.66,-200.15 1314.29,-207.13"/>
</g>
<!-- Node20 -->
<g id="node20" class="node">
<title>Node20</title>
<g id="a_node20"><a xlink:href="solverstatus_8hpp.html" target="_top" xlink:title=" ">
<polygon fill="white" stroke="black" points="689.5,-185 689.5,-204 860.5,-204 860.5,-185 689.5,-185"/>
<text text-anchor="middle" x="775" y="-192" font-family="Helvetica,sans-Serif" font-size="10.00">panoc&#45;alm/util/solverstatus.hpp</text>
</a>
</g>
</g>
<!-- Node2&#45;&gt;Node20 -->
<g id="edge21" class="edge">
<title>Node2&#45;&gt;Node20</title>
<path fill="none" stroke="midnightblue" d="M564.82,-246.48C614.32,-234.47 684.58,-217.43 729.98,-206.42"/>
<polygon fill="midnightblue" stroke="midnightblue" points="730.94,-209.79 739.84,-204.03 729.29,-202.98 730.94,-209.79"/>
</g>
<!-- Node22 -->
<g id="node22" class="node">
<title>Node22</title>
<g id="a_node22"><a xlink:title=" ">
<polygon fill="white" stroke="#bfbfbf" points="417,-185 417,-204 467,-204 467,-185 417,-185"/>
<text text-anchor="middle" x="442" y="-192" font-family="Helvetica,sans-Serif" font-size="10.00">chrono</text>
</a>
</g>
</g>
<!-- Node2&#45;&gt;Node22 -->
<g id="edge24" class="edge">
<title>Node2&#45;&gt;Node22</title>
<path fill="none" stroke="midnightblue" d="M492.9,-246.4C482.56,-236.06 468.52,-222.02 457.81,-211.31"/>
<polygon fill="midnightblue" stroke="midnightblue" points="460.24,-208.79 450.69,-204.19 455.29,-213.74 460.24,-208.79"/>
</g>
<!-- Node23 -->
<g id="node23" class="node">
<title>Node23</title>
<g id="a_node23"><a xlink:title=" ">
<polygon fill="white" stroke="#bfbfbf" points="485,-185 485,-204 529,-204 529,-185 485,-185"/>
<text text-anchor="middle" x="507" y="-192" font-family="Helvetica,sans-Serif" font-size="10.00">limits</text>
</a>
</g>
</g>
<!-- Node2&#45;&gt;Node23 -->
<g id="edge25" class="edge">
<title>Node2&#45;&gt;Node23</title>
<path fill="none" stroke="midnightblue" d="M507,-246.4C507,-237.06 507,-224.71 507,-214.52"/>
<polygon fill="midnightblue" stroke="midnightblue" points="510.5,-214.19 507,-204.19 503.5,-214.19 510.5,-214.19"/>
</g>
<!-- Node24 -->
<g id="node24" class="node">
<title>Node24</title>
<g id="a_node24"><a xlink:title=" ">
<polygon fill="white" stroke="#bfbfbf" points="4,-185 4,-204 48,-204 48,-185 4,-185"/>
<text text-anchor="middle" x="26" y="-192" font-family="Helvetica,sans-Serif" font-size="10.00">string</text>
</a>
</g>
</g>
<!-- Node2&#45;&gt;Node24 -->
<g id="edge26" class="edge">
<title>Node2&#45;&gt;Node24</title>
<path fill="none" stroke="midnightblue" d="M447.42,-258.83C361.18,-255.27 197.11,-244.2 62,-210 59.34,-209.33 56.61,-208.5 53.9,-207.58"/>
<polygon fill="midnightblue" stroke="midnightblue" points="54.96,-204.24 44.36,-204.01 52.5,-210.8 54.96,-204.24"/>
</g>
<!-- Node5 -->
<g id="node5" class="node">
<title>Node5</title>
<g id="a_node5"><a xlink:href="lbfgs-fwd_8hpp.html" target="_top" xlink:title=" ">
<polygon fill="white" stroke="black" points="170.5,-112.5 170.5,-142.5 317.5,-142.5 317.5,-112.5 170.5,-112.5"/>
<text text-anchor="start" x="178.5" y="-130.5" font-family="Helvetica,sans-Serif" font-size="10.00">panoc&#45;alm/inner/directions</text>
<text text-anchor="middle" x="244" y="-119.5" font-family="Helvetica,sans-Serif" font-size="10.00">/decl/lbfgs&#45;fwd.hpp</text>
</a>
</g>
</g>
<!-- Node4&#45;&gt;Node5 -->
<g id="edge4" class="edge">
<title>Node4&#45;&gt;Node5</title>
<path fill="none" stroke="midnightblue" d="M181.36,-179.4C192.26,-170.54 206.51,-158.96 218.66,-149.09"/>
<polygon fill="midnightblue" stroke="midnightblue" points="221.12,-151.6 226.68,-142.58 216.71,-146.17 221.12,-151.6"/>
</g>
<!-- Node7 -->
<g id="node7" class="node">
<title>Node7</title>
<g id="a_node7"><a xlink:title=" ">
<polygon fill="white" stroke="#bfbfbf" points="909.5,-118 909.5,-137 966.5,-137 966.5,-118 909.5,-118"/>
<text text-anchor="middle" x="938" y="-125" font-family="Helvetica,sans-Serif" font-size="10.00">ostream</text>
</a>
</g>
</g>
<!-- Node6&#45;&gt;Node7 -->
<g id="edge6" class="edge">
<title>Node6&#45;&gt;Node7</title>
<path fill="none" stroke="midnightblue" d="M938,-179.4C938,-170.06 938,-157.71 938,-147.52"/>
<polygon fill="midnightblue" stroke="midnightblue" points="941.5,-147.19 938,-137.19 934.5,-147.19 941.5,-147.19"/>
</g>
<!-- Node6&#45;&gt;Node8 -->
<g id="edge7" class="edge">
<title>Node6&#45;&gt;Node8</title>
<path fill="none" stroke="midnightblue" d="M957.09,-179.4C971.58,-168.7 991.43,-154.03 1006.11,-143.19"/>
<polygon fill="midnightblue" stroke="midnightblue" points="1008.52,-145.76 1014.48,-137.01 1004.36,-140.13 1008.52,-145.76"/>
</g>
<!-- Node9&#45;&gt;Node10 -->
<g id="edge9" class="edge">
<title>Node9&#45;&gt;Node10</title>
<path fill="none" stroke="midnightblue" d="M1148.08,-179.4C1152.23,-169.76 1157.76,-156.91 1162.23,-146.54"/>
<polygon fill="midnightblue" stroke="midnightblue" points="1165.51,-147.76 1166.25,-137.19 1159.08,-144.99 1165.51,-147.76"/>
</g>
<!-- Node11 -->
<g id="node11" class="node">
<title>Node11</title>
<g id="a_node11"><a xlink:href="vec_8hpp.html" target="_top" xlink:title=" ">
<polygon fill="white" stroke="black" points="581.5,-56.5 581.5,-75.5 636.5,-75.5 636.5,-56.5 581.5,-56.5"/>
<text text-anchor="middle" x="609" y="-63.5" font-family="Helvetica,sans-Serif" font-size="10.00">vec.hpp</text>
</a>
</g>
</g>
<!-- Node10&#45;&gt;Node11 -->
<g id="edge10" class="edge">
<title>Node10&#45;&gt;Node11</title>
<path fill="none" stroke="midnightblue" d="M1113.14,-117.97C1098.45,-115.89 1082.65,-113.76 1068,-112 912.16,-93.29 725.85,-76.85 647.11,-70.17"/>
<polygon fill="midnightblue" stroke="midnightblue" points="646.99,-66.65 636.73,-69.29 646.4,-73.62 646.99,-66.65"/>
</g>
<!-- Node12 -->
<g id="node12" class="node">
<title>Node12</title>
<g id="a_node12"><a xlink:title=" ">
<polygon fill="white" stroke="#bfbfbf" points="574.5,-0.5 574.5,-19.5 643.5,-19.5 643.5,-0.5 574.5,-0.5"/>
<text text-anchor="middle" x="609" y="-7.5" font-family="Helvetica,sans-Serif" font-size="10.00">Eigen/Core</text>
</a>
</g>
</g>
<!-- Node11&#45;&gt;Node12 -->
<g id="edge11" class="edge">
<title>Node11&#45;&gt;Node12</title>
<path fill="none" stroke="midnightblue" d="M609,-56.08C609,-49.01 609,-38.86 609,-29.99"/>
<polygon fill="midnightblue" stroke="midnightblue" points="612.5,-29.75 609,-19.75 605.5,-29.75 612.5,-29.75"/>
</g>
<!-- Node13&#45;&gt;Node14 -->
<g id="edge13" class="edge">
<title>Node13&#45;&gt;Node14</title>
<path fill="none" stroke="midnightblue" d="M585.13,-179.4C566.43,-168.34 540.56,-153.06 522.07,-142.13"/>
<polygon fill="midnightblue" stroke="midnightblue" points="523.79,-139.08 513.4,-137.01 520.23,-145.11 523.79,-139.08"/>
</g>
<!-- Node15&#45;&gt;Node11 -->
<g id="edge15" class="edge">
<title>Node15&#45;&gt;Node11</title>
<path fill="none" stroke="midnightblue" d="M122.68,-117.94C135.1,-115.83 148.54,-113.69 161,-112 312.48,-91.5 493.95,-76.06 571.2,-69.91"/>
<polygon fill="midnightblue" stroke="midnightblue" points="571.7,-73.38 581.39,-69.11 571.15,-66.41 571.7,-73.38"/>
</g>
<!-- Node16&#45;&gt;Node10 -->
<g id="edge17" class="edge">
<title>Node16&#45;&gt;Node10</title>
<path fill="none" stroke="midnightblue" d="M1369.46,-184.87C1328.45,-173.28 1255.5,-152.66 1210.1,-139.83"/>
<polygon fill="midnightblue" stroke="midnightblue" points="1210.88,-136.42 1200.3,-137.06 1208.97,-143.15 1210.88,-136.42"/>
</g>
<!-- Node17 -->
<g id="node17" class="node">
<title>Node17</title>
<g id="a_node17"><a xlink:title=" ">
<polygon fill="white" stroke="#bfbfbf" points="1367.5,-118 1367.5,-137 1432.5,-137 1432.5,-118 1367.5,-118"/>
<text text-anchor="middle" x="1400" y="-125" font-family="Helvetica,sans-Serif" font-size="10.00">functional</text>
</a>
</g>
</g>
<!-- Node16&#45;&gt;Node17 -->
<g id="edge18" class="edge">
<title>Node16&#45;&gt;Node17</title>
<path fill="none" stroke="midnightblue" d="M1400,-184.73C1400,-175.18 1400,-159.62 1400,-147.28"/>
<polygon fill="midnightblue" stroke="midnightblue" points="1403.5,-147.13 1400,-137.13 1396.5,-147.13 1403.5,-147.13"/>
</g>
<!-- Node18 -->
<g id="node18" class="node">
<title>Node18</title>
<g id="a_node18"><a xlink:title=" ">
<polygon fill="white" stroke="#bfbfbf" points="1451,-118 1451,-137 1509,-137 1509,-118 1451,-118"/>
<text text-anchor="middle" x="1480" y="-125" font-family="Helvetica,sans-Serif" font-size="10.00">memory</text>
</a>
</g>
</g>
<!-- Node16&#45;&gt;Node18 -->
<g id="edge19" class="edge">
<title>Node16&#45;&gt;Node18</title>
<path fill="none" stroke="midnightblue" d="M1410.79,-184.73C1423.74,-174.21 1445.69,-156.38 1461.39,-143.62"/>
<polygon fill="midnightblue" stroke="midnightblue" points="1463.83,-146.15 1469.38,-137.13 1459.41,-140.72 1463.83,-146.15"/>
</g>
<!-- Node19 -->
<g id="node19" class="node">
<title>Node19</title>
<g id="a_node19"><a xlink:title=" ">
<polygon fill="white" stroke="#bfbfbf" points="1280.5,-118 1280.5,-137 1349.5,-137 1349.5,-118 1280.5,-118"/>
<text text-anchor="middle" x="1315" y="-125" font-family="Helvetica,sans-Serif" font-size="10.00">type_traits</text>
</a>
</g>
</g>
<!-- Node16&#45;&gt;Node19 -->
<g id="edge20" class="edge">
<title>Node16&#45;&gt;Node19</title>
<path fill="none" stroke="midnightblue" d="M1388.54,-184.73C1374.64,-174.11 1351.02,-156.05 1334.31,-143.26"/>
<polygon fill="midnightblue" stroke="midnightblue" points="1336.35,-140.42 1326.28,-137.13 1332.1,-145.98 1336.35,-140.42"/>
</g>
<!-- Node21 -->
<g id="node21" class="node">
<title>Node21</title>
<g id="a_node21"><a xlink:title=" ">
<polygon fill="white" stroke="#bfbfbf" points="751,-118 751,-137 799,-137 799,-118 751,-118"/>
<text text-anchor="middle" x="775" y="-125" font-family="Helvetica,sans-Serif" font-size="10.00">iosfwd</text>
</a>
</g>
</g>
<!-- Node20&#45;&gt;Node21 -->
<g id="edge22" class="edge">
<title>Node20&#45;&gt;Node21</title>
<path fill="none" stroke="midnightblue" d="M775,-184.73C775,-175.18 775,-159.62 775,-147.28"/>
<polygon fill="midnightblue" stroke="midnightblue" points="778.5,-147.13 775,-137.13 771.5,-147.13 778.5,-147.13"/>
</g>
<!-- Node25&#45;&gt;Node6 -->
<g id="edge28" class="edge">
<title>Node25&#45;&gt;Node6</title>
<path fill="none" stroke="midnightblue" d="M972.45,-246.4C966.86,-238.13 959.67,-227.51 953.3,-218.1"/>
<polygon fill="midnightblue" stroke="midnightblue" points="956.03,-215.9 947.53,-209.58 950.24,-219.82 956.03,-215.9"/>
</g>
<!-- Node25&#45;&gt;Node8 -->
<g id="edge32" class="edge">
<title>Node25&#45;&gt;Node8</title>
<path fill="none" stroke="midnightblue" d="M990.13,-246.3C995.53,-236.39 1002.44,-222.71 1007,-210 1014.49,-189.11 1019.81,-164.13 1022.88,-147.38"/>
<polygon fill="midnightblue" stroke="midnightblue" points="1026.37,-147.71 1024.64,-137.25 1019.48,-146.5 1026.37,-147.71"/>
</g>
<!-- Node25&#45;&gt;Node13 -->
<g id="edge29" class="edge">
<title>Node25&#45;&gt;Node13</title>
<path fill="none" stroke="midnightblue" d="M918.25,-250.52C859.26,-241.13 768.88,-226.35 681.16,-210.18"/>
<polygon fill="midnightblue" stroke="midnightblue" points="681.78,-206.74 671.31,-208.36 680.51,-213.62 681.78,-206.74"/>
</g>
<!-- Node25&#45;&gt;Node16 -->
<g id="edge30" class="edge">
<title>Node25&#45;&gt;Node16</title>
<path fill="none" stroke="midnightblue" d="M1045.94,-250.56C1124.19,-238.39 1255.96,-217.9 1334.79,-205.64"/>
<polygon fill="midnightblue" stroke="midnightblue" points="1335.73,-209.04 1345.07,-204.04 1334.65,-202.12 1335.73,-209.04"/>
</g>
<!-- Node25&#45;&gt;Node20 -->
<g id="edge31" class="edge">
<title>Node25&#45;&gt;Node20</title>
<path fill="none" stroke="midnightblue" d="M937.34,-246.48C899.91,-234.72 847.11,-218.14 812.01,-207.12"/>
<polygon fill="midnightblue" stroke="midnightblue" points="812.75,-203.69 802.16,-204.03 810.65,-210.36 812.75,-203.69"/>
</g>
<!-- Node26&#45;&gt;Node16 -->
<g id="edge34" class="edge">
<title>Node26&#45;&gt;Node16</title>
<path fill="none" stroke="midnightblue" d="M1509.27,-251.87C1487.9,-240.84 1450.7,-221.66 1425.72,-208.77"/>
<polygon fill="midnightblue" stroke="midnightblue" points="1427.29,-205.64 1416.8,-204.17 1424.08,-211.86 1427.29,-205.64"/>
</g>
<!-- Node27 -->
<g id="node27" class="node">
<title>Node27</title>
<g id="a_node27"><a xlink:title=" ">
<polygon fill="white" stroke="#bfbfbf" points="1494,-185 1494,-204 1558,-204 1558,-185 1494,-185"/>
<text text-anchor="middle" x="1526" y="-192" font-family="Helvetica,sans-Serif" font-size="10.00">algorithm</text>
</a>
</g>
</g>
<!-- Node26&#45;&gt;Node27 -->
<g id="edge35" class="edge">
<title>Node26&#45;&gt;Node27</title>
<path fill="none" stroke="midnightblue" d="M1526,-251.73C1526,-242.18 1526,-226.62 1526,-214.28"/>
<polygon fill="midnightblue" stroke="midnightblue" points="1529.5,-214.13 1526,-204.13 1522.5,-214.13 1529.5,-214.13"/>
</g>
<!-- Node28 -->
<g id="node28" class="node">
<title>Node28</title>
<g id="a_node28"><a xlink:title=" ">
<polygon fill="white" stroke="#bfbfbf" points="1576,-185 1576,-204 1628,-204 1628,-185 1576,-185"/>
<text text-anchor="middle" x="1602" y="-192" font-family="Helvetica,sans-Serif" font-size="10.00">cassert</text>
</a>
</g>
</g>
<!-- Node26&#45;&gt;Node28 -->
<g id="edge36" class="edge">
<title>Node26&#45;&gt;Node28</title>
<path fill="none" stroke="midnightblue" d="M1536.25,-251.73C1548.44,-241.31 1569.02,-223.71 1583.91,-210.97"/>
<polygon fill="midnightblue" stroke="midnightblue" points="1586.59,-213.29 1591.91,-204.13 1582.04,-207.97 1586.59,-213.29"/>
</g>
<!-- Node29 -->
<g id="node29" class="node">
<title>Node29</title>
<g id="a_node29"><a xlink:title=" ">
<polygon fill="white" stroke="#bfbfbf" points="1646.5,-185 1646.5,-204 1689.5,-204 1689.5,-185 1646.5,-185"/>
<text text-anchor="middle" x="1668" y="-192" font-family="Helvetica,sans-Serif" font-size="10.00">stack</text>
</a>
</g>
</g>
<!-- Node26&#45;&gt;Node29 -->
<g id="edge37" class="edge">
<title>Node26&#45;&gt;Node29</title>
<path fill="none" stroke="midnightblue" d="M1544.88,-251.98C1566.99,-241.99 1604.7,-224.9 1637,-210 1638.15,-209.47 1639.33,-208.92 1640.52,-208.37"/>
<polygon fill="midnightblue" stroke="midnightblue" points="1642.07,-211.51 1649.66,-204.12 1639.11,-205.17 1642.07,-211.51"/>
</g>
<!-- Node30 -->
<g id="node30" class="node">
<title>Node30</title>
<g id="a_node30"><a xlink:title=" ">
<polygon fill="white" stroke="#bfbfbf" points="1707.5,-185 1707.5,-204 1752.5,-204 1752.5,-185 1707.5,-185"/>
<text text-anchor="middle" x="1730" y="-192" font-family="Helvetica,sans-Serif" font-size="10.00">utility</text>
</a>
</g>
</g>
<!-- Node26&#45;&gt;Node30 -->
<g id="edge38" class="edge">
<title>Node26&#45;&gt;Node30</title>
<path fill="none" stroke="midnightblue" d="M1560.98,-251.98C1596.29,-242.98 1652.16,-227.67 1699,-210 1700.42,-209.46 1701.87,-208.89 1703.33,-208.29"/>
<polygon fill="midnightblue" stroke="midnightblue" points="1705.08,-211.34 1712.82,-204.11 1702.26,-204.93 1705.08,-211.34"/>
</g>
<!-- Node31 -->
<g id="node31" class="node">
<title>Node31</title>
<g id="a_node31"><a xlink:title=" ">
<polygon fill="white" stroke="#bfbfbf" points="1770.5,-185 1770.5,-204 1817.5,-204 1817.5,-185 1770.5,-185"/>
<text text-anchor="middle" x="1794" y="-192" font-family="Helvetica,sans-Serif" font-size="10.00">vector</text>
</a>
</g>
</g>
<!-- Node26&#45;&gt;Node31 -->
<g id="edge39" class="edge">
<title>Node26&#45;&gt;Node31</title>
<path fill="none" stroke="midnightblue" d="M1568.18,-251.99C1631.02,-239.23 1743.79,-216 1762,-210 1763.87,-209.38 1765.77,-208.69 1767.68,-207.96"/>
<polygon fill="midnightblue" stroke="midnightblue" points="1769.15,-211.14 1777,-204.02 1766.42,-204.69 1769.15,-211.14"/>
</g>
</g>
</svg>
