<?xml version="1.0" encoding="UTF-8" standalone="no"?>
<!DOCTYPE svg PUBLIC "-//W3C//DTD SVG 1.1//EN"
 "http://www.w3.org/Graphics/SVG/1.1/DTD/svg11.dtd">
<!-- Generated by graphviz version 2.43.0 (0)
 -->
<!-- Title: y Pages: 1 -->
<svg width="123pt" height="104pt"
 viewBox="0.00 0.00 123.00 104.00" xmlns="http://www.w3.org/2000/svg" xmlns:xlink="http://www.w3.org/1999/xlink">
<g id="graph0" class="graph" transform="scale(1 1) rotate(0) translate(4 100)">
<title>y</title>
<polygon fill="white" stroke="transparent" points="-4,4 -4,-100 119,-100 119,4 -4,4"/>
<!-- Node1 -->
<g id="node1" class="node">
<title>Node1</title>
<g id="a_node1"><a xlink:title=" ">
<polygon fill="#bfbfbf" stroke="black" points="86,-38.5 86,-57.5 115,-57.5 115,-38.5 86,-38.5"/>
<text text-anchor="middle" x="100.5" y="-45.5" font-family="Helvetica,sans-Serif" font-size="10.00">y</text>
</a>
</g>
</g>
<!-- Node2 -->
<g id="node2" class="node">
<title>Node2</title>
<g id="a_node2"><a xlink:href="structpa_1_1problems_1_1RiskaverseProblem.html#a86af0c43a442d2a009639af80d3fb298" target="_top" xlink:title=" ">
<polygon fill="white" stroke="black" points="10.5,-76.5 10.5,-95.5 39.5,-95.5 39.5,-76.5 10.5,-76.5"/>
<text text-anchor="middle" x="25" y="-83.5" font-family="Helvetica,sans-Serif" font-size="10.00">g</text>
</a>
</g>
</g>
<!-- Node1&#45;&gt;Node2 -->
<g id="edge1" class="edge">
<title>Node1&#45;&gt;Node2</title>
<path fill="none" stroke="midnightblue" d="M76.55,-59.86C64.39,-66.15 49.87,-73.66 39.51,-79.01"/>
<polygon fill="midnightblue" stroke="midnightblue" points="78.4,-62.85 85.68,-55.15 75.18,-56.63 78.4,-62.85"/>
</g>
<!-- Node3 -->
<g id="node3" class="node">
<title>Node3</title>
<g id="a_node3"><a xlink:href="structpa_1_1problems_1_1RiskaverseProblem.html#a0ebd29dcf49ac9f0c29f26939fa255d3" target="_top" xlink:title=" ">
<polygon fill="white" stroke="black" points="3,-38.5 3,-57.5 47,-57.5 47,-38.5 3,-38.5"/>
<text text-anchor="middle" x="25" y="-45.5" font-family="Helvetica,sans-Serif" font-size="10.00">get_C</text>
</a>
</g>
</g>
<!-- Node1&#45;&gt;Node3 -->
<g id="edge2" class="edge">
<title>Node1&#45;&gt;Node3</title>
<path fill="none" stroke="midnightblue" d="M75.67,-48C66.53,-48 56.17,-48 47.28,-48"/>
<polygon fill="midnightblue" stroke="midnightblue" points="75.68,-51.5 85.68,-48 75.68,-44.5 75.68,-51.5"/>
</g>
<!-- Node4 -->
<g id="node4" class="node">
<title>Node4</title>
<g id="a_node4"><a xlink:href="structpa_1_1problems_1_1RiskaverseProblem.html#a4934062ead693dbdb9ae260b8689332f" target="_top" xlink:title=" ">
<polygon fill="white" stroke="black" points="0,-0.5 0,-19.5 50,-19.5 50,-0.5 0,-0.5"/>
<text text-anchor="middle" x="25" y="-7.5" font-family="Helvetica,sans-Serif" font-size="10.00">grad_g</text>
</a>
</g>
</g>
<!-- Node1&#45;&gt;Node4 -->
<g id="edge3" class="edge">
<title>Node1&#45;&gt;Node4</title>
<path fill="none" stroke="midnightblue" d="M76.76,-36.24C66.4,-30.88 54.28,-24.62 44.48,-19.56"/>
<polygon fill="midnightblue" stroke="midnightblue" points="75.18,-39.37 85.68,-40.85 78.4,-33.15 75.18,-39.37"/>
</g>
</g>
</svg>
