<?xml version="1.0" encoding="UTF-8" standalone="no"?>
<!DOCTYPE svg PUBLIC "-//W3C//DTD SVG 1.1//EN"
 "http://www.w3.org/Graphics/SVG/1.1/DTD/svg11.dtd">
<!-- Generated by graphviz version 2.43.0 (0)
 -->
<!-- Title: PolymorphicInnerSolver&lt; InnerSolver &gt;::WrappedStatsAccumulator Pages: 1 -->
<svg width="340pt" height="365pt"
 viewBox="0.00 0.00 339.50 365.00" xmlns="http://www.w3.org/2000/svg" xmlns:xlink="http://www.w3.org/1999/xlink">
<g id="graph0" class="graph" transform="scale(1 1) rotate(0) translate(4 361)">
<title>PolymorphicInnerSolver&lt; InnerSolver &gt;::WrappedStatsAccumulator</title>
<polygon fill="white" stroke="transparent" points="-4,4 -4,-361 335.5,-361 335.5,4 -4,4"/>
<!-- Node1 -->
<g id="node1" class="node">
<title>Node1</title>
<g id="a_node1"><a xlink:title=" ">
<polygon fill="#bfbfbf" stroke="black" points="91,-0.5 91,-90.5 260,-90.5 260,-0.5 91,-0.5"/>
<text text-anchor="start" x="99" y="-78.5" font-family="Helvetica,sans-Serif" font-size="10.00">PolymorphicInnerSolver</text>
<text text-anchor="start" x="99" y="-67.5" font-family="Helvetica,sans-Serif" font-size="10.00">&lt; InnerSolver &gt;::WrappedStats</text>
<text text-anchor="middle" x="175.5" y="-56.5" font-family="Helvetica,sans-Serif" font-size="10.00">Accumulator</text>
<polyline fill="none" stroke="black" points="91,-49.5 260,-49.5 "/>
<text text-anchor="middle" x="175.5" y="-37.5" font-family="Helvetica,sans-Serif" font-size="10.00"> </text>
<polyline fill="none" stroke="black" points="91,-30.5 260,-30.5 "/>
<text text-anchor="start" x="99" y="-18.5" font-family="Helvetica,sans-Serif" font-size="10.00">+ accumulate()</text>
<text text-anchor="start" x="99" y="-7.5" font-family="Helvetica,sans-Serif" font-size="10.00">+ to_dict()</text>
</a>
</g>
</g>
<!-- Node2 -->
<g id="node2" class="node">
<title>Node2</title>
<g id="a_node2"><a xlink:href="classpa_1_1PolymorphicInnerSolverStatsAccumulatorBase.html" target="_top" xlink:title=" ">
<polygon fill="white" stroke="black" points="0,-138.5 0,-239.5 177,-239.5 177,-138.5 0,-138.5"/>
<text text-anchor="start" x="8" y="-227.5" font-family="Helvetica,sans-Serif" font-size="10.00">PolymorphicInnerSolverStats</text>
<text text-anchor="middle" x="88.5" y="-216.5" font-family="Helvetica,sans-Serif" font-size="10.00">AccumulatorBase</text>
<polyline fill="none" stroke="black" points="0,-209.5 177,-209.5 "/>
<text text-anchor="middle" x="88.5" y="-197.5" font-family="Helvetica,sans-Serif" font-size="10.00"> </text>
<polyline fill="none" stroke="black" points="0,-190.5 177,-190.5 "/>
<text text-anchor="start" x="8" y="-178.5" font-family="Helvetica,sans-Serif" font-size="10.00">+ ~PolymorphicInnerSolverStats</text>
<text text-anchor="start" x="8" y="-167.5" font-family="Helvetica,sans-Serif" font-size="10.00">AccumulatorBase()</text>
<text text-anchor="start" x="8" y="-156.5" font-family="Helvetica,sans-Serif" font-size="10.00">+ to_dict()</text>
<text text-anchor="start" x="8" y="-145.5" font-family="Helvetica,sans-Serif" font-size="10.00">+ accumulate()</text>
</a>
</g>
</g>
<!-- Node2&#45;&gt;Node1 -->
<g id="edge1" class="edge">
<title>Node2&#45;&gt;Node1</title>
<path fill="none" stroke="midnightblue" d="M124.59,-129.3C132.52,-116.41 140.78,-102.97 148.29,-90.76"/>
<polygon fill="none" stroke="midnightblue" points="121.43,-127.76 119.17,-138.11 127.39,-131.43 121.43,-127.76"/>
</g>
<!-- Node3 -->
<g id="node3" class="node">
<title>Node3</title>
<g id="a_node3"><a xlink:title=" ">
<polygon fill="white" stroke="#bfbfbf" points="5,-277.5 5,-356.5 172,-356.5 172,-277.5 5,-277.5"/>
<text text-anchor="start" x="13" y="-344.5" font-family="Helvetica,sans-Serif" font-size="10.00">enable_shared_from</text>
<text text-anchor="start" x="13" y="-333.5" font-family="Helvetica,sans-Serif" font-size="10.00">_this&lt; PolymorphicInnerSolver</text>
<text text-anchor="middle" x="88.5" y="-322.5" font-family="Helvetica,sans-Serif" font-size="10.00">StatsAccumulatorBase &gt;</text>
<polyline fill="none" stroke="#bfbfbf" points="5,-315.5 172,-315.5 "/>
<text text-anchor="middle" x="88.5" y="-303.5" font-family="Helvetica,sans-Serif" font-size="10.00"> </text>
<polyline fill="none" stroke="#bfbfbf" points="5,-296.5 172,-296.5 "/>
<text text-anchor="middle" x="88.5" y="-284.5" font-family="Helvetica,sans-Serif" font-size="10.00"> </text>
</a>
</g>
</g>
<!-- Node3&#45;&gt;Node2 -->
<g id="edge2" class="edge">
<title>Node3&#45;&gt;Node2</title>
<path fill="none" stroke="midnightblue" d="M88.5,-266.89C88.5,-257.94 88.5,-248.6 88.5,-239.63"/>
<polygon fill="none" stroke="midnightblue" points="85,-267.17 88.5,-277.17 92,-267.17 85,-267.17"/>
</g>
<!-- Node4 -->
<g id="node4" class="node">
<title>Node4</title>
<g id="a_node4"><a xlink:href="namespacepa.html#namespacepa" target="_top" xlink:title=" ">
<polygon fill="white" stroke="black" points="195.5,-149.5 195.5,-228.5 331.5,-228.5 331.5,-149.5 195.5,-149.5"/>
<text text-anchor="start" x="203.5" y="-216.5" font-family="Helvetica,sans-Serif" font-size="10.00">InnerStatsAccumulator</text>
<text text-anchor="start" x="203.5" y="-205.5" font-family="Helvetica,sans-Serif" font-size="10.00">&lt; typename InnerSolver</text>
<text text-anchor="middle" x="263.5" y="-194.5" font-family="Helvetica,sans-Serif" font-size="10.00">::Stats &gt;</text>
<polyline fill="none" stroke="black" points="195.5,-187.5 331.5,-187.5 "/>
<text text-anchor="middle" x="263.5" y="-175.5" font-family="Helvetica,sans-Serif" font-size="10.00"> </text>
<polyline fill="none" stroke="black" points="195.5,-168.5 331.5,-168.5 "/>
<text text-anchor="middle" x="263.5" y="-156.5" font-family="Helvetica,sans-Serif" font-size="10.00"> </text>
</a>
</g>
</g>
<!-- Node4&#45;&gt;Node1 -->
<g id="edge3" class="edge">
<title>Node4&#45;&gt;Node1</title>
<path fill="none" stroke="#404040" d="M239.45,-149.33C230.19,-134.43 219.42,-117.12 209.39,-101"/>
<polygon fill="none" stroke="#404040" points="209.27,-100.81 202.71,-97.82 202.94,-90.62 209.5,-93.6 209.27,-100.81"/>
<text text-anchor="middle" x="233.5" y="-112" font-family="Helvetica,sans-Serif" font-size="10.00"> +acc</text>
</g>
</g>
</svg>
