<?xml version="1.0" encoding="UTF-8" standalone="no"?>
<!DOCTYPE svg PUBLIC "-//W3C//DTD SVG 1.1//EN"
 "http://www.w3.org/Graphics/SVG/1.1/DTD/svg11.dtd">
<!-- Generated by graphviz version 2.43.0 (0)
 -->
<!-- Title: SecondOrderPANOCSolver::ProgressInfo Pages: 1 -->
<svg width="376pt" height="595pt"
 viewBox="0.00 0.00 375.50 595.00" xmlns="http://www.w3.org/2000/svg" xmlns:xlink="http://www.w3.org/1999/xlink">
<g id="graph0" class="graph" transform="scale(1 1) rotate(0) translate(4 591)">
<title>SecondOrderPANOCSolver::ProgressInfo</title>
<polygon fill="white" stroke="transparent" points="-4,4 -4,-591 371.5,-591 371.5,4 -4,4"/>
<!-- Node1 -->
<g id="node1" class="node">
<title>Node1</title>
<g id="a_node1"><a xlink:title=" ">
<polygon fill="#bfbfbf" stroke="black" points="179,-0.5 179,-211.5 322,-211.5 322,-0.5 179,-0.5"/>
<text text-anchor="start" x="187" y="-199.5" font-family="Helvetica,sans-Serif" font-size="10.00">SecondOrderPANOCSolver</text>
<text text-anchor="middle" x="250.5" y="-188.5" font-family="Helvetica,sans-Serif" font-size="10.00">::ProgressInfo</text>
<polyline fill="none" stroke="black" points="179,-181.5 322,-181.5 "/>
<text text-anchor="start" x="187" y="-169.5" font-family="Helvetica,sans-Serif" font-size="10.00">+ k</text>
<text text-anchor="start" x="187" y="-158.5" font-family="Helvetica,sans-Serif" font-size="10.00">+ x</text>
<text text-anchor="start" x="187" y="-147.5" font-family="Helvetica,sans-Serif" font-size="10.00">+ p</text>
<text text-anchor="start" x="187" y="-136.5" font-family="Helvetica,sans-Serif" font-size="10.00">+ norm_sq_p</text>
<text text-anchor="start" x="187" y="-125.5" font-family="Helvetica,sans-Serif" font-size="10.00">+ x_hat</text>
<text text-anchor="start" x="187" y="-114.5" font-family="Helvetica,sans-Serif" font-size="10.00">+ ψ</text>
<text text-anchor="start" x="187" y="-103.5" font-family="Helvetica,sans-Serif" font-size="10.00">+ grad_ψ</text>
<text text-anchor="start" x="187" y="-92.5" font-family="Helvetica,sans-Serif" font-size="10.00">+ ψ_hat</text>
<text text-anchor="start" x="187" y="-81.5" font-family="Helvetica,sans-Serif" font-size="10.00">+ grad_ψ_hat</text>
<text text-anchor="start" x="187" y="-70.5" font-family="Helvetica,sans-Serif" font-size="10.00">+ L</text>
<text text-anchor="start" x="187" y="-59.5" font-family="Helvetica,sans-Serif" font-size="10.00">+ γ</text>
<text text-anchor="start" x="187" y="-48.5" font-family="Helvetica,sans-Serif" font-size="10.00">+ ε</text>
<text text-anchor="start" x="187" y="-37.5" font-family="Helvetica,sans-Serif" font-size="10.00">+ Σ</text>
<text text-anchor="start" x="187" y="-26.5" font-family="Helvetica,sans-Serif" font-size="10.00">+ y</text>
<polyline fill="none" stroke="black" points="179,-19.5 322,-19.5 "/>
<text text-anchor="middle" x="250.5" y="-7.5" font-family="Helvetica,sans-Serif" font-size="10.00"> </text>
</a>
</g>
</g>
<!-- Node2 -->
<g id="node2" class="node">
<title>Node2</title>
<g id="a_node2"><a xlink:href="namespacepa.html#structpa_1_1SecondOrderPANOCParams" target="_top" xlink:title="Tuning parameters for the second order PANOC algorithm.">
<polygon fill="white" stroke="black" points="96,-259.5 96,-437.5 261,-437.5 261,-259.5 96,-259.5"/>
<text text-anchor="middle" x="178.5" y="-425.5" font-family="Helvetica,sans-Serif" font-size="10.00">SecondOrderPANOCParams</text>
<polyline fill="none" stroke="black" points="96,-418.5 261,-418.5 "/>
<text text-anchor="start" x="104" y="-406.5" font-family="Helvetica,sans-Serif" font-size="10.00">+ max_iter</text>
<text text-anchor="start" x="104" y="-395.5" font-family="Helvetica,sans-Serif" font-size="10.00">+ τ_min</text>
<text text-anchor="start" x="104" y="-384.5" font-family="Helvetica,sans-Serif" font-size="10.00">+ L_min</text>
<text text-anchor="start" x="104" y="-373.5" font-family="Helvetica,sans-Serif" font-size="10.00">+ L_max</text>
<text text-anchor="start" x="104" y="-362.5" font-family="Helvetica,sans-Serif" font-size="10.00">+ stop_crit</text>
<text text-anchor="start" x="104" y="-351.5" font-family="Helvetica,sans-Serif" font-size="10.00">+ max_no_progress</text>
<text text-anchor="start" x="104" y="-340.5" font-family="Helvetica,sans-Serif" font-size="10.00">+ print_interval</text>
<text text-anchor="start" x="104" y="-329.5" font-family="Helvetica,sans-Serif" font-size="10.00">+ quadratic_upperbound</text>
<text text-anchor="start" x="104" y="-318.5" font-family="Helvetica,sans-Serif" font-size="10.00">_tolerance_factor</text>
<text text-anchor="start" x="104" y="-307.5" font-family="Helvetica,sans-Serif" font-size="10.00">+ update_lipschitz_in</text>
<text text-anchor="start" x="104" y="-296.5" font-family="Helvetica,sans-Serif" font-size="10.00">_linesearch</text>
<text text-anchor="start" x="104" y="-285.5" font-family="Helvetica,sans-Serif" font-size="10.00">+ alternative_linesearch_cond</text>
<polyline fill="none" stroke="black" points="96,-278.5 261,-278.5 "/>
<text text-anchor="middle" x="178.5" y="-266.5" font-family="Helvetica,sans-Serif" font-size="10.00"> </text>
</a>
</g>
</g>
<!-- Node2&#45;&gt;Node1 -->
<g id="edge1" class="edge">
<title>Node2&#45;&gt;Node1</title>
<path fill="none" stroke="#404040" d="M204.9,-259.31C208.4,-247.63 212.03,-235.51 215.64,-223.44"/>
<polygon fill="none" stroke="#404040" points="215.65,-223.4 213.54,-216.51 219.09,-211.9 221.21,-218.8 215.65,-223.4"/>
<text text-anchor="middle" x="237" y="-233" font-family="Helvetica,sans-Serif" font-size="10.00"> +params</text>
</g>
<!-- Node3 -->
<g id="node3" class="node">
<title>Node3</title>
<g id="a_node3"><a xlink:href="namespacepa.html#structpa_1_1LipschitzEstimateParams" target="_top" xlink:title=" ">
<polygon fill="white" stroke="black" points="0,-496.5 0,-586.5 139,-586.5 139,-496.5 0,-496.5"/>
<text text-anchor="middle" x="69.5" y="-574.5" font-family="Helvetica,sans-Serif" font-size="10.00">LipschitzEstimateParams</text>
<polyline fill="none" stroke="black" points="0,-567.5 139,-567.5 "/>
<text text-anchor="start" x="8" y="-555.5" font-family="Helvetica,sans-Serif" font-size="10.00">+ L₀</text>
<text text-anchor="start" x="8" y="-544.5" font-family="Helvetica,sans-Serif" font-size="10.00">+ ε</text>
<text text-anchor="start" x="8" y="-533.5" font-family="Helvetica,sans-Serif" font-size="10.00">+ δ</text>
<text text-anchor="start" x="8" y="-522.5" font-family="Helvetica,sans-Serif" font-size="10.00">+ Lγ_factor</text>
<polyline fill="none" stroke="black" points="0,-515.5 139,-515.5 "/>
<text text-anchor="middle" x="69.5" y="-503.5" font-family="Helvetica,sans-Serif" font-size="10.00"> </text>
</a>
</g>
</g>
<!-- Node3&#45;&gt;Node2 -->
<g id="edge2" class="edge">
<title>Node3&#45;&gt;Node2</title>
<path fill="none" stroke="#404040" d="M94.78,-496.2C103.06,-481.69 112.62,-464.94 122.25,-448.06"/>
<polygon fill="none" stroke="#404040" points="122.3,-447.98 121.8,-440.79 128.25,-437.56 128.75,-444.75 122.3,-447.98"/>
<text text-anchor="middle" x="145" y="-464.5" font-family="Helvetica,sans-Serif" font-size="10.00"> +Lipschitz</text>
</g>
<!-- Node4 -->
<g id="node4" class="node">
<title>Node4</title>
<g id="a_node4"><a xlink:title=" ">
<polygon fill="white" stroke="#bfbfbf" points="157.5,-513 157.5,-570 241.5,-570 241.5,-513 157.5,-513"/>
<text text-anchor="middle" x="199.5" y="-558" font-family="Helvetica,sans-Serif" font-size="10.00">microseconds</text>
<polyline fill="none" stroke="#bfbfbf" points="157.5,-551 241.5,-551 "/>
<text text-anchor="middle" x="199.5" y="-539" font-family="Helvetica,sans-Serif" font-size="10.00"> </text>
<polyline fill="none" stroke="#bfbfbf" points="157.5,-532 241.5,-532 "/>
<text text-anchor="middle" x="199.5" y="-520" font-family="Helvetica,sans-Serif" font-size="10.00"> </text>
</a>
</g>
</g>
<!-- Node4&#45;&gt;Node2 -->
<g id="edge3" class="edge">
<title>Node4&#45;&gt;Node2</title>
<path fill="none" stroke="#404040" d="M196.45,-512.73C194.59,-495.81 192.08,-473.05 189.54,-449.91"/>
<polygon fill="none" stroke="#404040" points="189.52,-449.73 184.89,-444.2 188.21,-437.8 192.84,-443.33 189.52,-449.73"/>
<text text-anchor="middle" x="223" y="-464.5" font-family="Helvetica,sans-Serif" font-size="10.00"> +max_time</text>
</g>
<!-- Node5 -->
<g id="node5" class="node">
<title>Node5</title>
<g id="a_node5"><a xlink:href="structpa_1_1Problem.html" target="_top" xlink:title="Problem description for minimization problems.">
<polygon fill="white" stroke="black" points="279.5,-265 279.5,-432 367.5,-432 367.5,-265 279.5,-265"/>
<text text-anchor="middle" x="323.5" y="-420" font-family="Helvetica,sans-Serif" font-size="10.00">Problem</text>
<polyline fill="none" stroke="black" points="279.5,-413 367.5,-413 "/>
<text text-anchor="start" x="287.5" y="-401" font-family="Helvetica,sans-Serif" font-size="10.00">+ n</text>
<text text-anchor="start" x="287.5" y="-390" font-family="Helvetica,sans-Serif" font-size="10.00">+ m</text>
<text text-anchor="start" x="287.5" y="-379" font-family="Helvetica,sans-Serif" font-size="10.00">+ f</text>
<text text-anchor="start" x="287.5" y="-368" font-family="Helvetica,sans-Serif" font-size="10.00">+ grad_f</text>
<text text-anchor="start" x="287.5" y="-357" font-family="Helvetica,sans-Serif" font-size="10.00">+ g</text>
<text text-anchor="start" x="287.5" y="-346" font-family="Helvetica,sans-Serif" font-size="10.00">+ grad_g_prod</text>
<text text-anchor="start" x="287.5" y="-335" font-family="Helvetica,sans-Serif" font-size="10.00">+ grad_gi</text>
<text text-anchor="start" x="287.5" y="-324" font-family="Helvetica,sans-Serif" font-size="10.00">+ hess_L_prod</text>
<text text-anchor="start" x="287.5" y="-313" font-family="Helvetica,sans-Serif" font-size="10.00">+ hess_L</text>
<polyline fill="none" stroke="black" points="279.5,-306 367.5,-306 "/>
<text text-anchor="start" x="287.5" y="-294" font-family="Helvetica,sans-Serif" font-size="10.00">+ Problem()</text>
<text text-anchor="start" x="287.5" y="-283" font-family="Helvetica,sans-Serif" font-size="10.00">+ Problem()</text>
<text text-anchor="start" x="287.5" y="-272" font-family="Helvetica,sans-Serif" font-size="10.00">+ Problem()</text>
</a>
</g>
</g>
<!-- Node5&#45;&gt;Node1 -->
<g id="edge4" class="edge">
<title>Node5&#45;&gt;Node1</title>
<path fill="none" stroke="#404040" d="M298.38,-264.73C294.32,-251.36 290.05,-237.3 285.8,-223.3"/>
<polygon fill="none" stroke="#404040" points="285.73,-223.07 280.16,-218.49 282.25,-211.59 287.82,-216.16 285.73,-223.07"/>
<text text-anchor="middle" x="315.5" y="-233" font-family="Helvetica,sans-Serif" font-size="10.00"> +problem</text>
</g>
<!-- Node6 -->
<g id="node6" class="node">
<title>Node6</title>
<g id="a_node6"><a xlink:href="namespacepa.html#structpa_1_1Box" target="_top" xlink:title=" ">
<polygon fill="white" stroke="black" points="280.5,-507.5 280.5,-575.5 366.5,-575.5 366.5,-507.5 280.5,-507.5"/>
<text text-anchor="middle" x="323.5" y="-563.5" font-family="Helvetica,sans-Serif" font-size="10.00">Box</text>
<polyline fill="none" stroke="black" points="280.5,-556.5 366.5,-556.5 "/>
<text text-anchor="start" x="288.5" y="-544.5" font-family="Helvetica,sans-Serif" font-size="10.00">+ upperbound</text>
<text text-anchor="start" x="288.5" y="-533.5" font-family="Helvetica,sans-Serif" font-size="10.00">+ lowerbound</text>
<polyline fill="none" stroke="black" points="280.5,-526.5 366.5,-526.5 "/>
<text text-anchor="middle" x="323.5" y="-514.5" font-family="Helvetica,sans-Serif" font-size="10.00"> </text>
</a>
</g>
</g>
<!-- Node6&#45;&gt;Node5 -->
<g id="edge5" class="edge">
<title>Node6&#45;&gt;Node5</title>
<path fill="none" stroke="#404040" d="M323.5,-507.23C323.5,-489.56 323.5,-466.86 323.5,-444.22"/>
<polygon fill="none" stroke="#404040" points="323.5,-444.05 319.5,-438.05 323.5,-432.05 327.5,-438.05 323.5,-444.05"/>
<text text-anchor="middle" x="333" y="-470" font-family="Helvetica,sans-Serif" font-size="10.00"> +C</text>
<text text-anchor="middle" x="333" y="-459" font-family="Helvetica,sans-Serif" font-size="10.00">+D</text>
</g>
</g>
</svg>
