<?xml version="1.0" encoding="UTF-8" standalone="no"?>
<!DOCTYPE svg PUBLIC "-//W3C//DTD SVG 1.1//EN"
 "http://www.w3.org/Graphics/SVG/1.1/DTD/svg11.dtd">
<!-- Generated by graphviz version 2.43.0 (0)
 -->
<!-- Title: CUTEstLoader.hpp Pages: 1 -->
<svg width="402pt" height="252pt"
 viewBox="0.00 0.00 401.50 252.00" xmlns="http://www.w3.org/2000/svg" xmlns:xlink="http://www.w3.org/1999/xlink">
<g id="graph0" class="graph" transform="scale(1 1) rotate(0) translate(4 248)">
<title>CUTEstLoader.hpp</title>
<polygon fill="white" stroke="transparent" points="-4,4 -4,-248 397.5,-248 397.5,4 -4,4"/>
<!-- Node1 -->
<g id="node1" class="node">
<title>Node1</title>
<g id="a_node1"><a xlink:title=" ">
<polygon fill="#bfbfbf" stroke="black" points="214,-224.5 214,-243.5 319,-243.5 319,-224.5 214,-224.5"/>
<text text-anchor="middle" x="266.5" y="-231.5" font-family="Helvetica,sans-Serif" font-size="10.00">CUTEstLoader.hpp</text>
</a>
</g>
</g>
<!-- Node2 -->
<g id="node2" class="node">
<title>Node2</title>
<g id="a_node2"><a xlink:href="../../d5/d37/problem_8hpp.html" target="_top" xlink:title=" ">
<polygon fill="white" stroke="black" points="37.5,-168.5 37.5,-187.5 189.5,-187.5 189.5,-168.5 37.5,-168.5"/>
<text text-anchor="middle" x="113.5" y="-175.5" font-family="Helvetica,sans-Serif" font-size="10.00">panoc&#45;alm/util/problem.hpp</text>
</a>
</g>
</g>
<!-- Node1&#45;&gt;Node2 -->
<g id="edge1" class="edge">
<title>Node1&#45;&gt;Node2</title>
<path fill="none" stroke="midnightblue" d="M242.26,-224.44C216.63,-215.4 176.01,-201.06 147.26,-190.92"/>
<polygon fill="midnightblue" stroke="midnightblue" points="148.22,-187.54 137.63,-187.52 145.89,-194.15 148.22,-187.54"/>
</g>
<!-- Node8 -->
<g id="node8" class="node">
<title>Node8</title>
<g id="a_node8"><a xlink:title=" ">
<polygon fill="white" stroke="#bfbfbf" points="207.5,-168.5 207.5,-187.5 255.5,-187.5 255.5,-168.5 207.5,-168.5"/>
<text text-anchor="middle" x="231.5" y="-175.5" font-family="Helvetica,sans-Serif" font-size="10.00">iosfwd</text>
</a>
</g>
</g>
<!-- Node1&#45;&gt;Node8 -->
<g id="edge7" class="edge">
<title>Node1&#45;&gt;Node8</title>
<path fill="none" stroke="midnightblue" d="M260.72,-224.08C255.83,-216.53 248.67,-205.49 242.67,-196.23"/>
<polygon fill="midnightblue" stroke="midnightblue" points="245.55,-194.24 237.17,-187.75 239.67,-198.05 245.55,-194.24"/>
</g>
<!-- Node9 -->
<g id="node9" class="node">
<title>Node9</title>
<g id="a_node9"><a xlink:title=" ">
<polygon fill="white" stroke="#bfbfbf" points="273.5,-168.5 273.5,-187.5 331.5,-187.5 331.5,-168.5 273.5,-168.5"/>
<text text-anchor="middle" x="302.5" y="-175.5" font-family="Helvetica,sans-Serif" font-size="10.00">memory</text>
</a>
</g>
</g>
<!-- Node1&#45;&gt;Node9 -->
<g id="edge8" class="edge">
<title>Node1&#45;&gt;Node9</title>
<path fill="none" stroke="midnightblue" d="M272.44,-224.08C277.48,-216.53 284.84,-205.49 291.01,-196.23"/>
<polygon fill="midnightblue" stroke="midnightblue" points="294.03,-198.01 296.67,-187.75 288.21,-194.13 294.03,-198.01"/>
</g>
<!-- Node10 -->
<g id="node10" class="node">
<title>Node10</title>
<g id="a_node10"><a xlink:title=" ">
<polygon fill="white" stroke="#bfbfbf" points="349.5,-168.5 349.5,-187.5 393.5,-187.5 393.5,-168.5 349.5,-168.5"/>
<text text-anchor="middle" x="371.5" y="-175.5" font-family="Helvetica,sans-Serif" font-size="10.00">string</text>
</a>
</g>
</g>
<!-- Node1&#45;&gt;Node10 -->
<g id="edge9" class="edge">
<title>Node1&#45;&gt;Node10</title>
<path fill="none" stroke="midnightblue" d="M283.37,-224.32C300.21,-215.66 326.31,-202.24 345.74,-192.25"/>
<polygon fill="midnightblue" stroke="midnightblue" points="347.38,-195.34 354.67,-187.65 344.18,-189.12 347.38,-195.34"/>
</g>
<!-- Node3 -->
<g id="node3" class="node">
<title>Node3</title>
<g id="a_node3"><a xlink:href="../../d7/de4/box_8hpp.html" target="_top" xlink:title=" ">
<polygon fill="white" stroke="black" points="6.5,-112.5 6.5,-131.5 62.5,-131.5 62.5,-112.5 6.5,-112.5"/>
<text text-anchor="middle" x="34.5" y="-119.5" font-family="Helvetica,sans-Serif" font-size="10.00">box.hpp</text>
</a>
</g>
</g>
<!-- Node2&#45;&gt;Node3 -->
<g id="edge2" class="edge">
<title>Node2&#45;&gt;Node3</title>
<path fill="none" stroke="midnightblue" d="M100.81,-168.32C88.6,-159.98 69.92,-147.21 55.5,-137.35"/>
<polygon fill="midnightblue" stroke="midnightblue" points="57.39,-134.41 47.16,-131.65 53.44,-140.19 57.39,-134.41"/>
</g>
<!-- Node6 -->
<g id="node6" class="node">
<title>Node6</title>
<g id="a_node6"><a xlink:title=" ">
<polygon fill="white" stroke="#bfbfbf" points="81,-112.5 81,-131.5 146,-131.5 146,-112.5 81,-112.5"/>
<text text-anchor="middle" x="113.5" y="-119.5" font-family="Helvetica,sans-Serif" font-size="10.00">functional</text>
</a>
</g>
</g>
<!-- Node2&#45;&gt;Node6 -->
<g id="edge5" class="edge">
<title>Node2&#45;&gt;Node6</title>
<path fill="none" stroke="midnightblue" d="M113.5,-168.08C113.5,-161.01 113.5,-150.86 113.5,-141.99"/>
<polygon fill="midnightblue" stroke="midnightblue" points="117,-141.75 113.5,-131.75 110,-141.75 117,-141.75"/>
</g>
<!-- Node7 -->
<g id="node7" class="node">
<title>Node7</title>
<g id="a_node7"><a xlink:title=" ">
<polygon fill="white" stroke="#bfbfbf" points="164,-112.5 164,-131.5 233,-131.5 233,-112.5 164,-112.5"/>
<text text-anchor="middle" x="198.5" y="-119.5" font-family="Helvetica,sans-Serif" font-size="10.00">type_traits</text>
</a>
</g>
</g>
<!-- Node2&#45;&gt;Node7 -->
<g id="edge6" class="edge">
<title>Node2&#45;&gt;Node7</title>
<path fill="none" stroke="midnightblue" d="M127.16,-168.32C140.42,-159.9 160.77,-146.97 176.35,-137.07"/>
<polygon fill="midnightblue" stroke="midnightblue" points="178.31,-139.97 184.88,-131.65 174.56,-134.06 178.31,-139.97"/>
</g>
<!-- Node4 -->
<g id="node4" class="node">
<title>Node4</title>
<g id="a_node4"><a xlink:href="../../d7/d7c/vec_8hpp.html" target="_top" xlink:title=" ">
<polygon fill="white" stroke="black" points="7,-56.5 7,-75.5 62,-75.5 62,-56.5 7,-56.5"/>
<text text-anchor="middle" x="34.5" y="-63.5" font-family="Helvetica,sans-Serif" font-size="10.00">vec.hpp</text>
</a>
</g>
</g>
<!-- Node3&#45;&gt;Node4 -->
<g id="edge3" class="edge">
<title>Node3&#45;&gt;Node4</title>
<path fill="none" stroke="midnightblue" d="M34.5,-112.08C34.5,-105.01 34.5,-94.86 34.5,-85.99"/>
<polygon fill="midnightblue" stroke="midnightblue" points="38,-85.75 34.5,-75.75 31,-85.75 38,-85.75"/>
</g>
<!-- Node5 -->
<g id="node5" class="node">
<title>Node5</title>
<g id="a_node5"><a xlink:title=" ">
<polygon fill="white" stroke="#bfbfbf" points="0,-0.5 0,-19.5 69,-19.5 69,-0.5 0,-0.5"/>
<text text-anchor="middle" x="34.5" y="-7.5" font-family="Helvetica,sans-Serif" font-size="10.00">Eigen/Core</text>
</a>
</g>
</g>
<!-- Node4&#45;&gt;Node5 -->
<g id="edge4" class="edge">
<title>Node4&#45;&gt;Node5</title>
<path fill="none" stroke="midnightblue" d="M34.5,-56.08C34.5,-49.01 34.5,-38.86 34.5,-29.99"/>
<polygon fill="midnightblue" stroke="midnightblue" points="38,-29.75 34.5,-19.75 31,-29.75 38,-29.75"/>
</g>
</g>
</svg>
