<?xml version="1.0" encoding="UTF-8" standalone="no"?>
<!DOCTYPE svg PUBLIC "-//W3C//DTD SVG 1.1//EN"
 "http://www.w3.org/Graphics/SVG/1.1/DTD/svg11.dtd">
<!-- Generated by graphviz version 2.43.0 (0)
 -->
<!-- Title: main Pages: 1 -->
<svg width="222pt" height="78pt"
 viewBox="0.00 0.00 222.00 77.50" xmlns="http://www.w3.org/2000/svg" xmlns:xlink="http://www.w3.org/1999/xlink">
<g id="graph0" class="graph" transform="scale(1 1) rotate(0) translate(4 73.5)">
<title>main</title>
<polygon fill="white" stroke="transparent" points="-4,4 -4,-73.5 218,-73.5 218,4 -4,4"/>
<!-- Node1 -->
<g id="node1" class="node">
<title>Node1</title>
<g id="a_node1"><a xlink:title=" ">
<polygon fill="#bfbfbf" stroke="black" points="0,-22.5 0,-41.5 41,-41.5 41,-22.5 0,-22.5"/>
<text text-anchor="middle" x="20.5" y="-29.5" font-family="Helvetica,sans-Serif" font-size="10.00">main</text>
</a>
</g>
</g>
<!-- Node2 -->
<g id="node2" class="node">
<title>Node2</title>
<g id="a_node2"><a xlink:href="../../df/d11/namespacepa_1_1problems.html#a2d9ea6eb0de6679e1b7a6d72ae6ab38b" target="_top" xlink:title=" ">
<polygon fill="white" stroke="black" points="77,-39 77,-69 214,-69 214,-39 77,-39"/>
<text text-anchor="start" x="85" y="-57" font-family="Helvetica,sans-Serif" font-size="10.00">pa::problems::riskaverse</text>
<text text-anchor="middle" x="145.5" y="-46" font-family="Helvetica,sans-Serif" font-size="10.00">_mpc_problem</text>
</a>
</g>
</g>
<!-- Node1&#45;&gt;Node2 -->
<g id="edge1" class="edge">
<title>Node1&#45;&gt;Node2</title>
<path fill="none" stroke="midnightblue" d="M41.26,-35.53C48.62,-36.85 57.49,-38.44 66.9,-40.12"/>
<polygon fill="midnightblue" stroke="midnightblue" points="66.4,-43.59 76.86,-41.9 67.63,-36.7 66.4,-43.59"/>
</g>
<!-- Node3 -->
<g id="node3" class="node">
<title>Node3</title>
<g id="a_node3"><a xlink:href="../../db/dbf/panocexperiment_8cpp.html#a89a8322bea357674e81ba9cbdefe0378" target="_top" xlink:title=" ">
<polygon fill="white" stroke="black" points="78.5,-0.5 78.5,-19.5 212.5,-19.5 212.5,-0.5 78.5,-0.5"/>
<text text-anchor="middle" x="145.5" y="-7.5" font-family="Helvetica,sans-Serif" font-size="10.00">signal_callback_handler</text>
</a>
</g>
</g>
<!-- Node1&#45;&gt;Node3 -->
<g id="edge2" class="edge">
<title>Node1&#45;&gt;Node3</title>
<path fill="none" stroke="midnightblue" d="M41.26,-28.47C52.3,-26.49 66.73,-23.91 81.29,-21.31"/>
<polygon fill="midnightblue" stroke="midnightblue" points="82.12,-24.71 91.34,-19.51 80.88,-17.82 82.12,-24.71"/>
</g>
</g>
</svg>
