<?xml version="1.0" encoding="UTF-8" standalone="no"?>
<!DOCTYPE svg PUBLIC "-//W3C//DTD SVG 1.1//EN"
 "http://www.w3.org/Graphics/SVG/1.1/DTD/svg11.dtd">
<!-- Generated by graphviz version 2.43.0 (0)
 -->
<!-- Title: alm&#45;helpers.hpp Pages: 1 -->
<svg width="706pt" height="330pt"
 viewBox="0.00 0.00 705.50 330.00" xmlns="http://www.w3.org/2000/svg" xmlns:xlink="http://www.w3.org/1999/xlink">
<g id="graph0" class="graph" transform="scale(1 1) rotate(0) translate(4 326)">
<title>alm&#45;helpers.hpp</title>
<polygon fill="white" stroke="transparent" points="-4,4 -4,-326 701.5,-326 701.5,4 -4,4"/>
<!-- Node1 -->
<g id="node1" class="node">
<title>Node1</title>
<g id="a_node1"><a xlink:title=" ">
<polygon fill="#bfbfbf" stroke="black" points="492.5,-302.5 492.5,-321.5 588.5,-321.5 588.5,-302.5 492.5,-302.5"/>
<text text-anchor="middle" x="540.5" y="-309.5" font-family="Helvetica,sans-Serif" font-size="10.00">alm&#45;helpers.hpp</text>
</a>
</g>
</g>
<!-- Node2 -->
<g id="node2" class="node">
<title>Node2</title>
<g id="a_node2"><a xlink:href="decl_2alm_8hpp.html" target="_top" xlink:title=" ">
<polygon fill="white" stroke="black" points="414.5,-246.5 414.5,-265.5 548.5,-265.5 548.5,-246.5 414.5,-246.5"/>
<text text-anchor="middle" x="481.5" y="-253.5" font-family="Helvetica,sans-Serif" font-size="10.00">panoc&#45;alm/decl/alm.hpp</text>
</a>
</g>
</g>
<!-- Node1&#45;&gt;Node2 -->
<g id="edge1" class="edge">
<title>Node1&#45;&gt;Node2</title>
<path fill="none" stroke="midnightblue" d="M531.02,-302.32C522.3,-294.34 509.16,-282.31 498.6,-272.65"/>
<polygon fill="midnightblue" stroke="midnightblue" points="500.89,-270 491.15,-265.83 496.17,-275.17 500.89,-270"/>
</g>
<!-- Node16 -->
<g id="node16" class="node">
<title>Node16</title>
<g id="a_node16"><a xlink:title=" ">
<polygon fill="white" stroke="#bfbfbf" points="567,-246.5 567,-265.5 632,-265.5 632,-246.5 567,-246.5"/>
<text text-anchor="middle" x="599.5" y="-253.5" font-family="Helvetica,sans-Serif" font-size="10.00">stdexcept</text>
</a>
</g>
</g>
<!-- Node1&#45;&gt;Node16 -->
<g id="edge15" class="edge">
<title>Node1&#45;&gt;Node16</title>
<path fill="none" stroke="midnightblue" d="M549.98,-302.32C558.7,-294.34 571.84,-282.31 582.4,-272.65"/>
<polygon fill="midnightblue" stroke="midnightblue" points="584.83,-275.17 589.85,-265.83 580.11,-270 584.83,-275.17"/>
</g>
<!-- Node3 -->
<g id="node3" class="node">
<title>Node3</title>
<g id="a_node3"><a xlink:href="panoc-fwd_8hpp.html" target="_top" xlink:title=" ">
<polygon fill="white" stroke="black" points="66,-179.5 66,-209.5 185,-209.5 185,-179.5 66,-179.5"/>
<text text-anchor="start" x="74" y="-197.5" font-family="Helvetica,sans-Serif" font-size="10.00">panoc&#45;alm/inner/decl</text>
<text text-anchor="middle" x="125.5" y="-186.5" font-family="Helvetica,sans-Serif" font-size="10.00">/panoc&#45;fwd.hpp</text>
</a>
</g>
</g>
<!-- Node2&#45;&gt;Node3 -->
<g id="edge2" class="edge">
<title>Node2&#45;&gt;Node3</title>
<path fill="none" stroke="midnightblue" d="M430.49,-246.48C368.65,-236.14 264.12,-218.67 194.96,-207.11"/>
<polygon fill="midnightblue" stroke="midnightblue" points="195.46,-203.64 185.02,-205.45 194.31,-210.55 195.46,-203.64"/>
</g>
<!-- Node5 -->
<g id="node5" class="node">
<title>Node5</title>
<g id="a_node5"><a xlink:href="include_2panoc-alm_2util_2problem_8hpp.html" target="_top" xlink:title=" ">
<polygon fill="white" stroke="black" points="225.5,-185 225.5,-204 377.5,-204 377.5,-185 225.5,-185"/>
<text text-anchor="middle" x="301.5" y="-192" font-family="Helvetica,sans-Serif" font-size="10.00">panoc&#45;alm/util/problem.hpp</text>
</a>
</g>
</g>
<!-- Node2&#45;&gt;Node5 -->
<g id="edge4" class="edge">
<title>Node2&#45;&gt;Node5</title>
<path fill="none" stroke="midnightblue" d="M455.71,-246.48C424.57,-236.18 372.02,-218.81 337.05,-207.25"/>
<polygon fill="midnightblue" stroke="midnightblue" points="337.84,-203.82 327.24,-204.01 335.64,-210.47 337.84,-203.82"/>
</g>
<!-- Node12 -->
<g id="node12" class="node">
<title>Node12</title>
<g id="a_node12"><a xlink:href="solverstatus_8hpp.html" target="_top" xlink:title=" ">
<polygon fill="white" stroke="black" points="396,-185 396,-204 567,-204 567,-185 396,-185"/>
<text text-anchor="middle" x="481.5" y="-192" font-family="Helvetica,sans-Serif" font-size="10.00">panoc&#45;alm/util/solverstatus.hpp</text>
</a>
</g>
</g>
<!-- Node2&#45;&gt;Node12 -->
<g id="edge11" class="edge">
<title>Node2&#45;&gt;Node12</title>
<path fill="none" stroke="midnightblue" d="M481.5,-246.48C481.5,-238.08 481.5,-224.98 481.5,-214.16"/>
<polygon fill="midnightblue" stroke="midnightblue" points="485,-214.01 481.5,-204.01 478,-214.01 485,-214.01"/>
</g>
<!-- Node14 -->
<g id="node14" class="node">
<title>Node14</title>
<g id="a_node14"><a xlink:title=" ">
<polygon fill="white" stroke="#bfbfbf" points="585.5,-185 585.5,-204 635.5,-204 635.5,-185 585.5,-185"/>
<text text-anchor="middle" x="610.5" y="-192" font-family="Helvetica,sans-Serif" font-size="10.00">chrono</text>
</a>
</g>
</g>
<!-- Node2&#45;&gt;Node14 -->
<g id="edge13" class="edge">
<title>Node2&#45;&gt;Node14</title>
<path fill="none" stroke="midnightblue" d="M499.98,-246.48C521.63,-236.49 557.71,-219.85 582.73,-208.31"/>
<polygon fill="midnightblue" stroke="midnightblue" points="584.44,-211.38 592.05,-204.01 581.51,-205.02 584.44,-211.38"/>
</g>
<!-- Node15 -->
<g id="node15" class="node">
<title>Node15</title>
<g id="a_node15"><a xlink:title=" ">
<polygon fill="white" stroke="#bfbfbf" points="653.5,-185 653.5,-204 697.5,-204 697.5,-185 653.5,-185"/>
<text text-anchor="middle" x="675.5" y="-192" font-family="Helvetica,sans-Serif" font-size="10.00">string</text>
</a>
</g>
</g>
<!-- Node2&#45;&gt;Node15 -->
<g id="edge14" class="edge">
<title>Node2&#45;&gt;Node15</title>
<path fill="none" stroke="midnightblue" d="M519.29,-246.48C552.69,-238.5 602.5,-225.5 644.5,-210 646.11,-209.41 647.75,-208.76 649.4,-208.09"/>
<polygon fill="midnightblue" stroke="midnightblue" points="650.92,-211.24 658.66,-204 648.1,-204.83 650.92,-211.24"/>
</g>
<!-- Node4 -->
<g id="node4" class="node">
<title>Node4</title>
<g id="a_node4"><a xlink:href="lbfgs-fwd_8hpp.html" target="_top" xlink:title=" ">
<polygon fill="white" stroke="black" points="0,-112.5 0,-142.5 147,-142.5 147,-112.5 0,-112.5"/>
<text text-anchor="start" x="8" y="-130.5" font-family="Helvetica,sans-Serif" font-size="10.00">panoc&#45;alm/inner/directions</text>
<text text-anchor="middle" x="73.5" y="-119.5" font-family="Helvetica,sans-Serif" font-size="10.00">/decl/lbfgs&#45;fwd.hpp</text>
</a>
</g>
</g>
<!-- Node3&#45;&gt;Node4 -->
<g id="edge3" class="edge">
<title>Node3&#45;&gt;Node4</title>
<path fill="none" stroke="midnightblue" d="M114.22,-179.4C107.47,-170.96 98.75,-160.07 91.12,-150.52"/>
<polygon fill="midnightblue" stroke="midnightblue" points="93.74,-148.2 84.76,-142.58 88.28,-152.57 93.74,-148.2"/>
</g>
<!-- Node6 -->
<g id="node6" class="node">
<title>Node6</title>
<g id="a_node6"><a xlink:href="box_8hpp.html" target="_top" xlink:title=" ">
<polygon fill="white" stroke="black" points="165.5,-118 165.5,-137 221.5,-137 221.5,-118 165.5,-118"/>
<text text-anchor="middle" x="193.5" y="-125" font-family="Helvetica,sans-Serif" font-size="10.00">box.hpp</text>
</a>
</g>
</g>
<!-- Node5&#45;&gt;Node6 -->
<g id="edge5" class="edge">
<title>Node5&#45;&gt;Node6</title>
<path fill="none" stroke="midnightblue" d="M286.93,-184.73C268.88,-173.87 237.89,-155.22 216.58,-142.39"/>
<polygon fill="midnightblue" stroke="midnightblue" points="218.21,-139.29 207.83,-137.13 214.6,-145.28 218.21,-139.29"/>
</g>
<!-- Node9 -->
<g id="node9" class="node">
<title>Node9</title>
<g id="a_node9"><a xlink:title=" ">
<polygon fill="white" stroke="#bfbfbf" points="240,-118 240,-137 305,-137 305,-118 240,-118"/>
<text text-anchor="middle" x="272.5" y="-125" font-family="Helvetica,sans-Serif" font-size="10.00">functional</text>
</a>
</g>
</g>
<!-- Node5&#45;&gt;Node9 -->
<g id="edge8" class="edge">
<title>Node5&#45;&gt;Node9</title>
<path fill="none" stroke="midnightblue" d="M297.59,-184.73C293.24,-174.99 286.1,-158.98 280.54,-146.53"/>
<polygon fill="midnightblue" stroke="midnightblue" points="283.62,-144.83 276.35,-137.13 277.23,-147.69 283.62,-144.83"/>
</g>
<!-- Node10 -->
<g id="node10" class="node">
<title>Node10</title>
<g id="a_node10"><a xlink:title=" ">
<polygon fill="white" stroke="#bfbfbf" points="323.5,-118 323.5,-137 381.5,-137 381.5,-118 323.5,-118"/>
<text text-anchor="middle" x="352.5" y="-125" font-family="Helvetica,sans-Serif" font-size="10.00">memory</text>
</a>
</g>
</g>
<!-- Node5&#45;&gt;Node10 -->
<g id="edge9" class="edge">
<title>Node5&#45;&gt;Node10</title>
<path fill="none" stroke="midnightblue" d="M308.38,-184.73C316.33,-174.6 329.6,-157.69 339.51,-145.06"/>
<polygon fill="midnightblue" stroke="midnightblue" points="342.31,-147.16 345.73,-137.13 336.8,-142.83 342.31,-147.16"/>
</g>
<!-- Node11 -->
<g id="node11" class="node">
<title>Node11</title>
<g id="a_node11"><a xlink:title=" ">
<polygon fill="white" stroke="#bfbfbf" points="400,-118 400,-137 469,-137 469,-118 400,-118"/>
<text text-anchor="middle" x="434.5" y="-125" font-family="Helvetica,sans-Serif" font-size="10.00">type_traits</text>
</a>
</g>
</g>
<!-- Node5&#45;&gt;Node11 -->
<g id="edge10" class="edge">
<title>Node5&#45;&gt;Node11</title>
<path fill="none" stroke="midnightblue" d="M319.16,-184.87C341.82,-173.8 381.33,-154.49 407.7,-141.6"/>
<polygon fill="midnightblue" stroke="midnightblue" points="409.32,-144.7 416.77,-137.17 406.24,-138.41 409.32,-144.7"/>
</g>
<!-- Node7 -->
<g id="node7" class="node">
<title>Node7</title>
<g id="a_node7"><a xlink:href="vec_8hpp.html" target="_top" xlink:title=" ">
<polygon fill="white" stroke="black" points="166,-56.5 166,-75.5 221,-75.5 221,-56.5 166,-56.5"/>
<text text-anchor="middle" x="193.5" y="-63.5" font-family="Helvetica,sans-Serif" font-size="10.00">vec.hpp</text>
</a>
</g>
</g>
<!-- Node6&#45;&gt;Node7 -->
<g id="edge6" class="edge">
<title>Node6&#45;&gt;Node7</title>
<path fill="none" stroke="midnightblue" d="M193.5,-117.98C193.5,-109.58 193.5,-96.48 193.5,-85.66"/>
<polygon fill="midnightblue" stroke="midnightblue" points="197,-85.51 193.5,-75.51 190,-85.51 197,-85.51"/>
</g>
<!-- Node8 -->
<g id="node8" class="node">
<title>Node8</title>
<g id="a_node8"><a xlink:title=" ">
<polygon fill="white" stroke="#bfbfbf" points="159,-0.5 159,-19.5 228,-19.5 228,-0.5 159,-0.5"/>
<text text-anchor="middle" x="193.5" y="-7.5" font-family="Helvetica,sans-Serif" font-size="10.00">Eigen/Core</text>
</a>
</g>
</g>
<!-- Node7&#45;&gt;Node8 -->
<g id="edge7" class="edge">
<title>Node7&#45;&gt;Node8</title>
<path fill="none" stroke="midnightblue" d="M193.5,-56.08C193.5,-49.01 193.5,-38.86 193.5,-29.99"/>
<polygon fill="midnightblue" stroke="midnightblue" points="197,-29.75 193.5,-19.75 190,-29.75 197,-29.75"/>
</g>
<!-- Node13 -->
<g id="node13" class="node">
<title>Node13</title>
<g id="a_node13"><a xlink:title=" ">
<polygon fill="white" stroke="#bfbfbf" points="487.5,-118 487.5,-137 535.5,-137 535.5,-118 487.5,-118"/>
<text text-anchor="middle" x="511.5" y="-125" font-family="Helvetica,sans-Serif" font-size="10.00">iosfwd</text>
</a>
</g>
</g>
<!-- Node12&#45;&gt;Node13 -->
<g id="edge12" class="edge">
<title>Node12&#45;&gt;Node13</title>
<path fill="none" stroke="midnightblue" d="M485.55,-184.73C490.04,-174.99 497.43,-158.98 503.18,-146.53"/>
<polygon fill="midnightblue" stroke="midnightblue" points="506.51,-147.67 507.52,-137.13 500.15,-144.74 506.51,-147.67"/>
</g>
</g>
</svg>
