<?xml version="1.0" encoding="UTF-8" standalone="no"?>
<!DOCTYPE svg PUBLIC "-//W3C//DTD SVG 1.1//EN"
 "http://www.w3.org/Graphics/SVG/1.1/DTD/svg11.dtd">
<!-- Generated by graphviz version 2.43.0 (0)
 -->
<!-- Title: alm.cpp Pages: 1 -->
<svg width="1669pt" height="464pt"
 viewBox="0.00 0.00 1669.01 464.00" xmlns="http://www.w3.org/2000/svg" xmlns:xlink="http://www.w3.org/1999/xlink">
<g id="graph0" class="graph" transform="scale(1 1) rotate(0) translate(4 460)">
<title>alm.cpp</title>
<polygon fill="white" stroke="transparent" points="-4,4 -4,-460 1665.01,-460 1665.01,4 -4,4"/>
<!-- Node1 -->
<g id="node1" class="node">
<title>Node1</title>
<g id="a_node1"><a xlink:title=" ">
<polygon fill="#bfbfbf" stroke="black" points="477.5,-436.5 477.5,-455.5 533.5,-455.5 533.5,-436.5 477.5,-436.5"/>
<text text-anchor="middle" x="505.5" y="-443.5" font-family="Helvetica,sans-Serif" font-size="10.00">alm.cpp</text>
</a>
</g>
</g>
<!-- Node2 -->
<g id="node2" class="node">
<title>Node2</title>
<g id="a_node2"><a xlink:href="alm_8hpp.html" target="_top" xlink:title=" ">
<polygon fill="white" stroke="black" points="1070,-380.5 1070,-399.5 1181,-399.5 1181,-380.5 1070,-380.5"/>
<text text-anchor="middle" x="1125.5" y="-387.5" font-family="Helvetica,sans-Serif" font-size="10.00">panoc&#45;alm/alm.hpp</text>
</a>
</g>
</g>
<!-- Node1&#45;&gt;Node2 -->
<g id="edge1" class="edge">
<title>Node1&#45;&gt;Node2</title>
<path fill="none" stroke="midnightblue" d="M533.75,-442.54C626.91,-434.43 926.06,-408.37 1059.81,-396.72"/>
<polygon fill="midnightblue" stroke="midnightblue" points="1060.26,-400.2 1069.92,-395.84 1059.65,-393.22 1060.26,-400.2"/>
</g>
<!-- Node21 -->
<g id="node21" class="node">
<title>Node21</title>
<g id="a_node21"><a xlink:href="lbfgs_8hpp.html" target="_top" xlink:title=" ">
<polygon fill="white" stroke="black" points="102,-313.5 102,-343.5 249,-343.5 249,-313.5 102,-313.5"/>
<text text-anchor="start" x="110" y="-331.5" font-family="Helvetica,sans-Serif" font-size="10.00">panoc&#45;alm/inner/directions</text>
<text text-anchor="middle" x="175.5" y="-320.5" font-family="Helvetica,sans-Serif" font-size="10.00">/lbfgs.hpp</text>
</a>
</g>
</g>
<!-- Node1&#45;&gt;Node21 -->
<g id="edge21" class="edge">
<title>Node1&#45;&gt;Node21</title>
<path fill="none" stroke="midnightblue" d="M480.97,-436.41C427.04,-417.54 297.29,-372.13 225.45,-346.98"/>
<polygon fill="midnightblue" stroke="midnightblue" points="226.31,-343.58 215.72,-343.58 224,-350.18 226.31,-343.58"/>
</g>
<!-- Node24 -->
<g id="node24" class="node">
<title>Node24</title>
<g id="a_node24"><a xlink:href="panoc_8hpp.html" target="_top" xlink:title=" ">
<polygon fill="white" stroke="black" points="431,-319 431,-338 580,-338 580,-319 431,-319"/>
<text text-anchor="middle" x="505.5" y="-326" font-family="Helvetica,sans-Serif" font-size="10.00">panoc&#45;alm/inner/panoc.hpp</text>
</a>
</g>
</g>
<!-- Node1&#45;&gt;Node24 -->
<g id="edge29" class="edge">
<title>Node1&#45;&gt;Node24</title>
<path fill="none" stroke="midnightblue" d="M505.5,-436.32C505.5,-417.76 505.5,-373.84 505.5,-348.47"/>
<polygon fill="midnightblue" stroke="midnightblue" points="509,-348.28 505.5,-338.28 502,-348.28 509,-348.28"/>
</g>
<!-- Node3 -->
<g id="node3" class="node">
<title>Node3</title>
<g id="a_node3"><a xlink:href="alm-helpers_8hpp.html" target="_top" xlink:title=" ">
<polygon fill="white" stroke="black" points="1361,-313.5 1361,-343.5 1482,-343.5 1482,-313.5 1361,-313.5"/>
<text text-anchor="start" x="1369" y="-331.5" font-family="Helvetica,sans-Serif" font-size="10.00">panoc&#45;alm/detail/alm</text>
<text text-anchor="middle" x="1421.5" y="-320.5" font-family="Helvetica,sans-Serif" font-size="10.00">&#45;helpers.hpp</text>
</a>
</g>
</g>
<!-- Node2&#45;&gt;Node3 -->
<g id="edge2" class="edge">
<title>Node2&#45;&gt;Node3</title>
<path fill="none" stroke="midnightblue" d="M1167.91,-380.48C1215.64,-370.88 1293.94,-355.14 1350.92,-343.69"/>
<polygon fill="midnightblue" stroke="midnightblue" points="1351.83,-347.07 1360.95,-341.67 1350.45,-340.21 1351.83,-347.07"/>
</g>
<!-- Node14 -->
<g id="node14" class="node">
<title>Node14</title>
<g id="a_node14"><a xlink:href="solverstatus_8hpp.html" target="_top" xlink:title=" ">
<polygon fill="white" stroke="black" points="1336,-185 1336,-204 1507,-204 1507,-185 1336,-185"/>
<text text-anchor="middle" x="1421.5" y="-192" font-family="Helvetica,sans-Serif" font-size="10.00">panoc&#45;alm/util/solverstatus.hpp</text>
</a>
</g>
</g>
<!-- Node2&#45;&gt;Node14 -->
<g id="edge18" class="edge">
<title>Node2&#45;&gt;Node14</title>
<path fill="none" stroke="midnightblue" d="M1181.34,-385.95C1278.49,-380.09 1470.33,-365.88 1491.5,-344 1521.84,-312.64 1518.12,-284.46 1497.5,-246 1488.3,-228.84 1470.42,-216.52 1454.32,-208.35"/>
<polygon fill="midnightblue" stroke="midnightblue" points="1455.65,-205.11 1445.12,-204.01 1452.67,-211.44 1455.65,-205.11"/>
</g>
<!-- Node19 -->
<g id="node19" class="node">
<title>Node19</title>
<g id="a_node19"><a xlink:title=" ">
<polygon fill="white" stroke="#bfbfbf" points="1021.5,-252 1021.5,-271 1077.5,-271 1077.5,-252 1021.5,-252"/>
<text text-anchor="middle" x="1049.5" y="-259" font-family="Helvetica,sans-Serif" font-size="10.00">iomanip</text>
</a>
</g>
</g>
<!-- Node2&#45;&gt;Node19 -->
<g id="edge19" class="edge">
<title>Node2&#45;&gt;Node19</title>
<path fill="none" stroke="midnightblue" d="M1120.28,-380.31C1107.91,-359.72 1076.65,-307.69 1060.12,-280.18"/>
<polygon fill="midnightblue" stroke="midnightblue" points="1062.91,-278.03 1054.76,-271.26 1056.91,-281.63 1062.91,-278.03"/>
</g>
<!-- Node20 -->
<g id="node20" class="node">
<title>Node20</title>
<g id="a_node20"><a xlink:title=" ">
<polygon fill="white" stroke="#bfbfbf" points="1095.5,-252 1095.5,-271 1155.5,-271 1155.5,-252 1095.5,-252"/>
<text text-anchor="middle" x="1125.5" y="-259" font-family="Helvetica,sans-Serif" font-size="10.00">iostream</text>
</a>
</g>
</g>
<!-- Node2&#45;&gt;Node20 -->
<g id="edge20" class="edge">
<title>Node2&#45;&gt;Node20</title>
<path fill="none" stroke="midnightblue" d="M1125.5,-380.31C1125.5,-359.99 1125.5,-309.05 1125.5,-281.28"/>
<polygon fill="midnightblue" stroke="midnightblue" points="1129,-281.26 1125.5,-271.26 1122,-281.26 1129,-281.26"/>
</g>
<!-- Node4 -->
<g id="node4" class="node">
<title>Node4</title>
<g id="a_node4"><a xlink:href="decl_2alm_8hpp.html" target="_top" xlink:title=" ">
<polygon fill="white" stroke="black" points="1354.5,-252 1354.5,-271 1488.5,-271 1488.5,-252 1354.5,-252"/>
<text text-anchor="middle" x="1421.5" y="-259" font-family="Helvetica,sans-Serif" font-size="10.00">panoc&#45;alm/decl/alm.hpp</text>
</a>
</g>
</g>
<!-- Node3&#45;&gt;Node4 -->
<g id="edge3" class="edge">
<title>Node3&#45;&gt;Node4</title>
<path fill="none" stroke="midnightblue" d="M1421.5,-313.4C1421.5,-304.06 1421.5,-291.71 1421.5,-281.52"/>
<polygon fill="midnightblue" stroke="midnightblue" points="1425,-281.19 1421.5,-271.19 1418,-281.19 1425,-281.19"/>
</g>
<!-- Node18 -->
<g id="node18" class="node">
<title>Node18</title>
<g id="a_node18"><a xlink:title=" ">
<polygon fill="white" stroke="#bfbfbf" points="424,-118 424,-137 489,-137 489,-118 424,-118"/>
<text text-anchor="middle" x="456.5" y="-125" font-family="Helvetica,sans-Serif" font-size="10.00">stdexcept</text>
</a>
</g>
</g>
<!-- Node3&#45;&gt;Node18 -->
<g id="edge17" class="edge">
<title>Node3&#45;&gt;Node18</title>
<path fill="none" stroke="midnightblue" d="M1479.45,-313.45C1564.36,-290.37 1706.35,-240.76 1646.5,-179 1602.05,-133.14 560.27,-154.79 497.5,-143 493.98,-142.34 490.36,-141.43 486.79,-140.37"/>
<polygon fill="midnightblue" stroke="midnightblue" points="487.61,-136.96 477.02,-137.15 485.41,-143.61 487.61,-136.96"/>
</g>
<!-- Node5 -->
<g id="node5" class="node">
<title>Node5</title>
<g id="a_node5"><a xlink:href="panoc-fwd_8hpp.html" target="_top" xlink:title=" ">
<polygon fill="white" stroke="black" points="1199,-179.5 1199,-209.5 1318,-209.5 1318,-179.5 1199,-179.5"/>
<text text-anchor="start" x="1207" y="-197.5" font-family="Helvetica,sans-Serif" font-size="10.00">panoc&#45;alm/inner/decl</text>
<text text-anchor="middle" x="1258.5" y="-186.5" font-family="Helvetica,sans-Serif" font-size="10.00">/panoc&#45;fwd.hpp</text>
</a>
</g>
</g>
<!-- Node4&#45;&gt;Node5 -->
<g id="edge4" class="edge">
<title>Node4&#45;&gt;Node5</title>
<path fill="none" stroke="midnightblue" d="M1399.85,-251.87C1375.29,-242.07 1334.56,-225.83 1303.11,-213.29"/>
<polygon fill="midnightblue" stroke="midnightblue" points="1304.26,-209.98 1293.68,-209.53 1301.67,-216.48 1304.26,-209.98"/>
</g>
<!-- Node7 -->
<g id="node7" class="node">
<title>Node7</title>
<g id="a_node7"><a xlink:href="include_2panoc-alm_2util_2problem_8hpp.html" target="_top" xlink:title=" ">
<polygon fill="white" stroke="black" points="815.5,-185 815.5,-204 967.5,-204 967.5,-185 815.5,-185"/>
<text text-anchor="middle" x="891.5" y="-192" font-family="Helvetica,sans-Serif" font-size="10.00">panoc&#45;alm/util/problem.hpp</text>
</a>
</g>
</g>
<!-- Node4&#45;&gt;Node7 -->
<g id="edge6" class="edge">
<title>Node4&#45;&gt;Node7</title>
<path fill="none" stroke="midnightblue" d="M1354.38,-252.27C1256.66,-240.28 1075.54,-218.07 971.18,-205.27"/>
<polygon fill="midnightblue" stroke="midnightblue" points="971.37,-201.77 961.02,-204.03 970.52,-208.72 971.37,-201.77"/>
</g>
<!-- Node4&#45;&gt;Node14 -->
<g id="edge13" class="edge">
<title>Node4&#45;&gt;Node14</title>
<path fill="none" stroke="midnightblue" d="M1421.5,-251.73C1421.5,-242.18 1421.5,-226.62 1421.5,-214.28"/>
<polygon fill="midnightblue" stroke="midnightblue" points="1425,-214.13 1421.5,-204.13 1418,-214.13 1425,-214.13"/>
</g>
<!-- Node16 -->
<g id="node16" class="node">
<title>Node16</title>
<g id="a_node16"><a xlink:title=" ">
<polygon fill="white" stroke="#bfbfbf" points="1525.5,-185 1525.5,-204 1575.5,-204 1575.5,-185 1525.5,-185"/>
<text text-anchor="middle" x="1550.5" y="-192" font-family="Helvetica,sans-Serif" font-size="10.00">chrono</text>
</a>
</g>
</g>
<!-- Node4&#45;&gt;Node16 -->
<g id="edge15" class="edge">
<title>Node4&#45;&gt;Node16</title>
<path fill="none" stroke="midnightblue" d="M1438.63,-251.87C1460.51,-240.84 1498.59,-221.66 1524.17,-208.77"/>
<polygon fill="midnightblue" stroke="midnightblue" points="1525.94,-211.79 1533.3,-204.17 1522.79,-205.54 1525.94,-211.79"/>
</g>
<!-- Node17 -->
<g id="node17" class="node">
<title>Node17</title>
<g id="a_node17"><a xlink:title=" ">
<polygon fill="white" stroke="#bfbfbf" points="1593.5,-185 1593.5,-204 1637.5,-204 1637.5,-185 1593.5,-185"/>
<text text-anchor="middle" x="1615.5" y="-192" font-family="Helvetica,sans-Serif" font-size="10.00">string</text>
</a>
</g>
</g>
<!-- Node4&#45;&gt;Node17 -->
<g id="edge16" class="edge">
<title>Node4&#45;&gt;Node17</title>
<path fill="none" stroke="midnightblue" d="M1453.49,-251.99C1486.68,-242.84 1539.87,-227.26 1584.5,-210 1585.92,-209.45 1587.37,-208.87 1588.82,-208.26"/>
<polygon fill="midnightblue" stroke="midnightblue" points="1590.58,-211.31 1598.3,-204.05 1587.74,-204.91 1590.58,-211.31"/>
</g>
<!-- Node6 -->
<g id="node6" class="node">
<title>Node6</title>
<g id="a_node6"><a xlink:href="lbfgs-fwd_8hpp.html" target="_top" xlink:title=" ">
<polygon fill="white" stroke="black" points="591,-112.5 591,-142.5 738,-142.5 738,-112.5 591,-112.5"/>
<text text-anchor="start" x="599" y="-130.5" font-family="Helvetica,sans-Serif" font-size="10.00">panoc&#45;alm/inner/directions</text>
<text text-anchor="middle" x="664.5" y="-119.5" font-family="Helvetica,sans-Serif" font-size="10.00">/decl/lbfgs&#45;fwd.hpp</text>
</a>
</g>
</g>
<!-- Node5&#45;&gt;Node6 -->
<g id="edge5" class="edge">
<title>Node5&#45;&gt;Node6</title>
<path fill="none" stroke="midnightblue" d="M1198.87,-180.34C1196.05,-179.85 1193.25,-179.4 1190.5,-179 998.14,-150.67 947.51,-166.48 754.5,-143 752.41,-142.75 750.3,-142.48 748.17,-142.2"/>
<polygon fill="midnightblue" stroke="midnightblue" points="748.49,-138.71 738.11,-140.83 747.55,-145.65 748.49,-138.71"/>
</g>
<!-- Node8 -->
<g id="node8" class="node">
<title>Node8</title>
<g id="a_node8"><a xlink:href="box_8hpp.html" target="_top" xlink:title=" ">
<polygon fill="white" stroke="black" points="262.5,-118 262.5,-137 318.5,-137 318.5,-118 262.5,-118"/>
<text text-anchor="middle" x="290.5" y="-125" font-family="Helvetica,sans-Serif" font-size="10.00">box.hpp</text>
</a>
</g>
</g>
<!-- Node7&#45;&gt;Node8 -->
<g id="edge7" class="edge">
<title>Node7&#45;&gt;Node8</title>
<path fill="none" stroke="midnightblue" d="M846.18,-184.96C833.38,-182.77 819.43,-180.58 806.5,-179 594.6,-153.02 535.64,-190.48 327.5,-143 324.66,-142.35 321.75,-141.53 318.88,-140.59"/>
<polygon fill="midnightblue" stroke="midnightblue" points="319.95,-137.26 309.36,-137.14 317.57,-143.84 319.95,-137.26"/>
</g>
<!-- Node11 -->
<g id="node11" class="node">
<title>Node11</title>
<g id="a_node11"><a xlink:title=" ">
<polygon fill="white" stroke="#bfbfbf" points="764,-118 764,-137 829,-137 829,-118 764,-118"/>
<text text-anchor="middle" x="796.5" y="-125" font-family="Helvetica,sans-Serif" font-size="10.00">functional</text>
</a>
</g>
</g>
<!-- Node7&#45;&gt;Node11 -->
<g id="edge10" class="edge">
<title>Node7&#45;&gt;Node11</title>
<path fill="none" stroke="midnightblue" d="M878.69,-184.73C863.02,-174.01 836.28,-155.72 817.57,-142.91"/>
<polygon fill="midnightblue" stroke="midnightblue" points="819.34,-139.89 809.11,-137.13 815.39,-145.66 819.34,-139.89"/>
</g>
<!-- Node12 -->
<g id="node12" class="node">
<title>Node12</title>
<g id="a_node12"><a xlink:title=" ">
<polygon fill="white" stroke="#bfbfbf" points="847.5,-118 847.5,-137 905.5,-137 905.5,-118 847.5,-118"/>
<text text-anchor="middle" x="876.5" y="-125" font-family="Helvetica,sans-Serif" font-size="10.00">memory</text>
</a>
</g>
</g>
<!-- Node7&#45;&gt;Node12 -->
<g id="edge11" class="edge">
<title>Node7&#45;&gt;Node12</title>
<path fill="none" stroke="midnightblue" d="M889.48,-184.73C887.25,-175.09 883.61,-159.3 880.75,-146.91"/>
<polygon fill="midnightblue" stroke="midnightblue" points="884.15,-146.08 878.49,-137.13 877.33,-147.66 884.15,-146.08"/>
</g>
<!-- Node13 -->
<g id="node13" class="node">
<title>Node13</title>
<g id="a_node13"><a xlink:title=" ">
<polygon fill="white" stroke="#bfbfbf" points="337,-118 337,-137 406,-137 406,-118 337,-118"/>
<text text-anchor="middle" x="371.5" y="-125" font-family="Helvetica,sans-Serif" font-size="10.00">type_traits</text>
</a>
</g>
</g>
<!-- Node7&#45;&gt;Node13 -->
<g id="edge12" class="edge">
<title>Node7&#45;&gt;Node13</title>
<path fill="none" stroke="midnightblue" d="M845.28,-184.95C832.73,-182.81 819.12,-180.65 806.5,-179 633.03,-156.27 585.67,-179.2 414.5,-143 410.81,-142.22 407.01,-141.23 403.25,-140.13"/>
<polygon fill="midnightblue" stroke="midnightblue" points="404.13,-136.73 393.54,-137.03 402.01,-143.4 404.13,-136.73"/>
</g>
<!-- Node9 -->
<g id="node9" class="node">
<title>Node9</title>
<g id="a_node9"><a xlink:href="vec_8hpp.html" target="_top" xlink:title=" ">
<polygon fill="white" stroke="black" points="263,-56.5 263,-75.5 318,-75.5 318,-56.5 263,-56.5"/>
<text text-anchor="middle" x="290.5" y="-63.5" font-family="Helvetica,sans-Serif" font-size="10.00">vec.hpp</text>
</a>
</g>
</g>
<!-- Node8&#45;&gt;Node9 -->
<g id="edge8" class="edge">
<title>Node8&#45;&gt;Node9</title>
<path fill="none" stroke="midnightblue" d="M290.5,-117.98C290.5,-109.58 290.5,-96.48 290.5,-85.66"/>
<polygon fill="midnightblue" stroke="midnightblue" points="294,-85.51 290.5,-75.51 287,-85.51 294,-85.51"/>
</g>
<!-- Node10 -->
<g id="node10" class="node">
<title>Node10</title>
<g id="a_node10"><a xlink:title=" ">
<polygon fill="white" stroke="#bfbfbf" points="256,-0.5 256,-19.5 325,-19.5 325,-0.5 256,-0.5"/>
<text text-anchor="middle" x="290.5" y="-7.5" font-family="Helvetica,sans-Serif" font-size="10.00">Eigen/Core</text>
</a>
</g>
</g>
<!-- Node9&#45;&gt;Node10 -->
<g id="edge9" class="edge">
<title>Node9&#45;&gt;Node10</title>
<path fill="none" stroke="midnightblue" d="M290.5,-56.08C290.5,-49.01 290.5,-38.86 290.5,-29.99"/>
<polygon fill="midnightblue" stroke="midnightblue" points="294,-29.75 290.5,-19.75 287,-29.75 294,-29.75"/>
</g>
<!-- Node15 -->
<g id="node15" class="node">
<title>Node15</title>
<g id="a_node15"><a xlink:title=" ">
<polygon fill="white" stroke="#bfbfbf" points="1397.5,-118 1397.5,-137 1445.5,-137 1445.5,-118 1397.5,-118"/>
<text text-anchor="middle" x="1421.5" y="-125" font-family="Helvetica,sans-Serif" font-size="10.00">iosfwd</text>
</a>
</g>
</g>
<!-- Node14&#45;&gt;Node15 -->
<g id="edge14" class="edge">
<title>Node14&#45;&gt;Node15</title>
<path fill="none" stroke="midnightblue" d="M1421.5,-184.73C1421.5,-175.18 1421.5,-159.62 1421.5,-147.28"/>
<polygon fill="midnightblue" stroke="midnightblue" points="1425,-147.13 1421.5,-137.13 1418,-147.13 1425,-147.13"/>
</g>
<!-- Node21&#45;&gt;Node13 -->
<g id="edge28" class="edge">
<title>Node21&#45;&gt;Node13</title>
<path fill="none" stroke="midnightblue" d="M172.51,-313.19C167.32,-284.07 160.15,-217.45 193.5,-179 233.91,-132.41 268.41,-160.66 327.5,-143 330.49,-142.11 333.58,-141.15 336.67,-140.18"/>
<polygon fill="midnightblue" stroke="midnightblue" points="338,-143.42 346.45,-137.02 335.86,-136.76 338,-143.42"/>
</g>
<!-- Node22 -->
<g id="node22" class="node">
<title>Node22</title>
<g id="a_node22"><a xlink:href="decl_2lbfgs_8hpp.html" target="_top" xlink:title=" ">
<polygon fill="white" stroke="black" points="0,-246.5 0,-276.5 147,-276.5 147,-246.5 0,-246.5"/>
<text text-anchor="start" x="8" y="-264.5" font-family="Helvetica,sans-Serif" font-size="10.00">panoc&#45;alm/inner/directions</text>
<text text-anchor="middle" x="73.5" y="-253.5" font-family="Helvetica,sans-Serif" font-size="10.00">/decl/lbfgs.hpp</text>
</a>
</g>
</g>
<!-- Node21&#45;&gt;Node22 -->
<g id="edge22" class="edge">
<title>Node21&#45;&gt;Node22</title>
<path fill="none" stroke="midnightblue" d="M153.37,-313.4C138.93,-304.2 119.9,-292.07 104.03,-281.95"/>
<polygon fill="midnightblue" stroke="midnightblue" points="105.9,-279 95.59,-276.58 102.14,-284.9 105.9,-279"/>
</g>
<!-- Node22&#45;&gt;Node6 -->
<g id="edge25" class="edge">
<title>Node22&#45;&gt;Node6</title>
<path fill="none" stroke="midnightblue" d="M88.75,-246.32C110.25,-227.28 151.56,-194.1 193.5,-179 352.69,-121.67 404.63,-164.18 572.5,-143 575.19,-142.66 577.92,-142.3 580.68,-141.93"/>
<polygon fill="midnightblue" stroke="midnightblue" points="581.32,-145.38 590.74,-140.53 580.35,-138.44 581.32,-145.38"/>
</g>
<!-- Node22&#45;&gt;Node8 -->
<g id="edge23" class="edge">
<title>Node22&#45;&gt;Node8</title>
<path fill="none" stroke="midnightblue" d="M78.56,-246.2C85.75,-227.95 100.63,-196.64 123.5,-179 161.26,-149.87 215.75,-137.47 252.1,-132.24"/>
<polygon fill="midnightblue" stroke="midnightblue" points="252.85,-135.67 262.3,-130.89 251.93,-128.73 252.85,-135.67"/>
</g>
<!-- Node22&#45;&gt;Node9 -->
<g id="edge24" class="edge">
<title>Node22&#45;&gt;Node9</title>
<path fill="none" stroke="midnightblue" d="M73.87,-246.39C75.01,-228.9 79.25,-198.98 94.5,-179 135.06,-125.85 208.61,-93.8 253.16,-78.33"/>
<polygon fill="midnightblue" stroke="midnightblue" points="254.38,-81.61 262.74,-75.11 252.15,-74.98 254.38,-81.61"/>
</g>
<!-- Node23 -->
<g id="node23" class="node">
<title>Node23</title>
<g id="a_node23"><a xlink:href="panoc-direction-update_8hpp.html" target="_top" xlink:title=" ">
<polygon fill="white" stroke="black" points="203,-179.5 203,-209.5 380,-209.5 380,-179.5 203,-179.5"/>
<text text-anchor="start" x="211" y="-197.5" font-family="Helvetica,sans-Serif" font-size="10.00">panoc&#45;alm/inner/directions</text>
<text text-anchor="middle" x="291.5" y="-186.5" font-family="Helvetica,sans-Serif" font-size="10.00">/decl/panoc&#45;direction&#45;update.hpp</text>
</a>
</g>
</g>
<!-- Node22&#45;&gt;Node23 -->
<g id="edge26" class="edge">
<title>Node22&#45;&gt;Node23</title>
<path fill="none" stroke="midnightblue" d="M120.53,-246.48C153.94,-236.51 198.98,-223.09 234.44,-212.51"/>
<polygon fill="midnightblue" stroke="midnightblue" points="235.59,-215.82 244.17,-209.61 233.59,-209.11 235.59,-215.82"/>
</g>
<!-- Node23&#45;&gt;Node8 -->
<g id="edge27" class="edge">
<title>Node23&#45;&gt;Node8</title>
<path fill="none" stroke="midnightblue" d="M291.28,-179.4C291.14,-170.06 290.95,-157.71 290.79,-147.52"/>
<polygon fill="midnightblue" stroke="midnightblue" points="294.29,-147.14 290.63,-137.19 287.29,-147.25 294.29,-147.14"/>
</g>
<!-- Node24&#45;&gt;Node18 -->
<g id="edge58" class="edge">
<title>Node24&#45;&gt;Node18</title>
<path fill="none" stroke="midnightblue" d="M499.7,-318.86C487.47,-300.06 459.37,-253.64 449.5,-210 444.72,-188.84 448.13,-163.92 451.67,-147.25"/>
<polygon fill="midnightblue" stroke="midnightblue" points="455.15,-147.72 454.03,-137.18 448.34,-146.12 455.15,-147.72"/>
</g>
<!-- Node24&#45;&gt;Node19 -->
<g id="edge56" class="edge">
<title>Node24&#45;&gt;Node19</title>
<path fill="none" stroke="midnightblue" d="M580.03,-326.43C679.83,-323.57 861.79,-313.3 1012.5,-277 1015.33,-276.32 1018.23,-275.47 1021.1,-274.52"/>
<polygon fill="midnightblue" stroke="midnightblue" points="1022.42,-277.77 1030.62,-271.05 1020.02,-271.19 1022.42,-277.77"/>
</g>
<!-- Node24&#45;&gt;Node20 -->
<g id="edge57" class="edge">
<title>Node24&#45;&gt;Node20</title>
<path fill="none" stroke="midnightblue" d="M580.31,-327.39C691.9,-325.79 907.96,-317.17 1086.5,-277 1089.57,-276.31 1092.73,-275.43 1095.85,-274.45"/>
<polygon fill="midnightblue" stroke="midnightblue" points="1097.27,-277.67 1105.57,-271.08 1094.98,-271.05 1097.27,-277.67"/>
</g>
<!-- Node24&#45;&gt;Node23 -->
<g id="edge53" class="edge">
<title>Node24&#45;&gt;Node23</title>
<path fill="none" stroke="midnightblue" d="M481.91,-318.86C458.63,-309.89 422.43,-294.69 393.5,-277 364.44,-259.23 334.34,-234.23 314.45,-216.62"/>
<polygon fill="midnightblue" stroke="midnightblue" points="316.62,-213.87 306.83,-209.8 311.94,-219.08 316.62,-213.87"/>
</g>
<!-- Node25 -->
<g id="node25" class="node">
<title>Node25</title>
<g id="a_node25"><a xlink:href="decl_2panoc_8hpp.html" target="_top" xlink:title=" ">
<polygon fill="white" stroke="black" points="884,-246.5 884,-276.5 1003,-276.5 1003,-246.5 884,-246.5"/>
<text text-anchor="start" x="892" y="-264.5" font-family="Helvetica,sans-Serif" font-size="10.00">panoc&#45;alm/inner/decl</text>
<text text-anchor="middle" x="943.5" y="-253.5" font-family="Helvetica,sans-Serif" font-size="10.00">/panoc.hpp</text>
</a>
</g>
</g>
<!-- Node24&#45;&gt;Node25 -->
<g id="edge30" class="edge">
<title>Node24&#45;&gt;Node25</title>
<path fill="none" stroke="midnightblue" d="M563.21,-318.94C643.32,-307.05 788.03,-285.57 873.98,-272.82"/>
<polygon fill="midnightblue" stroke="midnightblue" points="874.53,-276.27 883.91,-271.34 873.5,-269.35 874.53,-276.27"/>
</g>
<!-- Node33 -->
<g id="node33" class="node">
<title>Node33</title>
<g id="a_node33"><a xlink:href="panoc-helpers_8hpp.html" target="_top" xlink:title=" ">
<polygon fill="white" stroke="black" points="540,-246.5 540,-276.5 667,-276.5 667,-246.5 540,-246.5"/>
<text text-anchor="start" x="548" y="-264.5" font-family="Helvetica,sans-Serif" font-size="10.00">panoc&#45;alm/inner/detail</text>
<text text-anchor="middle" x="603.5" y="-253.5" font-family="Helvetica,sans-Serif" font-size="10.00">/panoc&#45;helpers.hpp</text>
</a>
</g>
</g>
<!-- Node24&#45;&gt;Node33 -->
<g id="edge47" class="edge">
<title>Node24&#45;&gt;Node33</title>
<path fill="none" stroke="midnightblue" d="M518.72,-318.73C532.73,-309.44 555.31,-294.46 573.65,-282.3"/>
<polygon fill="midnightblue" stroke="midnightblue" points="575.86,-285.03 582.26,-276.59 571.99,-279.2 575.86,-285.03"/>
</g>
<!-- Node34 -->
<g id="node34" class="node">
<title>Node34</title>
<g id="a_node34"><a xlink:title=" ">
<polygon fill="white" stroke="#bfbfbf" points="223.5,-252 223.5,-271 275.5,-271 275.5,-252 223.5,-252"/>
<text text-anchor="middle" x="249.5" y="-259" font-family="Helvetica,sans-Serif" font-size="10.00">cassert</text>
</a>
</g>
</g>
<!-- Node24&#45;&gt;Node34 -->
<g id="edge54" class="edge">
<title>Node24&#45;&gt;Node34</title>
<path fill="none" stroke="midnightblue" d="M457.46,-318.94C412.26,-310.33 342.99,-295.65 284.5,-277 282.36,-276.32 280.17,-275.56 277.98,-274.76"/>
<polygon fill="midnightblue" stroke="midnightblue" points="279.13,-271.45 268.54,-271.07 276.58,-277.97 279.13,-271.45"/>
</g>
<!-- Node35 -->
<g id="node35" class="node">
<title>Node35</title>
<g id="a_node35"><a xlink:title=" ">
<polygon fill="white" stroke="#bfbfbf" points="294,-252 294,-271 341,-271 341,-252 294,-252"/>
<text text-anchor="middle" x="317.5" y="-259" font-family="Helvetica,sans-Serif" font-size="10.00">cmath</text>
</a>
</g>
</g>
<!-- Node24&#45;&gt;Node35 -->
<g id="edge55" class="edge">
<title>Node24&#45;&gt;Node35</title>
<path fill="none" stroke="midnightblue" d="M479.11,-318.97C449.06,-309.17 398.56,-292.46 355.5,-277 353.39,-276.24 351.23,-275.45 349.05,-274.65"/>
<polygon fill="midnightblue" stroke="midnightblue" points="350.14,-271.32 339.55,-271.08 347.68,-277.87 350.14,-271.32"/>
</g>
<!-- Node25&#45;&gt;Node5 -->
<g id="edge32" class="edge">
<title>Node25&#45;&gt;Node5</title>
<path fill="none" stroke="midnightblue" d="M1003.33,-247.9C1006.43,-247.25 1009.5,-246.62 1012.5,-246 1088.46,-230.34 1109.83,-226.69 1188.87,-210.33"/>
<polygon fill="midnightblue" stroke="midnightblue" points="1189.72,-213.72 1198.8,-208.27 1188.3,-206.87 1189.72,-213.72"/>
</g>
<!-- Node25&#45;&gt;Node7 -->
<g id="edge41" class="edge">
<title>Node25&#45;&gt;Node7</title>
<path fill="none" stroke="midnightblue" d="M932.22,-246.4C924.19,-236.36 913.37,-222.84 904.9,-212.25"/>
<polygon fill="midnightblue" stroke="midnightblue" points="907.44,-209.82 898.46,-204.19 901.97,-214.19 907.44,-209.82"/>
</g>
<!-- Node25&#45;&gt;Node14 -->
<g id="edge42" class="edge">
<title>Node25&#45;&gt;Node14</title>
<path fill="none" stroke="midnightblue" d="M1003.28,-247.58C1006.39,-247.02 1009.48,-246.49 1012.5,-246 1151.6,-223.49 1187.84,-228.74 1327.5,-210 1337.44,-208.67 1347.96,-207.15 1358.22,-205.61"/>
<polygon fill="midnightblue" stroke="midnightblue" points="1359,-209.03 1368.36,-204.07 1357.95,-202.11 1359,-209.03"/>
</g>
<!-- Node25&#45;&gt;Node16 -->
<g id="edge44" class="edge">
<title>Node25&#45;&gt;Node16</title>
<path fill="none" stroke="midnightblue" d="M1003.25,-247.43C1006.37,-246.9 1009.47,-246.42 1012.5,-246 1234.9,-214.84 1298.22,-262.77 1516.5,-210 1519.01,-209.39 1521.57,-208.62 1524.11,-207.74"/>
<polygon fill="midnightblue" stroke="midnightblue" points="1525.56,-210.94 1533.58,-204.02 1523,-204.42 1525.56,-210.94"/>
</g>
<!-- Node25&#45;&gt;Node17 -->
<g id="edge46" class="edge">
<title>Node25&#45;&gt;Node17</title>
<path fill="none" stroke="midnightblue" d="M1003.25,-247.39C1006.37,-246.88 1009.47,-246.41 1012.5,-246 1264.91,-211.72 1337.71,-273.06 1584.5,-210 1586.49,-209.49 1588.5,-208.86 1590.5,-208.14"/>
<polygon fill="midnightblue" stroke="midnightblue" points="1592.3,-211.18 1600.15,-204.06 1589.58,-204.73 1592.3,-211.18"/>
</g>
<!-- Node25&#45;&gt;Node23 -->
<g id="edge36" class="edge">
<title>Node25&#45;&gt;Node23</title>
<path fill="none" stroke="midnightblue" d="M883.91,-254.56C771.59,-243.36 527.52,-219.03 390.3,-205.35"/>
<polygon fill="midnightblue" stroke="midnightblue" points="390.5,-201.85 380.2,-204.34 389.8,-208.82 390.5,-201.85"/>
</g>
<!-- Node26 -->
<g id="node26" class="node">
<title>Node26</title>
<g id="a_node26"><a xlink:href="lbfgs-stepsize_8hpp.html" target="_top" xlink:title=" ">
<polygon fill="white" stroke="black" points="1062,-179.5 1062,-209.5 1181,-209.5 1181,-179.5 1062,-179.5"/>
<text text-anchor="start" x="1070" y="-197.5" font-family="Helvetica,sans-Serif" font-size="10.00">panoc&#45;alm/inner/decl</text>
<text text-anchor="middle" x="1121.5" y="-186.5" font-family="Helvetica,sans-Serif" font-size="10.00">/lbfgs&#45;stepsize.hpp</text>
</a>
</g>
</g>
<!-- Node25&#45;&gt;Node26 -->
<g id="edge31" class="edge">
<title>Node25&#45;&gt;Node26</title>
<path fill="none" stroke="midnightblue" d="M982.12,-246.4C1008.95,-236.6 1044.88,-223.48 1073.53,-213.02"/>
<polygon fill="midnightblue" stroke="midnightblue" points="1074.76,-216.29 1082.95,-209.58 1072.36,-209.72 1074.76,-216.29"/>
</g>
<!-- Node27 -->
<g id="node27" class="node">
<title>Node27</title>
<g id="a_node27"><a xlink:href="panoc-stop-crit_8hpp.html" target="_top" xlink:title=" ">
<polygon fill="white" stroke="black" points="474,-179.5 474,-209.5 593,-209.5 593,-179.5 474,-179.5"/>
<text text-anchor="start" x="482" y="-197.5" font-family="Helvetica,sans-Serif" font-size="10.00">panoc&#45;alm/inner/decl</text>
<text text-anchor="middle" x="533.5" y="-186.5" font-family="Helvetica,sans-Serif" font-size="10.00">/panoc&#45;stop&#45;crit.hpp</text>
</a>
</g>
</g>
<!-- Node25&#45;&gt;Node27 -->
<g id="edge33" class="edge">
<title>Node25&#45;&gt;Node27</title>
<path fill="none" stroke="midnightblue" d="M883.88,-252.78C817.81,-243.97 707.87,-228.58 603.39,-210.09"/>
<polygon fill="midnightblue" stroke="midnightblue" points="603.76,-206.6 593.3,-208.3 602.53,-213.5 603.76,-206.6"/>
</g>
<!-- Node29 -->
<g id="node29" class="node">
<title>Node29</title>
<g id="a_node29"><a xlink:href="atomic__stop__signal_8hpp.html" target="_top" xlink:title=" ">
<polygon fill="white" stroke="black" points="611.5,-179.5 611.5,-209.5 735.5,-209.5 735.5,-179.5 611.5,-179.5"/>
<text text-anchor="start" x="619.5" y="-197.5" font-family="Helvetica,sans-Serif" font-size="10.00">panoc&#45;alm/util/atomic</text>
<text text-anchor="middle" x="673.5" y="-186.5" font-family="Helvetica,sans-Serif" font-size="10.00">_stop_signal.hpp</text>
</a>
</g>
</g>
<!-- Node25&#45;&gt;Node29 -->
<g id="edge37" class="edge">
<title>Node25&#45;&gt;Node29</title>
<path fill="none" stroke="midnightblue" d="M885.25,-246.48C843.16,-236.34 786.18,-222.63 741.92,-211.97"/>
<polygon fill="midnightblue" stroke="midnightblue" points="742.66,-208.55 732.11,-209.61 741.02,-215.35 742.66,-208.55"/>
</g>
<!-- Node30 -->
<g id="node30" class="node">
<title>Node30</title>
<g id="a_node30"><a xlink:title=" ">
<polygon fill="white" stroke="#bfbfbf" points="923.5,-118 923.5,-137 973.5,-137 973.5,-118 923.5,-118"/>
<text text-anchor="middle" x="948.5" y="-125" font-family="Helvetica,sans-Serif" font-size="10.00">atomic</text>
</a>
</g>
</g>
<!-- Node25&#45;&gt;Node30 -->
<g id="edge43" class="edge">
<title>Node25&#45;&gt;Node30</title>
<path fill="none" stroke="midnightblue" d="M956.11,-246.19C963.64,-236.66 972.49,-223.45 976.5,-210 980.43,-196.8 979.95,-192.34 976.5,-179 973.41,-167.06 966.83,-154.94 960.82,-145.56"/>
<polygon fill="midnightblue" stroke="midnightblue" points="963.66,-143.52 955.15,-137.21 957.87,-147.45 963.66,-143.52"/>
</g>
<!-- Node31 -->
<g id="node31" class="node">
<title>Node31</title>
<g id="a_node31"><a xlink:href="lipschitz_8hpp.html" target="_top" xlink:title=" ">
<polygon fill="white" stroke="black" points="991.5,-118 991.5,-137 1143.5,-137 1143.5,-118 991.5,-118"/>
<text text-anchor="middle" x="1067.5" y="-125" font-family="Helvetica,sans-Serif" font-size="10.00">panoc&#45;alm/util/lipschitz.hpp</text>
</a>
</g>
</g>
<!-- Node25&#45;&gt;Node31 -->
<g id="edge39" class="edge">
<title>Node25&#45;&gt;Node31</title>
<path fill="none" stroke="midnightblue" d="M956.98,-246.39C966.62,-236.28 979.89,-222.33 991.5,-210 1012.73,-187.45 1037.13,-161.23 1052.43,-144.75"/>
<polygon fill="midnightblue" stroke="midnightblue" points="1055.3,-146.8 1059.54,-137.09 1050.17,-142.04 1055.3,-146.8"/>
</g>
<!-- Node32 -->
<g id="node32" class="node">
<title>Node32</title>
<g id="a_node32"><a xlink:title=" ">
<polygon fill="white" stroke="#bfbfbf" points="753.5,-185 753.5,-204 797.5,-204 797.5,-185 753.5,-185"/>
<text text-anchor="middle" x="775.5" y="-192" font-family="Helvetica,sans-Serif" font-size="10.00">limits</text>
</a>
</g>
</g>
<!-- Node25&#45;&gt;Node32 -->
<g id="edge45" class="edge">
<title>Node25&#45;&gt;Node32</title>
<path fill="none" stroke="midnightblue" d="M902.69,-246.47C875.26,-236.8 838.43,-223.33 806.5,-210 805.13,-209.43 803.73,-208.83 802.32,-208.21"/>
<polygon fill="midnightblue" stroke="midnightblue" points="803.64,-204.97 793.09,-204.04 800.76,-211.35 803.64,-204.97"/>
</g>
<!-- Node27&#45;&gt;Node18 -->
<g id="edge35" class="edge">
<title>Node27&#45;&gt;Node18</title>
<path fill="none" stroke="midnightblue" d="M516.79,-179.4C504.31,-168.86 487.27,-154.48 474.49,-143.69"/>
<polygon fill="midnightblue" stroke="midnightblue" points="476.7,-140.97 466.8,-137.19 472.18,-146.32 476.7,-140.97"/>
</g>
<!-- Node28 -->
<g id="node28" class="node">
<title>Node28</title>
<g id="a_node28"><a xlink:title=" ">
<polygon fill="white" stroke="#bfbfbf" points="507,-118 507,-137 564,-137 564,-118 507,-118"/>
<text text-anchor="middle" x="535.5" y="-125" font-family="Helvetica,sans-Serif" font-size="10.00">ostream</text>
</a>
</g>
</g>
<!-- Node27&#45;&gt;Node28 -->
<g id="edge34" class="edge">
<title>Node27&#45;&gt;Node28</title>
<path fill="none" stroke="midnightblue" d="M533.93,-179.4C534.22,-170.06 534.6,-157.71 534.91,-147.52"/>
<polygon fill="midnightblue" stroke="midnightblue" points="538.42,-147.3 535.23,-137.19 531.43,-147.08 538.42,-147.3"/>
</g>
<!-- Node29&#45;&gt;Node30 -->
<g id="edge38" class="edge">
<title>Node29&#45;&gt;Node30</title>
<path fill="none" stroke="midnightblue" d="M735.71,-180.78C804.22,-166.73 905.91,-145.7 914.5,-143 916.43,-142.39 918.4,-141.72 920.37,-141"/>
<polygon fill="midnightblue" stroke="midnightblue" points="922.04,-144.1 930.04,-137.15 919.46,-137.59 922.04,-144.1"/>
</g>
<!-- Node31&#45;&gt;Node9 -->
<g id="edge40" class="edge">
<title>Node31&#45;&gt;Node9</title>
<path fill="none" stroke="midnightblue" d="M1022.63,-117.95C1009.72,-115.73 995.58,-113.54 982.5,-112 733.96,-82.8 432.81,-71.35 328.34,-68.08"/>
<polygon fill="midnightblue" stroke="midnightblue" points="328.38,-64.58 318.28,-67.77 328.17,-71.57 328.38,-64.58"/>
</g>
<!-- Node33&#45;&gt;Node7 -->
<g id="edge50" class="edge">
<title>Node33&#45;&gt;Node7</title>
<path fill="none" stroke="midnightblue" d="M665.64,-246.48C719.05,-234.42 794.97,-217.29 843.74,-206.28"/>
<polygon fill="midnightblue" stroke="midnightblue" points="844.73,-209.64 853.71,-204.03 843.19,-202.82 844.73,-209.64"/>
</g>
<!-- Node33&#45;&gt;Node14 -->
<g id="edge51" class="edge">
<title>Node33&#45;&gt;Node14</title>
<path fill="none" stroke="midnightblue" d="M667.12,-256.75C819.15,-247.67 1200.32,-224.22 1327.5,-210 1338.43,-208.78 1350.04,-207.21 1361.23,-205.56"/>
<polygon fill="midnightblue" stroke="midnightblue" points="1361.99,-208.98 1371.36,-204.03 1360.95,-202.06 1361.99,-208.98"/>
</g>
<!-- Node33&#45;&gt;Node18 -->
<g id="edge52" class="edge">
<title>Node33&#45;&gt;Node18</title>
<path fill="none" stroke="midnightblue" d="M539.93,-252.64C512.49,-245.88 482.61,-233.32 464.5,-210 450.7,-192.23 450.91,-165.28 453.07,-147.3"/>
<polygon fill="midnightblue" stroke="midnightblue" points="456.57,-147.6 454.61,-137.19 449.65,-146.55 456.57,-147.6"/>
</g>
<!-- Node33&#45;&gt;Node27 -->
<g id="edge48" class="edge">
<title>Node33&#45;&gt;Node27</title>
<path fill="none" stroke="midnightblue" d="M588.31,-246.4C578.95,-237.71 566.78,-226.4 556.29,-216.66"/>
<polygon fill="midnightblue" stroke="midnightblue" points="558.37,-213.82 548.66,-209.58 553.61,-218.95 558.37,-213.82"/>
</g>
<!-- Node33&#45;&gt;Node29 -->
<g id="edge49" class="edge">
<title>Node33&#45;&gt;Node29</title>
<path fill="none" stroke="midnightblue" d="M618.69,-246.4C628.05,-237.71 640.22,-226.4 650.71,-216.66"/>
<polygon fill="midnightblue" stroke="midnightblue" points="653.39,-218.95 658.34,-209.58 648.63,-213.82 653.39,-218.95"/>
</g>
</g>
</svg>
