<?xml version="1.0" encoding="UTF-8" standalone="no"?>
<!DOCTYPE svg PUBLIC "-//W3C//DTD SVG 1.1//EN"
 "http://www.w3.org/Graphics/SVG/1.1/DTD/svg11.dtd">
<!-- Generated by graphviz version 2.43.0 (0)
 -->
<!-- Title: anderson&#45;acceleration.hpp Pages: 1 -->
<svg width="469pt" height="274pt"
 viewBox="0.00 0.00 468.50 274.00" xmlns="http://www.w3.org/2000/svg" xmlns:xlink="http://www.w3.org/1999/xlink">
<g id="graph0" class="graph" transform="scale(1 1) rotate(0) translate(4 270)">
<title>anderson&#45;acceleration.hpp</title>
<polygon fill="white" stroke="transparent" points="-4,4 -4,-270 464.5,-270 464.5,4 -4,4"/>
<!-- Node1 -->
<g id="node1" class="node">
<title>Node1</title>
<g id="a_node1"><a xlink:title=" ">
<polygon fill="#bfbfbf" stroke="black" points="214,-246.5 214,-265.5 360,-265.5 360,-246.5 214,-246.5"/>
<text text-anchor="middle" x="287" y="-253.5" font-family="Helvetica,sans-Serif" font-size="10.00">anderson&#45;acceleration.hpp</text>
</a>
</g>
</g>
<!-- Node2 -->
<g id="node2" class="node">
<title>Node2</title>
<g id="a_node2"><a xlink:href="anderson-helpers_8hpp.html" target="_top" xlink:title=" ">
<polygon fill="white" stroke="black" points="138.5,-179.5 138.5,-209.5 265.5,-209.5 265.5,-179.5 138.5,-179.5"/>
<text text-anchor="start" x="146.5" y="-197.5" font-family="Helvetica,sans-Serif" font-size="10.00">panoc&#45;alm/inner/detail</text>
<text text-anchor="middle" x="202" y="-186.5" font-family="Helvetica,sans-Serif" font-size="10.00">/anderson&#45;helpers.hpp</text>
</a>
</g>
</g>
<!-- Node1&#45;&gt;Node2 -->
<g id="edge1" class="edge">
<title>Node1&#45;&gt;Node2</title>
<path fill="none" stroke="midnightblue" d="M274.82,-246.48C263.31,-238.42 245.6,-226.02 230.53,-215.47"/>
<polygon fill="midnightblue" stroke="midnightblue" points="232.23,-212.39 222.03,-209.52 228.22,-218.12 232.23,-212.39"/>
</g>
<!-- Node10 -->
<g id="node10" class="node">
<title>Node10</title>
<g id="a_node10"><a xlink:href="panoc-direction-update_8hpp.html" target="_top" xlink:title=" ">
<polygon fill="white" stroke="black" points="283.5,-179.5 283.5,-209.5 460.5,-209.5 460.5,-179.5 283.5,-179.5"/>
<text text-anchor="start" x="291.5" y="-197.5" font-family="Helvetica,sans-Serif" font-size="10.00">panoc&#45;alm/inner/directions</text>
<text text-anchor="middle" x="372" y="-186.5" font-family="Helvetica,sans-Serif" font-size="10.00">/decl/panoc&#45;direction&#45;update.hpp</text>
</a>
</g>
</g>
<!-- Node1&#45;&gt;Node10 -->
<g id="edge10" class="edge">
<title>Node1&#45;&gt;Node10</title>
<path fill="none" stroke="midnightblue" d="M299.18,-246.48C310.69,-238.42 328.4,-226.02 343.47,-215.47"/>
<polygon fill="midnightblue" stroke="midnightblue" points="345.78,-218.12 351.97,-209.52 341.77,-212.39 345.78,-218.12"/>
</g>
<!-- Node3 -->
<g id="node3" class="node">
<title>Node3</title>
<g id="a_node3"><a xlink:href="limited-memory-qr_8hpp.html" target="_top" xlink:title=" ">
<polygon fill="white" stroke="black" points="135.5,-112.5 135.5,-142.5 268.5,-142.5 268.5,-112.5 135.5,-112.5"/>
<text text-anchor="start" x="143.5" y="-130.5" font-family="Helvetica,sans-Serif" font-size="10.00">panoc&#45;alm/inner/detail</text>
<text text-anchor="middle" x="202" y="-119.5" font-family="Helvetica,sans-Serif" font-size="10.00">/limited&#45;memory&#45;qr.hpp</text>
</a>
</g>
</g>
<!-- Node2&#45;&gt;Node3 -->
<g id="edge2" class="edge">
<title>Node2&#45;&gt;Node3</title>
<path fill="none" stroke="midnightblue" d="M202,-179.4C202,-171.64 202,-161.81 202,-152.86"/>
<polygon fill="midnightblue" stroke="midnightblue" points="205.5,-152.58 202,-142.58 198.5,-152.58 205.5,-152.58"/>
</g>
<!-- Node4 -->
<g id="node4" class="node">
<title>Node4</title>
<g id="a_node4"><a xlink:title=" ">
<polygon fill="white" stroke="#bfbfbf" points="0,-56.5 0,-75.5 76,-75.5 76,-56.5 0,-56.5"/>
<text text-anchor="middle" x="38" y="-63.5" font-family="Helvetica,sans-Serif" font-size="10.00">Eigen/Jacobi</text>
</a>
</g>
</g>
<!-- Node3&#45;&gt;Node4 -->
<g id="edge3" class="edge">
<title>Node3&#45;&gt;Node4</title>
<path fill="none" stroke="midnightblue" d="M163.13,-112.4C135.25,-102.28 98.06,-88.79 71.49,-79.15"/>
<polygon fill="midnightblue" stroke="midnightblue" points="72.46,-75.78 61.86,-75.66 70.07,-82.36 72.46,-75.78"/>
</g>
<!-- Node5 -->
<g id="node5" class="node">
<title>Node5</title>
<g id="a_node5"><a xlink:title=" ">
<polygon fill="white" stroke="#bfbfbf" points="95.5,-0.5 95.5,-19.5 148.5,-19.5 148.5,-0.5 95.5,-0.5"/>
<text text-anchor="middle" x="122" y="-7.5" font-family="Helvetica,sans-Serif" font-size="10.00">cstddef</text>
</a>
</g>
</g>
<!-- Node3&#45;&gt;Node5 -->
<g id="edge4" class="edge">
<title>Node3&#45;&gt;Node5</title>
<path fill="none" stroke="midnightblue" d="M164.8,-112.3C148.99,-104.2 132.12,-92.35 123,-76 115.18,-61.98 115.74,-43.49 117.78,-29.81"/>
<polygon fill="midnightblue" stroke="midnightblue" points="121.28,-30.13 119.69,-19.66 114.4,-28.84 121.28,-30.13"/>
</g>
<!-- Node6 -->
<g id="node6" class="node">
<title>Node6</title>
<g id="a_node6"><a xlink:href="ringbuffer_8hpp.html" target="_top" xlink:title=" ">
<polygon fill="white" stroke="black" points="132,-56.5 132,-75.5 290,-75.5 290,-56.5 132,-56.5"/>
<text text-anchor="middle" x="211" y="-63.5" font-family="Helvetica,sans-Serif" font-size="10.00">panoc&#45;alm/util/ringbuffer.hpp</text>
</a>
</g>
</g>
<!-- Node3&#45;&gt;Node6 -->
<g id="edge5" class="edge">
<title>Node3&#45;&gt;Node6</title>
<path fill="none" stroke="midnightblue" d="M204.13,-112.4C205.35,-104.38 206.88,-94.23 208.19,-85.57"/>
<polygon fill="midnightblue" stroke="midnightblue" points="211.66,-86.07 209.69,-75.66 204.73,-85.02 211.66,-86.07"/>
</g>
<!-- Node8 -->
<g id="node8" class="node">
<title>Node8</title>
<g id="a_node8"><a xlink:href="vec_8hpp.html" target="_top" xlink:title=" ">
<polygon fill="white" stroke="black" points="308,-56.5 308,-75.5 436,-75.5 436,-56.5 308,-56.5"/>
<text text-anchor="middle" x="372" y="-63.5" font-family="Helvetica,sans-Serif" font-size="10.00">panoc&#45;alm/util/vec.hpp</text>
</a>
</g>
</g>
<!-- Node3&#45;&gt;Node8 -->
<g id="edge8" class="edge">
<title>Node3&#45;&gt;Node8</title>
<path fill="none" stroke="midnightblue" d="M242.29,-112.4C271.32,-102.24 310.08,-88.67 337.65,-79.02"/>
<polygon fill="midnightblue" stroke="midnightblue" points="338.98,-82.26 347.26,-75.66 336.67,-75.66 338.98,-82.26"/>
</g>
<!-- Node6&#45;&gt;Node5 -->
<g id="edge6" class="edge">
<title>Node6&#45;&gt;Node5</title>
<path fill="none" stroke="midnightblue" d="M196.7,-56.32C182.82,-47.9 161.51,-34.97 145.2,-25.07"/>
<polygon fill="midnightblue" stroke="midnightblue" points="146.63,-21.85 136.26,-19.65 143,-27.83 146.63,-21.85"/>
</g>
<!-- Node7 -->
<g id="node7" class="node">
<title>Node7</title>
<g id="a_node7"><a xlink:title=" ">
<polygon fill="white" stroke="#bfbfbf" points="184.5,-0.5 184.5,-19.5 237.5,-19.5 237.5,-0.5 184.5,-0.5"/>
<text text-anchor="middle" x="211" y="-7.5" font-family="Helvetica,sans-Serif" font-size="10.00">iterator</text>
</a>
</g>
</g>
<!-- Node6&#45;&gt;Node7 -->
<g id="edge7" class="edge">
<title>Node6&#45;&gt;Node7</title>
<path fill="none" stroke="midnightblue" d="M211,-56.08C211,-49.01 211,-38.86 211,-29.99"/>
<polygon fill="midnightblue" stroke="midnightblue" points="214.5,-29.75 211,-19.75 207.5,-29.75 214.5,-29.75"/>
</g>
<!-- Node9 -->
<g id="node9" class="node">
<title>Node9</title>
<g id="a_node9"><a xlink:title=" ">
<polygon fill="white" stroke="#bfbfbf" points="337.5,-0.5 337.5,-19.5 406.5,-19.5 406.5,-0.5 337.5,-0.5"/>
<text text-anchor="middle" x="372" y="-7.5" font-family="Helvetica,sans-Serif" font-size="10.00">Eigen/Core</text>
</a>
</g>
</g>
<!-- Node8&#45;&gt;Node9 -->
<g id="edge9" class="edge">
<title>Node8&#45;&gt;Node9</title>
<path fill="none" stroke="midnightblue" d="M372,-56.08C372,-49.01 372,-38.86 372,-29.99"/>
<polygon fill="midnightblue" stroke="midnightblue" points="375.5,-29.75 372,-19.75 368.5,-29.75 375.5,-29.75"/>
</g>
<!-- Node11 -->
<g id="node11" class="node">
<title>Node11</title>
<g id="a_node11"><a xlink:href="box_8hpp.html" target="_top" xlink:title=" ">
<polygon fill="white" stroke="black" points="307.5,-118 307.5,-137 436.5,-137 436.5,-118 307.5,-118"/>
<text text-anchor="middle" x="372" y="-125" font-family="Helvetica,sans-Serif" font-size="10.00">panoc&#45;alm/util/box.hpp</text>
</a>
</g>
</g>
<!-- Node10&#45;&gt;Node11 -->
<g id="edge11" class="edge">
<title>Node10&#45;&gt;Node11</title>
<path fill="none" stroke="midnightblue" d="M372,-179.4C372,-170.06 372,-157.71 372,-147.52"/>
<polygon fill="midnightblue" stroke="midnightblue" points="375.5,-147.19 372,-137.19 368.5,-147.19 375.5,-147.19"/>
</g>
<!-- Node11&#45;&gt;Node8 -->
<g id="edge12" class="edge">
<title>Node11&#45;&gt;Node8</title>
<path fill="none" stroke="midnightblue" d="M372,-117.98C372,-109.58 372,-96.48 372,-85.66"/>
<polygon fill="midnightblue" stroke="midnightblue" points="375.5,-85.51 372,-75.51 368.5,-85.51 375.5,-85.51"/>
</g>
</g>
</svg>
