<?xml version="1.0" encoding="UTF-8" standalone="no"?>
<!DOCTYPE svg PUBLIC "-//W3C//DTD SVG 1.1//EN"
 "http://www.w3.org/Graphics/SVG/1.1/DTD/svg11.dtd">
<!-- Generated by graphviz version 2.43.0 (0)
 -->
<!-- Title: atomic_stop_signal.hpp Pages: 1 -->
<svg width="1400pt" height="308pt"
 viewBox="0.00 0.00 1400.00 308.00" xmlns="http://www.w3.org/2000/svg" xmlns:xlink="http://www.w3.org/1999/xlink">
<g id="graph0" class="graph" transform="scale(1 1) rotate(0) translate(4 304)">
<title>atomic_stop_signal.hpp</title>
<polygon fill="white" stroke="transparent" points="-4,4 -4,-304 1396,-304 1396,4 -4,4"/>
<!-- Node1 -->
<g id="node1" class="node">
<title>Node1</title>
<g id="a_node1"><a xlink:title=" ">
<polygon fill="#bfbfbf" stroke="black" points="896,-280.5 896,-299.5 1028,-299.5 1028,-280.5 896,-280.5"/>
<text text-anchor="middle" x="962" y="-287.5" font-family="Helvetica,sans-Serif" font-size="10.00">atomic_stop_signal.hpp</text>
</a>
</g>
</g>
<!-- Node2 -->
<g id="node2" class="node">
<title>Node2</title>
<g id="a_node2"><a xlink:href="decl_2panoc_8hpp.html" target="_top" xlink:title=" ">
<polygon fill="white" stroke="black" points="478.5,-224.5 478.5,-243.5 545.5,-243.5 545.5,-224.5 478.5,-224.5"/>
<text text-anchor="middle" x="512" y="-231.5" font-family="Helvetica,sans-Serif" font-size="10.00">panoc.hpp</text>
</a>
</g>
</g>
<!-- Node1&#45;&gt;Node2 -->
<g id="edge1" class="edge">
<title>Node1&#45;&gt;Node2</title>
<path fill="none" stroke="midnightblue" d="M885.62,-279.83C786.32,-267.92 617.12,-247.61 545.55,-239.03"/>
<polygon fill="midnightblue" stroke="midnightblue" points="885.26,-283.32 895.6,-281.03 886.09,-276.37 885.26,-283.32"/>
</g>
<!-- Node13 -->
<g id="node13" class="node">
<title>Node13</title>
<g id="a_node13"><a xlink:href="decl_2second-order-panoc_8hpp.html" target="_top" xlink:title=" ">
<polygon fill="white" stroke="black" points="642,-224.5 642,-243.5 776,-243.5 776,-224.5 642,-224.5"/>
<text text-anchor="middle" x="709" y="-231.5" font-family="Helvetica,sans-Serif" font-size="10.00">second&#45;order&#45;panoc.hpp</text>
</a>
</g>
</g>
<!-- Node1&#45;&gt;Node13 -->
<g id="edge17" class="edge">
<title>Node1&#45;&gt;Node13</title>
<path fill="none" stroke="midnightblue" d="M912.08,-278.35C864.27,-268.14 793.05,-252.94 748.9,-243.52"/>
<polygon fill="midnightblue" stroke="midnightblue" points="911.4,-281.78 921.91,-280.44 912.86,-274.93 911.4,-281.78"/>
</g>
<!-- Node16 -->
<g id="node16" class="node">
<title>Node16</title>
<g id="a_node16"><a xlink:href="decl_2structured-panoc-lbfgs_8hpp.html" target="_top" xlink:title=" ">
<polygon fill="white" stroke="black" points="768,-168.5 768,-187.5 916,-187.5 916,-168.5 768,-168.5"/>
<text text-anchor="middle" x="842" y="-175.5" font-family="Helvetica,sans-Serif" font-size="10.00">structured&#45;panoc&#45;lbfgs.hpp</text>
</a>
</g>
</g>
<!-- Node1&#45;&gt;Node16 -->
<g id="edge20" class="edge">
<title>Node1&#45;&gt;Node16</title>
<path fill="none" stroke="midnightblue" d="M945.1,-273.51C919.46,-250.01 871.57,-206.11 851.37,-187.59"/>
<polygon fill="midnightblue" stroke="midnightblue" points="942.85,-276.19 952.58,-280.37 947.58,-271.03 942.85,-276.19"/>
</g>
<!-- Node19 -->
<g id="node19" class="node">
<title>Node19</title>
<g id="a_node19"><a xlink:href="panoc-helpers_8hpp.html" target="_top" xlink:title=" ">
<polygon fill="white" stroke="black" points="1002.5,-224.5 1002.5,-243.5 1109.5,-243.5 1109.5,-224.5 1002.5,-224.5"/>
<text text-anchor="middle" x="1056" y="-231.5" font-family="Helvetica,sans-Serif" font-size="10.00">panoc&#45;helpers.hpp</text>
</a>
</g>
</g>
<!-- Node1&#45;&gt;Node19 -->
<g id="edge26" class="edge">
<title>Node1&#45;&gt;Node19</title>
<path fill="none" stroke="midnightblue" d="M986.06,-275.18C1003.36,-265.24 1026.15,-252.15 1040.93,-243.65"/>
<polygon fill="midnightblue" stroke="midnightblue" points="984.03,-272.31 977.1,-280.32 987.52,-278.38 984.03,-272.31"/>
</g>
<!-- Node21 -->
<g id="node21" class="node">
<title>Node21</title>
<g id="a_node21"><a xlink:href="guarded-aa-pga_8hpp.html" target="_top" xlink:title=" ">
<polygon fill="white" stroke="black" points="1184.5,-168.5 1184.5,-187.5 1299.5,-187.5 1299.5,-168.5 1184.5,-168.5"/>
<text text-anchor="middle" x="1242" y="-175.5" font-family="Helvetica,sans-Serif" font-size="10.00">guarded&#45;aa&#45;pga.hpp</text>
</a>
</g>
</g>
<!-- Node1&#45;&gt;Node21 -->
<g id="edge40" class="edge">
<title>Node1&#45;&gt;Node21</title>
<path fill="none" stroke="midnightblue" d="M1009.71,-278.06C1041.28,-270.16 1083.28,-258.38 1119,-244 1160.23,-227.41 1205.73,-201.09 1228.07,-187.6"/>
<polygon fill="midnightblue" stroke="midnightblue" points="1008.72,-274.7 999.85,-280.49 1010.39,-281.5 1008.72,-274.7"/>
</g>
<!-- Node22 -->
<g id="node22" class="node">
<title>Node22</title>
<g id="a_node22"><a xlink:href="lbfgspp_8hpp.html" target="_top" xlink:title=" ">
<polygon fill="white" stroke="black" points="1318,-168.5 1318,-187.5 1392,-187.5 1392,-168.5 1318,-168.5"/>
<text text-anchor="middle" x="1355" y="-175.5" font-family="Helvetica,sans-Serif" font-size="10.00">lbfgspp.hpp</text>
</a>
</g>
</g>
<!-- Node1&#45;&gt;Node22 -->
<g id="edge41" class="edge">
<title>Node1&#45;&gt;Node22</title>
<path fill="none" stroke="midnightblue" d="M1012.45,-278.27C1051.12,-269.76 1105.7,-257.16 1153,-244 1217.77,-225.98 1292.85,-200.62 1330.63,-187.54"/>
<polygon fill="midnightblue" stroke="midnightblue" points="1011.5,-274.89 1002.48,-280.45 1013,-281.73 1011.5,-274.89"/>
</g>
<!-- Node23 -->
<g id="node23" class="node">
<title>Node23</title>
<g id="a_node23"><a xlink:href="pga_8hpp.html" target="_top" xlink:title=" ">
<polygon fill="white" stroke="black" points="934,-168.5 934,-187.5 990,-187.5 990,-168.5 934,-168.5"/>
<text text-anchor="middle" x="962" y="-175.5" font-family="Helvetica,sans-Serif" font-size="10.00">pga.hpp</text>
</a>
</g>
</g>
<!-- Node1&#45;&gt;Node23 -->
<g id="edge42" class="edge">
<title>Node1&#45;&gt;Node23</title>
<path fill="none" stroke="midnightblue" d="M962,-270.35C962,-246.25 962,-205.31 962,-187.59"/>
<polygon fill="midnightblue" stroke="midnightblue" points="958.5,-270.37 962,-280.37 965.5,-270.37 958.5,-270.37"/>
</g>
<!-- Node3 -->
<g id="node3" class="node">
<title>Node3</title>
<g id="a_node3"><a xlink:href="panoc_8hpp.html" target="_top" xlink:title=" ">
<polygon fill="white" stroke="black" points="597.5,-168.5 597.5,-187.5 664.5,-187.5 664.5,-168.5 597.5,-168.5"/>
<text text-anchor="middle" x="631" y="-175.5" font-family="Helvetica,sans-Serif" font-size="10.00">panoc.hpp</text>
</a>
</g>
</g>
<!-- Node2&#45;&gt;Node3 -->
<g id="edge2" class="edge">
<title>Node2&#45;&gt;Node3</title>
<path fill="none" stroke="midnightblue" d="M540.14,-220.23C562.4,-210.13 592.86,-196.31 612.23,-187.52"/>
<polygon fill="midnightblue" stroke="midnightblue" points="538.52,-217.12 530.86,-224.44 541.41,-223.5 538.52,-217.12"/>
</g>
<!-- Node4 -->
<g id="node4" class="node">
<title>Node4</title>
<g id="a_node4"><a xlink:href="panocpy_8cpp.html" target="_top" xlink:title="This file defines all Python bindings.">
<polygon fill="white" stroke="black" points="874.5,-0.5 874.5,-19.5 951.5,-19.5 951.5,-0.5 874.5,-0.5"/>
<text text-anchor="middle" x="913" y="-7.5" font-family="Helvetica,sans-Serif" font-size="10.00">panocpy.cpp</text>
</a>
</g>
</g>
<!-- Node2&#45;&gt;Node4 -->
<g id="edge14" class="edge">
<title>Node2&#45;&gt;Node4</title>
<path fill="none" stroke="midnightblue" d="M467.98,-231.86C363.11,-227.6 112.73,-207.42 189,-112 232.34,-57.79 730.25,-22.48 874.23,-13.35"/>
<polygon fill="midnightblue" stroke="midnightblue" points="468.13,-235.37 478.25,-232.25 468.39,-228.37 468.13,-235.37"/>
</g>
<!-- Node10 -->
<g id="node10" class="node">
<title>Node10</title>
<g id="a_node10"><a xlink:href="kwargs-to-struct_8hpp.html" target="_top" xlink:title="This file defines mappings from Python dicts (kwargs) to simple parameter structs.">
<polygon fill="white" stroke="black" points="898,-112.5 898,-131.5 1016,-131.5 1016,-112.5 898,-112.5"/>
<text text-anchor="middle" x="957" y="-119.5" font-family="Helvetica,sans-Serif" font-size="10.00">kwargs&#45;to&#45;struct.hpp</text>
</a>
</g>
</g>
<!-- Node2&#45;&gt;Node10 -->
<g id="edge12" class="edge">
<title>Node2&#45;&gt;Node10</title>
<path fill="none" stroke="midnightblue" d="M552.99,-221.76C601.91,-208.45 686.23,-185.84 759,-168 813.78,-154.57 877.43,-140.35 917.46,-131.57"/>
<polygon fill="midnightblue" stroke="midnightblue" points="551.83,-218.45 543.11,-224.45 553.68,-225.2 551.83,-218.45"/>
</g>
<!-- Node11 -->
<g id="node11" class="node">
<title>Node11</title>
<g id="a_node11"><a xlink:href="CasADi_2Rosenbrock_2main_8cpp.html" target="_top" xlink:title=" ">
<polygon fill="white" stroke="black" points="80,-168.5 80,-187.5 142,-187.5 142,-168.5 80,-168.5"/>
<text text-anchor="middle" x="111" y="-175.5" font-family="Helvetica,sans-Serif" font-size="10.00">main.cpp</text>
</a>
</g>
</g>
<!-- Node2&#45;&gt;Node11 -->
<g id="edge15" class="edge">
<title>Node2&#45;&gt;Node11</title>
<path fill="none" stroke="midnightblue" d="M467.76,-228.44C400.3,-221.25 267.77,-206.22 156,-188 151.6,-187.28 146.97,-186.45 142.42,-185.58"/>
<polygon fill="midnightblue" stroke="midnightblue" points="467.7,-231.95 478.01,-229.52 468.44,-224.99 467.7,-231.95"/>
</g>
<!-- Node12 -->
<g id="node12" class="node">
<title>Node12</title>
<g id="a_node12"><a xlink:href="CUTEst_2Rosenbrock_2main_8cpp.html" target="_top" xlink:title=" ">
<polygon fill="white" stroke="black" points="0,-168.5 0,-187.5 62,-187.5 62,-168.5 0,-168.5"/>
<text text-anchor="middle" x="31" y="-175.5" font-family="Helvetica,sans-Serif" font-size="10.00">main.cpp</text>
</a>
</g>
</g>
<!-- Node2&#45;&gt;Node12 -->
<g id="edge16" class="edge">
<title>Node2&#45;&gt;Node12</title>
<path fill="none" stroke="midnightblue" d="M468.22,-230.28C388.72,-224.94 215.48,-211.54 71,-188 68.19,-187.54 65.28,-187.01 62.37,-186.43"/>
<polygon fill="midnightblue" stroke="midnightblue" points="468.14,-233.78 478.35,-230.95 468.6,-226.79 468.14,-233.78"/>
</g>
<!-- Node3&#45;&gt;Node4 -->
<g id="edge3" class="edge">
<title>Node3&#45;&gt;Node4</title>
<path fill="none" stroke="midnightblue" d="M587.3,-168.11C482.78,-152.13 319.56,-183.73 379,-112 442.36,-35.53 762.57,-16.53 874.39,-12.19"/>
<polygon fill="midnightblue" stroke="midnightblue" points="586.77,-171.57 597.22,-169.81 587.96,-164.67 586.77,-171.57"/>
</g>
<!-- Node5 -->
<g id="node5" class="node">
<title>Node5</title>
<g id="a_node5"><a xlink:href="polymorphic-inner-solver_8hpp.html" target="_top" xlink:title=" ">
<polygon fill="white" stroke="black" points="779,-56.5 779,-75.5 939,-75.5 939,-56.5 779,-56.5"/>
<text text-anchor="middle" x="859" y="-63.5" font-family="Helvetica,sans-Serif" font-size="10.00">polymorphic&#45;inner&#45;solver.hpp</text>
</a>
</g>
</g>
<!-- Node3&#45;&gt;Node5 -->
<g id="edge4" class="edge">
<title>Node3&#45;&gt;Node5</title>
<path fill="none" stroke="midnightblue" d="M674.83,-169.79C721.22,-161.54 790.75,-147.18 813,-132 834.24,-117.51 848.9,-89.76 855.33,-75.67"/>
<polygon fill="midnightblue" stroke="midnightblue" points="673.97,-166.39 664.73,-171.56 675.18,-173.28 673.97,-166.39"/>
</g>
<!-- Node6 -->
<g id="node6" class="node">
<title>Node6</title>
<g id="a_node6"><a xlink:href="polymorphic-panoc-direction_8hpp.html" target="_top" xlink:title=" ">
<polygon fill="white" stroke="black" points="542,-112.5 542,-131.5 720,-131.5 720,-112.5 542,-112.5"/>
<text text-anchor="middle" x="631" y="-119.5" font-family="Helvetica,sans-Serif" font-size="10.00">polymorphic&#45;panoc&#45;direction.hpp</text>
</a>
</g>
</g>
<!-- Node3&#45;&gt;Node6 -->
<g id="edge6" class="edge">
<title>Node3&#45;&gt;Node6</title>
<path fill="none" stroke="midnightblue" d="M631,-157.8C631,-148.91 631,-138.78 631,-131.75"/>
<polygon fill="midnightblue" stroke="midnightblue" points="627.5,-158.08 631,-168.08 634.5,-158.08 627.5,-158.08"/>
</g>
<!-- Node7 -->
<g id="node7" class="node">
<title>Node7</title>
<g id="a_node7"><a xlink:href="alm_8cpp.html" target="_top" xlink:title=" ">
<polygon fill="white" stroke="black" points="468,-112.5 468,-131.5 524,-131.5 524,-112.5 468,-112.5"/>
<text text-anchor="middle" x="496" y="-119.5" font-family="Helvetica,sans-Serif" font-size="10.00">alm.cpp</text>
</a>
</g>
</g>
<!-- Node3&#45;&gt;Node7 -->
<g id="edge9" class="edge">
<title>Node3&#45;&gt;Node7</title>
<path fill="none" stroke="midnightblue" d="M600.09,-164.64C574.76,-154.5 539.57,-140.43 517.29,-131.52"/>
<polygon fill="midnightblue" stroke="midnightblue" points="599.02,-167.98 609.61,-168.44 601.62,-161.48 599.02,-167.98"/>
</g>
<!-- Node8 -->
<g id="node8" class="node">
<title>Node8</title>
<g id="a_node8"><a xlink:href="panoc_8cpp.html" target="_top" xlink:title=" ">
<polygon fill="white" stroke="black" points="738,-112.5 738,-131.5 804,-131.5 804,-112.5 738,-112.5"/>
<text text-anchor="middle" x="771" y="-119.5" font-family="Helvetica,sans-Serif" font-size="10.00">panoc.cpp</text>
</a>
</g>
</g>
<!-- Node3&#45;&gt;Node8 -->
<g id="edge10" class="edge">
<title>Node3&#45;&gt;Node8</title>
<path fill="none" stroke="midnightblue" d="M662.7,-164.77C689,-154.63 725.72,-140.47 748.92,-131.52"/>
<polygon fill="midnightblue" stroke="midnightblue" points="661.25,-161.58 653.18,-168.44 663.77,-168.11 661.25,-161.58"/>
</g>
<!-- Node9 -->
<g id="node9" class="node">
<title>Node9</title>
<g id="a_node9"><a xlink:href="Presentation_2Cpp_2main_8cpp.html" target="_top" xlink:title=" ">
<polygon fill="white" stroke="black" points="388,-112.5 388,-131.5 450,-131.5 450,-112.5 388,-112.5"/>
<text text-anchor="middle" x="419" y="-119.5" font-family="Helvetica,sans-Serif" font-size="10.00">main.cpp</text>
</a>
</g>
</g>
<!-- Node3&#45;&gt;Node9 -->
<g id="edge11" class="edge">
<title>Node3&#45;&gt;Node9</title>
<path fill="none" stroke="midnightblue" d="M587.7,-165.97C546.77,-155.54 486.35,-140.16 450.02,-130.9"/>
<polygon fill="midnightblue" stroke="midnightblue" points="586.85,-169.37 597.41,-168.44 588.58,-162.58 586.85,-169.37"/>
</g>
<!-- Node5&#45;&gt;Node4 -->
<g id="edge5" class="edge">
<title>Node5&#45;&gt;Node4</title>
<path fill="none" stroke="midnightblue" d="M875,-49C884.57,-39.43 896.36,-27.64 904.25,-19.75"/>
<polygon fill="midnightblue" stroke="midnightblue" points="872.51,-46.54 867.92,-56.08 877.46,-51.49 872.51,-46.54"/>
</g>
<!-- Node6&#45;&gt;Node4 -->
<g id="edge7" class="edge">
<title>Node6&#45;&gt;Node4</title>
<path fill="none" stroke="midnightblue" d="M656.33,-107.91C683.86,-93.98 729.36,-71.82 770,-56 807.72,-41.32 852.37,-27.87 881.63,-19.57"/>
<polygon fill="midnightblue" stroke="midnightblue" points="654.7,-104.81 647.38,-112.47 657.88,-111.05 654.7,-104.81"/>
</g>
<!-- Node6&#45;&gt;Node5 -->
<g id="edge8" class="edge">
<title>Node6&#45;&gt;Node5</title>
<path fill="none" stroke="midnightblue" d="M677.07,-110.09C720.15,-99.89 783.59,-84.86 823.04,-75.52"/>
<polygon fill="midnightblue" stroke="midnightblue" points="676.05,-106.73 667.13,-112.44 677.66,-113.54 676.05,-106.73"/>
</g>
<!-- Node10&#45;&gt;Node4 -->
<g id="edge13" class="edge">
<title>Node10&#45;&gt;Node4</title>
<path fill="none" stroke="midnightblue" d="M956.94,-101.88C956.29,-88.56 954.17,-70.61 948,-56 942,-41.77 930.31,-28.18 922.1,-19.72"/>
<polygon fill="midnightblue" stroke="midnightblue" points="953.45,-102.3 957.2,-112.21 960.45,-102.13 953.45,-102.3"/>
</g>
<!-- Node14 -->
<g id="node14" class="node">
<title>Node14</title>
<g id="a_node14"><a xlink:href="second-order-panoc_8hpp.html" target="_top" xlink:title=" ">
<polygon fill="white" stroke="black" points="445,-168.5 445,-187.5 579,-187.5 579,-168.5 445,-168.5"/>
<text text-anchor="middle" x="512" y="-175.5" font-family="Helvetica,sans-Serif" font-size="10.00">second&#45;order&#45;panoc.hpp</text>
</a>
</g>
</g>
<!-- Node13&#45;&gt;Node14 -->
<g id="edge18" class="edge">
<title>Node13&#45;&gt;Node14</title>
<path fill="none" stroke="midnightblue" d="M667.77,-221.7C630.59,-211.51 576.73,-196.74 543.07,-187.52"/>
<polygon fill="midnightblue" stroke="midnightblue" points="667.22,-225.18 677.78,-224.44 669.07,-218.42 667.22,-225.18"/>
</g>
<!-- Node15 -->
<g id="node15" class="node">
<title>Node15</title>
<g id="a_node15"><a xlink:href="second-order-panoc_8cpp.html" target="_top" xlink:title=" ">
<polygon fill="white" stroke="black" points="198,-112.5 198,-131.5 332,-131.5 332,-112.5 198,-112.5"/>
<text text-anchor="middle" x="265" y="-119.5" font-family="Helvetica,sans-Serif" font-size="10.00">second&#45;order&#45;panoc.cpp</text>
</a>
</g>
</g>
<!-- Node14&#45;&gt;Node15 -->
<g id="edge19" class="edge">
<title>Node14&#45;&gt;Node15</title>
<path fill="none" stroke="midnightblue" d="M462.97,-166.28C416.3,-156.08 346.97,-140.92 303.95,-131.52"/>
<polygon fill="midnightblue" stroke="midnightblue" points="462.35,-169.73 472.86,-168.44 463.84,-162.89 462.35,-169.73"/>
</g>
<!-- Node16&#45;&gt;Node5 -->
<g id="edge25" class="edge">
<title>Node16&#45;&gt;Node5</title>
<path fill="none" stroke="midnightblue" d="M844.88,-158.35C848.61,-134.25 854.93,-93.31 857.67,-75.59"/>
<polygon fill="midnightblue" stroke="midnightblue" points="841.4,-157.95 843.33,-168.37 848.32,-159.02 841.4,-157.95"/>
</g>
<!-- Node16&#45;&gt;Node10 -->
<g id="edge24" class="edge">
<title>Node16&#45;&gt;Node10</title>
<path fill="none" stroke="midnightblue" d="M869.48,-164.1C890.97,-154.01 920.22,-140.27 938.86,-131.52"/>
<polygon fill="midnightblue" stroke="midnightblue" points="867.79,-161.02 860.22,-168.44 870.76,-167.36 867.79,-161.02"/>
</g>
<!-- Node17 -->
<g id="node17" class="node">
<title>Node17</title>
<g id="a_node17"><a xlink:href="structured-panoc-lbfgs_8hpp.html" target="_top" xlink:title=" ">
<polygon fill="white" stroke="black" points="1072,-112.5 1072,-131.5 1220,-131.5 1220,-112.5 1072,-112.5"/>
<text text-anchor="middle" x="1146" y="-119.5" font-family="Helvetica,sans-Serif" font-size="10.00">structured&#45;panoc&#45;lbfgs.hpp</text>
</a>
</g>
</g>
<!-- Node16&#45;&gt;Node17 -->
<g id="edge21" class="edge">
<title>Node16&#45;&gt;Node17</title>
<path fill="none" stroke="midnightblue" d="M900.19,-166.66C957.64,-156.46 1044.45,-141.04 1098.06,-131.52"/>
<polygon fill="midnightblue" stroke="midnightblue" points="899.4,-163.25 890.17,-168.44 900.63,-170.14 899.4,-163.25"/>
</g>
<!-- Node17&#45;&gt;Node4 -->
<g id="edge22" class="edge">
<title>Node17&#45;&gt;Node4</title>
<path fill="none" stroke="midnightblue" d="M1118.51,-108.02C1070.32,-85.27 971.87,-38.79 931.2,-19.59"/>
<polygon fill="midnightblue" stroke="midnightblue" points="1117.18,-111.26 1127.72,-112.37 1120.17,-104.93 1117.18,-111.26"/>
</g>
<!-- Node18 -->
<g id="node18" class="node">
<title>Node18</title>
<g id="a_node18"><a xlink:href="structured-panoc-lbfgs_8cpp.html" target="_top" xlink:title=" ">
<polygon fill="white" stroke="black" points="1072.5,-56.5 1072.5,-75.5 1219.5,-75.5 1219.5,-56.5 1072.5,-56.5"/>
<text text-anchor="middle" x="1146" y="-63.5" font-family="Helvetica,sans-Serif" font-size="10.00">structured&#45;panoc&#45;lbfgs.cpp</text>
</a>
</g>
</g>
<!-- Node17&#45;&gt;Node18 -->
<g id="edge23" class="edge">
<title>Node17&#45;&gt;Node18</title>
<path fill="none" stroke="midnightblue" d="M1146,-101.8C1146,-92.91 1146,-82.78 1146,-75.75"/>
<polygon fill="midnightblue" stroke="midnightblue" points="1142.5,-102.08 1146,-112.08 1149.5,-102.08 1142.5,-102.08"/>
</g>
<!-- Node19&#45;&gt;Node3 -->
<g id="edge33" class="edge">
<title>Node19&#45;&gt;Node3</title>
<path fill="none" stroke="midnightblue" d="M992.2,-224.89C900.63,-213.26 735.21,-192.24 664.51,-183.26"/>
<polygon fill="midnightblue" stroke="midnightblue" points="991.81,-228.37 1002.17,-226.16 992.69,-221.43 991.81,-228.37"/>
</g>
<!-- Node19&#45;&gt;Node14 -->
<g id="edge38" class="edge">
<title>Node19&#45;&gt;Node14</title>
<path fill="none" stroke="midnightblue" d="M992.21,-227.31C902.09,-219.18 732.38,-203.49 588,-188 585.09,-187.69 582.13,-187.36 579.13,-187.03"/>
<polygon fill="midnightblue" stroke="midnightblue" points="991.99,-230.81 1002.27,-228.22 992.62,-223.84 991.99,-230.81"/>
</g>
<!-- Node19&#45;&gt;Node17 -->
<g id="edge39" class="edge">
<title>Node19&#45;&gt;Node17</title>
<path fill="none" stroke="midnightblue" d="M1094.47,-220.37C1110.1,-213.3 1126.84,-202.84 1137,-188 1148.72,-170.89 1148.32,-145.26 1147.12,-131.87"/>
<polygon fill="midnightblue" stroke="midnightblue" points="1092.83,-217.27 1084.95,-224.35 1095.53,-223.73 1092.83,-217.27"/>
</g>
<!-- Node20 -->
<g id="node20" class="node">
<title>Node20</title>
<g id="a_node20"><a xlink:href="specialized-lbfgs_8hpp.html" target="_top" xlink:title=" ">
<polygon fill="white" stroke="black" points="1008,-168.5 1008,-187.5 1128,-187.5 1128,-168.5 1008,-168.5"/>
<text text-anchor="middle" x="1068" y="-175.5" font-family="Helvetica,sans-Serif" font-size="10.00">specialized&#45;lbfgs.hpp</text>
</a>
</g>
</g>
<!-- Node19&#45;&gt;Node20 -->
<g id="edge27" class="edge">
<title>Node19&#45;&gt;Node20</title>
<path fill="none" stroke="midnightblue" d="M1060.2,-214.1C1062.19,-205.14 1064.48,-194.86 1066.06,-187.75"/>
<polygon fill="midnightblue" stroke="midnightblue" points="1056.73,-213.56 1057.98,-224.08 1063.57,-215.08 1056.73,-213.56"/>
</g>
<!-- Node19&#45;&gt;Node21 -->
<g id="edge28" class="edge">
<title>Node19&#45;&gt;Node21</title>
<path fill="none" stroke="midnightblue" d="M1095.38,-221.57C1130.47,-211.38 1181.02,-196.7 1212.67,-187.52"/>
<polygon fill="midnightblue" stroke="midnightblue" points="1094.1,-218.29 1085.47,-224.44 1096.05,-225.02 1094.1,-218.29"/>
</g>
<!-- Node19&#45;&gt;Node22 -->
<g id="edge32" class="edge">
<title>Node19&#45;&gt;Node22</title>
<path fill="none" stroke="midnightblue" d="M1115.41,-222.73C1166.72,-213.79 1242.81,-200.36 1309,-188 1311.88,-187.46 1314.86,-186.9 1317.85,-186.32"/>
<polygon fill="midnightblue" stroke="midnightblue" points="1114.75,-219.29 1105.49,-224.46 1115.95,-226.19 1114.75,-219.29"/>
</g>
<!-- Node19&#45;&gt;Node23 -->
<g id="edge34" class="edge">
<title>Node19&#45;&gt;Node23</title>
<path fill="none" stroke="midnightblue" d="M1031.94,-219.18C1014.64,-209.24 991.85,-196.15 977.07,-187.65"/>
<polygon fill="midnightblue" stroke="midnightblue" points="1030.48,-222.38 1040.9,-224.32 1033.97,-216.31 1030.48,-222.38"/>
</g>
<!-- Node21&#45;&gt;Node4 -->
<g id="edge30" class="edge">
<title>Node21&#45;&gt;Node4</title>
<path fill="none" stroke="midnightblue" d="M1250.05,-158.95C1260.32,-132.84 1273.97,-84.53 1249,-56 1210.73,-12.26 1031.53,-9.23 951.62,-10.12"/>
<polygon fill="midnightblue" stroke="midnightblue" points="1246.74,-157.8 1246.1,-168.37 1253.2,-160.5 1246.74,-157.8"/>
</g>
<!-- Node21&#45;&gt;Node5 -->
<g id="edge31" class="edge">
<title>Node21&#45;&gt;Node5</title>
<path fill="none" stroke="midnightblue" d="M1243.68,-158.3C1243.89,-143.55 1241.51,-123.59 1229,-112 1208.14,-92.68 1041.54,-78.68 939.13,-71.8"/>
<polygon fill="midnightblue" stroke="midnightblue" points="1240.18,-158.17 1243.14,-168.34 1247.17,-158.54 1240.18,-158.17"/>
</g>
<!-- Node21&#45;&gt;Node10 -->
<g id="edge29" class="edge">
<title>Node21&#45;&gt;Node10</title>
<path fill="none" stroke="midnightblue" d="M1186.78,-166.54C1132.92,-156.33 1052,-141 1001.95,-131.52"/>
<polygon fill="midnightblue" stroke="midnightblue" points="1186.36,-170.02 1196.84,-168.44 1187.67,-163.14 1186.36,-170.02"/>
</g>
<!-- Node23&#45;&gt;Node4 -->
<g id="edge36" class="edge">
<title>Node23&#45;&gt;Node4</title>
<path fill="none" stroke="midnightblue" d="M1000.33,-168.18C1064.78,-159.15 1197.14,-169.23 1229,-132 1250.96,-106.34 1251.14,-81.51 1229,-56 1193.5,-15.09 1027.93,-10.42 951.66,-10.5"/>
<polygon fill="midnightblue" stroke="midnightblue" points="999.51,-164.77 990.23,-169.88 1000.67,-171.67 999.51,-164.77"/>
</g>
<!-- Node23&#45;&gt;Node5 -->
<g id="edge37" class="edge">
<title>Node23&#45;&gt;Node5</title>
<path fill="none" stroke="midnightblue" d="M990.43,-163.76C1013.46,-151.19 1039.84,-131.39 1025,-112 1011.98,-94.98 961.4,-82.9 919.46,-75.57"/>
<polygon fill="midnightblue" stroke="midnightblue" points="988.81,-160.65 981.54,-168.36 992.02,-166.87 988.81,-160.65"/>
</g>
<!-- Node23&#45;&gt;Node10 -->
<g id="edge35" class="edge">
<title>Node23&#45;&gt;Node10</title>
<path fill="none" stroke="midnightblue" d="M960.25,-158.1C959.42,-149.14 958.47,-138.86 957.81,-131.75"/>
<polygon fill="midnightblue" stroke="midnightblue" points="956.77,-158.45 961.17,-168.08 963.74,-157.8 956.77,-158.45"/>
</g>
</g>
</svg>
