<?xml version="1.0" encoding="UTF-8" standalone="no"?>
<!DOCTYPE svg PUBLIC "-//W3C//DTD SVG 1.1//EN"
 "http://www.w3.org/Graphics/SVG/1.1/DTD/svg11.dtd">
<!-- Generated by graphviz version 2.43.0 (0)
 -->
<!-- Title: CasADiLoader.cpp Pages: 1 -->
<svg width="545pt" height="319pt"
 viewBox="0.00 0.00 545.00 319.00" xmlns="http://www.w3.org/2000/svg" xmlns:xlink="http://www.w3.org/1999/xlink">
<g id="graph0" class="graph" transform="scale(1 1) rotate(0) translate(4 315)">
<title>CasADiLoader.cpp</title>
<polygon fill="white" stroke="transparent" points="-4,4 -4,-315 541,-315 541,4 -4,4"/>
<!-- Node1 -->
<g id="node1" class="node">
<title>Node1</title>
<g id="a_node1"><a xlink:title=" ">
<polygon fill="#bfbfbf" stroke="black" points="182.5,-291.5 182.5,-310.5 286.5,-310.5 286.5,-291.5 182.5,-291.5"/>
<text text-anchor="middle" x="234.5" y="-298.5" font-family="Helvetica,sans-Serif" font-size="10.00">CasADiLoader.cpp</text>
</a>
</g>
</g>
<!-- Node2 -->
<g id="node2" class="node">
<title>Node2</title>
<g id="a_node2"><a xlink:title=" ">
<polygon fill="white" stroke="#bfbfbf" points="0,-230 0,-249 137,-249 137,-230 0,-230"/>
<text text-anchor="middle" x="68.5" y="-237" font-family="Helvetica,sans-Serif" font-size="10.00">casadi/core/external.hpp</text>
</a>
</g>
</g>
<!-- Node1&#45;&gt;Node2 -->
<g id="edge1" class="edge">
<title>Node1&#45;&gt;Node2</title>
<path fill="none" stroke="midnightblue" d="M210.72,-291.48C182.12,-281.22 133.95,-263.96 101.7,-252.4"/>
<polygon fill="midnightblue" stroke="midnightblue" points="102.83,-249.09 92.24,-249.01 100.47,-255.68 102.83,-249.09"/>
</g>
<!-- Node3 -->
<g id="node3" class="node">
<title>Node3</title>
<g id="a_node3"><a xlink:href="CasADiFunctionWrapper_8hpp.html" target="_top" xlink:title=" ">
<polygon fill="white" stroke="black" points="155.5,-224.5 155.5,-254.5 313.5,-254.5 313.5,-224.5 155.5,-224.5"/>
<text text-anchor="start" x="163.5" y="-242.5" font-family="Helvetica,sans-Serif" font-size="10.00">panoc&#45;alm/interop/casadi</text>
<text text-anchor="middle" x="234.5" y="-231.5" font-family="Helvetica,sans-Serif" font-size="10.00">/CasADiFunctionWrapper.hpp</text>
</a>
</g>
</g>
<!-- Node1&#45;&gt;Node3 -->
<g id="edge2" class="edge">
<title>Node1&#45;&gt;Node3</title>
<path fill="none" stroke="midnightblue" d="M234.5,-291.48C234.5,-284.47 234.5,-274.19 234.5,-264.7"/>
<polygon fill="midnightblue" stroke="midnightblue" points="238,-264.52 234.5,-254.52 231,-264.52 238,-264.52"/>
</g>
<!-- Node9 -->
<g id="node9" class="node">
<title>Node9</title>
<g id="a_node9"><a xlink:href="CasADiLoader_8hpp.html" target="_top" xlink:title=" ">
<polygon fill="white" stroke="black" points="341.5,-224.5 341.5,-254.5 481.5,-254.5 481.5,-224.5 341.5,-224.5"/>
<text text-anchor="start" x="349.5" y="-242.5" font-family="Helvetica,sans-Serif" font-size="10.00">panoc&#45;alm/interop/casadi</text>
<text text-anchor="middle" x="411.5" y="-231.5" font-family="Helvetica,sans-Serif" font-size="10.00">/CasADiLoader.hpp</text>
</a>
</g>
</g>
<!-- Node1&#45;&gt;Node9 -->
<g id="edge8" class="edge">
<title>Node1&#45;&gt;Node9</title>
<path fill="none" stroke="midnightblue" d="M259.86,-291.48C285.96,-282.7 327.35,-268.79 360.3,-257.71"/>
<polygon fill="midnightblue" stroke="midnightblue" points="361.42,-261.03 369.78,-254.52 359.19,-254.39 361.42,-261.03"/>
</g>
<!-- Node4 -->
<g id="node4" class="node">
<title>Node4</title>
<g id="a_node4"><a xlink:title=" ">
<polygon fill="white" stroke="#bfbfbf" points="16.5,-168.5 16.5,-187.5 152.5,-187.5 152.5,-168.5 16.5,-168.5"/>
<text text-anchor="middle" x="84.5" y="-175.5" font-family="Helvetica,sans-Serif" font-size="10.00">casadi/core/function.hpp</text>
</a>
</g>
</g>
<!-- Node3&#45;&gt;Node4 -->
<g id="edge3" class="edge">
<title>Node3&#45;&gt;Node4</title>
<path fill="none" stroke="midnightblue" d="M198.95,-224.4C173.67,-214.37 140.03,-201.03 115.77,-191.4"/>
<polygon fill="midnightblue" stroke="midnightblue" points="116.91,-188.09 106.33,-187.66 114.33,-194.6 116.91,-188.09"/>
</g>
<!-- Node5 -->
<g id="node5" class="node">
<title>Node5</title>
<g id="a_node5"><a xlink:href="vec_8hpp.html" target="_top" xlink:title=" ">
<polygon fill="white" stroke="black" points="156.5,-56.5 156.5,-75.5 284.5,-75.5 284.5,-56.5 156.5,-56.5"/>
<text text-anchor="middle" x="220.5" y="-63.5" font-family="Helvetica,sans-Serif" font-size="10.00">panoc&#45;alm/util/vec.hpp</text>
</a>
</g>
</g>
<!-- Node3&#45;&gt;Node5 -->
<g id="edge4" class="edge">
<title>Node3&#45;&gt;Node5</title>
<path fill="none" stroke="midnightblue" d="M221.14,-224.32C213.16,-214.84 203.77,-201.64 199.5,-188 188.36,-152.37 202.28,-108.88 212.19,-84.94"/>
<polygon fill="midnightblue" stroke="midnightblue" points="215.44,-86.26 216.24,-75.69 209.03,-83.45 215.44,-86.26"/>
</g>
<!-- Node7 -->
<g id="node7" class="node">
<title>Node7</title>
<g id="a_node7"><a xlink:title=" ">
<polygon fill="white" stroke="#bfbfbf" points="208.5,-168.5 208.5,-187.5 260.5,-187.5 260.5,-168.5 208.5,-168.5"/>
<text text-anchor="middle" x="234.5" y="-175.5" font-family="Helvetica,sans-Serif" font-size="10.00">cassert</text>
</a>
</g>
</g>
<!-- Node3&#45;&gt;Node7 -->
<g id="edge6" class="edge">
<title>Node3&#45;&gt;Node7</title>
<path fill="none" stroke="midnightblue" d="M234.5,-224.4C234.5,-216.47 234.5,-206.46 234.5,-197.86"/>
<polygon fill="midnightblue" stroke="midnightblue" points="238,-197.66 234.5,-187.66 231,-197.66 238,-197.66"/>
</g>
<!-- Node8 -->
<g id="node8" class="node">
<title>Node8</title>
<g id="a_node8"><a xlink:title=" ">
<polygon fill="white" stroke="#bfbfbf" points="279,-168.5 279,-187.5 326,-187.5 326,-168.5 279,-168.5"/>
<text text-anchor="middle" x="302.5" y="-175.5" font-family="Helvetica,sans-Serif" font-size="10.00">vector</text>
</a>
</g>
</g>
<!-- Node3&#45;&gt;Node8 -->
<g id="edge7" class="edge">
<title>Node3&#45;&gt;Node8</title>
<path fill="none" stroke="midnightblue" d="M250.62,-224.4C260.9,-215.4 274.25,-203.72 284.83,-194.47"/>
<polygon fill="midnightblue" stroke="midnightblue" points="287.38,-196.88 292.61,-187.66 282.77,-191.61 287.38,-196.88"/>
</g>
<!-- Node6 -->
<g id="node6" class="node">
<title>Node6</title>
<g id="a_node6"><a xlink:title=" ">
<polygon fill="white" stroke="#bfbfbf" points="186,-0.5 186,-19.5 255,-19.5 255,-0.5 186,-0.5"/>
<text text-anchor="middle" x="220.5" y="-7.5" font-family="Helvetica,sans-Serif" font-size="10.00">Eigen/Core</text>
</a>
</g>
</g>
<!-- Node5&#45;&gt;Node6 -->
<g id="edge5" class="edge">
<title>Node5&#45;&gt;Node6</title>
<path fill="none" stroke="midnightblue" d="M220.5,-56.08C220.5,-49.01 220.5,-38.86 220.5,-29.99"/>
<polygon fill="midnightblue" stroke="midnightblue" points="224,-29.75 220.5,-19.75 217,-29.75 224,-29.75"/>
</g>
<!-- Node10 -->
<g id="node10" class="node">
<title>Node10</title>
<g id="a_node10"><a xlink:href="include_2panoc-alm_2util_2problem_8hpp.html" target="_top" xlink:title=" ">
<polygon fill="white" stroke="black" points="344.5,-168.5 344.5,-187.5 496.5,-187.5 496.5,-168.5 344.5,-168.5"/>
<text text-anchor="middle" x="420.5" y="-175.5" font-family="Helvetica,sans-Serif" font-size="10.00">panoc&#45;alm/util/problem.hpp</text>
</a>
</g>
</g>
<!-- Node9&#45;&gt;Node10 -->
<g id="edge9" class="edge">
<title>Node9&#45;&gt;Node10</title>
<path fill="none" stroke="midnightblue" d="M413.63,-224.4C414.85,-216.38 416.38,-206.23 417.69,-197.57"/>
<polygon fill="midnightblue" stroke="midnightblue" points="421.16,-198.07 419.19,-187.66 414.23,-197.02 421.16,-198.07"/>
</g>
<!-- Node11 -->
<g id="node11" class="node">
<title>Node11</title>
<g id="a_node11"><a xlink:href="box_8hpp.html" target="_top" xlink:title=" ">
<polygon fill="white" stroke="black" points="221.5,-112.5 221.5,-131.5 277.5,-131.5 277.5,-112.5 221.5,-112.5"/>
<text text-anchor="middle" x="249.5" y="-119.5" font-family="Helvetica,sans-Serif" font-size="10.00">box.hpp</text>
</a>
</g>
</g>
<!-- Node10&#45;&gt;Node11 -->
<g id="edge10" class="edge">
<title>Node10&#45;&gt;Node11</title>
<path fill="none" stroke="midnightblue" d="M393.4,-168.44C364.51,-159.32 318.58,-144.81 286.39,-134.65"/>
<polygon fill="midnightblue" stroke="midnightblue" points="287.06,-131.19 276.47,-131.52 284.95,-137.87 287.06,-131.19"/>
</g>
<!-- Node12 -->
<g id="node12" class="node">
<title>Node12</title>
<g id="a_node12"><a xlink:title=" ">
<polygon fill="white" stroke="#bfbfbf" points="308,-112.5 308,-131.5 373,-131.5 373,-112.5 308,-112.5"/>
<text text-anchor="middle" x="340.5" y="-119.5" font-family="Helvetica,sans-Serif" font-size="10.00">functional</text>
</a>
</g>
</g>
<!-- Node10&#45;&gt;Node12 -->
<g id="edge12" class="edge">
<title>Node10&#45;&gt;Node12</title>
<path fill="none" stroke="midnightblue" d="M407.65,-168.32C395.28,-159.98 376.37,-147.21 361.76,-137.35"/>
<polygon fill="midnightblue" stroke="midnightblue" points="363.57,-134.35 353.32,-131.65 359.65,-140.15 363.57,-134.35"/>
</g>
<!-- Node13 -->
<g id="node13" class="node">
<title>Node13</title>
<g id="a_node13"><a xlink:title=" ">
<polygon fill="white" stroke="#bfbfbf" points="391.5,-112.5 391.5,-131.5 449.5,-131.5 449.5,-112.5 391.5,-112.5"/>
<text text-anchor="middle" x="420.5" y="-119.5" font-family="Helvetica,sans-Serif" font-size="10.00">memory</text>
</a>
</g>
</g>
<!-- Node10&#45;&gt;Node13 -->
<g id="edge13" class="edge">
<title>Node10&#45;&gt;Node13</title>
<path fill="none" stroke="midnightblue" d="M420.5,-168.08C420.5,-161.01 420.5,-150.86 420.5,-141.99"/>
<polygon fill="midnightblue" stroke="midnightblue" points="424,-141.75 420.5,-131.75 417,-141.75 424,-141.75"/>
</g>
<!-- Node14 -->
<g id="node14" class="node">
<title>Node14</title>
<g id="a_node14"><a xlink:title=" ">
<polygon fill="white" stroke="#bfbfbf" points="468,-112.5 468,-131.5 537,-131.5 537,-112.5 468,-112.5"/>
<text text-anchor="middle" x="502.5" y="-119.5" font-family="Helvetica,sans-Serif" font-size="10.00">type_traits</text>
</a>
</g>
</g>
<!-- Node10&#45;&gt;Node14 -->
<g id="edge14" class="edge">
<title>Node10&#45;&gt;Node14</title>
<path fill="none" stroke="midnightblue" d="M433.67,-168.32C446.35,-159.98 465.73,-147.21 480.71,-137.35"/>
<polygon fill="midnightblue" stroke="midnightblue" points="482.93,-140.08 489.36,-131.65 479.08,-134.23 482.93,-140.08"/>
</g>
<!-- Node11&#45;&gt;Node5 -->
<g id="edge11" class="edge">
<title>Node11&#45;&gt;Node5</title>
<path fill="none" stroke="midnightblue" d="M244.71,-112.08C240.74,-104.69 234.97,-93.95 230.07,-84.81"/>
<polygon fill="midnightblue" stroke="midnightblue" points="233.01,-82.91 225.2,-75.75 226.85,-86.22 233.01,-82.91"/>
</g>
</g>
</svg>
