<?xml version="1.0" encoding="UTF-8" standalone="no"?>
<!DOCTYPE svg PUBLIC "-//W3C//DTD SVG 1.1//EN"
 "http://www.w3.org/Graphics/SVG/1.1/DTD/svg11.dtd">
<!-- Generated by graphviz version 2.43.0 (0)
 -->
<!-- Title: ring_iter Pages: 1 -->
<svg width="830pt" height="146pt"
 viewBox="0.00 0.00 830.00 146.00" xmlns="http://www.w3.org/2000/svg" xmlns:xlink="http://www.w3.org/1999/xlink">
<g id="graph0" class="graph" transform="scale(1 1) rotate(0) translate(4 142)">
<title>ring_iter</title>
<polygon fill="white" stroke="transparent" points="-4,4 -4,-142 826,-142 826,4 -4,4"/>
<!-- Node1 -->
<g id="node1" class="node">
<title>Node1</title>
<g id="a_node1"><a xlink:title="Get iterators in the circular buffer.">
<polygon fill="#bfbfbf" stroke="black" points="765,-61.5 765,-80.5 822,-80.5 822,-61.5 765,-61.5"/>
<text text-anchor="middle" x="793.5" y="-68.5" font-family="Helvetica,sans-Serif" font-size="10.00">ring_iter</text>
</a>
</g>
</g>
<!-- Node2 -->
<g id="node2" class="node">
<title>Node2</title>
<g id="a_node2"><a xlink:href="namespacepa.html#a04d9e05002d02fd15c58766c259ef0d7" target="_top" xlink:title="Solve one step of Anderson acceleration to find a fixed point of a function g(x):">
<polygon fill="white" stroke="black" points="377,-39 377,-69 496,-69 496,-39 377,-39"/>
<text text-anchor="start" x="385" y="-57" font-family="Helvetica,sans-Serif" font-size="10.00">pa::minimize_update</text>
<text text-anchor="middle" x="436.5" y="-46" font-family="Helvetica,sans-Serif" font-size="10.00">_anderson</text>
</a>
</g>
</g>
<!-- Node1&#45;&gt;Node2 -->
<g id="edge1" class="edge">
<title>Node1&#45;&gt;Node2</title>
<path fill="none" stroke="midnightblue" d="M754.86,-69.2C693.07,-66.24 569.71,-60.33 496.31,-56.82"/>
<polygon fill="midnightblue" stroke="midnightblue" points="754.78,-72.7 764.94,-69.68 755.12,-65.71 754.78,-72.7"/>
</g>
<!-- Node6 -->
<g id="node6" class="node">
<title>Node6</title>
<g id="a_node6"><a xlink:href="classpa_1_1LimitedMemoryQR.html#a53110c85b0c151a290bf8d29533cd370" target="_top" xlink:title="Get reverse iterators in the circular buffer.">
<polygon fill="white" stroke="black" points="630,-118.5 630,-137.5 729,-137.5 729,-118.5 630,-118.5"/>
<text text-anchor="middle" x="679.5" y="-125.5" font-family="Helvetica,sans-Serif" font-size="10.00">ring_reverse_iter</text>
</a>
</g>
</g>
<!-- Node1&#45;&gt;Node6 -->
<g id="edge5" class="edge">
<title>Node1&#45;&gt;Node6</title>
<path fill="none" stroke="midnightblue" d="M765.31,-85.28C754.09,-91.13 740.95,-97.94 729,-104 719.62,-108.76 709.16,-113.95 700.37,-118.28"/>
<polygon fill="midnightblue" stroke="midnightblue" points="766.97,-88.36 774.21,-80.63 763.73,-82.16 766.97,-88.36"/>
</g>
<!-- Node7 -->
<g id="node7" class="node">
<title>Node7</title>
<g id="a_node7"><a xlink:href="classpa_1_1LimitedMemoryQR.html#a7a60dfe0a5f68bc1efec69e406a2b619" target="_top" xlink:title="Solve the least squares problem Ax = b.">
<polygon fill="white" stroke="black" points="532,-86.5 532,-105.5 594,-105.5 594,-86.5 532,-86.5"/>
<text text-anchor="middle" x="563" y="-93.5" font-family="Helvetica,sans-Serif" font-size="10.00">solve_col</text>
</a>
</g>
</g>
<!-- Node1&#45;&gt;Node7 -->
<g id="edge12" class="edge">
<title>Node1&#45;&gt;Node7</title>
<path fill="none" stroke="midnightblue" d="M754.72,-75.13C709.74,-80.05 635.54,-88.17 594.2,-92.7"/>
<polygon fill="midnightblue" stroke="midnightblue" points="755.38,-78.58 764.94,-74.02 754.62,-71.62 755.38,-78.58"/>
</g>
<!-- Node10 -->
<g id="node10" class="node">
<title>Node10</title>
<g id="a_node10"><a xlink:href="classpa_1_1LimitedMemoryQR.html#adf11f99cb8b119423c86498dbaab9820" target="_top" xlink:title="Multiply the matrix R by a scalar.">
<polygon fill="white" stroke="black" points="536,-3.5 536,-22.5 590,-22.5 590,-3.5 536,-3.5"/>
<text text-anchor="middle" x="563" y="-10.5" font-family="Helvetica,sans-Serif" font-size="10.00">scale_R</text>
</a>
</g>
</g>
<!-- Node1&#45;&gt;Node10 -->
<g id="edge10" class="edge">
<title>Node1&#45;&gt;Node10</title>
<path fill="none" stroke="midnightblue" d="M768.83,-56.32C757.22,-49.75 742.8,-42.49 729,-38 681.48,-22.52 623.08,-16.55 590.04,-14.3"/>
<polygon fill="midnightblue" stroke="midnightblue" points="767.07,-59.35 777.47,-61.38 770.6,-53.31 767.07,-59.35"/>
</g>
<!-- Node3 -->
<g id="node3" class="node">
<title>Node3</title>
<g id="a_node3"><a xlink:href="classpa_1_1AndersonAccel.html#a631bbbe30343f7e51af52d3d4e7804c6" target="_top" xlink:title=" ">
<polygon fill="white" stroke="black" points="204,-39 204,-69 317,-69 317,-39 204,-39"/>
<text text-anchor="start" x="212" y="-57" font-family="Helvetica,sans-Serif" font-size="10.00">pa::AndersonAccel::</text>
<text text-anchor="middle" x="260.5" y="-46" font-family="Helvetica,sans-Serif" font-size="10.00">compute</text>
</a>
</g>
</g>
<!-- Node2&#45;&gt;Node3 -->
<g id="edge2" class="edge">
<title>Node2&#45;&gt;Node3</title>
<path fill="none" stroke="midnightblue" d="M366.52,-54C350.12,-54 332.83,-54 317.12,-54"/>
<polygon fill="midnightblue" stroke="midnightblue" points="366.59,-57.5 376.59,-54 366.59,-50.5 366.59,-57.5"/>
</g>
<!-- Node5 -->
<g id="node5" class="node">
<title>Node5</title>
<g id="a_node5"><a xlink:href="classpa_1_1GAAPGASolver.html#a570ec001ea8eee359be8a1b90b782cfb" target="_top" xlink:title=" ">
<polygon fill="white" stroke="black" points="180,-0.5 180,-19.5 341,-19.5 341,-0.5 180,-0.5"/>
<text text-anchor="middle" x="260.5" y="-7.5" font-family="Helvetica,sans-Serif" font-size="10.00">pa::GAAPGASolver::operator()</text>
</a>
</g>
</g>
<!-- Node2&#45;&gt;Node5 -->
<g id="edge4" class="edge">
<title>Node2&#45;&gt;Node5</title>
<path fill="none" stroke="midnightblue" d="M369.67,-36.37C360.06,-33.86 350.28,-31.34 341,-29 328.48,-25.85 314.81,-22.54 302.4,-19.58"/>
<polygon fill="midnightblue" stroke="midnightblue" points="369.03,-39.82 379.59,-38.97 370.81,-33.05 369.03,-39.82"/>
</g>
<!-- Node4 -->
<g id="node4" class="node">
<title>Node4</title>
<g id="a_node4"><a xlink:href="structpa_1_1PANOCDirection_3_01AndersonAccel_01_4.html#a8a49b1b1fd45d514a2bf04870f16e20d" target="_top" xlink:title=" ">
<polygon fill="white" stroke="black" points="0,-39 0,-69 144,-69 144,-39 0,-39"/>
<text text-anchor="start" x="8" y="-57" font-family="Helvetica,sans-Serif" font-size="10.00">pa::PANOCDirection</text>
<text text-anchor="middle" x="72" y="-46" font-family="Helvetica,sans-Serif" font-size="10.00">&lt; AndersonAccel &gt;::apply</text>
</a>
</g>
</g>
<!-- Node3&#45;&gt;Node4 -->
<g id="edge3" class="edge">
<title>Node3&#45;&gt;Node4</title>
<path fill="none" stroke="midnightblue" d="M193.52,-54C177.59,-54 160.49,-54 144.33,-54"/>
<polygon fill="midnightblue" stroke="midnightblue" points="193.8,-57.5 203.8,-54 193.8,-50.5 193.8,-57.5"/>
</g>
<!-- Node6&#45;&gt;Node7 -->
<g id="edge6" class="edge">
<title>Node6&#45;&gt;Node7</title>
<path fill="none" stroke="midnightblue" d="M634.82,-115.79C621.27,-112.01 606.64,-107.92 594.22,-104.44"/>
<polygon fill="midnightblue" stroke="midnightblue" points="633.88,-119.16 644.46,-118.49 635.77,-112.42 633.88,-119.16"/>
</g>
<!-- Node7&#45;&gt;Node2 -->
<g id="edge7" class="edge">
<title>Node7&#45;&gt;Node2</title>
<path fill="none" stroke="midnightblue" d="M524.05,-83.2C510.85,-78.75 495.93,-73.71 482.24,-69.09"/>
<polygon fill="midnightblue" stroke="midnightblue" points="523.15,-86.59 533.75,-86.47 525.39,-79.96 523.15,-86.59"/>
</g>
<!-- Node8 -->
<g id="node8" class="node">
<title>Node8</title>
<g id="a_node8"><a xlink:href="classpa_1_1LimitedMemoryQR.html#a9ec3e86c6cbb239ba0642378b564af41" target="_top" xlink:title="Solve the least squares problem AX = B.">
<polygon fill="white" stroke="black" points="415,-88.5 415,-107.5 458,-107.5 458,-88.5 415,-88.5"/>
<text text-anchor="middle" x="436.5" y="-95.5" font-family="Helvetica,sans-Serif" font-size="10.00">solve</text>
</a>
</g>
</g>
<!-- Node7&#45;&gt;Node8 -->
<g id="edge8" class="edge">
<title>Node7&#45;&gt;Node8</title>
<path fill="none" stroke="midnightblue" d="M521.79,-96.65C500.51,-96.99 475.29,-97.39 458.02,-97.67"/>
<polygon fill="midnightblue" stroke="midnightblue" points="521.92,-100.14 531.86,-96.48 521.81,-93.15 521.92,-100.14"/>
</g>
<!-- Node9 -->
<g id="node9" class="node">
<title>Node9</title>
<g id="a_node9"><a xlink:href="classpa_1_1LimitedMemoryQR.html#a1a581dbbeed876108b943e45451d0abf" target="_top" xlink:title="Solve the least squares problem AX = B.">
<polygon fill="white" stroke="black" points="239,-88.5 239,-107.5 282,-107.5 282,-88.5 239,-88.5"/>
<text text-anchor="middle" x="260.5" y="-95.5" font-family="Helvetica,sans-Serif" font-size="10.00">solve</text>
</a>
</g>
</g>
<!-- Node8&#45;&gt;Node9 -->
<g id="edge9" class="edge">
<title>Node8&#45;&gt;Node9</title>
<path fill="none" stroke="midnightblue" d="M404.64,-98C369.32,-98 312.45,-98 282.12,-98"/>
<polygon fill="midnightblue" stroke="midnightblue" points="404.86,-101.5 414.86,-98 404.86,-94.5 404.86,-101.5"/>
</g>
<!-- Node10&#45;&gt;Node5 -->
<g id="edge11" class="edge">
<title>Node10&#45;&gt;Node5</title>
<path fill="none" stroke="midnightblue" d="M525.6,-12.64C480.15,-12.18 401.11,-11.39 341.3,-10.8"/>
<polygon fill="midnightblue" stroke="midnightblue" points="525.82,-16.14 535.86,-12.74 525.89,-9.14 525.82,-16.14"/>
</g>
</g>
</svg>
