<?xml version="1.0" encoding="UTF-8" standalone="no"?>
<!DOCTYPE svg PUBLIC "-//W3C//DTD SVG 1.1//EN"
 "http://www.w3.org/Graphics/SVG/1.1/DTD/svg11.dtd">
<!-- Generated by graphviz version 2.43.0 (0)
 -->
<!-- Title: PGASolver Pages: 1 -->
<svg width="324pt" height="430pt"
 viewBox="0.00 0.00 324.00 430.00" xmlns="http://www.w3.org/2000/svg" xmlns:xlink="http://www.w3.org/1999/xlink">
<g id="graph0" class="graph" transform="scale(1 1) rotate(0) translate(4 426)">
<title>PGASolver</title>
<polygon fill="white" stroke="transparent" points="-4,4 -4,-426 320,-426 320,4 -4,4"/>
<!-- Node1 -->
<g id="node1" class="node">
<title>Node1</title>
<g id="a_node1"><a xlink:title="Standard Proximal Gradient Algorithm without any bells and whistles.">
<polygon fill="#bfbfbf" stroke="black" points="32.5,-0.5 32.5,-112.5 175.5,-112.5 175.5,-0.5 32.5,-0.5"/>
<text text-anchor="middle" x="104" y="-100.5" font-family="Helvetica,sans-Serif" font-size="10.00">PGASolver</text>
<polyline fill="none" stroke="black" points="32.5,-93.5 175.5,-93.5 "/>
<text text-anchor="start" x="40.5" y="-81.5" font-family="Helvetica,sans-Serif" font-size="10.00">&#45; progress_cb</text>
<polyline fill="none" stroke="black" points="32.5,-74.5 175.5,-74.5 "/>
<text text-anchor="start" x="40.5" y="-62.5" font-family="Helvetica,sans-Serif" font-size="10.00">+ PGASolver()</text>
<text text-anchor="start" x="40.5" y="-51.5" font-family="Helvetica,sans-Serif" font-size="10.00">+ operator()()</text>
<text text-anchor="start" x="40.5" y="-40.5" font-family="Helvetica,sans-Serif" font-size="10.00">+ set_progress_callback()</text>
<text text-anchor="start" x="40.5" y="-29.5" font-family="Helvetica,sans-Serif" font-size="10.00">+ get_name()</text>
<text text-anchor="start" x="40.5" y="-18.5" font-family="Helvetica,sans-Serif" font-size="10.00">+ stop()</text>
<text text-anchor="start" x="40.5" y="-7.5" font-family="Helvetica,sans-Serif" font-size="10.00">+ get_params()</text>
</a>
</g>
</g>
<!-- Node2 -->
<g id="node2" class="node">
<title>Node2</title>
<g id="a_node2"><a xlink:href="classpa_1_1AtomicStopSignal.html" target="_top" xlink:title=" ">
<polygon fill="white" stroke="black" points="0,-160.5 0,-283.5 122,-283.5 122,-160.5 0,-160.5"/>
<text text-anchor="middle" x="61" y="-271.5" font-family="Helvetica,sans-Serif" font-size="10.00">AtomicStopSignal</text>
<polyline fill="none" stroke="black" points="0,-264.5 122,-264.5 "/>
<text text-anchor="start" x="8" y="-252.5" font-family="Helvetica,sans-Serif" font-size="10.00">&#45; stop_flag</text>
<polyline fill="none" stroke="black" points="0,-245.5 122,-245.5 "/>
<text text-anchor="start" x="8" y="-233.5" font-family="Helvetica,sans-Serif" font-size="10.00">+ AtomicStopSignal()</text>
<text text-anchor="start" x="8" y="-222.5" font-family="Helvetica,sans-Serif" font-size="10.00">+ AtomicStopSignal()</text>
<text text-anchor="start" x="8" y="-211.5" font-family="Helvetica,sans-Serif" font-size="10.00">+ operator=()</text>
<text text-anchor="start" x="8" y="-200.5" font-family="Helvetica,sans-Serif" font-size="10.00">+ AtomicStopSignal()</text>
<text text-anchor="start" x="8" y="-189.5" font-family="Helvetica,sans-Serif" font-size="10.00">+ operator=()</text>
<text text-anchor="start" x="8" y="-178.5" font-family="Helvetica,sans-Serif" font-size="10.00">+ stop()</text>
<text text-anchor="start" x="8" y="-167.5" font-family="Helvetica,sans-Serif" font-size="10.00">+ stop_requested()</text>
</a>
</g>
</g>
<!-- Node2&#45;&gt;Node1 -->
<g id="edge1" class="edge">
<title>Node2&#45;&gt;Node1</title>
<path fill="none" stroke="#404040" d="M77.01,-160.12C80.07,-148.47 83.3,-136.23 86.4,-124.4"/>
<polygon fill="none" stroke="#404040" points="86.41,-124.37 84.07,-117.55 89.47,-112.76 91.81,-119.58 86.41,-124.37"/>
<text text-anchor="middle" x="115.5" y="-134" font-family="Helvetica,sans-Serif" font-size="10.00"> &#45;stop_signal</text>
</g>
<!-- Node3 -->
<g id="node3" class="node">
<title>Node3</title>
<g id="a_node3"><a xlink:href="namespacepa.html#structpa_1_1PGAParams" target="_top" xlink:title=" ">
<polygon fill="white" stroke="black" points="140.5,-166 140.5,-278 277.5,-278 277.5,-166 140.5,-166"/>
<text text-anchor="middle" x="209" y="-266" font-family="Helvetica,sans-Serif" font-size="10.00">PGAParams</text>
<polyline fill="none" stroke="black" points="140.5,-259 277.5,-259 "/>
<text text-anchor="start" x="148.5" y="-247" font-family="Helvetica,sans-Serif" font-size="10.00">+ max_iter</text>
<text text-anchor="start" x="148.5" y="-236" font-family="Helvetica,sans-Serif" font-size="10.00">+ γ_min</text>
<text text-anchor="start" x="148.5" y="-225" font-family="Helvetica,sans-Serif" font-size="10.00">+ stop_crit</text>
<text text-anchor="start" x="148.5" y="-214" font-family="Helvetica,sans-Serif" font-size="10.00">+ print_interval</text>
<text text-anchor="start" x="148.5" y="-203" font-family="Helvetica,sans-Serif" font-size="10.00">+ quadratic_upperbound</text>
<text text-anchor="start" x="148.5" y="-192" font-family="Helvetica,sans-Serif" font-size="10.00">_tolerance_factor</text>
<polyline fill="none" stroke="black" points="140.5,-185 277.5,-185 "/>
<text text-anchor="middle" x="209" y="-173" font-family="Helvetica,sans-Serif" font-size="10.00"> </text>
</a>
</g>
</g>
<!-- Node3&#45;&gt;Node1 -->
<g id="edge2" class="edge">
<title>Node3&#45;&gt;Node1</title>
<path fill="none" stroke="#404040" d="M173.45,-165.65C164.59,-151.86 155.02,-136.94 145.89,-122.72"/>
<polygon fill="none" stroke="#404040" points="145.82,-122.62 139.21,-119.73 139.33,-112.52 145.94,-115.41 145.82,-122.62"/>
<text text-anchor="middle" x="179" y="-134" font-family="Helvetica,sans-Serif" font-size="10.00"> &#45;params</text>
</g>
<!-- Node4 -->
<g id="node4" class="node">
<title>Node4</title>
<g id="a_node4"><a xlink:href="namespacepa.html#structpa_1_1LipschitzEstimateParams" target="_top" xlink:title=" ">
<polygon fill="white" stroke="black" points="74.5,-331.5 74.5,-421.5 213.5,-421.5 213.5,-331.5 74.5,-331.5"/>
<text text-anchor="middle" x="144" y="-409.5" font-family="Helvetica,sans-Serif" font-size="10.00">LipschitzEstimateParams</text>
<polyline fill="none" stroke="black" points="74.5,-402.5 213.5,-402.5 "/>
<text text-anchor="start" x="82.5" y="-390.5" font-family="Helvetica,sans-Serif" font-size="10.00">+ L₀</text>
<text text-anchor="start" x="82.5" y="-379.5" font-family="Helvetica,sans-Serif" font-size="10.00">+ ε</text>
<text text-anchor="start" x="82.5" y="-368.5" font-family="Helvetica,sans-Serif" font-size="10.00">+ δ</text>
<text text-anchor="start" x="82.5" y="-357.5" font-family="Helvetica,sans-Serif" font-size="10.00">+ Lγ_factor</text>
<polyline fill="none" stroke="black" points="74.5,-350.5 213.5,-350.5 "/>
<text text-anchor="middle" x="144" y="-338.5" font-family="Helvetica,sans-Serif" font-size="10.00"> </text>
</a>
</g>
</g>
<!-- Node4&#45;&gt;Node3 -->
<g id="edge3" class="edge">
<title>Node4&#45;&gt;Node3</title>
<path fill="none" stroke="#404040" d="M162.8,-331.39C168.39,-318.27 174.65,-303.6 180.7,-289.39"/>
<polygon fill="none" stroke="#404040" points="180.79,-289.17 179.47,-282.09 185.5,-278.14 186.83,-285.22 180.79,-289.17"/>
<text text-anchor="middle" x="202.5" y="-305" font-family="Helvetica,sans-Serif" font-size="10.00"> +Lipschitz</text>
</g>
<!-- Node5 -->
<g id="node5" class="node">
<title>Node5</title>
<g id="a_node5"><a xlink:title=" ">
<polygon fill="white" stroke="#bfbfbf" points="232,-348 232,-405 316,-405 316,-348 232,-348"/>
<text text-anchor="middle" x="274" y="-393" font-family="Helvetica,sans-Serif" font-size="10.00">microseconds</text>
<polyline fill="none" stroke="#bfbfbf" points="232,-386 316,-386 "/>
<text text-anchor="middle" x="274" y="-374" font-family="Helvetica,sans-Serif" font-size="10.00"> </text>
<polyline fill="none" stroke="#bfbfbf" points="232,-367 316,-367 "/>
<text text-anchor="middle" x="274" y="-355" font-family="Helvetica,sans-Serif" font-size="10.00"> </text>
</a>
</g>
</g>
<!-- Node5&#45;&gt;Node3 -->
<g id="edge4" class="edge">
<title>Node5&#45;&gt;Node3</title>
<path fill="none" stroke="#404040" d="M262.23,-347.88C255.25,-331.52 246.09,-310.02 237.34,-289.48"/>
<polygon fill="none" stroke="#404040" points="237.24,-289.25 231.2,-285.3 232.53,-278.21 238.56,-282.16 237.24,-289.25"/>
<text text-anchor="middle" x="277.5" y="-305" font-family="Helvetica,sans-Serif" font-size="10.00"> +max_time</text>
</g>
</g>
</svg>
