<?xml version="1.0" encoding="UTF-8" standalone="no"?>
<!DOCTYPE svg PUBLIC "-//W3C//DTD SVG 1.1//EN"
 "http://www.w3.org/Graphics/SVG/1.1/DTD/svg11.dtd">
<!-- Generated by graphviz version 2.43.0 (0)
 -->
<!-- Title: history Pages: 1 -->
<svg width="450pt" height="94pt"
 viewBox="0.00 0.00 450.00 94.00" xmlns="http://www.w3.org/2000/svg" xmlns:xlink="http://www.w3.org/1999/xlink">
<g id="graph0" class="graph" transform="scale(1 1) rotate(0) translate(4 90)">
<title>history</title>
<polygon fill="white" stroke="transparent" points="-4,4 -4,-90 446,-90 446,4 -4,4"/>
<!-- Node1 -->
<g id="node1" class="node">
<title>Node1</title>
<g id="a_node1"><a xlink:title="Get the number of previous vectors s and y stored in the buffer.">
<polygon fill="#bfbfbf" stroke="black" points="392,-38.5 392,-57.5 442,-57.5 442,-38.5 392,-38.5"/>
<text text-anchor="middle" x="417" y="-45.5" font-family="Helvetica,sans-Serif" font-size="10.00">history</text>
</a>
</g>
</g>
<!-- Node2 -->
<g id="node2" class="node">
<title>Node2</title>
<g id="a_node2"><a xlink:href="classpa_1_1LBFGS.html#a33d8dd6fd12e1394c9637610086dae4c" target="_top" xlink:title="Apply the inverse Hessian approximation to the given vector q.">
<polygon fill="white" stroke="black" points="220,-66.5 220,-85.5 264,-85.5 264,-66.5 220,-66.5"/>
<text text-anchor="middle" x="242" y="-73.5" font-family="Helvetica,sans-Serif" font-size="10.00">apply</text>
</a>
</g>
</g>
<!-- Node1&#45;&gt;Node2 -->
<g id="edge1" class="edge">
<title>Node1&#45;&gt;Node2</title>
<path fill="none" stroke="midnightblue" d="M382.24,-60.17C373.77,-62.81 364.63,-65.31 356,-67 324.32,-73.19 286.86,-75.14 264.02,-75.75"/>
<polygon fill="midnightblue" stroke="midnightblue" points="383.38,-63.47 391.8,-57.04 381.21,-56.82 383.38,-63.47"/>
</g>
<!-- Node4 -->
<g id="node4" class="node">
<title>Node4</title>
<g id="a_node4"><a xlink:href="classpa_1_1LBFGS.html#adeddc1e1eb8ce1c1bbaf931b6f9a5b9c" target="_top" xlink:title="Scale the stored y vectors by the given factor.">
<polygon fill="white" stroke="black" points="303,-38.5 303,-57.5 356,-57.5 356,-38.5 303,-38.5"/>
<text text-anchor="middle" x="329.5" y="-45.5" font-family="Helvetica,sans-Serif" font-size="10.00">scale_y</text>
</a>
</g>
</g>
<!-- Node1&#45;&gt;Node4 -->
<g id="edge3" class="edge">
<title>Node1&#45;&gt;Node4</title>
<path fill="none" stroke="midnightblue" d="M381.63,-48C373.08,-48 364.06,-48 356.03,-48"/>
<polygon fill="midnightblue" stroke="midnightblue" points="381.73,-51.5 391.73,-48 381.73,-44.5 381.73,-51.5"/>
</g>
<!-- Node5 -->
<g id="node5" class="node">
<title>Node5</title>
<g id="a_node5"><a xlink:href="classpa_1_1LBFGS.html#a0df701f7bb07249c37bcbf20d9c980fe" target="_top" xlink:title="Get the next index in the circular buffer of previous s and y vectors.">
<polygon fill="white" stroke="black" points="310.5,-0.5 310.5,-19.5 348.5,-19.5 348.5,-0.5 310.5,-0.5"/>
<text text-anchor="middle" x="329.5" y="-7.5" font-family="Helvetica,sans-Serif" font-size="10.00">succ</text>
</a>
</g>
</g>
<!-- Node1&#45;&gt;Node5 -->
<g id="edge4" class="edge">
<title>Node1&#45;&gt;Node5</title>
<path fill="none" stroke="midnightblue" d="M385,-34.22C372.78,-28.79 359.16,-22.74 348.6,-18.04"/>
<polygon fill="midnightblue" stroke="midnightblue" points="383.87,-37.55 394.42,-38.41 386.71,-31.15 383.87,-37.55"/>
</g>
<!-- Node3 -->
<g id="node3" class="node">
<title>Node3</title>
<g id="a_node3"><a xlink:href="classpa_1_1StructuredPANOCLBFGSSolver.html#ade95d8a7a1892d4087d6fffc958cde6e" target="_top" xlink:title=" ">
<polygon fill="white" stroke="black" points="0,-33 0,-63 181,-63 181,-33 0,-33"/>
<text text-anchor="start" x="8" y="-51" font-family="Helvetica,sans-Serif" font-size="10.00">pa::StructuredPANOCLBFGSSolver</text>
<text text-anchor="middle" x="90.5" y="-40" font-family="Helvetica,sans-Serif" font-size="10.00">::operator()</text>
</a>
</g>
</g>
<!-- Node2&#45;&gt;Node3 -->
<g id="edge2" class="edge">
<title>Node2&#45;&gt;Node3</title>
<path fill="none" stroke="midnightblue" d="M209.81,-70.16C198.58,-68.06 185.34,-65.58 171.86,-63.05"/>
<polygon fill="midnightblue" stroke="midnightblue" points="209.42,-73.65 219.9,-72.05 210.71,-66.77 209.42,-73.65"/>
</g>
<!-- Node6 -->
<g id="node6" class="node">
<title>Node6</title>
<g id="a_node6"><a xlink:href="classpa_1_1LBFGS.html#a8141345d2afd4f95cd57da8285e1226b" target="_top" xlink:title="Update the inverse Hessian approximation using the new vectors xₖ₊₁ and pₖ₊₁.">
<polygon fill="white" stroke="black" points="217,-19.5 217,-38.5 267,-38.5 267,-19.5 217,-19.5"/>
<text text-anchor="middle" x="242" y="-26.5" font-family="Helvetica,sans-Serif" font-size="10.00">update</text>
</a>
</g>
</g>
<!-- Node5&#45;&gt;Node6 -->
<g id="edge5" class="edge">
<title>Node5&#45;&gt;Node6</title>
<path fill="none" stroke="midnightblue" d="M300.6,-16.2C289.84,-18.59 277.66,-21.3 267.27,-23.61"/>
<polygon fill="midnightblue" stroke="midnightblue" points="301.37,-19.62 310.37,-14.03 299.85,-12.78 301.37,-19.62"/>
</g>
<!-- Node6&#45;&gt;Node3 -->
<g id="edge6" class="edge">
<title>Node6&#45;&gt;Node3</title>
<path fill="none" stroke="midnightblue" d="M206.82,-33.34C198.94,-34.35 190.2,-35.46 181.15,-36.61"/>
<polygon fill="midnightblue" stroke="midnightblue" points="207.5,-36.79 216.98,-32.05 206.62,-29.84 207.5,-36.79"/>
</g>
</g>
</svg>
