<?xml version="1.0" encoding="UTF-8" standalone="no"?>
<!DOCTYPE svg PUBLIC "-//W3C//DTD SVG 1.1//EN"
 "http://www.w3.org/Graphics/SVG/1.1/DTD/svg11.dtd">
<!-- Generated by graphviz version 2.43.0 (0)
 -->
<!-- Title: reset Pages: 1 -->
<svg width="601pt" height="125pt"
 viewBox="0.00 0.00 601.00 124.50" xmlns="http://www.w3.org/2000/svg" xmlns:xlink="http://www.w3.org/1999/xlink">
<g id="graph0" class="graph" transform="scale(1 1) rotate(0) translate(4 120.5)">
<title>reset</title>
<polygon fill="white" stroke="transparent" points="-4,4 -4,-120.5 597,-120.5 597,4 -4,4"/>
<!-- Node1 -->
<g id="node1" class="node">
<title>Node1</title>
<g id="a_node1"><a xlink:title="Reset all indices, clearing the Q and R matrices.">
<polygon fill="#bfbfbf" stroke="black" points="552,-53 552,-72 593,-72 593,-53 552,-53"/>
<text text-anchor="middle" x="572.5" y="-60" font-family="Helvetica,sans-Serif" font-size="10.00">reset</text>
</a>
</g>
</g>
<!-- Node2 -->
<g id="node2" class="node">
<title>Node2</title>
<g id="a_node2"><a xlink:href="classpa_1_1GAAPGASolver.html#a570ec001ea8eee359be8a1b90b782cfb" target="_top" xlink:title=" ">
<polygon fill="white" stroke="black" points="355,-97 355,-116 516,-116 516,-97 355,-97"/>
<text text-anchor="middle" x="435.5" y="-104" font-family="Helvetica,sans-Serif" font-size="10.00">pa::GAAPGASolver::operator()</text>
</a>
</g>
</g>
<!-- Node1&#45;&gt;Node2 -->
<g id="edge1" class="edge">
<title>Node1&#45;&gt;Node2</title>
<path fill="none" stroke="midnightblue" d="M543.34,-76.42C534.71,-80.35 525.08,-84.4 516,-87.5 505.52,-91.08 494.05,-94.24 483.16,-96.9"/>
<polygon fill="midnightblue" stroke="midnightblue" points="545.02,-79.5 552.6,-72.09 542.06,-73.16 545.02,-79.5"/>
</g>
<!-- Node3 -->
<g id="node3" class="node">
<title>Node3</title>
<g id="a_node3"><a xlink:href="classpa_1_1AndersonAccel.html#ad20897c5c8bd47f5d4005989bead0e55" target="_top" xlink:title=" ">
<polygon fill="white" stroke="black" points="379,-47.5 379,-77.5 492,-77.5 492,-47.5 379,-47.5"/>
<text text-anchor="start" x="387" y="-65.5" font-family="Helvetica,sans-Serif" font-size="10.00">pa::AndersonAccel::</text>
<text text-anchor="middle" x="435.5" y="-54.5" font-family="Helvetica,sans-Serif" font-size="10.00">reset</text>
</a>
</g>
</g>
<!-- Node1&#45;&gt;Node3 -->
<g id="edge2" class="edge">
<title>Node1&#45;&gt;Node3</title>
<path fill="none" stroke="midnightblue" d="M541.48,-62.5C526.93,-62.5 508.97,-62.5 492.05,-62.5"/>
<polygon fill="midnightblue" stroke="midnightblue" points="541.87,-66 551.87,-62.5 541.87,-59 541.87,-66"/>
</g>
<!-- Node6 -->
<g id="node6" class="node">
<title>Node6</title>
<g id="a_node6"><a xlink:href="classpa_1_1LimitedMemoryQR.html#a94d70718a4b923a645b928bc68524916" target="_top" xlink:title="Re&#45;allocate storage for a problem with a different size.">
<polygon fill="white" stroke="black" points="412.5,-8 412.5,-27 458.5,-27 458.5,-8 412.5,-8"/>
<text text-anchor="middle" x="435.5" y="-15" font-family="Helvetica,sans-Serif" font-size="10.00">resize</text>
</a>
</g>
</g>
<!-- Node1&#45;&gt;Node6 -->
<g id="edge5" class="edge">
<title>Node1&#45;&gt;Node6</title>
<path fill="none" stroke="midnightblue" d="M543.32,-48.65C534.68,-44.72 525.06,-40.65 516,-37.5 497.05,-30.91 474.85,-25.51 458.74,-21.99"/>
<polygon fill="midnightblue" stroke="midnightblue" points="542.03,-51.91 552.58,-52.97 545,-45.57 542.03,-51.91"/>
</g>
<!-- Node4 -->
<g id="node4" class="node">
<title>Node4</title>
<g id="a_node4"><a xlink:href="classpa_1_1AndersonAccel.html#af1f7f1b0b1868cb2e03aa548c0ae2e85" target="_top" xlink:title=" ">
<polygon fill="white" stroke="black" points="206,-49.5 206,-79.5 319,-79.5 319,-49.5 206,-49.5"/>
<text text-anchor="start" x="214" y="-67.5" font-family="Helvetica,sans-Serif" font-size="10.00">pa::AndersonAccel::</text>
<text text-anchor="middle" x="262.5" y="-56.5" font-family="Helvetica,sans-Serif" font-size="10.00">reinitialize</text>
</a>
</g>
</g>
<!-- Node3&#45;&gt;Node4 -->
<g id="edge3" class="edge">
<title>Node3&#45;&gt;Node4</title>
<path fill="none" stroke="midnightblue" d="M368.89,-63.27C352.44,-63.46 334.94,-63.66 319.03,-63.85"/>
<polygon fill="midnightblue" stroke="midnightblue" points="369.02,-66.77 378.98,-63.15 368.94,-59.77 369.02,-66.77"/>
</g>
<!-- Node5 -->
<g id="node5" class="node">
<title>Node5</title>
<g id="a_node5"><a xlink:href="structpa_1_1PANOCDirection_3_01AndersonAccel_01_4.html#aec1a817f12307745a2f7b39cce9b0a9b" target="_top" xlink:title=" ">
<polygon fill="white" stroke="black" points="0,-49.5 0,-79.5 170,-79.5 170,-49.5 0,-49.5"/>
<text text-anchor="start" x="8" y="-67.5" font-family="Helvetica,sans-Serif" font-size="10.00">pa::PANOCDirection</text>
<text text-anchor="middle" x="85" y="-56.5" font-family="Helvetica,sans-Serif" font-size="10.00">&lt; AndersonAccel &gt;::changed_γ</text>
</a>
</g>
</g>
<!-- Node4&#45;&gt;Node5 -->
<g id="edge4" class="edge">
<title>Node4&#45;&gt;Node5</title>
<path fill="none" stroke="midnightblue" d="M195.85,-64.5C187.42,-64.5 178.7,-64.5 170.02,-64.5"/>
<polygon fill="midnightblue" stroke="midnightblue" points="195.97,-68 205.97,-64.5 195.97,-61 195.97,-68"/>
</g>
<!-- Node7 -->
<g id="node7" class="node">
<title>Node7</title>
<g id="a_node7"><a xlink:href="classpa_1_1AndersonAccel.html#a94d70718a4b923a645b928bc68524916" target="_top" xlink:title=" ">
<polygon fill="white" stroke="black" points="206,-0.5 206,-30.5 319,-30.5 319,-0.5 206,-0.5"/>
<text text-anchor="start" x="214" y="-18.5" font-family="Helvetica,sans-Serif" font-size="10.00">pa::AndersonAccel::</text>
<text text-anchor="middle" x="262.5" y="-7.5" font-family="Helvetica,sans-Serif" font-size="10.00">resize</text>
</a>
</g>
</g>
<!-- Node6&#45;&gt;Node7 -->
<g id="edge6" class="edge">
<title>Node6&#45;&gt;Node7</title>
<path fill="none" stroke="midnightblue" d="M402.43,-17.12C379.04,-16.85 346.77,-16.47 319.21,-16.15"/>
<polygon fill="midnightblue" stroke="midnightblue" points="402.45,-20.63 412.49,-17.24 402.54,-13.63 402.45,-20.63"/>
</g>
</g>
</svg>
