<?xml version="1.0" encoding="UTF-8" standalone="no"?>
<!DOCTYPE svg PUBLIC "-//W3C//DTD SVG 1.1//EN"
 "http://www.w3.org/Graphics/SVG/1.1/DTD/svg11.dtd">
<!-- Generated by graphviz version 2.43.0 (0)
 -->
<!-- Title: operator() Pages: 1 -->
<svg width="828pt" height="392pt"
 viewBox="0.00 0.00 828.00 392.14" xmlns="http://www.w3.org/2000/svg" xmlns:xlink="http://www.w3.org/1999/xlink">
<g id="graph0" class="graph" transform="scale(1 1) rotate(0) translate(4 388.14)">
<title>operator()</title>
<polygon fill="white" stroke="transparent" points="-4,4 -4,-388.14 824,-388.14 824,4 -4,4"/>
<!-- Node1 -->
<g id="node1" class="node">
<title>Node1</title>
<g id="a_node1"><a xlink:title=" ">
<polygon fill="#bfbfbf" stroke="black" points="0,-181 0,-200 65,-200 65,-181 0,-181"/>
<text text-anchor="middle" x="32.5" y="-188" font-family="Helvetica,sans-Serif" font-size="10.00">operator()</text>
</a>
</g>
</g>
<!-- Node2 -->
<g id="node2" class="node">
<title>Node2</title>
<g id="a_node2"><a xlink:href="namespacepa_1_1detail.html#a22e222a3f2d7f01ceee380154e140ea9" target="_top" xlink:title="Calculate the error between ẑ and g(x).">
<polygon fill="white" stroke="black" points="589,-329 589,-348 706,-348 706,-329 589,-329"/>
<text text-anchor="middle" x="647.5" y="-336" font-family="Helvetica,sans-Serif" font-size="10.00">pa::detail::calc_err_z</text>
</a>
</g>
</g>
<!-- Node1&#45;&gt;Node2 -->
<g id="edge1" class="edge">
<title>Node1&#45;&gt;Node2</title>
<path fill="none" stroke="midnightblue" d="M35.12,-200.32C39.88,-225.69 56.43,-293.37 101,-321.5 261.96,-423.11 506.22,-375.71 603.92,-350.6"/>
<polygon fill="midnightblue" stroke="midnightblue" points="604.95,-353.95 613.74,-348.03 603.17,-347.18 604.95,-353.95"/>
</g>
<!-- Node4 -->
<g id="node4" class="node">
<title>Node4</title>
<g id="a_node4"><a xlink:href="namespacepa_1_1detail.html#a886972efd9fe413c62efea5eb2cdd0e9" target="_top" xlink:title=" ">
<polygon fill="white" stroke="black" points="103.5,-49.5 103.5,-79.5 219.5,-79.5 219.5,-49.5 103.5,-49.5"/>
<text text-anchor="start" x="111.5" y="-67.5" font-family="Helvetica,sans-Serif" font-size="10.00">pa::detail::calc_error</text>
<text text-anchor="middle" x="161.5" y="-56.5" font-family="Helvetica,sans-Serif" font-size="10.00">_stop_crit</text>
</a>
</g>
</g>
<!-- Node1&#45;&gt;Node4 -->
<g id="edge3" class="edge">
<title>Node1&#45;&gt;Node4</title>
<path fill="none" stroke="midnightblue" d="M38.2,-180.88C47.75,-162.15 71.09,-120.34 101,-94.5 105.16,-90.91 109.82,-87.62 114.66,-84.64"/>
<polygon fill="midnightblue" stroke="midnightblue" points="116.53,-87.6 123.49,-79.61 113.06,-81.52 116.53,-87.6"/>
</g>
<!-- Node7 -->
<g id="node7" class="node">
<title>Node7</title>
<g id="a_node7"><a xlink:href="namespacepa_1_1detail.html#a908a0589ddf8734417f5481395e197d2" target="_top" xlink:title="Calculate ∇ψ(x) using ŷ.">
<polygon fill="white" stroke="black" points="422,-143.5 422,-173.5 537,-173.5 537,-143.5 422,-143.5"/>
<text text-anchor="start" x="430" y="-161.5" font-family="Helvetica,sans-Serif" font-size="10.00">pa::detail::calc_grad</text>
<text text-anchor="middle" x="479.5" y="-150.5" font-family="Helvetica,sans-Serif" font-size="10.00">_ψ_from_ŷ</text>
</a>
</g>
</g>
<!-- Node1&#45;&gt;Node7 -->
<g id="edge6" class="edge">
<title>Node1&#45;&gt;Node7</title>
<path fill="none" stroke="midnightblue" d="M54.9,-180.9C67.94,-175.56 85.1,-169.42 101,-166.5 208.3,-146.82 335.63,-149.35 411.6,-153.52"/>
<polygon fill="midnightblue" stroke="midnightblue" points="411.79,-157.04 421.97,-154.12 412.19,-150.05 411.79,-157.04"/>
</g>
<!-- Node8 -->
<g id="node8" class="node">
<title>Node8</title>
<g id="a_node8"><a xlink:href="namespacepa_1_1detail.html#ac32d0e6b012b801731e55225b7505fa9" target="_top" xlink:title=" ">
<polygon fill="white" stroke="black" points="269.5,-99 269.5,-118 368.5,-118 368.5,-99 269.5,-99"/>
<text text-anchor="middle" x="319" y="-106" font-family="Helvetica,sans-Serif" font-size="10.00">pa::detail::calc_x̂</text>
</a>
</g>
</g>
<!-- Node1&#45;&gt;Node8 -->
<g id="edge7" class="edge">
<title>Node1&#45;&gt;Node8</title>
<path fill="none" stroke="midnightblue" d="M41.46,-180.68C53,-167.22 75.78,-143.46 101,-132.5 151.31,-110.63 214.09,-105.82 259.16,-105.77"/>
<polygon fill="midnightblue" stroke="midnightblue" points="259.33,-109.27 269.36,-105.84 259.38,-102.27 259.33,-109.27"/>
</g>
<!-- Node9 -->
<g id="node9" class="node">
<title>Node9</title>
<g id="a_node9"><a xlink:href="namespacepa_1_1detail.html#aa986daa1d5f0dfdbc75c143d2aae2919" target="_top" xlink:title="Calculate both ψ(x) and its gradient ∇ψ(x).">
<polygon fill="white" stroke="black" points="269,-219.5 269,-249.5 369,-249.5 369,-219.5 269,-219.5"/>
<text text-anchor="start" x="277" y="-237.5" font-family="Helvetica,sans-Serif" font-size="10.00">pa::detail::calc_ψ</text>
<text text-anchor="middle" x="319" y="-226.5" font-family="Helvetica,sans-Serif" font-size="10.00">_grad_ψ</text>
</a>
</g>
</g>
<!-- Node1&#45;&gt;Node9 -->
<g id="edge9" class="edge">
<title>Node1&#45;&gt;Node9</title>
<path fill="none" stroke="midnightblue" d="M54.94,-200.12C67.99,-205.55 85.15,-211.94 101,-215.5 153.43,-227.28 214.52,-231.84 258.5,-233.56"/>
<polygon fill="midnightblue" stroke="midnightblue" points="258.62,-237.07 268.73,-233.92 258.86,-230.07 258.62,-237.07"/>
</g>
<!-- Node10 -->
<g id="node10" class="node">
<title>Node10</title>
<g id="a_node10"><a xlink:href="namespacepa_1_1detail.html#a82a03662e6ce5bcfd57ee2df719aec21" target="_top" xlink:title="Calculate both ψ(x) and the vector ŷ that can later be used to compute ∇ψ.">
<polygon fill="white" stroke="black" points="424,-228 424,-247 535,-247 535,-228 424,-228"/>
<text text-anchor="middle" x="479.5" y="-235" font-family="Helvetica,sans-Serif" font-size="10.00">pa::detail::calc_ψ_ŷ</text>
</a>
</g>
</g>
<!-- Node1&#45;&gt;Node10 -->
<g id="edge14" class="edge">
<title>Node1&#45;&gt;Node10</title>
<path fill="none" stroke="midnightblue" d="M35.79,-200.08C41.85,-222.97 60.65,-280.6 101,-303.5 158.97,-336.4 357.43,-277.37 440.96,-250.16"/>
<polygon fill="midnightblue" stroke="midnightblue" points="442.16,-253.45 450.56,-247.01 439.97,-246.8 442.16,-253.45"/>
</g>
<!-- Node12 -->
<g id="node12" class="node">
<title>Node12</title>
<g id="a_node12"><a xlink:href="namespacepa_1_1detail.html#adb5e65f5b5c52143daa1fc61c0f95d4e" target="_top" xlink:title="Increase the estimate of the Lipschitz constant of the objective gradient and decrease the step size ...">
<polygon fill="white" stroke="black" points="108,-175.5 108,-205.5 215,-205.5 215,-175.5 108,-175.5"/>
<text text-anchor="start" x="116" y="-193.5" font-family="Helvetica,sans-Serif" font-size="10.00">pa::detail::descent</text>
<text text-anchor="middle" x="161.5" y="-182.5" font-family="Helvetica,sans-Serif" font-size="10.00">_lemma</text>
</a>
</g>
</g>
<!-- Node1&#45;&gt;Node12 -->
<g id="edge15" class="edge">
<title>Node1&#45;&gt;Node12</title>
<path fill="none" stroke="midnightblue" d="M65.22,-190.5C75.12,-190.5 86.41,-190.5 97.67,-190.5"/>
<polygon fill="midnightblue" stroke="midnightblue" points="97.96,-194 107.96,-190.5 97.96,-187 97.96,-194"/>
</g>
<!-- Node13 -->
<g id="node13" class="node">
<title>Node13</title>
<g id="a_node13"><a xlink:href="namespacepa_1_1detail.html#a24c0ce181607512a70dae43aa90fea5f" target="_top" xlink:title=" ">
<polygon fill="white" stroke="black" points="106,-263.5 106,-293.5 217,-293.5 217,-263.5 106,-263.5"/>
<text text-anchor="start" x="114" y="-281.5" font-family="Helvetica,sans-Serif" font-size="10.00">pa::detail::initial</text>
<text text-anchor="middle" x="161.5" y="-270.5" font-family="Helvetica,sans-Serif" font-size="10.00">_lipschitz_estimate</text>
</a>
</g>
</g>
<!-- Node1&#45;&gt;Node13 -->
<g id="edge18" class="edge">
<title>Node1&#45;&gt;Node13</title>
<path fill="none" stroke="midnightblue" d="M43.39,-200.37C56.02,-212.64 78.89,-233.75 101,-248.5 106.3,-252.04 112.08,-255.45 117.89,-258.61"/>
<polygon fill="midnightblue" stroke="midnightblue" points="116.48,-261.83 126.96,-263.37 119.73,-255.63 116.48,-261.83"/>
</g>
<!-- Node15 -->
<g id="node15" class="node">
<title>Node15</title>
<g id="a_node15"><a xlink:href="classpa_1_1AtomicStopSignal.html#aa0097deccc19b49f8ab5344d8d6d5cf6" target="_top" xlink:title=" ">
<polygon fill="white" stroke="black" points="101,-0.5 101,-30.5 222,-30.5 222,-0.5 101,-0.5"/>
<text text-anchor="start" x="109" y="-18.5" font-family="Helvetica,sans-Serif" font-size="10.00">pa::AtomicStopSignal</text>
<text text-anchor="middle" x="161.5" y="-7.5" font-family="Helvetica,sans-Serif" font-size="10.00">::stop_requested</text>
</a>
</g>
</g>
<!-- Node1&#45;&gt;Node15 -->
<g id="edge22" class="edge">
<title>Node1&#45;&gt;Node15</title>
<path fill="none" stroke="midnightblue" d="M35.19,-180.94C40.31,-154.73 57.99,-80.95 101,-39.5 102.1,-38.44 103.26,-37.42 104.46,-36.44"/>
<polygon fill="midnightblue" stroke="midnightblue" points="106.67,-39.17 112.93,-30.62 102.71,-33.4 106.67,-39.17"/>
</g>
<!-- Node3 -->
<g id="node3" class="node">
<title>Node3</title>
<g id="a_node3"><a xlink:href="namespacepa.html#a5414901c2fb62f1fd47857642964cc71" target="_top" xlink:title="Project a vector onto a box.">
<polygon fill="white" stroke="black" points="752,-288 752,-307 820,-307 820,-288 752,-288"/>
<text text-anchor="middle" x="786" y="-295" font-family="Helvetica,sans-Serif" font-size="10.00">pa::project</text>
</a>
</g>
</g>
<!-- Node2&#45;&gt;Node3 -->
<g id="edge2" class="edge">
<title>Node2&#45;&gt;Node3</title>
<path fill="none" stroke="midnightblue" d="M680.16,-328.99C698.97,-323.34 723.06,-316.11 743.4,-310"/>
<polygon fill="midnightblue" stroke="midnightblue" points="744.47,-313.33 753.04,-307.1 742.46,-306.62 744.47,-313.33"/>
</g>
<!-- Node5 -->
<g id="node5" class="node">
<title>Node5</title>
<g id="a_node5"><a xlink:href="namespacepa_1_1vec__util.html#af8e650634ec3d7b82a78a4d313632ed0" target="_top" xlink:title="Get the maximum or infinity&#45;norm of the given vector.">
<polygon fill="white" stroke="black" points="258,-23 258,-42 380,-42 380,-23 258,-23"/>
<text text-anchor="middle" x="319" y="-30" font-family="Helvetica,sans-Serif" font-size="10.00">pa::vec_util::norm_inf</text>
</a>
</g>
</g>
<!-- Node4&#45;&gt;Node5 -->
<g id="edge4" class="edge">
<title>Node4&#45;&gt;Node5</title>
<path fill="none" stroke="midnightblue" d="M219.52,-52.77C233.33,-49.92 248.08,-46.89 261.85,-44.05"/>
<polygon fill="midnightblue" stroke="midnightblue" points="262.59,-47.48 271.68,-42.03 261.18,-40.62 262.59,-47.48"/>
</g>
<!-- Node6 -->
<g id="node6" class="node">
<title>Node6</title>
<g id="a_node6"><a xlink:href="namespacepa_1_1detail.html#a8ed4d487878856942843707b5a131b85" target="_top" xlink:title="Projected gradient step.">
<polygon fill="white" stroke="black" points="422.5,-81.5 422.5,-111.5 536.5,-111.5 536.5,-81.5 422.5,-81.5"/>
<text text-anchor="start" x="430.5" y="-99.5" font-family="Helvetica,sans-Serif" font-size="10.00">pa::detail::projected</text>
<text text-anchor="middle" x="479.5" y="-88.5" font-family="Helvetica,sans-Serif" font-size="10.00">_gradient_step</text>
</a>
</g>
</g>
<!-- Node4&#45;&gt;Node6 -->
<g id="edge5" class="edge">
<title>Node4&#45;&gt;Node6</title>
<path fill="none" stroke="midnightblue" d="M219.73,-70.29C274,-75.79 355.51,-84.05 412.51,-89.82"/>
<polygon fill="midnightblue" stroke="midnightblue" points="412.19,-93.3 422.5,-90.83 412.9,-86.34 412.19,-93.3"/>
</g>
<!-- Node8&#45;&gt;Node6 -->
<g id="edge8" class="edge">
<title>Node8&#45;&gt;Node6</title>
<path fill="none" stroke="midnightblue" d="M368.85,-104.8C382.46,-103.77 397.49,-102.63 411.93,-101.54"/>
<polygon fill="midnightblue" stroke="midnightblue" points="412.62,-105 422.32,-100.75 412.09,-98.02 412.62,-105"/>
</g>
<!-- Node9&#45;&gt;Node7 -->
<g id="edge10" class="edge">
<title>Node9&#45;&gt;Node7</title>
<path fill="none" stroke="midnightblue" d="M351.31,-219.48C376.09,-207.6 410.88,-190.92 437.81,-178.01"/>
<polygon fill="midnightblue" stroke="midnightblue" points="439.48,-181.09 446.98,-173.61 436.45,-174.78 439.48,-181.09"/>
</g>
<!-- Node9&#45;&gt;Node10 -->
<g id="edge11" class="edge">
<title>Node9&#45;&gt;Node10</title>
<path fill="none" stroke="midnightblue" d="M369.28,-235.43C383.31,-235.7 398.81,-235.99 413.61,-236.27"/>
<polygon fill="midnightblue" stroke="midnightblue" points="413.66,-239.77 423.73,-236.46 413.8,-232.77 413.66,-239.77"/>
</g>
<!-- Node11 -->
<g id="node11" class="node">
<title>Node11</title>
<g id="a_node11"><a xlink:href="namespacepa.html#aee505a26e46aa4c0ce09d0fed72f0dac" target="_top" xlink:title="Get the difference between the given vector and its projection.">
<polygon fill="white" stroke="black" points="579,-269 579,-288 716,-288 716,-269 579,-269"/>
<text text-anchor="middle" x="647.5" y="-276" font-family="Helvetica,sans-Serif" font-size="10.00">pa::projecting_difference</text>
</a>
</g>
</g>
<!-- Node10&#45;&gt;Node11 -->
<g id="edge12" class="edge">
<title>Node10&#45;&gt;Node11</title>
<path fill="none" stroke="midnightblue" d="M519,-247.01C542.59,-252.84 572.99,-260.34 598.19,-266.57"/>
<polygon fill="midnightblue" stroke="midnightblue" points="597.37,-269.97 607.92,-268.97 599.05,-263.18 597.37,-269.97"/>
</g>
<!-- Node11&#45;&gt;Node3 -->
<g id="edge13" class="edge">
<title>Node11&#45;&gt;Node3</title>
<path fill="none" stroke="midnightblue" d="M716.35,-287.94C725.01,-289.15 733.67,-290.36 741.79,-291.49"/>
<polygon fill="midnightblue" stroke="midnightblue" points="741.35,-294.96 751.73,-292.87 742.31,-288.02 741.35,-294.96"/>
</g>
<!-- Node12&#45;&gt;Node8 -->
<g id="edge16" class="edge">
<title>Node12&#45;&gt;Node8</title>
<path fill="none" stroke="midnightblue" d="M191.02,-175.46C219.41,-160.49 262.68,-137.67 290.66,-122.92"/>
<polygon fill="midnightblue" stroke="midnightblue" points="292.65,-125.82 299.86,-118.06 289.38,-119.63 292.65,-125.82"/>
</g>
<!-- Node12&#45;&gt;Node10 -->
<g id="edge17" class="edge">
<title>Node12&#45;&gt;Node10</title>
<path fill="none" stroke="midnightblue" d="M215.15,-192.75C259.42,-195.25 324.22,-200.37 380,-210.5 399.78,-214.09 421.36,-219.8 439.27,-225.04"/>
<polygon fill="midnightblue" stroke="midnightblue" points="438.49,-228.46 449.07,-227.97 440.49,-221.75 438.49,-228.46"/>
</g>
<!-- Node13&#45;&gt;Node9 -->
<g id="edge21" class="edge">
<title>Node13&#45;&gt;Node9</title>
<path fill="none" stroke="midnightblue" d="M215.58,-263.48C229.59,-259.52 244.79,-255.21 259.09,-251.17"/>
<polygon fill="midnightblue" stroke="midnightblue" points="260.15,-254.51 268.82,-248.42 258.25,-247.77 260.15,-254.51"/>
</g>
<!-- Node14 -->
<g id="node14" class="node">
<title>Node14</title>
<g id="a_node14"><a xlink:href="namespacepa_1_1detail.html#a6572cf745448d2b40e9d5e977d17d5e2" target="_top" xlink:title="Calculate the gradient ∇ψ(x).">
<polygon fill="white" stroke="black" points="416,-269 416,-288 543,-288 543,-269 416,-269"/>
<text text-anchor="middle" x="479.5" y="-276" font-family="Helvetica,sans-Serif" font-size="10.00">pa::detail::calc_grad_ψ</text>
</a>
</g>
</g>
<!-- Node13&#45;&gt;Node14 -->
<g id="edge19" class="edge">
<title>Node13&#45;&gt;Node14</title>
<path fill="none" stroke="midnightblue" d="M217.18,-278.5C269.34,-278.5 348.25,-278.5 405.71,-278.5"/>
<polygon fill="midnightblue" stroke="midnightblue" points="405.82,-282 415.82,-278.5 405.82,-275 405.82,-282"/>
</g>
<!-- Node14&#45;&gt;Node11 -->
<g id="edge20" class="edge">
<title>Node14&#45;&gt;Node11</title>
<path fill="none" stroke="midnightblue" d="M543.26,-278.5C551.64,-278.5 560.31,-278.5 568.91,-278.5"/>
<polygon fill="midnightblue" stroke="midnightblue" points="568.94,-282 578.94,-278.5 568.94,-275 568.94,-282"/>
</g>
</g>
</svg>
