<?xml version="1.0" encoding="UTF-8" standalone="no"?>
<!DOCTYPE svg PUBLIC "-//W3C//DTD SVG 1.1//EN"
 "http://www.w3.org/Graphics/SVG/1.1/DTD/svg11.dtd">
<!-- Generated by graphviz version 2.43.0 (0)
 -->
<!-- Title: GAAPGASolver Pages: 1 -->
<svg width="354pt" height="452pt"
 viewBox="0.00 0.00 353.50 452.00" xmlns="http://www.w3.org/2000/svg" xmlns:xlink="http://www.w3.org/1999/xlink">
<g id="graph0" class="graph" transform="scale(1 1) rotate(0) translate(4 448)">
<title>GAAPGASolver</title>
<polygon fill="white" stroke="transparent" points="-4,4 -4,-448 349.5,-448 349.5,4 -4,4"/>
<!-- Node1 -->
<g id="node1" class="node">
<title>Node1</title>
<g id="a_node1"><a xlink:title="Guarded Anderson Accelerated Proximal Gradient Algorithm.">
<polygon fill="#bfbfbf" stroke="black" points="138,-0.5 138,-112.5 281,-112.5 281,-0.5 138,-0.5"/>
<text text-anchor="middle" x="209.5" y="-100.5" font-family="Helvetica,sans-Serif" font-size="10.00">GAAPGASolver</text>
<polyline fill="none" stroke="black" points="138,-93.5 281,-93.5 "/>
<text text-anchor="start" x="146" y="-81.5" font-family="Helvetica,sans-Serif" font-size="10.00">&#45; progress_cb</text>
<polyline fill="none" stroke="black" points="138,-74.5 281,-74.5 "/>
<text text-anchor="start" x="146" y="-62.5" font-family="Helvetica,sans-Serif" font-size="10.00">+ GAAPGASolver()</text>
<text text-anchor="start" x="146" y="-51.5" font-family="Helvetica,sans-Serif" font-size="10.00">+ operator()()</text>
<text text-anchor="start" x="146" y="-40.5" font-family="Helvetica,sans-Serif" font-size="10.00">+ set_progress_callback()</text>
<text text-anchor="start" x="146" y="-29.5" font-family="Helvetica,sans-Serif" font-size="10.00">+ get_name()</text>
<text text-anchor="start" x="146" y="-18.5" font-family="Helvetica,sans-Serif" font-size="10.00">+ stop()</text>
<text text-anchor="start" x="146" y="-7.5" font-family="Helvetica,sans-Serif" font-size="10.00">+ get_params()</text>
</a>
</g>
</g>
<!-- Node2 -->
<g id="node2" class="node">
<title>Node2</title>
<g id="a_node2"><a xlink:href="namespacepa.html#structpa_1_1GAAPGAParams" target="_top" xlink:title=" ">
<polygon fill="white" stroke="black" points="64,-160.5 64,-305.5 205,-305.5 205,-160.5 64,-160.5"/>
<text text-anchor="middle" x="134.5" y="-293.5" font-family="Helvetica,sans-Serif" font-size="10.00">GAAPGAParams</text>
<polyline fill="none" stroke="black" points="64,-286.5 205,-286.5 "/>
<text text-anchor="start" x="72" y="-274.5" font-family="Helvetica,sans-Serif" font-size="10.00">+ limitedqr_mem</text>
<text text-anchor="start" x="72" y="-263.5" font-family="Helvetica,sans-Serif" font-size="10.00">+ max_iter</text>
<text text-anchor="start" x="72" y="-252.5" font-family="Helvetica,sans-Serif" font-size="10.00">+ γ_min</text>
<text text-anchor="start" x="72" y="-241.5" font-family="Helvetica,sans-Serif" font-size="10.00">+ stop_crit</text>
<text text-anchor="start" x="72" y="-230.5" font-family="Helvetica,sans-Serif" font-size="10.00">+ print_interval</text>
<text text-anchor="start" x="72" y="-219.5" font-family="Helvetica,sans-Serif" font-size="10.00">+ quadratic_upperbound</text>
<text text-anchor="start" x="72" y="-208.5" font-family="Helvetica,sans-Serif" font-size="10.00">_tolerance_factor</text>
<text text-anchor="start" x="72" y="-197.5" font-family="Helvetica,sans-Serif" font-size="10.00">+ max_no_progress</text>
<text text-anchor="start" x="72" y="-186.5" font-family="Helvetica,sans-Serif" font-size="10.00">+ full_flush_on_γ_change</text>
<polyline fill="none" stroke="black" points="64,-179.5 205,-179.5 "/>
<text text-anchor="middle" x="134.5" y="-167.5" font-family="Helvetica,sans-Serif" font-size="10.00"> </text>
</a>
</g>
</g>
<!-- Node2&#45;&gt;Node1 -->
<g id="edge1" class="edge">
<title>Node2&#45;&gt;Node1</title>
<path fill="none" stroke="#404040" d="M165.33,-160.27C170.5,-148.23 175.85,-135.78 180.97,-123.89"/>
<polygon fill="none" stroke="#404040" points="181.04,-123.71 179.74,-116.61 185.78,-112.68 187.09,-119.77 181.04,-123.71"/>
<text text-anchor="middle" x="198.5" y="-134" font-family="Helvetica,sans-Serif" font-size="10.00"> &#45;params</text>
</g>
<!-- Node3 -->
<g id="node3" class="node">
<title>Node3</title>
<g id="a_node3"><a xlink:href="namespacepa.html#structpa_1_1LipschitzEstimateParams" target="_top" xlink:title=" ">
<polygon fill="white" stroke="black" points="0,-353.5 0,-443.5 139,-443.5 139,-353.5 0,-353.5"/>
<text text-anchor="middle" x="69.5" y="-431.5" font-family="Helvetica,sans-Serif" font-size="10.00">LipschitzEstimateParams</text>
<polyline fill="none" stroke="black" points="0,-424.5 139,-424.5 "/>
<text text-anchor="start" x="8" y="-412.5" font-family="Helvetica,sans-Serif" font-size="10.00">+ L₀</text>
<text text-anchor="start" x="8" y="-401.5" font-family="Helvetica,sans-Serif" font-size="10.00">+ ε</text>
<text text-anchor="start" x="8" y="-390.5" font-family="Helvetica,sans-Serif" font-size="10.00">+ δ</text>
<text text-anchor="start" x="8" y="-379.5" font-family="Helvetica,sans-Serif" font-size="10.00">+ Lγ_factor</text>
<polyline fill="none" stroke="black" points="0,-372.5 139,-372.5 "/>
<text text-anchor="middle" x="69.5" y="-360.5" font-family="Helvetica,sans-Serif" font-size="10.00"> </text>
</a>
</g>
</g>
<!-- Node3&#45;&gt;Node2 -->
<g id="edge2" class="edge">
<title>Node3&#45;&gt;Node2</title>
<path fill="none" stroke="#404040" d="M87.09,-353.25C91.55,-342.03 96.49,-329.6 101.45,-317.13"/>
<polygon fill="none" stroke="#404040" points="101.56,-316.85 100.06,-309.8 105.99,-305.7 107.49,-312.76 101.56,-316.85"/>
<text text-anchor="middle" x="126" y="-327" font-family="Helvetica,sans-Serif" font-size="10.00"> +Lipschitz</text>
</g>
<!-- Node4 -->
<g id="node4" class="node">
<title>Node4</title>
<g id="a_node4"><a xlink:title=" ">
<polygon fill="white" stroke="#bfbfbf" points="157.5,-370 157.5,-427 241.5,-427 241.5,-370 157.5,-370"/>
<text text-anchor="middle" x="199.5" y="-415" font-family="Helvetica,sans-Serif" font-size="10.00">microseconds</text>
<polyline fill="none" stroke="#bfbfbf" points="157.5,-408 241.5,-408 "/>
<text text-anchor="middle" x="199.5" y="-396" font-family="Helvetica,sans-Serif" font-size="10.00"> </text>
<polyline fill="none" stroke="#bfbfbf" points="157.5,-389 241.5,-389 "/>
<text text-anchor="middle" x="199.5" y="-377" font-family="Helvetica,sans-Serif" font-size="10.00"> </text>
</a>
</g>
</g>
<!-- Node4&#45;&gt;Node2 -->
<g id="edge3" class="edge">
<title>Node4&#45;&gt;Node2</title>
<path fill="none" stroke="#404040" d="M188.47,-369.76C182.6,-354.99 175.03,-335.95 167.43,-316.84"/>
<polygon fill="none" stroke="#404040" points="167.4,-316.76 161.47,-312.66 162.97,-305.61 168.9,-309.7 167.4,-316.76"/>
<text text-anchor="middle" x="204" y="-327" font-family="Helvetica,sans-Serif" font-size="10.00"> +max_time</text>
</g>
<!-- Node5 -->
<g id="node5" class="node">
<title>Node5</title>
<g id="a_node5"><a xlink:href="classpa_1_1AtomicStopSignal.html" target="_top" xlink:title=" ">
<polygon fill="white" stroke="black" points="223.5,-171.5 223.5,-294.5 345.5,-294.5 345.5,-171.5 223.5,-171.5"/>
<text text-anchor="middle" x="284.5" y="-282.5" font-family="Helvetica,sans-Serif" font-size="10.00">AtomicStopSignal</text>
<polyline fill="none" stroke="black" points="223.5,-275.5 345.5,-275.5 "/>
<text text-anchor="start" x="231.5" y="-263.5" font-family="Helvetica,sans-Serif" font-size="10.00">&#45; stop_flag</text>
<polyline fill="none" stroke="black" points="223.5,-256.5 345.5,-256.5 "/>
<text text-anchor="start" x="231.5" y="-244.5" font-family="Helvetica,sans-Serif" font-size="10.00">+ AtomicStopSignal()</text>
<text text-anchor="start" x="231.5" y="-233.5" font-family="Helvetica,sans-Serif" font-size="10.00">+ AtomicStopSignal()</text>
<text text-anchor="start" x="231.5" y="-222.5" font-family="Helvetica,sans-Serif" font-size="10.00">+ operator=()</text>
<text text-anchor="start" x="231.5" y="-211.5" font-family="Helvetica,sans-Serif" font-size="10.00">+ AtomicStopSignal()</text>
<text text-anchor="start" x="231.5" y="-200.5" font-family="Helvetica,sans-Serif" font-size="10.00">+ operator=()</text>
<text text-anchor="start" x="231.5" y="-189.5" font-family="Helvetica,sans-Serif" font-size="10.00">+ stop()</text>
<text text-anchor="start" x="231.5" y="-178.5" font-family="Helvetica,sans-Serif" font-size="10.00">+ stop_requested()</text>
</a>
</g>
</g>
<!-- Node5&#45;&gt;Node1 -->
<g id="edge4" class="edge">
<title>Node5&#45;&gt;Node1</title>
<path fill="none" stroke="#404040" d="M258.48,-171.46C251.87,-156.09 244.74,-139.5 238.02,-123.86"/>
<polygon fill="none" stroke="#404040" points="237.95,-123.7 231.91,-119.77 233.21,-112.67 239.26,-116.61 237.95,-123.7"/>
<text text-anchor="middle" x="276" y="-134" font-family="Helvetica,sans-Serif" font-size="10.00"> &#45;stop_signal</text>
</g>
</g>
</svg>
