<?xml version="1.0" encoding="UTF-8" standalone="no"?>
<!DOCTYPE svg PUBLIC "-//W3C//DTD SVG 1.1//EN"
 "http://www.w3.org/Graphics/SVG/1.1/DTD/svg11.dtd">
<!-- Generated by graphviz version 2.43.0 (0)
 -->
<!-- Title: α Pages: 1 -->
<svg width="279pt" height="50pt"
 viewBox="0.00 0.00 279.00 50.00" xmlns="http://www.w3.org/2000/svg" xmlns:xlink="http://www.w3.org/1999/xlink">
<g id="graph0" class="graph" transform="scale(1 1) rotate(0) translate(4 46)">
<title>α</title>
<polygon fill="white" stroke="transparent" points="-4,4 -4,-46 275,-46 275,4 -4,4"/>
<!-- Node1 -->
<g id="node1" class="node">
<title>Node1</title>
<g id="a_node1"><a xlink:title=" ">
<polygon fill="#bfbfbf" stroke="black" points="242,-11.5 242,-30.5 271,-30.5 271,-11.5 242,-11.5"/>
<text text-anchor="middle" x="256.5" y="-18.5" font-family="Helvetica,sans-Serif" font-size="10.00">α</text>
</a>
</g>
</g>
<!-- Node2 -->
<g id="node2" class="node">
<title>Node2</title>
<g id="a_node2"><a xlink:href="classpa_1_1SpecializedLBFGS.html#a37dd0ce624f9914a61118d8f02fa1c7f" target="_top" xlink:title="Apply the inverse Hessian approximation to the given vector q.">
<polygon fill="white" stroke="black" points="162,-11.5 162,-30.5 206,-30.5 206,-11.5 162,-11.5"/>
<text text-anchor="middle" x="184" y="-18.5" font-family="Helvetica,sans-Serif" font-size="10.00">apply</text>
</a>
</g>
</g>
<!-- Node1&#45;&gt;Node2 -->
<g id="edge1" class="edge">
<title>Node1&#45;&gt;Node2</title>
<path fill="none" stroke="midnightblue" d="M231.71,-21C223.39,-21 214.12,-21 206.04,-21"/>
<polygon fill="midnightblue" stroke="midnightblue" points="231.91,-24.5 241.91,-21 231.91,-17.5 231.91,-24.5"/>
</g>
<!-- Node3 -->
<g id="node3" class="node">
<title>Node3</title>
<g id="a_node3"><a xlink:href="structpa_1_1PANOCDirection_3_01SpecializedLBFGS_01_4.html#ab54e8671980ec079ccaa05f3af04ca50" target="_top" xlink:title=" ">
<polygon fill="white" stroke="black" points="0,-0.5 0,-41.5 126,-41.5 126,-0.5 0,-0.5"/>
<text text-anchor="start" x="8" y="-29.5" font-family="Helvetica,sans-Serif" font-size="10.00">pa::PANOCDirection</text>
<text text-anchor="start" x="8" y="-18.5" font-family="Helvetica,sans-Serif" font-size="10.00">&lt; SpecializedLBFGS &gt;</text>
<text text-anchor="middle" x="63" y="-7.5" font-family="Helvetica,sans-Serif" font-size="10.00">::apply</text>
</a>
</g>
</g>
<!-- Node2&#45;&gt;Node3 -->
<g id="edge2" class="edge">
<title>Node2&#45;&gt;Node3</title>
<path fill="none" stroke="midnightblue" d="M151.8,-21C143.87,-21 135.06,-21 126.17,-21"/>
<polygon fill="midnightblue" stroke="midnightblue" points="152,-24.5 162,-21 152,-17.5 152,-24.5"/>
</g>
</g>
</svg>
