<?xml version="1.0" encoding="UTF-8" standalone="no"?>
<!DOCTYPE svg PUBLIC "-//W3C//DTD SVG 1.1//EN"
 "http://www.w3.org/Graphics/SVG/1.1/DTD/svg11.dtd">
<!-- Generated by graphviz version 2.43.0 (0)
 -->
<!-- Title: update Pages: 1 -->
<svg width="220pt" height="50pt"
 viewBox="0.00 0.00 220.00 50.00" xmlns="http://www.w3.org/2000/svg" xmlns:xlink="http://www.w3.org/1999/xlink">
<g id="graph0" class="graph" transform="scale(1 1) rotate(0) translate(4 46)">
<title>update</title>
<polygon fill="white" stroke="transparent" points="-4,4 -4,-46 216,-46 216,4 -4,4"/>
<!-- Node1 -->
<g id="node1" class="node">
<title>Node1</title>
<g id="a_node1"><a xlink:title="Update the inverse Hessian approximation using the new vectors xₖ₊₁ and pₖ₊₁.">
<polygon fill="#bfbfbf" stroke="black" points="162,-11.5 162,-30.5 212,-30.5 212,-11.5 162,-11.5"/>
<text text-anchor="middle" x="187" y="-18.5" font-family="Helvetica,sans-Serif" font-size="10.00">update</text>
</a>
</g>
</g>
<!-- Node2 -->
<g id="node2" class="node">
<title>Node2</title>
<g id="a_node2"><a xlink:href="structpa_1_1PANOCDirection_3_01SpecializedLBFGS_01_4.html#a1932af68886cf467a0300e371e94a2c3" target="_top" xlink:title=" ">
<polygon fill="white" stroke="black" points="0,-0.5 0,-41.5 126,-41.5 126,-0.5 0,-0.5"/>
<text text-anchor="start" x="8" y="-29.5" font-family="Helvetica,sans-Serif" font-size="10.00">pa::PANOCDirection</text>
<text text-anchor="start" x="8" y="-18.5" font-family="Helvetica,sans-Serif" font-size="10.00">&lt; SpecializedLBFGS &gt;</text>
<text text-anchor="middle" x="63" y="-7.5" font-family="Helvetica,sans-Serif" font-size="10.00">::update</text>
</a>
</g>
</g>
<!-- Node1&#45;&gt;Node2 -->
<g id="edge1" class="edge">
<title>Node1&#45;&gt;Node2</title>
<path fill="none" stroke="midnightblue" d="M151.87,-21C143.86,-21 135.07,-21 126.25,-21"/>
<polygon fill="midnightblue" stroke="midnightblue" points="151.9,-24.5 161.9,-21 151.9,-17.5 151.9,-24.5"/>
</g>
</g>
</svg>
