<?xml version="1.0" encoding="UTF-8" standalone="no"?>
<!DOCTYPE svg PUBLIC "-//W3C//DTD SVG 1.1//EN"
 "http://www.w3.org/Graphics/SVG/1.1/DTD/svg11.dtd">
<!-- Generated by graphviz version 2.43.0 (0)
 -->
<!-- Title: n Pages: 1 -->
<svg width="772pt" height="324pt"
 viewBox="0.00 0.00 772.00 323.50" xmlns="http://www.w3.org/2000/svg" xmlns:xlink="http://www.w3.org/1999/xlink">
<g id="graph0" class="graph" transform="scale(1 1) rotate(0) translate(4 319.5)">
<title>n</title>
<polygon fill="white" stroke="transparent" points="-4,4 -4,-319.5 768,-319.5 768,4 -4,4"/>
<!-- Node1 -->
<g id="node1" class="node">
<title>Node1</title>
<g id="a_node1"><a xlink:title="Get the size of the s and y vectors in the buffer.">
<polygon fill="#bfbfbf" stroke="black" points="735,-163 735,-182 764,-182 764,-163 735,-163"/>
<text text-anchor="middle" x="749.5" y="-170" font-family="Helvetica,sans-Serif" font-size="10.00">n</text>
</a>
</g>
</g>
<!-- Node2 -->
<g id="node2" class="node">
<title>Node2</title>
<g id="a_node2"><a xlink:href="classpa_1_1LBFGS.html#af78287282b1c23d282a586aa2386a15a" target="_top" xlink:title=" ">
<polygon fill="white" stroke="black" points="553,-296 553,-315 601,-315 601,-296 553,-296"/>
<text text-anchor="middle" x="577" y="-303" font-family="Helvetica,sans-Serif" font-size="10.00">LBFGS</text>
</a>
</g>
</g>
<!-- Node1&#45;&gt;Node2 -->
<g id="edge1" class="edge">
<title>Node1&#45;&gt;Node2</title>
<path fill="none" stroke="midnightblue" d="M745.82,-192.15C741.16,-218.11 729.03,-263.27 699,-286.5 670.74,-308.36 627.46,-309.71 601.05,-308.06"/>
<polygon fill="midnightblue" stroke="midnightblue" points="749.31,-192.44 747.42,-182.02 742.4,-191.35 749.31,-192.44"/>
</g>
<!-- Node3 -->
<g id="node3" class="node">
<title>Node3</title>
<g id="a_node3"><a xlink:href="classpa_1_1LBFGS.html#a57b2556ee8993b06958b9c14511fd4ba" target="_top" xlink:title="Re&#45;allocate storage for a problem with a different size.">
<polygon fill="white" stroke="black" points="653,-258 653,-277 699,-277 699,-258 653,-258"/>
<text text-anchor="middle" x="676" y="-265" font-family="Helvetica,sans-Serif" font-size="10.00">resize</text>
</a>
</g>
</g>
<!-- Node1&#45;&gt;Node3 -->
<g id="edge2" class="edge">
<title>Node1&#45;&gt;Node3</title>
<path fill="none" stroke="midnightblue" d="M735.08,-190.33C720.02,-210.35 696.14,-242.08 684.24,-257.89"/>
<polygon fill="midnightblue" stroke="midnightblue" points="737.9,-192.4 741.12,-182.31 732.31,-188.19 737.9,-192.4"/>
</g>
<!-- Node5 -->
<g id="node5" class="node">
<title>Node5</title>
<g id="a_node5"><a xlink:href="classpa_1_1LBFGS.html#a644d66009a70ccc909120ba9afa45ea5" target="_top" xlink:title=" ">
<polygon fill="white" stroke="black" points="661.5,-106 661.5,-125 690.5,-125 690.5,-106 661.5,-106"/>
<text text-anchor="middle" x="676" y="-113" font-family="Helvetica,sans-Serif" font-size="10.00">s</text>
</a>
</g>
</g>
<!-- Node1&#45;&gt;Node5 -->
<g id="edge5" class="edge">
<title>Node1&#45;&gt;Node5</title>
<path fill="none" stroke="midnightblue" d="M728.21,-156.32C715.53,-146.22 699.64,-133.55 688.95,-125.03"/>
<polygon fill="midnightblue" stroke="midnightblue" points="726.37,-159.33 736.37,-162.83 730.73,-153.86 726.37,-159.33"/>
</g>
<!-- Node8 -->
<g id="node8" class="node">
<title>Node8</title>
<g id="a_node8"><a xlink:href="classpa_1_1LBFGS.html#ac18c0672e61d25800877a42a1def3215" target="_top" xlink:title=" ">
<polygon fill="white" stroke="black" points="661.5,-182 661.5,-201 690.5,-201 690.5,-182 661.5,-182"/>
<text text-anchor="middle" x="676" y="-189" font-family="Helvetica,sans-Serif" font-size="10.00">y</text>
</a>
</g>
</g>
<!-- Node1&#45;&gt;Node8 -->
<g id="edge10" class="edge">
<title>Node1&#45;&gt;Node8</title>
<path fill="none" stroke="midnightblue" d="M724.98,-178.75C713.64,-181.76 700.43,-185.27 690.74,-187.85"/>
<polygon fill="midnightblue" stroke="midnightblue" points="725.95,-182.11 734.71,-176.16 724.15,-175.35 725.95,-182.11"/>
</g>
<!-- Node10 -->
<g id="node10" class="node">
<title>Node10</title>
<g id="a_node10"><a xlink:href="classpa_1_1LBFGS.html#a66eb6e38840a556b4c0f0bff0901f80c" target="_top" xlink:title=" ">
<polygon fill="white" stroke="black" points="661.5,-68 661.5,-87 690.5,-87 690.5,-68 661.5,-68"/>
<text text-anchor="middle" x="676" y="-75" font-family="Helvetica,sans-Serif" font-size="10.00">α</text>
</a>
</g>
</g>
<!-- Node1&#45;&gt;Node10 -->
<g id="edge14" class="edge">
<title>Node1&#45;&gt;Node10</title>
<path fill="none" stroke="midnightblue" d="M738.34,-153.84C729.16,-137.8 714.7,-114.47 699,-96.5 696.21,-93.31 692.88,-90.16 689.67,-87.38"/>
<polygon fill="midnightblue" stroke="midnightblue" points="735.41,-155.76 743.34,-162.78 741.51,-152.34 735.41,-155.76"/>
</g>
<!-- Node16 -->
<g id="node16" class="node">
<title>Node16</title>
<g id="a_node16"><a xlink:href="classpa_1_1LBFGS.html#a630280b47996370bdb569a2799ffdb9f" target="_top" xlink:title=" ">
<polygon fill="white" stroke="black" points="661.5,-144 661.5,-163 690.5,-163 690.5,-144 661.5,-144"/>
<text text-anchor="middle" x="676" y="-151" font-family="Helvetica,sans-Serif" font-size="10.00">ρ</text>
</a>
</g>
</g>
<!-- Node1&#45;&gt;Node16 -->
<g id="edge23" class="edge">
<title>Node1&#45;&gt;Node16</title>
<path fill="none" stroke="midnightblue" d="M724.98,-166.25C713.64,-163.24 700.43,-159.73 690.74,-157.15"/>
<polygon fill="midnightblue" stroke="midnightblue" points="724.15,-169.65 734.71,-168.84 725.95,-162.89 724.15,-169.65"/>
</g>
<!-- Node3&#45;&gt;Node2 -->
<g id="edge3" class="edge">
<title>Node3&#45;&gt;Node2</title>
<path fill="none" stroke="midnightblue" d="M643.43,-279.87C629.71,-285.24 613.91,-291.43 601.28,-296.38"/>
<polygon fill="midnightblue" stroke="midnightblue" points="644.95,-283.03 652.99,-276.12 642.4,-276.51 644.95,-283.03"/>
</g>
<!-- Node4 -->
<g id="node4" class="node">
<title>Node4</title>
<g id="a_node4"><a xlink:href="classpa_1_1StructuredPANOCLBFGSSolver.html#ade95d8a7a1892d4087d6fffc958cde6e" target="_top" xlink:title=" ">
<polygon fill="white" stroke="black" points="162,-154.5 162,-184.5 343,-184.5 343,-154.5 162,-154.5"/>
<text text-anchor="start" x="170" y="-172.5" font-family="Helvetica,sans-Serif" font-size="10.00">pa::StructuredPANOCLBFGSSolver</text>
<text text-anchor="middle" x="252.5" y="-161.5" font-family="Helvetica,sans-Serif" font-size="10.00">::operator()</text>
</a>
</g>
</g>
<!-- Node3&#45;&gt;Node4 -->
<g id="edge4" class="edge">
<title>Node3&#45;&gt;Node4</title>
<path fill="none" stroke="midnightblue" d="M643.08,-260.08C574.04,-244.03 409.73,-205.82 318.08,-184.52"/>
<polygon fill="midnightblue" stroke="midnightblue" points="642.4,-263.51 652.93,-262.37 643.98,-256.7 642.4,-263.51"/>
</g>
<!-- Node6 -->
<g id="node6" class="node">
<title>Node6</title>
<g id="a_node6"><a xlink:href="classpa_1_1LBFGS.html#a33d8dd6fd12e1394c9637610086dae4c" target="_top" xlink:title="Apply the inverse Hessian approximation to the given vector q.">
<polygon fill="white" stroke="black" points="555,-106 555,-125 599,-125 599,-106 555,-106"/>
<text text-anchor="middle" x="577" y="-113" font-family="Helvetica,sans-Serif" font-size="10.00">apply</text>
</a>
</g>
</g>
<!-- Node5&#45;&gt;Node6 -->
<g id="edge6" class="edge">
<title>Node5&#45;&gt;Node6</title>
<path fill="none" stroke="midnightblue" d="M650.95,-115.5C635.01,-115.5 614.3,-115.5 599.02,-115.5"/>
<polygon fill="midnightblue" stroke="midnightblue" points="651.1,-119 661.1,-115.5 651.1,-112 651.1,-119"/>
</g>
<!-- Node7 -->
<g id="node7" class="node">
<title>Node7</title>
<g id="a_node7"><a xlink:href="classpa_1_1LBFGS.html#a8141345d2afd4f95cd57da8285e1226b" target="_top" xlink:title="Update the inverse Hessian approximation using the new vectors xₖ₊₁ and pₖ₊₁.">
<polygon fill="white" stroke="black" points="415,-122 415,-141 465,-141 465,-122 415,-122"/>
<text text-anchor="middle" x="440" y="-129" font-family="Helvetica,sans-Serif" font-size="10.00">update</text>
</a>
</g>
</g>
<!-- Node5&#45;&gt;Node7 -->
<g id="edge8" class="edge">
<title>Node5&#45;&gt;Node7</title>
<path fill="none" stroke="midnightblue" d="M651.85,-106.05C641.4,-102.28 628.77,-98.38 617,-96.5 581.89,-90.9 572.01,-90.32 537,-96.5 509.75,-101.31 480.06,-113.26 461.03,-121.85"/>
<polygon fill="midnightblue" stroke="midnightblue" points="650.88,-109.43 661.48,-109.71 653.37,-102.89 650.88,-109.43"/>
</g>
<!-- Node6&#45;&gt;Node4 -->
<g id="edge7" class="edge">
<title>Node6&#45;&gt;Node4</title>
<path fill="none" stroke="midnightblue" d="M550.87,-130.01C536.7,-137.47 518.39,-145.94 501,-150.5 449.83,-163.93 390.83,-168.85 343.27,-170.33"/>
<polygon fill="midnightblue" stroke="midnightblue" points="552.85,-132.92 559.96,-125.07 549.51,-126.77 552.85,-132.92"/>
</g>
<!-- Node7&#45;&gt;Node4 -->
<g id="edge9" class="edge">
<title>Node7&#45;&gt;Node4</title>
<path fill="none" stroke="midnightblue" d="M404.68,-138.53C382.89,-142.99 353.85,-148.94 327.04,-154.43"/>
<polygon fill="midnightblue" stroke="midnightblue" points="405.65,-141.9 414.75,-136.47 404.25,-135.05 405.65,-141.9"/>
</g>
<!-- Node8&#45;&gt;Node6 -->
<g id="edge11" class="edge">
<title>Node8&#45;&gt;Node6</title>
<path fill="none" stroke="midnightblue" d="M654.74,-175.63C635.24,-160.35 606.39,-137.74 590.19,-125.05"/>
<polygon fill="midnightblue" stroke="midnightblue" points="652.68,-178.46 662.71,-181.87 657,-172.95 652.68,-178.46"/>
</g>
<!-- Node8&#45;&gt;Node7 -->
<g id="edge13" class="edge">
<title>Node8&#45;&gt;Node7</title>
<path fill="none" stroke="midnightblue" d="M651.9,-201.17C623.92,-211.43 575.73,-224.39 537,-210.5 497.99,-196.51 463.49,-159.07 448.69,-141.22"/>
<polygon fill="midnightblue" stroke="midnightblue" points="653.17,-204.43 661.24,-197.57 650.65,-197.9 653.17,-204.43"/>
</g>
<!-- Node9 -->
<g id="node9" class="node">
<title>Node9</title>
<g id="a_node9"><a xlink:href="classpa_1_1LBFGS.html#adeddc1e1eb8ce1c1bbaf931b6f9a5b9c" target="_top" xlink:title="Scale the stored y vectors by the given factor.">
<polygon fill="white" stroke="black" points="550.5,-182 550.5,-201 603.5,-201 603.5,-182 550.5,-182"/>
<text text-anchor="middle" x="577" y="-189" font-family="Helvetica,sans-Serif" font-size="10.00">scale_y</text>
</a>
</g>
</g>
<!-- Node8&#45;&gt;Node9 -->
<g id="edge12" class="edge">
<title>Node8&#45;&gt;Node9</title>
<path fill="none" stroke="midnightblue" d="M650.96,-191.5C636.54,-191.5 618.2,-191.5 603.52,-191.5"/>
<polygon fill="midnightblue" stroke="midnightblue" points="651.1,-195 661.1,-191.5 651.1,-188 651.1,-195"/>
</g>
<!-- Node10&#45;&gt;Node6 -->
<g id="edge15" class="edge">
<title>Node10&#45;&gt;Node6</title>
<path fill="none" stroke="midnightblue" d="M651.41,-86.74C635.41,-93.01 614.44,-101.22 599.02,-107.27"/>
<polygon fill="midnightblue" stroke="midnightblue" points="653.07,-89.85 661.1,-82.94 650.51,-83.33 653.07,-89.85"/>
</g>
<!-- Node11 -->
<g id="node11" class="node">
<title>Node11</title>
<g id="a_node11"><a xlink:href="classpa_1_1LBFGS.html#aaf9c6519c7a7d7ab977113f33c88e2e3" target="_top" xlink:title="Check if the new vectors s and y allow for a valid BFGS update that preserves the positive definitene...">
<polygon fill="white" stroke="black" points="537,-30 537,-49 617,-49 617,-30 537,-30"/>
<text text-anchor="middle" x="577" y="-37" font-family="Helvetica,sans-Serif" font-size="10.00">update_valid</text>
</a>
</g>
</g>
<!-- Node10&#45;&gt;Node11 -->
<g id="edge16" class="edge">
<title>Node10&#45;&gt;Node11</title>
<path fill="none" stroke="midnightblue" d="M651.59,-68.33C636.7,-62.5 617.45,-54.95 602.37,-49.05"/>
<polygon fill="midnightblue" stroke="midnightblue" points="650.51,-71.67 661.1,-72.06 653.07,-65.15 650.51,-71.67"/>
</g>
<!-- Node11&#45;&gt;Node7 -->
<g id="edge22" class="edge">
<title>Node11&#45;&gt;Node7</title>
<path fill="none" stroke="midnightblue" d="M551.14,-54.46C546.41,-57.41 541.53,-60.51 537,-63.5 520.98,-74.09 476.72,-105.8 454.33,-121.9"/>
<polygon fill="midnightblue" stroke="midnightblue" points="553.22,-57.29 559.91,-49.08 549.56,-51.33 553.22,-57.29"/>
</g>
<!-- Node12 -->
<g id="node12" class="node">
<title>Node12</title>
<g id="a_node12"><a xlink:href="classpa_1_1SpecializedLBFGS.html#a71d9f5b74a18b1ef994683c1aa4914da" target="_top" xlink:title="L&#45;BFGS update when changing the step size γ, recomputing everything.">
<polygon fill="white" stroke="black" points="379,-0.5 379,-30.5 501,-30.5 501,-0.5 379,-0.5"/>
<text text-anchor="start" x="387" y="-18.5" font-family="Helvetica,sans-Serif" font-size="10.00">pa::SpecializedLBFGS</text>
<text text-anchor="middle" x="440" y="-7.5" font-family="Helvetica,sans-Serif" font-size="10.00">::full_update</text>
</a>
</g>
</g>
<!-- Node11&#45;&gt;Node12 -->
<g id="edge17" class="edge">
<title>Node11&#45;&gt;Node12</title>
<path fill="none" stroke="midnightblue" d="M526.95,-30.78C518.54,-29.29 509.72,-27.72 501.07,-26.18"/>
<polygon fill="midnightblue" stroke="midnightblue" points="526.49,-34.25 536.95,-32.56 527.72,-27.36 526.49,-34.25"/>
</g>
<!-- Node15 -->
<g id="node15" class="node">
<title>Node15</title>
<g id="a_node15"><a xlink:href="classpa_1_1SpecializedLBFGS.html#ae20511c5fb7ae45113aeba25b63c6d55" target="_top" xlink:title="Standard L&#45;BFGS update without changing the step size γ.">
<polygon fill="white" stroke="black" points="379,-49.5 379,-79.5 501,-79.5 501,-49.5 379,-49.5"/>
<text text-anchor="start" x="387" y="-67.5" font-family="Helvetica,sans-Serif" font-size="10.00">pa::SpecializedLBFGS</text>
<text text-anchor="middle" x="440" y="-56.5" font-family="Helvetica,sans-Serif" font-size="10.00">::standard_update</text>
</a>
</g>
</g>
<!-- Node11&#45;&gt;Node15 -->
<g id="edge20" class="edge">
<title>Node11&#45;&gt;Node15</title>
<path fill="none" stroke="midnightblue" d="M526.95,-48.58C518.54,-50.14 509.72,-51.77 501.07,-53.38"/>
<polygon fill="midnightblue" stroke="midnightblue" points="527.76,-51.99 536.95,-46.73 526.48,-45.11 527.76,-51.99"/>
</g>
<!-- Node13 -->
<g id="node13" class="node">
<title>Node13</title>
<g id="a_node13"><a xlink:href="classpa_1_1SpecializedLBFGS.html#a8032c3cbff7a91765be22979ccd4f79b" target="_top" xlink:title="Update the inverse Hessian approximation using the new vectors xₖ₊₁ and pₖ₊₁.">
<polygon fill="white" stroke="black" points="191.5,-25.5 191.5,-55.5 313.5,-55.5 313.5,-25.5 191.5,-25.5"/>
<text text-anchor="start" x="199.5" y="-43.5" font-family="Helvetica,sans-Serif" font-size="10.00">pa::SpecializedLBFGS</text>
<text text-anchor="middle" x="252.5" y="-32.5" font-family="Helvetica,sans-Serif" font-size="10.00">::update</text>
</a>
</g>
</g>
<!-- Node12&#45;&gt;Node13 -->
<g id="edge18" class="edge">
<title>Node12&#45;&gt;Node13</title>
<path fill="none" stroke="midnightblue" d="M368.84,-24.96C350.7,-27.4 331.33,-30.01 313.74,-32.38"/>
<polygon fill="midnightblue" stroke="midnightblue" points="369.33,-28.42 378.77,-23.62 368.4,-21.48 369.33,-28.42"/>
</g>
<!-- Node14 -->
<g id="node14" class="node">
<title>Node14</title>
<g id="a_node14"><a xlink:href="structpa_1_1PANOCDirection_3_01SpecializedLBFGS_01_4.html#a1932af68886cf467a0300e371e94a2c3" target="_top" xlink:title=" ">
<polygon fill="white" stroke="black" points="0,-20 0,-61 126,-61 126,-20 0,-20"/>
<text text-anchor="start" x="8" y="-49" font-family="Helvetica,sans-Serif" font-size="10.00">pa::PANOCDirection</text>
<text text-anchor="start" x="8" y="-38" font-family="Helvetica,sans-Serif" font-size="10.00">&lt; SpecializedLBFGS &gt;</text>
<text text-anchor="middle" x="63" y="-27" font-family="Helvetica,sans-Serif" font-size="10.00">::update</text>
</a>
</g>
</g>
<!-- Node13&#45;&gt;Node14 -->
<g id="edge19" class="edge">
<title>Node13&#45;&gt;Node14</title>
<path fill="none" stroke="midnightblue" d="M181.19,-40.5C163.06,-40.5 143.69,-40.5 126.02,-40.5"/>
<polygon fill="midnightblue" stroke="midnightblue" points="181.4,-44 191.4,-40.5 181.4,-37 181.4,-44"/>
</g>
<!-- Node15&#45;&gt;Node13 -->
<g id="edge21" class="edge">
<title>Node15&#45;&gt;Node13</title>
<path fill="none" stroke="midnightblue" d="M368.84,-55.42C350.7,-53.08 331.33,-50.57 313.74,-48.29"/>
<polygon fill="midnightblue" stroke="midnightblue" points="368.41,-58.9 378.77,-56.71 369.31,-51.95 368.41,-58.9"/>
</g>
<!-- Node16&#45;&gt;Node6 -->
<g id="edge24" class="edge">
<title>Node16&#45;&gt;Node6</title>
<path fill="none" stroke="midnightblue" d="M651.41,-144.26C635.41,-137.99 614.44,-129.78 599.02,-123.73"/>
<polygon fill="midnightblue" stroke="midnightblue" points="650.51,-147.67 661.1,-148.06 653.07,-141.15 650.51,-147.67"/>
</g>
<!-- Node16&#45;&gt;Node7 -->
<g id="edge26" class="edge">
<title>Node16&#45;&gt;Node7</title>
<path fill="none" stroke="midnightblue" d="M651.21,-151.26C606.52,-147.06 510.46,-138.03 465.35,-133.79"/>
<polygon fill="midnightblue" stroke="midnightblue" points="651.12,-154.77 661.41,-152.22 651.78,-147.8 651.12,-154.77"/>
</g>
<!-- Node16&#45;&gt;Node9 -->
<g id="edge25" class="edge">
<title>Node16&#45;&gt;Node9</title>
<path fill="none" stroke="midnightblue" d="M651.59,-162.67C636.7,-168.5 617.45,-176.05 602.37,-181.95"/>
<polygon fill="midnightblue" stroke="midnightblue" points="653.07,-165.85 661.1,-158.94 650.51,-159.33 653.07,-165.85"/>
</g>
</g>
</svg>
