<?xml version="1.0" encoding="UTF-8" standalone="no"?>
<!DOCTYPE svg PUBLIC "-//W3C//DTD SVG 1.1//EN"
 "http://www.w3.org/Graphics/SVG/1.1/DTD/svg11.dtd">
<!-- Generated by graphviz version 2.43.0 (0)
 -->
<!-- Title: operator() Pages: 1 -->
<svg width="644pt" height="225pt"
 viewBox="0.00 0.00 644.00 224.50" xmlns="http://www.w3.org/2000/svg" xmlns:xlink="http://www.w3.org/1999/xlink">
<g id="graph0" class="graph" transform="scale(1 1) rotate(0) translate(4 220.5)">
<title>operator()</title>
<polygon fill="white" stroke="transparent" points="-4,4 -4,-220.5 640,-220.5 640,4 -4,4"/>
<!-- Node1 -->
<g id="node1" class="node">
<title>Node1</title>
<g id="a_node1"><a xlink:title=" ">
<polygon fill="#bfbfbf" stroke="black" points="0,-96 0,-115 65,-115 65,-96 0,-96"/>
<text text-anchor="middle" x="32.5" y="-103" font-family="Helvetica,sans-Serif" font-size="10.00">operator()</text>
</a>
</g>
</g>
<!-- Node2 -->
<g id="node2" class="node">
<title>Node2</title>
<g id="a_node2"><a xlink:href="namespacepa_1_1detail.html#a22e222a3f2d7f01ceee380154e140ea9" target="_top" xlink:title="Calculate the error between ẑ and g(x).">
<polygon fill="white" stroke="black" points="405,-197 405,-216 522,-216 522,-197 405,-197"/>
<text text-anchor="middle" x="463.5" y="-204" font-family="Helvetica,sans-Serif" font-size="10.00">pa::detail::calc_err_z</text>
</a>
</g>
</g>
<!-- Node1&#45;&gt;Node2 -->
<g id="edge1" class="edge">
<title>Node1&#45;&gt;Node2</title>
<path fill="none" stroke="midnightblue" d="M39.6,-115.02C50.06,-130.4 73.01,-160.32 101,-173.5 195.48,-217.99 319.11,-218.71 394.57,-213.68"/>
<polygon fill="midnightblue" stroke="midnightblue" points="395.17,-217.15 404.89,-212.94 394.66,-210.17 395.17,-217.15"/>
</g>
<!-- Node4 -->
<g id="node4" class="node">
<title>Node4</title>
<g id="a_node4"><a xlink:href="namespacepa_1_1detail.html#a908a0589ddf8734417f5481395e197d2" target="_top" xlink:title="Calculate ∇ψ(x) using ŷ.">
<polygon fill="white" stroke="black" points="244,-65.5 244,-95.5 359,-95.5 359,-65.5 244,-65.5"/>
<text text-anchor="start" x="252" y="-83.5" font-family="Helvetica,sans-Serif" font-size="10.00">pa::detail::calc_grad</text>
<text text-anchor="middle" x="301.5" y="-72.5" font-family="Helvetica,sans-Serif" font-size="10.00">_ψ_from_ŷ</text>
</a>
</g>
</g>
<!-- Node1&#45;&gt;Node4 -->
<g id="edge3" class="edge">
<title>Node1&#45;&gt;Node4</title>
<path fill="none" stroke="midnightblue" d="M42.88,-95.62C54.98,-83.67 77.31,-64.19 101,-56.5 149.74,-40.68 208.23,-50.91 249.23,-62.51"/>
<polygon fill="midnightblue" stroke="midnightblue" points="248.42,-65.92 259,-65.4 250.4,-59.21 248.42,-65.92"/>
</g>
<!-- Node5 -->
<g id="node5" class="node">
<title>Node5</title>
<g id="a_node5"><a xlink:href="namespacepa_1_1detail.html#ac32d0e6b012b801731e55225b7505fa9" target="_top" xlink:title=" ">
<polygon fill="white" stroke="black" points="252,-6 252,-25 351,-25 351,-6 252,-6"/>
<text text-anchor="middle" x="301.5" y="-13" font-family="Helvetica,sans-Serif" font-size="10.00">pa::detail::calc_x̂</text>
</a>
</g>
</g>
<!-- Node1&#45;&gt;Node5 -->
<g id="edge4" class="edge">
<title>Node1&#45;&gt;Node5</title>
<path fill="none" stroke="midnightblue" d="M41.01,-95.76C52.35,-81.84 75.27,-56.6 101,-44.5 145.23,-23.7 200.58,-16.96 241.75,-15.14"/>
<polygon fill="midnightblue" stroke="midnightblue" points="242.03,-18.63 251.9,-14.77 241.78,-11.63 242.03,-18.63"/>
</g>
<!-- Node7 -->
<g id="node7" class="node">
<title>Node7</title>
<g id="a_node7"><a xlink:href="namespacepa_1_1detail.html#aa986daa1d5f0dfdbc75c143d2aae2919" target="_top" xlink:title="Calculate both ψ(x) and its gradient ∇ψ(x).">
<polygon fill="white" stroke="black" points="104.5,-115.5 104.5,-145.5 204.5,-145.5 204.5,-115.5 104.5,-115.5"/>
<text text-anchor="start" x="112.5" y="-133.5" font-family="Helvetica,sans-Serif" font-size="10.00">pa::detail::calc_ψ</text>
<text text-anchor="middle" x="154.5" y="-122.5" font-family="Helvetica,sans-Serif" font-size="10.00">_grad_ψ</text>
</a>
</g>
</g>
<!-- Node1&#45;&gt;Node7 -->
<g id="edge6" class="edge">
<title>Node1&#45;&gt;Node7</title>
<path fill="none" stroke="midnightblue" d="M65.03,-112.07C73.99,-113.93 84.05,-116.03 94.09,-118.12"/>
<polygon fill="midnightblue" stroke="midnightblue" points="93.57,-121.59 104.07,-120.2 95,-114.74 93.57,-121.59"/>
</g>
<!-- Node8 -->
<g id="node8" class="node">
<title>Node8</title>
<g id="a_node8"><a xlink:href="namespacepa_1_1detail.html#a82a03662e6ce5bcfd57ee2df719aec21" target="_top" xlink:title="Calculate both ψ(x) and the vector ŷ that can later be used to compute ∇ψ.">
<polygon fill="white" stroke="black" points="246,-126 246,-145 357,-145 357,-126 246,-126"/>
<text text-anchor="middle" x="301.5" y="-133" font-family="Helvetica,sans-Serif" font-size="10.00">pa::detail::calc_ψ_ŷ</text>
</a>
</g>
</g>
<!-- Node1&#45;&gt;Node8 -->
<g id="edge11" class="edge">
<title>Node1&#45;&gt;Node8</title>
<path fill="none" stroke="midnightblue" d="M42.42,-115.16C54.38,-127.31 76.9,-147.55 101,-155.5 155.7,-173.55 223.04,-159.91 263.82,-148.01"/>
<polygon fill="midnightblue" stroke="midnightblue" points="265.05,-151.29 273.6,-145.04 263.01,-144.59 265.05,-151.29"/>
</g>
<!-- Node10 -->
<g id="node10" class="node">
<title>Node10</title>
<g id="a_node10"><a xlink:href="namespacepa_1_1detail.html#adb5e65f5b5c52143daa1fc61c0f95d4e" target="_top" xlink:title="Increase the estimate of the Lipschitz constant of the objective gradient and decrease the step size ...">
<polygon fill="white" stroke="black" points="101,-66.5 101,-96.5 208,-96.5 208,-66.5 101,-66.5"/>
<text text-anchor="start" x="109" y="-84.5" font-family="Helvetica,sans-Serif" font-size="10.00">pa::detail::descent</text>
<text text-anchor="middle" x="154.5" y="-73.5" font-family="Helvetica,sans-Serif" font-size="10.00">_lemma</text>
</a>
</g>
</g>
<!-- Node1&#45;&gt;Node10 -->
<g id="edge12" class="edge">
<title>Node1&#45;&gt;Node10</title>
<path fill="none" stroke="midnightblue" d="M65.03,-99.19C73,-97.6 81.84,-95.83 90.77,-94.05"/>
<polygon fill="midnightblue" stroke="midnightblue" points="91.72,-97.43 100.84,-92.03 90.35,-90.56 91.72,-97.43"/>
</g>
<!-- Node3 -->
<g id="node3" class="node">
<title>Node3</title>
<g id="a_node3"><a xlink:href="namespacepa.html#a5414901c2fb62f1fd47857642964cc71" target="_top" xlink:title="Project a vector onto a box.">
<polygon fill="white" stroke="black" points="568,-167 568,-186 636,-186 636,-167 568,-167"/>
<text text-anchor="middle" x="602" y="-174" font-family="Helvetica,sans-Serif" font-size="10.00">pa::project</text>
</a>
</g>
</g>
<!-- Node2&#45;&gt;Node3 -->
<g id="edge2" class="edge">
<title>Node2&#45;&gt;Node3</title>
<path fill="none" stroke="midnightblue" d="M508.06,-196.93C523.94,-193.44 541.87,-189.5 557.72,-186.01"/>
<polygon fill="midnightblue" stroke="midnightblue" points="558.77,-189.36 567.79,-183.8 557.27,-182.53 558.77,-189.36"/>
</g>
<!-- Node6 -->
<g id="node6" class="node">
<title>Node6</title>
<g id="a_node6"><a xlink:href="namespacepa_1_1detail.html#a8ed4d487878856942843707b5a131b85" target="_top" xlink:title="Projected gradient step.">
<polygon fill="white" stroke="black" points="406.5,-0.5 406.5,-30.5 520.5,-30.5 520.5,-0.5 406.5,-0.5"/>
<text text-anchor="start" x="414.5" y="-18.5" font-family="Helvetica,sans-Serif" font-size="10.00">pa::detail::projected</text>
<text text-anchor="middle" x="463.5" y="-7.5" font-family="Helvetica,sans-Serif" font-size="10.00">_gradient_step</text>
</a>
</g>
</g>
<!-- Node5&#45;&gt;Node6 -->
<g id="edge5" class="edge">
<title>Node5&#45;&gt;Node6</title>
<path fill="none" stroke="midnightblue" d="M351.37,-15.5C365.49,-15.5 381.13,-15.5 396.12,-15.5"/>
<polygon fill="midnightblue" stroke="midnightblue" points="396.36,-19 406.36,-15.5 396.36,-12 396.36,-19"/>
</g>
<!-- Node7&#45;&gt;Node4 -->
<g id="edge7" class="edge">
<title>Node7&#45;&gt;Node4</title>
<path fill="none" stroke="midnightblue" d="M199,-115.5C214.13,-110.28 231.28,-104.37 247.11,-98.91"/>
<polygon fill="midnightblue" stroke="midnightblue" points="248.46,-102.15 256.78,-95.58 246.18,-95.53 248.46,-102.15"/>
</g>
<!-- Node7&#45;&gt;Node8 -->
<g id="edge8" class="edge">
<title>Node7&#45;&gt;Node8</title>
<path fill="none" stroke="midnightblue" d="M204.59,-132.19C214.68,-132.54 225.44,-132.91 235.98,-133.28"/>
<polygon fill="midnightblue" stroke="midnightblue" points="235.86,-136.77 245.98,-133.62 236.11,-129.78 235.86,-136.77"/>
</g>
<!-- Node9 -->
<g id="node9" class="node">
<title>Node9</title>
<g id="a_node9"><a xlink:href="namespacepa.html#aee505a26e46aa4c0ce09d0fed72f0dac" target="_top" xlink:title="Get the difference between the given vector and its projection.">
<polygon fill="white" stroke="black" points="395,-137 395,-156 532,-156 532,-137 395,-137"/>
<text text-anchor="middle" x="463.5" y="-144" font-family="Helvetica,sans-Serif" font-size="10.00">pa::projecting_difference</text>
</a>
</g>
</g>
<!-- Node8&#45;&gt;Node9 -->
<g id="edge9" class="edge">
<title>Node8&#45;&gt;Node9</title>
<path fill="none" stroke="midnightblue" d="M357.12,-139.25C366.02,-139.87 375.4,-140.51 384.74,-141.15"/>
<polygon fill="midnightblue" stroke="midnightblue" points="384.61,-144.65 394.83,-141.85 385.09,-137.67 384.61,-144.65"/>
</g>
<!-- Node9&#45;&gt;Node3 -->
<g id="edge10" class="edge">
<title>Node9&#45;&gt;Node3</title>
<path fill="none" stroke="midnightblue" d="M508.06,-156.07C523.94,-159.56 541.87,-163.5 557.72,-166.99"/>
<polygon fill="midnightblue" stroke="midnightblue" points="557.27,-170.47 567.79,-169.2 558.77,-163.64 557.27,-170.47"/>
</g>
<!-- Node10&#45;&gt;Node5 -->
<g id="edge13" class="edge">
<title>Node10&#45;&gt;Node5</title>
<path fill="none" stroke="midnightblue" d="M188.77,-66.36C213.31,-55.19 246.44,-40.11 270.24,-29.27"/>
<polygon fill="midnightblue" stroke="midnightblue" points="271.85,-32.39 279.5,-25.06 268.95,-26.02 271.85,-32.39"/>
</g>
<!-- Node10&#45;&gt;Node8 -->
<g id="edge14" class="edge">
<title>Node10&#45;&gt;Node8</title>
<path fill="none" stroke="midnightblue" d="M195.89,-96.54C217.74,-104.68 244.46,-114.63 265.43,-122.44"/>
<polygon fill="midnightblue" stroke="midnightblue" points="264.32,-125.76 274.91,-125.97 266.76,-119.2 264.32,-125.76"/>
</g>
</g>
</svg>
