<?xml version="1.0" encoding="UTF-8" standalone="no"?>
<!DOCTYPE svg PUBLIC "-//W3C//DTD SVG 1.1//EN"
 "http://www.w3.org/Graphics/SVG/1.1/DTD/svg11.dtd">
<!-- Generated by graphviz version 2.43.0 (0)
 -->
<!-- Title: SecondOrderPANOCSolver Pages: 1 -->
<svg width="366pt" height="474pt"
 viewBox="0.00 0.00 365.50 474.00" xmlns="http://www.w3.org/2000/svg" xmlns:xlink="http://www.w3.org/1999/xlink">
<g id="graph0" class="graph" transform="scale(1 1) rotate(0) translate(4 470)">
<title>SecondOrderPANOCSolver</title>
<polygon fill="white" stroke="transparent" points="-4,4 -4,-470 361.5,-470 361.5,4 -4,4"/>
<!-- Node1 -->
<g id="node1" class="node">
<title>Node1</title>
<g id="a_node1"><a xlink:title="Second order PANOC solver for ALM.">
<polygon fill="#bfbfbf" stroke="black" points="134.5,-0.5 134.5,-112.5 296.5,-112.5 296.5,-0.5 134.5,-0.5"/>
<text text-anchor="middle" x="215.5" y="-100.5" font-family="Helvetica,sans-Serif" font-size="10.00">SecondOrderPANOCSolver</text>
<polyline fill="none" stroke="black" points="134.5,-93.5 296.5,-93.5 "/>
<text text-anchor="start" x="142.5" y="-81.5" font-family="Helvetica,sans-Serif" font-size="10.00">&#45; progress_cb</text>
<polyline fill="none" stroke="black" points="134.5,-74.5 296.5,-74.5 "/>
<text text-anchor="start" x="142.5" y="-62.5" font-family="Helvetica,sans-Serif" font-size="10.00">+ SecondOrderPANOCSolver()</text>
<text text-anchor="start" x="142.5" y="-51.5" font-family="Helvetica,sans-Serif" font-size="10.00">+ operator()()</text>
<text text-anchor="start" x="142.5" y="-40.5" font-family="Helvetica,sans-Serif" font-size="10.00">+ set_progress_callback()</text>
<text text-anchor="start" x="142.5" y="-29.5" font-family="Helvetica,sans-Serif" font-size="10.00">+ get_name()</text>
<text text-anchor="start" x="142.5" y="-18.5" font-family="Helvetica,sans-Serif" font-size="10.00">+ stop()</text>
<text text-anchor="start" x="142.5" y="-7.5" font-family="Helvetica,sans-Serif" font-size="10.00">+ get_params()</text>
</a>
</g>
</g>
<!-- Node2 -->
<g id="node2" class="node">
<title>Node2</title>
<g id="a_node2"><a xlink:href="namespacepa.html#structpa_1_1SecondOrderPANOCParams" target="_top" xlink:title="Tuning parameters for the second order PANOC algorithm.">
<polygon fill="white" stroke="black" points="52,-160.5 52,-327.5 217,-327.5 217,-160.5 52,-160.5"/>
<text text-anchor="middle" x="134.5" y="-315.5" font-family="Helvetica,sans-Serif" font-size="10.00">SecondOrderPANOCParams</text>
<polyline fill="none" stroke="black" points="52,-308.5 217,-308.5 "/>
<text text-anchor="start" x="60" y="-296.5" font-family="Helvetica,sans-Serif" font-size="10.00">+ max_iter</text>
<text text-anchor="start" x="60" y="-285.5" font-family="Helvetica,sans-Serif" font-size="10.00">+ τ_min</text>
<text text-anchor="start" x="60" y="-274.5" font-family="Helvetica,sans-Serif" font-size="10.00">+ γ_min</text>
<text text-anchor="start" x="60" y="-263.5" font-family="Helvetica,sans-Serif" font-size="10.00">+ stop_crit</text>
<text text-anchor="start" x="60" y="-252.5" font-family="Helvetica,sans-Serif" font-size="10.00">+ max_no_progress</text>
<text text-anchor="start" x="60" y="-241.5" font-family="Helvetica,sans-Serif" font-size="10.00">+ print_interval</text>
<text text-anchor="start" x="60" y="-230.5" font-family="Helvetica,sans-Serif" font-size="10.00">+ quadratic_upperbound</text>
<text text-anchor="start" x="60" y="-219.5" font-family="Helvetica,sans-Serif" font-size="10.00">_tolerance_factor</text>
<text text-anchor="start" x="60" y="-208.5" font-family="Helvetica,sans-Serif" font-size="10.00">+ update_lipschitz_in</text>
<text text-anchor="start" x="60" y="-197.5" font-family="Helvetica,sans-Serif" font-size="10.00">_linesearch</text>
<text text-anchor="start" x="60" y="-186.5" font-family="Helvetica,sans-Serif" font-size="10.00">+ alternative_linesearch_cond</text>
<polyline fill="none" stroke="black" points="52,-179.5 217,-179.5 "/>
<text text-anchor="middle" x="134.5" y="-167.5" font-family="Helvetica,sans-Serif" font-size="10.00"> </text>
</a>
</g>
</g>
<!-- Node2&#45;&gt;Node1 -->
<g id="edge1" class="edge">
<title>Node2&#45;&gt;Node1</title>
<path fill="none" stroke="#404040" d="M170.62,-160.29C175.96,-148.06 181.4,-135.6 186.57,-123.76"/>
<polygon fill="none" stroke="#404040" points="186.62,-123.63 185.36,-116.53 191.42,-112.64 192.69,-119.74 186.62,-123.63"/>
<text text-anchor="middle" x="204.5" y="-134" font-family="Helvetica,sans-Serif" font-size="10.00"> &#45;params</text>
</g>
<!-- Node3 -->
<g id="node3" class="node">
<title>Node3</title>
<g id="a_node3"><a xlink:href="namespacepa.html#structpa_1_1LipschitzEstimateParams" target="_top" xlink:title=" ">
<polygon fill="white" stroke="black" points="0,-375.5 0,-465.5 139,-465.5 139,-375.5 0,-375.5"/>
<text text-anchor="middle" x="69.5" y="-453.5" font-family="Helvetica,sans-Serif" font-size="10.00">LipschitzEstimateParams</text>
<polyline fill="none" stroke="black" points="0,-446.5 139,-446.5 "/>
<text text-anchor="start" x="8" y="-434.5" font-family="Helvetica,sans-Serif" font-size="10.00">+ L₀</text>
<text text-anchor="start" x="8" y="-423.5" font-family="Helvetica,sans-Serif" font-size="10.00">+ ε</text>
<text text-anchor="start" x="8" y="-412.5" font-family="Helvetica,sans-Serif" font-size="10.00">+ δ</text>
<text text-anchor="start" x="8" y="-401.5" font-family="Helvetica,sans-Serif" font-size="10.00">+ Lγ_factor</text>
<polyline fill="none" stroke="black" points="0,-394.5 139,-394.5 "/>
<text text-anchor="middle" x="69.5" y="-382.5" font-family="Helvetica,sans-Serif" font-size="10.00"> </text>
</a>
</g>
</g>
<!-- Node3&#45;&gt;Node2 -->
<g id="edge2" class="edge">
<title>Node3&#45;&gt;Node2</title>
<path fill="none" stroke="#404040" d="M85.9,-375.47C90.05,-364.33 94.66,-351.95 99.35,-339.36"/>
<polygon fill="none" stroke="#404040" points="99.48,-339.02 97.82,-332 103.67,-327.78 105.32,-334.8 99.48,-339.02"/>
<text text-anchor="middle" x="124" y="-349" font-family="Helvetica,sans-Serif" font-size="10.00"> +Lipschitz</text>
</g>
<!-- Node4 -->
<g id="node4" class="node">
<title>Node4</title>
<g id="a_node4"><a xlink:title=" ">
<polygon fill="white" stroke="#bfbfbf" points="157.5,-392 157.5,-449 241.5,-449 241.5,-392 157.5,-392"/>
<text text-anchor="middle" x="199.5" y="-437" font-family="Helvetica,sans-Serif" font-size="10.00">microseconds</text>
<polyline fill="none" stroke="#bfbfbf" points="157.5,-430 241.5,-430 "/>
<text text-anchor="middle" x="199.5" y="-418" font-family="Helvetica,sans-Serif" font-size="10.00"> </text>
<polyline fill="none" stroke="#bfbfbf" points="157.5,-411 241.5,-411 "/>
<text text-anchor="middle" x="199.5" y="-399" font-family="Helvetica,sans-Serif" font-size="10.00"> </text>
</a>
</g>
</g>
<!-- Node4&#45;&gt;Node2 -->
<g id="edge3" class="edge">
<title>Node4&#45;&gt;Node2</title>
<path fill="none" stroke="#404040" d="M189.2,-391.85C183.75,-377.23 176.71,-358.33 169.51,-338.99"/>
<polygon fill="none" stroke="#404040" points="169.45,-338.82 163.61,-334.6 165.26,-327.58 171.1,-331.8 169.45,-338.82"/>
<text text-anchor="middle" x="206" y="-349" font-family="Helvetica,sans-Serif" font-size="10.00"> +max_time</text>
</g>
<!-- Node5 -->
<g id="node5" class="node">
<title>Node5</title>
<g id="a_node5"><a xlink:href="classpa_1_1AtomicStopSignal.html" target="_top" xlink:title=" ">
<polygon fill="white" stroke="black" points="235.5,-182.5 235.5,-305.5 357.5,-305.5 357.5,-182.5 235.5,-182.5"/>
<text text-anchor="middle" x="296.5" y="-293.5" font-family="Helvetica,sans-Serif" font-size="10.00">AtomicStopSignal</text>
<polyline fill="none" stroke="black" points="235.5,-286.5 357.5,-286.5 "/>
<text text-anchor="start" x="243.5" y="-274.5" font-family="Helvetica,sans-Serif" font-size="10.00">&#45; stop_flag</text>
<polyline fill="none" stroke="black" points="235.5,-267.5 357.5,-267.5 "/>
<text text-anchor="start" x="243.5" y="-255.5" font-family="Helvetica,sans-Serif" font-size="10.00">+ AtomicStopSignal()</text>
<text text-anchor="start" x="243.5" y="-244.5" font-family="Helvetica,sans-Serif" font-size="10.00">+ AtomicStopSignal()</text>
<text text-anchor="start" x="243.5" y="-233.5" font-family="Helvetica,sans-Serif" font-size="10.00">+ operator=()</text>
<text text-anchor="start" x="243.5" y="-222.5" font-family="Helvetica,sans-Serif" font-size="10.00">+ AtomicStopSignal()</text>
<text text-anchor="start" x="243.5" y="-211.5" font-family="Helvetica,sans-Serif" font-size="10.00">+ operator=()</text>
<text text-anchor="start" x="243.5" y="-200.5" font-family="Helvetica,sans-Serif" font-size="10.00">+ stop()</text>
<text text-anchor="start" x="243.5" y="-189.5" font-family="Helvetica,sans-Serif" font-size="10.00">+ stop_requested()</text>
</a>
</g>
</g>
<!-- Node5&#45;&gt;Node1 -->
<g id="edge4" class="edge">
<title>Node5&#45;&gt;Node1</title>
<path fill="none" stroke="#404040" d="M269.98,-182.26C261.8,-163.53 252.76,-142.83 244.43,-123.75"/>
<polygon fill="none" stroke="#404040" points="244.42,-123.73 238.35,-119.83 239.62,-112.73 245.68,-116.63 244.42,-123.73"/>
<text text-anchor="middle" x="282" y="-134" font-family="Helvetica,sans-Serif" font-size="10.00"> &#45;stop_signal</text>
</g>
</g>
</svg>
