<?xml version="1.0" encoding="UTF-8" standalone="no"?>
<!DOCTYPE svg PUBLIC "-//W3C//DTD SVG 1.1//EN"
 "http://www.w3.org/Graphics/SVG/1.1/DTD/svg11.dtd">
<!-- Generated by graphviz version 2.43.0 (0)
 -->
<!-- Title: solve_col Pages: 1 -->
<svg width="602pt" height="119pt"
 viewBox="0.00 0.00 602.00 118.50" xmlns="http://www.w3.org/2000/svg" xmlns:xlink="http://www.w3.org/1999/xlink">
<g id="graph0" class="graph" transform="scale(1 1) rotate(0) translate(4 114.5)">
<title>solve_col</title>
<polygon fill="white" stroke="transparent" points="-4,4 -4,-114.5 598,-114.5 598,4 -4,4"/>
<!-- Node1 -->
<g id="node1" class="node">
<title>Node1</title>
<g id="a_node1"><a xlink:title="Solve the least squares problem Ax = b.">
<polygon fill="#bfbfbf" stroke="black" points="532,-22.5 532,-41.5 594,-41.5 594,-22.5 532,-22.5"/>
<text text-anchor="middle" x="563" y="-29.5" font-family="Helvetica,sans-Serif" font-size="10.00">solve_col</text>
</a>
</g>
</g>
<!-- Node2 -->
<g id="node2" class="node">
<title>Node2</title>
<g id="a_node2"><a xlink:href="namespacepa.html#a04d9e05002d02fd15c58766c259ef0d7" target="_top" xlink:title="Solve one step of Anderson acceleration to find a fixed point of a function g(x):">
<polygon fill="white" stroke="black" points="377,-39 377,-69 496,-69 496,-39 377,-39"/>
<text text-anchor="start" x="385" y="-57" font-family="Helvetica,sans-Serif" font-size="10.00">pa::minimize_update</text>
<text text-anchor="middle" x="436.5" y="-46" font-family="Helvetica,sans-Serif" font-size="10.00">_anderson</text>
</a>
</g>
</g>
<!-- Node1&#45;&gt;Node2 -->
<g id="edge1" class="edge">
<title>Node1&#45;&gt;Node2</title>
<path fill="none" stroke="midnightblue" d="M521.83,-39.1C513.62,-40.55 504.82,-42.1 496.12,-43.64"/>
<polygon fill="midnightblue" stroke="midnightblue" points="522.62,-42.51 531.86,-37.33 521.41,-35.62 522.62,-42.51"/>
</g>
<!-- Node6 -->
<g id="node6" class="node">
<title>Node6</title>
<g id="a_node6"><a xlink:href="classpa_1_1LimitedMemoryQR.html#a9ec3e86c6cbb239ba0642378b564af41" target="_top" xlink:title="Solve the least squares problem AX = B.">
<polygon fill="white" stroke="black" points="415,-0.5 415,-19.5 458,-19.5 458,-0.5 415,-0.5"/>
<text text-anchor="middle" x="436.5" y="-7.5" font-family="Helvetica,sans-Serif" font-size="10.00">solve</text>
</a>
</g>
</g>
<!-- Node1&#45;&gt;Node6 -->
<g id="edge5" class="edge">
<title>Node1&#45;&gt;Node6</title>
<path fill="none" stroke="midnightblue" d="M521.79,-24.89C500.51,-21.13 475.29,-16.68 458.02,-13.63"/>
<polygon fill="midnightblue" stroke="midnightblue" points="521.41,-28.38 531.86,-26.67 522.62,-21.49 521.41,-28.38"/>
</g>
<!-- Node3 -->
<g id="node3" class="node">
<title>Node3</title>
<g id="a_node3"><a xlink:href="classpa_1_1AndersonAccel.html#a631bbbe30343f7e51af52d3d4e7804c6" target="_top" xlink:title=" ">
<polygon fill="white" stroke="black" points="204,-80 204,-110 317,-110 317,-80 204,-80"/>
<text text-anchor="start" x="212" y="-98" font-family="Helvetica,sans-Serif" font-size="10.00">pa::AndersonAccel::</text>
<text text-anchor="middle" x="260.5" y="-87" font-family="Helvetica,sans-Serif" font-size="10.00">compute</text>
</a>
</g>
</g>
<!-- Node2&#45;&gt;Node3 -->
<g id="edge2" class="edge">
<title>Node2&#45;&gt;Node3</title>
<path fill="none" stroke="midnightblue" d="M366.52,-70.25C350.12,-74.12 332.83,-78.19 317.12,-81.9"/>
<polygon fill="midnightblue" stroke="midnightblue" points="367.66,-73.58 376.59,-67.88 366.06,-66.77 367.66,-73.58"/>
</g>
<!-- Node5 -->
<g id="node5" class="node">
<title>Node5</title>
<g id="a_node5"><a xlink:href="classpa_1_1GAAPGASolver.html#a570ec001ea8eee359be8a1b90b782cfb" target="_top" xlink:title=" ">
<polygon fill="white" stroke="black" points="180,-41.5 180,-60.5 341,-60.5 341,-41.5 180,-41.5"/>
<text text-anchor="middle" x="260.5" y="-48.5" font-family="Helvetica,sans-Serif" font-size="10.00">pa::GAAPGASolver::operator()</text>
</a>
</g>
</g>
<!-- Node2&#45;&gt;Node5 -->
<g id="edge4" class="edge">
<title>Node2&#45;&gt;Node5</title>
<path fill="none" stroke="midnightblue" d="M366.51,-52.81C358.14,-52.67 349.53,-52.52 341.02,-52.37"/>
<polygon fill="midnightblue" stroke="midnightblue" points="366.53,-56.31 376.59,-52.98 366.65,-49.31 366.53,-56.31"/>
</g>
<!-- Node4 -->
<g id="node4" class="node">
<title>Node4</title>
<g id="a_node4"><a xlink:href="structpa_1_1PANOCDirection_3_01AndersonAccel_01_4.html#a8a49b1b1fd45d514a2bf04870f16e20d" target="_top" xlink:title=" ">
<polygon fill="white" stroke="black" points="0,-80 0,-110 144,-110 144,-80 0,-80"/>
<text text-anchor="start" x="8" y="-98" font-family="Helvetica,sans-Serif" font-size="10.00">pa::PANOCDirection</text>
<text text-anchor="middle" x="72" y="-87" font-family="Helvetica,sans-Serif" font-size="10.00">&lt; AndersonAccel &gt;::apply</text>
</a>
</g>
</g>
<!-- Node3&#45;&gt;Node4 -->
<g id="edge3" class="edge">
<title>Node3&#45;&gt;Node4</title>
<path fill="none" stroke="midnightblue" d="M193.52,-95C177.59,-95 160.49,-95 144.33,-95"/>
<polygon fill="midnightblue" stroke="midnightblue" points="193.8,-98.5 203.8,-95 193.8,-91.5 193.8,-98.5"/>
</g>
<!-- Node7 -->
<g id="node7" class="node">
<title>Node7</title>
<g id="a_node7"><a xlink:href="classpa_1_1LimitedMemoryQR.html#a1a581dbbeed876108b943e45451d0abf" target="_top" xlink:title="Solve the least squares problem AX = B.">
<polygon fill="white" stroke="black" points="239,-0.5 239,-19.5 282,-19.5 282,-0.5 239,-0.5"/>
<text text-anchor="middle" x="260.5" y="-7.5" font-family="Helvetica,sans-Serif" font-size="10.00">solve</text>
</a>
</g>
</g>
<!-- Node6&#45;&gt;Node7 -->
<g id="edge6" class="edge">
<title>Node6&#45;&gt;Node7</title>
<path fill="none" stroke="midnightblue" d="M404.64,-10C369.32,-10 312.45,-10 282.12,-10"/>
<polygon fill="midnightblue" stroke="midnightblue" points="404.86,-13.5 414.86,-10 404.86,-6.5 404.86,-13.5"/>
</g>
</g>
</svg>
