<?xml version="1.0" encoding="UTF-8" standalone="no"?>
<!DOCTYPE svg PUBLIC "-//W3C//DTD SVG 1.1//EN"
 "http://www.w3.org/Graphics/SVG/1.1/DTD/svg11.dtd">
<!-- Generated by graphviz version 2.43.0 (0)
 -->
<!-- Title: update Pages: 1 -->
<svg width="592pt" height="420pt"
 viewBox="0.00 0.00 592.00 420.00" xmlns="http://www.w3.org/2000/svg" xmlns:xlink="http://www.w3.org/1999/xlink">
<g id="graph0" class="graph" transform="scale(1 1) rotate(0) translate(4 416)">
<title>update</title>
<polygon fill="white" stroke="transparent" points="-4,4 -4,-416 588,-416 588,4 -4,4"/>
<!-- Node1 -->
<g id="node1" class="node">
<title>Node1</title>
<g id="a_node1"><a xlink:title="Update the inverse Hessian approximation using the new vectors xₖ₊₁ and pₖ₊₁.">
<polygon fill="#bfbfbf" stroke="black" points="0,-152.5 0,-171.5 50,-171.5 50,-152.5 0,-152.5"/>
<text text-anchor="middle" x="25" y="-159.5" font-family="Helvetica,sans-Serif" font-size="10.00">update</text>
</a>
</g>
</g>
<!-- Node2 -->
<g id="node2" class="node">
<title>Node2</title>
<g id="a_node2"><a xlink:href="classpa_1_1SpecializedLBFGS.html#a71d9f5b74a18b1ef994683c1aa4914da" target="_top" xlink:title="L&#45;BFGS update when changing the step size γ, recomputing everything.">
<polygon fill="white" stroke="black" points="99.5,-171.5 99.5,-190.5 170.5,-190.5 170.5,-171.5 99.5,-171.5"/>
<text text-anchor="middle" x="135" y="-178.5" font-family="Helvetica,sans-Serif" font-size="10.00">full_update</text>
</a>
</g>
</g>
<!-- Node1&#45;&gt;Node2 -->
<g id="edge1" class="edge">
<title>Node1&#45;&gt;Node2</title>
<path fill="none" stroke="midnightblue" d="M50.24,-166.26C61.73,-168.29 75.85,-170.77 89.19,-173.12"/>
<polygon fill="midnightblue" stroke="midnightblue" points="88.74,-176.59 99.19,-174.88 89.95,-169.7 88.74,-176.59"/>
</g>
<!-- Node18 -->
<g id="node18" class="node">
<title>Node18</title>
<g id="a_node18"><a xlink:href="classpa_1_1SpecializedLBFGS.html#ae20511c5fb7ae45113aeba25b63c6d55" target="_top" xlink:title="Standard L&#45;BFGS update without changing the step size γ.">
<polygon fill="white" stroke="black" points="86,-133.5 86,-152.5 184,-152.5 184,-133.5 86,-133.5"/>
<text text-anchor="middle" x="135" y="-140.5" font-family="Helvetica,sans-Serif" font-size="10.00">standard_update</text>
</a>
</g>
</g>
<!-- Node1&#45;&gt;Node18 -->
<g id="edge28" class="edge">
<title>Node1&#45;&gt;Node18</title>
<path fill="none" stroke="midnightblue" d="M50.24,-157.74C58,-156.37 66.96,-154.79 76.07,-153.19"/>
<polygon fill="midnightblue" stroke="midnightblue" points="76.72,-156.63 85.96,-151.45 75.5,-149.74 76.72,-156.63"/>
</g>
<!-- Node3 -->
<g id="node3" class="node">
<title>Node3</title>
<g id="a_node3"><a xlink:href="classpa_1_1SpecializedLBFGS.html#a7e9b3fd96d52976693a1fb57fb32ba3c" target="_top" xlink:title=" ">
<polygon fill="white" stroke="black" points="273,-152.5 273,-171.5 302,-171.5 302,-152.5 273,-152.5"/>
<text text-anchor="middle" x="287.5" y="-159.5" font-family="Helvetica,sans-Serif" font-size="10.00">g</text>
</a>
</g>
</g>
<!-- Node2&#45;&gt;Node3 -->
<g id="edge2" class="edge">
<title>Node2&#45;&gt;Node3</title>
<path fill="none" stroke="midnightblue" d="M170.53,-176.64C198.8,-173.07 238.05,-168.12 262.86,-164.98"/>
<polygon fill="midnightblue" stroke="midnightblue" points="263.36,-168.45 272.84,-163.72 262.48,-161.5 263.36,-168.45"/>
</g>
<!-- Node6 -->
<g id="node6" class="node">
<title>Node6</title>
<g id="a_node6"><a xlink:href="classpa_1_1SpecializedLBFGS.html#a9cb23d843dff87dd08bd5a916d9eed95" target="_top" xlink:title=" ">
<polygon fill="white" stroke="black" points="273,-228.5 273,-247.5 302,-247.5 302,-228.5 273,-228.5"/>
<text text-anchor="middle" x="287.5" y="-235.5" font-family="Helvetica,sans-Serif" font-size="10.00">p</text>
</a>
</g>
</g>
<!-- Node2&#45;&gt;Node6 -->
<g id="edge5" class="edge">
<title>Node2&#45;&gt;Node6</title>
<path fill="none" stroke="midnightblue" d="M155.02,-190.57C171.83,-198.8 197.16,-210.62 220,-219 234,-224.14 250.07,-228.76 262.91,-232.16"/>
<polygon fill="midnightblue" stroke="midnightblue" points="262.26,-235.61 272.81,-234.72 264,-228.83 262.26,-235.61"/>
</g>
<!-- Node7 -->
<g id="node7" class="node">
<title>Node7</title>
<g id="a_node7"><a xlink:href="classpa_1_1SpecializedLBFGS.html#a366794fa1c1947b58c0e7cfd78529215" target="_top" xlink:title="Get the previous index in the circular buffer of previous s, y, x and g vectors.">
<polygon fill="white" stroke="black" points="268.5,-392.5 268.5,-411.5 306.5,-411.5 306.5,-392.5 268.5,-392.5"/>
<text text-anchor="middle" x="287.5" y="-399.5" font-family="Helvetica,sans-Serif" font-size="10.00">pred</text>
</a>
</g>
</g>
<!-- Node2&#45;&gt;Node7 -->
<g id="edge8" class="edge">
<title>Node2&#45;&gt;Node7</title>
<path fill="none" stroke="midnightblue" d="M137.08,-190.71C141.22,-223.13 159.01,-328.7 220,-383 230.54,-392.39 245.43,-397.16 258.44,-399.58"/>
<polygon fill="midnightblue" stroke="midnightblue" points="257.96,-403.04 268.36,-401.05 258.99,-396.12 257.96,-403.04"/>
</g>
<!-- Node8 -->
<g id="node8" class="node">
<title>Node8</title>
<g id="a_node8"><a xlink:href="namespacepa_1_1detail.html#a8ed4d487878856942843707b5a131b85" target="_top" xlink:title="Projected gradient step.">
<polygon fill="white" stroke="black" points="230.5,-343 230.5,-373 344.5,-373 344.5,-343 230.5,-343"/>
<text text-anchor="start" x="238.5" y="-361" font-family="Helvetica,sans-Serif" font-size="10.00">pa::detail::projected</text>
<text text-anchor="middle" x="287.5" y="-350" font-family="Helvetica,sans-Serif" font-size="10.00">_gradient_step</text>
</a>
</g>
</g>
<!-- Node2&#45;&gt;Node8 -->
<g id="edge10" class="edge">
<title>Node2&#45;&gt;Node8</title>
<path fill="none" stroke="midnightblue" d="M138.75,-190.7C146.75,-217.28 172.55,-291.99 220,-333 221.96,-334.69 224.05,-336.28 226.22,-337.76"/>
<polygon fill="midnightblue" stroke="midnightblue" points="224.62,-340.88 235.01,-342.97 228.2,-334.86 224.62,-340.88"/>
</g>
<!-- Node9 -->
<g id="node9" class="node">
<title>Node9</title>
<g id="a_node9"><a xlink:href="classpa_1_1SpecializedLBFGS.html#a644d66009a70ccc909120ba9afa45ea5" target="_top" xlink:title=" ">
<polygon fill="white" stroke="black" points="273,-114.5 273,-133.5 302,-133.5 302,-114.5 273,-114.5"/>
<text text-anchor="middle" x="287.5" y="-121.5" font-family="Helvetica,sans-Serif" font-size="10.00">s</text>
</a>
</g>
</g>
<!-- Node2&#45;&gt;Node9 -->
<g id="edge11" class="edge">
<title>Node2&#45;&gt;Node9</title>
<path fill="none" stroke="midnightblue" d="M161.63,-171.45C168.92,-168.57 176.84,-165.3 184,-162 200.44,-154.44 203.21,-149.74 220,-143 233.93,-137.41 250.11,-132.74 263.02,-129.44"/>
<polygon fill="midnightblue" stroke="midnightblue" points="264.1,-132.78 272.98,-126.99 262.43,-125.98 264.1,-132.78"/>
</g>
<!-- Node10 -->
<g id="node10" class="node">
<title>Node10</title>
<g id="a_node10"><a xlink:href="classpa_1_1SpecializedLBFGS.html#a0df701f7bb07249c37bcbf20d9c980fe" target="_top" xlink:title="Get the next index in the circular buffer of previous s, y, x and g vectors.">
<polygon fill="white" stroke="black" points="268.5,-266.5 268.5,-285.5 306.5,-285.5 306.5,-266.5 268.5,-266.5"/>
<text text-anchor="middle" x="287.5" y="-273.5" font-family="Helvetica,sans-Serif" font-size="10.00">succ</text>
</a>
</g>
</g>
<!-- Node2&#45;&gt;Node10 -->
<g id="edge13" class="edge">
<title>Node2&#45;&gt;Node10</title>
<path fill="none" stroke="midnightblue" d="M144.01,-190.7C157.85,-206.82 187.85,-239.15 220,-257 231.89,-263.6 246.28,-268.08 258.63,-271.03"/>
<polygon fill="midnightblue" stroke="midnightblue" points="257.91,-274.45 268.42,-273.15 259.39,-267.61 257.91,-274.45"/>
</g>
<!-- Node11 -->
<g id="node11" class="node">
<title>Node11</title>
<g id="a_node11"><a xlink:href="classpa_1_1LBFGS.html#aaf9c6519c7a7d7ab977113f33c88e2e3" target="_top" xlink:title="Check if the new vectors s and y allow for a valid BFGS update that preserves the positive definitene...">
<polygon fill="white" stroke="black" points="220,-0.5 220,-19.5 355,-19.5 355,-0.5 220,-0.5"/>
<text text-anchor="middle" x="287.5" y="-7.5" font-family="Helvetica,sans-Serif" font-size="10.00">pa::LBFGS::update_valid</text>
</a>
</g>
</g>
<!-- Node2&#45;&gt;Node11 -->
<g id="edge15" class="edge">
<title>Node2&#45;&gt;Node11</title>
<path fill="none" stroke="midnightblue" d="M170.54,-171.94C175.57,-169.4 180.3,-166.14 184,-162 224.8,-116.33 177,-72.6 220,-29 221.42,-27.56 222.95,-26.22 224.55,-24.99"/>
<polygon fill="midnightblue" stroke="midnightblue" points="226.54,-27.87 233.17,-19.6 222.84,-21.93 226.54,-27.87"/>
</g>
<!-- Node14 -->
<g id="node14" class="node">
<title>Node14</title>
<g id="a_node14"><a xlink:href="classpa_1_1SpecializedLBFGS.html#a45235c456e26733897f13bbf1057323e" target="_top" xlink:title=" ">
<polygon fill="white" stroke="black" points="273,-304.5 273,-323.5 302,-323.5 302,-304.5 273,-304.5"/>
<text text-anchor="middle" x="287.5" y="-311.5" font-family="Helvetica,sans-Serif" font-size="10.00">w</text>
</a>
</g>
</g>
<!-- Node2&#45;&gt;Node14 -->
<g id="edge18" class="edge">
<title>Node2&#45;&gt;Node14</title>
<path fill="none" stroke="midnightblue" d="M140.35,-190.62C150.78,-212.61 179.41,-266.81 220,-295 232.68,-303.81 249.41,-308.56 262.91,-311.11"/>
<polygon fill="midnightblue" stroke="midnightblue" points="262.48,-314.59 272.91,-312.72 263.59,-307.68 262.48,-314.59"/>
</g>
<!-- Node15 -->
<g id="node15" class="node">
<title>Node15</title>
<g id="a_node15"><a xlink:href="classpa_1_1SpecializedLBFGS.html#ac8fb9b5f7c53b1285867cf99b0f79d17" target="_top" xlink:title=" ">
<polygon fill="white" stroke="black" points="273,-190.5 273,-209.5 302,-209.5 302,-190.5 273,-190.5"/>
<text text-anchor="middle" x="287.5" y="-197.5" font-family="Helvetica,sans-Serif" font-size="10.00">x</text>
</a>
</g>
</g>
<!-- Node2&#45;&gt;Node15 -->
<g id="edge21" class="edge">
<title>Node2&#45;&gt;Node15</title>
<path fill="none" stroke="midnightblue" d="M170.53,-185.36C198.8,-188.93 238.05,-193.88 262.86,-197.02"/>
<polygon fill="midnightblue" stroke="midnightblue" points="262.48,-200.5 272.84,-198.28 263.36,-193.55 262.48,-200.5"/>
</g>
<!-- Node16 -->
<g id="node16" class="node">
<title>Node16</title>
<g id="a_node16"><a xlink:href="classpa_1_1SpecializedLBFGS.html#ac18c0672e61d25800877a42a1def3215" target="_top" xlink:title=" ">
<polygon fill="white" stroke="black" points="273,-76.5 273,-95.5 302,-95.5 302,-76.5 273,-76.5"/>
<text text-anchor="middle" x="287.5" y="-83.5" font-family="Helvetica,sans-Serif" font-size="10.00">y</text>
</a>
</g>
</g>
<!-- Node2&#45;&gt;Node16 -->
<g id="edge24" class="edge">
<title>Node2&#45;&gt;Node16</title>
<path fill="none" stroke="midnightblue" d="M168.3,-171.49C173.89,-168.96 179.38,-165.83 184,-162 207.07,-142.88 196.02,-122.96 220,-105 232.36,-95.74 249.09,-90.99 262.67,-88.55"/>
<polygon fill="midnightblue" stroke="midnightblue" points="263.37,-91.99 272.75,-87.06 262.34,-85.06 263.37,-91.99"/>
</g>
<!-- Node17 -->
<g id="node17" class="node">
<title>Node17</title>
<g id="a_node17"><a xlink:href="classpa_1_1SpecializedLBFGS.html#a630280b47996370bdb569a2799ffdb9f" target="_top" xlink:title=" ">
<polygon fill="white" stroke="black" points="273,-38.5 273,-57.5 302,-57.5 302,-38.5 273,-38.5"/>
<text text-anchor="middle" x="287.5" y="-45.5" font-family="Helvetica,sans-Serif" font-size="10.00">ρ</text>
</a>
</g>
</g>
<!-- Node2&#45;&gt;Node17 -->
<g id="edge26" class="edge">
<title>Node2&#45;&gt;Node17</title>
<path fill="none" stroke="midnightblue" d="M170.69,-171.38C175.58,-168.91 180.23,-165.83 184,-162 215.69,-129.84 186.76,-97.56 220,-67 231.62,-56.31 248.85,-51.59 262.86,-49.53"/>
<polygon fill="midnightblue" stroke="midnightblue" points="263.25,-53.01 272.79,-48.41 262.47,-46.05 263.25,-53.01"/>
</g>
<!-- Node4 -->
<g id="node4" class="node">
<title>Node4</title>
<g id="a_node4"><a xlink:href="classpa_1_1SpecializedLBFGS.html#a5b5fd504f983f6b5f9beb1576ebf591a" target="_top" xlink:title="Get the number of previous vectors s, y, x and g stored in the buffer.">
<polygon fill="white" stroke="black" points="405.5,-247.5 405.5,-266.5 455.5,-266.5 455.5,-247.5 405.5,-247.5"/>
<text text-anchor="middle" x="430.5" y="-254.5" font-family="Helvetica,sans-Serif" font-size="10.00">history</text>
</a>
</g>
</g>
<!-- Node3&#45;&gt;Node4 -->
<g id="edge3" class="edge">
<title>Node3&#45;&gt;Node4</title>
<path fill="none" stroke="midnightblue" d="M302.05,-163.78C316.09,-166.09 338.28,-171.05 355,-181 380.28,-196.05 402.94,-221.78 416.45,-239.08"/>
<polygon fill="midnightblue" stroke="midnightblue" points="413.82,-241.41 422.65,-247.26 419.4,-237.18 413.82,-241.41"/>
</g>
<!-- Node5 -->
<g id="node5" class="node">
<title>Node5</title>
<g id="a_node5"><a xlink:href="classpa_1_1SpecializedLBFGS.html#ac88f0961aa7ed7c7415550ab2cad49c8" target="_top" xlink:title="Get the size of the s, y, x and g vectors in the buffer.">
<polygon fill="white" stroke="black" points="416,-152.5 416,-171.5 445,-171.5 445,-152.5 416,-152.5"/>
<text text-anchor="middle" x="430.5" y="-159.5" font-family="Helvetica,sans-Serif" font-size="10.00">n</text>
</a>
</g>
</g>
<!-- Node3&#45;&gt;Node5 -->
<g id="edge4" class="edge">
<title>Node3&#45;&gt;Node5</title>
<path fill="none" stroke="midnightblue" d="M302.02,-162C325.86,-162 375.65,-162 405.46,-162"/>
<polygon fill="midnightblue" stroke="midnightblue" points="405.81,-165.5 415.81,-162 405.81,-158.5 405.81,-165.5"/>
</g>
<!-- Node6&#45;&gt;Node4 -->
<g id="edge6" class="edge">
<title>Node6&#45;&gt;Node4</title>
<path fill="none" stroke="midnightblue" d="M302.02,-239.82C323.29,-242.69 365.24,-248.34 395.2,-252.38"/>
<polygon fill="midnightblue" stroke="midnightblue" points="394.87,-255.87 405.25,-253.73 395.81,-248.93 394.87,-255.87"/>
</g>
<!-- Node6&#45;&gt;Node5 -->
<g id="edge7" class="edge">
<title>Node6&#45;&gt;Node5</title>
<path fill="none" stroke="midnightblue" d="M302.04,-235.68C315.88,-232.96 337.73,-227.68 355,-219 376.17,-208.36 397.33,-191.41 411.66,-178.76"/>
<polygon fill="midnightblue" stroke="midnightblue" points="414.19,-181.19 419.26,-171.88 409.5,-176 414.19,-181.19"/>
</g>
<!-- Node7&#45;&gt;Node4 -->
<g id="edge9" class="edge">
<title>Node7&#45;&gt;Node4</title>
<path fill="none" stroke="midnightblue" d="M306.51,-400.51C320.91,-398.51 340.93,-393.86 355,-383 391.22,-355.03 413.35,-304.05 423.29,-276.29"/>
<polygon fill="midnightblue" stroke="midnightblue" points="426.69,-277.16 426.61,-266.56 420.06,-274.9 426.69,-277.16"/>
</g>
<!-- Node9&#45;&gt;Node5 -->
<g id="edge12" class="edge">
<title>Node9&#45;&gt;Node5</title>
<path fill="none" stroke="midnightblue" d="M302.02,-127.64C325.96,-134.1 376.09,-147.61 405.86,-155.63"/>
<polygon fill="midnightblue" stroke="midnightblue" points="405.25,-159.09 415.81,-158.31 407.07,-152.33 405.25,-159.09"/>
</g>
<!-- Node10&#45;&gt;Node4 -->
<g id="edge14" class="edge">
<title>Node10&#45;&gt;Node4</title>
<path fill="none" stroke="midnightblue" d="M306.64,-273.55C328.94,-270.55 367.23,-265.39 395.15,-261.63"/>
<polygon fill="midnightblue" stroke="midnightblue" points="395.84,-265.07 405.29,-260.26 394.91,-258.13 395.84,-265.07"/>
</g>
<!-- Node12 -->
<g id="node12" class="node">
<title>Node12</title>
<g id="a_node12"><a xlink:href="classpa_1_1LBFGS.html#a66eb6e38840a556b4c0f0bff0901f80c" target="_top" xlink:title=" ">
<polygon fill="white" stroke="black" points="391,-0.5 391,-19.5 470,-19.5 470,-0.5 391,-0.5"/>
<text text-anchor="middle" x="430.5" y="-7.5" font-family="Helvetica,sans-Serif" font-size="10.00">pa::LBFGS::α</text>
</a>
</g>
</g>
<!-- Node11&#45;&gt;Node12 -->
<g id="edge16" class="edge">
<title>Node11&#45;&gt;Node12</title>
<path fill="none" stroke="midnightblue" d="M355.28,-10C363.89,-10 372.57,-10 380.82,-10"/>
<polygon fill="midnightblue" stroke="midnightblue" points="380.98,-13.5 390.98,-10 380.98,-6.5 380.98,-13.5"/>
</g>
<!-- Node13 -->
<g id="node13" class="node">
<title>Node13</title>
<g id="a_node13"><a xlink:href="classpa_1_1LBFGS.html#ac88f0961aa7ed7c7415550ab2cad49c8" target="_top" xlink:title="Get the size of the s and y vectors in the buffer.">
<polygon fill="white" stroke="black" points="506,-0.5 506,-19.5 584,-19.5 584,-0.5 506,-0.5"/>
<text text-anchor="middle" x="545" y="-7.5" font-family="Helvetica,sans-Serif" font-size="10.00">pa::LBFGS::n</text>
</a>
</g>
</g>
<!-- Node12&#45;&gt;Node13 -->
<g id="edge17" class="edge">
<title>Node12&#45;&gt;Node13</title>
<path fill="none" stroke="midnightblue" d="M470.22,-10C478.44,-10 487.22,-10 495.75,-10"/>
<polygon fill="midnightblue" stroke="midnightblue" points="495.97,-13.5 505.97,-10 495.97,-6.5 495.97,-13.5"/>
</g>
<!-- Node14&#45;&gt;Node4 -->
<g id="edge19" class="edge">
<title>Node14&#45;&gt;Node4</title>
<path fill="none" stroke="midnightblue" d="M302.26,-310.9C315.88,-307.63 337.24,-301.99 355,-295 371.8,-288.39 389.85,-279.24 403.97,-271.57"/>
<polygon fill="midnightblue" stroke="midnightblue" points="406,-274.45 413.06,-266.55 402.62,-268.32 406,-274.45"/>
</g>
<!-- Node14&#45;&gt;Node5 -->
<g id="edge20" class="edge">
<title>Node14&#45;&gt;Node5</title>
<path fill="none" stroke="midnightblue" d="M302.11,-313.14C316.61,-311.58 339.56,-307.22 355,-295 365.01,-287.08 402.26,-215.54 419.99,-180.79"/>
<polygon fill="midnightblue" stroke="midnightblue" points="423.22,-182.17 424.63,-171.67 416.98,-178.99 423.22,-182.17"/>
</g>
<!-- Node15&#45;&gt;Node4 -->
<g id="edge22" class="edge">
<title>Node15&#45;&gt;Node4</title>
<path fill="none" stroke="midnightblue" d="M302.26,-203.1C315.88,-206.37 337.24,-212.01 355,-219 371.8,-225.61 389.85,-234.76 403.97,-242.43"/>
<polygon fill="midnightblue" stroke="midnightblue" points="402.62,-245.68 413.06,-247.45 406,-239.55 402.62,-245.68"/>
</g>
<!-- Node15&#45;&gt;Node5 -->
<g id="edge23" class="edge">
<title>Node15&#45;&gt;Node5</title>
<path fill="none" stroke="midnightblue" d="M302.02,-196.36C325.96,-189.9 376.09,-176.39 405.86,-168.37"/>
<polygon fill="midnightblue" stroke="midnightblue" points="407.07,-171.67 415.81,-165.69 405.25,-164.91 407.07,-171.67"/>
</g>
<!-- Node16&#45;&gt;Node5 -->
<g id="edge25" class="edge">
<title>Node16&#45;&gt;Node5</title>
<path fill="none" stroke="midnightblue" d="M302.04,-88.32C315.88,-91.04 337.73,-96.32 355,-105 376.17,-115.64 397.33,-132.59 411.66,-145.24"/>
<polygon fill="midnightblue" stroke="midnightblue" points="409.5,-148 419.26,-152.12 414.19,-142.81 409.5,-148"/>
</g>
<!-- Node17&#45;&gt;Node5 -->
<g id="edge27" class="edge">
<title>Node17&#45;&gt;Node5</title>
<path fill="none" stroke="midnightblue" d="M302.02,-49.38C316.24,-51.36 338.76,-56.08 355,-67 384.41,-86.78 407.47,-121.88 419.74,-143.43"/>
<polygon fill="midnightblue" stroke="midnightblue" points="416.72,-145.2 424.6,-152.27 422.85,-141.82 416.72,-145.2"/>
</g>
<!-- Node18&#45;&gt;Node3 -->
<g id="edge29" class="edge">
<title>Node18&#45;&gt;Node3</title>
<path fill="none" stroke="midnightblue" d="M184.03,-149.06C210.41,-152.39 241.93,-156.37 262.99,-159.03"/>
<polygon fill="midnightblue" stroke="midnightblue" points="262.6,-162.51 272.96,-160.29 263.47,-155.57 262.6,-162.51"/>
</g>
<!-- Node18&#45;&gt;Node9 -->
<g id="edge30" class="edge">
<title>Node18&#45;&gt;Node9</title>
<path fill="none" stroke="midnightblue" d="M184.03,-136.94C210.41,-133.61 241.93,-129.63 262.99,-126.97"/>
<polygon fill="midnightblue" stroke="midnightblue" points="263.47,-130.43 272.96,-125.71 262.6,-123.49 263.47,-130.43"/>
</g>
<!-- Node18&#45;&gt;Node10 -->
<g id="edge31" class="edge">
<title>Node18&#45;&gt;Node10</title>
<path fill="none" stroke="midnightblue" d="M170.69,-152.62C175.58,-155.09 180.23,-158.17 184,-162 215.69,-194.16 186.76,-226.44 220,-257 230.39,-266.55 245.26,-271.34 258.31,-273.72"/>
<polygon fill="midnightblue" stroke="midnightblue" points="257.86,-277.19 268.26,-275.16 258.87,-270.27 257.86,-277.19"/>
</g>
<!-- Node18&#45;&gt;Node11 -->
<g id="edge32" class="edge">
<title>Node18&#45;&gt;Node11</title>
<path fill="none" stroke="midnightblue" d="M140.35,-133.38C150.78,-111.39 179.41,-57.19 220,-29 222.9,-26.99 226.01,-25.19 229.24,-23.57"/>
<polygon fill="midnightblue" stroke="midnightblue" points="230.83,-26.7 238.61,-19.52 228.05,-20.28 230.83,-26.7"/>
</g>
<!-- Node18&#45;&gt;Node15 -->
<g id="edge33" class="edge">
<title>Node18&#45;&gt;Node15</title>
<path fill="none" stroke="midnightblue" d="M161.63,-152.55C168.92,-155.43 176.84,-158.7 184,-162 200.44,-169.56 203.21,-174.26 220,-181 233.93,-186.59 250.11,-191.26 263.02,-194.56"/>
<polygon fill="midnightblue" stroke="midnightblue" points="262.43,-198.02 272.98,-197.01 264.1,-191.22 262.43,-198.02"/>
</g>
<!-- Node18&#45;&gt;Node16 -->
<g id="edge34" class="edge">
<title>Node18&#45;&gt;Node16</title>
<path fill="none" stroke="midnightblue" d="M155.02,-133.43C171.83,-125.2 197.16,-113.38 220,-105 234,-99.86 250.07,-95.24 262.91,-91.84"/>
<polygon fill="midnightblue" stroke="midnightblue" points="264,-95.17 272.81,-89.28 262.26,-88.39 264,-95.17"/>
</g>
<!-- Node18&#45;&gt;Node17 -->
<g id="edge35" class="edge">
<title>Node18&#45;&gt;Node17</title>
<path fill="none" stroke="midnightblue" d="M144.01,-133.3C157.85,-117.18 187.85,-84.85 220,-67 233.2,-59.67 249.49,-54.95 262.63,-52.06"/>
<polygon fill="midnightblue" stroke="midnightblue" points="263.68,-55.42 272.81,-50.03 262.31,-48.55 263.68,-55.42"/>
</g>
</g>
</svg>
