<?xml version="1.0" encoding="UTF-8" standalone="no"?>
<!DOCTYPE svg PUBLIC "-//W3C//DTD SVG 1.1//EN"
 "http://www.w3.org/Graphics/SVG/1.1/DTD/svg11.dtd">
<!-- Generated by graphviz version 2.43.0 (0)
 -->
<!-- Title: PANOCSolver&lt; DirectionProviderT &gt; Pages: 1 -->
<svg width="534pt" height="496pt"
 viewBox="0.00 0.00 533.50 496.00" xmlns="http://www.w3.org/2000/svg" xmlns:xlink="http://www.w3.org/1999/xlink">
<g id="graph0" class="graph" transform="scale(1 1) rotate(0) translate(4 492)">
<title>PANOCSolver&lt; DirectionProviderT &gt;</title>
<polygon fill="white" stroke="transparent" points="-4,4 -4,-492 529.5,-492 529.5,4 -4,4"/>
<!-- Node1 -->
<g id="node1" class="node">
<title>Node1</title>
<g id="a_node1"><a xlink:title="PANOC solver for ALM.">
<polygon fill="#bfbfbf" stroke="black" points="213.5,-0.5 213.5,-123.5 407.5,-123.5 407.5,-0.5 213.5,-0.5"/>
<text text-anchor="middle" x="310.5" y="-111.5" font-family="Helvetica,sans-Serif" font-size="10.00">PANOCSolver&lt; DirectionProviderT &gt;</text>
<polyline fill="none" stroke="black" points="213.5,-104.5 407.5,-104.5 "/>
<text text-anchor="start" x="221.5" y="-92.5" font-family="Helvetica,sans-Serif" font-size="10.00">&#45; progress_cb</text>
<polyline fill="none" stroke="black" points="213.5,-85.5 407.5,-85.5 "/>
<text text-anchor="start" x="221.5" y="-73.5" font-family="Helvetica,sans-Serif" font-size="10.00">+ PANOCSolver()</text>
<text text-anchor="start" x="221.5" y="-62.5" font-family="Helvetica,sans-Serif" font-size="10.00">+ PANOCSolver()</text>
<text text-anchor="start" x="221.5" y="-51.5" font-family="Helvetica,sans-Serif" font-size="10.00">+ operator()()</text>
<text text-anchor="start" x="221.5" y="-40.5" font-family="Helvetica,sans-Serif" font-size="10.00">+ set_progress_callback()</text>
<text text-anchor="start" x="221.5" y="-29.5" font-family="Helvetica,sans-Serif" font-size="10.00">+ get_name()</text>
<text text-anchor="start" x="221.5" y="-18.5" font-family="Helvetica,sans-Serif" font-size="10.00">+ stop()</text>
<text text-anchor="start" x="221.5" y="-7.5" font-family="Helvetica,sans-Serif" font-size="10.00">+ get_params()</text>
</a>
</g>
</g>
<!-- Node2 -->
<g id="node2" class="node">
<title>Node2</title>
<g id="a_node2"><a xlink:href="namespacepa.html#structpa_1_1PANOCParams" target="_top" xlink:title="Tuning parameters for the PANOC algorithm.">
<polygon fill="white" stroke="black" points="52,-171.5 52,-349.5 217,-349.5 217,-171.5 52,-171.5"/>
<text text-anchor="middle" x="134.5" y="-337.5" font-family="Helvetica,sans-Serif" font-size="10.00">PANOCParams</text>
<polyline fill="none" stroke="black" points="52,-330.5 217,-330.5 "/>
<text text-anchor="start" x="60" y="-318.5" font-family="Helvetica,sans-Serif" font-size="10.00">+ max_iter</text>
<text text-anchor="start" x="60" y="-307.5" font-family="Helvetica,sans-Serif" font-size="10.00">+ τ_min</text>
<text text-anchor="start" x="60" y="-296.5" font-family="Helvetica,sans-Serif" font-size="10.00">+ γ_min</text>
<text text-anchor="start" x="60" y="-285.5" font-family="Helvetica,sans-Serif" font-size="10.00">+ stop_crit</text>
<text text-anchor="start" x="60" y="-274.5" font-family="Helvetica,sans-Serif" font-size="10.00">+ max_no_progress</text>
<text text-anchor="start" x="60" y="-263.5" font-family="Helvetica,sans-Serif" font-size="10.00">+ print_interval</text>
<text text-anchor="start" x="60" y="-252.5" font-family="Helvetica,sans-Serif" font-size="10.00">+ quadratic_upperbound</text>
<text text-anchor="start" x="60" y="-241.5" font-family="Helvetica,sans-Serif" font-size="10.00">_tolerance_factor</text>
<text text-anchor="start" x="60" y="-230.5" font-family="Helvetica,sans-Serif" font-size="10.00">+ update_lipschitz_in</text>
<text text-anchor="start" x="60" y="-219.5" font-family="Helvetica,sans-Serif" font-size="10.00">_linesearch</text>
<text text-anchor="start" x="60" y="-208.5" font-family="Helvetica,sans-Serif" font-size="10.00">+ alternative_linesearch_cond</text>
<text text-anchor="start" x="60" y="-197.5" font-family="Helvetica,sans-Serif" font-size="10.00">+ lbfgs_stepsize</text>
<polyline fill="none" stroke="black" points="52,-190.5 217,-190.5 "/>
<text text-anchor="middle" x="134.5" y="-178.5" font-family="Helvetica,sans-Serif" font-size="10.00"> </text>
</a>
</g>
</g>
<!-- Node2&#45;&gt;Node1 -->
<g id="edge1" class="edge">
<title>Node2&#45;&gt;Node1</title>
<path fill="none" stroke="#404040" d="M213.49,-171.31C225.11,-158.34 236.94,-145.13 248.16,-132.6"/>
<polygon fill="none" stroke="#404040" points="248.2,-132.55 249.23,-125.41 256.21,-123.61 255.19,-130.75 248.2,-132.55"/>
<text text-anchor="middle" x="260.5" y="-145" font-family="Helvetica,sans-Serif" font-size="10.00"> &#45;params</text>
</g>
<!-- Node3 -->
<g id="node3" class="node">
<title>Node3</title>
<g id="a_node3"><a xlink:href="namespacepa.html#structpa_1_1LipschitzEstimateParams" target="_top" xlink:title=" ">
<polygon fill="white" stroke="black" points="0,-397.5 0,-487.5 139,-487.5 139,-397.5 0,-397.5"/>
<text text-anchor="middle" x="69.5" y="-475.5" font-family="Helvetica,sans-Serif" font-size="10.00">LipschitzEstimateParams</text>
<polyline fill="none" stroke="black" points="0,-468.5 139,-468.5 "/>
<text text-anchor="start" x="8" y="-456.5" font-family="Helvetica,sans-Serif" font-size="10.00">+ L₀</text>
<text text-anchor="start" x="8" y="-445.5" font-family="Helvetica,sans-Serif" font-size="10.00">+ ε</text>
<text text-anchor="start" x="8" y="-434.5" font-family="Helvetica,sans-Serif" font-size="10.00">+ δ</text>
<text text-anchor="start" x="8" y="-423.5" font-family="Helvetica,sans-Serif" font-size="10.00">+ Lγ_factor</text>
<polyline fill="none" stroke="black" points="0,-416.5 139,-416.5 "/>
<text text-anchor="middle" x="69.5" y="-404.5" font-family="Helvetica,sans-Serif" font-size="10.00"> </text>
</a>
</g>
</g>
<!-- Node3&#45;&gt;Node2 -->
<g id="edge2" class="edge">
<title>Node3&#45;&gt;Node2</title>
<path fill="none" stroke="#404040" d="M85.4,-397.47C89.4,-386.39 93.86,-374.04 98.41,-361.44"/>
<polygon fill="none" stroke="#404040" points="98.53,-361.1 96.81,-354.09 102.61,-349.81 104.33,-356.81 98.53,-361.1"/>
<text text-anchor="middle" x="122" y="-371" font-family="Helvetica,sans-Serif" font-size="10.00"> +Lipschitz</text>
</g>
<!-- Node4 -->
<g id="node4" class="node">
<title>Node4</title>
<g id="a_node4"><a xlink:title=" ">
<polygon fill="white" stroke="#bfbfbf" points="157.5,-414 157.5,-471 241.5,-471 241.5,-414 157.5,-414"/>
<text text-anchor="middle" x="199.5" y="-459" font-family="Helvetica,sans-Serif" font-size="10.00">microseconds</text>
<polyline fill="none" stroke="#bfbfbf" points="157.5,-452 241.5,-452 "/>
<text text-anchor="middle" x="199.5" y="-440" font-family="Helvetica,sans-Serif" font-size="10.00"> </text>
<polyline fill="none" stroke="#bfbfbf" points="157.5,-433 241.5,-433 "/>
<text text-anchor="middle" x="199.5" y="-421" font-family="Helvetica,sans-Serif" font-size="10.00"> </text>
</a>
</g>
</g>
<!-- Node4&#45;&gt;Node2 -->
<g id="edge3" class="edge">
<title>Node4&#45;&gt;Node2</title>
<path fill="none" stroke="#404040" d="M189.49,-413.77C184.25,-399.26 177.48,-380.52 170.49,-361.17"/>
<polygon fill="none" stroke="#404040" points="170.44,-361.02 164.64,-356.74 166.36,-349.74 172.16,-354.02 170.44,-361.02"/>
<text text-anchor="middle" x="208" y="-371" font-family="Helvetica,sans-Serif" font-size="10.00"> +max_time</text>
</g>
<!-- Node5 -->
<g id="node5" class="node">
<title>Node5</title>
<g id="a_node5"><a xlink:href="structpa_1_1PANOCDirection.html" target="_top" xlink:title=" ">
<polygon fill="white" stroke="black" points="235.5,-210 235.5,-311 385.5,-311 385.5,-210 235.5,-210"/>
<text text-anchor="start" x="243.5" y="-299" font-family="Helvetica,sans-Serif" font-size="10.00">PANOCDirection&lt; Direction</text>
<text text-anchor="middle" x="310.5" y="-288" font-family="Helvetica,sans-Serif" font-size="10.00">Provider &gt;</text>
<polyline fill="none" stroke="black" points="235.5,-281 385.5,-281 "/>
<text text-anchor="middle" x="310.5" y="-269" font-family="Helvetica,sans-Serif" font-size="10.00"> </text>
<polyline fill="none" stroke="black" points="235.5,-262 385.5,-262 "/>
<text text-anchor="start" x="243.5" y="-250" font-family="Helvetica,sans-Serif" font-size="10.00">+ initialize()</text>
<text text-anchor="start" x="243.5" y="-239" font-family="Helvetica,sans-Serif" font-size="10.00">+ update()</text>
<text text-anchor="start" x="243.5" y="-228" font-family="Helvetica,sans-Serif" font-size="10.00">+ apply()</text>
<text text-anchor="start" x="243.5" y="-217" font-family="Helvetica,sans-Serif" font-size="10.00">+ changed_γ()</text>
</a>
</g>
</g>
<!-- Node5&#45;&gt;Node1 -->
<g id="edge4" class="edge">
<title>Node5&#45;&gt;Node1</title>
<path fill="none" stroke="#404040" d="M310.5,-209.91C310.5,-187.54 310.5,-160.67 310.5,-136.06"/>
<polygon fill="none" stroke="#404040" points="310.5,-135.81 306.5,-129.81 310.5,-123.81 314.5,-129.81 310.5,-135.81"/>
<text text-anchor="middle" x="360.5" y="-145" font-family="Helvetica,sans-Serif" font-size="10.00"> +direction_provider</text>
</g>
<!-- Node6 -->
<g id="node6" class="node">
<title>Node6</title>
<g id="a_node6"><a xlink:href="classpa_1_1AtomicStopSignal.html" target="_top" xlink:title=" ">
<polygon fill="white" stroke="black" points="403.5,-199 403.5,-322 525.5,-322 525.5,-199 403.5,-199"/>
<text text-anchor="middle" x="464.5" y="-310" font-family="Helvetica,sans-Serif" font-size="10.00">AtomicStopSignal</text>
<polyline fill="none" stroke="black" points="403.5,-303 525.5,-303 "/>
<text text-anchor="start" x="411.5" y="-291" font-family="Helvetica,sans-Serif" font-size="10.00">&#45; stop_flag</text>
<polyline fill="none" stroke="black" points="403.5,-284 525.5,-284 "/>
<text text-anchor="start" x="411.5" y="-272" font-family="Helvetica,sans-Serif" font-size="10.00">+ AtomicStopSignal()</text>
<text text-anchor="start" x="411.5" y="-261" font-family="Helvetica,sans-Serif" font-size="10.00">+ AtomicStopSignal()</text>
<text text-anchor="start" x="411.5" y="-250" font-family="Helvetica,sans-Serif" font-size="10.00">+ operator=()</text>
<text text-anchor="start" x="411.5" y="-239" font-family="Helvetica,sans-Serif" font-size="10.00">+ AtomicStopSignal()</text>
<text text-anchor="start" x="411.5" y="-228" font-family="Helvetica,sans-Serif" font-size="10.00">+ operator=()</text>
<text text-anchor="start" x="411.5" y="-217" font-family="Helvetica,sans-Serif" font-size="10.00">+ stop()</text>
<text text-anchor="start" x="411.5" y="-206" font-family="Helvetica,sans-Serif" font-size="10.00">+ stop_requested()</text>
</a>
</g>
</g>
<!-- Node6&#45;&gt;Node1 -->
<g id="edge5" class="edge">
<title>Node6&#45;&gt;Node1</title>
<path fill="none" stroke="#404040" d="M445.65,-198.85C437.88,-179.51 427.58,-158.79 414.5,-142 412.06,-138.87 409.47,-135.8 406.76,-132.79"/>
<polygon fill="none" stroke="#404040" points="406.61,-132.63 399.57,-131.07 398.3,-123.98 405.34,-125.53 406.61,-132.63"/>
<text text-anchor="middle" x="452" y="-145" font-family="Helvetica,sans-Serif" font-size="10.00"> &#45;stop_signal</text>
</g>
</g>
</svg>
