<?xml version="1.0" encoding="UTF-8" standalone="no"?>
<!DOCTYPE svg PUBLIC "-//W3C//DTD SVG 1.1//EN"
 "http://www.w3.org/Graphics/SVG/1.1/DTD/svg11.dtd">
<!-- Generated by graphviz version 2.43.0 (0)
 -->
<!-- Title: standard_update Pages: 1 -->
<svg width="506pt" height="256pt"
 viewBox="0.00 0.00 506.00 256.00" xmlns="http://www.w3.org/2000/svg" xmlns:xlink="http://www.w3.org/1999/xlink">
<g id="graph0" class="graph" transform="scale(1 1) rotate(0) translate(4 252)">
<title>standard_update</title>
<polygon fill="white" stroke="transparent" points="-4,4 -4,-252 502,-252 502,4 -4,4"/>
<!-- Node1 -->
<g id="node1" class="node">
<title>Node1</title>
<g id="a_node1"><a xlink:title="Standard L&#45;BFGS update without changing the step size γ.">
<polygon fill="#bfbfbf" stroke="black" points="0,-114.5 0,-133.5 98,-133.5 98,-114.5 0,-114.5"/>
<text text-anchor="middle" x="49" y="-121.5" font-family="Helvetica,sans-Serif" font-size="10.00">standard_update</text>
</a>
</g>
</g>
<!-- Node2 -->
<g id="node2" class="node">
<title>Node2</title>
<g id="a_node2"><a xlink:href="classpa_1_1SpecializedLBFGS.html#a7e9b3fd96d52976693a1fb57fb32ba3c" target="_top" xlink:title=" ">
<polygon fill="white" stroke="black" points="187,-152.5 187,-171.5 216,-171.5 216,-152.5 187,-152.5"/>
<text text-anchor="middle" x="201.5" y="-159.5" font-family="Helvetica,sans-Serif" font-size="10.00">g</text>
</a>
</g>
</g>
<!-- Node1&#45;&gt;Node2 -->
<g id="edge1" class="edge">
<title>Node1&#45;&gt;Node2</title>
<path fill="none" stroke="midnightblue" d="M87.98,-133.59C115.92,-140.64 153.03,-150.01 176.84,-156.03"/>
<polygon fill="midnightblue" stroke="midnightblue" points="176.22,-159.48 186.77,-158.53 177.93,-152.69 176.22,-159.48"/>
</g>
<!-- Node5 -->
<g id="node5" class="node">
<title>Node5</title>
<g id="a_node5"><a xlink:href="classpa_1_1SpecializedLBFGS.html#a644d66009a70ccc909120ba9afa45ea5" target="_top" xlink:title=" ">
<polygon fill="white" stroke="black" points="187,-114.5 187,-133.5 216,-133.5 216,-114.5 187,-114.5"/>
<text text-anchor="middle" x="201.5" y="-121.5" font-family="Helvetica,sans-Serif" font-size="10.00">s</text>
</a>
</g>
</g>
<!-- Node1&#45;&gt;Node5 -->
<g id="edge4" class="edge">
<title>Node1&#45;&gt;Node5</title>
<path fill="none" stroke="midnightblue" d="M98.03,-124C124.28,-124 155.64,-124 176.69,-124"/>
<polygon fill="midnightblue" stroke="midnightblue" points="176.96,-127.5 186.96,-124 176.96,-120.5 176.96,-127.5"/>
</g>
<!-- Node6 -->
<g id="node6" class="node">
<title>Node6</title>
<g id="a_node6"><a xlink:href="classpa_1_1SpecializedLBFGS.html#a0df701f7bb07249c37bcbf20d9c980fe" target="_top" xlink:title="Get the next index in the circular buffer of previous s, y, x and g vectors.">
<polygon fill="white" stroke="black" points="182.5,-228.5 182.5,-247.5 220.5,-247.5 220.5,-228.5 182.5,-228.5"/>
<text text-anchor="middle" x="201.5" y="-235.5" font-family="Helvetica,sans-Serif" font-size="10.00">succ</text>
</a>
</g>
</g>
<!-- Node1&#45;&gt;Node6 -->
<g id="edge6" class="edge">
<title>Node1&#45;&gt;Node6</title>
<path fill="none" stroke="midnightblue" d="M55.85,-133.71C67.96,-152.97 97.68,-196.1 134,-219 145.59,-226.3 160.05,-230.87 172.52,-233.69"/>
<polygon fill="midnightblue" stroke="midnightblue" points="171.94,-237.14 182.43,-235.67 173.31,-230.28 171.94,-237.14"/>
</g>
<!-- Node7 -->
<g id="node7" class="node">
<title>Node7</title>
<g id="a_node7"><a xlink:href="classpa_1_1LBFGS.html#aaf9c6519c7a7d7ab977113f33c88e2e3" target="_top" xlink:title="Check if the new vectors s and y allow for a valid BFGS update that preserves the positive definitene...">
<polygon fill="white" stroke="black" points="134,-0.5 134,-19.5 269,-19.5 269,-0.5 134,-0.5"/>
<text text-anchor="middle" x="201.5" y="-7.5" font-family="Helvetica,sans-Serif" font-size="10.00">pa::LBFGS::update_valid</text>
</a>
</g>
</g>
<!-- Node1&#45;&gt;Node7 -->
<g id="edge8" class="edge">
<title>Node1&#45;&gt;Node7</title>
<path fill="none" stroke="midnightblue" d="M55.85,-114.29C67.96,-95.03 97.68,-51.9 134,-29 137.33,-26.9 140.9,-25.02 144.6,-23.35"/>
<polygon fill="midnightblue" stroke="midnightblue" points="145.98,-26.57 153.96,-19.6 143.38,-20.07 145.98,-26.57"/>
</g>
<!-- Node10 -->
<g id="node10" class="node">
<title>Node10</title>
<g id="a_node10"><a xlink:href="classpa_1_1SpecializedLBFGS.html#ac8fb9b5f7c53b1285867cf99b0f79d17" target="_top" xlink:title=" ">
<polygon fill="white" stroke="black" points="187,-190.5 187,-209.5 216,-209.5 216,-190.5 187,-190.5"/>
<text text-anchor="middle" x="201.5" y="-197.5" font-family="Helvetica,sans-Serif" font-size="10.00">x</text>
</a>
</g>
</g>
<!-- Node1&#45;&gt;Node10 -->
<g id="edge11" class="edge">
<title>Node1&#45;&gt;Node10</title>
<path fill="none" stroke="midnightblue" d="M61.52,-133.59C77.07,-146.1 106.06,-167.94 134,-181 147.6,-187.36 163.77,-192.03 176.76,-195.16"/>
<polygon fill="midnightblue" stroke="midnightblue" points="176.28,-198.64 186.8,-197.42 177.81,-191.81 176.28,-198.64"/>
</g>
<!-- Node11 -->
<g id="node11" class="node">
<title>Node11</title>
<g id="a_node11"><a xlink:href="classpa_1_1SpecializedLBFGS.html#ac18c0672e61d25800877a42a1def3215" target="_top" xlink:title=" ">
<polygon fill="white" stroke="black" points="187,-76.5 187,-95.5 216,-95.5 216,-76.5 187,-76.5"/>
<text text-anchor="middle" x="201.5" y="-83.5" font-family="Helvetica,sans-Serif" font-size="10.00">y</text>
</a>
</g>
</g>
<!-- Node1&#45;&gt;Node11 -->
<g id="edge14" class="edge">
<title>Node1&#45;&gt;Node11</title>
<path fill="none" stroke="midnightblue" d="M87.98,-114.41C115.92,-107.36 153.03,-97.99 176.84,-91.97"/>
<polygon fill="midnightblue" stroke="midnightblue" points="177.93,-95.31 186.77,-89.47 176.22,-88.52 177.93,-95.31"/>
</g>
<!-- Node12 -->
<g id="node12" class="node">
<title>Node12</title>
<g id="a_node12"><a xlink:href="classpa_1_1SpecializedLBFGS.html#a630280b47996370bdb569a2799ffdb9f" target="_top" xlink:title=" ">
<polygon fill="white" stroke="black" points="187,-38.5 187,-57.5 216,-57.5 216,-38.5 187,-38.5"/>
<text text-anchor="middle" x="201.5" y="-45.5" font-family="Helvetica,sans-Serif" font-size="10.00">ρ</text>
</a>
</g>
</g>
<!-- Node1&#45;&gt;Node12 -->
<g id="edge16" class="edge">
<title>Node1&#45;&gt;Node12</title>
<path fill="none" stroke="midnightblue" d="M61.52,-114.41C77.07,-101.9 106.06,-80.06 134,-67 147.6,-60.64 163.77,-55.97 176.76,-52.84"/>
<polygon fill="midnightblue" stroke="midnightblue" points="177.81,-56.19 186.8,-50.58 176.28,-49.36 177.81,-56.19"/>
</g>
<!-- Node3 -->
<g id="node3" class="node">
<title>Node3</title>
<g id="a_node3"><a xlink:href="classpa_1_1SpecializedLBFGS.html#a5b5fd504f983f6b5f9beb1576ebf591a" target="_top" xlink:title="Get the number of previous vectors s, y, x and g stored in the buffer.">
<polygon fill="white" stroke="black" points="319.5,-190.5 319.5,-209.5 369.5,-209.5 369.5,-190.5 319.5,-190.5"/>
<text text-anchor="middle" x="344.5" y="-197.5" font-family="Helvetica,sans-Serif" font-size="10.00">history</text>
</a>
</g>
</g>
<!-- Node2&#45;&gt;Node3 -->
<g id="edge2" class="edge">
<title>Node2&#45;&gt;Node3</title>
<path fill="none" stroke="midnightblue" d="M216.02,-165.64C237.29,-171.38 279.24,-182.68 309.2,-190.76"/>
<polygon fill="midnightblue" stroke="midnightblue" points="308.68,-194.24 319.25,-193.46 310.51,-187.48 308.68,-194.24"/>
</g>
<!-- Node4 -->
<g id="node4" class="node">
<title>Node4</title>
<g id="a_node4"><a xlink:href="classpa_1_1SpecializedLBFGS.html#ac88f0961aa7ed7c7415550ab2cad49c8" target="_top" xlink:title="Get the size of the s, y, x and g vectors in the buffer.">
<polygon fill="white" stroke="black" points="330,-114.5 330,-133.5 359,-133.5 359,-114.5 330,-114.5"/>
<text text-anchor="middle" x="344.5" y="-121.5" font-family="Helvetica,sans-Serif" font-size="10.00">n</text>
</a>
</g>
</g>
<!-- Node2&#45;&gt;Node4 -->
<g id="edge3" class="edge">
<title>Node2&#45;&gt;Node4</title>
<path fill="none" stroke="midnightblue" d="M216.02,-158.36C239.96,-151.9 290.09,-138.39 319.86,-130.37"/>
<polygon fill="midnightblue" stroke="midnightblue" points="321.07,-133.67 329.81,-127.69 319.25,-126.91 321.07,-133.67"/>
</g>
<!-- Node5&#45;&gt;Node4 -->
<g id="edge5" class="edge">
<title>Node5&#45;&gt;Node4</title>
<path fill="none" stroke="midnightblue" d="M216.02,-124C239.86,-124 289.65,-124 319.46,-124"/>
<polygon fill="midnightblue" stroke="midnightblue" points="319.81,-127.5 329.81,-124 319.81,-120.5 319.81,-127.5"/>
</g>
<!-- Node6&#45;&gt;Node3 -->
<g id="edge7" class="edge">
<title>Node6&#45;&gt;Node3</title>
<path fill="none" stroke="midnightblue" d="M220.64,-233.11C243.03,-227.08 281.57,-216.69 309.52,-209.16"/>
<polygon fill="midnightblue" stroke="midnightblue" points="310.54,-212.51 319.29,-206.53 308.72,-205.75 310.54,-212.51"/>
</g>
<!-- Node8 -->
<g id="node8" class="node">
<title>Node8</title>
<g id="a_node8"><a xlink:href="classpa_1_1LBFGS.html#a66eb6e38840a556b4c0f0bff0901f80c" target="_top" xlink:title=" ">
<polygon fill="white" stroke="black" points="305,-0.5 305,-19.5 384,-19.5 384,-0.5 305,-0.5"/>
<text text-anchor="middle" x="344.5" y="-7.5" font-family="Helvetica,sans-Serif" font-size="10.00">pa::LBFGS::α</text>
</a>
</g>
</g>
<!-- Node7&#45;&gt;Node8 -->
<g id="edge9" class="edge">
<title>Node7&#45;&gt;Node8</title>
<path fill="none" stroke="midnightblue" d="M269.28,-10C277.89,-10 286.57,-10 294.82,-10"/>
<polygon fill="midnightblue" stroke="midnightblue" points="294.98,-13.5 304.98,-10 294.98,-6.5 294.98,-13.5"/>
</g>
<!-- Node9 -->
<g id="node9" class="node">
<title>Node9</title>
<g id="a_node9"><a xlink:href="classpa_1_1LBFGS.html#ac88f0961aa7ed7c7415550ab2cad49c8" target="_top" xlink:title="Get the size of the s and y vectors in the buffer.">
<polygon fill="white" stroke="black" points="420,-0.5 420,-19.5 498,-19.5 498,-0.5 420,-0.5"/>
<text text-anchor="middle" x="459" y="-7.5" font-family="Helvetica,sans-Serif" font-size="10.00">pa::LBFGS::n</text>
</a>
</g>
</g>
<!-- Node8&#45;&gt;Node9 -->
<g id="edge10" class="edge">
<title>Node8&#45;&gt;Node9</title>
<path fill="none" stroke="midnightblue" d="M384.22,-10C392.44,-10 401.22,-10 409.75,-10"/>
<polygon fill="midnightblue" stroke="midnightblue" points="409.97,-13.5 419.97,-10 409.97,-6.5 409.97,-13.5"/>
</g>
<!-- Node10&#45;&gt;Node3 -->
<g id="edge12" class="edge">
<title>Node10&#45;&gt;Node3</title>
<path fill="none" stroke="midnightblue" d="M216.02,-200C237.29,-200 279.24,-200 309.2,-200"/>
<polygon fill="midnightblue" stroke="midnightblue" points="309.25,-203.5 319.25,-200 309.25,-196.5 309.25,-203.5"/>
</g>
<!-- Node10&#45;&gt;Node4 -->
<g id="edge13" class="edge">
<title>Node10&#45;&gt;Node4</title>
<path fill="none" stroke="midnightblue" d="M216.04,-197.68C229.88,-194.96 251.73,-189.68 269,-181 290.17,-170.36 311.33,-153.41 325.66,-140.76"/>
<polygon fill="midnightblue" stroke="midnightblue" points="328.19,-143.19 333.26,-133.88 323.5,-138 328.19,-143.19"/>
</g>
<!-- Node11&#45;&gt;Node4 -->
<g id="edge15" class="edge">
<title>Node11&#45;&gt;Node4</title>
<path fill="none" stroke="midnightblue" d="M216.02,-89.64C239.96,-96.1 290.09,-109.61 319.86,-117.63"/>
<polygon fill="midnightblue" stroke="midnightblue" points="319.25,-121.09 329.81,-120.31 321.07,-114.33 319.25,-121.09"/>
</g>
<!-- Node12&#45;&gt;Node4 -->
<g id="edge17" class="edge">
<title>Node12&#45;&gt;Node4</title>
<path fill="none" stroke="midnightblue" d="M216.04,-50.32C229.88,-53.04 251.73,-58.32 269,-67 290.17,-77.64 311.33,-94.59 325.66,-107.24"/>
<polygon fill="midnightblue" stroke="midnightblue" points="323.5,-110 333.26,-114.12 328.19,-104.81 323.5,-110"/>
</g>
</g>
</svg>
