<?xml version="1.0" encoding="UTF-8" standalone="no"?>
<!DOCTYPE svg PUBLIC "-//W3C//DTD SVG 1.1//EN"
 "http://www.w3.org/Graphics/SVG/1.1/DTD/svg11.dtd">
<!-- Generated by graphviz version 2.43.0 (0)
 -->
<!-- Title: operator() Pages: 1 -->
<svg width="856pt" height="455pt"
 viewBox="0.00 0.00 856.00 455.00" xmlns="http://www.w3.org/2000/svg" xmlns:xlink="http://www.w3.org/1999/xlink">
<g id="graph0" class="graph" transform="scale(1 1) rotate(0) translate(4 451)">
<title>operator()</title>
<polygon fill="white" stroke="transparent" points="-4,4 -4,-451 852,-451 852,4 -4,4"/>
<!-- Node1 -->
<g id="node1" class="node">
<title>Node1</title>
<g id="a_node1"><a xlink:title=" ">
<polygon fill="#bfbfbf" stroke="black" points="0,-230 0,-249 65,-249 65,-230 0,-230"/>
<text text-anchor="middle" x="32.5" y="-237" font-family="Helvetica,sans-Serif" font-size="10.00">operator()</text>
</a>
</g>
</g>
<!-- Node2 -->
<g id="node2" class="node">
<title>Node2</title>
<g id="a_node2"><a xlink:href="namespacepa_1_1detail.html#afa4897c33999179a21da8a5cfde12178" target="_top" xlink:title="Compute the Hessian matrix of the augmented Lagrangian function.">
<polygon fill="white" stroke="black" points="101,-416.5 101,-446.5 250,-446.5 250,-416.5 101,-416.5"/>
<text text-anchor="start" x="109" y="-434.5" font-family="Helvetica,sans-Serif" font-size="10.00">pa::detail::calc_augmented</text>
<text text-anchor="middle" x="175.5" y="-423.5" font-family="Helvetica,sans-Serif" font-size="10.00">_lagrangian_hessian</text>
</a>
</g>
</g>
<!-- Node1&#45;&gt;Node2 -->
<g id="edge1" class="edge">
<title>Node1&#45;&gt;Node2</title>
<path fill="none" stroke="midnightblue" d="M34.92,-249.34C39.42,-277.05 55.81,-356.64 101,-401.5 104.75,-405.23 109.04,-408.51 113.6,-411.4"/>
<polygon fill="midnightblue" stroke="midnightblue" points="112.24,-414.65 122.67,-416.49 115.66,-408.54 112.24,-414.65"/>
</g>
<!-- Node3 -->
<g id="node3" class="node">
<title>Node3</title>
<g id="a_node3"><a xlink:href="namespacepa_1_1detail.html#a22e222a3f2d7f01ceee380154e140ea9" target="_top" xlink:title="Calculate the error between ẑ and g(x).">
<polygon fill="white" stroke="black" points="617,-356 617,-375 734,-375 734,-356 617,-356"/>
<text text-anchor="middle" x="675.5" y="-363" font-family="Helvetica,sans-Serif" font-size="10.00">pa::detail::calc_err_z</text>
</a>
</g>
</g>
<!-- Node1&#45;&gt;Node3 -->
<g id="edge2" class="edge">
<title>Node1&#45;&gt;Node3</title>
<path fill="none" stroke="midnightblue" d="M35.95,-249.27C42.25,-272.05 61.35,-328.46 101,-351.5 274.58,-452.37 530.38,-403.07 631.3,-377.55"/>
<polygon fill="midnightblue" stroke="midnightblue" points="632.33,-380.9 641.14,-375.01 630.58,-374.12 632.33,-380.9"/>
</g>
<!-- Node5 -->
<g id="node5" class="node">
<title>Node5</title>
<g id="a_node5"><a xlink:href="namespacepa_1_1detail.html#a886972efd9fe413c62efea5eb2cdd0e9" target="_top" xlink:title=" ">
<polygon fill="white" stroke="black" points="117.5,-76.5 117.5,-106.5 233.5,-106.5 233.5,-76.5 117.5,-76.5"/>
<text text-anchor="start" x="125.5" y="-94.5" font-family="Helvetica,sans-Serif" font-size="10.00">pa::detail::calc_error</text>
<text text-anchor="middle" x="175.5" y="-83.5" font-family="Helvetica,sans-Serif" font-size="10.00">_stop_crit</text>
</a>
</g>
</g>
<!-- Node1&#45;&gt;Node5 -->
<g id="edge4" class="edge">
<title>Node1&#45;&gt;Node5</title>
<path fill="none" stroke="midnightblue" d="M36.57,-229.83C44.06,-207.67 65.32,-152.76 101,-121.5 105.38,-117.66 110.32,-114.27 115.52,-111.29"/>
<polygon fill="midnightblue" stroke="midnightblue" points="117.19,-114.36 124.44,-106.64 113.96,-108.15 117.19,-114.36"/>
</g>
<!-- Node8 -->
<g id="node8" class="node">
<title>Node8</title>
<g id="a_node8"><a xlink:href="namespacepa_1_1detail.html#a908a0589ddf8734417f5481395e197d2" target="_top" xlink:title="Calculate ∇ψ(x) using ŷ.">
<polygon fill="white" stroke="black" points="450,-170.5 450,-200.5 565,-200.5 565,-170.5 450,-170.5"/>
<text text-anchor="start" x="458" y="-188.5" font-family="Helvetica,sans-Serif" font-size="10.00">pa::detail::calc_grad</text>
<text text-anchor="middle" x="507.5" y="-177.5" font-family="Helvetica,sans-Serif" font-size="10.00">_ψ_from_ŷ</text>
</a>
</g>
</g>
<!-- Node1&#45;&gt;Node8 -->
<g id="edge7" class="edge">
<title>Node1&#45;&gt;Node8</title>
<path fill="none" stroke="midnightblue" d="M43.46,-229.9C55.8,-218.71 78.03,-200.83 101,-193.5 215.62,-156.92 357.89,-165.61 439.83,-175.43"/>
<polygon fill="midnightblue" stroke="midnightblue" points="439.41,-178.9 449.76,-176.66 440.27,-171.96 439.41,-178.9"/>
</g>
<!-- Node9 -->
<g id="node9" class="node">
<title>Node9</title>
<g id="a_node9"><a xlink:href="namespacepa_1_1detail.html#ac32d0e6b012b801731e55225b7505fa9" target="_top" xlink:title=" ">
<polygon fill="white" stroke="black" points="297.5,-126 297.5,-145 396.5,-145 396.5,-126 297.5,-126"/>
<text text-anchor="middle" x="347" y="-133" font-family="Helvetica,sans-Serif" font-size="10.00">pa::detail::calc_x̂</text>
</a>
</g>
</g>
<!-- Node1&#45;&gt;Node9 -->
<g id="edge8" class="edge">
<title>Node1&#45;&gt;Node9</title>
<path fill="none" stroke="midnightblue" d="M38.4,-229.77C47.82,-212.23 70.27,-175.64 101,-159.5 158.99,-129.03 235.37,-126.44 287.33,-129.27"/>
<polygon fill="midnightblue" stroke="midnightblue" points="287.18,-132.77 297.38,-129.91 287.62,-125.78 287.18,-132.77"/>
</g>
<!-- Node10 -->
<g id="node10" class="node">
<title>Node10</title>
<g id="a_node10"><a xlink:href="namespacepa_1_1detail.html#aa986daa1d5f0dfdbc75c143d2aae2919" target="_top" xlink:title="Calculate both ψ(x) and its gradient ∇ψ(x).">
<polygon fill="white" stroke="black" points="297,-246.5 297,-276.5 397,-276.5 397,-246.5 297,-246.5"/>
<text text-anchor="start" x="305" y="-264.5" font-family="Helvetica,sans-Serif" font-size="10.00">pa::detail::calc_ψ</text>
<text text-anchor="middle" x="347" y="-253.5" font-family="Helvetica,sans-Serif" font-size="10.00">_grad_ψ</text>
</a>
</g>
</g>
<!-- Node1&#45;&gt;Node10 -->
<g id="edge10" class="edge">
<title>Node1&#45;&gt;Node10</title>
<path fill="none" stroke="midnightblue" d="M65.18,-241.73C117.03,-245.38 220.8,-252.69 286.64,-257.32"/>
<polygon fill="midnightblue" stroke="midnightblue" points="286.65,-260.83 296.87,-258.04 287.14,-253.85 286.65,-260.83"/>
</g>
<!-- Node11 -->
<g id="node11" class="node">
<title>Node11</title>
<g id="a_node11"><a xlink:href="namespacepa_1_1detail.html#a82a03662e6ce5bcfd57ee2df719aec21" target="_top" xlink:title="Calculate both ψ(x) and the vector ŷ that can later be used to compute ∇ψ.">
<polygon fill="white" stroke="black" points="452,-255 452,-274 563,-274 563,-255 452,-255"/>
<text text-anchor="middle" x="507.5" y="-262" font-family="Helvetica,sans-Serif" font-size="10.00">pa::detail::calc_ψ_ŷ</text>
</a>
</g>
</g>
<!-- Node1&#45;&gt;Node11 -->
<g id="edge15" class="edge">
<title>Node1&#45;&gt;Node11</title>
<path fill="none" stroke="midnightblue" d="M37.21,-249.3C45.29,-269.03 66.56,-313.17 101,-330.5 160.15,-360.27 184.3,-338.82 250,-330.5 329.59,-320.42 419.84,-293.42 469.25,-277.25"/>
<polygon fill="midnightblue" stroke="midnightblue" points="470.47,-280.53 478.86,-274.07 468.27,-273.89 470.47,-280.53"/>
</g>
<!-- Node13 -->
<g id="node13" class="node">
<title>Node13</title>
<g id="a_node13"><a xlink:href="namespacepa_1_1detail.html#aa916ebec71616d1d0379aaaaca02fc19" target="_top" xlink:title="Check all stop conditions (required tolerance reached, out of time, maximum number of iterations exce...">
<polygon fill="white" stroke="black" points="118.5,-14.5 118.5,-44.5 232.5,-44.5 232.5,-14.5 118.5,-14.5"/>
<text text-anchor="start" x="126.5" y="-32.5" font-family="Helvetica,sans-Serif" font-size="10.00">pa::detail::check_all</text>
<text text-anchor="middle" x="175.5" y="-21.5" font-family="Helvetica,sans-Serif" font-size="10.00">_stop_conditions</text>
</a>
</g>
</g>
<!-- Node1&#45;&gt;Node13 -->
<g id="edge16" class="edge">
<title>Node1&#45;&gt;Node13</title>
<path fill="none" stroke="midnightblue" d="M34.84,-229.6C39.2,-200.91 55.44,-116.58 101,-66.5 107.14,-59.75 114.8,-54.06 122.83,-49.33"/>
<polygon fill="midnightblue" stroke="midnightblue" points="124.5,-52.4 131.63,-44.57 121.17,-46.25 124.5,-52.4"/>
</g>
<!-- Node15 -->
<g id="node15" class="node">
<title>Node15</title>
<g id="a_node15"><a xlink:href="namespacepa_1_1detail.html#adb5e65f5b5c52143daa1fc61c0f95d4e" target="_top" xlink:title="Increase the estimate of the Lipschitz constant of the objective gradient and decrease the step size ...">
<polygon fill="white" stroke="black" points="122,-202.5 122,-232.5 229,-232.5 229,-202.5 122,-202.5"/>
<text text-anchor="start" x="130" y="-220.5" font-family="Helvetica,sans-Serif" font-size="10.00">pa::detail::descent</text>
<text text-anchor="middle" x="175.5" y="-209.5" font-family="Helvetica,sans-Serif" font-size="10.00">_lemma</text>
</a>
</g>
</g>
<!-- Node1&#45;&gt;Node15 -->
<g id="edge18" class="edge">
<title>Node1&#45;&gt;Node15</title>
<path fill="none" stroke="midnightblue" d="M65.14,-234.56C78.99,-232.4 95.76,-229.79 111.95,-227.26"/>
<polygon fill="midnightblue" stroke="midnightblue" points="112.59,-230.7 121.93,-225.7 111.51,-223.79 112.59,-230.7"/>
</g>
<!-- Node16 -->
<g id="node16" class="node">
<title>Node16</title>
<g id="a_node16"><a xlink:href="namespacepa_1_1detail.html#a24c0ce181607512a70dae43aa90fea5f" target="_top" xlink:title=" ">
<polygon fill="white" stroke="black" points="120,-290.5 120,-320.5 231,-320.5 231,-290.5 120,-290.5"/>
<text text-anchor="start" x="128" y="-308.5" font-family="Helvetica,sans-Serif" font-size="10.00">pa::detail::initial</text>
<text text-anchor="middle" x="175.5" y="-297.5" font-family="Helvetica,sans-Serif" font-size="10.00">_lipschitz_estimate</text>
</a>
</g>
</g>
<!-- Node1&#45;&gt;Node16 -->
<g id="edge21" class="edge">
<title>Node1&#45;&gt;Node16</title>
<path fill="none" stroke="midnightblue" d="M50.18,-249.01C63.69,-256.57 83.33,-267.21 101,-275.5 108.98,-279.24 117.55,-282.99 125.94,-286.5"/>
<polygon fill="midnightblue" stroke="midnightblue" points="124.69,-289.77 135.27,-290.35 127.36,-283.3 124.69,-289.77"/>
</g>
<!-- Node4 -->
<g id="node4" class="node">
<title>Node4</title>
<g id="a_node4"><a xlink:href="namespacepa.html#a5414901c2fb62f1fd47857642964cc71" target="_top" xlink:title="Project a vector onto a box.">
<polygon fill="white" stroke="black" points="780,-315 780,-334 848,-334 848,-315 780,-315"/>
<text text-anchor="middle" x="814" y="-322" font-family="Helvetica,sans-Serif" font-size="10.00">pa::project</text>
</a>
</g>
</g>
<!-- Node3&#45;&gt;Node4 -->
<g id="edge3" class="edge">
<title>Node3&#45;&gt;Node4</title>
<path fill="none" stroke="midnightblue" d="M708.16,-355.99C726.97,-350.34 751.06,-343.11 771.4,-337"/>
<polygon fill="midnightblue" stroke="midnightblue" points="772.47,-340.33 781.04,-334.1 770.46,-333.62 772.47,-340.33"/>
</g>
<!-- Node6 -->
<g id="node6" class="node">
<title>Node6</title>
<g id="a_node6"><a xlink:href="namespacepa_1_1vec__util.html#af8e650634ec3d7b82a78a4d313632ed0" target="_top" xlink:title="Get the maximum or infinity&#45;norm of the given vector.">
<polygon fill="white" stroke="black" points="286,-50 286,-69 408,-69 408,-50 286,-50"/>
<text text-anchor="middle" x="347" y="-57" font-family="Helvetica,sans-Serif" font-size="10.00">pa::vec_util::norm_inf</text>
</a>
</g>
</g>
<!-- Node5&#45;&gt;Node6 -->
<g id="edge5" class="edge">
<title>Node5&#45;&gt;Node6</title>
<path fill="none" stroke="midnightblue" d="M233.88,-80.67C250.43,-77.54 268.53,-74.13 285.27,-70.97"/>
<polygon fill="midnightblue" stroke="midnightblue" points="286.31,-74.33 295.49,-69.04 285.01,-67.45 286.31,-74.33"/>
</g>
<!-- Node7 -->
<g id="node7" class="node">
<title>Node7</title>
<g id="a_node7"><a xlink:href="namespacepa_1_1detail.html#a8ed4d487878856942843707b5a131b85" target="_top" xlink:title="Projected gradient step.">
<polygon fill="white" stroke="black" points="450.5,-108.5 450.5,-138.5 564.5,-138.5 564.5,-108.5 450.5,-108.5"/>
<text text-anchor="start" x="458.5" y="-126.5" font-family="Helvetica,sans-Serif" font-size="10.00">pa::detail::projected</text>
<text text-anchor="middle" x="507.5" y="-115.5" font-family="Helvetica,sans-Serif" font-size="10.00">_gradient_step</text>
</a>
</g>
</g>
<!-- Node5&#45;&gt;Node7 -->
<g id="edge6" class="edge">
<title>Node5&#45;&gt;Node7</title>
<path fill="none" stroke="midnightblue" d="M233.6,-97.04C291.06,-102.61 379.61,-111.2 440.15,-117.07"/>
<polygon fill="midnightblue" stroke="midnightblue" points="440.08,-120.58 450.37,-118.06 440.75,-113.61 440.08,-120.58"/>
</g>
<!-- Node9&#45;&gt;Node7 -->
<g id="edge9" class="edge">
<title>Node9&#45;&gt;Node7</title>
<path fill="none" stroke="midnightblue" d="M396.85,-131.8C410.46,-130.77 425.49,-129.63 439.93,-128.54"/>
<polygon fill="midnightblue" stroke="midnightblue" points="440.62,-132 450.32,-127.75 440.09,-125.02 440.62,-132"/>
</g>
<!-- Node10&#45;&gt;Node8 -->
<g id="edge11" class="edge">
<title>Node10&#45;&gt;Node8</title>
<path fill="none" stroke="midnightblue" d="M379.31,-246.48C404.09,-234.6 438.88,-217.92 465.81,-205.01"/>
<polygon fill="midnightblue" stroke="midnightblue" points="467.48,-208.09 474.98,-200.61 464.45,-201.78 467.48,-208.09"/>
</g>
<!-- Node10&#45;&gt;Node11 -->
<g id="edge12" class="edge">
<title>Node10&#45;&gt;Node11</title>
<path fill="none" stroke="midnightblue" d="M397.28,-262.43C411.31,-262.7 426.81,-262.99 441.61,-263.27"/>
<polygon fill="midnightblue" stroke="midnightblue" points="441.66,-266.77 451.73,-263.46 441.8,-259.77 441.66,-266.77"/>
</g>
<!-- Node12 -->
<g id="node12" class="node">
<title>Node12</title>
<g id="a_node12"><a xlink:href="namespacepa.html#aee505a26e46aa4c0ce09d0fed72f0dac" target="_top" xlink:title="Get the difference between the given vector and its projection.">
<polygon fill="white" stroke="black" points="607,-296 607,-315 744,-315 744,-296 607,-296"/>
<text text-anchor="middle" x="675.5" y="-303" font-family="Helvetica,sans-Serif" font-size="10.00">pa::projecting_difference</text>
</a>
</g>
</g>
<!-- Node11&#45;&gt;Node12 -->
<g id="edge13" class="edge">
<title>Node11&#45;&gt;Node12</title>
<path fill="none" stroke="midnightblue" d="M547,-274.01C570.59,-279.84 600.99,-287.34 626.19,-293.57"/>
<polygon fill="midnightblue" stroke="midnightblue" points="625.37,-296.97 635.92,-295.97 627.05,-290.18 625.37,-296.97"/>
</g>
<!-- Node12&#45;&gt;Node4 -->
<g id="edge14" class="edge">
<title>Node12&#45;&gt;Node4</title>
<path fill="none" stroke="midnightblue" d="M744.35,-314.94C753.01,-316.15 761.67,-317.36 769.79,-318.49"/>
<polygon fill="midnightblue" stroke="midnightblue" points="769.35,-321.96 779.73,-319.87 770.31,-315.02 769.35,-321.96"/>
</g>
<!-- Node14 -->
<g id="node14" class="node">
<title>Node14</title>
<g id="a_node14"><a xlink:href="classpa_1_1AtomicStopSignal.html#aa0097deccc19b49f8ab5344d8d6d5cf6" target="_top" xlink:title=" ">
<polygon fill="white" stroke="black" points="286.5,-0.5 286.5,-30.5 407.5,-30.5 407.5,-0.5 286.5,-0.5"/>
<text text-anchor="start" x="294.5" y="-18.5" font-family="Helvetica,sans-Serif" font-size="10.00">pa::AtomicStopSignal</text>
<text text-anchor="middle" x="347" y="-7.5" font-family="Helvetica,sans-Serif" font-size="10.00">::stop_requested</text>
</a>
</g>
</g>
<!-- Node13&#45;&gt;Node14 -->
<g id="edge17" class="edge">
<title>Node13&#45;&gt;Node14</title>
<path fill="none" stroke="midnightblue" d="M232.94,-24.84C246.74,-23.7 261.66,-22.47 276,-21.28"/>
<polygon fill="midnightblue" stroke="midnightblue" points="276.64,-24.74 286.32,-20.43 276.06,-17.76 276.64,-24.74"/>
</g>
<!-- Node15&#45;&gt;Node9 -->
<g id="edge19" class="edge">
<title>Node15&#45;&gt;Node9</title>
<path fill="none" stroke="midnightblue" d="M207.59,-202.46C238.81,-187.36 286.53,-164.27 316.99,-149.53"/>
<polygon fill="midnightblue" stroke="midnightblue" points="318.75,-152.57 326.23,-145.06 315.7,-146.27 318.75,-152.57"/>
</g>
<!-- Node15&#45;&gt;Node11 -->
<g id="edge20" class="edge">
<title>Node15&#45;&gt;Node11</title>
<path fill="none" stroke="midnightblue" d="M229.26,-219.33C276.42,-221.62 347.24,-226.64 408,-237.5 427.79,-241.04 449.37,-246.74 467.28,-251.99"/>
<polygon fill="midnightblue" stroke="midnightblue" points="466.5,-255.41 477.08,-254.93 468.5,-248.71 466.5,-255.41"/>
</g>
<!-- Node16&#45;&gt;Node10 -->
<g id="edge24" class="edge">
<title>Node16&#45;&gt;Node10</title>
<path fill="none" stroke="midnightblue" d="M231.06,-291.34C248.95,-286.69 268.89,-281.52 287.08,-276.79"/>
<polygon fill="midnightblue" stroke="midnightblue" points="288.18,-280.12 296.98,-274.22 286.42,-273.35 288.18,-280.12"/>
</g>
<!-- Node17 -->
<g id="node17" class="node">
<title>Node17</title>
<g id="a_node17"><a xlink:href="namespacepa_1_1detail.html#a6572cf745448d2b40e9d5e977d17d5e2" target="_top" xlink:title="Calculate the gradient ∇ψ(x).">
<polygon fill="white" stroke="black" points="444,-296 444,-315 571,-315 571,-296 444,-296"/>
<text text-anchor="middle" x="507.5" y="-303" font-family="Helvetica,sans-Serif" font-size="10.00">pa::detail::calc_grad_ψ</text>
</a>
</g>
</g>
<!-- Node16&#45;&gt;Node17 -->
<g id="edge22" class="edge">
<title>Node16&#45;&gt;Node17</title>
<path fill="none" stroke="midnightblue" d="M231.36,-305.5C286.72,-305.5 372.51,-305.5 433.56,-305.5"/>
<polygon fill="midnightblue" stroke="midnightblue" points="433.9,-309 443.9,-305.5 433.9,-302 433.9,-309"/>
</g>
<!-- Node17&#45;&gt;Node12 -->
<g id="edge23" class="edge">
<title>Node17&#45;&gt;Node12</title>
<path fill="none" stroke="midnightblue" d="M571.26,-305.5C579.64,-305.5 588.31,-305.5 596.91,-305.5"/>
<polygon fill="midnightblue" stroke="midnightblue" points="596.94,-309 606.94,-305.5 596.94,-302 596.94,-309"/>
</g>
</g>
</svg>
