<?xml version="1.0" encoding="UTF-8" standalone="no"?>
<!DOCTYPE svg PUBLIC "-//W3C//DTD SVG 1.1//EN"
 "http://www.w3.org/Graphics/SVG/1.1/DTD/svg11.dtd">
<!-- Generated by graphviz version 2.43.0 (0)
 -->
<!-- Title: n Pages: 1 -->
<svg width="583pt" height="357pt"
 viewBox="0.00 0.00 583.00 356.65" xmlns="http://www.w3.org/2000/svg" xmlns:xlink="http://www.w3.org/1999/xlink">
<g id="graph0" class="graph" transform="scale(1 1) rotate(0) translate(4 352.65)">
<title>n</title>
<polygon fill="white" stroke="transparent" points="-4,4 -4,-352.65 579,-352.65 579,4 -4,4"/>
<!-- Node1 -->
<g id="node1" class="node">
<title>Node1</title>
<g id="a_node1"><a xlink:title="Get the size of the s, y, x and g vectors in the buffer.">
<polygon fill="#bfbfbf" stroke="black" points="546,-171.5 546,-190.5 575,-190.5 575,-171.5 546,-171.5"/>
<text text-anchor="middle" x="560.5" y="-178.5" font-family="Helvetica,sans-Serif" font-size="10.00">n</text>
</a>
</g>
</g>
<!-- Node2 -->
<g id="node2" class="node">
<title>Node2</title>
<g id="a_node2"><a xlink:href="classpa_1_1SpecializedLBFGS.html#a3633932c88d15ff3118f72a11f4c58e4" target="_top" xlink:title=" ">
<polygon fill="white" stroke="black" points="324,-323.5 324,-342.5 428,-342.5 428,-323.5 324,-323.5"/>
<text text-anchor="middle" x="376" y="-330.5" font-family="Helvetica,sans-Serif" font-size="10.00">SpecializedLBFGS</text>
</a>
</g>
</g>
<!-- Node1&#45;&gt;Node2 -->
<g id="edge1" class="edge">
<title>Node1&#45;&gt;Node2</title>
<path fill="none" stroke="midnightblue" d="M559.81,-201.07C559.11,-234.85 552.19,-302.37 510,-333 480.66,-354.3 437.29,-349.47 408.13,-342.56"/>
<polygon fill="midnightblue" stroke="midnightblue" points="563.31,-200.65 559.85,-190.64 556.31,-200.63 563.31,-200.65"/>
</g>
<!-- Node3 -->
<g id="node3" class="node">
<title>Node3</title>
<g id="a_node3"><a xlink:href="classpa_1_1SpecializedLBFGS.html#a7e9b3fd96d52976693a1fb57fb32ba3c" target="_top" xlink:title=" ">
<polygon fill="white" stroke="black" points="472.5,-266.5 472.5,-285.5 501.5,-285.5 501.5,-266.5 472.5,-266.5"/>
<text text-anchor="middle" x="487" y="-273.5" font-family="Helvetica,sans-Serif" font-size="10.00">g</text>
</a>
</g>
</g>
<!-- Node1&#45;&gt;Node3 -->
<g id="edge2" class="edge">
<title>Node1&#45;&gt;Node3</title>
<path fill="none" stroke="midnightblue" d="M549.34,-199.66C540.16,-215.7 525.7,-239.03 510,-257 507.21,-260.19 503.88,-263.34 500.67,-266.12"/>
<polygon fill="midnightblue" stroke="midnightblue" points="552.51,-201.16 554.34,-190.72 546.41,-197.74 552.51,-201.16"/>
</g>
<!-- Node11 -->
<g id="node11" class="node">
<title>Node11</title>
<g id="a_node11"><a xlink:href="classpa_1_1SpecializedLBFGS.html#a9cb23d843dff87dd08bd5a916d9eed95" target="_top" xlink:title=" ">
<polygon fill="white" stroke="black" points="472.5,-190.5 472.5,-209.5 501.5,-209.5 501.5,-190.5 472.5,-190.5"/>
<text text-anchor="middle" x="487" y="-197.5" font-family="Helvetica,sans-Serif" font-size="10.00">p</text>
</a>
</g>
</g>
<!-- Node1&#45;&gt;Node11 -->
<g id="edge11" class="edge">
<title>Node1&#45;&gt;Node11</title>
<path fill="none" stroke="midnightblue" d="M535.98,-187.25C524.64,-190.26 511.43,-193.77 501.74,-196.35"/>
<polygon fill="midnightblue" stroke="midnightblue" points="536.95,-190.61 545.71,-184.66 535.15,-183.85 536.95,-190.61"/>
</g>
<!-- Node12 -->
<g id="node12" class="node">
<title>Node12</title>
<g id="a_node12"><a xlink:href="classpa_1_1SpecializedLBFGS.html#ab94b4f1bcda8e0f0bace15126f54b6d3" target="_top" xlink:title="Re&#45;allocate storage for a problem with a different size.">
<polygon fill="white" stroke="black" points="464,-304.5 464,-323.5 510,-323.5 510,-304.5 464,-304.5"/>
<text text-anchor="middle" x="487" y="-311.5" font-family="Helvetica,sans-Serif" font-size="10.00">resize</text>
</a>
</g>
</g>
<!-- Node1&#45;&gt;Node12 -->
<g id="edge13" class="edge">
<title>Node1&#45;&gt;Node12</title>
<path fill="none" stroke="midnightblue" d="M554.07,-200.23C546.72,-224.06 531.95,-265.15 510,-295 507.49,-298.42 504.26,-301.63 501.05,-304.42"/>
<polygon fill="midnightblue" stroke="midnightblue" points="557.44,-201.19 556.93,-190.6 550.73,-199.2 557.44,-201.19"/>
</g>
<!-- Node13 -->
<g id="node13" class="node">
<title>Node13</title>
<g id="a_node13"><a xlink:href="classpa_1_1SpecializedLBFGS.html#a644d66009a70ccc909120ba9afa45ea5" target="_top" xlink:title=" ">
<polygon fill="white" stroke="black" points="472.5,-114.5 472.5,-133.5 501.5,-133.5 501.5,-114.5 472.5,-114.5"/>
<text text-anchor="middle" x="487" y="-121.5" font-family="Helvetica,sans-Serif" font-size="10.00">s</text>
</a>
</g>
</g>
<!-- Node1&#45;&gt;Node13 -->
<g id="edge15" class="edge">
<title>Node1&#45;&gt;Node13</title>
<path fill="none" stroke="midnightblue" d="M539.21,-164.82C526.53,-154.72 510.64,-142.05 499.95,-133.53"/>
<polygon fill="midnightblue" stroke="midnightblue" points="537.37,-167.83 547.37,-171.33 541.73,-162.36 537.37,-167.83"/>
</g>
<!-- Node16 -->
<g id="node16" class="node">
<title>Node16</title>
<g id="a_node16"><a xlink:href="classpa_1_1SpecializedLBFGS.html#a45235c456e26733897f13bbf1057323e" target="_top" xlink:title=" ">
<polygon fill="white" stroke="black" points="472.5,-152.5 472.5,-171.5 501.5,-171.5 501.5,-152.5 472.5,-152.5"/>
<text text-anchor="middle" x="487" y="-159.5" font-family="Helvetica,sans-Serif" font-size="10.00">w</text>
</a>
</g>
</g>
<!-- Node1&#45;&gt;Node16 -->
<g id="edge20" class="edge">
<title>Node1&#45;&gt;Node16</title>
<path fill="none" stroke="midnightblue" d="M535.98,-174.75C524.64,-171.74 511.43,-168.23 501.74,-165.65"/>
<polygon fill="midnightblue" stroke="midnightblue" points="535.15,-178.15 545.71,-177.34 536.95,-171.39 535.15,-178.15"/>
</g>
<!-- Node17 -->
<g id="node17" class="node">
<title>Node17</title>
<g id="a_node17"><a xlink:href="classpa_1_1SpecializedLBFGS.html#ac8fb9b5f7c53b1285867cf99b0f79d17" target="_top" xlink:title=" ">
<polygon fill="white" stroke="black" points="472.5,-228.5 472.5,-247.5 501.5,-247.5 501.5,-228.5 472.5,-228.5"/>
<text text-anchor="middle" x="487" y="-235.5" font-family="Helvetica,sans-Serif" font-size="10.00">x</text>
</a>
</g>
</g>
<!-- Node1&#45;&gt;Node17 -->
<g id="edge22" class="edge">
<title>Node1&#45;&gt;Node17</title>
<path fill="none" stroke="midnightblue" d="M539.21,-197.18C526.53,-207.28 510.64,-219.95 499.95,-228.47"/>
<polygon fill="midnightblue" stroke="midnightblue" points="541.73,-199.64 547.37,-190.67 537.37,-194.17 541.73,-199.64"/>
</g>
<!-- Node18 -->
<g id="node18" class="node">
<title>Node18</title>
<g id="a_node18"><a xlink:href="classpa_1_1SpecializedLBFGS.html#ac18c0672e61d25800877a42a1def3215" target="_top" xlink:title=" ">
<polygon fill="white" stroke="black" points="472.5,-76.5 472.5,-95.5 501.5,-95.5 501.5,-76.5 472.5,-76.5"/>
<text text-anchor="middle" x="487" y="-83.5" font-family="Helvetica,sans-Serif" font-size="10.00">y</text>
</a>
</g>
</g>
<!-- Node1&#45;&gt;Node18 -->
<g id="edge27" class="edge">
<title>Node1&#45;&gt;Node18</title>
<path fill="none" stroke="midnightblue" d="M549.34,-162.34C540.16,-146.3 525.7,-122.97 510,-105 507.21,-101.81 503.88,-98.66 500.67,-95.88"/>
<polygon fill="midnightblue" stroke="midnightblue" points="546.41,-164.26 554.34,-171.28 552.51,-160.84 546.41,-164.26"/>
</g>
<!-- Node19 -->
<g id="node19" class="node">
<title>Node19</title>
<g id="a_node19"><a xlink:href="classpa_1_1SpecializedLBFGS.html#a66eb6e38840a556b4c0f0bff0901f80c" target="_top" xlink:title=" ">
<polygon fill="white" stroke="black" points="472.5,-0.5 472.5,-19.5 501.5,-19.5 501.5,-0.5 472.5,-0.5"/>
<text text-anchor="middle" x="487" y="-7.5" font-family="Helvetica,sans-Serif" font-size="10.00">α</text>
</a>
</g>
</g>
<!-- Node1&#45;&gt;Node19 -->
<g id="edge31" class="edge">
<title>Node1&#45;&gt;Node19</title>
<path fill="none" stroke="midnightblue" d="M556.55,-161.12C551.28,-130.58 538.06,-71.22 510,-29 507.77,-25.64 504.78,-22.52 501.73,-19.83"/>
<polygon fill="midnightblue" stroke="midnightblue" points="553.15,-162 558.19,-171.32 560.06,-160.89 553.15,-162"/>
</g>
<!-- Node20 -->
<g id="node20" class="node">
<title>Node20</title>
<g id="a_node20"><a xlink:href="classpa_1_1SpecializedLBFGS.html#a630280b47996370bdb569a2799ffdb9f" target="_top" xlink:title=" ">
<polygon fill="white" stroke="black" points="472.5,-38.5 472.5,-57.5 501.5,-57.5 501.5,-38.5 472.5,-38.5"/>
<text text-anchor="middle" x="487" y="-45.5" font-family="Helvetica,sans-Serif" font-size="10.00">ρ</text>
</a>
</g>
</g>
<!-- Node1&#45;&gt;Node20 -->
<g id="edge33" class="edge">
<title>Node1&#45;&gt;Node20</title>
<path fill="none" stroke="midnightblue" d="M554.07,-161.77C546.72,-137.94 531.95,-96.85 510,-67 507.49,-63.58 504.26,-60.37 501.05,-57.58"/>
<polygon fill="midnightblue" stroke="midnightblue" points="550.73,-162.8 556.93,-171.4 557.44,-160.81 550.73,-162.8"/>
</g>
<!-- Node4 -->
<g id="node4" class="node">
<title>Node4</title>
<g id="a_node4"><a xlink:href="classpa_1_1SpecializedLBFGS.html#a71d9f5b74a18b1ef994683c1aa4914da" target="_top" xlink:title="L&#45;BFGS update when changing the step size γ, recomputing everything.">
<polygon fill="white" stroke="black" points="340.5,-152.5 340.5,-171.5 411.5,-171.5 411.5,-152.5 340.5,-152.5"/>
<text text-anchor="middle" x="376" y="-159.5" font-family="Helvetica,sans-Serif" font-size="10.00">full_update</text>
</a>
</g>
</g>
<!-- Node3&#45;&gt;Node4 -->
<g id="edge3" class="edge">
<title>Node3&#45;&gt;Node4</title>
<path fill="none" stroke="midnightblue" d="M466.46,-259.34C465.62,-258.55 464.8,-257.77 464,-257 448.04,-241.5 404.32,-192.69 385.64,-171.73"/>
<polygon fill="midnightblue" stroke="midnightblue" points="464.34,-262.14 474.13,-266.19 469,-256.92 464.34,-262.14"/>
</g>
<!-- Node7 -->
<g id="node7" class="node">
<title>Node7</title>
<g id="a_node7"><a xlink:href="classpa_1_1SpecializedLBFGS.html#ac635435dc083d4ac90f811818e3e1526" target="_top" xlink:title="Initialize with the starting point x₀ and the gradient in that point.">
<polygon fill="white" stroke="black" points="346.5,-266.5 346.5,-285.5 405.5,-285.5 405.5,-266.5 346.5,-266.5"/>
<text text-anchor="middle" x="376" y="-273.5" font-family="Helvetica,sans-Serif" font-size="10.00">initialize</text>
</a>
</g>
</g>
<!-- Node3&#45;&gt;Node7 -->
<g id="edge6" class="edge">
<title>Node3&#45;&gt;Node7</title>
<path fill="none" stroke="midnightblue" d="M461.74,-276C445.2,-276 423.23,-276 405.8,-276"/>
<polygon fill="midnightblue" stroke="midnightblue" points="462.2,-279.5 472.2,-276 462.2,-272.5 462.2,-279.5"/>
</g>
<!-- Node9 -->
<g id="node9" class="node">
<title>Node9</title>
<g id="a_node9"><a xlink:href="classpa_1_1SpecializedLBFGS.html#ad20897c5c8bd47f5d4005989bead0e55" target="_top" xlink:title="Throw away the approximation and all previous vectors s and y.">
<polygon fill="white" stroke="black" points="355.5,-228.5 355.5,-247.5 396.5,-247.5 396.5,-228.5 355.5,-228.5"/>
<text text-anchor="middle" x="376" y="-235.5" font-family="Helvetica,sans-Serif" font-size="10.00">reset</text>
</a>
</g>
</g>
<!-- Node3&#45;&gt;Node9 -->
<g id="edge8" class="edge">
<title>Node3&#45;&gt;Node9</title>
<path fill="none" stroke="midnightblue" d="M462.74,-267.89C443.05,-261.03 415.14,-251.3 396.58,-244.83"/>
<polygon fill="midnightblue" stroke="midnightblue" points="461.6,-271.2 472.2,-271.19 463.9,-264.59 461.6,-271.2"/>
</g>
<!-- Node10 -->
<g id="node10" class="node">
<title>Node10</title>
<g id="a_node10"><a xlink:href="classpa_1_1SpecializedLBFGS.html#ae20511c5fb7ae45113aeba25b63c6d55" target="_top" xlink:title="Standard L&#45;BFGS update without changing the step size γ.">
<polygon fill="white" stroke="black" points="327,-114.5 327,-133.5 425,-133.5 425,-114.5 327,-114.5"/>
<text text-anchor="middle" x="376" y="-121.5" font-family="Helvetica,sans-Serif" font-size="10.00">standard_update</text>
</a>
</g>
</g>
<!-- Node3&#45;&gt;Node10 -->
<g id="edge9" class="edge">
<title>Node3&#45;&gt;Node10</title>
<path fill="none" stroke="midnightblue" d="M465.32,-258.87C464.86,-258.26 464.42,-257.63 464,-257 434.79,-212.62 464.61,-181.51 428,-143 424.29,-139.1 419.7,-135.99 414.81,-133.52"/>
<polygon fill="midnightblue" stroke="midnightblue" points="462.83,-261.33 472.25,-266.19 467.92,-256.52 462.83,-261.33"/>
</g>
<!-- Node5 -->
<g id="node5" class="node">
<title>Node5</title>
<g id="a_node5"><a xlink:href="classpa_1_1SpecializedLBFGS.html#a8032c3cbff7a91765be22979ccd4f79b" target="_top" xlink:title="Update the inverse Hessian approximation using the new vectors xₖ₊₁ and pₖ₊₁.">
<polygon fill="white" stroke="black" points="200,-139.5 200,-158.5 250,-158.5 250,-139.5 200,-139.5"/>
<text text-anchor="middle" x="225" y="-146.5" font-family="Helvetica,sans-Serif" font-size="10.00">update</text>
</a>
</g>
</g>
<!-- Node4&#45;&gt;Node5 -->
<g id="edge4" class="edge">
<title>Node4&#45;&gt;Node5</title>
<path fill="none" stroke="midnightblue" d="M330.32,-158.1C304.01,-155.81 271.76,-152.99 250.15,-151.11"/>
<polygon fill="midnightblue" stroke="midnightblue" points="330.18,-161.6 340.44,-158.98 330.78,-154.63 330.18,-161.6"/>
</g>
<!-- Node6 -->
<g id="node6" class="node">
<title>Node6</title>
<g id="a_node6"><a xlink:href="structpa_1_1PANOCDirection_3_01SpecializedLBFGS_01_4.html#a1932af68886cf467a0300e371e94a2c3" target="_top" xlink:title=" ">
<polygon fill="white" stroke="black" points="0,-128.5 0,-169.5 126,-169.5 126,-128.5 0,-128.5"/>
<text text-anchor="start" x="8" y="-157.5" font-family="Helvetica,sans-Serif" font-size="10.00">pa::PANOCDirection</text>
<text text-anchor="start" x="8" y="-146.5" font-family="Helvetica,sans-Serif" font-size="10.00">&lt; SpecializedLBFGS &gt;</text>
<text text-anchor="middle" x="63" y="-135.5" font-family="Helvetica,sans-Serif" font-size="10.00">::update</text>
</a>
</g>
</g>
<!-- Node5&#45;&gt;Node6 -->
<g id="edge5" class="edge">
<title>Node5&#45;&gt;Node6</title>
<path fill="none" stroke="midnightblue" d="M189.45,-149C171,-149 147.74,-149 126.26,-149"/>
<polygon fill="midnightblue" stroke="midnightblue" points="189.7,-152.5 199.7,-149 189.7,-145.5 189.7,-152.5"/>
</g>
<!-- Node8 -->
<g id="node8" class="node">
<title>Node8</title>
<g id="a_node8"><a xlink:href="structpa_1_1PANOCDirection_3_01SpecializedLBFGS_01_4.html#a5a764dbf1d1d45d461b299ab91c8b0df" target="_top" xlink:title=" ">
<polygon fill="white" stroke="black" points="162,-255.5 162,-296.5 288,-296.5 288,-255.5 162,-255.5"/>
<text text-anchor="start" x="170" y="-284.5" font-family="Helvetica,sans-Serif" font-size="10.00">pa::PANOCDirection</text>
<text text-anchor="start" x="170" y="-273.5" font-family="Helvetica,sans-Serif" font-size="10.00">&lt; SpecializedLBFGS &gt;</text>
<text text-anchor="middle" x="225" y="-262.5" font-family="Helvetica,sans-Serif" font-size="10.00">::initialize</text>
</a>
</g>
</g>
<!-- Node7&#45;&gt;Node8 -->
<g id="edge7" class="edge">
<title>Node7&#45;&gt;Node8</title>
<path fill="none" stroke="midnightblue" d="M336.1,-276C321.48,-276 304.47,-276 288.26,-276"/>
<polygon fill="midnightblue" stroke="midnightblue" points="336.27,-279.5 346.27,-276 336.27,-272.5 336.27,-279.5"/>
</g>
<!-- Node10&#45;&gt;Node5 -->
<g id="edge10" class="edge">
<title>Node10&#45;&gt;Node5</title>
<path fill="none" stroke="midnightblue" d="M316.56,-133.8C293.51,-137.67 268.31,-141.9 250.36,-144.91"/>
<polygon fill="midnightblue" stroke="midnightblue" points="317.34,-137.22 326.62,-132.12 316.18,-130.32 317.34,-137.22"/>
</g>
<!-- Node11&#45;&gt;Node4 -->
<g id="edge12" class="edge">
<title>Node11&#45;&gt;Node4</title>
<path fill="none" stroke="midnightblue" d="M462.47,-191.8C445.44,-185.86 422.36,-177.81 404.48,-171.58"/>
<polygon fill="midnightblue" stroke="midnightblue" points="461.6,-195.2 472.2,-195.19 463.9,-188.59 461.6,-195.2"/>
</g>
<!-- Node12&#45;&gt;Node2 -->
<g id="edge14" class="edge">
<title>Node12&#45;&gt;Node2</title>
<path fill="none" stroke="midnightblue" d="M453.9,-319.6C445.86,-321 437.02,-322.54 428.3,-324.06"/>
<polygon fill="midnightblue" stroke="midnightblue" points="454.69,-323.01 463.94,-317.84 453.49,-316.11 454.69,-323.01"/>
</g>
<!-- Node13&#45;&gt;Node4 -->
<g id="edge18" class="edge">
<title>Node13&#45;&gt;Node4</title>
<path fill="none" stroke="midnightblue" d="M462.47,-132.2C445.44,-138.14 422.36,-146.19 404.48,-152.42"/>
<polygon fill="midnightblue" stroke="midnightblue" points="463.9,-135.41 472.2,-128.81 461.6,-128.8 463.9,-135.41"/>
</g>
<!-- Node13&#45;&gt;Node10 -->
<g id="edge19" class="edge">
<title>Node13&#45;&gt;Node10</title>
<path fill="none" stroke="midnightblue" d="M461.89,-124C451.08,-124 437.92,-124 425.23,-124"/>
<polygon fill="midnightblue" stroke="midnightblue" points="462.2,-127.5 472.2,-124 462.2,-120.5 462.2,-127.5"/>
</g>
<!-- Node14 -->
<g id="node14" class="node">
<title>Node14</title>
<g id="a_node14"><a xlink:href="classpa_1_1SpecializedLBFGS.html#a37dd0ce624f9914a61118d8f02fa1c7f" target="_top" xlink:title="Apply the inverse Hessian approximation to the given vector q.">
<polygon fill="white" stroke="black" points="354,-57.5 354,-76.5 398,-76.5 398,-57.5 354,-57.5"/>
<text text-anchor="middle" x="376" y="-64.5" font-family="Helvetica,sans-Serif" font-size="10.00">apply</text>
</a>
</g>
</g>
<!-- Node13&#45;&gt;Node14 -->
<g id="edge16" class="edge">
<title>Node13&#45;&gt;Node14</title>
<path fill="none" stroke="midnightblue" d="M463.11,-112.03C442.98,-101.5 414.08,-86.39 395.42,-76.63"/>
<polygon fill="midnightblue" stroke="midnightblue" points="461.71,-115.25 472.2,-116.78 464.96,-109.05 461.71,-115.25"/>
</g>
<!-- Node15 -->
<g id="node15" class="node">
<title>Node15</title>
<g id="a_node15"><a xlink:href="structpa_1_1PANOCDirection_3_01SpecializedLBFGS_01_4.html#ab54e8671980ec079ccaa05f3af04ca50" target="_top" xlink:title=" ">
<polygon fill="white" stroke="black" points="162,-46.5 162,-87.5 288,-87.5 288,-46.5 162,-46.5"/>
<text text-anchor="start" x="170" y="-75.5" font-family="Helvetica,sans-Serif" font-size="10.00">pa::PANOCDirection</text>
<text text-anchor="start" x="170" y="-64.5" font-family="Helvetica,sans-Serif" font-size="10.00">&lt; SpecializedLBFGS &gt;</text>
<text text-anchor="middle" x="225" y="-53.5" font-family="Helvetica,sans-Serif" font-size="10.00">::apply</text>
</a>
</g>
</g>
<!-- Node14&#45;&gt;Node15 -->
<g id="edge17" class="edge">
<title>Node14&#45;&gt;Node15</title>
<path fill="none" stroke="midnightblue" d="M343.53,-67C327.42,-67 307.23,-67 288.14,-67"/>
<polygon fill="midnightblue" stroke="midnightblue" points="343.97,-70.5 353.97,-67 343.97,-63.5 343.97,-70.5"/>
</g>
<!-- Node16&#45;&gt;Node4 -->
<g id="edge21" class="edge">
<title>Node16&#45;&gt;Node4</title>
<path fill="none" stroke="midnightblue" d="M461.89,-162C447.16,-162 428.07,-162 411.72,-162"/>
<polygon fill="midnightblue" stroke="midnightblue" points="462.2,-165.5 472.2,-162 462.2,-158.5 462.2,-165.5"/>
</g>
<!-- Node17&#45;&gt;Node4 -->
<g id="edge23" class="edge">
<title>Node17&#45;&gt;Node4</title>
<path fill="none" stroke="midnightblue" d="M463.82,-222.54C441.9,-207.25 409.06,-184.36 390.69,-171.55"/>
<polygon fill="midnightblue" stroke="midnightblue" points="461.99,-225.53 472.2,-228.37 465.99,-219.78 461.99,-225.53"/>
</g>
<!-- Node17&#45;&gt;Node7 -->
<g id="edge24" class="edge">
<title>Node17&#45;&gt;Node7</title>
<path fill="none" stroke="midnightblue" d="M462.47,-246.2C445.44,-252.14 422.36,-260.19 404.48,-266.42"/>
<polygon fill="midnightblue" stroke="midnightblue" points="463.9,-249.41 472.2,-242.81 461.6,-242.8 463.9,-249.41"/>
</g>
<!-- Node17&#45;&gt;Node9 -->
<g id="edge25" class="edge">
<title>Node17&#45;&gt;Node9</title>
<path fill="none" stroke="midnightblue" d="M461.92,-238C442.28,-238 414.89,-238 396.58,-238"/>
<polygon fill="midnightblue" stroke="midnightblue" points="462.2,-241.5 472.2,-238 462.2,-234.5 462.2,-241.5"/>
</g>
<!-- Node17&#45;&gt;Node10 -->
<g id="edge26" class="edge">
<title>Node17&#45;&gt;Node10</title>
<path fill="none" stroke="midnightblue" d="M465.78,-221.19C465.16,-220.47 464.56,-219.74 464,-219 441.37,-189.26 455.54,-168.27 428,-143 423.82,-139.17 418.8,-136.09 413.56,-133.62"/>
<polygon fill="midnightblue" stroke="midnightblue" points="463.46,-223.82 473.03,-228.36 468.38,-218.84 463.46,-223.82"/>
</g>
<!-- Node18&#45;&gt;Node4 -->
<g id="edge29" class="edge">
<title>Node18&#45;&gt;Node4</title>
<path fill="none" stroke="midnightblue" d="M466.47,-102.68C465.63,-103.46 464.8,-104.23 464,-105 447.18,-121.07 447.4,-130.16 428,-143 422.33,-146.75 415.81,-149.9 409.37,-152.48"/>
<polygon fill="midnightblue" stroke="midnightblue" points="469.01,-105.11 474.16,-95.85 464.36,-99.87 469.01,-105.11"/>
</g>
<!-- Node18&#45;&gt;Node10 -->
<g id="edge30" class="edge">
<title>Node18&#45;&gt;Node10</title>
<path fill="none" stroke="midnightblue" d="M462.47,-94.2C445.44,-100.14 422.36,-108.19 404.48,-114.42"/>
<polygon fill="midnightblue" stroke="midnightblue" points="463.9,-97.41 472.2,-90.81 461.6,-90.8 463.9,-97.41"/>
</g>
<!-- Node18&#45;&gt;Node14 -->
<g id="edge28" class="edge">
<title>Node18&#45;&gt;Node14</title>
<path fill="none" stroke="midnightblue" d="M462.19,-81.85C443.09,-78.52 416.53,-73.89 398.17,-70.69"/>
<polygon fill="midnightblue" stroke="midnightblue" points="461.74,-85.32 472.2,-83.59 462.94,-78.43 461.74,-85.32"/>
</g>
<!-- Node19&#45;&gt;Node14 -->
<g id="edge32" class="edge">
<title>Node19&#45;&gt;Node14</title>
<path fill="none" stroke="midnightblue" d="M463.11,-21.97C442.98,-32.5 414.08,-47.61 395.42,-57.37"/>
<polygon fill="midnightblue" stroke="midnightblue" points="464.96,-24.95 472.2,-17.22 461.71,-18.75 464.96,-24.95"/>
</g>
<!-- Node20&#45;&gt;Node4 -->
<g id="edge35" class="edge">
<title>Node20&#45;&gt;Node4</title>
<path fill="none" stroke="midnightblue" d="M465.78,-64.81C465.16,-65.53 464.56,-66.26 464,-67 441.37,-96.74 455.54,-117.73 428,-143 423.34,-147.28 417.62,-150.62 411.72,-153.22"/>
<polygon fill="midnightblue" stroke="midnightblue" points="468.38,-67.16 473.03,-57.64 463.46,-62.18 468.38,-67.16"/>
</g>
<!-- Node20&#45;&gt;Node10 -->
<g id="edge36" class="edge">
<title>Node20&#45;&gt;Node10</title>
<path fill="none" stroke="midnightblue" d="M463.82,-63.46C441.9,-78.75 409.06,-101.64 390.69,-114.45"/>
<polygon fill="midnightblue" stroke="midnightblue" points="465.99,-66.22 472.2,-57.63 461.99,-60.47 465.99,-66.22"/>
</g>
<!-- Node20&#45;&gt;Node14 -->
<g id="edge34" class="edge">
<title>Node20&#45;&gt;Node14</title>
<path fill="none" stroke="midnightblue" d="M462.19,-52.15C443.09,-55.48 416.53,-60.11 398.17,-63.31"/>
<polygon fill="midnightblue" stroke="midnightblue" points="462.94,-55.57 472.2,-50.41 461.74,-48.68 462.94,-55.57"/>
</g>
</g>
</svg>
