<?xml version="1.0" encoding="UTF-8" standalone="no"?>
<!DOCTYPE svg PUBLIC "-//W3C//DTD SVG 1.1//EN"
 "http://www.w3.org/Graphics/SVG/1.1/DTD/svg11.dtd">
<!-- Generated by graphviz version 2.43.0 (0)
 -->
<!-- Title: add_column Pages: 1 -->
<svg width="616pt" height="78pt"
 viewBox="0.00 0.00 616.00 77.50" xmlns="http://www.w3.org/2000/svg" xmlns:xlink="http://www.w3.org/1999/xlink">
<g id="graph0" class="graph" transform="scale(1 1) rotate(0) translate(4 73.5)">
<title>add_column</title>
<polygon fill="white" stroke="transparent" points="-4,4 -4,-73.5 612,-73.5 612,4 -4,4"/>
<!-- Node1 -->
<g id="node1" class="node">
<title>Node1</title>
<g id="a_node1"><a xlink:title="Add the given column to the right.">
<polygon fill="#bfbfbf" stroke="black" points="532,-22.5 532,-41.5 608,-41.5 608,-22.5 532,-22.5"/>
<text text-anchor="middle" x="570" y="-29.5" font-family="Helvetica,sans-Serif" font-size="10.00">add_column</text>
</a>
</g>
</g>
<!-- Node2 -->
<g id="node2" class="node">
<title>Node2</title>
<g id="a_node2"><a xlink:href="namespacepa.html#a04d9e05002d02fd15c58766c259ef0d7" target="_top" xlink:title="Solve one step of Anderson acceleration to find a fixed point of a function g(x):">
<polygon fill="white" stroke="black" points="377,-17 377,-47 496,-47 496,-17 377,-17"/>
<text text-anchor="start" x="385" y="-35" font-family="Helvetica,sans-Serif" font-size="10.00">pa::minimize_update</text>
<text text-anchor="middle" x="436.5" y="-24" font-family="Helvetica,sans-Serif" font-size="10.00">_anderson</text>
</a>
</g>
</g>
<!-- Node1&#45;&gt;Node2 -->
<g id="edge1" class="edge">
<title>Node1&#45;&gt;Node2</title>
<path fill="none" stroke="midnightblue" d="M521.49,-32C513.24,-32 504.57,-32 496.07,-32"/>
<polygon fill="midnightblue" stroke="midnightblue" points="521.67,-35.5 531.67,-32 521.67,-28.5 521.67,-35.5"/>
</g>
<!-- Node3 -->
<g id="node3" class="node">
<title>Node3</title>
<g id="a_node3"><a xlink:href="classpa_1_1AndersonAccel.html#a631bbbe30343f7e51af52d3d4e7804c6" target="_top" xlink:title=" ">
<polygon fill="white" stroke="black" points="204,-39 204,-69 317,-69 317,-39 204,-39"/>
<text text-anchor="start" x="212" y="-57" font-family="Helvetica,sans-Serif" font-size="10.00">pa::AndersonAccel::</text>
<text text-anchor="middle" x="260.5" y="-46" font-family="Helvetica,sans-Serif" font-size="10.00">compute</text>
</a>
</g>
</g>
<!-- Node2&#45;&gt;Node3 -->
<g id="edge2" class="edge">
<title>Node2&#45;&gt;Node3</title>
<path fill="none" stroke="midnightblue" d="M366.52,-40.72C350.12,-42.8 332.83,-44.98 317.12,-46.97"/>
<polygon fill="midnightblue" stroke="midnightblue" points="367.11,-44.18 376.59,-39.45 366.23,-37.23 367.11,-44.18"/>
</g>
<!-- Node5 -->
<g id="node5" class="node">
<title>Node5</title>
<g id="a_node5"><a xlink:href="classpa_1_1GAAPGASolver.html#a570ec001ea8eee359be8a1b90b782cfb" target="_top" xlink:title=" ">
<polygon fill="white" stroke="black" points="180,-0.5 180,-19.5 341,-19.5 341,-0.5 180,-0.5"/>
<text text-anchor="middle" x="260.5" y="-7.5" font-family="Helvetica,sans-Serif" font-size="10.00">pa::GAAPGASolver::operator()</text>
</a>
</g>
</g>
<!-- Node2&#45;&gt;Node5 -->
<g id="edge4" class="edge">
<title>Node2&#45;&gt;Node5</title>
<path fill="none" stroke="midnightblue" d="M366.52,-23.28C356.72,-22.04 346.6,-20.76 336.7,-19.51"/>
<polygon fill="midnightblue" stroke="midnightblue" points="366.23,-26.77 376.59,-24.55 367.11,-19.82 366.23,-26.77"/>
</g>
<!-- Node4 -->
<g id="node4" class="node">
<title>Node4</title>
<g id="a_node4"><a xlink:href="structpa_1_1PANOCDirection_3_01AndersonAccel_01_4.html#a8a49b1b1fd45d514a2bf04870f16e20d" target="_top" xlink:title=" ">
<polygon fill="white" stroke="black" points="0,-39 0,-69 144,-69 144,-39 0,-39"/>
<text text-anchor="start" x="8" y="-57" font-family="Helvetica,sans-Serif" font-size="10.00">pa::PANOCDirection</text>
<text text-anchor="middle" x="72" y="-46" font-family="Helvetica,sans-Serif" font-size="10.00">&lt; AndersonAccel &gt;::apply</text>
</a>
</g>
</g>
<!-- Node3&#45;&gt;Node4 -->
<g id="edge3" class="edge">
<title>Node3&#45;&gt;Node4</title>
<path fill="none" stroke="midnightblue" d="M193.52,-54C177.59,-54 160.49,-54 144.33,-54"/>
<polygon fill="midnightblue" stroke="midnightblue" points="193.8,-57.5 203.8,-54 193.8,-50.5 193.8,-57.5"/>
</g>
</g>
</svg>
