<?xml version="1.0" encoding="UTF-8" standalone="no"?>
<!DOCTYPE svg PUBLIC "-//W3C//DTD SVG 1.1//EN"
 "http://www.w3.org/Graphics/SVG/1.1/DTD/svg11.dtd">
<!-- Generated by graphviz version 2.43.0 (0)
 -->
<!-- Title: PolymorphicPANOCDirection&lt; DirectionProviderT &gt; Pages: 1 -->
<svg width="382pt" height="475pt"
 viewBox="0.00 0.00 382.00 475.00" xmlns="http://www.w3.org/2000/svg" xmlns:xlink="http://www.w3.org/1999/xlink">
<g id="graph0" class="graph" transform="scale(1 1) rotate(0) translate(4 471)">
<title>PolymorphicPANOCDirection&lt; DirectionProviderT &gt;</title>
<polygon fill="white" stroke="transparent" points="-4,4 -4,-471 378,-471 378,4 -4,4"/>
<!-- Node1 -->
<g id="node1" class="node">
<title>Node1</title>
<g id="a_node1"><a xlink:title=" ">
<polygon fill="#bfbfbf" stroke="black" points="163,-0.5 163,-156.5 337,-156.5 337,-0.5 163,-0.5"/>
<text text-anchor="start" x="171" y="-144.5" font-family="Helvetica,sans-Serif" font-size="10.00">PolymorphicPANOCDirection</text>
<text text-anchor="middle" x="250" y="-133.5" font-family="Helvetica,sans-Serif" font-size="10.00">&lt; DirectionProviderT &gt;</text>
<polyline fill="none" stroke="black" points="163,-126.5 337,-126.5 "/>
<text text-anchor="middle" x="250" y="-114.5" font-family="Helvetica,sans-Serif" font-size="10.00"> </text>
<polyline fill="none" stroke="black" points="163,-107.5 337,-107.5 "/>
<text text-anchor="start" x="171" y="-95.5" font-family="Helvetica,sans-Serif" font-size="10.00">+ PolymorphicPANOCDirection()</text>
<text text-anchor="start" x="171" y="-84.5" font-family="Helvetica,sans-Serif" font-size="10.00">+ PolymorphicPANOCDirection()</text>
<text text-anchor="start" x="171" y="-73.5" font-family="Helvetica,sans-Serif" font-size="10.00">+ initialize()</text>
<text text-anchor="start" x="171" y="-62.5" font-family="Helvetica,sans-Serif" font-size="10.00">+ update()</text>
<text text-anchor="start" x="171" y="-51.5" font-family="Helvetica,sans-Serif" font-size="10.00">+ apply()</text>
<text text-anchor="start" x="171" y="-40.5" font-family="Helvetica,sans-Serif" font-size="10.00">+ changed_γ()</text>
<text text-anchor="start" x="171" y="-29.5" font-family="Helvetica,sans-Serif" font-size="10.00">+ reset()</text>
<text text-anchor="start" x="171" y="-18.5" font-family="Helvetica,sans-Serif" font-size="10.00">+ get_name()</text>
<text text-anchor="start" x="171" y="-7.5" font-family="Helvetica,sans-Serif" font-size="10.00">+ get_params()</text>
</a>
</g>
</g>
<!-- Node2 -->
<g id="node2" class="node">
<title>Node2</title>
<g id="a_node2"><a xlink:href="classpa_1_1PolymorphicPANOCDirectionBase.html" target="_top" xlink:title=" ">
<polygon fill="white" stroke="black" points="0,-204.5 0,-349.5 206,-349.5 206,-204.5 0,-204.5"/>
<text text-anchor="middle" x="103" y="-337.5" font-family="Helvetica,sans-Serif" font-size="10.00">PolymorphicPANOCDirectionBase</text>
<polyline fill="none" stroke="black" points="0,-330.5 206,-330.5 "/>
<text text-anchor="middle" x="103" y="-318.5" font-family="Helvetica,sans-Serif" font-size="10.00"> </text>
<polyline fill="none" stroke="black" points="0,-311.5 206,-311.5 "/>
<text text-anchor="start" x="8" y="-299.5" font-family="Helvetica,sans-Serif" font-size="10.00">+ ~PolymorphicPANOCDirectionBase()</text>
<text text-anchor="start" x="8" y="-288.5" font-family="Helvetica,sans-Serif" font-size="10.00">+ initialize()</text>
<text text-anchor="start" x="8" y="-277.5" font-family="Helvetica,sans-Serif" font-size="10.00">+ update()</text>
<text text-anchor="start" x="8" y="-266.5" font-family="Helvetica,sans-Serif" font-size="10.00">+ apply()</text>
<text text-anchor="start" x="8" y="-255.5" font-family="Helvetica,sans-Serif" font-size="10.00">+ changed_γ()</text>
<text text-anchor="start" x="8" y="-244.5" font-family="Helvetica,sans-Serif" font-size="10.00">+ reset()</text>
<text text-anchor="start" x="8" y="-233.5" font-family="Helvetica,sans-Serif" font-size="10.00">+ get_name()</text>
<text text-anchor="start" x="8" y="-222.5" font-family="Helvetica,sans-Serif" font-size="10.00">+ apply_ret()</text>
<text text-anchor="start" x="8" y="-211.5" font-family="Helvetica,sans-Serif" font-size="10.00">+ get_params()</text>
</a>
</g>
</g>
<!-- Node2&#45;&gt;Node1 -->
<g id="edge1" class="edge">
<title>Node2&#45;&gt;Node1</title>
<path fill="none" stroke="midnightblue" d="M162.71,-196.18C172.46,-183.15 182.54,-169.67 192.24,-156.71"/>
<polygon fill="none" stroke="midnightblue" points="159.88,-194.12 156.69,-204.22 165.49,-198.31 159.88,-194.12"/>
</g>
<!-- Node3 -->
<g id="node3" class="node">
<title>Node3</title>
<g id="a_node3"><a xlink:title=" ">
<polygon fill="white" stroke="#bfbfbf" points="8,-387.5 8,-466.5 198,-466.5 198,-387.5 8,-387.5"/>
<text text-anchor="start" x="16" y="-454.5" font-family="Helvetica,sans-Serif" font-size="10.00">enable_shared_from</text>
<text text-anchor="start" x="16" y="-443.5" font-family="Helvetica,sans-Serif" font-size="10.00">_this&lt; PolymorphicPANOCDirection</text>
<text text-anchor="middle" x="103" y="-432.5" font-family="Helvetica,sans-Serif" font-size="10.00">Base &gt;</text>
<polyline fill="none" stroke="#bfbfbf" points="8,-425.5 198,-425.5 "/>
<text text-anchor="middle" x="103" y="-413.5" font-family="Helvetica,sans-Serif" font-size="10.00"> </text>
<polyline fill="none" stroke="#bfbfbf" points="8,-406.5 198,-406.5 "/>
<text text-anchor="middle" x="103" y="-394.5" font-family="Helvetica,sans-Serif" font-size="10.00"> </text>
</a>
</g>
</g>
<!-- Node3&#45;&gt;Node2 -->
<g id="edge2" class="edge">
<title>Node3&#45;&gt;Node2</title>
<path fill="none" stroke="midnightblue" d="M103,-377.04C103,-368.22 103,-358.86 103,-349.55"/>
<polygon fill="none" stroke="midnightblue" points="99.5,-377.11 103,-387.11 106.5,-377.11 99.5,-377.11"/>
</g>
<!-- Node4 -->
<g id="node4" class="node">
<title>Node4</title>
<g id="a_node4"><a xlink:href="structpa_1_1PANOCDirection.html" target="_top" xlink:title=" ">
<polygon fill="white" stroke="black" points="224,-226.5 224,-327.5 374,-327.5 374,-226.5 224,-226.5"/>
<text text-anchor="start" x="232" y="-315.5" font-family="Helvetica,sans-Serif" font-size="10.00">PANOCDirection&lt; Direction</text>
<text text-anchor="middle" x="299" y="-304.5" font-family="Helvetica,sans-Serif" font-size="10.00">Provider &gt;</text>
<polyline fill="none" stroke="black" points="224,-297.5 374,-297.5 "/>
<text text-anchor="middle" x="299" y="-285.5" font-family="Helvetica,sans-Serif" font-size="10.00"> </text>
<polyline fill="none" stroke="black" points="224,-278.5 374,-278.5 "/>
<text text-anchor="start" x="232" y="-266.5" font-family="Helvetica,sans-Serif" font-size="10.00">+ initialize()</text>
<text text-anchor="start" x="232" y="-255.5" font-family="Helvetica,sans-Serif" font-size="10.00">+ update()</text>
<text text-anchor="start" x="232" y="-244.5" font-family="Helvetica,sans-Serif" font-size="10.00">+ apply()</text>
<text text-anchor="start" x="232" y="-233.5" font-family="Helvetica,sans-Serif" font-size="10.00">+ changed_γ()</text>
</a>
</g>
</g>
<!-- Node4&#45;&gt;Node1 -->
<g id="edge3" class="edge">
<title>Node4&#45;&gt;Node1</title>
<path fill="none" stroke="#404040" d="M286.64,-226.41C282.23,-208.74 277.12,-188.25 272.14,-168.28"/>
<polygon fill="none" stroke="#404040" points="272.13,-168.26 266.8,-163.41 269.23,-156.62 274.56,-161.47 272.13,-168.26"/>
<text text-anchor="middle" x="323" y="-178" font-family="Helvetica,sans-Serif" font-size="10.00"> &#45;direction_provider</text>
</g>
</g>
</svg>
