<?xml version="1.0" encoding="UTF-8" standalone="no"?>
<!DOCTYPE svg PUBLIC "-//W3C//DTD SVG 1.1//EN"
 "http://www.w3.org/Graphics/SVG/1.1/DTD/svg11.dtd">
<!-- Generated by graphviz version 2.43.0 (0)
 -->
<!-- Title: compute Pages: 1 -->
<svg width="886pt" height="323pt"
 viewBox="0.00 0.00 886.00 323.38" xmlns="http://www.w3.org/2000/svg" xmlns:xlink="http://www.w3.org/1999/xlink">
<g id="graph0" class="graph" transform="scale(1 1) rotate(0) translate(4 319.38)">
<title>compute</title>
<polygon fill="white" stroke="transparent" points="-4,4 -4,-319.38 882,-319.38 882,4 -4,4"/>
<!-- Node1 -->
<g id="node1" class="node">
<title>Node1</title>
<g id="a_node1"><a xlink:title=" ">
<polygon fill="#bfbfbf" stroke="black" points="0,-143 0,-162 59,-162 59,-143 0,-143"/>
<text text-anchor="middle" x="29.5" y="-150" font-family="Helvetica,sans-Serif" font-size="10.00">compute</text>
</a>
</g>
</g>
<!-- Node2 -->
<g id="node2" class="node">
<title>Node2</title>
<g id="a_node2"><a xlink:href="namespacepa.html#a04d9e05002d02fd15c58766c259ef0d7" target="_top" xlink:title="Solve one step of Anderson acceleration to find a fixed point of a function g(x):">
<polygon fill="white" stroke="black" points="95,-137.5 95,-167.5 214,-167.5 214,-137.5 95,-137.5"/>
<text text-anchor="start" x="103" y="-155.5" font-family="Helvetica,sans-Serif" font-size="10.00">pa::minimize_update</text>
<text text-anchor="middle" x="154.5" y="-144.5" font-family="Helvetica,sans-Serif" font-size="10.00">_anderson</text>
</a>
</g>
</g>
<!-- Node1&#45;&gt;Node2 -->
<g id="edge1" class="edge">
<title>Node1&#45;&gt;Node2</title>
<path fill="none" stroke="midnightblue" d="M59.03,-152.5C66.76,-152.5 75.48,-152.5 84.42,-152.5"/>
<polygon fill="midnightblue" stroke="midnightblue" points="84.57,-156 94.57,-152.5 84.57,-149 84.57,-156"/>
</g>
<!-- Node3 -->
<g id="node3" class="node">
<title>Node3</title>
<g id="a_node3"><a xlink:href="classpa_1_1LimitedMemoryQR.html#a5e3077223e98c1e4e286e01503f220d5" target="_top" xlink:title="Add the given column to the right.">
<polygon fill="white" stroke="black" points="250,-235.5 250,-265.5 376,-265.5 376,-235.5 250,-235.5"/>
<text text-anchor="start" x="258" y="-253.5" font-family="Helvetica,sans-Serif" font-size="10.00">pa::LimitedMemoryQR</text>
<text text-anchor="middle" x="313" y="-242.5" font-family="Helvetica,sans-Serif" font-size="10.00">::add_column</text>
</a>
</g>
</g>
<!-- Node2&#45;&gt;Node3 -->
<g id="edge2" class="edge">
<title>Node2&#45;&gt;Node3</title>
<path fill="none" stroke="midnightblue" d="M171.83,-167.76C189.86,-183.99 220.29,-209.61 250,-226.5 252.86,-228.13 255.85,-229.69 258.91,-231.18"/>
<polygon fill="midnightblue" stroke="midnightblue" points="257.67,-234.46 268.22,-235.43 260.58,-228.09 257.67,-234.46"/>
</g>
<!-- Node4 -->
<g id="node4" class="node">
<title>Node4</title>
<g id="a_node4"><a xlink:href="classpa_1_1LimitedMemoryQR.html#af83f6287b8ea07acdcfa4670af30cbbf" target="_top" xlink:title=" ">
<polygon fill="white" stroke="black" points="736,-222 736,-241 878,-241 878,-222 736,-222"/>
<text text-anchor="middle" x="807" y="-229" font-family="Helvetica,sans-Serif" font-size="10.00">pa::LimitedMemoryQR::m</text>
</a>
</g>
</g>
<!-- Node2&#45;&gt;Node4 -->
<g id="edge6" class="edge">
<title>Node2&#45;&gt;Node4</title>
<path fill="none" stroke="midnightblue" d="M161.76,-167.87C173.97,-195.49 203.86,-252.77 250,-275.5 430.86,-364.62 685.35,-279.65 774.03,-244.84"/>
<polygon fill="midnightblue" stroke="midnightblue" points="775.54,-248 783.53,-241.05 772.95,-241.5 775.54,-248"/>
</g>
<!-- Node6 -->
<g id="node6" class="node">
<title>Node6</title>
<g id="a_node6"><a xlink:href="classpa_1_1LimitedMemoryQR.html#a98e2d9685769a3ebb2c0c9600a4c77b2" target="_top" xlink:title="Get the number of columns that are currently stored.">
<polygon fill="white" stroke="black" points="250,-186.5 250,-216.5 376,-216.5 376,-186.5 250,-186.5"/>
<text text-anchor="start" x="258" y="-204.5" font-family="Helvetica,sans-Serif" font-size="10.00">pa::LimitedMemoryQR</text>
<text text-anchor="middle" x="313" y="-193.5" font-family="Helvetica,sans-Serif" font-size="10.00">::num_columns</text>
</a>
</g>
</g>
<!-- Node2&#45;&gt;Node6 -->
<g id="edge7" class="edge">
<title>Node2&#45;&gt;Node6</title>
<path fill="none" stroke="midnightblue" d="M203.73,-167.6C219.72,-172.61 237.69,-178.23 254.32,-183.44"/>
<polygon fill="midnightblue" stroke="midnightblue" points="253.34,-186.8 263.93,-186.45 255.43,-180.12 253.34,-186.8"/>
</g>
<!-- Node7 -->
<g id="node7" class="node">
<title>Node7</title>
<g id="a_node7"><a xlink:href="classpa_1_1LimitedMemoryQR.html#a436c4dbbf0476354ca67a104bc005e55" target="_top" xlink:title="Remove the leftmost column.">
<polygon fill="white" stroke="black" points="250,-137.5 250,-167.5 376,-167.5 376,-137.5 250,-137.5"/>
<text text-anchor="start" x="258" y="-155.5" font-family="Helvetica,sans-Serif" font-size="10.00">pa::LimitedMemoryQR</text>
<text text-anchor="middle" x="313" y="-144.5" font-family="Helvetica,sans-Serif" font-size="10.00">::remove_column</text>
</a>
</g>
</g>
<!-- Node2&#45;&gt;Node7 -->
<g id="edge8" class="edge">
<title>Node2&#45;&gt;Node7</title>
<path fill="none" stroke="midnightblue" d="M214.22,-152.5C222.48,-152.5 231.06,-152.5 239.54,-152.5"/>
<polygon fill="midnightblue" stroke="midnightblue" points="239.81,-156 249.81,-152.5 239.81,-149 239.81,-156"/>
</g>
<!-- Node8 -->
<g id="node8" class="node">
<title>Node8</title>
<g id="a_node8"><a xlink:href="classpa_1_1LimitedMemoryQR.html#a7a0e06dceccc0bbe82ebd81247a5a412" target="_top" xlink:title="Get iterators in the circular buffer.">
<polygon fill="white" stroke="black" points="574,-73.5 574,-103.5 700,-103.5 700,-73.5 574,-73.5"/>
<text text-anchor="start" x="582" y="-91.5" font-family="Helvetica,sans-Serif" font-size="10.00">pa::LimitedMemoryQR</text>
<text text-anchor="middle" x="637" y="-80.5" font-family="Helvetica,sans-Serif" font-size="10.00">::ring_iter</text>
</a>
</g>
</g>
<!-- Node2&#45;&gt;Node8 -->
<g id="edge10" class="edge">
<title>Node2&#45;&gt;Node8</title>
<path fill="none" stroke="midnightblue" d="M209.18,-137.43C222.44,-134.1 236.67,-130.87 250,-128.5 358.4,-109.22 485.69,-98.26 563.59,-92.85"/>
<polygon fill="midnightblue" stroke="midnightblue" points="564.04,-96.33 573.77,-92.15 563.56,-89.34 564.04,-96.33"/>
</g>
<!-- Node9 -->
<g id="node9" class="node">
<title>Node9</title>
<g id="a_node9"><a xlink:href="classpa_1_1LimitedMemoryQR.html#a25b6259a3ee886a9a54f3a66ab019084" target="_top" xlink:title="Get the tail index of the circular buffer (points to one past the most recent element).">
<polygon fill="white" stroke="black" points="250,-49.5 250,-79.5 376,-79.5 376,-49.5 250,-49.5"/>
<text text-anchor="start" x="258" y="-67.5" font-family="Helvetica,sans-Serif" font-size="10.00">pa::LimitedMemoryQR</text>
<text text-anchor="middle" x="313" y="-56.5" font-family="Helvetica,sans-Serif" font-size="10.00">::ring_tail</text>
</a>
</g>
</g>
<!-- Node2&#45;&gt;Node9 -->
<g id="edge12" class="edge">
<title>Node2&#45;&gt;Node9</title>
<path fill="none" stroke="midnightblue" d="M178.8,-137.3C197.7,-125.19 225.17,-108.08 250,-94.5 256.42,-90.99 263.31,-87.44 270.08,-84.08"/>
<polygon fill="midnightblue" stroke="midnightblue" points="271.75,-87.16 279.19,-79.62 268.67,-80.87 271.75,-87.16"/>
</g>
<!-- Node10 -->
<g id="node10" class="node">
<title>Node10</title>
<g id="a_node10"><a xlink:href="classpa_1_1LimitedMemoryQR.html#a7a60dfe0a5f68bc1efec69e406a2b619" target="_top" xlink:title="Solve the least squares problem Ax = b.">
<polygon fill="white" stroke="black" points="250,-0.5 250,-30.5 376,-30.5 376,-0.5 250,-0.5"/>
<text text-anchor="start" x="258" y="-18.5" font-family="Helvetica,sans-Serif" font-size="10.00">pa::LimitedMemoryQR</text>
<text text-anchor="middle" x="313" y="-7.5" font-family="Helvetica,sans-Serif" font-size="10.00">::solve_col</text>
</a>
</g>
</g>
<!-- Node2&#45;&gt;Node10 -->
<g id="edge13" class="edge">
<title>Node2&#45;&gt;Node10</title>
<path fill="none" stroke="midnightblue" d="M164.64,-137.22C179.67,-113.29 211.75,-66.91 250,-39.5 252.05,-38.03 254.21,-36.63 256.43,-35.31"/>
<polygon fill="midnightblue" stroke="midnightblue" points="258.12,-38.38 265.28,-30.58 254.81,-32.21 258.12,-38.38"/>
</g>
<!-- Node3&#45;&gt;Node4 -->
<g id="edge3" class="edge">
<title>Node3&#45;&gt;Node4</title>
<path fill="none" stroke="midnightblue" d="M376.31,-248.09C465.09,-244.67 628.04,-238.37 725.75,-234.6"/>
<polygon fill="midnightblue" stroke="midnightblue" points="726.01,-238.09 735.87,-234.21 725.74,-231.1 726.01,-238.09"/>
</g>
<!-- Node5 -->
<g id="node5" class="node">
<title>Node5</title>
<g id="a_node5"><a xlink:href="classpa_1_1LimitedMemoryQR.html#abb2e912e6196e7c6996d3f43fea78237" target="_top" xlink:title="Get the next index in the circular storage for R.">
<polygon fill="white" stroke="black" points="412,-191.5 412,-221.5 538,-221.5 538,-191.5 412,-191.5"/>
<text text-anchor="start" x="420" y="-209.5" font-family="Helvetica,sans-Serif" font-size="10.00">pa::LimitedMemoryQR</text>
<text text-anchor="middle" x="475" y="-198.5" font-family="Helvetica,sans-Serif" font-size="10.00">::r_succ</text>
</a>
</g>
</g>
<!-- Node3&#45;&gt;Node5 -->
<g id="edge4" class="edge">
<title>Node3&#45;&gt;Node5</title>
<path fill="none" stroke="midnightblue" d="M368.62,-235.48C381.8,-231.85 396.01,-227.95 409.6,-224.21"/>
<polygon fill="midnightblue" stroke="midnightblue" points="410.65,-227.55 419.36,-221.53 408.79,-220.8 410.65,-227.55"/>
</g>
<!-- Node5&#45;&gt;Node4 -->
<g id="edge5" class="edge">
<title>Node5&#45;&gt;Node4</title>
<path fill="none" stroke="midnightblue" d="M538.07,-211.2C591.17,-215.23 667.96,-221.04 725.73,-225.42"/>
<polygon fill="midnightblue" stroke="midnightblue" points="725.68,-228.93 735.92,-226.19 726.21,-221.95 725.68,-228.93"/>
</g>
<!-- Node7&#45;&gt;Node5 -->
<g id="edge9" class="edge">
<title>Node7&#45;&gt;Node5</title>
<path fill="none" stroke="midnightblue" d="M358.57,-167.54C377.56,-173.95 399.89,-181.49 419.82,-188.22"/>
<polygon fill="midnightblue" stroke="midnightblue" points="418.8,-191.56 429.39,-191.45 421.04,-184.93 418.8,-191.56"/>
</g>
<!-- Node8&#45;&gt;Node4 -->
<g id="edge11" class="edge">
<title>Node8&#45;&gt;Node4</title>
<path fill="none" stroke="midnightblue" d="M655.66,-103.53C687.37,-130.52 753.7,-186.98 786.61,-215"/>
<polygon fill="midnightblue" stroke="midnightblue" points="784.71,-217.97 794.59,-221.79 789.24,-212.64 784.71,-217.97"/>
</g>
<!-- Node10&#45;&gt;Node8 -->
<g id="edge14" class="edge">
<title>Node10&#45;&gt;Node8</title>
<path fill="none" stroke="midnightblue" d="M365.96,-30.51C380.79,-34.6 396.99,-38.89 412,-42.5 462.5,-54.63 519.87,-66.37 563.92,-74.96"/>
<polygon fill="midnightblue" stroke="midnightblue" points="563.47,-78.44 573.96,-76.91 564.8,-71.56 563.47,-78.44"/>
</g>
<!-- Node11 -->
<g id="node11" class="node">
<title>Node11</title>
<g id="a_node11"><a xlink:href="classpa_1_1LimitedMemoryQR.html#a53110c85b0c151a290bf8d29533cd370" target="_top" xlink:title="Get reverse iterators in the circular buffer.">
<polygon fill="white" stroke="black" points="412,-3.5 412,-33.5 538,-33.5 538,-3.5 412,-3.5"/>
<text text-anchor="start" x="420" y="-21.5" font-family="Helvetica,sans-Serif" font-size="10.00">pa::LimitedMemoryQR</text>
<text text-anchor="middle" x="475" y="-10.5" font-family="Helvetica,sans-Serif" font-size="10.00">::ring_reverse_iter</text>
</a>
</g>
</g>
<!-- Node10&#45;&gt;Node11 -->
<g id="edge15" class="edge">
<title>Node10&#45;&gt;Node11</title>
<path fill="none" stroke="midnightblue" d="M376.32,-16.67C384.62,-16.82 393.18,-16.98 401.63,-17.14"/>
<polygon fill="midnightblue" stroke="midnightblue" points="401.79,-20.65 411.85,-17.33 401.92,-13.65 401.79,-20.65"/>
</g>
<!-- Node11&#45;&gt;Node8 -->
<g id="edge16" class="edge">
<title>Node11&#45;&gt;Node8</title>
<path fill="none" stroke="midnightblue" d="M510.32,-33.52C534.29,-44 566.47,-58.08 592.27,-69.37"/>
<polygon fill="midnightblue" stroke="midnightblue" points="590.89,-72.59 601.46,-73.39 593.7,-66.17 590.89,-72.59"/>
</g>
</g>
</svg>
