<?xml version="1.0" encoding="UTF-8" standalone="no"?>
<!DOCTYPE svg PUBLIC "-//W3C//DTD SVG 1.1//EN"
 "http://www.w3.org/Graphics/SVG/1.1/DTD/svg11.dtd">
<!-- Generated by graphviz version 2.43.0 (0)
 -->
<!-- Title: StructuredPANOCLBFGSSolver Pages: 1 -->
<svg width="540pt" height="617pt"
 viewBox="0.00 0.00 539.50 617.00" xmlns="http://www.w3.org/2000/svg" xmlns:xlink="http://www.w3.org/1999/xlink">
<g id="graph0" class="graph" transform="scale(1 1) rotate(0) translate(4 613)">
<title>StructuredPANOCLBFGSSolver</title>
<polygon fill="white" stroke="transparent" points="-4,4 -4,-613 535.5,-613 535.5,4 -4,4"/>
<!-- Node1 -->
<g id="node1" class="node">
<title>Node1</title>
<g id="a_node1"><a xlink:title="Second order PANOC solver for ALM.">
<polygon fill="#bfbfbf" stroke="black" points="251.5,-0.5 251.5,-112.5 433.5,-112.5 433.5,-0.5 251.5,-0.5"/>
<text text-anchor="middle" x="342.5" y="-100.5" font-family="Helvetica,sans-Serif" font-size="10.00">StructuredPANOCLBFGSSolver</text>
<polyline fill="none" stroke="black" points="251.5,-93.5 433.5,-93.5 "/>
<text text-anchor="start" x="259.5" y="-81.5" font-family="Helvetica,sans-Serif" font-size="10.00">&#45; progress_cb</text>
<polyline fill="none" stroke="black" points="251.5,-74.5 433.5,-74.5 "/>
<text text-anchor="start" x="259.5" y="-62.5" font-family="Helvetica,sans-Serif" font-size="10.00">+ StructuredPANOCLBFGSSolver()</text>
<text text-anchor="start" x="259.5" y="-51.5" font-family="Helvetica,sans-Serif" font-size="10.00">+ operator()()</text>
<text text-anchor="start" x="259.5" y="-40.5" font-family="Helvetica,sans-Serif" font-size="10.00">+ set_progress_callback()</text>
<text text-anchor="start" x="259.5" y="-29.5" font-family="Helvetica,sans-Serif" font-size="10.00">+ get_name()</text>
<text text-anchor="start" x="259.5" y="-18.5" font-family="Helvetica,sans-Serif" font-size="10.00">+ stop()</text>
<text text-anchor="start" x="259.5" y="-7.5" font-family="Helvetica,sans-Serif" font-size="10.00">+ get_params()</text>
</a>
</g>
</g>
<!-- Node2 -->
<g id="node2" class="node">
<title>Node2</title>
<g id="a_node2"><a xlink:href="namespacepa.html#structpa_1_1StructuredPANOCLBFGSParams" target="_top" xlink:title="Tuning parameters for the second order PANOC algorithm.">
<polygon fill="white" stroke="black" points="107.5,-204.5 107.5,-426.5 275.5,-426.5 275.5,-204.5 107.5,-204.5"/>
<text text-anchor="middle" x="191.5" y="-414.5" font-family="Helvetica,sans-Serif" font-size="10.00">StructuredPANOCLBFGSParams</text>
<polyline fill="none" stroke="black" points="107.5,-407.5 275.5,-407.5 "/>
<text text-anchor="start" x="115.5" y="-395.5" font-family="Helvetica,sans-Serif" font-size="10.00">+ max_iter</text>
<text text-anchor="start" x="115.5" y="-384.5" font-family="Helvetica,sans-Serif" font-size="10.00">+ τ_min</text>
<text text-anchor="start" x="115.5" y="-373.5" font-family="Helvetica,sans-Serif" font-size="10.00">+ γ_min</text>
<text text-anchor="start" x="115.5" y="-362.5" font-family="Helvetica,sans-Serif" font-size="10.00">+ nonmonotone_linesearch</text>
<text text-anchor="start" x="115.5" y="-351.5" font-family="Helvetica,sans-Serif" font-size="10.00">+ stop_crit</text>
<text text-anchor="start" x="115.5" y="-340.5" font-family="Helvetica,sans-Serif" font-size="10.00">+ max_no_progress</text>
<text text-anchor="start" x="115.5" y="-329.5" font-family="Helvetica,sans-Serif" font-size="10.00">+ print_interval</text>
<text text-anchor="start" x="115.5" y="-318.5" font-family="Helvetica,sans-Serif" font-size="10.00">+ quadratic_upperbound</text>
<text text-anchor="start" x="115.5" y="-307.5" font-family="Helvetica,sans-Serif" font-size="10.00">_tolerance_factor</text>
<text text-anchor="start" x="115.5" y="-296.5" font-family="Helvetica,sans-Serif" font-size="10.00">+ update_lipschitz_in</text>
<text text-anchor="start" x="115.5" y="-285.5" font-family="Helvetica,sans-Serif" font-size="10.00">_linesearch</text>
<text text-anchor="start" x="115.5" y="-274.5" font-family="Helvetica,sans-Serif" font-size="10.00">+ alternative_linesearch_cond</text>
<text text-anchor="start" x="115.5" y="-263.5" font-family="Helvetica,sans-Serif" font-size="10.00">+ hessian_vec_finited</text>
<text text-anchor="start" x="115.5" y="-252.5" font-family="Helvetica,sans-Serif" font-size="10.00">_differences</text>
<text text-anchor="start" x="115.5" y="-241.5" font-family="Helvetica,sans-Serif" font-size="10.00">+ full_augmented_hessian</text>
<text text-anchor="start" x="115.5" y="-230.5" font-family="Helvetica,sans-Serif" font-size="10.00">+ lbfgs_stepsize</text>
<polyline fill="none" stroke="black" points="107.5,-223.5 275.5,-223.5 "/>
<text text-anchor="middle" x="191.5" y="-211.5" font-family="Helvetica,sans-Serif" font-size="10.00"> </text>
</a>
</g>
</g>
<!-- Node2&#45;&gt;Node1 -->
<g id="edge1" class="edge">
<title>Node2&#45;&gt;Node1</title>
<path fill="none" stroke="#404040" d="M251.86,-204.16C265.57,-179.88 280.3,-154.43 294.5,-131 296.09,-128.38 297.73,-125.71 299.39,-123.03"/>
<polygon fill="none" stroke="#404040" points="299.54,-122.79 299.35,-115.58 305.93,-112.63 306.12,-119.84 299.54,-122.79"/>
<text text-anchor="middle" x="316.5" y="-134" font-family="Helvetica,sans-Serif" font-size="10.00"> &#45;params</text>
</g>
<!-- Node3 -->
<g id="node3" class="node">
<title>Node3</title>
<g id="a_node3"><a xlink:href="namespacepa.html#structpa_1_1LipschitzEstimateParams" target="_top" xlink:title=" ">
<polygon fill="white" stroke="black" points="0,-518.5 0,-608.5 139,-608.5 139,-518.5 0,-518.5"/>
<text text-anchor="middle" x="69.5" y="-596.5" font-family="Helvetica,sans-Serif" font-size="10.00">LipschitzEstimateParams</text>
<polyline fill="none" stroke="black" points="0,-589.5 139,-589.5 "/>
<text text-anchor="start" x="8" y="-577.5" font-family="Helvetica,sans-Serif" font-size="10.00">+ L₀</text>
<text text-anchor="start" x="8" y="-566.5" font-family="Helvetica,sans-Serif" font-size="10.00">+ ε</text>
<text text-anchor="start" x="8" y="-555.5" font-family="Helvetica,sans-Serif" font-size="10.00">+ δ</text>
<text text-anchor="start" x="8" y="-544.5" font-family="Helvetica,sans-Serif" font-size="10.00">+ Lγ_factor</text>
<polyline fill="none" stroke="black" points="0,-537.5 139,-537.5 "/>
<text text-anchor="middle" x="69.5" y="-525.5" font-family="Helvetica,sans-Serif" font-size="10.00"> </text>
</a>
</g>
</g>
<!-- Node3&#45;&gt;Node2 -->
<g id="edge2" class="edge">
<title>Node3&#45;&gt;Node2</title>
<path fill="none" stroke="#404040" d="M91.45,-518.24C102.74,-495.48 117.1,-466.53 131.39,-437.7"/>
<polygon fill="none" stroke="#404040" points="131.53,-437.43 130.61,-430.28 136.86,-426.68 137.78,-433.83 131.53,-437.43"/>
<text text-anchor="middle" x="134" y="-492" font-family="Helvetica,sans-Serif" font-size="10.00"> +Lipschitz</text>
</g>
<!-- Node4 -->
<g id="node4" class="node">
<title>Node4</title>
<g id="a_node4"><a xlink:title=" ">
<polygon fill="white" stroke="#bfbfbf" points="157.5,-535 157.5,-592 241.5,-592 241.5,-535 157.5,-535"/>
<text text-anchor="middle" x="199.5" y="-580" font-family="Helvetica,sans-Serif" font-size="10.00">microseconds</text>
<polyline fill="none" stroke="#bfbfbf" points="157.5,-573 241.5,-573 "/>
<text text-anchor="middle" x="199.5" y="-561" font-family="Helvetica,sans-Serif" font-size="10.00"> </text>
<polyline fill="none" stroke="#bfbfbf" points="157.5,-554 241.5,-554 "/>
<text text-anchor="middle" x="199.5" y="-542" font-family="Helvetica,sans-Serif" font-size="10.00"> </text>
</a>
</g>
</g>
<!-- Node4&#45;&gt;Node2 -->
<g id="edge3" class="edge">
<title>Node4&#45;&gt;Node2</title>
<path fill="none" stroke="#404040" d="M198.6,-534.76C197.82,-510.94 196.65,-474.84 195.48,-438.81"/>
<polygon fill="none" stroke="#404040" points="195.47,-438.61 191.28,-432.74 195.08,-426.62 199.27,-432.48 195.47,-438.61"/>
<text text-anchor="middle" x="228" y="-492" font-family="Helvetica,sans-Serif" font-size="10.00"> +max_time</text>
</g>
<!-- Node5 -->
<g id="node5" class="node">
<title>Node5</title>
<g id="a_node5"><a xlink:href="classpa_1_1LBFGS.html" target="_top" xlink:title="Limited memory Broyden–Fletcher–Goldfarb–Shanno (L&#45;BFGS) algorithm.">
<polygon fill="white" stroke="black" points="293.5,-160.5 293.5,-470.5 391.5,-470.5 391.5,-160.5 293.5,-160.5"/>
<text text-anchor="middle" x="342.5" y="-458.5" font-family="Helvetica,sans-Serif" font-size="10.00">LBFGS</text>
<polyline fill="none" stroke="black" points="293.5,-451.5 391.5,-451.5 "/>
<text text-anchor="start" x="301.5" y="-439.5" font-family="Helvetica,sans-Serif" font-size="10.00">&#45; sto</text>
<text text-anchor="start" x="301.5" y="-428.5" font-family="Helvetica,sans-Serif" font-size="10.00">&#45; idx</text>
<text text-anchor="start" x="301.5" y="-417.5" font-family="Helvetica,sans-Serif" font-size="10.00">&#45; full</text>
<polyline fill="none" stroke="black" points="293.5,-410.5 391.5,-410.5 "/>
<text text-anchor="start" x="301.5" y="-398.5" font-family="Helvetica,sans-Serif" font-size="10.00">+ LBFGS()</text>
<text text-anchor="start" x="301.5" y="-387.5" font-family="Helvetica,sans-Serif" font-size="10.00">+ LBFGS()</text>
<text text-anchor="start" x="301.5" y="-376.5" font-family="Helvetica,sans-Serif" font-size="10.00">+ update()</text>
<text text-anchor="start" x="301.5" y="-365.5" font-family="Helvetica,sans-Serif" font-size="10.00">+ apply()</text>
<text text-anchor="start" x="301.5" y="-354.5" font-family="Helvetica,sans-Serif" font-size="10.00">+ apply()</text>
<text text-anchor="start" x="301.5" y="-343.5" font-family="Helvetica,sans-Serif" font-size="10.00">+ reset()</text>
<text text-anchor="start" x="301.5" y="-332.5" font-family="Helvetica,sans-Serif" font-size="10.00">+ resize()</text>
<text text-anchor="start" x="301.5" y="-321.5" font-family="Helvetica,sans-Serif" font-size="10.00">+ scale_y()</text>
<text text-anchor="start" x="301.5" y="-310.5" font-family="Helvetica,sans-Serif" font-size="10.00">+ get_name()</text>
<text text-anchor="start" x="301.5" y="-299.5" font-family="Helvetica,sans-Serif" font-size="10.00">+ get_params()</text>
<text text-anchor="start" x="301.5" y="-288.5" font-family="Helvetica,sans-Serif" font-size="10.00">+ n()</text>
<text text-anchor="start" x="301.5" y="-277.5" font-family="Helvetica,sans-Serif" font-size="10.00">+ history()</text>
<text text-anchor="start" x="301.5" y="-266.5" font-family="Helvetica,sans-Serif" font-size="10.00">+ succ()</text>
<text text-anchor="start" x="301.5" y="-255.5" font-family="Helvetica,sans-Serif" font-size="10.00">+ s()</text>
<text text-anchor="start" x="301.5" y="-244.5" font-family="Helvetica,sans-Serif" font-size="10.00">+ s()</text>
<text text-anchor="start" x="301.5" y="-233.5" font-family="Helvetica,sans-Serif" font-size="10.00">+ y()</text>
<text text-anchor="start" x="301.5" y="-222.5" font-family="Helvetica,sans-Serif" font-size="10.00">+ y()</text>
<text text-anchor="start" x="301.5" y="-211.5" font-family="Helvetica,sans-Serif" font-size="10.00">+ ρ()</text>
<text text-anchor="start" x="301.5" y="-200.5" font-family="Helvetica,sans-Serif" font-size="10.00">+ ρ()</text>
<text text-anchor="start" x="301.5" y="-189.5" font-family="Helvetica,sans-Serif" font-size="10.00">+ α()</text>
<text text-anchor="start" x="301.5" y="-178.5" font-family="Helvetica,sans-Serif" font-size="10.00">+ α()</text>
<text text-anchor="start" x="301.5" y="-167.5" font-family="Helvetica,sans-Serif" font-size="10.00">+ update_valid()</text>
</a>
</g>
</g>
<!-- Node5&#45;&gt;Node1 -->
<g id="edge4" class="edge">
<title>Node5&#45;&gt;Node1</title>
<path fill="none" stroke="#404040" d="M342.5,-160.18C342.5,-147.94 342.5,-136.03 342.5,-124.91"/>
<polygon fill="none" stroke="#404040" points="342.5,-124.73 338.5,-118.73 342.5,-112.73 346.5,-118.73 342.5,-124.73"/>
<text text-anchor="middle" x="360.5" y="-134" font-family="Helvetica,sans-Serif" font-size="10.00"> +lbfgs</text>
</g>
<!-- Node6 -->
<g id="node6" class="node">
<title>Node6</title>
<g id="a_node6"><a xlink:href="namespacepa.html#structpa_1_1LBFGSParams" target="_top" xlink:title="Parameters for the LBFGS and SpecializedLBFGS classes.">
<polygon fill="white" stroke="black" points="266.5,-524 266.5,-603 418.5,-603 418.5,-524 266.5,-524"/>
<text text-anchor="middle" x="342.5" y="-591" font-family="Helvetica,sans-Serif" font-size="10.00">LBFGSParams</text>
<polyline fill="none" stroke="black" points="266.5,-584 418.5,-584 "/>
<text text-anchor="start" x="274.5" y="-572" font-family="Helvetica,sans-Serif" font-size="10.00">+ memory</text>
<text text-anchor="start" x="274.5" y="-561" font-family="Helvetica,sans-Serif" font-size="10.00">+ cbfgs</text>
<text text-anchor="start" x="274.5" y="-550" font-family="Helvetica,sans-Serif" font-size="10.00">+ rescale_when_γ_changes</text>
<polyline fill="none" stroke="black" points="266.5,-543 418.5,-543 "/>
<text text-anchor="middle" x="342.5" y="-531" font-family="Helvetica,sans-Serif" font-size="10.00"> </text>
</a>
</g>
</g>
<!-- Node6&#45;&gt;Node5 -->
<g id="edge5" class="edge">
<title>Node6&#45;&gt;Node5</title>
<path fill="none" stroke="#404040" d="M342.5,-523.79C342.5,-511.83 342.5,-497.83 342.5,-482.84"/>
<polygon fill="none" stroke="#404040" points="342.5,-482.63 338.5,-476.63 342.5,-470.63 346.5,-476.63 342.5,-482.63"/>
<text text-anchor="middle" x="364.5" y="-492" font-family="Helvetica,sans-Serif" font-size="10.00"> &#45;params</text>
</g>
<!-- Node7 -->
<g id="node7" class="node">
<title>Node7</title>
<g id="a_node7"><a xlink:href="classpa_1_1AtomicStopSignal.html" target="_top" xlink:title=" ">
<polygon fill="white" stroke="black" points="409.5,-254 409.5,-377 531.5,-377 531.5,-254 409.5,-254"/>
<text text-anchor="middle" x="470.5" y="-365" font-family="Helvetica,sans-Serif" font-size="10.00">AtomicStopSignal</text>
<polyline fill="none" stroke="black" points="409.5,-358 531.5,-358 "/>
<text text-anchor="start" x="417.5" y="-346" font-family="Helvetica,sans-Serif" font-size="10.00">&#45; stop_flag</text>
<polyline fill="none" stroke="black" points="409.5,-339 531.5,-339 "/>
<text text-anchor="start" x="417.5" y="-327" font-family="Helvetica,sans-Serif" font-size="10.00">+ AtomicStopSignal()</text>
<text text-anchor="start" x="417.5" y="-316" font-family="Helvetica,sans-Serif" font-size="10.00">+ AtomicStopSignal()</text>
<text text-anchor="start" x="417.5" y="-305" font-family="Helvetica,sans-Serif" font-size="10.00">+ operator=()</text>
<text text-anchor="start" x="417.5" y="-294" font-family="Helvetica,sans-Serif" font-size="10.00">+ AtomicStopSignal()</text>
<text text-anchor="start" x="417.5" y="-283" font-family="Helvetica,sans-Serif" font-size="10.00">+ operator=()</text>
<text text-anchor="start" x="417.5" y="-272" font-family="Helvetica,sans-Serif" font-size="10.00">+ stop()</text>
<text text-anchor="start" x="417.5" y="-261" font-family="Helvetica,sans-Serif" font-size="10.00">+ stop_requested()</text>
</a>
</g>
</g>
<!-- Node7&#45;&gt;Node1 -->
<g id="edge6" class="edge">
<title>Node7&#45;&gt;Node1</title>
<path fill="none" stroke="#404040" d="M444.48,-253.74C431.8,-225.03 415.98,-190.45 400.5,-160 394.37,-147.95 387.54,-135.28 380.78,-123.12"/>
<polygon fill="none" stroke="#404040" points="380.75,-123.06 374.32,-119.79 374.87,-112.6 381.3,-115.87 380.75,-123.06"/>
<text text-anchor="middle" x="421" y="-134" font-family="Helvetica,sans-Serif" font-size="10.00"> &#45;stop_signal</text>
</g>
</g>
</svg>
