<?xml version="1.0" encoding="UTF-8" standalone="no"?>
<!DOCTYPE svg PUBLIC "-//W3C//DTD SVG 1.1//EN"
 "http://www.w3.org/Graphics/SVG/1.1/DTD/svg11.dtd">
<!-- Generated by graphviz version 2.43.0 (0)
 -->
<!-- Title: history Pages: 1 -->
<svg width="626pt" height="332pt"
 viewBox="0.00 0.00 626.00 332.00" xmlns="http://www.w3.org/2000/svg" xmlns:xlink="http://www.w3.org/1999/xlink">
<g id="graph0" class="graph" transform="scale(1 1) rotate(0) translate(4 328)">
<title>history</title>
<polygon fill="white" stroke="transparent" points="-4,4 -4,-328 622,-328 622,4 -4,4"/>
<!-- Node1 -->
<g id="node1" class="node">
<title>Node1</title>
<g id="a_node1"><a xlink:title="Get the number of previous vectors s, y, x and g stored in the buffer.">
<polygon fill="#bfbfbf" stroke="black" points="568,-152.5 568,-171.5 618,-171.5 618,-152.5 568,-152.5"/>
<text text-anchor="middle" x="593" y="-159.5" font-family="Helvetica,sans-Serif" font-size="10.00">history</text>
</a>
</g>
</g>
<!-- Node2 -->
<g id="node2" class="node">
<title>Node2</title>
<g id="a_node2"><a xlink:href="classpa_1_1SpecializedLBFGS.html#a3633932c88d15ff3118f72a11f4c58e4" target="_top" xlink:title=" ">
<polygon fill="white" stroke="black" points="335,-290.5 335,-309.5 439,-309.5 439,-290.5 335,-290.5"/>
<text text-anchor="middle" x="387" y="-297.5" font-family="Helvetica,sans-Serif" font-size="10.00">SpecializedLBFGS</text>
</a>
</g>
</g>
<!-- Node1&#45;&gt;Node2 -->
<g id="edge1" class="edge">
<title>Node1&#45;&gt;Node2</title>
<path fill="none" stroke="midnightblue" d="M584.79,-181.1C575.7,-202.65 558.05,-237.25 532,-257 505.08,-277.42 468.55,-288.18 439.01,-293.83"/>
<polygon fill="midnightblue" stroke="midnightblue" points="588.09,-182.28 588.57,-171.7 581.59,-179.67 588.09,-182.28"/>
</g>
<!-- Node3 -->
<g id="node3" class="node">
<title>Node3</title>
<g id="a_node3"><a xlink:href="classpa_1_1SpecializedLBFGS.html#a37dd0ce624f9914a61118d8f02fa1c7f" target="_top" xlink:title="Apply the inverse Hessian approximation to the given vector q.">
<polygon fill="white" stroke="black" points="487,-228.5 487,-247.5 531,-247.5 531,-228.5 487,-228.5"/>
<text text-anchor="middle" x="509" y="-235.5" font-family="Helvetica,sans-Serif" font-size="10.00">apply</text>
</a>
</g>
</g>
<!-- Node1&#45;&gt;Node3 -->
<g id="edge2" class="edge">
<title>Node1&#45;&gt;Node3</title>
<path fill="none" stroke="midnightblue" d="M574.49,-179.06C562.63,-190.5 546.53,-205.83 532,-219 528.56,-222.12 524.75,-225.45 521.28,-228.44"/>
<polygon fill="midnightblue" stroke="midnightblue" points="577.2,-181.3 581.95,-171.83 572.33,-176.27 577.2,-181.3"/>
</g>
<!-- Node5 -->
<g id="node5" class="node">
<title>Node5</title>
<g id="a_node5"><a xlink:href="classpa_1_1SpecializedLBFGS.html#a7e9b3fd96d52976693a1fb57fb32ba3c" target="_top" xlink:title=" ">
<polygon fill="white" stroke="black" points="494.5,-0.5 494.5,-19.5 523.5,-19.5 523.5,-0.5 494.5,-0.5"/>
<text text-anchor="middle" x="509" y="-7.5" font-family="Helvetica,sans-Serif" font-size="10.00">g</text>
</a>
</g>
</g>
<!-- Node1&#45;&gt;Node5 -->
<g id="edge4" class="edge">
<title>Node1&#45;&gt;Node5</title>
<path fill="none" stroke="midnightblue" d="M586.13,-142.34C577.35,-115.06 558.9,-65.04 532,-29 529.46,-25.6 526.22,-22.39 523.01,-19.6"/>
<polygon fill="midnightblue" stroke="midnightblue" points="582.89,-143.71 589.2,-152.22 589.57,-141.63 582.89,-143.71"/>
</g>
<!-- Node13 -->
<g id="node13" class="node">
<title>Node13</title>
<g id="a_node13"><a xlink:href="classpa_1_1SpecializedLBFGS.html#a9cb23d843dff87dd08bd5a916d9eed95" target="_top" xlink:title=" ">
<polygon fill="white" stroke="black" points="494.5,-190.5 494.5,-209.5 523.5,-209.5 523.5,-190.5 494.5,-190.5"/>
<text text-anchor="middle" x="509" y="-197.5" font-family="Helvetica,sans-Serif" font-size="10.00">p</text>
</a>
</g>
</g>
<!-- Node1&#45;&gt;Node13 -->
<g id="edge13" class="edge">
<title>Node1&#45;&gt;Node13</title>
<path fill="none" stroke="midnightblue" d="M562.18,-175.82C549.13,-181.87 534.44,-188.67 523.98,-193.52"/>
<polygon fill="midnightblue" stroke="midnightblue" points="563.71,-178.97 571.31,-171.59 560.76,-172.62 563.71,-178.97"/>
</g>
<!-- Node14 -->
<g id="node14" class="node">
<title>Node14</title>
<g id="a_node14"><a xlink:href="classpa_1_1SpecializedLBFGS.html#a366794fa1c1947b58c0e7cfd78529215" target="_top" xlink:title="Get the previous index in the circular buffer of previous s, y, x and g vectors.">
<polygon fill="white" stroke="black" points="490,-152.5 490,-171.5 528,-171.5 528,-152.5 490,-152.5"/>
<text text-anchor="middle" x="509" y="-159.5" font-family="Helvetica,sans-Serif" font-size="10.00">pred</text>
</a>
</g>
</g>
<!-- Node1&#45;&gt;Node14 -->
<g id="edge15" class="edge">
<title>Node1&#45;&gt;Node14</title>
<path fill="none" stroke="midnightblue" d="M557.56,-162C547.4,-162 536.68,-162 528,-162"/>
<polygon fill="midnightblue" stroke="midnightblue" points="557.84,-165.5 567.84,-162 557.84,-158.5 557.84,-165.5"/>
</g>
<!-- Node15 -->
<g id="node15" class="node">
<title>Node15</title>
<g id="a_node15"><a xlink:href="classpa_1_1SpecializedLBFGS.html#ab94b4f1bcda8e0f0bace15126f54b6d3" target="_top" xlink:title="Re&#45;allocate storage for a problem with a different size.">
<polygon fill="white" stroke="black" points="486,-304.5 486,-323.5 532,-323.5 532,-304.5 486,-304.5"/>
<text text-anchor="middle" x="509" y="-311.5" font-family="Helvetica,sans-Serif" font-size="10.00">resize</text>
</a>
</g>
</g>
<!-- Node1&#45;&gt;Node15 -->
<g id="edge17" class="edge">
<title>Node1&#45;&gt;Node15</title>
<path fill="none" stroke="midnightblue" d="M585.11,-181.23C575.36,-207.14 556.02,-254.14 532,-290 528.6,-295.07 524.16,-300.14 520.15,-304.3"/>
<polygon fill="midnightblue" stroke="midnightblue" points="588.51,-182.1 588.68,-171.51 581.94,-179.69 588.51,-182.1"/>
</g>
<!-- Node16 -->
<g id="node16" class="node">
<title>Node16</title>
<g id="a_node16"><a xlink:href="classpa_1_1SpecializedLBFGS.html#a0df701f7bb07249c37bcbf20d9c980fe" target="_top" xlink:title="Get the next index in the circular buffer of previous s, y, x and g vectors.">
<polygon fill="white" stroke="black" points="490,-76.5 490,-95.5 528,-95.5 528,-76.5 490,-76.5"/>
<text text-anchor="middle" x="509" y="-83.5" font-family="Helvetica,sans-Serif" font-size="10.00">succ</text>
</a>
</g>
</g>
<!-- Node1&#45;&gt;Node16 -->
<g id="edge19" class="edge">
<title>Node1&#45;&gt;Node16</title>
<path fill="none" stroke="midnightblue" d="M574.49,-144.94C562.63,-133.5 546.53,-118.17 532,-105 528.56,-101.88 524.75,-98.55 521.28,-95.56"/>
<polygon fill="midnightblue" stroke="midnightblue" points="572.33,-147.73 581.95,-152.17 577.2,-142.7 572.33,-147.73"/>
</g>
<!-- Node17 -->
<g id="node17" class="node">
<title>Node17</title>
<g id="a_node17"><a xlink:href="classpa_1_1SpecializedLBFGS.html#a45235c456e26733897f13bbf1057323e" target="_top" xlink:title=" ">
<polygon fill="white" stroke="black" points="494.5,-114.5 494.5,-133.5 523.5,-133.5 523.5,-114.5 494.5,-114.5"/>
<text text-anchor="middle" x="509" y="-121.5" font-family="Helvetica,sans-Serif" font-size="10.00">w</text>
</a>
</g>
</g>
<!-- Node1&#45;&gt;Node17 -->
<g id="edge22" class="edge">
<title>Node1&#45;&gt;Node17</title>
<path fill="none" stroke="midnightblue" d="M562.18,-148.18C549.13,-142.13 534.44,-135.33 523.98,-130.48"/>
<polygon fill="midnightblue" stroke="midnightblue" points="560.76,-151.38 571.31,-152.41 563.71,-145.03 560.76,-151.38"/>
</g>
<!-- Node18 -->
<g id="node18" class="node">
<title>Node18</title>
<g id="a_node18"><a xlink:href="classpa_1_1SpecializedLBFGS.html#ac8fb9b5f7c53b1285867cf99b0f79d17" target="_top" xlink:title=" ">
<polygon fill="white" stroke="black" points="494.5,-38.5 494.5,-57.5 523.5,-57.5 523.5,-38.5 494.5,-38.5"/>
<text text-anchor="middle" x="509" y="-45.5" font-family="Helvetica,sans-Serif" font-size="10.00">x</text>
</a>
</g>
</g>
<!-- Node1&#45;&gt;Node18 -->
<g id="edge24" class="edge">
<title>Node1&#45;&gt;Node18</title>
<path fill="none" stroke="midnightblue" d="M582.46,-143.49C571.68,-123.51 552.91,-91.28 532,-67 529.23,-63.79 525.91,-60.64 522.7,-57.86"/>
<polygon fill="midnightblue" stroke="midnightblue" points="579.44,-145.27 587.21,-152.48 585.63,-142 579.44,-145.27"/>
</g>
<!-- Node4 -->
<g id="node4" class="node">
<title>Node4</title>
<g id="a_node4"><a xlink:href="structpa_1_1PANOCDirection_3_01SpecializedLBFGS_01_4.html#ab54e8671980ec079ccaa05f3af04ca50" target="_top" xlink:title=" ">
<polygon fill="white" stroke="black" points="324,-217.5 324,-258.5 450,-258.5 450,-217.5 324,-217.5"/>
<text text-anchor="start" x="332" y="-246.5" font-family="Helvetica,sans-Serif" font-size="10.00">pa::PANOCDirection</text>
<text text-anchor="start" x="332" y="-235.5" font-family="Helvetica,sans-Serif" font-size="10.00">&lt; SpecializedLBFGS &gt;</text>
<text text-anchor="middle" x="387" y="-224.5" font-family="Helvetica,sans-Serif" font-size="10.00">::apply</text>
</a>
</g>
</g>
<!-- Node3&#45;&gt;Node4 -->
<g id="edge3" class="edge">
<title>Node3&#45;&gt;Node4</title>
<path fill="none" stroke="midnightblue" d="M476.67,-238C468.48,-238 459.37,-238 450.18,-238"/>
<polygon fill="midnightblue" stroke="midnightblue" points="476.82,-241.5 486.82,-238 476.82,-234.5 476.82,-241.5"/>
</g>
<!-- Node6 -->
<g id="node6" class="node">
<title>Node6</title>
<g id="a_node6"><a xlink:href="classpa_1_1SpecializedLBFGS.html#a71d9f5b74a18b1ef994683c1aa4914da" target="_top" xlink:title="L&#45;BFGS update when changing the step size γ, recomputing everything.">
<polygon fill="white" stroke="black" points="351.5,-114.5 351.5,-133.5 422.5,-133.5 422.5,-114.5 351.5,-114.5"/>
<text text-anchor="middle" x="387" y="-121.5" font-family="Helvetica,sans-Serif" font-size="10.00">full_update</text>
</a>
</g>
</g>
<!-- Node5&#45;&gt;Node6 -->
<g id="edge5" class="edge">
<title>Node5&#45;&gt;Node6</title>
<path fill="none" stroke="midnightblue" d="M487.78,-26.81C487.16,-27.53 486.56,-28.26 486,-29 463.37,-58.74 478.27,-80.56 450,-105 442.34,-111.63 432.4,-115.94 422.73,-118.75"/>
<polygon fill="midnightblue" stroke="midnightblue" points="490.38,-29.16 495.03,-19.64 485.46,-24.18 490.38,-29.16"/>
</g>
<!-- Node9 -->
<g id="node9" class="node">
<title>Node9</title>
<g id="a_node9"><a xlink:href="classpa_1_1SpecializedLBFGS.html#ac635435dc083d4ac90f811818e3e1526" target="_top" xlink:title="Initialize with the starting point x₀ and the gradient in that point.">
<polygon fill="white" stroke="black" points="357.5,-38.5 357.5,-57.5 416.5,-57.5 416.5,-38.5 357.5,-38.5"/>
<text text-anchor="middle" x="387" y="-45.5" font-family="Helvetica,sans-Serif" font-size="10.00">initialize</text>
</a>
</g>
</g>
<!-- Node5&#45;&gt;Node9 -->
<g id="edge8" class="edge">
<title>Node5&#45;&gt;Node9</title>
<path fill="none" stroke="midnightblue" d="M484.47,-17.82C473.94,-21.29 461.36,-25.4 450,-29 439.16,-32.44 427.22,-36.12 416.74,-39.32"/>
<polygon fill="midnightblue" stroke="midnightblue" points="485.8,-21.07 494.2,-14.6 483.6,-14.42 485.8,-21.07"/>
</g>
<!-- Node11 -->
<g id="node11" class="node">
<title>Node11</title>
<g id="a_node11"><a xlink:href="classpa_1_1SpecializedLBFGS.html#ad20897c5c8bd47f5d4005989bead0e55" target="_top" xlink:title="Throw away the approximation and all previous vectors s and y.">
<polygon fill="white" stroke="black" points="366.5,-0.5 366.5,-19.5 407.5,-19.5 407.5,-0.5 366.5,-0.5"/>
<text text-anchor="middle" x="387" y="-7.5" font-family="Helvetica,sans-Serif" font-size="10.00">reset</text>
</a>
</g>
</g>
<!-- Node5&#45;&gt;Node11 -->
<g id="edge10" class="edge">
<title>Node5&#45;&gt;Node11</title>
<path fill="none" stroke="midnightblue" d="M484.18,-10C461.72,-10 428.48,-10 407.54,-10"/>
<polygon fill="midnightblue" stroke="midnightblue" points="484.23,-13.5 494.23,-10 484.23,-6.5 484.23,-13.5"/>
</g>
<!-- Node12 -->
<g id="node12" class="node">
<title>Node12</title>
<g id="a_node12"><a xlink:href="classpa_1_1SpecializedLBFGS.html#ae20511c5fb7ae45113aeba25b63c6d55" target="_top" xlink:title="Standard L&#45;BFGS update without changing the step size γ.">
<polygon fill="white" stroke="black" points="338,-76.5 338,-95.5 436,-95.5 436,-76.5 338,-76.5"/>
<text text-anchor="middle" x="387" y="-83.5" font-family="Helvetica,sans-Serif" font-size="10.00">standard_update</text>
</a>
</g>
</g>
<!-- Node5&#45;&gt;Node12 -->
<g id="edge11" class="edge">
<title>Node5&#45;&gt;Node12</title>
<path fill="none" stroke="midnightblue" d="M488.47,-26.68C487.63,-27.46 486.8,-28.23 486,-29 469.18,-45.07 469.77,-54.74 450,-67 443.78,-70.86 436.72,-73.98 429.65,-76.49"/>
<polygon fill="midnightblue" stroke="midnightblue" points="491.01,-29.11 496.16,-19.85 486.36,-23.87 491.01,-29.11"/>
</g>
<!-- Node7 -->
<g id="node7" class="node">
<title>Node7</title>
<g id="a_node7"><a xlink:href="classpa_1_1SpecializedLBFGS.html#a8032c3cbff7a91765be22979ccd4f79b" target="_top" xlink:title="Update the inverse Hessian approximation using the new vectors xₖ₊₁ and pₖ₊₁.">
<polygon fill="white" stroke="black" points="200,-100.5 200,-119.5 250,-119.5 250,-100.5 200,-100.5"/>
<text text-anchor="middle" x="225" y="-107.5" font-family="Helvetica,sans-Serif" font-size="10.00">update</text>
</a>
</g>
</g>
<!-- Node6&#45;&gt;Node7 -->
<g id="edge6" class="edge">
<title>Node6&#45;&gt;Node7</title>
<path fill="none" stroke="midnightblue" d="M341.23,-120.08C311.75,-117.5 274.31,-114.23 250.25,-112.12"/>
<polygon fill="midnightblue" stroke="midnightblue" points="341.02,-123.58 351.28,-120.96 341.63,-116.6 341.02,-123.58"/>
</g>
<!-- Node8 -->
<g id="node8" class="node">
<title>Node8</title>
<g id="a_node8"><a xlink:href="structpa_1_1PANOCDirection_3_01SpecializedLBFGS_01_4.html#a1932af68886cf467a0300e371e94a2c3" target="_top" xlink:title=" ">
<polygon fill="white" stroke="black" points="0,-89.5 0,-130.5 126,-130.5 126,-89.5 0,-89.5"/>
<text text-anchor="start" x="8" y="-118.5" font-family="Helvetica,sans-Serif" font-size="10.00">pa::PANOCDirection</text>
<text text-anchor="start" x="8" y="-107.5" font-family="Helvetica,sans-Serif" font-size="10.00">&lt; SpecializedLBFGS &gt;</text>
<text text-anchor="middle" x="63" y="-96.5" font-family="Helvetica,sans-Serif" font-size="10.00">::update</text>
</a>
</g>
</g>
<!-- Node7&#45;&gt;Node8 -->
<g id="edge7" class="edge">
<title>Node7&#45;&gt;Node8</title>
<path fill="none" stroke="midnightblue" d="M189.45,-110C171,-110 147.74,-110 126.26,-110"/>
<polygon fill="midnightblue" stroke="midnightblue" points="189.7,-113.5 199.7,-110 189.7,-106.5 189.7,-113.5"/>
</g>
<!-- Node10 -->
<g id="node10" class="node">
<title>Node10</title>
<g id="a_node10"><a xlink:href="structpa_1_1PANOCDirection_3_01SpecializedLBFGS_01_4.html#a5a764dbf1d1d45d461b299ab91c8b0df" target="_top" xlink:title=" ">
<polygon fill="white" stroke="black" points="162,-27.5 162,-68.5 288,-68.5 288,-27.5 162,-27.5"/>
<text text-anchor="start" x="170" y="-56.5" font-family="Helvetica,sans-Serif" font-size="10.00">pa::PANOCDirection</text>
<text text-anchor="start" x="170" y="-45.5" font-family="Helvetica,sans-Serif" font-size="10.00">&lt; SpecializedLBFGS &gt;</text>
<text text-anchor="middle" x="225" y="-34.5" font-family="Helvetica,sans-Serif" font-size="10.00">::initialize</text>
</a>
</g>
</g>
<!-- Node9&#45;&gt;Node10 -->
<g id="edge9" class="edge">
<title>Node9&#45;&gt;Node10</title>
<path fill="none" stroke="midnightblue" d="M346.91,-48C329.25,-48 307.95,-48 288.17,-48"/>
<polygon fill="midnightblue" stroke="midnightblue" points="347.4,-51.5 357.4,-48 347.4,-44.5 347.4,-51.5"/>
</g>
<!-- Node12&#45;&gt;Node7 -->
<g id="edge12" class="edge">
<title>Node12&#45;&gt;Node7</title>
<path fill="none" stroke="midnightblue" d="M327.94,-94.71C301.19,-98.72 270.89,-103.27 250.33,-106.35"/>
<polygon fill="midnightblue" stroke="midnightblue" points="328.62,-98.15 337.99,-93.2 327.59,-91.22 328.62,-98.15"/>
</g>
<!-- Node13&#45;&gt;Node6 -->
<g id="edge14" class="edge">
<title>Node13&#45;&gt;Node6</title>
<path fill="none" stroke="midnightblue" d="M485.74,-185.9C461.67,-170.66 423.95,-146.77 403.11,-133.57"/>
<polygon fill="midnightblue" stroke="midnightblue" points="483.91,-188.89 494.23,-191.28 487.66,-182.97 483.91,-188.89"/>
</g>
<!-- Node14&#45;&gt;Node6 -->
<g id="edge16" class="edge">
<title>Node14&#45;&gt;Node6</title>
<path fill="none" stroke="midnightblue" d="M480.12,-153.17C461.53,-147.28 437.11,-139.55 418.09,-133.53"/>
<polygon fill="midnightblue" stroke="midnightblue" points="479.18,-156.55 489.77,-156.23 481.3,-149.87 479.18,-156.55"/>
</g>
<!-- Node15&#45;&gt;Node2 -->
<g id="edge18" class="edge">
<title>Node15&#45;&gt;Node2</title>
<path fill="none" stroke="midnightblue" d="M475.74,-310.24C464.44,-308.92 451.46,-307.4 439,-305.95"/>
<polygon fill="midnightblue" stroke="midnightblue" points="475.65,-313.75 485.99,-311.43 476.46,-306.8 475.65,-313.75"/>
</g>
<!-- Node16&#45;&gt;Node6 -->
<g id="edge20" class="edge">
<title>Node16&#45;&gt;Node6</title>
<path fill="none" stroke="midnightblue" d="M479.99,-95.3C470.48,-98.42 459.79,-101.9 450,-105 440.13,-108.13 429.34,-111.46 419.58,-114.45"/>
<polygon fill="midnightblue" stroke="midnightblue" points="481.34,-98.54 489.74,-92.08 479.15,-91.89 481.34,-98.54"/>
</g>
<!-- Node16&#45;&gt;Node12 -->
<g id="edge21" class="edge">
<title>Node16&#45;&gt;Node12</title>
<path fill="none" stroke="midnightblue" d="M479.63,-86C466.68,-86 450.98,-86 436.26,-86"/>
<polygon fill="midnightblue" stroke="midnightblue" points="479.77,-89.5 489.77,-86 479.77,-82.5 479.77,-89.5"/>
</g>
<!-- Node17&#45;&gt;Node6 -->
<g id="edge23" class="edge">
<title>Node17&#45;&gt;Node6</title>
<path fill="none" stroke="midnightblue" d="M484.22,-124C466.6,-124 442.31,-124 422.54,-124"/>
<polygon fill="midnightblue" stroke="midnightblue" points="484.23,-127.5 494.23,-124 484.23,-120.5 484.23,-127.5"/>
</g>
<!-- Node18&#45;&gt;Node6 -->
<g id="edge25" class="edge">
<title>Node18&#45;&gt;Node6</title>
<path fill="none" stroke="midnightblue" d="M488.47,-64.68C487.63,-65.46 486.8,-66.23 486,-67 469.18,-83.07 469.77,-92.74 450,-105 441.68,-110.16 431.85,-114.01 422.5,-116.84"/>
<polygon fill="midnightblue" stroke="midnightblue" points="491.01,-67.11 496.16,-57.85 486.36,-61.87 491.01,-67.11"/>
</g>
<!-- Node18&#45;&gt;Node9 -->
<g id="edge26" class="edge">
<title>Node18&#45;&gt;Node9</title>
<path fill="none" stroke="midnightblue" d="M484.1,-48C464.67,-48 437.2,-48 416.6,-48"/>
<polygon fill="midnightblue" stroke="midnightblue" points="484.23,-51.5 494.23,-48 484.23,-44.5 484.23,-51.5"/>
</g>
<!-- Node18&#45;&gt;Node11 -->
<g id="edge27" class="edge">
<title>Node18&#45;&gt;Node11</title>
<path fill="none" stroke="midnightblue" d="M484.47,-40.18C473.94,-36.71 461.36,-32.6 450,-29 435.83,-24.51 419.79,-19.6 407.58,-15.89"/>
<polygon fill="midnightblue" stroke="midnightblue" points="483.6,-43.58 494.2,-43.4 485.8,-36.93 483.6,-43.58"/>
</g>
<!-- Node18&#45;&gt;Node12 -->
<g id="edge28" class="edge">
<title>Node18&#45;&gt;Node12</title>
<path fill="none" stroke="midnightblue" d="M484.47,-55.82C473.94,-59.29 461.36,-63.4 450,-67 440.13,-70.13 429.34,-73.46 419.58,-76.45"/>
<polygon fill="midnightblue" stroke="midnightblue" points="485.8,-59.07 494.2,-52.6 483.6,-52.42 485.8,-59.07"/>
</g>
</g>
</svg>
