<?xml version="1.0" encoding="UTF-8" standalone="no"?>
<!DOCTYPE svg PUBLIC "-//W3C//DTD SVG 1.1//EN"
 "http://www.w3.org/Graphics/SVG/1.1/DTD/svg11.dtd">
<!-- Generated by graphviz version 2.43.0 (0)
 -->
<!-- Title: m Pages: 1 -->
<svg width="942pt" height="420pt"
 viewBox="0.00 0.00 942.00 419.50" xmlns="http://www.w3.org/2000/svg" xmlns:xlink="http://www.w3.org/1999/xlink">
<g id="graph0" class="graph" transform="scale(1 1) rotate(0) translate(4 415.5)">
<title>m</title>
<polygon fill="white" stroke="transparent" points="-4,4 -4,-415.5 938,-415.5 938,4 -4,4"/>
<!-- Node1 -->
<g id="node1" class="node">
<title>Node1</title>
<g id="a_node1"><a xlink:title=" ">
<polygon fill="#bfbfbf" stroke="black" points="905,-183 905,-202 934,-202 934,-183 905,-183"/>
<text text-anchor="middle" x="919.5" y="-190" font-family="Helvetica,sans-Serif" font-size="10.00">m</text>
</a>
</g>
</g>
<!-- Node2 -->
<g id="node2" class="node">
<title>Node2</title>
<g id="a_node2"><a xlink:href="classpa_1_1LimitedMemoryQR.html#a5e3077223e98c1e4e286e01503f220d5" target="_top" xlink:title="Add the given column to the right.">
<polygon fill="white" stroke="black" points="681.5,-392 681.5,-411 757.5,-411 757.5,-392 681.5,-392"/>
<text text-anchor="middle" x="719.5" y="-399" font-family="Helvetica,sans-Serif" font-size="10.00">add_column</text>
</a>
</g>
</g>
<!-- Node1&#45;&gt;Node2 -->
<g id="edge1" class="edge">
<title>Node1&#45;&gt;Node2</title>
<path fill="none" stroke="midnightblue" d="M918.74,-212.37C918.04,-247.92 911.25,-322.55 869,-363.5 839.38,-392.21 791.19,-400.08 757.77,-401.83"/>
<polygon fill="midnightblue" stroke="midnightblue" points="922.24,-212.3 918.79,-202.29 915.24,-212.27 922.24,-212.3"/>
</g>
<!-- Node3 -->
<g id="node3" class="node">
<title>Node3</title>
<g id="a_node3"><a xlink:href="namespacepa.html#a04d9e05002d02fd15c58766c259ef0d7" target="_top" xlink:title="Solve one step of Anderson acceleration to find a fixed point of a function g(x):">
<polygon fill="white" stroke="black" points="377,-268.5 377,-298.5 496,-298.5 496,-268.5 377,-268.5"/>
<text text-anchor="start" x="385" y="-286.5" font-family="Helvetica,sans-Serif" font-size="10.00">pa::minimize_update</text>
<text text-anchor="middle" x="436.5" y="-275.5" font-family="Helvetica,sans-Serif" font-size="10.00">_anderson</text>
</a>
</g>
</g>
<!-- Node1&#45;&gt;Node3 -->
<g id="edge6" class="edge">
<title>Node1&#45;&gt;Node3</title>
<path fill="none" stroke="midnightblue" d="M895.3,-201.64C867.36,-212.38 818.83,-230.17 776,-241.5 710.61,-258.8 694.06,-263.63 627,-272.5 583.39,-278.27 533.73,-281.01 496.19,-282.32"/>
<polygon fill="midnightblue" stroke="midnightblue" points="896.89,-204.78 904.95,-197.9 894.36,-198.26 896.89,-204.78"/>
</g>
<!-- Node7 -->
<g id="node7" class="node">
<title>Node7</title>
<g id="a_node7"><a xlink:href="classpa_1_1LimitedMemoryQR.html#a6e0de5c03f836ba30eab386837b31be4" target="_top" xlink:title="Get the previous index in the circular storage for R.">
<polygon fill="white" stroke="black" points="817,-50 817,-69 864,-69 864,-50 817,-50"/>
<text text-anchor="middle" x="840.5" y="-57" font-family="Helvetica,sans-Serif" font-size="10.00">r_pred</text>
</a>
</g>
</g>
<!-- Node1&#45;&gt;Node7 -->
<g id="edge7" class="edge">
<title>Node1&#45;&gt;Node7</title>
<path fill="none" stroke="midnightblue" d="M912.53,-173.14C904.86,-150.25 889.99,-111.71 869,-83.5 864.99,-78.11 859.59,-73.07 854.63,-69.01"/>
<polygon fill="midnightblue" stroke="midnightblue" points="909.22,-174.29 915.62,-182.73 915.88,-172.14 909.22,-174.29"/>
</g>
<!-- Node9 -->
<g id="node9" class="node">
<title>Node9</title>
<g id="a_node9"><a xlink:href="classpa_1_1LimitedMemoryQR.html#abb2e912e6196e7c6996d3f43fea78237" target="_top" xlink:title="Get the next index in the circular storage for R.">
<polygon fill="white" stroke="black" points="817,-335 817,-354 864,-354 864,-335 817,-335"/>
<text text-anchor="middle" x="840.5" y="-342" font-family="Helvetica,sans-Serif" font-size="10.00">r_succ</text>
</a>
</g>
</g>
<!-- Node1&#45;&gt;Node9 -->
<g id="edge9" class="edge">
<title>Node1&#45;&gt;Node9</title>
<path fill="none" stroke="midnightblue" d="M910.81,-211.57C901.7,-233.65 885.63,-270.9 869,-301.5 862.57,-313.34 854.08,-326.28 848.24,-334.84"/>
<polygon fill="midnightblue" stroke="midnightblue" points="914.16,-212.63 914.7,-202.05 907.68,-209.99 914.16,-212.63"/>
</g>
<!-- Node12 -->
<g id="node12" class="node">
<title>Node12</title>
<g id="a_node12"><a xlink:href="classpa_1_1LimitedMemoryQR.html#a94d70718a4b923a645b928bc68524916" target="_top" xlink:title="Re&#45;allocate storage for a problem with a different size.">
<polygon fill="white" stroke="black" points="817.5,-9 817.5,-28 863.5,-28 863.5,-9 817.5,-9"/>
<text text-anchor="middle" x="840.5" y="-16" font-family="Helvetica,sans-Serif" font-size="10.00">resize</text>
</a>
</g>
</g>
<!-- Node1&#45;&gt;Node12 -->
<g id="edge14" class="edge">
<title>Node1&#45;&gt;Node12</title>
<path fill="none" stroke="midnightblue" d="M915.74,-172.49C910.73,-141.77 897.85,-82.18 869,-40.5 865.73,-35.77 861.15,-31.55 856.67,-28.1"/>
<polygon fill="midnightblue" stroke="midnightblue" points="912.34,-173.39 917.3,-182.75 919.26,-172.34 912.34,-173.39"/>
</g>
<!-- Node14 -->
<g id="node14" class="node">
<title>Node14</title>
<g id="a_node14"><a xlink:href="classpa_1_1LimitedMemoryQR.html#a7a0e06dceccc0bbe82ebd81247a5a412" target="_top" xlink:title="Get iterators in the circular buffer.">
<polygon fill="white" stroke="black" points="812,-183 812,-202 869,-202 869,-183 812,-183"/>
<text text-anchor="middle" x="840.5" y="-190" font-family="Helvetica,sans-Serif" font-size="10.00">ring_iter</text>
</a>
</g>
</g>
<!-- Node1&#45;&gt;Node14 -->
<g id="edge16" class="edge">
<title>Node1&#45;&gt;Node14</title>
<path fill="none" stroke="midnightblue" d="M894.55,-192.5C886.51,-192.5 877.48,-192.5 869.18,-192.5"/>
<polygon fill="midnightblue" stroke="midnightblue" points="894.73,-196 904.73,-192.5 894.73,-189 894.73,-196"/>
</g>
<!-- Node18 -->
<g id="node18" class="node">
<title>Node18</title>
<g id="a_node18"><a xlink:href="classpa_1_1LimitedMemoryQR.html#a1a581dbbeed876108b943e45451d0abf" target="_top" xlink:title="Solve the least squares problem AX = B.">
<polygon fill="white" stroke="black" points="239,-98 239,-117 282,-117 282,-98 239,-98"/>
<text text-anchor="middle" x="260.5" y="-105" font-family="Helvetica,sans-Serif" font-size="10.00">solve</text>
</a>
</g>
</g>
<!-- Node1&#45;&gt;Node18 -->
<g id="edge26" class="edge">
<title>Node1&#45;&gt;Node18</title>
<path fill="none" stroke="midnightblue" d="M899.28,-176.03C865.5,-148.83 792.25,-97.5 720.5,-97.5 720.5,-97.5 720.5,-97.5 578.5,-97.5 466.72,-97.5 332.89,-103.79 282.26,-106.39"/>
<polygon fill="midnightblue" stroke="midnightblue" points="897.42,-179.03 907.36,-182.69 901.87,-173.63 897.42,-179.03"/>
</g>
<!-- Node2&#45;&gt;Node3 -->
<g id="edge2" class="edge">
<title>Node2&#45;&gt;Node3</title>
<path fill="none" stroke="midnightblue" d="M671.39,-390.95C632.86,-381.42 577.52,-365.65 532,-344.5 504.55,-331.75 475.7,-312.08 457.2,-298.54"/>
<polygon fill="midnightblue" stroke="midnightblue" points="670.75,-394.39 681.29,-393.35 672.4,-387.59 670.75,-394.39"/>
</g>
<!-- Node4 -->
<g id="node4" class="node">
<title>Node4</title>
<g id="a_node4"><a xlink:href="classpa_1_1AndersonAccel.html#a631bbbe30343f7e51af52d3d4e7804c6" target="_top" xlink:title=" ">
<polygon fill="white" stroke="black" points="204,-268.5 204,-298.5 317,-298.5 317,-268.5 204,-268.5"/>
<text text-anchor="start" x="212" y="-286.5" font-family="Helvetica,sans-Serif" font-size="10.00">pa::AndersonAccel::</text>
<text text-anchor="middle" x="260.5" y="-275.5" font-family="Helvetica,sans-Serif" font-size="10.00">compute</text>
</a>
</g>
</g>
<!-- Node3&#45;&gt;Node4 -->
<g id="edge3" class="edge">
<title>Node3&#45;&gt;Node4</title>
<path fill="none" stroke="midnightblue" d="M366.52,-283.5C350.12,-283.5 332.83,-283.5 317.12,-283.5"/>
<polygon fill="midnightblue" stroke="midnightblue" points="366.59,-287 376.59,-283.5 366.59,-280 366.59,-287"/>
</g>
<!-- Node6 -->
<g id="node6" class="node">
<title>Node6</title>
<g id="a_node6"><a xlink:href="classpa_1_1GAAPGASolver.html#a570ec001ea8eee359be8a1b90b782cfb" target="_top" xlink:title=" ">
<polygon fill="white" stroke="black" points="180,-214 180,-233 341,-233 341,-214 180,-214"/>
<text text-anchor="middle" x="260.5" y="-221" font-family="Helvetica,sans-Serif" font-size="10.00">pa::GAAPGASolver::operator()</text>
</a>
</g>
</g>
<!-- Node3&#45;&gt;Node6 -->
<g id="edge5" class="edge">
<title>Node3&#45;&gt;Node6</title>
<path fill="none" stroke="midnightblue" d="M381.88,-265.01C351.17,-254.42 313.92,-241.58 289.07,-233.01"/>
<polygon fill="midnightblue" stroke="midnightblue" points="381,-268.41 391.59,-268.36 383.28,-261.79 381,-268.41"/>
</g>
<!-- Node5 -->
<g id="node5" class="node">
<title>Node5</title>
<g id="a_node5"><a xlink:href="structpa_1_1PANOCDirection_3_01AndersonAccel_01_4.html#a8a49b1b1fd45d514a2bf04870f16e20d" target="_top" xlink:title=" ">
<polygon fill="white" stroke="black" points="0,-268.5 0,-298.5 144,-298.5 144,-268.5 0,-268.5"/>
<text text-anchor="start" x="8" y="-286.5" font-family="Helvetica,sans-Serif" font-size="10.00">pa::PANOCDirection</text>
<text text-anchor="middle" x="72" y="-275.5" font-family="Helvetica,sans-Serif" font-size="10.00">&lt; AndersonAccel &gt;::apply</text>
</a>
</g>
</g>
<!-- Node4&#45;&gt;Node5 -->
<g id="edge4" class="edge">
<title>Node4&#45;&gt;Node5</title>
<path fill="none" stroke="midnightblue" d="M193.52,-283.5C177.59,-283.5 160.49,-283.5 144.33,-283.5"/>
<polygon fill="midnightblue" stroke="midnightblue" points="193.8,-287 203.8,-283.5 193.8,-280 193.8,-287"/>
</g>
<!-- Node8 -->
<g id="node8" class="node">
<title>Node8</title>
<g id="a_node8"><a xlink:href="classpa_1_1LimitedMemoryQR.html#a1cd3db75f0cb9d7315d073ce5d96df41" target="_top" xlink:title="Get the previous index in the circular buffer.">
<polygon fill="white" stroke="black" points="688.5,-50 688.5,-69 750.5,-69 750.5,-50 688.5,-50"/>
<text text-anchor="middle" x="719.5" y="-57" font-family="Helvetica,sans-Serif" font-size="10.00">ring_prev</text>
</a>
</g>
</g>
<!-- Node7&#45;&gt;Node8 -->
<g id="edge8" class="edge">
<title>Node7&#45;&gt;Node8</title>
<path fill="none" stroke="midnightblue" d="M806.53,-59.5C789.06,-59.5 767.76,-59.5 750.73,-59.5"/>
<polygon fill="midnightblue" stroke="midnightblue" points="806.84,-63 816.84,-59.5 806.84,-56 806.84,-63"/>
</g>
<!-- Node9&#45;&gt;Node2 -->
<g id="edge10" class="edge">
<title>Node9&#45;&gt;Node2</title>
<path fill="none" stroke="midnightblue" d="M816.6,-359.8C804.8,-367.26 789.98,-376.01 776,-382.5 768.42,-386.02 760.01,-389.23 752.07,-391.97"/>
<polygon fill="midnightblue" stroke="midnightblue" points="818.84,-362.51 825.35,-354.15 815.05,-356.63 818.84,-362.51"/>
</g>
<!-- Node10 -->
<g id="node10" class="node">
<title>Node10</title>
<g id="a_node10"><a xlink:href="classpa_1_1LimitedMemoryQR.html#a436c4dbbf0476354ca67a104bc005e55" target="_top" xlink:title="Remove the leftmost column.">
<polygon fill="white" stroke="black" points="532,-316 532,-335 627,-335 627,-316 532,-316"/>
<text text-anchor="middle" x="579.5" y="-323" font-family="Helvetica,sans-Serif" font-size="10.00">remove_column</text>
</a>
</g>
</g>
<!-- Node9&#45;&gt;Node10 -->
<g id="edge11" class="edge">
<title>Node9&#45;&gt;Node10</title>
<path fill="none" stroke="midnightblue" d="M806.82,-342.1C761.51,-338.78 679.35,-332.75 627.48,-328.95"/>
<polygon fill="midnightblue" stroke="midnightblue" points="806.74,-345.61 816.97,-342.85 807.25,-338.62 806.74,-345.61"/>
</g>
<!-- Node11 -->
<g id="node11" class="node">
<title>Node11</title>
<g id="a_node11"><a xlink:href="classpa_1_1LimitedMemoryQR.html#af7f8c95bb4f88ce659d9eee262afae4b" target="_top" xlink:title="Get the next index in the circular buffer.">
<polygon fill="white" stroke="black" points="688.5,-354 688.5,-373 750.5,-373 750.5,-354 688.5,-354"/>
<text text-anchor="middle" x="719.5" y="-361" font-family="Helvetica,sans-Serif" font-size="10.00">ring_next</text>
</a>
</g>
</g>
<!-- Node9&#45;&gt;Node11 -->
<g id="edge13" class="edge">
<title>Node9&#45;&gt;Node11</title>
<path fill="none" stroke="midnightblue" d="M806.53,-349.76C789.06,-352.55 767.76,-355.95 750.73,-358.67"/>
<polygon fill="midnightblue" stroke="midnightblue" points="807.51,-353.15 816.84,-348.12 806.41,-346.24 807.51,-353.15"/>
</g>
<!-- Node10&#45;&gt;Node3 -->
<g id="edge12" class="edge">
<title>Node10&#45;&gt;Node3</title>
<path fill="none" stroke="midnightblue" d="M536.78,-313.07C521.45,-308.51 503.92,-303.28 487.9,-298.51"/>
<polygon fill="midnightblue" stroke="midnightblue" points="535.92,-316.47 546.5,-315.97 537.92,-309.76 535.92,-316.47"/>
</g>
<!-- Node13 -->
<g id="node13" class="node">
<title>Node13</title>
<g id="a_node13"><a xlink:href="classpa_1_1AndersonAccel.html#a94d70718a4b923a645b928bc68524916" target="_top" xlink:title=" ">
<polygon fill="white" stroke="black" points="663,-0.5 663,-30.5 776,-30.5 776,-0.5 663,-0.5"/>
<text text-anchor="start" x="671" y="-18.5" font-family="Helvetica,sans-Serif" font-size="10.00">pa::AndersonAccel::</text>
<text text-anchor="middle" x="719.5" y="-7.5" font-family="Helvetica,sans-Serif" font-size="10.00">resize</text>
</a>
</g>
</g>
<!-- Node12&#45;&gt;Node13 -->
<g id="edge15" class="edge">
<title>Node12&#45;&gt;Node13</title>
<path fill="none" stroke="midnightblue" d="M807.15,-17.68C797.56,-17.44 786.76,-17.17 776.14,-16.9"/>
<polygon fill="midnightblue" stroke="midnightblue" points="807.31,-21.19 817.4,-17.94 807.49,-14.19 807.31,-21.19"/>
</g>
<!-- Node14&#45;&gt;Node3 -->
<g id="edge17" class="edge">
<title>Node14&#45;&gt;Node3</title>
<path fill="none" stroke="midnightblue" d="M804.73,-205.48C795.47,-208.67 785.42,-211.92 776,-214.5 679.11,-241.03 564.09,-262.39 496.15,-273.98"/>
<polygon fill="midnightblue" stroke="midnightblue" points="806.14,-208.69 814.4,-202.05 803.81,-202.09 806.14,-208.69"/>
</g>
<!-- Node15 -->
<g id="node15" class="node">
<title>Node15</title>
<g id="a_node15"><a xlink:href="classpa_1_1LimitedMemoryQR.html#a53110c85b0c151a290bf8d29533cd370" target="_top" xlink:title="Get reverse iterators in the circular buffer.">
<polygon fill="white" stroke="black" points="670,-164 670,-183 769,-183 769,-164 670,-164"/>
<text text-anchor="middle" x="719.5" y="-171" font-family="Helvetica,sans-Serif" font-size="10.00">ring_reverse_iter</text>
</a>
</g>
</g>
<!-- Node14&#45;&gt;Node15 -->
<g id="edge18" class="edge">
<title>Node14&#45;&gt;Node15</title>
<path fill="none" stroke="midnightblue" d="M801.97,-186.51C791.64,-184.86 780.29,-183.05 769.42,-181.31"/>
<polygon fill="midnightblue" stroke="midnightblue" points="801.47,-189.97 811.9,-188.09 802.58,-183.06 801.47,-189.97"/>
</g>
<!-- Node16 -->
<g id="node16" class="node">
<title>Node16</title>
<g id="a_node16"><a xlink:href="classpa_1_1LimitedMemoryQR.html#a7a60dfe0a5f68bc1efec69e406a2b619" target="_top" xlink:title="Solve the least squares problem Ax = b.">
<polygon fill="white" stroke="black" points="548.5,-145 548.5,-164 610.5,-164 610.5,-145 548.5,-145"/>
<text text-anchor="middle" x="579.5" y="-152" font-family="Helvetica,sans-Serif" font-size="10.00">solve_col</text>
</a>
</g>
</g>
<!-- Node14&#45;&gt;Node16 -->
<g id="edge25" class="edge">
<title>Node14&#45;&gt;Node16</title>
<path fill="none" stroke="midnightblue" d="M819.5,-176.69C807.6,-168.31 791.79,-158.86 776,-154.5 719.24,-138.81 649.62,-144.39 610.64,-149.61"/>
<polygon fill="midnightblue" stroke="midnightblue" points="817.64,-179.67 827.77,-182.79 821.8,-174.03 817.64,-179.67"/>
</g>
<!-- Node19 -->
<g id="node19" class="node">
<title>Node19</title>
<g id="a_node19"><a xlink:href="classpa_1_1LimitedMemoryQR.html#adf11f99cb8b119423c86498dbaab9820" target="_top" xlink:title="Multiply the matrix R by a scalar.">
<polygon fill="white" stroke="black" points="552.5,-202 552.5,-221 606.5,-221 606.5,-202 552.5,-202"/>
<text text-anchor="middle" x="579.5" y="-209" font-family="Helvetica,sans-Serif" font-size="10.00">scale_R</text>
</a>
</g>
</g>
<!-- Node14&#45;&gt;Node19 -->
<g id="edge23" class="edge">
<title>Node14&#45;&gt;Node19</title>
<path fill="none" stroke="midnightblue" d="M801.74,-195.27C748.58,-199.17 653.01,-206.18 606.86,-209.57"/>
<polygon fill="midnightblue" stroke="midnightblue" points="802.07,-198.76 811.78,-194.53 801.55,-191.77 802.07,-198.76"/>
</g>
<!-- Node15&#45;&gt;Node16 -->
<g id="edge19" class="edge">
<title>Node15&#45;&gt;Node16</title>
<path fill="none" stroke="midnightblue" d="M659.5,-165.38C642.67,-163.06 625.02,-160.63 610.68,-158.66"/>
<polygon fill="midnightblue" stroke="midnightblue" points="659.46,-168.9 669.85,-166.8 660.42,-161.97 659.46,-168.9"/>
</g>
<!-- Node16&#45;&gt;Node3 -->
<g id="edge20" class="edge">
<title>Node16&#45;&gt;Node3</title>
<path fill="none" stroke="midnightblue" d="M558.03,-170.63C549.81,-177.26 540.33,-185.1 532,-192.5 503.04,-218.2 470.87,-249.9 452.52,-268.29"/>
<polygon fill="midnightblue" stroke="midnightblue" points="560.41,-173.21 566.03,-164.23 556.04,-167.74 560.41,-173.21"/>
</g>
<!-- Node17 -->
<g id="node17" class="node">
<title>Node17</title>
<g id="a_node17"><a xlink:href="classpa_1_1LimitedMemoryQR.html#a9ec3e86c6cbb239ba0642378b564af41" target="_top" xlink:title="Solve the least squares problem AX = B.">
<polygon fill="white" stroke="black" points="415,-136 415,-155 458,-155 458,-136 415,-136"/>
<text text-anchor="middle" x="436.5" y="-143" font-family="Helvetica,sans-Serif" font-size="10.00">solve</text>
</a>
</g>
</g>
<!-- Node16&#45;&gt;Node17 -->
<g id="edge21" class="edge">
<title>Node16&#45;&gt;Node17</title>
<path fill="none" stroke="midnightblue" d="M538.24,-151.93C512.09,-150.26 479.08,-148.15 458.13,-146.82"/>
<polygon fill="midnightblue" stroke="midnightblue" points="538.05,-155.43 548.25,-152.57 538.5,-148.44 538.05,-155.43"/>
</g>
<!-- Node17&#45;&gt;Node18 -->
<g id="edge22" class="edge">
<title>Node17&#45;&gt;Node18</title>
<path fill="none" stroke="midnightblue" d="M404.64,-138.76C369.32,-131.05 312.45,-118.63 282.12,-112"/>
<polygon fill="midnightblue" stroke="midnightblue" points="404.34,-142.28 414.86,-140.99 405.83,-135.44 404.34,-142.28"/>
</g>
<!-- Node19&#45;&gt;Node6 -->
<g id="edge24" class="edge">
<title>Node19&#45;&gt;Node6</title>
<path fill="none" stroke="midnightblue" d="M542.22,-212.87C493.5,-214.72 405.61,-218.04 341.11,-220.49"/>
<polygon fill="midnightblue" stroke="midnightblue" points="542.43,-216.37 552.29,-212.49 542.16,-209.37 542.43,-216.37"/>
</g>
</g>
</svg>
