<?xml version="1.0" encoding="UTF-8" standalone="no"?>
<!DOCTYPE svg PUBLIC "-//W3C//DTD SVG 1.1//EN"
 "http://www.w3.org/Graphics/SVG/1.1/DTD/svg11.dtd">
<!-- Generated by graphviz version 2.43.0 (0)
 -->
<!-- Title: operator() Pages: 1 -->
<svg width="911pt" height="829pt"
 viewBox="0.00 0.00 911.00 829.37" xmlns="http://www.w3.org/2000/svg" xmlns:xlink="http://www.w3.org/1999/xlink">
<g id="graph0" class="graph" transform="scale(1 1) rotate(0) translate(4 825.37)">
<title>operator()</title>
<polygon fill="white" stroke="transparent" points="-4,4 -4,-825.37 907,-825.37 907,4 -4,4"/>
<!-- Node1 -->
<g id="node1" class="node">
<title>Node1</title>
<g id="a_node1"><a xlink:title=" ">
<polygon fill="#bfbfbf" stroke="black" points="0,-500 0,-519 65,-519 65,-500 0,-500"/>
<text text-anchor="middle" x="32.5" y="-507" font-family="Helvetica,sans-Serif" font-size="10.00">operator()</text>
</a>
</g>
</g>
<!-- Node2 -->
<g id="node2" class="node">
<title>Node2</title>
<g id="a_node2"><a xlink:href="namespacepa_1_1detail.html#a22e222a3f2d7f01ceee380154e140ea9" target="_top" xlink:title="Calculate the error between ẑ and g(x).">
<polygon fill="white" stroke="black" points="436,-764 436,-783 553,-783 553,-764 436,-764"/>
<text text-anchor="middle" x="494.5" y="-771" font-family="Helvetica,sans-Serif" font-size="10.00">pa::detail::calc_err_z</text>
</a>
</g>
</g>
<!-- Node1&#45;&gt;Node2 -->
<g id="edge1" class="edge">
<title>Node1&#45;&gt;Node2</title>
<path fill="none" stroke="midnightblue" d="M34.41,-519.03C38.77,-562.46 59.06,-740.93 101,-773.5 207.41,-856.12 383.55,-811.13 458.26,-786.35"/>
<polygon fill="midnightblue" stroke="midnightblue" points="459.77,-789.54 468.11,-783.01 457.52,-782.91 459.77,-789.54"/>
</g>
<!-- Node3 -->
<g id="node3" class="node">
<title>Node3</title>
<g id="a_node3"><a xlink:href="namespacepa.html#a5414901c2fb62f1fd47857642964cc71" target="_top" xlink:title="Project a vector onto a box.">
<polygon fill="white" stroke="black" points="628,-517 628,-536 696,-536 696,-517 628,-517"/>
<text text-anchor="middle" x="662" y="-524" font-family="Helvetica,sans-Serif" font-size="10.00">pa::project</text>
</a>
</g>
</g>
<!-- Node1&#45;&gt;Node3 -->
<g id="edge38" class="edge">
<title>Node1&#45;&gt;Node3</title>
<path fill="none" stroke="midnightblue" d="M46.08,-499.78C59.02,-490.44 80.19,-476.96 101,-471.5 155.6,-457.19 171.64,-468.48 228,-471.5 377.53,-479.51 414.92,-485.23 563,-507.5 580.88,-510.19 600.47,-513.84 617.4,-517.23"/>
<polygon fill="midnightblue" stroke="midnightblue" points="617.06,-520.73 627.56,-519.29 618.45,-513.87 617.06,-520.73"/>
</g>
<!-- Node4 -->
<g id="node4" class="node">
<title>Node4</title>
<g id="a_node4"><a xlink:href="namespacepa_1_1detail.html#a886972efd9fe413c62efea5eb2cdd0e9" target="_top" xlink:title=" ">
<polygon fill="white" stroke="black" points="106.5,-733.5 106.5,-763.5 222.5,-763.5 222.5,-733.5 106.5,-733.5"/>
<text text-anchor="start" x="114.5" y="-751.5" font-family="Helvetica,sans-Serif" font-size="10.00">pa::detail::calc_error</text>
<text text-anchor="middle" x="164.5" y="-740.5" font-family="Helvetica,sans-Serif" font-size="10.00">_stop_crit</text>
</a>
</g>
</g>
<!-- Node1&#45;&gt;Node4 -->
<g id="edge3" class="edge">
<title>Node1&#45;&gt;Node4</title>
<path fill="none" stroke="midnightblue" d="M33.99,-519.11C36.12,-551.31 47.08,-656.75 101,-718.5 104.02,-721.96 107.53,-725.05 111.31,-727.82"/>
<polygon fill="midnightblue" stroke="midnightblue" points="109.64,-730.9 119.96,-733.34 113.42,-725.01 109.64,-730.9"/>
</g>
<!-- Node7 -->
<g id="node7" class="node">
<title>Node7</title>
<g id="a_node7"><a xlink:href="namespacepa_1_1detail.html#a6572cf745448d2b40e9d5e977d17d5e2" target="_top" xlink:title="Calculate the gradient ∇ψ(x).">
<polygon fill="white" stroke="black" points="101,-481 101,-500 228,-500 228,-481 101,-481"/>
<text text-anchor="middle" x="164.5" y="-488" font-family="Helvetica,sans-Serif" font-size="10.00">pa::detail::calc_grad_ψ</text>
</a>
</g>
</g>
<!-- Node1&#45;&gt;Node7 -->
<g id="edge6" class="edge">
<title>Node1&#45;&gt;Node7</title>
<path fill="none" stroke="midnightblue" d="M65.3,-504.85C73.11,-503.71 81.8,-502.44 90.68,-501.14"/>
<polygon fill="midnightblue" stroke="midnightblue" points="91.36,-504.58 100.75,-499.67 90.35,-497.65 91.36,-504.58"/>
</g>
<!-- Node9 -->
<g id="node9" class="node">
<title>Node9</title>
<g id="a_node9"><a xlink:href="namespacepa_1_1detail.html#a908a0589ddf8734417f5481395e197d2" target="_top" xlink:title="Calculate ∇ψ(x) using ŷ.">
<polygon fill="white" stroke="black" points="269.5,-596.5 269.5,-626.5 384.5,-626.5 384.5,-596.5 269.5,-596.5"/>
<text text-anchor="start" x="277.5" y="-614.5" font-family="Helvetica,sans-Serif" font-size="10.00">pa::detail::calc_grad</text>
<text text-anchor="middle" x="327" y="-603.5" font-family="Helvetica,sans-Serif" font-size="10.00">_ψ_from_ŷ</text>
</a>
</g>
</g>
<!-- Node1&#45;&gt;Node9 -->
<g id="edge9" class="edge">
<title>Node1&#45;&gt;Node9</title>
<path fill="none" stroke="midnightblue" d="M37.53,-519.1C46.04,-538.03 67.86,-579.85 101,-597.5 149.44,-623.29 212.31,-625.03 259.28,-621.33"/>
<polygon fill="midnightblue" stroke="midnightblue" points="259.7,-624.8 269.35,-620.43 259.08,-617.83 259.7,-624.8"/>
</g>
<!-- Node10 -->
<g id="node10" class="node">
<title>Node10</title>
<g id="a_node10"><a xlink:href="namespacepa_1_1detail.html#ac32d0e6b012b801731e55225b7505fa9" target="_top" xlink:title=" ">
<polygon fill="white" stroke="black" points="277.5,-666 277.5,-685 376.5,-685 376.5,-666 277.5,-666"/>
<text text-anchor="middle" x="327" y="-673" font-family="Helvetica,sans-Serif" font-size="10.00">pa::detail::calc_x̂</text>
</a>
</g>
</g>
<!-- Node1&#45;&gt;Node10 -->
<g id="edge10" class="edge">
<title>Node1&#45;&gt;Node10</title>
<path fill="none" stroke="midnightblue" d="M33.71,-519.39C34.97,-550.39 43.56,-646.01 101,-685.5 127.03,-703.39 209.81,-694.72 267.35,-685.89"/>
<polygon fill="midnightblue" stroke="midnightblue" points="268.09,-689.31 277.42,-684.3 267,-682.4 268.09,-689.31"/>
</g>
<!-- Node11 -->
<g id="node11" class="node">
<title>Node11</title>
<g id="a_node11"><a xlink:href="namespacepa_1_1detail.html#aa986daa1d5f0dfdbc75c143d2aae2919" target="_top" xlink:title="Calculate both ψ(x) and its gradient ∇ψ(x).">
<polygon fill="white" stroke="black" points="114.5,-557.5 114.5,-587.5 214.5,-587.5 214.5,-557.5 114.5,-557.5"/>
<text text-anchor="start" x="122.5" y="-575.5" font-family="Helvetica,sans-Serif" font-size="10.00">pa::detail::calc_ψ</text>
<text text-anchor="middle" x="164.5" y="-564.5" font-family="Helvetica,sans-Serif" font-size="10.00">_grad_ψ</text>
</a>
</g>
</g>
<!-- Node1&#45;&gt;Node11 -->
<g id="edge12" class="edge">
<title>Node1&#45;&gt;Node11</title>
<path fill="none" stroke="midnightblue" d="M52.98,-519.07C66.45,-525.68 84.8,-534.65 101,-542.5 108.08,-545.93 115.63,-549.57 122.93,-553.08"/>
<polygon fill="midnightblue" stroke="midnightblue" points="121.47,-556.26 132,-557.44 124.5,-549.95 121.47,-556.26"/>
</g>
<!-- Node12 -->
<g id="node12" class="node">
<title>Node12</title>
<g id="a_node12"><a xlink:href="namespacepa_1_1detail.html#a82a03662e6ce5bcfd57ee2df719aec21" target="_top" xlink:title="Calculate both ψ(x) and the vector ŷ that can later be used to compute ∇ψ.">
<polygon fill="white" stroke="black" points="271.5,-547 271.5,-566 382.5,-566 382.5,-547 271.5,-547"/>
<text text-anchor="middle" x="327" y="-554" font-family="Helvetica,sans-Serif" font-size="10.00">pa::detail::calc_ψ_ŷ</text>
</a>
</g>
</g>
<!-- Node1&#45;&gt;Node12 -->
<g id="edge16" class="edge">
<title>Node1&#45;&gt;Node12</title>
<path fill="none" stroke="midnightblue" d="M65.08,-514.57C111.89,-522.1 200.69,-536.36 261.58,-546.15"/>
<polygon fill="midnightblue" stroke="midnightblue" points="261.05,-549.61 271.48,-547.74 262.16,-542.7 261.05,-549.61"/>
</g>
<!-- Node13 -->
<g id="node13" class="node">
<title>Node13</title>
<g id="a_node13"><a xlink:href="namespacepa_1_1detail.html#aa916ebec71616d1d0379aaaaca02fc19" target="_top" xlink:title="Check all stop conditions (required tolerance reached, out of time, maximum number of iterations exce...">
<polygon fill="white" stroke="black" points="107.5,-393.5 107.5,-423.5 221.5,-423.5 221.5,-393.5 107.5,-393.5"/>
<text text-anchor="start" x="115.5" y="-411.5" font-family="Helvetica,sans-Serif" font-size="10.00">pa::detail::check_all</text>
<text text-anchor="middle" x="164.5" y="-400.5" font-family="Helvetica,sans-Serif" font-size="10.00">_stop_conditions</text>
</a>
</g>
</g>
<!-- Node1&#45;&gt;Node13 -->
<g id="edge17" class="edge">
<title>Node1&#45;&gt;Node13</title>
<path fill="none" stroke="midnightblue" d="M40.89,-499.7C52.41,-484.92 75.97,-456.71 101,-438.5 106.11,-434.78 111.75,-431.33 117.49,-428.18"/>
<polygon fill="midnightblue" stroke="midnightblue" points="119.26,-431.21 126.54,-423.51 116.05,-424.99 119.26,-431.21"/>
</g>
<!-- Node15 -->
<g id="node15" class="node">
<title>Node15</title>
<g id="a_node15"><a xlink:href="namespacepa_1_1detail.html#adb5e65f5b5c52143daa1fc61c0f95d4e" target="_top" xlink:title="Increase the estimate of the Lipschitz constant of the objective gradient and decrease the step size ...">
<polygon fill="white" stroke="black" points="111,-645.5 111,-675.5 218,-675.5 218,-645.5 111,-645.5"/>
<text text-anchor="start" x="119" y="-663.5" font-family="Helvetica,sans-Serif" font-size="10.00">pa::detail::descent</text>
<text text-anchor="middle" x="164.5" y="-652.5" font-family="Helvetica,sans-Serif" font-size="10.00">_lemma</text>
</a>
</g>
</g>
<!-- Node1&#45;&gt;Node15 -->
<g id="edge19" class="edge">
<title>Node1&#45;&gt;Node15</title>
<path fill="none" stroke="midnightblue" d="M36.63,-519.27C44.25,-541.67 65.78,-597.38 101,-630.5 104.95,-634.21 109.44,-637.54 114.16,-640.52"/>
<polygon fill="midnightblue" stroke="midnightblue" points="112.42,-643.55 122.83,-645.49 115.89,-637.48 112.42,-643.55"/>
</g>
<!-- Node16 -->
<g id="node16" class="node">
<title>Node16</title>
<g id="a_node16"><a xlink:href="namespacepa.html#a04d9e05002d02fd15c58766c259ef0d7" target="_top" xlink:title="Solve one step of Anderson acceleration to find a fixed point of a function g(x):">
<polygon fill="white" stroke="black" points="105,-191.5 105,-221.5 224,-221.5 224,-191.5 105,-191.5"/>
<text text-anchor="start" x="113" y="-209.5" font-family="Helvetica,sans-Serif" font-size="10.00">pa::minimize_update</text>
<text text-anchor="middle" x="164.5" y="-198.5" font-family="Helvetica,sans-Serif" font-size="10.00">_anderson</text>
</a>
</g>
</g>
<!-- Node1&#45;&gt;Node16 -->
<g id="edge22" class="edge">
<title>Node1&#45;&gt;Node16</title>
<path fill="none" stroke="midnightblue" d="M37.58,-499.81C48.05,-474.97 76.75,-406.99 101,-350.5 119.08,-308.38 140.38,-259.46 152.86,-230.85"/>
<polygon fill="midnightblue" stroke="midnightblue" points="156.1,-232.18 156.89,-221.62 149.68,-229.38 156.1,-232.18"/>
</g>
<!-- Node23 -->
<g id="node23" class="node">
<title>Node23</title>
<g id="a_node23"><a xlink:href="classpa_1_1LimitedMemoryQR.html#a25b6259a3ee886a9a54f3a66ab019084" target="_top" xlink:title="Get the tail index of the circular buffer (points to one past the most recent element).">
<polygon fill="white" stroke="black" points="264,-0.5 264,-30.5 390,-30.5 390,-0.5 264,-0.5"/>
<text text-anchor="start" x="272" y="-18.5" font-family="Helvetica,sans-Serif" font-size="10.00">pa::LimitedMemoryQR</text>
<text text-anchor="middle" x="327" y="-7.5" font-family="Helvetica,sans-Serif" font-size="10.00">::ring_tail</text>
</a>
</g>
</g>
<!-- Node1&#45;&gt;Node23 -->
<g id="edge40" class="edge">
<title>Node1&#45;&gt;Node23</title>
<path fill="none" stroke="midnightblue" d="M34.13,-499.88C37.73,-447.29 57.09,-194.7 101,-132.5 137.38,-80.97 203.51,-50.47 254.7,-33.61"/>
<polygon fill="midnightblue" stroke="midnightblue" points="255.93,-36.89 264.39,-30.51 253.8,-30.22 255.93,-36.89"/>
</g>
<!-- Node26 -->
<g id="node26" class="node">
<title>Node26</title>
<g id="a_node26"><a xlink:href="classpa_1_1LimitedMemoryQR.html#ad20897c5c8bd47f5d4005989bead0e55" target="_top" xlink:title="Reset all indices, clearing the Q and R matrices.">
<polygon fill="white" stroke="black" points="101.5,-142.5 101.5,-172.5 227.5,-172.5 227.5,-142.5 101.5,-142.5"/>
<text text-anchor="start" x="109.5" y="-160.5" font-family="Helvetica,sans-Serif" font-size="10.00">pa::LimitedMemoryQR</text>
<text text-anchor="middle" x="164.5" y="-149.5" font-family="Helvetica,sans-Serif" font-size="10.00">::reset</text>
</a>
</g>
</g>
<!-- Node1&#45;&gt;Node26 -->
<g id="edge39" class="edge">
<title>Node1&#45;&gt;Node26</title>
<path fill="none" stroke="midnightblue" d="M34.28,-499.8C38.36,-451.04 58.77,-232.95 101,-182.5 102.01,-181.3 103.08,-180.15 104.21,-179.06"/>
<polygon fill="midnightblue" stroke="midnightblue" points="106.7,-181.55 112.4,-172.62 102.37,-176.05 106.7,-181.55"/>
</g>
<!-- Node27 -->
<g id="node27" class="node">
<title>Node27</title>
<g id="a_node27"><a xlink:href="classpa_1_1LimitedMemoryQR.html#adf11f99cb8b119423c86498dbaab9820" target="_top" xlink:title="Multiply the matrix R by a scalar.">
<polygon fill="white" stroke="black" points="431.5,-355.5 431.5,-385.5 557.5,-385.5 557.5,-355.5 431.5,-355.5"/>
<text text-anchor="start" x="439.5" y="-373.5" font-family="Helvetica,sans-Serif" font-size="10.00">pa::LimitedMemoryQR</text>
<text text-anchor="middle" x="494.5" y="-362.5" font-family="Helvetica,sans-Serif" font-size="10.00">::scale_R</text>
</a>
</g>
</g>
<!-- Node1&#45;&gt;Node27 -->
<g id="edge41" class="edge">
<title>Node1&#45;&gt;Node27</title>
<path fill="none" stroke="midnightblue" d="M35.36,-499.77C40.6,-475.28 58.05,-411.17 101,-384.5 199.53,-323.32 340.39,-337.26 423.84,-353.5"/>
<polygon fill="midnightblue" stroke="midnightblue" points="423.23,-356.95 433.73,-355.49 424.61,-350.09 423.23,-356.95"/>
</g>
<!-- Node2&#45;&gt;Node3 -->
<g id="edge2" class="edge">
<title>Node2&#45;&gt;Node3</title>
<path fill="none" stroke="midnightblue" d="M510.72,-763.85C525.52,-753.88 547.9,-737.2 563,-718.5 608.18,-662.57 640.74,-582.45 654.18,-545.95"/>
<polygon fill="midnightblue" stroke="midnightblue" points="657.63,-546.69 657.73,-536.1 651.05,-544.32 657.63,-546.69"/>
</g>
<!-- Node5 -->
<g id="node5" class="node">
<title>Node5</title>
<g id="a_node5"><a xlink:href="namespacepa_1_1vec__util.html#af8e650634ec3d7b82a78a4d313632ed0" target="_top" xlink:title="Get the maximum or infinity&#45;norm of the given vector.">
<polygon fill="white" stroke="black" points="266,-704 266,-723 388,-723 388,-704 266,-704"/>
<text text-anchor="middle" x="327" y="-711" font-family="Helvetica,sans-Serif" font-size="10.00">pa::vec_util::norm_inf</text>
</a>
</g>
</g>
<!-- Node4&#45;&gt;Node5 -->
<g id="edge4" class="edge">
<title>Node4&#45;&gt;Node5</title>
<path fill="none" stroke="midnightblue" d="M222.54,-736.06C238.65,-732.55 256.13,-728.74 272.05,-725.26"/>
<polygon fill="midnightblue" stroke="midnightblue" points="273.24,-728.59 282.27,-723.04 271.75,-721.75 273.24,-728.59"/>
</g>
<!-- Node6 -->
<g id="node6" class="node">
<title>Node6</title>
<g id="a_node6"><a xlink:href="namespacepa_1_1detail.html#a8ed4d487878856942843707b5a131b85" target="_top" xlink:title="Projected gradient step.">
<polygon fill="white" stroke="black" points="437.5,-678.5 437.5,-708.5 551.5,-708.5 551.5,-678.5 437.5,-678.5"/>
<text text-anchor="start" x="445.5" y="-696.5" font-family="Helvetica,sans-Serif" font-size="10.00">pa::detail::projected</text>
<text text-anchor="middle" x="494.5" y="-685.5" font-family="Helvetica,sans-Serif" font-size="10.00">_gradient_step</text>
</a>
</g>
</g>
<!-- Node4&#45;&gt;Node6 -->
<g id="edge5" class="edge">
<title>Node4&#45;&gt;Node6</title>
<path fill="none" stroke="midnightblue" d="M222.89,-748.95C268.64,-748.22 334.08,-744.76 390,-732.5 410.76,-727.95 432.92,-720.04 451.39,-712.53"/>
<polygon fill="midnightblue" stroke="midnightblue" points="452.8,-715.74 460.68,-708.66 450.11,-709.27 452.8,-715.74"/>
</g>
<!-- Node8 -->
<g id="node8" class="node">
<title>Node8</title>
<g id="a_node8"><a xlink:href="namespacepa.html#aee505a26e46aa4c0ce09d0fed72f0dac" target="_top" xlink:title="Get the difference between the given vector and its projection.">
<polygon fill="white" stroke="black" points="426,-517 426,-536 563,-536 563,-517 426,-517"/>
<text text-anchor="middle" x="494.5" y="-524" font-family="Helvetica,sans-Serif" font-size="10.00">pa::projecting_difference</text>
</a>
</g>
</g>
<!-- Node7&#45;&gt;Node8 -->
<g id="edge7" class="edge">
<title>Node7&#45;&gt;Node8</title>
<path fill="none" stroke="midnightblue" d="M228.35,-497.4C281.7,-503.25 358.47,-511.68 415.69,-517.96"/>
<polygon fill="midnightblue" stroke="midnightblue" points="415.45,-521.45 425.77,-519.07 416.22,-514.5 415.45,-521.45"/>
</g>
<!-- Node8&#45;&gt;Node3 -->
<g id="edge8" class="edge">
<title>Node8&#45;&gt;Node3</title>
<path fill="none" stroke="midnightblue" d="M563.29,-526.5C581.6,-526.5 600.92,-526.5 617.5,-526.5"/>
<polygon fill="midnightblue" stroke="midnightblue" points="617.96,-530 627.96,-526.5 617.96,-523 617.96,-530"/>
</g>
<!-- Node10&#45;&gt;Node6 -->
<g id="edge11" class="edge">
<title>Node10&#45;&gt;Node6</title>
<path fill="none" stroke="midnightblue" d="M376.76,-680.8C392.47,-682.51 410.17,-684.44 426.93,-686.26"/>
<polygon fill="midnightblue" stroke="midnightblue" points="426.91,-689.78 437.23,-687.38 427.67,-682.82 426.91,-689.78"/>
</g>
<!-- Node11&#45;&gt;Node9 -->
<g id="edge13" class="edge">
<title>Node11&#45;&gt;Node9</title>
<path fill="none" stroke="midnightblue" d="M214.53,-584.41C228.74,-587.87 244.51,-591.7 259.6,-595.37"/>
<polygon fill="midnightblue" stroke="midnightblue" points="258.86,-598.79 269.4,-597.75 260.51,-591.98 258.86,-598.79"/>
</g>
<!-- Node11&#45;&gt;Node12 -->
<g id="edge14" class="edge">
<title>Node11&#45;&gt;Node12</title>
<path fill="none" stroke="midnightblue" d="M214.53,-567.61C229.27,-566.14 245.69,-564.51 261.29,-562.95"/>
<polygon fill="midnightblue" stroke="midnightblue" points="261.79,-566.42 271.39,-561.94 261.09,-559.45 261.79,-566.42"/>
</g>
<!-- Node12&#45;&gt;Node8 -->
<g id="edge15" class="edge">
<title>Node12&#45;&gt;Node8</title>
<path fill="none" stroke="midnightblue" d="M380.82,-546.93C396.72,-544.04 414.33,-540.85 430.81,-537.86"/>
<polygon fill="midnightblue" stroke="midnightblue" points="431.68,-541.26 440.9,-536.04 430.43,-534.38 431.68,-541.26"/>
</g>
<!-- Node14 -->
<g id="node14" class="node">
<title>Node14</title>
<g id="a_node14"><a xlink:href="classpa_1_1AtomicStopSignal.html#aa0097deccc19b49f8ab5344d8d6d5cf6" target="_top" xlink:title=" ">
<polygon fill="white" stroke="black" points="266.5,-393.5 266.5,-423.5 387.5,-423.5 387.5,-393.5 266.5,-393.5"/>
<text text-anchor="start" x="274.5" y="-411.5" font-family="Helvetica,sans-Serif" font-size="10.00">pa::AtomicStopSignal</text>
<text text-anchor="middle" x="327" y="-400.5" font-family="Helvetica,sans-Serif" font-size="10.00">::stop_requested</text>
</a>
</g>
</g>
<!-- Node13&#45;&gt;Node14 -->
<g id="edge18" class="edge">
<title>Node13&#45;&gt;Node14</title>
<path fill="none" stroke="midnightblue" d="M221.64,-408.5C232.82,-408.5 244.7,-408.5 256.28,-408.5"/>
<polygon fill="midnightblue" stroke="midnightblue" points="256.35,-412 266.35,-408.5 256.35,-405 256.35,-412"/>
</g>
<!-- Node15&#45;&gt;Node10 -->
<g id="edge20" class="edge">
<title>Node15&#45;&gt;Node10</title>
<path fill="none" stroke="midnightblue" d="M218.05,-665.41C233.73,-666.88 251.01,-668.49 267.06,-669.99"/>
<polygon fill="midnightblue" stroke="midnightblue" points="267.12,-673.51 277.41,-670.96 267.77,-666.54 267.12,-673.51"/>
</g>
<!-- Node15&#45;&gt;Node12 -->
<g id="edge21" class="edge">
<title>Node15&#45;&gt;Node12</title>
<path fill="none" stroke="midnightblue" d="M183.7,-645.5C202.98,-629.98 234.62,-605.54 264,-587.5 273.87,-581.44 285.08,-575.55 295.23,-570.57"/>
<polygon fill="midnightblue" stroke="midnightblue" points="297.06,-573.57 304.56,-566.09 294.03,-567.26 297.06,-573.57"/>
</g>
<!-- Node17 -->
<g id="node17" class="node">
<title>Node17</title>
<g id="a_node17"><a xlink:href="classpa_1_1LimitedMemoryQR.html#a5e3077223e98c1e4e286e01503f220d5" target="_top" xlink:title="Add the given column to the right.">
<polygon fill="white" stroke="black" points="264,-147.5 264,-177.5 390,-177.5 390,-147.5 264,-147.5"/>
<text text-anchor="start" x="272" y="-165.5" font-family="Helvetica,sans-Serif" font-size="10.00">pa::LimitedMemoryQR</text>
<text text-anchor="middle" x="327" y="-154.5" font-family="Helvetica,sans-Serif" font-size="10.00">::add_column</text>
</a>
</g>
</g>
<!-- Node16&#45;&gt;Node17 -->
<g id="edge23" class="edge">
<title>Node16&#45;&gt;Node17</title>
<path fill="none" stroke="midnightblue" d="M220.29,-191.48C233.51,-187.85 247.77,-183.95 261.4,-180.21"/>
<polygon fill="midnightblue" stroke="midnightblue" points="262.47,-183.55 271.19,-177.53 260.62,-176.79 262.47,-183.55"/>
</g>
<!-- Node18 -->
<g id="node18" class="node">
<title>Node18</title>
<g id="a_node18"><a xlink:href="classpa_1_1LimitedMemoryQR.html#af83f6287b8ea07acdcfa4670af30cbbf" target="_top" xlink:title=" ">
<polygon fill="white" stroke="black" points="761,-172 761,-191 903,-191 903,-172 761,-172"/>
<text text-anchor="middle" x="832" y="-179" font-family="Helvetica,sans-Serif" font-size="10.00">pa::LimitedMemoryQR::m</text>
</a>
</g>
</g>
<!-- Node16&#45;&gt;Node18 -->
<g id="edge27" class="edge">
<title>Node16&#45;&gt;Node18</title>
<path fill="none" stroke="midnightblue" d="M224.31,-204.62C326.27,-201.31 542.43,-194.07 725,-186.5 733.34,-186.15 742.04,-185.77 750.72,-185.38"/>
<polygon fill="midnightblue" stroke="midnightblue" points="751.04,-188.87 760.87,-184.92 750.72,-181.88 751.04,-188.87"/>
</g>
<!-- Node20 -->
<g id="node20" class="node">
<title>Node20</title>
<g id="a_node20"><a xlink:href="classpa_1_1LimitedMemoryQR.html#a98e2d9685769a3ebb2c0c9600a4c77b2" target="_top" xlink:title="Get the number of columns that are currently stored.">
<polygon fill="white" stroke="black" points="264,-98.5 264,-128.5 390,-128.5 390,-98.5 264,-98.5"/>
<text text-anchor="start" x="272" y="-116.5" font-family="Helvetica,sans-Serif" font-size="10.00">pa::LimitedMemoryQR</text>
<text text-anchor="middle" x="327" y="-105.5" font-family="Helvetica,sans-Serif" font-size="10.00">::num_columns</text>
</a>
</g>
</g>
<!-- Node16&#45;&gt;Node20 -->
<g id="edge28" class="edge">
<title>Node16&#45;&gt;Node20</title>
<path fill="none" stroke="midnightblue" d="M212.95,-191.35C218.25,-188.77 223.38,-185.84 228,-182.5 248.48,-167.7 243.65,-153.47 264,-138.5 266.49,-136.67 269.13,-134.95 271.87,-133.33"/>
<polygon fill="midnightblue" stroke="midnightblue" points="273.69,-136.33 280.87,-128.54 270.39,-130.15 273.69,-136.33"/>
</g>
<!-- Node21 -->
<g id="node21" class="node">
<title>Node21</title>
<g id="a_node21"><a xlink:href="classpa_1_1LimitedMemoryQR.html#a436c4dbbf0476354ca67a104bc005e55" target="_top" xlink:title="Remove the leftmost column.">
<polygon fill="white" stroke="black" points="264,-49.5 264,-79.5 390,-79.5 390,-49.5 264,-49.5"/>
<text text-anchor="start" x="272" y="-67.5" font-family="Helvetica,sans-Serif" font-size="10.00">pa::LimitedMemoryQR</text>
<text text-anchor="middle" x="327" y="-56.5" font-family="Helvetica,sans-Serif" font-size="10.00">::remove_column</text>
</a>
</g>
</g>
<!-- Node16&#45;&gt;Node21 -->
<g id="edge29" class="edge">
<title>Node16&#45;&gt;Node21</title>
<path fill="none" stroke="midnightblue" d="M216.27,-191.47C220.55,-188.92 224.55,-185.95 228,-182.5 259.62,-150.85 232.42,-120.19 264,-88.5 265.07,-87.43 266.19,-86.4 267.36,-85.42"/>
<polygon fill="midnightblue" stroke="midnightblue" points="269.48,-88.2 275.63,-79.58 265.45,-82.49 269.48,-88.2"/>
</g>
<!-- Node22 -->
<g id="node22" class="node">
<title>Node22</title>
<g id="a_node22"><a xlink:href="classpa_1_1LimitedMemoryQR.html#a7a0e06dceccc0bbe82ebd81247a5a412" target="_top" xlink:title="Get iterators in the circular buffer.">
<polygon fill="white" stroke="black" points="599,-273.5 599,-303.5 725,-303.5 725,-273.5 599,-273.5"/>
<text text-anchor="start" x="607" y="-291.5" font-family="Helvetica,sans-Serif" font-size="10.00">pa::LimitedMemoryQR</text>
<text text-anchor="middle" x="662" y="-280.5" font-family="Helvetica,sans-Serif" font-size="10.00">::ring_iter</text>
</a>
</g>
</g>
<!-- Node16&#45;&gt;Node22 -->
<g id="edge31" class="edge">
<title>Node16&#45;&gt;Node22</title>
<path fill="none" stroke="midnightblue" d="M181.38,-221.7C199.68,-238.16 231.43,-263.66 264,-275.5 371.84,-314.7 507.2,-308.43 588.76,-299.25"/>
<polygon fill="midnightblue" stroke="midnightblue" points="589.39,-302.7 598.92,-298.05 588.58,-295.74 589.39,-302.7"/>
</g>
<!-- Node16&#45;&gt;Node23 -->
<g id="edge33" class="edge">
<title>Node16&#45;&gt;Node23</title>
<path fill="none" stroke="midnightblue" d="M217.61,-191.31C221.45,-188.81 224.99,-185.89 228,-182.5 271.48,-133.46 220.59,-88.6 264,-39.5 264.86,-38.53 265.76,-37.59 266.71,-36.7"/>
<polygon fill="midnightblue" stroke="midnightblue" points="268.87,-39.45 274.6,-30.54 264.56,-33.93 268.87,-39.45"/>
</g>
<!-- Node24 -->
<g id="node24" class="node">
<title>Node24</title>
<g id="a_node24"><a xlink:href="classpa_1_1LimitedMemoryQR.html#a7a60dfe0a5f68bc1efec69e406a2b619" target="_top" xlink:title="Solve the least squares problem Ax = b.">
<polygon fill="white" stroke="black" points="264,-235.5 264,-265.5 390,-265.5 390,-235.5 264,-235.5"/>
<text text-anchor="start" x="272" y="-253.5" font-family="Helvetica,sans-Serif" font-size="10.00">pa::LimitedMemoryQR</text>
<text text-anchor="middle" x="327" y="-242.5" font-family="Helvetica,sans-Serif" font-size="10.00">::solve_col</text>
</a>
</g>
</g>
<!-- Node16&#45;&gt;Node24 -->
<g id="edge34" class="edge">
<title>Node16&#45;&gt;Node24</title>
<path fill="none" stroke="midnightblue" d="M220.29,-221.52C233.51,-225.15 247.77,-229.05 261.4,-232.79"/>
<polygon fill="midnightblue" stroke="midnightblue" points="260.62,-236.21 271.19,-235.47 262.47,-229.45 260.62,-236.21"/>
</g>
<!-- Node17&#45;&gt;Node18 -->
<g id="edge24" class="edge">
<title>Node17&#45;&gt;Node18</title>
<path fill="none" stroke="midnightblue" d="M390.18,-164.85C481.16,-168.29 650.58,-174.68 750.81,-178.47"/>
<polygon fill="midnightblue" stroke="midnightblue" points="750.76,-181.97 760.89,-178.85 751.03,-174.98 750.76,-181.97"/>
</g>
<!-- Node19 -->
<g id="node19" class="node">
<title>Node19</title>
<g id="a_node19"><a xlink:href="classpa_1_1LimitedMemoryQR.html#abb2e912e6196e7c6996d3f43fea78237" target="_top" xlink:title="Get the next index in the circular storage for R.">
<polygon fill="white" stroke="black" points="431.5,-103.5 431.5,-133.5 557.5,-133.5 557.5,-103.5 431.5,-103.5"/>
<text text-anchor="start" x="439.5" y="-121.5" font-family="Helvetica,sans-Serif" font-size="10.00">pa::LimitedMemoryQR</text>
<text text-anchor="middle" x="494.5" y="-110.5" font-family="Helvetica,sans-Serif" font-size="10.00">::r_succ</text>
</a>
</g>
</g>
<!-- Node17&#45;&gt;Node19 -->
<g id="edge25" class="edge">
<title>Node17&#45;&gt;Node19</title>
<path fill="none" stroke="midnightblue" d="M384.49,-147.48C398.26,-143.82 413.12,-139.87 427.3,-136.1"/>
<polygon fill="midnightblue" stroke="midnightblue" points="428.22,-139.48 436.98,-133.53 426.42,-132.71 428.22,-139.48"/>
</g>
<!-- Node19&#45;&gt;Node18 -->
<g id="edge26" class="edge">
<title>Node19&#45;&gt;Node18</title>
<path fill="none" stroke="midnightblue" d="M557.85,-123.73C604.29,-128.33 669.07,-136.23 725,-148.5 748.78,-153.72 774.91,-161.82 795.27,-168.69"/>
<polygon fill="midnightblue" stroke="midnightblue" points="794.17,-172.02 804.77,-171.95 796.44,-165.39 794.17,-172.02"/>
</g>
<!-- Node21&#45;&gt;Node19 -->
<g id="edge30" class="edge">
<title>Node21&#45;&gt;Node19</title>
<path fill="none" stroke="midnightblue" d="M374.1,-79.54C393.83,-85.98 417.05,-93.56 437.74,-100.31"/>
<polygon fill="midnightblue" stroke="midnightblue" points="436.77,-103.67 447.36,-103.45 438.94,-97.02 436.77,-103.67"/>
</g>
<!-- Node22&#45;&gt;Node18 -->
<g id="edge32" class="edge">
<title>Node22&#45;&gt;Node18</title>
<path fill="none" stroke="midnightblue" d="M686.71,-273.4C718.65,-253.05 775.18,-217.06 807.17,-196.68"/>
<polygon fill="midnightblue" stroke="midnightblue" points="809.33,-199.45 815.89,-191.13 805.57,-193.55 809.33,-199.45"/>
</g>
<!-- Node24&#45;&gt;Node22 -->
<g id="edge35" class="edge">
<title>Node24&#45;&gt;Node22</title>
<path fill="none" stroke="midnightblue" d="M390.04,-263.6C401.94,-265.81 414.32,-267.9 426,-269.5 480.4,-276.95 542.33,-281.81 588.94,-284.75"/>
<polygon fill="midnightblue" stroke="midnightblue" points="588.75,-288.24 598.95,-285.36 589.18,-281.26 588.75,-288.24"/>
</g>
<!-- Node25 -->
<g id="node25" class="node">
<title>Node25</title>
<g id="a_node25"><a xlink:href="classpa_1_1LimitedMemoryQR.html#a53110c85b0c151a290bf8d29533cd370" target="_top" xlink:title="Get reverse iterators in the circular buffer.">
<polygon fill="white" stroke="black" points="431.5,-229.5 431.5,-259.5 557.5,-259.5 557.5,-229.5 431.5,-229.5"/>
<text text-anchor="start" x="439.5" y="-247.5" font-family="Helvetica,sans-Serif" font-size="10.00">pa::LimitedMemoryQR</text>
<text text-anchor="middle" x="494.5" y="-236.5" font-family="Helvetica,sans-Serif" font-size="10.00">::ring_reverse_iter</text>
</a>
</g>
</g>
<!-- Node24&#45;&gt;Node25 -->
<g id="edge36" class="edge">
<title>Node24&#45;&gt;Node25</title>
<path fill="none" stroke="midnightblue" d="M390.1,-248.25C400.21,-247.88 410.76,-247.5 421.09,-247.12"/>
<polygon fill="midnightblue" stroke="midnightblue" points="421.46,-250.61 431.33,-246.75 421.21,-243.62 421.46,-250.61"/>
</g>
<!-- Node25&#45;&gt;Node22 -->
<g id="edge37" class="edge">
<title>Node25&#45;&gt;Node22</title>
<path fill="none" stroke="midnightblue" d="M551.99,-259.52C565.76,-263.18 580.62,-267.13 594.8,-270.9"/>
<polygon fill="midnightblue" stroke="midnightblue" points="593.92,-274.29 604.48,-273.47 595.72,-267.52 593.92,-274.29"/>
</g>
<!-- Node27&#45;&gt;Node22 -->
<g id="edge42" class="edge">
<title>Node27&#45;&gt;Node22</title>
<path fill="none" stroke="midnightblue" d="M530.75,-355.39C541.2,-350.76 552.62,-345.55 563,-340.5 583.74,-330.4 606.52,-318.37 624.9,-308.43"/>
<polygon fill="midnightblue" stroke="midnightblue" points="626.69,-311.44 633.8,-303.58 623.35,-305.29 626.69,-311.44"/>
</g>
</g>
</svg>
