<?xml version="1.0" encoding="UTF-8" standalone="no"?>
<!DOCTYPE svg PUBLIC "-//W3C//DTD SVG 1.1//EN"
 "http://www.w3.org/Graphics/SVG/1.1/DTD/svg11.dtd">
<!-- Generated by graphviz version 2.43.0 (0)
 -->
<!-- Title: CUTEstLoader.cpp Pages: 1 -->
<svg width="764pt" height="319pt"
 viewBox="0.00 0.00 763.50 319.00" xmlns="http://www.w3.org/2000/svg" xmlns:xlink="http://www.w3.org/1999/xlink">
<g id="graph0" class="graph" transform="scale(1 1) rotate(0) translate(4 315)">
<title>CUTEstLoader.cpp</title>
<polygon fill="white" stroke="transparent" points="-4,4 -4,-315 759.5,-315 759.5,4 -4,4"/>
<!-- Node1 -->
<g id="node1" class="node">
<title>Node1</title>
<g id="a_node1"><a xlink:title=" ">
<polygon fill="#bfbfbf" stroke="black" points="390,-291.5 390,-310.5 494,-310.5 494,-291.5 390,-291.5"/>
<text text-anchor="middle" x="442" y="-298.5" font-family="Helvetica,sans-Serif" font-size="10.00">CUTEstLoader.cpp</text>
</a>
</g>
</g>
<!-- Node2 -->
<g id="node2" class="node">
<title>Node2</title>
<g id="a_node2"><a xlink:href="CUTEstLoader_8hpp.html" target="_top" xlink:title=" ">
<polygon fill="white" stroke="black" points="145.5,-224.5 145.5,-254.5 284.5,-254.5 284.5,-224.5 145.5,-224.5"/>
<text text-anchor="start" x="153.5" y="-242.5" font-family="Helvetica,sans-Serif" font-size="10.00">panoc&#45;alm/interop/cutest</text>
<text text-anchor="middle" x="215" y="-231.5" font-family="Helvetica,sans-Serif" font-size="10.00">/CUTEstLoader.hpp</text>
</a>
</g>
</g>
<!-- Node1&#45;&gt;Node2 -->
<g id="edge1" class="edge">
<title>Node1&#45;&gt;Node2</title>
<path fill="none" stroke="midnightblue" d="M409.48,-291.48C375.36,-282.53 320.86,-268.25 278.23,-257.07"/>
<polygon fill="midnightblue" stroke="midnightblue" points="279.06,-253.67 268.5,-254.52 277.29,-260.44 279.06,-253.67"/>
</g>
<!-- Node7 -->
<g id="node7" class="node">
<title>Node7</title>
<g id="a_node7"><a xlink:title=" ">
<polygon fill="white" stroke="#bfbfbf" points="281.5,-112.5 281.5,-131.5 346.5,-131.5 346.5,-112.5 281.5,-112.5"/>
<text text-anchor="middle" x="314" y="-119.5" font-family="Helvetica,sans-Serif" font-size="10.00">functional</text>
</a>
</g>
</g>
<!-- Node1&#45;&gt;Node7 -->
<g id="edge14" class="edge">
<title>Node1&#45;&gt;Node7</title>
<path fill="none" stroke="midnightblue" d="M421.61,-291.44C405.72,-283.87 384.07,-271.48 370,-255 366.06,-250.39 335.68,-176.33 321.39,-141.21"/>
<polygon fill="midnightblue" stroke="midnightblue" points="324.52,-139.63 317.51,-131.68 318.04,-142.26 324.52,-139.63"/>
</g>
<!-- Node11 -->
<g id="node11" class="node">
<title>Node11</title>
<g id="a_node11"><a xlink:title=" ">
<polygon fill="white" stroke="#bfbfbf" points="279,-168.5 279,-187.5 323,-187.5 323,-168.5 279,-168.5"/>
<text text-anchor="middle" x="301" y="-175.5" font-family="Helvetica,sans-Serif" font-size="10.00">string</text>
</a>
</g>
</g>
<!-- Node1&#45;&gt;Node11 -->
<g id="edge17" class="edge">
<title>Node1&#45;&gt;Node11</title>
<path fill="none" stroke="midnightblue" d="M405.73,-291.49C383.6,-284.73 356,-273.3 337,-255 320.61,-239.21 310.83,-214.48 305.69,-197.54"/>
<polygon fill="midnightblue" stroke="midnightblue" points="309.01,-196.41 302.96,-187.71 302.27,-198.28 309.01,-196.41"/>
</g>
<!-- Node12 -->
<g id="node12" class="node">
<title>Node12</title>
<g id="a_node12"><a xlink:title=" ">
<polygon fill="white" stroke="#bfbfbf" points="379,-230 379,-249 435,-249 435,-230 379,-230"/>
<text text-anchor="middle" x="407" y="-237" font-family="Helvetica,sans-Serif" font-size="10.00">cutest.h</text>
</a>
</g>
</g>
<!-- Node1&#45;&gt;Node12 -->
<g id="edge12" class="edge">
<title>Node1&#45;&gt;Node12</title>
<path fill="none" stroke="midnightblue" d="M436.99,-291.48C431.84,-282.73 423.69,-268.87 417.18,-257.81"/>
<polygon fill="midnightblue" stroke="midnightblue" points="420.09,-255.85 412.01,-249.01 414.06,-259.4 420.09,-255.85"/>
</g>
<!-- Node13 -->
<g id="node13" class="node">
<title>Node13</title>
<g id="a_node13"><a xlink:title=" ">
<polygon fill="white" stroke="#bfbfbf" points="453,-230 453,-249 503,-249 503,-230 453,-230"/>
<text text-anchor="middle" x="478" y="-237" font-family="Helvetica,sans-Serif" font-size="10.00">dlfcn.h</text>
</a>
</g>
</g>
<!-- Node1&#45;&gt;Node13 -->
<g id="edge13" class="edge">
<title>Node1&#45;&gt;Node13</title>
<path fill="none" stroke="midnightblue" d="M447.16,-291.48C452.45,-282.73 460.84,-268.87 467.53,-257.81"/>
<polygon fill="midnightblue" stroke="midnightblue" points="470.67,-259.38 472.85,-249.01 464.68,-255.75 470.67,-259.38"/>
</g>
<!-- Node14 -->
<g id="node14" class="node">
<title>Node14</title>
<g id="a_node14"><a xlink:title=" ">
<polygon fill="white" stroke="#bfbfbf" points="521,-230 521,-249 581,-249 581,-230 521,-230"/>
<text text-anchor="middle" x="551" y="-237" font-family="Helvetica,sans-Serif" font-size="10.00">iostream</text>
</a>
</g>
</g>
<!-- Node1&#45;&gt;Node14 -->
<g id="edge15" class="edge">
<title>Node1&#45;&gt;Node14</title>
<path fill="none" stroke="midnightblue" d="M457.62,-291.48C475.59,-281.67 505.32,-265.43 526.41,-253.92"/>
<polygon fill="midnightblue" stroke="midnightblue" points="528.31,-256.87 535.41,-249.01 524.96,-250.73 528.31,-256.87"/>
</g>
<!-- Node15 -->
<g id="node15" class="node">
<title>Node15</title>
<g id="a_node15"><a xlink:title=" ">
<polygon fill="white" stroke="#bfbfbf" points="599.5,-230 599.5,-249 664.5,-249 664.5,-230 599.5,-230"/>
<text text-anchor="middle" x="632" y="-237" font-family="Helvetica,sans-Serif" font-size="10.00">stdexcept</text>
</a>
</g>
</g>
<!-- Node1&#45;&gt;Node15 -->
<g id="edge16" class="edge">
<title>Node1&#45;&gt;Node15</title>
<path fill="none" stroke="midnightblue" d="M471.31,-291.44C501.24,-282.61 549,-268.31 590,-255 592.59,-254.16 595.27,-253.27 597.96,-252.37"/>
<polygon fill="midnightblue" stroke="midnightblue" points="599.28,-255.62 607.62,-249.09 597.03,-248.99 599.28,-255.62"/>
</g>
<!-- Node16 -->
<g id="node16" class="node">
<title>Node16</title>
<g id="a_node16"><a xlink:title=" ">
<polygon fill="white" stroke="#bfbfbf" points="682.5,-230 682.5,-249 755.5,-249 755.5,-230 682.5,-230"/>
<text text-anchor="middle" x="719" y="-237" font-family="Helvetica,sans-Serif" font-size="10.00">string_view</text>
</a>
</g>
</g>
<!-- Node1&#45;&gt;Node16 -->
<g id="edge18" class="edge">
<title>Node1&#45;&gt;Node16</title>
<path fill="none" stroke="midnightblue" d="M494.46,-291.68C541.75,-283.74 613,-270.68 674,-255 677.44,-254.11 681.01,-253.11 684.56,-252.06"/>
<polygon fill="midnightblue" stroke="midnightblue" points="685.88,-255.32 694.4,-249.02 683.81,-248.63 685.88,-255.32"/>
</g>
<!-- Node3 -->
<g id="node3" class="node">
<title>Node3</title>
<g id="a_node3"><a xlink:href="include_2panoc-alm_2util_2problem_8hpp.html" target="_top" xlink:title=" ">
<polygon fill="white" stroke="black" points="43,-168.5 43,-187.5 195,-187.5 195,-168.5 43,-168.5"/>
<text text-anchor="middle" x="119" y="-175.5" font-family="Helvetica,sans-Serif" font-size="10.00">panoc&#45;alm/util/problem.hpp</text>
</a>
</g>
</g>
<!-- Node2&#45;&gt;Node3 -->
<g id="edge2" class="edge">
<title>Node2&#45;&gt;Node3</title>
<path fill="none" stroke="midnightblue" d="M192.25,-224.4C177.01,-214.95 157.01,-202.56 141.76,-193.11"/>
<polygon fill="midnightblue" stroke="midnightblue" points="143.31,-189.95 132.97,-187.66 139.62,-195.9 143.31,-189.95"/>
</g>
<!-- Node8 -->
<g id="node8" class="node">
<title>Node8</title>
<g id="a_node8"><a xlink:title=" ">
<polygon fill="white" stroke="#bfbfbf" points="0,-112.5 0,-131.5 58,-131.5 58,-112.5 0,-112.5"/>
<text text-anchor="middle" x="29" y="-119.5" font-family="Helvetica,sans-Serif" font-size="10.00">memory</text>
</a>
</g>
</g>
<!-- Node2&#45;&gt;Node8 -->
<g id="edge10" class="edge">
<title>Node2&#45;&gt;Node8</title>
<path fill="none" stroke="midnightblue" d="M145.16,-227.48C100.52,-218.9 48.39,-205.52 34,-188 23.57,-175.3 23.36,-156.1 25.14,-141.86"/>
<polygon fill="midnightblue" stroke="midnightblue" points="28.63,-142.15 26.83,-131.71 21.73,-141 28.63,-142.15"/>
</g>
<!-- Node10 -->
<g id="node10" class="node">
<title>Node10</title>
<g id="a_node10"><a xlink:title=" ">
<polygon fill="white" stroke="#bfbfbf" points="213,-168.5 213,-187.5 261,-187.5 261,-168.5 213,-168.5"/>
<text text-anchor="middle" x="237" y="-175.5" font-family="Helvetica,sans-Serif" font-size="10.00">iosfwd</text>
</a>
</g>
</g>
<!-- Node2&#45;&gt;Node10 -->
<g id="edge9" class="edge">
<title>Node2&#45;&gt;Node10</title>
<path fill="none" stroke="midnightblue" d="M220.21,-224.4C223.21,-216.29 227.01,-206.01 230.24,-197.28"/>
<polygon fill="midnightblue" stroke="midnightblue" points="233.61,-198.25 233.8,-187.66 227.05,-195.82 233.61,-198.25"/>
</g>
<!-- Node2&#45;&gt;Node11 -->
<g id="edge11" class="edge">
<title>Node2&#45;&gt;Node11</title>
<path fill="none" stroke="midnightblue" d="M235.38,-224.4C248.91,-215.04 266.61,-202.79 280.22,-193.38"/>
<polygon fill="midnightblue" stroke="midnightblue" points="282.25,-196.23 288.49,-187.66 278.27,-190.47 282.25,-196.23"/>
</g>
<!-- Node4 -->
<g id="node4" class="node">
<title>Node4</title>
<g id="a_node4"><a xlink:href="box_8hpp.html" target="_top" xlink:title=" ">
<polygon fill="white" stroke="black" points="83,-112.5 83,-131.5 139,-131.5 139,-112.5 83,-112.5"/>
<text text-anchor="middle" x="111" y="-119.5" font-family="Helvetica,sans-Serif" font-size="10.00">box.hpp</text>
</a>
</g>
</g>
<!-- Node3&#45;&gt;Node4 -->
<g id="edge3" class="edge">
<title>Node3&#45;&gt;Node4</title>
<path fill="none" stroke="midnightblue" d="M117.68,-168.08C116.62,-160.93 115.09,-150.64 113.77,-141.69"/>
<polygon fill="midnightblue" stroke="midnightblue" points="117.22,-141.13 112.3,-131.75 110.3,-142.16 117.22,-141.13"/>
</g>
<!-- Node3&#45;&gt;Node7 -->
<g id="edge6" class="edge">
<title>Node3&#45;&gt;Node7</title>
<path fill="none" stroke="midnightblue" d="M149.9,-168.44C183.27,-159.2 236.59,-144.44 273.35,-134.26"/>
<polygon fill="midnightblue" stroke="midnightblue" points="274.54,-137.56 283.25,-131.52 272.67,-130.81 274.54,-137.56"/>
</g>
<!-- Node3&#45;&gt;Node8 -->
<g id="edge7" class="edge">
<title>Node3&#45;&gt;Node8</title>
<path fill="none" stroke="midnightblue" d="M104.54,-168.32C90.5,-159.9 68.95,-146.97 52.46,-137.07"/>
<polygon fill="midnightblue" stroke="midnightblue" points="53.8,-133.8 43.42,-131.65 50.2,-139.8 53.8,-133.8"/>
</g>
<!-- Node9 -->
<g id="node9" class="node">
<title>Node9</title>
<g id="a_node9"><a xlink:title=" ">
<polygon fill="white" stroke="#bfbfbf" points="157.5,-112.5 157.5,-131.5 226.5,-131.5 226.5,-112.5 157.5,-112.5"/>
<text text-anchor="middle" x="192" y="-119.5" font-family="Helvetica,sans-Serif" font-size="10.00">type_traits</text>
</a>
</g>
</g>
<!-- Node3&#45;&gt;Node9 -->
<g id="edge8" class="edge">
<title>Node3&#45;&gt;Node9</title>
<path fill="none" stroke="midnightblue" d="M130.73,-168.32C141.84,-160.11 158.74,-147.6 171.98,-137.81"/>
<polygon fill="midnightblue" stroke="midnightblue" points="174.1,-140.59 180.06,-131.83 169.94,-134.97 174.1,-140.59"/>
</g>
<!-- Node5 -->
<g id="node5" class="node">
<title>Node5</title>
<g id="a_node5"><a xlink:href="vec_8hpp.html" target="_top" xlink:title=" ">
<polygon fill="white" stroke="black" points="83.5,-56.5 83.5,-75.5 138.5,-75.5 138.5,-56.5 83.5,-56.5"/>
<text text-anchor="middle" x="111" y="-63.5" font-family="Helvetica,sans-Serif" font-size="10.00">vec.hpp</text>
</a>
</g>
</g>
<!-- Node4&#45;&gt;Node5 -->
<g id="edge4" class="edge">
<title>Node4&#45;&gt;Node5</title>
<path fill="none" stroke="midnightblue" d="M111,-112.08C111,-105.01 111,-94.86 111,-85.99"/>
<polygon fill="midnightblue" stroke="midnightblue" points="114.5,-85.75 111,-75.75 107.5,-85.75 114.5,-85.75"/>
</g>
<!-- Node6 -->
<g id="node6" class="node">
<title>Node6</title>
<g id="a_node6"><a xlink:title=" ">
<polygon fill="white" stroke="#bfbfbf" points="76.5,-0.5 76.5,-19.5 145.5,-19.5 145.5,-0.5 76.5,-0.5"/>
<text text-anchor="middle" x="111" y="-7.5" font-family="Helvetica,sans-Serif" font-size="10.00">Eigen/Core</text>
</a>
</g>
</g>
<!-- Node5&#45;&gt;Node6 -->
<g id="edge5" class="edge">
<title>Node5&#45;&gt;Node6</title>
<path fill="none" stroke="midnightblue" d="M111,-56.08C111,-49.01 111,-38.86 111,-29.99"/>
<polygon fill="midnightblue" stroke="midnightblue" points="114.5,-29.75 111,-19.75 107.5,-29.75 114.5,-29.75"/>
</g>
</g>
</svg>
