<?xml version="1.0" encoding="UTF-8" standalone="no"?>
<!DOCTYPE svg PUBLIC "-//W3C//DTD SVG 1.1//EN"
 "http://www.w3.org/Graphics/SVG/1.1/DTD/svg11.dtd">
<!-- Generated by graphviz version 2.43.0 (0)
 -->
<!-- Title: structured&#45;panoc&#45;lbfgs.hpp Pages: 1 -->
<svg width="1396pt" height="330pt"
 viewBox="0.00 0.00 1395.50 330.00" xmlns="http://www.w3.org/2000/svg" xmlns:xlink="http://www.w3.org/1999/xlink">
<g id="graph0" class="graph" transform="scale(1 1) rotate(0) translate(4 326)">
<title>structured&#45;panoc&#45;lbfgs.hpp</title>
<polygon fill="white" stroke="transparent" points="-4,4 -4,-326 1391.5,-326 1391.5,4 -4,4"/>
<!-- Node1 -->
<g id="node1" class="node">
<title>Node1</title>
<g id="a_node1"><a xlink:title=" ">
<polygon fill="#bfbfbf" stroke="black" points="765.5,-302.5 765.5,-321.5 913.5,-321.5 913.5,-302.5 765.5,-302.5"/>
<text text-anchor="middle" x="839.5" y="-309.5" font-family="Helvetica,sans-Serif" font-size="10.00">structured&#45;panoc&#45;lbfgs.hpp</text>
</a>
</g>
</g>
<!-- Node2 -->
<g id="node2" class="node">
<title>Node2</title>
<g id="a_node2"><a xlink:href="lbfgs-stepsize_8hpp.html" target="_top" xlink:title=" ">
<polygon fill="white" stroke="black" points="0,-235.5 0,-265.5 119,-265.5 119,-235.5 0,-235.5"/>
<text text-anchor="start" x="8" y="-253.5" font-family="Helvetica,sans-Serif" font-size="10.00">panoc&#45;alm/inner/decl</text>
<text text-anchor="middle" x="59.5" y="-242.5" font-family="Helvetica,sans-Serif" font-size="10.00">/lbfgs&#45;stepsize.hpp</text>
</a>
</g>
</g>
<!-- Node1&#45;&gt;Node2 -->
<g id="edge1" class="edge">
<title>Node1&#45;&gt;Node2</title>
<path fill="none" stroke="midnightblue" d="M765.34,-309.9C637.34,-307.2 366.6,-298.06 129.32,-266.12"/>
<polygon fill="midnightblue" stroke="midnightblue" points="129.5,-262.61 119.12,-264.73 128.55,-269.55 129.5,-262.61"/>
</g>
<!-- Node3 -->
<g id="node3" class="node">
<title>Node3</title>
<g id="a_node3"><a xlink:href="panoc-fwd_8hpp.html" target="_top" xlink:title=" ">
<polygon fill="white" stroke="black" points="274,-235.5 274,-265.5 393,-265.5 393,-235.5 274,-235.5"/>
<text text-anchor="start" x="282" y="-253.5" font-family="Helvetica,sans-Serif" font-size="10.00">panoc&#45;alm/inner/decl</text>
<text text-anchor="middle" x="333.5" y="-242.5" font-family="Helvetica,sans-Serif" font-size="10.00">/panoc&#45;fwd.hpp</text>
</a>
</g>
</g>
<!-- Node1&#45;&gt;Node3 -->
<g id="edge2" class="edge">
<title>Node1&#45;&gt;Node3</title>
<path fill="none" stroke="midnightblue" d="M765.17,-305.82C679.92,-299.32 535.8,-286.65 403.08,-266.15"/>
<polygon fill="midnightblue" stroke="midnightblue" points="403.56,-262.68 393.14,-264.6 402.48,-269.6 403.56,-262.68"/>
</g>
<!-- Node5 -->
<g id="node5" class="node">
<title>Node5</title>
<g id="a_node5"><a xlink:href="panoc-stop-crit_8hpp.html" target="_top" xlink:title=" ">
<polygon fill="white" stroke="black" points="137,-235.5 137,-265.5 256,-265.5 256,-235.5 137,-235.5"/>
<text text-anchor="start" x="145" y="-253.5" font-family="Helvetica,sans-Serif" font-size="10.00">panoc&#45;alm/inner/decl</text>
<text text-anchor="middle" x="196.5" y="-242.5" font-family="Helvetica,sans-Serif" font-size="10.00">/panoc&#45;stop&#45;crit.hpp</text>
</a>
</g>
</g>
<!-- Node1&#45;&gt;Node5 -->
<g id="edge4" class="edge">
<title>Node1&#45;&gt;Node5</title>
<path fill="none" stroke="midnightblue" d="M765.18,-308.32C657.25,-303.73 450.75,-292.34 266.28,-266.14"/>
<polygon fill="midnightblue" stroke="midnightblue" points="266.52,-262.64 256.12,-264.68 265.52,-269.57 266.52,-262.64"/>
</g>
<!-- Node8 -->
<g id="node8" class="node">
<title>Node8</title>
<g id="a_node8"><a xlink:href="decl_2lbfgs_8hpp.html" target="_top" xlink:title=" ">
<polygon fill="white" stroke="black" points="411,-235.5 411,-265.5 558,-265.5 558,-235.5 411,-235.5"/>
<text text-anchor="start" x="419" y="-253.5" font-family="Helvetica,sans-Serif" font-size="10.00">panoc&#45;alm/inner/directions</text>
<text text-anchor="middle" x="484.5" y="-242.5" font-family="Helvetica,sans-Serif" font-size="10.00">/decl/lbfgs.hpp</text>
</a>
</g>
</g>
<!-- Node1&#45;&gt;Node8 -->
<g id="edge7" class="edge">
<title>Node1&#45;&gt;Node8</title>
<path fill="none" stroke="midnightblue" d="M788.64,-302.48C731.08,-292.83 636.44,-276.97 568.01,-265.5"/>
<polygon fill="midnightblue" stroke="midnightblue" points="568.55,-262.04 558.11,-263.84 567.39,-268.94 568.55,-262.04"/>
</g>
<!-- Node13 -->
<g id="node13" class="node">
<title>Node13</title>
<g id="a_node13"><a xlink:href="atomic__stop__signal_8hpp.html" target="_top" xlink:title=" ">
<polygon fill="white" stroke="black" points="635.5,-235.5 635.5,-265.5 759.5,-265.5 759.5,-235.5 635.5,-235.5"/>
<text text-anchor="start" x="643.5" y="-253.5" font-family="Helvetica,sans-Serif" font-size="10.00">panoc&#45;alm/util/atomic</text>
<text text-anchor="middle" x="697.5" y="-242.5" font-family="Helvetica,sans-Serif" font-size="10.00">_stop_signal.hpp</text>
</a>
</g>
</g>
<!-- Node1&#45;&gt;Node13 -->
<g id="edge15" class="edge">
<title>Node1&#45;&gt;Node13</title>
<path fill="none" stroke="midnightblue" d="M819.15,-302.48C798.66,-293.89 766.43,-280.38 740.29,-269.43"/>
<polygon fill="midnightblue" stroke="midnightblue" points="741.54,-266.16 730.97,-265.52 738.84,-272.62 741.54,-266.16"/>
</g>
<!-- Node14 -->
<g id="node14" class="node">
<title>Node14</title>
<g id="a_node14"><a xlink:title=" ">
<polygon fill="white" stroke="#bfbfbf" points="683.5,-174 683.5,-193 733.5,-193 733.5,-174 683.5,-174"/>
<text text-anchor="middle" x="708.5" y="-181" font-family="Helvetica,sans-Serif" font-size="10.00">atomic</text>
</a>
</g>
</g>
<!-- Node1&#45;&gt;Node14 -->
<g id="edge26" class="edge">
<title>Node1&#45;&gt;Node14</title>
<path fill="none" stroke="midnightblue" d="M831.94,-302.25C819.3,-287.77 792.85,-258.13 768.5,-235 755.31,-222.48 739.55,-209.27 727.49,-199.51"/>
<polygon fill="midnightblue" stroke="midnightblue" points="729.45,-196.59 719.46,-193.07 725.07,-202.05 729.45,-196.59"/>
</g>
<!-- Node15 -->
<g id="node15" class="node">
<title>Node15</title>
<g id="a_node15"><a xlink:href="lipschitz_8hpp.html" target="_top" xlink:title=" ">
<polygon fill="white" stroke="black" points="815.5,-112.5 815.5,-131.5 967.5,-131.5 967.5,-112.5 815.5,-112.5"/>
<text text-anchor="middle" x="891.5" y="-119.5" font-family="Helvetica,sans-Serif" font-size="10.00">panoc&#45;alm/util/lipschitz.hpp</text>
</a>
</g>
</g>
<!-- Node1&#45;&gt;Node15 -->
<g id="edge17" class="edge">
<title>Node1&#45;&gt;Node15</title>
<path fill="none" stroke="midnightblue" d="M888.03,-302.43C915.79,-295.8 950.21,-284.54 976.5,-266 1007.31,-244.28 1016.29,-234.66 1028.5,-199 1032.96,-185.97 1036.58,-179.16 1028.5,-168 1016.2,-151.01 997.27,-140.32 977.38,-133.63"/>
<polygon fill="midnightblue" stroke="midnightblue" points="978.14,-130.2 967.56,-130.65 976.11,-136.9 978.14,-130.2"/>
</g>
<!-- Node16 -->
<g id="node16" class="node">
<title>Node16</title>
<g id="a_node16"><a xlink:href="include_2panoc-alm_2util_2problem_8hpp.html" target="_top" xlink:title=" ">
<polygon fill="white" stroke="black" points="815.5,-241 815.5,-260 967.5,-260 967.5,-241 815.5,-241"/>
<text text-anchor="middle" x="891.5" y="-248" font-family="Helvetica,sans-Serif" font-size="10.00">panoc&#45;alm/util/problem.hpp</text>
</a>
</g>
</g>
<!-- Node1&#45;&gt;Node16 -->
<g id="edge19" class="edge">
<title>Node1&#45;&gt;Node16</title>
<path fill="none" stroke="midnightblue" d="M846.95,-302.48C854.83,-293.46 867.44,-279.02 877.24,-267.81"/>
<polygon fill="midnightblue" stroke="midnightblue" points="880.12,-269.84 884.06,-260.01 874.85,-265.24 880.12,-269.84"/>
</g>
<!-- Node20 -->
<g id="node20" class="node">
<title>Node20</title>
<g id="a_node20"><a xlink:href="solverstatus_8hpp.html" target="_top" xlink:title=" ">
<polygon fill="white" stroke="black" points="1024,-241 1024,-260 1195,-260 1195,-241 1024,-241"/>
<text text-anchor="middle" x="1109.5" y="-248" font-family="Helvetica,sans-Serif" font-size="10.00">panoc&#45;alm/util/solverstatus.hpp</text>
</a>
</g>
</g>
<!-- Node1&#45;&gt;Node20 -->
<g id="edge24" class="edge">
<title>Node1&#45;&gt;Node20</title>
<path fill="none" stroke="midnightblue" d="M878.18,-302.48C926.3,-291.87 1008.49,-273.76 1060.83,-262.22"/>
<polygon fill="midnightblue" stroke="midnightblue" points="1061.87,-265.58 1070.89,-260.01 1060.37,-258.74 1061.87,-265.58"/>
</g>
<!-- Node22 -->
<g id="node22" class="node">
<title>Node22</title>
<g id="a_node22"><a xlink:title=" ">
<polygon fill="white" stroke="#bfbfbf" points="1213.5,-241 1213.5,-260 1263.5,-260 1263.5,-241 1213.5,-241"/>
<text text-anchor="middle" x="1238.5" y="-248" font-family="Helvetica,sans-Serif" font-size="10.00">chrono</text>
</a>
</g>
</g>
<!-- Node1&#45;&gt;Node22 -->
<g id="edge27" class="edge">
<title>Node1&#45;&gt;Node22</title>
<path fill="none" stroke="midnightblue" d="M913.72,-307.94C988.31,-303.45 1106.01,-292.51 1204.5,-266 1206.8,-265.38 1209.15,-264.64 1211.48,-263.82"/>
<polygon fill="midnightblue" stroke="midnightblue" points="1212.81,-267.06 1220.84,-260.14 1210.25,-260.54 1212.81,-267.06"/>
</g>
<!-- Node23 -->
<g id="node23" class="node">
<title>Node23</title>
<g id="a_node23"><a xlink:title=" ">
<polygon fill="white" stroke="#bfbfbf" points="1281.5,-241 1281.5,-260 1325.5,-260 1325.5,-241 1281.5,-241"/>
<text text-anchor="middle" x="1303.5" y="-248" font-family="Helvetica,sans-Serif" font-size="10.00">limits</text>
</a>
</g>
</g>
<!-- Node1&#45;&gt;Node23 -->
<g id="edge28" class="edge">
<title>Node1&#45;&gt;Node23</title>
<path fill="none" stroke="midnightblue" d="M913.67,-310.75C1001.02,-308.76 1149.78,-300.03 1272.5,-266 1274.43,-265.46 1276.39,-264.82 1278.34,-264.1"/>
<polygon fill="midnightblue" stroke="midnightblue" points="1279.97,-267.21 1287.8,-260.08 1277.23,-260.77 1279.97,-267.21"/>
</g>
<!-- Node24 -->
<g id="node24" class="node">
<title>Node24</title>
<g id="a_node24"><a xlink:title=" ">
<polygon fill="white" stroke="#bfbfbf" points="1343.5,-241 1343.5,-260 1387.5,-260 1387.5,-241 1343.5,-241"/>
<text text-anchor="middle" x="1365.5" y="-248" font-family="Helvetica,sans-Serif" font-size="10.00">string</text>
</a>
</g>
</g>
<!-- Node1&#45;&gt;Node24 -->
<g id="edge29" class="edge">
<title>Node1&#45;&gt;Node24</title>
<path fill="none" stroke="midnightblue" d="M913.87,-307.39C1032.04,-301.13 1257.24,-286.89 1334.5,-266 1336.44,-265.48 1338.4,-264.84 1340.35,-264.13"/>
<polygon fill="midnightblue" stroke="midnightblue" points="1341.97,-267.24 1349.81,-260.12 1339.24,-260.8 1341.97,-267.24"/>
</g>
<!-- Node4 -->
<g id="node4" class="node">
<title>Node4</title>
<g id="a_node4"><a xlink:href="lbfgs-fwd_8hpp.html" target="_top" xlink:title=" ">
<polygon fill="white" stroke="black" points="247,-168.5 247,-198.5 394,-198.5 394,-168.5 247,-168.5"/>
<text text-anchor="start" x="255" y="-186.5" font-family="Helvetica,sans-Serif" font-size="10.00">panoc&#45;alm/inner/directions</text>
<text text-anchor="middle" x="320.5" y="-175.5" font-family="Helvetica,sans-Serif" font-size="10.00">/decl/lbfgs&#45;fwd.hpp</text>
</a>
</g>
</g>
<!-- Node3&#45;&gt;Node4 -->
<g id="edge3" class="edge">
<title>Node3&#45;&gt;Node4</title>
<path fill="none" stroke="midnightblue" d="M330.68,-235.4C329.11,-227.56 327.12,-217.6 325.31,-208.57"/>
<polygon fill="midnightblue" stroke="midnightblue" points="328.71,-207.7 323.32,-198.58 321.84,-209.07 328.71,-207.7"/>
</g>
<!-- Node6 -->
<g id="node6" class="node">
<title>Node6</title>
<g id="a_node6"><a xlink:title=" ">
<polygon fill="white" stroke="#bfbfbf" points="89,-174 89,-193 146,-193 146,-174 89,-174"/>
<text text-anchor="middle" x="117.5" y="-181" font-family="Helvetica,sans-Serif" font-size="10.00">ostream</text>
</a>
</g>
</g>
<!-- Node5&#45;&gt;Node6 -->
<g id="edge5" class="edge">
<title>Node5&#45;&gt;Node6</title>
<path fill="none" stroke="midnightblue" d="M179.36,-235.4C166.55,-224.86 149.07,-210.48 135.96,-199.69"/>
<polygon fill="midnightblue" stroke="midnightblue" points="138.01,-196.85 128.07,-193.19 133.57,-202.25 138.01,-196.85"/>
</g>
<!-- Node7 -->
<g id="node7" class="node">
<title>Node7</title>
<g id="a_node7"><a xlink:title=" ">
<polygon fill="white" stroke="#bfbfbf" points="164,-174 164,-193 229,-193 229,-174 164,-174"/>
<text text-anchor="middle" x="196.5" y="-181" font-family="Helvetica,sans-Serif" font-size="10.00">stdexcept</text>
</a>
</g>
</g>
<!-- Node5&#45;&gt;Node7 -->
<g id="edge6" class="edge">
<title>Node5&#45;&gt;Node7</title>
<path fill="none" stroke="midnightblue" d="M196.5,-235.4C196.5,-226.06 196.5,-213.71 196.5,-203.52"/>
<polygon fill="midnightblue" stroke="midnightblue" points="200,-203.19 196.5,-193.19 193,-203.19 200,-203.19"/>
</g>
<!-- Node8&#45;&gt;Node4 -->
<g id="edge12" class="edge">
<title>Node8&#45;&gt;Node4</title>
<path fill="none" stroke="midnightblue" d="M448.91,-235.4C424.41,-225.69 391.67,-212.71 365.38,-202.29"/>
<polygon fill="midnightblue" stroke="midnightblue" points="366.6,-199.01 356.02,-198.58 364.02,-205.51 366.6,-199.01"/>
</g>
<!-- Node9 -->
<g id="node9" class="node">
<title>Node9</title>
<g id="a_node9"><a xlink:href="box_8hpp.html" target="_top" xlink:title=" ">
<polygon fill="white" stroke="black" points="512,-112.5 512,-131.5 641,-131.5 641,-112.5 512,-112.5"/>
<text text-anchor="middle" x="576.5" y="-119.5" font-family="Helvetica,sans-Serif" font-size="10.00">panoc&#45;alm/util/box.hpp</text>
</a>
</g>
</g>
<!-- Node8&#45;&gt;Node9 -->
<g id="edge8" class="edge">
<title>Node8&#45;&gt;Node9</title>
<path fill="none" stroke="midnightblue" d="M478.62,-235.27C472.48,-217.93 465.4,-188.42 478.5,-168 488.77,-151.98 506.35,-141.58 523.8,-134.87"/>
<polygon fill="midnightblue" stroke="midnightblue" points="525.14,-138.11 533.43,-131.51 522.84,-131.5 525.14,-138.11"/>
</g>
<!-- Node10 -->
<g id="node10" class="node">
<title>Node10</title>
<g id="a_node10"><a xlink:href="vec_8hpp.html" target="_top" xlink:title=" ">
<polygon fill="white" stroke="black" points="549,-56.5 549,-75.5 604,-75.5 604,-56.5 549,-56.5"/>
<text text-anchor="middle" x="576.5" y="-63.5" font-family="Helvetica,sans-Serif" font-size="10.00">vec.hpp</text>
</a>
</g>
</g>
<!-- Node8&#45;&gt;Node10 -->
<g id="edge11" class="edge">
<title>Node8&#45;&gt;Node10</title>
<path fill="none" stroke="midnightblue" d="M477.35,-235.21C470.11,-218.82 460.85,-191.2 467.5,-168 475.59,-139.79 481.62,-132.63 502.5,-112 515.66,-99 533.27,-88.1 548,-80.28"/>
<polygon fill="midnightblue" stroke="midnightblue" points="549.87,-83.26 557.2,-75.6 546.7,-77.02 549.87,-83.26"/>
</g>
<!-- Node12 -->
<g id="node12" class="node">
<title>Node12</title>
<g id="a_node12"><a xlink:href="panoc-direction-update_8hpp.html" target="_top" xlink:title=" ">
<polygon fill="white" stroke="black" points="488,-168.5 488,-198.5 665,-198.5 665,-168.5 488,-168.5"/>
<text text-anchor="start" x="496" y="-186.5" font-family="Helvetica,sans-Serif" font-size="10.00">panoc&#45;alm/inner/directions</text>
<text text-anchor="middle" x="576.5" y="-175.5" font-family="Helvetica,sans-Serif" font-size="10.00">/decl/panoc&#45;direction&#45;update.hpp</text>
</a>
</g>
</g>
<!-- Node8&#45;&gt;Node12 -->
<g id="edge13" class="edge">
<title>Node8&#45;&gt;Node12</title>
<path fill="none" stroke="midnightblue" d="M504.46,-235.4C517.24,-226.37 534.02,-214.51 548.17,-204.52"/>
<polygon fill="midnightblue" stroke="midnightblue" points="550.43,-207.21 556.58,-198.58 546.39,-201.49 550.43,-207.21"/>
</g>
<!-- Node9&#45;&gt;Node10 -->
<g id="edge9" class="edge">
<title>Node9&#45;&gt;Node10</title>
<path fill="none" stroke="midnightblue" d="M576.5,-112.08C576.5,-105.01 576.5,-94.86 576.5,-85.99"/>
<polygon fill="midnightblue" stroke="midnightblue" points="580,-85.75 576.5,-75.75 573,-85.75 580,-85.75"/>
</g>
<!-- Node11 -->
<g id="node11" class="node">
<title>Node11</title>
<g id="a_node11"><a xlink:title=" ">
<polygon fill="white" stroke="#bfbfbf" points="542,-0.5 542,-19.5 611,-19.5 611,-0.5 542,-0.5"/>
<text text-anchor="middle" x="576.5" y="-7.5" font-family="Helvetica,sans-Serif" font-size="10.00">Eigen/Core</text>
</a>
</g>
</g>
<!-- Node10&#45;&gt;Node11 -->
<g id="edge10" class="edge">
<title>Node10&#45;&gt;Node11</title>
<path fill="none" stroke="midnightblue" d="M576.5,-56.08C576.5,-49.01 576.5,-38.86 576.5,-29.99"/>
<polygon fill="midnightblue" stroke="midnightblue" points="580,-29.75 576.5,-19.75 573,-29.75 580,-29.75"/>
</g>
<!-- Node12&#45;&gt;Node9 -->
<g id="edge14" class="edge">
<title>Node12&#45;&gt;Node9</title>
<path fill="none" stroke="midnightblue" d="M576.5,-168.4C576.5,-160.47 576.5,-150.46 576.5,-141.86"/>
<polygon fill="midnightblue" stroke="midnightblue" points="580,-141.66 576.5,-131.66 573,-141.66 580,-141.66"/>
</g>
<!-- Node13&#45;&gt;Node14 -->
<g id="edge16" class="edge">
<title>Node13&#45;&gt;Node14</title>
<path fill="none" stroke="midnightblue" d="M699.89,-235.4C701.48,-225.96 703.6,-213.45 705.34,-203.19"/>
<polygon fill="midnightblue" stroke="midnightblue" points="708.81,-203.64 707.03,-193.19 701.91,-202.47 708.81,-203.64"/>
</g>
<!-- Node15&#45;&gt;Node10 -->
<g id="edge18" class="edge">
<title>Node15&#45;&gt;Node10</title>
<path fill="none" stroke="midnightblue" d="M841.59,-112.44C778.38,-101.61 670.91,-83.18 614.16,-73.46"/>
<polygon fill="midnightblue" stroke="midnightblue" points="614.63,-69.99 604.18,-71.75 613.45,-76.88 614.63,-69.99"/>
</g>
<!-- Node16&#45;&gt;Node9 -->
<g id="edge20" class="edge">
<title>Node16&#45;&gt;Node9</title>
<path fill="none" stroke="midnightblue" d="M868.78,-240.95C845.95,-231.93 810.15,-216.6 781.5,-199 762.63,-187.41 762.26,-177.99 742.5,-168 710.16,-151.65 671.17,-140.69 639.11,-133.68"/>
<polygon fill="midnightblue" stroke="midnightblue" points="639.47,-130.18 628.96,-131.54 638.03,-137.03 639.47,-130.18"/>
</g>
<!-- Node17 -->
<g id="node17" class="node">
<title>Node17</title>
<g id="a_node17"><a xlink:title=" ">
<polygon fill="white" stroke="#bfbfbf" points="790,-174 790,-193 855,-193 855,-174 790,-174"/>
<text text-anchor="middle" x="822.5" y="-181" font-family="Helvetica,sans-Serif" font-size="10.00">functional</text>
</a>
</g>
</g>
<!-- Node16&#45;&gt;Node17 -->
<g id="edge21" class="edge">
<title>Node16&#45;&gt;Node17</title>
<path fill="none" stroke="midnightblue" d="M882.19,-240.73C871.23,-230.4 852.79,-213.04 839.31,-200.33"/>
<polygon fill="midnightblue" stroke="midnightblue" points="841.34,-197.44 831.66,-193.13 836.54,-202.53 841.34,-197.44"/>
</g>
<!-- Node18 -->
<g id="node18" class="node">
<title>Node18</title>
<g id="a_node18"><a xlink:title=" ">
<polygon fill="white" stroke="#bfbfbf" points="873.5,-174 873.5,-193 931.5,-193 931.5,-174 873.5,-174"/>
<text text-anchor="middle" x="902.5" y="-181" font-family="Helvetica,sans-Serif" font-size="10.00">memory</text>
</a>
</g>
</g>
<!-- Node16&#45;&gt;Node18 -->
<g id="edge22" class="edge">
<title>Node16&#45;&gt;Node18</title>
<path fill="none" stroke="midnightblue" d="M892.98,-240.73C894.6,-231.18 897.23,-215.62 899.32,-203.28"/>
<polygon fill="midnightblue" stroke="midnightblue" points="902.82,-203.57 901.04,-193.13 895.92,-202.4 902.82,-203.57"/>
</g>
<!-- Node19 -->
<g id="node19" class="node">
<title>Node19</title>
<g id="a_node19"><a xlink:title=" ">
<polygon fill="white" stroke="#bfbfbf" points="950,-174 950,-193 1019,-193 1019,-174 950,-174"/>
<text text-anchor="middle" x="984.5" y="-181" font-family="Helvetica,sans-Serif" font-size="10.00">type_traits</text>
</a>
</g>
</g>
<!-- Node16&#45;&gt;Node19 -->
<g id="edge23" class="edge">
<title>Node16&#45;&gt;Node19</title>
<path fill="none" stroke="midnightblue" d="M904.04,-240.73C919.38,-230.01 945.56,-211.72 963.88,-198.91"/>
<polygon fill="midnightblue" stroke="midnightblue" points="965.96,-201.72 972.16,-193.13 961.95,-195.99 965.96,-201.72"/>
</g>
<!-- Node21 -->
<g id="node21" class="node">
<title>Node21</title>
<g id="a_node21"><a xlink:title=" ">
<polygon fill="white" stroke="#bfbfbf" points="1085.5,-174 1085.5,-193 1133.5,-193 1133.5,-174 1085.5,-174"/>
<text text-anchor="middle" x="1109.5" y="-181" font-family="Helvetica,sans-Serif" font-size="10.00">iosfwd</text>
</a>
</g>
</g>
<!-- Node20&#45;&gt;Node21 -->
<g id="edge25" class="edge">
<title>Node20&#45;&gt;Node21</title>
<path fill="none" stroke="midnightblue" d="M1109.5,-240.73C1109.5,-231.18 1109.5,-215.62 1109.5,-203.28"/>
<polygon fill="midnightblue" stroke="midnightblue" points="1113,-203.13 1109.5,-193.13 1106,-203.13 1113,-203.13"/>
</g>
</g>
</svg>
