<?xml version="1.0" encoding="UTF-8" standalone="no"?>
<!DOCTYPE svg PUBLIC "-//W3C//DTD SVG 1.1//EN"
 "http://www.w3.org/Graphics/SVG/1.1/DTD/svg11.dtd">
<!-- Generated by graphviz version 2.43.0 (0)
 -->
<!-- Title: inner Pages: 1 -->
<svg width="182pt" height="303pt"
 viewBox="0.00 0.00 182.00 303.00" xmlns="http://www.w3.org/2000/svg" xmlns:xlink="http://www.w3.org/1999/xlink">
<g id="graph0" class="graph" transform="scale(1 1) rotate(0) translate(4 299)">
<title>inner</title>
<polygon fill="white" stroke="transparent" points="-4,4 -4,-299 178,-299 178,4 -4,4"/>
<g id="clust1" class="cluster">
<title>clusterdir_90b5b0cae34bc1cd1e0eaa0196dab481</title>
<g id="a_clust1"><a xlink:href="dir_90b5b0cae34bc1cd1e0eaa0196dab481.html" target="_top" xlink:title="panoc&#45;alm">
<polygon fill="#ddddee" stroke="black" points="8,-56 8,-287 166,-287 166,-56 8,-56"/>
<text text-anchor="middle" x="87" y="-275" font-family="Helvetica,sans-Serif" font-size="10.00">panoc&#45;alm</text>
</a>
</g>
</g>
<g id="clust2" class="cluster">
<title>clusterdir_3e9c4e5327a81a71a89d9f82f5b1fa78</title>
<g id="a_clust2"><a xlink:href="dir_3e9c4e5327a81a71a89d9f82f5b1fa78.html" target="_top">
<polygon fill="#eeeeff" stroke="black" points="16,-64 16,-260 158,-260 158,-64 16,-64"/>
</a>
</g>
</g>
<!-- dir_3e9c4e5327a81a71a89d9f82f5b1fa78 -->
<g id="node1" class="node">
<title>dir_3e9c4e5327a81a71a89d9f82f5b1fa78</title>
<text text-anchor="middle" x="123" y="-231.5" font-family="Helvetica,sans-Serif" font-size="10.00">inner</text>
</g>
<!-- dir_f541ccf84a3e496034f5ec9176c672a2 -->
<g id="node2" class="node">
<title>dir_f541ccf84a3e496034f5ec9176c672a2</title>
<g id="a_node2"><a xlink:href="dir_f541ccf84a3e496034f5ec9176c672a2.html" target="_top" xlink:title="decl">
<polygon fill="white" stroke="black" points="78,-252 24,-252 24,-216 78,-216 78,-252"/>
<text text-anchor="middle" x="51" y="-231.5" font-family="Helvetica,sans-Serif" font-size="10.00">decl</text>
</a>
</g>
</g>
<!-- dir_0458df1e67485cf5278eafdb508857b1 -->
<g id="node4" class="node">
<title>dir_0458df1e67485cf5278eafdb508857b1</title>
<g id="a_node4"><a xlink:href="dir_0458df1e67485cf5278eafdb508857b1.html" target="_top" xlink:title="directions">
<polygon fill="white" stroke="red" points="115.5,-180 50.5,-180 50.5,-144 115.5,-144 115.5,-180"/>
<text text-anchor="middle" x="83" y="-159.5" font-family="Helvetica,sans-Serif" font-size="10.00">directions</text>
</a>
</g>
</g>
<!-- dir_f541ccf84a3e496034f5ec9176c672a2&#45;&gt;dir_0458df1e67485cf5278eafdb508857b1 -->
<g id="edge6" class="edge">
<title>dir_f541ccf84a3e496034f5ec9176c672a2&#45;&gt;dir_0458df1e67485cf5278eafdb508857b1</title>
<path fill="none" stroke="black" d="M58.91,-215.7C62.55,-207.73 66.95,-198.1 70.99,-189.26"/>
<polygon fill="black" stroke="black" points="74.21,-190.65 75.18,-180.1 67.84,-187.74 74.21,-190.65"/>
<g id="a_edge6&#45;headlabel"><a xlink:href="dir_000027_000008.html" target="_top" xlink:title="3">
<text text-anchor="middle" x="75.29" y="-192.6" font-family="Helvetica,sans-Serif" font-size="10.00">3</text>
</a>
</g>
</g>
<!-- dir_2bd50800112c18592c4fbe8af353e3db -->
<g id="node5" class="node">
<title>dir_2bd50800112c18592c4fbe8af353e3db</title>
<g id="a_node5"><a xlink:href="dir_2bd50800112c18592c4fbe8af353e3db.html" target="_top" xlink:title="util">
<polygon fill="none" stroke="black" points="133,-36 79,-36 79,0 133,0 133,-36"/>
<text text-anchor="middle" x="106" y="-15.5" font-family="Helvetica,sans-Serif" font-size="10.00">util</text>
</a>
</g>
</g>
<!-- dir_f541ccf84a3e496034f5ec9176c672a2&#45;&gt;dir_2bd50800112c18592c4fbe8af353e3db -->
<g id="edge5" class="edge">
<title>dir_f541ccf84a3e496034f5ec9176c672a2&#45;&gt;dir_2bd50800112c18592c4fbe8af353e3db</title>
<path fill="none" stroke="black" d="M78.11,-217.25C97.04,-205.62 119.8,-190.12 125,-180 147.15,-136.89 130.91,-78.94 117.9,-45.61"/>
<polygon fill="black" stroke="black" points="121.03,-44.03 114.01,-36.1 114.56,-46.68 121.03,-44.03"/>
<g id="a_edge5&#45;headlabel"><a xlink:href="dir_000027_000010.html" target="_top" xlink:title="12">
<text text-anchor="middle" x="125.02" y="-43.79" font-family="Helvetica,sans-Serif" font-size="10.00">12</text>
</a>
</g>
</g>
<!-- dir_82fd9c8b47b758db73e98a227e698837 -->
<g id="node3" class="node">
<title>dir_82fd9c8b47b758db73e98a227e698837</title>
<g id="a_node3"><a xlink:href="dir_82fd9c8b47b758db73e98a227e698837.html" target="_top" xlink:title="detail">
<polygon fill="white" stroke="black" points="78,-108 24,-108 24,-72 78,-72 78,-108"/>
<text text-anchor="middle" x="51" y="-87.5" font-family="Helvetica,sans-Serif" font-size="10.00">detail</text>
</a>
</g>
</g>
<!-- dir_82fd9c8b47b758db73e98a227e698837&#45;&gt;dir_f541ccf84a3e496034f5ec9176c672a2 -->
<g id="edge2" class="edge">
<title>dir_82fd9c8b47b758db73e98a227e698837&#45;&gt;dir_f541ccf84a3e496034f5ec9176c672a2</title>
<path fill="none" stroke="black" d="M46.94,-108.07C44.69,-118.4 42.13,-131.88 41,-144 39.51,-159.93 39.51,-164.07 41,-180 41.8,-188.52 43.3,-197.72 44.9,-206.01"/>
<polygon fill="black" stroke="black" points="41.5,-206.84 46.94,-215.93 48.36,-205.43 41.5,-206.84"/>
<g id="a_edge2&#45;headlabel"><a xlink:href="dir_000009_000027.html" target="_top" xlink:title="1">
<text text-anchor="middle" x="37.99" y="-201.39" font-family="Helvetica,sans-Serif" font-size="10.00">1</text>
</a>
</g>
</g>
<!-- dir_82fd9c8b47b758db73e98a227e698837&#45;&gt;dir_2bd50800112c18592c4fbe8af353e3db -->
<g id="edge1" class="edge">
<title>dir_82fd9c8b47b758db73e98a227e698837&#45;&gt;dir_2bd50800112c18592c4fbe8af353e3db</title>
<path fill="none" stroke="black" d="M64.6,-71.7C71.12,-63.39 79.07,-53.28 86.25,-44.14"/>
<polygon fill="black" stroke="black" points="89.13,-46.13 92.56,-36.1 83.63,-41.81 89.13,-46.13"/>
<g id="a_edge1&#45;headlabel"><a xlink:href="dir_000009_000010.html" target="_top" xlink:title="5">
<text text-anchor="middle" x="89.15" y="-48.21" font-family="Helvetica,sans-Serif" font-size="10.00">5</text>
</a>
</g>
</g>
<!-- dir_0458df1e67485cf5278eafdb508857b1&#45;&gt;dir_82fd9c8b47b758db73e98a227e698837 -->
<g id="edge3" class="edge">
<title>dir_0458df1e67485cf5278eafdb508857b1&#45;&gt;dir_82fd9c8b47b758db73e98a227e698837</title>
<path fill="none" stroke="black" d="M75.09,-143.7C71.45,-135.73 67.05,-126.1 63.01,-117.26"/>
<polygon fill="black" stroke="black" points="66.16,-115.74 58.82,-108.1 59.79,-118.65 66.16,-115.74"/>
<g id="a_edge3&#45;headlabel"><a xlink:href="dir_000008_000009.html" target="_top" xlink:title="2">
<text text-anchor="middle" x="70.24" y="-115.33" font-family="Helvetica,sans-Serif" font-size="10.00">2</text>
</a>
</g>
</g>
<!-- dir_0458df1e67485cf5278eafdb508857b1&#45;&gt;dir_2bd50800112c18592c4fbe8af353e3db -->
<g id="edge4" class="edge">
<title>dir_0458df1e67485cf5278eafdb508857b1&#45;&gt;dir_2bd50800112c18592c4fbe8af353e3db</title>
<path fill="none" stroke="black" d="M85.77,-143.87C89.69,-119.67 96.9,-75.21 101.56,-46.39"/>
<polygon fill="black" stroke="black" points="105.07,-46.62 103.22,-36.19 98.16,-45.5 105.07,-46.62"/>
<g id="a_edge4&#45;headlabel"><a xlink:href="dir_000008_000010.html" target="_top" xlink:title="3">
<text text-anchor="middle" x="107.3" y="-48.12" font-family="Helvetica,sans-Serif" font-size="10.00">3</text>
</a>
</g>
</g>
</g>
</svg>
