<?xml version="1.0" encoding="UTF-8" standalone="no"?>
<!DOCTYPE svg PUBLIC "-//W3C//DTD SVG 1.1//EN"
 "http://www.w3.org/Graphics/SVG/1.1/DTD/svg11.dtd">
<!-- Generated by graphviz version 2.43.0 (0)
 -->
<!-- Title: panoc&#45;alm Pages: 1 -->
<svg width="334pt" height="399pt"
 viewBox="0.00 0.00 334.00 399.00" xmlns="http://www.w3.org/2000/svg" xmlns:xlink="http://www.w3.org/1999/xlink">
<g id="graph0" class="graph" transform="scale(1 1) rotate(0) translate(4 395)">
<title>panoc&#45;alm</title>
<polygon fill="white" stroke="transparent" points="-4,4 -4,-395 330,-395 330,4 -4,4"/>
<g id="clust1" class="cluster">
<title>clusterdir_b0856f6b0d80ccb263b2f415c91f9e17</title>
<g id="a_clust1"><a xlink:href="dir_b0856f6b0d80ccb263b2f415c91f9e17.html" target="_top" xlink:title="include">
<polygon fill="#ddddee" stroke="black" points="8,-8 8,-383 318,-383 318,-8 8,-8"/>
<text text-anchor="middle" x="163" y="-371" font-family="Helvetica,sans-Serif" font-size="10.00">include</text>
</a>
</g>
</g>
<g id="clust2" class="cluster">
<title>clusterdir_90b5b0cae34bc1cd1e0eaa0196dab481</title>
<g id="a_clust2"><a xlink:href="dir_90b5b0cae34bc1cd1e0eaa0196dab481.html" target="_top">
<polygon fill="#eeeeff" stroke="black" points="16,-16 16,-356 310,-356 310,-16 16,-16"/>
</a>
</g>
</g>
<!-- dir_90b5b0cae34bc1cd1e0eaa0196dab481 -->
<g id="node1" class="node">
<title>dir_90b5b0cae34bc1cd1e0eaa0196dab481</title>
<text text-anchor="middle" x="261" y="-327.5" font-family="Helvetica,sans-Serif" font-size="10.00">panoc&#45;alm</text>
</g>
<!-- dir_38b9936a81b7c2f7f0c4a08a6b955e24 -->
<g id="node3" class="node">
<title>dir_38b9936a81b7c2f7f0c4a08a6b955e24</title>
<g id="a_node3"><a xlink:href="dir_38b9936a81b7c2f7f0c4a08a6b955e24.html" target="_top" xlink:title="detail">
<polygon fill="white" stroke="black" points="288,-276 234,-276 234,-240 288,-240 288,-276"/>
<text text-anchor="middle" x="261" y="-255.5" font-family="Helvetica,sans-Serif" font-size="10.00">detail</text>
</a>
</g>
</g>
<!-- dir_90b5b0cae34bc1cd1e0eaa0196dab481&#45;&gt;dir_38b9936a81b7c2f7f0c4a08a6b955e24 -->
<g id="edge7" class="edge">
<title>dir_90b5b0cae34bc1cd1e0eaa0196dab481&#45;&gt;dir_38b9936a81b7c2f7f0c4a08a6b955e24</title>
<path fill="none" stroke="black" d="M261,-311.7C261,-303.98 261,-294.71 261,-286.11"/>
<polygon fill="black" stroke="black" points="264.5,-286.1 261,-276.1 257.5,-286.1 264.5,-286.1"/>
<g id="a_edge7&#45;headlabel"><a xlink:href="dir_000003_000004.html" target="_top" xlink:title="1">
<text text-anchor="middle" x="267.34" y="-287.2" font-family="Helvetica,sans-Serif" font-size="10.00">1</text>
</a>
</g>
</g>
<!-- dir_4d9a259b1a4bae6d9975f656fbdc4a16 -->
<g id="node2" class="node">
<title>dir_4d9a259b1a4bae6d9975f656fbdc4a16</title>
<g id="a_node2"><a xlink:href="dir_4d9a259b1a4bae6d9975f656fbdc4a16.html" target="_top" xlink:title="decl">
<polygon fill="white" stroke="black" points="288,-204 234,-204 234,-168 288,-168 288,-204"/>
<text text-anchor="middle" x="261" y="-183.5" font-family="Helvetica,sans-Serif" font-size="10.00">decl</text>
</a>
</g>
</g>
<!-- dir_3e9c4e5327a81a71a89d9f82f5b1fa78 -->
<g id="node4" class="node">
<title>dir_3e9c4e5327a81a71a89d9f82f5b1fa78</title>
<g id="a_node4"><a xlink:href="dir_3e9c4e5327a81a71a89d9f82f5b1fa78.html" target="_top" xlink:title="inner">
<polygon fill="white" stroke="red" points="282,-132 228,-132 228,-96 282,-96 282,-132"/>
<text text-anchor="middle" x="255" y="-111.5" font-family="Helvetica,sans-Serif" font-size="10.00">inner</text>
</a>
</g>
</g>
<!-- dir_4d9a259b1a4bae6d9975f656fbdc4a16&#45;&gt;dir_3e9c4e5327a81a71a89d9f82f5b1fa78 -->
<g id="edge2" class="edge">
<title>dir_4d9a259b1a4bae6d9975f656fbdc4a16&#45;&gt;dir_3e9c4e5327a81a71a89d9f82f5b1fa78</title>
<path fill="none" stroke="black" d="M259.52,-167.7C258.86,-159.98 258.06,-150.71 257.32,-142.11"/>
<polygon fill="black" stroke="black" points="260.81,-141.77 256.47,-132.1 253.83,-142.37 260.81,-141.77"/>
<g id="a_edge2&#45;headlabel"><a xlink:href="dir_000006_000007.html" target="_top" xlink:title="1">
<text text-anchor="middle" x="263.94" y="-142.61" font-family="Helvetica,sans-Serif" font-size="10.00">1</text>
</a>
</g>
</g>
<!-- dir_2bd50800112c18592c4fbe8af353e3db -->
<g id="node7" class="node">
<title>dir_2bd50800112c18592c4fbe8af353e3db</title>
<g id="a_node7"><a xlink:href="dir_2bd50800112c18592c4fbe8af353e3db.html" target="_top" xlink:title="util">
<polygon fill="white" stroke="black" points="246,-60 192,-60 192,-24 246,-24 246,-60"/>
<text text-anchor="middle" x="219" y="-39.5" font-family="Helvetica,sans-Serif" font-size="10.00">util</text>
</a>
</g>
</g>
<!-- dir_4d9a259b1a4bae6d9975f656fbdc4a16&#45;&gt;dir_2bd50800112c18592c4fbe8af353e3db -->
<g id="edge3" class="edge">
<title>dir_4d9a259b1a4bae6d9975f656fbdc4a16&#45;&gt;dir_2bd50800112c18592c4fbe8af353e3db</title>
<path fill="none" stroke="black" d="M274.75,-167.69C287.55,-149.31 302.99,-119.72 291,-96 283.3,-80.77 268.94,-68.85 255.06,-60.2"/>
<polygon fill="black" stroke="black" points="256.48,-56.98 246.08,-54.99 252.97,-63.04 256.48,-56.98"/>
<g id="a_edge3&#45;headlabel"><a xlink:href="dir_000006_000010.html" target="_top" xlink:title="2">
<text text-anchor="middle" x="261.02" y="-53.83" font-family="Helvetica,sans-Serif" font-size="10.00">2</text>
</a>
</g>
</g>
<!-- dir_38b9936a81b7c2f7f0c4a08a6b955e24&#45;&gt;dir_4d9a259b1a4bae6d9975f656fbdc4a16 -->
<g id="edge6" class="edge">
<title>dir_38b9936a81b7c2f7f0c4a08a6b955e24&#45;&gt;dir_4d9a259b1a4bae6d9975f656fbdc4a16</title>
<path fill="none" stroke="black" d="M261,-239.7C261,-231.98 261,-222.71 261,-214.11"/>
<polygon fill="black" stroke="black" points="264.5,-214.1 261,-204.1 257.5,-214.1 264.5,-214.1"/>
<g id="a_edge6&#45;headlabel"><a xlink:href="dir_000004_000006.html" target="_top" xlink:title="1">
<text text-anchor="middle" x="267.34" y="-215.2" font-family="Helvetica,sans-Serif" font-size="10.00">1</text>
</a>
</g>
</g>
<!-- dir_3e9c4e5327a81a71a89d9f82f5b1fa78&#45;&gt;dir_2bd50800112c18592c4fbe8af353e3db -->
<g id="edge4" class="edge">
<title>dir_3e9c4e5327a81a71a89d9f82f5b1fa78&#45;&gt;dir_2bd50800112c18592c4fbe8af353e3db</title>
<path fill="none" stroke="black" d="M246.1,-95.7C242,-87.73 237.05,-78.1 232.51,-69.26"/>
<polygon fill="black" stroke="black" points="235.48,-67.4 227.8,-60.1 229.26,-70.6 235.48,-67.4"/>
<g id="a_edge4&#45;headlabel"><a xlink:href="dir_000007_000010.html" target="_top" xlink:title="29">
<text text-anchor="middle" x="239.65" y="-66.79" font-family="Helvetica,sans-Serif" font-size="10.00">29</text>
</a>
</g>
</g>
<!-- dir_07e6aa43d1415ab01bdec52979eaebf1 -->
<g id="node5" class="node">
<title>dir_07e6aa43d1415ab01bdec52979eaebf1</title>
<g id="a_node5"><a xlink:href="dir_07e6aa43d1415ab01bdec52979eaebf1.html" target="_top" xlink:title="interop">
<polygon fill="white" stroke="red" points="210,-132 156,-132 156,-96 210,-96 210,-132"/>
<text text-anchor="middle" x="183" y="-111.5" font-family="Helvetica,sans-Serif" font-size="10.00">interop</text>
</a>
</g>
</g>
<!-- dir_07e6aa43d1415ab01bdec52979eaebf1&#45;&gt;dir_2bd50800112c18592c4fbe8af353e3db -->
<g id="edge1" class="edge">
<title>dir_07e6aa43d1415ab01bdec52979eaebf1&#45;&gt;dir_2bd50800112c18592c4fbe8af353e3db</title>
<path fill="none" stroke="black" d="M191.9,-95.7C196,-87.73 200.95,-78.1 205.49,-69.26"/>
<polygon fill="black" stroke="black" points="208.74,-70.6 210.2,-60.1 202.52,-67.4 208.74,-70.6"/>
<g id="a_edge1&#45;headlabel"><a xlink:href="dir_000015_000010.html" target="_top" xlink:title="3">
<text text-anchor="middle" x="209.62" y="-72.59" font-family="Helvetica,sans-Serif" font-size="10.00">3</text>
</a>
</g>
</g>
<!-- dir_2ef00cd1d568f193a5d6d8c857f8f410 -->
<g id="node6" class="node">
<title>dir_2ef00cd1d568f193a5d6d8c857f8f410</title>
<g id="a_node6"><a xlink:href="dir_2ef00cd1d568f193a5d6d8c857f8f410.html" target="_top" xlink:title="reference&#45;problems">
<polygon fill="white" stroke="black" points="137.5,-132 24.5,-132 24.5,-96 137.5,-96 137.5,-132"/>
<text text-anchor="middle" x="81" y="-111.5" font-family="Helvetica,sans-Serif" font-size="10.00">reference&#45;problems</text>
</a>
</g>
</g>
<!-- dir_2ef00cd1d568f193a5d6d8c857f8f410&#45;&gt;dir_2bd50800112c18592c4fbe8af353e3db -->
<g id="edge5" class="edge">
<title>dir_2ef00cd1d568f193a5d6d8c857f8f410&#45;&gt;dir_2bd50800112c18592c4fbe8af353e3db</title>
<path fill="none" stroke="black" d="M114.76,-95.88C135.33,-85.44 161.62,-72.1 182.65,-61.44"/>
<polygon fill="black" stroke="black" points="184.27,-64.54 191.61,-56.9 181.11,-58.3 184.27,-64.54"/>
<g id="a_edge5&#45;headlabel"><a xlink:href="dir_000025_000010.html" target="_top" xlink:title="2">
<text text-anchor="middle" x="182.35" y="-66.2" font-family="Helvetica,sans-Serif" font-size="10.00">2</text>
</a>
</g>
</g>
</g>
</svg>
