<?xml version="1.0" encoding="UTF-8" standalone="no"?>
<!DOCTYPE svg PUBLIC "-//W3C//DTD SVG 1.1//EN"
 "http://www.w3.org/Graphics/SVG/1.1/DTD/svg11.dtd">
<!-- Generated by graphviz version 2.43.0 (0)
 -->
<!-- Title: src Pages: 1 -->
<svg width="242pt" height="148pt"
 viewBox="0.00 0.00 242.00 148.00" xmlns="http://www.w3.org/2000/svg" xmlns:xlink="http://www.w3.org/1999/xlink">
<g id="graph0" class="graph" transform="scale(1 1) rotate(0) translate(4 144)">
<title>src</title>
<polygon fill="white" stroke="transparent" points="-4,4 -4,-144 238,-144 238,4 -4,4"/>
<g id="clust1" class="cluster">
<title>clusterdir_68267d1309a1af8e8297ef4c3efbcdba</title>
<g id="a_clust1"><a xlink:href="dir_68267d1309a1af8e8297ef4c3efbcdba.html" target="_top">
<polygon fill="#eeeeff" stroke="black" points="8,-8 8,-132 226,-132 226,-8 8,-8"/>
</a>
</g>
</g>
<!-- dir_68267d1309a1af8e8297ef4c3efbcdba -->
<g id="node1" class="node">
<title>dir_68267d1309a1af8e8297ef4c3efbcdba</title>
<text text-anchor="middle" x="191" y="-103.5" font-family="Helvetica,sans-Serif" font-size="10.00">src</text>
</g>
<!-- dir_b0856f6b0d80ccb263b2f415c91f9e17 -->
<g id="node2" class="node">
<title>dir_b0856f6b0d80ccb263b2f415c91f9e17</title>
<g id="a_node2"><a xlink:href="dir_b0856f6b0d80ccb263b2f415c91f9e17.html" target="_top" xlink:title="include">
<polygon fill="white" stroke="red" points="107,-52 53,-52 53,-16 107,-16 107,-52"/>
<text text-anchor="middle" x="80" y="-31.5" font-family="Helvetica,sans-Serif" font-size="10.00">include</text>
</a>
</g>
</g>
<!-- dir_b4af81884ae41024361b6f36abe67af9 -->
<g id="node3" class="node">
<title>dir_b4af81884ae41024361b6f36abe67af9</title>
<g id="a_node3"><a xlink:href="dir_b4af81884ae41024361b6f36abe67af9.html" target="_top" xlink:title="panocpy">
<polygon fill="white" stroke="black" points="146,-124 88,-124 88,-88 146,-88 146,-124"/>
<text text-anchor="middle" x="117" y="-103.5" font-family="Helvetica,sans-Serif" font-size="10.00">panocpy</text>
</a>
</g>
</g>
<!-- dir_b4af81884ae41024361b6f36abe67af9&#45;&gt;dir_b0856f6b0d80ccb263b2f415c91f9e17 -->
<g id="edge1" class="edge">
<title>dir_b4af81884ae41024361b6f36abe67af9&#45;&gt;dir_b0856f6b0d80ccb263b2f415c91f9e17</title>
<path fill="none" stroke="black" d="M107.85,-87.7C103.6,-79.64 98.44,-69.89 93.73,-60.98"/>
<polygon fill="black" stroke="black" points="96.81,-59.31 89.04,-52.1 90.62,-62.58 96.81,-59.31"/>
<g id="a_edge1&#45;headlabel"><a xlink:href="dir_000001_000002.html" target="_top" xlink:title="25">
<text text-anchor="middle" x="101" y="-58.66" font-family="Helvetica,sans-Serif" font-size="10.00">25</text>
</a>
</g>
</g>
<!-- dir_98cdb10f369f6a3b9149e010b312bf5d -->
<g id="node4" class="node">
<title>dir_98cdb10f369f6a3b9149e010b312bf5d</title>
<g id="a_node4"><a xlink:href="dir_98cdb10f369f6a3b9149e010b312bf5d.html" target="_top" xlink:title="src">
<polygon fill="white" stroke="red" points="70,-124 16,-124 16,-88 70,-88 70,-124"/>
<text text-anchor="middle" x="43" y="-103.5" font-family="Helvetica,sans-Serif" font-size="10.00">src</text>
</a>
</g>
</g>
<!-- dir_98cdb10f369f6a3b9149e010b312bf5d&#45;&gt;dir_b0856f6b0d80ccb263b2f415c91f9e17 -->
<g id="edge2" class="edge">
<title>dir_98cdb10f369f6a3b9149e010b312bf5d&#45;&gt;dir_b0856f6b0d80ccb263b2f415c91f9e17</title>
<path fill="none" stroke="black" d="M52.15,-87.7C56.4,-79.64 61.56,-69.89 66.27,-60.98"/>
<polygon fill="black" stroke="black" points="69.38,-62.58 70.96,-52.1 63.19,-59.31 69.38,-62.58"/>
<g id="a_edge2&#45;headlabel"><a xlink:href="dir_000005_000002.html" target="_top" xlink:title="16">
<text text-anchor="middle" x="70.21" y="-64.59" font-family="Helvetica,sans-Serif" font-size="10.00">16</text>
</a>
</g>
</g>
</g>
</svg>
