<?xml version="1.0" encoding="UTF-8" standalone="no"?>
<!DOCTYPE svg PUBLIC "-//W3C//DTD SVG 1.1//EN"
 "http://www.w3.org/Graphics/SVG/1.1/DTD/svg11.dtd">
<!-- Generated by graphviz version 2.43.0 (0)
 -->
<!-- Title: directions Pages: 1 -->
<svg width="176pt" height="231pt"
 viewBox="0.00 0.00 176.00 231.00" xmlns="http://www.w3.org/2000/svg" xmlns:xlink="http://www.w3.org/1999/xlink">
<g id="graph0" class="graph" transform="scale(1 1) rotate(0) translate(4 227)">
<title>directions</title>
<polygon fill="white" stroke="transparent" points="-4,4 -4,-227 172,-227 172,4 -4,4"/>
<g id="clust1" class="cluster">
<title>clusterdir_3e9c4e5327a81a71a89d9f82f5b1fa78</title>
<g id="a_clust1"><a xlink:href="dir_3e9c4e5327a81a71a89d9f82f5b1fa78.html" target="_top" xlink:title="inner">
<polygon fill="#ddddee" stroke="black" points="8,-56 8,-215 106,-215 106,-56 8,-56"/>
<text text-anchor="middle" x="57" y="-203" font-family="Helvetica,sans-Serif" font-size="10.00">inner</text>
</a>
</g>
</g>
<g id="clust2" class="cluster">
<title>clusterdir_0458df1e67485cf5278eafdb508857b1</title>
<g id="a_clust2"><a xlink:href="dir_0458df1e67485cf5278eafdb508857b1.html" target="_top">
<polygon fill="#eeeeff" stroke="black" points="16,-64 16,-188 98,-188 98,-64 16,-64"/>
</a>
</g>
</g>
<!-- dir_0458df1e67485cf5278eafdb508857b1 -->
<g id="node1" class="node">
<title>dir_0458df1e67485cf5278eafdb508857b1</title>
<text text-anchor="middle" x="57" y="-159.5" font-family="Helvetica,sans-Serif" font-size="10.00">directions</text>
</g>
<!-- dir_4a4c056b2a41791dd9a772a89cef48a6 -->
<g id="node2" class="node">
<title>dir_4a4c056b2a41791dd9a772a89cef48a6</title>
<g id="a_node2"><a xlink:href="dir_4a4c056b2a41791dd9a772a89cef48a6.html" target="_top" xlink:title="decl">
<polygon fill="white" stroke="black" points="87,-108 33,-108 33,-72 87,-72 87,-108"/>
<text text-anchor="middle" x="60" y="-87.5" font-family="Helvetica,sans-Serif" font-size="10.00">decl</text>
</a>
</g>
</g>
<!-- dir_0458df1e67485cf5278eafdb508857b1&#45;&gt;dir_4a4c056b2a41791dd9a772a89cef48a6 -->
<g id="edge3" class="edge">
<title>dir_0458df1e67485cf5278eafdb508857b1&#45;&gt;dir_4a4c056b2a41791dd9a772a89cef48a6</title>
<path fill="none" stroke="black" d="M57.74,-143.7C58.07,-135.98 58.47,-126.71 58.84,-118.11"/>
<polygon fill="black" stroke="black" points="62.34,-118.25 59.27,-108.1 55.34,-117.95 62.34,-118.25"/>
<g id="a_edge3&#45;headlabel"><a xlink:href="dir_000008_000026.html" target="_top" xlink:title="4">
<text text-anchor="middle" x="65.02" y="-119.46" font-family="Helvetica,sans-Serif" font-size="10.00">4</text>
</a>
</g>
</g>
<!-- dir_82fd9c8b47b758db73e98a227e698837 -->
<g id="node3" class="node">
<title>dir_82fd9c8b47b758db73e98a227e698837</title>
<g id="a_node3"><a xlink:href="dir_82fd9c8b47b758db73e98a227e698837.html" target="_top" xlink:title="detail">
<polygon fill="none" stroke="black" points="168,-108 114,-108 114,-72 168,-72 168,-108"/>
<text text-anchor="middle" x="141" y="-87.5" font-family="Helvetica,sans-Serif" font-size="10.00">detail</text>
</a>
</g>
</g>
<!-- dir_0458df1e67485cf5278eafdb508857b1&#45;&gt;dir_82fd9c8b47b758db73e98a227e698837 -->
<g id="edge2" class="edge">
<title>dir_0458df1e67485cf5278eafdb508857b1&#45;&gt;dir_82fd9c8b47b758db73e98a227e698837</title>
<path fill="none" stroke="black" d="M77.76,-143.7C88.24,-134.97 101.11,-124.24 112.5,-114.75"/>
<polygon fill="black" stroke="black" points="115.03,-117.19 120.47,-108.1 110.55,-111.82 115.03,-117.19"/>
<g id="a_edge2&#45;headlabel"><a xlink:href="dir_000008_000009.html" target="_top" xlink:title="2">
<text text-anchor="middle" x="114.09" y="-119.18" font-family="Helvetica,sans-Serif" font-size="10.00">2</text>
</a>
</g>
</g>
<!-- dir_2bd50800112c18592c4fbe8af353e3db -->
<g id="node4" class="node">
<title>dir_2bd50800112c18592c4fbe8af353e3db</title>
<g id="a_node4"><a xlink:href="dir_2bd50800112c18592c4fbe8af353e3db.html" target="_top" xlink:title="util">
<polygon fill="none" stroke="black" points="129,-36 75,-36 75,0 129,0 129,-36"/>
<text text-anchor="middle" x="102" y="-15.5" font-family="Helvetica,sans-Serif" font-size="10.00">util</text>
</a>
</g>
</g>
<!-- dir_4a4c056b2a41791dd9a772a89cef48a6&#45;&gt;dir_2bd50800112c18592c4fbe8af353e3db -->
<g id="edge4" class="edge">
<title>dir_4a4c056b2a41791dd9a772a89cef48a6&#45;&gt;dir_2bd50800112c18592c4fbe8af353e3db</title>
<path fill="none" stroke="black" d="M70.38,-71.7C75.26,-63.56 81.19,-53.69 86.58,-44.7"/>
<polygon fill="black" stroke="black" points="89.59,-46.48 91.74,-36.1 83.59,-42.88 89.59,-46.48"/>
<g id="a_edge4&#45;headlabel"><a xlink:href="dir_000026_000010.html" target="_top" xlink:title="3">
<text text-anchor="middle" x="90.18" y="-48.52" font-family="Helvetica,sans-Serif" font-size="10.00">3</text>
</a>
</g>
</g>
<!-- dir_82fd9c8b47b758db73e98a227e698837&#45;&gt;dir_2bd50800112c18592c4fbe8af353e3db -->
<g id="edge1" class="edge">
<title>dir_82fd9c8b47b758db73e98a227e698837&#45;&gt;dir_2bd50800112c18592c4fbe8af353e3db</title>
<path fill="none" stroke="black" d="M131.36,-71.7C126.87,-63.64 121.44,-53.89 116.48,-44.98"/>
<polygon fill="black" stroke="black" points="119.45,-43.14 111.53,-36.1 113.34,-46.54 119.45,-43.14"/>
<g id="a_edge1&#45;headlabel"><a xlink:href="dir_000009_000010.html" target="_top" xlink:title="5">
<text text-anchor="middle" x="123.68" y="-42.39" font-family="Helvetica,sans-Serif" font-size="10.00">5</text>
</a>
</g>
</g>
</g>
</svg>
