<?xml version="1.0" encoding="UTF-8" standalone="no"?>
<!DOCTYPE svg PUBLIC "-//W3C//DTD SVG 1.1//EN"
 "http://www.w3.org/Graphics/SVG/1.1/DTD/svg11.dtd">
<!-- Generated by graphviz version 2.43.0 (0)
 -->
<!-- Title: detail Pages: 1 -->
<svg width="105pt" height="223pt"
 viewBox="0.00 0.00 105.00 223.00" xmlns="http://www.w3.org/2000/svg" xmlns:xlink="http://www.w3.org/1999/xlink">
<g id="graph0" class="graph" transform="scale(1 1) rotate(0) translate(4 219)">
<title>detail</title>
<polygon fill="white" stroke="transparent" points="-4,4 -4,-219 101,-219 101,4 -4,4"/>
<g id="clust1" class="cluster">
<title>clusterdir_3e9c4e5327a81a71a89d9f82f5b1fa78</title>
<g id="a_clust1"><a xlink:href="dir_3e9c4e5327a81a71a89d9f82f5b1fa78.html" target="_top" xlink:title="inner">
<polygon fill="#ddddee" stroke="black" points="8,-136 8,-207 78,-207 78,-136 8,-136"/>
<text text-anchor="middle" x="43" y="-195" font-family="Helvetica,sans-Serif" font-size="10.00">inner</text>
</a>
</g>
</g>
<!-- dir_82fd9c8b47b758db73e98a227e698837 -->
<g id="node1" class="node">
<title>dir_82fd9c8b47b758db73e98a227e698837</title>
<g id="a_node1"><a xlink:href="dir_82fd9c8b47b758db73e98a227e698837.html" target="_top" xlink:title="detail">
<polygon fill="#eeeeff" stroke="black" points="70,-180 16,-180 16,-144 70,-144 70,-180"/>
<text text-anchor="middle" x="43" y="-159.5" font-family="Helvetica,sans-Serif" font-size="10.00">detail</text>
</a>
</g>
</g>
<!-- dir_2bd50800112c18592c4fbe8af353e3db -->
<g id="node2" class="node">
<title>dir_2bd50800112c18592c4fbe8af353e3db</title>
<g id="a_node2"><a xlink:href="dir_2bd50800112c18592c4fbe8af353e3db.html" target="_top" xlink:title="util">
<polygon fill="none" stroke="black" points="69,-36 15,-36 15,0 69,0 69,-36"/>
<text text-anchor="middle" x="42" y="-15.5" font-family="Helvetica,sans-Serif" font-size="10.00">util</text>
</a>
</g>
</g>
<!-- dir_82fd9c8b47b758db73e98a227e698837&#45;&gt;dir_2bd50800112c18592c4fbe8af353e3db -->
<g id="edge1" class="edge">
<title>dir_82fd9c8b47b758db73e98a227e698837&#45;&gt;dir_2bd50800112c18592c4fbe8af353e3db</title>
<path fill="none" stroke="black" d="M39.35,-143.91C37.32,-133.57 35.02,-120.09 34,-108 32.66,-92.06 32.8,-87.96 34,-72 34.64,-63.52 35.84,-54.34 37.12,-46.04"/>
<polygon fill="black" stroke="black" points="40.58,-46.55 38.75,-36.11 33.68,-45.41 40.58,-46.55"/>
<g id="a_edge1&#45;headlabel"><a xlink:href="dir_000009_000010.html" target="_top" xlink:title="5">
<text text-anchor="middle" x="42.8" y="-48.05" font-family="Helvetica,sans-Serif" font-size="10.00">5</text>
</a>
</g>
</g>
<!-- dir_f541ccf84a3e496034f5ec9176c672a2 -->
<g id="node3" class="node">
<title>dir_f541ccf84a3e496034f5ec9176c672a2</title>
<g id="a_node3"><a xlink:href="dir_f541ccf84a3e496034f5ec9176c672a2.html" target="_top" xlink:title="decl">
<polygon fill="none" stroke="black" points="97,-108 43,-108 43,-72 97,-72 97,-108"/>
<text text-anchor="middle" x="70" y="-87.5" font-family="Helvetica,sans-Serif" font-size="10.00">decl</text>
</a>
</g>
</g>
<!-- dir_82fd9c8b47b758db73e98a227e698837&#45;&gt;dir_f541ccf84a3e496034f5ec9176c672a2 -->
<g id="edge2" class="edge">
<title>dir_82fd9c8b47b758db73e98a227e698837&#45;&gt;dir_f541ccf84a3e496034f5ec9176c672a2</title>
<path fill="none" stroke="black" d="M49.67,-143.7C52.71,-135.81 56.38,-126.3 59.76,-117.55"/>
<polygon fill="black" stroke="black" points="63.07,-118.69 63.4,-108.1 56.54,-116.17 63.07,-118.69"/>
<g id="a_edge2&#45;headlabel"><a xlink:href="dir_000009_000027.html" target="_top" xlink:title="1">
<text text-anchor="middle" x="64.42" y="-120.57" font-family="Helvetica,sans-Serif" font-size="10.00">1</text>
</a>
</g>
</g>
<!-- dir_f541ccf84a3e496034f5ec9176c672a2&#45;&gt;dir_2bd50800112c18592c4fbe8af353e3db -->
<g id="edge3" class="edge">
<title>dir_f541ccf84a3e496034f5ec9176c672a2&#45;&gt;dir_2bd50800112c18592c4fbe8af353e3db</title>
<path fill="none" stroke="black" d="M63.08,-71.7C59.93,-63.81 56.12,-54.3 52.62,-45.55"/>
<polygon fill="black" stroke="black" points="55.81,-44.09 48.84,-36.1 49.31,-46.69 55.81,-44.09"/>
<g id="a_edge3&#45;headlabel"><a xlink:href="dir_000027_000010.html" target="_top" xlink:title="12">
<text text-anchor="middle" x="59.78" y="-43.87" font-family="Helvetica,sans-Serif" font-size="10.00">12</text>
</a>
</g>
</g>
</g>
</svg>
