<?xml version="1.0" encoding="UTF-8" standalone="no"?>
<!DOCTYPE svg PUBLIC "-//W3C//DTD SVG 1.1//EN"
 "http://www.w3.org/Graphics/SVG/1.1/DTD/svg11.dtd">
<!-- Generated by graphviz version 2.43.0 (0)
 -->
<!-- Title: guarded&#45;aa&#45;pga.hpp Pages: 1 -->
<svg width="1145pt" height="330pt"
 viewBox="0.00 0.00 1144.50 330.00" xmlns="http://www.w3.org/2000/svg" xmlns:xlink="http://www.w3.org/1999/xlink">
<g id="graph0" class="graph" transform="scale(1 1) rotate(0) translate(4 326)">
<title>guarded&#45;aa&#45;pga.hpp</title>
<polygon fill="white" stroke="transparent" points="-4,4 -4,-326 1140.5,-326 1140.5,4 -4,4"/>
<!-- Node1 -->
<g id="node1" class="node">
<title>Node1</title>
<g id="a_node1"><a xlink:title=" ">
<polygon fill="#bfbfbf" stroke="black" points="510,-302.5 510,-321.5 625,-321.5 625,-302.5 510,-302.5"/>
<text text-anchor="middle" x="567.5" y="-309.5" font-family="Helvetica,sans-Serif" font-size="10.00">guarded&#45;aa&#45;pga.hpp</text>
</a>
</g>
</g>
<!-- Node2 -->
<g id="node2" class="node">
<title>Node2</title>
<g id="a_node2"><a xlink:href="panoc-stop-crit_8hpp.html" target="_top" xlink:title=" ">
<polygon fill="white" stroke="black" points="0,-168.5 0,-198.5 119,-198.5 119,-168.5 0,-168.5"/>
<text text-anchor="start" x="8" y="-186.5" font-family="Helvetica,sans-Serif" font-size="10.00">panoc&#45;alm/inner/decl</text>
<text text-anchor="middle" x="59.5" y="-175.5" font-family="Helvetica,sans-Serif" font-size="10.00">/panoc&#45;stop&#45;crit.hpp</text>
</a>
</g>
</g>
<!-- Node1&#45;&gt;Node2 -->
<g id="edge1" class="edge">
<title>Node1&#45;&gt;Node2</title>
<path fill="none" stroke="midnightblue" d="M509.85,-310.08C407.32,-307.61 197.96,-298.62 133.5,-266 107.44,-252.81 86.13,-226.33 73.18,-207.13"/>
<polygon fill="midnightblue" stroke="midnightblue" points="76.05,-205.12 67.67,-198.63 70.17,-208.92 76.05,-205.12"/>
</g>
<!-- Node4 -->
<g id="node4" class="node">
<title>Node4</title>
<g id="a_node4"><a xlink:title=" ">
<polygon fill="white" stroke="#bfbfbf" points="103,-112.5 103,-131.5 168,-131.5 168,-112.5 103,-112.5"/>
<text text-anchor="middle" x="135.5" y="-119.5" font-family="Helvetica,sans-Serif" font-size="10.00">stdexcept</text>
</a>
</g>
</g>
<!-- Node1&#45;&gt;Node4 -->
<g id="edge35" class="edge">
<title>Node1&#45;&gt;Node4</title>
<path fill="none" stroke="midnightblue" d="M509.72,-306.64C430.86,-300.04 294.1,-286.13 248.5,-266 205.76,-247.14 195.37,-236.5 167.5,-199 154.46,-181.45 145.59,-157.78 140.55,-141.55"/>
<polygon fill="midnightblue" stroke="midnightblue" points="143.83,-140.29 137.68,-131.67 137.11,-142.25 143.83,-140.29"/>
</g>
<!-- Node5 -->
<g id="node5" class="node">
<title>Node5</title>
<g id="a_node5"><a xlink:href="anderson-helpers_8hpp.html" target="_top" xlink:title=" ">
<polygon fill="white" stroke="black" points="550,-235.5 550,-265.5 677,-265.5 677,-235.5 550,-235.5"/>
<text text-anchor="start" x="558" y="-253.5" font-family="Helvetica,sans-Serif" font-size="10.00">panoc&#45;alm/inner/detail</text>
<text text-anchor="middle" x="613.5" y="-242.5" font-family="Helvetica,sans-Serif" font-size="10.00">/anderson&#45;helpers.hpp</text>
</a>
</g>
</g>
<!-- Node1&#45;&gt;Node5 -->
<g id="edge4" class="edge">
<title>Node1&#45;&gt;Node5</title>
<path fill="none" stroke="midnightblue" d="M574.09,-302.48C579.91,-294.94 588.66,-283.63 596.44,-273.57"/>
<polygon fill="midnightblue" stroke="midnightblue" points="599.31,-275.58 602.66,-265.52 593.77,-271.29 599.31,-275.58"/>
</g>
<!-- Node13 -->
<g id="node13" class="node">
<title>Node13</title>
<g id="a_node13"><a xlink:href="panoc-helpers_8hpp.html" target="_top" xlink:title=" ">
<polygon fill="white" stroke="black" points="258,-235.5 258,-265.5 385,-265.5 385,-235.5 258,-235.5"/>
<text text-anchor="start" x="266" y="-253.5" font-family="Helvetica,sans-Serif" font-size="10.00">panoc&#45;alm/inner/detail</text>
<text text-anchor="middle" x="321.5" y="-242.5" font-family="Helvetica,sans-Serif" font-size="10.00">/panoc&#45;helpers.hpp</text>
</a>
</g>
</g>
<!-- Node1&#45;&gt;Node13 -->
<g id="edge13" class="edge">
<title>Node1&#45;&gt;Node13</title>
<path fill="none" stroke="midnightblue" d="M532.25,-302.48C495.12,-293.49 435.73,-279.13 389.44,-267.93"/>
<polygon fill="midnightblue" stroke="midnightblue" points="390.02,-264.47 379.48,-265.52 388.37,-271.28 390.02,-264.47"/>
</g>
<!-- Node14 -->
<g id="node14" class="node">
<title>Node14</title>
<g id="a_node14"><a xlink:href="atomic__stop__signal_8hpp.html" target="_top" xlink:title=" ">
<polygon fill="white" stroke="black" points="383.5,-168.5 383.5,-198.5 507.5,-198.5 507.5,-168.5 383.5,-168.5"/>
<text text-anchor="start" x="391.5" y="-186.5" font-family="Helvetica,sans-Serif" font-size="10.00">panoc&#45;alm/util/atomic</text>
<text text-anchor="middle" x="445.5" y="-175.5" font-family="Helvetica,sans-Serif" font-size="10.00">_stop_signal.hpp</text>
</a>
</g>
</g>
<!-- Node1&#45;&gt;Node14 -->
<g id="edge26" class="edge">
<title>Node1&#45;&gt;Node14</title>
<path fill="none" stroke="midnightblue" d="M550.2,-302.37C535.31,-294.36 513.86,-281.38 498.5,-266 481.29,-248.77 466.65,-225.07 457.14,-207.67"/>
<polygon fill="midnightblue" stroke="midnightblue" points="460.18,-205.93 452.4,-198.73 453.99,-209.21 460.18,-205.93"/>
</g>
<!-- Node21 -->
<g id="node21" class="node">
<title>Node21</title>
<g id="a_node21"><a xlink:href="solverstatus_8hpp.html" target="_top" xlink:title=" ">
<polygon fill="white" stroke="black" points="526,-174 526,-193 697,-193 697,-174 526,-174"/>
<text text-anchor="middle" x="611.5" y="-181" font-family="Helvetica,sans-Serif" font-size="10.00">panoc&#45;alm/util/solverstatus.hpp</text>
</a>
</g>
</g>
<!-- Node1&#45;&gt;Node21 -->
<g id="edge29" class="edge">
<title>Node1&#45;&gt;Node21</title>
<path fill="none" stroke="midnightblue" d="M548.2,-302.48C534.07,-295.08 515.94,-282.89 507.5,-266 501.34,-253.68 500.19,-246.68 507.5,-235 519.5,-215.83 541.08,-203.76 561.48,-196.24"/>
<polygon fill="midnightblue" stroke="midnightblue" points="562.7,-199.53 571.04,-193 560.45,-192.9 562.7,-199.53"/>
</g>
<!-- Node23 -->
<g id="node23" class="node">
<title>Node23</title>
<g id="a_node23"><a xlink:href="lipschitz_8hpp.html" target="_top" xlink:title=" ">
<polygon fill="white" stroke="black" points="715.5,-174 715.5,-193 867.5,-193 867.5,-174 715.5,-174"/>
<text text-anchor="middle" x="791.5" y="-181" font-family="Helvetica,sans-Serif" font-size="10.00">panoc&#45;alm/util/lipschitz.hpp</text>
</a>
</g>
</g>
<!-- Node1&#45;&gt;Node23 -->
<g id="edge27" class="edge">
<title>Node1&#45;&gt;Node23</title>
<path fill="none" stroke="midnightblue" d="M559.27,-302.07C546.2,-286.81 523.82,-255.37 540.5,-235 546.58,-227.58 658.6,-207.2 730.91,-194.72"/>
<polygon fill="midnightblue" stroke="midnightblue" points="731.57,-198.16 740.84,-193.01 730.39,-191.26 731.57,-198.16"/>
</g>
<!-- Node24 -->
<g id="node24" class="node">
<title>Node24</title>
<g id="a_node24"><a xlink:title=" ">
<polygon fill="white" stroke="#bfbfbf" points="695.5,-241 695.5,-260 747.5,-260 747.5,-241 695.5,-241"/>
<text text-anchor="middle" x="721.5" y="-248" font-family="Helvetica,sans-Serif" font-size="10.00">cassert</text>
</a>
</g>
</g>
<!-- Node1&#45;&gt;Node24 -->
<g id="edge30" class="edge">
<title>Node1&#45;&gt;Node24</title>
<path fill="none" stroke="midnightblue" d="M590.17,-302.5C613.96,-293.54 652.43,-278.96 685.5,-266 687.14,-265.36 688.82,-264.7 690.51,-264.02"/>
<polygon fill="midnightblue" stroke="midnightblue" points="692.22,-267.11 700.21,-260.15 689.62,-260.61 692.22,-267.11"/>
</g>
<!-- Node25 -->
<g id="node25" class="node">
<title>Node25</title>
<g id="a_node25"><a xlink:title=" ">
<polygon fill="white" stroke="#bfbfbf" points="765.5,-241 765.5,-260 815.5,-260 815.5,-241 765.5,-241"/>
<text text-anchor="middle" x="790.5" y="-248" font-family="Helvetica,sans-Serif" font-size="10.00">chrono</text>
</a>
</g>
</g>
<!-- Node1&#45;&gt;Node25 -->
<g id="edge31" class="edge">
<title>Node1&#45;&gt;Node25</title>
<path fill="none" stroke="midnightblue" d="M612.78,-302.47C651.44,-294.65 708.29,-281.89 756.5,-266 758.42,-265.37 760.38,-264.67 762.35,-263.94"/>
<polygon fill="midnightblue" stroke="midnightblue" points="764.04,-267.03 772.01,-260.06 761.43,-260.53 764.04,-267.03"/>
</g>
<!-- Node26 -->
<g id="node26" class="node">
<title>Node26</title>
<g id="a_node26"><a xlink:title=" ">
<polygon fill="white" stroke="#bfbfbf" points="834,-241 834,-260 881,-260 881,-241 834,-241"/>
<text text-anchor="middle" x="857.5" y="-248" font-family="Helvetica,sans-Serif" font-size="10.00">cmath</text>
</a>
</g>
</g>
<!-- Node1&#45;&gt;Node26 -->
<g id="edge32" class="edge">
<title>Node1&#45;&gt;Node26</title>
<path fill="none" stroke="midnightblue" d="M625.07,-304.94C677.77,-298.45 757.51,-286.26 824.5,-266 826.43,-265.42 828.4,-264.75 830.37,-264.03"/>
<polygon fill="midnightblue" stroke="midnightblue" points="832.03,-267.13 839.99,-260.13 829.4,-260.64 832.03,-267.13"/>
</g>
<!-- Node27 -->
<g id="node27" class="node">
<title>Node27</title>
<g id="a_node27"><a xlink:title=" ">
<polygon fill="white" stroke="#bfbfbf" points="899.5,-241 899.5,-260 955.5,-260 955.5,-241 899.5,-241"/>
<text text-anchor="middle" x="927.5" y="-248" font-family="Helvetica,sans-Serif" font-size="10.00">iomanip</text>
</a>
</g>
</g>
<!-- Node1&#45;&gt;Node27 -->
<g id="edge33" class="edge">
<title>Node1&#45;&gt;Node27</title>
<path fill="none" stroke="midnightblue" d="M625.19,-307.07C690.43,-301.69 799.44,-289.83 890.5,-266 893.16,-265.3 895.89,-264.47 898.6,-263.56"/>
<polygon fill="midnightblue" stroke="midnightblue" points="900.01,-266.78 908.2,-260.05 897.61,-260.2 900.01,-266.78"/>
</g>
<!-- Node28 -->
<g id="node28" class="node">
<title>Node28</title>
<g id="a_node28"><a xlink:title=" ">
<polygon fill="white" stroke="#bfbfbf" points="973.5,-241 973.5,-260 1033.5,-260 1033.5,-241 973.5,-241"/>
<text text-anchor="middle" x="1003.5" y="-248" font-family="Helvetica,sans-Serif" font-size="10.00">iostream</text>
</a>
</g>
</g>
<!-- Node1&#45;&gt;Node28 -->
<g id="edge34" class="edge">
<title>Node1&#45;&gt;Node28</title>
<path fill="none" stroke="midnightblue" d="M625.12,-308.85C703.05,-304.96 845.93,-294.32 964.5,-266 967.49,-265.28 970.57,-264.41 973.63,-263.44"/>
<polygon fill="midnightblue" stroke="midnightblue" points="974.85,-266.72 983.15,-260.13 972.55,-260.11 974.85,-266.72"/>
</g>
<!-- Node3 -->
<g id="node3" class="node">
<title>Node3</title>
<g id="a_node3"><a xlink:title=" ">
<polygon fill="white" stroke="#bfbfbf" points="28,-112.5 28,-131.5 85,-131.5 85,-112.5 28,-112.5"/>
<text text-anchor="middle" x="56.5" y="-119.5" font-family="Helvetica,sans-Serif" font-size="10.00">ostream</text>
</a>
</g>
</g>
<!-- Node2&#45;&gt;Node3 -->
<g id="edge2" class="edge">
<title>Node2&#45;&gt;Node3</title>
<path fill="none" stroke="midnightblue" d="M58.79,-168.4C58.39,-160.47 57.88,-150.46 57.45,-141.86"/>
<polygon fill="midnightblue" stroke="midnightblue" points="60.94,-141.47 56.94,-131.66 53.94,-141.82 60.94,-141.47"/>
</g>
<!-- Node2&#45;&gt;Node4 -->
<g id="edge3" class="edge">
<title>Node2&#45;&gt;Node4</title>
<path fill="none" stroke="midnightblue" d="M77.51,-168.4C89.24,-159.22 104.52,-147.26 116.44,-137.92"/>
<polygon fill="midnightblue" stroke="midnightblue" points="118.72,-140.58 124.44,-131.66 114.41,-135.07 118.72,-140.58"/>
</g>
<!-- Node6 -->
<g id="node6" class="node">
<title>Node6</title>
<g id="a_node6"><a xlink:href="limited-memory-qr_8hpp.html" target="_top" xlink:title=" ">
<polygon fill="white" stroke="black" points="886,-168.5 886,-198.5 1019,-198.5 1019,-168.5 886,-168.5"/>
<text text-anchor="start" x="894" y="-186.5" font-family="Helvetica,sans-Serif" font-size="10.00">panoc&#45;alm/inner/detail</text>
<text text-anchor="middle" x="952.5" y="-175.5" font-family="Helvetica,sans-Serif" font-size="10.00">/limited&#45;memory&#45;qr.hpp</text>
</a>
</g>
</g>
<!-- Node5&#45;&gt;Node6 -->
<g id="edge5" class="edge">
<title>Node5&#45;&gt;Node6</title>
<path fill="none" stroke="midnightblue" d="M677.19,-236.81C680.34,-236.2 683.46,-235.59 686.5,-235 767.82,-219.22 790.45,-215.33 875.89,-199.11"/>
<polygon fill="midnightblue" stroke="midnightblue" points="876.6,-202.54 885.77,-197.24 875.3,-195.66 876.6,-202.54"/>
</g>
<!-- Node7 -->
<g id="node7" class="node">
<title>Node7</title>
<g id="a_node7"><a xlink:title=" ">
<polygon fill="white" stroke="#bfbfbf" points="1060.5,-112.5 1060.5,-131.5 1136.5,-131.5 1136.5,-112.5 1060.5,-112.5"/>
<text text-anchor="middle" x="1098.5" y="-119.5" font-family="Helvetica,sans-Serif" font-size="10.00">Eigen/Jacobi</text>
</a>
</g>
</g>
<!-- Node6&#45;&gt;Node7 -->
<g id="edge6" class="edge">
<title>Node6&#45;&gt;Node7</title>
<path fill="none" stroke="midnightblue" d="M987.1,-168.4C1011.6,-158.42 1044.16,-145.15 1067.75,-135.53"/>
<polygon fill="midnightblue" stroke="midnightblue" points="1069.32,-138.67 1077.26,-131.66 1066.67,-132.19 1069.32,-138.67"/>
</g>
<!-- Node8 -->
<g id="node8" class="node">
<title>Node8</title>
<g id="a_node8"><a xlink:title=" ">
<polygon fill="white" stroke="#bfbfbf" points="865,-56.5 865,-75.5 918,-75.5 918,-56.5 865,-56.5"/>
<text text-anchor="middle" x="891.5" y="-63.5" font-family="Helvetica,sans-Serif" font-size="10.00">cstddef</text>
</a>
</g>
</g>
<!-- Node6&#45;&gt;Node8 -->
<g id="edge7" class="edge">
<title>Node6&#45;&gt;Node8</title>
<path fill="none" stroke="midnightblue" d="M916.51,-168.35C900.95,-160.22 884.31,-148.32 875.5,-132 867.5,-117.19 873.68,-98.33 880.55,-84.74"/>
<polygon fill="midnightblue" stroke="midnightblue" points="883.66,-86.35 885.48,-75.92 877.54,-82.94 883.66,-86.35"/>
</g>
<!-- Node9 -->
<g id="node9" class="node">
<title>Node9</title>
<g id="a_node9"><a xlink:href="ringbuffer_8hpp.html" target="_top" xlink:title=" ">
<polygon fill="white" stroke="black" points="884.5,-112.5 884.5,-131.5 1042.5,-131.5 1042.5,-112.5 884.5,-112.5"/>
<text text-anchor="middle" x="963.5" y="-119.5" font-family="Helvetica,sans-Serif" font-size="10.00">panoc&#45;alm/util/ringbuffer.hpp</text>
</a>
</g>
</g>
<!-- Node6&#45;&gt;Node9 -->
<g id="edge8" class="edge">
<title>Node6&#45;&gt;Node9</title>
<path fill="none" stroke="midnightblue" d="M955.11,-168.4C956.59,-160.38 958.47,-150.23 960.07,-141.57"/>
<polygon fill="midnightblue" stroke="midnightblue" points="963.52,-142.13 961.9,-131.66 956.64,-140.85 963.52,-142.13"/>
</g>
<!-- Node11 -->
<g id="node11" class="node">
<title>Node11</title>
<g id="a_node11"><a xlink:href="vec_8hpp.html" target="_top" xlink:title=" ">
<polygon fill="white" stroke="black" points="716.5,-56.5 716.5,-75.5 844.5,-75.5 844.5,-56.5 716.5,-56.5"/>
<text text-anchor="middle" x="780.5" y="-63.5" font-family="Helvetica,sans-Serif" font-size="10.00">panoc&#45;alm/util/vec.hpp</text>
</a>
</g>
</g>
<!-- Node6&#45;&gt;Node11 -->
<g id="edge11" class="edge">
<title>Node6&#45;&gt;Node11</title>
<path fill="none" stroke="midnightblue" d="M927.15,-168.38C910.02,-158.61 887.06,-145.06 867.5,-132 843.33,-115.86 816.73,-95.59 799.38,-82.02"/>
<polygon fill="midnightblue" stroke="midnightblue" points="801.24,-79.03 791.22,-75.59 796.91,-84.52 801.24,-79.03"/>
</g>
<!-- Node9&#45;&gt;Node8 -->
<g id="edge9" class="edge">
<title>Node9&#45;&gt;Node8</title>
<path fill="none" stroke="midnightblue" d="M951.93,-112.32C941.08,-104.18 924.62,-91.84 911.62,-82.09"/>
<polygon fill="midnightblue" stroke="midnightblue" points="913.38,-79.03 903.28,-75.83 909.18,-84.63 913.38,-79.03"/>
</g>
<!-- Node10 -->
<g id="node10" class="node">
<title>Node10</title>
<g id="a_node10"><a xlink:title=" ">
<polygon fill="white" stroke="#bfbfbf" points="937,-56.5 937,-75.5 990,-75.5 990,-56.5 937,-56.5"/>
<text text-anchor="middle" x="963.5" y="-63.5" font-family="Helvetica,sans-Serif" font-size="10.00">iterator</text>
</a>
</g>
</g>
<!-- Node9&#45;&gt;Node10 -->
<g id="edge10" class="edge">
<title>Node9&#45;&gt;Node10</title>
<path fill="none" stroke="midnightblue" d="M963.5,-112.08C963.5,-105.01 963.5,-94.86 963.5,-85.99"/>
<polygon fill="midnightblue" stroke="midnightblue" points="967,-85.75 963.5,-75.75 960,-85.75 967,-85.75"/>
</g>
<!-- Node12 -->
<g id="node12" class="node">
<title>Node12</title>
<g id="a_node12"><a xlink:title=" ">
<polygon fill="white" stroke="#bfbfbf" points="746,-0.5 746,-19.5 815,-19.5 815,-0.5 746,-0.5"/>
<text text-anchor="middle" x="780.5" y="-7.5" font-family="Helvetica,sans-Serif" font-size="10.00">Eigen/Core</text>
</a>
</g>
</g>
<!-- Node11&#45;&gt;Node12 -->
<g id="edge12" class="edge">
<title>Node11&#45;&gt;Node12</title>
<path fill="none" stroke="midnightblue" d="M780.5,-56.08C780.5,-49.01 780.5,-38.86 780.5,-29.99"/>
<polygon fill="midnightblue" stroke="midnightblue" points="784,-29.75 780.5,-19.75 777,-29.75 784,-29.75"/>
</g>
<!-- Node13&#45;&gt;Node2 -->
<g id="edge14" class="edge">
<title>Node13&#45;&gt;Node2</title>
<path fill="none" stroke="midnightblue" d="M264.97,-235.48C224.22,-225.37 169.07,-211.68 126.17,-201.04"/>
<polygon fill="midnightblue" stroke="midnightblue" points="126.93,-197.62 116.38,-198.61 125.24,-204.42 126.93,-197.62"/>
</g>
<!-- Node13&#45;&gt;Node4 -->
<g id="edge25" class="edge">
<title>Node13&#45;&gt;Node4</title>
<path fill="none" stroke="midnightblue" d="M277.22,-235.48C254.29,-227 226.55,-214.76 204.5,-199 181.26,-182.39 160.07,-156.78 147.47,-139.95"/>
<polygon fill="midnightblue" stroke="midnightblue" points="150.12,-137.64 141.4,-131.62 144.46,-141.77 150.12,-137.64"/>
</g>
<!-- Node13&#45;&gt;Node14 -->
<g id="edge15" class="edge">
<title>Node13&#45;&gt;Node14</title>
<path fill="none" stroke="midnightblue" d="M348.41,-235.4C366.36,-225.98 390.17,-213.5 409.72,-203.26"/>
<polygon fill="midnightblue" stroke="midnightblue" points="411.41,-206.32 418.65,-198.58 408.16,-200.12 411.41,-206.32"/>
</g>
<!-- Node16 -->
<g id="node16" class="node">
<title>Node16</title>
<g id="a_node16"><a xlink:href="include_2panoc-alm_2util_2problem_8hpp.html" target="_top" xlink:title=" ">
<polygon fill="white" stroke="black" points="213.5,-174 213.5,-193 365.5,-193 365.5,-174 213.5,-174"/>
<text text-anchor="middle" x="289.5" y="-181" font-family="Helvetica,sans-Serif" font-size="10.00">panoc&#45;alm/util/problem.hpp</text>
</a>
</g>
</g>
<!-- Node13&#45;&gt;Node16 -->
<g id="edge17" class="edge">
<title>Node13&#45;&gt;Node16</title>
<path fill="none" stroke="midnightblue" d="M314.56,-235.4C309.76,-225.66 303.36,-212.65 298.22,-202.21"/>
<polygon fill="midnightblue" stroke="midnightblue" points="301.34,-200.62 293.78,-193.19 295.06,-203.71 301.34,-200.62"/>
</g>
<!-- Node13&#45;&gt;Node21 -->
<g id="edge23" class="edge">
<title>Node13&#45;&gt;Node21</title>
<path fill="none" stroke="midnightblue" d="M384.07,-235.48C437.85,-223.42 514.3,-206.29 563.4,-195.28"/>
<polygon fill="midnightblue" stroke="midnightblue" points="564.46,-198.63 573.45,-193.03 562.93,-191.8 564.46,-198.63"/>
</g>
<!-- Node15 -->
<g id="node15" class="node">
<title>Node15</title>
<g id="a_node15"><a xlink:title=" ">
<polygon fill="white" stroke="#bfbfbf" points="508.5,-112.5 508.5,-131.5 558.5,-131.5 558.5,-112.5 508.5,-112.5"/>
<text text-anchor="middle" x="533.5" y="-119.5" font-family="Helvetica,sans-Serif" font-size="10.00">atomic</text>
</a>
</g>
</g>
<!-- Node14&#45;&gt;Node15 -->
<g id="edge16" class="edge">
<title>Node14&#45;&gt;Node15</title>
<path fill="none" stroke="midnightblue" d="M466.35,-168.4C480.2,-159.04 498.31,-146.79 512.24,-137.38"/>
<polygon fill="midnightblue" stroke="midnightblue" points="514.37,-140.16 520.7,-131.66 510.45,-134.36 514.37,-140.16"/>
</g>
<!-- Node17 -->
<g id="node17" class="node">
<title>Node17</title>
<g id="a_node17"><a xlink:href="box_8hpp.html" target="_top" xlink:title=" ">
<polygon fill="white" stroke="black" points="186.5,-112.5 186.5,-131.5 242.5,-131.5 242.5,-112.5 186.5,-112.5"/>
<text text-anchor="middle" x="214.5" y="-119.5" font-family="Helvetica,sans-Serif" font-size="10.00">box.hpp</text>
</a>
</g>
</g>
<!-- Node16&#45;&gt;Node17 -->
<g id="edge18" class="edge">
<title>Node16&#45;&gt;Node17</title>
<path fill="none" stroke="midnightblue" d="M278.75,-173.98C266.95,-164.61 247.76,-149.38 233.42,-138.01"/>
<polygon fill="midnightblue" stroke="midnightblue" points="235.24,-134.98 225.23,-131.51 230.88,-140.47 235.24,-134.98"/>
</g>
<!-- Node18 -->
<g id="node18" class="node">
<title>Node18</title>
<g id="a_node18"><a xlink:title=" ">
<polygon fill="white" stroke="#bfbfbf" points="261,-112.5 261,-131.5 326,-131.5 326,-112.5 261,-112.5"/>
<text text-anchor="middle" x="293.5" y="-119.5" font-family="Helvetica,sans-Serif" font-size="10.00">functional</text>
</a>
</g>
</g>
<!-- Node16&#45;&gt;Node18 -->
<g id="edge20" class="edge">
<title>Node16&#45;&gt;Node18</title>
<path fill="none" stroke="midnightblue" d="M290.07,-173.98C290.64,-165.58 291.52,-152.48 292.25,-141.66"/>
<polygon fill="midnightblue" stroke="midnightblue" points="295.75,-141.72 292.93,-131.51 288.76,-141.25 295.75,-141.72"/>
</g>
<!-- Node19 -->
<g id="node19" class="node">
<title>Node19</title>
<g id="a_node19"><a xlink:title=" ">
<polygon fill="white" stroke="#bfbfbf" points="344.5,-112.5 344.5,-131.5 402.5,-131.5 402.5,-112.5 344.5,-112.5"/>
<text text-anchor="middle" x="373.5" y="-119.5" font-family="Helvetica,sans-Serif" font-size="10.00">memory</text>
</a>
</g>
</g>
<!-- Node16&#45;&gt;Node19 -->
<g id="edge21" class="edge">
<title>Node16&#45;&gt;Node19</title>
<path fill="none" stroke="midnightblue" d="M301.54,-173.98C315.01,-164.43 337.07,-148.81 353.22,-137.37"/>
<polygon fill="midnightblue" stroke="midnightblue" points="355.35,-140.15 361.49,-131.51 351.3,-134.43 355.35,-140.15"/>
</g>
<!-- Node20 -->
<g id="node20" class="node">
<title>Node20</title>
<g id="a_node20"><a xlink:title=" ">
<polygon fill="white" stroke="#bfbfbf" points="421,-112.5 421,-131.5 490,-131.5 490,-112.5 421,-112.5"/>
<text text-anchor="middle" x="455.5" y="-119.5" font-family="Helvetica,sans-Serif" font-size="10.00">type_traits</text>
</a>
</g>
</g>
<!-- Node16&#45;&gt;Node20 -->
<g id="edge22" class="edge">
<title>Node16&#45;&gt;Node20</title>
<path fill="none" stroke="midnightblue" d="M313.28,-173.98C341.88,-163.72 390.05,-146.46 422.3,-134.9"/>
<polygon fill="midnightblue" stroke="midnightblue" points="423.53,-138.18 431.76,-131.51 421.17,-131.59 423.53,-138.18"/>
</g>
<!-- Node17&#45;&gt;Node11 -->
<g id="edge19" class="edge">
<title>Node17&#45;&gt;Node11</title>
<path fill="none" stroke="midnightblue" d="M242.69,-113.67C245.65,-113.04 248.63,-112.47 251.5,-112 412.23,-85.78 603.07,-74.31 705.91,-69.73"/>
<polygon fill="midnightblue" stroke="midnightblue" points="706.35,-73.21 716.19,-69.28 706.04,-66.22 706.35,-73.21"/>
</g>
<!-- Node22 -->
<g id="node22" class="node">
<title>Node22</title>
<g id="a_node22"><a xlink:title=" ">
<polygon fill="white" stroke="#bfbfbf" points="587.5,-112.5 587.5,-131.5 635.5,-131.5 635.5,-112.5 587.5,-112.5"/>
<text text-anchor="middle" x="611.5" y="-119.5" font-family="Helvetica,sans-Serif" font-size="10.00">iosfwd</text>
</a>
</g>
</g>
<!-- Node21&#45;&gt;Node22 -->
<g id="edge24" class="edge">
<title>Node21&#45;&gt;Node22</title>
<path fill="none" stroke="midnightblue" d="M611.5,-173.98C611.5,-165.58 611.5,-152.48 611.5,-141.66"/>
<polygon fill="midnightblue" stroke="midnightblue" points="615,-141.51 611.5,-131.51 608,-141.51 615,-141.51"/>
</g>
<!-- Node23&#45;&gt;Node11 -->
<g id="edge28" class="edge">
<title>Node23&#45;&gt;Node11</title>
<path fill="none" stroke="midnightblue" d="M790.67,-173.82C788.91,-155.26 784.72,-111.34 782.31,-85.97"/>
<polygon fill="midnightblue" stroke="midnightblue" points="785.77,-85.41 781.34,-75.78 778.8,-86.07 785.77,-85.41"/>
</g>
</g>
</svg>
