<?xml version="1.0" encoding="UTF-8" standalone="no"?>
<!DOCTYPE svg PUBLIC "-//W3C//DTD SVG 1.1//EN"
 "http://www.w3.org/Graphics/SVG/1.1/DTD/svg11.dtd">
<!-- Generated by graphviz version 2.43.0 (0)
 -->
<!-- Title: Graphical Class Hierarchy Pages: 1 -->
<svg width="224pt" height="104pt"
 viewBox="0.00 0.00 224.00 104.00" xmlns="http://www.w3.org/2000/svg" xmlns:xlink="http://www.w3.org/1999/xlink">
<g id="graph0" class="graph" transform="scale(1 1) rotate(0) translate(4 100)">
<title>Graphical Class Hierarchy</title>
<polygon fill="white" stroke="transparent" points="-4,4 -4,-100 220,-100 220,4 -4,4"/>
<!-- Node0 -->
<g id="node1" class="node">
<title>Node0</title>
<g id="a_node1"><a xlink:href="structpa_1_1Problem.html" target="_top" xlink:title="Problem description for minimization problems.">
<polygon fill="white" stroke="black" points="0,-38.5 0,-57.5 57,-57.5 57,-38.5 0,-38.5"/>
<text text-anchor="middle" x="28.5" y="-45.5" font-family="Helvetica,sans-Serif" font-size="10.00">Problem</text>
</a>
</g>
</g>
<!-- Node1 -->
<g id="node2" class="node">
<title>Node1</title>
<g id="a_node2"><a xlink:href="classpa_1_1ProblemOnlyD.html" target="_top" xlink:title="Moves the state constraints in the set C to the set D, resulting in an unconstraint inner problem.">
<polygon fill="white" stroke="black" points="111,-76.5 111,-95.5 198,-95.5 198,-76.5 111,-76.5"/>
<text text-anchor="middle" x="154.5" y="-83.5" font-family="Helvetica,sans-Serif" font-size="10.00">ProblemOnlyD</text>
</a>
</g>
</g>
<!-- Node0&#45;&gt;Node1 -->
<g id="edge1" class="edge">
<title>Node0&#45;&gt;Node1</title>
<path fill="none" stroke="midnightblue" d="M66.97,-59.48C84.59,-64.88 105.35,-71.25 122.12,-76.38"/>
<polygon fill="midnightblue" stroke="midnightblue" points="67.61,-56.02 57.02,-56.43 65.56,-62.71 67.61,-56.02"/>
</g>
<!-- Node2 -->
<g id="node3" class="node">
<title>Node2</title>
<g id="a_node3"><a xlink:href="classpa_1_1ProblemWithCounters.html" target="_top" xlink:title=" ">
<polygon fill="white" stroke="black" points="93,-38.5 93,-57.5 216,-57.5 216,-38.5 93,-38.5"/>
<text text-anchor="middle" x="154.5" y="-45.5" font-family="Helvetica,sans-Serif" font-size="10.00">ProblemWithCounters</text>
</a>
</g>
</g>
<!-- Node0&#45;&gt;Node2 -->
<g id="edge2" class="edge">
<title>Node0&#45;&gt;Node2</title>
<path fill="none" stroke="midnightblue" d="M67.23,-48C75.33,-48 84.09,-48 92.81,-48"/>
<polygon fill="midnightblue" stroke="midnightblue" points="67.02,-44.5 57.02,-48 67.02,-51.5 67.02,-44.5"/>
</g>
<!-- Node3 -->
<g id="node4" class="node">
<title>Node3</title>
<g id="a_node4"><a xlink:href="classpa_1_1ProblemWithParam.html" target="_top" xlink:title=" ">
<polygon fill="white" stroke="black" points="99.5,-0.5 99.5,-19.5 209.5,-19.5 209.5,-0.5 99.5,-0.5"/>
<text text-anchor="middle" x="154.5" y="-7.5" font-family="Helvetica,sans-Serif" font-size="10.00">ProblemWithParam</text>
</a>
</g>
</g>
<!-- Node0&#45;&gt;Node3 -->
<g id="edge3" class="edge">
<title>Node0&#45;&gt;Node3</title>
<path fill="none" stroke="midnightblue" d="M66.97,-36.52C84.59,-31.12 105.35,-24.75 122.12,-19.62"/>
<polygon fill="midnightblue" stroke="midnightblue" points="65.56,-33.29 57.02,-39.57 67.61,-39.98 65.56,-33.29"/>
</g>
</g>
</svg>
