<?xml version="1.0" encoding="UTF-8" standalone="no"?>
<!DOCTYPE svg PUBLIC "-//W3C//DTD SVG 1.1//EN"
 "http://www.w3.org/Graphics/SVG/1.1/DTD/svg11.dtd">
<!-- Generated by graphviz version 2.43.0 (0)
 -->
<!-- Title: lbfgs&#45;stepsize.hpp Pages: 1 -->
<svg width="709pt" height="308pt"
 viewBox="0.00 0.00 709.01 308.00" xmlns="http://www.w3.org/2000/svg" xmlns:xlink="http://www.w3.org/1999/xlink">
<g id="graph0" class="graph" transform="scale(1 1) rotate(0) translate(4 304)">
<title>lbfgs&#45;stepsize.hpp</title>
<polygon fill="white" stroke="transparent" points="-4,4 -4,-304 705.01,-304 705.01,4 -4,4"/>
<!-- Node1 -->
<g id="node1" class="node">
<title>Node1</title>
<g id="a_node1"><a xlink:title=" ">
<polygon fill="#bfbfbf" stroke="black" points="3.57,-280.5 3.57,-299.5 109.57,-299.5 109.57,-280.5 3.57,-280.5"/>
<text text-anchor="middle" x="56.57" y="-287.5" font-family="Helvetica,sans-Serif" font-size="10.00">lbfgs&#45;stepsize.hpp</text>
</a>
</g>
</g>
<!-- Node2 -->
<g id="node2" class="node">
<title>Node2</title>
<g id="a_node2"><a xlink:href="decl_2panoc_8hpp.html" target="_top" xlink:title=" ">
<polygon fill="white" stroke="black" points="122.07,-224.5 122.07,-243.5 189.07,-243.5 189.07,-224.5 122.07,-224.5"/>
<text text-anchor="middle" x="155.57" y="-231.5" font-family="Helvetica,sans-Serif" font-size="10.00">panoc.hpp</text>
</a>
</g>
</g>
<!-- Node1&#45;&gt;Node2 -->
<g id="edge1" class="edge">
<title>Node1&#45;&gt;Node2</title>
<path fill="none" stroke="midnightblue" d="M81.41,-275.45C99.68,-265.48 123.98,-252.23 139.7,-243.65"/>
<polygon fill="midnightblue" stroke="midnightblue" points="79.58,-272.46 72.47,-280.32 82.93,-278.61 79.58,-272.46"/>
</g>
<!-- Node13 -->
<g id="node13" class="node">
<title>Node13</title>
<g id="a_node13"><a xlink:href="decl_2structured-panoc-lbfgs_8hpp.html" target="_top" xlink:title=" ">
<polygon fill="white" stroke="black" points="9.57,-112.5 9.57,-131.5 157.57,-131.5 157.57,-112.5 9.57,-112.5"/>
<text text-anchor="middle" x="83.57" y="-119.5" font-family="Helvetica,sans-Serif" font-size="10.00">structured&#45;panoc&#45;lbfgs.hpp</text>
</a>
</g>
</g>
<!-- Node1&#45;&gt;Node13 -->
<g id="edge17" class="edge">
<title>Node1&#45;&gt;Node13</title>
<path fill="none" stroke="midnightblue" d="M40.83,-273C19.45,-249.24 -13.87,-203.62 6.57,-168 16.97,-149.87 37.82,-138.35 55.2,-131.51"/>
<polygon fill="midnightblue" stroke="midnightblue" points="38.4,-275.52 47.78,-280.44 43.51,-270.74 38.4,-275.52"/>
</g>
<!-- Node3 -->
<g id="node3" class="node">
<title>Node3</title>
<g id="a_node3"><a xlink:href="panoc_8hpp.html" target="_top" xlink:title=" ">
<polygon fill="white" stroke="black" points="325.07,-168.5 325.07,-187.5 392.07,-187.5 392.07,-168.5 325.07,-168.5"/>
<text text-anchor="middle" x="358.57" y="-175.5" font-family="Helvetica,sans-Serif" font-size="10.00">panoc.hpp</text>
</a>
</g>
</g>
<!-- Node2&#45;&gt;Node3 -->
<g id="edge2" class="edge">
<title>Node2&#45;&gt;Node3</title>
<path fill="none" stroke="midnightblue" d="M197.56,-221.83C235.89,-211.63 291.72,-196.78 326.55,-187.52"/>
<polygon fill="midnightblue" stroke="midnightblue" points="196.5,-218.49 187.73,-224.44 198.3,-225.26 196.5,-218.49"/>
</g>
<!-- Node4 -->
<g id="node4" class="node">
<title>Node4</title>
<g id="a_node4"><a xlink:href="panocpy_8cpp.html" target="_top" xlink:title="This file defines all Python bindings.">
<polygon fill="white" stroke="black" points="456.07,-0.5 456.07,-19.5 533.07,-19.5 533.07,-0.5 456.07,-0.5"/>
<text text-anchor="middle" x="494.57" y="-7.5" font-family="Helvetica,sans-Serif" font-size="10.00">panocpy.cpp</text>
</a>
</g>
</g>
<!-- Node2&#45;&gt;Node4 -->
<g id="edge14" class="edge">
<title>Node2&#45;&gt;Node4</title>
<path fill="none" stroke="midnightblue" d="M199.11,-231.71C315.9,-227.24 631.55,-208.2 694.57,-132 713.4,-109.23 686.23,-71.34 667.57,-56 629.21,-24.47 571.22,-14.77 533.12,-11.94"/>
<polygon fill="midnightblue" stroke="midnightblue" points="198.96,-228.21 189.09,-232.08 199.21,-235.21 198.96,-228.21"/>
</g>
<!-- Node10 -->
<g id="node10" class="node">
<title>Node10</title>
<g id="a_node10"><a xlink:href="kwargs-to-struct_8hpp.html" target="_top" xlink:title="This file defines mappings from Python dicts (kwargs) to simple parameter structs.">
<polygon fill="white" stroke="black" points="175.57,-56.5 175.57,-75.5 293.57,-75.5 293.57,-56.5 175.57,-56.5"/>
<text text-anchor="middle" x="234.57" y="-63.5" font-family="Helvetica,sans-Serif" font-size="10.00">kwargs&#45;to&#45;struct.hpp</text>
</a>
</g>
</g>
<!-- Node2&#45;&gt;Node10 -->
<g id="edge12" class="edge">
<title>Node2&#45;&gt;Node10</title>
<path fill="none" stroke="midnightblue" d="M164.2,-214.86C181.15,-179.25 218.17,-101.45 230.49,-75.57"/>
<polygon fill="midnightblue" stroke="midnightblue" points="160.95,-213.54 159.82,-224.08 167.27,-216.55 160.95,-213.54"/>
</g>
<!-- Node11 -->
<g id="node11" class="node">
<title>Node11</title>
<g id="a_node11"><a xlink:href="CasADi_2Rosenbrock_2main_8cpp.html" target="_top" xlink:title=" ">
<polygon fill="white" stroke="black" points="15.57,-168.5 15.57,-187.5 77.57,-187.5 77.57,-168.5 15.57,-168.5"/>
<text text-anchor="middle" x="46.57" y="-175.5" font-family="Helvetica,sans-Serif" font-size="10.00">main.cpp</text>
</a>
</g>
</g>
<!-- Node2&#45;&gt;Node11 -->
<g id="edge15" class="edge">
<title>Node2&#45;&gt;Node11</title>
<path fill="none" stroke="midnightblue" d="M129.05,-219.86C108.84,-209.85 81.58,-196.35 64.04,-187.65"/>
<polygon fill="midnightblue" stroke="midnightblue" points="127.54,-223.02 138.06,-224.32 130.65,-216.75 127.54,-223.02"/>
</g>
<!-- Node12 -->
<g id="node12" class="node">
<title>Node12</title>
<g id="a_node12"><a xlink:href="CUTEst_2Rosenbrock_2main_8cpp.html" target="_top" xlink:title=" ">
<polygon fill="white" stroke="black" points="95.57,-168.5 95.57,-187.5 157.57,-187.5 157.57,-168.5 95.57,-168.5"/>
<text text-anchor="middle" x="126.57" y="-175.5" font-family="Helvetica,sans-Serif" font-size="10.00">main.cpp</text>
</a>
</g>
</g>
<!-- Node2&#45;&gt;Node12 -->
<g id="edge16" class="edge">
<title>Node2&#45;&gt;Node12</title>
<path fill="none" stroke="midnightblue" d="M145.89,-214.98C140.97,-205.82 135.21,-195.09 131.27,-187.75"/>
<polygon fill="midnightblue" stroke="midnightblue" points="142.97,-216.93 150.78,-224.08 149.13,-213.62 142.97,-216.93"/>
</g>
<!-- Node3&#45;&gt;Node4 -->
<g id="edge3" class="edge">
<title>Node3&#45;&gt;Node4</title>
<path fill="none" stroke="midnightblue" d="M402.41,-177.55C481.14,-177.49 641.58,-172.29 676.57,-132 724.4,-76.92 597.75,-36.33 531.7,-19.53"/>
<polygon fill="midnightblue" stroke="midnightblue" points="402.32,-174.05 392.31,-177.53 402.31,-181.05 402.32,-174.05"/>
</g>
<!-- Node5 -->
<g id="node5" class="node">
<title>Node5</title>
<g id="a_node5"><a xlink:href="polymorphic-inner-solver_8hpp.html" target="_top" xlink:title=" ">
<polygon fill="white" stroke="black" points="350.57,-56.5 350.57,-75.5 510.57,-75.5 510.57,-56.5 350.57,-56.5"/>
<text text-anchor="middle" x="430.57" y="-63.5" font-family="Helvetica,sans-Serif" font-size="10.00">polymorphic&#45;inner&#45;solver.hpp</text>
</a>
</g>
</g>
<!-- Node3&#45;&gt;Node5 -->
<g id="edge4" class="edge">
<title>Node3&#45;&gt;Node5</title>
<path fill="none" stroke="midnightblue" d="M315.2,-169.34C273.23,-160.01 219.14,-141.7 242.57,-112 256.76,-94.02 309.26,-82.42 355.19,-75.51"/>
<polygon fill="midnightblue" stroke="midnightblue" points="314.51,-172.77 325.02,-171.42 315.96,-165.92 314.51,-172.77"/>
</g>
<!-- Node6 -->
<g id="node6" class="node">
<title>Node6</title>
<g id="a_node6"><a xlink:href="polymorphic-panoc-direction_8hpp.html" target="_top" xlink:title=" ">
<polygon fill="white" stroke="black" points="489.57,-112.5 489.57,-131.5 667.57,-131.5 667.57,-112.5 489.57,-112.5"/>
<text text-anchor="middle" x="578.57" y="-119.5" font-family="Helvetica,sans-Serif" font-size="10.00">polymorphic&#45;panoc&#45;direction.hpp</text>
</a>
</g>
</g>
<!-- Node3&#45;&gt;Node6 -->
<g id="edge6" class="edge">
<title>Node3&#45;&gt;Node6</title>
<path fill="none" stroke="midnightblue" d="M402.31,-166.26C443.9,-156.05 505.63,-140.9 543.91,-131.51"/>
<polygon fill="midnightblue" stroke="midnightblue" points="401.34,-162.9 392.46,-168.68 403.01,-169.7 401.34,-162.9"/>
</g>
<!-- Node7 -->
<g id="node7" class="node">
<title>Node7</title>
<g id="a_node7"><a xlink:href="alm_8cpp.html" target="_top" xlink:title=" ">
<polygon fill="white" stroke="black" points="251.57,-112.5 251.57,-131.5 307.57,-131.5 307.57,-112.5 251.57,-112.5"/>
<text text-anchor="middle" x="279.57" y="-119.5" font-family="Helvetica,sans-Serif" font-size="10.00">alm.cpp</text>
</a>
</g>
</g>
<!-- Node3&#45;&gt;Node7 -->
<g id="edge9" class="edge">
<title>Node3&#45;&gt;Node7</title>
<path fill="none" stroke="midnightblue" d="M337.53,-162.62C323.1,-152.76 304.43,-139.99 292.23,-131.65"/>
<polygon fill="midnightblue" stroke="midnightblue" points="335.65,-165.57 345.88,-168.32 339.6,-159.79 335.65,-165.57"/>
</g>
<!-- Node8 -->
<g id="node8" class="node">
<title>Node8</title>
<g id="a_node8"><a xlink:href="panoc_8cpp.html" target="_top" xlink:title=" ">
<polygon fill="white" stroke="black" points="325.57,-112.5 325.57,-131.5 391.57,-131.5 391.57,-112.5 325.57,-112.5"/>
<text text-anchor="middle" x="358.57" y="-119.5" font-family="Helvetica,sans-Serif" font-size="10.00">panoc.cpp</text>
</a>
</g>
</g>
<!-- Node3&#45;&gt;Node8 -->
<g id="edge10" class="edge">
<title>Node3&#45;&gt;Node8</title>
<path fill="none" stroke="midnightblue" d="M358.57,-157.8C358.57,-148.91 358.57,-138.78 358.57,-131.75"/>
<polygon fill="midnightblue" stroke="midnightblue" points="355.07,-158.08 358.57,-168.08 362.07,-158.08 355.07,-158.08"/>
</g>
<!-- Node9 -->
<g id="node9" class="node">
<title>Node9</title>
<g id="a_node9"><a xlink:href="Presentation_2Cpp_2main_8cpp.html" target="_top" xlink:title=" ">
<polygon fill="white" stroke="black" points="409.57,-112.5 409.57,-131.5 471.57,-131.5 471.57,-112.5 409.57,-112.5"/>
<text text-anchor="middle" x="440.57" y="-119.5" font-family="Helvetica,sans-Serif" font-size="10.00">main.cpp</text>
</a>
</g>
</g>
<!-- Node3&#45;&gt;Node9 -->
<g id="edge11" class="edge">
<title>Node3&#45;&gt;Node9</title>
<path fill="none" stroke="midnightblue" d="M380.4,-162.62C395.38,-152.76 414.77,-139.99 427.43,-131.65"/>
<polygon fill="midnightblue" stroke="midnightblue" points="378.17,-159.9 371.74,-168.32 382.02,-165.75 378.17,-159.9"/>
</g>
<!-- Node5&#45;&gt;Node4 -->
<g id="edge5" class="edge">
<title>Node5&#45;&gt;Node4</title>
<path fill="none" stroke="midnightblue" d="M448.56,-49.82C460.03,-40.15 474.48,-27.95 484.1,-19.83"/>
<polygon fill="midnightblue" stroke="midnightblue" points="446.24,-47.2 440.85,-56.32 450.75,-52.55 446.24,-47.2"/>
</g>
<!-- Node6&#45;&gt;Node4 -->
<g id="edge7" class="edge">
<title>Node6&#45;&gt;Node4</title>
<path fill="none" stroke="midnightblue" d="M565.79,-104.27C547.64,-80.49 515.03,-37.79 501.13,-19.59"/>
<polygon fill="midnightblue" stroke="midnightblue" points="563.13,-106.54 571.98,-112.37 568.69,-102.3 563.13,-106.54"/>
</g>
<!-- Node6&#45;&gt;Node5 -->
<g id="edge8" class="edge">
<title>Node6&#45;&gt;Node5</title>
<path fill="none" stroke="midnightblue" d="M545.42,-108.91C517.6,-98.75 478.55,-84.51 453.91,-75.52"/>
<polygon fill="midnightblue" stroke="midnightblue" points="544.52,-112.3 555.12,-112.44 546.92,-105.73 544.52,-112.3"/>
</g>
<!-- Node10&#45;&gt;Node4 -->
<g id="edge13" class="edge">
<title>Node10&#45;&gt;Node4</title>
<path fill="none" stroke="midnightblue" d="M285.71,-54.38C335.62,-44.01 410.45,-28.47 455.69,-19.08"/>
<polygon fill="midnightblue" stroke="midnightblue" points="284.85,-50.98 275.77,-56.44 286.27,-57.84 284.85,-50.98"/>
</g>
<!-- Node13&#45;&gt;Node5 -->
<g id="edge22" class="edge">
<title>Node13&#45;&gt;Node5</title>
<path fill="none" stroke="midnightblue" d="M148.77,-110.85C214.33,-100.65 314.27,-85.1 375.84,-75.52"/>
<polygon fill="midnightblue" stroke="midnightblue" points="147.89,-107.45 138.55,-112.44 148.97,-114.36 147.89,-107.45"/>
</g>
<!-- Node13&#45;&gt;Node10 -->
<g id="edge21" class="edge">
<title>Node13&#45;&gt;Node10</title>
<path fill="none" stroke="midnightblue" d="M117.01,-109.04C145.43,-98.88 185.51,-84.55 210.75,-75.52"/>
<polygon fill="midnightblue" stroke="midnightblue" points="115.73,-105.78 107.49,-112.44 118.09,-112.37 115.73,-105.78"/>
</g>
<!-- Node14 -->
<g id="node14" class="node">
<title>Node14</title>
<g id="a_node14"><a xlink:href="structured-panoc-lbfgs_8hpp.html" target="_top" xlink:title=" ">
<polygon fill="white" stroke="black" points="9.57,-56.5 9.57,-75.5 157.57,-75.5 157.57,-56.5 9.57,-56.5"/>
<text text-anchor="middle" x="83.57" y="-63.5" font-family="Helvetica,sans-Serif" font-size="10.00">structured&#45;panoc&#45;lbfgs.hpp</text>
</a>
</g>
</g>
<!-- Node13&#45;&gt;Node14 -->
<g id="edge18" class="edge">
<title>Node13&#45;&gt;Node14</title>
<path fill="none" stroke="midnightblue" d="M83.57,-101.8C83.57,-92.91 83.57,-82.78 83.57,-75.75"/>
<polygon fill="midnightblue" stroke="midnightblue" points="80.07,-102.08 83.57,-112.08 87.07,-102.08 80.07,-102.08"/>
</g>
<!-- Node14&#45;&gt;Node4 -->
<g id="edge19" class="edge">
<title>Node14&#45;&gt;Node4</title>
<path fill="none" stroke="midnightblue" d="M158.85,-55.11C246.6,-43.58 388.21,-24.97 456,-16.07"/>
<polygon fill="midnightblue" stroke="midnightblue" points="158.15,-51.67 148.69,-56.44 159.06,-58.61 158.15,-51.67"/>
</g>
<!-- Node15 -->
<g id="node15" class="node">
<title>Node15</title>
<g id="a_node15"><a xlink:href="structured-panoc-lbfgs_8cpp.html" target="_top" xlink:title=" ">
<polygon fill="white" stroke="black" points="10.07,-0.5 10.07,-19.5 157.07,-19.5 157.07,-0.5 10.07,-0.5"/>
<text text-anchor="middle" x="83.57" y="-7.5" font-family="Helvetica,sans-Serif" font-size="10.00">structured&#45;panoc&#45;lbfgs.cpp</text>
</a>
</g>
</g>
<!-- Node14&#45;&gt;Node15 -->
<g id="edge20" class="edge">
<title>Node14&#45;&gt;Node15</title>
<path fill="none" stroke="midnightblue" d="M83.57,-45.8C83.57,-36.91 83.57,-26.78 83.57,-19.75"/>
<polygon fill="midnightblue" stroke="midnightblue" points="80.07,-46.08 83.57,-56.08 87.07,-46.08 80.07,-46.08"/>
</g>
</g>
</svg>
