<?xml version="1.0" encoding="UTF-8" standalone="no"?>
<!DOCTYPE svg PUBLIC "-//W3C//DTD SVG 1.1//EN"
 "http://www.w3.org/Graphics/SVG/1.1/DTD/svg11.dtd">
<!-- Generated by graphviz version 2.43.0 (0)
 -->
<!-- Title: lbfgs&#45;fwd.hpp Pages: 1 -->
<svg width="1434pt" height="364pt"
 viewBox="0.00 0.00 1434.00 364.00" xmlns="http://www.w3.org/2000/svg" xmlns:xlink="http://www.w3.org/1999/xlink">
<g id="graph0" class="graph" transform="scale(1 1) rotate(0) translate(4 360)">
<title>lbfgs&#45;fwd.hpp</title>
<polygon fill="white" stroke="transparent" points="-4,4 -4,-360 1430,-360 1430,4 -4,4"/>
<!-- Node1 -->
<g id="node1" class="node">
<title>Node1</title>
<g id="a_node1"><a xlink:title=" ">
<polygon fill="#bfbfbf" stroke="black" points="589.5,-336.5 589.5,-355.5 672.5,-355.5 672.5,-336.5 589.5,-336.5"/>
<text text-anchor="middle" x="631" y="-343.5" font-family="Helvetica,sans-Serif" font-size="10.00">lbfgs&#45;fwd.hpp</text>
</a>
</g>
</g>
<!-- Node2 -->
<g id="node2" class="node">
<title>Node2</title>
<g id="a_node2"><a xlink:href="panoc-fwd_8hpp.html" target="_top" xlink:title=" ">
<polygon fill="white" stroke="black" points="551,-280.5 551,-299.5 639,-299.5 639,-280.5 551,-280.5"/>
<text text-anchor="middle" x="595" y="-287.5" font-family="Helvetica,sans-Serif" font-size="10.00">panoc&#45;fwd.hpp</text>
</a>
</g>
</g>
<!-- Node1&#45;&gt;Node2 -->
<g id="edge1" class="edge">
<title>Node1&#45;&gt;Node2</title>
<path fill="none" stroke="midnightblue" d="M619.38,-327.57C613.18,-318.27 605.83,-307.25 600.83,-299.75"/>
<polygon fill="midnightblue" stroke="midnightblue" points="616.6,-329.7 625.06,-336.08 622.42,-325.82 616.6,-329.7"/>
</g>
<!-- Node23 -->
<g id="node23" class="node">
<title>Node23</title>
<g id="a_node23"><a xlink:href="decl_2lbfgs_8hpp.html" target="_top" xlink:title=" ">
<polygon fill="white" stroke="black" points="724,-224.5 724,-243.5 786,-243.5 786,-224.5 724,-224.5"/>
<text text-anchor="middle" x="755" y="-231.5" font-family="Helvetica,sans-Serif" font-size="10.00">lbfgs.hpp</text>
</a>
</g>
</g>
<!-- Node1&#45;&gt;Node23 -->
<g id="edge37" class="edge">
<title>Node1&#45;&gt;Node23</title>
<path fill="none" stroke="midnightblue" d="M648.46,-329.51C674.96,-306.01 724.44,-262.11 745.32,-243.59"/>
<polygon fill="midnightblue" stroke="midnightblue" points="645.89,-327.11 640.73,-336.37 650.53,-332.35 645.89,-327.11"/>
</g>
<!-- Node3 -->
<g id="node3" class="node">
<title>Node3</title>
<g id="a_node3"><a xlink:href="decl_2alm_8hpp.html" target="_top" xlink:title=" ">
<polygon fill="white" stroke="black" points="650,-224.5 650,-243.5 706,-243.5 706,-224.5 650,-224.5"/>
<text text-anchor="middle" x="678" y="-231.5" font-family="Helvetica,sans-Serif" font-size="10.00">alm.hpp</text>
</a>
</g>
</g>
<!-- Node2&#45;&gt;Node3 -->
<g id="edge2" class="edge">
<title>Node2&#45;&gt;Node3</title>
<path fill="none" stroke="midnightblue" d="M617.1,-274.62C632.26,-264.76 651.88,-251.99 664.7,-243.65"/>
<polygon fill="midnightblue" stroke="midnightblue" points="614.81,-271.94 608.34,-280.32 618.63,-277.8 614.81,-271.94"/>
</g>
<!-- Node13 -->
<g id="node13" class="node">
<title>Node13</title>
<g id="a_node13"><a xlink:href="decl_2panoc_8hpp.html" target="_top" xlink:title=" ">
<polygon fill="white" stroke="black" points="561.5,-224.5 561.5,-243.5 628.5,-243.5 628.5,-224.5 561.5,-224.5"/>
<text text-anchor="middle" x="595" y="-231.5" font-family="Helvetica,sans-Serif" font-size="10.00">panoc.hpp</text>
</a>
</g>
</g>
<!-- Node2&#45;&gt;Node13 -->
<g id="edge14" class="edge">
<title>Node2&#45;&gt;Node13</title>
<path fill="none" stroke="midnightblue" d="M595,-269.8C595,-260.91 595,-250.78 595,-243.75"/>
<polygon fill="midnightblue" stroke="midnightblue" points="591.5,-270.08 595,-280.08 598.5,-270.08 591.5,-270.08"/>
</g>
<!-- Node17 -->
<g id="node17" class="node">
<title>Node17</title>
<g id="a_node17"><a xlink:href="decl_2second-order-panoc_8hpp.html" target="_top" xlink:title=" ">
<polygon fill="white" stroke="black" points="162,-224.5 162,-243.5 296,-243.5 296,-224.5 162,-224.5"/>
<text text-anchor="middle" x="229" y="-231.5" font-family="Helvetica,sans-Serif" font-size="10.00">second&#45;order&#45;panoc.hpp</text>
</a>
</g>
</g>
<!-- Node2&#45;&gt;Node17 -->
<g id="edge28" class="edge">
<title>Node2&#45;&gt;Node17</title>
<path fill="none" stroke="midnightblue" d="M540.77,-281C472.73,-270.96 356.56,-253.82 286.86,-243.54"/>
<polygon fill="midnightblue" stroke="midnightblue" points="540.45,-284.49 550.85,-282.49 541.47,-277.56 540.45,-284.49"/>
</g>
<!-- Node20 -->
<g id="node20" class="node">
<title>Node20</title>
<g id="a_node20"><a xlink:href="decl_2structured-panoc-lbfgs_8hpp.html" target="_top" xlink:title=" ">
<polygon fill="white" stroke="black" points="395,-168.5 395,-187.5 543,-187.5 543,-168.5 395,-168.5"/>
<text text-anchor="middle" x="469" y="-175.5" font-family="Helvetica,sans-Serif" font-size="10.00">structured&#45;panoc&#45;lbfgs.hpp</text>
</a>
</g>
</g>
<!-- Node2&#45;&gt;Node20 -->
<g id="edge31" class="edge">
<title>Node2&#45;&gt;Node20</title>
<path fill="none" stroke="midnightblue" d="M577.26,-273.51C550.34,-250.01 500.05,-206.11 478.84,-187.59"/>
<polygon fill="midnightblue" stroke="midnightblue" points="575.28,-276.43 585.11,-280.37 579.88,-271.16 575.28,-276.43"/>
</g>
<!-- Node4 -->
<g id="node4" class="node">
<title>Node4</title>
<g id="a_node4"><a xlink:href="alm-helpers_8hpp.html" target="_top" xlink:title=" ">
<polygon fill="white" stroke="black" points="824,-168.5 824,-187.5 920,-187.5 920,-168.5 824,-168.5"/>
<text text-anchor="middle" x="872" y="-175.5" font-family="Helvetica,sans-Serif" font-size="10.00">alm&#45;helpers.hpp</text>
</a>
</g>
</g>
<!-- Node3&#45;&gt;Node4 -->
<g id="edge3" class="edge">
<title>Node3&#45;&gt;Node4</title>
<path fill="none" stroke="midnightblue" d="M716.02,-222.42C752.61,-212.23 807.24,-197.03 841.19,-187.58"/>
<polygon fill="midnightblue" stroke="midnightblue" points="714.9,-219.09 706.21,-225.15 716.78,-225.84 714.9,-219.09"/>
</g>
<!-- Node7 -->
<g id="node7" class="node">
<title>Node7</title>
<g id="a_node7"><a xlink:href="panocpy_8cpp.html" target="_top" xlink:title="This file defines all Python bindings.">
<polygon fill="white" stroke="black" points="472.5,-0.5 472.5,-19.5 549.5,-19.5 549.5,-0.5 472.5,-0.5"/>
<text text-anchor="middle" x="511" y="-7.5" font-family="Helvetica,sans-Serif" font-size="10.00">panocpy.cpp</text>
</a>
</g>
</g>
<!-- Node3&#45;&gt;Node7 -->
<g id="edge11" class="edge">
<title>Node3&#45;&gt;Node7</title>
<path fill="none" stroke="midnightblue" d="M716.07,-224.07C883.26,-197.13 931.88,-226.02 1093,-188 1163.81,-171.29 1277.83,-172.89 1238,-112 1204.01,-60.03 1170.26,-70.98 1110,-56 1003.1,-29.42 664.74,-16.07 549.71,-12.21"/>
<polygon fill="midnightblue" stroke="midnightblue" points="715.49,-220.61 706.2,-225.7 716.63,-227.52 715.49,-220.61"/>
</g>
<!-- Node10 -->
<g id="node10" class="node">
<title>Node10</title>
<g id="a_node10"><a xlink:href="kwargs-to-struct_8hpp.html" target="_top" xlink:title="This file defines mappings from Python dicts (kwargs) to simple parameter structs.">
<polygon fill="white" stroke="black" points="190,-112.5 190,-131.5 308,-131.5 308,-112.5 190,-112.5"/>
<text text-anchor="middle" x="249" y="-119.5" font-family="Helvetica,sans-Serif" font-size="10.00">kwargs&#45;to&#45;struct.hpp</text>
</a>
</g>
</g>
<!-- Node3&#45;&gt;Node10 -->
<g id="edge9" class="edge">
<title>Node3&#45;&gt;Node10</title>
<path fill="none" stroke="midnightblue" d="M639.79,-224.32C639.19,-224.21 638.59,-224.1 638,-224 509.61,-201.67 469.22,-233.22 347,-188 311,-174.68 275.02,-145.87 258.45,-131.5"/>
<polygon fill="midnightblue" stroke="midnightblue" points="639.17,-227.76 649.66,-226.26 640.53,-220.9 639.17,-227.76"/>
</g>
<!-- Node11 -->
<g id="node11" class="node">
<title>Node11</title>
<g id="a_node11"><a xlink:href="CasADi_2Rosenbrock_2main_8cpp.html" target="_top" xlink:title=" ">
<polygon fill="white" stroke="black" points="727,-168.5 727,-187.5 789,-187.5 789,-168.5 727,-168.5"/>
<text text-anchor="middle" x="758" y="-175.5" font-family="Helvetica,sans-Serif" font-size="10.00">main.cpp</text>
</a>
</g>
</g>
<!-- Node3&#45;&gt;Node11 -->
<g id="edge12" class="edge">
<title>Node3&#45;&gt;Node11</title>
<path fill="none" stroke="midnightblue" d="M699.3,-218.62C713.92,-208.76 732.83,-195.99 745.18,-187.65"/>
<polygon fill="midnightblue" stroke="midnightblue" points="697.18,-215.83 690.85,-224.32 701.1,-221.63 697.18,-215.83"/>
</g>
<!-- Node12 -->
<g id="node12" class="node">
<title>Node12</title>
<g id="a_node12"><a xlink:href="CUTEst_2Rosenbrock_2main_8cpp.html" target="_top" xlink:title=" ">
<polygon fill="white" stroke="black" points="647,-168.5 647,-187.5 709,-187.5 709,-168.5 647,-168.5"/>
<text text-anchor="middle" x="678" y="-175.5" font-family="Helvetica,sans-Serif" font-size="10.00">main.cpp</text>
</a>
</g>
</g>
<!-- Node3&#45;&gt;Node12 -->
<g id="edge13" class="edge">
<title>Node3&#45;&gt;Node12</title>
<path fill="none" stroke="midnightblue" d="M678,-213.8C678,-204.91 678,-194.78 678,-187.75"/>
<polygon fill="midnightblue" stroke="midnightblue" points="674.5,-214.08 678,-224.08 681.5,-214.08 674.5,-214.08"/>
</g>
<!-- Node5 -->
<g id="node5" class="node">
<title>Node5</title>
<g id="a_node5"><a xlink:href="alm_8hpp.html" target="_top" xlink:title=" ">
<polygon fill="white" stroke="black" points="878,-112.5 878,-131.5 934,-131.5 934,-112.5 878,-112.5"/>
<text text-anchor="middle" x="906" y="-119.5" font-family="Helvetica,sans-Serif" font-size="10.00">alm.hpp</text>
</a>
</g>
</g>
<!-- Node4&#45;&gt;Node5 -->
<g id="edge4" class="edge">
<title>Node4&#45;&gt;Node5</title>
<path fill="none" stroke="midnightblue" d="M882.98,-159.57C888.83,-150.27 895.77,-139.25 900.49,-131.75"/>
<polygon fill="midnightblue" stroke="midnightblue" points="879.98,-157.76 877.61,-168.08 885.9,-161.49 879.98,-157.76"/>
</g>
<!-- Node6 -->
<g id="node6" class="node">
<title>Node6</title>
<g id="a_node6"><a xlink:href="polymorphic-inner-solver_8hpp.html" target="_top" xlink:title=" ">
<polygon fill="white" stroke="black" points="568,-56.5 568,-75.5 728,-75.5 728,-56.5 568,-56.5"/>
<text text-anchor="middle" x="648" y="-63.5" font-family="Helvetica,sans-Serif" font-size="10.00">polymorphic&#45;inner&#45;solver.hpp</text>
</a>
</g>
</g>
<!-- Node5&#45;&gt;Node6 -->
<g id="edge5" class="edge">
<title>Node5&#45;&gt;Node6</title>
<path fill="none" stroke="midnightblue" d="M867.87,-112.82C866.57,-112.54 865.27,-112.27 864,-112 803.29,-99.17 732.92,-84.56 689.42,-75.56"/>
<polygon fill="midnightblue" stroke="midnightblue" points="867.48,-116.31 877.99,-114.97 868.94,-109.47 867.48,-116.31"/>
</g>
<!-- Node8 -->
<g id="node8" class="node">
<title>Node8</title>
<g id="a_node8"><a xlink:href="alm_8cpp.html" target="_top" xlink:title=" ">
<polygon fill="white" stroke="black" points="867,-56.5 867,-75.5 923,-75.5 923,-56.5 867,-56.5"/>
<text text-anchor="middle" x="895" y="-63.5" font-family="Helvetica,sans-Serif" font-size="10.00">alm.cpp</text>
</a>
</g>
</g>
<!-- Node5&#45;&gt;Node8 -->
<g id="edge7" class="edge">
<title>Node5&#45;&gt;Node8</title>
<path fill="none" stroke="midnightblue" d="M902.15,-102.1C900.32,-93.14 898.23,-82.86 896.78,-75.75"/>
<polygon fill="midnightblue" stroke="midnightblue" points="898.76,-102.98 904.18,-112.08 905.62,-101.59 898.76,-102.98"/>
</g>
<!-- Node9 -->
<g id="node9" class="node">
<title>Node9</title>
<g id="a_node9"><a xlink:href="Presentation_2Cpp_2main_8cpp.html" target="_top" xlink:title=" ">
<polygon fill="white" stroke="black" points="941,-56.5 941,-75.5 1003,-75.5 1003,-56.5 941,-56.5"/>
<text text-anchor="middle" x="972" y="-63.5" font-family="Helvetica,sans-Serif" font-size="10.00">main.cpp</text>
</a>
</g>
</g>
<!-- Node5&#45;&gt;Node9 -->
<g id="edge8" class="edge">
<title>Node5&#45;&gt;Node9</title>
<path fill="none" stroke="midnightblue" d="M924.55,-105.82C936.38,-96.15 951.29,-83.95 961.2,-75.83"/>
<polygon fill="midnightblue" stroke="midnightblue" points="922.13,-103.28 916.6,-112.32 926.56,-108.7 922.13,-103.28"/>
</g>
<!-- Node6&#45;&gt;Node7 -->
<g id="edge6" class="edge">
<title>Node6&#45;&gt;Node7</title>
<path fill="none" stroke="midnightblue" d="M616.98,-52.77C591.24,-42.63 555.31,-28.47 532.61,-19.52"/>
<polygon fill="midnightblue" stroke="midnightblue" points="615.71,-56.03 626.29,-56.44 618.27,-49.52 615.71,-56.03"/>
</g>
<!-- Node10&#45;&gt;Node7 -->
<g id="edge10" class="edge">
<title>Node10&#45;&gt;Node7</title>
<path fill="none" stroke="midnightblue" d="M263.1,-104.45C276.7,-89.56 298.6,-68.2 322,-56 370.3,-30.82 432.88,-19.5 472.5,-14.57"/>
<polygon fill="midnightblue" stroke="midnightblue" points="260.12,-102.54 256.11,-112.35 265.36,-107.18 260.12,-102.54"/>
</g>
<!-- Node13&#45;&gt;Node7 -->
<g id="edge25" class="edge">
<title>Node13&#45;&gt;Node7</title>
<path fill="none" stroke="midnightblue" d="M551.18,-232.64C487.59,-230.86 366.86,-222.7 271,-188 226.7,-171.97 203.88,-173.18 181,-132 119.73,-21.71 372.67,-10.64 472.26,-10.47"/>
<polygon fill="midnightblue" stroke="midnightblue" points="551.17,-236.14 561.25,-232.88 551.34,-229.14 551.17,-236.14"/>
</g>
<!-- Node13&#45;&gt;Node10 -->
<g id="edge24" class="edge">
<title>Node13&#45;&gt;Node10</title>
<path fill="none" stroke="midnightblue" d="M551.19,-230.48C479.03,-225.66 338.97,-213.29 297,-188 274.65,-174.53 259.44,-146.32 252.79,-131.9"/>
<polygon fill="midnightblue" stroke="midnightblue" points="551.12,-233.98 561.32,-231.14 551.57,-227 551.12,-233.98"/>
</g>
<!-- Node13&#45;&gt;Node11 -->
<g id="edge26" class="edge">
<title>Node13&#45;&gt;Node11</title>
<path fill="none" stroke="midnightblue" d="M630.7,-221.17C661.4,-211 704.92,-196.59 732.29,-187.52"/>
<polygon fill="midnightblue" stroke="midnightblue" points="629.22,-217.98 620.83,-224.44 631.42,-224.62 629.22,-217.98"/>
</g>
<!-- Node13&#45;&gt;Node12 -->
<g id="edge27" class="edge">
<title>Node13&#45;&gt;Node12</title>
<path fill="none" stroke="midnightblue" d="M617.1,-218.62C632.26,-208.76 651.88,-195.99 664.7,-187.65"/>
<polygon fill="midnightblue" stroke="midnightblue" points="614.81,-215.94 608.34,-224.32 618.63,-221.8 614.81,-215.94"/>
</g>
<!-- Node14 -->
<g id="node14" class="node">
<title>Node14</title>
<g id="a_node14"><a xlink:href="panoc_8hpp.html" target="_top" xlink:title=" ">
<polygon fill="white" stroke="black" points="561.5,-168.5 561.5,-187.5 628.5,-187.5 628.5,-168.5 561.5,-168.5"/>
<text text-anchor="middle" x="595" y="-175.5" font-family="Helvetica,sans-Serif" font-size="10.00">panoc.hpp</text>
</a>
</g>
</g>
<!-- Node13&#45;&gt;Node14 -->
<g id="edge15" class="edge">
<title>Node13&#45;&gt;Node14</title>
<path fill="none" stroke="midnightblue" d="M595,-213.8C595,-204.91 595,-194.78 595,-187.75"/>
<polygon fill="midnightblue" stroke="midnightblue" points="591.5,-214.08 595,-224.08 598.5,-214.08 591.5,-214.08"/>
</g>
<!-- Node14&#45;&gt;Node6 -->
<g id="edge17" class="edge">
<title>Node14&#45;&gt;Node6</title>
<path fill="none" stroke="midnightblue" d="M591.74,-158.05C590.31,-144.57 590.25,-126.37 597,-112 604.53,-95.97 620.75,-83.28 632.88,-75.51"/>
<polygon fill="midnightblue" stroke="midnightblue" points="588.29,-158.66 593.14,-168.08 595.22,-157.69 588.29,-158.66"/>
</g>
<!-- Node14&#45;&gt;Node7 -->
<g id="edge16" class="edge">
<title>Node14&#45;&gt;Node7</title>
<path fill="none" stroke="midnightblue" d="M551.21,-168.18C494.03,-160.09 381.83,-164.18 355,-132 334.77,-107.73 366.88,-72.28 386,-56 410.58,-35.07 445.66,-23.57 472.41,-17.45"/>
<polygon fill="midnightblue" stroke="midnightblue" points="550.78,-171.66 561.22,-169.84 551.93,-164.75 550.78,-171.66"/>
</g>
<!-- Node14&#45;&gt;Node8 -->
<g id="edge21" class="edge">
<title>Node14&#45;&gt;Node8</title>
<path fill="none" stroke="midnightblue" d="M638.79,-167.45C694.9,-155.15 785.84,-134.99 793,-132 829.04,-116.96 866.56,-89.46 884.38,-75.55"/>
<polygon fill="midnightblue" stroke="midnightblue" points="637.76,-164.09 628.74,-169.65 639.26,-170.93 637.76,-164.09"/>
</g>
<!-- Node14&#45;&gt;Node9 -->
<g id="edge23" class="edge">
<title>Node14&#45;&gt;Node9</title>
<path fill="none" stroke="midnightblue" d="M638.69,-168.22C720.13,-158.17 890.28,-170.79 943,-132 961.51,-118.38 968.43,-90.24 970.83,-75.87"/>
<polygon fill="midnightblue" stroke="midnightblue" points="638.15,-164.76 628.75,-169.64 639.14,-171.69 638.15,-164.76"/>
</g>
<!-- Node15 -->
<g id="node15" class="node">
<title>Node15</title>
<g id="a_node15"><a xlink:href="polymorphic-panoc-direction_8hpp.html" target="_top" xlink:title=" ">
<polygon fill="white" stroke="black" points="606,-112.5 606,-131.5 784,-131.5 784,-112.5 606,-112.5"/>
<text text-anchor="middle" x="695" y="-119.5" font-family="Helvetica,sans-Serif" font-size="10.00">polymorphic&#45;panoc&#45;direction.hpp</text>
</a>
</g>
</g>
<!-- Node14&#45;&gt;Node15 -->
<g id="edge18" class="edge">
<title>Node14&#45;&gt;Node15</title>
<path fill="none" stroke="midnightblue" d="M620.09,-163.45C638.55,-153.48 663.1,-140.23 678.97,-131.65"/>
<polygon fill="midnightblue" stroke="midnightblue" points="618.2,-160.49 611.07,-168.32 621.53,-166.65 618.2,-160.49"/>
</g>
<!-- Node16 -->
<g id="node16" class="node">
<title>Node16</title>
<g id="a_node16"><a xlink:href="panoc_8cpp.html" target="_top" xlink:title=" ">
<polygon fill="white" stroke="black" points="990,-112.5 990,-131.5 1056,-131.5 1056,-112.5 990,-112.5"/>
<text text-anchor="middle" x="1023" y="-119.5" font-family="Helvetica,sans-Serif" font-size="10.00">panoc.cpp</text>
</a>
</g>
</g>
<!-- Node14&#45;&gt;Node16 -->
<g id="edge22" class="edge">
<title>Node14&#45;&gt;Node16</title>
<path fill="none" stroke="midnightblue" d="M638.79,-168.03C788.97,-144.9 829.78,-153.75 976,-132 980.52,-131.33 985.27,-130.53 989.93,-129.69"/>
<polygon fill="midnightblue" stroke="midnightblue" points="638.08,-164.6 628.74,-169.6 639.16,-171.52 638.08,-164.6"/>
</g>
<!-- Node15&#45;&gt;Node6 -->
<g id="edge20" class="edge">
<title>Node15&#45;&gt;Node6</title>
<path fill="none" stroke="midnightblue" d="M680.58,-104.43C672.34,-94.97 662.35,-83.48 655.62,-75.75"/>
<polygon fill="midnightblue" stroke="midnightblue" points="678.03,-106.84 687.24,-112.08 683.31,-102.24 678.03,-106.84"/>
</g>
<!-- Node15&#45;&gt;Node7 -->
<g id="edge19" class="edge">
<title>Node15&#45;&gt;Node7</title>
<path fill="none" stroke="midnightblue" d="M715.9,-105.92C732.23,-92.3 750.14,-72.01 737,-56 713.72,-27.62 607.69,-16.81 549.51,-12.96"/>
<polygon fill="midnightblue" stroke="midnightblue" points="713.38,-103.45 707.67,-112.37 717.7,-108.95 713.38,-103.45"/>
</g>
<!-- Node18 -->
<g id="node18" class="node">
<title>Node18</title>
<g id="a_node18"><a xlink:href="second-order-panoc_8hpp.html" target="_top" xlink:title=" ">
<polygon fill="white" stroke="black" points="0,-168.5 0,-187.5 134,-187.5 134,-168.5 0,-168.5"/>
<text text-anchor="middle" x="67" y="-175.5" font-family="Helvetica,sans-Serif" font-size="10.00">second&#45;order&#45;panoc.hpp</text>
</a>
</g>
</g>
<!-- Node17&#45;&gt;Node18 -->
<g id="edge29" class="edge">
<title>Node17&#45;&gt;Node18</title>
<path fill="none" stroke="midnightblue" d="M193.52,-221.17C163.01,-211 119.76,-196.59 92.55,-187.52"/>
<polygon fill="midnightblue" stroke="midnightblue" points="192.74,-224.6 203.33,-224.44 194.95,-217.96 192.74,-224.6"/>
</g>
<!-- Node19 -->
<g id="node19" class="node">
<title>Node19</title>
<g id="a_node19"><a xlink:href="second-order-panoc_8cpp.html" target="_top" xlink:title=" ">
<polygon fill="white" stroke="black" points="0,-112.5 0,-131.5 134,-131.5 134,-112.5 0,-112.5"/>
<text text-anchor="middle" x="67" y="-119.5" font-family="Helvetica,sans-Serif" font-size="10.00">second&#45;order&#45;panoc.cpp</text>
</a>
</g>
</g>
<!-- Node18&#45;&gt;Node19 -->
<g id="edge30" class="edge">
<title>Node18&#45;&gt;Node19</title>
<path fill="none" stroke="midnightblue" d="M67,-157.8C67,-148.91 67,-138.78 67,-131.75"/>
<polygon fill="midnightblue" stroke="midnightblue" points="63.5,-158.08 67,-168.08 70.5,-158.08 63.5,-158.08"/>
</g>
<!-- Node20&#45;&gt;Node6 -->
<g id="edge36" class="edge">
<title>Node20&#45;&gt;Node6</title>
<path fill="none" stroke="midnightblue" d="M491.77,-163.01C529.34,-139.92 603.23,-94.51 634.02,-75.59"/>
<polygon fill="midnightblue" stroke="midnightblue" points="489.73,-160.15 483.05,-168.37 493.4,-166.11 489.73,-160.15"/>
</g>
<!-- Node20&#45;&gt;Node10 -->
<g id="edge35" class="edge">
<title>Node20&#45;&gt;Node10</title>
<path fill="none" stroke="midnightblue" d="M424.28,-166.02C382.72,-155.82 321.69,-140.84 283.7,-131.52"/>
<polygon fill="midnightblue" stroke="midnightblue" points="423.59,-169.46 434.14,-168.44 425.26,-162.66 423.59,-169.46"/>
</g>
<!-- Node21 -->
<g id="node21" class="node">
<title>Node21</title>
<g id="a_node21"><a xlink:href="structured-panoc-lbfgs_8hpp.html" target="_top" xlink:title=" ">
<polygon fill="white" stroke="black" points="364,-112.5 364,-131.5 512,-131.5 512,-112.5 364,-112.5"/>
<text text-anchor="middle" x="438" y="-119.5" font-family="Helvetica,sans-Serif" font-size="10.00">structured&#45;panoc&#45;lbfgs.hpp</text>
</a>
</g>
</g>
<!-- Node20&#45;&gt;Node21 -->
<g id="edge32" class="edge">
<title>Node20&#45;&gt;Node21</title>
<path fill="none" stroke="midnightblue" d="M458.82,-159.27C453.53,-150.05 447.28,-139.17 443.02,-131.75"/>
<polygon fill="midnightblue" stroke="midnightblue" points="455.87,-161.15 463.88,-168.08 461.94,-157.67 455.87,-161.15"/>
</g>
<!-- Node21&#45;&gt;Node7 -->
<g id="edge33" class="edge">
<title>Node21&#45;&gt;Node7</title>
<path fill="none" stroke="midnightblue" d="M416.45,-106.1C400.08,-92.9 382.24,-73.12 394,-56 411.5,-30.53 445.58,-19.47 472.47,-14.67"/>
<polygon fill="midnightblue" stroke="midnightblue" points="414.62,-109.11 424.7,-112.35 418.85,-103.53 414.62,-109.11"/>
</g>
<!-- Node22 -->
<g id="node22" class="node">
<title>Node22</title>
<g id="a_node22"><a xlink:href="structured-panoc-lbfgs_8cpp.html" target="_top" xlink:title=" ">
<polygon fill="white" stroke="black" points="402.5,-56.5 402.5,-75.5 549.5,-75.5 549.5,-56.5 402.5,-56.5"/>
<text text-anchor="middle" x="476" y="-63.5" font-family="Helvetica,sans-Serif" font-size="10.00">structured&#45;panoc&#45;lbfgs.cpp</text>
</a>
</g>
</g>
<!-- Node21&#45;&gt;Node22 -->
<g id="edge34" class="edge">
<title>Node21&#45;&gt;Node22</title>
<path fill="none" stroke="midnightblue" d="M450.06,-103.86C456.64,-94.5 464.51,-83.33 469.84,-75.75"/>
<polygon fill="midnightblue" stroke="midnightblue" points="447.17,-101.89 444.27,-112.08 452.89,-105.92 447.17,-101.89"/>
</g>
<!-- Node23&#45;&gt;Node10 -->
<g id="edge51" class="edge">
<title>Node23&#45;&gt;Node10</title>
<path fill="none" stroke="midnightblue" d="M713.43,-223.93C567.95,-201.05 524.35,-227.18 386,-188 379.78,-186.24 302.39,-148.88 266.75,-131.62"/>
<polygon fill="midnightblue" stroke="midnightblue" points="713.19,-227.44 723.62,-225.59 714.31,-220.53 713.19,-227.44"/>
</g>
<!-- Node23&#45;&gt;Node11 -->
<g id="edge52" class="edge">
<title>Node23&#45;&gt;Node11</title>
<path fill="none" stroke="midnightblue" d="M756.07,-213.8C756.56,-204.91 757.12,-194.78 757.51,-187.75"/>
<polygon fill="midnightblue" stroke="midnightblue" points="752.56,-213.9 755.5,-224.08 759.54,-214.29 752.56,-213.9"/>
</g>
<!-- Node23&#45;&gt;Node12 -->
<g id="edge53" class="edge">
<title>Node23&#45;&gt;Node12</title>
<path fill="none" stroke="midnightblue" d="M734.1,-218.34C720.09,-208.52 702.12,-195.91 690.34,-187.65"/>
<polygon fill="midnightblue" stroke="midnightblue" points="732.43,-221.45 742.63,-224.32 736.45,-215.72 732.43,-221.45"/>
</g>
<!-- Node23&#45;&gt;Node20 -->
<g id="edge38" class="edge">
<title>Node23&#45;&gt;Node20</title>
<path fill="none" stroke="midnightblue" d="M713.75,-223.8C640.66,-209.01 566.7,-195.82 519.06,-187.55"/>
<polygon fill="midnightblue" stroke="midnightblue" points="713.09,-227.24 723.58,-225.81 714.48,-220.38 713.09,-227.24"/>
</g>
<!-- Node24 -->
<g id="node24" class="node">
<title>Node24</title>
<g id="a_node24"><a xlink:href="decl_2specialized-lbfgs_8hpp.html" target="_top" xlink:title=" ">
<polygon fill="white" stroke="black" points="1306,-168.5 1306,-187.5 1426,-187.5 1426,-168.5 1306,-168.5"/>
<text text-anchor="middle" x="1366" y="-175.5" font-family="Helvetica,sans-Serif" font-size="10.00">specialized&#45;lbfgs.hpp</text>
</a>
</g>
</g>
<!-- Node23&#45;&gt;Node24 -->
<g id="edge39" class="edge">
<title>Node23&#45;&gt;Node24</title>
<path fill="none" stroke="midnightblue" d="M796.29,-230.07C886.39,-223.56 1107.36,-206.96 1292,-188 1296.51,-187.54 1301.16,-187.03 1305.85,-186.51"/>
<polygon fill="midnightblue" stroke="midnightblue" points="795.93,-226.59 786.21,-230.8 796.44,-233.57 795.93,-226.59"/>
</g>
<!-- Node26 -->
<g id="node26" class="node">
<title>Node26</title>
<g id="a_node26"><a xlink:href="lbfgs_8hpp.html" target="_top" xlink:title=" ">
<polygon fill="white" stroke="black" points="1022,-168.5 1022,-187.5 1084,-187.5 1084,-168.5 1022,-168.5"/>
<text text-anchor="middle" x="1053" y="-175.5" font-family="Helvetica,sans-Serif" font-size="10.00">lbfgs.hpp</text>
</a>
</g>
</g>
<!-- Node23&#45;&gt;Node26 -->
<g id="edge41" class="edge">
<title>Node23&#45;&gt;Node26</title>
<path fill="none" stroke="midnightblue" d="M795.97,-225.58C856.19,-214.66 967.34,-194.52 1021.57,-184.69"/>
<polygon fill="midnightblue" stroke="midnightblue" points="795.26,-222.15 786.05,-227.37 796.51,-229.03 795.26,-222.15"/>
</g>
<!-- Node25 -->
<g id="node25" class="node">
<title>Node25</title>
<g id="a_node25"><a xlink:href="specialized-lbfgs_8hpp.html" target="_top" xlink:title=" ">
<polygon fill="white" stroke="black" points="1306,-112.5 1306,-131.5 1426,-131.5 1426,-112.5 1306,-112.5"/>
<text text-anchor="middle" x="1366" y="-119.5" font-family="Helvetica,sans-Serif" font-size="10.00">specialized&#45;lbfgs.hpp</text>
</a>
</g>
</g>
<!-- Node24&#45;&gt;Node25 -->
<g id="edge40" class="edge">
<title>Node24&#45;&gt;Node25</title>
<path fill="none" stroke="midnightblue" d="M1366,-157.8C1366,-148.91 1366,-138.78 1366,-131.75"/>
<polygon fill="midnightblue" stroke="midnightblue" points="1362.5,-158.08 1366,-168.08 1369.5,-158.08 1362.5,-158.08"/>
</g>
<!-- Node26&#45;&gt;Node6 -->
<g id="edge45" class="edge">
<title>Node26&#45;&gt;Node6</title>
<path fill="none" stroke="midnightblue" d="M1011.95,-167.53C974.57,-158.78 917.91,-145.17 869,-132 798.91,-113.13 717.12,-88.35 675.45,-75.52"/>
<polygon fill="midnightblue" stroke="midnightblue" points="1011.43,-171.01 1021.96,-169.87 1013.02,-164.19 1011.43,-171.01"/>
</g>
<!-- Node26&#45;&gt;Node7 -->
<g id="edge44" class="edge">
<title>Node26&#45;&gt;Node7</title>
<path fill="none" stroke="midnightblue" d="M1094.3,-175.26C1154.59,-171.17 1255.91,-157.5 1221,-112 1162.46,-35.71 1106.69,-72.81 1012,-56 841.32,-25.7 634.11,-15.33 549.64,-12.21"/>
<polygon fill="midnightblue" stroke="midnightblue" points="1094.05,-171.77 1084.29,-175.88 1094.48,-178.76 1094.05,-171.77"/>
</g>
<!-- Node26&#45;&gt;Node8 -->
<g id="edge47" class="edge">
<title>Node26&#45;&gt;Node8</title>
<path fill="none" stroke="midnightblue" d="M1063.13,-159.26C1069.73,-145.1 1075.36,-125.46 1065,-112 1062.79,-109.13 970.7,-85.85 923.01,-73.95"/>
<polygon fill="midnightblue" stroke="midnightblue" points="1059.86,-157.95 1058.37,-168.44 1066.08,-161.17 1059.86,-157.95"/>
</g>
<!-- Node26&#45;&gt;Node9 -->
<g id="edge50" class="edge">
<title>Node26&#45;&gt;Node9</title>
<path fill="none" stroke="midnightblue" d="M1075.05,-162.09C1091.8,-148.88 1110.05,-129.1 1098,-112 1076.66,-81.72 1033,-71.7 1003.12,-68.45"/>
<polygon fill="midnightblue" stroke="midnightblue" points="1072.56,-159.58 1066.61,-168.35 1076.72,-165.21 1072.56,-159.58"/>
</g>
<!-- Node26&#45;&gt;Node15 -->
<g id="edge46" class="edge">
<title>Node26&#45;&gt;Node15</title>
<path fill="none" stroke="midnightblue" d="M1011.72,-170.77C947.63,-161.11 824.03,-142.46 751.64,-131.54"/>
<polygon fill="midnightblue" stroke="midnightblue" points="1011.45,-174.27 1021.86,-172.3 1012.49,-167.35 1011.45,-174.27"/>
</g>
<!-- Node26&#45;&gt;Node16 -->
<g id="edge49" class="edge">
<title>Node26&#45;&gt;Node16</title>
<path fill="none" stroke="midnightblue" d="M1043.15,-159.27C1038.03,-150.05 1031.98,-139.17 1027.86,-131.75"/>
<polygon fill="midnightblue" stroke="midnightblue" points="1040.13,-161.04 1048.05,-168.08 1046.25,-157.64 1040.13,-161.04"/>
</g>
<!-- Node26&#45;&gt;Node21 -->
<g id="edge43" class="edge">
<title>Node26&#45;&gt;Node21</title>
<path fill="none" stroke="midnightblue" d="M1011.39,-173.35C908.77,-164.34 642.47,-140.95 512.1,-129.51"/>
<polygon fill="midnightblue" stroke="midnightblue" points="1011.39,-176.86 1021.66,-174.25 1012,-169.89 1011.39,-176.86"/>
</g>
<!-- Node26&#45;&gt;Node25 -->
<g id="edge42" class="edge">
<title>Node26&#45;&gt;Node25</title>
<path fill="none" stroke="midnightblue" d="M1094.3,-169.87C1151.64,-159.98 1255.21,-142.11 1316.58,-131.53"/>
<polygon fill="midnightblue" stroke="midnightblue" points="1093.42,-166.48 1084.16,-171.62 1094.61,-173.37 1093.42,-166.48"/>
</g>
<!-- Node27 -->
<g id="node27" class="node">
<title>Node27</title>
<g id="a_node27"><a xlink:href="lbfgs_8cpp.html" target="_top" xlink:title=" ">
<polygon fill="white" stroke="black" points="1150.5,-112.5 1150.5,-131.5 1211.5,-131.5 1211.5,-112.5 1150.5,-112.5"/>
<text text-anchor="middle" x="1181" y="-119.5" font-family="Helvetica,sans-Serif" font-size="10.00">lbfgs.cpp</text>
</a>
</g>
</g>
<!-- Node26&#45;&gt;Node27 -->
<g id="edge48" class="edge">
<title>Node26&#45;&gt;Node27</title>
<path fill="none" stroke="midnightblue" d="M1082.62,-164.5C1106.62,-154.38 1139.78,-140.39 1160.81,-131.52"/>
<polygon fill="midnightblue" stroke="midnightblue" points="1081.14,-161.33 1073.28,-168.44 1083.86,-167.78 1081.14,-161.33"/>
</g>
</g>
</svg>
