<?xml version="1.0" encoding="UTF-8" standalone="no"?>
<!DOCTYPE svg PUBLIC "-//W3C//DTD SVG 1.1//EN"
 "http://www.w3.org/Graphics/SVG/1.1/DTD/svg11.dtd">
<!-- Generated by graphviz version 2.43.0 (0)
 -->
<!-- Title: limited&#45;memory&#45;qr.hpp Pages: 1 -->
<svg width="444pt" height="140pt"
 viewBox="0.00 0.00 444.00 140.00" xmlns="http://www.w3.org/2000/svg" xmlns:xlink="http://www.w3.org/1999/xlink">
<g id="graph0" class="graph" transform="scale(1 1) rotate(0) translate(4 136)">
<title>limited&#45;memory&#45;qr.hpp</title>
<polygon fill="white" stroke="transparent" points="-4,4 -4,-136 440,-136 440,4 -4,4"/>
<!-- Node1 -->
<g id="node1" class="node">
<title>Node1</title>
<g id="a_node1"><a xlink:title=" ">
<polygon fill="#bfbfbf" stroke="black" points="92,-112.5 92,-131.5 222,-131.5 222,-112.5 92,-112.5"/>
<text text-anchor="middle" x="157" y="-119.5" font-family="Helvetica,sans-Serif" font-size="10.00">limited&#45;memory&#45;qr.hpp</text>
</a>
</g>
</g>
<!-- Node2 -->
<g id="node2" class="node">
<title>Node2</title>
<g id="a_node2"><a xlink:title=" ">
<polygon fill="white" stroke="#bfbfbf" points="0,-56.5 0,-75.5 76,-75.5 76,-56.5 0,-56.5"/>
<text text-anchor="middle" x="38" y="-63.5" font-family="Helvetica,sans-Serif" font-size="10.00">Eigen/Jacobi</text>
</a>
</g>
</g>
<!-- Node1&#45;&gt;Node2 -->
<g id="edge1" class="edge">
<title>Node1&#45;&gt;Node2</title>
<path fill="none" stroke="midnightblue" d="M138.14,-112.44C118.73,-103.64 88.27,-89.81 66.04,-79.72"/>
<polygon fill="midnightblue" stroke="midnightblue" points="67.32,-76.46 56.77,-75.52 64.43,-82.84 67.32,-76.46"/>
</g>
<!-- Node3 -->
<g id="node3" class="node">
<title>Node3</title>
<g id="a_node3"><a xlink:title=" ">
<polygon fill="white" stroke="#bfbfbf" points="95.5,-0.5 95.5,-19.5 148.5,-19.5 148.5,-0.5 95.5,-0.5"/>
<text text-anchor="middle" x="122" y="-7.5" font-family="Helvetica,sans-Serif" font-size="10.00">cstddef</text>
</a>
</g>
</g>
<!-- Node1&#45;&gt;Node3 -->
<g id="edge2" class="edge">
<title>Node1&#45;&gt;Node3</title>
<path fill="none" stroke="midnightblue" d="M147.76,-112.38C139.51,-104 127.97,-90.44 123,-76 117.89,-61.14 118.04,-43.22 119.24,-29.96"/>
<polygon fill="midnightblue" stroke="midnightblue" points="122.76,-30.05 120.47,-19.71 115.81,-29.22 122.76,-30.05"/>
</g>
<!-- Node4 -->
<g id="node4" class="node">
<title>Node4</title>
<g id="a_node4"><a xlink:href="ringbuffer_8hpp.html" target="_top" xlink:title=" ">
<polygon fill="white" stroke="black" points="132,-56.5 132,-75.5 290,-75.5 290,-56.5 132,-56.5"/>
<text text-anchor="middle" x="211" y="-63.5" font-family="Helvetica,sans-Serif" font-size="10.00">panoc&#45;alm/util/ringbuffer.hpp</text>
</a>
</g>
</g>
<!-- Node1&#45;&gt;Node4 -->
<g id="edge3" class="edge">
<title>Node1&#45;&gt;Node4</title>
<path fill="none" stroke="midnightblue" d="M165.92,-112.08C173.78,-104.22 185.43,-92.57 194.92,-83.08"/>
<polygon fill="midnightblue" stroke="midnightblue" points="197.65,-85.3 202.25,-75.75 192.7,-80.35 197.65,-85.3"/>
</g>
<!-- Node6 -->
<g id="node6" class="node">
<title>Node6</title>
<g id="a_node6"><a xlink:href="vec_8hpp.html" target="_top" xlink:title=" ">
<polygon fill="white" stroke="black" points="308,-56.5 308,-75.5 436,-75.5 436,-56.5 308,-56.5"/>
<text text-anchor="middle" x="372" y="-63.5" font-family="Helvetica,sans-Serif" font-size="10.00">panoc&#45;alm/util/vec.hpp</text>
</a>
</g>
</g>
<!-- Node1&#45;&gt;Node6 -->
<g id="edge6" class="edge">
<title>Node1&#45;&gt;Node6</title>
<path fill="none" stroke="midnightblue" d="M191.07,-112.44C228.18,-103.12 287.66,-88.18 328.21,-78"/>
<polygon fill="midnightblue" stroke="midnightblue" points="329.25,-81.35 338.09,-75.52 327.54,-74.56 329.25,-81.35"/>
</g>
<!-- Node4&#45;&gt;Node3 -->
<g id="edge4" class="edge">
<title>Node4&#45;&gt;Node3</title>
<path fill="none" stroke="midnightblue" d="M196.7,-56.32C182.82,-47.9 161.51,-34.97 145.2,-25.07"/>
<polygon fill="midnightblue" stroke="midnightblue" points="146.63,-21.85 136.26,-19.65 143,-27.83 146.63,-21.85"/>
</g>
<!-- Node5 -->
<g id="node5" class="node">
<title>Node5</title>
<g id="a_node5"><a xlink:title=" ">
<polygon fill="white" stroke="#bfbfbf" points="184.5,-0.5 184.5,-19.5 237.5,-19.5 237.5,-0.5 184.5,-0.5"/>
<text text-anchor="middle" x="211" y="-7.5" font-family="Helvetica,sans-Serif" font-size="10.00">iterator</text>
</a>
</g>
</g>
<!-- Node4&#45;&gt;Node5 -->
<g id="edge5" class="edge">
<title>Node4&#45;&gt;Node5</title>
<path fill="none" stroke="midnightblue" d="M211,-56.08C211,-49.01 211,-38.86 211,-29.99"/>
<polygon fill="midnightblue" stroke="midnightblue" points="214.5,-29.75 211,-19.75 207.5,-29.75 214.5,-29.75"/>
</g>
<!-- Node7 -->
<g id="node7" class="node">
<title>Node7</title>
<g id="a_node7"><a xlink:title=" ">
<polygon fill="white" stroke="#bfbfbf" points="337.5,-0.5 337.5,-19.5 406.5,-19.5 406.5,-0.5 337.5,-0.5"/>
<text text-anchor="middle" x="372" y="-7.5" font-family="Helvetica,sans-Serif" font-size="10.00">Eigen/Core</text>
</a>
</g>
</g>
<!-- Node6&#45;&gt;Node7 -->
<g id="edge7" class="edge">
<title>Node6&#45;&gt;Node7</title>
<path fill="none" stroke="midnightblue" d="M372,-56.08C372,-49.01 372,-38.86 372,-29.99"/>
<polygon fill="midnightblue" stroke="midnightblue" points="375.5,-29.75 372,-19.75 368.5,-29.75 375.5,-29.75"/>
</g>
</g>
</svg>
