<?xml version="1.0" encoding="UTF-8" standalone="no"?>
<!DOCTYPE svg PUBLIC "-//W3C//DTD SVG 1.1//EN"
 "http://www.w3.org/Graphics/SVG/1.1/DTD/svg11.dtd">
<!-- Generated by graphviz version 2.43.0 (0)
 -->
<!-- Title: lipschitz.hpp Pages: 1 -->
<svg width="1195pt" height="308pt"
 viewBox="0.00 0.00 1195.00 308.00" xmlns="http://www.w3.org/2000/svg" xmlns:xlink="http://www.w3.org/1999/xlink">
<g id="graph0" class="graph" transform="scale(1 1) rotate(0) translate(4 304)">
<title>lipschitz.hpp</title>
<polygon fill="white" stroke="transparent" points="-4,4 -4,-304 1191,-304 1191,4 -4,4"/>
<!-- Node1 -->
<g id="node1" class="node">
<title>Node1</title>
<g id="a_node1"><a xlink:title=" ">
<polygon fill="#bfbfbf" stroke="black" points="310,-280.5 310,-299.5 388,-299.5 388,-280.5 310,-280.5"/>
<text text-anchor="middle" x="349" y="-287.5" font-family="Helvetica,sans-Serif" font-size="10.00">lipschitz.hpp</text>
</a>
</g>
</g>
<!-- Node2 -->
<g id="node2" class="node">
<title>Node2</title>
<g id="a_node2"><a xlink:href="decl_2panoc_8hpp.html" target="_top" xlink:title=" ">
<polygon fill="white" stroke="black" points="652.5,-224.5 652.5,-243.5 719.5,-243.5 719.5,-224.5 652.5,-224.5"/>
<text text-anchor="middle" x="686" y="-231.5" font-family="Helvetica,sans-Serif" font-size="10.00">panoc.hpp</text>
</a>
</g>
</g>
<!-- Node1&#45;&gt;Node2 -->
<g id="edge1" class="edge">
<title>Node1&#45;&gt;Node2</title>
<path fill="none" stroke="midnightblue" d="M398.58,-281.06C468.14,-269.91 592.86,-249.92 652.48,-240.37"/>
<polygon fill="midnightblue" stroke="midnightblue" points="397.64,-277.66 388.32,-282.7 398.75,-284.57 397.64,-277.66"/>
</g>
<!-- Node13 -->
<g id="node13" class="node">
<title>Node13</title>
<g id="a_node13"><a xlink:href="decl_2second-order-panoc_8hpp.html" target="_top" xlink:title=" ">
<polygon fill="white" stroke="black" points="935,-224.5 935,-243.5 1069,-243.5 1069,-224.5 935,-224.5"/>
<text text-anchor="middle" x="1002" y="-231.5" font-family="Helvetica,sans-Serif" font-size="10.00">second&#45;order&#45;panoc.hpp</text>
</a>
</g>
</g>
<!-- Node1&#45;&gt;Node13 -->
<g id="edge17" class="edge">
<title>Node1&#45;&gt;Node13</title>
<path fill="none" stroke="midnightblue" d="M398.38,-284.92C514.12,-275.35 803.1,-251.45 934.75,-240.56"/>
<polygon fill="midnightblue" stroke="midnightblue" points="398.06,-281.43 388.38,-285.74 398.63,-288.41 398.06,-281.43"/>
</g>
<!-- Node16 -->
<g id="node16" class="node">
<title>Node16</title>
<g id="a_node16"><a xlink:href="decl_2structured-panoc-lbfgs_8hpp.html" target="_top" xlink:title=" ">
<polygon fill="white" stroke="black" points="13,-112.5 13,-131.5 161,-131.5 161,-112.5 13,-112.5"/>
<text text-anchor="middle" x="87" y="-119.5" font-family="Helvetica,sans-Serif" font-size="10.00">structured&#45;panoc&#45;lbfgs.hpp</text>
</a>
</g>
</g>
<!-- Node1&#45;&gt;Node16 -->
<g id="edge20" class="edge">
<title>Node1&#45;&gt;Node16</title>
<path fill="none" stroke="midnightblue" d="M326.67,-274.85C273.97,-241.46 143.1,-158.55 100.58,-131.61"/>
<polygon fill="midnightblue" stroke="midnightblue" points="324.96,-277.91 335.28,-280.31 328.71,-272 324.96,-277.91"/>
</g>
<!-- Node19 -->
<g id="node19" class="node">
<title>Node19</title>
<g id="a_node19"><a xlink:href="guarded-aa-pga_8hpp.html" target="_top" xlink:title=" ">
<polygon fill="white" stroke="black" points="291.5,-112.5 291.5,-131.5 406.5,-131.5 406.5,-112.5 291.5,-112.5"/>
<text text-anchor="middle" x="349" y="-119.5" font-family="Helvetica,sans-Serif" font-size="10.00">guarded&#45;aa&#45;pga.hpp</text>
</a>
</g>
</g>
<!-- Node1&#45;&gt;Node19 -->
<g id="edge26" class="edge">
<title>Node1&#45;&gt;Node19</title>
<path fill="none" stroke="midnightblue" d="M349,-269.93C349,-233.92 349,-157.23 349,-131.57"/>
<polygon fill="midnightblue" stroke="midnightblue" points="345.5,-270.08 349,-280.08 352.5,-270.08 345.5,-270.08"/>
</g>
<!-- Node20 -->
<g id="node20" class="node">
<title>Node20</title>
<g id="a_node20"><a xlink:href="pga_8hpp.html" target="_top" xlink:title=" ">
<polygon fill="white" stroke="black" points="179,-112.5 179,-131.5 235,-131.5 235,-112.5 179,-112.5"/>
<text text-anchor="middle" x="207" y="-119.5" font-family="Helvetica,sans-Serif" font-size="10.00">pga.hpp</text>
</a>
</g>
</g>
<!-- Node1&#45;&gt;Node20 -->
<g id="edge30" class="edge">
<title>Node1&#45;&gt;Node20</title>
<path fill="none" stroke="midnightblue" d="M331.76,-273.66C310.91,-254.66 275.34,-220.77 249,-188 233.85,-169.15 219.24,-144.67 211.9,-131.8"/>
<polygon fill="midnightblue" stroke="midnightblue" points="329.47,-276.3 339.23,-280.4 334.16,-271.11 329.47,-276.3"/>
</g>
<!-- Node3 -->
<g id="node3" class="node">
<title>Node3</title>
<g id="a_node3"><a xlink:href="panoc_8hpp.html" target="_top" xlink:title=" ">
<polygon fill="white" stroke="black" points="694.5,-168.5 694.5,-187.5 761.5,-187.5 761.5,-168.5 694.5,-168.5"/>
<text text-anchor="middle" x="728" y="-175.5" font-family="Helvetica,sans-Serif" font-size="10.00">panoc.hpp</text>
</a>
</g>
</g>
<!-- Node2&#45;&gt;Node3 -->
<g id="edge2" class="edge">
<title>Node2&#45;&gt;Node3</title>
<path fill="none" stroke="midnightblue" d="M699.11,-216.14C706.43,-206.74 715.24,-195.4 721.19,-187.75"/>
<polygon fill="midnightblue" stroke="midnightblue" points="696.31,-214.04 692.94,-224.08 701.84,-218.34 696.31,-214.04"/>
</g>
<!-- Node4 -->
<g id="node4" class="node">
<title>Node4</title>
<g id="a_node4"><a xlink:href="panocpy_8cpp.html" target="_top" xlink:title="This file defines all Python bindings.">
<polygon fill="white" stroke="black" points="435.5,-0.5 435.5,-19.5 512.5,-19.5 512.5,-0.5 435.5,-0.5"/>
<text text-anchor="middle" x="474" y="-7.5" font-family="Helvetica,sans-Serif" font-size="10.00">panocpy.cpp</text>
</a>
</g>
</g>
<!-- Node2&#45;&gt;Node4 -->
<g id="edge14" class="edge">
<title>Node2&#45;&gt;Node4</title>
<path fill="none" stroke="midnightblue" d="M729.8,-227.46C804.59,-215.95 945.14,-184.26 905,-112 882.12,-70.82 859.35,-71.88 815,-56 710.15,-18.45 577.09,-11.73 512.57,-10.85"/>
<polygon fill="midnightblue" stroke="midnightblue" points="729.09,-224.03 719.71,-228.95 730.12,-230.95 729.09,-224.03"/>
</g>
<!-- Node10 -->
<g id="node10" class="node">
<title>Node10</title>
<g id="a_node10"><a xlink:href="kwargs-to-struct_8hpp.html" target="_top" xlink:title="This file defines mappings from Python dicts (kwargs) to simple parameter structs.">
<polygon fill="white" stroke="black" points="204,-56.5 204,-75.5 322,-75.5 322,-56.5 204,-56.5"/>
<text text-anchor="middle" x="263" y="-63.5" font-family="Helvetica,sans-Serif" font-size="10.00">kwargs&#45;to&#45;struct.hpp</text>
</a>
</g>
</g>
<!-- Node2&#45;&gt;Node10 -->
<g id="edge12" class="edge">
<title>Node2&#45;&gt;Node10</title>
<path fill="none" stroke="midnightblue" d="M642.26,-227.59C548.78,-215.16 333.81,-181.8 282,-132 266.24,-116.84 263.35,-89.4 262.95,-75.52"/>
<polygon fill="midnightblue" stroke="midnightblue" points="641.88,-231.06 652.25,-228.89 642.79,-224.12 641.88,-231.06"/>
</g>
<!-- Node11 -->
<g id="node11" class="node">
<title>Node11</title>
<g id="a_node11"><a xlink:href="CasADi_2Rosenbrock_2main_8cpp.html" target="_top" xlink:title=" ">
<polygon fill="white" stroke="black" points="973,-168.5 973,-187.5 1035,-187.5 1035,-168.5 973,-168.5"/>
<text text-anchor="middle" x="1004" y="-175.5" font-family="Helvetica,sans-Serif" font-size="10.00">main.cpp</text>
</a>
</g>
</g>
<!-- Node2&#45;&gt;Node11 -->
<g id="edge15" class="edge">
<title>Node2&#45;&gt;Node11</title>
<path fill="none" stroke="midnightblue" d="M729.6,-226.28C783.55,-217.86 878.2,-202.73 959,-188 963.39,-187.2 968.01,-186.32 972.55,-185.43"/>
<polygon fill="midnightblue" stroke="midnightblue" points="729.03,-222.83 719.69,-227.83 730.11,-229.75 729.03,-222.83"/>
</g>
<!-- Node12 -->
<g id="node12" class="node">
<title>Node12</title>
<g id="a_node12"><a xlink:href="CUTEst_2Rosenbrock_2main_8cpp.html" target="_top" xlink:title=" ">
<polygon fill="white" stroke="black" points="614,-168.5 614,-187.5 676,-187.5 676,-168.5 614,-168.5"/>
<text text-anchor="middle" x="645" y="-175.5" font-family="Helvetica,sans-Serif" font-size="10.00">main.cpp</text>
</a>
</g>
</g>
<!-- Node2&#45;&gt;Node12 -->
<g id="edge16" class="edge">
<title>Node2&#45;&gt;Node12</title>
<path fill="none" stroke="midnightblue" d="M672.98,-215.86C665.88,-206.5 657.4,-195.33 651.64,-187.75"/>
<polygon fill="midnightblue" stroke="midnightblue" points="670.39,-218.24 679.23,-224.08 675.97,-214 670.39,-218.24"/>
</g>
<!-- Node3&#45;&gt;Node4 -->
<g id="edge3" class="edge">
<title>Node3&#45;&gt;Node4</title>
<path fill="none" stroke="midnightblue" d="M771.94,-174.33C829.95,-169.13 921.11,-154.15 888,-112 841.39,-52.65 606.17,-23.75 512.54,-14.46"/>
<polygon fill="midnightblue" stroke="midnightblue" points="771.56,-170.85 761.88,-175.17 772.14,-177.83 771.56,-170.85"/>
</g>
<!-- Node5 -->
<g id="node5" class="node">
<title>Node5</title>
<g id="a_node5"><a xlink:href="polymorphic-inner-solver_8hpp.html" target="_top" xlink:title=" ">
<polygon fill="white" stroke="black" points="340,-56.5 340,-75.5 500,-75.5 500,-56.5 340,-56.5"/>
<text text-anchor="middle" x="420" y="-63.5" font-family="Helvetica,sans-Serif" font-size="10.00">polymorphic&#45;inner&#45;solver.hpp</text>
</a>
</g>
</g>
<!-- Node3&#45;&gt;Node5 -->
<g id="edge4" class="edge">
<title>Node3&#45;&gt;Node5</title>
<path fill="none" stroke="midnightblue" d="M684.29,-168.08C580.06,-151.87 535.91,-190.69 454,-132 434.74,-118.2 425.52,-90.14 421.92,-75.83"/>
<polygon fill="midnightblue" stroke="midnightblue" points="683.79,-171.54 694.23,-169.76 684.96,-164.64 683.79,-171.54"/>
</g>
<!-- Node6 -->
<g id="node6" class="node">
<title>Node6</title>
<g id="a_node6"><a xlink:href="polymorphic-panoc-direction_8hpp.html" target="_top" xlink:title=" ">
<polygon fill="white" stroke="black" points="463,-112.5 463,-131.5 641,-131.5 641,-112.5 463,-112.5"/>
<text text-anchor="middle" x="552" y="-119.5" font-family="Helvetica,sans-Serif" font-size="10.00">polymorphic&#45;panoc&#45;direction.hpp</text>
</a>
</g>
</g>
<!-- Node3&#45;&gt;Node6 -->
<g id="edge6" class="edge">
<title>Node3&#45;&gt;Node6</title>
<path fill="none" stroke="midnightblue" d="M690.31,-165.44C657.13,-155.26 609.57,-140.66 579.76,-131.52"/>
<polygon fill="midnightblue" stroke="midnightblue" points="689.53,-168.86 700.11,-168.44 691.58,-162.16 689.53,-168.86"/>
</g>
<!-- Node7 -->
<g id="node7" class="node">
<title>Node7</title>
<g id="a_node7"><a xlink:href="alm_8cpp.html" target="_top" xlink:title=" ">
<polygon fill="white" stroke="black" points="739,-112.5 739,-131.5 795,-131.5 795,-112.5 739,-112.5"/>
<text text-anchor="middle" x="767" y="-119.5" font-family="Helvetica,sans-Serif" font-size="10.00">alm.cpp</text>
</a>
</g>
</g>
<!-- Node3&#45;&gt;Node7 -->
<g id="edge9" class="edge">
<title>Node3&#45;&gt;Node7</title>
<path fill="none" stroke="midnightblue" d="M740.38,-159.86C747.14,-150.5 755.21,-139.33 760.68,-131.75"/>
<polygon fill="midnightblue" stroke="midnightblue" points="737.46,-157.93 734.44,-168.08 743.13,-162.03 737.46,-157.93"/>
</g>
<!-- Node8 -->
<g id="node8" class="node">
<title>Node8</title>
<g id="a_node8"><a xlink:href="panoc_8cpp.html" target="_top" xlink:title=" ">
<polygon fill="white" stroke="black" points="813,-112.5 813,-131.5 879,-131.5 879,-112.5 813,-112.5"/>
<text text-anchor="middle" x="846" y="-119.5" font-family="Helvetica,sans-Serif" font-size="10.00">panoc.cpp</text>
</a>
</g>
</g>
<!-- Node3&#45;&gt;Node8 -->
<g id="edge10" class="edge">
<title>Node3&#45;&gt;Node8</title>
<path fill="none" stroke="midnightblue" d="M755.9,-164.23C777.97,-154.13 808.18,-140.31 827.39,-131.52"/>
<polygon fill="midnightblue" stroke="midnightblue" points="754.33,-161.1 746.7,-168.44 757.25,-167.46 754.33,-161.1"/>
</g>
<!-- Node9 -->
<g id="node9" class="node">
<title>Node9</title>
<g id="a_node9"><a xlink:href="Presentation_2Cpp_2main_8cpp.html" target="_top" xlink:title=" ">
<polygon fill="white" stroke="black" points="659,-112.5 659,-131.5 721,-131.5 721,-112.5 659,-112.5"/>
<text text-anchor="middle" x="690" y="-119.5" font-family="Helvetica,sans-Serif" font-size="10.00">main.cpp</text>
</a>
</g>
</g>
<!-- Node3&#45;&gt;Node9 -->
<g id="edge11" class="edge">
<title>Node3&#45;&gt;Node9</title>
<path fill="none" stroke="midnightblue" d="M715.94,-159.86C709.36,-150.5 701.49,-139.33 696.16,-131.75"/>
<polygon fill="midnightblue" stroke="midnightblue" points="713.11,-161.92 721.73,-168.08 718.83,-157.89 713.11,-161.92"/>
</g>
<!-- Node5&#45;&gt;Node4 -->
<g id="edge5" class="edge">
<title>Node5&#45;&gt;Node4</title>
<path fill="none" stroke="midnightblue" d="M436,-49C445.57,-39.43 457.36,-27.64 465.25,-19.75"/>
<polygon fill="midnightblue" stroke="midnightblue" points="433.51,-46.54 428.92,-56.08 438.46,-51.49 433.51,-46.54"/>
</g>
<!-- Node6&#45;&gt;Node4 -->
<g id="edge7" class="edge">
<title>Node6&#45;&gt;Node4</title>
<path fill="none" stroke="midnightblue" d="M553.02,-101.99C552.87,-88.21 550.75,-69.67 542,-56 531.09,-38.95 511.15,-26.91 495.67,-19.6"/>
<polygon fill="midnightblue" stroke="midnightblue" points="549.51,-102.16 552.78,-112.23 556.51,-102.32 549.51,-102.16"/>
</g>
<!-- Node6&#45;&gt;Node5 -->
<g id="edge8" class="edge">
<title>Node6&#45;&gt;Node5</title>
<path fill="none" stroke="midnightblue" d="M521.78,-108.64C497.01,-98.5 462.6,-84.43 440.82,-75.52"/>
<polygon fill="midnightblue" stroke="midnightblue" points="520.5,-111.9 531.08,-112.44 523.15,-105.42 520.5,-111.9"/>
</g>
<!-- Node10&#45;&gt;Node4 -->
<g id="edge13" class="edge">
<title>Node10&#45;&gt;Node4</title>
<path fill="none" stroke="midnightblue" d="M306.14,-53.96C345.99,-43.76 404.36,-28.82 440.72,-19.52"/>
<polygon fill="midnightblue" stroke="midnightblue" points="305.25,-50.57 296.43,-56.44 306.99,-57.35 305.25,-50.57"/>
</g>
<!-- Node14 -->
<g id="node14" class="node">
<title>Node14</title>
<g id="a_node14"><a xlink:href="second-order-panoc_8hpp.html" target="_top" xlink:title=" ">
<polygon fill="white" stroke="black" points="1053,-168.5 1053,-187.5 1187,-187.5 1187,-168.5 1053,-168.5"/>
<text text-anchor="middle" x="1120" y="-175.5" font-family="Helvetica,sans-Serif" font-size="10.00">second&#45;order&#45;panoc.hpp</text>
</a>
</g>
</g>
<!-- Node13&#45;&gt;Node14 -->
<g id="edge18" class="edge">
<title>Node13&#45;&gt;Node14</title>
<path fill="none" stroke="midnightblue" d="M1029.9,-220.23C1051.97,-210.13 1082.18,-196.31 1101.39,-187.52"/>
<polygon fill="midnightblue" stroke="midnightblue" points="1028.33,-217.1 1020.7,-224.44 1031.25,-223.46 1028.33,-217.1"/>
</g>
<!-- Node15 -->
<g id="node15" class="node">
<title>Node15</title>
<g id="a_node15"><a xlink:href="second-order-panoc_8cpp.html" target="_top" xlink:title=" ">
<polygon fill="white" stroke="black" points="1053,-112.5 1053,-131.5 1187,-131.5 1187,-112.5 1053,-112.5"/>
<text text-anchor="middle" x="1120" y="-119.5" font-family="Helvetica,sans-Serif" font-size="10.00">second&#45;order&#45;panoc.cpp</text>
</a>
</g>
</g>
<!-- Node14&#45;&gt;Node15 -->
<g id="edge19" class="edge">
<title>Node14&#45;&gt;Node15</title>
<path fill="none" stroke="midnightblue" d="M1120,-157.8C1120,-148.91 1120,-138.78 1120,-131.75"/>
<polygon fill="midnightblue" stroke="midnightblue" points="1116.5,-158.08 1120,-168.08 1123.5,-158.08 1116.5,-158.08"/>
</g>
<!-- Node16&#45;&gt;Node5 -->
<g id="edge25" class="edge">
<title>Node16&#45;&gt;Node5</title>
<path fill="none" stroke="midnightblue" d="M149.96,-110.79C212.88,-100.59 308.52,-85.08 367.48,-75.52"/>
<polygon fill="midnightblue" stroke="midnightblue" points="149.08,-107.39 139.76,-112.44 150.2,-114.3 149.08,-107.39"/>
</g>
<!-- Node16&#45;&gt;Node10 -->
<g id="edge24" class="edge">
<title>Node16&#45;&gt;Node10</title>
<path fill="none" stroke="midnightblue" d="M124.69,-109.44C157.87,-99.26 205.43,-84.66 235.24,-75.52"/>
<polygon fill="midnightblue" stroke="midnightblue" points="123.42,-106.16 114.89,-112.44 125.47,-112.86 123.42,-106.16"/>
</g>
<!-- Node17 -->
<g id="node17" class="node">
<title>Node17</title>
<g id="a_node17"><a xlink:href="structured-panoc-lbfgs_8hpp.html" target="_top" xlink:title=" ">
<polygon fill="white" stroke="black" points="0,-56.5 0,-75.5 148,-75.5 148,-56.5 0,-56.5"/>
<text text-anchor="middle" x="74" y="-63.5" font-family="Helvetica,sans-Serif" font-size="10.00">structured&#45;panoc&#45;lbfgs.hpp</text>
</a>
</g>
</g>
<!-- Node16&#45;&gt;Node17 -->
<g id="edge21" class="edge">
<title>Node16&#45;&gt;Node17</title>
<path fill="none" stroke="midnightblue" d="M82.45,-102.1C80.29,-93.14 77.82,-82.86 76.11,-75.75"/>
<polygon fill="midnightblue" stroke="midnightblue" points="79.11,-103.18 84.85,-112.08 85.92,-101.54 79.11,-103.18"/>
</g>
<!-- Node17&#45;&gt;Node4 -->
<g id="edge22" class="edge">
<title>Node17&#45;&gt;Node4</title>
<path fill="none" stroke="midnightblue" d="M147.48,-55.08C232.43,-43.61 369.05,-25.17 435.38,-16.21"/>
<polygon fill="midnightblue" stroke="midnightblue" points="146.82,-51.64 137.38,-56.44 147.76,-58.57 146.82,-51.64"/>
</g>
<!-- Node18 -->
<g id="node18" class="node">
<title>Node18</title>
<g id="a_node18"><a xlink:href="structured-panoc-lbfgs_8cpp.html" target="_top" xlink:title=" ">
<polygon fill="white" stroke="black" points="0.5,-0.5 0.5,-19.5 147.5,-19.5 147.5,-0.5 0.5,-0.5"/>
<text text-anchor="middle" x="74" y="-7.5" font-family="Helvetica,sans-Serif" font-size="10.00">structured&#45;panoc&#45;lbfgs.cpp</text>
</a>
</g>
</g>
<!-- Node17&#45;&gt;Node18 -->
<g id="edge23" class="edge">
<title>Node17&#45;&gt;Node18</title>
<path fill="none" stroke="midnightblue" d="M74,-45.8C74,-36.91 74,-26.78 74,-19.75"/>
<polygon fill="midnightblue" stroke="midnightblue" points="70.5,-46.08 74,-56.08 77.5,-46.08 70.5,-46.08"/>
</g>
<!-- Node19&#45;&gt;Node4 -->
<g id="edge28" class="edge">
<title>Node19&#45;&gt;Node4</title>
<path fill="none" stroke="midnightblue" d="M415.8,-110.51C454.32,-102.94 497.36,-91.36 509,-76 522.93,-57.61 499.97,-32.95 485.11,-19.92"/>
<polygon fill="midnightblue" stroke="midnightblue" points="414.78,-107.14 405.61,-112.44 416.09,-114.01 414.78,-107.14"/>
</g>
<!-- Node19&#45;&gt;Node5 -->
<g id="edge29" class="edge">
<title>Node19&#45;&gt;Node5</title>
<path fill="none" stroke="midnightblue" d="M368.59,-106.1C381.37,-96.38 397.61,-84.03 408.39,-75.83"/>
<polygon fill="midnightblue" stroke="midnightblue" points="366.25,-103.48 360.41,-112.32 370.49,-109.06 366.25,-103.48"/>
</g>
<!-- Node19&#45;&gt;Node10 -->
<g id="edge27" class="edge">
<title>Node19&#45;&gt;Node10</title>
<path fill="none" stroke="midnightblue" d="M326.55,-106.9C310.78,-97 290.19,-84.07 276.78,-75.65"/>
<polygon fill="midnightblue" stroke="midnightblue" points="324.85,-109.97 335.18,-112.32 328.57,-104.04 324.85,-109.97"/>
</g>
<!-- Node20&#45;&gt;Node4 -->
<g id="edge32" class="edge">
<title>Node20&#45;&gt;Node4</title>
<path fill="none" stroke="midnightblue" d="M196.72,-103.39C189.84,-89.03 183.88,-69.06 195,-56 225.42,-20.28 366.1,-12.82 435.32,-11.32"/>
<polygon fill="midnightblue" stroke="midnightblue" points="193.66,-105.09 201.44,-112.28 199.84,-101.81 193.66,-105.09"/>
</g>
<!-- Node20&#45;&gt;Node5 -->
<g id="edge33" class="edge">
<title>Node20&#45;&gt;Node5</title>
<path fill="none" stroke="midnightblue" d="M244.98,-111.37C285.14,-101.19 347.88,-85.28 386.33,-75.54"/>
<polygon fill="midnightblue" stroke="midnightblue" points="244.12,-107.98 235.28,-113.83 245.84,-114.76 244.12,-107.98"/>
</g>
<!-- Node20&#45;&gt;Node10 -->
<g id="edge31" class="edge">
<title>Node20&#45;&gt;Node10</title>
<path fill="none" stroke="midnightblue" d="M223.33,-105.25C233.26,-95.67 245.59,-83.79 253.84,-75.83"/>
<polygon fill="midnightblue" stroke="midnightblue" points="220.77,-102.86 216,-112.32 225.63,-107.9 220.77,-102.86"/>
</g>
</g>
</svg>
