<?xml version="1.0" encoding="UTF-8" standalone="no"?>
<!DOCTYPE svg PUBLIC "-//W3C//DTD SVG 1.1//EN"
 "http://www.w3.org/Graphics/SVG/1.1/DTD/svg11.dtd">
<!-- Generated by graphviz version 2.43.0 (0)
 -->
<!-- Title: calc_grad_ψ Pages: 1 -->
<svg width="497pt" height="127pt"
 viewBox="0.00 0.00 497.00 126.50" xmlns="http://www.w3.org/2000/svg" xmlns:xlink="http://www.w3.org/1999/xlink">
<g id="graph0" class="graph" transform="scale(1 1) rotate(0) translate(4 122.5)">
<title>calc_grad_ψ</title>
<polygon fill="white" stroke="transparent" points="-4,4 -4,-122.5 493,-122.5 493,4 -4,4"/>
<!-- Node1 -->
<g id="node1" class="node">
<title>Node1</title>
<g id="a_node1"><a xlink:title="Calculate the gradient ∇ψ(x).">
<polygon fill="#bfbfbf" stroke="black" points="414,-45.5 414,-64.5 489,-64.5 489,-45.5 414,-45.5"/>
<text text-anchor="middle" x="451.5" y="-52.5" font-family="Helvetica,sans-Serif" font-size="10.00">calc_grad_ψ</text>
</a>
</g>
</g>
<!-- Node2 -->
<g id="node2" class="node">
<title>Node2</title>
<g id="a_node2"><a xlink:href="namespacepa_1_1detail.html#a384dd0255096b08c79472df49f7f9388" target="_top" xlink:title="Compute the Hessian matrix of the augmented Lagrangian function multiplied by the given vector,...">
<polygon fill="white" stroke="black" points="220.5,-86 220.5,-116 374.5,-116 374.5,-86 220.5,-86"/>
<text text-anchor="start" x="228.5" y="-104" font-family="Helvetica,sans-Serif" font-size="10.00">calc_augmented_lagrangian</text>
<text text-anchor="middle" x="297.5" y="-93" font-family="Helvetica,sans-Serif" font-size="10.00">_hessian_prod_fd</text>
</a>
</g>
</g>
<!-- Node1&#45;&gt;Node2 -->
<g id="edge1" class="edge">
<title>Node1&#45;&gt;Node2</title>
<path fill="none" stroke="midnightblue" d="M409.24,-67.49C390.41,-73.18 367.96,-79.98 348.21,-85.96"/>
<polygon fill="midnightblue" stroke="midnightblue" points="410.45,-70.78 419.01,-64.53 408.42,-64.08 410.45,-70.78"/>
</g>
<!-- Node4 -->
<g id="node4" class="node">
<title>Node4</title>
<g id="a_node4"><a xlink:href="namespacepa_1_1detail.html#a24c0ce181607512a70dae43aa90fea5f" target="_top" xlink:title=" ">
<polygon fill="white" stroke="black" points="228,-45.5 228,-64.5 367,-64.5 367,-45.5 228,-45.5"/>
<text text-anchor="middle" x="297.5" y="-52.5" font-family="Helvetica,sans-Serif" font-size="10.00">initial_lipschitz_estimate</text>
</a>
</g>
</g>
<!-- Node1&#45;&gt;Node4 -->
<g id="edge3" class="edge">
<title>Node1&#45;&gt;Node4</title>
<path fill="none" stroke="midnightblue" d="M403.45,-55C391.93,-55 379.36,-55 367.05,-55"/>
<polygon fill="midnightblue" stroke="midnightblue" points="403.71,-58.5 413.71,-55 403.71,-51.5 403.71,-58.5"/>
</g>
<!-- Node7 -->
<g id="node7" class="node">
<title>Node7</title>
<g id="a_node7"><a xlink:href="classpa_1_1GAAPGASolver.html#a570ec001ea8eee359be8a1b90b782cfb" target="_top" xlink:title=" ">
<polygon fill="white" stroke="black" points="217,-7.5 217,-26.5 378,-26.5 378,-7.5 217,-7.5"/>
<text text-anchor="middle" x="297.5" y="-14.5" font-family="Helvetica,sans-Serif" font-size="10.00">pa::GAAPGASolver::operator()</text>
</a>
</g>
</g>
<!-- Node1&#45;&gt;Node7 -->
<g id="edge7" class="edge">
<title>Node1&#45;&gt;Node7</title>
<path fill="none" stroke="midnightblue" d="M404.91,-42.89C396,-40.57 386.71,-38.18 378,-36 365.47,-32.86 351.81,-29.55 339.39,-26.59"/>
<polygon fill="midnightblue" stroke="midnightblue" points="404.21,-46.33 414.77,-45.47 405.98,-39.55 404.21,-46.33"/>
</g>
<!-- Node3 -->
<g id="node3" class="node">
<title>Node3</title>
<g id="a_node3"><a xlink:href="classpa_1_1StructuredPANOCLBFGSSolver.html#ade95d8a7a1892d4087d6fffc958cde6e" target="_top" xlink:title=" ">
<polygon fill="white" stroke="black" points="0,-88 0,-118 181,-118 181,-88 0,-88"/>
<text text-anchor="start" x="8" y="-106" font-family="Helvetica,sans-Serif" font-size="10.00">pa::StructuredPANOCLBFGSSolver</text>
<text text-anchor="middle" x="90.5" y="-95" font-family="Helvetica,sans-Serif" font-size="10.00">::operator()</text>
</a>
</g>
</g>
<!-- Node2&#45;&gt;Node3 -->
<g id="edge2" class="edge">
<title>Node2&#45;&gt;Node3</title>
<path fill="none" stroke="midnightblue" d="M210.18,-101.84C200.62,-101.94 190.87,-102.03 181.28,-102.12"/>
<polygon fill="midnightblue" stroke="midnightblue" points="210.49,-105.34 220.46,-101.74 210.42,-98.34 210.49,-105.34"/>
</g>
<!-- Node4&#45;&gt;Node3 -->
<g id="edge5" class="edge">
<title>Node4&#45;&gt;Node3</title>
<path fill="none" stroke="midnightblue" d="M245.45,-66.95C218.33,-73.3 184.72,-81.17 155.83,-87.94"/>
<polygon fill="midnightblue" stroke="midnightblue" points="246.57,-70.29 255.51,-64.6 244.97,-63.47 246.57,-70.29"/>
</g>
<!-- Node5 -->
<g id="node5" class="node">
<title>Node5</title>
<g id="a_node5"><a xlink:href="classpa_1_1SecondOrderPANOCSolver.html#acb04b3f19dafad9b4e7e7c1c19018d19" target="_top" xlink:title=" ">
<polygon fill="white" stroke="black" points="10,-39 10,-69 171,-69 171,-39 10,-39"/>
<text text-anchor="start" x="18" y="-57" font-family="Helvetica,sans-Serif" font-size="10.00">pa::SecondOrderPANOCSolver</text>
<text text-anchor="middle" x="90.5" y="-46" font-family="Helvetica,sans-Serif" font-size="10.00">::operator()</text>
</a>
</g>
</g>
<!-- Node4&#45;&gt;Node5 -->
<g id="edge4" class="edge">
<title>Node4&#45;&gt;Node5</title>
<path fill="none" stroke="midnightblue" d="M217.59,-54.62C202.42,-54.54 186.53,-54.46 171.33,-54.39"/>
<polygon fill="midnightblue" stroke="midnightblue" points="217.94,-58.12 227.95,-54.67 217.97,-51.12 217.94,-58.12"/>
</g>
<!-- Node6 -->
<g id="node6" class="node">
<title>Node6</title>
<g id="a_node6"><a xlink:href="classpa_1_1PGASolver.html#af516b794e244432023aea7ba3cd0d1d8" target="_top" xlink:title=" ">
<polygon fill="white" stroke="black" points="20.5,-0.5 20.5,-19.5 160.5,-19.5 160.5,-0.5 20.5,-0.5"/>
<text text-anchor="middle" x="90.5" y="-7.5" font-family="Helvetica,sans-Serif" font-size="10.00">pa::PGASolver::operator()</text>
</a>
</g>
</g>
<!-- Node4&#45;&gt;Node6 -->
<g id="edge6" class="edge">
<title>Node4&#45;&gt;Node6</title>
<path fill="none" stroke="midnightblue" d="M242.9,-43.23C209.25,-35.85 166.43,-26.45 134.91,-19.53"/>
<polygon fill="midnightblue" stroke="midnightblue" points="242.51,-46.73 253.02,-45.46 244.01,-39.89 242.51,-46.73"/>
</g>
</g>
</svg>
