<?xml version="1.0" encoding="UTF-8" standalone="no"?>
<!DOCTYPE svg PUBLIC "-//W3C//DTD SVG 1.1//EN"
 "http://www.w3.org/Graphics/SVG/1.1/DTD/svg11.dtd">
<!-- Generated by graphviz version 2.43.0 (0)
 -->
<!-- Title: norm_inf Pages: 1 -->
<svg width="462pt" height="165pt"
 viewBox="0.00 0.00 462.00 164.50" xmlns="http://www.w3.org/2000/svg" xmlns:xlink="http://www.w3.org/1999/xlink">
<g id="graph0" class="graph" transform="scale(1 1) rotate(0) translate(4 160.5)">
<title>norm_inf</title>
<polygon fill="white" stroke="transparent" points="-4,4 -4,-160.5 458,-160.5 458,4 -4,4"/>
<!-- Node1 -->
<g id="node1" class="node">
<title>Node1</title>
<g id="a_node1"><a xlink:title="Get the maximum or infinity&#45;norm of the given vector.">
<polygon fill="#bfbfbf" stroke="black" points="394,-38.5 394,-57.5 454,-57.5 454,-38.5 394,-38.5"/>
<text text-anchor="middle" x="424" y="-45.5" font-family="Helvetica,sans-Serif" font-size="10.00">norm_inf</text>
</a>
</g>
</g>
<!-- Node2 -->
<g id="node2" class="node">
<title>Node2</title>
<g id="a_node2"><a xlink:href="namespacepa_1_1detail.html#a886972efd9fe413c62efea5eb2cdd0e9" target="_top" xlink:title=" ">
<polygon fill="white" stroke="black" points="229.5,-55 229.5,-85 345.5,-85 345.5,-55 229.5,-55"/>
<text text-anchor="start" x="237.5" y="-73" font-family="Helvetica,sans-Serif" font-size="10.00">pa::detail::calc_error</text>
<text text-anchor="middle" x="287.5" y="-62" font-family="Helvetica,sans-Serif" font-size="10.00">_stop_crit</text>
</a>
</g>
</g>
<!-- Node1&#45;&gt;Node2 -->
<g id="edge1" class="edge">
<title>Node1&#45;&gt;Node2</title>
<path fill="none" stroke="midnightblue" d="M383.74,-54.42C371.8,-56.38 358.42,-58.56 345.56,-60.67"/>
<polygon fill="midnightblue" stroke="midnightblue" points="384.51,-57.84 393.82,-52.77 383.38,-50.93 384.51,-57.84"/>
</g>
<!-- Node7 -->
<g id="node7" class="node">
<title>Node7</title>
<g id="a_node7"><a xlink:href="classpa_1_1ALMSolver.html#a3383f0f2b3a6516f8f031396e1a1289c" target="_top" xlink:title=" ">
<polygon fill="white" stroke="black" points="217,-16.5 217,-35.5 358,-35.5 358,-16.5 217,-16.5"/>
<text text-anchor="middle" x="287.5" y="-23.5" font-family="Helvetica,sans-Serif" font-size="10.00">pa::ALMSolver::operator()</text>
</a>
</g>
</g>
<!-- Node1&#45;&gt;Node7 -->
<g id="edge6" class="edge">
<title>Node1&#45;&gt;Node7</title>
<path fill="none" stroke="midnightblue" d="M383.61,-41.56C372.04,-39.66 359.13,-37.55 346.65,-35.51"/>
<polygon fill="midnightblue" stroke="midnightblue" points="383.38,-45.07 393.82,-43.23 384.51,-38.16 383.38,-45.07"/>
</g>
<!-- Node3 -->
<g id="node3" class="node">
<title>Node3</title>
<g id="a_node3"><a xlink:href="classpa_1_1SecondOrderPANOCSolver.html#acb04b3f19dafad9b4e7e7c1c19018d19" target="_top" xlink:title=" ">
<polygon fill="white" stroke="black" points="10,-126 10,-156 171,-156 171,-126 10,-126"/>
<text text-anchor="start" x="18" y="-144" font-family="Helvetica,sans-Serif" font-size="10.00">pa::SecondOrderPANOCSolver</text>
<text text-anchor="middle" x="90.5" y="-133" font-family="Helvetica,sans-Serif" font-size="10.00">::operator()</text>
</a>
</g>
</g>
<!-- Node2&#45;&gt;Node3 -->
<g id="edge2" class="edge">
<title>Node2&#45;&gt;Node3</title>
<path fill="none" stroke="midnightblue" d="M246.89,-89.42C227.35,-98.54 203.25,-109.12 181,-117 172.05,-120.17 162.48,-123.15 153.04,-125.87"/>
<polygon fill="midnightblue" stroke="midnightblue" points="248.54,-92.51 256.09,-85.08 245.55,-86.18 248.54,-92.51"/>
</g>
<!-- Node4 -->
<g id="node4" class="node">
<title>Node4</title>
<g id="a_node4"><a xlink:href="classpa_1_1StructuredPANOCLBFGSSolver.html#ade95d8a7a1892d4087d6fffc958cde6e" target="_top" xlink:title=" ">
<polygon fill="white" stroke="black" points="0,-77 0,-107 181,-107 181,-77 0,-77"/>
<text text-anchor="start" x="8" y="-95" font-family="Helvetica,sans-Serif" font-size="10.00">pa::StructuredPANOCLBFGSSolver</text>
<text text-anchor="middle" x="90.5" y="-84" font-family="Helvetica,sans-Serif" font-size="10.00">::operator()</text>
</a>
</g>
</g>
<!-- Node2&#45;&gt;Node4 -->
<g id="edge3" class="edge">
<title>Node2&#45;&gt;Node4</title>
<path fill="none" stroke="midnightblue" d="M219.22,-77.59C207,-78.97 194.06,-80.43 181.31,-81.87"/>
<polygon fill="midnightblue" stroke="midnightblue" points="219.77,-81.05 229.31,-76.45 218.98,-74.1 219.77,-81.05"/>
</g>
<!-- Node5 -->
<g id="node5" class="node">
<title>Node5</title>
<g id="a_node5"><a xlink:href="classpa_1_1GAAPGASolver.html#a570ec001ea8eee359be8a1b90b782cfb" target="_top" xlink:title=" ">
<polygon fill="white" stroke="black" points="10,-38.5 10,-57.5 171,-57.5 171,-38.5 10,-38.5"/>
<text text-anchor="middle" x="90.5" y="-45.5" font-family="Helvetica,sans-Serif" font-size="10.00">pa::GAAPGASolver::operator()</text>
</a>
</g>
</g>
<!-- Node2&#45;&gt;Node5 -->
<g id="edge4" class="edge">
<title>Node2&#45;&gt;Node5</title>
<path fill="none" stroke="midnightblue" d="M219.3,-62.42C203.78,-60.67 187.12,-58.79 171.13,-56.98"/>
<polygon fill="midnightblue" stroke="midnightblue" points="218.98,-65.9 229.31,-63.55 219.77,-58.95 218.98,-65.9"/>
</g>
<!-- Node6 -->
<g id="node6" class="node">
<title>Node6</title>
<g id="a_node6"><a xlink:href="classpa_1_1PGASolver.html#af516b794e244432023aea7ba3cd0d1d8" target="_top" xlink:title=" ">
<polygon fill="white" stroke="black" points="20.5,-0.5 20.5,-19.5 160.5,-19.5 160.5,-0.5 20.5,-0.5"/>
<text text-anchor="middle" x="90.5" y="-7.5" font-family="Helvetica,sans-Serif" font-size="10.00">pa::PGASolver::operator()</text>
</a>
</g>
</g>
<!-- Node2&#45;&gt;Node6 -->
<g id="edge5" class="edge">
<title>Node2&#45;&gt;Node6</title>
<path fill="none" stroke="midnightblue" d="M233.54,-51.41C227.94,-49.3 222.34,-47.14 217,-45 200.75,-38.48 197.65,-34.4 181,-29 169.67,-25.32 157.29,-22.17 145.46,-19.55"/>
<polygon fill="midnightblue" stroke="midnightblue" points="232.35,-54.69 242.94,-54.88 234.77,-48.13 232.35,-54.69"/>
</g>
</g>
</svg>
