<?xml version="1.0" encoding="UTF-8" standalone="no"?>
<!DOCTYPE svg PUBLIC "-//W3C//DTD SVG 1.1//EN"
 "http://www.w3.org/Graphics/SVG/1.1/DTD/svg11.dtd">
<!-- Generated by graphviz version 2.43.0 (0)
 -->
<!-- Title: initial_lipschitz_estimate Pages: 1 -->
<svg width="698pt" height="104pt"
 viewBox="0.00 0.00 698.00 104.00" xmlns="http://www.w3.org/2000/svg" xmlns:xlink="http://www.w3.org/1999/xlink">
<g id="graph0" class="graph" transform="scale(1 1) rotate(0) translate(4 100)">
<title>initial_lipschitz_estimate</title>
<polygon fill="white" stroke="transparent" points="-4,4 -4,-100 694,-100 694,4 -4,4"/>
<!-- Node1 -->
<g id="node1" class="node">
<title>Node1</title>
<g id="a_node1"><a xlink:title=" ">
<polygon fill="#bfbfbf" stroke="black" points="0,-57.5 0,-76.5 139,-76.5 139,-57.5 0,-57.5"/>
<text text-anchor="middle" x="69.5" y="-64.5" font-family="Helvetica,sans-Serif" font-size="10.00">initial_lipschitz_estimate</text>
</a>
</g>
</g>
<!-- Node2 -->
<g id="node2" class="node">
<title>Node2</title>
<g id="a_node2"><a xlink:href="namespacepa_1_1detail.html#a6572cf745448d2b40e9d5e977d17d5e2" target="_top" xlink:title="Calculate the gradient ∇ψ(x).">
<polygon fill="white" stroke="black" points="181,-76.5 181,-95.5 256,-95.5 256,-76.5 181,-76.5"/>
<text text-anchor="middle" x="218.5" y="-83.5" font-family="Helvetica,sans-Serif" font-size="10.00">calc_grad_ψ</text>
</a>
</g>
</g>
<!-- Node1&#45;&gt;Node2 -->
<g id="edge1" class="edge">
<title>Node1&#45;&gt;Node2</title>
<path fill="none" stroke="midnightblue" d="M139.27,-75.89C149.91,-77.26 160.69,-78.66 170.71,-79.95"/>
<polygon fill="midnightblue" stroke="midnightblue" points="170.47,-83.45 180.83,-81.26 171.36,-76.51 170.47,-83.45"/>
</g>
<!-- Node5 -->
<g id="node5" class="node">
<title>Node5</title>
<g id="a_node5"><a xlink:href="namespacepa_1_1detail.html#aa986daa1d5f0dfdbc75c143d2aae2919" target="_top" xlink:title="Calculate both ψ(x) and its gradient ∇ψ(x).">
<polygon fill="white" stroke="black" points="175,-38.5 175,-57.5 262,-57.5 262,-38.5 175,-38.5"/>
<text text-anchor="middle" x="218.5" y="-45.5" font-family="Helvetica,sans-Serif" font-size="10.00">calc_ψ_grad_ψ</text>
</a>
</g>
</g>
<!-- Node1&#45;&gt;Node5 -->
<g id="edge4" class="edge">
<title>Node1&#45;&gt;Node5</title>
<path fill="none" stroke="midnightblue" d="M139.27,-58.11C147.78,-57.01 156.37,-55.9 164.6,-54.84"/>
<polygon fill="midnightblue" stroke="midnightblue" points="165.31,-58.28 174.78,-53.52 164.41,-51.33 165.31,-58.28"/>
</g>
<!-- Node3 -->
<g id="node3" class="node">
<title>Node3</title>
<g id="a_node3"><a xlink:href="namespacepa.html#aee505a26e46aa4c0ce09d0fed72f0dac" target="_top" xlink:title="Get the difference between the given vector and its projection.">
<polygon fill="white" stroke="black" points="449,-38.5 449,-57.5 586,-57.5 586,-38.5 449,-38.5"/>
<text text-anchor="middle" x="517.5" y="-45.5" font-family="Helvetica,sans-Serif" font-size="10.00">pa::projecting_difference</text>
</a>
</g>
</g>
<!-- Node2&#45;&gt;Node3 -->
<g id="edge2" class="edge">
<title>Node2&#45;&gt;Node3</title>
<path fill="none" stroke="midnightblue" d="M256.34,-83.3C295.36,-80.24 358.68,-74.64 413,-67 427.99,-64.89 444.13,-62.16 459.09,-59.42"/>
<polygon fill="midnightblue" stroke="midnightblue" points="460.04,-62.81 469.23,-57.54 458.76,-55.92 460.04,-62.81"/>
</g>
<!-- Node4 -->
<g id="node4" class="node">
<title>Node4</title>
<g id="a_node4"><a xlink:href="namespacepa.html#a5414901c2fb62f1fd47857642964cc71" target="_top" xlink:title="Project a vector onto a box.">
<polygon fill="white" stroke="black" points="622,-38.5 622,-57.5 690,-57.5 690,-38.5 622,-38.5"/>
<text text-anchor="middle" x="656" y="-45.5" font-family="Helvetica,sans-Serif" font-size="10.00">pa::project</text>
</a>
</g>
</g>
<!-- Node3&#45;&gt;Node4 -->
<g id="edge3" class="edge">
<title>Node3&#45;&gt;Node4</title>
<path fill="none" stroke="midnightblue" d="M586.35,-48C594.91,-48 603.48,-48 611.52,-48"/>
<polygon fill="midnightblue" stroke="midnightblue" points="611.73,-51.5 621.73,-48 611.73,-44.5 611.73,-51.5"/>
</g>
<!-- Node6 -->
<g id="node6" class="node">
<title>Node6</title>
<g id="a_node6"><a xlink:href="namespacepa_1_1detail.html#a908a0589ddf8734417f5481395e197d2" target="_top" xlink:title="Calculate ∇ψ(x) using ŷ.">
<polygon fill="white" stroke="black" points="298,-38.5 298,-57.5 413,-57.5 413,-38.5 298,-38.5"/>
<text text-anchor="middle" x="355.5" y="-45.5" font-family="Helvetica,sans-Serif" font-size="10.00">calc_grad_ψ_from_ŷ</text>
</a>
</g>
</g>
<!-- Node5&#45;&gt;Node6 -->
<g id="edge5" class="edge">
<title>Node5&#45;&gt;Node6</title>
<path fill="none" stroke="midnightblue" d="M262.21,-48C270.32,-48 278.98,-48 287.63,-48"/>
<polygon fill="midnightblue" stroke="midnightblue" points="287.74,-51.5 297.74,-48 287.74,-44.5 287.74,-51.5"/>
</g>
<!-- Node7 -->
<g id="node7" class="node">
<title>Node7</title>
<g id="a_node7"><a xlink:href="namespacepa_1_1detail.html#a82a03662e6ce5bcfd57ee2df719aec21" target="_top" xlink:title="Calculate both ψ(x) and the vector ŷ that can later be used to compute ∇ψ.">
<polygon fill="white" stroke="black" points="326,-0.5 326,-19.5 385,-19.5 385,-0.5 326,-0.5"/>
<text text-anchor="middle" x="355.5" y="-7.5" font-family="Helvetica,sans-Serif" font-size="10.00">calc_ψ_ŷ</text>
</a>
</g>
</g>
<!-- Node5&#45;&gt;Node7 -->
<g id="edge6" class="edge">
<title>Node5&#45;&gt;Node7</title>
<path fill="none" stroke="midnightblue" d="M253.57,-38.41C272.59,-33.06 296.35,-26.37 316.04,-20.82"/>
<polygon fill="midnightblue" stroke="midnightblue" points="317.24,-24.12 325.92,-18.04 315.35,-17.38 317.24,-24.12"/>
</g>
<!-- Node7&#45;&gt;Node3 -->
<g id="edge7" class="edge">
<title>Node7&#45;&gt;Node3</title>
<path fill="none" stroke="midnightblue" d="M385.1,-16.79C407.66,-22.15 439.67,-29.75 466.45,-36.11"/>
<polygon fill="midnightblue" stroke="midnightblue" points="465.89,-39.58 476.42,-38.48 467.5,-32.77 465.89,-39.58"/>
</g>
</g>
</svg>
