<?xml version="1.0" encoding="UTF-8" standalone="no"?>
<!DOCTYPE svg PUBLIC "-//W3C//DTD SVG 1.1//EN"
 "http://www.w3.org/Graphics/SVG/1.1/DTD/svg11.dtd">
<!-- Generated by graphviz version 2.43.0 (0)
 -->
<!-- Title: descent_lemma Pages: 1 -->
<svg width="320pt" height="203pt"
 viewBox="0.00 0.00 320.00 203.00" xmlns="http://www.w3.org/2000/svg" xmlns:xlink="http://www.w3.org/1999/xlink">
<g id="graph0" class="graph" transform="scale(1 1) rotate(0) translate(4 199)">
<title>descent_lemma</title>
<polygon fill="white" stroke="transparent" points="-4,4 -4,-199 316,-199 316,4 -4,4"/>
<!-- Node1 -->
<g id="node1" class="node">
<title>Node1</title>
<g id="a_node1"><a xlink:title="Increase the estimate of the Lipschitz constant of the objective gradient and decrease the step size ...">
<polygon fill="#bfbfbf" stroke="black" points="217,-82.5 217,-101.5 312,-101.5 312,-82.5 217,-82.5"/>
<text text-anchor="middle" x="264.5" y="-89.5" font-family="Helvetica,sans-Serif" font-size="10.00">descent_lemma</text>
</a>
</g>
</g>
<!-- Node2 -->
<g id="node2" class="node">
<title>Node2</title>
<g id="a_node2"><a xlink:href="classpa_1_1PANOCSolver.html#aaa9758a40bd362331202fb232b4bb7ae" target="_top" xlink:title=" ">
<polygon fill="white" stroke="black" points="13.5,-175.5 13.5,-194.5 167.5,-194.5 167.5,-175.5 13.5,-175.5"/>
<text text-anchor="middle" x="90.5" y="-182.5" font-family="Helvetica,sans-Serif" font-size="10.00">pa::PANOCSolver::operator()</text>
</a>
</g>
</g>
<!-- Node1&#45;&gt;Node2 -->
<g id="edge1" class="edge">
<title>Node1&#45;&gt;Node2</title>
<path fill="none" stroke="midnightblue" d="M249.17,-109.31C234.03,-126.41 208.57,-151.99 181,-166 173.35,-169.89 164.95,-172.98 156.45,-175.44"/>
<polygon fill="midnightblue" stroke="midnightblue" points="251.87,-111.54 255.74,-101.68 246.56,-106.97 251.87,-111.54"/>
</g>
<!-- Node3 -->
<g id="node3" class="node">
<title>Node3</title>
<g id="a_node3"><a xlink:href="classpa_1_1SecondOrderPANOCSolver.html#acb04b3f19dafad9b4e7e7c1c19018d19" target="_top" xlink:title=" ">
<polygon fill="white" stroke="black" points="10,-126 10,-156 171,-156 171,-126 10,-126"/>
<text text-anchor="start" x="18" y="-144" font-family="Helvetica,sans-Serif" font-size="10.00">pa::SecondOrderPANOCSolver</text>
<text text-anchor="middle" x="90.5" y="-133" font-family="Helvetica,sans-Serif" font-size="10.00">::operator()</text>
</a>
</g>
</g>
<!-- Node1&#45;&gt;Node3 -->
<g id="edge2" class="edge">
<title>Node1&#45;&gt;Node3</title>
<path fill="none" stroke="midnightblue" d="M222.8,-104.62C209.5,-108.66 194.65,-113.1 181,-117 170.64,-119.96 159.57,-123.01 148.87,-125.91"/>
<polygon fill="midnightblue" stroke="midnightblue" points="224.08,-107.89 232.62,-101.62 222.03,-101.19 224.08,-107.89"/>
</g>
<!-- Node4 -->
<g id="node4" class="node">
<title>Node4</title>
<g id="a_node4"><a xlink:href="classpa_1_1StructuredPANOCLBFGSSolver.html#ade95d8a7a1892d4087d6fffc958cde6e" target="_top" xlink:title=" ">
<polygon fill="white" stroke="black" points="0,-77 0,-107 181,-107 181,-77 0,-77"/>
<text text-anchor="start" x="8" y="-95" font-family="Helvetica,sans-Serif" font-size="10.00">pa::StructuredPANOCLBFGSSolver</text>
<text text-anchor="middle" x="90.5" y="-84" font-family="Helvetica,sans-Serif" font-size="10.00">::operator()</text>
</a>
</g>
</g>
<!-- Node1&#45;&gt;Node4 -->
<g id="edge3" class="edge">
<title>Node1&#45;&gt;Node4</title>
<path fill="none" stroke="midnightblue" d="M206.76,-92C198.52,-92 189.87,-92 181.17,-92"/>
<polygon fill="midnightblue" stroke="midnightblue" points="206.95,-95.5 216.95,-92 206.95,-88.5 206.95,-95.5"/>
</g>
<!-- Node5 -->
<g id="node5" class="node">
<title>Node5</title>
<g id="a_node5"><a xlink:href="classpa_1_1GAAPGASolver.html#a570ec001ea8eee359be8a1b90b782cfb" target="_top" xlink:title=" ">
<polygon fill="white" stroke="black" points="10,-38.5 10,-57.5 171,-57.5 171,-38.5 10,-38.5"/>
<text text-anchor="middle" x="90.5" y="-45.5" font-family="Helvetica,sans-Serif" font-size="10.00">pa::GAAPGASolver::operator()</text>
</a>
</g>
</g>
<!-- Node1&#45;&gt;Node5 -->
<g id="edge4" class="edge">
<title>Node1&#45;&gt;Node5</title>
<path fill="none" stroke="midnightblue" d="M222.53,-79.53C209.32,-75.65 194.59,-71.49 181,-68 166.66,-64.32 150.93,-60.67 136.7,-57.52"/>
<polygon fill="midnightblue" stroke="midnightblue" points="221.71,-82.93 232.29,-82.41 223.69,-76.22 221.71,-82.93"/>
</g>
<!-- Node6 -->
<g id="node6" class="node">
<title>Node6</title>
<g id="a_node6"><a xlink:href="classpa_1_1PGASolver.html#af516b794e244432023aea7ba3cd0d1d8" target="_top" xlink:title=" ">
<polygon fill="white" stroke="black" points="20.5,-0.5 20.5,-19.5 160.5,-19.5 160.5,-0.5 20.5,-0.5"/>
<text text-anchor="middle" x="90.5" y="-7.5" font-family="Helvetica,sans-Serif" font-size="10.00">pa::PGASolver::operator()</text>
</a>
</g>
</g>
<!-- Node1&#45;&gt;Node6 -->
<g id="edge5" class="edge">
<title>Node1&#45;&gt;Node6</title>
<path fill="none" stroke="midnightblue" d="M246.44,-75.28C230.72,-60.84 206.1,-40.53 181,-29 172.63,-25.15 163.46,-22.07 154.28,-19.61"/>
<polygon fill="midnightblue" stroke="midnightblue" points="244.12,-77.91 253.8,-82.22 248.92,-72.81 244.12,-77.91"/>
</g>
</g>
</svg>
