<?xml version="1.0" encoding="UTF-8" standalone="no"?>
<!DOCTYPE svg PUBLIC "-//W3C//DTD SVG 1.1//EN"
 "http://www.w3.org/Graphics/SVG/1.1/DTD/svg11.dtd">
<!-- Generated by graphviz version 2.43.0 (0)
 -->
<!-- Title: calc_x̂ Pages: 1 -->
<svg width="403pt" height="210pt"
 viewBox="0.00 0.00 403.00 210.00" xmlns="http://www.w3.org/2000/svg" xmlns:xlink="http://www.w3.org/1999/xlink">
<g id="graph0" class="graph" transform="scale(1 1) rotate(0) translate(4 206)">
<title>calc_x̂</title>
<polygon fill="white" stroke="transparent" points="-4,4 -4,-206 399,-206 399,4 -4,4"/>
<!-- Node1 -->
<g id="node1" class="node">
<title>Node1</title>
<g id="a_node1"><a xlink:title=" ">
<polygon fill="#bfbfbf" stroke="black" points="348,-88.5 348,-107.5 395,-107.5 395,-88.5 348,-88.5"/>
<text text-anchor="middle" x="371.5" y="-95.5" font-family="Helvetica,sans-Serif" font-size="10.00">calc_x̂</text>
</a>
</g>
</g>
<!-- Node2 -->
<g id="node2" class="node">
<title>Node2</title>
<g id="a_node2"><a xlink:href="namespacepa_1_1detail.html#adb5e65f5b5c52143daa1fc61c0f95d4e" target="_top" xlink:title="Increase the estimate of the Lipschitz constant of the objective gradient and decrease the step size ...">
<polygon fill="white" stroke="black" points="217,-107.5 217,-126.5 312,-126.5 312,-107.5 217,-107.5"/>
<text text-anchor="middle" x="264.5" y="-114.5" font-family="Helvetica,sans-Serif" font-size="10.00">descent_lemma</text>
</a>
</g>
</g>
<!-- Node1&#45;&gt;Node2 -->
<g id="edge1" class="edge">
<title>Node1&#45;&gt;Node2</title>
<path fill="none" stroke="midnightblue" d="M338.08,-103.87C329.88,-105.35 320.91,-106.97 312.16,-108.56"/>
<polygon fill="midnightblue" stroke="midnightblue" points="338.76,-107.3 347.97,-102.08 337.51,-100.41 338.76,-107.3"/>
</g>
<!-- Node3 -->
<g id="node3" class="node">
<title>Node3</title>
<g id="a_node3"><a xlink:href="classpa_1_1PANOCSolver.html#aaa9758a40bd362331202fb232b4bb7ae" target="_top" xlink:title=" ">
<polygon fill="white" stroke="black" points="13.5,-182.5 13.5,-201.5 167.5,-201.5 167.5,-182.5 13.5,-182.5"/>
<text text-anchor="middle" x="90.5" y="-189.5" font-family="Helvetica,sans-Serif" font-size="10.00">pa::PANOCSolver::operator()</text>
</a>
</g>
</g>
<!-- Node1&#45;&gt;Node3 -->
<g id="edge7" class="edge">
<title>Node1&#45;&gt;Node3</title>
<path fill="none" stroke="midnightblue" d="M358.2,-115.86C347.63,-129.72 331.1,-148.17 312,-158 267.58,-180.87 211.93,-189.33 167.66,-192.09"/>
<polygon fill="midnightblue" stroke="midnightblue" points="361.19,-117.7 364.25,-107.55 355.53,-113.57 361.19,-117.7"/>
</g>
<!-- Node4 -->
<g id="node4" class="node">
<title>Node4</title>
<g id="a_node4"><a xlink:href="classpa_1_1SecondOrderPANOCSolver.html#acb04b3f19dafad9b4e7e7c1c19018d19" target="_top" xlink:title=" ">
<polygon fill="white" stroke="black" points="10,-133 10,-163 171,-163 171,-133 10,-133"/>
<text text-anchor="start" x="18" y="-151" font-family="Helvetica,sans-Serif" font-size="10.00">pa::SecondOrderPANOCSolver</text>
<text text-anchor="middle" x="90.5" y="-140" font-family="Helvetica,sans-Serif" font-size="10.00">::operator()</text>
</a>
</g>
</g>
<!-- Node1&#45;&gt;Node4 -->
<g id="edge8" class="edge">
<title>Node1&#45;&gt;Node4</title>
<path fill="none" stroke="midnightblue" d="M351.44,-114.05C340.6,-122.18 326.35,-131.32 312,-136 266.89,-150.71 213.87,-154 171.13,-153.48"/>
<polygon fill="midnightblue" stroke="midnightblue" points="353.64,-116.77 359.34,-107.83 349.32,-111.26 353.64,-116.77"/>
</g>
<!-- Node5 -->
<g id="node5" class="node">
<title>Node5</title>
<g id="a_node5"><a xlink:href="classpa_1_1StructuredPANOCLBFGSSolver.html#ade95d8a7a1892d4087d6fffc958cde6e" target="_top" xlink:title=" ">
<polygon fill="white" stroke="black" points="0,-83 0,-113 181,-113 181,-83 0,-83"/>
<text text-anchor="start" x="8" y="-101" font-family="Helvetica,sans-Serif" font-size="10.00">pa::StructuredPANOCLBFGSSolver</text>
<text text-anchor="middle" x="90.5" y="-90" font-family="Helvetica,sans-Serif" font-size="10.00">::operator()</text>
</a>
</g>
</g>
<!-- Node1&#45;&gt;Node5 -->
<g id="edge9" class="edge">
<title>Node1&#45;&gt;Node5</title>
<path fill="none" stroke="midnightblue" d="M337.61,-98C299.34,-98 234.57,-98 181.08,-98"/>
<polygon fill="midnightblue" stroke="midnightblue" points="337.67,-101.5 347.67,-98 337.67,-94.5 337.67,-101.5"/>
</g>
<!-- Node6 -->
<g id="node6" class="node">
<title>Node6</title>
<g id="a_node6"><a xlink:href="classpa_1_1GAAPGASolver.html#a570ec001ea8eee359be8a1b90b782cfb" target="_top" xlink:title=" ">
<polygon fill="white" stroke="black" points="10,-42.5 10,-61.5 171,-61.5 171,-42.5 10,-42.5"/>
<text text-anchor="middle" x="90.5" y="-49.5" font-family="Helvetica,sans-Serif" font-size="10.00">pa::GAAPGASolver::operator()</text>
</a>
</g>
</g>
<!-- Node1&#45;&gt;Node6 -->
<g id="edge10" class="edge">
<title>Node1&#45;&gt;Node6</title>
<path fill="none" stroke="midnightblue" d="M337.59,-92.57C291.3,-84.94 206.28,-70.92 149.31,-61.53"/>
<polygon fill="midnightblue" stroke="midnightblue" points="337.23,-96.06 347.67,-94.24 338.37,-89.16 337.23,-96.06"/>
</g>
<!-- Node7 -->
<g id="node7" class="node">
<title>Node7</title>
<g id="a_node7"><a xlink:href="classpa_1_1PGASolver.html#af516b794e244432023aea7ba3cd0d1d8" target="_top" xlink:title=" ">
<polygon fill="white" stroke="black" points="20.5,-0.5 20.5,-19.5 160.5,-19.5 160.5,-0.5 20.5,-0.5"/>
<text text-anchor="middle" x="90.5" y="-7.5" font-family="Helvetica,sans-Serif" font-size="10.00">pa::PGASolver::operator()</text>
</a>
</g>
</g>
<!-- Node1&#45;&gt;Node7 -->
<g id="edge11" class="edge">
<title>Node1&#45;&gt;Node7</title>
<path fill="none" stroke="midnightblue" d="M344.5,-83.77C334.52,-78.67 322.92,-73.16 312,-69 253.49,-46.7 183.21,-29.45 137.98,-19.51"/>
<polygon fill="midnightblue" stroke="midnightblue" points="343,-86.94 353.48,-88.48 346.25,-80.74 343,-86.94"/>
</g>
<!-- Node2&#45;&gt;Node3 -->
<g id="edge2" class="edge">
<title>Node2&#45;&gt;Node3</title>
<path fill="none" stroke="midnightblue" d="M244.31,-133.22C228.35,-145.89 204.52,-162.98 181,-173 171.94,-176.86 162.02,-179.97 152.18,-182.45"/>
<polygon fill="midnightblue" stroke="midnightblue" points="246.77,-135.73 252.32,-126.7 242.35,-130.3 246.77,-135.73"/>
</g>
<!-- Node2&#45;&gt;Node4 -->
<g id="edge3" class="edge">
<title>Node2&#45;&gt;Node4</title>
<path fill="none" stroke="midnightblue" d="M207.1,-127.17C195.62,-129.23 183.34,-131.45 171.22,-133.63"/>
<polygon fill="midnightblue" stroke="midnightblue" points="207.73,-130.61 216.95,-125.39 206.49,-123.72 207.73,-130.61"/>
</g>
<!-- Node2&#45;&gt;Node5 -->
<g id="edge4" class="edge">
<title>Node2&#45;&gt;Node5</title>
<path fill="none" stroke="midnightblue" d="M206.76,-110.73C198.52,-109.82 189.87,-108.87 181.17,-107.91"/>
<polygon fill="midnightblue" stroke="midnightblue" points="206.63,-114.24 216.95,-111.86 207.4,-107.28 206.63,-114.24"/>
</g>
<!-- Node2&#45;&gt;Node6 -->
<g id="edge5" class="edge">
<title>Node2&#45;&gt;Node6</title>
<path fill="none" stroke="midnightblue" d="M239.16,-102.34C223.09,-93.16 201.34,-81.67 181,-74 167.83,-69.03 153.13,-64.88 139.52,-61.57"/>
<polygon fill="midnightblue" stroke="midnightblue" points="237.5,-105.42 247.9,-107.42 241.02,-99.37 237.5,-105.42"/>
</g>
<!-- Node2&#45;&gt;Node7 -->
<g id="edge6" class="edge">
<title>Node2&#45;&gt;Node7</title>
<path fill="none" stroke="midnightblue" d="M250.68,-99.05C236.01,-79.83 210.2,-49.83 181,-33 170.99,-27.23 159.54,-22.89 148.23,-19.62"/>
<polygon fill="midnightblue" stroke="midnightblue" points="248.02,-101.33 256.79,-107.28 253.64,-97.16 248.02,-101.33"/>
</g>
</g>
</svg>
