<?xml version="1.0" encoding="UTF-8" standalone="no"?>
<!DOCTYPE svg PUBLIC "-//W3C//DTD SVG 1.1//EN"
 "http://www.w3.org/Graphics/SVG/1.1/DTD/svg11.dtd">
<!-- Generated by graphviz version 2.43.0 (0)
 -->
<!-- Title: calc_ψ_ŷ Pages: 1 -->
<svg width="612pt" height="451pt"
 viewBox="0.00 0.00 612.00 450.63" xmlns="http://www.w3.org/2000/svg" xmlns:xlink="http://www.w3.org/1999/xlink">
<g id="graph0" class="graph" transform="scale(1 1) rotate(0) translate(4 446.63)">
<title>calc_ψ_ŷ</title>
<polygon fill="white" stroke="transparent" points="-4,4 -4,-446.63 608,-446.63 608,4 -4,4"/>
<!-- Node1 -->
<g id="node1" class="node">
<title>Node1</title>
<g id="a_node1"><a xlink:title="Calculate both ψ(x) and the vector ŷ that can later be used to compute ∇ψ.">
<polygon fill="#bfbfbf" stroke="black" points="545,-252.34 545,-271.34 604,-271.34 604,-252.34 545,-252.34"/>
<text text-anchor="middle" x="574.5" y="-259.34" font-family="Helvetica,sans-Serif" font-size="10.00">calc_ψ_ŷ</text>
</a>
</g>
</g>
<!-- Node2 -->
<g id="node2" class="node">
<title>Node2</title>
<g id="a_node2"><a xlink:href="namespacepa_1_1detail.html#aa986daa1d5f0dfdbc75c143d2aae2919" target="_top" xlink:title="Calculate both ψ(x) and its gradient ∇ψ(x).">
<polygon fill="white" stroke="black" points="418,-176.34 418,-195.34 505,-195.34 505,-176.34 418,-176.34"/>
<text text-anchor="middle" x="461.5" y="-183.34" font-family="Helvetica,sans-Serif" font-size="10.00">calc_ψ_grad_ψ</text>
</a>
</g>
</g>
<!-- Node1&#45;&gt;Node2 -->
<g id="edge1" class="edge">
<title>Node1&#45;&gt;Node2</title>
<path fill="none" stroke="midnightblue" d="M550.92,-246.38C528.59,-231.1 495.15,-208.2 476.44,-195.39"/>
<polygon fill="midnightblue" stroke="midnightblue" points="549.21,-249.46 559.44,-252.22 553.17,-243.68 549.21,-249.46"/>
</g>
<!-- Node4 -->
<g id="node4" class="node">
<title>Node4</title>
<g id="a_node4"><a xlink:href="classpa_1_1SecondOrderPANOCSolver.html#acb04b3f19dafad9b4e7e7c1c19018d19" target="_top" xlink:title=" ">
<polygon fill="white" stroke="black" points="10,-181.84 10,-211.84 171,-211.84 171,-181.84 10,-181.84"/>
<text text-anchor="start" x="18" y="-199.84" font-family="Helvetica,sans-Serif" font-size="10.00">pa::SecondOrderPANOCSolver</text>
<text text-anchor="middle" x="90.5" y="-188.84" font-family="Helvetica,sans-Serif" font-size="10.00">::operator()</text>
</a>
</g>
</g>
<!-- Node1&#45;&gt;Node4 -->
<g id="edge20" class="edge">
<title>Node1&#45;&gt;Node4</title>
<path fill="none" stroke="midnightblue" d="M566.34,-280.76C556.85,-302.99 537.87,-339.07 509,-356.84 398.29,-424.98 329.44,-439.09 217,-373.84 189.11,-357.66 199.01,-337.6 181,-310.84 156.13,-273.89 122.87,-233.54 104.7,-212.16"/>
<polygon fill="midnightblue" stroke="midnightblue" points="569.63,-281.96 570.13,-271.38 563.14,-279.34 569.63,-281.96"/>
</g>
<!-- Node5 -->
<g id="node5" class="node">
<title>Node5</title>
<g id="a_node5"><a xlink:href="classpa_1_1StructuredPANOCLBFGSSolver.html#ade95d8a7a1892d4087d6fffc958cde6e" target="_top" xlink:title=" ">
<polygon fill="white" stroke="black" points="0,-319.84 0,-349.84 181,-349.84 181,-319.84 0,-319.84"/>
<text text-anchor="start" x="8" y="-337.84" font-family="Helvetica,sans-Serif" font-size="10.00">pa::StructuredPANOCLBFGSSolver</text>
<text text-anchor="middle" x="90.5" y="-326.84" font-family="Helvetica,sans-Serif" font-size="10.00">::operator()</text>
</a>
</g>
</g>
<!-- Node1&#45;&gt;Node5 -->
<g id="edge21" class="edge">
<title>Node1&#45;&gt;Node5</title>
<path fill="none" stroke="midnightblue" d="M570.02,-281.52C563.64,-311.23 547.05,-366.96 509,-393.84 402.87,-468.83 342.37,-443.05 217,-408.84 175.27,-397.46 133.29,-368.26 110.02,-350.13"/>
<polygon fill="midnightblue" stroke="midnightblue" points="573.49,-282 571.99,-271.51 566.62,-280.65 573.49,-282"/>
</g>
<!-- Node6 -->
<g id="node6" class="node">
<title>Node6</title>
<g id="a_node6"><a xlink:href="classpa_1_1PGASolver.html#af516b794e244432023aea7ba3cd0d1d8" target="_top" xlink:title=" ">
<polygon fill="white" stroke="black" points="20.5,-127.34 20.5,-146.34 160.5,-146.34 160.5,-127.34 20.5,-127.34"/>
<text text-anchor="middle" x="90.5" y="-134.34" font-family="Helvetica,sans-Serif" font-size="10.00">pa::PGASolver::operator()</text>
</a>
</g>
</g>
<!-- Node1&#45;&gt;Node6 -->
<g id="edge25" class="edge">
<title>Node1&#45;&gt;Node6</title>
<path fill="none" stroke="midnightblue" d="M573.37,-242.17C572,-200.84 562.85,-104.48 509,-51.84 465.74,-9.55 437.93,-23.14 378,-14.84 307.12,-5.03 283.3,12.07 217,-14.84 159.28,-38.27 113.53,-102.41 97.59,-127.04"/>
<polygon fill="midnightblue" stroke="midnightblue" points="569.88,-242.36 573.58,-252.28 576.87,-242.21 569.88,-242.36"/>
</g>
<!-- Node7 -->
<g id="node7" class="node">
<title>Node7</title>
<g id="a_node7"><a xlink:href="classpa_1_1PANOCSolver.html#aaa9758a40bd362331202fb232b4bb7ae" target="_top" xlink:title=" ">
<polygon fill="white" stroke="black" points="220.5,-290.34 220.5,-309.34 374.5,-309.34 374.5,-290.34 220.5,-290.34"/>
<text text-anchor="middle" x="297.5" y="-297.34" font-family="Helvetica,sans-Serif" font-size="10.00">pa::PANOCSolver::operator()</text>
</a>
</g>
</g>
<!-- Node1&#45;&gt;Node7 -->
<g id="edge19" class="edge">
<title>Node1&#45;&gt;Node7</title>
<path fill="none" stroke="midnightblue" d="M534.72,-270.92C526.27,-272.71 517.36,-274.46 509,-275.84 464.73,-283.15 414.84,-288.95 374.75,-293.01"/>
<polygon fill="midnightblue" stroke="midnightblue" points="535.7,-274.29 544.72,-268.74 534.2,-267.45 535.7,-274.29"/>
</g>
<!-- Node8 -->
<g id="node8" class="node">
<title>Node8</title>
<g id="a_node8"><a xlink:href="classpa_1_1LBFGSSolver.html#a8540540028b02dfe8b7e3ec0c49c07dd" target="_top" xlink:title=" ">
<polygon fill="white" stroke="black" points="221.5,-62.34 221.5,-81.34 373.5,-81.34 373.5,-62.34 221.5,-62.34"/>
<text text-anchor="middle" x="297.5" y="-69.34" font-family="Helvetica,sans-Serif" font-size="10.00">pa::LBFGSSolver::operator()</text>
</a>
</g>
</g>
<!-- Node1&#45;&gt;Node8 -->
<g id="edge22" class="edge">
<title>Node1&#45;&gt;Node8</title>
<path fill="none" stroke="midnightblue" d="M564.72,-243.04C554.1,-222.05 534.44,-188.23 509,-166.84 456.06,-122.33 378.89,-94.67 334.18,-81.36"/>
<polygon fill="midnightblue" stroke="midnightblue" points="561.66,-244.75 569.19,-252.21 567.95,-241.68 561.66,-244.75"/>
</g>
<!-- Node9 -->
<g id="node9" class="node">
<title>Node9</title>
<g id="a_node9"><a xlink:href="classpa_1_1LBFGSBSolver.html#a8540540028b02dfe8b7e3ec0c49c07dd" target="_top" xlink:title=" ">
<polygon fill="white" stroke="black" points="218.5,-24.34 218.5,-43.34 376.5,-43.34 376.5,-24.34 218.5,-24.34"/>
<text text-anchor="middle" x="297.5" y="-31.34" font-family="Helvetica,sans-Serif" font-size="10.00">pa::LBFGSBSolver::operator()</text>
</a>
</g>
</g>
<!-- Node1&#45;&gt;Node9 -->
<g id="edge23" class="edge">
<title>Node1&#45;&gt;Node9</title>
<path fill="none" stroke="midnightblue" d="M570.22,-242.18C563.9,-210.04 547.12,-146 509,-107.84 472.52,-71.33 416.98,-52.78 372.11,-43.38"/>
<polygon fill="midnightblue" stroke="midnightblue" points="566.8,-242.92 572.04,-252.13 573.69,-241.66 566.8,-242.92"/>
</g>
<!-- Node10 -->
<g id="node10" class="node">
<title>Node10</title>
<g id="a_node10"><a xlink:href="classpa_1_1GAAPGASolver.html#a570ec001ea8eee359be8a1b90b782cfb" target="_top" xlink:title=" ">
<polygon fill="white" stroke="black" points="217,-252.34 217,-271.34 378,-271.34 378,-252.34 217,-252.34"/>
<text text-anchor="middle" x="297.5" y="-259.34" font-family="Helvetica,sans-Serif" font-size="10.00">pa::GAAPGASolver::operator()</text>
</a>
</g>
</g>
<!-- Node1&#45;&gt;Node10 -->
<g id="edge24" class="edge">
<title>Node1&#45;&gt;Node10</title>
<path fill="none" stroke="midnightblue" d="M534.84,-261.84C494.33,-261.84 429.52,-261.84 378.01,-261.84"/>
<polygon fill="midnightblue" stroke="midnightblue" points="534.85,-265.34 544.85,-261.84 534.85,-258.34 534.85,-265.34"/>
</g>
<!-- Node11 -->
<g id="node11" class="node">
<title>Node11</title>
<g id="a_node11"><a xlink:href="namespacepa_1_1detail.html#adb5e65f5b5c52143daa1fc61c0f95d4e" target="_top" xlink:title="Increase the estimate of the Lipschitz constant of the objective gradient and decrease the step size ...">
<polygon fill="white" stroke="black" points="414,-328.34 414,-347.34 509,-347.34 509,-328.34 414,-328.34"/>
<text text-anchor="middle" x="461.5" y="-335.34" font-family="Helvetica,sans-Serif" font-size="10.00">descent_lemma</text>
</a>
</g>
</g>
<!-- Node1&#45;&gt;Node11 -->
<g id="edge13" class="edge">
<title>Node1&#45;&gt;Node11</title>
<path fill="none" stroke="midnightblue" d="M555.21,-278.25C542.7,-289.05 525.45,-303.12 509,-313.84 500.93,-319.1 491.57,-324.12 483.38,-328.19"/>
<polygon fill="midnightblue" stroke="midnightblue" points="557.84,-280.6 563.05,-271.38 553.23,-275.34 557.84,-280.6"/>
</g>
<!-- Node3 -->
<g id="node3" class="node">
<title>Node3</title>
<g id="a_node3"><a xlink:href="namespacepa_1_1detail.html#a24c0ce181607512a70dae43aa90fea5f" target="_top" xlink:title=" ">
<polygon fill="white" stroke="black" points="228,-138.34 228,-157.34 367,-157.34 367,-138.34 228,-138.34"/>
<text text-anchor="middle" x="297.5" y="-145.34" font-family="Helvetica,sans-Serif" font-size="10.00">initial_lipschitz_estimate</text>
</a>
</g>
</g>
<!-- Node2&#45;&gt;Node3 -->
<g id="edge2" class="edge">
<title>Node2&#45;&gt;Node3</title>
<path fill="none" stroke="midnightblue" d="M409.79,-173.95C387.01,-168.61 360.51,-162.39 339.09,-157.36"/>
<polygon fill="midnightblue" stroke="midnightblue" points="409.09,-177.38 419.62,-176.25 410.68,-170.56 409.09,-177.38"/>
</g>
<!-- Node2&#45;&gt;Node4 -->
<g id="edge7" class="edge">
<title>Node2&#45;&gt;Node4</title>
<path fill="none" stroke="midnightblue" d="M407.5,-187.42C345.66,-189.27 242.78,-192.33 171.27,-194.47"/>
<polygon fill="midnightblue" stroke="midnightblue" points="407.92,-190.91 417.81,-187.12 407.71,-183.92 407.92,-190.91"/>
</g>
<!-- Node2&#45;&gt;Node5 -->
<g id="edge8" class="edge">
<title>Node2&#45;&gt;Node5</title>
<path fill="none" stroke="midnightblue" d="M408.07,-197.56C339.15,-213.03 225.74,-238.82 217,-242.84 173.56,-262.83 130.2,-299.16 107.57,-319.68"/>
<polygon fill="midnightblue" stroke="midnightblue" points="408.9,-200.96 417.9,-195.35 407.37,-194.13 408.9,-200.96"/>
</g>
<!-- Node2&#45;&gt;Node6 -->
<g id="edge12" class="edge">
<title>Node2&#45;&gt;Node6</title>
<path fill="none" stroke="midnightblue" d="M443.18,-169.13C427.57,-155.31 403.24,-136.71 378,-128.84 294.63,-102.84 190.92,-116.25 133.94,-127.26"/>
<polygon fill="midnightblue" stroke="midnightblue" points="441.18,-172.04 450.91,-176.22 445.91,-166.88 441.18,-172.04"/>
</g>
<!-- Node2&#45;&gt;Node7 -->
<g id="edge6" class="edge">
<title>Node2&#45;&gt;Node7</title>
<path fill="none" stroke="midnightblue" d="M449.75,-204C435.94,-225.7 409.89,-261.5 378,-280.84 371.57,-284.74 364.39,-287.84 357.06,-290.31"/>
<polygon fill="midnightblue" stroke="midnightblue" points="452.79,-205.74 455.06,-195.39 446.83,-202.07 452.79,-205.74"/>
</g>
<!-- Node2&#45;&gt;Node8 -->
<g id="edge9" class="edge">
<title>Node2&#45;&gt;Node8</title>
<path fill="none" stroke="midnightblue" d="M441.17,-169.31C432.53,-161.59 422.42,-152.08 414,-142.84 396.28,-123.4 399.64,-110.81 378,-95.84 368.87,-89.53 358.04,-84.84 347.36,-81.37"/>
<polygon fill="midnightblue" stroke="midnightblue" points="439.08,-172.13 448.9,-176.1 443.69,-166.87 439.08,-172.13"/>
</g>
<!-- Node2&#45;&gt;Node9 -->
<g id="edge10" class="edge">
<title>Node2&#45;&gt;Node9</title>
<path fill="none" stroke="midnightblue" d="M453.96,-166.46C443.04,-137.15 418.23,-81.87 378,-52.84 372.59,-48.94 366.49,-45.83 360.13,-43.35"/>
<polygon fill="midnightblue" stroke="midnightblue" points="450.7,-167.75 457.36,-175.99 457.3,-165.4 450.7,-167.75"/>
</g>
<!-- Node2&#45;&gt;Node10 -->
<g id="edge11" class="edge">
<title>Node2&#45;&gt;Node10</title>
<path fill="none" stroke="midnightblue" d="M439.49,-201.32C423.33,-212.66 400.1,-227.77 378,-237.84 365.28,-243.65 350.78,-248.5 337.68,-252.28"/>
<polygon fill="midnightblue" stroke="midnightblue" points="441.59,-204.12 447.69,-195.46 437.52,-198.43 441.59,-204.12"/>
</g>
<!-- Node3&#45;&gt;Node4 -->
<g id="edge3" class="edge">
<title>Node3&#45;&gt;Node4</title>
<path fill="none" stroke="midnightblue" d="M246.6,-159.77C218.84,-166.41 184.02,-174.73 154.41,-181.81"/>
<polygon fill="midnightblue" stroke="midnightblue" points="247.57,-163.14 256.49,-157.41 245.95,-156.33 247.57,-163.14"/>
</g>
<!-- Node3&#45;&gt;Node5 -->
<g id="edge4" class="edge">
<title>Node3&#45;&gt;Node5</title>
<path fill="none" stroke="midnightblue" d="M274.83,-163.63C258.51,-175.77 235.83,-193.23 217,-209.84 174.57,-247.28 128.3,-295.47 105.63,-319.62"/>
<polygon fill="midnightblue" stroke="midnightblue" points="277.2,-166.23 283.17,-157.47 273.04,-160.59 277.2,-166.23"/>
</g>
<!-- Node3&#45;&gt;Node6 -->
<g id="edge5" class="edge">
<title>Node3&#45;&gt;Node6</title>
<path fill="none" stroke="midnightblue" d="M217.92,-143.63C199.06,-142.62 179.07,-141.54 160.68,-140.56"/>
<polygon fill="midnightblue" stroke="midnightblue" points="217.78,-147.12 227.95,-144.17 218.15,-140.13 217.78,-147.12"/>
</g>
<!-- Node11&#45;&gt;Node4 -->
<g id="edge15" class="edge">
<title>Node11&#45;&gt;Node4</title>
<path fill="none" stroke="midnightblue" d="M424.03,-350.4C374.49,-365.21 284.4,-383.99 217,-351.84 208.97,-348.01 132.96,-250.45 103.29,-212.11"/>
<polygon fill="midnightblue" stroke="midnightblue" points="425.15,-353.72 433.67,-347.42 423.08,-347.03 425.15,-353.72"/>
</g>
<!-- Node11&#45;&gt;Node5 -->
<g id="edge16" class="edge">
<title>Node11&#45;&gt;Node5</title>
<path fill="none" stroke="midnightblue" d="M441.85,-353.96C426.05,-366.49 402.15,-382.87 378,-389.84 309.25,-409.7 287.04,-404.52 217,-389.84 180.68,-382.23 142.02,-363.47 117.36,-349.98"/>
<polygon fill="midnightblue" stroke="midnightblue" points="444.24,-356.53 449.75,-347.48 439.8,-351.12 444.24,-356.53"/>
</g>
<!-- Node11&#45;&gt;Node6 -->
<g id="edge18" class="edge">
<title>Node11&#45;&gt;Node6</title>
<path fill="none" stroke="midnightblue" d="M403.75,-340.81C340.7,-342.87 244.19,-341.9 217,-318.84 166.03,-275.61 224.82,-223.31 181,-172.84 169.91,-160.07 153.64,-151.77 138,-146.41"/>
<polygon fill="midnightblue" stroke="midnightblue" points="404.08,-344.3 413.95,-340.45 403.83,-337.31 404.08,-344.3"/>
</g>
<!-- Node11&#45;&gt;Node7 -->
<g id="edge14" class="edge">
<title>Node11&#45;&gt;Node7</title>
<path fill="none" stroke="midnightblue" d="M409.79,-325.95C387.01,-320.61 360.51,-314.39 339.09,-309.36"/>
<polygon fill="midnightblue" stroke="midnightblue" points="409.09,-329.38 419.62,-328.25 410.68,-322.56 409.09,-329.38"/>
</g>
<!-- Node11&#45;&gt;Node10 -->
<g id="edge17" class="edge">
<title>Node11&#45;&gt;Node10</title>
<path fill="none" stroke="midnightblue" d="M441.56,-321.7C425.59,-308.87 401.61,-291.38 378,-280.84 369.45,-277.03 360.02,-273.92 350.74,-271.4"/>
<polygon fill="midnightblue" stroke="midnightblue" points="439.62,-324.63 449.56,-328.28 444.06,-319.23 439.62,-324.63"/>
</g>
</g>
</svg>
