<?xml version="1.0" encoding="UTF-8" standalone="no"?>
<!DOCTYPE svg PUBLIC "-//W3C//DTD SVG 1.1//EN"
 "http://www.w3.org/Graphics/SVG/1.1/DTD/svg11.dtd">
<!-- Generated by graphviz version 2.43.0 (0)
 -->
<!-- Title: calc_ψ_grad_ψ Pages: 1 -->
<svg width="509pt" height="298pt"
 viewBox="0.00 0.00 509.00 297.83" xmlns="http://www.w3.org/2000/svg" xmlns:xlink="http://www.w3.org/1999/xlink">
<g id="graph0" class="graph" transform="scale(1 1) rotate(0) translate(4 293.83)">
<title>calc_ψ_grad_ψ</title>
<polygon fill="white" stroke="transparent" points="-4,4 -4,-293.83 505,-293.83 505,4 -4,4"/>
<!-- Node1 -->
<g id="node1" class="node">
<title>Node1</title>
<g id="a_node1"><a xlink:title="Calculate both ψ(x) and its gradient ∇ψ(x).">
<polygon fill="#bfbfbf" stroke="black" points="414,-133.5 414,-152.5 501,-152.5 501,-133.5 414,-133.5"/>
<text text-anchor="middle" x="457.5" y="-140.5" font-family="Helvetica,sans-Serif" font-size="10.00">calc_ψ_grad_ψ</text>
</a>
</g>
</g>
<!-- Node2 -->
<g id="node2" class="node">
<title>Node2</title>
<g id="a_node2"><a xlink:href="namespacepa_1_1detail.html#a24c0ce181607512a70dae43aa90fea5f" target="_top" xlink:title=" ">
<polygon fill="white" stroke="black" points="228,-228.5 228,-247.5 367,-247.5 367,-228.5 228,-228.5"/>
<text text-anchor="middle" x="297.5" y="-235.5" font-family="Helvetica,sans-Serif" font-size="10.00">initial_lipschitz_estimate</text>
</a>
</g>
</g>
<!-- Node1&#45;&gt;Node2 -->
<g id="edge1" class="edge">
<title>Node1&#45;&gt;Node2</title>
<path fill="none" stroke="midnightblue" d="M441.54,-160.37C426.86,-176.41 403.07,-199.84 378,-214 367.08,-220.17 354.4,-224.92 342.42,-228.5"/>
<polygon fill="midnightblue" stroke="midnightblue" points="444.3,-162.53 448.35,-152.74 439.08,-157.87 444.3,-162.53"/>
</g>
<!-- Node3 -->
<g id="node3" class="node">
<title>Node3</title>
<g id="a_node3"><a xlink:href="classpa_1_1SecondOrderPANOCSolver.html#acb04b3f19dafad9b4e7e7c1c19018d19" target="_top" xlink:title=" ">
<polygon fill="white" stroke="black" points="10,-258 10,-288 171,-288 171,-258 10,-258"/>
<text text-anchor="start" x="18" y="-276" font-family="Helvetica,sans-Serif" font-size="10.00">pa::SecondOrderPANOCSolver</text>
<text text-anchor="middle" x="90.5" y="-265" font-family="Helvetica,sans-Serif" font-size="10.00">::operator()</text>
</a>
</g>
</g>
<!-- Node1&#45;&gt;Node3 -->
<g id="edge6" class="edge">
<title>Node1&#45;&gt;Node3</title>
<path fill="none" stroke="midnightblue" d="M449.68,-161.93C438.99,-188.48 415.55,-235.91 378,-257 315.13,-292.31 231.76,-292.81 171.17,-286.57"/>
<polygon fill="midnightblue" stroke="midnightblue" points="452.96,-163.15 453.27,-152.56 446.42,-160.65 452.96,-163.15"/>
</g>
<!-- Node4 -->
<g id="node4" class="node">
<title>Node4</title>
<g id="a_node4"><a xlink:href="classpa_1_1StructuredPANOCLBFGSSolver.html#ade95d8a7a1892d4087d6fffc958cde6e" target="_top" xlink:title=" ">
<polygon fill="white" stroke="black" points="0,-206 0,-236 181,-236 181,-206 0,-206"/>
<text text-anchor="start" x="8" y="-224" font-family="Helvetica,sans-Serif" font-size="10.00">pa::StructuredPANOCLBFGSSolver</text>
<text text-anchor="middle" x="90.5" y="-213" font-family="Helvetica,sans-Serif" font-size="10.00">::operator()</text>
</a>
</g>
</g>
<!-- Node1&#45;&gt;Node4 -->
<g id="edge7" class="edge">
<title>Node1&#45;&gt;Node4</title>
<path fill="none" stroke="midnightblue" d="M422.55,-155.97C408.85,-160.86 392.82,-166.16 378,-170 312.96,-186.87 238.17,-199.97 181.32,-208.67"/>
<polygon fill="midnightblue" stroke="midnightblue" points="423.85,-159.22 432.05,-152.51 421.46,-152.64 423.85,-159.22"/>
</g>
<!-- Node5 -->
<g id="node5" class="node">
<title>Node5</title>
<g id="a_node5"><a xlink:href="classpa_1_1PGASolver.html#af516b794e244432023aea7ba3cd0d1d8" target="_top" xlink:title=" ">
<polygon fill="white" stroke="black" points="20.5,-162.5 20.5,-181.5 160.5,-181.5 160.5,-162.5 20.5,-162.5"/>
<text text-anchor="middle" x="90.5" y="-169.5" font-family="Helvetica,sans-Serif" font-size="10.00">pa::PGASolver::operator()</text>
</a>
</g>
</g>
<!-- Node1&#45;&gt;Node5 -->
<g id="edge11" class="edge">
<title>Node1&#45;&gt;Node5</title>
<path fill="none" stroke="midnightblue" d="M403.63,-147.2C339.5,-152.3 231.22,-160.9 160.55,-166.51"/>
<polygon fill="midnightblue" stroke="midnightblue" points="404.22,-150.66 413.92,-146.38 403.67,-143.69 404.22,-150.66"/>
</g>
<!-- Node6 -->
<g id="node6" class="node">
<title>Node6</title>
<g id="a_node6"><a xlink:href="classpa_1_1PANOCSolver.html#aaa9758a40bd362331202fb232b4bb7ae" target="_top" xlink:title=" ">
<polygon fill="white" stroke="black" points="220.5,-114.5 220.5,-133.5 374.5,-133.5 374.5,-114.5 220.5,-114.5"/>
<text text-anchor="middle" x="297.5" y="-121.5" font-family="Helvetica,sans-Serif" font-size="10.00">pa::PANOCSolver::operator()</text>
</a>
</g>
</g>
<!-- Node1&#45;&gt;Node6 -->
<g id="edge5" class="edge">
<title>Node1&#45;&gt;Node6</title>
<path fill="none" stroke="midnightblue" d="M403.56,-136.63C394.3,-135.52 384.51,-134.34 374.78,-133.17"/>
<polygon fill="midnightblue" stroke="midnightblue" points="403.4,-140.14 413.74,-137.86 404.23,-133.19 403.4,-140.14"/>
</g>
<!-- Node7 -->
<g id="node7" class="node">
<title>Node7</title>
<g id="a_node7"><a xlink:href="classpa_1_1LBFGSSolver.html#a8540540028b02dfe8b7e3ec0c49c07dd" target="_top" xlink:title=" ">
<polygon fill="white" stroke="black" points="221.5,-76.5 221.5,-95.5 373.5,-95.5 373.5,-76.5 221.5,-76.5"/>
<text text-anchor="middle" x="297.5" y="-83.5" font-family="Helvetica,sans-Serif" font-size="10.00">pa::LBFGSSolver::operator()</text>
</a>
</g>
</g>
<!-- Node1&#45;&gt;Node7 -->
<g id="edge8" class="edge">
<title>Node1&#45;&gt;Node7</title>
<path fill="none" stroke="midnightblue" d="M430.35,-128.58C415.37,-120.77 396.02,-111.43 378,-105 367.84,-101.38 356.71,-98.23 346.07,-95.6"/>
<polygon fill="midnightblue" stroke="midnightblue" points="429.03,-131.84 439.5,-133.44 432.32,-125.66 429.03,-131.84"/>
</g>
<!-- Node8 -->
<g id="node8" class="node">
<title>Node8</title>
<g id="a_node8"><a xlink:href="classpa_1_1LBFGSBSolver.html#a8540540028b02dfe8b7e3ec0c49c07dd" target="_top" xlink:title=" ">
<polygon fill="white" stroke="black" points="218.5,-38.5 218.5,-57.5 376.5,-57.5 376.5,-38.5 218.5,-38.5"/>
<text text-anchor="middle" x="297.5" y="-45.5" font-family="Helvetica,sans-Serif" font-size="10.00">pa::LBFGSBSolver::operator()</text>
</a>
</g>
</g>
<!-- Node1&#45;&gt;Node8 -->
<g id="edge9" class="edge">
<title>Node1&#45;&gt;Node8</title>
<path fill="none" stroke="midnightblue" d="M442.91,-125.14C428.65,-107.67 404.62,-81.61 378,-67 370.91,-63.11 363.03,-60.01 355.08,-57.54"/>
<polygon fill="midnightblue" stroke="midnightblue" points="440.49,-127.73 449.44,-133.39 445.98,-123.38 440.49,-127.73"/>
</g>
<!-- Node9 -->
<g id="node9" class="node">
<title>Node9</title>
<g id="a_node9"><a xlink:href="classpa_1_1GAAPGASolver.html#a570ec001ea8eee359be8a1b90b782cfb" target="_top" xlink:title=" ">
<polygon fill="white" stroke="black" points="217,-0.5 217,-19.5 378,-19.5 378,-0.5 217,-0.5"/>
<text text-anchor="middle" x="297.5" y="-7.5" font-family="Helvetica,sans-Serif" font-size="10.00">pa::GAAPGASolver::operator()</text>
</a>
</g>
</g>
<!-- Node1&#45;&gt;Node9 -->
<g id="edge10" class="edge">
<title>Node1&#45;&gt;Node9</title>
<path fill="none" stroke="midnightblue" d="M448.64,-123.86C437.08,-98.17 413.01,-53.01 378,-29 372.38,-25.15 366.08,-22.07 359.54,-19.62"/>
<polygon fill="midnightblue" stroke="midnightblue" points="445.52,-125.47 452.7,-133.26 451.95,-122.69 445.52,-125.47"/>
</g>
<!-- Node2&#45;&gt;Node3 -->
<g id="edge2" class="edge">
<title>Node2&#45;&gt;Node3</title>
<path fill="none" stroke="midnightblue" d="M230.72,-249.23C211.73,-252.47 190.81,-256.05 171.08,-259.41"/>
<polygon fill="midnightblue" stroke="midnightblue" points="231.49,-252.65 240.75,-247.52 230.31,-245.75 231.49,-252.65"/>
</g>
<!-- Node2&#45;&gt;Node4 -->
<g id="edge3" class="edge">
<title>Node2&#45;&gt;Node4</title>
<path fill="none" stroke="midnightblue" d="M217.96,-231.49C205.91,-230.49 193.39,-229.45 181.13,-228.43"/>
<polygon fill="midnightblue" stroke="midnightblue" points="217.7,-234.98 227.95,-232.32 218.28,-228 217.7,-234.98"/>
</g>
<!-- Node2&#45;&gt;Node5 -->
<g id="edge4" class="edge">
<title>Node2&#45;&gt;Node5</title>
<path fill="none" stroke="midnightblue" d="M261.4,-224.83C238.62,-216.46 208.21,-205.62 181,-197 163.62,-191.5 144.15,-185.98 127.81,-181.53"/>
<polygon fill="midnightblue" stroke="midnightblue" points="260.39,-228.19 270.98,-228.37 262.81,-221.62 260.39,-228.19"/>
</g>
</g>
</svg>
