<?xml version="1.0" encoding="UTF-8" standalone="no"?>
<!DOCTYPE svg PUBLIC "-//W3C//DTD SVG 1.1//EN"
 "http://www.w3.org/Graphics/SVG/1.1/DTD/svg11.dtd">
<!-- Generated by graphviz version 2.43.0 (0)
 -->
<!-- Title: projected_gradient_step Pages: 1 -->
<svg width="675pt" height="300pt"
 viewBox="0.00 0.00 675.00 300.00" xmlns="http://www.w3.org/2000/svg" xmlns:xlink="http://www.w3.org/1999/xlink">
<g id="graph0" class="graph" transform="scale(1 1) rotate(0) translate(4 296)">
<title>projected_gradient_step</title>
<polygon fill="white" stroke="transparent" points="-4,4 -4,-296 671,-296 671,4 -4,4"/>
<!-- Node1 -->
<g id="node1" class="node">
<title>Node1</title>
<g id="a_node1"><a xlink:title="Projected gradient step.">
<polygon fill="#bfbfbf" stroke="black" points="533,-93.5 533,-112.5 667,-112.5 667,-93.5 533,-93.5"/>
<text text-anchor="middle" x="600" y="-100.5" font-family="Helvetica,sans-Serif" font-size="10.00">projected_gradient_step</text>
</a>
</g>
</g>
<!-- Node2 -->
<g id="node2" class="node">
<title>Node2</title>
<g id="a_node2"><a xlink:href="namespacepa_1_1detail.html#a886972efd9fe413c62efea5eb2cdd0e9" target="_top" xlink:title=" ">
<polygon fill="white" stroke="black" points="222,-93.5 222,-112.5 334,-112.5 334,-93.5 222,-93.5"/>
<text text-anchor="middle" x="278" y="-100.5" font-family="Helvetica,sans-Serif" font-size="10.00">calc_error_stop_crit</text>
</a>
</g>
</g>
<!-- Node1&#45;&gt;Node2 -->
<g id="edge1" class="edge">
<title>Node1&#45;&gt;Node2</title>
<path fill="none" stroke="midnightblue" d="M522.47,-103C464.42,-103 386.01,-103 334.04,-103"/>
<polygon fill="midnightblue" stroke="midnightblue" points="522.7,-106.5 532.7,-103 522.7,-99.5 522.7,-106.5"/>
</g>
<!-- Node7 -->
<g id="node7" class="node">
<title>Node7</title>
<g id="a_node7"><a xlink:href="namespacepa_1_1detail.html#ac32d0e6b012b801731e55225b7505fa9" target="_top" xlink:title=" ">
<polygon fill="white" stroke="black" points="412.5,-169.5 412.5,-188.5 459.5,-188.5 459.5,-169.5 412.5,-169.5"/>
<text text-anchor="middle" x="436" y="-176.5" font-family="Helvetica,sans-Serif" font-size="10.00">calc_x̂</text>
</a>
</g>
</g>
<!-- Node1&#45;&gt;Node7 -->
<g id="edge6" class="edge">
<title>Node1&#45;&gt;Node7</title>
<path fill="none" stroke="midnightblue" d="M569.03,-117.06C536.52,-132.31 485.5,-156.25 457.35,-169.45"/>
<polygon fill="midnightblue" stroke="midnightblue" points="570.92,-120.04 578.48,-112.63 567.94,-113.7 570.92,-120.04"/>
</g>
<!-- Node10 -->
<g id="node10" class="node">
<title>Node10</title>
<g id="a_node10"><a xlink:href="classpa_1_1SpecializedLBFGS.html#a71d9f5b74a18b1ef994683c1aa4914da" target="_top" xlink:title="L&#45;BFGS update when changing the step size γ, recomputing everything.">
<polygon fill="white" stroke="black" points="375,-25 375,-55 497,-55 497,-25 375,-25"/>
<text text-anchor="start" x="383" y="-43" font-family="Helvetica,sans-Serif" font-size="10.00">pa::SpecializedLBFGS</text>
<text text-anchor="middle" x="436" y="-32" font-family="Helvetica,sans-Serif" font-size="10.00">::full_update</text>
</a>
</g>
</g>
<!-- Node1&#45;&gt;Node10 -->
<g id="edge18" class="edge">
<title>Node1&#45;&gt;Node10</title>
<path fill="none" stroke="midnightblue" d="M564.93,-89.75C538.86,-79.61 502.9,-65.63 475.74,-55.07"/>
<polygon fill="midnightblue" stroke="midnightblue" points="563.81,-93.07 574.4,-93.43 566.34,-86.55 563.81,-93.07"/>
</g>
<!-- Node3 -->
<g id="node3" class="node">
<title>Node3</title>
<g id="a_node3"><a xlink:href="classpa_1_1SecondOrderPANOCSolver.html#acb04b3f19dafad9b4e7e7c1c19018d19" target="_top" xlink:title=" ">
<polygon fill="white" stroke="black" points="10,-120 10,-150 171,-150 171,-120 10,-120"/>
<text text-anchor="start" x="18" y="-138" font-family="Helvetica,sans-Serif" font-size="10.00">pa::SecondOrderPANOCSolver</text>
<text text-anchor="middle" x="90.5" y="-127" font-family="Helvetica,sans-Serif" font-size="10.00">::operator()</text>
</a>
</g>
</g>
<!-- Node2&#45;&gt;Node3 -->
<g id="edge2" class="edge">
<title>Node2&#45;&gt;Node3</title>
<path fill="none" stroke="midnightblue" d="M211.95,-114.22C198.77,-116.49 184.77,-118.91 171.16,-121.26"/>
<polygon fill="midnightblue" stroke="midnightblue" points="212.59,-117.66 221.85,-112.51 211.4,-110.77 212.59,-117.66"/>
</g>
<!-- Node4 -->
<g id="node4" class="node">
<title>Node4</title>
<g id="a_node4"><a xlink:href="classpa_1_1StructuredPANOCLBFGSSolver.html#ade95d8a7a1892d4087d6fffc958cde6e" target="_top" xlink:title=" ">
<polygon fill="white" stroke="black" points="0,-169 0,-199 181,-199 181,-169 0,-169"/>
<text text-anchor="start" x="8" y="-187" font-family="Helvetica,sans-Serif" font-size="10.00">pa::StructuredPANOCLBFGSSolver</text>
<text text-anchor="middle" x="90.5" y="-176" font-family="Helvetica,sans-Serif" font-size="10.00">::operator()</text>
</a>
</g>
</g>
<!-- Node2&#45;&gt;Node4 -->
<g id="edge3" class="edge">
<title>Node2&#45;&gt;Node4</title>
<path fill="none" stroke="midnightblue" d="M254.79,-118.17C235.86,-130.54 207.57,-147.76 181,-159 172.23,-162.71 162.75,-166.04 153.36,-168.96"/>
<polygon fill="midnightblue" stroke="midnightblue" points="256.88,-120.98 263.28,-112.53 253.01,-115.15 256.88,-120.98"/>
</g>
<!-- Node5 -->
<g id="node5" class="node">
<title>Node5</title>
<g id="a_node5"><a xlink:href="classpa_1_1GAAPGASolver.html#a570ec001ea8eee359be8a1b90b782cfb" target="_top" xlink:title=" ">
<polygon fill="white" stroke="black" points="10,-218.5 10,-237.5 171,-237.5 171,-218.5 10,-218.5"/>
<text text-anchor="middle" x="90.5" y="-225.5" font-family="Helvetica,sans-Serif" font-size="10.00">pa::GAAPGASolver::operator()</text>
</a>
</g>
</g>
<!-- Node2&#45;&gt;Node5 -->
<g id="edge4" class="edge">
<title>Node2&#45;&gt;Node5</title>
<path fill="none" stroke="midnightblue" d="M265.67,-121.1C249.77,-144.9 218.55,-186.25 181,-208 173.42,-212.39 164.97,-215.82 156.37,-218.49"/>
<polygon fill="midnightblue" stroke="midnightblue" points="268.65,-122.93 271.17,-112.63 262.78,-119.11 268.65,-122.93"/>
</g>
<!-- Node6 -->
<g id="node6" class="node">
<title>Node6</title>
<g id="a_node6"><a xlink:href="classpa_1_1PGASolver.html#af516b794e244432023aea7ba3cd0d1d8" target="_top" xlink:title=" ">
<polygon fill="white" stroke="black" points="20.5,-81.5 20.5,-100.5 160.5,-100.5 160.5,-81.5 20.5,-81.5"/>
<text text-anchor="middle" x="90.5" y="-88.5" font-family="Helvetica,sans-Serif" font-size="10.00">pa::PGASolver::operator()</text>
</a>
</g>
</g>
<!-- Node2&#45;&gt;Node6 -->
<g id="edge5" class="edge">
<title>Node2&#45;&gt;Node6</title>
<path fill="none" stroke="midnightblue" d="M211.73,-98.78C195.17,-97.71 177.33,-96.55 160.59,-95.47"/>
<polygon fill="midnightblue" stroke="midnightblue" points="211.64,-102.28 221.85,-99.43 212.09,-95.29 211.64,-102.28"/>
</g>
<!-- Node7&#45;&gt;Node3 -->
<g id="edge14" class="edge">
<title>Node7&#45;&gt;Node3</title>
<path fill="none" stroke="midnightblue" d="M402.35,-174.82C349.67,-168.07 244.43,-154.59 171.07,-145.19"/>
<polygon fill="midnightblue" stroke="midnightblue" points="402.1,-178.31 412.46,-176.11 402.99,-171.37 402.1,-178.31"/>
</g>
<!-- Node7&#45;&gt;Node4 -->
<g id="edge15" class="edge">
<title>Node7&#45;&gt;Node4</title>
<path fill="none" stroke="midnightblue" d="M402.17,-179.48C351.8,-180.21 253.66,-181.64 181.11,-182.7"/>
<polygon fill="midnightblue" stroke="midnightblue" points="402.51,-182.97 412.46,-179.33 402.41,-175.97 402.51,-182.97"/>
</g>
<!-- Node7&#45;&gt;Node5 -->
<g id="edge16" class="edge">
<title>Node7&#45;&gt;Node5</title>
<path fill="none" stroke="midnightblue" d="M415.63,-194.8C397.2,-208.73 368.05,-228.03 339,-236 270.8,-254.72 188.05,-246.08 137.62,-237.51"/>
<polygon fill="midnightblue" stroke="midnightblue" points="417.79,-197.55 423.54,-188.65 413.49,-192.02 417.79,-197.55"/>
</g>
<!-- Node7&#45;&gt;Node6 -->
<g id="edge17" class="edge">
<title>Node7&#45;&gt;Node6</title>
<path fill="none" stroke="midnightblue" d="M423.38,-160.79C407.53,-137.84 376.74,-99.52 339,-84 268.03,-54.82 175.7,-69.74 126.3,-81.44"/>
<polygon fill="midnightblue" stroke="midnightblue" points="420.6,-162.92 429.06,-169.3 426.42,-159.04 420.6,-162.92"/>
</g>
<!-- Node8 -->
<g id="node8" class="node">
<title>Node8</title>
<g id="a_node8"><a xlink:href="namespacepa_1_1detail.html#adb5e65f5b5c52143daa1fc61c0f95d4e" target="_top" xlink:title="Increase the estimate of the Lipschitz constant of the objective gradient and decrease the step size ...">
<polygon fill="white" stroke="black" points="230.5,-207.5 230.5,-226.5 325.5,-226.5 325.5,-207.5 230.5,-207.5"/>
<text text-anchor="middle" x="278" y="-214.5" font-family="Helvetica,sans-Serif" font-size="10.00">descent_lemma</text>
</a>
</g>
</g>
<!-- Node7&#45;&gt;Node8 -->
<g id="edge7" class="edge">
<title>Node7&#45;&gt;Node8</title>
<path fill="none" stroke="midnightblue" d="M402.4,-186.94C377.83,-192.93 344.03,-201.16 318.02,-207.49"/>
<polygon fill="midnightblue" stroke="midnightblue" points="403.43,-190.29 412.32,-184.53 401.77,-183.49 403.43,-190.29"/>
</g>
<!-- Node9 -->
<g id="node9" class="node">
<title>Node9</title>
<g id="a_node9"><a xlink:href="classpa_1_1PANOCSolver.html#aaa9758a40bd362331202fb232b4bb7ae" target="_top" xlink:title=" ">
<polygon fill="white" stroke="black" points="13.5,-272.5 13.5,-291.5 167.5,-291.5 167.5,-272.5 13.5,-272.5"/>
<text text-anchor="middle" x="90.5" y="-279.5" font-family="Helvetica,sans-Serif" font-size="10.00">pa::PANOCSolver::operator()</text>
</a>
</g>
</g>
<!-- Node7&#45;&gt;Node9 -->
<g id="edge13" class="edge">
<title>Node7&#45;&gt;Node9</title>
<path fill="none" stroke="midnightblue" d="M419.52,-196.26C401.97,-214.56 371.55,-242.61 339,-256 284.56,-278.4 217.96,-284.32 167.57,-284.96"/>
<polygon fill="midnightblue" stroke="midnightblue" points="422.37,-198.33 426.63,-188.63 417.25,-193.56 422.37,-198.33"/>
</g>
<!-- Node8&#45;&gt;Node3 -->
<g id="edge9" class="edge">
<title>Node8&#45;&gt;Node3</title>
<path fill="none" stroke="midnightblue" d="M255.54,-201.61C236.68,-188.69 208.1,-170.54 181,-159 173.16,-155.66 164.72,-152.67 156.28,-150.04"/>
<polygon fill="midnightblue" stroke="midnightblue" points="253.77,-204.64 263.97,-207.48 257.77,-198.9 253.77,-204.64"/>
</g>
<!-- Node8&#45;&gt;Node4 -->
<g id="edge10" class="edge">
<title>Node8&#45;&gt;Node4</title>
<path fill="none" stroke="midnightblue" d="M220.23,-206.9C206.21,-204.41 190.88,-201.68 175.85,-199.01"/>
<polygon fill="midnightblue" stroke="midnightblue" points="219.73,-210.37 230.19,-208.67 220.96,-203.48 219.73,-210.37"/>
</g>
<!-- Node8&#45;&gt;Node5 -->
<g id="edge11" class="edge">
<title>Node8&#45;&gt;Node5</title>
<path fill="none" stroke="midnightblue" d="M219.81,-220.39C204.43,-221.3 187.5,-222.31 171.14,-223.28"/>
<polygon fill="midnightblue" stroke="midnightblue" points="220.42,-223.86 230.19,-219.78 220,-216.87 220.42,-223.86"/>
</g>
<!-- Node8&#45;&gt;Node6 -->
<g id="edge12" class="edge">
<title>Node8&#45;&gt;Node6</title>
<path fill="none" stroke="midnightblue" d="M266.02,-198.86C250.34,-174.59 219.14,-132.06 181,-110 174.26,-106.1 166.82,-103 159.2,-100.53"/>
<polygon fill="midnightblue" stroke="midnightblue" points="263.15,-200.86 271.43,-207.47 269.08,-197.14 263.15,-200.86"/>
</g>
<!-- Node8&#45;&gt;Node9 -->
<g id="edge8" class="edge">
<title>Node8&#45;&gt;Node9</title>
<path fill="none" stroke="midnightblue" d="M240.03,-229.96C204.21,-242.5 150.75,-261.24 118.68,-272.48"/>
<polygon fill="midnightblue" stroke="midnightblue" points="241.35,-233.2 249.63,-226.59 239.03,-226.59 241.35,-233.2"/>
</g>
<!-- Node11 -->
<g id="node11" class="node">
<title>Node11</title>
<g id="a_node11"><a xlink:href="classpa_1_1SpecializedLBFGS.html#a8032c3cbff7a91765be22979ccd4f79b" target="_top" xlink:title="Update the inverse Hessian approximation using the new vectors xₖ₊₁ and pₖ₊₁.">
<polygon fill="white" stroke="black" points="217,-6 217,-36 339,-36 339,-6 217,-6"/>
<text text-anchor="start" x="225" y="-24" font-family="Helvetica,sans-Serif" font-size="10.00">pa::SpecializedLBFGS</text>
<text text-anchor="middle" x="278" y="-13" font-family="Helvetica,sans-Serif" font-size="10.00">::update</text>
</a>
</g>
</g>
<!-- Node10&#45;&gt;Node11 -->
<g id="edge19" class="edge">
<title>Node10&#45;&gt;Node11</title>
<path fill="none" stroke="midnightblue" d="M364.74,-31.44C356.2,-30.4 347.53,-29.35 339.15,-28.33"/>
<polygon fill="midnightblue" stroke="midnightblue" points="364.34,-34.92 374.69,-32.65 365.18,-27.97 364.34,-34.92"/>
</g>
<!-- Node12 -->
<g id="node12" class="node">
<title>Node12</title>
<g id="a_node12"><a xlink:href="structpa_1_1PANOCDirection_3_01SpecializedLBFGS_01_4.html#a1932af68886cf467a0300e371e94a2c3" target="_top" xlink:title=" ">
<polygon fill="white" stroke="black" points="27.5,-0.5 27.5,-41.5 153.5,-41.5 153.5,-0.5 27.5,-0.5"/>
<text text-anchor="start" x="35.5" y="-29.5" font-family="Helvetica,sans-Serif" font-size="10.00">pa::PANOCDirection</text>
<text text-anchor="start" x="35.5" y="-18.5" font-family="Helvetica,sans-Serif" font-size="10.00">&lt; SpecializedLBFGS &gt;</text>
<text text-anchor="middle" x="90.5" y="-7.5" font-family="Helvetica,sans-Serif" font-size="10.00">::update</text>
</a>
</g>
</g>
<!-- Node11&#45;&gt;Node12 -->
<g id="edge20" class="edge">
<title>Node11&#45;&gt;Node12</title>
<path fill="none" stroke="midnightblue" d="M206.66,-21C189.22,-21 170.66,-21 153.65,-21"/>
<polygon fill="midnightblue" stroke="midnightblue" points="206.77,-24.5 216.77,-21 206.77,-17.5 206.77,-24.5"/>
</g>
</g>
</svg>
