<?xml version="1.0" encoding="UTF-8" standalone="no"?>
<!DOCTYPE svg PUBLIC "-//W3C//DTD SVG 1.1//EN"
 "http://www.w3.org/Graphics/SVG/1.1/DTD/svg11.dtd">
<!-- Generated by graphviz version 2.43.0 (0)
 -->
<!-- Title: project Pages: 1 -->
<svg width="937pt" height="658pt"
 viewBox="0.00 0.00 937.00 658.05" xmlns="http://www.w3.org/2000/svg" xmlns:xlink="http://www.w3.org/1999/xlink">
<g id="graph0" class="graph" transform="scale(1 1) rotate(0) translate(4 654.05)">
<title>project</title>
<polygon fill="white" stroke="transparent" points="-4,4 -4,-654.05 933,-654.05 933,4 -4,4"/>
<!-- Node1 -->
<g id="node1" class="node">
<title>Node1</title>
<g id="a_node1"><a xlink:title="Project a vector onto a box.">
<polygon fill="#bfbfbf" stroke="black" points="879,-185.74 879,-204.74 929,-204.74 929,-185.74 879,-185.74"/>
<text text-anchor="middle" x="904" y="-192.74" font-family="Helvetica,sans-Serif" font-size="10.00">project</text>
</a>
</g>
</g>
<!-- Node2 -->
<g id="node2" class="node">
<title>Node2</title>
<g id="a_node2"><a xlink:href="namespacepa_1_1detail.html#a22e222a3f2d7f01ceee380154e140ea9" target="_top" xlink:title="Calculate the error between ẑ and g(x).">
<polygon fill="white" stroke="black" points="419,-516.74 419,-535.74 536,-535.74 536,-516.74 419,-516.74"/>
<text text-anchor="middle" x="477.5" y="-523.74" font-family="Helvetica,sans-Serif" font-size="10.00">pa::detail::calc_err_z</text>
</a>
</g>
</g>
<!-- Node1&#45;&gt;Node2 -->
<g id="edge1" class="edge">
<title>Node1&#45;&gt;Node2</title>
<path fill="none" stroke="midnightblue" d="M885.38,-211.77C834.53,-258.98 682.16,-397.18 541,-492.24 527.27,-501.49 510.79,-510.37 498.2,-516.73"/>
<polygon fill="midnightblue" stroke="midnightblue" points="887.98,-214.13 892.91,-204.75 883.21,-209.01 887.98,-214.13"/>
</g>
<!-- Node8 -->
<g id="node8" class="node">
<title>Node8</title>
<g id="a_node8"><a xlink:href="classpa_1_1GAAPGASolver.html#a570ec001ea8eee359be8a1b90b782cfb" target="_top" xlink:title=" ">
<polygon fill="white" stroke="black" points="217,-124.74 217,-143.74 378,-143.74 378,-124.74 217,-124.74"/>
<text text-anchor="middle" x="297.5" y="-131.74" font-family="Helvetica,sans-Serif" font-size="10.00">pa::GAAPGASolver::operator()</text>
</a>
</g>
</g>
<!-- Node1&#45;&gt;Node8 -->
<g id="edge10" class="edge">
<title>Node1&#45;&gt;Node8</title>
<path fill="none" stroke="midnightblue" d="M868.86,-191.8C775.11,-182.33 511.77,-155.76 378.25,-142.29"/>
<polygon fill="midnightblue" stroke="midnightblue" points="868.63,-195.29 878.93,-192.81 869.33,-188.33 868.63,-195.29"/>
</g>
<!-- Node10 -->
<g id="node10" class="node">
<title>Node10</title>
<g id="a_node10"><a xlink:href="namespacepa.html#aa429bb0575bc9b9e6a92bd7665072704" target="_top" xlink:title="Get the distance squared between the given vector and its projection in the Σ norm.">
<polygon fill="white" stroke="black" points="744,-128.74 744,-147.74 823,-147.74 823,-128.74 744,-128.74"/>
<text text-anchor="middle" x="783.5" y="-135.74" font-family="Helvetica,sans-Serif" font-size="10.00">dist_squared</text>
</a>
</g>
</g>
<!-- Node1&#45;&gt;Node10 -->
<g id="edge9" class="edge">
<title>Node1&#45;&gt;Node10</title>
<path fill="none" stroke="midnightblue" d="M877.95,-180.63C867.32,-174.65 854.7,-167.83 843,-162.24 832.21,-157.08 820,-151.96 809.54,-147.79"/>
<polygon fill="midnightblue" stroke="midnightblue" points="876.29,-183.71 886.71,-185.62 879.75,-177.63 876.29,-183.71"/>
</g>
<!-- Node11 -->
<g id="node11" class="node">
<title>Node11</title>
<g id="a_node11"><a xlink:href="namespacepa.html#aee505a26e46aa4c0ce09d0fed72f0dac" target="_top" xlink:title="Get the difference between the given vector and its projection.">
<polygon fill="white" stroke="black" points="724,-204.74 724,-223.74 843,-223.74 843,-204.74 724,-204.74"/>
<text text-anchor="middle" x="783.5" y="-211.74" font-family="Helvetica,sans-Serif" font-size="10.00">projecting_difference</text>
</a>
</g>
</g>
<!-- Node1&#45;&gt;Node11 -->
<g id="edge11" class="edge">
<title>Node1&#45;&gt;Node11</title>
<path fill="none" stroke="midnightblue" d="M868.78,-200.73C860.83,-202 852.16,-203.39 843.48,-204.78"/>
<polygon fill="midnightblue" stroke="midnightblue" points="869.41,-204.17 878.73,-199.13 868.31,-197.26 869.41,-204.17"/>
</g>
<!-- Node3 -->
<g id="node3" class="node">
<title>Node3</title>
<g id="a_node3"><a xlink:href="classpa_1_1PANOCSolver.html#aaa9758a40bd362331202fb232b4bb7ae" target="_top" xlink:title=" ">
<polygon fill="white" stroke="black" points="220.5,-428.74 220.5,-447.74 374.5,-447.74 374.5,-428.74 220.5,-428.74"/>
<text text-anchor="middle" x="297.5" y="-435.74" font-family="Helvetica,sans-Serif" font-size="10.00">pa::PANOCSolver::operator()</text>
</a>
</g>
</g>
<!-- Node2&#45;&gt;Node3 -->
<g id="edge2" class="edge">
<title>Node2&#45;&gt;Node3</title>
<path fill="none" stroke="midnightblue" d="M458.03,-510.06C439.16,-494.35 408.38,-470.91 378,-457.24 369.46,-453.4 360.04,-450.27 350.76,-447.75"/>
<polygon fill="midnightblue" stroke="midnightblue" points="455.93,-512.87 465.82,-516.68 460.46,-507.54 455.93,-512.87"/>
</g>
<!-- Node4 -->
<g id="node4" class="node">
<title>Node4</title>
<g id="a_node4"><a xlink:href="classpa_1_1SecondOrderPANOCSolver.html#acb04b3f19dafad9b4e7e7c1c19018d19" target="_top" xlink:title=" ">
<polygon fill="white" stroke="black" points="10,-385.24 10,-415.24 171,-415.24 171,-385.24 10,-385.24"/>
<text text-anchor="start" x="18" y="-403.24" font-family="Helvetica,sans-Serif" font-size="10.00">pa::SecondOrderPANOCSolver</text>
<text text-anchor="middle" x="90.5" y="-392.24" font-family="Helvetica,sans-Serif" font-size="10.00">::operator()</text>
</a>
</g>
</g>
<!-- Node2&#45;&gt;Node4 -->
<g id="edge3" class="edge">
<title>Node2&#45;&gt;Node4</title>
<path fill="none" stroke="midnightblue" d="M461.62,-543.54C443.93,-562.63 412.46,-592.25 378,-604.24 310.42,-627.76 279.46,-639.15 217,-604.24 142.05,-562.35 106.35,-455.3 95.35,-415.47"/>
<polygon fill="midnightblue" stroke="midnightblue" points="464.45,-545.63 468.53,-535.85 459.24,-540.95 464.45,-545.63"/>
</g>
<!-- Node5 -->
<g id="node5" class="node">
<title>Node5</title>
<g id="a_node5"><a xlink:href="classpa_1_1StructuredPANOCLBFGSSolver.html#ade95d8a7a1892d4087d6fffc958cde6e" target="_top" xlink:title=" ">
<polygon fill="white" stroke="black" points="0,-116.24 0,-146.24 181,-146.24 181,-116.24 0,-116.24"/>
<text text-anchor="start" x="8" y="-134.24" font-family="Helvetica,sans-Serif" font-size="10.00">pa::StructuredPANOCLBFGSSolver</text>
<text text-anchor="middle" x="90.5" y="-123.24" font-family="Helvetica,sans-Serif" font-size="10.00">::operator()</text>
</a>
</g>
</g>
<!-- Node2&#45;&gt;Node5 -->
<g id="edge4" class="edge">
<title>Node2&#45;&gt;Node5</title>
<path fill="none" stroke="midnightblue" d="M444.36,-539.32C390.4,-558.91 281.19,-588.09 217,-533.24 178,-499.92 196.93,-354 181,-305.24 160.64,-242.92 120.11,-175.67 101.39,-146.34"/>
<polygon fill="midnightblue" stroke="midnightblue" points="445.64,-542.58 453.77,-535.79 443.18,-536.02 445.64,-542.58"/>
</g>
<!-- Node6 -->
<g id="node6" class="node">
<title>Node6</title>
<g id="a_node6"><a xlink:href="classpa_1_1LBFGSSolver.html#a8540540028b02dfe8b7e3ec0c49c07dd" target="_top" xlink:title=" ">
<polygon fill="white" stroke="black" points="221.5,-504.74 221.5,-523.74 373.5,-523.74 373.5,-504.74 221.5,-504.74"/>
<text text-anchor="middle" x="297.5" y="-511.74" font-family="Helvetica,sans-Serif" font-size="10.00">pa::LBFGSSolver::operator()</text>
</a>
</g>
</g>
<!-- Node2&#45;&gt;Node6 -->
<g id="edge5" class="edge">
<title>Node2&#45;&gt;Node6</title>
<path fill="none" stroke="midnightblue" d="M408.39,-521.65C396.98,-520.88 385.09,-520.08 373.51,-519.3"/>
<polygon fill="midnightblue" stroke="midnightblue" points="408.5,-525.16 418.71,-522.34 408.97,-518.18 408.5,-525.16"/>
</g>
<!-- Node7 -->
<g id="node7" class="node">
<title>Node7</title>
<g id="a_node7"><a xlink:href="classpa_1_1LBFGSBSolver.html#a8540540028b02dfe8b7e3ec0c49c07dd" target="_top" xlink:title=" ">
<polygon fill="white" stroke="black" points="218.5,-466.74 218.5,-485.74 376.5,-485.74 376.5,-466.74 218.5,-466.74"/>
<text text-anchor="middle" x="297.5" y="-473.74" font-family="Helvetica,sans-Serif" font-size="10.00">pa::LBFGSBSolver::operator()</text>
</a>
</g>
</g>
<!-- Node2&#45;&gt;Node7 -->
<g id="edge6" class="edge">
<title>Node2&#45;&gt;Node7</title>
<path fill="none" stroke="midnightblue" d="M438.14,-513.48C419.99,-507.62 397.97,-500.76 378,-495.24 365.96,-491.91 352.81,-488.63 340.73,-485.75"/>
<polygon fill="midnightblue" stroke="midnightblue" points="437.19,-516.85 447.78,-516.62 439.35,-510.19 437.19,-516.85"/>
</g>
<!-- Node2&#45;&gt;Node8 -->
<g id="edge7" class="edge">
<title>Node2&#45;&gt;Node8</title>
<path fill="none" stroke="midnightblue" d="M467.44,-507.26C455.17,-481.5 432.67,-434.02 414,-393.24 369.73,-296.55 317.94,-178.64 302.84,-144.15"/>
<polygon fill="midnightblue" stroke="midnightblue" points="464.42,-509.07 471.89,-516.59 470.74,-506.06 464.42,-509.07"/>
</g>
<!-- Node9 -->
<g id="node9" class="node">
<title>Node9</title>
<g id="a_node9"><a xlink:href="classpa_1_1PGASolver.html#af516b794e244432023aea7ba3cd0d1d8" target="_top" xlink:title=" ">
<polygon fill="white" stroke="black" points="20.5,-314.74 20.5,-333.74 160.5,-333.74 160.5,-314.74 20.5,-314.74"/>
<text text-anchor="middle" x="90.5" y="-321.74" font-family="Helvetica,sans-Serif" font-size="10.00">pa::PGASolver::operator()</text>
</a>
</g>
</g>
<!-- Node2&#45;&gt;Node9 -->
<g id="edge8" class="edge">
<title>Node2&#45;&gt;Node9</title>
<path fill="none" stroke="midnightblue" d="M452.38,-540.84C402.33,-569.06 286.09,-623.47 217,-566.24 150.81,-511.41 230.65,-446.4 181,-376.24 166.36,-355.56 140.7,-341.88 120.59,-333.77"/>
<polygon fill="midnightblue" stroke="midnightblue" points="454.29,-543.78 461.2,-535.75 450.79,-537.72 454.29,-543.78"/>
</g>
<!-- Node12 -->
<g id="node12" class="node">
<title>Node12</title>
<g id="a_node12"><a xlink:href="namespacepa_1_1detail.html#a6572cf745448d2b40e9d5e977d17d5e2" target="_top" xlink:title="Calculate the gradient ∇ψ(x).">
<polygon fill="white" stroke="black" points="414,-102.74 414,-121.74 541,-121.74 541,-102.74 414,-102.74"/>
<text text-anchor="middle" x="477.5" y="-109.74" font-family="Helvetica,sans-Serif" font-size="10.00">pa::detail::calc_grad_ψ</text>
</a>
</g>
</g>
<!-- Node11&#45;&gt;Node12 -->
<g id="edge12" class="edge">
<title>Node11&#45;&gt;Node12</title>
<path fill="none" stroke="midnightblue" d="M744.42,-201.46C682.59,-180.72 561.77,-140.18 506.87,-121.76"/>
<polygon fill="midnightblue" stroke="midnightblue" points="743.58,-204.87 754.17,-204.74 745.81,-198.24 743.58,-204.87"/>
</g>
<!-- Node15 -->
<g id="node15" class="node">
<title>Node15</title>
<g id="a_node15"><a xlink:href="namespacepa_1_1detail.html#a82a03662e6ce5bcfd57ee2df719aec21" target="_top" xlink:title="Calculate both ψ(x) and the vector ŷ that can later be used to compute ∇ψ.">
<polygon fill="white" stroke="black" points="577,-336.74 577,-355.74 688,-355.74 688,-336.74 577,-336.74"/>
<text text-anchor="middle" x="632.5" y="-343.74" font-family="Helvetica,sans-Serif" font-size="10.00">pa::detail::calc_ψ_ŷ</text>
</a>
</g>
</g>
<!-- Node11&#45;&gt;Node15 -->
<g id="edge20" class="edge">
<title>Node11&#45;&gt;Node15</title>
<path fill="none" stroke="midnightblue" d="M763.63,-230.95C732.09,-258.9 669.63,-314.23 644.42,-336.56"/>
<polygon fill="midnightblue" stroke="midnightblue" points="766.14,-233.41 771.3,-224.16 761.49,-228.17 766.14,-233.41"/>
</g>
<!-- Node18 -->
<g id="node18" class="node">
<title>Node18</title>
<g id="a_node18"><a xlink:href="namespacepa.html#a6dfe1ad7846f0becf790c95f9303c392" target="_top" xlink:title="Get the distance squared between the given vector and its projection.">
<polygon fill="white" stroke="black" points="593,-204.74 593,-223.74 672,-223.74 672,-204.74 593,-204.74"/>
<text text-anchor="middle" x="632.5" y="-211.74" font-family="Helvetica,sans-Serif" font-size="10.00">dist_squared</text>
</a>
</g>
</g>
<!-- Node11&#45;&gt;Node18 -->
<g id="edge43" class="edge">
<title>Node11&#45;&gt;Node18</title>
<path fill="none" stroke="midnightblue" d="M713.4,-214.24C699.28,-214.24 684.89,-214.24 672.3,-214.24"/>
<polygon fill="midnightblue" stroke="midnightblue" points="713.61,-217.74 723.61,-214.24 713.61,-210.74 713.61,-217.74"/>
</g>
<!-- Node12&#45;&gt;Node8 -->
<g id="edge19" class="edge">
<title>Node12&#45;&gt;Node8</title>
<path fill="none" stroke="midnightblue" d="M403.96,-121.21C394.6,-122.36 384.98,-123.55 375.55,-124.72"/>
<polygon fill="midnightblue" stroke="midnightblue" points="404.5,-124.67 413.99,-119.97 403.64,-117.72 404.5,-124.67"/>
</g>
<!-- Node13 -->
<g id="node13" class="node">
<title>Node13</title>
<g id="a_node13"><a xlink:href="namespacepa_1_1detail.html#a384dd0255096b08c79472df49f7f9388" target="_top" xlink:title="Compute the Hessian matrix of the augmented Lagrangian function multiplied by the given vector,...">
<polygon fill="white" stroke="black" points="218.5,-26.24 218.5,-56.24 376.5,-56.24 376.5,-26.24 218.5,-26.24"/>
<text text-anchor="start" x="226.5" y="-44.24" font-family="Helvetica,sans-Serif" font-size="10.00">pa::detail::calc_augmented</text>
<text text-anchor="middle" x="297.5" y="-33.24" font-family="Helvetica,sans-Serif" font-size="10.00">_lagrangian_hessian_prod_fd</text>
</a>
</g>
</g>
<!-- Node12&#45;&gt;Node13 -->
<g id="edge13" class="edge">
<title>Node12&#45;&gt;Node13</title>
<path fill="none" stroke="midnightblue" d="M448.73,-98.07C429.23,-88.42 402.38,-75.72 378,-66.24 368.96,-62.73 359.21,-59.34 349.74,-56.26"/>
<polygon fill="midnightblue" stroke="midnightblue" points="447.43,-101.33 457.94,-102.67 450.56,-95.07 447.43,-101.33"/>
</g>
<!-- Node14 -->
<g id="node14" class="node">
<title>Node14</title>
<g id="a_node14"><a xlink:href="namespacepa_1_1detail.html#a24c0ce181607512a70dae43aa90fea5f" target="_top" xlink:title=" ">
<polygon fill="white" stroke="black" points="242,-75.24 242,-105.24 353,-105.24 353,-75.24 242,-75.24"/>
<text text-anchor="start" x="250" y="-93.24" font-family="Helvetica,sans-Serif" font-size="10.00">pa::detail::initial</text>
<text text-anchor="middle" x="297.5" y="-82.24" font-family="Helvetica,sans-Serif" font-size="10.00">_lipschitz_estimate</text>
</a>
</g>
</g>
<!-- Node12&#45;&gt;Node14 -->
<g id="edge15" class="edge">
<title>Node12&#45;&gt;Node14</title>
<path fill="none" stroke="midnightblue" d="M403.62,-103.23C386.75,-101.15 369.09,-98.96 353.16,-97"/>
<polygon fill="midnightblue" stroke="midnightblue" points="403.64,-106.76 413.99,-104.52 404.5,-99.81 403.64,-106.76"/>
</g>
<!-- Node13&#45;&gt;Node5 -->
<g id="edge14" class="edge">
<title>Node13&#45;&gt;Node5</title>
<path fill="none" stroke="midnightblue" d="M234.07,-59.74C228.25,-61.8 222.48,-63.98 217,-66.24 181.39,-80.93 142.25,-102.05 117.31,-116.19"/>
<polygon fill="midnightblue" stroke="midnightblue" points="235.54,-62.93 243.87,-56.38 233.27,-56.31 235.54,-62.93"/>
</g>
<!-- Node14&#45;&gt;Node4 -->
<g id="edge16" class="edge">
<title>Node14&#45;&gt;Node4</title>
<path fill="none" stroke="midnightblue" d="M232.28,-103.08C226.53,-106.29 221.28,-110.28 217,-115.24 150.02,-192.95 237.23,-257.44 181,-343.24 168.68,-362.04 147.78,-375.86 129.27,-385.19"/>
<polygon fill="midnightblue" stroke="midnightblue" points="234.09,-106.1 241.65,-98.67 231.11,-99.76 234.09,-106.1"/>
</g>
<!-- Node14&#45;&gt;Node5 -->
<g id="edge17" class="edge">
<title>Node14&#45;&gt;Node5</title>
<path fill="none" stroke="midnightblue" d="M231.9,-103.16C211.23,-107.29 188.17,-111.91 166.81,-116.18"/>
<polygon fill="midnightblue" stroke="midnightblue" points="232.71,-106.57 241.83,-101.17 231.34,-99.7 232.71,-106.57"/>
</g>
<!-- Node14&#45;&gt;Node9 -->
<g id="edge18" class="edge">
<title>Node14&#45;&gt;Node9</title>
<path fill="none" stroke="midnightblue" d="M232.32,-105.75C226.87,-108.43 221.66,-111.57 217,-115.24 180.43,-144.05 114.03,-277.7 96.08,-314.71"/>
<polygon fill="midnightblue" stroke="midnightblue" points="233.93,-108.87 241.7,-101.66 231.13,-102.46 233.93,-108.87"/>
</g>
<!-- Node15&#45;&gt;Node3 -->
<g id="edge36" class="edge">
<title>Node15&#45;&gt;Node3</title>
<path fill="none" stroke="midnightblue" d="M607.38,-361.28C589.63,-371.71 564.59,-385.13 541,-393.24 486.84,-411.87 423.08,-423.31 374.53,-430"/>
<polygon fill="midnightblue" stroke="midnightblue" points="609.65,-363.99 616.43,-355.85 606.05,-357.99 609.65,-363.99"/>
</g>
<!-- Node15&#45;&gt;Node4 -->
<g id="edge37" class="edge">
<title>Node15&#45;&gt;Node4</title>
<path fill="none" stroke="midnightblue" d="M627.19,-365.76C617.77,-404.44 591.97,-491.7 541,-545.24 484.8,-604.26 457.2,-610.03 378,-629.24 308.46,-646.11 278.57,-665.71 217,-629.24 135.28,-580.84 103.26,-458.29 94.33,-415.37"/>
<polygon fill="midnightblue" stroke="midnightblue" points="630.65,-366.34 629.51,-355.8 623.84,-364.75 630.65,-366.34"/>
</g>
<!-- Node15&#45;&gt;Node5 -->
<g id="edge38" class="edge">
<title>Node15&#45;&gt;Node5</title>
<path fill="none" stroke="midnightblue" d="M621.11,-327.64C609.16,-305.64 589.58,-267.65 577,-233.24 554.94,-172.9 581.92,-142.77 541,-93.24 489.96,-31.48 456.18,-33.78 378,-16.24 308.18,-0.58 283.69,9.69 217,-16.24 164.94,-36.48 121.35,-89.52 102.09,-115.89"/>
<polygon fill="midnightblue" stroke="midnightblue" points="618.13,-329.47 626.01,-336.55 624.26,-326.1 618.13,-329.47"/>
</g>
<!-- Node15&#45;&gt;Node6 -->
<g id="edge39" class="edge">
<title>Node15&#45;&gt;Node6</title>
<path fill="none" stroke="midnightblue" d="M621.4,-364.56C606.89,-389.09 577.81,-432.2 541,-455.24 490.41,-486.91 424.05,-501.58 373.54,-508.37"/>
<polygon fill="midnightblue" stroke="midnightblue" points="624.45,-366.28 626.39,-355.86 618.38,-362.79 624.45,-366.28"/>
</g>
<!-- Node15&#45;&gt;Node7 -->
<g id="edge40" class="edge">
<title>Node15&#45;&gt;Node7</title>
<path fill="none" stroke="midnightblue" d="M616.23,-363.17C599.49,-380.66 570.99,-407.43 541,-422.24 489.47,-447.69 425.88,-461.28 376.75,-468.46"/>
<polygon fill="midnightblue" stroke="midnightblue" points="618.79,-365.56 623.06,-355.86 613.67,-360.78 618.79,-365.56"/>
</g>
<!-- Node15&#45;&gt;Node8 -->
<g id="edge41" class="edge">
<title>Node15&#45;&gt;Node8</title>
<path fill="none" stroke="midnightblue" d="M617.39,-328.46C600.74,-308.32 571.45,-275.43 541,-253.24 490.08,-216.13 464.92,-227.35 414,-190.24 395.46,-176.73 397.95,-164.58 378,-153.24 371.21,-149.38 363.68,-146.31 356.02,-143.85"/>
<polygon fill="midnightblue" stroke="midnightblue" points="614.89,-330.93 623.91,-336.49 620.32,-326.52 614.89,-330.93"/>
</g>
<!-- Node15&#45;&gt;Node9 -->
<g id="edge42" class="edge">
<title>Node15&#45;&gt;Node9</title>
<path fill="none" stroke="midnightblue" d="M566.54,-343.59C464.08,-339.42 265.83,-331.34 160.76,-327.06"/>
<polygon fill="midnightblue" stroke="midnightblue" points="566.62,-347.1 576.75,-344.01 566.9,-340.11 566.62,-347.1"/>
</g>
<!-- Node16 -->
<g id="node16" class="node">
<title>Node16</title>
<g id="a_node16"><a xlink:href="namespacepa_1_1detail.html#aa986daa1d5f0dfdbc75c143d2aae2919" target="_top" xlink:title="Calculate both ψ(x) and its gradient ∇ψ(x).">
<polygon fill="white" stroke="black" points="427.5,-353.24 427.5,-383.24 527.5,-383.24 527.5,-353.24 427.5,-353.24"/>
<text text-anchor="start" x="435.5" y="-371.24" font-family="Helvetica,sans-Serif" font-size="10.00">pa::detail::calc_ψ</text>
<text text-anchor="middle" x="477.5" y="-360.24" font-family="Helvetica,sans-Serif" font-size="10.00">_grad_ψ</text>
</a>
</g>
</g>
<!-- Node15&#45;&gt;Node16 -->
<g id="edge21" class="edge">
<title>Node15&#45;&gt;Node16</title>
<path fill="none" stroke="midnightblue" d="M566.78,-355.55C553.66,-357.43 540.06,-359.39 527.59,-361.18"/>
<polygon fill="midnightblue" stroke="midnightblue" points="567.3,-359.01 576.7,-354.12 566.3,-352.08 567.3,-359.01"/>
</g>
<!-- Node17 -->
<g id="node17" class="node">
<title>Node17</title>
<g id="a_node17"><a xlink:href="namespacepa_1_1detail.html#adb5e65f5b5c52143daa1fc61c0f95d4e" target="_top" xlink:title="Increase the estimate of the Lipschitz constant of the objective gradient and decrease the step size ...">
<polygon fill="white" stroke="black" points="424,-262.24 424,-292.24 531,-292.24 531,-262.24 424,-262.24"/>
<text text-anchor="start" x="432" y="-280.24" font-family="Helvetica,sans-Serif" font-size="10.00">pa::detail::descent</text>
<text text-anchor="middle" x="477.5" y="-269.24" font-family="Helvetica,sans-Serif" font-size="10.00">_lemma</text>
</a>
</g>
</g>
<!-- Node15&#45;&gt;Node17 -->
<g id="edge30" class="edge">
<title>Node15&#45;&gt;Node17</title>
<path fill="none" stroke="midnightblue" d="M600.95,-332.46C575.21,-320.86 538.46,-304.28 511.95,-292.32"/>
<polygon fill="midnightblue" stroke="midnightblue" points="599.67,-335.73 610.23,-336.65 602.55,-329.34 599.67,-335.73"/>
</g>
<!-- Node16&#45;&gt;Node3 -->
<g id="edge23" class="edge">
<title>Node16&#45;&gt;Node3</title>
<path fill="none" stroke="midnightblue" d="M435.63,-387.66C411.29,-399.17 383.98,-411.96 378,-414.24 363.86,-419.64 347.94,-424.65 334.09,-428.68"/>
<polygon fill="midnightblue" stroke="midnightblue" points="437.23,-390.78 444.77,-383.34 434.23,-384.45 437.23,-390.78"/>
</g>
<!-- Node16&#45;&gt;Node4 -->
<g id="edge24" class="edge">
<title>Node16&#45;&gt;Node4</title>
<path fill="none" stroke="midnightblue" d="M417.12,-373.18C351.15,-378.66 244.31,-387.54 171.12,-393.62"/>
<polygon fill="midnightblue" stroke="midnightblue" points="417.67,-376.64 427.35,-372.33 417.09,-369.67 417.67,-376.64"/>
</g>
<!-- Node16&#45;&gt;Node5 -->
<g id="edge25" class="edge">
<title>Node16&#45;&gt;Node5</title>
<path fill="none" stroke="midnightblue" d="M443.44,-347.89C367.64,-301.23 182.74,-187.4 116.02,-146.33"/>
<polygon fill="midnightblue" stroke="midnightblue" points="441.77,-350.97 452.12,-353.24 445.44,-345.01 441.77,-350.97"/>
</g>
<!-- Node16&#45;&gt;Node6 -->
<g id="edge26" class="edge">
<title>Node16&#45;&gt;Node6</title>
<path fill="none" stroke="midnightblue" d="M464.31,-392.54C448.47,-421.57 418.03,-469.42 378,-495.24 372.04,-499.09 365.37,-502.15 358.5,-504.6"/>
<polygon fill="midnightblue" stroke="midnightblue" points="467.53,-393.96 469.12,-383.48 461.34,-390.68 467.53,-393.96"/>
</g>
<!-- Node16&#45;&gt;Node7 -->
<g id="edge27" class="edge">
<title>Node16&#45;&gt;Node7</title>
<path fill="none" stroke="midnightblue" d="M457.49,-390.95C439.19,-411.34 409.69,-440.56 378,-457.24 370.59,-461.14 362.38,-464.25 354.12,-466.73"/>
<polygon fill="midnightblue" stroke="midnightblue" points="460.2,-393.17 464.17,-383.35 454.94,-388.55 460.2,-393.17"/>
</g>
<!-- Node16&#45;&gt;Node8 -->
<g id="edge28" class="edge">
<title>Node16&#45;&gt;Node8</title>
<path fill="none" stroke="midnightblue" d="M450.89,-346.15C438.34,-334.21 423.86,-318.58 414,-302.24 388.3,-259.64 406.82,-236.79 378,-196.24 361.57,-173.13 334.1,-154.44 316.14,-143.83"/>
<polygon fill="midnightblue" stroke="midnightblue" points="448.67,-348.87 458.39,-353.08 453.42,-343.73 448.67,-348.87"/>
</g>
<!-- Node16&#45;&gt;Node9 -->
<g id="edge29" class="edge">
<title>Node16&#45;&gt;Node9</title>
<path fill="none" stroke="midnightblue" d="M417.05,-361.45C347.81,-353.53 233.6,-340.48 160.5,-332.13"/>
<polygon fill="midnightblue" stroke="midnightblue" points="417.02,-364.97 427.35,-362.62 417.81,-358.01 417.02,-364.97"/>
</g>
<!-- Node16&#45;&gt;Node14 -->
<g id="edge22" class="edge">
<title>Node16&#45;&gt;Node14</title>
<path fill="none" stroke="midnightblue" d="M449.41,-346.19C436.74,-334.45 422.59,-318.98 414,-302.24 375.35,-226.94 434.33,-178.41 378,-115.24 371.36,-107.79 362.52,-102.54 353.15,-98.84"/>
<polygon fill="midnightblue" stroke="midnightblue" points="447.25,-348.96 457.04,-353 451.91,-343.73 447.25,-348.96"/>
</g>
<!-- Node17&#45;&gt;Node3 -->
<g id="edge31" class="edge">
<title>Node17&#45;&gt;Node3</title>
<path fill="none" stroke="midnightblue" d="M451.94,-299.46C412.59,-335.05 337.01,-403.41 309.15,-428.61"/>
<polygon fill="midnightblue" stroke="midnightblue" points="454.69,-301.69 459.75,-292.39 449.99,-296.5 454.69,-301.69"/>
</g>
<!-- Node17&#45;&gt;Node4 -->
<g id="edge32" class="edge">
<title>Node17&#45;&gt;Node4</title>
<path fill="none" stroke="midnightblue" d="M419.37,-295.49C343.06,-319.87 209.27,-362.61 138.49,-385.23"/>
<polygon fill="midnightblue" stroke="midnightblue" points="420.83,-298.7 429.29,-292.32 418.7,-292.03 420.83,-298.7"/>
</g>
<!-- Node17&#45;&gt;Node5 -->
<g id="edge33" class="edge">
<title>Node17&#45;&gt;Node5</title>
<path fill="none" stroke="midnightblue" d="M436.39,-257.12C428.6,-252.41 420.77,-247.05 414,-241.24 394.57,-224.56 399.71,-209.84 378,-196.24 360.36,-185.19 248.71,-161.8 170.12,-146.3"/>
<polygon fill="midnightblue" stroke="midnightblue" points="434.7,-260.19 445.11,-262.16 438.2,-254.13 434.7,-260.19"/>
</g>
<!-- Node17&#45;&gt;Node8 -->
<g id="edge34" class="edge">
<title>Node17&#45;&gt;Node8</title>
<path fill="none" stroke="midnightblue" d="M432.54,-256.8C425.76,-252.34 419.28,-247.15 414,-241.24 387.22,-211.24 408.03,-184.98 378,-158.24 370.89,-151.91 362.17,-147.25 353.13,-143.82"/>
<polygon fill="midnightblue" stroke="midnightblue" points="430.85,-259.87 441.21,-262.07 434.48,-253.88 430.85,-259.87"/>
</g>
<!-- Node17&#45;&gt;Node9 -->
<g id="edge35" class="edge">
<title>Node17&#45;&gt;Node9</title>
<path fill="none" stroke="midnightblue" d="M413.47,-268.54C360.5,-263.01 283.08,-259.09 217,-272.24 176.29,-280.34 132.24,-301.88 108.68,-314.55"/>
<polygon fill="midnightblue" stroke="midnightblue" points="413.41,-272.06 423.73,-269.67 414.17,-265.1 413.41,-272.06"/>
</g>
</g>
</svg>
