<?xml version="1.0" encoding="UTF-8" standalone="no"?>
<!DOCTYPE svg PUBLIC "-//W3C//DTD SVG 1.1//EN"
 "http://www.w3.org/Graphics/SVG/1.1/DTD/svg11.dtd">
<!-- Generated by graphviz version 2.43.0 (0)
 -->
<!-- Title: panoc&#45;helpers.hpp Pages: 1 -->
<svg width="1064pt" height="252pt"
 viewBox="0.00 0.00 1063.50 252.00" xmlns="http://www.w3.org/2000/svg" xmlns:xlink="http://www.w3.org/1999/xlink">
<g id="graph0" class="graph" transform="scale(1 1) rotate(0) translate(4 248)">
<title>panoc&#45;helpers.hpp</title>
<polygon fill="white" stroke="transparent" points="-4,4 -4,-248 1059.5,-248 1059.5,4 -4,4"/>
<!-- Node1 -->
<g id="node1" class="node">
<title>Node1</title>
<g id="a_node1"><a xlink:title=" ">
<polygon fill="#bfbfbf" stroke="black" points="402,-224.5 402,-243.5 509,-243.5 509,-224.5 402,-224.5"/>
<text text-anchor="middle" x="455.5" y="-231.5" font-family="Helvetica,sans-Serif" font-size="10.00">panoc&#45;helpers.hpp</text>
</a>
</g>
</g>
<!-- Node2 -->
<g id="node2" class="node">
<title>Node2</title>
<g id="a_node2"><a xlink:href="specialized-lbfgs_8hpp.html" target="_top" xlink:title=" ">
<polygon fill="white" stroke="black" points="207.5,-168.5 207.5,-187.5 327.5,-187.5 327.5,-168.5 207.5,-168.5"/>
<text text-anchor="middle" x="267.5" y="-175.5" font-family="Helvetica,sans-Serif" font-size="10.00">specialized&#45;lbfgs.hpp</text>
</a>
</g>
</g>
<!-- Node1&#45;&gt;Node2 -->
<g id="edge1" class="edge">
<title>Node1&#45;&gt;Node2</title>
<path fill="none" stroke="midnightblue" d="M415.7,-221.57C380.23,-211.38 329.13,-196.7 297.15,-187.52"/>
<polygon fill="midnightblue" stroke="midnightblue" points="415.13,-225.05 425.71,-224.44 417.07,-218.32 415.13,-225.05"/>
</g>
<!-- Node3 -->
<g id="node3" class="node">
<title>Node3</title>
<g id="a_node3"><a xlink:href="guarded-aa-pga_8hpp.html" target="_top" xlink:title=" ">
<polygon fill="white" stroke="black" points="0,-112.5 0,-131.5 115,-131.5 115,-112.5 0,-112.5"/>
<text text-anchor="middle" x="57.5" y="-119.5" font-family="Helvetica,sans-Serif" font-size="10.00">guarded&#45;aa&#45;pga.hpp</text>
</a>
</g>
</g>
<!-- Node1&#45;&gt;Node3 -->
<g id="edge2" class="edge">
<title>Node1&#45;&gt;Node3</title>
<path fill="none" stroke="midnightblue" d="M428.83,-219.59C411.72,-210.86 389.13,-199.07 369.5,-188 354.56,-179.58 352.6,-173.92 336.5,-168 316.15,-160.52 190.9,-141.92 115.31,-131.12"/>
<polygon fill="midnightblue" stroke="midnightblue" points="427.7,-222.94 438.2,-224.35 430.87,-216.7 427.7,-222.94"/>
</g>
<!-- Node7 -->
<g id="node7" class="node">
<title>Node7</title>
<g id="a_node7"><a xlink:href="lbfgspp_8hpp.html" target="_top" xlink:title=" ">
<polygon fill="white" stroke="black" points="751.5,-168.5 751.5,-187.5 825.5,-187.5 825.5,-168.5 751.5,-168.5"/>
<text text-anchor="middle" x="788.5" y="-175.5" font-family="Helvetica,sans-Serif" font-size="10.00">lbfgspp.hpp</text>
</a>
</g>
</g>
<!-- Node1&#45;&gt;Node7 -->
<g id="edge8" class="edge">
<title>Node1&#45;&gt;Node7</title>
<path fill="none" stroke="midnightblue" d="M519.18,-223.72C577.41,-215.06 665.89,-201.5 742.5,-188 745.39,-187.49 748.37,-186.95 751.37,-186.39"/>
<polygon fill="midnightblue" stroke="midnightblue" points="518.4,-220.3 509.02,-225.22 519.43,-227.22 518.4,-220.3"/>
</g>
<!-- Node8 -->
<g id="node8" class="node">
<title>Node8</title>
<g id="a_node8"><a xlink:href="panoc_8hpp.html" target="_top" xlink:title=" ">
<polygon fill="white" stroke="black" points="422,-168.5 422,-187.5 489,-187.5 489,-168.5 422,-168.5"/>
<text text-anchor="middle" x="455.5" y="-175.5" font-family="Helvetica,sans-Serif" font-size="10.00">panoc.hpp</text>
</a>
</g>
</g>
<!-- Node1&#45;&gt;Node8 -->
<g id="edge9" class="edge">
<title>Node1&#45;&gt;Node8</title>
<path fill="none" stroke="midnightblue" d="M455.5,-213.8C455.5,-204.91 455.5,-194.78 455.5,-187.75"/>
<polygon fill="midnightblue" stroke="midnightblue" points="452,-214.08 455.5,-224.08 459,-214.08 452,-214.08"/>
</g>
<!-- Node13 -->
<g id="node13" class="node">
<title>Node13</title>
<g id="a_node13"><a xlink:href="pga_8hpp.html" target="_top" xlink:title=" ">
<polygon fill="white" stroke="black" points="133.5,-112.5 133.5,-131.5 189.5,-131.5 189.5,-112.5 133.5,-112.5"/>
<text text-anchor="middle" x="161.5" y="-119.5" font-family="Helvetica,sans-Serif" font-size="10.00">pga.hpp</text>
</a>
</g>
</g>
<!-- Node1&#45;&gt;Node13 -->
<g id="edge18" class="edge">
<title>Node1&#45;&gt;Node13</title>
<path fill="none" stroke="midnightblue" d="M439.29,-217.22C422.99,-202.25 396.48,-180.29 369.5,-168 298.82,-135.81 274.24,-149.18 198.5,-132 195.66,-131.36 192.71,-130.67 189.76,-129.97"/>
<polygon fill="midnightblue" stroke="midnightblue" points="437.15,-220.01 446.83,-224.31 441.95,-214.91 437.15,-220.01"/>
</g>
<!-- Node14 -->
<g id="node14" class="node">
<title>Node14</title>
<g id="a_node14"><a xlink:href="second-order-panoc_8hpp.html" target="_top" xlink:title=" ">
<polygon fill="white" stroke="black" points="882.5,-168.5 882.5,-187.5 1016.5,-187.5 1016.5,-168.5 882.5,-168.5"/>
<text text-anchor="middle" x="949.5" y="-175.5" font-family="Helvetica,sans-Serif" font-size="10.00">second&#45;order&#45;panoc.hpp</text>
</a>
</g>
</g>
<!-- Node1&#45;&gt;Node14 -->
<g id="edge22" class="edge">
<title>Node1&#45;&gt;Node14</title>
<path fill="none" stroke="midnightblue" d="M519.5,-226C613.22,-215.76 786.98,-196.76 882.42,-186.33"/>
<polygon fill="midnightblue" stroke="midnightblue" points="518.87,-222.55 509.31,-227.12 519.63,-229.51 518.87,-222.55"/>
</g>
<!-- Node16 -->
<g id="node16" class="node">
<title>Node16</title>
<g id="a_node16"><a xlink:href="structured-panoc-lbfgs_8hpp.html" target="_top" xlink:title=" ">
<polygon fill="white" stroke="black" points="585.5,-168.5 585.5,-187.5 733.5,-187.5 733.5,-168.5 585.5,-168.5"/>
<text text-anchor="middle" x="659.5" y="-175.5" font-family="Helvetica,sans-Serif" font-size="10.00">structured&#45;panoc&#45;lbfgs.hpp</text>
</a>
</g>
</g>
<!-- Node1&#45;&gt;Node16 -->
<g id="edge24" class="edge">
<title>Node1&#45;&gt;Node16</title>
<path fill="none" stroke="midnightblue" d="M497.7,-221.83C536.22,-211.63 592.32,-196.78 627.33,-187.52"/>
<polygon fill="midnightblue" stroke="midnightblue" points="496.6,-218.5 487.82,-224.44 498.39,-225.27 496.6,-218.5"/>
</g>
<!-- Node4 -->
<g id="node4" class="node">
<title>Node4</title>
<g id="a_node4"><a xlink:href="kwargs-to-struct_8hpp.html" target="_top" xlink:title="This file defines mappings from Python dicts (kwargs) to simple parameter structs.">
<polygon fill="white" stroke="black" points="102.5,-56.5 102.5,-75.5 220.5,-75.5 220.5,-56.5 102.5,-56.5"/>
<text text-anchor="middle" x="161.5" y="-63.5" font-family="Helvetica,sans-Serif" font-size="10.00">kwargs&#45;to&#45;struct.hpp</text>
</a>
</g>
</g>
<!-- Node3&#45;&gt;Node4 -->
<g id="edge3" class="edge">
<title>Node3&#45;&gt;Node4</title>
<path fill="none" stroke="midnightblue" d="M83.33,-107.59C102.56,-97.61 128.24,-84.27 144.83,-75.65"/>
<polygon fill="midnightblue" stroke="midnightblue" points="81.47,-104.61 74.21,-112.32 84.7,-110.82 81.47,-104.61"/>
</g>
<!-- Node5 -->
<g id="node5" class="node">
<title>Node5</title>
<g id="a_node5"><a xlink:href="panocpy_8cpp.html" target="_top" xlink:title="This file defines all Python bindings.">
<polygon fill="white" stroke="black" points="392,-0.5 392,-19.5 469,-19.5 469,-0.5 392,-0.5"/>
<text text-anchor="middle" x="430.5" y="-7.5" font-family="Helvetica,sans-Serif" font-size="10.00">panocpy.cpp</text>
</a>
</g>
</g>
<!-- Node3&#45;&gt;Node5 -->
<g id="edge5" class="edge">
<title>Node3&#45;&gt;Node5</title>
<path fill="none" stroke="midnightblue" d="M62.72,-102.31C67.95,-87.26 77.55,-66.88 93.5,-56 141.34,-23.35 313.88,-14.31 391.81,-11.87"/>
<polygon fill="midnightblue" stroke="midnightblue" points="59.3,-101.52 59.66,-112.11 65.98,-103.61 59.3,-101.52"/>
</g>
<!-- Node6 -->
<g id="node6" class="node">
<title>Node6</title>
<g id="a_node6"><a xlink:href="polymorphic-inner-solver_8hpp.html" target="_top" xlink:title=" ">
<polygon fill="white" stroke="black" points="350.5,-56.5 350.5,-75.5 510.5,-75.5 510.5,-56.5 350.5,-56.5"/>
<text text-anchor="middle" x="430.5" y="-63.5" font-family="Helvetica,sans-Serif" font-size="10.00">polymorphic&#45;inner&#45;solver.hpp</text>
</a>
</g>
</g>
<!-- Node3&#45;&gt;Node6 -->
<g id="edge6" class="edge">
<title>Node3&#45;&gt;Node6</title>
<path fill="none" stroke="midnightblue" d="M125.47,-111.16C195.86,-100.97 304.71,-85.21 371.57,-75.53"/>
<polygon fill="midnightblue" stroke="midnightblue" points="124.77,-107.72 115.37,-112.62 125.77,-114.65 124.77,-107.72"/>
</g>
<!-- Node4&#45;&gt;Node5 -->
<g id="edge4" class="edge">
<title>Node4&#45;&gt;Node5</title>
<path fill="none" stroke="midnightblue" d="M214.21,-54.42C266.48,-43.93 345.34,-28.1 392,-18.73"/>
<polygon fill="midnightblue" stroke="midnightblue" points="213.24,-51.04 204.12,-56.44 214.62,-57.91 213.24,-51.04"/>
</g>
<!-- Node6&#45;&gt;Node5 -->
<g id="edge7" class="edge">
<title>Node6&#45;&gt;Node5</title>
<path fill="none" stroke="midnightblue" d="M430.5,-45.8C430.5,-36.91 430.5,-26.78 430.5,-19.75"/>
<polygon fill="midnightblue" stroke="midnightblue" points="427,-46.08 430.5,-56.08 434,-46.08 427,-46.08"/>
</g>
<!-- Node8&#45;&gt;Node5 -->
<g id="edge10" class="edge">
<title>Node8&#45;&gt;Node5</title>
<path fill="none" stroke="midnightblue" d="M499.13,-174.2C555.61,-169.55 649.33,-158.05 670.5,-132 676.1,-125.1 675.35,-119.45 670.5,-112 625.94,-43.65 524.9,-21.47 469.18,-14.34"/>
<polygon fill="midnightblue" stroke="midnightblue" points="498.73,-170.72 489.04,-174.99 499.28,-177.7 498.73,-170.72"/>
</g>
<!-- Node8&#45;&gt;Node6 -->
<g id="edge11" class="edge">
<title>Node8&#45;&gt;Node6</title>
<path fill="none" stroke="midnightblue" d="M451.26,-158.35C445.78,-134.25 436.48,-93.31 432.45,-75.59"/>
<polygon fill="midnightblue" stroke="midnightblue" points="447.91,-159.39 453.54,-168.37 454.73,-157.84 447.91,-159.39"/>
</g>
<!-- Node9 -->
<g id="node9" class="node">
<title>Node9</title>
<g id="a_node9"><a xlink:href="polymorphic-panoc-direction_8hpp.html" target="_top" xlink:title=" ">
<polygon fill="white" stroke="black" points="483.5,-112.5 483.5,-131.5 661.5,-131.5 661.5,-112.5 483.5,-112.5"/>
<text text-anchor="middle" x="572.5" y="-119.5" font-family="Helvetica,sans-Serif" font-size="10.00">polymorphic&#45;panoc&#45;direction.hpp</text>
</a>
</g>
</g>
<!-- Node8&#45;&gt;Node9 -->
<g id="edge12" class="edge">
<title>Node8&#45;&gt;Node9</title>
<path fill="none" stroke="midnightblue" d="M483.16,-164.23C505.05,-154.13 535,-140.31 554.05,-131.52"/>
<polygon fill="midnightblue" stroke="midnightblue" points="481.65,-161.08 474.04,-168.44 484.59,-167.43 481.65,-161.08"/>
</g>
<!-- Node10 -->
<g id="node10" class="node">
<title>Node10</title>
<g id="a_node10"><a xlink:href="alm_8cpp.html" target="_top" xlink:title=" ">
<polygon fill="white" stroke="black" points="207.5,-112.5 207.5,-131.5 263.5,-131.5 263.5,-112.5 207.5,-112.5"/>
<text text-anchor="middle" x="235.5" y="-119.5" font-family="Helvetica,sans-Serif" font-size="10.00">alm.cpp</text>
</a>
</g>
</g>
<!-- Node8&#45;&gt;Node10 -->
<g id="edge15" class="edge">
<title>Node8&#45;&gt;Node10</title>
<path fill="none" stroke="midnightblue" d="M411.77,-166.27C367.8,-155.47 301.33,-139.16 263.83,-129.95"/>
<polygon fill="midnightblue" stroke="midnightblue" points="411.06,-169.7 421.61,-168.68 412.73,-162.9 411.06,-169.7"/>
</g>
<!-- Node11 -->
<g id="node11" class="node">
<title>Node11</title>
<g id="a_node11"><a xlink:href="panoc_8cpp.html" target="_top" xlink:title=" ">
<polygon fill="white" stroke="black" points="281.5,-112.5 281.5,-131.5 347.5,-131.5 347.5,-112.5 281.5,-112.5"/>
<text text-anchor="middle" x="314.5" y="-119.5" font-family="Helvetica,sans-Serif" font-size="10.00">panoc.cpp</text>
</a>
</g>
</g>
<!-- Node8&#45;&gt;Node11 -->
<g id="edge16" class="edge">
<title>Node8&#45;&gt;Node11</title>
<path fill="none" stroke="midnightblue" d="M423.57,-164.77C397.09,-154.63 360.11,-140.47 336.74,-131.52"/>
<polygon fill="midnightblue" stroke="midnightblue" points="422.57,-168.14 433.16,-168.44 425.07,-161.6 422.57,-168.14"/>
</g>
<!-- Node12 -->
<g id="node12" class="node">
<title>Node12</title>
<g id="a_node12"><a xlink:href="Presentation_2Cpp_2main_8cpp.html" target="_top" xlink:title=" ">
<polygon fill="white" stroke="black" points="365.5,-112.5 365.5,-131.5 427.5,-131.5 427.5,-112.5 365.5,-112.5"/>
<text text-anchor="middle" x="396.5" y="-119.5" font-family="Helvetica,sans-Serif" font-size="10.00">main.cpp</text>
</a>
</g>
</g>
<!-- Node8&#45;&gt;Node12 -->
<g id="edge17" class="edge">
<title>Node8&#45;&gt;Node12</title>
<path fill="none" stroke="midnightblue" d="M438.61,-161.54C428.09,-151.91 414.93,-139.87 406.15,-131.83"/>
<polygon fill="midnightblue" stroke="midnightblue" points="436.28,-164.15 446.02,-168.32 441.01,-158.99 436.28,-164.15"/>
</g>
<!-- Node9&#45;&gt;Node5 -->
<g id="edge13" class="edge">
<title>Node9&#45;&gt;Node5</title>
<path fill="none" stroke="midnightblue" d="M561.7,-104.1C551.98,-89.9 536.62,-69.78 519.5,-56 499.4,-39.83 472.55,-27.24 453.61,-19.54"/>
<polygon fill="midnightblue" stroke="midnightblue" points="558.79,-106.05 567.23,-112.45 564.63,-102.18 558.79,-106.05"/>
</g>
<!-- Node9&#45;&gt;Node6 -->
<g id="edge14" class="edge">
<title>Node9&#45;&gt;Node6</title>
<path fill="none" stroke="midnightblue" d="M540.34,-108.77C513.67,-98.63 476.43,-84.47 452.9,-75.52"/>
<polygon fill="midnightblue" stroke="midnightblue" points="539.41,-112.16 550,-112.44 541.9,-105.62 539.41,-112.16"/>
</g>
<!-- Node13&#45;&gt;Node4 -->
<g id="edge19" class="edge">
<title>Node13&#45;&gt;Node4</title>
<path fill="none" stroke="midnightblue" d="M161.5,-101.8C161.5,-92.91 161.5,-82.78 161.5,-75.75"/>
<polygon fill="midnightblue" stroke="midnightblue" points="158,-102.08 161.5,-112.08 165,-102.08 158,-102.08"/>
</g>
<!-- Node13&#45;&gt;Node5 -->
<g id="edge20" class="edge">
<title>Node13&#45;&gt;Node5</title>
<path fill="none" stroke="midnightblue" d="M192.2,-108.45C247.45,-85.86 362.24,-38.91 409.49,-19.59"/>
<polygon fill="midnightblue" stroke="midnightblue" points="190.54,-105.34 182.61,-112.37 193.19,-111.82 190.54,-105.34"/>
</g>
<!-- Node13&#45;&gt;Node6 -->
<g id="edge21" class="edge">
<title>Node13&#45;&gt;Node6</title>
<path fill="none" stroke="midnightblue" d="M199.92,-111.77C268.89,-96.82 338.03,-83.77 382.82,-75.57"/>
<polygon fill="midnightblue" stroke="midnightblue" points="198.77,-108.43 189.75,-113.98 200.27,-115.27 198.77,-108.43"/>
</g>
<!-- Node15 -->
<g id="node15" class="node">
<title>Node15</title>
<g id="a_node15"><a xlink:href="second-order-panoc_8cpp.html" target="_top" xlink:title=" ">
<polygon fill="white" stroke="black" points="921.5,-112.5 921.5,-131.5 1055.5,-131.5 1055.5,-112.5 921.5,-112.5"/>
<text text-anchor="middle" x="988.5" y="-119.5" font-family="Helvetica,sans-Serif" font-size="10.00">second&#45;order&#45;panoc.cpp</text>
</a>
</g>
</g>
<!-- Node14&#45;&gt;Node15 -->
<g id="edge23" class="edge">
<title>Node14&#45;&gt;Node15</title>
<path fill="none" stroke="midnightblue" d="M961.88,-159.86C968.64,-150.5 976.71,-139.33 982.18,-131.75"/>
<polygon fill="midnightblue" stroke="midnightblue" points="958.96,-157.93 955.94,-168.08 964.63,-162.03 958.96,-157.93"/>
</g>
<!-- Node16&#45;&gt;Node5 -->
<g id="edge25" class="edge">
<title>Node16&#45;&gt;Node5</title>
<path fill="none" stroke="midnightblue" d="M728.83,-166.92C788.06,-157.6 865.17,-143.49 874.5,-132 880.1,-125.1 880.02,-118.97 874.5,-112 824.04,-48.22 567.89,-21.72 469.27,-13.77"/>
<polygon fill="midnightblue" stroke="midnightblue" points="728.09,-163.49 718.75,-168.49 729.17,-170.41 728.09,-163.49"/>
</g>
<!-- Node17 -->
<g id="node17" class="node">
<title>Node17</title>
<g id="a_node17"><a xlink:href="structured-panoc-lbfgs_8cpp.html" target="_top" xlink:title=" ">
<polygon fill="white" stroke="black" points="718,-112.5 718,-131.5 865,-131.5 865,-112.5 718,-112.5"/>
<text text-anchor="middle" x="791.5" y="-119.5" font-family="Helvetica,sans-Serif" font-size="10.00">structured&#45;panoc&#45;lbfgs.cpp</text>
</a>
</g>
</g>
<!-- Node16&#45;&gt;Node17 -->
<g id="edge26" class="edge">
<title>Node16&#45;&gt;Node17</title>
<path fill="none" stroke="midnightblue" d="M689.72,-164.64C714.49,-154.5 748.9,-140.43 770.68,-131.52"/>
<polygon fill="midnightblue" stroke="midnightblue" points="688.35,-161.42 680.42,-168.44 691,-167.9 688.35,-161.42"/>
</g>
</g>
</svg>
