<?xml version="1.0" encoding="UTF-8" standalone="no"?>
<!DOCTYPE svg PUBLIC "-//W3C//DTD SVG 1.1//EN"
 "http://www.w3.org/Graphics/SVG/1.1/DTD/svg11.dtd">
<!-- Generated by graphviz version 2.43.0 (0)
 -->
<!-- Title: PYBIND11_MODULE Pages: 1 -->
<svg width="539pt" height="1969pt"
 viewBox="0.00 0.00 539.00 1969.00" xmlns="http://www.w3.org/2000/svg" xmlns:xlink="http://www.w3.org/1999/xlink">
<g id="graph0" class="graph" transform="scale(1 1) rotate(0) translate(4 1965)">
<title>PYBIND11_MODULE</title>
<polygon fill="white" stroke="transparent" points="-4,4 -4,-1965 535,-1965 535,4 -4,4"/>
<!-- Node1 -->
<g id="node1" class="node">
<title>Node1</title>
<g id="a_node1"><a xlink:title=" ">
<polygon fill="#bfbfbf" stroke="black" points="0,-915 0,-934 113,-934 113,-915 0,-915"/>
<text text-anchor="middle" x="56.5" y="-922" font-family="Helvetica,sans-Serif" font-size="10.00">PYBIND11_MODULE</text>
</a>
</g>
</g>
<!-- Node2 -->
<g id="node2" class="node">
<title>Node2</title>
<g id="a_node2"><a xlink:href="classpa_1_1PolymorphicPANOCDirectionBase.html#a71e999f6a6bb8ec8aa79b3f2756e5e43" target="_top" xlink:title=" ">
<polygon fill="white" stroke="black" points="149,-1930.5 149,-1960.5 322,-1960.5 322,-1930.5 149,-1930.5"/>
<text text-anchor="start" x="157" y="-1948.5" font-family="Helvetica,sans-Serif" font-size="10.00">pa::PolymorphicPANOCDirection</text>
<text text-anchor="middle" x="235.5" y="-1937.5" font-family="Helvetica,sans-Serif" font-size="10.00">Base::apply_ret</text>
</a>
</g>
</g>
<!-- Node1&#45;&gt;Node2 -->
<g id="edge1" class="edge">
<title>Node1&#45;&gt;Node2</title>
<path fill="none" stroke="midnightblue" d="M57.73,-934.14C60.15,-1031.85 82.13,-1841.19 149,-1921.5 149.63,-1922.25 150.27,-1922.98 150.94,-1923.69"/>
<polygon fill="midnightblue" stroke="midnightblue" points="148.93,-1926.58 158.79,-1930.46 153.5,-1921.28 148.93,-1926.58"/>
</g>
<!-- Node4 -->
<g id="node4" class="node">
<title>Node4</title>
<g id="a_node4"><a xlink:href="classpa_1_1PolymorphicPANOCDirection.html#a67326bc3d5665b77ff93f24753463255" target="_top" xlink:title=" ">
<polygon fill="white" stroke="black" points="149,-1881.5 149,-1911.5 322,-1911.5 322,-1881.5 149,-1881.5"/>
<text text-anchor="start" x="157" y="-1899.5" font-family="Helvetica,sans-Serif" font-size="10.00">pa::PolymorphicPANOCDirection</text>
<text text-anchor="middle" x="235.5" y="-1888.5" font-family="Helvetica,sans-Serif" font-size="10.00">::changed_γ</text>
</a>
</g>
</g>
<!-- Node1&#45;&gt;Node4 -->
<g id="edge3" class="edge">
<title>Node1&#45;&gt;Node4</title>
<path fill="none" stroke="midnightblue" d="M57.78,-934.25C60.62,-1029.79 85.34,-1796.41 149,-1872.5 149.63,-1873.25 150.28,-1873.98 150.95,-1874.68"/>
<polygon fill="midnightblue" stroke="midnightblue" points="148.95,-1877.58 158.81,-1881.44 153.51,-1872.27 148.95,-1877.58"/>
</g>
<!-- Node6 -->
<g id="node6" class="node">
<title>Node6</title>
<g id="a_node6"><a xlink:href="classpa_1_1PolymorphicPANOCDirectionBase.html#a0fe5a145be59f5127a9db2392adfb060" target="_top" xlink:title=" ">
<polygon fill="white" stroke="black" points="149,-1832.5 149,-1862.5 322,-1862.5 322,-1832.5 149,-1832.5"/>
<text text-anchor="start" x="157" y="-1850.5" font-family="Helvetica,sans-Serif" font-size="10.00">pa::PolymorphicPANOCDirection</text>
<text text-anchor="middle" x="235.5" y="-1839.5" font-family="Helvetica,sans-Serif" font-size="10.00">Base::changed_γ</text>
</a>
</g>
</g>
<!-- Node1&#45;&gt;Node6 -->
<g id="edge5" class="edge">
<title>Node1&#45;&gt;Node6</title>
<path fill="none" stroke="midnightblue" d="M57.83,-934.04C61.06,-1025.87 88.47,-1751.54 149,-1823.5 149.63,-1824.25 150.28,-1824.97 150.95,-1825.68"/>
<polygon fill="midnightblue" stroke="midnightblue" points="148.96,-1828.58 158.83,-1832.43 153.51,-1823.26 148.96,-1828.58"/>
</g>
<!-- Node7 -->
<g id="node7" class="node">
<title>Node7</title>
<g id="a_node7"><a xlink:href="structpa_1_1PolymorphicInnerSolverBase_1_1Stats.html#a2b19ef70fce315531e25f9b1af097099" target="_top" xlink:title=" ">
<polygon fill="white" stroke="black" points="160,-1783.5 160,-1813.5 311,-1813.5 311,-1783.5 160,-1783.5"/>
<text text-anchor="start" x="168" y="-1801.5" font-family="Helvetica,sans-Serif" font-size="10.00">pa::PolymorphicInnerSolver</text>
<text text-anchor="middle" x="235.5" y="-1790.5" font-family="Helvetica,sans-Serif" font-size="10.00">Base::Stats::from_dict</text>
</a>
</g>
</g>
<!-- Node1&#45;&gt;Node7 -->
<g id="edge6" class="edge">
<title>Node1&#45;&gt;Node7</title>
<path fill="none" stroke="midnightblue" d="M57.89,-934.05C61.63,-1023.07 92.09,-1705.5 149,-1773.5 149.99,-1774.69 151.04,-1775.82 152.13,-1776.9"/>
<polygon fill="midnightblue" stroke="midnightblue" points="150.01,-1779.68 159.97,-1783.29 154.43,-1774.26 150.01,-1779.68"/>
</g>
<!-- Node8 -->
<g id="node8" class="node">
<title>Node8</title>
<g id="a_node8"><a xlink:href="classpa_1_1ALMSolver.html#a0789ba541bd61b1b394ff4d411a40790" target="_top" xlink:title=" ">
<polygon fill="white" stroke="black" points="165,-1745 165,-1764 306,-1764 306,-1745 165,-1745"/>
<text text-anchor="middle" x="235.5" y="-1752" font-family="Helvetica,sans-Serif" font-size="10.00">pa::ALMSolver::get_name</text>
</a>
</g>
</g>
<!-- Node1&#45;&gt;Node8 -->
<g id="edge7" class="edge">
<title>Node1&#45;&gt;Node8</title>
<path fill="none" stroke="midnightblue" d="M57.92,-934.19C61.8,-1021.64 92.46,-1672.61 149,-1735.5 151.1,-1737.83 153.41,-1739.91 155.89,-1741.77"/>
<polygon fill="midnightblue" stroke="midnightblue" points="154.54,-1745.04 164.91,-1747.23 158.17,-1739.05 154.54,-1745.04"/>
</g>
<!-- Node9 -->
<g id="node9" class="node">
<title>Node9</title>
<g id="a_node9"><a xlink:href="classpa_1_1PolymorphicInnerSolverBase.html#a9752bfc9dd39aab02fc9487067abf9a9" target="_top" xlink:title=" ">
<polygon fill="white" stroke="black" points="160,-1695.5 160,-1725.5 311,-1725.5 311,-1695.5 160,-1695.5"/>
<text text-anchor="start" x="168" y="-1713.5" font-family="Helvetica,sans-Serif" font-size="10.00">pa::PolymorphicInnerSolver</text>
<text text-anchor="middle" x="235.5" y="-1702.5" font-family="Helvetica,sans-Serif" font-size="10.00">Base::get_name</text>
</a>
</g>
</g>
<!-- Node1&#45;&gt;Node9 -->
<g id="edge8" class="edge">
<title>Node1&#45;&gt;Node9</title>
<path fill="none" stroke="midnightblue" d="M58.01,-934.11C62.59,-1018.15 97.37,-1626.23 149,-1686.5 149.87,-1687.52 150.79,-1688.5 151.74,-1689.44"/>
<polygon fill="midnightblue" stroke="midnightblue" points="149.7,-1692.29 159.66,-1695.88 154.11,-1686.86 149.7,-1692.29"/>
</g>
<!-- Node10 -->
<g id="node10" class="node">
<title>Node10</title>
<g id="a_node10"><a xlink:href="classpa_1_1PolymorphicPANOCDirectionBase.html#a9752bfc9dd39aab02fc9487067abf9a9" target="_top" xlink:title=" ">
<polygon fill="white" stroke="black" points="149,-1646.5 149,-1676.5 322,-1676.5 322,-1646.5 149,-1646.5"/>
<text text-anchor="start" x="157" y="-1664.5" font-family="Helvetica,sans-Serif" font-size="10.00">pa::PolymorphicPANOCDirection</text>
<text text-anchor="middle" x="235.5" y="-1653.5" font-family="Helvetica,sans-Serif" font-size="10.00">Base::get_name</text>
</a>
</g>
</g>
<!-- Node1&#45;&gt;Node10 -->
<g id="edge9" class="edge">
<title>Node1&#45;&gt;Node10</title>
<path fill="none" stroke="midnightblue" d="M57.33,-934.34C56.21,-1011.97 52.54,-1525.81 149,-1637.5 149.64,-1638.24 150.3,-1638.96 150.98,-1639.66"/>
<polygon fill="midnightblue" stroke="midnightblue" points="149.03,-1642.59 158.94,-1646.34 153.53,-1637.23 149.03,-1642.59"/>
</g>
<!-- Node11 -->
<g id="node11" class="node">
<title>Node11</title>
<g id="a_node11"><a xlink:href="classpa_1_1PolymorphicInnerSolver.html#aea9b04d36ad2b9a4e1c166589ecb0326" target="_top" xlink:title=" ">
<polygon fill="white" stroke="black" points="160,-1597.5 160,-1627.5 311,-1627.5 311,-1597.5 160,-1597.5"/>
<text text-anchor="start" x="168" y="-1615.5" font-family="Helvetica,sans-Serif" font-size="10.00">pa::PolymorphicInnerSolver</text>
<text text-anchor="middle" x="235.5" y="-1604.5" font-family="Helvetica,sans-Serif" font-size="10.00">::get_name</text>
</a>
</g>
</g>
<!-- Node1&#45;&gt;Node11 -->
<g id="edge10" class="edge">
<title>Node1&#45;&gt;Node11</title>
<path fill="none" stroke="midnightblue" d="M57.44,-934.13C57.14,-1008.03 58.76,-1485 149,-1588.5 149.88,-1589.51 150.81,-1590.49 151.76,-1591.42"/>
<polygon fill="midnightblue" stroke="midnightblue" points="149.75,-1594.29 159.74,-1597.82 154.13,-1588.83 149.75,-1594.29"/>
</g>
<!-- Node12 -->
<g id="node12" class="node">
<title>Node12</title>
<g id="a_node12"><a xlink:href="classpa_1_1PolymorphicPANOCDirection.html#aea9b04d36ad2b9a4e1c166589ecb0326" target="_top" xlink:title=" ">
<polygon fill="white" stroke="black" points="149,-1548.5 149,-1578.5 322,-1578.5 322,-1548.5 149,-1548.5"/>
<text text-anchor="start" x="157" y="-1566.5" font-family="Helvetica,sans-Serif" font-size="10.00">pa::PolymorphicPANOCDirection</text>
<text text-anchor="middle" x="235.5" y="-1555.5" font-family="Helvetica,sans-Serif" font-size="10.00">::get_name</text>
</a>
</g>
</g>
<!-- Node1&#45;&gt;Node12 -->
<g id="edge11" class="edge">
<title>Node1&#45;&gt;Node12</title>
<path fill="none" stroke="midnightblue" d="M57.55,-934.32C58.14,-1005.65 65.14,-1444.35 149,-1539.5 149.65,-1540.23 150.31,-1540.95 151,-1541.64"/>
<polygon fill="midnightblue" stroke="midnightblue" points="149.08,-1544.59 159.02,-1548.27 153.54,-1539.2 149.08,-1544.59"/>
</g>
<!-- Node13 -->
<g id="node13" class="node">
<title>Node13</title>
<g id="a_node13"><a xlink:href="classpa_1_1ProblemWithParam.html#a63ddef6202947b58b11229a95bb19f57" target="_top" xlink:title=" ">
<polygon fill="white" stroke="black" points="171.5,-1499.5 171.5,-1529.5 299.5,-1529.5 299.5,-1499.5 171.5,-1499.5"/>
<text text-anchor="start" x="179.5" y="-1517.5" font-family="Helvetica,sans-Serif" font-size="10.00">pa::ProblemWithParam</text>
<text text-anchor="middle" x="235.5" y="-1506.5" font-family="Helvetica,sans-Serif" font-size="10.00">::get_param</text>
</a>
</g>
</g>
<!-- Node1&#45;&gt;Node13 -->
<g id="edge12" class="edge">
<title>Node1&#45;&gt;Node13</title>
<path fill="none" stroke="midnightblue" d="M57.69,-934.4C59.22,-1002.67 71.45,-1403.62 149,-1490.5 152.79,-1494.74 157.25,-1498.26 162.13,-1501.17"/>
<polygon fill="midnightblue" stroke="midnightblue" points="160.79,-1504.41 171.29,-1505.79 163.94,-1498.16 160.79,-1504.41"/>
</g>
<!-- Node14 -->
<g id="node14" class="node">
<title>Node14</title>
<g id="a_node14"><a xlink:href="classpa_1_1ALMSolver.html#a3151f2300119ecbabd5f813e6cc9ba71" target="_top" xlink:title=" ">
<polygon fill="white" stroke="black" points="181.5,-1450.5 181.5,-1480.5 289.5,-1480.5 289.5,-1450.5 181.5,-1450.5"/>
<text text-anchor="start" x="189.5" y="-1468.5" font-family="Helvetica,sans-Serif" font-size="10.00">pa::ALMSolver::get</text>
<text text-anchor="middle" x="235.5" y="-1457.5" font-family="Helvetica,sans-Serif" font-size="10.00">_params</text>
</a>
</g>
</g>
<!-- Node1&#45;&gt;Node14 -->
<g id="edge13" class="edge">
<title>Node1&#45;&gt;Node14</title>
<path fill="none" stroke="midnightblue" d="M57.86,-934.36C60.39,-999.08 77.7,-1362.81 149,-1441.5 155.23,-1448.38 163.27,-1453.35 171.91,-1456.93"/>
<polygon fill="midnightblue" stroke="midnightblue" points="170.87,-1460.28 181.46,-1460.29 173.19,-1453.67 170.87,-1460.28"/>
</g>
<!-- Node15 -->
<g id="node15" class="node">
<title>Node15</title>
<g id="a_node15"><a xlink:href="classpa_1_1PolymorphicInnerSolverBase.html#ac6327b57b58744678523ed2694d6e909" target="_top" xlink:title=" ">
<polygon fill="white" stroke="black" points="160,-1401.5 160,-1431.5 311,-1431.5 311,-1401.5 160,-1401.5"/>
<text text-anchor="start" x="168" y="-1419.5" font-family="Helvetica,sans-Serif" font-size="10.00">pa::PolymorphicInnerSolver</text>
<text text-anchor="middle" x="235.5" y="-1408.5" font-family="Helvetica,sans-Serif" font-size="10.00">Base::get_params</text>
</a>
</g>
</g>
<!-- Node1&#45;&gt;Node15 -->
<g id="edge14" class="edge">
<title>Node1&#45;&gt;Node15</title>
<path fill="none" stroke="midnightblue" d="M58.04,-934.21C61.64,-994.9 83.88,-1321.91 149,-1392.5 149.91,-1393.49 150.86,-1394.44 151.84,-1395.35"/>
<polygon fill="midnightblue" stroke="midnightblue" points="149.91,-1398.28 159.97,-1401.61 154.18,-1392.73 149.91,-1398.28"/>
</g>
<!-- Node16 -->
<g id="node16" class="node">
<title>Node16</title>
<g id="a_node16"><a xlink:href="classpa_1_1PolymorphicInnerSolver.html#a5048fc9faa63d726ddd844f57fd05426" target="_top" xlink:title=" ">
<polygon fill="white" stroke="black" points="160,-1352.5 160,-1382.5 311,-1382.5 311,-1352.5 160,-1352.5"/>
<text text-anchor="start" x="168" y="-1370.5" font-family="Helvetica,sans-Serif" font-size="10.00">pa::PolymorphicInnerSolver</text>
<text text-anchor="middle" x="235.5" y="-1359.5" font-family="Helvetica,sans-Serif" font-size="10.00">::get_params</text>
</a>
</g>
</g>
<!-- Node1&#45;&gt;Node16 -->
<g id="edge15" class="edge">
<title>Node1&#45;&gt;Node16</title>
<path fill="none" stroke="midnightblue" d="M58.29,-934.29C63.09,-991.38 90.13,-1281.07 149,-1343.5 149.79,-1344.34 150.61,-1345.15 151.46,-1345.94"/>
<polygon fill="midnightblue" stroke="midnightblue" points="149.61,-1348.94 159.67,-1352.28 153.89,-1343.4 149.61,-1348.94"/>
</g>
<!-- Node17 -->
<g id="node17" class="node">
<title>Node17</title>
<g id="a_node17"><a xlink:href="classpa_1_1PolymorphicPANOCDirection.html#a5048fc9faa63d726ddd844f57fd05426" target="_top" xlink:title=" ">
<polygon fill="white" stroke="black" points="149,-1303.5 149,-1333.5 322,-1333.5 322,-1303.5 149,-1303.5"/>
<text text-anchor="start" x="157" y="-1321.5" font-family="Helvetica,sans-Serif" font-size="10.00">pa::PolymorphicPANOCDirection</text>
<text text-anchor="middle" x="235.5" y="-1310.5" font-family="Helvetica,sans-Serif" font-size="10.00">::get_params</text>
</a>
</g>
</g>
<!-- Node1&#45;&gt;Node17 -->
<g id="edge16" class="edge">
<title>Node1&#45;&gt;Node17</title>
<path fill="none" stroke="midnightblue" d="M58.58,-934.16C64.66,-986.96 96.27,-1240.1 149,-1294.5 149.94,-1295.47 150.91,-1296.39 151.91,-1297.28"/>
<polygon fill="midnightblue" stroke="midnightblue" points="150.05,-1300.26 160.17,-1303.42 154.23,-1294.65 150.05,-1300.26"/>
</g>
<!-- Node18 -->
<g id="node18" class="node">
<title>Node18</title>
<g id="a_node18"><a xlink:href="classpa_1_1PolymorphicPANOCDirection.html#a0fecd2dca1f7c224a1e5f2775287a0dd" target="_top" xlink:title=" ">
<polygon fill="white" stroke="black" points="149,-1254.5 149,-1284.5 322,-1284.5 322,-1254.5 149,-1254.5"/>
<text text-anchor="start" x="157" y="-1272.5" font-family="Helvetica,sans-Serif" font-size="10.00">pa::PolymorphicPANOCDirection</text>
<text text-anchor="middle" x="235.5" y="-1261.5" font-family="Helvetica,sans-Serif" font-size="10.00">::initialize</text>
</a>
</g>
</g>
<!-- Node1&#45;&gt;Node18 -->
<g id="edge17" class="edge">
<title>Node1&#45;&gt;Node18</title>
<path fill="none" stroke="midnightblue" d="M57.11,-934.29C55.96,-977.62 57.23,-1154.1 149,-1245.5 149.95,-1246.45 150.94,-1247.36 151.96,-1248.24"/>
<polygon fill="midnightblue" stroke="midnightblue" points="150.15,-1251.25 160.31,-1254.29 154.26,-1245.58 150.15,-1251.25"/>
</g>
<!-- Node20 -->
<g id="node20" class="node">
<title>Node20</title>
<g id="a_node20"><a xlink:href="classpa_1_1PolymorphicPANOCDirectionBase.html#aa88aeb98915ab8c4cf805628a2b5f19d" target="_top" xlink:title=" ">
<polygon fill="white" stroke="black" points="149,-1205.5 149,-1235.5 322,-1235.5 322,-1205.5 149,-1205.5"/>
<text text-anchor="start" x="157" y="-1223.5" font-family="Helvetica,sans-Serif" font-size="10.00">pa::PolymorphicPANOCDirection</text>
<text text-anchor="middle" x="235.5" y="-1212.5" font-family="Helvetica,sans-Serif" font-size="10.00">Base::initialize</text>
</a>
</g>
</g>
<!-- Node1&#45;&gt;Node20 -->
<g id="edge19" class="edge">
<title>Node1&#45;&gt;Node20</title>
<path fill="none" stroke="midnightblue" d="M57.72,-934.05C59.16,-972.76 69.82,-1119.51 149,-1195.5 150.51,-1196.95 152.09,-1198.31 153.74,-1199.59"/>
<polygon fill="midnightblue" stroke="midnightblue" points="152.23,-1202.79 162.5,-1205.39 156.09,-1196.95 152.23,-1202.79"/>
</g>
<!-- Node21 -->
<g id="node21" class="node">
<title>Node21</title>
<g id="a_node21"><a xlink:href="namespacepa.html#ad228cf563c7a88410cf74293ca4c2882" target="_top" xlink:title=" ">
<polygon fill="white" stroke="black" points="160.5,-1167 160.5,-1186 310.5,-1186 310.5,-1167 160.5,-1167"/>
<text text-anchor="middle" x="235.5" y="-1174" font-family="Helvetica,sans-Serif" font-size="10.00">pa::InnerSolverCallWrapper</text>
</a>
</g>
</g>
<!-- Node1&#45;&gt;Node21 -->
<g id="edge20" class="edge">
<title>Node1&#45;&gt;Node21</title>
<path fill="none" stroke="midnightblue" d="M58.19,-934.31C61.27,-970.26 77.01,-1095.92 149,-1157.5 150.97,-1159.19 153.06,-1160.73 155.24,-1162.15"/>
<polygon fill="midnightblue" stroke="midnightblue" points="153.61,-1165.25 164.06,-1167 156.98,-1159.11 153.61,-1165.25"/>
</g>
<!-- Node22 -->
<g id="node22" class="node">
<title>Node22</title>
<g id="a_node22"><a xlink:href="group__grp__ExternalProblemLoaders.html#gafd71af38464d723074a7948a6e0a43ba" target="_top" xlink:title="Load a problem generated by CasADi (without parameters).">
<polygon fill="white" stroke="black" points="164.5,-1129 164.5,-1148 306.5,-1148 306.5,-1129 164.5,-1129"/>
<text text-anchor="middle" x="235.5" y="-1136" font-family="Helvetica,sans-Serif" font-size="10.00">pa::load_CasADi_problem</text>
</a>
</g>
</g>
<!-- Node1&#45;&gt;Node22 -->
<g id="edge21" class="edge">
<title>Node1&#45;&gt;Node22</title>
<path fill="none" stroke="midnightblue" d="M58.96,-934.04C64.36,-965.86 86.25,-1069.23 149,-1119.5 151.08,-1121.16 153.27,-1122.69 155.55,-1124.09"/>
<polygon fill="midnightblue" stroke="midnightblue" points="154.26,-1127.36 164.75,-1128.87 157.49,-1121.15 154.26,-1127.36"/>
</g>
<!-- Node23 -->
<g id="node23" class="node">
<title>Node23</title>
<g id="a_node23"><a xlink:href="group__grp__ExternalProblemLoaders.html#gacf4cd246456f5f49f6183319f335fd80" target="_top" xlink:title="Load a problem generated by CasADi (with parameters).">
<polygon fill="white" stroke="black" points="164.5,-1079.5 164.5,-1109.5 306.5,-1109.5 306.5,-1079.5 164.5,-1079.5"/>
<text text-anchor="start" x="172.5" y="-1097.5" font-family="Helvetica,sans-Serif" font-size="10.00">pa::load_CasADi_problem</text>
<text text-anchor="middle" x="235.5" y="-1086.5" font-family="Helvetica,sans-Serif" font-size="10.00">_with_param</text>
</a>
</g>
</g>
<!-- Node1&#45;&gt;Node23 -->
<g id="edge22" class="edge">
<title>Node1&#45;&gt;Node23</title>
<path fill="none" stroke="midnightblue" d="M60.87,-934.33C70.34,-960.49 99.81,-1032.4 149,-1069.5 151.51,-1071.39 154.16,-1073.15 156.92,-1074.76"/>
<polygon fill="midnightblue" stroke="midnightblue" points="155.53,-1077.99 166.02,-1079.5 158.76,-1071.78 155.53,-1077.99"/>
</g>
<!-- Node24 -->
<g id="node24" class="node">
<title>Node24</title>
<g id="a_node24"><a xlink:href="panocpy_8cpp.html#a7d1da0c0de41e5636f73277127c5dbdc" target="_top" xlink:title=" ">
<polygon fill="white" stroke="black" points="158,-1041 158,-1060 313,-1060 313,-1041 158,-1041"/>
<text text-anchor="middle" x="235.5" y="-1048" font-family="Helvetica,sans-Serif" font-size="10.00">PolymorphicALMConstructor</text>
</a>
</g>
</g>
<!-- Node1&#45;&gt;Node24 -->
<g id="edge23" class="edge">
<title>Node1&#45;&gt;Node24</title>
<path fill="none" stroke="midnightblue" d="M62.7,-934.01C74.82,-955.18 107.1,-1006.32 149,-1031.5 152.67,-1033.7 156.56,-1035.65 160.58,-1037.37"/>
<polygon fill="midnightblue" stroke="midnightblue" points="159.58,-1040.73 170.17,-1041 162.05,-1034.19 159.58,-1040.73"/>
</g>
<!-- Node25 -->
<g id="node25" class="node">
<title>Node25</title>
<g id="a_node25"><a xlink:href="panocpy_8cpp.html#a555fe4adbd2f0a5f6975cc42a7165f43" target="_top" xlink:title=" ">
<polygon fill="white" stroke="black" points="158,-991.5 158,-1021.5 313,-1021.5 313,-991.5 158,-991.5"/>
<text text-anchor="start" x="166" y="-1009.5" font-family="Helvetica,sans-Serif" font-size="10.00">PolymorphicALMConstructor</text>
<text text-anchor="middle" x="235.5" y="-998.5" font-family="Helvetica,sans-Serif" font-size="10.00">DefaultParams</text>
</a>
</g>
</g>
<!-- Node1&#45;&gt;Node25 -->
<g id="edge24" class="edge">
<title>Node1&#45;&gt;Node25</title>
<path fill="none" stroke="midnightblue" d="M70.5,-934.2C87.69,-946.65 119.28,-968.2 149,-981.5 154.34,-983.89 159.96,-986.12 165.67,-988.18"/>
<polygon fill="midnightblue" stroke="midnightblue" points="164.73,-991.56 175.33,-991.49 167,-984.94 164.73,-991.56"/>
</g>
<!-- Node26 -->
<g id="node26" class="node">
<title>Node26</title>
<g id="a_node26"><a xlink:href="panocpy_8cpp.html#a6785128ab0ae967affedb310e01e9f04" target="_top" xlink:title=" ">
<polygon fill="white" stroke="black" points="152,-953 152,-972 319,-972 319,-953 152,-953"/>
<text text-anchor="middle" x="235.5" y="-960" font-family="Helvetica,sans-Serif" font-size="10.00">PolymorphicPANOCConstructor</text>
</a>
</g>
</g>
<!-- Node1&#45;&gt;Node26 -->
<g id="edge25" class="edge">
<title>Node1&#45;&gt;Node26</title>
<path fill="none" stroke="midnightblue" d="M102.16,-934.09C125.84,-939.17 155.11,-945.46 180.1,-950.82"/>
<polygon fill="midnightblue" stroke="midnightblue" points="179.64,-954.3 190.16,-952.98 181.11,-947.46 179.64,-954.3"/>
</g>
<!-- Node27 -->
<g id="node27" class="node">
<title>Node27</title>
<g id="a_node27"><a xlink:href="panocpy_8cpp.html#a67465c26bee7fd06be2b8bab1465fe30" target="_top" xlink:title=" ">
<polygon fill="white" stroke="black" points="152.5,-915 152.5,-934 318.5,-934 318.5,-915 152.5,-915"/>
<text text-anchor="middle" x="235.5" y="-922" font-family="Helvetica,sans-Serif" font-size="10.00">PolymorphicPANOCConversion</text>
</a>
</g>
</g>
<!-- Node1&#45;&gt;Node27 -->
<g id="edge26" class="edge">
<title>Node1&#45;&gt;Node27</title>
<path fill="none" stroke="midnightblue" d="M113.02,-924.5C122.27,-924.5 132.09,-924.5 141.97,-924.5"/>
<polygon fill="midnightblue" stroke="midnightblue" points="142.28,-928 152.28,-924.5 142.28,-921 142.28,-928"/>
</g>
<!-- Node28 -->
<g id="node28" class="node">
<title>Node28</title>
<g id="a_node28"><a xlink:href="panocpy_2problem_8hpp.html#a0487303b05f1199a1a665ad0b392012b" target="_top" xlink:title=" ">
<polygon fill="white" stroke="black" points="194.5,-877 194.5,-896 276.5,-896 276.5,-877 194.5,-877"/>
<text text-anchor="middle" x="235.5" y="-884" font-family="Helvetica,sans-Serif" font-size="10.00">prob_getter_f</text>
</a>
</g>
</g>
<!-- Node1&#45;&gt;Node28 -->
<g id="edge27" class="edge">
<title>Node1&#45;&gt;Node28</title>
<path fill="none" stroke="midnightblue" d="M102.16,-914.91C127.21,-909.53 158.52,-902.81 184.39,-897.26"/>
<polygon fill="midnightblue" stroke="midnightblue" points="185.34,-900.63 194.38,-895.11 183.87,-893.79 185.34,-900.63"/>
</g>
<!-- Node29 -->
<g id="node29" class="node">
<title>Node29</title>
<g id="a_node29"><a xlink:href="panocpy_2problem_8hpp.html#a5ac4e741d0563d6dfae299c38fc1e970" target="_top" xlink:title=" ">
<polygon fill="white" stroke="black" points="193.5,-839 193.5,-858 277.5,-858 277.5,-839 193.5,-839"/>
<text text-anchor="middle" x="235.5" y="-846" font-family="Helvetica,sans-Serif" font-size="10.00">prob_getter_g</text>
</a>
</g>
</g>
<!-- Node1&#45;&gt;Node29 -->
<g id="edge28" class="edge">
<title>Node1&#45;&gt;Node29</title>
<path fill="none" stroke="midnightblue" d="M69.79,-914.93C86.69,-902.23 118.51,-879.96 149,-867.5 159.78,-863.1 171.76,-859.63 183.26,-856.93"/>
<polygon fill="midnightblue" stroke="midnightblue" points="184.18,-860.31 193.19,-854.75 182.68,-853.47 184.18,-860.31"/>
</g>
<!-- Node30 -->
<g id="node30" class="node">
<title>Node30</title>
<g id="a_node30"><a xlink:href="panocpy_2problem_8hpp.html#af4ba00d6a4a790c4130697b2df8ae630" target="_top" xlink:title=" ">
<polygon fill="white" stroke="black" points="181,-801 181,-820 290,-820 290,-801 181,-801"/>
<text text-anchor="middle" x="235.5" y="-808" font-family="Helvetica,sans-Serif" font-size="10.00">prob_getter_grad_f</text>
</a>
</g>
</g>
<!-- Node1&#45;&gt;Node30 -->
<g id="edge29" class="edge">
<title>Node1&#45;&gt;Node30</title>
<path fill="none" stroke="midnightblue" d="M63.77,-914.91C77.02,-895.48 109.86,-851.47 149,-829.5 155.81,-825.68 163.32,-822.63 170.98,-820.19"/>
<polygon fill="midnightblue" stroke="midnightblue" points="172.07,-823.52 180.73,-817.42 170.16,-816.79 172.07,-823.52"/>
</g>
<!-- Node31 -->
<g id="node31" class="node">
<title>Node31</title>
<g id="a_node31"><a xlink:href="panocpy_2problem_8hpp.html#af040a3711e15011a65d7b455241eabf6" target="_top" xlink:title=" ">
<polygon fill="white" stroke="black" points="166.5,-763 166.5,-782 304.5,-782 304.5,-763 166.5,-763"/>
<text text-anchor="middle" x="235.5" y="-770" font-family="Helvetica,sans-Serif" font-size="10.00">prob_getter_grad_g_prod</text>
</a>
</g>
</g>
<!-- Node1&#45;&gt;Node31 -->
<g id="edge30" class="edge">
<title>Node1&#45;&gt;Node31</title>
<path fill="none" stroke="midnightblue" d="M61.13,-914.96C71.05,-890.23 101.14,-823.79 149,-791.5 151.93,-789.53 155.02,-787.76 158.24,-786.17"/>
<polygon fill="midnightblue" stroke="midnightblue" points="159.76,-789.32 167.56,-782.15 156.99,-782.89 159.76,-789.32"/>
</g>
<!-- Node32 -->
<g id="node32" class="node">
<title>Node32</title>
<g id="a_node32"><a xlink:href="panocpy_2problem_8hpp.html#a22b0d7cda9c10f1a4e29ca9fa19ec6c5" target="_top" xlink:title=" ">
<polygon fill="white" stroke="black" points="178.5,-725 178.5,-744 292.5,-744 292.5,-725 178.5,-725"/>
<text text-anchor="middle" x="235.5" y="-732" font-family="Helvetica,sans-Serif" font-size="10.00">prob_getter_grad_gi</text>
</a>
</g>
</g>
<!-- Node1&#45;&gt;Node32 -->
<g id="edge31" class="edge">
<title>Node1&#45;&gt;Node32</title>
<path fill="none" stroke="midnightblue" d="M59.64,-914.91C66.7,-885.6 92.13,-796.65 149,-753.5 154.83,-749.08 161.49,-745.65 168.46,-742.99"/>
<polygon fill="midnightblue" stroke="midnightblue" points="169.7,-746.27 178.11,-739.83 167.52,-739.61 169.7,-746.27"/>
</g>
<!-- Node33 -->
<g id="node33" class="node">
<title>Node33</title>
<g id="a_node33"><a xlink:href="panocpy_2problem_8hpp.html#ac2dd5f6d7232ab75c2ed59302f9128a4" target="_top" xlink:title=" ">
<polygon fill="white" stroke="black" points="180,-687 180,-706 291,-706 291,-687 180,-687"/>
<text text-anchor="middle" x="235.5" y="-694" font-family="Helvetica,sans-Serif" font-size="10.00">prob_getter_hess_L</text>
</a>
</g>
</g>
<!-- Node1&#45;&gt;Node33 -->
<g id="edge32" class="edge">
<title>Node1&#45;&gt;Node33</title>
<path fill="none" stroke="midnightblue" d="M58.66,-914.77C63.21,-881.28 82.93,-769.85 149,-715.5 155.26,-710.35 162.62,-706.52 170.36,-703.68"/>
<polygon fill="midnightblue" stroke="midnightblue" points="171.42,-707.02 179.92,-700.7 169.33,-700.34 171.42,-707.02"/>
</g>
<!-- Node34 -->
<g id="node34" class="node">
<title>Node34</title>
<g id="a_node34"><a xlink:href="panocpy_2problem_8hpp.html#a35c993d95c4a686b6dbd24228d7f4934" target="_top" xlink:title=" ">
<polygon fill="white" stroke="black" points="166.5,-649 166.5,-668 304.5,-668 304.5,-649 166.5,-649"/>
<text text-anchor="middle" x="235.5" y="-656" font-family="Helvetica,sans-Serif" font-size="10.00">prob_getter_hess_L_prod</text>
</a>
</g>
</g>
<!-- Node1&#45;&gt;Node34 -->
<g id="edge33" class="edge">
<title>Node1&#45;&gt;Node34</title>
<path fill="none" stroke="midnightblue" d="M57.94,-914.89C60.16,-877.9 73.36,-743.49 149,-677.5 151.52,-675.3 154.24,-673.34 157.1,-671.59"/>
<polygon fill="midnightblue" stroke="midnightblue" points="158.8,-674.66 166.08,-666.96 155.59,-668.43 158.8,-674.66"/>
</g>
<!-- Node35 -->
<g id="node35" class="node">
<title>Node35</title>
<g id="a_node35"><a xlink:href="panocpy_2problem_8hpp.html#afa75288d45a096cbf82b6cea92247bab" target="_top" xlink:title=" ">
<polygon fill="white" stroke="black" points="195,-611 195,-630 276,-630 276,-611 195,-611"/>
<text text-anchor="middle" x="235.5" y="-618" font-family="Helvetica,sans-Serif" font-size="10.00">prob_setter_f</text>
</a>
</g>
</g>
<!-- Node1&#45;&gt;Node35 -->
<g id="edge34" class="edge">
<title>Node1&#45;&gt;Node35</title>
<path fill="none" stroke="midnightblue" d="M57.4,-914.87C57.55,-874.47 63.76,-717.24 149,-639.5 158.85,-630.52 171.98,-625.46 184.98,-622.69"/>
<polygon fill="midnightblue" stroke="midnightblue" points="185.59,-626.14 194.85,-620.99 184.4,-619.24 185.59,-626.14"/>
</g>
<!-- Node36 -->
<g id="node36" class="node">
<title>Node36</title>
<g id="a_node36"><a xlink:href="panocpy_2problem_8hpp.html#a2f0aa929a7ddbdc7408aeb6850d1e107" target="_top" xlink:title=" ">
<polygon fill="white" stroke="black" points="194,-573 194,-592 277,-592 277,-573 194,-573"/>
<text text-anchor="middle" x="235.5" y="-580" font-family="Helvetica,sans-Serif" font-size="10.00">prob_setter_g</text>
</a>
</g>
</g>
<!-- Node1&#45;&gt;Node36 -->
<g id="edge35" class="edge">
<title>Node1&#45;&gt;Node36</title>
<path fill="none" stroke="midnightblue" d="M56.98,-914.82C55.21,-871.2 54.07,-691.13 149,-601.5 158.42,-592.6 171.05,-587.52 183.7,-584.71"/>
<polygon fill="midnightblue" stroke="midnightblue" points="184.56,-588.11 193.78,-582.9 183.32,-581.22 184.56,-588.11"/>
</g>
<!-- Node37 -->
<g id="node37" class="node">
<title>Node37</title>
<g id="a_node37"><a xlink:href="panocpy_2problem_8hpp.html#a1747d8bd4d267949dce57751f4dc228e" target="_top" xlink:title=" ">
<polygon fill="white" stroke="black" points="181.5,-535 181.5,-554 289.5,-554 289.5,-535 181.5,-535"/>
<text text-anchor="middle" x="235.5" y="-542" font-family="Helvetica,sans-Serif" font-size="10.00">prob_setter_grad_f</text>
</a>
</g>
</g>
<!-- Node1&#45;&gt;Node37 -->
<g id="edge36" class="edge">
<title>Node1&#45;&gt;Node37</title>
<path fill="none" stroke="midnightblue" d="M58.61,-914.68C64.72,-862.16 96,-614.96 149,-563.5 155.34,-557.34 163.21,-553 171.59,-549.97"/>
<polygon fill="midnightblue" stroke="midnightblue" points="172.64,-553.31 181.21,-547.08 170.62,-546.61 172.64,-553.31"/>
</g>
<!-- Node38 -->
<g id="node38" class="node">
<title>Node38</title>
<g id="a_node38"><a xlink:href="panocpy_2problem_8hpp.html#a9fedc4d10e1aa2501fd2ea39d5459c8d" target="_top" xlink:title=" ">
<polygon fill="white" stroke="black" points="167,-497 167,-516 304,-516 304,-497 167,-497"/>
<text text-anchor="middle" x="235.5" y="-504" font-family="Helvetica,sans-Serif" font-size="10.00">prob_setter_grad_g_prod</text>
</a>
</g>
</g>
<!-- Node1&#45;&gt;Node38 -->
<g id="edge37" class="edge">
<title>Node1&#45;&gt;Node38</title>
<path fill="none" stroke="midnightblue" d="M58.35,-914.77C63.36,-859.27 91.01,-583.1 149,-525.5 151.69,-522.82 154.68,-520.49 157.86,-518.46"/>
<polygon fill="midnightblue" stroke="midnightblue" points="159.54,-521.53 166.73,-513.74 156.25,-515.35 159.54,-521.53"/>
</g>
<!-- Node39 -->
<g id="node39" class="node">
<title>Node39</title>
<g id="a_node39"><a xlink:href="panocpy_2problem_8hpp.html#a289a1ccf84993a366f1c25ddac9750cf" target="_top" xlink:title=" ">
<polygon fill="white" stroke="black" points="179,-459 179,-478 292,-478 292,-459 179,-459"/>
<text text-anchor="middle" x="235.5" y="-466" font-family="Helvetica,sans-Serif" font-size="10.00">prob_setter_grad_gi</text>
</a>
</g>
</g>
<!-- Node1&#45;&gt;Node39 -->
<g id="edge38" class="edge">
<title>Node1&#45;&gt;Node39</title>
<path fill="none" stroke="midnightblue" d="M58.15,-914.63C62.21,-855.76 86.08,-551.19 149,-487.5 154.64,-481.8 161.58,-477.63 169.05,-474.62"/>
<polygon fill="midnightblue" stroke="midnightblue" points="170.35,-477.88 178.73,-471.4 168.14,-471.24 170.35,-477.88"/>
</g>
<!-- Node40 -->
<g id="node40" class="node">
<title>Node40</title>
<g id="a_node40"><a xlink:href="panocpy_2problem_8hpp.html#ae9158068730863ec01195098db9cbb7b" target="_top" xlink:title=" ">
<polygon fill="white" stroke="black" points="180.5,-421 180.5,-440 290.5,-440 290.5,-421 180.5,-421"/>
<text text-anchor="middle" x="235.5" y="-428" font-family="Helvetica,sans-Serif" font-size="10.00">prob_setter_hess_L</text>
</a>
</g>
</g>
<!-- Node1&#45;&gt;Node40 -->
<g id="edge39" class="edge">
<title>Node1&#45;&gt;Node40</title>
<path fill="none" stroke="midnightblue" d="M57.95,-915C61.03,-854.15 80.95,-519.51 149,-449.5 155.02,-443.31 162.57,-438.93 170.69,-435.86"/>
<polygon fill="midnightblue" stroke="midnightblue" points="171.9,-439.15 180.41,-432.84 169.82,-432.47 171.9,-439.15"/>
</g>
<!-- Node41 -->
<g id="node41" class="node">
<title>Node41</title>
<g id="a_node41"><a xlink:href="panocpy_2problem_8hpp.html#a7c0e3e4eb7dc2c338f0039884951f1af" target="_top" xlink:title=" ">
<polygon fill="white" stroke="black" points="167,-383 167,-402 304,-402 304,-383 167,-383"/>
<text text-anchor="middle" x="235.5" y="-390" font-family="Helvetica,sans-Serif" font-size="10.00">prob_setter_hess_L_prod</text>
</a>
</g>
</g>
<!-- Node1&#45;&gt;Node41 -->
<g id="edge40" class="edge">
<title>Node1&#45;&gt;Node41</title>
<path fill="none" stroke="midnightblue" d="M57.82,-914.66C60.1,-850.13 76.06,-487.58 149,-411.5 151.68,-408.7 154.68,-406.27 157.9,-404.16"/>
<polygon fill="midnightblue" stroke="midnightblue" points="159.76,-407.14 166.89,-399.31 156.43,-400.98 159.76,-407.14"/>
</g>
<!-- Node42 -->
<g id="node42" class="node">
<title>Node42</title>
<g id="a_node42"><a xlink:href="classpa_1_1PolymorphicPANOCDirection.html#aebfcdbbd0fe4efbff10b180be50ca6bc" target="_top" xlink:title=" ">
<polygon fill="white" stroke="black" points="149,-333.5 149,-363.5 322,-363.5 322,-333.5 149,-333.5"/>
<text text-anchor="start" x="157" y="-351.5" font-family="Helvetica,sans-Serif" font-size="10.00">pa::PolymorphicPANOCDirection</text>
<text text-anchor="middle" x="235.5" y="-340.5" font-family="Helvetica,sans-Serif" font-size="10.00">::reset</text>
</a>
</g>
</g>
<!-- Node1&#45;&gt;Node42 -->
<g id="edge41" class="edge">
<title>Node1&#45;&gt;Node42</title>
<path fill="none" stroke="midnightblue" d="M57.74,-914.87C59.61,-848.46 73.73,-458.39 149,-373.5 150.06,-372.31 151.17,-371.17 152.33,-370.08"/>
<polygon fill="midnightblue" stroke="midnightblue" points="154.85,-372.56 160.6,-363.67 150.56,-367.03 154.85,-372.56"/>
</g>
<!-- Node43 -->
<g id="node43" class="node">
<title>Node43</title>
<g id="a_node43"><a xlink:href="classpa_1_1PolymorphicPANOCDirectionBase.html#a20dcbdfbd0ec77afc802522bb7e379c1" target="_top" xlink:title=" ">
<polygon fill="white" stroke="black" points="149,-284.5 149,-314.5 322,-314.5 322,-284.5 149,-284.5"/>
<text text-anchor="start" x="157" y="-302.5" font-family="Helvetica,sans-Serif" font-size="10.00">pa::PolymorphicPANOCDirection</text>
<text text-anchor="middle" x="235.5" y="-291.5" font-family="Helvetica,sans-Serif" font-size="10.00">Base::reset</text>
</a>
</g>
</g>
<!-- Node1&#45;&gt;Node43 -->
<g id="edge42" class="edge">
<title>Node1&#45;&gt;Node43</title>
<path fill="none" stroke="midnightblue" d="M57.6,-914.93C58.52,-845.39 67.47,-417.68 149,-324.5 150.05,-323.3 151.15,-322.16 152.31,-321.07"/>
<polygon fill="midnightblue" stroke="midnightblue" points="154.83,-323.54 160.55,-314.62 150.51,-318.02 154.83,-323.54"/>
</g>
<!-- Node44 -->
<g id="node44" class="node">
<title>Node44</title>
<g id="a_node44"><a xlink:href="classpa_1_1ProblemWithParam.html#afb3afc28001a28f85dac179b9e09ca76" target="_top" xlink:title=" ">
<polygon fill="white" stroke="black" points="171.5,-235.5 171.5,-265.5 299.5,-265.5 299.5,-235.5 171.5,-235.5"/>
<text text-anchor="start" x="179.5" y="-253.5" font-family="Helvetica,sans-Serif" font-size="10.00">pa::ProblemWithParam</text>
<text text-anchor="middle" x="235.5" y="-242.5" font-family="Helvetica,sans-Serif" font-size="10.00">::set_param</text>
</a>
</g>
</g>
<!-- Node1&#45;&gt;Node44 -->
<g id="edge43" class="edge">
<title>Node1&#45;&gt;Node44</title>
<path fill="none" stroke="midnightblue" d="M57.48,-914.63C57.53,-840.95 61.34,-376.83 149,-275.5 152.73,-271.19 157.16,-267.6 162.01,-264.61"/>
<polygon fill="midnightblue" stroke="midnightblue" points="163.88,-267.59 171.14,-259.87 160.65,-261.38 163.88,-267.59"/>
</g>
<!-- Node45 -->
<g id="node45" class="node">
<title>Node45</title>
<g id="a_node45"><a xlink:href="classpa_1_1PolymorphicInnerSolver.html#ace9f8395eb75e829f4a916ead52160a8" target="_top" xlink:title=" ">
<polygon fill="white" stroke="black" points="160,-186.5 160,-216.5 311,-216.5 311,-186.5 160,-186.5"/>
<text text-anchor="start" x="168" y="-204.5" font-family="Helvetica,sans-Serif" font-size="10.00">pa::PolymorphicInnerSolver</text>
<text text-anchor="middle" x="235.5" y="-193.5" font-family="Helvetica,sans-Serif" font-size="10.00">::set_progress_callback</text>
</a>
</g>
</g>
<!-- Node1&#45;&gt;Node45 -->
<g id="edge44" class="edge">
<title>Node1&#45;&gt;Node45</title>
<path fill="none" stroke="midnightblue" d="M57.38,-914.88C56.58,-838.93 54.98,-336.26 149,-226.5 150.04,-225.29 151.13,-224.13 152.27,-223.03"/>
<polygon fill="midnightblue" stroke="midnightblue" points="154.8,-225.5 160.45,-216.54 150.45,-220.02 154.8,-225.5"/>
</g>
<!-- Node46 -->
<g id="node46" class="node">
<title>Node46</title>
<g id="a_node46"><a xlink:href="namespacepa.html#a0d4a597fd4d5e0454bfa1956d850ec96" target="_top" xlink:title=" ">
<polygon fill="white" stroke="black" points="187,-148 187,-167 284,-167 284,-148 187,-148"/>
<text text-anchor="middle" x="235.5" y="-155" font-family="Helvetica,sans-Serif" font-size="10.00">pa::stats_to_dict</text>
</a>
</g>
</g>
<!-- Node1&#45;&gt;Node46 -->
<g id="edge45" class="edge">
<title>Node1&#45;&gt;Node46</title>
<path fill="none" stroke="midnightblue" d="M58.02,-914.8C62.61,-831.28 97.07,-235.36 149,-177.5 156.33,-169.34 166.29,-164.18 176.83,-160.99"/>
<polygon fill="midnightblue" stroke="midnightblue" points="177.74,-164.37 186.62,-158.58 176.07,-157.57 177.74,-164.37"/>
</g>
<!-- Node47 -->
<g id="node47" class="node">
<title>Node47</title>
<g id="a_node47"><a xlink:href="classpa_1_1PolymorphicInnerSolverBase.html#a0efff8623a2fb79dad94a96dcf16d966" target="_top" xlink:title=" ">
<polygon fill="white" stroke="black" points="160,-98.5 160,-128.5 311,-128.5 311,-98.5 160,-98.5"/>
<text text-anchor="start" x="168" y="-116.5" font-family="Helvetica,sans-Serif" font-size="10.00">pa::PolymorphicInnerSolver</text>
<text text-anchor="middle" x="235.5" y="-105.5" font-family="Helvetica,sans-Serif" font-size="10.00">Base::stop</text>
</a>
</g>
</g>
<!-- Node1&#45;&gt;Node47 -->
<g id="edge46" class="edge">
<title>Node1&#45;&gt;Node47</title>
<path fill="none" stroke="midnightblue" d="M57.98,-914.86C62.36,-829.27 96.16,-201.09 149,-138.5 150,-137.32 151.05,-136.19 152.14,-135.11"/>
<polygon fill="midnightblue" stroke="midnightblue" points="154.44,-137.76 160.01,-128.74 150.03,-132.32 154.44,-137.76"/>
</g>
<!-- Node48 -->
<g id="node48" class="node">
<title>Node48</title>
<g id="a_node48"><a xlink:href="classpa_1_1PolymorphicPANOCDirection.html#a5e8ed3ee80049d83251ad599ab37ff12" target="_top" xlink:title=" ">
<polygon fill="white" stroke="black" points="149,-49.5 149,-79.5 322,-79.5 322,-49.5 149,-49.5"/>
<text text-anchor="start" x="157" y="-67.5" font-family="Helvetica,sans-Serif" font-size="10.00">pa::PolymorphicPANOCDirection</text>
<text text-anchor="middle" x="235.5" y="-56.5" font-family="Helvetica,sans-Serif" font-size="10.00">::update</text>
</a>
</g>
</g>
<!-- Node1&#45;&gt;Node48 -->
<g id="edge47" class="edge">
<title>Node1&#45;&gt;Node48</title>
<path fill="none" stroke="midnightblue" d="M57.91,-914.81C61.76,-825.99 92.59,-155.05 149,-88.5 149.63,-87.75 150.29,-87.03 150.96,-86.33"/>
<polygon fill="midnightblue" stroke="midnightblue" points="153.52,-88.75 158.86,-79.6 148.98,-83.42 153.52,-88.75"/>
</g>
<!-- Node50 -->
<g id="node50" class="node">
<title>Node50</title>
<g id="a_node50"><a xlink:href="classpa_1_1PolymorphicPANOCDirectionBase.html#a8e69fb7288874b1ab76456bff8689421" target="_top" xlink:title=" ">
<polygon fill="white" stroke="black" points="149,-0.5 149,-30.5 322,-30.5 322,-0.5 149,-0.5"/>
<text text-anchor="start" x="157" y="-18.5" font-family="Helvetica,sans-Serif" font-size="10.00">pa::PolymorphicPANOCDirection</text>
<text text-anchor="middle" x="235.5" y="-7.5" font-family="Helvetica,sans-Serif" font-size="10.00">Base::update</text>
</a>
</g>
</g>
<!-- Node1&#45;&gt;Node50 -->
<g id="edge49" class="edge">
<title>Node1&#45;&gt;Node50</title>
<path fill="none" stroke="midnightblue" d="M57.85,-914.83C61.23,-823.21 89.41,-110.23 149,-39.5 149.63,-38.75 150.28,-38.03 150.95,-37.32"/>
<polygon fill="midnightblue" stroke="midnightblue" points="153.51,-39.74 158.84,-30.58 148.96,-34.42 153.51,-39.74"/>
</g>
<!-- Node3 -->
<g id="node3" class="node">
<title>Node3</title>
<g id="a_node3"><a xlink:href="classpa_1_1PolymorphicPANOCDirectionBase.html#af7288684a5d17f618fef244cc6fbfe9d" target="_top" xlink:title=" ">
<polygon fill="white" stroke="black" points="358,-1930.5 358,-1960.5 531,-1960.5 531,-1930.5 358,-1930.5"/>
<text text-anchor="start" x="366" y="-1948.5" font-family="Helvetica,sans-Serif" font-size="10.00">pa::PolymorphicPANOCDirection</text>
<text text-anchor="middle" x="444.5" y="-1937.5" font-family="Helvetica,sans-Serif" font-size="10.00">Base::apply</text>
</a>
</g>
</g>
<!-- Node2&#45;&gt;Node3 -->
<g id="edge2" class="edge">
<title>Node2&#45;&gt;Node3</title>
<path fill="none" stroke="midnightblue" d="M322.19,-1945.5C330.66,-1945.5 339.3,-1945.5 347.87,-1945.5"/>
<polygon fill="midnightblue" stroke="midnightblue" points="347.88,-1949 357.88,-1945.5 347.88,-1942 347.88,-1949"/>
</g>
<!-- Node5 -->
<g id="node5" class="node">
<title>Node5</title>
<g id="a_node5"><a xlink:href="structpa_1_1PANOCDirection.html#a3e1314eb65ed291c73a1fb3ed63b8f00" target="_top" xlink:title=" ">
<polygon fill="white" stroke="black" points="388,-1881.5 388,-1911.5 501,-1911.5 501,-1881.5 388,-1881.5"/>
<text text-anchor="start" x="396" y="-1899.5" font-family="Helvetica,sans-Serif" font-size="10.00">pa::PANOCDirection</text>
<text text-anchor="middle" x="444.5" y="-1888.5" font-family="Helvetica,sans-Serif" font-size="10.00">::changed_γ</text>
</a>
</g>
</g>
<!-- Node4&#45;&gt;Node5 -->
<g id="edge4" class="edge">
<title>Node4&#45;&gt;Node5</title>
<path fill="none" stroke="midnightblue" d="M322.19,-1896.5C340.69,-1896.5 359.98,-1896.5 377.58,-1896.5"/>
<polygon fill="midnightblue" stroke="midnightblue" points="377.74,-1900 387.74,-1896.5 377.74,-1893 377.74,-1900"/>
</g>
<!-- Node19 -->
<g id="node19" class="node">
<title>Node19</title>
<g id="a_node19"><a xlink:href="structpa_1_1PANOCDirection.html#a878c161352d908c0c95213b84bfacd6a" target="_top" xlink:title=" ">
<polygon fill="white" stroke="black" points="388,-1254.5 388,-1284.5 501,-1284.5 501,-1254.5 388,-1254.5"/>
<text text-anchor="start" x="396" y="-1272.5" font-family="Helvetica,sans-Serif" font-size="10.00">pa::PANOCDirection</text>
<text text-anchor="middle" x="444.5" y="-1261.5" font-family="Helvetica,sans-Serif" font-size="10.00">::initialize</text>
</a>
</g>
</g>
<!-- Node18&#45;&gt;Node19 -->
<g id="edge18" class="edge">
<title>Node18&#45;&gt;Node19</title>
<path fill="none" stroke="midnightblue" d="M322.19,-1269.5C340.69,-1269.5 359.98,-1269.5 377.58,-1269.5"/>
<polygon fill="midnightblue" stroke="midnightblue" points="377.74,-1273 387.74,-1269.5 377.74,-1266 377.74,-1273"/>
</g>
<!-- Node49 -->
<g id="node49" class="node">
<title>Node49</title>
<g id="a_node49"><a xlink:href="structpa_1_1PANOCDirection.html#a5151639338ec4bbbb07f6e10ddc5d67b" target="_top" xlink:title=" ">
<polygon fill="white" stroke="black" points="388,-49.5 388,-79.5 501,-79.5 501,-49.5 388,-49.5"/>
<text text-anchor="start" x="396" y="-67.5" font-family="Helvetica,sans-Serif" font-size="10.00">pa::PANOCDirection</text>
<text text-anchor="middle" x="444.5" y="-56.5" font-family="Helvetica,sans-Serif" font-size="10.00">::update</text>
</a>
</g>
</g>
<!-- Node48&#45;&gt;Node49 -->
<g id="edge48" class="edge">
<title>Node48&#45;&gt;Node49</title>
<path fill="none" stroke="midnightblue" d="M322.19,-64.5C340.69,-64.5 359.98,-64.5 377.58,-64.5"/>
<polygon fill="midnightblue" stroke="midnightblue" points="377.74,-68 387.74,-64.5 377.74,-61 377.74,-68"/>
</g>
</g>
</svg>
