<?xml version="1.0" encoding="UTF-8" standalone="no"?>
<!DOCTYPE svg PUBLIC "-//W3C//DTD SVG 1.1//EN"
 "http://www.w3.org/Graphics/SVG/1.1/DTD/svg11.dtd">
<!-- Generated by graphviz version 2.43.0 (0)
 -->
<!-- Title: panoc.cpp Pages: 1 -->
<svg width="1716pt" height="408pt"
 viewBox="0.00 0.00 1715.50 408.00" xmlns="http://www.w3.org/2000/svg" xmlns:xlink="http://www.w3.org/1999/xlink">
<g id="graph0" class="graph" transform="scale(1 1) rotate(0) translate(4 404)">
<title>panoc.cpp</title>
<polygon fill="white" stroke="transparent" points="-4,4 -4,-404 1711.5,-404 1711.5,4 -4,4"/>
<!-- Node1 -->
<g id="node1" class="node">
<title>Node1</title>
<g id="a_node1"><a xlink:title=" ">
<polygon fill="#bfbfbf" stroke="black" points="437.5,-380.5 437.5,-399.5 503.5,-399.5 503.5,-380.5 437.5,-380.5"/>
<text text-anchor="middle" x="470.5" y="-387.5" font-family="Helvetica,sans-Serif" font-size="10.00">panoc.cpp</text>
</a>
</g>
</g>
<!-- Node2 -->
<g id="node2" class="node">
<title>Node2</title>
<g id="a_node2"><a xlink:href="lbfgs_8hpp.html" target="_top" xlink:title=" ">
<polygon fill="white" stroke="black" points="102,-313.5 102,-343.5 249,-343.5 249,-313.5 102,-313.5"/>
<text text-anchor="start" x="110" y="-331.5" font-family="Helvetica,sans-Serif" font-size="10.00">panoc&#45;alm/inner/directions</text>
<text text-anchor="middle" x="175.5" y="-320.5" font-family="Helvetica,sans-Serif" font-size="10.00">/lbfgs.hpp</text>
</a>
</g>
</g>
<!-- Node1&#45;&gt;Node2 -->
<g id="edge1" class="edge">
<title>Node1&#45;&gt;Node2</title>
<path fill="none" stroke="midnightblue" d="M437.23,-382.29C393.36,-373.44 314.75,-357.59 255.09,-345.55"/>
<polygon fill="midnightblue" stroke="midnightblue" points="255.43,-342.05 244.94,-343.51 254.05,-348.91 255.43,-342.05"/>
</g>
<!-- Node10 -->
<g id="node10" class="node">
<title>Node10</title>
<g id="a_node10"><a xlink:href="panoc_8hpp.html" target="_top" xlink:title=" ">
<polygon fill="white" stroke="black" points="692,-319 692,-338 841,-338 841,-319 692,-319"/>
<text text-anchor="middle" x="766.5" y="-326" font-family="Helvetica,sans-Serif" font-size="10.00">panoc&#45;alm/inner/panoc.hpp</text>
</a>
</g>
</g>
<!-- Node1&#45;&gt;Node10 -->
<g id="edge11" class="edge">
<title>Node1&#45;&gt;Node10</title>
<path fill="none" stroke="midnightblue" d="M503.59,-382.35C554.65,-372.09 653.07,-352.3 713.94,-340.07"/>
<polygon fill="midnightblue" stroke="midnightblue" points="715,-343.42 724.11,-338.02 713.62,-336.56 715,-343.42"/>
</g>
<!-- Node3 -->
<g id="node3" class="node">
<title>Node3</title>
<g id="a_node3"><a xlink:href="decl_2lbfgs_8hpp.html" target="_top" xlink:title=" ">
<polygon fill="white" stroke="black" points="0,-246.5 0,-276.5 147,-276.5 147,-246.5 0,-246.5"/>
<text text-anchor="start" x="8" y="-264.5" font-family="Helvetica,sans-Serif" font-size="10.00">panoc&#45;alm/inner/directions</text>
<text text-anchor="middle" x="73.5" y="-253.5" font-family="Helvetica,sans-Serif" font-size="10.00">/decl/lbfgs.hpp</text>
</a>
</g>
</g>
<!-- Node2&#45;&gt;Node3 -->
<g id="edge2" class="edge">
<title>Node2&#45;&gt;Node3</title>
<path fill="none" stroke="midnightblue" d="M153.37,-313.4C138.93,-304.2 119.9,-292.07 104.03,-281.95"/>
<polygon fill="midnightblue" stroke="midnightblue" points="105.9,-279 95.59,-276.58 102.14,-284.9 105.9,-279"/>
</g>
<!-- Node9 -->
<g id="node9" class="node">
<title>Node9</title>
<g id="a_node9"><a xlink:title=" ">
<polygon fill="white" stroke="#bfbfbf" points="766,-118 766,-137 835,-137 835,-118 766,-118"/>
<text text-anchor="middle" x="800.5" y="-125" font-family="Helvetica,sans-Serif" font-size="10.00">type_traits</text>
</a>
</g>
</g>
<!-- Node2&#45;&gt;Node9 -->
<g id="edge10" class="edge">
<title>Node2&#45;&gt;Node9</title>
<path fill="none" stroke="midnightblue" d="M172.15,-313.1C166.16,-283.21 157.42,-214.31 194.5,-179 231.46,-143.8 601.65,-147.49 652.5,-143 687.09,-139.95 726.18,-136.1 755.5,-133.14"/>
<polygon fill="midnightblue" stroke="midnightblue" points="756.23,-136.58 765.83,-132.09 755.53,-129.61 756.23,-136.58"/>
</g>
<!-- Node4 -->
<g id="node4" class="node">
<title>Node4</title>
<g id="a_node4"><a xlink:href="box_8hpp.html" target="_top" xlink:title=" ">
<polygon fill="white" stroke="black" points="255,-118 255,-137 384,-137 384,-118 255,-118"/>
<text text-anchor="middle" x="319.5" y="-125" font-family="Helvetica,sans-Serif" font-size="10.00">panoc&#45;alm/util/box.hpp</text>
</a>
</g>
</g>
<!-- Node3&#45;&gt;Node4 -->
<g id="edge3" class="edge">
<title>Node3&#45;&gt;Node4</title>
<path fill="none" stroke="midnightblue" d="M87.21,-246.4C107.56,-225.71 145.13,-188.55 161.5,-179 193.82,-160.14 234.03,-147.42 265.8,-139.46"/>
<polygon fill="midnightblue" stroke="midnightblue" points="266.91,-142.79 275.8,-137.04 265.26,-135.99 266.91,-142.79"/>
</g>
<!-- Node5 -->
<g id="node5" class="node">
<title>Node5</title>
<g id="a_node5"><a xlink:href="vec_8hpp.html" target="_top" xlink:title=" ">
<polygon fill="white" stroke="black" points="292,-56.5 292,-75.5 347,-75.5 347,-56.5 292,-56.5"/>
<text text-anchor="middle" x="319.5" y="-63.5" font-family="Helvetica,sans-Serif" font-size="10.00">vec.hpp</text>
</a>
</g>
</g>
<!-- Node3&#45;&gt;Node5 -->
<g id="edge6" class="edge">
<title>Node3&#45;&gt;Node5</title>
<path fill="none" stroke="midnightblue" d="M69,-246.14C60.83,-216.94 47.3,-150.17 80.5,-112 106.25,-82.4 220.56,-72.06 281.29,-68.62"/>
<polygon fill="midnightblue" stroke="midnightblue" points="281.82,-72.09 291.62,-68.07 281.45,-65.1 281.82,-72.09"/>
</g>
<!-- Node7 -->
<g id="node7" class="node">
<title>Node7</title>
<g id="a_node7"><a xlink:href="lbfgs-fwd_8hpp.html" target="_top" xlink:title=" ">
<polygon fill="white" stroke="black" points="90,-112.5 90,-142.5 237,-142.5 237,-112.5 90,-112.5"/>
<text text-anchor="start" x="98" y="-130.5" font-family="Helvetica,sans-Serif" font-size="10.00">panoc&#45;alm/inner/directions</text>
<text text-anchor="middle" x="163.5" y="-119.5" font-family="Helvetica,sans-Serif" font-size="10.00">/decl/lbfgs&#45;fwd.hpp</text>
</a>
</g>
</g>
<!-- Node3&#45;&gt;Node7 -->
<g id="edge7" class="edge">
<title>Node3&#45;&gt;Node7</title>
<path fill="none" stroke="midnightblue" d="M81.5,-246.33C90.98,-229.81 107.52,-201.86 123.5,-179 130.2,-169.41 138.1,-159.23 145.11,-150.54"/>
<polygon fill="midnightblue" stroke="midnightblue" points="147.87,-152.69 151.48,-142.73 142.44,-148.27 147.87,-152.69"/>
</g>
<!-- Node8 -->
<g id="node8" class="node">
<title>Node8</title>
<g id="a_node8"><a xlink:href="panoc-direction-update_8hpp.html" target="_top" xlink:title=" ">
<polygon fill="white" stroke="black" points="203,-179.5 203,-209.5 380,-209.5 380,-179.5 203,-179.5"/>
<text text-anchor="start" x="211" y="-197.5" font-family="Helvetica,sans-Serif" font-size="10.00">panoc&#45;alm/inner/directions</text>
<text text-anchor="middle" x="291.5" y="-186.5" font-family="Helvetica,sans-Serif" font-size="10.00">/decl/panoc&#45;direction&#45;update.hpp</text>
</a>
</g>
</g>
<!-- Node3&#45;&gt;Node8 -->
<g id="edge8" class="edge">
<title>Node3&#45;&gt;Node8</title>
<path fill="none" stroke="midnightblue" d="M120.53,-246.48C153.94,-236.51 198.98,-223.09 234.44,-212.51"/>
<polygon fill="midnightblue" stroke="midnightblue" points="235.59,-215.82 244.17,-209.61 233.59,-209.11 235.59,-215.82"/>
</g>
<!-- Node4&#45;&gt;Node5 -->
<g id="edge4" class="edge">
<title>Node4&#45;&gt;Node5</title>
<path fill="none" stroke="midnightblue" d="M319.5,-117.98C319.5,-109.58 319.5,-96.48 319.5,-85.66"/>
<polygon fill="midnightblue" stroke="midnightblue" points="323,-85.51 319.5,-75.51 316,-85.51 323,-85.51"/>
</g>
<!-- Node6 -->
<g id="node6" class="node">
<title>Node6</title>
<g id="a_node6"><a xlink:title=" ">
<polygon fill="white" stroke="#bfbfbf" points="285,-0.5 285,-19.5 354,-19.5 354,-0.5 285,-0.5"/>
<text text-anchor="middle" x="319.5" y="-7.5" font-family="Helvetica,sans-Serif" font-size="10.00">Eigen/Core</text>
</a>
</g>
</g>
<!-- Node5&#45;&gt;Node6 -->
<g id="edge5" class="edge">
<title>Node5&#45;&gt;Node6</title>
<path fill="none" stroke="midnightblue" d="M319.5,-56.08C319.5,-49.01 319.5,-38.86 319.5,-29.99"/>
<polygon fill="midnightblue" stroke="midnightblue" points="323,-29.75 319.5,-19.75 316,-29.75 323,-29.75"/>
</g>
<!-- Node8&#45;&gt;Node4 -->
<g id="edge9" class="edge">
<title>Node8&#45;&gt;Node4</title>
<path fill="none" stroke="midnightblue" d="M297.58,-179.4C301.73,-169.76 307.26,-156.91 311.73,-146.54"/>
<polygon fill="midnightblue" stroke="midnightblue" points="315.01,-147.76 315.75,-137.19 308.58,-144.99 315.01,-147.76"/>
</g>
<!-- Node10&#45;&gt;Node8 -->
<g id="edge41" class="edge">
<title>Node10&#45;&gt;Node8</title>
<path fill="none" stroke="midnightblue" d="M735.7,-318.94C658.31,-297.43 454.57,-240.82 352.13,-212.35"/>
<polygon fill="midnightblue" stroke="midnightblue" points="352.82,-208.91 342.24,-209.6 350.94,-215.65 352.82,-208.91"/>
</g>
<!-- Node11 -->
<g id="node11" class="node">
<title>Node11</title>
<g id="a_node11"><a xlink:href="decl_2panoc_8hpp.html" target="_top" xlink:title=" ">
<polygon fill="white" stroke="black" points="815,-246.5 815,-276.5 934,-276.5 934,-246.5 815,-246.5"/>
<text text-anchor="start" x="823" y="-264.5" font-family="Helvetica,sans-Serif" font-size="10.00">panoc&#45;alm/inner/decl</text>
<text text-anchor="middle" x="874.5" y="-253.5" font-family="Helvetica,sans-Serif" font-size="10.00">/panoc.hpp</text>
</a>
</g>
</g>
<!-- Node10&#45;&gt;Node11 -->
<g id="edge12" class="edge">
<title>Node10&#45;&gt;Node11</title>
<path fill="none" stroke="midnightblue" d="M781.07,-318.73C796.71,-309.32 822.08,-294.05 842.43,-281.8"/>
<polygon fill="midnightblue" stroke="midnightblue" points="844.33,-284.74 851.09,-276.59 840.72,-278.75 844.33,-284.74"/>
</g>
<!-- Node16 -->
<g id="node16" class="node">
<title>Node16</title>
<g id="a_node16"><a xlink:title=" ">
<polygon fill="white" stroke="#bfbfbf" points="1557,-118 1557,-137 1622,-137 1622,-118 1557,-118"/>
<text text-anchor="middle" x="1589.5" y="-125" font-family="Helvetica,sans-Serif" font-size="10.00">stdexcept</text>
</a>
</g>
</g>
<!-- Node10&#45;&gt;Node16 -->
<g id="edge46" class="edge">
<title>Node10&#45;&gt;Node16</title>
<path fill="none" stroke="midnightblue" d="M841.08,-324.57C949.18,-319.48 1155.41,-306.55 1328.5,-277 1447.83,-256.63 1518.17,-305.55 1592.5,-210 1606.39,-192.15 1601.78,-164.84 1596.34,-146.83"/>
<polygon fill="midnightblue" stroke="midnightblue" points="1599.61,-145.57 1593.1,-137.21 1592.98,-147.81 1599.61,-145.57"/>
</g>
<!-- Node28 -->
<g id="node28" class="node">
<title>Node28</title>
<g id="a_node28"><a xlink:href="panoc-helpers_8hpp.html" target="_top" xlink:title=" ">
<polygon fill="white" stroke="black" points="1192,-246.5 1192,-276.5 1319,-276.5 1319,-246.5 1192,-246.5"/>
<text text-anchor="start" x="1200" y="-264.5" font-family="Helvetica,sans-Serif" font-size="10.00">panoc&#45;alm/inner/detail</text>
<text text-anchor="middle" x="1255.5" y="-253.5" font-family="Helvetica,sans-Serif" font-size="10.00">/panoc&#45;helpers.hpp</text>
</a>
</g>
</g>
<!-- Node10&#45;&gt;Node28 -->
<g id="edge35" class="edge">
<title>Node10&#45;&gt;Node28</title>
<path fill="none" stroke="midnightblue" d="M830.68,-318.97C921.18,-306.94 1085.9,-285.04 1181.47,-272.34"/>
<polygon fill="midnightblue" stroke="midnightblue" points="1182.18,-275.78 1191.63,-270.99 1181.26,-268.84 1182.18,-275.78"/>
</g>
<!-- Node29 -->
<g id="node29" class="node">
<title>Node29</title>
<g id="a_node29"><a xlink:title=" ">
<polygon fill="white" stroke="#bfbfbf" points="1655.5,-252 1655.5,-271 1707.5,-271 1707.5,-252 1655.5,-252"/>
<text text-anchor="middle" x="1681.5" y="-259" font-family="Helvetica,sans-Serif" font-size="10.00">cassert</text>
</a>
</g>
</g>
<!-- Node10&#45;&gt;Node29 -->
<g id="edge42" class="edge">
<title>Node10&#45;&gt;Node29</title>
<path fill="none" stroke="midnightblue" d="M841.32,-325.96C1024.11,-321.76 1489.47,-308.25 1641.5,-277 1644.93,-276.29 1648.47,-275.35 1651.95,-274.29"/>
<polygon fill="midnightblue" stroke="midnightblue" points="1653.14,-277.58 1661.48,-271.04 1650.89,-270.95 1653.14,-277.58"/>
</g>
<!-- Node30 -->
<g id="node30" class="node">
<title>Node30</title>
<g id="a_node30"><a xlink:title=" ">
<polygon fill="white" stroke="#bfbfbf" points="597,-252 597,-271 644,-271 644,-252 597,-252"/>
<text text-anchor="middle" x="620.5" y="-259" font-family="Helvetica,sans-Serif" font-size="10.00">cmath</text>
</a>
</g>
</g>
<!-- Node10&#45;&gt;Node30 -->
<g id="edge43" class="edge">
<title>Node10&#45;&gt;Node30</title>
<path fill="none" stroke="midnightblue" d="M747.11,-318.87C722.02,-307.7 678.11,-288.15 649.16,-275.26"/>
<polygon fill="midnightblue" stroke="midnightblue" points="650.53,-272.04 639.97,-271.17 647.68,-278.43 650.53,-272.04"/>
</g>
<!-- Node31 -->
<g id="node31" class="node">
<title>Node31</title>
<g id="a_node31"><a xlink:title=" ">
<polygon fill="white" stroke="#bfbfbf" points="662.5,-252 662.5,-271 718.5,-271 718.5,-252 662.5,-252"/>
<text text-anchor="middle" x="690.5" y="-259" font-family="Helvetica,sans-Serif" font-size="10.00">iomanip</text>
</a>
</g>
</g>
<!-- Node10&#45;&gt;Node31 -->
<g id="edge44" class="edge">
<title>Node10&#45;&gt;Node31</title>
<path fill="none" stroke="midnightblue" d="M756.25,-318.73C744.06,-308.31 723.48,-290.71 708.59,-277.97"/>
<polygon fill="midnightblue" stroke="midnightblue" points="710.46,-274.97 700.59,-271.13 705.91,-280.29 710.46,-274.97"/>
</g>
<!-- Node32 -->
<g id="node32" class="node">
<title>Node32</title>
<g id="a_node32"><a xlink:title=" ">
<polygon fill="white" stroke="#bfbfbf" points="736.5,-252 736.5,-271 796.5,-271 796.5,-252 736.5,-252"/>
<text text-anchor="middle" x="766.5" y="-259" font-family="Helvetica,sans-Serif" font-size="10.00">iostream</text>
</a>
</g>
</g>
<!-- Node10&#45;&gt;Node32 -->
<g id="edge45" class="edge">
<title>Node10&#45;&gt;Node32</title>
<path fill="none" stroke="midnightblue" d="M766.5,-318.73C766.5,-309.18 766.5,-293.62 766.5,-281.28"/>
<polygon fill="midnightblue" stroke="midnightblue" points="770,-281.13 766.5,-271.13 763,-281.13 770,-281.13"/>
</g>
<!-- Node11&#45;&gt;Node8 -->
<g id="edge19" class="edge">
<title>Node11&#45;&gt;Node8</title>
<path fill="none" stroke="midnightblue" d="M814.74,-247.48C811.62,-246.95 808.53,-246.45 805.5,-246 625.14,-219.34 575.55,-231.16 390.22,-210.03"/>
<polygon fill="midnightblue" stroke="midnightblue" points="390.48,-206.53 380.14,-208.86 389.67,-213.49 390.48,-206.53"/>
</g>
<!-- Node12 -->
<g id="node12" class="node">
<title>Node12</title>
<g id="a_node12"><a xlink:href="lbfgs-stepsize_8hpp.html" target="_top" xlink:title=" ">
<polygon fill="white" stroke="black" points="398,-179.5 398,-209.5 517,-209.5 517,-179.5 398,-179.5"/>
<text text-anchor="start" x="406" y="-197.5" font-family="Helvetica,sans-Serif" font-size="10.00">panoc&#45;alm/inner/decl</text>
<text text-anchor="middle" x="457.5" y="-186.5" font-family="Helvetica,sans-Serif" font-size="10.00">/lbfgs&#45;stepsize.hpp</text>
</a>
</g>
</g>
<!-- Node11&#45;&gt;Node12 -->
<g id="edge13" class="edge">
<title>Node11&#45;&gt;Node12</title>
<path fill="none" stroke="midnightblue" d="M814.72,-247.64C811.6,-247.06 808.52,-246.51 805.5,-246 685.36,-225.66 651.48,-230.6 527.19,-210.03"/>
<polygon fill="midnightblue" stroke="midnightblue" points="527.73,-206.57 517.28,-208.36 526.57,-213.47 527.73,-206.57"/>
</g>
<!-- Node13 -->
<g id="node13" class="node">
<title>Node13</title>
<g id="a_node13"><a xlink:href="panoc-fwd_8hpp.html" target="_top" xlink:title=" ">
<polygon fill="white" stroke="black" points="535,-179.5 535,-209.5 654,-209.5 654,-179.5 535,-179.5"/>
<text text-anchor="start" x="543" y="-197.5" font-family="Helvetica,sans-Serif" font-size="10.00">panoc&#45;alm/inner/decl</text>
<text text-anchor="middle" x="594.5" y="-186.5" font-family="Helvetica,sans-Serif" font-size="10.00">/panoc&#45;fwd.hpp</text>
</a>
</g>
</g>
<!-- Node11&#45;&gt;Node13 -->
<g id="edge14" class="edge">
<title>Node11&#45;&gt;Node13</title>
<path fill="none" stroke="midnightblue" d="M814.78,-246.64C770.63,-236.39 710.41,-222.41 664.09,-211.66"/>
<polygon fill="midnightblue" stroke="midnightblue" points="664.66,-208.2 654.13,-209.34 663.08,-215.01 664.66,-208.2"/>
</g>
<!-- Node14 -->
<g id="node14" class="node">
<title>Node14</title>
<g id="a_node14"><a xlink:href="panoc-stop-crit_8hpp.html" target="_top" xlink:title=" ">
<polygon fill="white" stroke="black" points="1442,-179.5 1442,-209.5 1561,-209.5 1561,-179.5 1442,-179.5"/>
<text text-anchor="start" x="1450" y="-197.5" font-family="Helvetica,sans-Serif" font-size="10.00">panoc&#45;alm/inner/decl</text>
<text text-anchor="middle" x="1501.5" y="-186.5" font-family="Helvetica,sans-Serif" font-size="10.00">/panoc&#45;stop&#45;crit.hpp</text>
</a>
</g>
</g>
<!-- Node11&#45;&gt;Node14 -->
<g id="edge16" class="edge">
<title>Node11&#45;&gt;Node14</title>
<path fill="none" stroke="midnightblue" d="M934.35,-257.46C1035.15,-251.81 1245.29,-237.82 1431.88,-210.14"/>
<polygon fill="midnightblue" stroke="midnightblue" points="1432.5,-213.58 1441.87,-208.64 1431.46,-206.66 1432.5,-213.58"/>
</g>
<!-- Node17 -->
<g id="node17" class="node">
<title>Node17</title>
<g id="a_node17"><a xlink:href="atomic__stop__signal_8hpp.html" target="_top" xlink:title=" ">
<polygon fill="white" stroke="black" points="1110.5,-179.5 1110.5,-209.5 1234.5,-209.5 1234.5,-179.5 1110.5,-179.5"/>
<text text-anchor="start" x="1118.5" y="-197.5" font-family="Helvetica,sans-Serif" font-size="10.00">panoc&#45;alm/util/atomic</text>
<text text-anchor="middle" x="1172.5" y="-186.5" font-family="Helvetica,sans-Serif" font-size="10.00">_stop_signal.hpp</text>
</a>
</g>
</g>
<!-- Node11&#45;&gt;Node17 -->
<g id="edge20" class="edge">
<title>Node11&#45;&gt;Node17</title>
<path fill="none" stroke="midnightblue" d="M934.09,-247.5C982.02,-237.05 1049.54,-222.32 1100.49,-211.21"/>
<polygon fill="midnightblue" stroke="midnightblue" points="1101.43,-214.59 1110.45,-209.03 1099.93,-207.75 1101.43,-214.59"/>
</g>
<!-- Node18 -->
<g id="node18" class="node">
<title>Node18</title>
<g id="a_node18"><a xlink:title=" ">
<polygon fill="white" stroke="#bfbfbf" points="1102.5,-118 1102.5,-137 1152.5,-137 1152.5,-118 1102.5,-118"/>
<text text-anchor="middle" x="1127.5" y="-125" font-family="Helvetica,sans-Serif" font-size="10.00">atomic</text>
</a>
</g>
</g>
<!-- Node11&#45;&gt;Node18 -->
<g id="edge31" class="edge">
<title>Node11&#45;&gt;Node18</title>
<path fill="none" stroke="midnightblue" d="M934.3,-254.45C973.64,-248.19 1024.8,-235.53 1063.5,-210 1088.2,-193.71 1107.57,-164.72 1118.27,-146.07"/>
<polygon fill="midnightblue" stroke="midnightblue" points="1121.43,-147.59 1123.18,-137.14 1115.3,-144.22 1121.43,-147.59"/>
</g>
<!-- Node19 -->
<g id="node19" class="node">
<title>Node19</title>
<g id="a_node19"><a xlink:href="lipschitz_8hpp.html" target="_top" xlink:title=" ">
<polygon fill="white" stroke="black" points="491.5,-118 491.5,-137 643.5,-137 643.5,-118 491.5,-118"/>
<text text-anchor="middle" x="567.5" y="-125" font-family="Helvetica,sans-Serif" font-size="10.00">panoc&#45;alm/util/lipschitz.hpp</text>
</a>
</g>
</g>
<!-- Node11&#45;&gt;Node19 -->
<g id="edge22" class="edge">
<title>Node11&#45;&gt;Node19</title>
<path fill="none" stroke="midnightblue" d="M875.54,-246.43C876.07,-228.14 873.97,-196.47 855.5,-179 827.02,-152.05 728.03,-139.24 654.01,-133.31"/>
<polygon fill="midnightblue" stroke="midnightblue" points="653.98,-129.8 643.74,-132.52 653.44,-136.78 653.98,-129.8"/>
</g>
<!-- Node20 -->
<g id="node20" class="node">
<title>Node20</title>
<g id="a_node20"><a xlink:href="include_2panoc-alm_2util_2problem_8hpp.html" target="_top" xlink:title=" ">
<polygon fill="white" stroke="black" points="902.5,-185 902.5,-204 1054.5,-204 1054.5,-185 902.5,-185"/>
<text text-anchor="middle" x="978.5" y="-192" font-family="Helvetica,sans-Serif" font-size="10.00">panoc&#45;alm/util/problem.hpp</text>
</a>
</g>
</g>
<!-- Node11&#45;&gt;Node20 -->
<g id="edge24" class="edge">
<title>Node11&#45;&gt;Node20</title>
<path fill="none" stroke="midnightblue" d="M897.07,-246.4C914.51,-235.5 938.53,-220.48 955.97,-209.58"/>
<polygon fill="midnightblue" stroke="midnightblue" points="958.26,-212.28 964.89,-204.01 954.55,-206.34 958.26,-212.28"/>
</g>
<!-- Node23 -->
<g id="node23" class="node">
<title>Node23</title>
<g id="a_node23"><a xlink:href="solverstatus_8hpp.html" target="_top" xlink:title=" ">
<polygon fill="white" stroke="black" points="1253,-185 1253,-204 1424,-204 1424,-185 1253,-185"/>
<text text-anchor="middle" x="1338.5" y="-192" font-family="Helvetica,sans-Serif" font-size="10.00">panoc&#45;alm/util/solverstatus.hpp</text>
</a>
</g>
</g>
<!-- Node11&#45;&gt;Node23 -->
<g id="edge29" class="edge">
<title>Node11&#45;&gt;Node23</title>
<path fill="none" stroke="midnightblue" d="M934.3,-252.61C1007.31,-242.9 1134.55,-225.77 1243.5,-210 1253.28,-208.58 1263.63,-207.05 1273.75,-205.52"/>
<polygon fill="midnightblue" stroke="midnightblue" points="1274.4,-208.96 1283.76,-204 1273.35,-202.04 1274.4,-208.96"/>
</g>
<!-- Node25 -->
<g id="node25" class="node">
<title>Node25</title>
<g id="a_node25"><a xlink:title=" ">
<polygon fill="white" stroke="#bfbfbf" points="672.5,-185 672.5,-204 722.5,-204 722.5,-185 672.5,-185"/>
<text text-anchor="middle" x="697.5" y="-192" font-family="Helvetica,sans-Serif" font-size="10.00">chrono</text>
</a>
</g>
</g>
<!-- Node11&#45;&gt;Node25 -->
<g id="edge32" class="edge">
<title>Node11&#45;&gt;Node25</title>
<path fill="none" stroke="midnightblue" d="M832.63,-246.5C803.99,-236.73 765.24,-223.14 731.5,-210 729.9,-209.38 728.26,-208.72 726.6,-208.06"/>
<polygon fill="midnightblue" stroke="midnightblue" points="727.77,-204.75 717.19,-204.15 725.08,-211.21 727.77,-204.75"/>
</g>
<!-- Node26 -->
<g id="node26" class="node">
<title>Node26</title>
<g id="a_node26"><a xlink:title=" ">
<polygon fill="white" stroke="#bfbfbf" points="740.5,-185 740.5,-204 784.5,-204 784.5,-185 740.5,-185"/>
<text text-anchor="middle" x="762.5" y="-192" font-family="Helvetica,sans-Serif" font-size="10.00">limits</text>
</a>
</g>
</g>
<!-- Node11&#45;&gt;Node26 -->
<g id="edge33" class="edge">
<title>Node11&#45;&gt;Node26</title>
<path fill="none" stroke="midnightblue" d="M850.2,-246.4C831.15,-235.34 804.82,-220.06 785.99,-209.13"/>
<polygon fill="midnightblue" stroke="midnightblue" points="787.56,-206 777.16,-204.01 784.05,-212.05 787.56,-206"/>
</g>
<!-- Node27 -->
<g id="node27" class="node">
<title>Node27</title>
<g id="a_node27"><a xlink:title=" ">
<polygon fill="white" stroke="#bfbfbf" points="802.5,-185 802.5,-204 846.5,-204 846.5,-185 802.5,-185"/>
<text text-anchor="middle" x="824.5" y="-192" font-family="Helvetica,sans-Serif" font-size="10.00">string</text>
</a>
</g>
</g>
<!-- Node11&#45;&gt;Node27 -->
<g id="edge34" class="edge">
<title>Node11&#45;&gt;Node27</title>
<path fill="none" stroke="midnightblue" d="M863.65,-246.4C855.93,-236.36 845.53,-222.84 837.39,-212.25"/>
<polygon fill="midnightblue" stroke="midnightblue" points="840.06,-209.99 831.19,-204.19 834.51,-214.25 840.06,-209.99"/>
</g>
<!-- Node13&#45;&gt;Node7 -->
<g id="edge15" class="edge">
<title>Node13&#45;&gt;Node7</title>
<path fill="none" stroke="midnightblue" d="M534.85,-180.49C532.03,-179.97 529.24,-179.47 526.5,-179 405.96,-158.43 372.25,-161.62 247.2,-143.06"/>
<polygon fill="midnightblue" stroke="midnightblue" points="247.65,-139.58 237.24,-141.56 246.61,-146.51 247.65,-139.58"/>
</g>
<!-- Node15 -->
<g id="node15" class="node">
<title>Node15</title>
<g id="a_node15"><a xlink:title=" ">
<polygon fill="white" stroke="#bfbfbf" points="1473,-118 1473,-137 1530,-137 1530,-118 1473,-118"/>
<text text-anchor="middle" x="1501.5" y="-125" font-family="Helvetica,sans-Serif" font-size="10.00">ostream</text>
</a>
</g>
</g>
<!-- Node14&#45;&gt;Node15 -->
<g id="edge17" class="edge">
<title>Node14&#45;&gt;Node15</title>
<path fill="none" stroke="midnightblue" d="M1501.5,-179.4C1501.5,-170.06 1501.5,-157.71 1501.5,-147.52"/>
<polygon fill="midnightblue" stroke="midnightblue" points="1505,-147.19 1501.5,-137.19 1498,-147.19 1505,-147.19"/>
</g>
<!-- Node14&#45;&gt;Node16 -->
<g id="edge18" class="edge">
<title>Node14&#45;&gt;Node16</title>
<path fill="none" stroke="midnightblue" d="M1520.59,-179.4C1535.08,-168.7 1554.93,-154.03 1569.61,-143.19"/>
<polygon fill="midnightblue" stroke="midnightblue" points="1572.02,-145.76 1577.98,-137.01 1567.86,-140.13 1572.02,-145.76"/>
</g>
<!-- Node17&#45;&gt;Node18 -->
<g id="edge21" class="edge">
<title>Node17&#45;&gt;Node18</title>
<path fill="none" stroke="midnightblue" d="M1162.74,-179.4C1155.86,-169.46 1146.61,-156.11 1139.32,-145.57"/>
<polygon fill="midnightblue" stroke="midnightblue" points="1142.09,-143.42 1133.52,-137.19 1136.33,-147.41 1142.09,-143.42"/>
</g>
<!-- Node19&#45;&gt;Node5 -->
<g id="edge23" class="edge">
<title>Node19&#45;&gt;Node5</title>
<path fill="none" stroke="midnightblue" d="M531.97,-117.98C485.55,-106.84 404.62,-87.42 357.17,-76.04"/>
<polygon fill="midnightblue" stroke="midnightblue" points="357.83,-72.6 347.29,-73.67 356.2,-79.4 357.83,-72.6"/>
</g>
<!-- Node20&#45;&gt;Node4 -->
<g id="edge25" class="edge">
<title>Node20&#45;&gt;Node4</title>
<path fill="none" stroke="midnightblue" d="M908.61,-184.97C891.26,-182.94 872.71,-180.83 855.5,-179 768.15,-169.74 520.11,-146.85 394.44,-135.34"/>
<polygon fill="midnightblue" stroke="midnightblue" points="394.41,-131.82 384.14,-134.4 393.78,-138.8 394.41,-131.82"/>
</g>
<!-- Node20&#45;&gt;Node9 -->
<g id="edge28" class="edge">
<title>Node20&#45;&gt;Node9</title>
<path fill="none" stroke="midnightblue" d="M954.86,-184.87C923.79,-173.52 869.03,-153.52 833.78,-140.65"/>
<polygon fill="midnightblue" stroke="midnightblue" points="834.55,-137.21 823.95,-137.06 832.14,-143.78 834.55,-137.21"/>
</g>
<!-- Node21 -->
<g id="node21" class="node">
<title>Node21</title>
<g id="a_node21"><a xlink:title=" ">
<polygon fill="white" stroke="#bfbfbf" points="982,-118 982,-137 1047,-137 1047,-118 982,-118"/>
<text text-anchor="middle" x="1014.5" y="-125" font-family="Helvetica,sans-Serif" font-size="10.00">functional</text>
</a>
</g>
</g>
<!-- Node20&#45;&gt;Node21 -->
<g id="edge26" class="edge">
<title>Node20&#45;&gt;Node21</title>
<path fill="none" stroke="midnightblue" d="M983.36,-184.73C988.81,-174.89 997.8,-158.66 1004.72,-146.16"/>
<polygon fill="midnightblue" stroke="midnightblue" points="1007.94,-147.57 1009.72,-137.13 1001.81,-144.18 1007.94,-147.57"/>
</g>
<!-- Node22 -->
<g id="node22" class="node">
<title>Node22</title>
<g id="a_node22"><a xlink:title=" ">
<polygon fill="white" stroke="#bfbfbf" points="905.5,-118 905.5,-137 963.5,-137 963.5,-118 905.5,-118"/>
<text text-anchor="middle" x="934.5" y="-125" font-family="Helvetica,sans-Serif" font-size="10.00">memory</text>
</a>
</g>
</g>
<!-- Node20&#45;&gt;Node22 -->
<g id="edge27" class="edge">
<title>Node20&#45;&gt;Node22</title>
<path fill="none" stroke="midnightblue" d="M972.57,-184.73C965.77,-174.7 954.48,-158.01 945.95,-145.42"/>
<polygon fill="midnightblue" stroke="midnightblue" points="948.84,-143.45 940.34,-137.13 943.05,-147.37 948.84,-143.45"/>
</g>
<!-- Node24 -->
<g id="node24" class="node">
<title>Node24</title>
<g id="a_node24"><a xlink:title=" ">
<polygon fill="white" stroke="#bfbfbf" points="1314.5,-118 1314.5,-137 1362.5,-137 1362.5,-118 1314.5,-118"/>
<text text-anchor="middle" x="1338.5" y="-125" font-family="Helvetica,sans-Serif" font-size="10.00">iosfwd</text>
</a>
</g>
</g>
<!-- Node23&#45;&gt;Node24 -->
<g id="edge30" class="edge">
<title>Node23&#45;&gt;Node24</title>
<path fill="none" stroke="midnightblue" d="M1338.5,-184.73C1338.5,-175.18 1338.5,-159.62 1338.5,-147.28"/>
<polygon fill="midnightblue" stroke="midnightblue" points="1342,-147.13 1338.5,-137.13 1335,-147.13 1342,-147.13"/>
</g>
<!-- Node28&#45;&gt;Node14 -->
<g id="edge36" class="edge">
<title>Node28&#45;&gt;Node14</title>
<path fill="none" stroke="midnightblue" d="M1308.58,-246.48C1346.68,-236.41 1398.18,-222.8 1438.39,-212.17"/>
<polygon fill="midnightblue" stroke="midnightblue" points="1439.32,-215.55 1448.1,-209.61 1437.53,-208.78 1439.32,-215.55"/>
</g>
<!-- Node28&#45;&gt;Node16 -->
<g id="edge40" class="edge">
<title>Node28&#45;&gt;Node16</title>
<path fill="none" stroke="midnightblue" d="M1319.16,-258.47C1400.49,-254.54 1535,-243.09 1570.5,-210 1587.57,-194.08 1590.7,-166.05 1590.66,-147.37"/>
<polygon fill="midnightblue" stroke="midnightblue" points="1594.15,-147.02 1590.32,-137.14 1587.16,-147.25 1594.15,-147.02"/>
</g>
<!-- Node28&#45;&gt;Node17 -->
<g id="edge37" class="edge">
<title>Node28&#45;&gt;Node17</title>
<path fill="none" stroke="midnightblue" d="M1237.49,-246.4C1226.07,-237.45 1211.11,-225.74 1198.42,-215.8"/>
<polygon fill="midnightblue" stroke="midnightblue" points="1200.51,-212.99 1190.47,-209.58 1196.19,-218.5 1200.51,-212.99"/>
</g>
<!-- Node28&#45;&gt;Node20 -->
<g id="edge38" class="edge">
<title>Node28&#45;&gt;Node20</title>
<path fill="none" stroke="midnightblue" d="M1195.74,-246.48C1144.47,-234.45 1071.65,-217.36 1024.73,-206.35"/>
<polygon fill="midnightblue" stroke="midnightblue" points="1025.38,-202.91 1014.85,-204.03 1023.78,-209.72 1025.38,-202.91"/>
</g>
<!-- Node28&#45;&gt;Node23 -->
<g id="edge39" class="edge">
<title>Node28&#45;&gt;Node23</title>
<path fill="none" stroke="midnightblue" d="M1273.51,-246.4C1287.09,-235.76 1305.68,-221.2 1319.5,-210.38"/>
<polygon fill="midnightblue" stroke="midnightblue" points="1321.68,-213.12 1327.4,-204.19 1317.37,-207.6 1321.68,-213.12"/>
</g>
</g>
</svg>
