<?xml version="1.0" encoding="UTF-8" standalone="no"?>
<!DOCTYPE svg PUBLIC "-//W3C//DTD SVG 1.1//EN"
 "http://www.w3.org/Graphics/SVG/1.1/DTD/svg11.dtd">
<!-- Generated by graphviz version 2.43.0 (0)
 -->
<!-- Title: panoc&#45;stop&#45;crit.hpp Pages: 1 -->
<svg width="1412pt" height="308pt"
 viewBox="0.00 0.00 1412.00 308.00" xmlns="http://www.w3.org/2000/svg" xmlns:xlink="http://www.w3.org/1999/xlink">
<g id="graph0" class="graph" transform="scale(1 1) rotate(0) translate(4 304)">
<title>panoc&#45;stop&#45;crit.hpp</title>
<polygon fill="white" stroke="transparent" points="-4,4 -4,-304 1408,-304 1408,4 -4,4"/>
<!-- Node1 -->
<g id="node1" class="node">
<title>Node1</title>
<g id="a_node1"><a xlink:title=" ">
<polygon fill="#bfbfbf" stroke="black" points="904.5,-280.5 904.5,-299.5 1015.5,-299.5 1015.5,-280.5 904.5,-280.5"/>
<text text-anchor="middle" x="960" y="-287.5" font-family="Helvetica,sans-Serif" font-size="10.00">panoc&#45;stop&#45;crit.hpp</text>
</a>
</g>
</g>
<!-- Node2 -->
<g id="node2" class="node">
<title>Node2</title>
<g id="a_node2"><a xlink:href="decl_2panoc_8hpp.html" target="_top" xlink:title=" ">
<polygon fill="white" stroke="black" points="272.5,-224.5 272.5,-243.5 339.5,-243.5 339.5,-224.5 272.5,-224.5"/>
<text text-anchor="middle" x="306" y="-231.5" font-family="Helvetica,sans-Serif" font-size="10.00">panoc.hpp</text>
</a>
</g>
</g>
<!-- Node1&#45;&gt;Node2 -->
<g id="edge1" class="edge">
<title>Node1&#45;&gt;Node2</title>
<path fill="none" stroke="midnightblue" d="M894.26,-283.57C756.83,-272.22 443.3,-246.34 339.83,-237.79"/>
<polygon fill="midnightblue" stroke="midnightblue" points="893.99,-287.06 904.24,-284.4 894.56,-280.08 893.99,-287.06"/>
</g>
<!-- Node4 -->
<g id="node4" class="node">
<title>Node4</title>
<g id="a_node4"><a xlink:href="panocpy_8cpp.html" target="_top" xlink:title="This file defines all Python bindings.">
<polygon fill="white" stroke="black" points="869.5,-0.5 869.5,-19.5 946.5,-19.5 946.5,-0.5 869.5,-0.5"/>
<text text-anchor="middle" x="908" y="-7.5" font-family="Helvetica,sans-Serif" font-size="10.00">panocpy.cpp</text>
</a>
</g>
</g>
<!-- Node1&#45;&gt;Node4 -->
<g id="edge42" class="edge">
<title>Node1&#45;&gt;Node4</title>
<path fill="none" stroke="midnightblue" d="M1025.89,-286.3C1149.54,-279.43 1404,-255.95 1404,-179 1404,-179 1404,-179 1404,-121 1404,-27.39 1063.04,-13.39 946.51,-11.34"/>
<polygon fill="midnightblue" stroke="midnightblue" points="1025.58,-282.81 1015.78,-286.84 1025.96,-289.8 1025.58,-282.81"/>
</g>
<!-- Node13 -->
<g id="node13" class="node">
<title>Node13</title>
<g id="a_node13"><a xlink:href="decl_2second-order-panoc_8hpp.html" target="_top" xlink:title=" ">
<polygon fill="white" stroke="black" points="640,-224.5 640,-243.5 774,-243.5 774,-224.5 640,-224.5"/>
<text text-anchor="middle" x="707" y="-231.5" font-family="Helvetica,sans-Serif" font-size="10.00">second&#45;order&#45;panoc.hpp</text>
</a>
</g>
</g>
<!-- Node1&#45;&gt;Node13 -->
<g id="edge17" class="edge">
<title>Node1&#45;&gt;Node13</title>
<path fill="none" stroke="midnightblue" d="M910.08,-278.35C862.27,-268.14 791.05,-252.94 746.9,-243.52"/>
<polygon fill="midnightblue" stroke="midnightblue" points="909.4,-281.78 919.91,-280.44 910.86,-274.93 909.4,-281.78"/>
</g>
<!-- Node16 -->
<g id="node16" class="node">
<title>Node16</title>
<g id="a_node16"><a xlink:href="decl_2structured-panoc-lbfgs_8hpp.html" target="_top" xlink:title=" ">
<polygon fill="white" stroke="black" points="886,-168.5 886,-187.5 1034,-187.5 1034,-168.5 886,-168.5"/>
<text text-anchor="middle" x="960" y="-175.5" font-family="Helvetica,sans-Serif" font-size="10.00">structured&#45;panoc&#45;lbfgs.hpp</text>
</a>
</g>
</g>
<!-- Node1&#45;&gt;Node16 -->
<g id="edge20" class="edge">
<title>Node1&#45;&gt;Node16</title>
<path fill="none" stroke="midnightblue" d="M960,-270.35C960,-246.25 960,-205.31 960,-187.59"/>
<polygon fill="midnightblue" stroke="midnightblue" points="956.5,-270.37 960,-280.37 963.5,-270.37 956.5,-270.37"/>
</g>
<!-- Node19 -->
<g id="node19" class="node">
<title>Node19</title>
<g id="a_node19"><a xlink:href="panoc-helpers_8hpp.html" target="_top" xlink:title=" ">
<polygon fill="white" stroke="black" points="1012.5,-224.5 1012.5,-243.5 1119.5,-243.5 1119.5,-224.5 1012.5,-224.5"/>
<text text-anchor="middle" x="1066" y="-231.5" font-family="Helvetica,sans-Serif" font-size="10.00">panoc&#45;helpers.hpp</text>
</a>
</g>
</g>
<!-- Node1&#45;&gt;Node19 -->
<g id="edge26" class="edge">
<title>Node1&#45;&gt;Node19</title>
<path fill="none" stroke="midnightblue" d="M986.06,-275.73C1005.68,-265.73 1032.03,-252.31 1049.01,-243.65"/>
<polygon fill="midnightblue" stroke="midnightblue" points="984.35,-272.67 977.03,-280.32 987.53,-278.9 984.35,-272.67"/>
</g>
<!-- Node21 -->
<g id="node21" class="node">
<title>Node21</title>
<g id="a_node21"><a xlink:href="guarded-aa-pga_8hpp.html" target="_top" xlink:title=" ">
<polygon fill="white" stroke="black" points="752.5,-168.5 752.5,-187.5 867.5,-187.5 867.5,-168.5 752.5,-168.5"/>
<text text-anchor="middle" x="810" y="-175.5" font-family="Helvetica,sans-Serif" font-size="10.00">guarded&#45;aa&#45;pga.hpp</text>
</a>
</g>
</g>
<!-- Node1&#45;&gt;Node21 -->
<g id="edge40" class="edge">
<title>Node1&#45;&gt;Node21</title>
<path fill="none" stroke="midnightblue" d="M940.11,-274.42C908.39,-251.15 847.3,-206.35 821.72,-187.59"/>
<polygon fill="midnightblue" stroke="midnightblue" points="938.1,-277.28 948.23,-280.37 942.24,-271.63 938.1,-277.28"/>
</g>
<!-- Node23 -->
<g id="node23" class="node">
<title>Node23</title>
<g id="a_node23"><a xlink:href="pga_8hpp.html" target="_top" xlink:title=" ">
<polygon fill="white" stroke="black" points="1282,-168.5 1282,-187.5 1338,-187.5 1338,-168.5 1282,-168.5"/>
<text text-anchor="middle" x="1310" y="-175.5" font-family="Helvetica,sans-Serif" font-size="10.00">pga.hpp</text>
</a>
</g>
</g>
<!-- Node1&#45;&gt;Node23 -->
<g id="edge41" class="edge">
<title>Node1&#45;&gt;Node23</title>
<path fill="none" stroke="midnightblue" d="M1005.4,-277.9C1039.37,-269.35 1086.86,-256.83 1128,-244 1186.29,-225.82 1253.69,-200.63 1287.78,-187.6"/>
<polygon fill="midnightblue" stroke="midnightblue" points="1004.16,-274.61 995.31,-280.43 1005.86,-281.4 1004.16,-274.61"/>
</g>
<!-- Node3 -->
<g id="node3" class="node">
<title>Node3</title>
<g id="a_node3"><a xlink:href="panoc_8hpp.html" target="_top" xlink:title=" ">
<polygon fill="white" stroke="black" points="408.5,-168.5 408.5,-187.5 475.5,-187.5 475.5,-168.5 408.5,-168.5"/>
<text text-anchor="middle" x="442" y="-175.5" font-family="Helvetica,sans-Serif" font-size="10.00">panoc.hpp</text>
</a>
</g>
</g>
<!-- Node2&#45;&gt;Node3 -->
<g id="edge2" class="edge">
<title>Node2&#45;&gt;Node3</title>
<path fill="none" stroke="midnightblue" d="M337.13,-220.64C362.66,-210.5 398.11,-196.43 420.55,-187.52"/>
<polygon fill="midnightblue" stroke="midnightblue" points="335.55,-217.5 327.55,-224.44 338.14,-224.01 335.55,-217.5"/>
</g>
<!-- Node2&#45;&gt;Node4 -->
<g id="edge14" class="edge">
<title>Node2&#45;&gt;Node4</title>
<path fill="none" stroke="midnightblue" d="M285.5,-218.21C263.03,-200.61 228.29,-168.91 214,-132 197.42,-89.18 241.24,-72.75 284,-56 391.45,-13.91 750.47,-10.69 869.38,-10.81"/>
<polygon fill="midnightblue" stroke="midnightblue" points="283.64,-221.2 293.72,-224.46 287.87,-215.62 283.64,-221.2"/>
</g>
<!-- Node10 -->
<g id="node10" class="node">
<title>Node10</title>
<g id="a_node10"><a xlink:href="kwargs-to-struct_8hpp.html" target="_top" xlink:title="This file defines mappings from Python dicts (kwargs) to simple parameter structs.">
<polygon fill="white" stroke="black" points="974,-112.5 974,-131.5 1092,-131.5 1092,-112.5 974,-112.5"/>
<text text-anchor="middle" x="1033" y="-119.5" font-family="Helvetica,sans-Serif" font-size="10.00">kwargs&#45;to&#45;struct.hpp</text>
</a>
</g>
</g>
<!-- Node2&#45;&gt;Node10 -->
<g id="edge12" class="edge">
<title>Node2&#45;&gt;Node10</title>
<path fill="none" stroke="midnightblue" d="M347.57,-221.83C402.79,-207.38 503.55,-182.37 591,-168 727.05,-145.65 888.6,-132.57 973.71,-126.71"/>
<polygon fill="midnightblue" stroke="midnightblue" points="346.58,-218.47 337.8,-224.4 348.36,-225.24 346.58,-218.47"/>
</g>
<!-- Node11 -->
<g id="node11" class="node">
<title>Node11</title>
<g id="a_node11"><a xlink:href="CasADi_2Rosenbrock_2main_8cpp.html" target="_top" xlink:title=" ">
<polygon fill="white" stroke="black" points="0,-168.5 0,-187.5 62,-187.5 62,-168.5 0,-168.5"/>
<text text-anchor="middle" x="31" y="-175.5" font-family="Helvetica,sans-Serif" font-size="10.00">main.cpp</text>
</a>
</g>
</g>
<!-- Node2&#45;&gt;Node11 -->
<g id="edge15" class="edge">
<title>Node2&#45;&gt;Node11</title>
<path fill="none" stroke="midnightblue" d="M262.58,-225.12C215.35,-216.44 137.68,-201.88 71,-188 68.21,-187.42 65.32,-186.8 62.42,-186.17"/>
<polygon fill="midnightblue" stroke="midnightblue" points="262,-228.57 272.46,-226.93 263.26,-221.68 262,-228.57"/>
</g>
<!-- Node12 -->
<g id="node12" class="node">
<title>Node12</title>
<g id="a_node12"><a xlink:href="CUTEst_2Rosenbrock_2main_8cpp.html" target="_top" xlink:title=" ">
<polygon fill="white" stroke="black" points="80,-168.5 80,-187.5 142,-187.5 142,-168.5 80,-168.5"/>
<text text-anchor="middle" x="111" y="-175.5" font-family="Helvetica,sans-Serif" font-size="10.00">main.cpp</text>
</a>
</g>
</g>
<!-- Node2&#45;&gt;Node12 -->
<g id="edge16" class="edge">
<title>Node2&#45;&gt;Node12</title>
<path fill="none" stroke="midnightblue" d="M265.19,-221.7C228.39,-211.51 175.07,-196.74 141.75,-187.52"/>
<polygon fill="midnightblue" stroke="midnightblue" points="264.53,-225.15 275.1,-224.44 266.4,-218.4 264.53,-225.15"/>
</g>
<!-- Node3&#45;&gt;Node4 -->
<g id="edge3" class="edge">
<title>Node3&#45;&gt;Node4</title>
<path fill="none" stroke="midnightblue" d="M398.07,-177.46C322,-176.82 178.35,-168.4 227,-112 311.32,-14.26 738.16,-9.55 869.49,-10.47"/>
<polygon fill="midnightblue" stroke="midnightblue" points="398.31,-180.97 408.32,-177.51 398.34,-173.97 398.31,-180.97"/>
</g>
<!-- Node5 -->
<g id="node5" class="node">
<title>Node5</title>
<g id="a_node5"><a xlink:href="polymorphic-inner-solver_8hpp.html" target="_top" xlink:title=" ">
<polygon fill="white" stroke="black" points="720,-56.5 720,-75.5 880,-75.5 880,-56.5 720,-56.5"/>
<text text-anchor="middle" x="800" y="-63.5" font-family="Helvetica,sans-Serif" font-size="10.00">polymorphic&#45;inner&#45;solver.hpp</text>
</a>
</g>
</g>
<!-- Node3&#45;&gt;Node5 -->
<g id="edge4" class="edge">
<title>Node3&#45;&gt;Node5</title>
<path fill="none" stroke="midnightblue" d="M485.82,-171.7C530.74,-165.42 602.17,-153.05 661,-132 678.97,-125.57 681.83,-120.33 699,-112 726.63,-98.59 759.18,-84.36 779.7,-75.58"/>
<polygon fill="midnightblue" stroke="midnightblue" points="485.25,-168.24 475.82,-173.06 486.2,-175.18 485.25,-168.24"/>
</g>
<!-- Node6 -->
<g id="node6" class="node">
<title>Node6</title>
<g id="a_node6"><a xlink:href="polymorphic-panoc-direction_8hpp.html" target="_top" xlink:title=" ">
<polygon fill="white" stroke="black" points="316,-112.5 316,-131.5 494,-131.5 494,-112.5 316,-112.5"/>
<text text-anchor="middle" x="405" y="-119.5" font-family="Helvetica,sans-Serif" font-size="10.00">polymorphic&#45;panoc&#45;direction.hpp</text>
</a>
</g>
</g>
<!-- Node3&#45;&gt;Node6 -->
<g id="edge6" class="edge">
<title>Node3&#45;&gt;Node6</title>
<path fill="none" stroke="midnightblue" d="M430.05,-159.57C423.69,-150.27 416.13,-139.25 411,-131.75"/>
<polygon fill="midnightblue" stroke="midnightblue" points="427.35,-161.81 435.89,-168.08 433.13,-157.86 427.35,-161.81"/>
</g>
<!-- Node7 -->
<g id="node7" class="node">
<title>Node7</title>
<g id="a_node7"><a xlink:href="alm_8cpp.html" target="_top" xlink:title=" ">
<polygon fill="white" stroke="black" points="512,-112.5 512,-131.5 568,-131.5 568,-112.5 512,-112.5"/>
<text text-anchor="middle" x="540" y="-119.5" font-family="Helvetica,sans-Serif" font-size="10.00">alm.cpp</text>
</a>
</g>
</g>
<!-- Node3&#45;&gt;Node7 -->
<g id="edge9" class="edge">
<title>Node3&#45;&gt;Node7</title>
<path fill="none" stroke="midnightblue" d="M466.59,-163.45C484.68,-153.48 508.73,-140.23 524.29,-131.65"/>
<polygon fill="midnightblue" stroke="midnightblue" points="464.81,-160.43 457.75,-168.32 468.19,-166.56 464.81,-160.43"/>
</g>
<!-- Node8 -->
<g id="node8" class="node">
<title>Node8</title>
<g id="a_node8"><a xlink:href="panoc_8cpp.html" target="_top" xlink:title=" ">
<polygon fill="white" stroke="black" points="586,-112.5 586,-131.5 652,-131.5 652,-112.5 586,-112.5"/>
<text text-anchor="middle" x="619" y="-119.5" font-family="Helvetica,sans-Serif" font-size="10.00">panoc.cpp</text>
</a>
</g>
</g>
<!-- Node3&#45;&gt;Node8 -->
<g id="edge10" class="edge">
<title>Node3&#45;&gt;Node8</title>
<path fill="none" stroke="midnightblue" d="M479.9,-165.44C513.28,-155.26 561.1,-140.66 591.09,-131.52"/>
<polygon fill="midnightblue" stroke="midnightblue" points="478.59,-162.18 470.05,-168.44 480.63,-168.87 478.59,-162.18"/>
</g>
<!-- Node9 -->
<g id="node9" class="node">
<title>Node9</title>
<g id="a_node9"><a xlink:href="Presentation_2Cpp_2main_8cpp.html" target="_top" xlink:title=" ">
<polygon fill="white" stroke="black" points="236,-112.5 236,-131.5 298,-131.5 298,-112.5 236,-112.5"/>
<text text-anchor="middle" x="267" y="-119.5" font-family="Helvetica,sans-Serif" font-size="10.00">main.cpp</text>
</a>
</g>
</g>
<!-- Node3&#45;&gt;Node9 -->
<g id="edge11" class="edge">
<title>Node3&#45;&gt;Node9</title>
<path fill="none" stroke="midnightblue" d="M404.53,-165.44C371.53,-155.26 324.24,-140.66 294.6,-131.52"/>
<polygon fill="midnightblue" stroke="midnightblue" points="403.68,-168.84 414.27,-168.44 405.75,-162.15 403.68,-168.84"/>
</g>
<!-- Node5&#45;&gt;Node4 -->
<g id="edge5" class="edge">
<title>Node5&#45;&gt;Node4</title>
<path fill="none" stroke="midnightblue" d="M826.55,-51.73C846.55,-41.73 873.39,-28.31 890.69,-19.65"/>
<polygon fill="midnightblue" stroke="midnightblue" points="824.73,-48.72 817.35,-56.32 827.86,-54.98 824.73,-48.72"/>
</g>
<!-- Node6&#45;&gt;Node4 -->
<g id="edge7" class="edge">
<title>Node6&#45;&gt;Node4</title>
<path fill="none" stroke="midnightblue" d="M453.87,-110.31C553.63,-88.5 778.86,-39.24 869.32,-19.46"/>
<polygon fill="midnightblue" stroke="midnightblue" points="453.07,-106.9 444.05,-112.46 454.57,-113.74 453.07,-106.9"/>
</g>
<!-- Node6&#45;&gt;Node5 -->
<g id="edge8" class="edge">
<title>Node6&#45;&gt;Node5</title>
<path fill="none" stroke="midnightblue" d="M477.84,-111.04C552.44,-100.84 667.19,-85.16 737.7,-75.52"/>
<polygon fill="midnightblue" stroke="midnightblue" points="477.02,-107.62 467.59,-112.44 477.97,-114.56 477.02,-107.62"/>
</g>
<!-- Node10&#45;&gt;Node4 -->
<g id="edge13" class="edge">
<title>Node10&#45;&gt;Node4</title>
<path fill="none" stroke="midnightblue" d="M1015.4,-105.51C988.69,-82.01 938.81,-38.11 917.76,-19.59"/>
<polygon fill="midnightblue" stroke="midnightblue" points="1013.37,-108.39 1023.19,-112.37 1018,-103.13 1013.37,-108.39"/>
</g>
<!-- Node14 -->
<g id="node14" class="node">
<title>Node14</title>
<g id="a_node14"><a xlink:href="second-order-panoc_8hpp.html" target="_top" xlink:title=" ">
<polygon fill="white" stroke="black" points="600,-168.5 600,-187.5 734,-187.5 734,-168.5 600,-168.5"/>
<text text-anchor="middle" x="667" y="-175.5" font-family="Helvetica,sans-Serif" font-size="10.00">second&#45;order&#45;panoc.hpp</text>
</a>
</g>
</g>
<!-- Node13&#45;&gt;Node14 -->
<g id="edge18" class="edge">
<title>Node13&#45;&gt;Node14</title>
<path fill="none" stroke="midnightblue" d="M694.3,-215.86C687.37,-206.5 679.09,-195.33 673.48,-187.75"/>
<polygon fill="midnightblue" stroke="midnightblue" points="691.63,-218.13 700.39,-224.08 697.25,-213.96 691.63,-218.13"/>
</g>
<!-- Node15 -->
<g id="node15" class="node">
<title>Node15</title>
<g id="a_node15"><a xlink:href="second-order-panoc_8cpp.html" target="_top" xlink:title=" ">
<polygon fill="white" stroke="black" points="708,-112.5 708,-131.5 842,-131.5 842,-112.5 708,-112.5"/>
<text text-anchor="middle" x="775" y="-119.5" font-family="Helvetica,sans-Serif" font-size="10.00">second&#45;order&#45;panoc.cpp</text>
</a>
</g>
</g>
<!-- Node14&#45;&gt;Node15 -->
<g id="edge19" class="edge">
<title>Node14&#45;&gt;Node15</title>
<path fill="none" stroke="midnightblue" d="M693.55,-163.73C713.55,-153.73 740.39,-140.31 757.69,-131.65"/>
<polygon fill="midnightblue" stroke="midnightblue" points="691.73,-160.72 684.35,-168.32 694.86,-166.98 691.73,-160.72"/>
</g>
<!-- Node16&#45;&gt;Node5 -->
<g id="edge25" class="edge">
<title>Node16&#45;&gt;Node5</title>
<path fill="none" stroke="midnightblue" d="M939.33,-162.39C920.53,-149.14 892,-129.13 867,-112 848.27,-99.17 826.42,-84.56 812.89,-75.56"/>
<polygon fill="midnightblue" stroke="midnightblue" points="937.53,-165.4 947.71,-168.31 941.56,-159.68 937.53,-165.4"/>
</g>
<!-- Node16&#45;&gt;Node10 -->
<g id="edge24" class="edge">
<title>Node16&#45;&gt;Node10</title>
<path fill="none" stroke="midnightblue" d="M980.14,-162.1C993.28,-152.38 1009.98,-140.03 1021.06,-131.83"/>
<polygon fill="midnightblue" stroke="midnightblue" points="977.69,-159.56 971.73,-168.32 981.85,-165.19 977.69,-159.56"/>
</g>
<!-- Node17 -->
<g id="node17" class="node">
<title>Node17</title>
<g id="a_node17"><a xlink:href="structured-panoc-lbfgs_8hpp.html" target="_top" xlink:title=" ">
<polygon fill="white" stroke="black" points="1148,-112.5 1148,-131.5 1296,-131.5 1296,-112.5 1148,-112.5"/>
<text text-anchor="middle" x="1222" y="-119.5" font-family="Helvetica,sans-Serif" font-size="10.00">structured&#45;panoc&#45;lbfgs.hpp</text>
</a>
</g>
</g>
<!-- Node16&#45;&gt;Node17 -->
<g id="edge21" class="edge">
<title>Node16&#45;&gt;Node17</title>
<path fill="none" stroke="midnightblue" d="M1011.38,-166.41C1060.9,-156.2 1134.86,-140.96 1180.68,-131.52"/>
<polygon fill="midnightblue" stroke="midnightblue" points="1010.6,-163 1001.51,-168.44 1012.02,-169.85 1010.6,-163"/>
</g>
<!-- Node17&#45;&gt;Node4 -->
<g id="edge22" class="edge">
<title>Node17&#45;&gt;Node4</title>
<path fill="none" stroke="midnightblue" d="M1188.04,-109.1C1124.34,-86.79 988.3,-39.13 932.58,-19.61"/>
<polygon fill="midnightblue" stroke="midnightblue" points="1187.03,-112.46 1197.62,-112.46 1189.34,-105.85 1187.03,-112.46"/>
</g>
<!-- Node18 -->
<g id="node18" class="node">
<title>Node18</title>
<g id="a_node18"><a xlink:href="structured-panoc-lbfgs_8cpp.html" target="_top" xlink:title=" ">
<polygon fill="white" stroke="black" points="1148.5,-56.5 1148.5,-75.5 1295.5,-75.5 1295.5,-56.5 1148.5,-56.5"/>
<text text-anchor="middle" x="1222" y="-63.5" font-family="Helvetica,sans-Serif" font-size="10.00">structured&#45;panoc&#45;lbfgs.cpp</text>
</a>
</g>
</g>
<!-- Node17&#45;&gt;Node18 -->
<g id="edge23" class="edge">
<title>Node17&#45;&gt;Node18</title>
<path fill="none" stroke="midnightblue" d="M1222,-101.8C1222,-92.91 1222,-82.78 1222,-75.75"/>
<polygon fill="midnightblue" stroke="midnightblue" points="1218.5,-102.08 1222,-112.08 1225.5,-102.08 1218.5,-102.08"/>
</g>
<!-- Node19&#45;&gt;Node3 -->
<g id="edge33" class="edge">
<title>Node19&#45;&gt;Node3</title>
<path fill="none" stroke="midnightblue" d="M1001.97,-227.46C870.77,-216.11 575.39,-190.54 475.64,-181.91"/>
<polygon fill="midnightblue" stroke="midnightblue" points="1001.99,-230.97 1012.26,-228.35 1002.6,-224 1001.99,-230.97"/>
</g>
<!-- Node19&#45;&gt;Node14 -->
<g id="edge38" class="edge">
<title>Node19&#45;&gt;Node14</title>
<path fill="none" stroke="midnightblue" d="M1001.97,-224.33C927.25,-214.22 804.47,-197.6 730.13,-187.54"/>
<polygon fill="midnightblue" stroke="midnightblue" points="1001.81,-227.84 1012.19,-225.72 1002.75,-220.91 1001.81,-227.84"/>
</g>
<!-- Node19&#45;&gt;Node17 -->
<g id="edge39" class="edge">
<title>Node19&#45;&gt;Node17</title>
<path fill="none" stroke="midnightblue" d="M1129.98,-232.02C1204.13,-229.37 1319.68,-220.05 1347,-188 1371.92,-158.78 1319.26,-140.95 1274.8,-131.53"/>
<polygon fill="midnightblue" stroke="midnightblue" points="1129.68,-228.53 1119.8,-232.35 1129.91,-235.52 1129.68,-228.53"/>
</g>
<!-- Node20 -->
<g id="node20" class="node">
<title>Node20</title>
<g id="a_node20"><a xlink:href="specialized-lbfgs_8hpp.html" target="_top" xlink:title=" ">
<polygon fill="white" stroke="black" points="1144,-168.5 1144,-187.5 1264,-187.5 1264,-168.5 1144,-168.5"/>
<text text-anchor="middle" x="1204" y="-175.5" font-family="Helvetica,sans-Serif" font-size="10.00">specialized&#45;lbfgs.hpp</text>
</a>
</g>
</g>
<!-- Node19&#45;&gt;Node20 -->
<g id="edge27" class="edge">
<title>Node19&#45;&gt;Node20</title>
<path fill="none" stroke="midnightblue" d="M1097.25,-220.77C1123.17,-210.63 1159.36,-196.47 1182.24,-187.52"/>
<polygon fill="midnightblue" stroke="midnightblue" points="1095.9,-217.54 1087.87,-224.44 1098.45,-224.06 1095.9,-217.54"/>
</g>
<!-- Node19&#45;&gt;Node21 -->
<g id="edge28" class="edge">
<title>Node19&#45;&gt;Node21</title>
<path fill="none" stroke="midnightblue" d="M1015.49,-222.35C967.11,-212.14 895.05,-196.94 850.37,-187.52"/>
<polygon fill="midnightblue" stroke="midnightblue" points="1014.93,-225.8 1025.44,-224.44 1016.37,-218.95 1014.93,-225.8"/>
</g>
<!-- Node22 -->
<g id="node22" class="node">
<title>Node22</title>
<g id="a_node22"><a xlink:href="lbfgspp_8hpp.html" target="_top" xlink:title=" ">
<polygon fill="white" stroke="black" points="1052,-168.5 1052,-187.5 1126,-187.5 1126,-168.5 1052,-168.5"/>
<text text-anchor="middle" x="1089" y="-175.5" font-family="Helvetica,sans-Serif" font-size="10.00">lbfgspp.hpp</text>
</a>
</g>
</g>
<!-- Node19&#45;&gt;Node22 -->
<g id="edge32" class="edge">
<title>Node19&#45;&gt;Node22</title>
<path fill="none" stroke="midnightblue" d="M1073.8,-214.69C1077.68,-205.59 1082.18,-195.01 1085.27,-187.75"/>
<polygon fill="midnightblue" stroke="midnightblue" points="1070.5,-213.51 1069.8,-224.08 1076.94,-216.25 1070.5,-213.51"/>
</g>
<!-- Node19&#45;&gt;Node23 -->
<g id="edge34" class="edge">
<title>Node19&#45;&gt;Node23</title>
<path fill="none" stroke="midnightblue" d="M1116.49,-222.38C1158.45,-213.48 1219.69,-200.28 1273,-188 1275.83,-187.35 1278.79,-186.65 1281.74,-185.95"/>
<polygon fill="midnightblue" stroke="midnightblue" points="1115.58,-219 1106.52,-224.5 1117.03,-225.85 1115.58,-219"/>
</g>
<!-- Node21&#45;&gt;Node4 -->
<g id="edge30" class="edge">
<title>Node21&#45;&gt;Node4</title>
<path fill="none" stroke="midnightblue" d="M833.55,-162.67C844.91,-154.79 857.99,-144.14 867,-132 893.83,-95.84 903.89,-40.94 906.91,-19.76"/>
<polygon fill="midnightblue" stroke="midnightblue" points="831.33,-159.94 824.92,-168.37 835.2,-165.78 831.33,-159.94"/>
</g>
<!-- Node21&#45;&gt;Node5 -->
<g id="edge31" class="edge">
<title>Node21&#45;&gt;Node5</title>
<path fill="none" stroke="midnightblue" d="M830.08,-161.66C844.16,-148.9 859.12,-129.99 851,-112 843.81,-96.07 827.89,-83.52 815.73,-75.76"/>
<polygon fill="midnightblue" stroke="midnightblue" points="827.47,-159.28 822.08,-168.4 831.98,-164.63 827.47,-159.28"/>
</g>
<!-- Node21&#45;&gt;Node10 -->
<g id="edge29" class="edge">
<title>Node21&#45;&gt;Node10</title>
<path fill="none" stroke="midnightblue" d="M855.06,-166.09C897.19,-155.89 959.24,-140.86 997.83,-131.52"/>
<polygon fill="midnightblue" stroke="midnightblue" points="854.23,-162.69 845.34,-168.44 855.88,-169.49 854.23,-162.69"/>
</g>
<!-- Node23&#45;&gt;Node4 -->
<g id="edge36" class="edge">
<title>Node23&#45;&gt;Node4</title>
<path fill="none" stroke="midnightblue" d="M1315.83,-158.39C1322.84,-131.93 1330.7,-83.6 1305,-56 1280.84,-30.04 1041.94,-16.84 946.8,-12.58"/>
<polygon fill="midnightblue" stroke="midnightblue" points="1312.39,-157.68 1312.98,-168.26 1319.12,-159.63 1312.39,-157.68"/>
</g>
<!-- Node23&#45;&gt;Node5 -->
<g id="edge37" class="edge">
<title>Node23&#45;&gt;Node5</title>
<path fill="none" stroke="midnightblue" d="M1272.24,-167.55C1225.76,-155.84 1151.43,-136.83 1139,-132 1121.21,-125.08 1119.14,-117.94 1101,-112 1028.44,-88.24 941.89,-76.97 880.27,-71.65"/>
<polygon fill="midnightblue" stroke="midnightblue" points="1271.43,-170.95 1281.98,-170 1273.14,-164.16 1271.43,-170.95"/>
</g>
<!-- Node23&#45;&gt;Node10 -->
<g id="edge35" class="edge">
<title>Node23&#45;&gt;Node10</title>
<path fill="none" stroke="midnightblue" d="M1271.74,-167.82C1200.74,-152.68 1129.26,-139.69 1082.8,-131.54"/>
<polygon fill="midnightblue" stroke="midnightblue" points="1271.24,-171.29 1281.75,-169.97 1272.71,-164.44 1271.24,-171.29"/>
</g>
</g>
</svg>
