<?xml version="1.0" encoding="UTF-8" standalone="no"?>
<!DOCTYPE svg PUBLIC "-//W3C//DTD SVG 1.1//EN"
 "http://www.w3.org/Graphics/SVG/1.1/DTD/svg11.dtd">
<!-- Generated by graphviz version 2.43.0 (0)
 -->
<!-- Title: panoc&#45;helpers.hpp Pages: 1 -->
<svg width="688pt" height="263pt"
 viewBox="0.00 0.00 688.00 263.00" xmlns="http://www.w3.org/2000/svg" xmlns:xlink="http://www.w3.org/1999/xlink">
<g id="graph0" class="graph" transform="scale(1 1) rotate(0) translate(4 259)">
<title>panoc&#45;helpers.hpp</title>
<polygon fill="white" stroke="transparent" points="-4,4 -4,-259 684,-259 684,4 -4,4"/>
<!-- Node1 -->
<g id="node1" class="node">
<title>Node1</title>
<g id="a_node1"><a xlink:title=" ">
<polygon fill="#bfbfbf" stroke="black" points="184,-235.5 184,-254.5 291,-254.5 291,-235.5 184,-235.5"/>
<text text-anchor="middle" x="237.5" y="-242.5" font-family="Helvetica,sans-Serif" font-size="10.00">panoc&#45;helpers.hpp</text>
</a>
</g>
</g>
<!-- Node2 -->
<g id="node2" class="node">
<title>Node2</title>
<g id="a_node2"><a xlink:href="panoc-stop-crit_8hpp.html" target="_top" xlink:title=" ">
<polygon fill="white" stroke="black" points="0,-168.5 0,-198.5 119,-198.5 119,-168.5 0,-168.5"/>
<text text-anchor="start" x="8" y="-186.5" font-family="Helvetica,sans-Serif" font-size="10.00">panoc&#45;alm/inner/decl</text>
<text text-anchor="middle" x="59.5" y="-175.5" font-family="Helvetica,sans-Serif" font-size="10.00">/panoc&#45;stop&#45;crit.hpp</text>
</a>
</g>
</g>
<!-- Node1&#45;&gt;Node2 -->
<g id="edge1" class="edge">
<title>Node1&#45;&gt;Node2</title>
<path fill="none" stroke="midnightblue" d="M212,-235.48C185.75,-226.7 144.13,-212.79 110.99,-201.71"/>
<polygon fill="midnightblue" stroke="midnightblue" points="112.04,-198.37 101.45,-198.52 109.83,-205.01 112.04,-198.37"/>
</g>
<!-- Node4 -->
<g id="node4" class="node">
<title>Node4</title>
<g id="a_node4"><a xlink:title=" ">
<polygon fill="white" stroke="#bfbfbf" points="110,-112.5 110,-131.5 175,-131.5 175,-112.5 110,-112.5"/>
<text text-anchor="middle" x="142.5" y="-119.5" font-family="Helvetica,sans-Serif" font-size="10.00">stdexcept</text>
</a>
</g>
</g>
<!-- Node1&#45;&gt;Node4 -->
<g id="edge15" class="edge">
<title>Node1&#45;&gt;Node4</title>
<path fill="none" stroke="midnightblue" d="M216.31,-235.41C200.47,-227.98 179.41,-215.77 166.5,-199 153.61,-182.25 147.56,-158.43 144.77,-141.94"/>
<polygon fill="midnightblue" stroke="midnightblue" points="148.21,-141.27 143.32,-131.87 141.28,-142.27 148.21,-141.27"/>
</g>
<!-- Node5 -->
<g id="node5" class="node">
<title>Node5</title>
<g id="a_node5"><a xlink:href="atomic__stop__signal_8hpp.html" target="_top" xlink:title=" ">
<polygon fill="white" stroke="black" points="175.5,-168.5 175.5,-198.5 299.5,-198.5 299.5,-168.5 175.5,-168.5"/>
<text text-anchor="start" x="183.5" y="-186.5" font-family="Helvetica,sans-Serif" font-size="10.00">panoc&#45;alm/util/atomic</text>
<text text-anchor="middle" x="237.5" y="-175.5" font-family="Helvetica,sans-Serif" font-size="10.00">_stop_signal.hpp</text>
</a>
</g>
</g>
<!-- Node1&#45;&gt;Node5 -->
<g id="edge4" class="edge">
<title>Node1&#45;&gt;Node5</title>
<path fill="none" stroke="midnightblue" d="M237.5,-235.48C237.5,-228.47 237.5,-218.19 237.5,-208.7"/>
<polygon fill="midnightblue" stroke="midnightblue" points="241,-208.52 237.5,-198.52 234,-208.52 241,-208.52"/>
</g>
<!-- Node7 -->
<g id="node7" class="node">
<title>Node7</title>
<g id="a_node7"><a xlink:href="include_2panoc-alm_2util_2problem_8hpp.html" target="_top" xlink:title=" ">
<polygon fill="white" stroke="black" points="317.5,-174 317.5,-193 469.5,-193 469.5,-174 317.5,-174"/>
<text text-anchor="middle" x="393.5" y="-181" font-family="Helvetica,sans-Serif" font-size="10.00">panoc&#45;alm/util/problem.hpp</text>
</a>
</g>
</g>
<!-- Node1&#45;&gt;Node7 -->
<g id="edge6" class="edge">
<title>Node1&#45;&gt;Node7</title>
<path fill="none" stroke="midnightblue" d="M259.85,-235.48C286.49,-225.31 331.21,-208.26 361.51,-196.7"/>
<polygon fill="midnightblue" stroke="midnightblue" points="363.09,-199.84 371.19,-193.01 360.6,-193.3 363.09,-199.84"/>
</g>
<!-- Node14 -->
<g id="node14" class="node">
<title>Node14</title>
<g id="a_node14"><a xlink:href="solverstatus_8hpp.html" target="_top" xlink:title=" ">
<polygon fill="white" stroke="black" points="509,-174 509,-193 680,-193 680,-174 509,-174"/>
<text text-anchor="middle" x="594.5" y="-181" font-family="Helvetica,sans-Serif" font-size="10.00">panoc&#45;alm/util/solverstatus.hpp</text>
</a>
</g>
</g>
<!-- Node1&#45;&gt;Node14 -->
<g id="edge13" class="edge">
<title>Node1&#45;&gt;Node14</title>
<path fill="none" stroke="midnightblue" d="M288.65,-235.48C353.33,-224.69 464.57,-206.15 533.58,-194.65"/>
<polygon fill="midnightblue" stroke="midnightblue" points="534.16,-198.11 543.45,-193.01 533.01,-191.2 534.16,-198.11"/>
</g>
<!-- Node3 -->
<g id="node3" class="node">
<title>Node3</title>
<g id="a_node3"><a xlink:title=" ">
<polygon fill="white" stroke="#bfbfbf" points="31,-112.5 31,-131.5 88,-131.5 88,-112.5 31,-112.5"/>
<text text-anchor="middle" x="59.5" y="-119.5" font-family="Helvetica,sans-Serif" font-size="10.00">ostream</text>
</a>
</g>
</g>
<!-- Node2&#45;&gt;Node3 -->
<g id="edge2" class="edge">
<title>Node2&#45;&gt;Node3</title>
<path fill="none" stroke="midnightblue" d="M59.5,-168.4C59.5,-160.47 59.5,-150.46 59.5,-141.86"/>
<polygon fill="midnightblue" stroke="midnightblue" points="63,-141.66 59.5,-131.66 56,-141.66 63,-141.66"/>
</g>
<!-- Node2&#45;&gt;Node4 -->
<g id="edge3" class="edge">
<title>Node2&#45;&gt;Node4</title>
<path fill="none" stroke="midnightblue" d="M79.17,-168.4C92.1,-159.13 108.99,-147.03 122.07,-137.65"/>
<polygon fill="midnightblue" stroke="midnightblue" points="124.33,-140.33 130.42,-131.66 120.26,-134.64 124.33,-140.33"/>
</g>
<!-- Node6 -->
<g id="node6" class="node">
<title>Node6</title>
<g id="a_node6"><a xlink:title=" ">
<polygon fill="white" stroke="#bfbfbf" points="202.5,-112.5 202.5,-131.5 252.5,-131.5 252.5,-112.5 202.5,-112.5"/>
<text text-anchor="middle" x="227.5" y="-119.5" font-family="Helvetica,sans-Serif" font-size="10.00">atomic</text>
</a>
</g>
</g>
<!-- Node5&#45;&gt;Node6 -->
<g id="edge5" class="edge">
<title>Node5&#45;&gt;Node6</title>
<path fill="none" stroke="midnightblue" d="M235.13,-168.4C233.78,-160.38 232.08,-150.23 230.62,-141.57"/>
<polygon fill="midnightblue" stroke="midnightblue" points="234.06,-140.94 228.96,-131.66 227.16,-142.1 234.06,-140.94"/>
</g>
<!-- Node8 -->
<g id="node8" class="node">
<title>Node8</title>
<g id="a_node8"><a xlink:href="box_8hpp.html" target="_top" xlink:title=" ">
<polygon fill="white" stroke="black" points="270.5,-112.5 270.5,-131.5 326.5,-131.5 326.5,-112.5 270.5,-112.5"/>
<text text-anchor="middle" x="298.5" y="-119.5" font-family="Helvetica,sans-Serif" font-size="10.00">box.hpp</text>
</a>
</g>
</g>
<!-- Node7&#45;&gt;Node8 -->
<g id="edge7" class="edge">
<title>Node7&#45;&gt;Node8</title>
<path fill="none" stroke="midnightblue" d="M379.89,-173.98C364.44,-164.3 339.01,-148.37 320.68,-136.89"/>
<polygon fill="midnightblue" stroke="midnightblue" points="322.42,-133.85 312.09,-131.51 318.7,-139.78 322.42,-133.85"/>
</g>
<!-- Node11 -->
<g id="node11" class="node">
<title>Node11</title>
<g id="a_node11"><a xlink:title=" ">
<polygon fill="white" stroke="#bfbfbf" points="345,-112.5 345,-131.5 410,-131.5 410,-112.5 345,-112.5"/>
<text text-anchor="middle" x="377.5" y="-119.5" font-family="Helvetica,sans-Serif" font-size="10.00">functional</text>
</a>
</g>
</g>
<!-- Node7&#45;&gt;Node11 -->
<g id="edge10" class="edge">
<title>Node7&#45;&gt;Node11</title>
<path fill="none" stroke="midnightblue" d="M391.21,-173.98C388.93,-165.49 385.35,-152.2 382.43,-141.32"/>
<polygon fill="midnightblue" stroke="midnightblue" points="385.76,-140.26 379.79,-131.51 379.01,-142.07 385.76,-140.26"/>
</g>
<!-- Node12 -->
<g id="node12" class="node">
<title>Node12</title>
<g id="a_node12"><a xlink:title=" ">
<polygon fill="white" stroke="#bfbfbf" points="428.5,-112.5 428.5,-131.5 486.5,-131.5 486.5,-112.5 428.5,-112.5"/>
<text text-anchor="middle" x="457.5" y="-119.5" font-family="Helvetica,sans-Serif" font-size="10.00">memory</text>
</a>
</g>
</g>
<!-- Node7&#45;&gt;Node12 -->
<g id="edge11" class="edge">
<title>Node7&#45;&gt;Node12</title>
<path fill="none" stroke="midnightblue" d="M402.67,-173.98C412.65,-164.7 428.81,-149.67 441.01,-138.33"/>
<polygon fill="midnightblue" stroke="midnightblue" points="443.41,-140.88 448.35,-131.51 438.64,-135.75 443.41,-140.88"/>
</g>
<!-- Node13 -->
<g id="node13" class="node">
<title>Node13</title>
<g id="a_node13"><a xlink:title=" ">
<polygon fill="white" stroke="#bfbfbf" points="505,-112.5 505,-131.5 574,-131.5 574,-112.5 505,-112.5"/>
<text text-anchor="middle" x="539.5" y="-119.5" font-family="Helvetica,sans-Serif" font-size="10.00">type_traits</text>
</a>
</g>
</g>
<!-- Node7&#45;&gt;Node13 -->
<g id="edge12" class="edge">
<title>Node7&#45;&gt;Node13</title>
<path fill="none" stroke="midnightblue" d="M414.42,-173.98C439.25,-163.86 480.84,-146.9 509.19,-135.35"/>
<polygon fill="midnightblue" stroke="midnightblue" points="510.68,-138.52 518.62,-131.51 508.04,-132.04 510.68,-138.52"/>
</g>
<!-- Node9 -->
<g id="node9" class="node">
<title>Node9</title>
<g id="a_node9"><a xlink:href="vec_8hpp.html" target="_top" xlink:title=" ">
<polygon fill="white" stroke="black" points="271,-56.5 271,-75.5 326,-75.5 326,-56.5 271,-56.5"/>
<text text-anchor="middle" x="298.5" y="-63.5" font-family="Helvetica,sans-Serif" font-size="10.00">vec.hpp</text>
</a>
</g>
</g>
<!-- Node8&#45;&gt;Node9 -->
<g id="edge8" class="edge">
<title>Node8&#45;&gt;Node9</title>
<path fill="none" stroke="midnightblue" d="M298.5,-112.08C298.5,-105.01 298.5,-94.86 298.5,-85.99"/>
<polygon fill="midnightblue" stroke="midnightblue" points="302,-85.75 298.5,-75.75 295,-85.75 302,-85.75"/>
</g>
<!-- Node10 -->
<g id="node10" class="node">
<title>Node10</title>
<g id="a_node10"><a xlink:title=" ">
<polygon fill="white" stroke="#bfbfbf" points="264,-0.5 264,-19.5 333,-19.5 333,-0.5 264,-0.5"/>
<text text-anchor="middle" x="298.5" y="-7.5" font-family="Helvetica,sans-Serif" font-size="10.00">Eigen/Core</text>
</a>
</g>
</g>
<!-- Node9&#45;&gt;Node10 -->
<g id="edge9" class="edge">
<title>Node9&#45;&gt;Node10</title>
<path fill="none" stroke="midnightblue" d="M298.5,-56.08C298.5,-49.01 298.5,-38.86 298.5,-29.99"/>
<polygon fill="midnightblue" stroke="midnightblue" points="302,-29.75 298.5,-19.75 295,-29.75 302,-29.75"/>
</g>
<!-- Node15 -->
<g id="node15" class="node">
<title>Node15</title>
<g id="a_node15"><a xlink:title=" ">
<polygon fill="white" stroke="#bfbfbf" points="592.5,-112.5 592.5,-131.5 640.5,-131.5 640.5,-112.5 592.5,-112.5"/>
<text text-anchor="middle" x="616.5" y="-119.5" font-family="Helvetica,sans-Serif" font-size="10.00">iosfwd</text>
</a>
</g>
</g>
<!-- Node14&#45;&gt;Node15 -->
<g id="edge14" class="edge">
<title>Node14&#45;&gt;Node15</title>
<path fill="none" stroke="midnightblue" d="M597.65,-173.98C600.82,-165.4 605.8,-151.93 609.85,-140.98"/>
<polygon fill="midnightblue" stroke="midnightblue" points="613.17,-142.1 613.35,-131.51 606.6,-139.67 613.17,-142.1"/>
</g>
</g>
</svg>
