<?xml version="1.0" encoding="UTF-8" standalone="no"?>
<!DOCTYPE svg PUBLIC "-//W3C//DTD SVG 1.1//EN"
 "http://www.w3.org/Graphics/SVG/1.1/DTD/svg11.dtd">
<!-- Generated by graphviz version 2.43.0 (0)
 -->
<!-- Title: panoc&#45;fwd.hpp Pages: 1 -->
<svg width="991pt" height="308pt"
 viewBox="0.00 0.00 991.23 308.00" xmlns="http://www.w3.org/2000/svg" xmlns:xlink="http://www.w3.org/1999/xlink">
<g id="graph0" class="graph" transform="scale(1 1) rotate(0) translate(4 304)">
<title>panoc&#45;fwd.hpp</title>
<polygon fill="white" stroke="transparent" points="-4,4 -4,-304 987.23,-304 987.23,4 -4,4"/>
<!-- Node1 -->
<g id="node1" class="node">
<title>Node1</title>
<g id="a_node1"><a xlink:title=" ">
<polygon fill="#bfbfbf" stroke="black" points="436.23,-280.5 436.23,-299.5 524.23,-299.5 524.23,-280.5 436.23,-280.5"/>
<text text-anchor="middle" x="480.23" y="-287.5" font-family="Helvetica,sans-Serif" font-size="10.00">panoc&#45;fwd.hpp</text>
</a>
</g>
</g>
<!-- Node2 -->
<g id="node2" class="node">
<title>Node2</title>
<g id="a_node2"><a xlink:href="decl_2alm_8hpp.html" target="_top" xlink:title=" ">
<polygon fill="white" stroke="black" points="216.23,-224.5 216.23,-243.5 272.23,-243.5 272.23,-224.5 216.23,-224.5"/>
<text text-anchor="middle" x="244.23" y="-231.5" font-family="Helvetica,sans-Serif" font-size="10.00">alm.hpp</text>
</a>
</g>
</g>
<!-- Node1&#45;&gt;Node2 -->
<g id="edge1" class="edge">
<title>Node1&#45;&gt;Node2</title>
<path fill="none" stroke="midnightblue" d="M432.99,-278.19C385.01,-267.21 312.28,-250.57 272.56,-241.48"/>
<polygon fill="midnightblue" stroke="midnightblue" points="432.31,-281.62 442.83,-280.44 433.87,-274.8 432.31,-281.62"/>
</g>
<!-- Node12 -->
<g id="node12" class="node">
<title>Node12</title>
<g id="a_node12"><a xlink:href="decl_2panoc_8hpp.html" target="_top" xlink:title=" ">
<polygon fill="white" stroke="black" points="383.73,-224.5 383.73,-243.5 450.73,-243.5 450.73,-224.5 383.73,-224.5"/>
<text text-anchor="middle" x="417.23" y="-231.5" font-family="Helvetica,sans-Serif" font-size="10.00">panoc.hpp</text>
</a>
</g>
</g>
<!-- Node1&#45;&gt;Node12 -->
<g id="edge13" class="edge">
<title>Node1&#45;&gt;Node12</title>
<path fill="none" stroke="midnightblue" d="M462.19,-273.54C450.96,-263.91 436.91,-251.87 427.54,-243.83"/>
<polygon fill="midnightblue" stroke="midnightblue" points="460.24,-276.47 470.11,-280.32 464.79,-271.16 460.24,-276.47"/>
</g>
<!-- Node16 -->
<g id="node16" class="node">
<title>Node16</title>
<g id="a_node16"><a xlink:href="decl_2second-order-panoc_8hpp.html" target="_top" xlink:title=" ">
<polygon fill="white" stroke="black" points="760.23,-224.5 760.23,-243.5 894.23,-243.5 894.23,-224.5 760.23,-224.5"/>
<text text-anchor="middle" x="827.23" y="-231.5" font-family="Helvetica,sans-Serif" font-size="10.00">second&#45;order&#45;panoc.hpp</text>
</a>
</g>
</g>
<!-- Node1&#45;&gt;Node16 -->
<g id="edge27" class="edge">
<title>Node1&#45;&gt;Node16</title>
<path fill="none" stroke="midnightblue" d="M534.56,-280.55C599.41,-270.45 707.24,-253.67 772.34,-243.54"/>
<polygon fill="midnightblue" stroke="midnightblue" points="533.87,-277.11 524.53,-282.11 534.95,-284.03 533.87,-277.11"/>
</g>
<!-- Node19 -->
<g id="node19" class="node">
<title>Node19</title>
<g id="a_node19"><a xlink:href="decl_2structured-panoc-lbfgs_8hpp.html" target="_top" xlink:title=" ">
<polygon fill="white" stroke="black" points="518.23,-224.5 518.23,-243.5 666.23,-243.5 666.23,-224.5 518.23,-224.5"/>
<text text-anchor="middle" x="592.23" y="-231.5" font-family="Helvetica,sans-Serif" font-size="10.00">structured&#45;panoc&#45;lbfgs.hpp</text>
</a>
</g>
</g>
<!-- Node1&#45;&gt;Node19 -->
<g id="edge30" class="edge">
<title>Node1&#45;&gt;Node19</title>
<path fill="none" stroke="midnightblue" d="M507.48,-275.86C528.25,-265.85 556.25,-252.35 574.28,-243.65"/>
<polygon fill="midnightblue" stroke="midnightblue" points="505.71,-272.83 498.22,-280.32 508.75,-279.13 505.71,-272.83"/>
</g>
<!-- Node3 -->
<g id="node3" class="node">
<title>Node3</title>
<g id="a_node3"><a xlink:href="alm-helpers_8hpp.html" target="_top" xlink:title=" ">
<polygon fill="white" stroke="black" points="59.23,-168.5 59.23,-187.5 155.23,-187.5 155.23,-168.5 59.23,-168.5"/>
<text text-anchor="middle" x="107.23" y="-175.5" font-family="Helvetica,sans-Serif" font-size="10.00">alm&#45;helpers.hpp</text>
</a>
</g>
</g>
<!-- Node2&#45;&gt;Node3 -->
<g id="edge2" class="edge">
<title>Node2&#45;&gt;Node3</title>
<path fill="none" stroke="midnightblue" d="M213.21,-220.77C187.47,-210.63 151.54,-196.47 128.84,-187.52"/>
<polygon fill="midnightblue" stroke="midnightblue" points="211.93,-224.03 222.52,-224.44 214.5,-217.52 211.93,-224.03"/>
</g>
<!-- Node6 -->
<g id="node6" class="node">
<title>Node6</title>
<g id="a_node6"><a xlink:href="panocpy_8cpp.html" target="_top" xlink:title="This file defines all Python bindings.">
<polygon fill="white" stroke="black" points="394.73,-0.5 394.73,-19.5 471.73,-19.5 471.73,-0.5 394.73,-0.5"/>
<text text-anchor="middle" x="433.23" y="-7.5" font-family="Helvetica,sans-Serif" font-size="10.00">panocpy.cpp</text>
</a>
</g>
</g>
<!-- Node2&#45;&gt;Node6 -->
<g id="edge10" class="edge">
<title>Node2&#45;&gt;Node6</title>
<path fill="none" stroke="midnightblue" d="M205.89,-229.66C154.99,-224.34 69.3,-212 50.23,-188 28.56,-160.73 -54.48,-174.23 57.23,-56 80.14,-31.75 303.15,-17.66 394.5,-12.87"/>
<polygon fill="midnightblue" stroke="midnightblue" points="205.58,-233.15 215.88,-230.66 206.28,-226.18 205.58,-233.15"/>
</g>
<!-- Node9 -->
<g id="node9" class="node">
<title>Node9</title>
<g id="a_node9"><a xlink:href="kwargs-to-struct_8hpp.html" target="_top" xlink:title="This file defines mappings from Python dicts (kwargs) to simple parameter structs.">
<polygon fill="white" stroke="black" points="333.23,-168.5 333.23,-187.5 451.23,-187.5 451.23,-168.5 333.23,-168.5"/>
<text text-anchor="middle" x="392.23" y="-175.5" font-family="Helvetica,sans-Serif" font-size="10.00">kwargs&#45;to&#45;struct.hpp</text>
</a>
</g>
</g>
<!-- Node2&#45;&gt;Node9 -->
<g id="edge8" class="edge">
<title>Node2&#45;&gt;Node9</title>
<path fill="none" stroke="midnightblue" d="M277.38,-220.91C305.2,-210.75 344.25,-196.51 368.89,-187.52"/>
<polygon fill="midnightblue" stroke="midnightblue" points="275.87,-217.73 267.68,-224.44 278.27,-224.3 275.87,-217.73"/>
</g>
<!-- Node10 -->
<g id="node10" class="node">
<title>Node10</title>
<g id="a_node10"><a xlink:href="CasADi_2Rosenbrock_2main_8cpp.html" target="_top" xlink:title=" ">
<polygon fill="white" stroke="black" points="253.23,-168.5 253.23,-187.5 315.23,-187.5 315.23,-168.5 253.23,-168.5"/>
<text text-anchor="middle" x="284.23" y="-175.5" font-family="Helvetica,sans-Serif" font-size="10.00">main.cpp</text>
</a>
</g>
</g>
<!-- Node2&#45;&gt;Node10 -->
<g id="edge11" class="edge">
<title>Node2&#45;&gt;Node10</title>
<path fill="none" stroke="midnightblue" d="M256.93,-215.86C263.85,-206.5 272.14,-195.33 277.75,-187.75"/>
<polygon fill="midnightblue" stroke="midnightblue" points="253.97,-213.96 250.83,-224.08 259.6,-218.13 253.97,-213.96"/>
</g>
<!-- Node11 -->
<g id="node11" class="node">
<title>Node11</title>
<g id="a_node11"><a xlink:href="CUTEst_2Rosenbrock_2main_8cpp.html" target="_top" xlink:title=" ">
<polygon fill="white" stroke="black" points="173.23,-168.5 173.23,-187.5 235.23,-187.5 235.23,-168.5 173.23,-168.5"/>
<text text-anchor="middle" x="204.23" y="-175.5" font-family="Helvetica,sans-Serif" font-size="10.00">main.cpp</text>
</a>
</g>
</g>
<!-- Node2&#45;&gt;Node11 -->
<g id="edge12" class="edge">
<title>Node2&#45;&gt;Node11</title>
<path fill="none" stroke="midnightblue" d="M231.53,-215.86C224.6,-206.5 216.32,-195.33 210.71,-187.75"/>
<polygon fill="midnightblue" stroke="midnightblue" points="228.86,-218.13 237.62,-224.08 234.48,-213.96 228.86,-218.13"/>
</g>
<!-- Node4 -->
<g id="node4" class="node">
<title>Node4</title>
<g id="a_node4"><a xlink:href="alm_8hpp.html" target="_top" xlink:title=" ">
<polygon fill="white" stroke="black" points="101.23,-112.5 101.23,-131.5 157.23,-131.5 157.23,-112.5 101.23,-112.5"/>
<text text-anchor="middle" x="129.23" y="-119.5" font-family="Helvetica,sans-Serif" font-size="10.00">alm.hpp</text>
</a>
</g>
</g>
<!-- Node3&#45;&gt;Node4 -->
<g id="edge3" class="edge">
<title>Node3&#45;&gt;Node4</title>
<path fill="none" stroke="midnightblue" d="M114.69,-158.69C118.4,-149.59 122.7,-139.01 125.66,-131.75"/>
<polygon fill="midnightblue" stroke="midnightblue" points="111.39,-157.5 110.86,-168.08 117.88,-160.14 111.39,-157.5"/>
</g>
<!-- Node5 -->
<g id="node5" class="node">
<title>Node5</title>
<g id="a_node5"><a xlink:href="polymorphic-inner-solver_8hpp.html" target="_top" xlink:title=" ">
<polygon fill="white" stroke="black" points="353.23,-56.5 353.23,-75.5 513.23,-75.5 513.23,-56.5 353.23,-56.5"/>
<text text-anchor="middle" x="433.23" y="-63.5" font-family="Helvetica,sans-Serif" font-size="10.00">polymorphic&#45;inner&#45;solver.hpp</text>
</a>
</g>
</g>
<!-- Node4&#45;&gt;Node5 -->
<g id="edge4" class="edge">
<title>Node4&#45;&gt;Node5</title>
<path fill="none" stroke="midnightblue" d="M167.38,-111.88C244.73,-96.16 323.45,-83.45 375.46,-75.51"/>
<polygon fill="midnightblue" stroke="midnightblue" points="166.56,-108.47 157.46,-113.91 167.96,-115.33 166.56,-108.47"/>
</g>
<!-- Node7 -->
<g id="node7" class="node">
<title>Node7</title>
<g id="a_node7"><a xlink:href="alm_8cpp.html" target="_top" xlink:title=" ">
<polygon fill="white" stroke="black" points="201.23,-56.5 201.23,-75.5 257.23,-75.5 257.23,-56.5 201.23,-56.5"/>
<text text-anchor="middle" x="229.23" y="-63.5" font-family="Helvetica,sans-Serif" font-size="10.00">alm.cpp</text>
</a>
</g>
</g>
<!-- Node4&#45;&gt;Node7 -->
<g id="edge6" class="edge">
<title>Node4&#45;&gt;Node7</title>
<path fill="none" stroke="midnightblue" d="M154.32,-107.45C172.78,-97.48 197.33,-84.23 213.2,-75.65"/>
<polygon fill="midnightblue" stroke="midnightblue" points="152.43,-104.49 145.3,-112.32 155.76,-110.65 152.43,-104.49"/>
</g>
<!-- Node8 -->
<g id="node8" class="node">
<title>Node8</title>
<g id="a_node8"><a xlink:href="Presentation_2Cpp_2main_8cpp.html" target="_top" xlink:title=" ">
<polygon fill="white" stroke="black" points="81.23,-56.5 81.23,-75.5 143.23,-75.5 143.23,-56.5 81.23,-56.5"/>
<text text-anchor="middle" x="112.23" y="-63.5" font-family="Helvetica,sans-Serif" font-size="10.00">main.cpp</text>
</a>
</g>
</g>
<!-- Node4&#45;&gt;Node8 -->
<g id="edge7" class="edge">
<title>Node4&#45;&gt;Node8</title>
<path fill="none" stroke="midnightblue" d="M123.37,-102.4C120.53,-93.36 117.25,-82.94 114.98,-75.75"/>
<polygon fill="midnightblue" stroke="midnightblue" points="120.08,-103.6 126.42,-112.08 126.76,-101.49 120.08,-103.6"/>
</g>
<!-- Node5&#45;&gt;Node6 -->
<g id="edge5" class="edge">
<title>Node5&#45;&gt;Node6</title>
<path fill="none" stroke="midnightblue" d="M433.23,-45.8C433.23,-36.91 433.23,-26.78 433.23,-19.75"/>
<polygon fill="midnightblue" stroke="midnightblue" points="429.73,-46.08 433.23,-56.08 436.73,-46.08 429.73,-46.08"/>
</g>
<!-- Node9&#45;&gt;Node6 -->
<g id="edge9" class="edge">
<title>Node9&#45;&gt;Node6</title>
<path fill="none" stroke="midnightblue" d="M323.27,-167.45C232.87,-154.87 85.41,-134.07 83.23,-132 58.51,-108.47 49.64,-81.58 72.23,-56 93.34,-32.09 305.9,-17.9 394.64,-12.97"/>
<polygon fill="midnightblue" stroke="midnightblue" points="322.8,-170.92 333.19,-168.83 323.76,-163.99 322.8,-170.92"/>
</g>
<!-- Node12&#45;&gt;Node6 -->
<g id="edge24" class="edge">
<title>Node12&#45;&gt;Node6</title>
<path fill="none" stroke="midnightblue" d="M460.84,-230.33C490.23,-225.99 527,-215.07 546.23,-188 564.25,-162.63 630.45,-184.9 539.23,-56 523.75,-34.13 495.44,-22.83 471.96,-17.02"/>
<polygon fill="midnightblue" stroke="midnightblue" points="460.28,-226.87 450.8,-231.61 461.16,-233.82 460.28,-226.87"/>
</g>
<!-- Node12&#45;&gt;Node9 -->
<g id="edge23" class="edge">
<title>Node12&#45;&gt;Node9</title>
<path fill="none" stroke="midnightblue" d="M408.89,-214.98C404.64,-205.82 399.68,-195.09 396.28,-187.75"/>
<polygon fill="midnightblue" stroke="midnightblue" points="405.72,-216.48 413.1,-224.08 412.08,-213.54 405.72,-216.48"/>
</g>
<!-- Node12&#45;&gt;Node10 -->
<g id="edge25" class="edge">
<title>Node12&#45;&gt;Node10</title>
<path fill="none" stroke="midnightblue" d="M386.78,-220.64C361.82,-210.5 327.15,-196.43 305.2,-187.52"/>
<polygon fill="midnightblue" stroke="midnightblue" points="385.57,-223.92 396.15,-224.44 388.21,-217.44 385.57,-223.92"/>
</g>
<!-- Node12&#45;&gt;Node11 -->
<g id="edge26" class="edge">
<title>Node12&#45;&gt;Node11</title>
<path fill="none" stroke="midnightblue" d="M373.73,-221.97C332.6,-211.54 271.9,-196.16 235.4,-186.9"/>
<polygon fill="midnightblue" stroke="midnightblue" points="372.92,-225.38 383.48,-224.44 374.65,-218.59 372.92,-225.38"/>
</g>
<!-- Node13 -->
<g id="node13" class="node">
<title>Node13</title>
<g id="a_node13"><a xlink:href="panoc_8hpp.html" target="_top" xlink:title=" ">
<polygon fill="white" stroke="black" points="469.73,-168.5 469.73,-187.5 536.73,-187.5 536.73,-168.5 469.73,-168.5"/>
<text text-anchor="middle" x="503.23" y="-175.5" font-family="Helvetica,sans-Serif" font-size="10.00">panoc.hpp</text>
</a>
</g>
</g>
<!-- Node12&#45;&gt;Node13 -->
<g id="edge14" class="edge">
<title>Node12&#45;&gt;Node13</title>
<path fill="none" stroke="midnightblue" d="M439.68,-218.9C455.45,-209 476.04,-196.07 489.45,-187.65"/>
<polygon fill="midnightblue" stroke="midnightblue" points="437.65,-216.04 431.05,-224.32 441.38,-221.97 437.65,-216.04"/>
</g>
<!-- Node13&#45;&gt;Node5 -->
<g id="edge16" class="edge">
<title>Node13&#45;&gt;Node5</title>
<path fill="none" stroke="midnightblue" d="M500.62,-158.25C498.06,-144.6 493.19,-126.11 484.23,-112 474.6,-96.85 458.43,-83.83 446.87,-75.75"/>
<polygon fill="midnightblue" stroke="midnightblue" points="497.2,-159.06 502.26,-168.37 504.11,-157.94 497.2,-159.06"/>
</g>
<!-- Node13&#45;&gt;Node6 -->
<g id="edge15" class="edge">
<title>Node13&#45;&gt;Node6</title>
<path fill="none" stroke="midnightblue" d="M512.88,-159.3C525.05,-134.36 542.1,-88.32 522.23,-56 510.8,-37.42 489.06,-26.23 469.93,-19.65"/>
<polygon fill="midnightblue" stroke="midnightblue" points="509.71,-157.82 508.24,-168.32 515.93,-161.03 509.71,-157.82"/>
</g>
<!-- Node13&#45;&gt;Node7 -->
<g id="edge20" class="edge">
<title>Node13&#45;&gt;Node7</title>
<path fill="none" stroke="midnightblue" d="M459.59,-167.87C396.75,-154.71 288.23,-132 288.23,-132 263.63,-117.91 243.63,-89.98 234.53,-75.76"/>
<polygon fill="midnightblue" stroke="midnightblue" points="459.13,-171.35 469.64,-169.97 460.56,-164.49 459.13,-171.35"/>
</g>
<!-- Node13&#45;&gt;Node8 -->
<g id="edge22" class="edge">
<title>Node13&#45;&gt;Node8</title>
<path fill="none" stroke="midnightblue" d="M459.15,-168.37C387.64,-161.76 118.32,-160.77 92.23,-132 77.63,-115.91 94.35,-89.37 104.91,-75.71"/>
<polygon fill="midnightblue" stroke="midnightblue" points="459.15,-171.89 469.49,-169.58 459.97,-164.94 459.15,-171.89"/>
</g>
<!-- Node14 -->
<g id="node14" class="node">
<title>Node14</title>
<g id="a_node14"><a xlink:href="polymorphic-panoc-direction_8hpp.html" target="_top" xlink:title=" ">
<polygon fill="white" stroke="black" points="297.23,-112.5 297.23,-131.5 475.23,-131.5 475.23,-112.5 297.23,-112.5"/>
<text text-anchor="middle" x="386.23" y="-119.5" font-family="Helvetica,sans-Serif" font-size="10.00">polymorphic&#45;panoc&#45;direction.hpp</text>
</a>
</g>
</g>
<!-- Node13&#45;&gt;Node14 -->
<g id="edge17" class="edge">
<title>Node13&#45;&gt;Node14</title>
<path fill="none" stroke="midnightblue" d="M475.57,-164.23C453.68,-154.13 423.73,-140.31 404.68,-131.52"/>
<polygon fill="midnightblue" stroke="midnightblue" points="474.14,-167.43 484.69,-168.44 477.08,-161.08 474.14,-167.43"/>
</g>
<!-- Node15 -->
<g id="node15" class="node">
<title>Node15</title>
<g id="a_node15"><a xlink:href="panoc_8cpp.html" target="_top" xlink:title=" ">
<polygon fill="white" stroke="black" points="175.23,-112.5 175.23,-131.5 241.23,-131.5 241.23,-112.5 175.23,-112.5"/>
<text text-anchor="middle" x="208.23" y="-119.5" font-family="Helvetica,sans-Serif" font-size="10.00">panoc.cpp</text>
</a>
</g>
</g>
<!-- Node13&#45;&gt;Node15 -->
<g id="edge21" class="edge">
<title>Node13&#45;&gt;Node15</title>
<path fill="none" stroke="midnightblue" d="M459.45,-167.9C367.73,-150.38 343.1,-148.13 255.23,-132 250.73,-131.18 246,-130.29 241.34,-129.41"/>
<polygon fill="midnightblue" stroke="midnightblue" points="458.97,-171.37 469.45,-169.82 460.29,-164.5 458.97,-171.37"/>
</g>
<!-- Node14&#45;&gt;Node5 -->
<g id="edge19" class="edge">
<title>Node14&#45;&gt;Node5</title>
<path fill="none" stroke="midnightblue" d="M400.65,-104.43C408.89,-94.97 418.88,-83.48 425.61,-75.75"/>
<polygon fill="midnightblue" stroke="midnightblue" points="397.92,-102.24 393.99,-112.08 403.2,-106.84 397.92,-102.24"/>
</g>
<!-- Node14&#45;&gt;Node6 -->
<g id="edge18" class="edge">
<title>Node14&#45;&gt;Node6</title>
<path fill="none" stroke="midnightblue" d="M365.47,-105.9C350.13,-92.8 333.6,-73.29 344.23,-56 355.66,-37.42 377.4,-26.23 396.53,-19.65"/>
<polygon fill="midnightblue" stroke="midnightblue" points="363.7,-108.95 373.7,-112.46 368.06,-103.48 363.7,-108.95"/>
</g>
<!-- Node17 -->
<g id="node17" class="node">
<title>Node17</title>
<g id="a_node17"><a xlink:href="second-order-panoc_8hpp.html" target="_top" xlink:title=" ">
<polygon fill="white" stroke="black" points="830.23,-168.5 830.23,-187.5 964.23,-187.5 964.23,-168.5 830.23,-168.5"/>
<text text-anchor="middle" x="897.23" y="-175.5" font-family="Helvetica,sans-Serif" font-size="10.00">second&#45;order&#45;panoc.hpp</text>
</a>
</g>
</g>
<!-- Node16&#45;&gt;Node17 -->
<g id="edge28" class="edge">
<title>Node16&#45;&gt;Node17</title>
<path fill="none" stroke="midnightblue" d="M846.54,-218.1C859.14,-208.38 875.16,-196.03 885.78,-187.83"/>
<polygon fill="midnightblue" stroke="midnightblue" points="844.26,-215.44 838.48,-224.32 848.53,-220.99 844.26,-215.44"/>
</g>
<!-- Node18 -->
<g id="node18" class="node">
<title>Node18</title>
<g id="a_node18"><a xlink:href="second-order-panoc_8cpp.html" target="_top" xlink:title=" ">
<polygon fill="white" stroke="black" points="849.23,-112.5 849.23,-131.5 983.23,-131.5 983.23,-112.5 849.23,-112.5"/>
<text text-anchor="middle" x="916.23" y="-119.5" font-family="Helvetica,sans-Serif" font-size="10.00">second&#45;order&#45;panoc.cpp</text>
</a>
</g>
</g>
<!-- Node17&#45;&gt;Node18 -->
<g id="edge29" class="edge">
<title>Node17&#45;&gt;Node18</title>
<path fill="none" stroke="midnightblue" d="M903.77,-158.4C906.95,-149.36 910.62,-138.94 913.15,-131.75"/>
<polygon fill="midnightblue" stroke="midnightblue" points="900.38,-157.49 900.37,-168.08 906.99,-159.81 900.38,-157.49"/>
</g>
<!-- Node19&#45;&gt;Node5 -->
<g id="edge35" class="edge">
<title>Node19&#45;&gt;Node5</title>
<path fill="none" stroke="midnightblue" d="M582.13,-215.42C567.09,-190.3 536.83,-143.68 502.23,-112 485.98,-97.13 464.31,-83.86 449.63,-75.66"/>
<polygon fill="midnightblue" stroke="midnightblue" points="579.21,-217.35 587.29,-224.2 585.25,-213.81 579.21,-217.35"/>
</g>
<!-- Node19&#45;&gt;Node9 -->
<g id="edge34" class="edge">
<title>Node19&#45;&gt;Node9</title>
<path fill="none" stroke="midnightblue" d="M550.86,-221.83C513.09,-211.63 458.09,-196.78 423.77,-187.52"/>
<polygon fill="midnightblue" stroke="midnightblue" points="549.97,-225.22 560.54,-224.44 551.8,-218.46 549.97,-225.22"/>
</g>
<!-- Node20 -->
<g id="node20" class="node">
<title>Node20</title>
<g id="a_node20"><a xlink:href="structured-panoc-lbfgs_8hpp.html" target="_top" xlink:title=" ">
<polygon fill="white" stroke="black" points="645.23,-168.5 645.23,-187.5 793.23,-187.5 793.23,-168.5 645.23,-168.5"/>
<text text-anchor="middle" x="719.23" y="-175.5" font-family="Helvetica,sans-Serif" font-size="10.00">structured&#45;panoc&#45;lbfgs.hpp</text>
</a>
</g>
</g>
<!-- Node19&#45;&gt;Node20 -->
<g id="edge31" class="edge">
<title>Node19&#45;&gt;Node20</title>
<path fill="none" stroke="midnightblue" d="M621.62,-220.5C645.43,-210.38 678.33,-196.39 699.2,-187.52"/>
<polygon fill="midnightblue" stroke="midnightblue" points="620.19,-217.31 612.35,-224.44 622.92,-223.75 620.19,-217.31"/>
</g>
<!-- Node20&#45;&gt;Node6 -->
<g id="edge32" class="edge">
<title>Node20&#45;&gt;Node6</title>
<path fill="none" stroke="midnightblue" d="M703.18,-160.73C672.19,-129.44 606.04,-63.33 593.23,-56 555.03,-34.15 505.57,-22.36 471.81,-16.4"/>
<polygon fill="midnightblue" stroke="midnightblue" points="701.06,-163.56 710.58,-168.21 706.04,-158.64 701.06,-163.56"/>
</g>
<!-- Node21 -->
<g id="node21" class="node">
<title>Node21</title>
<g id="a_node21"><a xlink:href="structured-panoc-lbfgs_8cpp.html" target="_top" xlink:title=" ">
<polygon fill="white" stroke="black" points="683.73,-112.5 683.73,-131.5 830.73,-131.5 830.73,-112.5 683.73,-112.5"/>
<text text-anchor="middle" x="757.23" y="-119.5" font-family="Helvetica,sans-Serif" font-size="10.00">structured&#45;panoc&#45;lbfgs.cpp</text>
</a>
</g>
</g>
<!-- Node20&#45;&gt;Node21 -->
<g id="edge33" class="edge">
<title>Node20&#45;&gt;Node21</title>
<path fill="none" stroke="midnightblue" d="M731.29,-159.86C737.87,-150.5 745.74,-139.33 751.07,-131.75"/>
<polygon fill="midnightblue" stroke="midnightblue" points="728.4,-157.89 725.5,-168.08 734.12,-161.92 728.4,-157.89"/>
</g>
</g>
</svg>
