<?xml version="1.0" encoding="UTF-8" standalone="no"?>
<!DOCTYPE svg PUBLIC "-//W3C//DTD SVG 1.1//EN"
 "http://www.w3.org/Graphics/SVG/1.1/DTD/svg11.dtd">
<!-- Generated by graphviz version 2.43.0 (0)
 -->
<!-- Title: main.cpp Pages: 1 -->
<svg width="1668pt" height="464pt"
 viewBox="0.00 0.00 1668.30 464.00" xmlns="http://www.w3.org/2000/svg" xmlns:xlink="http://www.w3.org/1999/xlink">
<g id="graph0" class="graph" transform="scale(1 1) rotate(0) translate(4 460)">
<title>main.cpp</title>
<polygon fill="white" stroke="transparent" points="-4,4 -4,-460 1664.3,-460 1664.3,4 -4,4"/>
<!-- Node1 -->
<g id="node1" class="node">
<title>Node1</title>
<g id="a_node1"><a xlink:title=" ">
<polygon fill="#bfbfbf" stroke="black" points="750.5,-436.5 750.5,-455.5 812.5,-455.5 812.5,-436.5 750.5,-436.5"/>
<text text-anchor="middle" x="781.5" y="-443.5" font-family="Helvetica,sans-Serif" font-size="10.00">main.cpp</text>
</a>
</g>
</g>
<!-- Node2 -->
<g id="node2" class="node">
<title>Node2</title>
<g id="a_node2"><a xlink:href="alm_8hpp.html" target="_top" xlink:title=" ">
<polygon fill="white" stroke="black" points="1060,-380.5 1060,-399.5 1171,-399.5 1171,-380.5 1060,-380.5"/>
<text text-anchor="middle" x="1115.5" y="-387.5" font-family="Helvetica,sans-Serif" font-size="10.00">panoc&#45;alm/alm.hpp</text>
</a>
</g>
</g>
<!-- Node1&#45;&gt;Node2 -->
<g id="edge1" class="edge">
<title>Node1&#45;&gt;Node2</title>
<path fill="none" stroke="midnightblue" d="M812.62,-439.97C867.19,-431.15 981.1,-412.73 1052.62,-401.17"/>
<polygon fill="midnightblue" stroke="midnightblue" points="1053.54,-404.56 1062.85,-399.51 1052.42,-397.65 1053.54,-404.56"/>
</g>
<!-- Node20 -->
<g id="node20" class="node">
<title>Node20</title>
<g id="a_node20"><a xlink:title=" ">
<polygon fill="white" stroke="#bfbfbf" points="1009.5,-252 1009.5,-271 1069.5,-271 1069.5,-252 1009.5,-252"/>
<text text-anchor="middle" x="1039.5" y="-259" font-family="Helvetica,sans-Serif" font-size="10.00">iostream</text>
</a>
</g>
</g>
<!-- Node1&#45;&gt;Node20 -->
<g id="edge59" class="edge">
<title>Node1&#45;&gt;Node20</title>
<path fill="none" stroke="midnightblue" d="M793.6,-436.44C834.48,-407.52 967.79,-313.22 1019.11,-276.92"/>
<polygon fill="midnightblue" stroke="midnightblue" points="1021.29,-279.67 1027.43,-271.04 1017.24,-273.96 1021.29,-279.67"/>
</g>
<!-- Node21 -->
<g id="node21" class="node">
<title>Node21</title>
<g id="a_node21"><a xlink:href="panoc_8hpp.html" target="_top" xlink:title=" ">
<polygon fill="white" stroke="black" points="611,-319 611,-338 760,-338 760,-319 611,-319"/>
<text text-anchor="middle" x="685.5" y="-326" font-family="Helvetica,sans-Serif" font-size="10.00">panoc&#45;alm/inner/panoc.hpp</text>
</a>
</g>
</g>
<!-- Node1&#45;&gt;Node21 -->
<g id="edge21" class="edge">
<title>Node1&#45;&gt;Node21</title>
<path fill="none" stroke="midnightblue" d="M774.28,-436.32C758.37,-417.17 720.03,-371.04 699.32,-346.13"/>
<polygon fill="midnightblue" stroke="midnightblue" points="701.88,-343.74 692.8,-338.28 696.5,-348.21 701.88,-343.74"/>
</g>
<!-- Node34 -->
<g id="node34" class="node">
<title>Node34</title>
<g id="a_node34"><a xlink:href="lbfgs_8hpp.html" target="_top" xlink:title=" ">
<polygon fill="white" stroke="black" points="63,-313.5 63,-343.5 210,-343.5 210,-313.5 63,-313.5"/>
<text text-anchor="start" x="71" y="-331.5" font-family="Helvetica,sans-Serif" font-size="10.00">panoc&#45;alm/inner/directions</text>
<text text-anchor="middle" x="136.5" y="-320.5" font-family="Helvetica,sans-Serif" font-size="10.00">/lbfgs.hpp</text>
</a>
</g>
</g>
<!-- Node1&#45;&gt;Node34 -->
<g id="edge52" class="edge">
<title>Node1&#45;&gt;Node34</title>
<path fill="none" stroke="midnightblue" d="M750.39,-439.43C655.1,-422.37 364.98,-370.41 220.33,-344.51"/>
<polygon fill="midnightblue" stroke="midnightblue" points="220.63,-341.01 210.17,-342.69 219.4,-347.9 220.63,-341.01"/>
</g>
<!-- Node3 -->
<g id="node3" class="node">
<title>Node3</title>
<g id="a_node3"><a xlink:href="alm-helpers_8hpp.html" target="_top" xlink:title=" ">
<polygon fill="white" stroke="black" points="1351,-313.5 1351,-343.5 1472,-343.5 1472,-313.5 1351,-313.5"/>
<text text-anchor="start" x="1359" y="-331.5" font-family="Helvetica,sans-Serif" font-size="10.00">panoc&#45;alm/detail/alm</text>
<text text-anchor="middle" x="1411.5" y="-320.5" font-family="Helvetica,sans-Serif" font-size="10.00">&#45;helpers.hpp</text>
</a>
</g>
</g>
<!-- Node2&#45;&gt;Node3 -->
<g id="edge2" class="edge">
<title>Node2&#45;&gt;Node3</title>
<path fill="none" stroke="midnightblue" d="M1157.91,-380.48C1205.64,-370.88 1283.94,-355.14 1340.92,-343.69"/>
<polygon fill="midnightblue" stroke="midnightblue" points="1341.83,-347.07 1350.95,-341.67 1340.45,-340.21 1341.83,-347.07"/>
</g>
<!-- Node14 -->
<g id="node14" class="node">
<title>Node14</title>
<g id="a_node14"><a xlink:href="solverstatus_8hpp.html" target="_top" xlink:title=" ">
<polygon fill="white" stroke="black" points="1197,-185 1197,-204 1368,-204 1368,-185 1197,-185"/>
<text text-anchor="middle" x="1282.5" y="-192" font-family="Helvetica,sans-Serif" font-size="10.00">panoc&#45;alm/util/solverstatus.hpp</text>
</a>
</g>
</g>
<!-- Node2&#45;&gt;Node14 -->
<g id="edge18" class="edge">
<title>Node2&#45;&gt;Node14</title>
<path fill="none" stroke="midnightblue" d="M1122.89,-380.44C1148.48,-350.79 1233.59,-252.17 1267.94,-212.37"/>
<polygon fill="midnightblue" stroke="midnightblue" points="1270.93,-214.26 1274.81,-204.41 1265.63,-209.69 1270.93,-214.26"/>
</g>
<!-- Node19 -->
<g id="node19" class="node">
<title>Node19</title>
<g id="a_node19"><a xlink:title=" ">
<polygon fill="white" stroke="#bfbfbf" points="1087.5,-252 1087.5,-271 1143.5,-271 1143.5,-252 1087.5,-252"/>
<text text-anchor="middle" x="1115.5" y="-259" font-family="Helvetica,sans-Serif" font-size="10.00">iomanip</text>
</a>
</g>
</g>
<!-- Node2&#45;&gt;Node19 -->
<g id="edge19" class="edge">
<title>Node2&#45;&gt;Node19</title>
<path fill="none" stroke="midnightblue" d="M1115.5,-380.31C1115.5,-359.99 1115.5,-309.05 1115.5,-281.28"/>
<polygon fill="midnightblue" stroke="midnightblue" points="1119,-281.26 1115.5,-271.26 1112,-281.26 1119,-281.26"/>
</g>
<!-- Node2&#45;&gt;Node20 -->
<g id="edge20" class="edge">
<title>Node2&#45;&gt;Node20</title>
<path fill="none" stroke="midnightblue" d="M1110.28,-380.31C1097.91,-359.72 1066.65,-307.69 1050.12,-280.18"/>
<polygon fill="midnightblue" stroke="midnightblue" points="1052.91,-278.03 1044.76,-271.26 1046.91,-281.63 1052.91,-278.03"/>
</g>
<!-- Node4 -->
<g id="node4" class="node">
<title>Node4</title>
<g id="a_node4"><a xlink:href="decl_2alm_8hpp.html" target="_top" xlink:title=" ">
<polygon fill="white" stroke="black" points="1344.5,-252 1344.5,-271 1478.5,-271 1478.5,-252 1344.5,-252"/>
<text text-anchor="middle" x="1411.5" y="-259" font-family="Helvetica,sans-Serif" font-size="10.00">panoc&#45;alm/decl/alm.hpp</text>
</a>
</g>
</g>
<!-- Node3&#45;&gt;Node4 -->
<g id="edge3" class="edge">
<title>Node3&#45;&gt;Node4</title>
<path fill="none" stroke="midnightblue" d="M1411.5,-313.4C1411.5,-304.06 1411.5,-291.71 1411.5,-281.52"/>
<polygon fill="midnightblue" stroke="midnightblue" points="1415,-281.19 1411.5,-271.19 1408,-281.19 1415,-281.19"/>
</g>
<!-- Node18 -->
<g id="node18" class="node">
<title>Node18</title>
<g id="a_node18"><a xlink:title=" ">
<polygon fill="white" stroke="#bfbfbf" points="439,-118 439,-137 504,-137 504,-118 439,-118"/>
<text text-anchor="middle" x="471.5" y="-125" font-family="Helvetica,sans-Serif" font-size="10.00">stdexcept</text>
</a>
</g>
</g>
<!-- Node3&#45;&gt;Node18 -->
<g id="edge17" class="edge">
<title>Node3&#45;&gt;Node18</title>
<path fill="none" stroke="midnightblue" d="M1472.31,-313.68C1560.47,-291.09 1706.85,-242.33 1645.5,-179 1601.72,-133.81 575.38,-154.4 513.5,-143 509.79,-142.32 505.97,-141.37 502.21,-140.28"/>
<polygon fill="midnightblue" stroke="midnightblue" points="503.12,-136.89 492.53,-137.15 500.97,-143.55 503.12,-136.89"/>
</g>
<!-- Node5 -->
<g id="node5" class="node">
<title>Node5</title>
<g id="a_node5"><a xlink:href="panoc-fwd_8hpp.html" target="_top" xlink:title=" ">
<polygon fill="white" stroke="black" points="1517,-179.5 1517,-209.5 1636,-209.5 1636,-179.5 1517,-179.5"/>
<text text-anchor="start" x="1525" y="-197.5" font-family="Helvetica,sans-Serif" font-size="10.00">panoc&#45;alm/inner/decl</text>
<text text-anchor="middle" x="1576.5" y="-186.5" font-family="Helvetica,sans-Serif" font-size="10.00">/panoc&#45;fwd.hpp</text>
</a>
</g>
</g>
<!-- Node4&#45;&gt;Node5 -->
<g id="edge4" class="edge">
<title>Node4&#45;&gt;Node5</title>
<path fill="none" stroke="midnightblue" d="M1433.41,-251.87C1458.28,-242.07 1499.51,-225.83 1531.34,-213.29"/>
<polygon fill="midnightblue" stroke="midnightblue" points="1532.87,-216.45 1540.89,-209.53 1530.3,-209.94 1532.87,-216.45"/>
</g>
<!-- Node7 -->
<g id="node7" class="node">
<title>Node7</title>
<g id="a_node7"><a xlink:href="include_2panoc-alm_2util_2problem_8hpp.html" target="_top" xlink:title=" ">
<polygon fill="white" stroke="black" points="609.5,-185 609.5,-204 761.5,-204 761.5,-185 609.5,-185"/>
<text text-anchor="middle" x="685.5" y="-192" font-family="Helvetica,sans-Serif" font-size="10.00">panoc&#45;alm/util/problem.hpp</text>
</a>
</g>
</g>
<!-- Node4&#45;&gt;Node7 -->
<g id="edge6" class="edge">
<title>Node4&#45;&gt;Node7</title>
<path fill="none" stroke="midnightblue" d="M1344.39,-257.21C1227.49,-251.04 979.03,-235.95 770.5,-210 760.91,-208.81 750.75,-207.29 740.91,-205.7"/>
<polygon fill="midnightblue" stroke="midnightblue" points="741.26,-202.21 730.82,-204.01 740.11,-209.11 741.26,-202.21"/>
</g>
<!-- Node4&#45;&gt;Node14 -->
<g id="edge13" class="edge">
<title>Node4&#45;&gt;Node14</title>
<path fill="none" stroke="midnightblue" d="M1394.37,-251.87C1372.49,-240.84 1334.41,-221.66 1308.83,-208.77"/>
<polygon fill="midnightblue" stroke="midnightblue" points="1310.21,-205.54 1299.7,-204.17 1307.06,-211.79 1310.21,-205.54"/>
</g>
<!-- Node16 -->
<g id="node16" class="node">
<title>Node16</title>
<g id="a_node16"><a xlink:title=" ">
<polygon fill="white" stroke="#bfbfbf" points="1386.5,-185 1386.5,-204 1436.5,-204 1436.5,-185 1386.5,-185"/>
<text text-anchor="middle" x="1411.5" y="-192" font-family="Helvetica,sans-Serif" font-size="10.00">chrono</text>
</a>
</g>
</g>
<!-- Node4&#45;&gt;Node16 -->
<g id="edge15" class="edge">
<title>Node4&#45;&gt;Node16</title>
<path fill="none" stroke="midnightblue" d="M1411.5,-251.73C1411.5,-242.18 1411.5,-226.62 1411.5,-214.28"/>
<polygon fill="midnightblue" stroke="midnightblue" points="1415,-214.13 1411.5,-204.13 1408,-214.13 1415,-214.13"/>
</g>
<!-- Node17 -->
<g id="node17" class="node">
<title>Node17</title>
<g id="a_node17"><a xlink:title=" ">
<polygon fill="white" stroke="#bfbfbf" points="1454.5,-185 1454.5,-204 1498.5,-204 1498.5,-185 1454.5,-185"/>
<text text-anchor="middle" x="1476.5" y="-192" font-family="Helvetica,sans-Serif" font-size="10.00">string</text>
</a>
</g>
</g>
<!-- Node4&#45;&gt;Node17 -->
<g id="edge16" class="edge">
<title>Node4&#45;&gt;Node17</title>
<path fill="none" stroke="midnightblue" d="M1420.27,-251.73C1430.6,-241.4 1447.96,-224.04 1460.67,-211.33"/>
<polygon fill="midnightblue" stroke="midnightblue" points="1463.28,-213.67 1467.87,-204.13 1458.33,-208.72 1463.28,-213.67"/>
</g>
<!-- Node6 -->
<g id="node6" class="node">
<title>Node6</title>
<g id="a_node6"><a xlink:href="lbfgs-fwd_8hpp.html" target="_top" xlink:title=" ">
<polygon fill="white" stroke="black" points="274,-112.5 274,-142.5 421,-142.5 421,-112.5 274,-112.5"/>
<text text-anchor="start" x="282" y="-130.5" font-family="Helvetica,sans-Serif" font-size="10.00">panoc&#45;alm/inner/directions</text>
<text text-anchor="middle" x="347.5" y="-119.5" font-family="Helvetica,sans-Serif" font-size="10.00">/decl/lbfgs&#45;fwd.hpp</text>
</a>
</g>
</g>
<!-- Node5&#45;&gt;Node6 -->
<g id="edge5" class="edge">
<title>Node5&#45;&gt;Node6</title>
<path fill="none" stroke="midnightblue" d="M1516.77,-180.28C1513.64,-179.8 1510.54,-179.37 1507.5,-179 1035.39,-121.94 908.68,-191.33 431.45,-142.98"/>
<polygon fill="midnightblue" stroke="midnightblue" points="431.5,-139.46 421.19,-141.92 430.78,-146.43 431.5,-139.46"/>
</g>
<!-- Node8 -->
<g id="node8" class="node">
<title>Node8</title>
<g id="a_node8"><a xlink:href="box_8hpp.html" target="_top" xlink:title=" ">
<polygon fill="white" stroke="black" points="199.5,-118 199.5,-137 255.5,-137 255.5,-118 199.5,-118"/>
<text text-anchor="middle" x="227.5" y="-125" font-family="Helvetica,sans-Serif" font-size="10.00">box.hpp</text>
</a>
</g>
</g>
<!-- Node7&#45;&gt;Node8 -->
<g id="edge7" class="edge">
<title>Node7&#45;&gt;Node8</title>
<path fill="none" stroke="midnightblue" d="M638.37,-184.93C626.07,-182.83 612.81,-180.71 600.5,-179 452.18,-158.4 411.1,-177.98 265.5,-143 262.51,-142.28 259.43,-141.39 256.39,-140.4"/>
<polygon fill="midnightblue" stroke="midnightblue" points="257.51,-137.08 246.92,-137.01 255.16,-143.67 257.51,-137.08"/>
</g>
<!-- Node11 -->
<g id="node11" class="node">
<title>Node11</title>
<g id="a_node11"><a xlink:title=" ">
<polygon fill="white" stroke="#bfbfbf" points="616,-118 616,-137 681,-137 681,-118 616,-118"/>
<text text-anchor="middle" x="648.5" y="-125" font-family="Helvetica,sans-Serif" font-size="10.00">functional</text>
</a>
</g>
</g>
<!-- Node7&#45;&gt;Node11 -->
<g id="edge10" class="edge">
<title>Node7&#45;&gt;Node11</title>
<path fill="none" stroke="midnightblue" d="M680.51,-184.73C674.91,-174.89 665.67,-158.66 658.55,-146.16"/>
<polygon fill="midnightblue" stroke="midnightblue" points="661.4,-144.09 653.41,-137.13 655.32,-147.55 661.4,-144.09"/>
</g>
<!-- Node12 -->
<g id="node12" class="node">
<title>Node12</title>
<g id="a_node12"><a xlink:title=" ">
<polygon fill="white" stroke="#bfbfbf" points="699.5,-118 699.5,-137 757.5,-137 757.5,-118 699.5,-118"/>
<text text-anchor="middle" x="728.5" y="-125" font-family="Helvetica,sans-Serif" font-size="10.00">memory</text>
</a>
</g>
</g>
<!-- Node7&#45;&gt;Node12 -->
<g id="edge11" class="edge">
<title>Node7&#45;&gt;Node12</title>
<path fill="none" stroke="midnightblue" d="M691.3,-184.73C697.88,-174.79 708.76,-158.34 717.06,-145.79"/>
<polygon fill="midnightblue" stroke="midnightblue" points="720.19,-147.4 722.79,-137.13 714.36,-143.54 720.19,-147.4"/>
</g>
<!-- Node13 -->
<g id="node13" class="node">
<title>Node13</title>
<g id="a_node13"><a xlink:title=" ">
<polygon fill="white" stroke="#bfbfbf" points="0,-118 0,-137 69,-137 69,-118 0,-118"/>
<text text-anchor="middle" x="34.5" y="-125" font-family="Helvetica,sans-Serif" font-size="10.00">type_traits</text>
</a>
</g>
</g>
<!-- Node7&#45;&gt;Node13 -->
<g id="edge12" class="edge">
<title>Node7&#45;&gt;Node13</title>
<path fill="none" stroke="midnightblue" d="M639.72,-184.99C627.05,-182.82 613.27,-180.65 600.5,-179 419.08,-155.6 372.68,-159.46 190.5,-143 153.02,-139.61 110.48,-135.65 79.31,-132.73"/>
<polygon fill="midnightblue" stroke="midnightblue" points="79.48,-129.23 69.19,-131.78 78.82,-136.2 79.48,-129.23"/>
</g>
<!-- Node9 -->
<g id="node9" class="node">
<title>Node9</title>
<g id="a_node9"><a xlink:href="vec_8hpp.html" target="_top" xlink:title=" ">
<polygon fill="white" stroke="black" points="200,-56.5 200,-75.5 255,-75.5 255,-56.5 200,-56.5"/>
<text text-anchor="middle" x="227.5" y="-63.5" font-family="Helvetica,sans-Serif" font-size="10.00">vec.hpp</text>
</a>
</g>
</g>
<!-- Node8&#45;&gt;Node9 -->
<g id="edge8" class="edge">
<title>Node8&#45;&gt;Node9</title>
<path fill="none" stroke="midnightblue" d="M227.5,-117.98C227.5,-109.58 227.5,-96.48 227.5,-85.66"/>
<polygon fill="midnightblue" stroke="midnightblue" points="231,-85.51 227.5,-75.51 224,-85.51 231,-85.51"/>
</g>
<!-- Node10 -->
<g id="node10" class="node">
<title>Node10</title>
<g id="a_node10"><a xlink:title=" ">
<polygon fill="white" stroke="#bfbfbf" points="193,-0.5 193,-19.5 262,-19.5 262,-0.5 193,-0.5"/>
<text text-anchor="middle" x="227.5" y="-7.5" font-family="Helvetica,sans-Serif" font-size="10.00">Eigen/Core</text>
</a>
</g>
</g>
<!-- Node9&#45;&gt;Node10 -->
<g id="edge9" class="edge">
<title>Node9&#45;&gt;Node10</title>
<path fill="none" stroke="midnightblue" d="M227.5,-56.08C227.5,-49.01 227.5,-38.86 227.5,-29.99"/>
<polygon fill="midnightblue" stroke="midnightblue" points="231,-29.75 227.5,-19.75 224,-29.75 231,-29.75"/>
</g>
<!-- Node15 -->
<g id="node15" class="node">
<title>Node15</title>
<g id="a_node15"><a xlink:title=" ">
<polygon fill="white" stroke="#bfbfbf" points="1258.5,-118 1258.5,-137 1306.5,-137 1306.5,-118 1258.5,-118"/>
<text text-anchor="middle" x="1282.5" y="-125" font-family="Helvetica,sans-Serif" font-size="10.00">iosfwd</text>
</a>
</g>
</g>
<!-- Node14&#45;&gt;Node15 -->
<g id="edge14" class="edge">
<title>Node14&#45;&gt;Node15</title>
<path fill="none" stroke="midnightblue" d="M1282.5,-184.73C1282.5,-175.18 1282.5,-159.62 1282.5,-147.28"/>
<polygon fill="midnightblue" stroke="midnightblue" points="1286,-147.13 1282.5,-137.13 1279,-147.13 1286,-147.13"/>
</g>
<!-- Node21&#45;&gt;Node18 -->
<g id="edge51" class="edge">
<title>Node21&#45;&gt;Node18</title>
<path fill="none" stroke="midnightblue" d="M637.56,-318.96C581.52,-306.13 491.27,-275.96 450.5,-210 438.12,-189.97 449.65,-162.86 459.89,-145.52"/>
<polygon fill="midnightblue" stroke="midnightblue" points="462.89,-147.32 465.29,-137 456.98,-143.58 462.89,-147.32"/>
</g>
<!-- Node21&#45;&gt;Node19 -->
<g id="edge49" class="edge">
<title>Node21&#45;&gt;Node19</title>
<path fill="none" stroke="midnightblue" d="M760.04,-323.39C839.85,-317.72 969.71,-304.85 1078.5,-277 1081.17,-276.32 1083.9,-275.5 1086.61,-274.6"/>
<polygon fill="midnightblue" stroke="midnightblue" points="1088.02,-277.81 1096.21,-271.09 1085.62,-271.23 1088.02,-277.81"/>
</g>
<!-- Node21&#45;&gt;Node20 -->
<g id="edge50" class="edge">
<title>Node21&#45;&gt;Node20</title>
<path fill="none" stroke="midnightblue" d="M760.19,-319.73C824.56,-312.04 919.62,-298.3 1000.5,-277 1003.32,-276.26 1006.21,-275.39 1009.09,-274.46"/>
<polygon fill="midnightblue" stroke="midnightblue" points="1010.41,-277.7 1018.69,-271.1 1008.1,-271.1 1010.41,-277.7"/>
</g>
<!-- Node22 -->
<g id="node22" class="node">
<title>Node22</title>
<g id="a_node22"><a xlink:href="decl_2panoc_8hpp.html" target="_top" xlink:title=" ">
<polygon fill="white" stroke="black" points="872,-246.5 872,-276.5 991,-276.5 991,-246.5 872,-246.5"/>
<text text-anchor="start" x="880" y="-264.5" font-family="Helvetica,sans-Serif" font-size="10.00">panoc&#45;alm/inner/decl</text>
<text text-anchor="middle" x="931.5" y="-253.5" font-family="Helvetica,sans-Serif" font-size="10.00">/panoc.hpp</text>
</a>
</g>
</g>
<!-- Node21&#45;&gt;Node22 -->
<g id="edge22" class="edge">
<title>Node21&#45;&gt;Node22</title>
<path fill="none" stroke="midnightblue" d="M717.91,-318.94C756.12,-308.84 820.49,-291.83 868.59,-279.12"/>
<polygon fill="midnightblue" stroke="midnightblue" points="869.52,-282.5 878.29,-276.56 867.73,-275.73 869.52,-282.5"/>
</g>
<!-- Node26 -->
<g id="node26" class="node">
<title>Node26</title>
<g id="a_node26"><a xlink:href="panoc-direction-update_8hpp.html" target="_top" xlink:title=" ">
<polygon fill="white" stroke="black" points="201,-179.5 201,-209.5 378,-209.5 378,-179.5 201,-179.5"/>
<text text-anchor="start" x="209" y="-197.5" font-family="Helvetica,sans-Serif" font-size="10.00">panoc&#45;alm/inner/directions</text>
<text text-anchor="middle" x="289.5" y="-186.5" font-family="Helvetica,sans-Serif" font-size="10.00">/decl/panoc&#45;direction&#45;update.hpp</text>
</a>
</g>
</g>
<!-- Node21&#45;&gt;Node26 -->
<g id="edge46" class="edge">
<title>Node21&#45;&gt;Node26</title>
<path fill="none" stroke="midnightblue" d="M610.84,-323.88C551.26,-318.79 466.76,-306.52 398.5,-277 393.87,-275 346.83,-239.33 316.07,-215.85"/>
<polygon fill="midnightblue" stroke="midnightblue" points="317.95,-212.88 307.88,-209.59 313.7,-218.45 317.95,-212.88"/>
</g>
<!-- Node31 -->
<g id="node31" class="node">
<title>Node31</title>
<g id="a_node31"><a xlink:href="panoc-helpers_8hpp.html" target="_top" xlink:title=" ">
<polygon fill="white" stroke="black" points="622,-246.5 622,-276.5 749,-276.5 749,-246.5 622,-246.5"/>
<text text-anchor="start" x="630" y="-264.5" font-family="Helvetica,sans-Serif" font-size="10.00">panoc&#45;alm/inner/detail</text>
<text text-anchor="middle" x="685.5" y="-253.5" font-family="Helvetica,sans-Serif" font-size="10.00">/panoc&#45;helpers.hpp</text>
</a>
</g>
</g>
<!-- Node21&#45;&gt;Node31 -->
<g id="edge40" class="edge">
<title>Node21&#45;&gt;Node31</title>
<path fill="none" stroke="midnightblue" d="M685.5,-318.73C685.5,-310.54 685.5,-297.92 685.5,-286.71"/>
<polygon fill="midnightblue" stroke="midnightblue" points="689,-286.59 685.5,-276.59 682,-286.59 689,-286.59"/>
</g>
<!-- Node32 -->
<g id="node32" class="node">
<title>Node32</title>
<g id="a_node32"><a xlink:title=" ">
<polygon fill="white" stroke="#bfbfbf" points="228.5,-252 228.5,-271 280.5,-271 280.5,-252 228.5,-252"/>
<text text-anchor="middle" x="254.5" y="-259" font-family="Helvetica,sans-Serif" font-size="10.00">cassert</text>
</a>
</g>
</g>
<!-- Node21&#45;&gt;Node32 -->
<g id="edge47" class="edge">
<title>Node21&#45;&gt;Node32</title>
<path fill="none" stroke="midnightblue" d="M610.9,-323.65C530.66,-318.21 399.88,-305.52 290.5,-277 287.99,-276.35 285.42,-275.56 282.87,-274.7"/>
<polygon fill="midnightblue" stroke="midnightblue" points="283.84,-271.33 273.25,-271.11 281.39,-277.88 283.84,-271.33"/>
</g>
<!-- Node33 -->
<g id="node33" class="node">
<title>Node33</title>
<g id="a_node33"><a xlink:title=" ">
<polygon fill="white" stroke="#bfbfbf" points="299,-252 299,-271 346,-271 346,-252 299,-252"/>
<text text-anchor="middle" x="322.5" y="-259" font-family="Helvetica,sans-Serif" font-size="10.00">cmath</text>
</a>
</g>
</g>
<!-- Node21&#45;&gt;Node33 -->
<g id="edge48" class="edge">
<title>Node21&#45;&gt;Node33</title>
<path fill="none" stroke="midnightblue" d="M610.68,-320.4C544.21,-313.02 444.8,-299.37 360.5,-277 357.84,-276.29 355.11,-275.47 352.39,-274.57"/>
<polygon fill="midnightblue" stroke="midnightblue" points="353.35,-271.2 342.75,-271.13 350.99,-277.79 353.35,-271.2"/>
</g>
<!-- Node22&#45;&gt;Node5 -->
<g id="edge24" class="edge">
<title>Node22&#45;&gt;Node5</title>
<path fill="none" stroke="midnightblue" d="M991.25,-247.42C994.37,-246.9 997.47,-246.42 1000.5,-246 1220.94,-215.16 1282,-240.53 1506.62,-209.98"/>
<polygon fill="midnightblue" stroke="midnightblue" points="1507.32,-213.41 1516.75,-208.58 1506.36,-206.48 1507.32,-213.41"/>
</g>
<!-- Node22&#45;&gt;Node7 -->
<g id="edge34" class="edge">
<title>Node22&#45;&gt;Node7</title>
<path fill="none" stroke="midnightblue" d="M878.42,-246.48C833.28,-234.55 769.31,-217.64 727.61,-206.63"/>
<polygon fill="midnightblue" stroke="midnightblue" points="728.34,-203.2 717.78,-204.03 726.55,-209.97 728.34,-203.2"/>
</g>
<!-- Node22&#45;&gt;Node14 -->
<g id="edge35" class="edge">
<title>Node22&#45;&gt;Node14</title>
<path fill="none" stroke="midnightblue" d="M991.32,-247.82C994.42,-247.19 997.5,-246.58 1000.5,-246 1076.84,-231.15 1165.13,-215.6 1222.29,-205.75"/>
<polygon fill="midnightblue" stroke="midnightblue" points="1222.98,-209.18 1232.24,-204.03 1221.79,-202.28 1222.98,-209.18"/>
</g>
<!-- Node22&#45;&gt;Node16 -->
<g id="edge37" class="edge">
<title>Node22&#45;&gt;Node16</title>
<path fill="none" stroke="midnightblue" d="M991.26,-247.51C994.38,-246.97 997.47,-246.46 1000.5,-246 1166.9,-220.65 1214.38,-251.51 1377.5,-210 1379.86,-209.4 1382.27,-208.66 1384.66,-207.83"/>
<polygon fill="midnightblue" stroke="midnightblue" points="1386.18,-210.99 1394.21,-204.09 1383.62,-204.48 1386.18,-210.99"/>
</g>
<!-- Node22&#45;&gt;Node17 -->
<g id="edge39" class="edge">
<title>Node22&#45;&gt;Node17</title>
<path fill="none" stroke="midnightblue" d="M991.26,-247.46C994.38,-246.93 997.47,-246.44 1000.5,-246 1196.87,-217.54 1253.7,-260.84 1445.5,-210 1447.48,-209.47 1449.49,-208.83 1451.49,-208.1"/>
<polygon fill="midnightblue" stroke="midnightblue" points="1453.3,-211.13 1461.14,-204 1450.57,-204.69 1453.3,-211.13"/>
</g>
<!-- Node23 -->
<g id="node23" class="node">
<title>Node23</title>
<g id="a_node23"><a xlink:href="lbfgs-stepsize_8hpp.html" target="_top" xlink:title=" ">
<polygon fill="white" stroke="black" points="1060,-179.5 1060,-209.5 1179,-209.5 1179,-179.5 1060,-179.5"/>
<text text-anchor="start" x="1068" y="-197.5" font-family="Helvetica,sans-Serif" font-size="10.00">panoc&#45;alm/inner/decl</text>
<text text-anchor="middle" x="1119.5" y="-186.5" font-family="Helvetica,sans-Serif" font-size="10.00">/lbfgs&#45;stepsize.hpp</text>
</a>
</g>
</g>
<!-- Node22&#45;&gt;Node23 -->
<g id="edge23" class="edge">
<title>Node22&#45;&gt;Node23</title>
<path fill="none" stroke="midnightblue" d="M972.29,-246.4C1000.75,-236.56 1038.9,-223.37 1069.23,-212.88"/>
<polygon fill="midnightblue" stroke="midnightblue" points="1070.48,-216.15 1078.79,-209.58 1068.19,-209.54 1070.48,-216.15"/>
</g>
<!-- Node24 -->
<g id="node24" class="node">
<title>Node24</title>
<g id="a_node24"><a xlink:href="panoc-stop-crit_8hpp.html" target="_top" xlink:title=" ">
<polygon fill="white" stroke="black" points="472,-179.5 472,-209.5 591,-209.5 591,-179.5 472,-179.5"/>
<text text-anchor="start" x="480" y="-197.5" font-family="Helvetica,sans-Serif" font-size="10.00">panoc&#45;alm/inner/decl</text>
<text text-anchor="middle" x="531.5" y="-186.5" font-family="Helvetica,sans-Serif" font-size="10.00">/panoc&#45;stop&#45;crit.hpp</text>
</a>
</g>
</g>
<!-- Node22&#45;&gt;Node24 -->
<g id="edge25" class="edge">
<title>Node22&#45;&gt;Node24</title>
<path fill="none" stroke="midnightblue" d="M871.84,-252.42C807.57,-243.48 702.09,-228.16 601.35,-210.09"/>
<polygon fill="midnightblue" stroke="midnightblue" points="601.76,-206.61 591.3,-208.28 600.52,-213.5 601.76,-206.61"/>
</g>
<!-- Node22&#45;&gt;Node26 -->
<g id="edge28" class="edge">
<title>Node22&#45;&gt;Node26</title>
<path fill="none" stroke="midnightblue" d="M871.97,-254.47C761.46,-243.28 523.62,-219.2 388.53,-205.53"/>
<polygon fill="midnightblue" stroke="midnightblue" points="388.49,-202 378.19,-204.48 387.78,-208.97 388.49,-202"/>
</g>
<!-- Node27 -->
<g id="node27" class="node">
<title>Node27</title>
<g id="a_node27"><a xlink:href="atomic__stop__signal_8hpp.html" target="_top" xlink:title=" ">
<polygon fill="white" stroke="black" points="779.5,-179.5 779.5,-209.5 903.5,-209.5 903.5,-179.5 779.5,-179.5"/>
<text text-anchor="start" x="787.5" y="-197.5" font-family="Helvetica,sans-Serif" font-size="10.00">panoc&#45;alm/util/atomic</text>
<text text-anchor="middle" x="841.5" y="-186.5" font-family="Helvetica,sans-Serif" font-size="10.00">_stop_signal.hpp</text>
</a>
</g>
</g>
<!-- Node22&#45;&gt;Node27 -->
<g id="edge30" class="edge">
<title>Node22&#45;&gt;Node27</title>
<path fill="none" stroke="midnightblue" d="M911.97,-246.4C899.47,-237.37 883.06,-225.51 869.22,-215.52"/>
<polygon fill="midnightblue" stroke="midnightblue" points="871.15,-212.59 860.99,-209.58 867.05,-218.27 871.15,-212.59"/>
</g>
<!-- Node28 -->
<g id="node28" class="node">
<title>Node28</title>
<g id="a_node28"><a xlink:title=" ">
<polygon fill="white" stroke="#bfbfbf" points="814.5,-118 814.5,-137 864.5,-137 864.5,-118 814.5,-118"/>
<text text-anchor="middle" x="839.5" y="-125" font-family="Helvetica,sans-Serif" font-size="10.00">atomic</text>
</a>
</g>
</g>
<!-- Node22&#45;&gt;Node28 -->
<g id="edge36" class="edge">
<title>Node22&#45;&gt;Node28</title>
<path fill="none" stroke="midnightblue" d="M970.16,-246.37C986.27,-238.34 1003.33,-226.52 1012.5,-210 1019.19,-197.95 1020.93,-189.9 1012.5,-179 973.44,-128.53 933.91,-163.57 873.5,-143 871.63,-142.36 869.72,-141.67 867.81,-140.95"/>
<polygon fill="midnightblue" stroke="midnightblue" points="868.95,-137.63 858.37,-137.14 866.33,-144.12 868.95,-137.63"/>
</g>
<!-- Node29 -->
<g id="node29" class="node">
<title>Node29</title>
<g id="a_node29"><a xlink:href="lipschitz_8hpp.html" target="_top" xlink:title=" ">
<polygon fill="white" stroke="black" points="882.5,-118 882.5,-137 1034.5,-137 1034.5,-118 882.5,-118"/>
<text text-anchor="middle" x="958.5" y="-125" font-family="Helvetica,sans-Serif" font-size="10.00">panoc&#45;alm/util/lipschitz.hpp</text>
</a>
</g>
</g>
<!-- Node22&#45;&gt;Node29 -->
<g id="edge32" class="edge">
<title>Node22&#45;&gt;Node29</title>
<path fill="none" stroke="midnightblue" d="M934.39,-246.37C939.29,-222.4 949.24,-173.75 954.7,-147.06"/>
<polygon fill="midnightblue" stroke="midnightblue" points="958.17,-147.6 956.74,-137.1 951.31,-146.19 958.17,-147.6"/>
</g>
<!-- Node30 -->
<g id="node30" class="node">
<title>Node30</title>
<g id="a_node30"><a xlink:title=" ">
<polygon fill="white" stroke="#bfbfbf" points="959.5,-185 959.5,-204 1003.5,-204 1003.5,-185 959.5,-185"/>
<text text-anchor="middle" x="981.5" y="-192" font-family="Helvetica,sans-Serif" font-size="10.00">limits</text>
</a>
</g>
</g>
<!-- Node22&#45;&gt;Node30 -->
<g id="edge38" class="edge">
<title>Node22&#45;&gt;Node30</title>
<path fill="none" stroke="midnightblue" d="M942.35,-246.4C950.07,-236.36 960.47,-222.84 968.61,-212.25"/>
<polygon fill="midnightblue" stroke="midnightblue" points="971.49,-214.25 974.81,-204.19 965.94,-209.99 971.49,-214.25"/>
</g>
<!-- Node24&#45;&gt;Node18 -->
<g id="edge27" class="edge">
<title>Node24&#45;&gt;Node18</title>
<path fill="none" stroke="midnightblue" d="M518.48,-179.4C509.03,-169.16 496.23,-155.3 486.38,-144.62"/>
<polygon fill="midnightblue" stroke="midnightblue" points="488.88,-142.17 479.53,-137.19 483.74,-146.92 488.88,-142.17"/>
</g>
<!-- Node25 -->
<g id="node25" class="node">
<title>Node25</title>
<g id="a_node25"><a xlink:title=" ">
<polygon fill="white" stroke="#bfbfbf" points="522,-118 522,-137 579,-137 579,-118 522,-118"/>
<text text-anchor="middle" x="550.5" y="-125" font-family="Helvetica,sans-Serif" font-size="10.00">ostream</text>
</a>
</g>
</g>
<!-- Node24&#45;&gt;Node25 -->
<g id="edge26" class="edge">
<title>Node24&#45;&gt;Node25</title>
<path fill="none" stroke="midnightblue" d="M535.62,-179.4C538.41,-169.86 542.12,-157.18 545.13,-146.86"/>
<polygon fill="midnightblue" stroke="midnightblue" points="548.51,-147.77 547.96,-137.19 541.79,-145.81 548.51,-147.77"/>
</g>
<!-- Node26&#45;&gt;Node8 -->
<g id="edge29" class="edge">
<title>Node26&#45;&gt;Node8</title>
<path fill="none" stroke="midnightblue" d="M276.05,-179.4C266.28,-169.16 253.06,-155.3 242.88,-144.62"/>
<polygon fill="midnightblue" stroke="midnightblue" points="245.23,-142.01 235.79,-137.19 240.16,-146.85 245.23,-142.01"/>
</g>
<!-- Node27&#45;&gt;Node28 -->
<g id="edge31" class="edge">
<title>Node27&#45;&gt;Node28</title>
<path fill="none" stroke="midnightblue" d="M841.07,-179.4C840.78,-170.06 840.4,-157.71 840.09,-147.52"/>
<polygon fill="midnightblue" stroke="midnightblue" points="843.57,-147.08 839.77,-137.19 836.58,-147.3 843.57,-147.08"/>
</g>
<!-- Node29&#45;&gt;Node9 -->
<g id="edge33" class="edge">
<title>Node29&#45;&gt;Node9</title>
<path fill="none" stroke="midnightblue" d="M913.63,-117.99C900.71,-115.77 886.58,-113.57 873.5,-112 643.56,-84.45 365.39,-72.1 265.5,-68.33"/>
<polygon fill="midnightblue" stroke="midnightblue" points="265.42,-64.82 255.3,-67.95 265.16,-71.82 265.42,-64.82"/>
</g>
<!-- Node31&#45;&gt;Node7 -->
<g id="edge43" class="edge">
<title>Node31&#45;&gt;Node7</title>
<path fill="none" stroke="midnightblue" d="M685.5,-246.4C685.5,-237.06 685.5,-224.71 685.5,-214.52"/>
<polygon fill="midnightblue" stroke="midnightblue" points="689,-214.19 685.5,-204.19 682,-214.19 689,-214.19"/>
</g>
<!-- Node31&#45;&gt;Node14 -->
<g id="edge44" class="edge">
<title>Node31&#45;&gt;Node14</title>
<path fill="none" stroke="midnightblue" d="M749.15,-255.2C844.72,-246.99 1030.92,-230.05 1188.5,-210 1198.8,-208.69 1209.72,-207.15 1220.32,-205.57"/>
<polygon fill="midnightblue" stroke="midnightblue" points="1221,-209 1230.36,-204.05 1219.95,-202.08 1221,-209"/>
</g>
<!-- Node31&#45;&gt;Node18 -->
<g id="edge45" class="edge">
<title>Node31&#45;&gt;Node18</title>
<path fill="none" stroke="midnightblue" d="M621.93,-254.76C563.48,-248.01 483.04,-234.48 463.5,-210 449.27,-192.16 456.02,-164.66 463.05,-146.62"/>
<polygon fill="midnightblue" stroke="midnightblue" points="466.35,-147.8 467.06,-137.23 459.91,-145.05 466.35,-147.8"/>
</g>
<!-- Node31&#45;&gt;Node24 -->
<g id="edge41" class="edge">
<title>Node31&#45;&gt;Node24</title>
<path fill="none" stroke="midnightblue" d="M652.08,-246.4C629.28,-236.77 598.87,-223.94 574.3,-213.56"/>
<polygon fill="midnightblue" stroke="midnightblue" points="575.42,-210.24 564.85,-209.58 572.7,-216.69 575.42,-210.24"/>
</g>
<!-- Node31&#45;&gt;Node27 -->
<g id="edge42" class="edge">
<title>Node31&#45;&gt;Node27</title>
<path fill="none" stroke="midnightblue" d="M719.35,-246.4C742.55,-236.73 773.53,-223.82 798.48,-213.43"/>
<polygon fill="midnightblue" stroke="midnightblue" points="799.83,-216.65 807.72,-209.58 797.14,-210.19 799.83,-216.65"/>
</g>
<!-- Node34&#45;&gt;Node13 -->
<g id="edge58" class="edge">
<title>Node34&#45;&gt;Node13</title>
<path fill="none" stroke="midnightblue" d="M98.74,-313.43C82.19,-305.32 64.15,-293.41 53.5,-277 27.39,-236.77 29.05,-177.39 32.01,-147.36"/>
<polygon fill="midnightblue" stroke="midnightblue" points="35.53,-147.41 33.2,-137.07 28.57,-146.6 35.53,-147.41"/>
</g>
<!-- Node35 -->
<g id="node35" class="node">
<title>Node35</title>
<g id="a_node35"><a xlink:href="decl_2lbfgs_8hpp.html" target="_top" xlink:title=" ">
<polygon fill="white" stroke="black" points="63,-246.5 63,-276.5 210,-276.5 210,-246.5 63,-246.5"/>
<text text-anchor="start" x="71" y="-264.5" font-family="Helvetica,sans-Serif" font-size="10.00">panoc&#45;alm/inner/directions</text>
<text text-anchor="middle" x="136.5" y="-253.5" font-family="Helvetica,sans-Serif" font-size="10.00">/decl/lbfgs.hpp</text>
</a>
</g>
</g>
<!-- Node34&#45;&gt;Node35 -->
<g id="edge53" class="edge">
<title>Node34&#45;&gt;Node35</title>
<path fill="none" stroke="midnightblue" d="M136.5,-313.4C136.5,-305.64 136.5,-295.81 136.5,-286.86"/>
<polygon fill="midnightblue" stroke="midnightblue" points="140,-286.58 136.5,-276.58 133,-286.58 140,-286.58"/>
</g>
<!-- Node35&#45;&gt;Node6 -->
<g id="edge56" class="edge">
<title>Node35&#45;&gt;Node6</title>
<path fill="none" stroke="midnightblue" d="M142.69,-246.28C151.3,-228.11 168.57,-196.88 192.5,-179 213.41,-163.37 239.38,-152.44 264.05,-144.87"/>
<polygon fill="midnightblue" stroke="midnightblue" points="265.17,-148.19 273.79,-142.02 263.21,-141.47 265.17,-148.19"/>
</g>
<!-- Node35&#45;&gt;Node8 -->
<g id="edge54" class="edge">
<title>Node35&#45;&gt;Node8</title>
<path fill="none" stroke="midnightblue" d="M137.7,-246.36C139.76,-229.11 145.23,-199.7 159.5,-179 170.11,-163.61 186.96,-151.05 201.23,-142.3"/>
<polygon fill="midnightblue" stroke="midnightblue" points="203.26,-145.17 210.14,-137.12 199.74,-139.12 203.26,-145.17"/>
</g>
<!-- Node35&#45;&gt;Node9 -->
<g id="edge55" class="edge">
<title>Node35&#45;&gt;Node9</title>
<path fill="none" stroke="midnightblue" d="M135.02,-246.47C133.79,-229.83 133.37,-201.53 141.5,-179 155.75,-139.51 189.43,-102.73 210.16,-82.71"/>
<polygon fill="midnightblue" stroke="midnightblue" points="212.77,-85.06 217.65,-75.65 207.97,-79.96 212.77,-85.06"/>
</g>
<!-- Node35&#45;&gt;Node26 -->
<g id="edge57" class="edge">
<title>Node35&#45;&gt;Node26</title>
<path fill="none" stroke="midnightblue" d="M169.7,-246.4C192.35,-236.77 222.57,-223.94 246.98,-213.56"/>
<polygon fill="midnightblue" stroke="midnightblue" points="248.53,-216.71 256.37,-209.58 245.79,-210.27 248.53,-216.71"/>
</g>
</g>
</svg>
