<?xml version="1.0" encoding="UTF-8" standalone="no"?>
<!DOCTYPE svg PUBLIC "-//W3C//DTD SVG 1.1//EN"
 "http://www.w3.org/Graphics/SVG/1.1/DTD/svg11.dtd">
<!-- Generated by graphviz version 2.43.0 (0)
 -->
<!-- Title: second&#45;order&#45;panoc.hpp Pages: 1 -->
<svg width="1229pt" height="341pt"
 viewBox="0.00 0.00 1228.50 341.00" xmlns="http://www.w3.org/2000/svg" xmlns:xlink="http://www.w3.org/1999/xlink">
<g id="graph0" class="graph" transform="scale(1 1) rotate(0) translate(4 337)">
<title>second&#45;order&#45;panoc.hpp</title>
<polygon fill="white" stroke="transparent" points="-4,4 -4,-337 1224.5,-337 1224.5,4 -4,4"/>
<!-- Node1 -->
<g id="node1" class="node">
<title>Node1</title>
<g id="a_node1"><a xlink:title=" ">
<polygon fill="#bfbfbf" stroke="black" points="745.5,-313.5 745.5,-332.5 879.5,-332.5 879.5,-313.5 745.5,-313.5"/>
<text text-anchor="middle" x="812.5" y="-320.5" font-family="Helvetica,sans-Serif" font-size="10.00">second&#45;order&#45;panoc.hpp</text>
</a>
</g>
</g>
<!-- Node2 -->
<g id="node2" class="node">
<title>Node2</title>
<g id="a_node2"><a xlink:href="decl_2second-order-panoc_8hpp.html" target="_top" xlink:title=" ">
<polygon fill="white" stroke="black" points="597,-246.5 597,-276.5 734,-276.5 734,-246.5 597,-246.5"/>
<text text-anchor="start" x="605" y="-264.5" font-family="Helvetica,sans-Serif" font-size="10.00">panoc&#45;alm/inner/decl</text>
<text text-anchor="middle" x="665.5" y="-253.5" font-family="Helvetica,sans-Serif" font-size="10.00">/second&#45;order&#45;panoc.hpp</text>
</a>
</g>
</g>
<!-- Node1&#45;&gt;Node2 -->
<g id="edge1" class="edge">
<title>Node1&#45;&gt;Node2</title>
<path fill="none" stroke="midnightblue" d="M791.44,-313.48C770.13,-304.85 736.56,-291.26 709.44,-280.29"/>
<polygon fill="midnightblue" stroke="midnightblue" points="710.73,-277.03 700.14,-276.52 708.1,-283.52 710.73,-277.03"/>
</g>
<!-- Node7 -->
<g id="node7" class="node">
<title>Node7</title>
<g id="a_node7"><a xlink:title=" ">
<polygon fill="white" stroke="#bfbfbf" points="0,-118 0,-137 65,-137 65,-118 0,-118"/>
<text text-anchor="middle" x="32.5" y="-125" font-family="Helvetica,sans-Serif" font-size="10.00">stdexcept</text>
</a>
</g>
</g>
<!-- Node1&#45;&gt;Node7 -->
<g id="edge34" class="edge">
<title>Node1&#45;&gt;Node7</title>
<path fill="none" stroke="midnightblue" d="M745.43,-319.77C645.79,-315.65 453.03,-304.59 291.5,-277 173.87,-256.91 104.6,-304.32 31.5,-210 17.65,-192.13 21.48,-164.83 26.31,-146.82"/>
<polygon fill="midnightblue" stroke="midnightblue" points="29.67,-147.79 29.22,-137.21 22.97,-145.76 29.67,-147.79"/>
</g>
<!-- Node23 -->
<g id="node23" class="node">
<title>Node23</title>
<g id="a_node23"><a xlink:href="panoc-helpers_8hpp.html" target="_top" xlink:title=" ">
<polygon fill="white" stroke="black" points="301,-246.5 301,-276.5 428,-276.5 428,-246.5 301,-246.5"/>
<text text-anchor="start" x="309" y="-264.5" font-family="Helvetica,sans-Serif" font-size="10.00">panoc&#45;alm/inner/detail</text>
<text text-anchor="middle" x="364.5" y="-253.5" font-family="Helvetica,sans-Serif" font-size="10.00">/panoc&#45;helpers.hpp</text>
</a>
</g>
</g>
<!-- Node1&#45;&gt;Node23 -->
<g id="edge24" class="edge">
<title>Node1&#45;&gt;Node23</title>
<path fill="none" stroke="midnightblue" d="M748.31,-313.48C666.27,-302.58 524.56,-283.76 438.2,-272.29"/>
<polygon fill="midnightblue" stroke="midnightblue" points="438.58,-268.81 428.21,-270.96 437.66,-275.75 438.58,-268.81"/>
</g>
<!-- Node24 -->
<g id="node24" class="node">
<title>Node24</title>
<g id="a_node24"><a xlink:title=" ">
<polygon fill="white" stroke="#bfbfbf" points="752.5,-252 752.5,-271 804.5,-271 804.5,-252 752.5,-252"/>
<text text-anchor="middle" x="778.5" y="-259" font-family="Helvetica,sans-Serif" font-size="10.00">cassert</text>
</a>
</g>
</g>
<!-- Node1&#45;&gt;Node24 -->
<g id="edge30" class="edge">
<title>Node1&#45;&gt;Node24</title>
<path fill="none" stroke="midnightblue" d="M807.63,-313.48C802.63,-304.73 794.71,-290.87 788.39,-279.81"/>
<polygon fill="midnightblue" stroke="midnightblue" points="791.36,-277.96 783.36,-271.01 785.28,-281.43 791.36,-277.96"/>
</g>
<!-- Node25 -->
<g id="node25" class="node">
<title>Node25</title>
<g id="a_node25"><a xlink:title=" ">
<polygon fill="white" stroke="#bfbfbf" points="823,-252 823,-271 870,-271 870,-252 823,-252"/>
<text text-anchor="middle" x="846.5" y="-259" font-family="Helvetica,sans-Serif" font-size="10.00">cmath</text>
</a>
</g>
</g>
<!-- Node1&#45;&gt;Node25 -->
<g id="edge31" class="edge">
<title>Node1&#45;&gt;Node25</title>
<path fill="none" stroke="midnightblue" d="M817.37,-313.48C822.37,-304.73 830.29,-290.87 836.61,-279.81"/>
<polygon fill="midnightblue" stroke="midnightblue" points="839.72,-281.43 841.64,-271.01 833.64,-277.96 839.72,-281.43"/>
</g>
<!-- Node26 -->
<g id="node26" class="node">
<title>Node26</title>
<g id="a_node26"><a xlink:title=" ">
<polygon fill="white" stroke="#bfbfbf" points="888.5,-252 888.5,-271 944.5,-271 944.5,-252 888.5,-252"/>
<text text-anchor="middle" x="916.5" y="-259" font-family="Helvetica,sans-Serif" font-size="10.00">iomanip</text>
</a>
</g>
</g>
<!-- Node1&#45;&gt;Node26 -->
<g id="edge32" class="edge">
<title>Node1&#45;&gt;Node26</title>
<path fill="none" stroke="midnightblue" d="M827.4,-313.48C844.47,-303.71 872.66,-287.58 892.76,-276.08"/>
<polygon fill="midnightblue" stroke="midnightblue" points="894.69,-279.01 901.63,-271.01 891.21,-272.94 894.69,-279.01"/>
</g>
<!-- Node27 -->
<g id="node27" class="node">
<title>Node27</title>
<g id="a_node27"><a xlink:title=" ">
<polygon fill="white" stroke="#bfbfbf" points="962.5,-252 962.5,-271 1022.5,-271 1022.5,-252 962.5,-252"/>
<text text-anchor="middle" x="992.5" y="-259" font-family="Helvetica,sans-Serif" font-size="10.00">iostream</text>
</a>
</g>
</g>
<!-- Node1&#45;&gt;Node27 -->
<g id="edge33" class="edge">
<title>Node1&#45;&gt;Node27</title>
<path fill="none" stroke="midnightblue" d="M840.72,-313.42C869.28,-304.64 914.64,-290.42 953.5,-277 955.75,-276.22 958.06,-275.41 960.39,-274.58"/>
<polygon fill="midnightblue" stroke="midnightblue" points="961.68,-277.83 969.88,-271.11 959.29,-271.25 961.68,-277.83"/>
</g>
<!-- Node28 -->
<g id="node28" class="node">
<title>Node28</title>
<g id="a_node28"><a xlink:title=" ">
<polygon fill="white" stroke="#bfbfbf" points="1041,-252 1041,-271 1132,-271 1132,-252 1041,-252"/>
<text text-anchor="middle" x="1086.5" y="-259" font-family="Helvetica,sans-Serif" font-size="10.00">Eigen/Cholesky</text>
</a>
</g>
</g>
<!-- Node1&#45;&gt;Node28 -->
<g id="edge35" class="edge">
<title>Node1&#45;&gt;Node28</title>
<path fill="none" stroke="midnightblue" d="M857.54,-313.5C901.92,-304.94 971.6,-291.04 1031.5,-277 1036.12,-275.92 1040.95,-274.73 1045.74,-273.51"/>
<polygon fill="midnightblue" stroke="midnightblue" points="1046.64,-276.89 1055.45,-271 1044.89,-270.12 1046.64,-276.89"/>
</g>
<!-- Node3 -->
<g id="node3" class="node">
<title>Node3</title>
<g id="a_node3"><a xlink:href="panoc-fwd_8hpp.html" target="_top" xlink:title=" ">
<polygon fill="white" stroke="black" points="739,-179.5 739,-209.5 858,-209.5 858,-179.5 739,-179.5"/>
<text text-anchor="start" x="747" y="-197.5" font-family="Helvetica,sans-Serif" font-size="10.00">panoc&#45;alm/inner/decl</text>
<text text-anchor="middle" x="798.5" y="-186.5" font-family="Helvetica,sans-Serif" font-size="10.00">/panoc&#45;fwd.hpp</text>
</a>
</g>
</g>
<!-- Node2&#45;&gt;Node3 -->
<g id="edge2" class="edge">
<title>Node2&#45;&gt;Node3</title>
<path fill="none" stroke="midnightblue" d="M694.36,-246.4C713.79,-236.9 739.62,-224.28 760.69,-213.98"/>
<polygon fill="midnightblue" stroke="midnightblue" points="762.25,-217.11 769.7,-209.58 759.18,-210.82 762.25,-217.11"/>
</g>
<!-- Node5 -->
<g id="node5" class="node">
<title>Node5</title>
<g id="a_node5"><a xlink:href="panoc-stop-crit_8hpp.html" target="_top" xlink:title=" ">
<polygon fill="white" stroke="black" points="61,-179.5 61,-209.5 180,-209.5 180,-179.5 61,-179.5"/>
<text text-anchor="start" x="69" y="-197.5" font-family="Helvetica,sans-Serif" font-size="10.00">panoc&#45;alm/inner/decl</text>
<text text-anchor="middle" x="120.5" y="-186.5" font-family="Helvetica,sans-Serif" font-size="10.00">/panoc&#45;stop&#45;crit.hpp</text>
</a>
</g>
</g>
<!-- Node2&#45;&gt;Node5 -->
<g id="edge4" class="edge">
<title>Node2&#45;&gt;Node5</title>
<path fill="none" stroke="midnightblue" d="M596.63,-255.4C505.81,-248.18 340.84,-233.37 190.17,-210"/>
<polygon fill="midnightblue" stroke="midnightblue" points="190.69,-206.54 180.27,-208.45 189.61,-213.45 190.69,-206.54"/>
</g>
<!-- Node8 -->
<g id="node8" class="node">
<title>Node8</title>
<g id="a_node8"><a xlink:href="atomic__stop__signal_8hpp.html" target="_top" xlink:title=" ">
<polygon fill="white" stroke="black" points="558.5,-179.5 558.5,-209.5 682.5,-209.5 682.5,-179.5 558.5,-179.5"/>
<text text-anchor="start" x="566.5" y="-197.5" font-family="Helvetica,sans-Serif" font-size="10.00">panoc&#45;alm/util/atomic</text>
<text text-anchor="middle" x="620.5" y="-186.5" font-family="Helvetica,sans-Serif" font-size="10.00">_stop_signal.hpp</text>
</a>
</g>
</g>
<!-- Node2&#45;&gt;Node8 -->
<g id="edge7" class="edge">
<title>Node2&#45;&gt;Node8</title>
<path fill="none" stroke="midnightblue" d="M655.74,-246.4C649.96,-238.05 642.51,-227.29 635.95,-217.81"/>
<polygon fill="midnightblue" stroke="midnightblue" points="638.82,-215.81 630.25,-209.58 633.06,-219.79 638.82,-215.81"/>
</g>
<!-- Node9 -->
<g id="node9" class="node">
<title>Node9</title>
<g id="a_node9"><a xlink:title=" ">
<polygon fill="white" stroke="#bfbfbf" points="625.5,-118 625.5,-137 675.5,-137 675.5,-118 625.5,-118"/>
<text text-anchor="middle" x="650.5" y="-125" font-family="Helvetica,sans-Serif" font-size="10.00">atomic</text>
</a>
</g>
</g>
<!-- Node2&#45;&gt;Node9 -->
<g id="edge20" class="edge">
<title>Node2&#45;&gt;Node9</title>
<path fill="none" stroke="midnightblue" d="M675.75,-246.27C686.2,-229.94 699.79,-202.37 691.5,-179 686.83,-165.83 677.09,-153.59 668.28,-144.46"/>
<polygon fill="midnightblue" stroke="midnightblue" points="670.53,-141.77 660.92,-137.29 665.64,-146.78 670.53,-141.77"/>
</g>
<!-- Node10 -->
<g id="node10" class="node">
<title>Node10</title>
<g id="a_node10"><a xlink:href="lipschitz_8hpp.html" target="_top" xlink:title=" ">
<polygon fill="white" stroke="black" points="876.5,-185 876.5,-204 1028.5,-204 1028.5,-185 876.5,-185"/>
<text text-anchor="middle" x="952.5" y="-192" font-family="Helvetica,sans-Serif" font-size="10.00">panoc&#45;alm/util/lipschitz.hpp</text>
</a>
</g>
</g>
<!-- Node2&#45;&gt;Node10 -->
<g id="edge9" class="edge">
<title>Node2&#45;&gt;Node10</title>
<path fill="none" stroke="midnightblue" d="M727.42,-246.48C780.65,-234.42 856.31,-217.29 904.9,-206.28"/>
<polygon fill="midnightblue" stroke="midnightblue" points="905.86,-209.65 914.84,-204.03 904.32,-202.82 905.86,-209.65"/>
</g>
<!-- Node13 -->
<g id="node13" class="node">
<title>Node13</title>
<g id="a_node13"><a xlink:href="include_2panoc-alm_2util_2problem_8hpp.html" target="_top" xlink:title=" ">
<polygon fill="white" stroke="black" points="198.5,-185 198.5,-204 350.5,-204 350.5,-185 198.5,-185"/>
<text text-anchor="middle" x="274.5" y="-192" font-family="Helvetica,sans-Serif" font-size="10.00">panoc&#45;alm/util/problem.hpp</text>
</a>
</g>
</g>
<!-- Node2&#45;&gt;Node13 -->
<g id="edge12" class="edge">
<title>Node2&#45;&gt;Node13</title>
<path fill="none" stroke="midnightblue" d="M596.82,-249.27C534.79,-239.11 441.01,-223.68 359.5,-210 351.42,-208.64 342.91,-207.2 334.52,-205.78"/>
<polygon fill="midnightblue" stroke="midnightblue" points="334.83,-202.28 324.38,-204.06 333.65,-209.18 334.83,-202.28"/>
</g>
<!-- Node18 -->
<g id="node18" class="node">
<title>Node18</title>
<g id="a_node18"><a xlink:href="solverstatus_8hpp.html" target="_top" xlink:title=" ">
<polygon fill="white" stroke="black" points="369,-185 369,-204 540,-204 540,-185 369,-185"/>
<text text-anchor="middle" x="454.5" y="-192" font-family="Helvetica,sans-Serif" font-size="10.00">panoc&#45;alm/util/solverstatus.hpp</text>
</a>
</g>
</g>
<!-- Node2&#45;&gt;Node18 -->
<g id="edge18" class="edge">
<title>Node2&#45;&gt;Node18</title>
<path fill="none" stroke="midnightblue" d="M619.98,-246.48C581.66,-234.67 527.54,-218 491.76,-206.98"/>
<polygon fill="midnightblue" stroke="midnightblue" points="492.77,-203.63 482.19,-204.03 490.71,-210.32 492.77,-203.63"/>
</g>
<!-- Node20 -->
<g id="node20" class="node">
<title>Node20</title>
<g id="a_node20"><a xlink:title=" ">
<polygon fill="white" stroke="#bfbfbf" points="1046.5,-185 1046.5,-204 1096.5,-204 1096.5,-185 1046.5,-185"/>
<text text-anchor="middle" x="1071.5" y="-192" font-family="Helvetica,sans-Serif" font-size="10.00">chrono</text>
</a>
</g>
</g>
<!-- Node2&#45;&gt;Node20 -->
<g id="edge21" class="edge">
<title>Node2&#45;&gt;Node20</title>
<path fill="none" stroke="midnightblue" d="M734.36,-247.46C737.45,-246.95 740.51,-246.46 743.5,-246 873.61,-225.96 910.37,-244.16 1037.5,-210 1039.8,-209.38 1042.15,-208.64 1044.48,-207.82"/>
<polygon fill="midnightblue" stroke="midnightblue" points="1045.81,-211.06 1053.84,-204.14 1043.25,-204.54 1045.81,-211.06"/>
</g>
<!-- Node21 -->
<g id="node21" class="node">
<title>Node21</title>
<g id="a_node21"><a xlink:title=" ">
<polygon fill="white" stroke="#bfbfbf" points="1114.5,-185 1114.5,-204 1158.5,-204 1158.5,-185 1114.5,-185"/>
<text text-anchor="middle" x="1136.5" y="-192" font-family="Helvetica,sans-Serif" font-size="10.00">limits</text>
</a>
</g>
</g>
<!-- Node2&#45;&gt;Node21 -->
<g id="edge22" class="edge">
<title>Node2&#45;&gt;Node21</title>
<path fill="none" stroke="midnightblue" d="M734.35,-247.37C737.44,-246.89 740.5,-246.43 743.5,-246 903.57,-223.2 949.6,-252.86 1105.5,-210 1107.43,-209.47 1109.4,-208.82 1111.35,-208.11"/>
<polygon fill="midnightblue" stroke="midnightblue" points="1112.97,-211.22 1120.8,-204.1 1110.23,-204.78 1112.97,-211.22"/>
</g>
<!-- Node22 -->
<g id="node22" class="node">
<title>Node22</title>
<g id="a_node22"><a xlink:title=" ">
<polygon fill="white" stroke="#bfbfbf" points="1176.5,-185 1176.5,-204 1220.5,-204 1220.5,-185 1176.5,-185"/>
<text text-anchor="middle" x="1198.5" y="-192" font-family="Helvetica,sans-Serif" font-size="10.00">string</text>
</a>
</g>
</g>
<!-- Node2&#45;&gt;Node22 -->
<g id="edge23" class="edge">
<title>Node2&#45;&gt;Node22</title>
<path fill="none" stroke="midnightblue" d="M734.34,-247.32C737.43,-246.85 740.5,-246.41 743.5,-246 930.92,-220.69 984.79,-258.82 1167.5,-210 1169.44,-209.48 1171.4,-208.85 1173.35,-208.14"/>
<polygon fill="midnightblue" stroke="midnightblue" points="1174.97,-211.26 1182.82,-204.14 1172.24,-204.81 1174.97,-211.26"/>
</g>
<!-- Node4 -->
<g id="node4" class="node">
<title>Node4</title>
<g id="a_node4"><a xlink:href="lbfgs-fwd_8hpp.html" target="_top" xlink:title=" ">
<polygon fill="white" stroke="black" points="725,-112.5 725,-142.5 872,-142.5 872,-112.5 725,-112.5"/>
<text text-anchor="start" x="733" y="-130.5" font-family="Helvetica,sans-Serif" font-size="10.00">panoc&#45;alm/inner/directions</text>
<text text-anchor="middle" x="798.5" y="-119.5" font-family="Helvetica,sans-Serif" font-size="10.00">/decl/lbfgs&#45;fwd.hpp</text>
</a>
</g>
</g>
<!-- Node3&#45;&gt;Node4 -->
<g id="edge3" class="edge">
<title>Node3&#45;&gt;Node4</title>
<path fill="none" stroke="midnightblue" d="M798.5,-179.4C798.5,-171.64 798.5,-161.81 798.5,-152.86"/>
<polygon fill="midnightblue" stroke="midnightblue" points="802,-152.58 798.5,-142.58 795,-152.58 802,-152.58"/>
</g>
<!-- Node6 -->
<g id="node6" class="node">
<title>Node6</title>
<g id="a_node6"><a xlink:title=" ">
<polygon fill="white" stroke="#bfbfbf" points="88,-118 88,-137 145,-137 145,-118 88,-118"/>
<text text-anchor="middle" x="116.5" y="-125" font-family="Helvetica,sans-Serif" font-size="10.00">ostream</text>
</a>
</g>
</g>
<!-- Node5&#45;&gt;Node6 -->
<g id="edge5" class="edge">
<title>Node5&#45;&gt;Node6</title>
<path fill="none" stroke="midnightblue" d="M119.63,-179.4C119.05,-169.96 118.28,-157.45 117.65,-147.19"/>
<polygon fill="midnightblue" stroke="midnightblue" points="121.14,-146.96 117.04,-137.19 114.16,-147.39 121.14,-146.96"/>
</g>
<!-- Node5&#45;&gt;Node7 -->
<g id="edge6" class="edge">
<title>Node5&#45;&gt;Node7</title>
<path fill="none" stroke="midnightblue" d="M101.41,-179.4C86.92,-168.7 67.07,-154.03 52.39,-143.19"/>
<polygon fill="midnightblue" stroke="midnightblue" points="54.14,-140.13 44.02,-137.01 49.98,-145.76 54.14,-140.13"/>
</g>
<!-- Node8&#45;&gt;Node9 -->
<g id="edge8" class="edge">
<title>Node8&#45;&gt;Node9</title>
<path fill="none" stroke="midnightblue" d="M627.01,-179.4C631.46,-169.76 637.39,-156.91 642.18,-146.54"/>
<polygon fill="midnightblue" stroke="midnightblue" points="645.47,-147.74 646.49,-137.19 639.12,-144.81 645.47,-147.74"/>
</g>
<!-- Node11 -->
<g id="node11" class="node">
<title>Node11</title>
<g id="a_node11"><a xlink:href="vec_8hpp.html" target="_top" xlink:title=" ">
<polygon fill="white" stroke="black" points="563.5,-56.5 563.5,-75.5 691.5,-75.5 691.5,-56.5 563.5,-56.5"/>
<text text-anchor="middle" x="627.5" y="-63.5" font-family="Helvetica,sans-Serif" font-size="10.00">panoc&#45;alm/util/vec.hpp</text>
</a>
</g>
</g>
<!-- Node10&#45;&gt;Node11 -->
<g id="edge10" class="edge">
<title>Node10&#45;&gt;Node11</title>
<path fill="none" stroke="midnightblue" d="M947.75,-184.89C937.87,-167.87 913.35,-130.02 881.5,-112 826.48,-80.88 754.91,-70.4 701.77,-67.25"/>
<polygon fill="midnightblue" stroke="midnightblue" points="701.9,-63.76 691.74,-66.73 701.54,-70.75 701.9,-63.76"/>
</g>
<!-- Node12 -->
<g id="node12" class="node">
<title>Node12</title>
<g id="a_node12"><a xlink:title=" ">
<polygon fill="white" stroke="#bfbfbf" points="593,-0.5 593,-19.5 662,-19.5 662,-0.5 593,-0.5"/>
<text text-anchor="middle" x="627.5" y="-7.5" font-family="Helvetica,sans-Serif" font-size="10.00">Eigen/Core</text>
</a>
</g>
</g>
<!-- Node11&#45;&gt;Node12 -->
<g id="edge11" class="edge">
<title>Node11&#45;&gt;Node12</title>
<path fill="none" stroke="midnightblue" d="M627.5,-56.08C627.5,-49.01 627.5,-38.86 627.5,-29.99"/>
<polygon fill="midnightblue" stroke="midnightblue" points="631,-29.75 627.5,-19.75 624,-29.75 631,-29.75"/>
</g>
<!-- Node14 -->
<g id="node14" class="node">
<title>Node14</title>
<g id="a_node14"><a xlink:href="box_8hpp.html" target="_top" xlink:title=" ">
<polygon fill="white" stroke="black" points="327.5,-118 327.5,-137 383.5,-137 383.5,-118 327.5,-118"/>
<text text-anchor="middle" x="355.5" y="-125" font-family="Helvetica,sans-Serif" font-size="10.00">box.hpp</text>
</a>
</g>
</g>
<!-- Node13&#45;&gt;Node14 -->
<g id="edge13" class="edge">
<title>Node13&#45;&gt;Node14</title>
<path fill="none" stroke="midnightblue" d="M285.42,-184.73C298.54,-174.21 320.76,-156.38 336.66,-143.62"/>
<polygon fill="midnightblue" stroke="midnightblue" points="339.14,-146.12 344.75,-137.13 334.76,-140.66 339.14,-146.12"/>
</g>
<!-- Node15 -->
<g id="node15" class="node">
<title>Node15</title>
<g id="a_node15"><a xlink:title=" ">
<polygon fill="white" stroke="#bfbfbf" points="402,-118 402,-137 467,-137 467,-118 402,-118"/>
<text text-anchor="middle" x="434.5" y="-125" font-family="Helvetica,sans-Serif" font-size="10.00">functional</text>
</a>
</g>
</g>
<!-- Node13&#45;&gt;Node15 -->
<g id="edge15" class="edge">
<title>Node13&#45;&gt;Node15</title>
<path fill="none" stroke="midnightblue" d="M295.75,-184.87C323.44,-173.62 372.06,-153.87 403.77,-140.99"/>
<polygon fill="midnightblue" stroke="midnightblue" points="405.47,-144.07 413.42,-137.06 402.84,-137.58 405.47,-144.07"/>
</g>
<!-- Node16 -->
<g id="node16" class="node">
<title>Node16</title>
<g id="a_node16"><a xlink:title=" ">
<polygon fill="white" stroke="#bfbfbf" points="163.5,-118 163.5,-137 221.5,-137 221.5,-118 163.5,-118"/>
<text text-anchor="middle" x="192.5" y="-125" font-family="Helvetica,sans-Serif" font-size="10.00">memory</text>
</a>
</g>
</g>
<!-- Node13&#45;&gt;Node16 -->
<g id="edge16" class="edge">
<title>Node13&#45;&gt;Node16</title>
<path fill="none" stroke="midnightblue" d="M263.44,-184.73C250.16,-174.21 227.67,-156.38 211.57,-143.62"/>
<polygon fill="midnightblue" stroke="midnightblue" points="213.39,-140.6 203.38,-137.13 209.05,-146.08 213.39,-140.6"/>
</g>
<!-- Node17 -->
<g id="node17" class="node">
<title>Node17</title>
<g id="a_node17"><a xlink:title=" ">
<polygon fill="white" stroke="#bfbfbf" points="240,-118 240,-137 309,-137 309,-118 240,-118"/>
<text text-anchor="middle" x="274.5" y="-125" font-family="Helvetica,sans-Serif" font-size="10.00">type_traits</text>
</a>
</g>
</g>
<!-- Node13&#45;&gt;Node17 -->
<g id="edge17" class="edge">
<title>Node13&#45;&gt;Node17</title>
<path fill="none" stroke="midnightblue" d="M274.5,-184.73C274.5,-175.18 274.5,-159.62 274.5,-147.28"/>
<polygon fill="midnightblue" stroke="midnightblue" points="278,-147.13 274.5,-137.13 271,-147.13 278,-147.13"/>
</g>
<!-- Node14&#45;&gt;Node11 -->
<g id="edge14" class="edge">
<title>Node14&#45;&gt;Node11</title>
<path fill="none" stroke="midnightblue" d="M375.24,-117.99C380.75,-115.82 386.8,-113.65 392.5,-112 446.59,-96.37 509.29,-84.67 556.31,-77.13"/>
<polygon fill="midnightblue" stroke="midnightblue" points="557.07,-80.55 566.4,-75.53 555.98,-73.64 557.07,-80.55"/>
</g>
<!-- Node19 -->
<g id="node19" class="node">
<title>Node19</title>
<g id="a_node19"><a xlink:title=" ">
<polygon fill="white" stroke="#bfbfbf" points="485.5,-118 485.5,-137 533.5,-137 533.5,-118 485.5,-118"/>
<text text-anchor="middle" x="509.5" y="-125" font-family="Helvetica,sans-Serif" font-size="10.00">iosfwd</text>
</a>
</g>
</g>
<!-- Node18&#45;&gt;Node19 -->
<g id="edge19" class="edge">
<title>Node18&#45;&gt;Node19</title>
<path fill="none" stroke="midnightblue" d="M461.92,-184.73C470.49,-174.6 484.8,-157.69 495.49,-145.06"/>
<polygon fill="midnightblue" stroke="midnightblue" points="498.41,-147.02 502.2,-137.13 493.07,-142.5 498.41,-147.02"/>
</g>
<!-- Node23&#45;&gt;Node5 -->
<g id="edge25" class="edge">
<title>Node23&#45;&gt;Node5</title>
<path fill="none" stroke="midnightblue" d="M311.86,-246.48C274.14,-236.43 223.19,-222.86 183.35,-212.24"/>
<polygon fill="midnightblue" stroke="midnightblue" points="184.03,-208.8 173.47,-209.61 182.23,-215.57 184.03,-208.8"/>
</g>
<!-- Node23&#45;&gt;Node7 -->
<g id="edge29" class="edge">
<title>Node23&#45;&gt;Node7</title>
<path fill="none" stroke="midnightblue" d="M300.9,-258.4C220.05,-254.39 86.71,-242.86 51.5,-210 34.44,-194.07 31.31,-166.04 31.34,-147.37"/>
<polygon fill="midnightblue" stroke="midnightblue" points="34.85,-147.25 31.68,-137.14 27.85,-147.02 34.85,-147.25"/>
</g>
<!-- Node23&#45;&gt;Node8 -->
<g id="edge26" class="edge">
<title>Node23&#45;&gt;Node8</title>
<path fill="none" stroke="midnightblue" d="M419.73,-246.48C459.47,-236.39 513.21,-222.74 555.09,-212.11"/>
<polygon fill="midnightblue" stroke="midnightblue" points="556.09,-215.46 564.92,-209.61 554.37,-208.68 556.09,-215.46"/>
</g>
<!-- Node23&#45;&gt;Node13 -->
<g id="edge27" class="edge">
<title>Node23&#45;&gt;Node13</title>
<path fill="none" stroke="midnightblue" d="M344.97,-246.4C330.02,-235.6 309.47,-220.76 294.42,-209.89"/>
<polygon fill="midnightblue" stroke="midnightblue" points="296.43,-207.02 286.28,-204.01 292.34,-212.7 296.43,-207.02"/>
</g>
<!-- Node23&#45;&gt;Node18 -->
<g id="edge28" class="edge">
<title>Node23&#45;&gt;Node18</title>
<path fill="none" stroke="midnightblue" d="M384.03,-246.4C398.98,-235.6 419.53,-220.76 434.58,-209.89"/>
<polygon fill="midnightblue" stroke="midnightblue" points="436.66,-212.7 442.72,-204.01 432.57,-207.02 436.66,-212.7"/>
</g>
</g>
</svg>
