<?xml version="1.0" encoding="UTF-8" standalone="no"?>
<!DOCTYPE svg PUBLIC "-//W3C//DTD SVG 1.1//EN"
 "http://www.w3.org/Graphics/SVG/1.1/DTD/svg11.dtd">
<!-- Generated by graphviz version 2.43.0 (0)
 -->
<!-- Title: solverstatus.hpp Pages: 1 -->
<svg width="1531pt" height="308pt"
 viewBox="0.00 0.00 1530.56 308.00" xmlns="http://www.w3.org/2000/svg" xmlns:xlink="http://www.w3.org/1999/xlink">
<g id="graph0" class="graph" transform="scale(1 1) rotate(0) translate(4 304)">
<title>solverstatus.hpp</title>
<polygon fill="white" stroke="transparent" points="-4,4 -4,-304 1526.56,-304 1526.56,4 -4,4"/>
<!-- Node1 -->
<g id="node1" class="node">
<title>Node1</title>
<g id="a_node1"><a xlink:title=" ">
<polygon fill="#bfbfbf" stroke="black" points="783.06,-280.5 783.06,-299.5 881.06,-299.5 881.06,-280.5 783.06,-280.5"/>
<text text-anchor="middle" x="832.06" y="-287.5" font-family="Helvetica,sans-Serif" font-size="10.00">solverstatus.hpp</text>
</a>
</g>
</g>
<!-- Node2 -->
<g id="node2" class="node">
<title>Node2</title>
<g id="a_node2"><a xlink:href="alm_8hpp.html" target="_top" xlink:title=" ">
<polygon fill="white" stroke="black" points="127.06,-112.5 127.06,-131.5 183.06,-131.5 183.06,-112.5 127.06,-112.5"/>
<text text-anchor="middle" x="155.06" y="-119.5" font-family="Helvetica,sans-Serif" font-size="10.00">alm.hpp</text>
</a>
</g>
</g>
<!-- Node1&#45;&gt;Node2 -->
<g id="edge1" class="edge">
<title>Node1&#45;&gt;Node2</title>
<path fill="none" stroke="midnightblue" d="M772.88,-282.4C715.62,-275.34 626.65,-262.59 551.06,-244 475.04,-225.3 456.78,-217 384.06,-188 364.49,-180.19 360.96,-174.96 341.06,-168 286.49,-148.92 220.18,-134.99 183.29,-128.02"/>
<polygon fill="midnightblue" stroke="midnightblue" points="772.49,-285.88 782.84,-283.61 773.34,-278.93 772.49,-285.88"/>
</g>
<!-- Node3 -->
<g id="node3" class="node">
<title>Node3</title>
<g id="a_node3"><a xlink:href="polymorphic-inner-solver_8hpp.html" target="_top" xlink:title=" ">
<polygon fill="white" stroke="black" points="582.06,-56.5 582.06,-75.5 742.06,-75.5 742.06,-56.5 582.06,-56.5"/>
<text text-anchor="middle" x="662.06" y="-63.5" font-family="Helvetica,sans-Serif" font-size="10.00">polymorphic&#45;inner&#45;solver.hpp</text>
</a>
</g>
</g>
<!-- Node1&#45;&gt;Node3 -->
<g id="edge55" class="edge">
<title>Node1&#45;&gt;Node3</title>
<path fill="none" stroke="midnightblue" d="M772.74,-284.64C712.21,-278.99 623.75,-266.99 599.06,-244 573.87,-220.53 573.56,-200.79 584.06,-168 596.91,-127.91 633.65,-91.7 651.74,-75.68"/>
<polygon fill="midnightblue" stroke="midnightblue" points="772.68,-288.15 782.95,-285.56 773.31,-281.18 772.68,-288.15"/>
</g>
<!-- Node4 -->
<g id="node4" class="node">
<title>Node4</title>
<g id="a_node4"><a xlink:href="panocpy_8cpp.html" target="_top" xlink:title="This file defines all Python bindings.">
<polygon fill="white" stroke="black" points="737.56,-0.5 737.56,-19.5 814.56,-19.5 814.56,-0.5 737.56,-0.5"/>
<text text-anchor="middle" x="776.06" y="-7.5" font-family="Helvetica,sans-Serif" font-size="10.00">panocpy.cpp</text>
</a>
</g>
</g>
<!-- Node1&#45;&gt;Node4 -->
<g id="edge54" class="edge">
<title>Node1&#45;&gt;Node4</title>
<path fill="none" stroke="midnightblue" d="M891.27,-289.84C1036.21,-290.31 1397.06,-281.23 1397.06,-179 1397.06,-179 1397.06,-179 1397.06,-121 1397.06,-82.58 1374.4,-73.24 1340.06,-56 1247.78,-9.67 926.65,-9.09 814.82,-10.36"/>
<polygon fill="midnightblue" stroke="midnightblue" points="891.23,-286.34 881.22,-289.79 891.2,-293.34 891.23,-286.34"/>
</g>
<!-- Node7 -->
<g id="node7" class="node">
<title>Node7</title>
<g id="a_node7"><a xlink:href="decl_2alm_8hpp.html" target="_top" xlink:title=" ">
<polygon fill="white" stroke="black" points="178.06,-224.5 178.06,-243.5 234.06,-243.5 234.06,-224.5 178.06,-224.5"/>
<text text-anchor="middle" x="206.06" y="-231.5" font-family="Helvetica,sans-Serif" font-size="10.00">alm.hpp</text>
</a>
</g>
</g>
<!-- Node1&#45;&gt;Node7 -->
<g id="edge6" class="edge">
<title>Node1&#45;&gt;Node7</title>
<path fill="none" stroke="midnightblue" d="M772.96,-286.04C668.98,-280.46 446.65,-266.85 260.06,-244 251.67,-242.97 242.58,-241.57 234.3,-240.18"/>
<polygon fill="midnightblue" stroke="midnightblue" points="772.78,-289.54 782.95,-286.57 773.15,-282.55 772.78,-289.54"/>
</g>
<!-- Node12 -->
<g id="node12" class="node">
<title>Node12</title>
<g id="a_node12"><a xlink:href="decl_2panoc_8hpp.html" target="_top" xlink:title=" ">
<polygon fill="white" stroke="black" points="269.56,-224.5 269.56,-243.5 336.56,-243.5 336.56,-224.5 269.56,-224.5"/>
<text text-anchor="middle" x="303.06" y="-231.5" font-family="Helvetica,sans-Serif" font-size="10.00">panoc.hpp</text>
</a>
</g>
</g>
<!-- Node1&#45;&gt;Node12 -->
<g id="edge14" class="edge">
<title>Node1&#45;&gt;Node12</title>
<path fill="none" stroke="midnightblue" d="M772.6,-285.21C681.54,-279 502.22,-265.2 351.06,-244 346.36,-243.34 341.42,-242.54 336.57,-241.69"/>
<polygon fill="midnightblue" stroke="midnightblue" points="772.51,-288.71 782.73,-285.89 772.99,-281.72 772.51,-288.71"/>
</g>
<!-- Node16 -->
<g id="node16" class="node">
<title>Node16</title>
<g id="a_node16"><a xlink:href="decl_2second-order-panoc_8hpp.html" target="_top" xlink:title=" ">
<polygon fill="white" stroke="black" points="608.06,-224.5 608.06,-243.5 742.06,-243.5 742.06,-224.5 608.06,-224.5"/>
<text text-anchor="middle" x="675.06" y="-231.5" font-family="Helvetica,sans-Serif" font-size="10.00">second&#45;order&#45;panoc.hpp</text>
</a>
</g>
</g>
<!-- Node1&#45;&gt;Node16 -->
<g id="edge28" class="edge">
<title>Node1&#45;&gt;Node16</title>
<path fill="none" stroke="midnightblue" d="M797.67,-277.17C768.11,-267 726.19,-252.59 699.82,-243.52"/>
<polygon fill="midnightblue" stroke="midnightblue" points="796.59,-280.5 807.19,-280.44 798.87,-273.88 796.59,-280.5"/>
</g>
<!-- Node19 -->
<g id="node19" class="node">
<title>Node19</title>
<g id="a_node19"><a xlink:href="decl_2structured-panoc-lbfgs_8hpp.html" target="_top" xlink:title=" ">
<polygon fill="white" stroke="black" points="1183.06,-168.5 1183.06,-187.5 1331.06,-187.5 1331.06,-168.5 1183.06,-168.5"/>
<text text-anchor="middle" x="1257.06" y="-175.5" font-family="Helvetica,sans-Serif" font-size="10.00">structured&#45;panoc&#45;lbfgs.hpp</text>
</a>
</g>
</g>
<!-- Node1&#45;&gt;Node19 -->
<g id="edge31" class="edge">
<title>Node1&#45;&gt;Node19</title>
<path fill="none" stroke="midnightblue" d="M874.89,-277.92C959.82,-255.93 1147.93,-207.25 1224.09,-187.53"/>
<polygon fill="midnightblue" stroke="midnightblue" points="873.86,-274.57 865.06,-280.46 875.62,-281.34 873.86,-274.57"/>
</g>
<!-- Node22 -->
<g id="node22" class="node">
<title>Node22</title>
<g id="a_node22"><a xlink:href="panoc-helpers_8hpp.html" target="_top" xlink:title=" ">
<polygon fill="white" stroke="black" points="813.56,-224.5 813.56,-243.5 920.56,-243.5 920.56,-224.5 813.56,-224.5"/>
<text text-anchor="middle" x="867.06" y="-231.5" font-family="Helvetica,sans-Serif" font-size="10.00">panoc&#45;helpers.hpp</text>
</a>
</g>
</g>
<!-- Node1&#45;&gt;Node22 -->
<g id="edge37" class="edge">
<title>Node1&#45;&gt;Node22</title>
<path fill="none" stroke="midnightblue" d="M843.36,-271.57C849.39,-262.27 856.53,-251.25 861.39,-243.75"/>
<polygon fill="midnightblue" stroke="midnightblue" points="840.34,-269.79 837.84,-280.08 846.22,-273.6 840.34,-269.79"/>
</g>
<!-- Node24 -->
<g id="node24" class="node">
<title>Node24</title>
<g id="a_node24"><a xlink:href="guarded-aa-pga_8hpp.html" target="_top" xlink:title=" ">
<polygon fill="white" stroke="black" points="957.56,-168.5 957.56,-187.5 1072.56,-187.5 1072.56,-168.5 957.56,-168.5"/>
<text text-anchor="middle" x="1015.06" y="-175.5" font-family="Helvetica,sans-Serif" font-size="10.00">guarded&#45;aa&#45;pga.hpp</text>
</a>
</g>
</g>
<!-- Node1&#45;&gt;Node24 -->
<g id="edge51" class="edge">
<title>Node1&#45;&gt;Node24</title>
<path fill="none" stroke="midnightblue" d="M863.24,-276.55C882.69,-268.29 907.96,-256.67 929.06,-244 958.43,-226.37 989.76,-200.73 1005.24,-187.54"/>
<polygon fill="midnightblue" stroke="midnightblue" points="861.81,-273.35 853.93,-280.43 864.5,-279.81 861.81,-273.35"/>
</g>
<!-- Node25 -->
<g id="node25" class="node">
<title>Node25</title>
<g id="a_node25"><a xlink:href="lbfgspp_8hpp.html" target="_top" xlink:title=" ">
<polygon fill="white" stroke="black" points="1091.06,-168.5 1091.06,-187.5 1165.06,-187.5 1165.06,-168.5 1091.06,-168.5"/>
<text text-anchor="middle" x="1128.06" y="-175.5" font-family="Helvetica,sans-Serif" font-size="10.00">lbfgspp.hpp</text>
</a>
</g>
</g>
<!-- Node1&#45;&gt;Node25 -->
<g id="edge52" class="edge">
<title>Node1&#45;&gt;Node25</title>
<path fill="none" stroke="midnightblue" d="M865.54,-277.13C890.74,-268.15 926.13,-255.45 957.06,-244 1010.68,-224.16 1073.44,-200.09 1105.97,-187.54"/>
<polygon fill="midnightblue" stroke="midnightblue" points="864.32,-273.85 856.07,-280.5 866.67,-280.44 864.32,-273.85"/>
</g>
<!-- Node26 -->
<g id="node26" class="node">
<title>Node26</title>
<g id="a_node26"><a xlink:href="pga_8hpp.html" target="_top" xlink:title=" ">
<polygon fill="white" stroke="black" points="745.06,-168.5 745.06,-187.5 801.06,-187.5 801.06,-168.5 745.06,-168.5"/>
<text text-anchor="middle" x="773.06" y="-175.5" font-family="Helvetica,sans-Serif" font-size="10.00">pga.hpp</text>
</a>
</g>
</g>
<!-- Node1&#45;&gt;Node26 -->
<g id="edge53" class="edge">
<title>Node1&#45;&gt;Node26</title>
<path fill="none" stroke="midnightblue" d="M820.73,-271.8C815.44,-263.52 809.2,-253.38 804.06,-244 793.26,-224.26 782.32,-200.14 776.78,-187.57"/>
<polygon fill="midnightblue" stroke="midnightblue" points="817.81,-273.72 826.19,-280.21 823.68,-269.92 817.81,-273.72"/>
</g>
<!-- Node27 -->
<g id="node27" class="node">
<title>Node27</title>
<g id="a_node27"><a xlink:href="solverstatus_8cpp.html" target="_top" xlink:title=" ">
<polygon fill="white" stroke="black" points="1425.56,-224.5 1425.56,-243.5 1522.56,-243.5 1522.56,-224.5 1425.56,-224.5"/>
<text text-anchor="middle" x="1474.06" y="-231.5" font-family="Helvetica,sans-Serif" font-size="10.00">solverstatus.cpp</text>
</a>
</g>
</g>
<!-- Node1&#45;&gt;Node27 -->
<g id="edge56" class="edge">
<title>Node1&#45;&gt;Node27</title>
<path fill="none" stroke="midnightblue" d="M891.43,-285.65C996.43,-279.44 1221.69,-264.86 1411.06,-244 1415.68,-243.49 1420.47,-242.91 1425.26,-242.29"/>
<polygon fill="midnightblue" stroke="midnightblue" points="891.13,-282.16 881.35,-286.24 891.54,-289.15 891.13,-282.16"/>
</g>
<!-- Node2&#45;&gt;Node3 -->
<g id="edge2" class="edge">
<title>Node2&#45;&gt;Node3</title>
<path fill="none" stroke="midnightblue" d="M193.59,-116.9C276.06,-108.11 471.19,-87.33 581.85,-75.54"/>
<polygon fill="midnightblue" stroke="midnightblue" points="192.98,-113.44 183.41,-117.98 193.72,-120.4 192.98,-113.44"/>
</g>
<!-- Node5 -->
<g id="node5" class="node">
<title>Node5</title>
<g id="a_node5"><a xlink:href="alm_8cpp.html" target="_top" xlink:title=" ">
<polygon fill="white" stroke="black" points="132.06,-56.5 132.06,-75.5 188.06,-75.5 188.06,-56.5 132.06,-56.5"/>
<text text-anchor="middle" x="160.06" y="-63.5" font-family="Helvetica,sans-Serif" font-size="10.00">alm.cpp</text>
</a>
</g>
</g>
<!-- Node2&#45;&gt;Node5 -->
<g id="edge4" class="edge">
<title>Node2&#45;&gt;Node5</title>
<path fill="none" stroke="midnightblue" d="M156.81,-102.1C157.64,-93.14 158.6,-82.86 159.25,-75.75"/>
<polygon fill="midnightblue" stroke="midnightblue" points="153.33,-101.8 155.89,-112.08 160.3,-102.45 153.33,-101.8"/>
</g>
<!-- Node6 -->
<g id="node6" class="node">
<title>Node6</title>
<g id="a_node6"><a xlink:href="Presentation_2Cpp_2main_8cpp.html" target="_top" xlink:title=" ">
<polygon fill="white" stroke="black" points="210.06,-56.5 210.06,-75.5 272.06,-75.5 272.06,-56.5 210.06,-56.5"/>
<text text-anchor="middle" x="241.06" y="-63.5" font-family="Helvetica,sans-Serif" font-size="10.00">main.cpp</text>
</a>
</g>
</g>
<!-- Node2&#45;&gt;Node6 -->
<g id="edge5" class="edge">
<title>Node2&#45;&gt;Node6</title>
<path fill="none" stroke="midnightblue" d="M177.52,-106.9C193.29,-97 213.88,-84.07 227.28,-75.65"/>
<polygon fill="midnightblue" stroke="midnightblue" points="175.49,-104.04 168.88,-112.32 179.21,-109.97 175.49,-104.04"/>
</g>
<!-- Node3&#45;&gt;Node4 -->
<g id="edge3" class="edge">
<title>Node3&#45;&gt;Node4</title>
<path fill="none" stroke="midnightblue" d="M689.31,-52.1C710.6,-42.01 739.61,-28.27 758.08,-19.52"/>
<polygon fill="midnightblue" stroke="midnightblue" points="687.67,-49 680.13,-56.44 690.66,-55.33 687.67,-49"/>
</g>
<!-- Node7&#45;&gt;Node4 -->
<g id="edge11" class="edge">
<title>Node7&#45;&gt;Node4</title>
<path fill="none" stroke="midnightblue" d="M167.61,-228.39C122.04,-222.05 50.25,-208.97 34.06,-188 0.35,-144.33 -40.73,-142.88 91.06,-56 145.11,-20.37 600.75,-12.81 737.45,-11.33"/>
<polygon fill="midnightblue" stroke="midnightblue" points="167.36,-231.89 177.74,-229.75 168.29,-224.95 167.36,-231.89"/>
</g>
<!-- Node8 -->
<g id="node8" class="node">
<title>Node8</title>
<g id="a_node8"><a xlink:href="alm-helpers_8hpp.html" target="_top" xlink:title=" ">
<polygon fill="white" stroke="black" points="43.06,-168.5 43.06,-187.5 139.06,-187.5 139.06,-168.5 43.06,-168.5"/>
<text text-anchor="middle" x="91.06" y="-175.5" font-family="Helvetica,sans-Serif" font-size="10.00">alm&#45;helpers.hpp</text>
</a>
</g>
</g>
<!-- Node7&#45;&gt;Node8 -->
<g id="edge7" class="edge">
<title>Node7&#45;&gt;Node8</title>
<path fill="none" stroke="midnightblue" d="M178.58,-220.1C157.1,-210.01 127.84,-196.27 109.2,-187.52"/>
<polygon fill="midnightblue" stroke="midnightblue" points="177.3,-223.36 187.84,-224.44 180.28,-217.02 177.3,-223.36"/>
</g>
<!-- Node9 -->
<g id="node9" class="node">
<title>Node9</title>
<g id="a_node9"><a xlink:href="kwargs-to-struct_8hpp.html" target="_top" xlink:title="This file defines mappings from Python dicts (kwargs) to simple parameter structs.">
<polygon fill="white" stroke="black" points="861.06,-112.5 861.06,-131.5 979.06,-131.5 979.06,-112.5 861.06,-112.5"/>
<text text-anchor="middle" x="920.06" y="-119.5" font-family="Helvetica,sans-Serif" font-size="10.00">kwargs&#45;to&#45;struct.hpp</text>
</a>
</g>
</g>
<!-- Node7&#45;&gt;Node9 -->
<g id="edge9" class="edge">
<title>Node7&#45;&gt;Node9</title>
<path fill="none" stroke="midnightblue" d="M244.45,-226.52C316.81,-214.3 466.43,-188.96 469.06,-188 485.53,-181.98 486.42,-173.51 503.06,-168 567.96,-146.52 761.96,-132.34 860.79,-126.31"/>
<polygon fill="midnightblue" stroke="midnightblue" points="243.64,-223.11 234.36,-228.23 244.8,-230.01 243.64,-223.11"/>
</g>
<!-- Node10 -->
<g id="node10" class="node">
<title>Node10</title>
<g id="a_node10"><a xlink:href="CasADi_2Rosenbrock_2main_8cpp.html" target="_top" xlink:title=" ">
<polygon fill="white" stroke="black" points="157.06,-168.5 157.06,-187.5 219.06,-187.5 219.06,-168.5 157.06,-168.5"/>
<text text-anchor="middle" x="188.06" y="-175.5" font-family="Helvetica,sans-Serif" font-size="10.00">main.cpp</text>
</a>
</g>
</g>
<!-- Node7&#45;&gt;Node10 -->
<g id="edge12" class="edge">
<title>Node7&#45;&gt;Node10</title>
<path fill="none" stroke="midnightblue" d="M199.86,-214.4C196.85,-205.36 193.38,-194.94 190.98,-187.75"/>
<polygon fill="midnightblue" stroke="midnightblue" points="196.61,-215.7 203.09,-224.08 203.25,-213.49 196.61,-215.7"/>
</g>
<!-- Node11 -->
<g id="node11" class="node">
<title>Node11</title>
<g id="a_node11"><a xlink:href="CUTEst_2Rosenbrock_2main_8cpp.html" target="_top" xlink:title=" ">
<polygon fill="white" stroke="black" points="237.06,-168.5 237.06,-187.5 299.06,-187.5 299.06,-168.5 237.06,-168.5"/>
<text text-anchor="middle" x="268.06" y="-175.5" font-family="Helvetica,sans-Serif" font-size="10.00">main.cpp</text>
</a>
</g>
</g>
<!-- Node7&#45;&gt;Node11 -->
<g id="edge13" class="edge">
<title>Node7&#45;&gt;Node11</title>
<path fill="none" stroke="midnightblue" d="M223.82,-217.54C234.87,-207.91 248.69,-195.87 257.92,-187.83"/>
<polygon fill="midnightblue" stroke="midnightblue" points="221.27,-215.12 216.02,-224.32 225.86,-220.4 221.27,-215.12"/>
</g>
<!-- Node8&#45;&gt;Node2 -->
<g id="edge8" class="edge">
<title>Node8&#45;&gt;Node2</title>
<path fill="none" stroke="midnightblue" d="M109.05,-161.82C120.52,-152.15 134.98,-139.95 144.59,-131.83"/>
<polygon fill="midnightblue" stroke="midnightblue" points="106.73,-159.2 101.35,-168.32 111.25,-164.55 106.73,-159.2"/>
</g>
<!-- Node9&#45;&gt;Node4 -->
<g id="edge10" class="edge">
<title>Node9&#45;&gt;Node4</title>
<path fill="none" stroke="midnightblue" d="M903.47,-104.81C889.09,-91.13 867.45,-71.38 847.06,-56 828.65,-42.12 805.92,-28.23 791.22,-19.63"/>
<polygon fill="midnightblue" stroke="midnightblue" points="901.4,-107.67 911.03,-112.08 906.25,-102.62 901.4,-107.67"/>
</g>
<!-- Node12&#45;&gt;Node4 -->
<g id="edge25" class="edge">
<title>Node12&#45;&gt;Node4</title>
<path fill="none" stroke="midnightblue" d="M310.86,-214.51C315.53,-200.19 318.72,-180.72 308.06,-168 249.2,-97.78 163.93,-202.22 105.06,-132 94.79,-119.75 81.27,-82.62 107.06,-56 151.01,-10.65 601.14,-9.85 737.27,-10.66"/>
<polygon fill="midnightblue" stroke="midnightblue" points="307.44,-213.66 307.2,-224.25 313.99,-216.12 307.44,-213.66"/>
</g>
<!-- Node12&#45;&gt;Node9 -->
<g id="edge24" class="edge">
<title>Node12&#45;&gt;Node9</title>
<path fill="none" stroke="midnightblue" d="M346.56,-223.49C387.11,-214.55 449.26,-200.69 503.06,-188 539.15,-179.49 547.63,-174.92 584.06,-168 680.34,-149.72 793.51,-136.19 860.88,-128.95"/>
<polygon fill="midnightblue" stroke="midnightblue" points="345.74,-220.08 336.73,-225.65 347.25,-226.92 345.74,-220.08"/>
</g>
<!-- Node12&#45;&gt;Node10 -->
<g id="edge26" class="edge">
<title>Node12&#45;&gt;Node10</title>
<path fill="none" stroke="midnightblue" d="M275.58,-220.1C254.1,-210.01 224.84,-196.27 206.2,-187.52"/>
<polygon fill="midnightblue" stroke="midnightblue" points="274.3,-223.36 284.84,-224.44 277.28,-217.02 274.3,-223.36"/>
</g>
<!-- Node12&#45;&gt;Node11 -->
<g id="edge27" class="edge">
<title>Node12&#45;&gt;Node11</title>
<path fill="none" stroke="midnightblue" d="M291.76,-215.57C285.74,-206.27 278.59,-195.25 273.74,-187.75"/>
<polygon fill="midnightblue" stroke="midnightblue" points="288.91,-217.6 297.28,-224.08 294.78,-213.79 288.91,-217.6"/>
</g>
<!-- Node13 -->
<g id="node13" class="node">
<title>Node13</title>
<g id="a_node13"><a xlink:href="panoc_8hpp.html" target="_top" xlink:title=" ">
<polygon fill="white" stroke="black" points="393.56,-168.5 393.56,-187.5 460.56,-187.5 460.56,-168.5 393.56,-168.5"/>
<text text-anchor="middle" x="427.06" y="-175.5" font-family="Helvetica,sans-Serif" font-size="10.00">panoc.hpp</text>
</a>
</g>
</g>
<!-- Node12&#45;&gt;Node13 -->
<g id="edge15" class="edge">
<title>Node12&#45;&gt;Node13</title>
<path fill="none" stroke="midnightblue" d="M332.07,-220.37C355.29,-210.26 387.23,-196.35 407.51,-187.52"/>
<polygon fill="midnightblue" stroke="midnightblue" points="330.48,-217.24 322.71,-224.44 333.28,-223.66 330.48,-217.24"/>
</g>
<!-- Node13&#45;&gt;Node3 -->
<g id="edge17" class="edge">
<title>Node13&#45;&gt;Node3</title>
<path fill="none" stroke="midnightblue" d="M463.57,-165.15C487.91,-156.84 520.4,-144.93 548.06,-132 585.84,-114.35 627.86,-88.72 648.75,-75.54"/>
<polygon fill="midnightblue" stroke="midnightblue" points="462.36,-161.87 454.01,-168.38 464.6,-168.5 462.36,-161.87"/>
</g>
<!-- Node13&#45;&gt;Node4 -->
<g id="edge16" class="edge">
<title>Node13&#45;&gt;Node4</title>
<path fill="none" stroke="midnightblue" d="M383.23,-172.14C300.03,-162.7 126.67,-141.95 118.06,-132 106.57,-118.72 98.22,-80.34 123.06,-56 166.99,-12.95 603.65,-10.53 737.36,-10.81"/>
<polygon fill="midnightblue" stroke="midnightblue" points="383.06,-175.64 393.39,-173.29 383.85,-168.69 383.06,-175.64"/>
</g>
<!-- Node13&#45;&gt;Node5 -->
<g id="edge21" class="edge">
<title>Node13&#45;&gt;Node5</title>
<path fill="none" stroke="midnightblue" d="M383.46,-167.88C339.06,-158.25 273.51,-142.96 250.06,-132 217.59,-116.82 184.79,-89.39 169.29,-75.52"/>
<polygon fill="midnightblue" stroke="midnightblue" points="382.9,-171.34 393.42,-170.02 384.38,-164.5 382.9,-171.34"/>
</g>
<!-- Node13&#45;&gt;Node6 -->
<g id="edge23" class="edge">
<title>Node13&#45;&gt;Node6</title>
<path fill="none" stroke="midnightblue" d="M383.42,-166.72C339.44,-156.03 276.84,-139.8 268.06,-132 251.07,-116.9 244.52,-89.43 242.2,-75.54"/>
<polygon fill="midnightblue" stroke="midnightblue" points="382.78,-170.17 393.32,-169.11 384.42,-163.36 382.78,-170.17"/>
</g>
<!-- Node14 -->
<g id="node14" class="node">
<title>Node14</title>
<g id="a_node14"><a xlink:href="polymorphic-panoc-direction_8hpp.html" target="_top" xlink:title=" ">
<polygon fill="white" stroke="black" points="361.06,-112.5 361.06,-131.5 539.06,-131.5 539.06,-112.5 361.06,-112.5"/>
<text text-anchor="middle" x="450.06" y="-119.5" font-family="Helvetica,sans-Serif" font-size="10.00">polymorphic&#45;panoc&#45;direction.hpp</text>
</a>
</g>
</g>
<!-- Node13&#45;&gt;Node14 -->
<g id="edge18" class="edge">
<title>Node13&#45;&gt;Node14</title>
<path fill="none" stroke="midnightblue" d="M434.86,-158.69C438.74,-149.59 443.24,-139.01 446.34,-131.75"/>
<polygon fill="midnightblue" stroke="midnightblue" points="431.56,-157.51 430.86,-168.08 438,-160.25 431.56,-157.51"/>
</g>
<!-- Node15 -->
<g id="node15" class="node">
<title>Node15</title>
<g id="a_node15"><a xlink:href="panoc_8cpp.html" target="_top" xlink:title=" ">
<polygon fill="white" stroke="black" points="277.06,-112.5 277.06,-131.5 343.06,-131.5 343.06,-112.5 277.06,-112.5"/>
<text text-anchor="middle" x="310.06" y="-119.5" font-family="Helvetica,sans-Serif" font-size="10.00">panoc.cpp</text>
</a>
</g>
</g>
<!-- Node13&#45;&gt;Node15 -->
<g id="edge22" class="edge">
<title>Node13&#45;&gt;Node15</title>
<path fill="none" stroke="midnightblue" d="M399.4,-164.23C377.51,-154.13 347.57,-140.31 328.52,-131.52"/>
<polygon fill="midnightblue" stroke="midnightblue" points="397.98,-167.43 408.52,-168.44 400.91,-161.08 397.98,-167.43"/>
</g>
<!-- Node14&#45;&gt;Node3 -->
<g id="edge20" class="edge">
<title>Node14&#45;&gt;Node3</title>
<path fill="none" stroke="midnightblue" d="M493.41,-109.96C533.45,-99.76 592.1,-84.82 628.63,-75.52"/>
<polygon fill="midnightblue" stroke="midnightblue" points="492.48,-106.58 483.66,-112.44 494.21,-113.37 492.48,-106.58"/>
</g>
<!-- Node14&#45;&gt;Node4 -->
<g id="edge19" class="edge">
<title>Node14&#45;&gt;Node4</title>
<path fill="none" stroke="midnightblue" d="M472.2,-106.96C496.19,-92.31 536.04,-69.61 573.06,-56 628.46,-35.64 695.9,-22.93 737.4,-16.41"/>
<polygon fill="midnightblue" stroke="midnightblue" points="470.18,-104.09 463.52,-112.33 473.87,-110.04 470.18,-104.09"/>
</g>
<!-- Node17 -->
<g id="node17" class="node">
<title>Node17</title>
<g id="a_node17"><a xlink:href="second-order-panoc_8hpp.html" target="_top" xlink:title=" ">
<polygon fill="white" stroke="black" points="593.06,-168.5 593.06,-187.5 727.06,-187.5 727.06,-168.5 593.06,-168.5"/>
<text text-anchor="middle" x="660.06" y="-175.5" font-family="Helvetica,sans-Serif" font-size="10.00">second&#45;order&#45;panoc.hpp</text>
</a>
</g>
</g>
<!-- Node16&#45;&gt;Node17 -->
<g id="edge29" class="edge">
<title>Node16&#45;&gt;Node17</title>
<path fill="none" stroke="midnightblue" d="M669.9,-214.4C667.39,-205.36 664.49,-194.94 662.49,-187.75"/>
<polygon fill="midnightblue" stroke="midnightblue" points="666.54,-215.38 672.59,-224.08 673.28,-213.51 666.54,-215.38"/>
</g>
<!-- Node18 -->
<g id="node18" class="node">
<title>Node18</title>
<g id="a_node18"><a xlink:href="second-order-panoc_8cpp.html" target="_top" xlink:title=" ">
<polygon fill="white" stroke="black" points="633.06,-112.5 633.06,-131.5 767.06,-131.5 767.06,-112.5 633.06,-112.5"/>
<text text-anchor="middle" x="700.06" y="-119.5" font-family="Helvetica,sans-Serif" font-size="10.00">second&#45;order&#45;panoc.cpp</text>
</a>
</g>
</g>
<!-- Node17&#45;&gt;Node18 -->
<g id="edge30" class="edge">
<title>Node17&#45;&gt;Node18</title>
<path fill="none" stroke="midnightblue" d="M672.76,-159.86C679.69,-150.5 687.97,-139.33 693.58,-131.75"/>
<polygon fill="midnightblue" stroke="midnightblue" points="669.81,-157.96 666.67,-168.08 675.43,-162.13 669.81,-157.96"/>
</g>
<!-- Node19&#45;&gt;Node3 -->
<g id="edge36" class="edge">
<title>Node19&#45;&gt;Node3</title>
<path fill="none" stroke="midnightblue" d="M1219.35,-165.51C1171.04,-151.16 1084.52,-126.72 1009.06,-112 918.29,-94.29 812.75,-81.73 742.12,-74.46"/>
<polygon fill="midnightblue" stroke="midnightblue" points="1218.48,-168.9 1229.07,-168.41 1220.49,-162.2 1218.48,-168.9"/>
</g>
<!-- Node19&#45;&gt;Node9 -->
<g id="edge35" class="edge">
<title>Node19&#45;&gt;Node9</title>
<path fill="none" stroke="midnightblue" d="M1193.74,-166.85C1130.07,-156.65 1033.01,-141.1 973.21,-131.52"/>
<polygon fill="midnightblue" stroke="midnightblue" points="1193.24,-170.32 1203.66,-168.44 1194.34,-163.41 1193.24,-170.32"/>
</g>
<!-- Node20 -->
<g id="node20" class="node">
<title>Node20</title>
<g id="a_node20"><a xlink:href="structured-panoc-lbfgs_8hpp.html" target="_top" xlink:title=" ">
<polygon fill="white" stroke="black" points="1183.06,-112.5 1183.06,-131.5 1331.06,-131.5 1331.06,-112.5 1183.06,-112.5"/>
<text text-anchor="middle" x="1257.06" y="-119.5" font-family="Helvetica,sans-Serif" font-size="10.00">structured&#45;panoc&#45;lbfgs.hpp</text>
</a>
</g>
</g>
<!-- Node19&#45;&gt;Node20 -->
<g id="edge32" class="edge">
<title>Node19&#45;&gt;Node20</title>
<path fill="none" stroke="midnightblue" d="M1257.06,-157.8C1257.06,-148.91 1257.06,-138.78 1257.06,-131.75"/>
<polygon fill="midnightblue" stroke="midnightblue" points="1253.56,-158.08 1257.06,-168.08 1260.56,-158.08 1253.56,-158.08"/>
</g>
<!-- Node20&#45;&gt;Node4 -->
<g id="edge33" class="edge">
<title>Node20&#45;&gt;Node4</title>
<path fill="none" stroke="midnightblue" d="M1225.16,-108.78C1186.4,-94.33 1118.78,-70.45 1059.06,-56 972.99,-35.17 869.8,-21.55 814.9,-15.19"/>
<polygon fill="midnightblue" stroke="midnightblue" points="1224.24,-112.17 1234.83,-112.41 1226.7,-105.62 1224.24,-112.17"/>
</g>
<!-- Node21 -->
<g id="node21" class="node">
<title>Node21</title>
<g id="a_node21"><a xlink:href="structured-panoc-lbfgs_8cpp.html" target="_top" xlink:title=" ">
<polygon fill="white" stroke="black" points="1183.56,-56.5 1183.56,-75.5 1330.56,-75.5 1330.56,-56.5 1183.56,-56.5"/>
<text text-anchor="middle" x="1257.06" y="-63.5" font-family="Helvetica,sans-Serif" font-size="10.00">structured&#45;panoc&#45;lbfgs.cpp</text>
</a>
</g>
</g>
<!-- Node20&#45;&gt;Node21 -->
<g id="edge34" class="edge">
<title>Node20&#45;&gt;Node21</title>
<path fill="none" stroke="midnightblue" d="M1257.06,-101.8C1257.06,-92.91 1257.06,-82.78 1257.06,-75.75"/>
<polygon fill="midnightblue" stroke="midnightblue" points="1253.56,-102.08 1257.06,-112.08 1260.56,-102.08 1253.56,-102.08"/>
</g>
<!-- Node22&#45;&gt;Node13 -->
<g id="edge44" class="edge">
<title>Node22&#45;&gt;Node13</title>
<path fill="none" stroke="midnightblue" d="M803.53,-225.2C708.83,-213.58 533.99,-192.12 460.73,-183.13"/>
<polygon fill="midnightblue" stroke="midnightblue" points="803.2,-228.69 813.55,-226.43 804.05,-221.74 803.2,-228.69"/>
</g>
<!-- Node22&#45;&gt;Node17 -->
<g id="edge49" class="edge">
<title>Node22&#45;&gt;Node17</title>
<path fill="none" stroke="midnightblue" d="M824.24,-221.83C785.16,-211.63 728.23,-196.78 692.71,-187.52"/>
<polygon fill="midnightblue" stroke="midnightblue" points="823.7,-225.31 834.26,-224.44 825.47,-218.53 823.7,-225.31"/>
</g>
<!-- Node22&#45;&gt;Node20 -->
<g id="edge50" class="edge">
<title>Node22&#45;&gt;Node20</title>
<path fill="none" stroke="midnightblue" d="M930.65,-231.61C1053.33,-228.26 1313.04,-217.72 1340.06,-188 1361.43,-164.51 1315.71,-143 1284.02,-131.58"/>
<polygon fill="midnightblue" stroke="midnightblue" points="930.54,-228.11 920.64,-231.87 930.73,-235.11 930.54,-228.11"/>
</g>
<!-- Node23 -->
<g id="node23" class="node">
<title>Node23</title>
<g id="a_node23"><a xlink:href="specialized-lbfgs_8hpp.html" target="_top" xlink:title=" ">
<polygon fill="white" stroke="black" points="819.06,-168.5 819.06,-187.5 939.06,-187.5 939.06,-168.5 819.06,-168.5"/>
<text text-anchor="middle" x="879.06" y="-175.5" font-family="Helvetica,sans-Serif" font-size="10.00">specialized&#45;lbfgs.hpp</text>
</a>
</g>
</g>
<!-- Node22&#45;&gt;Node23 -->
<g id="edge38" class="edge">
<title>Node22&#45;&gt;Node23</title>
<path fill="none" stroke="midnightblue" d="M871.26,-214.1C873.26,-205.14 875.54,-194.86 877.12,-187.75"/>
<polygon fill="midnightblue" stroke="midnightblue" points="867.8,-213.56 869.04,-224.08 874.63,-215.08 867.8,-213.56"/>
</g>
<!-- Node22&#45;&gt;Node24 -->
<g id="edge39" class="edge">
<title>Node22&#45;&gt;Node24</title>
<path fill="none" stroke="midnightblue" d="M900.21,-220.91C928.04,-210.75 967.08,-196.51 991.72,-187.52"/>
<polygon fill="midnightblue" stroke="midnightblue" points="898.71,-217.73 890.51,-224.44 901.11,-224.3 898.71,-217.73"/>
</g>
<!-- Node22&#45;&gt;Node25 -->
<g id="edge43" class="edge">
<title>Node22&#45;&gt;Node25</title>
<path fill="none" stroke="midnightblue" d="M918.52,-222.35C969.24,-211.86 1045.53,-196.08 1090.71,-186.73"/>
<polygon fill="midnightblue" stroke="midnightblue" points="917.5,-218.99 908.42,-224.44 918.92,-225.84 917.5,-218.99"/>
</g>
<!-- Node22&#45;&gt;Node26 -->
<g id="edge45" class="edge">
<title>Node22&#45;&gt;Node26</title>
<path fill="none" stroke="midnightblue" d="M843,-219.18C825.7,-209.24 802.92,-196.15 788.13,-187.65"/>
<polygon fill="midnightblue" stroke="midnightblue" points="841.55,-222.38 851.96,-224.32 845.03,-216.31 841.55,-222.38"/>
</g>
<!-- Node24&#45;&gt;Node3 -->
<g id="edge42" class="edge">
<title>Node24&#45;&gt;Node3</title>
<path fill="none" stroke="midnightblue" d="M1012.36,-158.02C1009.19,-143.11 1002.4,-123.06 988.06,-112 950.74,-83.21 826.1,-72.84 742.21,-69.1"/>
<polygon fill="midnightblue" stroke="midnightblue" points="1008.97,-158.95 1014.15,-168.19 1015.86,-157.74 1008.97,-158.95"/>
</g>
<!-- Node24&#45;&gt;Node4 -->
<g id="edge41" class="edge">
<title>Node24&#45;&gt;Node4</title>
<path fill="none" stroke="midnightblue" d="M1018.09,-158.5C1019.35,-144.44 1018.72,-125.32 1009.06,-112 963.03,-48.45 868.36,-24.44 814.95,-15.72"/>
<polygon fill="midnightblue" stroke="midnightblue" points="1014.61,-158.11 1016.81,-168.47 1021.55,-159 1014.61,-158.11"/>
</g>
<!-- Node24&#45;&gt;Node9 -->
<g id="edge40" class="edge">
<title>Node24&#45;&gt;Node9</title>
<path fill="none" stroke="midnightblue" d="M990.75,-163.18C973.26,-153.24 950.23,-140.15 935.29,-131.65"/>
<polygon fill="midnightblue" stroke="midnightblue" points="989.38,-166.43 999.8,-168.32 992.84,-160.34 989.38,-166.43"/>
</g>
<!-- Node26&#45;&gt;Node3 -->
<g id="edge48" class="edge">
<title>Node26&#45;&gt;Node3</title>
<path fill="none" stroke="midnightblue" d="M779.57,-158.17C783.13,-144.23 785.19,-125.41 776.06,-112 763.02,-92.82 740.41,-81.82 718.76,-75.5"/>
<polygon fill="midnightblue" stroke="midnightblue" points="776.11,-157.52 776.57,-168.11 782.81,-159.54 776.11,-157.52"/>
</g>
<!-- Node26&#45;&gt;Node4 -->
<g id="edge47" class="edge">
<title>Node26&#45;&gt;Node4</title>
<path fill="none" stroke="midnightblue" d="M783.34,-159.63C787.56,-151.52 791.94,-141.57 794.06,-132 803.31,-90.32 786.94,-39.5 779.48,-19.58"/>
<polygon fill="midnightblue" stroke="midnightblue" points="780.24,-158 778.45,-168.44 786.36,-161.4 780.24,-158"/>
</g>
<!-- Node26&#45;&gt;Node9 -->
<g id="edge46" class="edge">
<title>Node26&#45;&gt;Node9</title>
<path fill="none" stroke="midnightblue" d="M805.99,-164.91C833.62,-154.75 872.41,-140.51 896.88,-131.52"/>
<polygon fill="midnightblue" stroke="midnightblue" points="804.54,-161.71 796.36,-168.44 806.95,-168.28 804.54,-161.71"/>
</g>
</g>
</svg>
