<?xml version="1.0" encoding="UTF-8" standalone="no"?>
<!DOCTYPE svg PUBLIC "-//W3C//DTD SVG 1.1//EN"
 "http://www.w3.org/Graphics/SVG/1.1/DTD/svg11.dtd">
<!-- Generated by graphviz version 2.43.0 (0)
 -->
<!-- Title: InnerStatsAccumulator&lt; StructuredPANOCLBFGSSolver &gt; Pages: 1 -->
<svg width="193pt" height="248pt"
 viewBox="0.00 0.00 193.00 248.00" xmlns="http://www.w3.org/2000/svg" xmlns:xlink="http://www.w3.org/1999/xlink">
<g id="graph0" class="graph" transform="scale(1 1) rotate(0) translate(4 244)">
<title>InnerStatsAccumulator&lt; StructuredPANOCLBFGSSolver &gt;</title>
<polygon fill="white" stroke="transparent" points="-4,4 -4,-244 189,-244 189,4 -4,4"/>
<!-- Node1 -->
<g id="node1" class="node">
<title>Node1</title>
<g id="a_node1"><a xlink:title=" ">
<polygon fill="#bfbfbf" stroke="black" points="0,-0.5 0,-134.5 185,-134.5 185,-0.5 0,-0.5"/>
<text text-anchor="start" x="8" y="-122.5" font-family="Helvetica,sans-Serif" font-size="10.00">InnerStatsAccumulator</text>
<text text-anchor="middle" x="92.5" y="-111.5" font-family="Helvetica,sans-Serif" font-size="10.00">&lt; StructuredPANOCLBFGSSolver &gt;</text>
<polyline fill="none" stroke="black" points="0,-104.5 185,-104.5 "/>
<text text-anchor="start" x="8" y="-92.5" font-family="Helvetica,sans-Serif" font-size="10.00">+ iterations</text>
<text text-anchor="start" x="8" y="-81.5" font-family="Helvetica,sans-Serif" font-size="10.00">+ linesearch_failures</text>
<text text-anchor="start" x="8" y="-70.5" font-family="Helvetica,sans-Serif" font-size="10.00">+ lbfgs_failures</text>
<text text-anchor="start" x="8" y="-59.5" font-family="Helvetica,sans-Serif" font-size="10.00">+ lbfgs_rejected</text>
<text text-anchor="start" x="8" y="-48.5" font-family="Helvetica,sans-Serif" font-size="10.00">+ τ_1_accepted</text>
<text text-anchor="start" x="8" y="-37.5" font-family="Helvetica,sans-Serif" font-size="10.00">+ count_τ</text>
<text text-anchor="start" x="8" y="-26.5" font-family="Helvetica,sans-Serif" font-size="10.00">+ sum_τ</text>
<polyline fill="none" stroke="black" points="0,-19.5 185,-19.5 "/>
<text text-anchor="middle" x="92.5" y="-7.5" font-family="Helvetica,sans-Serif" font-size="10.00"> </text>
</a>
</g>
</g>
<!-- Node2 -->
<g id="node2" class="node">
<title>Node2</title>
<g id="a_node2"><a xlink:title=" ">
<polygon fill="white" stroke="#bfbfbf" points="50.5,-182.5 50.5,-239.5 134.5,-239.5 134.5,-182.5 50.5,-182.5"/>
<text text-anchor="middle" x="92.5" y="-227.5" font-family="Helvetica,sans-Serif" font-size="10.00">microseconds</text>
<polyline fill="none" stroke="#bfbfbf" points="50.5,-220.5 134.5,-220.5 "/>
<text text-anchor="middle" x="92.5" y="-208.5" font-family="Helvetica,sans-Serif" font-size="10.00"> </text>
<polyline fill="none" stroke="#bfbfbf" points="50.5,-201.5 134.5,-201.5 "/>
<text text-anchor="middle" x="92.5" y="-189.5" font-family="Helvetica,sans-Serif" font-size="10.00"> </text>
</a>
</g>
</g>
<!-- Node2&#45;&gt;Node1 -->
<g id="edge1" class="edge">
<title>Node2&#45;&gt;Node1</title>
<path fill="none" stroke="#404040" d="M92.5,-182.38C92.5,-172.02 92.5,-159.66 92.5,-146.97"/>
<polygon fill="none" stroke="#404040" points="92.5,-146.75 88.5,-140.75 92.5,-134.75 96.5,-140.75 92.5,-146.75"/>
<text text-anchor="middle" x="131.5" y="-156" font-family="Helvetica,sans-Serif" font-size="10.00"> +elapsed_time</text>
</g>
</g>
</svg>
