<?xml version="1.0" encoding="UTF-8" standalone="no"?>
<!DOCTYPE svg PUBLIC "-//W3C//DTD SVG 1.1//EN"
 "http://www.w3.org/Graphics/SVG/1.1/DTD/svg11.dtd">
<!-- Generated by graphviz version 2.43.0 (0)
 -->
<!-- Title: SecondOrderPANOCSolver::ProgressInfo Pages: 1 -->
<svg width="376pt" height="584pt"
 viewBox="0.00 0.00 375.50 584.00" xmlns="http://www.w3.org/2000/svg" xmlns:xlink="http://www.w3.org/1999/xlink">
<g id="graph0" class="graph" transform="scale(1 1) rotate(0) translate(4 580)">
<title>SecondOrderPANOCSolver::ProgressInfo</title>
<polygon fill="white" stroke="transparent" points="-4,4 -4,-580 371.5,-580 371.5,4 -4,4"/>
<!-- Node1 -->
<g id="node1" class="node">
<title>Node1</title>
<g id="a_node1"><a xlink:title=" ">
<polygon fill="#bfbfbf" stroke="black" points="179,-0.5 179,-211.5 322,-211.5 322,-0.5 179,-0.5"/>
<text text-anchor="start" x="187" y="-199.5" font-family="Helvetica,sans-Serif" font-size="10.00">SecondOrderPANOCSolver</text>
<text text-anchor="middle" x="250.5" y="-188.5" font-family="Helvetica,sans-Serif" font-size="10.00">::ProgressInfo</text>
<polyline fill="none" stroke="black" points="179,-181.5 322,-181.5 "/>
<text text-anchor="start" x="187" y="-169.5" font-family="Helvetica,sans-Serif" font-size="10.00">+ k</text>
<text text-anchor="start" x="187" y="-158.5" font-family="Helvetica,sans-Serif" font-size="10.00">+ x</text>
<text text-anchor="start" x="187" y="-147.5" font-family="Helvetica,sans-Serif" font-size="10.00">+ p</text>
<text text-anchor="start" x="187" y="-136.5" font-family="Helvetica,sans-Serif" font-size="10.00">+ norm_sq_p</text>
<text text-anchor="start" x="187" y="-125.5" font-family="Helvetica,sans-Serif" font-size="10.00">+ x_hat</text>
<text text-anchor="start" x="187" y="-114.5" font-family="Helvetica,sans-Serif" font-size="10.00">+ ψ</text>
<text text-anchor="start" x="187" y="-103.5" font-family="Helvetica,sans-Serif" font-size="10.00">+ grad_ψ</text>
<text text-anchor="start" x="187" y="-92.5" font-family="Helvetica,sans-Serif" font-size="10.00">+ ψ_hat</text>
<text text-anchor="start" x="187" y="-81.5" font-family="Helvetica,sans-Serif" font-size="10.00">+ grad_ψ_hat</text>
<text text-anchor="start" x="187" y="-70.5" font-family="Helvetica,sans-Serif" font-size="10.00">+ L</text>
<text text-anchor="start" x="187" y="-59.5" font-family="Helvetica,sans-Serif" font-size="10.00">+ γ</text>
<text text-anchor="start" x="187" y="-48.5" font-family="Helvetica,sans-Serif" font-size="10.00">+ ε</text>
<text text-anchor="start" x="187" y="-37.5" font-family="Helvetica,sans-Serif" font-size="10.00">+ Σ</text>
<text text-anchor="start" x="187" y="-26.5" font-family="Helvetica,sans-Serif" font-size="10.00">+ y</text>
<polyline fill="none" stroke="black" points="179,-19.5 322,-19.5 "/>
<text text-anchor="middle" x="250.5" y="-7.5" font-family="Helvetica,sans-Serif" font-size="10.00"> </text>
</a>
</g>
</g>
<!-- Node2 -->
<g id="node2" class="node">
<title>Node2</title>
<g id="a_node2"><a xlink:href="namespacepa.html#structpa_1_1SecondOrderPANOCParams" target="_top" xlink:title="Tuning parameters for the second order PANOC algorithm.">
<polygon fill="white" stroke="black" points="96,-259.5 96,-426.5 261,-426.5 261,-259.5 96,-259.5"/>
<text text-anchor="middle" x="178.5" y="-414.5" font-family="Helvetica,sans-Serif" font-size="10.00">SecondOrderPANOCParams</text>
<polyline fill="none" stroke="black" points="96,-407.5 261,-407.5 "/>
<text text-anchor="start" x="104" y="-395.5" font-family="Helvetica,sans-Serif" font-size="10.00">+ max_iter</text>
<text text-anchor="start" x="104" y="-384.5" font-family="Helvetica,sans-Serif" font-size="10.00">+ τ_min</text>
<text text-anchor="start" x="104" y="-373.5" font-family="Helvetica,sans-Serif" font-size="10.00">+ γ_min</text>
<text text-anchor="start" x="104" y="-362.5" font-family="Helvetica,sans-Serif" font-size="10.00">+ stop_crit</text>
<text text-anchor="start" x="104" y="-351.5" font-family="Helvetica,sans-Serif" font-size="10.00">+ max_no_progress</text>
<text text-anchor="start" x="104" y="-340.5" font-family="Helvetica,sans-Serif" font-size="10.00">+ print_interval</text>
<text text-anchor="start" x="104" y="-329.5" font-family="Helvetica,sans-Serif" font-size="10.00">+ quadratic_upperbound</text>
<text text-anchor="start" x="104" y="-318.5" font-family="Helvetica,sans-Serif" font-size="10.00">_tolerance_factor</text>
<text text-anchor="start" x="104" y="-307.5" font-family="Helvetica,sans-Serif" font-size="10.00">+ update_lipschitz_in</text>
<text text-anchor="start" x="104" y="-296.5" font-family="Helvetica,sans-Serif" font-size="10.00">_linesearch</text>
<text text-anchor="start" x="104" y="-285.5" font-family="Helvetica,sans-Serif" font-size="10.00">+ alternative_linesearch_cond</text>
<polyline fill="none" stroke="black" points="96,-278.5 261,-278.5 "/>
<text text-anchor="middle" x="178.5" y="-266.5" font-family="Helvetica,sans-Serif" font-size="10.00"> </text>
</a>
</g>
</g>
<!-- Node2&#45;&gt;Node1 -->
<g id="edge1" class="edge">
<title>Node2&#45;&gt;Node1</title>
<path fill="none" stroke="#404040" d="M203.78,-259.48C207.38,-247.75 211.13,-235.51 214.87,-223.29"/>
<polygon fill="none" stroke="#404040" points="214.94,-223.08 212.87,-216.17 218.45,-211.6 220.52,-218.51 214.94,-223.08"/>
<text text-anchor="middle" x="237" y="-233" font-family="Helvetica,sans-Serif" font-size="10.00"> +params</text>
</g>
<!-- Node3 -->
<g id="node3" class="node">
<title>Node3</title>
<g id="a_node3"><a xlink:href="namespacepa.html#structpa_1_1LipschitzEstimateParams" target="_top" xlink:title=" ">
<polygon fill="white" stroke="black" points="0,-485.5 0,-575.5 139,-575.5 139,-485.5 0,-485.5"/>
<text text-anchor="middle" x="69.5" y="-563.5" font-family="Helvetica,sans-Serif" font-size="10.00">LipschitzEstimateParams</text>
<polyline fill="none" stroke="black" points="0,-556.5 139,-556.5 "/>
<text text-anchor="start" x="8" y="-544.5" font-family="Helvetica,sans-Serif" font-size="10.00">+ L₀</text>
<text text-anchor="start" x="8" y="-533.5" font-family="Helvetica,sans-Serif" font-size="10.00">+ ε</text>
<text text-anchor="start" x="8" y="-522.5" font-family="Helvetica,sans-Serif" font-size="10.00">+ δ</text>
<text text-anchor="start" x="8" y="-511.5" font-family="Helvetica,sans-Serif" font-size="10.00">+ Lγ_factor</text>
<polyline fill="none" stroke="black" points="0,-504.5 139,-504.5 "/>
<text text-anchor="middle" x="69.5" y="-492.5" font-family="Helvetica,sans-Serif" font-size="10.00"> </text>
</a>
</g>
</g>
<!-- Node3&#45;&gt;Node2 -->
<g id="edge2" class="edge">
<title>Node3&#45;&gt;Node2</title>
<path fill="none" stroke="#404040" d="M95.61,-485.07C104.16,-470.51 114.01,-453.75 123.86,-436.98"/>
<polygon fill="none" stroke="#404040" points="123.91,-436.9 123.5,-429.7 129.99,-426.56 130.4,-433.76 123.91,-436.9"/>
<text text-anchor="middle" x="145" y="-453.5" font-family="Helvetica,sans-Serif" font-size="10.00"> +Lipschitz</text>
</g>
<!-- Node4 -->
<g id="node4" class="node">
<title>Node4</title>
<g id="a_node4"><a xlink:title=" ">
<polygon fill="white" stroke="#bfbfbf" points="157.5,-502 157.5,-559 241.5,-559 241.5,-502 157.5,-502"/>
<text text-anchor="middle" x="199.5" y="-547" font-family="Helvetica,sans-Serif" font-size="10.00">microseconds</text>
<polyline fill="none" stroke="#bfbfbf" points="157.5,-540 241.5,-540 "/>
<text text-anchor="middle" x="199.5" y="-528" font-family="Helvetica,sans-Serif" font-size="10.00"> </text>
<polyline fill="none" stroke="#bfbfbf" points="157.5,-521 241.5,-521 "/>
<text text-anchor="middle" x="199.5" y="-509" font-family="Helvetica,sans-Serif" font-size="10.00"> </text>
</a>
</g>
</g>
<!-- Node4&#45;&gt;Node2 -->
<g id="edge3" class="edge">
<title>Node4&#45;&gt;Node2</title>
<path fill="none" stroke="#404040" d="M196.36,-501.73C194.43,-484.69 191.83,-461.76 189.22,-438.68"/>
<polygon fill="none" stroke="#404040" points="189.2,-438.55 184.55,-433.04 187.85,-426.63 192.5,-432.14 189.2,-438.55"/>
<text text-anchor="middle" x="223" y="-453.5" font-family="Helvetica,sans-Serif" font-size="10.00"> +max_time</text>
</g>
<!-- Node5 -->
<g id="node5" class="node">
<title>Node5</title>
<g id="a_node5"><a xlink:href="structpa_1_1Problem.html" target="_top" xlink:title="Problem description for minimization problems.">
<polygon fill="white" stroke="black" points="279.5,-259.5 279.5,-426.5 367.5,-426.5 367.5,-259.5 279.5,-259.5"/>
<text text-anchor="middle" x="323.5" y="-414.5" font-family="Helvetica,sans-Serif" font-size="10.00">Problem</text>
<polyline fill="none" stroke="black" points="279.5,-407.5 367.5,-407.5 "/>
<text text-anchor="start" x="287.5" y="-395.5" font-family="Helvetica,sans-Serif" font-size="10.00">+ n</text>
<text text-anchor="start" x="287.5" y="-384.5" font-family="Helvetica,sans-Serif" font-size="10.00">+ m</text>
<text text-anchor="start" x="287.5" y="-373.5" font-family="Helvetica,sans-Serif" font-size="10.00">+ f</text>
<text text-anchor="start" x="287.5" y="-362.5" font-family="Helvetica,sans-Serif" font-size="10.00">+ grad_f</text>
<text text-anchor="start" x="287.5" y="-351.5" font-family="Helvetica,sans-Serif" font-size="10.00">+ g</text>
<text text-anchor="start" x="287.5" y="-340.5" font-family="Helvetica,sans-Serif" font-size="10.00">+ grad_g_prod</text>
<text text-anchor="start" x="287.5" y="-329.5" font-family="Helvetica,sans-Serif" font-size="10.00">+ grad_gi</text>
<text text-anchor="start" x="287.5" y="-318.5" font-family="Helvetica,sans-Serif" font-size="10.00">+ hess_L_prod</text>
<text text-anchor="start" x="287.5" y="-307.5" font-family="Helvetica,sans-Serif" font-size="10.00">+ hess_L</text>
<polyline fill="none" stroke="black" points="279.5,-300.5 367.5,-300.5 "/>
<text text-anchor="start" x="287.5" y="-288.5" font-family="Helvetica,sans-Serif" font-size="10.00">+ Problem()</text>
<text text-anchor="start" x="287.5" y="-277.5" font-family="Helvetica,sans-Serif" font-size="10.00">+ Problem()</text>
<text text-anchor="start" x="287.5" y="-266.5" font-family="Helvetica,sans-Serif" font-size="10.00">+ Problem()</text>
</a>
</g>
</g>
<!-- Node5&#45;&gt;Node1 -->
<g id="edge4" class="edge">
<title>Node5&#45;&gt;Node1</title>
<path fill="none" stroke="#404040" d="M297.87,-259.48C294.22,-247.75 290.42,-235.51 286.63,-223.29"/>
<polygon fill="none" stroke="#404040" points="286.55,-223.06 280.95,-218.52 282.99,-211.6 288.59,-216.14 286.55,-223.06"/>
<text text-anchor="middle" x="317.5" y="-233" font-family="Helvetica,sans-Serif" font-size="10.00"> +problem</text>
</g>
<!-- Node6 -->
<g id="node6" class="node">
<title>Node6</title>
<g id="a_node6"><a xlink:href="namespacepa.html#structpa_1_1Box" target="_top" xlink:title=" ">
<polygon fill="white" stroke="black" points="280.5,-496.5 280.5,-564.5 366.5,-564.5 366.5,-496.5 280.5,-496.5"/>
<text text-anchor="middle" x="323.5" y="-552.5" font-family="Helvetica,sans-Serif" font-size="10.00">Box</text>
<polyline fill="none" stroke="black" points="280.5,-545.5 366.5,-545.5 "/>
<text text-anchor="start" x="288.5" y="-533.5" font-family="Helvetica,sans-Serif" font-size="10.00">+ upperbound</text>
<text text-anchor="start" x="288.5" y="-522.5" font-family="Helvetica,sans-Serif" font-size="10.00">+ lowerbound</text>
<polyline fill="none" stroke="black" points="280.5,-515.5 366.5,-515.5 "/>
<text text-anchor="middle" x="323.5" y="-503.5" font-family="Helvetica,sans-Serif" font-size="10.00"> </text>
</a>
</g>
</g>
<!-- Node6&#45;&gt;Node5 -->
<g id="edge5" class="edge">
<title>Node6&#45;&gt;Node5</title>
<path fill="none" stroke="#404040" d="M323.5,-496.34C323.5,-480.05 323.5,-459.5 323.5,-438.82"/>
<polygon fill="none" stroke="#404040" points="323.5,-438.66 319.5,-432.66 323.5,-426.66 327.5,-432.66 323.5,-438.66"/>
<text text-anchor="middle" x="333" y="-459" font-family="Helvetica,sans-Serif" font-size="10.00"> +C</text>
<text text-anchor="middle" x="333" y="-448" font-family="Helvetica,sans-Serif" font-size="10.00">+D</text>
</g>
</g>
</svg>
