<?xml version="1.0" encoding="UTF-8" standalone="no"?>
<!DOCTYPE svg PUBLIC "-//W3C//DTD SVG 1.1//EN"
 "http://www.w3.org/Graphics/SVG/1.1/DTD/svg11.dtd">
<!-- Generated by graphviz version 2.43.0 (0)
 -->
<!-- Title: PGAParams Pages: 1 -->
<svg width="250pt" height="259pt"
 viewBox="0.00 0.00 249.50 259.00" xmlns="http://www.w3.org/2000/svg" xmlns:xlink="http://www.w3.org/1999/xlink">
<g id="graph0" class="graph" transform="scale(1 1) rotate(0) translate(4 255)">
<title>PGAParams</title>
<polygon fill="white" stroke="transparent" points="-4,4 -4,-255 245.5,-255 245.5,4 -4,4"/>
<!-- Node1 -->
<g id="node1" class="node">
<title>Node1</title>
<g id="a_node1"><a xlink:title=" ">
<polygon fill="#bfbfbf" stroke="black" points="66,-0.5 66,-112.5 203,-112.5 203,-0.5 66,-0.5"/>
<text text-anchor="middle" x="134.5" y="-100.5" font-family="Helvetica,sans-Serif" font-size="10.00">PGAParams</text>
<polyline fill="none" stroke="black" points="66,-93.5 203,-93.5 "/>
<text text-anchor="start" x="74" y="-81.5" font-family="Helvetica,sans-Serif" font-size="10.00">+ max_iter</text>
<text text-anchor="start" x="74" y="-70.5" font-family="Helvetica,sans-Serif" font-size="10.00">+ γ_min</text>
<text text-anchor="start" x="74" y="-59.5" font-family="Helvetica,sans-Serif" font-size="10.00">+ stop_crit</text>
<text text-anchor="start" x="74" y="-48.5" font-family="Helvetica,sans-Serif" font-size="10.00">+ print_interval</text>
<text text-anchor="start" x="74" y="-37.5" font-family="Helvetica,sans-Serif" font-size="10.00">+ quadratic_upperbound</text>
<text text-anchor="start" x="74" y="-26.5" font-family="Helvetica,sans-Serif" font-size="10.00">_tolerance_factor</text>
<polyline fill="none" stroke="black" points="66,-19.5 203,-19.5 "/>
<text text-anchor="middle" x="134.5" y="-7.5" font-family="Helvetica,sans-Serif" font-size="10.00"> </text>
</a>
</g>
</g>
<!-- Node2 -->
<g id="node2" class="node">
<title>Node2</title>
<g id="a_node2"><a xlink:href="namespacepa.html#structpa_1_1LipschitzEstimateParams" target="_top" xlink:title=" ">
<polygon fill="white" stroke="black" points="0,-160.5 0,-250.5 139,-250.5 139,-160.5 0,-160.5"/>
<text text-anchor="middle" x="69.5" y="-238.5" font-family="Helvetica,sans-Serif" font-size="10.00">LipschitzEstimateParams</text>
<polyline fill="none" stroke="black" points="0,-231.5 139,-231.5 "/>
<text text-anchor="start" x="8" y="-219.5" font-family="Helvetica,sans-Serif" font-size="10.00">+ L₀</text>
<text text-anchor="start" x="8" y="-208.5" font-family="Helvetica,sans-Serif" font-size="10.00">+ ε</text>
<text text-anchor="start" x="8" y="-197.5" font-family="Helvetica,sans-Serif" font-size="10.00">+ δ</text>
<text text-anchor="start" x="8" y="-186.5" font-family="Helvetica,sans-Serif" font-size="10.00">+ Lγ_factor</text>
<polyline fill="none" stroke="black" points="0,-179.5 139,-179.5 "/>
<text text-anchor="middle" x="69.5" y="-167.5" font-family="Helvetica,sans-Serif" font-size="10.00"> </text>
</a>
</g>
</g>
<!-- Node2&#45;&gt;Node1 -->
<g id="edge1" class="edge">
<title>Node2&#45;&gt;Node1</title>
<path fill="none" stroke="#404040" d="M89,-160.4C94.1,-148.87 99.71,-136.19 105.19,-123.79"/>
<polygon fill="none" stroke="#404040" points="105.32,-123.49 104.09,-116.38 110.17,-112.52 111.41,-119.62 105.32,-123.49"/>
<text text-anchor="middle" x="130" y="-134" font-family="Helvetica,sans-Serif" font-size="10.00"> +Lipschitz</text>
</g>
<!-- Node3 -->
<g id="node3" class="node">
<title>Node3</title>
<g id="a_node3"><a xlink:title=" ">
<polygon fill="white" stroke="#bfbfbf" points="157.5,-177 157.5,-234 241.5,-234 241.5,-177 157.5,-177"/>
<text text-anchor="middle" x="199.5" y="-222" font-family="Helvetica,sans-Serif" font-size="10.00">microseconds</text>
<polyline fill="none" stroke="#bfbfbf" points="157.5,-215 241.5,-215 "/>
<text text-anchor="middle" x="199.5" y="-203" font-family="Helvetica,sans-Serif" font-size="10.00"> </text>
<polyline fill="none" stroke="#bfbfbf" points="157.5,-196 241.5,-196 "/>
<text text-anchor="middle" x="199.5" y="-184" font-family="Helvetica,sans-Serif" font-size="10.00"> </text>
</a>
</g>
</g>
<!-- Node3&#45;&gt;Node1 -->
<g id="edge2" class="edge">
<title>Node3&#45;&gt;Node1</title>
<path fill="none" stroke="#404040" d="M187.27,-176.85C180.63,-161.83 172.11,-142.57 163.87,-123.91"/>
<polygon fill="none" stroke="#404040" points="163.78,-123.71 157.69,-119.84 158.92,-112.73 165.01,-116.6 163.78,-123.71"/>
<text text-anchor="middle" x="201" y="-134" font-family="Helvetica,sans-Serif" font-size="10.00"> +max_time</text>
</g>
</g>
</svg>
