<?xml version="1.0" encoding="UTF-8" standalone="no"?>
<!DOCTYPE svg PUBLIC "-//W3C//DTD SVG 1.1//EN"
 "http://www.w3.org/Graphics/SVG/1.1/DTD/svg11.dtd">
<!-- Generated by graphviz version 2.43.0 (0)
 -->
<!-- Title: GAAPGAParams Pages: 1 -->
<svg width="250pt" height="292pt"
 viewBox="0.00 0.00 249.50 292.00" xmlns="http://www.w3.org/2000/svg" xmlns:xlink="http://www.w3.org/1999/xlink">
<g id="graph0" class="graph" transform="scale(1 1) rotate(0) translate(4 288)">
<title>GAAPGAParams</title>
<polygon fill="white" stroke="transparent" points="-4,4 -4,-288 245.5,-288 245.5,4 -4,4"/>
<!-- Node1 -->
<g id="node1" class="node">
<title>Node1</title>
<g id="a_node1"><a xlink:title=" ">
<polygon fill="#bfbfbf" stroke="black" points="64,-0.5 64,-145.5 205,-145.5 205,-0.5 64,-0.5"/>
<text text-anchor="middle" x="134.5" y="-133.5" font-family="Helvetica,sans-Serif" font-size="10.00">GAAPGAParams</text>
<polyline fill="none" stroke="black" points="64,-126.5 205,-126.5 "/>
<text text-anchor="start" x="72" y="-114.5" font-family="Helvetica,sans-Serif" font-size="10.00">+ limitedqr_mem</text>
<text text-anchor="start" x="72" y="-103.5" font-family="Helvetica,sans-Serif" font-size="10.00">+ max_iter</text>
<text text-anchor="start" x="72" y="-92.5" font-family="Helvetica,sans-Serif" font-size="10.00">+ γ_min</text>
<text text-anchor="start" x="72" y="-81.5" font-family="Helvetica,sans-Serif" font-size="10.00">+ stop_crit</text>
<text text-anchor="start" x="72" y="-70.5" font-family="Helvetica,sans-Serif" font-size="10.00">+ print_interval</text>
<text text-anchor="start" x="72" y="-59.5" font-family="Helvetica,sans-Serif" font-size="10.00">+ quadratic_upperbound</text>
<text text-anchor="start" x="72" y="-48.5" font-family="Helvetica,sans-Serif" font-size="10.00">_tolerance_factor</text>
<text text-anchor="start" x="72" y="-37.5" font-family="Helvetica,sans-Serif" font-size="10.00">+ max_no_progress</text>
<text text-anchor="start" x="72" y="-26.5" font-family="Helvetica,sans-Serif" font-size="10.00">+ full_flush_on_γ_change</text>
<polyline fill="none" stroke="black" points="64,-19.5 205,-19.5 "/>
<text text-anchor="middle" x="134.5" y="-7.5" font-family="Helvetica,sans-Serif" font-size="10.00"> </text>
</a>
</g>
</g>
<!-- Node2 -->
<g id="node2" class="node">
<title>Node2</title>
<g id="a_node2"><a xlink:href="namespacepa.html#structpa_1_1LipschitzEstimateParams" target="_top" xlink:title=" ">
<polygon fill="white" stroke="black" points="0,-193.5 0,-283.5 139,-283.5 139,-193.5 0,-193.5"/>
<text text-anchor="middle" x="69.5" y="-271.5" font-family="Helvetica,sans-Serif" font-size="10.00">LipschitzEstimateParams</text>
<polyline fill="none" stroke="black" points="0,-264.5 139,-264.5 "/>
<text text-anchor="start" x="8" y="-252.5" font-family="Helvetica,sans-Serif" font-size="10.00">+ L₀</text>
<text text-anchor="start" x="8" y="-241.5" font-family="Helvetica,sans-Serif" font-size="10.00">+ ε</text>
<text text-anchor="start" x="8" y="-230.5" font-family="Helvetica,sans-Serif" font-size="10.00">+ δ</text>
<text text-anchor="start" x="8" y="-219.5" font-family="Helvetica,sans-Serif" font-size="10.00">+ Lγ_factor</text>
<polyline fill="none" stroke="black" points="0,-212.5 139,-212.5 "/>
<text text-anchor="middle" x="69.5" y="-200.5" font-family="Helvetica,sans-Serif" font-size="10.00"> </text>
</a>
</g>
</g>
<!-- Node2&#45;&gt;Node1 -->
<g id="edge1" class="edge">
<title>Node2&#45;&gt;Node1</title>
<path fill="none" stroke="#404040" d="M87.09,-193.25C91.55,-182.03 96.49,-169.6 101.45,-157.13"/>
<polygon fill="none" stroke="#404040" points="101.56,-156.85 100.06,-149.8 105.99,-145.7 107.49,-152.76 101.56,-156.85"/>
<text text-anchor="middle" x="126" y="-167" font-family="Helvetica,sans-Serif" font-size="10.00"> +Lipschitz</text>
</g>
<!-- Node3 -->
<g id="node3" class="node">
<title>Node3</title>
<g id="a_node3"><a xlink:title=" ">
<polygon fill="white" stroke="#bfbfbf" points="157.5,-210 157.5,-267 241.5,-267 241.5,-210 157.5,-210"/>
<text text-anchor="middle" x="199.5" y="-255" font-family="Helvetica,sans-Serif" font-size="10.00">microseconds</text>
<polyline fill="none" stroke="#bfbfbf" points="157.5,-248 241.5,-248 "/>
<text text-anchor="middle" x="199.5" y="-236" font-family="Helvetica,sans-Serif" font-size="10.00"> </text>
<polyline fill="none" stroke="#bfbfbf" points="157.5,-229 241.5,-229 "/>
<text text-anchor="middle" x="199.5" y="-217" font-family="Helvetica,sans-Serif" font-size="10.00"> </text>
</a>
</g>
</g>
<!-- Node3&#45;&gt;Node1 -->
<g id="edge2" class="edge">
<title>Node3&#45;&gt;Node1</title>
<path fill="none" stroke="#404040" d="M188.47,-209.76C182.6,-194.99 175.03,-175.95 167.43,-156.84"/>
<polygon fill="none" stroke="#404040" points="167.4,-156.76 161.47,-152.66 162.97,-145.61 168.9,-149.7 167.4,-156.76"/>
<text text-anchor="middle" x="203" y="-167" font-family="Helvetica,sans-Serif" font-size="10.00"> +max_time</text>
</g>
</g>
</svg>
