<?xml version="1.0" encoding="UTF-8" standalone="no"?>
<!DOCTYPE svg PUBLIC "-//W3C//DTD SVG 1.1//EN"
 "http://www.w3.org/Graphics/SVG/1.1/DTD/svg11.dtd">
<!-- Generated by graphviz version 2.43.0 (0)
 -->
<!-- Title: StructuredPANOCLBFGSProgressInfo Pages: 1 -->
<svg width="376pt" height="650pt"
 viewBox="0.00 0.00 375.50 650.00" xmlns="http://www.w3.org/2000/svg" xmlns:xlink="http://www.w3.org/1999/xlink">
<g id="graph0" class="graph" transform="scale(1 1) rotate(0) translate(4 646)">
<title>StructuredPANOCLBFGSProgressInfo</title>
<polygon fill="white" stroke="transparent" points="-4,4 -4,-646 371.5,-646 371.5,4 -4,4"/>
<!-- Node1 -->
<g id="node1" class="node">
<title>Node1</title>
<g id="a_node1"><a xlink:title=" ">
<polygon fill="#bfbfbf" stroke="black" points="154,-0.5 154,-222.5 347,-222.5 347,-0.5 154,-0.5"/>
<text text-anchor="middle" x="250.5" y="-210.5" font-family="Helvetica,sans-Serif" font-size="10.00">StructuredPANOCLBFGSProgressInfo</text>
<polyline fill="none" stroke="black" points="154,-203.5 347,-203.5 "/>
<text text-anchor="start" x="162" y="-191.5" font-family="Helvetica,sans-Serif" font-size="10.00">+ k</text>
<text text-anchor="start" x="162" y="-180.5" font-family="Helvetica,sans-Serif" font-size="10.00">+ x</text>
<text text-anchor="start" x="162" y="-169.5" font-family="Helvetica,sans-Serif" font-size="10.00">+ p</text>
<text text-anchor="start" x="162" y="-158.5" font-family="Helvetica,sans-Serif" font-size="10.00">+ norm_sq_p</text>
<text text-anchor="start" x="162" y="-147.5" font-family="Helvetica,sans-Serif" font-size="10.00">+ x_hat</text>
<text text-anchor="start" x="162" y="-136.5" font-family="Helvetica,sans-Serif" font-size="10.00">+ φγ</text>
<text text-anchor="start" x="162" y="-125.5" font-family="Helvetica,sans-Serif" font-size="10.00">+ ψ</text>
<text text-anchor="start" x="162" y="-114.5" font-family="Helvetica,sans-Serif" font-size="10.00">+ grad_ψ</text>
<text text-anchor="start" x="162" y="-103.5" font-family="Helvetica,sans-Serif" font-size="10.00">+ ψ_hat</text>
<text text-anchor="start" x="162" y="-92.5" font-family="Helvetica,sans-Serif" font-size="10.00">+ grad_ψ_hat</text>
<text text-anchor="start" x="162" y="-81.5" font-family="Helvetica,sans-Serif" font-size="10.00">+ L</text>
<text text-anchor="start" x="162" y="-70.5" font-family="Helvetica,sans-Serif" font-size="10.00">+ γ</text>
<text text-anchor="start" x="162" y="-59.5" font-family="Helvetica,sans-Serif" font-size="10.00">+ τ</text>
<text text-anchor="start" x="162" y="-48.5" font-family="Helvetica,sans-Serif" font-size="10.00">+ ε</text>
<text text-anchor="start" x="162" y="-37.5" font-family="Helvetica,sans-Serif" font-size="10.00">+ Σ</text>
<text text-anchor="start" x="162" y="-26.5" font-family="Helvetica,sans-Serif" font-size="10.00">+ y</text>
<polyline fill="none" stroke="black" points="154,-19.5 347,-19.5 "/>
<text text-anchor="middle" x="250.5" y="-7.5" font-family="Helvetica,sans-Serif" font-size="10.00"> </text>
</a>
</g>
</g>
<!-- Node2 -->
<g id="node2" class="node">
<title>Node2</title>
<g id="a_node2"><a xlink:href="namespacepa.html#structpa_1_1StructuredPANOCLBFGSParams" target="_top" xlink:title="Tuning parameters for the second order PANOC algorithm.">
<polygon fill="white" stroke="black" points="93.5,-270.5 93.5,-492.5 261.5,-492.5 261.5,-270.5 93.5,-270.5"/>
<text text-anchor="middle" x="177.5" y="-480.5" font-family="Helvetica,sans-Serif" font-size="10.00">StructuredPANOCLBFGSParams</text>
<polyline fill="none" stroke="black" points="93.5,-473.5 261.5,-473.5 "/>
<text text-anchor="start" x="101.5" y="-461.5" font-family="Helvetica,sans-Serif" font-size="10.00">+ max_iter</text>
<text text-anchor="start" x="101.5" y="-450.5" font-family="Helvetica,sans-Serif" font-size="10.00">+ τ_min</text>
<text text-anchor="start" x="101.5" y="-439.5" font-family="Helvetica,sans-Serif" font-size="10.00">+ γ_min</text>
<text text-anchor="start" x="101.5" y="-428.5" font-family="Helvetica,sans-Serif" font-size="10.00">+ nonmonotone_linesearch</text>
<text text-anchor="start" x="101.5" y="-417.5" font-family="Helvetica,sans-Serif" font-size="10.00">+ stop_crit</text>
<text text-anchor="start" x="101.5" y="-406.5" font-family="Helvetica,sans-Serif" font-size="10.00">+ max_no_progress</text>
<text text-anchor="start" x="101.5" y="-395.5" font-family="Helvetica,sans-Serif" font-size="10.00">+ print_interval</text>
<text text-anchor="start" x="101.5" y="-384.5" font-family="Helvetica,sans-Serif" font-size="10.00">+ quadratic_upperbound</text>
<text text-anchor="start" x="101.5" y="-373.5" font-family="Helvetica,sans-Serif" font-size="10.00">_tolerance_factor</text>
<text text-anchor="start" x="101.5" y="-362.5" font-family="Helvetica,sans-Serif" font-size="10.00">+ update_lipschitz_in</text>
<text text-anchor="start" x="101.5" y="-351.5" font-family="Helvetica,sans-Serif" font-size="10.00">_linesearch</text>
<text text-anchor="start" x="101.5" y="-340.5" font-family="Helvetica,sans-Serif" font-size="10.00">+ alternative_linesearch_cond</text>
<text text-anchor="start" x="101.5" y="-329.5" font-family="Helvetica,sans-Serif" font-size="10.00">+ hessian_vec_finited</text>
<text text-anchor="start" x="101.5" y="-318.5" font-family="Helvetica,sans-Serif" font-size="10.00">_differences</text>
<text text-anchor="start" x="101.5" y="-307.5" font-family="Helvetica,sans-Serif" font-size="10.00">+ full_augmented_hessian</text>
<text text-anchor="start" x="101.5" y="-296.5" font-family="Helvetica,sans-Serif" font-size="10.00">+ lbfgs_stepsize</text>
<polyline fill="none" stroke="black" points="93.5,-289.5 261.5,-289.5 "/>
<text text-anchor="middle" x="177.5" y="-277.5" font-family="Helvetica,sans-Serif" font-size="10.00"> </text>
</a>
</g>
</g>
<!-- Node2&#45;&gt;Node1 -->
<g id="edge1" class="edge">
<title>Node2&#45;&gt;Node1</title>
<path fill="none" stroke="#404040" d="M207.51,-270.33C210.72,-258.53 214.01,-246.47 217.26,-234.54"/>
<polygon fill="none" stroke="#404040" points="217.34,-234.25 215.05,-227.41 220.49,-222.67 222.77,-229.51 217.34,-234.25"/>
<text text-anchor="middle" x="239" y="-244" font-family="Helvetica,sans-Serif" font-size="10.00"> +params</text>
</g>
<!-- Node3 -->
<g id="node3" class="node">
<title>Node3</title>
<g id="a_node3"><a xlink:href="namespacepa.html#structpa_1_1LipschitzEstimateParams" target="_top" xlink:title=" ">
<polygon fill="white" stroke="black" points="0,-551.5 0,-641.5 139,-641.5 139,-551.5 0,-551.5"/>
<text text-anchor="middle" x="69.5" y="-629.5" font-family="Helvetica,sans-Serif" font-size="10.00">LipschitzEstimateParams</text>
<polyline fill="none" stroke="black" points="0,-622.5 139,-622.5 "/>
<text text-anchor="start" x="8" y="-610.5" font-family="Helvetica,sans-Serif" font-size="10.00">+ L₀</text>
<text text-anchor="start" x="8" y="-599.5" font-family="Helvetica,sans-Serif" font-size="10.00">+ ε</text>
<text text-anchor="start" x="8" y="-588.5" font-family="Helvetica,sans-Serif" font-size="10.00">+ δ</text>
<text text-anchor="start" x="8" y="-577.5" font-family="Helvetica,sans-Serif" font-size="10.00">+ Lγ_factor</text>
<polyline fill="none" stroke="black" points="0,-570.5 139,-570.5 "/>
<text text-anchor="middle" x="69.5" y="-558.5" font-family="Helvetica,sans-Serif" font-size="10.00"> </text>
</a>
</g>
</g>
<!-- Node3&#45;&gt;Node2 -->
<g id="edge2" class="edge">
<title>Node3&#45;&gt;Node2</title>
<path fill="none" stroke="#404040" d="M91.88,-551.37C99.02,-537.27 107.31,-520.93 115.86,-504.07"/>
<polygon fill="none" stroke="#404040" points="116.08,-503.64 115.22,-496.48 121.5,-492.94 122.36,-500.1 116.08,-503.64"/>
<text text-anchor="middle" x="139" y="-519.5" font-family="Helvetica,sans-Serif" font-size="10.00"> +Lipschitz</text>
</g>
<!-- Node4 -->
<g id="node4" class="node">
<title>Node4</title>
<g id="a_node4"><a xlink:title=" ">
<polygon fill="white" stroke="#bfbfbf" points="157.5,-568 157.5,-625 241.5,-625 241.5,-568 157.5,-568"/>
<text text-anchor="middle" x="199.5" y="-613" font-family="Helvetica,sans-Serif" font-size="10.00">microseconds</text>
<polyline fill="none" stroke="#bfbfbf" points="157.5,-606 241.5,-606 "/>
<text text-anchor="middle" x="199.5" y="-594" font-family="Helvetica,sans-Serif" font-size="10.00"> </text>
<polyline fill="none" stroke="#bfbfbf" points="157.5,-587 241.5,-587 "/>
<text text-anchor="middle" x="199.5" y="-575" font-family="Helvetica,sans-Serif" font-size="10.00"> </text>
</a>
</g>
</g>
<!-- Node4&#45;&gt;Node2 -->
<g id="edge3" class="edge">
<title>Node4&#45;&gt;Node2</title>
<path fill="none" stroke="#404040" d="M196.62,-567.65C194.9,-550.97 192.58,-528.45 190.14,-504.88"/>
<polygon fill="none" stroke="#404040" points="190.13,-504.8 185.54,-499.24 188.9,-492.87 193.49,-498.42 190.13,-504.8"/>
<text text-anchor="middle" x="224" y="-519.5" font-family="Helvetica,sans-Serif" font-size="10.00"> +max_time</text>
</g>
<!-- Node5 -->
<g id="node5" class="node">
<title>Node5</title>
<g id="a_node5"><a xlink:href="structpa_1_1Problem.html" target="_top" xlink:title="Problem description for minimization problems.">
<polygon fill="white" stroke="black" points="279.5,-298 279.5,-465 367.5,-465 367.5,-298 279.5,-298"/>
<text text-anchor="middle" x="323.5" y="-453" font-family="Helvetica,sans-Serif" font-size="10.00">Problem</text>
<polyline fill="none" stroke="black" points="279.5,-446 367.5,-446 "/>
<text text-anchor="start" x="287.5" y="-434" font-family="Helvetica,sans-Serif" font-size="10.00">+ n</text>
<text text-anchor="start" x="287.5" y="-423" font-family="Helvetica,sans-Serif" font-size="10.00">+ m</text>
<text text-anchor="start" x="287.5" y="-412" font-family="Helvetica,sans-Serif" font-size="10.00">+ f</text>
<text text-anchor="start" x="287.5" y="-401" font-family="Helvetica,sans-Serif" font-size="10.00">+ grad_f</text>
<text text-anchor="start" x="287.5" y="-390" font-family="Helvetica,sans-Serif" font-size="10.00">+ g</text>
<text text-anchor="start" x="287.5" y="-379" font-family="Helvetica,sans-Serif" font-size="10.00">+ grad_g_prod</text>
<text text-anchor="start" x="287.5" y="-368" font-family="Helvetica,sans-Serif" font-size="10.00">+ grad_gi</text>
<text text-anchor="start" x="287.5" y="-357" font-family="Helvetica,sans-Serif" font-size="10.00">+ hess_L_prod</text>
<text text-anchor="start" x="287.5" y="-346" font-family="Helvetica,sans-Serif" font-size="10.00">+ hess_L</text>
<polyline fill="none" stroke="black" points="279.5,-339 367.5,-339 "/>
<text text-anchor="start" x="287.5" y="-327" font-family="Helvetica,sans-Serif" font-size="10.00">+ Problem()</text>
<text text-anchor="start" x="287.5" y="-316" font-family="Helvetica,sans-Serif" font-size="10.00">+ Problem()</text>
<text text-anchor="start" x="287.5" y="-305" font-family="Helvetica,sans-Serif" font-size="10.00">+ Problem()</text>
</a>
</g>
</g>
<!-- Node5&#45;&gt;Node1 -->
<g id="edge4" class="edge">
<title>Node5&#45;&gt;Node1</title>
<path fill="none" stroke="#404040" d="M301,-297.9C295.56,-277.92 289.63,-256.14 283.8,-234.76"/>
<polygon fill="none" stroke="#404040" points="283.74,-234.51 278.3,-229.78 280.58,-222.94 286.02,-227.67 283.74,-234.51"/>
<text text-anchor="middle" x="313.5" y="-244" font-family="Helvetica,sans-Serif" font-size="10.00"> +problem</text>
</g>
<!-- Node6 -->
<g id="node6" class="node">
<title>Node6</title>
<g id="a_node6"><a xlink:href="namespacepa.html#structpa_1_1Box" target="_top" xlink:title=" ">
<polygon fill="white" stroke="black" points="280.5,-562.5 280.5,-630.5 366.5,-630.5 366.5,-562.5 280.5,-562.5"/>
<text text-anchor="middle" x="323.5" y="-618.5" font-family="Helvetica,sans-Serif" font-size="10.00">Box</text>
<polyline fill="none" stroke="black" points="280.5,-611.5 366.5,-611.5 "/>
<text text-anchor="start" x="288.5" y="-599.5" font-family="Helvetica,sans-Serif" font-size="10.00">+ upperbound</text>
<text text-anchor="start" x="288.5" y="-588.5" font-family="Helvetica,sans-Serif" font-size="10.00">+ lowerbound</text>
<polyline fill="none" stroke="black" points="280.5,-581.5 366.5,-581.5 "/>
<text text-anchor="middle" x="323.5" y="-569.5" font-family="Helvetica,sans-Serif" font-size="10.00"> </text>
</a>
</g>
</g>
<!-- Node6&#45;&gt;Node5 -->
<g id="edge5" class="edge">
<title>Node6&#45;&gt;Node5</title>
<path fill="none" stroke="#404040" d="M323.5,-562.22C323.5,-539.29 323.5,-507.58 323.5,-477.17"/>
<polygon fill="none" stroke="#404040" points="323.5,-477.16 319.5,-471.16 323.5,-465.16 327.5,-471.16 323.5,-477.16"/>
<text text-anchor="middle" x="333" y="-525" font-family="Helvetica,sans-Serif" font-size="10.00"> +C</text>
<text text-anchor="middle" x="333" y="-514" font-family="Helvetica,sans-Serif" font-size="10.00">+D</text>
</g>
</g>
</svg>
