<?xml version="1.0" encoding="UTF-8" standalone="no"?>
<!DOCTYPE svg PUBLIC "-//W3C//DTD SVG 1.1//EN"
 "http://www.w3.org/Graphics/SVG/1.1/DTD/svg11.dtd">
<!-- Generated by graphviz version 2.43.0 (0)
 -->
<!-- Title: SecondOrderPANOCParams Pages: 1 -->
<svg width="250pt" height="314pt"
 viewBox="0.00 0.00 249.50 314.00" xmlns="http://www.w3.org/2000/svg" xmlns:xlink="http://www.w3.org/1999/xlink">
<g id="graph0" class="graph" transform="scale(1 1) rotate(0) translate(4 310)">
<title>SecondOrderPANOCParams</title>
<polygon fill="white" stroke="transparent" points="-4,4 -4,-310 245.5,-310 245.5,4 -4,4"/>
<!-- Node1 -->
<g id="node1" class="node">
<title>Node1</title>
<g id="a_node1"><a xlink:title="Tuning parameters for the second order PANOC algorithm.">
<polygon fill="#bfbfbf" stroke="black" points="52,-0.5 52,-167.5 217,-167.5 217,-0.5 52,-0.5"/>
<text text-anchor="middle" x="134.5" y="-155.5" font-family="Helvetica,sans-Serif" font-size="10.00">SecondOrderPANOCParams</text>
<polyline fill="none" stroke="black" points="52,-148.5 217,-148.5 "/>
<text text-anchor="start" x="60" y="-136.5" font-family="Helvetica,sans-Serif" font-size="10.00">+ max_iter</text>
<text text-anchor="start" x="60" y="-125.5" font-family="Helvetica,sans-Serif" font-size="10.00">+ τ_min</text>
<text text-anchor="start" x="60" y="-114.5" font-family="Helvetica,sans-Serif" font-size="10.00">+ γ_min</text>
<text text-anchor="start" x="60" y="-103.5" font-family="Helvetica,sans-Serif" font-size="10.00">+ stop_crit</text>
<text text-anchor="start" x="60" y="-92.5" font-family="Helvetica,sans-Serif" font-size="10.00">+ max_no_progress</text>
<text text-anchor="start" x="60" y="-81.5" font-family="Helvetica,sans-Serif" font-size="10.00">+ print_interval</text>
<text text-anchor="start" x="60" y="-70.5" font-family="Helvetica,sans-Serif" font-size="10.00">+ quadratic_upperbound</text>
<text text-anchor="start" x="60" y="-59.5" font-family="Helvetica,sans-Serif" font-size="10.00">_tolerance_factor</text>
<text text-anchor="start" x="60" y="-48.5" font-family="Helvetica,sans-Serif" font-size="10.00">+ update_lipschitz_in</text>
<text text-anchor="start" x="60" y="-37.5" font-family="Helvetica,sans-Serif" font-size="10.00">_linesearch</text>
<text text-anchor="start" x="60" y="-26.5" font-family="Helvetica,sans-Serif" font-size="10.00">+ alternative_linesearch_cond</text>
<polyline fill="none" stroke="black" points="52,-19.5 217,-19.5 "/>
<text text-anchor="middle" x="134.5" y="-7.5" font-family="Helvetica,sans-Serif" font-size="10.00"> </text>
</a>
</g>
</g>
<!-- Node2 -->
<g id="node2" class="node">
<title>Node2</title>
<g id="a_node2"><a xlink:href="namespacepa.html#structpa_1_1LipschitzEstimateParams" target="_top" xlink:title=" ">
<polygon fill="white" stroke="black" points="0,-215.5 0,-305.5 139,-305.5 139,-215.5 0,-215.5"/>
<text text-anchor="middle" x="69.5" y="-293.5" font-family="Helvetica,sans-Serif" font-size="10.00">LipschitzEstimateParams</text>
<polyline fill="none" stroke="black" points="0,-286.5 139,-286.5 "/>
<text text-anchor="start" x="8" y="-274.5" font-family="Helvetica,sans-Serif" font-size="10.00">+ L₀</text>
<text text-anchor="start" x="8" y="-263.5" font-family="Helvetica,sans-Serif" font-size="10.00">+ ε</text>
<text text-anchor="start" x="8" y="-252.5" font-family="Helvetica,sans-Serif" font-size="10.00">+ δ</text>
<text text-anchor="start" x="8" y="-241.5" font-family="Helvetica,sans-Serif" font-size="10.00">+ Lγ_factor</text>
<polyline fill="none" stroke="black" points="0,-234.5 139,-234.5 "/>
<text text-anchor="middle" x="69.5" y="-222.5" font-family="Helvetica,sans-Serif" font-size="10.00"> </text>
</a>
</g>
</g>
<!-- Node2&#45;&gt;Node1 -->
<g id="edge1" class="edge">
<title>Node2&#45;&gt;Node1</title>
<path fill="none" stroke="#404040" d="M85.9,-215.47C90.05,-204.33 94.66,-191.95 99.35,-179.36"/>
<polygon fill="none" stroke="#404040" points="99.48,-179.02 97.82,-172 103.67,-167.78 105.32,-174.8 99.48,-179.02"/>
<text text-anchor="middle" x="124" y="-189" font-family="Helvetica,sans-Serif" font-size="10.00"> +Lipschitz</text>
</g>
<!-- Node3 -->
<g id="node3" class="node">
<title>Node3</title>
<g id="a_node3"><a xlink:title=" ">
<polygon fill="white" stroke="#bfbfbf" points="157.5,-232 157.5,-289 241.5,-289 241.5,-232 157.5,-232"/>
<text text-anchor="middle" x="199.5" y="-277" font-family="Helvetica,sans-Serif" font-size="10.00">microseconds</text>
<polyline fill="none" stroke="#bfbfbf" points="157.5,-270 241.5,-270 "/>
<text text-anchor="middle" x="199.5" y="-258" font-family="Helvetica,sans-Serif" font-size="10.00"> </text>
<polyline fill="none" stroke="#bfbfbf" points="157.5,-251 241.5,-251 "/>
<text text-anchor="middle" x="199.5" y="-239" font-family="Helvetica,sans-Serif" font-size="10.00"> </text>
</a>
</g>
</g>
<!-- Node3&#45;&gt;Node1 -->
<g id="edge2" class="edge">
<title>Node3&#45;&gt;Node1</title>
<path fill="none" stroke="#404040" d="M189.2,-231.85C183.75,-217.23 176.71,-198.33 169.51,-178.99"/>
<polygon fill="none" stroke="#404040" points="169.45,-178.82 163.61,-174.6 165.26,-167.58 171.1,-171.8 169.45,-178.82"/>
<text text-anchor="middle" x="205" y="-189" font-family="Helvetica,sans-Serif" font-size="10.00"> +max_time</text>
</g>
</g>
</svg>
