<?xml version="1.0" encoding="UTF-8" standalone="no"?>
<!DOCTYPE svg PUBLIC "-//W3C//DTD SVG 1.1//EN"
 "http://www.w3.org/Graphics/SVG/1.1/DTD/svg11.dtd">
<!-- Generated by graphviz version 2.43.0 (0)
 -->
<!-- Title: update Pages: 1 -->
<svg width="830pt" height="443pt"
 viewBox="0.00 0.00 830.00 442.50" xmlns="http://www.w3.org/2000/svg" xmlns:xlink="http://www.w3.org/1999/xlink">
<g id="graph0" class="graph" transform="scale(1 1) rotate(0) translate(4 438.5)">
<title>update</title>
<polygon fill="white" stroke="transparent" points="-4,4 -4,-438.5 826,-438.5 826,4 -4,4"/>
<!-- Node1 -->
<g id="node1" class="node">
<title>Node1</title>
<g id="a_node1"><a xlink:title=" ">
<polygon fill="#bfbfbf" stroke="black" points="0,-151.5 0,-170.5 50,-170.5 50,-151.5 0,-151.5"/>
<text text-anchor="middle" x="25" y="-158.5" font-family="Helvetica,sans-Serif" font-size="10.00">update</text>
</a>
</g>
</g>
<!-- Node2 -->
<g id="node2" class="node">
<title>Node2</title>
<g id="a_node2"><a xlink:href="classpa_1_1SpecializedLBFGS.html#a8032c3cbff7a91765be22979ccd4f79b" target="_top" xlink:title="Update the inverse Hessian approximation using the new vectors xₖ₊₁ and pₖ₊₁.">
<polygon fill="white" stroke="black" points="86,-146 86,-176 208,-176 208,-146 86,-146"/>
<text text-anchor="start" x="94" y="-164" font-family="Helvetica,sans-Serif" font-size="10.00">pa::SpecializedLBFGS</text>
<text text-anchor="middle" x="147" y="-153" font-family="Helvetica,sans-Serif" font-size="10.00">::update</text>
</a>
</g>
</g>
<!-- Node1&#45;&gt;Node2 -->
<g id="edge1" class="edge">
<title>Node1&#45;&gt;Node2</title>
<path fill="none" stroke="midnightblue" d="M50.28,-161C57.75,-161 66.37,-161 75.32,-161"/>
<polygon fill="midnightblue" stroke="midnightblue" points="75.52,-164.5 85.52,-161 75.52,-157.5 75.52,-164.5"/>
</g>
<!-- Node3 -->
<g id="node3" class="node">
<title>Node3</title>
<g id="a_node3"><a xlink:href="classpa_1_1SpecializedLBFGS.html#a71d9f5b74a18b1ef994683c1aa4914da" target="_top" xlink:title="L&#45;BFGS update when changing the step size γ, recomputing everything.">
<polygon fill="white" stroke="black" points="244,-178 244,-208 366,-208 366,-178 244,-178"/>
<text text-anchor="start" x="252" y="-196" font-family="Helvetica,sans-Serif" font-size="10.00">pa::SpecializedLBFGS</text>
<text text-anchor="middle" x="305" y="-185" font-family="Helvetica,sans-Serif" font-size="10.00">::full_update</text>
</a>
</g>
</g>
<!-- Node2&#45;&gt;Node3 -->
<g id="edge2" class="edge">
<title>Node2&#45;&gt;Node3</title>
<path fill="none" stroke="midnightblue" d="M208.31,-173.37C216.69,-175.09 225.36,-176.87 233.9,-178.62"/>
<polygon fill="midnightblue" stroke="midnightblue" points="233.35,-182.08 243.85,-180.66 234.75,-175.22 233.35,-182.08"/>
</g>
<!-- Node19 -->
<g id="node19" class="node">
<title>Node19</title>
<g id="a_node19"><a xlink:href="classpa_1_1SpecializedLBFGS.html#ae20511c5fb7ae45113aeba25b63c6d55" target="_top" xlink:title="Standard L&#45;BFGS update without changing the step size γ.">
<polygon fill="white" stroke="black" points="244,-122 244,-152 366,-152 366,-122 244,-122"/>
<text text-anchor="start" x="252" y="-140" font-family="Helvetica,sans-Serif" font-size="10.00">pa::SpecializedLBFGS</text>
<text text-anchor="middle" x="305" y="-129" font-family="Helvetica,sans-Serif" font-size="10.00">::standard_update</text>
</a>
</g>
</g>
<!-- Node2&#45;&gt;Node19 -->
<g id="edge29" class="edge">
<title>Node2&#45;&gt;Node19</title>
<path fill="none" stroke="midnightblue" d="M208.31,-151.72C216.69,-150.43 225.36,-149.1 233.9,-147.78"/>
<polygon fill="midnightblue" stroke="midnightblue" points="234.5,-151.23 243.85,-146.25 233.43,-144.32 234.5,-151.23"/>
</g>
<!-- Node4 -->
<g id="node4" class="node">
<title>Node4</title>
<g id="a_node4"><a xlink:href="classpa_1_1SpecializedLBFGS.html#a7e9b3fd96d52976693a1fb57fb32ba3c" target="_top" xlink:title=" ">
<polygon fill="white" stroke="black" points="403,-152.5 403,-171.5 537,-171.5 537,-152.5 403,-152.5"/>
<text text-anchor="middle" x="470" y="-159.5" font-family="Helvetica,sans-Serif" font-size="10.00">pa::SpecializedLBFGS::g</text>
</a>
</g>
</g>
<!-- Node3&#45;&gt;Node4 -->
<g id="edge3" class="edge">
<title>Node3&#45;&gt;Node4</title>
<path fill="none" stroke="midnightblue" d="M366.23,-181.54C380.17,-178.89 395,-176.07 408.93,-173.42"/>
<polygon fill="midnightblue" stroke="midnightblue" points="409.72,-176.84 418.89,-171.53 408.41,-169.96 409.72,-176.84"/>
</g>
<!-- Node7 -->
<g id="node7" class="node">
<title>Node7</title>
<g id="a_node7"><a xlink:href="classpa_1_1SpecializedLBFGS.html#a9cb23d843dff87dd08bd5a916d9eed95" target="_top" xlink:title=" ">
<polygon fill="white" stroke="black" points="403,-228.5 403,-247.5 537,-247.5 537,-228.5 403,-228.5"/>
<text text-anchor="middle" x="470" y="-235.5" font-family="Helvetica,sans-Serif" font-size="10.00">pa::SpecializedLBFGS::p</text>
</a>
</g>
</g>
<!-- Node3&#45;&gt;Node7 -->
<g id="edge6" class="edge">
<title>Node3&#45;&gt;Node7</title>
<path fill="none" stroke="midnightblue" d="M360.73,-208.11C381.62,-213.88 405.14,-220.37 424.92,-225.83"/>
<polygon fill="midnightblue" stroke="midnightblue" points="424.02,-229.21 434.59,-228.5 425.88,-222.46 424.02,-229.21"/>
</g>
<!-- Node8 -->
<g id="node8" class="node">
<title>Node8</title>
<g id="a_node8"><a xlink:href="classpa_1_1SpecializedLBFGS.html#a366794fa1c1947b58c0e7cfd78529215" target="_top" xlink:title="Get the previous index in the circular buffer of previous s, y, x and g vectors.">
<polygon fill="white" stroke="black" points="409,-404 409,-434 531,-434 531,-404 409,-404"/>
<text text-anchor="start" x="417" y="-422" font-family="Helvetica,sans-Serif" font-size="10.00">pa::SpecializedLBFGS</text>
<text text-anchor="middle" x="470" y="-411" font-family="Helvetica,sans-Serif" font-size="10.00">::pred</text>
</a>
</g>
</g>
<!-- Node3&#45;&gt;Node8 -->
<g id="edge9" class="edge">
<title>Node3&#45;&gt;Node8</title>
<path fill="none" stroke="midnightblue" d="M309,-208.04C317.18,-245.14 343.27,-341.85 402,-395 403.29,-396.17 404.64,-397.28 406.05,-398.34"/>
<polygon fill="midnightblue" stroke="midnightblue" points="404.26,-401.35 414.55,-403.84 408.06,-395.47 404.26,-401.35"/>
</g>
<!-- Node9 -->
<g id="node9" class="node">
<title>Node9</title>
<g id="a_node9"><a xlink:href="namespacepa_1_1detail.html#a8ed4d487878856942843707b5a131b85" target="_top" xlink:title="Projected gradient step.">
<polygon fill="white" stroke="black" points="413,-355 413,-385 527,-385 527,-355 413,-355"/>
<text text-anchor="start" x="421" y="-373" font-family="Helvetica,sans-Serif" font-size="10.00">pa::detail::projected</text>
<text text-anchor="middle" x="470" y="-362" font-family="Helvetica,sans-Serif" font-size="10.00">_gradient_step</text>
</a>
</g>
</g>
<!-- Node3&#45;&gt;Node9 -->
<g id="edge11" class="edge">
<title>Node3&#45;&gt;Node9</title>
<path fill="none" stroke="midnightblue" d="M311.71,-208.24C323.79,-238.52 354.76,-306.62 402,-345 404.07,-346.68 406.26,-348.25 408.53,-349.72"/>
<polygon fill="midnightblue" stroke="midnightblue" points="407.26,-353.03 417.69,-354.92 410.72,-346.94 407.26,-353.03"/>
</g>
<!-- Node10 -->
<g id="node10" class="node">
<title>Node10</title>
<g id="a_node10"><a xlink:href="classpa_1_1SpecializedLBFGS.html#a644d66009a70ccc909120ba9afa45ea5" target="_top" xlink:title=" ">
<polygon fill="white" stroke="black" points="403.5,-114.5 403.5,-133.5 536.5,-133.5 536.5,-114.5 403.5,-114.5"/>
<text text-anchor="middle" x="470" y="-121.5" font-family="Helvetica,sans-Serif" font-size="10.00">pa::SpecializedLBFGS::s</text>
</a>
</g>
</g>
<!-- Node3&#45;&gt;Node10 -->
<g id="edge12" class="edge">
<title>Node3&#45;&gt;Node10</title>
<path fill="none" stroke="midnightblue" d="M334.4,-177.83C360.15,-164.14 395.1,-145.74 402,-143 407.9,-140.66 414.2,-138.47 420.48,-136.49"/>
<polygon fill="midnightblue" stroke="midnightblue" points="421.72,-139.77 430.29,-133.53 419.7,-133.07 421.72,-139.77"/>
</g>
<!-- Node11 -->
<g id="node11" class="node">
<title>Node11</title>
<g id="a_node11"><a xlink:href="classpa_1_1SpecializedLBFGS.html#a0df701f7bb07249c37bcbf20d9c980fe" target="_top" xlink:title="Get the next index in the circular buffer of previous s, y, x and g vectors.">
<polygon fill="white" stroke="black" points="409,-267 409,-297 531,-297 531,-267 409,-267"/>
<text text-anchor="start" x="417" y="-285" font-family="Helvetica,sans-Serif" font-size="10.00">pa::SpecializedLBFGS</text>
<text text-anchor="middle" x="470" y="-274" font-family="Helvetica,sans-Serif" font-size="10.00">::succ</text>
</a>
</g>
</g>
<!-- Node3&#45;&gt;Node11 -->
<g id="edge14" class="edge">
<title>Node3&#45;&gt;Node11</title>
<path fill="none" stroke="midnightblue" d="M325.76,-208.16C344.61,-222.12 374.18,-242.78 402,-257 406.03,-259.06 410.26,-261.04 414.57,-262.92"/>
<polygon fill="midnightblue" stroke="midnightblue" points="413.47,-266.25 424.05,-266.87 416.17,-259.79 413.47,-266.25"/>
</g>
<!-- Node12 -->
<g id="node12" class="node">
<title>Node12</title>
<g id="a_node12"><a xlink:href="classpa_1_1LBFGS.html#aaf9c6519c7a7d7ab977113f33c88e2e3" target="_top" xlink:title="Check if the new vectors s and y allow for a valid BFGS update that preserves the positive definitene...">
<polygon fill="white" stroke="black" points="402.5,-0.5 402.5,-19.5 537.5,-19.5 537.5,-0.5 402.5,-0.5"/>
<text text-anchor="middle" x="470" y="-7.5" font-family="Helvetica,sans-Serif" font-size="10.00">pa::LBFGS::update_valid</text>
</a>
</g>
</g>
<!-- Node3&#45;&gt;Node12 -->
<g id="edge16" class="edge">
<title>Node3&#45;&gt;Node12</title>
<path fill="none" stroke="midnightblue" d="M345.6,-177.83C353.24,-173.38 360.55,-167.83 366,-161 403.93,-113.47 359.22,-72.21 402,-29 403.44,-27.55 404.97,-26.21 406.59,-24.97"/>
<polygon fill="midnightblue" stroke="midnightblue" points="408.64,-27.82 415.28,-19.57 404.94,-21.87 408.64,-27.82"/>
</g>
<!-- Node15 -->
<g id="node15" class="node">
<title>Node15</title>
<g id="a_node15"><a xlink:href="classpa_1_1SpecializedLBFGS.html#a45235c456e26733897f13bbf1057323e" target="_top" xlink:title=" ">
<polygon fill="white" stroke="black" points="402,-316.5 402,-335.5 538,-335.5 538,-316.5 402,-316.5"/>
<text text-anchor="middle" x="470" y="-323.5" font-family="Helvetica,sans-Serif" font-size="10.00">pa::SpecializedLBFGS::w</text>
</a>
</g>
</g>
<!-- Node3&#45;&gt;Node15 -->
<g id="edge19" class="edge">
<title>Node3&#45;&gt;Node15</title>
<path fill="none" stroke="midnightblue" d="M314.54,-208.05C329.22,-232.54 361.58,-280.88 402,-307 405.18,-309.06 408.59,-310.89 412.12,-312.54"/>
<polygon fill="midnightblue" stroke="midnightblue" points="411.1,-315.9 421.68,-316.44 413.75,-309.42 411.1,-315.9"/>
</g>
<!-- Node16 -->
<g id="node16" class="node">
<title>Node16</title>
<g id="a_node16"><a xlink:href="classpa_1_1SpecializedLBFGS.html#ac8fb9b5f7c53b1285867cf99b0f79d17" target="_top" xlink:title=" ">
<polygon fill="white" stroke="black" points="403,-190.5 403,-209.5 537,-209.5 537,-190.5 403,-190.5"/>
<text text-anchor="middle" x="470" y="-197.5" font-family="Helvetica,sans-Serif" font-size="10.00">pa::SpecializedLBFGS::x</text>
</a>
</g>
</g>
<!-- Node3&#45;&gt;Node16 -->
<g id="edge22" class="edge">
<title>Node3&#45;&gt;Node16</title>
<path fill="none" stroke="midnightblue" d="M366.23,-195.59C374.93,-195.96 383.97,-196.35 392.93,-196.73"/>
<polygon fill="midnightblue" stroke="midnightblue" points="392.84,-200.23 402.98,-197.16 393.14,-193.24 392.84,-200.23"/>
</g>
<!-- Node17 -->
<g id="node17" class="node">
<title>Node17</title>
<g id="a_node17"><a xlink:href="classpa_1_1SpecializedLBFGS.html#ac18c0672e61d25800877a42a1def3215" target="_top" xlink:title=" ">
<polygon fill="white" stroke="black" points="403,-76.5 403,-95.5 537,-95.5 537,-76.5 403,-76.5"/>
<text text-anchor="middle" x="470" y="-83.5" font-family="Helvetica,sans-Serif" font-size="10.00">pa::SpecializedLBFGS::y</text>
</a>
</g>
</g>
<!-- Node3&#45;&gt;Node17 -->
<g id="edge25" class="edge">
<title>Node3&#45;&gt;Node17</title>
<path fill="none" stroke="midnightblue" d="M341.61,-177.84C350.17,-173.2 358.88,-167.56 366,-161 387.76,-140.95 378.23,-122.62 402,-105 404.62,-103.06 407.44,-101.31 410.37,-99.74"/>
<polygon fill="midnightblue" stroke="midnightblue" points="411.86,-102.91 419.48,-95.56 408.93,-96.55 411.86,-102.91"/>
</g>
<!-- Node18 -->
<g id="node18" class="node">
<title>Node18</title>
<g id="a_node18"><a xlink:href="classpa_1_1SpecializedLBFGS.html#a630280b47996370bdb569a2799ffdb9f" target="_top" xlink:title=" ">
<polygon fill="white" stroke="black" points="403,-38.5 403,-57.5 537,-57.5 537,-38.5 403,-38.5"/>
<text text-anchor="middle" x="470" y="-45.5" font-family="Helvetica,sans-Serif" font-size="10.00">pa::SpecializedLBFGS::ρ</text>
</a>
</g>
</g>
<!-- Node3&#45;&gt;Node18 -->
<g id="edge27" class="edge">
<title>Node3&#45;&gt;Node18</title>
<path fill="none" stroke="midnightblue" d="M344.16,-177.94C352.16,-173.42 359.98,-167.81 366,-161 395.61,-127.46 368.98,-97.19 402,-67 403.7,-65.44 405.53,-64.01 407.44,-62.7"/>
<polygon fill="midnightblue" stroke="midnightblue" points="409.36,-65.63 416.33,-57.65 405.91,-59.54 409.36,-65.63"/>
</g>
<!-- Node5 -->
<g id="node5" class="node">
<title>Node5</title>
<g id="a_node5"><a xlink:href="classpa_1_1SpecializedLBFGS.html#a5b5fd504f983f6b5f9beb1576ebf591a" target="_top" xlink:title="Get the number of previous vectors s, y, x and g stored in the buffer.">
<polygon fill="white" stroke="black" points="580,-245 580,-275 702,-275 702,-245 580,-245"/>
<text text-anchor="start" x="588" y="-263" font-family="Helvetica,sans-Serif" font-size="10.00">pa::SpecializedLBFGS</text>
<text text-anchor="middle" x="641" y="-252" font-family="Helvetica,sans-Serif" font-size="10.00">::history</text>
</a>
</g>
</g>
<!-- Node4&#45;&gt;Node5 -->
<g id="edge4" class="edge">
<title>Node4&#45;&gt;Node5</title>
<path fill="none" stroke="midnightblue" d="M514.1,-171.58C522.25,-174.13 530.55,-177.24 538,-181 567.7,-196 597.27,-220.19 616.87,-237.85"/>
<polygon fill="midnightblue" stroke="midnightblue" points="614.64,-240.56 624.37,-244.74 619.37,-235.4 614.64,-240.56"/>
</g>
<!-- Node6 -->
<g id="node6" class="node">
<title>Node6</title>
<g id="a_node6"><a xlink:href="classpa_1_1SpecializedLBFGS.html#ac88f0961aa7ed7c7415550ab2cad49c8" target="_top" xlink:title="Get the size of the s, y, x and g vectors in the buffer.">
<polygon fill="white" stroke="black" points="574,-152.5 574,-171.5 708,-171.5 708,-152.5 574,-152.5"/>
<text text-anchor="middle" x="641" y="-159.5" font-family="Helvetica,sans-Serif" font-size="10.00">pa::SpecializedLBFGS::n</text>
</a>
</g>
</g>
<!-- Node4&#45;&gt;Node6 -->
<g id="edge5" class="edge">
<title>Node4&#45;&gt;Node6</title>
<path fill="none" stroke="midnightblue" d="M537.31,-162C545.95,-162 554.86,-162 563.64,-162"/>
<polygon fill="midnightblue" stroke="midnightblue" points="563.88,-165.5 573.88,-162 563.88,-158.5 563.88,-165.5"/>
</g>
<!-- Node7&#45;&gt;Node5 -->
<g id="edge7" class="edge">
<title>Node7&#45;&gt;Node5</title>
<path fill="none" stroke="midnightblue" d="M537.31,-246.63C547.96,-248.02 559.02,-249.46 569.76,-250.86"/>
<polygon fill="midnightblue" stroke="midnightblue" points="569.57,-254.36 579.93,-252.18 570.47,-247.42 569.57,-254.36"/>
</g>
<!-- Node7&#45;&gt;Node6 -->
<g id="edge8" class="edge">
<title>Node7&#45;&gt;Node6</title>
<path fill="none" stroke="midnightblue" d="M510.5,-228.45C519.67,-225.79 529.29,-222.61 538,-219 566.28,-207.28 596.66,-189.57 616.84,-177.01"/>
<polygon fill="midnightblue" stroke="midnightblue" points="618.76,-179.93 625.35,-171.64 615.02,-174.02 618.76,-179.93"/>
</g>
<!-- Node8&#45;&gt;Node5 -->
<g id="edge10" class="edge">
<title>Node8&#45;&gt;Node5</title>
<path fill="none" stroke="midnightblue" d="M523.04,-403.84C528.32,-401.3 533.42,-398.37 538,-395 578.79,-365.02 610.89,-314.22 627.51,-284.22"/>
<polygon fill="midnightblue" stroke="midnightblue" points="630.68,-285.72 632.36,-275.26 624.52,-282.39 630.68,-285.72"/>
</g>
<!-- Node10&#45;&gt;Node6 -->
<g id="edge13" class="edge">
<title>Node10&#45;&gt;Node6</title>
<path fill="none" stroke="midnightblue" d="M513.65,-133.59C536.15,-138.65 563.95,-144.9 587.74,-150.25"/>
<polygon fill="midnightblue" stroke="midnightblue" points="587.14,-153.7 597.66,-152.48 588.67,-146.87 587.14,-153.7"/>
</g>
<!-- Node11&#45;&gt;Node5 -->
<g id="edge15" class="edge">
<title>Node11&#45;&gt;Node5</title>
<path fill="none" stroke="midnightblue" d="M531.06,-274.18C543.56,-272.55 556.84,-270.83 569.68,-269.15"/>
<polygon fill="midnightblue" stroke="midnightblue" points="570.39,-272.59 579.85,-267.83 569.48,-265.65 570.39,-272.59"/>
</g>
<!-- Node13 -->
<g id="node13" class="node">
<title>Node13</title>
<g id="a_node13"><a xlink:href="classpa_1_1LBFGS.html#a66eb6e38840a556b4c0f0bff0901f80c" target="_top" xlink:title=" ">
<polygon fill="white" stroke="black" points="601.5,-0.5 601.5,-19.5 680.5,-19.5 680.5,-0.5 601.5,-0.5"/>
<text text-anchor="middle" x="641" y="-7.5" font-family="Helvetica,sans-Serif" font-size="10.00">pa::LBFGS::α</text>
</a>
</g>
</g>
<!-- Node12&#45;&gt;Node13 -->
<g id="edge17" class="edge">
<title>Node12&#45;&gt;Node13</title>
<path fill="none" stroke="midnightblue" d="M537.79,-10C555.67,-10 574.66,-10 591.35,-10"/>
<polygon fill="midnightblue" stroke="midnightblue" points="591.42,-13.5 601.42,-10 591.42,-6.5 591.42,-13.5"/>
</g>
<!-- Node14 -->
<g id="node14" class="node">
<title>Node14</title>
<g id="a_node14"><a xlink:href="classpa_1_1LBFGS.html#ac88f0961aa7ed7c7415550ab2cad49c8" target="_top" xlink:title="Get the size of the s and y vectors in the buffer.">
<polygon fill="white" stroke="black" points="744,-0.5 744,-19.5 822,-19.5 822,-0.5 744,-0.5"/>
<text text-anchor="middle" x="783" y="-7.5" font-family="Helvetica,sans-Serif" font-size="10.00">pa::LBFGS::n</text>
</a>
</g>
</g>
<!-- Node13&#45;&gt;Node14 -->
<g id="edge18" class="edge">
<title>Node13&#45;&gt;Node14</title>
<path fill="none" stroke="midnightblue" d="M680.63,-10C696.98,-10 716.22,-10 733.51,-10"/>
<polygon fill="midnightblue" stroke="midnightblue" points="733.98,-13.5 743.98,-10 733.98,-6.5 733.98,-13.5"/>
</g>
<!-- Node15&#45;&gt;Node5 -->
<g id="edge20" class="edge">
<title>Node15&#45;&gt;Node5</title>
<path fill="none" stroke="midnightblue" d="M508.54,-316.46C518.24,-313.7 528.59,-310.48 538,-307 559.43,-299.08 582.62,-288.56 601.46,-279.48"/>
<polygon fill="midnightblue" stroke="midnightblue" points="603.16,-282.55 610.61,-275.02 600.09,-276.26 603.16,-282.55"/>
</g>
<!-- Node15&#45;&gt;Node6 -->
<g id="edge21" class="edge">
<title>Node15&#45;&gt;Node6</title>
<path fill="none" stroke="midnightblue" d="M522.27,-316.36C527.93,-313.91 533.33,-310.84 538,-307 565.31,-284.51 554.06,-265.22 574,-236 588.41,-214.88 608.31,-193.37 622.48,-179.02"/>
<polygon fill="midnightblue" stroke="midnightblue" points="625.08,-181.37 629.7,-171.83 620.14,-176.41 625.08,-181.37"/>
</g>
<!-- Node16&#45;&gt;Node5 -->
<g id="edge23" class="edge">
<title>Node16&#45;&gt;Node5</title>
<path fill="none" stroke="midnightblue" d="M507.38,-209.56C517.37,-212.39 528.16,-215.64 538,-219 557.05,-225.51 577.71,-233.61 595.43,-240.89"/>
<polygon fill="midnightblue" stroke="midnightblue" points="594.36,-244.24 604.94,-244.84 597.05,-237.77 594.36,-244.24"/>
</g>
<!-- Node16&#45;&gt;Node6 -->
<g id="edge24" class="edge">
<title>Node16&#45;&gt;Node6</title>
<path fill="none" stroke="midnightblue" d="M513.65,-190.41C536.15,-185.35 563.95,-179.1 587.74,-173.75"/>
<polygon fill="midnightblue" stroke="midnightblue" points="588.67,-177.13 597.66,-171.52 587.14,-170.3 588.67,-177.13"/>
</g>
<!-- Node17&#45;&gt;Node6 -->
<g id="edge26" class="edge">
<title>Node17&#45;&gt;Node6</title>
<path fill="none" stroke="midnightblue" d="M510.5,-95.55C519.67,-98.21 529.29,-101.39 538,-105 566.28,-116.72 596.66,-134.43 616.84,-146.99"/>
<polygon fill="midnightblue" stroke="midnightblue" points="615.02,-149.98 625.35,-152.36 618.76,-144.07 615.02,-149.98"/>
</g>
<!-- Node18&#45;&gt;Node6 -->
<g id="edge28" class="edge">
<title>Node18&#45;&gt;Node6</title>
<path fill="none" stroke="midnightblue" d="M515.8,-57.5C523.46,-60.02 531.15,-63.14 538,-67 574.13,-87.36 607.6,-123.04 625.78,-144.4"/>
<polygon fill="midnightblue" stroke="midnightblue" points="623.3,-146.89 632.39,-152.33 628.68,-142.41 623.3,-146.89"/>
</g>
<!-- Node19&#45;&gt;Node4 -->
<g id="edge30" class="edge">
<title>Node19&#45;&gt;Node4</title>
<path fill="none" stroke="midnightblue" d="M366.23,-146.24C376.16,-147.76 386.55,-149.35 396.73,-150.92"/>
<polygon fill="midnightblue" stroke="midnightblue" points="396.42,-154.41 406.83,-152.47 397.48,-147.49 396.42,-154.41"/>
</g>
<!-- Node19&#45;&gt;Node10 -->
<g id="edge31" class="edge">
<title>Node19&#45;&gt;Node10</title>
<path fill="none" stroke="midnightblue" d="M366.23,-132.2C375,-131.5 384.11,-130.77 393.14,-130.05"/>
<polygon fill="midnightblue" stroke="midnightblue" points="393.57,-133.53 403.26,-129.24 393.01,-126.55 393.57,-133.53"/>
</g>
<!-- Node19&#45;&gt;Node11 -->
<g id="edge32" class="edge">
<title>Node19&#45;&gt;Node11</title>
<path fill="none" stroke="midnightblue" d="M345,-152C352.68,-156.29 360.16,-161.59 366,-168 394.74,-199.53 371.42,-227.24 402,-257 403.63,-258.58 405.36,-260.07 407.18,-261.46"/>
<polygon fill="midnightblue" stroke="midnightblue" points="405.36,-264.45 415.64,-266.99 409.19,-258.59 405.36,-264.45"/>
</g>
<!-- Node19&#45;&gt;Node12 -->
<g id="edge33" class="edge">
<title>Node19&#45;&gt;Node12</title>
<path fill="none" stroke="midnightblue" d="M315.23,-122C330.41,-98.59 362.9,-53.53 402,-29 405.36,-26.89 408.96,-25.01 412.68,-23.34"/>
<polygon fill="midnightblue" stroke="midnightblue" points="414.13,-26.53 422.12,-19.58 411.54,-20.03 414.13,-26.53"/>
</g>
<!-- Node19&#45;&gt;Node16 -->
<g id="edge34" class="edge">
<title>Node19&#45;&gt;Node16</title>
<path fill="none" stroke="midnightblue" d="M335.77,-152.08C354.48,-161.2 379.29,-172.63 402,-181 408.33,-183.33 415.08,-185.55 421.76,-187.59"/>
<polygon fill="midnightblue" stroke="midnightblue" points="420.88,-190.98 431.46,-190.45 422.86,-184.26 420.88,-190.98"/>
</g>
<!-- Node19&#45;&gt;Node17 -->
<g id="edge35" class="edge">
<title>Node19&#45;&gt;Node17</title>
<path fill="none" stroke="midnightblue" d="M349.83,-121.92C366.16,-116.43 384.88,-110.28 402,-105 409.23,-102.77 416.93,-100.5 424.44,-98.33"/>
<polygon fill="midnightblue" stroke="midnightblue" points="425.48,-101.67 434.14,-95.56 423.56,-94.94 425.48,-101.67"/>
</g>
<!-- Node19&#45;&gt;Node18 -->
<g id="edge36" class="edge">
<title>Node19&#45;&gt;Node18</title>
<path fill="none" stroke="midnightblue" d="M322.84,-121.83C341.12,-106.07 371.77,-81.72 402,-67 406.7,-64.71 411.73,-62.65 416.84,-60.81"/>
<polygon fill="midnightblue" stroke="midnightblue" points="418.31,-64.01 426.69,-57.54 416.1,-57.37 418.31,-64.01"/>
</g>
</g>
</svg>
