<?xml version="1.0" encoding="UTF-8" standalone="no"?>
<!DOCTYPE svg PUBLIC "-//W3C//DTD SVG 1.1//EN"
 "http://www.w3.org/Graphics/SVG/1.1/DTD/svg11.dtd">
<!-- Generated by graphviz version 2.43.0 (0)
 -->
<!-- Title: PolymorphicInnerSolver&lt; InnerSolver &gt;::WrappedStats Pages: 1 -->
<svg width="217pt" height="331pt"
 viewBox="0.00 0.00 217.00 331.00" xmlns="http://www.w3.org/2000/svg" xmlns:xlink="http://www.w3.org/1999/xlink">
<g id="graph0" class="graph" transform="scale(1 1) rotate(0) translate(4 327)">
<title>PolymorphicInnerSolver&lt; InnerSolver &gt;::WrappedStats</title>
<polygon fill="white" stroke="transparent" points="-4,4 -4,-327 213,-327 213,4 -4,4"/>
<!-- Node1 -->
<g id="node1" class="node">
<title>Node1</title>
<g id="a_node1"><a xlink:title=" ">
<polygon fill="#bfbfbf" stroke="black" points="20,-0.5 20,-90.5 189,-90.5 189,-0.5 20,-0.5"/>
<text text-anchor="start" x="28" y="-78.5" font-family="Helvetica,sans-Serif" font-size="10.00">PolymorphicInnerSolver</text>
<text text-anchor="middle" x="104.5" y="-67.5" font-family="Helvetica,sans-Serif" font-size="10.00">&lt; InnerSolver &gt;::WrappedStats</text>
<polyline fill="none" stroke="black" points="20,-60.5 189,-60.5 "/>
<text text-anchor="start" x="28" y="-48.5" font-family="Helvetica,sans-Serif" font-size="10.00">+ stats</text>
<polyline fill="none" stroke="black" points="20,-41.5 189,-41.5 "/>
<text text-anchor="start" x="28" y="-29.5" font-family="Helvetica,sans-Serif" font-size="10.00">+ WrappedStats()</text>
<text text-anchor="start" x="28" y="-18.5" font-family="Helvetica,sans-Serif" font-size="10.00">+ accumulator()</text>
<text text-anchor="start" x="28" y="-7.5" font-family="Helvetica,sans-Serif" font-size="10.00">+ to_dict()</text>
</a>
</g>
</g>
<!-- Node2 -->
<g id="node2" class="node">
<title>Node2</title>
<g id="a_node2"><a xlink:href="classpa_1_1PolymorphicInnerSolverStatsBase.html" target="_top" xlink:title=" ">
<polygon fill="white" stroke="black" points="0,-127.5 0,-206.5 209,-206.5 209,-127.5 0,-127.5"/>
<text text-anchor="middle" x="104.5" y="-194.5" font-family="Helvetica,sans-Serif" font-size="10.00">PolymorphicInnerSolverStatsBase</text>
<polyline fill="none" stroke="black" points="0,-187.5 209,-187.5 "/>
<text text-anchor="middle" x="104.5" y="-175.5" font-family="Helvetica,sans-Serif" font-size="10.00"> </text>
<polyline fill="none" stroke="black" points="0,-168.5 209,-168.5 "/>
<text text-anchor="start" x="8" y="-156.5" font-family="Helvetica,sans-Serif" font-size="10.00">+ ~PolymorphicInnerSolverStatsBase()</text>
<text text-anchor="start" x="8" y="-145.5" font-family="Helvetica,sans-Serif" font-size="10.00">+ to_dict()</text>
<text text-anchor="start" x="8" y="-134.5" font-family="Helvetica,sans-Serif" font-size="10.00">+ accumulator()</text>
</a>
</g>
</g>
<!-- Node2&#45;&gt;Node1 -->
<g id="edge1" class="edge">
<title>Node2&#45;&gt;Node1</title>
<path fill="none" stroke="midnightblue" d="M104.5,-117.19C104.5,-108.49 104.5,-99.48 104.5,-90.91"/>
<polygon fill="none" stroke="midnightblue" points="101,-117.2 104.5,-127.2 108,-117.2 101,-117.2"/>
</g>
<!-- Node3 -->
<g id="node3" class="node">
<title>Node3</title>
<g id="a_node3"><a xlink:title=" ">
<polygon fill="white" stroke="#bfbfbf" points="21,-243.5 21,-322.5 188,-322.5 188,-243.5 21,-243.5"/>
<text text-anchor="start" x="29" y="-310.5" font-family="Helvetica,sans-Serif" font-size="10.00">enable_shared_from</text>
<text text-anchor="start" x="29" y="-299.5" font-family="Helvetica,sans-Serif" font-size="10.00">_this&lt; PolymorphicInnerSolver</text>
<text text-anchor="middle" x="104.5" y="-288.5" font-family="Helvetica,sans-Serif" font-size="10.00">StatsBase &gt;</text>
<polyline fill="none" stroke="#bfbfbf" points="21,-281.5 188,-281.5 "/>
<text text-anchor="middle" x="104.5" y="-269.5" font-family="Helvetica,sans-Serif" font-size="10.00"> </text>
<polyline fill="none" stroke="#bfbfbf" points="21,-262.5 188,-262.5 "/>
<text text-anchor="middle" x="104.5" y="-250.5" font-family="Helvetica,sans-Serif" font-size="10.00"> </text>
</a>
</g>
</g>
<!-- Node3&#45;&gt;Node2 -->
<g id="edge2" class="edge">
<title>Node3&#45;&gt;Node2</title>
<path fill="none" stroke="midnightblue" d="M104.5,-233.15C104.5,-224.26 104.5,-215.1 104.5,-206.56"/>
<polygon fill="none" stroke="midnightblue" points="101,-233.4 104.5,-243.4 108,-233.4 101,-233.4"/>
</g>
</g>
</svg>
