<?xml version="1.0" encoding="UTF-8" standalone="no"?>
<!DOCTYPE svg PUBLIC "-//W3C//DTD SVG 1.1//EN"
 "http://www.w3.org/Graphics/SVG/1.1/DTD/svg11.dtd">
<!-- Generated by graphviz version 2.43.0 (0)
 -->
<!-- Title: specialized&#45;lbfgs.hpp Pages: 1 -->
<svg width="341pt" height="274pt"
 viewBox="0.00 0.00 341.00 274.00" xmlns="http://www.w3.org/2000/svg" xmlns:xlink="http://www.w3.org/1999/xlink">
<g id="graph0" class="graph" transform="scale(1 1) rotate(0) translate(4 270)">
<title>specialized&#45;lbfgs.hpp</title>
<polygon fill="white" stroke="transparent" points="-4,4 -4,-270 337,-270 337,4 -4,4"/>
<!-- Node1 -->
<g id="node1" class="node">
<title>Node1</title>
<g id="a_node1"><a xlink:title=" ">
<polygon fill="#bfbfbf" stroke="black" points="97.5,-246.5 97.5,-265.5 217.5,-265.5 217.5,-246.5 97.5,-246.5"/>
<text text-anchor="middle" x="157.5" y="-253.5" font-family="Helvetica,sans-Serif" font-size="10.00">specialized&#45;lbfgs.hpp</text>
</a>
</g>
</g>
<!-- Node2 -->
<g id="node2" class="node">
<title>Node2</title>
<g id="a_node2"><a xlink:href="../../d1/db5/decl_2lbfgs_8hpp.html" target="_top" xlink:title=" ">
<polygon fill="white" stroke="black" points="84,-179.5 84,-209.5 231,-209.5 231,-179.5 84,-179.5"/>
<text text-anchor="start" x="92" y="-197.5" font-family="Helvetica,sans-Serif" font-size="10.00">panoc&#45;alm/inner/directions</text>
<text text-anchor="middle" x="157.5" y="-186.5" font-family="Helvetica,sans-Serif" font-size="10.00">/decl/lbfgs.hpp</text>
</a>
</g>
</g>
<!-- Node1&#45;&gt;Node2 -->
<g id="edge1" class="edge">
<title>Node1&#45;&gt;Node2</title>
<path fill="none" stroke="midnightblue" d="M157.5,-246.48C157.5,-239.47 157.5,-229.19 157.5,-219.7"/>
<polygon fill="midnightblue" stroke="midnightblue" points="161,-219.52 157.5,-209.52 154,-219.52 161,-219.52"/>
</g>
<!-- Node3 -->
<g id="node3" class="node">
<title>Node3</title>
<g id="a_node3"><a xlink:href="../../d7/de4/box_8hpp.html" target="_top" xlink:title=" ">
<polygon fill="white" stroke="black" points="0,-118 0,-137 129,-137 129,-118 0,-118"/>
<text text-anchor="middle" x="64.5" y="-125" font-family="Helvetica,sans-Serif" font-size="10.00">panoc&#45;alm/util/box.hpp</text>
</a>
</g>
</g>
<!-- Node2&#45;&gt;Node3 -->
<g id="edge2" class="edge">
<title>Node2&#45;&gt;Node3</title>
<path fill="none" stroke="midnightblue" d="M137.32,-179.4C121.87,-168.6 100.64,-153.76 85.08,-142.89"/>
<polygon fill="midnightblue" stroke="midnightblue" points="86.87,-139.87 76.67,-137.01 82.86,-145.6 86.87,-139.87"/>
</g>
<!-- Node4 -->
<g id="node4" class="node">
<title>Node4</title>
<g id="a_node4"><a xlink:href="../../d7/d7c/vec_8hpp.html" target="_top" xlink:title=" ">
<polygon fill="white" stroke="black" points="83,-56.5 83,-75.5 138,-75.5 138,-56.5 83,-56.5"/>
<text text-anchor="middle" x="110.5" y="-63.5" font-family="Helvetica,sans-Serif" font-size="10.00">vec.hpp</text>
</a>
</g>
</g>
<!-- Node2&#45;&gt;Node4 -->
<g id="edge5" class="edge">
<title>Node2&#45;&gt;Node4</title>
<path fill="none" stroke="midnightblue" d="M155.62,-179.22C153.11,-162.6 147.84,-134.55 138.5,-112 134.41,-102.12 128.26,-91.93 122.76,-83.75"/>
<polygon fill="midnightblue" stroke="midnightblue" points="125.58,-81.68 116.98,-75.5 119.85,-85.7 125.58,-81.68"/>
</g>
<!-- Node6 -->
<g id="node6" class="node">
<title>Node6</title>
<g id="a_node6"><a xlink:href="../../d4/d5e/lbfgs-fwd_8hpp.html" target="_top" xlink:title=" ">
<polygon fill="white" stroke="black" points="186,-112.5 186,-142.5 333,-142.5 333,-112.5 186,-112.5"/>
<text text-anchor="start" x="194" y="-130.5" font-family="Helvetica,sans-Serif" font-size="10.00">panoc&#45;alm/inner/directions</text>
<text text-anchor="middle" x="259.5" y="-119.5" font-family="Helvetica,sans-Serif" font-size="10.00">/decl/lbfgs&#45;fwd.hpp</text>
</a>
</g>
</g>
<!-- Node2&#45;&gt;Node6 -->
<g id="edge6" class="edge">
<title>Node2&#45;&gt;Node6</title>
<path fill="none" stroke="midnightblue" d="M179.63,-179.4C194.07,-170.2 213.1,-158.07 228.97,-147.95"/>
<polygon fill="midnightblue" stroke="midnightblue" points="230.86,-150.9 237.41,-142.58 227.1,-145 230.86,-150.9"/>
</g>
<!-- Node3&#45;&gt;Node4 -->
<g id="edge3" class="edge">
<title>Node3&#45;&gt;Node4</title>
<path fill="none" stroke="midnightblue" d="M71.09,-117.98C77.99,-109.05 89,-94.81 97.63,-83.64"/>
<polygon fill="midnightblue" stroke="midnightblue" points="100.57,-85.56 103.92,-75.51 95.04,-81.28 100.57,-85.56"/>
</g>
<!-- Node5 -->
<g id="node5" class="node">
<title>Node5</title>
<g id="a_node5"><a xlink:title=" ">
<polygon fill="white" stroke="#bfbfbf" points="76,-0.5 76,-19.5 145,-19.5 145,-0.5 76,-0.5"/>
<text text-anchor="middle" x="110.5" y="-7.5" font-family="Helvetica,sans-Serif" font-size="10.00">Eigen/Core</text>
</a>
</g>
</g>
<!-- Node4&#45;&gt;Node5 -->
<g id="edge4" class="edge">
<title>Node4&#45;&gt;Node5</title>
<path fill="none" stroke="midnightblue" d="M110.5,-56.08C110.5,-49.01 110.5,-38.86 110.5,-29.99"/>
<polygon fill="midnightblue" stroke="midnightblue" points="114,-29.75 110.5,-19.75 107,-29.75 114,-29.75"/>
</g>
</g>
</svg>
