<?xml version="1.0" encoding="UTF-8" standalone="no"?>
<!DOCTYPE svg PUBLIC "-//W3C//DTD SVG 1.1//EN"
 "http://www.w3.org/Graphics/SVG/1.1/DTD/svg11.dtd">
<!-- Generated by graphviz version 2.43.0 (0)
 -->
<!-- Title: ProblemWithCounters Pages: 1 -->
<svg width="186pt" height="441pt"
 viewBox="0.00 0.00 186.00 441.00" xmlns="http://www.w3.org/2000/svg" xmlns:xlink="http://www.w3.org/1999/xlink">
<g id="graph0" class="graph" transform="scale(1 1) rotate(0) translate(4 437)">
<title>ProblemWithCounters</title>
<polygon fill="white" stroke="transparent" points="-4,4 -4,-437 182,-437 182,4 -4,4"/>
<!-- Node1 -->
<g id="node1" class="node">
<title>Node1</title>
<g id="a_node1"><a xlink:title=" ">
<polygon fill="#bfbfbf" stroke="black" points="15,-0.5 15,-134.5 157,-134.5 157,-0.5 15,-0.5"/>
<text text-anchor="middle" x="86" y="-122.5" font-family="Helvetica,sans-Serif" font-size="10.00">ProblemWithCounters</text>
<polyline fill="none" stroke="black" points="15,-115.5 157,-115.5 "/>
<text text-anchor="middle" x="86" y="-103.5" font-family="Helvetica,sans-Serif" font-size="10.00"> </text>
<polyline fill="none" stroke="black" points="15,-96.5 157,-96.5 "/>
<text text-anchor="start" x="23" y="-84.5" font-family="Helvetica,sans-Serif" font-size="10.00">+ ProblemWithCounters()</text>
<text text-anchor="start" x="23" y="-73.5" font-family="Helvetica,sans-Serif" font-size="10.00">+ ProblemWithCounters()</text>
<text text-anchor="start" x="23" y="-62.5" font-family="Helvetica,sans-Serif" font-size="10.00">+ ProblemWithCounters()</text>
<text text-anchor="start" x="23" y="-51.5" font-family="Helvetica,sans-Serif" font-size="10.00">+ ProblemWithCounters()</text>
<text text-anchor="start" x="23" y="-40.5" font-family="Helvetica,sans-Serif" font-size="10.00">+ ProblemWithCounters()</text>
<text text-anchor="start" x="23" y="-29.5" font-family="Helvetica,sans-Serif" font-size="10.00">+ operator=()</text>
<text text-anchor="start" x="23" y="-18.5" font-family="Helvetica,sans-Serif" font-size="10.00">+ operator=()</text>
<text text-anchor="start" x="23" y="-7.5" font-family="Helvetica,sans-Serif" font-size="10.00">&#45; attach_counters()</text>
</a>
</g>
</g>
<!-- Node2 -->
<g id="node2" class="node">
<title>Node2</title>
<g id="a_node2"><a xlink:href="../../d4/da7/structpa_1_1Problem.html" target="_top" xlink:title="Problem description for minimization problems.">
<polygon fill="white" stroke="black" points="12.5,-182.5 12.5,-305.5 73.5,-305.5 73.5,-182.5 12.5,-182.5"/>
<text text-anchor="middle" x="43" y="-293.5" font-family="Helvetica,sans-Serif" font-size="10.00">Problem</text>
<polyline fill="none" stroke="black" points="12.5,-286.5 73.5,-286.5 "/>
<text text-anchor="start" x="20.5" y="-274.5" font-family="Helvetica,sans-Serif" font-size="10.00">+ n</text>
<text text-anchor="start" x="20.5" y="-263.5" font-family="Helvetica,sans-Serif" font-size="10.00">+ m</text>
<text text-anchor="start" x="20.5" y="-252.5" font-family="Helvetica,sans-Serif" font-size="10.00">+ f</text>
<text text-anchor="start" x="20.5" y="-241.5" font-family="Helvetica,sans-Serif" font-size="10.00">+ grad_f</text>
<text text-anchor="start" x="20.5" y="-230.5" font-family="Helvetica,sans-Serif" font-size="10.00">+ g</text>
<text text-anchor="start" x="20.5" y="-219.5" font-family="Helvetica,sans-Serif" font-size="10.00">+ grad_g</text>
<text text-anchor="start" x="20.5" y="-208.5" font-family="Helvetica,sans-Serif" font-size="10.00">+ hess_L</text>
<polyline fill="none" stroke="black" points="12.5,-201.5 73.5,-201.5 "/>
<text text-anchor="middle" x="43" y="-189.5" font-family="Helvetica,sans-Serif" font-size="10.00"> </text>
</a>
</g>
</g>
<!-- Node2&#45;&gt;Node1 -->
<g id="edge1" class="edge">
<title>Node2&#45;&gt;Node1</title>
<path fill="none" stroke="midnightblue" d="M60.36,-172.53C63.45,-160 66.66,-147 69.71,-134.59"/>
<polygon fill="none" stroke="midnightblue" points="56.91,-171.91 57.92,-182.46 63.71,-173.59 56.91,-171.91"/>
</g>
<!-- Node3 -->
<g id="node3" class="node">
<title>Node3</title>
<g id="a_node3"><a xlink:href="../../de/d4f/namespacepa.html#d8/d2d/structpa_1_1Box" target="_top" xlink:title=" ">
<polygon fill="white" stroke="black" points="0,-364.5 0,-432.5 86,-432.5 86,-364.5 0,-364.5"/>
<text text-anchor="middle" x="43" y="-420.5" font-family="Helvetica,sans-Serif" font-size="10.00">Box</text>
<polyline fill="none" stroke="black" points="0,-413.5 86,-413.5 "/>
<text text-anchor="start" x="8" y="-401.5" font-family="Helvetica,sans-Serif" font-size="10.00">+ upperbound</text>
<text text-anchor="start" x="8" y="-390.5" font-family="Helvetica,sans-Serif" font-size="10.00">+ lowerbound</text>
<polyline fill="none" stroke="black" points="0,-383.5 86,-383.5 "/>
<text text-anchor="middle" x="43" y="-371.5" font-family="Helvetica,sans-Serif" font-size="10.00"> </text>
</a>
</g>
</g>
<!-- Node3&#45;&gt;Node2 -->
<g id="edge2" class="edge">
<title>Node3&#45;&gt;Node2</title>
<path fill="none" stroke="#404040" d="M43,-364.41C43,-350.73 43,-334.28 43,-318.03"/>
<polygon fill="none" stroke="#404040" points="43,-317.69 39,-311.69 43,-305.69 47,-311.69 43,-317.69"/>
<text text-anchor="middle" x="52.5" y="-338" font-family="Helvetica,sans-Serif" font-size="10.00"> +C</text>
<text text-anchor="middle" x="52.5" y="-327" font-family="Helvetica,sans-Serif" font-size="10.00">+D</text>
</g>
<!-- Node4 -->
<g id="node4" class="node">
<title>Node4</title>
<g id="a_node4"><a xlink:href="../../d7/d06/structpa_1_1EvalCounter.html" target="_top" xlink:title=" ">
<polygon fill="white" stroke="black" points="92,-193.5 92,-294.5 168,-294.5 168,-193.5 92,-193.5"/>
<text text-anchor="middle" x="130" y="-282.5" font-family="Helvetica,sans-Serif" font-size="10.00">EvalCounter</text>
<polyline fill="none" stroke="black" points="92,-275.5 168,-275.5 "/>
<text text-anchor="start" x="100" y="-263.5" font-family="Helvetica,sans-Serif" font-size="10.00">+ f</text>
<text text-anchor="start" x="100" y="-252.5" font-family="Helvetica,sans-Serif" font-size="10.00">+ grad_f</text>
<text text-anchor="start" x="100" y="-241.5" font-family="Helvetica,sans-Serif" font-size="10.00">+ g</text>
<text text-anchor="start" x="100" y="-230.5" font-family="Helvetica,sans-Serif" font-size="10.00">+ grad_g</text>
<text text-anchor="start" x="100" y="-219.5" font-family="Helvetica,sans-Serif" font-size="10.00">+ hess_L</text>
<polyline fill="none" stroke="black" points="92,-212.5 168,-212.5 "/>
<text text-anchor="start" x="100" y="-200.5" font-family="Helvetica,sans-Serif" font-size="10.00">+ reset()</text>
</a>
</g>
</g>
<!-- Node4&#45;&gt;Node1 -->
<g id="edge3" class="edge">
<title>Node4&#45;&gt;Node1</title>
<path fill="none" stroke="#404040" d="M117.51,-193.46C113.84,-178.93 109.74,-162.67 105.74,-146.8"/>
<polygon fill="none" stroke="#404040" points="105.65,-146.42 100.3,-141.58 102.71,-134.79 108.06,-139.63 105.65,-146.42"/>
<text text-anchor="middle" x="143.5" y="-156" font-family="Helvetica,sans-Serif" font-size="10.00"> +evaluations</text>
</g>
</g>
</svg>
