<?xml version="1.0" encoding="UTF-8" standalone="no"?>
<!DOCTYPE svg PUBLIC "-//W3C//DTD SVG 1.1//EN"
 "http://www.w3.org/Graphics/SVG/1.1/DTD/svg11.dtd">
<!-- Generated by graphviz version 2.43.0 (0)
 -->
<!-- Title: panocexperiment.cpp Pages: 1 -->
<svg width="1641pt" height="352pt"
 viewBox="0.00 0.00 1641.00 352.00" xmlns="http://www.w3.org/2000/svg" xmlns:xlink="http://www.w3.org/1999/xlink">
<g id="graph0" class="graph" transform="scale(1 1) rotate(0) translate(4 348)">
<title>panocexperiment.cpp</title>
<polygon fill="white" stroke="transparent" points="-4,4 -4,-348 1637,-348 1637,4 -4,4"/>
<!-- Node1 -->
<g id="node1" class="node">
<title>Node1</title>
<g id="a_node1"><a xlink:title=" ">
<polygon fill="#bfbfbf" stroke="black" points="1033.5,-324.5 1033.5,-343.5 1155.5,-343.5 1155.5,-324.5 1033.5,-324.5"/>
<text text-anchor="middle" x="1094.5" y="-331.5" font-family="Helvetica,sans-Serif" font-size="10.00">panocexperiment.cpp</text>
</a>
</g>
</g>
<!-- Node2 -->
<g id="node2" class="node">
<title>Node2</title>
<g id="a_node2"><a xlink:href="../../d2/da2/decl_2panoc_8hpp.html" target="_top" xlink:title=" ">
<polygon fill="white" stroke="black" points="675,-252 675,-282 794,-282 794,-252 675,-252"/>
<text text-anchor="start" x="683" y="-270" font-family="Helvetica,sans-Serif" font-size="10.00">panoc&#45;alm/inner/decl</text>
<text text-anchor="middle" x="734.5" y="-259" font-family="Helvetica,sans-Serif" font-size="10.00">/panoc.hpp</text>
</a>
</g>
</g>
<!-- Node1&#45;&gt;Node2 -->
<g id="edge1" class="edge">
<title>Node1&#45;&gt;Node2</title>
<path fill="none" stroke="midnightblue" d="M1047.07,-324.44C985.01,-313.23 875.79,-293.51 804.29,-280.6"/>
<polygon fill="midnightblue" stroke="midnightblue" points="804.48,-277.08 794.02,-278.75 803.24,-283.97 804.48,-277.08"/>
</g>
<!-- Node6 -->
<g id="node6" class="node">
<title>Node6</title>
<g id="a_node6"><a xlink:title=" ">
<polygon fill="white" stroke="#bfbfbf" points="861.5,-118 861.5,-137 911.5,-137 911.5,-118 861.5,-118"/>
<text text-anchor="middle" x="886.5" y="-125" font-family="Helvetica,sans-Serif" font-size="10.00">atomic</text>
</a>
</g>
</g>
<!-- Node1&#45;&gt;Node6 -->
<g id="edge24" class="edge">
<title>Node1&#45;&gt;Node6</title>
<path fill="none" stroke="midnightblue" d="M1086.22,-324.36C1078.38,-315.75 1066.74,-301.86 1059.5,-288 1035.99,-243.03 1060.55,-215.7 1025.5,-179 998.1,-150.31 953.13,-137.85 921.79,-132.49"/>
<polygon fill="midnightblue" stroke="midnightblue" points="922.14,-129 911.72,-130.93 921.07,-135.92 922.14,-129"/>
</g>
<!-- Node15 -->
<g id="node15" class="node">
<title>Node15</title>
<g id="a_node15"><a xlink:title=" ">
<polygon fill="white" stroke="#bfbfbf" points="966.5,-185 966.5,-204 1016.5,-204 1016.5,-185 966.5,-185"/>
<text text-anchor="middle" x="991.5" y="-192" font-family="Helvetica,sans-Serif" font-size="10.00">chrono</text>
</a>
</g>
</g>
<!-- Node1&#45;&gt;Node15 -->
<g id="edge25" class="edge">
<title>Node1&#45;&gt;Node15</title>
<path fill="none" stroke="midnightblue" d="M1075.39,-324.47C1060.26,-316.85 1039.58,-304.37 1026.5,-288 1008.86,-265.92 999.43,-233.99 994.95,-214.01"/>
<polygon fill="midnightblue" stroke="midnightblue" points="998.34,-213.12 992.91,-204.03 991.49,-214.53 998.34,-213.12"/>
</g>
<!-- Node18 -->
<g id="node18" class="node">
<title>Node18</title>
<g id="a_node18"><a xlink:href="../../d1/db5/decl_2lbfgs_8hpp.html" target="_top" xlink:title=" ">
<polygon fill="white" stroke="black" points="0,-179.5 0,-209.5 147,-209.5 147,-179.5 0,-179.5"/>
<text text-anchor="start" x="8" y="-197.5" font-family="Helvetica,sans-Serif" font-size="10.00">panoc&#45;alm/inner/directions</text>
<text text-anchor="middle" x="73.5" y="-186.5" font-family="Helvetica,sans-Serif" font-size="10.00">/decl/lbfgs.hpp</text>
</a>
</g>
</g>
<!-- Node1&#45;&gt;Node18 -->
<g id="edge18" class="edge">
<title>Node1&#45;&gt;Node18</title>
<path fill="none" stroke="midnightblue" d="M1033.47,-331.37C879.96,-326.92 480.8,-313.24 350.5,-288 264.98,-271.43 169.49,-235.44 115.93,-213.56"/>
<polygon fill="midnightblue" stroke="midnightblue" points="117,-210.22 106.43,-209.64 114.34,-216.69 117,-210.22"/>
</g>
<!-- Node19 -->
<g id="node19" class="node">
<title>Node19</title>
<g id="a_node19"><a xlink:href="../../de/db7/riskaverse-mpc_8hpp.html" target="_top" xlink:title=" ">
<polygon fill="white" stroke="black" points="360,-246.5 360,-287.5 479,-287.5 479,-246.5 360,-246.5"/>
<text text-anchor="start" x="368" y="-275.5" font-family="Helvetica,sans-Serif" font-size="10.00">panoc&#45;alm/reference</text>
<text text-anchor="start" x="368" y="-264.5" font-family="Helvetica,sans-Serif" font-size="10.00">&#45;problems/riskaverse</text>
<text text-anchor="middle" x="419.5" y="-253.5" font-family="Helvetica,sans-Serif" font-size="10.00">&#45;mpc.hpp</text>
</a>
</g>
</g>
<!-- Node1&#45;&gt;Node19 -->
<g id="edge22" class="edge">
<title>Node1&#45;&gt;Node19</title>
<path fill="none" stroke="midnightblue" d="M1033.41,-327.12C907.84,-315.03 621.46,-287.45 489.03,-274.7"/>
<polygon fill="midnightblue" stroke="midnightblue" points="489.29,-271.2 479,-273.73 488.62,-278.17 489.29,-271.2"/>
</g>
<!-- Node20 -->
<g id="node20" class="node">
<title>Node20</title>
<g id="a_node20"><a xlink:title=" ">
<polygon fill="white" stroke="#bfbfbf" points="1069,-257.5 1069,-276.5 1120,-276.5 1120,-257.5 1069,-257.5"/>
<text text-anchor="middle" x="1094.5" y="-264.5" font-family="Helvetica,sans-Serif" font-size="10.00">csignal</text>
</a>
</g>
</g>
<!-- Node1&#45;&gt;Node20 -->
<g id="edge26" class="edge">
<title>Node1&#45;&gt;Node20</title>
<path fill="none" stroke="midnightblue" d="M1094.5,-324.23C1094.5,-314.68 1094.5,-299.12 1094.5,-286.78"/>
<polygon fill="midnightblue" stroke="midnightblue" points="1098,-286.63 1094.5,-276.63 1091,-286.63 1098,-286.63"/>
</g>
<!-- Node21 -->
<g id="node21" class="node">
<title>Node21</title>
<g id="a_node21"><a xlink:title=" ">
<polygon fill="white" stroke="#bfbfbf" points="1138,-257.5 1138,-276.5 1193,-276.5 1193,-257.5 1138,-257.5"/>
<text text-anchor="middle" x="1165.5" y="-264.5" font-family="Helvetica,sans-Serif" font-size="10.00">fstream</text>
</a>
</g>
</g>
<!-- Node1&#45;&gt;Node21 -->
<g id="edge27" class="edge">
<title>Node1&#45;&gt;Node21</title>
<path fill="none" stroke="midnightblue" d="M1104.08,-324.23C1115.47,-313.81 1134.69,-296.21 1148.6,-283.47"/>
<polygon fill="midnightblue" stroke="midnightblue" points="1151.06,-285.96 1156.08,-276.63 1146.34,-280.8 1151.06,-285.96"/>
</g>
<!-- Node22 -->
<g id="node22" class="node">
<title>Node22</title>
<g id="a_node22"><a xlink:title=" ">
<polygon fill="white" stroke="#bfbfbf" points="1211.5,-257.5 1211.5,-276.5 1271.5,-276.5 1271.5,-257.5 1211.5,-257.5"/>
<text text-anchor="middle" x="1241.5" y="-264.5" font-family="Helvetica,sans-Serif" font-size="10.00">iostream</text>
</a>
</g>
</g>
<!-- Node1&#45;&gt;Node22 -->
<g id="edge28" class="edge">
<title>Node1&#45;&gt;Node22</title>
<path fill="none" stroke="midnightblue" d="M1116.65,-324.37C1138.64,-315.66 1173.2,-301.59 1202.5,-288 1207.01,-285.91 1211.75,-283.58 1216.32,-281.28"/>
<polygon fill="midnightblue" stroke="midnightblue" points="1218.02,-284.34 1225.32,-276.66 1214.83,-278.11 1218.02,-284.34"/>
</g>
<!-- Node23 -->
<g id="node23" class="node">
<title>Node23</title>
<g id="a_node23"><a xlink:title=" ">
<polygon fill="white" stroke="#bfbfbf" points="1289.5,-257.5 1289.5,-276.5 1345.5,-276.5 1345.5,-257.5 1289.5,-257.5"/>
<text text-anchor="middle" x="1317.5" y="-264.5" font-family="Helvetica,sans-Serif" font-size="10.00">sstream</text>
</a>
</g>
</g>
<!-- Node1&#45;&gt;Node23 -->
<g id="edge29" class="edge">
<title>Node1&#45;&gt;Node23</title>
<path fill="none" stroke="midnightblue" d="M1144.9,-324.46C1182.94,-317.15 1235.99,-305.08 1280.5,-288 1285.2,-286.2 1290.04,-283.92 1294.62,-281.55"/>
<polygon fill="midnightblue" stroke="midnightblue" points="1296.41,-284.55 1303.5,-276.68 1293.05,-278.42 1296.41,-284.55"/>
</g>
<!-- Node24 -->
<g id="node24" class="node">
<title>Node24</title>
<g id="a_node24"><a xlink:title=" ">
<polygon fill="white" stroke="#bfbfbf" points="1363.5,-257.5 1363.5,-276.5 1473.5,-276.5 1473.5,-257.5 1363.5,-257.5"/>
<text text-anchor="middle" x="1418.5" y="-264.5" font-family="Helvetica,sans-Serif" font-size="10.00">yaml&#45;cpp/emitter.h</text>
</a>
</g>
</g>
<!-- Node1&#45;&gt;Node24 -->
<g id="edge30" class="edge">
<title>Node1&#45;&gt;Node24</title>
<path fill="none" stroke="midnightblue" d="M1155.64,-324.74C1208.63,-317.03 1287.15,-304.28 1354.5,-288 1364.24,-285.65 1374.67,-282.61 1384.22,-279.62"/>
<polygon fill="midnightblue" stroke="midnightblue" points="1385.34,-282.94 1393.79,-276.56 1383.2,-276.28 1385.34,-282.94"/>
</g>
<!-- Node25 -->
<g id="node25" class="node">
<title>Node25</title>
<g id="a_node25"><a xlink:title=" ">
<polygon fill="white" stroke="#bfbfbf" points="1492,-257.5 1492,-276.5 1633,-276.5 1633,-257.5 1492,-257.5"/>
<text text-anchor="middle" x="1562.5" y="-264.5" font-family="Helvetica,sans-Serif" font-size="10.00">yaml&#45;cpp/emittermanip.h</text>
</a>
</g>
</g>
<!-- Node1&#45;&gt;Node25 -->
<g id="edge31" class="edge">
<title>Node1&#45;&gt;Node25</title>
<path fill="none" stroke="midnightblue" d="M1155.68,-328.37C1232.44,-322 1367.92,-308.88 1482.5,-288 1495.61,-285.61 1509.77,-282.31 1522.48,-279.09"/>
<polygon fill="midnightblue" stroke="midnightblue" points="1523.51,-282.43 1532.31,-276.53 1521.75,-275.66 1523.51,-282.43"/>
</g>
<!-- Node3 -->
<g id="node3" class="node">
<title>Node3</title>
<g id="a_node3"><a xlink:href="../../d4/d83/panoc-fwd_8hpp.html" target="_top" xlink:title=" ">
<polygon fill="white" stroke="black" points="398,-179.5 398,-209.5 517,-209.5 517,-179.5 398,-179.5"/>
<text text-anchor="start" x="406" y="-197.5" font-family="Helvetica,sans-Serif" font-size="10.00">panoc&#45;alm/inner/decl</text>
<text text-anchor="middle" x="457.5" y="-186.5" font-family="Helvetica,sans-Serif" font-size="10.00">/panoc&#45;fwd.hpp</text>
</a>
</g>
</g>
<!-- Node2&#45;&gt;Node3 -->
<g id="edge2" class="edge">
<title>Node2&#45;&gt;Node3</title>
<path fill="none" stroke="midnightblue" d="M679.44,-251.99C634.37,-240.52 570.5,-224.26 522.84,-212.13"/>
<polygon fill="midnightblue" stroke="midnightblue" points="523.48,-208.68 512.93,-209.61 521.75,-215.47 523.48,-208.68"/>
</g>
<!-- Node5 -->
<g id="node5" class="node">
<title>Node5</title>
<g id="a_node5"><a xlink:href="../../d4/d52/atomic__stop__signal_8hpp.html" target="_top" xlink:title=" ">
<polygon fill="white" stroke="black" points="824.5,-179.5 824.5,-209.5 948.5,-209.5 948.5,-179.5 824.5,-179.5"/>
<text text-anchor="start" x="832.5" y="-197.5" font-family="Helvetica,sans-Serif" font-size="10.00">panoc&#45;alm/util/atomic</text>
<text text-anchor="middle" x="886.5" y="-186.5" font-family="Helvetica,sans-Serif" font-size="10.00">_stop_signal.hpp</text>
</a>
</g>
</g>
<!-- Node2&#45;&gt;Node5 -->
<g id="edge4" class="edge">
<title>Node2&#45;&gt;Node5</title>
<path fill="none" stroke="midnightblue" d="M764.89,-251.9C788.51,-240.95 821.43,-225.68 847.07,-213.79"/>
<polygon fill="midnightblue" stroke="midnightblue" points="848.56,-216.96 856.16,-209.57 845.61,-210.61 848.56,-216.96"/>
</g>
<!-- Node2&#45;&gt;Node6 -->
<g id="edge14" class="edge">
<title>Node2&#45;&gt;Node6</title>
<path fill="none" stroke="midnightblue" d="M733.7,-251.86C733.42,-233 735.73,-199.61 753.5,-179 778.17,-150.38 820.84,-137.94 851.2,-132.55"/>
<polygon fill="midnightblue" stroke="midnightblue" points="852.05,-135.96 861.37,-130.93 850.94,-129.05 852.05,-135.96"/>
</g>
<!-- Node7 -->
<g id="node7" class="node">
<title>Node7</title>
<g id="a_node7"><a xlink:href="../../d5/d37/problem_8hpp.html" target="_top" xlink:title=" ">
<polygon fill="white" stroke="black" points="165.5,-185 165.5,-204 317.5,-204 317.5,-185 165.5,-185"/>
<text text-anchor="middle" x="241.5" y="-192" font-family="Helvetica,sans-Serif" font-size="10.00">panoc&#45;alm/util/problem.hpp</text>
</a>
</g>
</g>
<!-- Node2&#45;&gt;Node7 -->
<g id="edge6" class="edge">
<title>Node2&#45;&gt;Node7</title>
<path fill="none" stroke="midnightblue" d="M674.95,-258.44C595.42,-248.21 450.16,-229.03 326.5,-210 317.9,-208.68 308.82,-207.21 299.93,-205.72"/>
<polygon fill="midnightblue" stroke="midnightblue" points="300.44,-202.26 290,-204.05 299.28,-209.17 300.44,-202.26"/>
</g>
<!-- Node13 -->
<g id="node13" class="node">
<title>Node13</title>
<g id="a_node13"><a xlink:href="../../dc/d8c/solverstatus_8hpp.html" target="_top" xlink:title=" ">
<polygon fill="white" stroke="black" points="535,-185 535,-204 706,-204 706,-185 535,-185"/>
<text text-anchor="middle" x="620.5" y="-192" font-family="Helvetica,sans-Serif" font-size="10.00">panoc&#45;alm/util/solverstatus.hpp</text>
</a>
</g>
</g>
<!-- Node2&#45;&gt;Node13 -->
<g id="edge12" class="edge">
<title>Node2&#45;&gt;Node13</title>
<path fill="none" stroke="midnightblue" d="M711.7,-251.9C691.74,-239.55 662.88,-221.71 643,-209.41"/>
<polygon fill="midnightblue" stroke="midnightblue" points="644.64,-206.32 634.3,-204.03 640.96,-212.27 644.64,-206.32"/>
</g>
<!-- Node2&#45;&gt;Node15 -->
<g id="edge15" class="edge">
<title>Node2&#45;&gt;Node15</title>
<path fill="none" stroke="midnightblue" d="M794.39,-253.64C839.71,-243.65 903.21,-228.27 957.5,-210 959.42,-209.36 961.38,-208.65 963.34,-207.91"/>
<polygon fill="midnightblue" stroke="midnightblue" points="965.03,-211 973,-204.01 962.42,-204.51 965.03,-211"/>
</g>
<!-- Node16 -->
<g id="node16" class="node">
<title>Node16</title>
<g id="a_node16"><a xlink:title=" ">
<polygon fill="white" stroke="#bfbfbf" points="762.5,-185 762.5,-204 806.5,-204 806.5,-185 762.5,-185"/>
<text text-anchor="middle" x="784.5" y="-192" font-family="Helvetica,sans-Serif" font-size="10.00">limits</text>
</a>
</g>
</g>
<!-- Node2&#45;&gt;Node16 -->
<g id="edge16" class="edge">
<title>Node2&#45;&gt;Node16</title>
<path fill="none" stroke="midnightblue" d="M744.62,-251.73C752.62,-240.45 763.83,-224.65 772.32,-212.67"/>
<polygon fill="midnightblue" stroke="midnightblue" points="775.26,-214.57 778.19,-204.39 769.55,-210.53 775.26,-214.57"/>
</g>
<!-- Node17 -->
<g id="node17" class="node">
<title>Node17</title>
<g id="a_node17"><a xlink:title=" ">
<polygon fill="white" stroke="#bfbfbf" points="335.5,-185 335.5,-204 379.5,-204 379.5,-185 335.5,-185"/>
<text text-anchor="middle" x="357.5" y="-192" font-family="Helvetica,sans-Serif" font-size="10.00">string</text>
</a>
</g>
</g>
<!-- Node2&#45;&gt;Node17 -->
<g id="edge17" class="edge">
<title>Node2&#45;&gt;Node17</title>
<path fill="none" stroke="midnightblue" d="M674.9,-261.4C605.03,-254.86 486.34,-240.16 388.5,-210 386.63,-209.42 384.72,-208.75 382.82,-208.02"/>
<polygon fill="midnightblue" stroke="midnightblue" points="384.14,-204.78 373.57,-204.05 381.38,-211.21 384.14,-204.78"/>
</g>
<!-- Node4 -->
<g id="node4" class="node">
<title>Node4</title>
<g id="a_node4"><a xlink:href="../../d4/d5e/lbfgs-fwd_8hpp.html" target="_top" xlink:title=" ">
<polygon fill="white" stroke="black" points="120,-112.5 120,-142.5 267,-142.5 267,-112.5 120,-112.5"/>
<text text-anchor="start" x="128" y="-130.5" font-family="Helvetica,sans-Serif" font-size="10.00">panoc&#45;alm/inner/directions</text>
<text text-anchor="middle" x="193.5" y="-119.5" font-family="Helvetica,sans-Serif" font-size="10.00">/decl/lbfgs&#45;fwd.hpp</text>
</a>
</g>
</g>
<!-- Node3&#45;&gt;Node4 -->
<g id="edge3" class="edge">
<title>Node3&#45;&gt;Node4</title>
<path fill="none" stroke="midnightblue" d="M400.54,-179.48C359.48,-169.37 303.91,-155.68 260.68,-145.04"/>
<polygon fill="midnightblue" stroke="midnightblue" points="261.36,-141.6 250.81,-142.61 259.69,-148.4 261.36,-141.6"/>
</g>
<!-- Node5&#45;&gt;Node6 -->
<g id="edge5" class="edge">
<title>Node5&#45;&gt;Node6</title>
<path fill="none" stroke="midnightblue" d="M886.5,-179.4C886.5,-170.06 886.5,-157.71 886.5,-147.52"/>
<polygon fill="midnightblue" stroke="midnightblue" points="890,-147.19 886.5,-137.19 883,-147.19 890,-147.19"/>
</g>
<!-- Node8 -->
<g id="node8" class="node">
<title>Node8</title>
<g id="a_node8"><a xlink:href="../../d7/de4/box_8hpp.html" target="_top" xlink:title=" ">
<polygon fill="white" stroke="black" points="45.5,-118 45.5,-137 101.5,-137 101.5,-118 45.5,-118"/>
<text text-anchor="middle" x="73.5" y="-125" font-family="Helvetica,sans-Serif" font-size="10.00">box.hpp</text>
</a>
</g>
</g>
<!-- Node7&#45;&gt;Node8 -->
<g id="edge7" class="edge">
<title>Node7&#45;&gt;Node8</title>
<path fill="none" stroke="midnightblue" d="M219.23,-184.96C193.16,-174.95 148.67,-157.84 110.5,-143 108.67,-142.29 106.78,-141.55 104.88,-140.81"/>
<polygon fill="midnightblue" stroke="midnightblue" points="105.99,-137.49 95.4,-137.11 103.44,-144.01 105.99,-137.49"/>
</g>
<!-- Node11 -->
<g id="node11" class="node">
<title>Node11</title>
<g id="a_node11"><a xlink:title=" ">
<polygon fill="white" stroke="#bfbfbf" points="285,-118 285,-137 350,-137 350,-118 285,-118"/>
<text text-anchor="middle" x="317.5" y="-125" font-family="Helvetica,sans-Serif" font-size="10.00">functional</text>
</a>
</g>
</g>
<!-- Node7&#45;&gt;Node11 -->
<g id="edge10" class="edge">
<title>Node7&#45;&gt;Node11</title>
<path fill="none" stroke="midnightblue" d="M251.75,-184.73C263.94,-174.31 284.52,-156.71 299.41,-143.97"/>
<polygon fill="midnightblue" stroke="midnightblue" points="302.09,-146.29 307.41,-137.13 297.54,-140.97 302.09,-146.29"/>
</g>
<!-- Node12 -->
<g id="node12" class="node">
<title>Node12</title>
<g id="a_node12"><a xlink:title=" ">
<polygon fill="white" stroke="#bfbfbf" points="368,-118 368,-137 437,-137 437,-118 368,-118"/>
<text text-anchor="middle" x="402.5" y="-125" font-family="Helvetica,sans-Serif" font-size="10.00">type_traits</text>
</a>
</g>
</g>
<!-- Node7&#45;&gt;Node12 -->
<g id="edge11" class="edge">
<title>Node7&#45;&gt;Node12</title>
<path fill="none" stroke="midnightblue" d="M262.88,-184.87C290.86,-173.57 340.09,-153.7 371.99,-140.82"/>
<polygon fill="midnightblue" stroke="midnightblue" points="373.33,-144.05 381.29,-137.06 370.71,-137.56 373.33,-144.05"/>
</g>
<!-- Node9 -->
<g id="node9" class="node">
<title>Node9</title>
<g id="a_node9"><a xlink:href="../../d7/d7c/vec_8hpp.html" target="_top" xlink:title=" ">
<polygon fill="white" stroke="black" points="18,-56.5 18,-75.5 73,-75.5 73,-56.5 18,-56.5"/>
<text text-anchor="middle" x="45.5" y="-63.5" font-family="Helvetica,sans-Serif" font-size="10.00">vec.hpp</text>
</a>
</g>
</g>
<!-- Node8&#45;&gt;Node9 -->
<g id="edge8" class="edge">
<title>Node8&#45;&gt;Node9</title>
<path fill="none" stroke="midnightblue" d="M69.49,-117.98C65.41,-109.32 58.98,-95.65 53.8,-84.65"/>
<polygon fill="midnightblue" stroke="midnightblue" points="56.93,-83.07 49.5,-75.51 50.6,-86.05 56.93,-83.07"/>
</g>
<!-- Node10 -->
<g id="node10" class="node">
<title>Node10</title>
<g id="a_node10"><a xlink:title=" ">
<polygon fill="white" stroke="#bfbfbf" points="11,-0.5 11,-19.5 80,-19.5 80,-0.5 11,-0.5"/>
<text text-anchor="middle" x="45.5" y="-7.5" font-family="Helvetica,sans-Serif" font-size="10.00">Eigen/Core</text>
</a>
</g>
</g>
<!-- Node9&#45;&gt;Node10 -->
<g id="edge9" class="edge">
<title>Node9&#45;&gt;Node10</title>
<path fill="none" stroke="midnightblue" d="M45.5,-56.08C45.5,-49.01 45.5,-38.86 45.5,-29.99"/>
<polygon fill="midnightblue" stroke="midnightblue" points="49,-29.75 45.5,-19.75 42,-29.75 49,-29.75"/>
</g>
<!-- Node14 -->
<g id="node14" class="node">
<title>Node14</title>
<g id="a_node14"><a xlink:title=" ">
<polygon fill="white" stroke="#bfbfbf" points="596.5,-118 596.5,-137 644.5,-137 644.5,-118 596.5,-118"/>
<text text-anchor="middle" x="620.5" y="-125" font-family="Helvetica,sans-Serif" font-size="10.00">iosfwd</text>
</a>
</g>
</g>
<!-- Node13&#45;&gt;Node14 -->
<g id="edge13" class="edge">
<title>Node13&#45;&gt;Node14</title>
<path fill="none" stroke="midnightblue" d="M620.5,-184.73C620.5,-175.18 620.5,-159.62 620.5,-147.28"/>
<polygon fill="midnightblue" stroke="midnightblue" points="624,-147.13 620.5,-137.13 617,-147.13 624,-147.13"/>
</g>
<!-- Node18&#45;&gt;Node4 -->
<g id="edge21" class="edge">
<title>Node18&#45;&gt;Node4</title>
<path fill="none" stroke="midnightblue" d="M99.54,-179.4C116.84,-170.03 139.75,-157.62 158.62,-147.39"/>
<polygon fill="midnightblue" stroke="midnightblue" points="160.39,-150.42 167.51,-142.58 157.05,-144.26 160.39,-150.42"/>
</g>
<!-- Node18&#45;&gt;Node8 -->
<g id="edge19" class="edge">
<title>Node18&#45;&gt;Node8</title>
<path fill="none" stroke="midnightblue" d="M73.5,-179.4C73.5,-170.06 73.5,-157.71 73.5,-147.52"/>
<polygon fill="midnightblue" stroke="midnightblue" points="77,-147.19 73.5,-137.19 70,-147.19 77,-147.19"/>
</g>
<!-- Node18&#45;&gt;Node9 -->
<g id="edge20" class="edge">
<title>Node18&#45;&gt;Node9</title>
<path fill="none" stroke="midnightblue" d="M59.39,-179.46C50.95,-170.03 41.03,-156.84 36.5,-143 30.26,-123.92 34.52,-100.88 39.06,-85.21"/>
<polygon fill="midnightblue" stroke="midnightblue" points="42.4,-86.26 42.13,-75.67 35.73,-84.12 42.4,-86.26"/>
</g>
<!-- Node19&#45;&gt;Node7 -->
<g id="edge23" class="edge">
<title>Node19&#45;&gt;Node7</title>
<path fill="none" stroke="midnightblue" d="M369.92,-246.36C338.9,-234.08 299.89,-218.63 273.05,-207.99"/>
<polygon fill="midnightblue" stroke="midnightblue" points="273.98,-204.6 263.4,-204.17 271.41,-211.11 273.98,-204.6"/>
</g>
</g>
</svg>
