<?xml version="1.0" encoding="UTF-8" standalone="no"?>
<!DOCTYPE svg PUBLIC "-//W3C//DTD SVG 1.1//EN"
 "http://www.w3.org/Graphics/SVG/1.1/DTD/svg11.dtd">
<!-- Generated by graphviz version 2.43.0 (0)
 -->
<!-- Title: experiment.cpp Pages: 1 -->
<svg width="1422pt" height="341pt"
 viewBox="0.00 0.00 1422.24 341.00" xmlns="http://www.w3.org/2000/svg" xmlns:xlink="http://www.w3.org/1999/xlink">
<g id="graph0" class="graph" transform="scale(1 1) rotate(0) translate(4 337)">
<title>experiment.cpp</title>
<polygon fill="white" stroke="transparent" points="-4,4 -4,-337 1418.24,-337 1418.24,4 -4,4"/>
<!-- Node1 -->
<g id="node1" class="node">
<title>Node1</title>
<g id="a_node1"><a xlink:title=" ">
<polygon fill="#bfbfbf" stroke="black" points="802.24,-313.5 802.24,-332.5 895.24,-332.5 895.24,-313.5 802.24,-313.5"/>
<text text-anchor="middle" x="848.74" y="-320.5" font-family="Helvetica,sans-Serif" font-size="10.00">experiment.cpp</text>
</a>
</g>
</g>
<!-- Node2 -->
<g id="node2" class="node">
<title>Node2</title>
<g id="a_node2"><a xlink:href="../../d4/dd2/decl_2alm_8hpp.html" target="_top" xlink:title=" ">
<polygon fill="white" stroke="black" points="501.74,-252 501.74,-271 635.74,-271 635.74,-252 501.74,-252"/>
<text text-anchor="middle" x="568.74" y="-259" font-family="Helvetica,sans-Serif" font-size="10.00">panoc&#45;alm/decl/alm.hpp</text>
</a>
</g>
</g>
<!-- Node1&#45;&gt;Node2 -->
<g id="edge1" class="edge">
<title>Node1&#45;&gt;Node2</title>
<path fill="none" stroke="midnightblue" d="M808.62,-313.48C758.62,-302.85 673.14,-284.68 618.87,-273.15"/>
<polygon fill="midnightblue" stroke="midnightblue" points="619.29,-269.66 608.78,-271.01 617.84,-276.51 619.29,-269.66"/>
</g>
<!-- Node13 -->
<g id="node13" class="node">
<title>Node13</title>
<g id="a_node13"><a xlink:title=" ">
<polygon fill="white" stroke="#bfbfbf" points="14.74,-185 14.74,-204 64.74,-204 64.74,-185 14.74,-185"/>
<text text-anchor="middle" x="39.74" y="-192" font-family="Helvetica,sans-Serif" font-size="10.00">chrono</text>
</a>
</g>
</g>
<!-- Node1&#45;&gt;Node13 -->
<g id="edge34" class="edge">
<title>Node1&#45;&gt;Node13</title>
<path fill="none" stroke="midnightblue" d="M801.99,-320.53C712.31,-317.12 510.14,-306.56 342.74,-277 244.01,-259.57 130.63,-225.08 74.7,-207.06"/>
<polygon fill="midnightblue" stroke="midnightblue" points="75.53,-203.66 64.94,-203.9 73.37,-210.31 75.53,-203.66"/>
</g>
<!-- Node15 -->
<g id="node15" class="node">
<title>Node15</title>
<g id="a_node15"><a xlink:href="../../d2/da2/decl_2panoc_8hpp.html" target="_top" xlink:title=" ">
<polygon fill="white" stroke="black" points="351.24,-246.5 351.24,-276.5 470.24,-276.5 470.24,-246.5 351.24,-246.5"/>
<text text-anchor="start" x="359.24" y="-264.5" font-family="Helvetica,sans-Serif" font-size="10.00">panoc&#45;alm/inner/decl</text>
<text text-anchor="middle" x="410.74" y="-253.5" font-family="Helvetica,sans-Serif" font-size="10.00">/panoc.hpp</text>
</a>
</g>
</g>
<!-- Node1&#45;&gt;Node15 -->
<g id="edge14" class="edge">
<title>Node1&#45;&gt;Node15</title>
<path fill="none" stroke="midnightblue" d="M801.99,-316.83C733.84,-309.14 603.3,-293.75 492.74,-277 488.64,-276.38 484.43,-275.71 480.18,-275.02"/>
<polygon fill="midnightblue" stroke="midnightblue" points="480.69,-271.56 470.25,-273.38 479.54,-278.47 480.69,-271.56"/>
</g>
<!-- Node17 -->
<g id="node17" class="node">
<title>Node17</title>
<g id="a_node17"><a xlink:title=" ">
<polygon fill="white" stroke="#bfbfbf" points="67.74,-118 67.74,-137 117.74,-137 117.74,-118 67.74,-118"/>
<text text-anchor="middle" x="92.74" y="-125" font-family="Helvetica,sans-Serif" font-size="10.00">atomic</text>
</a>
</g>
</g>
<!-- Node1&#45;&gt;Node17 -->
<g id="edge33" class="edge">
<title>Node1&#45;&gt;Node17</title>
<path fill="none" stroke="midnightblue" d="M802.13,-322.78C695.32,-323.7 425.1,-321.04 204.74,-277 113.23,-258.71 60.19,-285.79 5.74,-210 -2.3,-198.81 -1.14,-190.94 5.74,-179 16.94,-159.54 38.84,-146.89 57.86,-139.11"/>
<polygon fill="midnightblue" stroke="midnightblue" points="59.36,-142.29 67.48,-135.48 56.89,-135.74 59.36,-142.29"/>
</g>
<!-- Node19 -->
<g id="node19" class="node">
<title>Node19</title>
<g id="a_node19"><a xlink:href="../../d1/db5/decl_2lbfgs_8hpp.html" target="_top" xlink:title=" ">
<polygon fill="white" stroke="black" points="998.24,-179.5 998.24,-209.5 1145.24,-209.5 1145.24,-179.5 998.24,-179.5"/>
<text text-anchor="start" x="1006.24" y="-197.5" font-family="Helvetica,sans-Serif" font-size="10.00">panoc&#45;alm/inner/directions</text>
<text text-anchor="middle" x="1071.74" y="-186.5" font-family="Helvetica,sans-Serif" font-size="10.00">/decl/lbfgs.hpp</text>
</a>
</g>
</g>
<!-- Node1&#45;&gt;Node19 -->
<g id="edge24" class="edge">
<title>Node1&#45;&gt;Node19</title>
<path fill="none" stroke="midnightblue" d="M844.44,-313.36C837.46,-297.98 825.96,-265.62 841.74,-246 846.53,-240.05 924.16,-223.82 987.93,-211.36"/>
<polygon fill="midnightblue" stroke="midnightblue" points="988.88,-214.74 998.03,-209.39 987.55,-207.87 988.88,-214.74"/>
</g>
<!-- Node20 -->
<g id="node20" class="node">
<title>Node20</title>
<g id="a_node20"><a xlink:href="../../da/d1e/CUTEstLoader_8hpp.html" target="_top" xlink:title=" ">
<polygon fill="white" stroke="black" points="654.24,-246.5 654.24,-276.5 793.24,-276.5 793.24,-246.5 654.24,-246.5"/>
<text text-anchor="start" x="662.24" y="-264.5" font-family="Helvetica,sans-Serif" font-size="10.00">panoc&#45;alm/interop/cutest</text>
<text text-anchor="middle" x="723.74" y="-253.5" font-family="Helvetica,sans-Serif" font-size="10.00">/CUTEstLoader.hpp</text>
</a>
</g>
</g>
<!-- Node1&#45;&gt;Node20 -->
<g id="edge28" class="edge">
<title>Node1&#45;&gt;Node20</title>
<path fill="none" stroke="midnightblue" d="M830.83,-313.48C813.03,-305 785.16,-291.74 762.32,-280.86"/>
<polygon fill="midnightblue" stroke="midnightblue" points="763.73,-277.66 753.2,-276.52 760.72,-283.98 763.73,-277.66"/>
</g>
<!-- Node22 -->
<g id="node22" class="node">
<title>Node22</title>
<g id="a_node22"><a xlink:title=" ">
<polygon fill="white" stroke="#bfbfbf" points="850.24,-252 850.24,-271 901.24,-271 901.24,-252 850.24,-252"/>
<text text-anchor="middle" x="875.74" y="-259" font-family="Helvetica,sans-Serif" font-size="10.00">csignal</text>
</a>
</g>
</g>
<!-- Node1&#45;&gt;Node22 -->
<g id="edge35" class="edge">
<title>Node1&#45;&gt;Node22</title>
<path fill="none" stroke="midnightblue" d="M852.61,-313.48C856.54,-304.82 862.74,-291.15 867.73,-280.15"/>
<polygon fill="midnightblue" stroke="midnightblue" points="870.93,-281.56 871.88,-271.01 864.56,-278.67 870.93,-281.56"/>
</g>
<!-- Node23 -->
<g id="node23" class="node">
<title>Node23</title>
<g id="a_node23"><a xlink:title=" ">
<polygon fill="white" stroke="#bfbfbf" points="919.24,-252 919.24,-271 974.24,-271 974.24,-252 919.24,-252"/>
<text text-anchor="middle" x="946.74" y="-259" font-family="Helvetica,sans-Serif" font-size="10.00">fstream</text>
</a>
</g>
</g>
<!-- Node1&#45;&gt;Node23 -->
<g id="edge36" class="edge">
<title>Node1&#45;&gt;Node23</title>
<path fill="none" stroke="midnightblue" d="M862.78,-313.48C878.79,-303.75 905.19,-287.73 924.11,-276.24"/>
<polygon fill="midnightblue" stroke="midnightblue" points="925.99,-279.19 932.72,-271.01 922.36,-273.21 925.99,-279.19"/>
</g>
<!-- Node24 -->
<g id="node24" class="node">
<title>Node24</title>
<g id="a_node24"><a xlink:title=" ">
<polygon fill="white" stroke="#bfbfbf" points="992.74,-252 992.74,-271 1052.74,-271 1052.74,-252 992.74,-252"/>
<text text-anchor="middle" x="1022.74" y="-259" font-family="Helvetica,sans-Serif" font-size="10.00">iostream</text>
</a>
</g>
</g>
<!-- Node1&#45;&gt;Node24 -->
<g id="edge37" class="edge">
<title>Node1&#45;&gt;Node24</title>
<path fill="none" stroke="midnightblue" d="M875.22,-313.47C902.5,-304.61 946.22,-290.22 983.74,-277 985.98,-276.21 988.29,-275.38 990.61,-274.54"/>
<polygon fill="midnightblue" stroke="midnightblue" points="991.92,-277.79 1000.1,-271.07 989.51,-271.22 991.92,-277.79"/>
</g>
<!-- Node25 -->
<g id="node25" class="node">
<title>Node25</title>
<g id="a_node25"><a xlink:title=" ">
<polygon fill="white" stroke="#bfbfbf" points="1070.74,-252 1070.74,-271 1126.74,-271 1126.74,-252 1070.74,-252"/>
<text text-anchor="middle" x="1098.74" y="-259" font-family="Helvetica,sans-Serif" font-size="10.00">sstream</text>
</a>
</g>
</g>
<!-- Node1&#45;&gt;Node25 -->
<g id="edge38" class="edge">
<title>Node1&#45;&gt;Node25</title>
<path fill="none" stroke="midnightblue" d="M895.41,-314.43C938.94,-306.84 1005.43,-293.85 1061.74,-277 1064.17,-276.27 1066.66,-275.46 1069.15,-274.59"/>
<polygon fill="midnightblue" stroke="midnightblue" points="1070.43,-277.85 1078.59,-271.09 1068,-271.28 1070.43,-277.85"/>
</g>
<!-- Node26 -->
<g id="node26" class="node">
<title>Node26</title>
<g id="a_node26"><a xlink:title=" ">
<polygon fill="white" stroke="#bfbfbf" points="1144.74,-252 1144.74,-271 1254.74,-271 1254.74,-252 1144.74,-252"/>
<text text-anchor="middle" x="1199.74" y="-259" font-family="Helvetica,sans-Serif" font-size="10.00">yaml&#45;cpp/emitter.h</text>
</a>
</g>
</g>
<!-- Node1&#45;&gt;Node26 -->
<g id="edge39" class="edge">
<title>Node1&#45;&gt;Node26</title>
<path fill="none" stroke="midnightblue" d="M895.63,-315.64C952.6,-307.68 1051.53,-293.12 1135.74,-277 1141.62,-275.87 1147.78,-274.6 1153.86,-273.29"/>
<polygon fill="midnightblue" stroke="midnightblue" points="1154.94,-276.63 1163.95,-271.06 1153.43,-269.8 1154.94,-276.63"/>
</g>
<!-- Node27 -->
<g id="node27" class="node">
<title>Node27</title>
<g id="a_node27"><a xlink:title=" ">
<polygon fill="white" stroke="#bfbfbf" points="1273.24,-252 1273.24,-271 1414.24,-271 1414.24,-252 1273.24,-252"/>
<text text-anchor="middle" x="1343.74" y="-259" font-family="Helvetica,sans-Serif" font-size="10.00">yaml&#45;cpp/emittermanip.h</text>
</a>
</g>
</g>
<!-- Node1&#45;&gt;Node27 -->
<g id="edge40" class="edge">
<title>Node1&#45;&gt;Node27</title>
<path fill="none" stroke="midnightblue" d="M895.24,-318.05C972.13,-311.27 1130.51,-296.27 1263.74,-277 1272.17,-275.78 1281.08,-274.33 1289.76,-272.82"/>
<polygon fill="midnightblue" stroke="midnightblue" points="1290.58,-276.23 1299.82,-271.04 1289.36,-269.34 1290.58,-276.23"/>
</g>
<!-- Node3 -->
<g id="node3" class="node">
<title>Node3</title>
<g id="a_node3"><a xlink:href="../../d4/d83/panoc-fwd_8hpp.html" target="_top" xlink:title=" ">
<polygon fill="white" stroke="black" points="514.24,-179.5 514.24,-209.5 633.24,-209.5 633.24,-179.5 514.24,-179.5"/>
<text text-anchor="start" x="522.24" y="-197.5" font-family="Helvetica,sans-Serif" font-size="10.00">panoc&#45;alm/inner/decl</text>
<text text-anchor="middle" x="573.74" y="-186.5" font-family="Helvetica,sans-Serif" font-size="10.00">/panoc&#45;fwd.hpp</text>
</a>
</g>
</g>
<!-- Node2&#45;&gt;Node3 -->
<g id="edge2" class="edge">
<title>Node2&#45;&gt;Node3</title>
<path fill="none" stroke="midnightblue" d="M569.41,-251.73C570.04,-243.54 571.01,-230.92 571.88,-219.71"/>
<polygon fill="midnightblue" stroke="midnightblue" points="575.38,-219.83 572.65,-209.59 568.4,-219.29 575.38,-219.83"/>
</g>
<!-- Node5 -->
<g id="node5" class="node">
<title>Node5</title>
<g id="a_node5"><a xlink:href="../../d5/d37/problem_8hpp.html" target="_top" xlink:title=" ">
<polygon fill="white" stroke="black" points="751.74,-185 751.74,-204 903.74,-204 903.74,-185 751.74,-185"/>
<text text-anchor="middle" x="827.74" y="-192" font-family="Helvetica,sans-Serif" font-size="10.00">panoc&#45;alm/util/problem.hpp</text>
</a>
</g>
</g>
<!-- Node2&#45;&gt;Node5 -->
<g id="edge4" class="edge">
<title>Node2&#45;&gt;Node5</title>
<path fill="none" stroke="midnightblue" d="M602.86,-251.94C649.35,-240.27 732.64,-219.37 783.76,-206.54"/>
<polygon fill="midnightblue" stroke="midnightblue" points="784.69,-209.91 793.54,-204.08 782.99,-203.12 784.69,-209.91"/>
</g>
<!-- Node11 -->
<g id="node11" class="node">
<title>Node11</title>
<g id="a_node11"><a xlink:href="../../dc/d8c/solverstatus_8hpp.html" target="_top" xlink:title=" ">
<polygon fill="white" stroke="black" points="325.24,-185 325.24,-204 496.24,-204 496.24,-185 325.24,-185"/>
<text text-anchor="middle" x="410.74" y="-192" font-family="Helvetica,sans-Serif" font-size="10.00">panoc&#45;alm/util/solverstatus.hpp</text>
</a>
</g>
</g>
<!-- Node2&#45;&gt;Node11 -->
<g id="edge10" class="edge">
<title>Node2&#45;&gt;Node11</title>
<path fill="none" stroke="midnightblue" d="M547.76,-251.87C520.49,-240.65 472.67,-220.98 441.35,-208.09"/>
<polygon fill="midnightblue" stroke="midnightblue" points="442.39,-204.74 431.81,-204.17 439.72,-211.21 442.39,-204.74"/>
</g>
<!-- Node2&#45;&gt;Node13 -->
<g id="edge12" class="edge">
<title>Node2&#45;&gt;Node13</title>
<path fill="none" stroke="midnightblue" d="M519.86,-251.96C506.84,-249.84 492.78,-247.7 479.74,-246 316.78,-224.78 274.28,-234.25 111.74,-210 99.64,-208.2 86.51,-205.71 74.8,-203.3"/>
<polygon fill="midnightblue" stroke="midnightblue" points="75.46,-199.86 64.95,-201.23 74.02,-206.71 75.46,-199.86"/>
</g>
<!-- Node14 -->
<g id="node14" class="node">
<title>Node14</title>
<g id="a_node14"><a xlink:title=" ">
<polygon fill="white" stroke="#bfbfbf" points="651.74,-185 651.74,-204 695.74,-204 695.74,-185 651.74,-185"/>
<text text-anchor="middle" x="673.74" y="-192" font-family="Helvetica,sans-Serif" font-size="10.00">string</text>
</a>
</g>
</g>
<!-- Node2&#45;&gt;Node14 -->
<g id="edge13" class="edge">
<title>Node2&#45;&gt;Node14</title>
<path fill="none" stroke="midnightblue" d="M582.9,-251.73C600.45,-240.87 630.58,-222.22 651.3,-209.39"/>
<polygon fill="midnightblue" stroke="midnightblue" points="653.14,-212.37 659.8,-204.13 649.46,-206.41 653.14,-212.37"/>
</g>
<!-- Node4 -->
<g id="node4" class="node">
<title>Node4</title>
<g id="a_node4"><a xlink:href="../../d4/d5e/lbfgs-fwd_8hpp.html" target="_top" xlink:title=" ">
<polygon fill="white" stroke="black" points="684.24,-112.5 684.24,-142.5 831.24,-142.5 831.24,-112.5 684.24,-112.5"/>
<text text-anchor="start" x="692.24" y="-130.5" font-family="Helvetica,sans-Serif" font-size="10.00">panoc&#45;alm/inner/directions</text>
<text text-anchor="middle" x="757.74" y="-119.5" font-family="Helvetica,sans-Serif" font-size="10.00">/decl/lbfgs&#45;fwd.hpp</text>
</a>
</g>
</g>
<!-- Node3&#45;&gt;Node4 -->
<g id="edge3" class="edge">
<title>Node3&#45;&gt;Node4</title>
<path fill="none" stroke="midnightblue" d="M613.66,-179.4C641.39,-169.6 678.53,-156.48 708.16,-146.02"/>
<polygon fill="midnightblue" stroke="midnightblue" points="709.63,-149.21 717.89,-142.58 707.3,-142.61 709.63,-149.21"/>
</g>
<!-- Node6 -->
<g id="node6" class="node">
<title>Node6</title>
<g id="a_node6"><a xlink:href="../../d7/de4/box_8hpp.html" target="_top" xlink:title=" ">
<polygon fill="white" stroke="black" points="987.74,-118 987.74,-137 1043.74,-137 1043.74,-118 987.74,-118"/>
<text text-anchor="middle" x="1015.74" y="-125" font-family="Helvetica,sans-Serif" font-size="10.00">box.hpp</text>
</a>
</g>
</g>
<!-- Node5&#45;&gt;Node6 -->
<g id="edge5" class="edge">
<title>Node5&#45;&gt;Node6</title>
<path fill="none" stroke="midnightblue" d="M852.7,-184.87C885.66,-173.47 943.86,-153.35 981.07,-140.49"/>
<polygon fill="midnightblue" stroke="midnightblue" points="982.66,-143.64 990.97,-137.06 980.37,-137.02 982.66,-143.64"/>
</g>
<!-- Node9 -->
<g id="node9" class="node">
<title>Node9</title>
<g id="a_node9"><a xlink:title=" ">
<polygon fill="white" stroke="#bfbfbf" points="849.24,-118 849.24,-137 914.24,-137 914.24,-118 849.24,-118"/>
<text text-anchor="middle" x="881.74" y="-125" font-family="Helvetica,sans-Serif" font-size="10.00">functional</text>
</a>
</g>
</g>
<!-- Node5&#45;&gt;Node9 -->
<g id="edge8" class="edge">
<title>Node5&#45;&gt;Node9</title>
<path fill="none" stroke="midnightblue" d="M835.02,-184.73C843.44,-174.6 857.49,-157.69 867.98,-145.06"/>
<polygon fill="midnightblue" stroke="midnightblue" points="870.87,-147.06 874.57,-137.13 865.49,-142.58 870.87,-147.06"/>
</g>
<!-- Node10 -->
<g id="node10" class="node">
<title>Node10</title>
<g id="a_node10"><a xlink:title=" ">
<polygon fill="white" stroke="#bfbfbf" points="597.24,-118 597.24,-137 666.24,-137 666.24,-118 597.24,-118"/>
<text text-anchor="middle" x="631.74" y="-125" font-family="Helvetica,sans-Serif" font-size="10.00">type_traits</text>
</a>
</g>
</g>
<!-- Node5&#45;&gt;Node10 -->
<g id="edge9" class="edge">
<title>Node5&#45;&gt;Node10</title>
<path fill="none" stroke="midnightblue" d="M801.71,-184.87C767.2,-173.42 706.16,-153.18 667.39,-140.32"/>
<polygon fill="midnightblue" stroke="midnightblue" points="668.15,-136.89 657.56,-137.06 665.95,-143.53 668.15,-136.89"/>
</g>
<!-- Node7 -->
<g id="node7" class="node">
<title>Node7</title>
<g id="a_node7"><a xlink:href="../../d7/d7c/vec_8hpp.html" target="_top" xlink:title=" ">
<polygon fill="white" stroke="black" points="1016.24,-56.5 1016.24,-75.5 1071.24,-75.5 1071.24,-56.5 1016.24,-56.5"/>
<text text-anchor="middle" x="1043.74" y="-63.5" font-family="Helvetica,sans-Serif" font-size="10.00">vec.hpp</text>
</a>
</g>
</g>
<!-- Node6&#45;&gt;Node7 -->
<g id="edge6" class="edge">
<title>Node6&#45;&gt;Node7</title>
<path fill="none" stroke="midnightblue" d="M1019.75,-117.98C1023.83,-109.32 1030.26,-95.65 1035.43,-84.65"/>
<polygon fill="midnightblue" stroke="midnightblue" points="1038.64,-86.05 1039.73,-75.51 1032.31,-83.07 1038.64,-86.05"/>
</g>
<!-- Node8 -->
<g id="node8" class="node">
<title>Node8</title>
<g id="a_node8"><a xlink:title=" ">
<polygon fill="white" stroke="#bfbfbf" points="1009.24,-0.5 1009.24,-19.5 1078.24,-19.5 1078.24,-0.5 1009.24,-0.5"/>
<text text-anchor="middle" x="1043.74" y="-7.5" font-family="Helvetica,sans-Serif" font-size="10.00">Eigen/Core</text>
</a>
</g>
</g>
<!-- Node7&#45;&gt;Node8 -->
<g id="edge7" class="edge">
<title>Node7&#45;&gt;Node8</title>
<path fill="none" stroke="midnightblue" d="M1043.74,-56.08C1043.74,-49.01 1043.74,-38.86 1043.74,-29.99"/>
<polygon fill="midnightblue" stroke="midnightblue" points="1047.24,-29.75 1043.74,-19.75 1040.24,-29.75 1047.24,-29.75"/>
</g>
<!-- Node12 -->
<g id="node12" class="node">
<title>Node12</title>
<g id="a_node12"><a xlink:title=" ">
<polygon fill="white" stroke="#bfbfbf" points="458.74,-118 458.74,-137 506.74,-137 506.74,-118 458.74,-118"/>
<text text-anchor="middle" x="482.74" y="-125" font-family="Helvetica,sans-Serif" font-size="10.00">iosfwd</text>
</a>
</g>
</g>
<!-- Node11&#45;&gt;Node12 -->
<g id="edge11" class="edge">
<title>Node11&#45;&gt;Node12</title>
<path fill="none" stroke="midnightblue" d="M420.45,-184.73C432,-174.31 451.49,-156.71 465.6,-143.97"/>
<polygon fill="midnightblue" stroke="midnightblue" points="468.1,-146.43 473.18,-137.13 463.41,-141.23 468.1,-146.43"/>
</g>
<!-- Node15&#45;&gt;Node3 -->
<g id="edge15" class="edge">
<title>Node15&#45;&gt;Node3</title>
<path fill="none" stroke="midnightblue" d="M446.11,-246.4C470.46,-236.69 503,-223.71 529.13,-213.29"/>
<polygon fill="midnightblue" stroke="midnightblue" points="530.45,-216.53 538.44,-209.58 527.85,-210.03 530.45,-216.53"/>
</g>
<!-- Node15&#45;&gt;Node5 -->
<g id="edge18" class="edge">
<title>Node15&#45;&gt;Node5</title>
<path fill="none" stroke="midnightblue" d="M470.27,-249.79C477.83,-248.48 485.46,-247.19 492.74,-246 584.25,-231.01 690.1,-215.33 757.92,-205.5"/>
<polygon fill="midnightblue" stroke="midnightblue" points="758.66,-208.93 768.06,-204.03 757.66,-202 758.66,-208.93"/>
</g>
<!-- Node15&#45;&gt;Node11 -->
<g id="edge19" class="edge">
<title>Node15&#45;&gt;Node11</title>
<path fill="none" stroke="midnightblue" d="M410.74,-246.4C410.74,-237.06 410.74,-224.71 410.74,-214.52"/>
<polygon fill="midnightblue" stroke="midnightblue" points="414.24,-214.19 410.74,-204.19 407.24,-214.19 414.24,-214.19"/>
</g>
<!-- Node15&#45;&gt;Node13 -->
<g id="edge21" class="edge">
<title>Node15&#45;&gt;Node13</title>
<path fill="none" stroke="midnightblue" d="M351.23,-255.16C284.21,-248.3 172.43,-234.27 78.74,-210 75.92,-209.27 73.02,-208.41 70.14,-207.48"/>
<polygon fill="midnightblue" stroke="midnightblue" points="71.13,-204.12 60.54,-204.13 68.82,-210.73 71.13,-204.12"/>
</g>
<!-- Node15&#45;&gt;Node14 -->
<g id="edge23" class="edge">
<title>Node15&#45;&gt;Node14</title>
<path fill="none" stroke="midnightblue" d="M470.42,-249.08C528.16,-237.75 611.4,-220.59 642.74,-210 644.4,-209.44 646.1,-208.81 647.79,-208.14"/>
<polygon fill="midnightblue" stroke="midnightblue" points="649.5,-211.22 657.29,-204.03 646.72,-204.79 649.5,-211.22"/>
</g>
<!-- Node16 -->
<g id="node16" class="node">
<title>Node16</title>
<g id="a_node16"><a xlink:href="../../d4/d52/atomic__stop__signal_8hpp.html" target="_top" xlink:title=" ">
<polygon fill="white" stroke="black" points="120.74,-179.5 120.74,-209.5 244.74,-209.5 244.74,-179.5 120.74,-179.5"/>
<text text-anchor="start" x="128.74" y="-197.5" font-family="Helvetica,sans-Serif" font-size="10.00">panoc&#45;alm/util/atomic</text>
<text text-anchor="middle" x="182.74" y="-186.5" font-family="Helvetica,sans-Serif" font-size="10.00">_stop_signal.hpp</text>
</a>
</g>
</g>
<!-- Node15&#45;&gt;Node16 -->
<g id="edge16" class="edge">
<title>Node15&#45;&gt;Node16</title>
<path fill="none" stroke="midnightblue" d="M361.55,-246.48C326.46,-236.47 279.1,-222.97 241.94,-212.38"/>
<polygon fill="midnightblue" stroke="midnightblue" points="242.81,-208.99 232.24,-209.61 240.89,-215.72 242.81,-208.99"/>
</g>
<!-- Node15&#45;&gt;Node17 -->
<g id="edge20" class="edge">
<title>Node15&#45;&gt;Node17</title>
<path fill="none" stroke="midnightblue" d="M350.95,-258.07C273.79,-253.67 145.44,-241.69 111.74,-210 94.73,-194.01 91.59,-165.99 91.6,-147.34"/>
<polygon fill="midnightblue" stroke="midnightblue" points="95.11,-147.23 91.93,-137.13 88.11,-147.01 95.11,-147.23"/>
</g>
<!-- Node18 -->
<g id="node18" class="node">
<title>Node18</title>
<g id="a_node18"><a xlink:title=" ">
<polygon fill="white" stroke="#bfbfbf" points="262.74,-185 262.74,-204 306.74,-204 306.74,-185 262.74,-185"/>
<text text-anchor="middle" x="284.74" y="-192" font-family="Helvetica,sans-Serif" font-size="10.00">limits</text>
</a>
</g>
</g>
<!-- Node15&#45;&gt;Node18 -->
<g id="edge22" class="edge">
<title>Node15&#45;&gt;Node18</title>
<path fill="none" stroke="midnightblue" d="M383.4,-246.4C361.68,-235.19 331.54,-219.64 310.3,-208.69"/>
<polygon fill="midnightblue" stroke="midnightblue" points="311.72,-205.48 301.23,-204.01 308.51,-211.7 311.72,-205.48"/>
</g>
<!-- Node16&#45;&gt;Node17 -->
<g id="edge17" class="edge">
<title>Node16&#45;&gt;Node17</title>
<path fill="none" stroke="midnightblue" d="M163.21,-179.4C148.26,-168.6 127.71,-153.76 112.66,-142.89"/>
<polygon fill="midnightblue" stroke="midnightblue" points="114.67,-140.02 104.52,-137.01 110.57,-145.7 114.67,-140.02"/>
</g>
<!-- Node19&#45;&gt;Node4 -->
<g id="edge27" class="edge">
<title>Node19&#45;&gt;Node4</title>
<path fill="none" stroke="midnightblue" d="M1003.99,-179.48C954.45,-169.22 887.15,-155.29 835.43,-144.58"/>
<polygon fill="midnightblue" stroke="midnightblue" points="836.14,-141.15 825.63,-142.55 834.72,-148.01 836.14,-141.15"/>
</g>
<!-- Node19&#45;&gt;Node6 -->
<g id="edge25" class="edge">
<title>Node19&#45;&gt;Node6</title>
<path fill="none" stroke="midnightblue" d="M1059.59,-179.4C1050.86,-169.26 1039.06,-155.57 1029.9,-144.94"/>
<polygon fill="midnightblue" stroke="midnightblue" points="1032.41,-142.49 1023.23,-137.19 1027.1,-147.06 1032.41,-142.49"/>
</g>
<!-- Node19&#45;&gt;Node7 -->
<g id="edge26" class="edge">
<title>Node19&#45;&gt;Node7</title>
<path fill="none" stroke="midnightblue" d="M1068.63,-179.48C1063.57,-156.62 1053.54,-111.3 1047.88,-85.71"/>
<polygon fill="midnightblue" stroke="midnightblue" points="1051.26,-84.8 1045.68,-75.79 1044.43,-86.31 1051.26,-84.8"/>
</g>
<!-- Node20&#45;&gt;Node5 -->
<g id="edge29" class="edge">
<title>Node20&#45;&gt;Node5</title>
<path fill="none" stroke="midnightblue" d="M746.3,-246.4C763.75,-235.5 787.77,-220.48 805.2,-209.58"/>
<polygon fill="midnightblue" stroke="midnightblue" points="807.5,-212.28 814.13,-204.01 803.79,-206.34 807.5,-212.28"/>
</g>
<!-- Node20&#45;&gt;Node12 -->
<g id="edge30" class="edge">
<title>Node20&#45;&gt;Node12</title>
<path fill="none" stroke="midnightblue" d="M724.66,-246.26C725,-228.07 722.66,-196.83 704.74,-179 691.45,-165.79 576.06,-144.44 517.1,-134.26"/>
<polygon fill="midnightblue" stroke="midnightblue" points="517.57,-130.79 507.13,-132.55 516.39,-137.69 517.57,-130.79"/>
</g>
<!-- Node20&#45;&gt;Node14 -->
<g id="edge32" class="edge">
<title>Node20&#45;&gt;Node14</title>
<path fill="none" stroke="midnightblue" d="M712.89,-246.4C705.17,-236.36 694.77,-222.84 686.63,-212.25"/>
<polygon fill="midnightblue" stroke="midnightblue" points="689.3,-209.99 680.43,-204.19 683.75,-214.25 689.3,-209.99"/>
</g>
<!-- Node21 -->
<g id="node21" class="node">
<title>Node21</title>
<g id="a_node21"><a xlink:title=" ">
<polygon fill="white" stroke="#bfbfbf" points="921.74,-185 921.74,-204 979.74,-204 979.74,-185 921.74,-185"/>
<text text-anchor="middle" x="950.74" y="-192" font-family="Helvetica,sans-Serif" font-size="10.00">memory</text>
</a>
</g>
</g>
<!-- Node20&#45;&gt;Node21 -->
<g id="edge31" class="edge">
<title>Node20&#45;&gt;Node21</title>
<path fill="none" stroke="midnightblue" d="M782.52,-246.46C820.05,-237.09 869.6,-223.95 912.74,-210 915.15,-209.22 917.63,-208.37 920.11,-207.5"/>
<polygon fill="midnightblue" stroke="midnightblue" points="921.39,-210.76 929.57,-204.02 918.98,-204.18 921.39,-210.76"/>
</g>
</g>
</svg>
