<?xml version="1.0" encoding="UTF-8" standalone="no"?>
<!DOCTYPE svg PUBLIC "-//W3C//DTD SVG 1.1//EN"
 "http://www.w3.org/Graphics/SVG/1.1/DTD/svg11.dtd">
<!-- Generated by graphviz version 2.43.0 (0)
 -->
<!-- Title: lbfgs.hpp Pages: 1 -->
<svg width="764pt" height="140pt"
 viewBox="0.00 0.00 764.00 140.00" xmlns="http://www.w3.org/2000/svg" xmlns:xlink="http://www.w3.org/1999/xlink">
<g id="graph0" class="graph" transform="scale(1 1) rotate(0) translate(4 136)">
<title>lbfgs.hpp</title>
<polygon fill="white" stroke="transparent" points="-4,4 -4,-136 760,-136 760,4 -4,4"/>
<!-- Node1 -->
<g id="node1" class="node">
<title>Node1</title>
<g id="a_node1"><a xlink:title=" ">
<polygon fill="#bfbfbf" stroke="black" points="298,-112.5 298,-131.5 360,-131.5 360,-112.5 298,-112.5"/>
<text text-anchor="middle" x="329" y="-119.5" font-family="Helvetica,sans-Serif" font-size="10.00">lbfgs.hpp</text>
</a>
</g>
</g>
<!-- Node2 -->
<g id="node2" class="node">
<title>Node2</title>
<g id="a_node2"><a xlink:href="../../d1/dbb/decl_2specialized-lbfgs_8hpp.html" target="_top" xlink:title=" ">
<polygon fill="white" stroke="black" points="0,-56.5 0,-75.5 120,-75.5 120,-56.5 0,-56.5"/>
<text text-anchor="middle" x="60" y="-63.5" font-family="Helvetica,sans-Serif" font-size="10.00">specialized&#45;lbfgs.hpp</text>
</a>
</g>
</g>
<!-- Node1&#45;&gt;Node2 -->
<g id="edge1" class="edge">
<title>Node1&#45;&gt;Node2</title>
<path fill="none" stroke="midnightblue" d="M288.04,-112.78C237.97,-102.73 153.65,-85.8 102.77,-75.59"/>
<polygon fill="midnightblue" stroke="midnightblue" points="287.39,-116.22 297.88,-114.75 288.76,-109.35 287.39,-116.22"/>
</g>
<!-- Node4 -->
<g id="node4" class="node">
<title>Node4</title>
<g id="a_node4"><a xlink:href="../../dd/deb/lbfgs_8hpp.html" target="_top" xlink:title=" ">
<polygon fill="white" stroke="black" points="138,-56.5 138,-75.5 200,-75.5 200,-56.5 138,-56.5"/>
<text text-anchor="middle" x="169" y="-63.5" font-family="Helvetica,sans-Serif" font-size="10.00">lbfgs.hpp</text>
</a>
</g>
</g>
<!-- Node1&#45;&gt;Node4 -->
<g id="edge3" class="edge">
<title>Node1&#45;&gt;Node4</title>
<path fill="none" stroke="midnightblue" d="M293.95,-109.17C263.83,-99 221.1,-84.59 194.23,-75.52"/>
<polygon fill="midnightblue" stroke="midnightblue" points="293.05,-112.56 303.65,-112.44 295.29,-105.93 293.05,-112.56"/>
</g>
<!-- Node8 -->
<g id="node8" class="node">
<title>Node8</title>
<g id="a_node8"><a xlink:href="../../dc/dd2/CasADi_2Rosenbrock_2main_8cpp.html" target="_top" xlink:title=" ">
<polygon fill="white" stroke="black" points="218,-56.5 218,-75.5 280,-75.5 280,-56.5 218,-56.5"/>
<text text-anchor="middle" x="249" y="-63.5" font-family="Helvetica,sans-Serif" font-size="10.00">main.cpp</text>
</a>
</g>
</g>
<!-- Node1&#45;&gt;Node8 -->
<g id="edge8" class="edge">
<title>Node1&#45;&gt;Node8</title>
<path fill="none" stroke="midnightblue" d="M307.7,-106.62C293.08,-96.76 274.17,-83.99 261.82,-75.65"/>
<polygon fill="midnightblue" stroke="midnightblue" points="305.9,-109.63 316.15,-112.32 309.82,-103.83 305.9,-109.63"/>
</g>
<!-- Node9 -->
<g id="node9" class="node">
<title>Node9</title>
<g id="a_node9"><a xlink:href="../../da/d1e/CUTEst_2Rosenbrock_2main_8cpp.html" target="_top" xlink:title=" ">
<polygon fill="white" stroke="black" points="298,-56.5 298,-75.5 360,-75.5 360,-56.5 298,-56.5"/>
<text text-anchor="middle" x="329" y="-63.5" font-family="Helvetica,sans-Serif" font-size="10.00">main.cpp</text>
</a>
</g>
</g>
<!-- Node1&#45;&gt;Node9 -->
<g id="edge9" class="edge">
<title>Node1&#45;&gt;Node9</title>
<path fill="none" stroke="midnightblue" d="M329,-101.8C329,-92.91 329,-82.78 329,-75.75"/>
<polygon fill="midnightblue" stroke="midnightblue" points="325.5,-102.08 329,-112.08 332.5,-102.08 325.5,-102.08"/>
</g>
<!-- Node10 -->
<g id="node10" class="node">
<title>Node10</title>
<g id="a_node10"><a xlink:href="../../d1/d5a/experiment_8cpp.html" target="_top" xlink:title=" ">
<polygon fill="white" stroke="black" points="378.5,-56.5 378.5,-75.5 471.5,-75.5 471.5,-56.5 378.5,-56.5"/>
<text text-anchor="middle" x="425" y="-63.5" font-family="Helvetica,sans-Serif" font-size="10.00">experiment.cpp</text>
</a>
</g>
</g>
<!-- Node1&#45;&gt;Node10 -->
<g id="edge10" class="edge">
<title>Node1&#45;&gt;Node10</title>
<path fill="none" stroke="midnightblue" d="M353.57,-107.18C371.24,-97.24 394.51,-84.15 409.61,-75.65"/>
<polygon fill="midnightblue" stroke="midnightblue" points="351.42,-104.37 344.42,-112.32 354.86,-110.47 351.42,-104.37"/>
</g>
<!-- Node11 -->
<g id="node11" class="node">
<title>Node11</title>
<g id="a_node11"><a xlink:href="../../db/dbf/panocexperiment_8cpp.html" target="_top" xlink:title=" ">
<polygon fill="white" stroke="black" points="490,-56.5 490,-75.5 612,-75.5 612,-56.5 490,-56.5"/>
<text text-anchor="middle" x="551" y="-63.5" font-family="Helvetica,sans-Serif" font-size="10.00">panocexperiment.cpp</text>
</a>
</g>
</g>
<!-- Node1&#45;&gt;Node11 -->
<g id="edge11" class="edge">
<title>Node1&#45;&gt;Node11</title>
<path fill="none" stroke="midnightblue" d="M370.21,-110.98C412.08,-100.79 476.23,-85.19 515.79,-75.56"/>
<polygon fill="midnightblue" stroke="midnightblue" points="369.23,-107.61 360.34,-113.38 370.88,-114.41 369.23,-107.61"/>
</g>
<!-- Node12 -->
<g id="node12" class="node">
<title>Node12</title>
<g id="a_node12"><a xlink:href="../../d3/dba/secondorderpanoc_8cpp.html" target="_top" xlink:title=" ">
<polygon fill="white" stroke="black" points="630,-56.5 630,-75.5 756,-75.5 756,-56.5 630,-56.5"/>
<text text-anchor="middle" x="693" y="-63.5" font-family="Helvetica,sans-Serif" font-size="10.00">secondorderpanoc.cpp</text>
</a>
</g>
</g>
<!-- Node1&#45;&gt;Node12 -->
<g id="edge12" class="edge">
<title>Node1&#45;&gt;Node12</title>
<path fill="none" stroke="midnightblue" d="M370.3,-114.87C435.3,-105.23 561.65,-86.49 635.49,-75.53"/>
<polygon fill="midnightblue" stroke="midnightblue" points="369.41,-111.47 360.03,-116.4 370.44,-118.39 369.41,-111.47"/>
</g>
<!-- Node3 -->
<g id="node3" class="node">
<title>Node3</title>
<g id="a_node3"><a xlink:href="../../d2/d36/specialized-lbfgs_8hpp.html" target="_top" xlink:title=" ">
<polygon fill="white" stroke="black" points="0,-0.5 0,-19.5 120,-19.5 120,-0.5 0,-0.5"/>
<text text-anchor="middle" x="60" y="-7.5" font-family="Helvetica,sans-Serif" font-size="10.00">specialized&#45;lbfgs.hpp</text>
</a>
</g>
</g>
<!-- Node2&#45;&gt;Node3 -->
<g id="edge2" class="edge">
<title>Node2&#45;&gt;Node3</title>
<path fill="none" stroke="midnightblue" d="M60,-45.8C60,-36.91 60,-26.78 60,-19.75"/>
<polygon fill="midnightblue" stroke="midnightblue" points="56.5,-46.08 60,-56.08 63.5,-46.08 56.5,-46.08"/>
</g>
<!-- Node4&#45;&gt;Node3 -->
<g id="edge4" class="edge">
<title>Node4&#45;&gt;Node3</title>
<path fill="none" stroke="midnightblue" d="M142.48,-51.86C122.27,-41.85 95.01,-28.35 77.47,-19.65"/>
<polygon fill="midnightblue" stroke="midnightblue" points="140.97,-55.02 151.49,-56.32 144.08,-48.75 140.97,-55.02"/>
</g>
<!-- Node5 -->
<g id="node5" class="node">
<title>Node5</title>
<g id="a_node5"><a xlink:href="../../d4/db5/alm_8cpp.html" target="_top" xlink:title=" ">
<polygon fill="white" stroke="black" points="138,-0.5 138,-19.5 194,-19.5 194,-0.5 138,-0.5"/>
<text text-anchor="middle" x="166" y="-7.5" font-family="Helvetica,sans-Serif" font-size="10.00">alm.cpp</text>
</a>
</g>
</g>
<!-- Node4&#45;&gt;Node5 -->
<g id="edge5" class="edge">
<title>Node4&#45;&gt;Node5</title>
<path fill="none" stroke="midnightblue" d="M167.93,-45.8C167.44,-36.91 166.88,-26.78 166.49,-19.75"/>
<polygon fill="midnightblue" stroke="midnightblue" points="164.46,-46.29 168.5,-56.08 171.44,-45.9 164.46,-46.29"/>
</g>
<!-- Node6 -->
<g id="node6" class="node">
<title>Node6</title>
<g id="a_node6"><a xlink:href="../../d9/daa/lbfgs_8cpp.html" target="_top" xlink:title=" ">
<polygon fill="white" stroke="black" points="212.5,-0.5 212.5,-19.5 273.5,-19.5 273.5,-0.5 212.5,-0.5"/>
<text text-anchor="middle" x="243" y="-7.5" font-family="Helvetica,sans-Serif" font-size="10.00">lbfgs.cpp</text>
</a>
</g>
</g>
<!-- Node4&#45;&gt;Node6 -->
<g id="edge6" class="edge">
<title>Node4&#45;&gt;Node6</title>
<path fill="none" stroke="midnightblue" d="M189.03,-50.38C202.41,-40.62 219.56,-28.11 230.89,-19.83"/>
<polygon fill="midnightblue" stroke="midnightblue" points="186.9,-47.6 180.89,-56.32 191.03,-53.26 186.9,-47.6"/>
</g>
<!-- Node7 -->
<g id="node7" class="node">
<title>Node7</title>
<g id="a_node7"><a xlink:href="../../d7/d9f/panoc_8cpp.html" target="_top" xlink:title=" ">
<polygon fill="white" stroke="black" points="292,-0.5 292,-19.5 358,-19.5 358,-0.5 292,-0.5"/>
<text text-anchor="middle" x="325" y="-7.5" font-family="Helvetica,sans-Serif" font-size="10.00">panoc.cpp</text>
</a>
</g>
</g>
<!-- Node4&#45;&gt;Node7 -->
<g id="edge7" class="edge">
<title>Node4&#45;&gt;Node7</title>
<path fill="none" stroke="midnightblue" d="M203.17,-53.17C232.54,-43 274.2,-28.59 300.4,-19.52"/>
<polygon fill="midnightblue" stroke="midnightblue" points="202.02,-49.86 193.72,-56.44 204.31,-56.48 202.02,-49.86"/>
</g>
</g>
</svg>
