<?xml version="1.0" encoding="UTF-8" standalone="no"?>
<!DOCTYPE svg PUBLIC "-//W3C//DTD SVG 1.1//EN"
 "http://www.w3.org/Graphics/SVG/1.1/DTD/svg11.dtd">
<!-- Generated by graphviz version 2.43.0 (0)
 -->
<!-- Title: main Pages: 1 -->
<svg width="499pt" height="390pt"
 viewBox="0.00 0.00 499.00 389.50" xmlns="http://www.w3.org/2000/svg" xmlns:xlink="http://www.w3.org/1999/xlink">
<g id="graph0" class="graph" transform="scale(1 1) rotate(0) translate(4 385.5)">
<title>main</title>
<polygon fill="white" stroke="transparent" points="-4,4 -4,-385.5 495,-385.5 495,4 -4,4"/>
<!-- Node1 -->
<g id="node1" class="node">
<title>Node1</title>
<g id="a_node1"><a xlink:title=" ">
<polygon fill="#bfbfbf" stroke="black" points="0,-192 0,-211 41,-211 41,-192 0,-192"/>
<text text-anchor="middle" x="20.5" y="-199" font-family="Helvetica,sans-Serif" font-size="10.00">main</text>
</a>
</g>
</g>
<!-- Node2 -->
<g id="node2" class="node">
<title>Node2</title>
<g id="a_node2"><a xlink:href="../../d0/d51/namespacepa_1_1detail.html#a2d370812ad8bb9dd2e4d2362b8c410e8" target="_top" xlink:title="Calculate the gradient ∇ψ(x).">
<polygon fill="white" stroke="black" points="82,-362 82,-381 209,-381 209,-362 82,-362"/>
<text text-anchor="middle" x="145.5" y="-369" font-family="Helvetica,sans-Serif" font-size="10.00">pa::detail::calc_grad_ψ</text>
</a>
</g>
</g>
<!-- Node1&#45;&gt;Node2 -->
<g id="edge1" class="edge">
<title>Node1&#45;&gt;Node2</title>
<path fill="none" stroke="midnightblue" d="M22.12,-211.27C24.37,-238.02 34.35,-313.05 77,-352.5 78.71,-354.08 80.53,-355.53 82.45,-356.86"/>
<polygon fill="midnightblue" stroke="midnightblue" points="80.97,-360.04 91.39,-361.96 84.44,-353.96 80.97,-360.04"/>
</g>
<!-- Node5 -->
<g id="node5" class="node">
<title>Node5</title>
<g id="a_node5"><a xlink:href="../../d0/d51/namespacepa_1_1detail.html#a89856462be50fa798aca7917874da8e8" target="_top" xlink:title="Calculate ∇ψ(x) using ŷ.">
<polygon fill="white" stroke="black" points="88,-312.5 88,-342.5 203,-342.5 203,-312.5 88,-312.5"/>
<text text-anchor="start" x="96" y="-330.5" font-family="Helvetica,sans-Serif" font-size="10.00">pa::detail::calc_grad</text>
<text text-anchor="middle" x="145.5" y="-319.5" font-family="Helvetica,sans-Serif" font-size="10.00">_ψ_from_ŷ</text>
</a>
</g>
</g>
<!-- Node1&#45;&gt;Node5 -->
<g id="edge4" class="edge">
<title>Node1&#45;&gt;Node5</title>
<path fill="none" stroke="midnightblue" d="M24.23,-211.02C30.37,-230.83 47.15,-276.76 77,-302.5 78.95,-304.18 81.02,-305.75 83.17,-307.22"/>
<polygon fill="midnightblue" stroke="midnightblue" points="81.5,-310.29 91.88,-312.39 85.07,-304.27 81.5,-310.29"/>
</g>
<!-- Node6 -->
<g id="node6" class="node">
<title>Node6</title>
<g id="a_node6"><a xlink:href="../../d0/d51/namespacepa_1_1detail.html#a2482fb93eca998a4c4dc815e784f526e" target="_top" xlink:title="Calculate both ψ(x) and the vector ŷ that can later be used to compute ∇ψ.">
<polygon fill="white" stroke="black" points="90,-274 90,-293 201,-293 201,-274 90,-274"/>
<text text-anchor="middle" x="145.5" y="-281" font-family="Helvetica,sans-Serif" font-size="10.00">pa::detail::calc_ψ_ŷ</text>
</a>
</g>
</g>
<!-- Node1&#45;&gt;Node6 -->
<g id="edge5" class="edge">
<title>Node1&#45;&gt;Node6</title>
<path fill="none" stroke="midnightblue" d="M27.4,-211.17C36.38,-225.06 54.79,-250.53 77,-264.5 80.38,-266.63 84,-268.52 87.75,-270.21"/>
<polygon fill="midnightblue" stroke="midnightblue" points="86.67,-273.54 97.26,-273.98 89.26,-267.04 86.67,-273.54"/>
</g>
<!-- Node7 -->
<g id="node7" class="node">
<title>Node7</title>
<g id="a_node7"><a xlink:href="../../d3/dcc/group__grp__ExternalProblemLoaders.html#gae128a22727fd420d5de8ac526fb52da2" target="_top" xlink:title="Load a constraint function generated by CasADi.">
<polygon fill="white" stroke="black" points="77,-236 77,-255 214,-255 214,-236 77,-236"/>
<text text-anchor="middle" x="145.5" y="-243" font-family="Helvetica,sans-Serif" font-size="10.00">load_CasADi_constraints</text>
</a>
</g>
</g>
<!-- Node1&#45;&gt;Node7 -->
<g id="edge7" class="edge">
<title>Node1&#45;&gt;Node7</title>
<path fill="none" stroke="midnightblue" d="M40.73,-211.01C51.28,-216.02 64.68,-222.02 77,-226.5 83.38,-228.82 90.18,-231.03 96.92,-233.07"/>
<polygon fill="midnightblue" stroke="midnightblue" points="96.11,-236.48 106.7,-235.93 98.08,-229.76 96.11,-236.48"/>
</g>
<!-- Node8 -->
<g id="node8" class="node">
<title>Node8</title>
<g id="a_node8"><a xlink:href="../../d3/dcc/group__grp__ExternalProblemLoaders.html#ga0059a457e51a2add9c81184856591d04" target="_top" xlink:title="Load the gradient of a constraint function generated by CasADi.">
<polygon fill="white" stroke="black" points="83.5,-186.5 83.5,-216.5 207.5,-216.5 207.5,-186.5 83.5,-186.5"/>
<text text-anchor="start" x="91.5" y="-204.5" font-family="Helvetica,sans-Serif" font-size="10.00">load_CasADi_gradient</text>
<text text-anchor="middle" x="145.5" y="-193.5" font-family="Helvetica,sans-Serif" font-size="10.00">_constraints</text>
</a>
</g>
</g>
<!-- Node1&#45;&gt;Node8 -->
<g id="edge8" class="edge">
<title>Node1&#45;&gt;Node8</title>
<path fill="none" stroke="midnightblue" d="M41.26,-201.5C50.19,-201.5 61.34,-201.5 72.99,-201.5"/>
<polygon fill="midnightblue" stroke="midnightblue" points="73.3,-205 83.3,-201.5 73.3,-198 73.3,-205"/>
</g>
<!-- Node9 -->
<g id="node9" class="node">
<title>Node9</title>
<g id="a_node9"><a xlink:href="../../d3/dcc/group__grp__ExternalProblemLoaders.html#gaf9f4612a1e2ea8b6b5bcf2a9c36e5fcc" target="_top" xlink:title="Load the gradient of an objective function generated by CasADi.">
<polygon fill="white" stroke="black" points="83.5,-137.5 83.5,-167.5 207.5,-167.5 207.5,-137.5 83.5,-137.5"/>
<text text-anchor="start" x="91.5" y="-155.5" font-family="Helvetica,sans-Serif" font-size="10.00">load_CasADi_gradient</text>
<text text-anchor="middle" x="145.5" y="-144.5" font-family="Helvetica,sans-Serif" font-size="10.00">_objective</text>
</a>
</g>
</g>
<!-- Node1&#45;&gt;Node9 -->
<g id="edge9" class="edge">
<title>Node1&#45;&gt;Node9</title>
<path fill="none" stroke="midnightblue" d="M41.17,-192.69C51.74,-188.03 65.02,-182.31 77,-177.5 82.15,-175.44 87.54,-173.34 92.93,-171.27"/>
<polygon fill="midnightblue" stroke="midnightblue" points="94.48,-174.43 102.6,-167.62 92.01,-167.88 94.48,-174.43"/>
</g>
<!-- Node10 -->
<g id="node10" class="node">
<title>Node10</title>
<g id="a_node10"><a xlink:href="../../d3/dcc/group__grp__ExternalProblemLoaders.html#ga8d45ff384b815084d688adc15794117b" target="_top" xlink:title="Load the gradient of a constraint function generated by CasADi.">
<polygon fill="white" stroke="black" points="85,-88.5 85,-118.5 206,-118.5 206,-88.5 85,-88.5"/>
<text text-anchor="start" x="93" y="-106.5" font-family="Helvetica,sans-Serif" font-size="10.00">load_CasADi_hessian</text>
<text text-anchor="middle" x="145.5" y="-95.5" font-family="Helvetica,sans-Serif" font-size="10.00">_lagrangian</text>
</a>
</g>
</g>
<!-- Node1&#45;&gt;Node10 -->
<g id="edge10" class="edge">
<title>Node1&#45;&gt;Node10</title>
<path fill="none" stroke="midnightblue" d="M26.62,-191.56C35.09,-176.02 53.46,-145.94 77,-128.5 79.48,-126.66 82.11,-124.95 84.84,-123.35"/>
<polygon fill="midnightblue" stroke="midnightblue" points="86.6,-126.37 93.82,-118.62 83.34,-120.18 86.6,-126.37"/>
</g>
<!-- Node11 -->
<g id="node11" class="node">
<title>Node11</title>
<g id="a_node11"><a xlink:href="../../d3/dcc/group__grp__ExternalProblemLoaders.html#ga5dd2ee8fe20724f8d362b0a6480f5729" target="_top" xlink:title="Load an objective function generated by CasADi.">
<polygon fill="white" stroke="black" points="81.5,-50 81.5,-69 209.5,-69 209.5,-50 81.5,-50"/>
<text text-anchor="middle" x="145.5" y="-57" font-family="Helvetica,sans-Serif" font-size="10.00">load_CasADi_objective</text>
</a>
</g>
</g>
<!-- Node1&#45;&gt;Node11 -->
<g id="edge11" class="edge">
<title>Node1&#45;&gt;Node11</title>
<path fill="none" stroke="midnightblue" d="M23.07,-191.96C27.35,-169.05 41.36,-110.5 77,-79.5 79.49,-77.33 82.21,-75.4 85.07,-73.68"/>
<polygon fill="midnightblue" stroke="midnightblue" points="86.72,-76.77 94.04,-69.11 83.54,-70.53 86.72,-76.77"/>
</g>
<!-- Node12 -->
<g id="node12" class="node">
<title>Node12</title>
<g id="a_node12"><a xlink:href="../../d0/d51/namespacepa_1_1detail.html#a1df431b3667a974d293f683089e3baea" target="_top" xlink:title="Projected gradient step.">
<polygon fill="white" stroke="black" points="88.5,-0.5 88.5,-30.5 202.5,-30.5 202.5,-0.5 88.5,-0.5"/>
<text text-anchor="start" x="96.5" y="-18.5" font-family="Helvetica,sans-Serif" font-size="10.00">pa::detail::projected</text>
<text text-anchor="middle" x="145.5" y="-7.5" font-family="Helvetica,sans-Serif" font-size="10.00">_gradient_step</text>
</a>
</g>
</g>
<!-- Node1&#45;&gt;Node12 -->
<g id="edge12" class="edge">
<title>Node1&#45;&gt;Node12</title>
<path fill="none" stroke="midnightblue" d="M22.06,-191.68C24.15,-164.03 33.81,-84.69 77,-40.5 78.41,-39.06 79.91,-37.7 81.48,-36.42"/>
<polygon fill="midnightblue" stroke="midnightblue" points="83.62,-39.19 89.87,-30.64 79.65,-33.43 83.62,-39.19"/>
</g>
<!-- Node3 -->
<g id="node3" class="node">
<title>Node3</title>
<g id="a_node3"><a xlink:href="../../de/d4f/namespacepa.html#aee505a26e46aa4c0ce09d0fed72f0dac" target="_top" xlink:title="Get the difference between the given vector and its projection.">
<polygon fill="white" stroke="black" points="250,-318 250,-337 387,-337 387,-318 250,-318"/>
<text text-anchor="middle" x="318.5" y="-325" font-family="Helvetica,sans-Serif" font-size="10.00">pa::projecting_difference</text>
</a>
</g>
</g>
<!-- Node2&#45;&gt;Node3 -->
<g id="edge2" class="edge">
<title>Node2&#45;&gt;Node3</title>
<path fill="none" stroke="midnightblue" d="M183.6,-361.95C209.15,-355.38 243.29,-346.6 270.7,-339.54"/>
<polygon fill="midnightblue" stroke="midnightblue" points="271.66,-342.91 280.47,-337.03 269.91,-336.13 271.66,-342.91"/>
</g>
<!-- Node4 -->
<g id="node4" class="node">
<title>Node4</title>
<g id="a_node4"><a xlink:href="../../de/d4f/namespacepa.html#a5414901c2fb62f1fd47857642964cc71" target="_top" xlink:title="Project a vector onto a box.">
<polygon fill="white" stroke="black" points="423,-318 423,-337 491,-337 491,-318 423,-318"/>
<text text-anchor="middle" x="457" y="-325" font-family="Helvetica,sans-Serif" font-size="10.00">pa::project</text>
</a>
</g>
</g>
<!-- Node3&#45;&gt;Node4 -->
<g id="edge3" class="edge">
<title>Node3&#45;&gt;Node4</title>
<path fill="none" stroke="midnightblue" d="M387.35,-327.5C395.91,-327.5 404.48,-327.5 412.52,-327.5"/>
<polygon fill="midnightblue" stroke="midnightblue" points="412.73,-331 422.73,-327.5 412.73,-324 412.73,-331"/>
</g>
<!-- Node6&#45;&gt;Node3 -->
<g id="edge6" class="edge">
<title>Node6&#45;&gt;Node3</title>
<path fill="none" stroke="midnightblue" d="M183.6,-293.05C209.15,-299.62 243.29,-308.4 270.7,-315.46"/>
<polygon fill="midnightblue" stroke="midnightblue" points="269.91,-318.87 280.47,-317.97 271.66,-312.09 269.91,-318.87"/>
</g>
</g>
</svg>
