<?xml version="1.0" encoding="UTF-8" standalone="no"?>
<!DOCTYPE svg PUBLIC "-//W3C//DTD SVG 1.1//EN"
 "http://www.w3.org/Graphics/SVG/1.1/DTD/svg11.dtd">
<!-- Generated by graphviz version 2.43.0 (0)
 -->
<!-- Title: ALMSolver&lt; InnerSolverT &gt; Pages: 1 -->
<svg width="454pt" height="857pt"
 viewBox="0.00 0.00 453.50 857.00" xmlns="http://www.w3.org/2000/svg" xmlns:xlink="http://www.w3.org/1999/xlink">
<g id="graph0" class="graph" transform="scale(1 1) rotate(0) translate(4 853)">
<title>ALMSolver&lt; InnerSolverT &gt;</title>
<polygon fill="white" stroke="transparent" points="-4,4 -4,-853 449.5,-853 449.5,4 -4,4"/>
<!-- Node1 -->
<g id="node1" class="node">
<title>Node1</title>
<g id="a_node1"><a xlink:title="Augmented Lagrangian Method solver.">
<polygon fill="#bfbfbf" stroke="black" points="225.5,-0.5 225.5,-101.5 377.5,-101.5 377.5,-0.5 225.5,-0.5"/>
<text text-anchor="middle" x="301.5" y="-89.5" font-family="Helvetica,sans-Serif" font-size="10.00">ALMSolver&lt; InnerSolverT &gt;</text>
<polyline fill="none" stroke="black" points="225.5,-82.5 377.5,-82.5 "/>
<text text-anchor="middle" x="301.5" y="-70.5" font-family="Helvetica,sans-Serif" font-size="10.00"> </text>
<polyline fill="none" stroke="black" points="225.5,-63.5 377.5,-63.5 "/>
<text text-anchor="start" x="233.5" y="-51.5" font-family="Helvetica,sans-Serif" font-size="10.00">+ ALMSolver()</text>
<text text-anchor="start" x="233.5" y="-40.5" font-family="Helvetica,sans-Serif" font-size="10.00">+ operator()()</text>
<text text-anchor="start" x="233.5" y="-29.5" font-family="Helvetica,sans-Serif" font-size="10.00">+ get_name()</text>
<text text-anchor="start" x="233.5" y="-18.5" font-family="Helvetica,sans-Serif" font-size="10.00">+ stop()</text>
<text text-anchor="start" x="233.5" y="-7.5" font-family="Helvetica,sans-Serif" font-size="10.00">+ get_params()</text>
</a>
</g>
</g>
<!-- Node2 -->
<g id="node2" class="node">
<title>Node2</title>
<g id="a_node2"><a xlink:href="../../db/d9c/classpa_1_1PANOCSolver.html" target="_top" xlink:title=" ">
<polygon fill="white" stroke="black" points="160,-149.5 160,-272.5 303,-272.5 303,-149.5 160,-149.5"/>
<text text-anchor="middle" x="231.5" y="-260.5" font-family="Helvetica,sans-Serif" font-size="10.00">PANOCSolver&lt;&gt;</text>
<polyline fill="none" stroke="black" points="160,-253.5 303,-253.5 "/>
<text text-anchor="start" x="168" y="-241.5" font-family="Helvetica,sans-Serif" font-size="10.00">+ direction_provider</text>
<text text-anchor="start" x="168" y="-230.5" font-family="Helvetica,sans-Serif" font-size="10.00">&#45; progress_cb</text>
<polyline fill="none" stroke="black" points="160,-223.5 303,-223.5 "/>
<text text-anchor="start" x="168" y="-211.5" font-family="Helvetica,sans-Serif" font-size="10.00">+ PANOCSolver()</text>
<text text-anchor="start" x="168" y="-200.5" font-family="Helvetica,sans-Serif" font-size="10.00">+ operator()()</text>
<text text-anchor="start" x="168" y="-189.5" font-family="Helvetica,sans-Serif" font-size="10.00">+ set_progress_callback()</text>
<text text-anchor="start" x="168" y="-178.5" font-family="Helvetica,sans-Serif" font-size="10.00">+ get_name()</text>
<text text-anchor="start" x="168" y="-167.5" font-family="Helvetica,sans-Serif" font-size="10.00">+ stop()</text>
<text text-anchor="start" x="168" y="-156.5" font-family="Helvetica,sans-Serif" font-size="10.00">+ get_params()</text>
</a>
</g>
</g>
<!-- Node2&#45;&gt;Node1 -->
<g id="edge1" class="edge">
<title>Node2&#45;&gt;Node1</title>
<path fill="none" stroke="#404040" d="M256.72,-149.34C260.92,-139.5 265.28,-129.45 269.5,-120 270.58,-117.58 271.69,-115.12 272.82,-112.63"/>
<polygon fill="none" stroke="#404040" points="272.85,-112.57 271.71,-105.45 277.85,-101.66 278.98,-108.78 272.85,-112.57"/>
<text text-anchor="middle" x="305.5" y="-123" font-family="Helvetica,sans-Serif" font-size="10.00"> +inner_solver</text>
</g>
<!-- Node3 -->
<g id="node3" class="node">
<title>Node3</title>
<g id="a_node3"><a xlink:href="../../de/d4f/namespacepa.html#d4/dde/structpa_1_1PANOCParams" target="_top" xlink:title="Tuning parameters for the PANOC algorithm.">
<polygon fill="white" stroke="black" points="0,-576.5 0,-743.5 165,-743.5 165,-576.5 0,-576.5"/>
<text text-anchor="middle" x="82.5" y="-731.5" font-family="Helvetica,sans-Serif" font-size="10.00">PANOCParams</text>
<polyline fill="none" stroke="black" points="0,-724.5 165,-724.5 "/>
<text text-anchor="start" x="8" y="-712.5" font-family="Helvetica,sans-Serif" font-size="10.00">+ Lipschitz</text>
<text text-anchor="start" x="8" y="-701.5" font-family="Helvetica,sans-Serif" font-size="10.00">+ anderson_acceleration</text>
<text text-anchor="start" x="8" y="-690.5" font-family="Helvetica,sans-Serif" font-size="10.00">+ lbfgs_mem</text>
<text text-anchor="start" x="8" y="-679.5" font-family="Helvetica,sans-Serif" font-size="10.00">+ max_iter</text>
<text text-anchor="start" x="8" y="-668.5" font-family="Helvetica,sans-Serif" font-size="10.00">+ τ_min</text>
<text text-anchor="start" x="8" y="-657.5" font-family="Helvetica,sans-Serif" font-size="10.00">+ print_interval</text>
<text text-anchor="start" x="8" y="-646.5" font-family="Helvetica,sans-Serif" font-size="10.00">+ quadratic_upperbound</text>
<text text-anchor="start" x="8" y="-635.5" font-family="Helvetica,sans-Serif" font-size="10.00">_threshold</text>
<text text-anchor="start" x="8" y="-624.5" font-family="Helvetica,sans-Serif" font-size="10.00">+ update_lipschitz_in</text>
<text text-anchor="start" x="8" y="-613.5" font-family="Helvetica,sans-Serif" font-size="10.00">_linesearch</text>
<text text-anchor="start" x="8" y="-602.5" font-family="Helvetica,sans-Serif" font-size="10.00">+ alternative_linesearch_cond</text>
<polyline fill="none" stroke="black" points="0,-595.5 165,-595.5 "/>
<text text-anchor="middle" x="82.5" y="-583.5" font-family="Helvetica,sans-Serif" font-size="10.00"> </text>
</a>
</g>
</g>
<!-- Node3&#45;&gt;Node2 -->
<g id="edge2" class="edge">
<title>Node3&#45;&gt;Node2</title>
<path fill="none" stroke="#404040" d="M93.95,-576.32C106.67,-499.69 131.35,-383.87 174.5,-291 175.7,-288.41 176.99,-285.82 178.36,-283.24"/>
<polygon fill="none" stroke="#404040" points="178.41,-283.15 177.89,-275.96 184.33,-272.71 184.85,-279.91 178.41,-283.15"/>
<text text-anchor="middle" x="196.5" y="-422" font-family="Helvetica,sans-Serif" font-size="10.00"> &#45;params</text>
</g>
<!-- Node4 -->
<g id="node4" class="node">
<title>Node4</title>
<g id="a_node4"><a xlink:title=" ">
<polygon fill="white" stroke="#bfbfbf" points="192.5,-791.5 192.5,-848.5 276.5,-848.5 276.5,-791.5 192.5,-791.5"/>
<text text-anchor="middle" x="234.5" y="-836.5" font-family="Helvetica,sans-Serif" font-size="10.00">microseconds</text>
<polyline fill="none" stroke="#bfbfbf" points="192.5,-829.5 276.5,-829.5 "/>
<text text-anchor="middle" x="234.5" y="-817.5" font-family="Helvetica,sans-Serif" font-size="10.00"> </text>
<polyline fill="none" stroke="#bfbfbf" points="192.5,-810.5 276.5,-810.5 "/>
<text text-anchor="middle" x="234.5" y="-798.5" font-family="Helvetica,sans-Serif" font-size="10.00"> </text>
</a>
</g>
</g>
<!-- Node4&#45;&gt;Node3 -->
<g id="edge3" class="edge">
<title>Node4&#45;&gt;Node3</title>
<path fill="none" stroke="#404040" d="M208.02,-791.48C197.25,-780.28 184.12,-766.63 170.46,-752.43"/>
<polygon fill="none" stroke="#404040" points="170.22,-752.18 163.18,-750.63 161.9,-743.54 168.94,-745.09 170.22,-752.18"/>
<text text-anchor="middle" x="220" y="-765" font-family="Helvetica,sans-Serif" font-size="10.00"> +max_time</text>
</g>
<!-- Node6 -->
<g id="node6" class="node">
<title>Node6</title>
<g id="a_node6"><a xlink:href="../../de/d4f/namespacepa.html#db/d32/structpa_1_1ALMParams" target="_top" xlink:title="Parameters for the Augmented Lagrangian solver.">
<polygon fill="white" stroke="black" points="299.5,-291.5 299.5,-557.5 445.5,-557.5 445.5,-291.5 299.5,-291.5"/>
<text text-anchor="middle" x="372.5" y="-545.5" font-family="Helvetica,sans-Serif" font-size="10.00">ALMParams</text>
<polyline fill="none" stroke="black" points="299.5,-538.5 445.5,-538.5 "/>
<text text-anchor="start" x="307.5" y="-526.5" font-family="Helvetica,sans-Serif" font-size="10.00">+ ε</text>
<text text-anchor="start" x="307.5" y="-515.5" font-family="Helvetica,sans-Serif" font-size="10.00">+ δ</text>
<text text-anchor="start" x="307.5" y="-504.5" font-family="Helvetica,sans-Serif" font-size="10.00">+ Δ</text>
<text text-anchor="start" x="307.5" y="-493.5" font-family="Helvetica,sans-Serif" font-size="10.00">+ Δ_lower</text>
<text text-anchor="start" x="307.5" y="-482.5" font-family="Helvetica,sans-Serif" font-size="10.00">+ Σ₀</text>
<text text-anchor="start" x="307.5" y="-471.5" font-family="Helvetica,sans-Serif" font-size="10.00">+ σ₀</text>
<text text-anchor="start" x="307.5" y="-460.5" font-family="Helvetica,sans-Serif" font-size="10.00">+ Σ₀_lower</text>
<text text-anchor="start" x="307.5" y="-449.5" font-family="Helvetica,sans-Serif" font-size="10.00">+ ε₀</text>
<text text-anchor="start" x="307.5" y="-438.5" font-family="Helvetica,sans-Serif" font-size="10.00">+ ε₀_increase</text>
<text text-anchor="start" x="307.5" y="-427.5" font-family="Helvetica,sans-Serif" font-size="10.00">+ ρ</text>
<text text-anchor="start" x="307.5" y="-416.5" font-family="Helvetica,sans-Serif" font-size="10.00">+ ρ_increase</text>
<text text-anchor="start" x="307.5" y="-405.5" font-family="Helvetica,sans-Serif" font-size="10.00">+ θ</text>
<text text-anchor="start" x="307.5" y="-394.5" font-family="Helvetica,sans-Serif" font-size="10.00">+ M</text>
<text text-anchor="start" x="307.5" y="-383.5" font-family="Helvetica,sans-Serif" font-size="10.00">+ Σₘₐₓ</text>
<text text-anchor="start" x="307.5" y="-372.5" font-family="Helvetica,sans-Serif" font-size="10.00">+ max_iter</text>
<text text-anchor="start" x="307.5" y="-361.5" font-family="Helvetica,sans-Serif" font-size="10.00">+ max_num_initial_retries</text>
<text text-anchor="start" x="307.5" y="-350.5" font-family="Helvetica,sans-Serif" font-size="10.00">+ max_num_retries</text>
<text text-anchor="start" x="307.5" y="-339.5" font-family="Helvetica,sans-Serif" font-size="10.00">+ max_total_num_retries</text>
<text text-anchor="start" x="307.5" y="-328.5" font-family="Helvetica,sans-Serif" font-size="10.00">+ print_interval</text>
<text text-anchor="start" x="307.5" y="-317.5" font-family="Helvetica,sans-Serif" font-size="10.00">+ preconditioning</text>
<polyline fill="none" stroke="black" points="299.5,-310.5 445.5,-310.5 "/>
<text text-anchor="middle" x="372.5" y="-298.5" font-family="Helvetica,sans-Serif" font-size="10.00"> </text>
</a>
</g>
</g>
<!-- Node4&#45;&gt;Node6 -->
<g id="edge6" class="edge">
<title>Node4&#45;&gt;Node6</title>
<path fill="none" stroke="#404040" d="M273.52,-791.24C288.59,-778.52 304.57,-762.22 314.5,-744 343.31,-691.13 358.16,-626.73 365.7,-569.71"/>
<polygon fill="none" stroke="#404040" points="365.71,-569.57 362.49,-563.12 367.2,-557.66 370.42,-564.11 365.71,-569.57"/>
<text text-anchor="middle" x="331" y="-765" font-family="Helvetica,sans-Serif" font-size="10.00"> +max_time</text>
</g>
<!-- Node5 -->
<g id="node5" class="node">
<title>Node5</title>
<g id="a_node5"><a xlink:href="../../d5/db1/classpa_1_1AtomicStopSignal.html" target="_top" xlink:title=" ">
<polygon fill="white" stroke="black" points="183.5,-598.5 183.5,-721.5 305.5,-721.5 305.5,-598.5 183.5,-598.5"/>
<text text-anchor="middle" x="244.5" y="-709.5" font-family="Helvetica,sans-Serif" font-size="10.00">AtomicStopSignal</text>
<polyline fill="none" stroke="black" points="183.5,-702.5 305.5,-702.5 "/>
<text text-anchor="start" x="191.5" y="-690.5" font-family="Helvetica,sans-Serif" font-size="10.00">&#45; stop_flag</text>
<polyline fill="none" stroke="black" points="183.5,-683.5 305.5,-683.5 "/>
<text text-anchor="start" x="191.5" y="-671.5" font-family="Helvetica,sans-Serif" font-size="10.00">+ AtomicStopSignal()</text>
<text text-anchor="start" x="191.5" y="-660.5" font-family="Helvetica,sans-Serif" font-size="10.00">+ AtomicStopSignal()</text>
<text text-anchor="start" x="191.5" y="-649.5" font-family="Helvetica,sans-Serif" font-size="10.00">+ operator=()</text>
<text text-anchor="start" x="191.5" y="-638.5" font-family="Helvetica,sans-Serif" font-size="10.00">+ AtomicStopSignal()</text>
<text text-anchor="start" x="191.5" y="-627.5" font-family="Helvetica,sans-Serif" font-size="10.00">+ operator=()</text>
<text text-anchor="start" x="191.5" y="-616.5" font-family="Helvetica,sans-Serif" font-size="10.00">+ stop()</text>
<text text-anchor="start" x="191.5" y="-605.5" font-family="Helvetica,sans-Serif" font-size="10.00">+ stop_requested()</text>
</a>
</g>
</g>
<!-- Node5&#45;&gt;Node2 -->
<g id="edge4" class="edge">
<title>Node5&#45;&gt;Node2</title>
<path fill="none" stroke="#404040" d="M232.6,-598.32C230.48,-585.08 228.6,-571.11 227.5,-558 219.64,-463.97 222.93,-355.07 226.65,-284.95"/>
<polygon fill="none" stroke="#404040" points="226.66,-284.73 223,-278.52 227.32,-272.75 230.98,-278.96 226.66,-284.73"/>
<text text-anchor="middle" x="259" y="-422" font-family="Helvetica,sans-Serif" font-size="10.00"> &#45;stop_signal</text>
</g>
<!-- Node6&#45;&gt;Node1 -->
<g id="edge5" class="edge">
<title>Node6&#45;&gt;Node1</title>
<path fill="none" stroke="#404040" d="M371.29,-291.35C367.66,-237.16 359.36,-174.48 341.5,-120 340.72,-117.61 339.84,-115.21 338.89,-112.82"/>
<polygon fill="none" stroke="#404040" points="338.83,-112.69 332.73,-108.84 333.94,-101.73 340.04,-105.58 338.83,-112.69"/>
<text text-anchor="middle" x="391.5" y="-208.5" font-family="Helvetica,sans-Serif" font-size="10.00"> &#45;params</text>
</g>
</g>
</svg>
