<?xml version="1.0" encoding="UTF-8" standalone="no"?>
<!DOCTYPE svg PUBLIC "-//W3C//DTD SVG 1.1//EN"
 "http://www.w3.org/Graphics/SVG/1.1/DTD/svg11.dtd">
<!-- Generated by graphviz version 2.43.0 (0)
 -->
<!-- Title: CasADiLoader.cpp Pages: 1 -->
<svg width="819pt" height="319pt"
 viewBox="0.00 0.00 819.00 319.00" xmlns="http://www.w3.org/2000/svg" xmlns:xlink="http://www.w3.org/1999/xlink">
<g id="graph0" class="graph" transform="scale(1 1) rotate(0) translate(4 315)">
<title>CasADiLoader.cpp</title>
<polygon fill="white" stroke="transparent" points="-4,4 -4,-315 815,-315 815,4 -4,4"/>
<!-- Node1 -->
<g id="node1" class="node">
<title>Node1</title>
<g id="a_node1"><a xlink:title=" ">
<polygon fill="#bfbfbf" stroke="black" points="465,-291.5 465,-310.5 569,-310.5 569,-291.5 465,-291.5"/>
<text text-anchor="middle" x="517" y="-298.5" font-family="Helvetica,sans-Serif" font-size="10.00">CasADiLoader.cpp</text>
</a>
</g>
</g>
<!-- Node2 -->
<g id="node2" class="node">
<title>Node2</title>
<g id="a_node2"><a xlink:href="CasADiFunctionWrapper_8hpp.html" target="_top" xlink:title=" ">
<polygon fill="white" stroke="black" points="385,-224.5 385,-254.5 543,-254.5 543,-224.5 385,-224.5"/>
<text text-anchor="start" x="393" y="-242.5" font-family="Helvetica,sans-Serif" font-size="10.00">panoc&#45;alm/interop/casadi</text>
<text text-anchor="middle" x="464" y="-231.5" font-family="Helvetica,sans-Serif" font-size="10.00">/CasADiFunctionWrapper.hpp</text>
</a>
</g>
</g>
<!-- Node1&#45;&gt;Node2 -->
<g id="edge1" class="edge">
<title>Node1&#45;&gt;Node2</title>
<path fill="none" stroke="midnightblue" d="M509.41,-291.48C502.63,-283.87 492.41,-272.4 483.39,-262.26"/>
<polygon fill="midnightblue" stroke="midnightblue" points="485.76,-259.66 476.49,-254.52 480.53,-264.32 485.76,-259.66"/>
</g>
<!-- Node6 -->
<g id="node6" class="node">
<title>Node6</title>
<g id="a_node6"><a xlink:title=" ">
<polygon fill="white" stroke="#bfbfbf" points="592.5,-168.5 592.5,-187.5 657.5,-187.5 657.5,-168.5 592.5,-168.5"/>
<text text-anchor="middle" x="625" y="-175.5" font-family="Helvetica,sans-Serif" font-size="10.00">stdexcept</text>
</a>
</g>
</g>
<!-- Node1&#45;&gt;Node6 -->
<g id="edge21" class="edge">
<title>Node1&#45;&gt;Node6</title>
<path fill="none" stroke="midnightblue" d="M524.77,-291.3C542.75,-271.15 587.46,-221.06 610.61,-195.12"/>
<polygon fill="midnightblue" stroke="midnightblue" points="613.26,-197.41 617.3,-187.62 608.03,-192.75 613.26,-197.41"/>
</g>
<!-- Node9 -->
<g id="node9" class="node">
<title>Node9</title>
<g id="a_node9"><a xlink:href="CasADiLoader_8hpp.html" target="_top" xlink:title=" ">
<polygon fill="white" stroke="black" points="224,-224.5 224,-254.5 364,-254.5 364,-224.5 224,-224.5"/>
<text text-anchor="start" x="232" y="-242.5" font-family="Helvetica,sans-Serif" font-size="10.00">panoc&#45;alm/interop/casadi</text>
<text text-anchor="middle" x="294" y="-231.5" font-family="Helvetica,sans-Serif" font-size="10.00">/CasADiLoader.hpp</text>
</a>
</g>
</g>
<!-- Node1&#45;&gt;Node9 -->
<g id="edge8" class="edge">
<title>Node1&#45;&gt;Node9</title>
<path fill="none" stroke="midnightblue" d="M485.05,-291.48C451.6,-282.55 398.22,-268.31 356.38,-257.14"/>
<polygon fill="midnightblue" stroke="midnightblue" points="357.12,-253.72 346.56,-254.52 355.32,-260.48 357.12,-253.72"/>
</g>
<!-- Node15 -->
<g id="node15" class="node">
<title>Node15</title>
<g id="a_node15"><a xlink:title=" ">
<polygon fill="white" stroke="#bfbfbf" points="0,-112.5 0,-131.5 58,-131.5 58,-112.5 0,-112.5"/>
<text text-anchor="middle" x="29" y="-119.5" font-family="Helvetica,sans-Serif" font-size="10.00">memory</text>
</a>
</g>
</g>
<!-- Node1&#45;&gt;Node15 -->
<g id="edge19" class="edge">
<title>Node1&#45;&gt;Node15</title>
<path fill="none" stroke="midnightblue" d="M464.94,-297.82C403.7,-294 299.64,-283.53 215,-255 156.38,-235.24 142.33,-225.32 93,-188 73.96,-173.6 55.16,-153.62 42.91,-139.63"/>
<polygon fill="midnightblue" stroke="midnightblue" points="45.36,-137.11 36.19,-131.79 40.04,-141.66 45.36,-137.11"/>
</g>
<!-- Node17 -->
<g id="node17" class="node">
<title>Node17</title>
<g id="a_node17"><a xlink:title=" ">
<polygon fill="white" stroke="#bfbfbf" points="599.5,-230 599.5,-249 736.5,-249 736.5,-230 599.5,-230"/>
<text text-anchor="middle" x="668" y="-237" font-family="Helvetica,sans-Serif" font-size="10.00">casadi/core/external.hpp</text>
</a>
</g>
</g>
<!-- Node1&#45;&gt;Node17 -->
<g id="edge18" class="edge">
<title>Node1&#45;&gt;Node17</title>
<path fill="none" stroke="midnightblue" d="M538.63,-291.48C564.42,-281.31 607.71,-264.26 637.04,-252.7"/>
<polygon fill="midnightblue" stroke="midnightblue" points="638.38,-255.93 646.41,-249.01 635.82,-249.42 638.38,-255.93"/>
</g>
<!-- Node18 -->
<g id="node18" class="node">
<title>Node18</title>
<g id="a_node18"><a xlink:title=" ">
<polygon fill="white" stroke="#bfbfbf" points="755,-230 755,-249 811,-249 811,-230 755,-230"/>
<text text-anchor="middle" x="783" y="-237" font-family="Helvetica,sans-Serif" font-size="10.00">optional</text>
</a>
</g>
</g>
<!-- Node1&#45;&gt;Node18 -->
<g id="edge20" class="edge">
<title>Node1&#45;&gt;Node18</title>
<path fill="none" stroke="midnightblue" d="M569.02,-292.51C615.86,-285.12 686.29,-272.41 746,-255 748.43,-254.29 750.93,-253.49 753.42,-252.63"/>
<polygon fill="midnightblue" stroke="midnightblue" points="754.7,-255.89 762.87,-249.14 752.28,-249.32 754.7,-255.89"/>
</g>
<!-- Node3 -->
<g id="node3" class="node">
<title>Node3</title>
<g id="a_node3"><a xlink:title=" ">
<polygon fill="white" stroke="#bfbfbf" points="400,-168.5 400,-187.5 536,-187.5 536,-168.5 400,-168.5"/>
<text text-anchor="middle" x="468" y="-175.5" font-family="Helvetica,sans-Serif" font-size="10.00">casadi/core/function.hpp</text>
</a>
</g>
</g>
<!-- Node2&#45;&gt;Node3 -->
<g id="edge2" class="edge">
<title>Node2&#45;&gt;Node3</title>
<path fill="none" stroke="midnightblue" d="M464.95,-224.4C465.48,-216.47 466.15,-206.46 466.73,-197.86"/>
<polygon fill="midnightblue" stroke="midnightblue" points="470.24,-197.87 467.42,-187.66 463.26,-197.4 470.24,-197.87"/>
</g>
<!-- Node4 -->
<g id="node4" class="node">
<title>Node4</title>
<g id="a_node4"><a xlink:href="vec_8hpp.html" target="_top" xlink:title=" ">
<polygon fill="white" stroke="black" points="355,-56.5 355,-75.5 483,-75.5 483,-56.5 355,-56.5"/>
<text text-anchor="middle" x="419" y="-63.5" font-family="Helvetica,sans-Serif" font-size="10.00">panoc&#45;alm/util/vec.hpp</text>
</a>
</g>
</g>
<!-- Node2&#45;&gt;Node4 -->
<g id="edge3" class="edge">
<title>Node2&#45;&gt;Node4</title>
<path fill="none" stroke="midnightblue" d="M502,-224.48C528.39,-212.28 556.86,-192.71 545,-168 524.97,-126.26 478.35,-96.35 447.78,-80.37"/>
<polygon fill="midnightblue" stroke="midnightblue" points="448.98,-77.05 438.48,-75.67 445.83,-83.3 448.98,-77.05"/>
</g>
<!-- Node2&#45;&gt;Node6 -->
<g id="edge5" class="edge">
<title>Node2&#45;&gt;Node6</title>
<path fill="none" stroke="midnightblue" d="M502.15,-224.4C529.53,-214.28 566.04,-200.79 592.13,-191.15"/>
<polygon fill="midnightblue" stroke="midnightblue" points="593.41,-194.41 601.57,-187.66 590.98,-187.84 593.41,-194.41"/>
</g>
<!-- Node7 -->
<g id="node7" class="node">
<title>Node7</title>
<g id="a_node7"><a xlink:title=" ">
<polygon fill="white" stroke="#bfbfbf" points="272,-168.5 272,-187.5 316,-187.5 316,-168.5 272,-168.5"/>
<text text-anchor="middle" x="294" y="-175.5" font-family="Helvetica,sans-Serif" font-size="10.00">string</text>
</a>
</g>
</g>
<!-- Node2&#45;&gt;Node7 -->
<g id="edge6" class="edge">
<title>Node2&#45;&gt;Node7</title>
<path fill="none" stroke="midnightblue" d="M423.71,-224.4C393.81,-213.93 353.57,-199.85 325.89,-190.16"/>
<polygon fill="midnightblue" stroke="midnightblue" points="326.89,-186.8 316.3,-186.8 324.58,-193.41 326.89,-186.8"/>
</g>
<!-- Node8 -->
<g id="node8" class="node">
<title>Node8</title>
<g id="a_node8"><a xlink:title=" ">
<polygon fill="white" stroke="#bfbfbf" points="334.5,-168.5 334.5,-187.5 381.5,-187.5 381.5,-168.5 334.5,-168.5"/>
<text text-anchor="middle" x="358" y="-175.5" font-family="Helvetica,sans-Serif" font-size="10.00">vector</text>
</a>
</g>
</g>
<!-- Node2&#45;&gt;Node8 -->
<g id="edge7" class="edge">
<title>Node2&#45;&gt;Node8</title>
<path fill="none" stroke="midnightblue" d="M438.88,-224.4C421.73,-214.77 399.14,-202.09 382.19,-192.58"/>
<polygon fill="midnightblue" stroke="midnightblue" points="383.86,-189.5 373.42,-187.66 380.43,-195.6 383.86,-189.5"/>
</g>
<!-- Node5 -->
<g id="node5" class="node">
<title>Node5</title>
<g id="a_node5"><a xlink:title=" ">
<polygon fill="white" stroke="#bfbfbf" points="384.5,-0.5 384.5,-19.5 453.5,-19.5 453.5,-0.5 384.5,-0.5"/>
<text text-anchor="middle" x="419" y="-7.5" font-family="Helvetica,sans-Serif" font-size="10.00">Eigen/Core</text>
</a>
</g>
</g>
<!-- Node4&#45;&gt;Node5 -->
<g id="edge4" class="edge">
<title>Node4&#45;&gt;Node5</title>
<path fill="none" stroke="midnightblue" d="M419,-56.08C419,-49.01 419,-38.86 419,-29.99"/>
<polygon fill="midnightblue" stroke="midnightblue" points="422.5,-29.75 419,-19.75 415.5,-29.75 422.5,-29.75"/>
</g>
<!-- Node9&#45;&gt;Node7 -->
<g id="edge17" class="edge">
<title>Node9&#45;&gt;Node7</title>
<path fill="none" stroke="midnightblue" d="M294,-224.4C294,-216.47 294,-206.46 294,-197.86"/>
<polygon fill="midnightblue" stroke="midnightblue" points="297.5,-197.66 294,-187.66 290.5,-197.66 297.5,-197.66"/>
</g>
<!-- Node10 -->
<g id="node10" class="node">
<title>Node10</title>
<g id="a_node10"><a xlink:href="include_2panoc-alm_2util_2problem_8hpp.html" target="_top" xlink:title=" ">
<polygon fill="white" stroke="black" points="102,-168.5 102,-187.5 254,-187.5 254,-168.5 102,-168.5"/>
<text text-anchor="middle" x="178" y="-175.5" font-family="Helvetica,sans-Serif" font-size="10.00">panoc&#45;alm/util/problem.hpp</text>
</a>
</g>
</g>
<!-- Node9&#45;&gt;Node10 -->
<g id="edge9" class="edge">
<title>Node9&#45;&gt;Node10</title>
<path fill="none" stroke="midnightblue" d="M266.51,-224.4C247.57,-214.68 222.56,-201.86 203.96,-192.31"/>
<polygon fill="midnightblue" stroke="midnightblue" points="205.37,-189.11 194.88,-187.66 202.18,-195.34 205.37,-189.11"/>
</g>
<!-- Node11 -->
<g id="node11" class="node">
<title>Node11</title>
<g id="a_node11"><a xlink:href="box_8hpp.html" target="_top" xlink:title=" ">
<polygon fill="white" stroke="black" points="247,-112.5 247,-131.5 303,-131.5 303,-112.5 247,-112.5"/>
<text text-anchor="middle" x="275" y="-119.5" font-family="Helvetica,sans-Serif" font-size="10.00">box.hpp</text>
</a>
</g>
</g>
<!-- Node10&#45;&gt;Node11 -->
<g id="edge10" class="edge">
<title>Node10&#45;&gt;Node11</title>
<path fill="none" stroke="midnightblue" d="M193.58,-168.32C209,-159.74 232.81,-146.49 250.71,-136.52"/>
<polygon fill="midnightblue" stroke="midnightblue" points="252.42,-139.58 259.45,-131.65 249.01,-133.46 252.42,-139.58"/>
</g>
<!-- Node12 -->
<g id="node12" class="node">
<title>Node12</title>
<g id="a_node12"><a xlink:title=" ">
<polygon fill="white" stroke="#bfbfbf" points="321,-112.5 321,-131.5 373,-131.5 373,-112.5 321,-112.5"/>
<text text-anchor="middle" x="347" y="-119.5" font-family="Helvetica,sans-Serif" font-size="10.00">cassert</text>
</a>
</g>
</g>
<!-- Node10&#45;&gt;Node12 -->
<g id="edge12" class="edge">
<title>Node10&#45;&gt;Node12</title>
<path fill="none" stroke="midnightblue" d="M204.78,-168.44C233.5,-159.27 279.27,-144.64 311.1,-134.47"/>
<polygon fill="midnightblue" stroke="midnightblue" points="312.44,-137.72 320.9,-131.34 310.31,-131.05 312.44,-137.72"/>
</g>
<!-- Node13 -->
<g id="node13" class="node">
<title>Node13</title>
<g id="a_node13"><a xlink:title=" ">
<polygon fill="white" stroke="#bfbfbf" points="391,-112.5 391,-131.5 441,-131.5 441,-112.5 391,-112.5"/>
<text text-anchor="middle" x="416" y="-119.5" font-family="Helvetica,sans-Serif" font-size="10.00">chrono</text>
</a>
</g>
</g>
<!-- Node10&#45;&gt;Node13 -->
<g id="edge13" class="edge">
<title>Node10&#45;&gt;Node13</title>
<path fill="none" stroke="midnightblue" d="M219.14,-168.45C258.33,-160.19 319.21,-147.05 380.88,-132.2"/>
<polygon fill="midnightblue" stroke="midnightblue" points="381.88,-135.56 390.78,-129.8 380.24,-128.75 381.88,-135.56"/>
</g>
<!-- Node14 -->
<g id="node14" class="node">
<title>Node14</title>
<g id="a_node14"><a xlink:title=" ">
<polygon fill="white" stroke="#bfbfbf" points="76.5,-112.5 76.5,-131.5 141.5,-131.5 141.5,-112.5 76.5,-112.5"/>
<text text-anchor="middle" x="109" y="-119.5" font-family="Helvetica,sans-Serif" font-size="10.00">functional</text>
</a>
</g>
</g>
<!-- Node10&#45;&gt;Node14 -->
<g id="edge14" class="edge">
<title>Node10&#45;&gt;Node14</title>
<path fill="none" stroke="midnightblue" d="M166.91,-168.32C156.51,-160.18 140.74,-147.84 128.28,-138.09"/>
<polygon fill="midnightblue" stroke="midnightblue" points="130.32,-135.24 120.29,-131.83 126.01,-140.75 130.32,-135.24"/>
</g>
<!-- Node10&#45;&gt;Node15 -->
<g id="edge15" class="edge">
<title>Node10&#45;&gt;Node15</title>
<path fill="none" stroke="midnightblue" d="M154.39,-168.44C129.54,-159.44 90.23,-145.19 62.25,-135.05"/>
<polygon fill="midnightblue" stroke="midnightblue" points="63.09,-131.63 52.5,-131.52 60.71,-138.21 63.09,-131.63"/>
</g>
<!-- Node16 -->
<g id="node16" class="node">
<title>Node16</title>
<g id="a_node16"><a xlink:title=" ">
<polygon fill="white" stroke="#bfbfbf" points="159.5,-112.5 159.5,-131.5 228.5,-131.5 228.5,-112.5 159.5,-112.5"/>
<text text-anchor="middle" x="194" y="-119.5" font-family="Helvetica,sans-Serif" font-size="10.00">type_traits</text>
</a>
</g>
</g>
<!-- Node10&#45;&gt;Node16 -->
<g id="edge16" class="edge">
<title>Node10&#45;&gt;Node16</title>
<path fill="none" stroke="midnightblue" d="M180.64,-168.08C182.79,-160.85 185.88,-150.41 188.55,-141.4"/>
<polygon fill="midnightblue" stroke="midnightblue" points="191.92,-142.33 191.41,-131.75 185.21,-140.34 191.92,-142.33"/>
</g>
<!-- Node11&#45;&gt;Node4 -->
<g id="edge11" class="edge">
<title>Node11&#45;&gt;Node4</title>
<path fill="none" stroke="midnightblue" d="M297.82,-112.44C321.83,-103.44 359.83,-89.19 386.87,-79.05"/>
<polygon fill="midnightblue" stroke="midnightblue" points="388.16,-82.3 396.29,-75.52 385.7,-75.75 388.16,-82.3"/>
</g>
</g>
</svg>
