<?xml version="1.0" encoding="UTF-8" standalone="no"?>
<!DOCTYPE svg PUBLIC "-//W3C//DTD SVG 1.1//EN"
 "http://www.w3.org/Graphics/SVG/1.1/DTD/svg11.dtd">
<!-- Generated by graphviz version 2.43.0 (0)
 -->
<!-- Title: history Pages: 1 -->
<svg width="683pt" height="400pt"
 viewBox="0.00 0.00 683.00 399.50" xmlns="http://www.w3.org/2000/svg" xmlns:xlink="http://www.w3.org/1999/xlink">
<g id="graph0" class="graph" transform="scale(1 1) rotate(0) translate(4 395.5)">
<title>history</title>
<polygon fill="white" stroke="transparent" points="-4,4 -4,-395.5 679,-395.5 679,4 -4,4"/>
<!-- Node1 -->
<g id="node1" class="node">
<title>Node1</title>
<g id="a_node1"><a xlink:title="Get the number of previous vectors s, y, x and g stored in the buffer.">
<polygon fill="#bfbfbf" stroke="black" points="625,-220 625,-239 675,-239 675,-220 625,-220"/>
<text text-anchor="middle" x="650" y="-227" font-family="Helvetica,sans-Serif" font-size="10.00">history</text>
</a>
</g>
</g>
<!-- Node2 -->
<g id="node2" class="node">
<title>Node2</title>
<g id="a_node2"><a xlink:href="classpa_1_1SpecializedLBFGS.html#a3633932c88d15ff3118f72a11f4c58e4" target="_top" xlink:title=" ">
<polygon fill="white" stroke="black" points="363.5,-358 363.5,-377 467.5,-377 467.5,-358 363.5,-358"/>
<text text-anchor="middle" x="415.5" y="-365" font-family="Helvetica,sans-Serif" font-size="10.00">SpecializedLBFGS</text>
</a>
</g>
</g>
<!-- Node1&#45;&gt;Node2 -->
<g id="edge1" class="edge">
<title>Node1&#45;&gt;Node2</title>
<path fill="none" stroke="midnightblue" d="M642.09,-248.48C633.19,-270.21 615.63,-305.25 589,-324.5 553.48,-350.17 504.29,-360.6 467.53,-364.79"/>
<polygon fill="midnightblue" stroke="midnightblue" points="645.41,-249.61 645.76,-239.02 638.88,-247.07 645.41,-249.61"/>
</g>
<!-- Node3 -->
<g id="node3" class="node">
<title>Node3</title>
<g id="a_node3"><a xlink:href="classpa_1_1SpecializedLBFGS.html#a37dd0ce624f9914a61118d8f02fa1c7f" target="_top" xlink:title="Apply the inverse Hessian approximation to the given vector q.">
<polygon fill="white" stroke="black" points="544,-296 544,-315 588,-315 588,-296 544,-296"/>
<text text-anchor="middle" x="566" y="-303" font-family="Helvetica,sans-Serif" font-size="10.00">apply</text>
</a>
</g>
</g>
<!-- Node1&#45;&gt;Node3 -->
<g id="edge2" class="edge">
<title>Node1&#45;&gt;Node3</title>
<path fill="none" stroke="midnightblue" d="M631.49,-246.56C619.63,-258 603.53,-273.33 589,-286.5 585.56,-289.62 581.75,-292.95 578.28,-295.94"/>
<polygon fill="midnightblue" stroke="midnightblue" points="634.2,-248.8 638.95,-239.33 629.33,-243.77 634.2,-248.8"/>
</g>
<!-- Node5 -->
<g id="node5" class="node">
<title>Node5</title>
<g id="a_node5"><a xlink:href="classpa_1_1SpecializedLBFGS.html#a7e9b3fd96d52976693a1fb57fb32ba3c" target="_top" xlink:title=" ">
<polygon fill="white" stroke="black" points="551.5,-68 551.5,-87 580.5,-87 580.5,-68 551.5,-68"/>
<text text-anchor="middle" x="566" y="-75" font-family="Helvetica,sans-Serif" font-size="10.00">g</text>
</a>
</g>
</g>
<!-- Node1&#45;&gt;Node5 -->
<g id="edge4" class="edge">
<title>Node1&#45;&gt;Node5</title>
<path fill="none" stroke="midnightblue" d="M643.13,-209.84C634.35,-182.56 615.9,-132.54 589,-96.5 586.46,-93.1 583.22,-89.89 580.01,-87.1"/>
<polygon fill="midnightblue" stroke="midnightblue" points="639.89,-211.21 646.2,-219.72 646.57,-209.13 639.89,-211.21"/>
</g>
<!-- Node14 -->
<g id="node14" class="node">
<title>Node14</title>
<g id="a_node14"><a xlink:href="classpa_1_1SpecializedLBFGS.html#a9cb23d843dff87dd08bd5a916d9eed95" target="_top" xlink:title=" ">
<polygon fill="white" stroke="black" points="551.5,-258 551.5,-277 580.5,-277 580.5,-258 551.5,-258"/>
<text text-anchor="middle" x="566" y="-265" font-family="Helvetica,sans-Serif" font-size="10.00">p</text>
</a>
</g>
</g>
<!-- Node1&#45;&gt;Node14 -->
<g id="edge15" class="edge">
<title>Node1&#45;&gt;Node14</title>
<path fill="none" stroke="midnightblue" d="M619.18,-243.32C606.13,-249.37 591.44,-256.17 580.98,-261.02"/>
<polygon fill="midnightblue" stroke="midnightblue" points="620.71,-246.47 628.31,-239.09 617.76,-240.12 620.71,-246.47"/>
</g>
<!-- Node15 -->
<g id="node15" class="node">
<title>Node15</title>
<g id="a_node15"><a xlink:href="classpa_1_1SpecializedLBFGS.html#a366794fa1c1947b58c0e7cfd78529215" target="_top" xlink:title="Get the previous index in the circular buffer of previous s, y, x and g vectors.">
<polygon fill="white" stroke="black" points="547,-220 547,-239 585,-239 585,-220 547,-220"/>
<text text-anchor="middle" x="566" y="-227" font-family="Helvetica,sans-Serif" font-size="10.00">pred</text>
</a>
</g>
</g>
<!-- Node1&#45;&gt;Node15 -->
<g id="edge17" class="edge">
<title>Node1&#45;&gt;Node15</title>
<path fill="none" stroke="midnightblue" d="M614.56,-229.5C604.4,-229.5 593.68,-229.5 585,-229.5"/>
<polygon fill="midnightblue" stroke="midnightblue" points="614.84,-233 624.84,-229.5 614.84,-226 614.84,-233"/>
</g>
<!-- Node16 -->
<g id="node16" class="node">
<title>Node16</title>
<g id="a_node16"><a xlink:href="classpa_1_1SpecializedLBFGS.html#ab94b4f1bcda8e0f0bace15126f54b6d3" target="_top" xlink:title="Re&#45;allocate storage for a problem with a different size.">
<polygon fill="white" stroke="black" points="543,-372 543,-391 589,-391 589,-372 543,-372"/>
<text text-anchor="middle" x="566" y="-379" font-family="Helvetica,sans-Serif" font-size="10.00">resize</text>
</a>
</g>
</g>
<!-- Node1&#45;&gt;Node16 -->
<g id="edge19" class="edge">
<title>Node1&#45;&gt;Node16</title>
<path fill="none" stroke="midnightblue" d="M642.11,-248.73C632.36,-274.64 613.02,-321.64 589,-357.5 585.6,-362.57 581.16,-367.64 577.15,-371.8"/>
<polygon fill="midnightblue" stroke="midnightblue" points="645.51,-249.6 645.68,-239.01 638.94,-247.19 645.51,-249.6"/>
</g>
<!-- Node17 -->
<g id="node17" class="node">
<title>Node17</title>
<g id="a_node17"><a xlink:href="classpa_1_1SpecializedLBFGS.html#a0df701f7bb07249c37bcbf20d9c980fe" target="_top" xlink:title="Get the next index in the circular buffer of previous s, y, x and g vectors.">
<polygon fill="white" stroke="black" points="547,-144 547,-163 585,-163 585,-144 547,-144"/>
<text text-anchor="middle" x="566" y="-151" font-family="Helvetica,sans-Serif" font-size="10.00">succ</text>
</a>
</g>
</g>
<!-- Node1&#45;&gt;Node17 -->
<g id="edge21" class="edge">
<title>Node1&#45;&gt;Node17</title>
<path fill="none" stroke="midnightblue" d="M631.49,-212.44C619.63,-201 603.53,-185.67 589,-172.5 585.56,-169.38 581.75,-166.05 578.28,-163.06"/>
<polygon fill="midnightblue" stroke="midnightblue" points="629.33,-215.23 638.95,-219.67 634.2,-210.2 629.33,-215.23"/>
</g>
<!-- Node18 -->
<g id="node18" class="node">
<title>Node18</title>
<g id="a_node18"><a xlink:href="classpa_1_1SpecializedLBFGS.html#a45235c456e26733897f13bbf1057323e" target="_top" xlink:title=" ">
<polygon fill="white" stroke="black" points="551.5,-182 551.5,-201 580.5,-201 580.5,-182 551.5,-182"/>
<text text-anchor="middle" x="566" y="-189" font-family="Helvetica,sans-Serif" font-size="10.00">w</text>
</a>
</g>
</g>
<!-- Node1&#45;&gt;Node18 -->
<g id="edge24" class="edge">
<title>Node1&#45;&gt;Node18</title>
<path fill="none" stroke="midnightblue" d="M619.18,-215.68C606.13,-209.63 591.44,-202.83 580.98,-197.98"/>
<polygon fill="midnightblue" stroke="midnightblue" points="617.76,-218.88 628.31,-219.91 620.71,-212.53 617.76,-218.88"/>
</g>
<!-- Node19 -->
<g id="node19" class="node">
<title>Node19</title>
<g id="a_node19"><a xlink:href="classpa_1_1SpecializedLBFGS.html#ac8fb9b5f7c53b1285867cf99b0f79d17" target="_top" xlink:title=" ">
<polygon fill="white" stroke="black" points="551.5,-106 551.5,-125 580.5,-125 580.5,-106 551.5,-106"/>
<text text-anchor="middle" x="566" y="-113" font-family="Helvetica,sans-Serif" font-size="10.00">x</text>
</a>
</g>
</g>
<!-- Node1&#45;&gt;Node19 -->
<g id="edge26" class="edge">
<title>Node1&#45;&gt;Node19</title>
<path fill="none" stroke="midnightblue" d="M639.46,-210.99C628.68,-191.01 609.91,-158.78 589,-134.5 586.23,-131.29 582.91,-128.14 579.7,-125.36"/>
<polygon fill="midnightblue" stroke="midnightblue" points="636.44,-212.77 644.21,-219.98 642.63,-209.5 636.44,-212.77"/>
</g>
<!-- Node4 -->
<g id="node4" class="node">
<title>Node4</title>
<g id="a_node4"><a xlink:href="structpa_1_1PANOCDirection_3_01SpecializedLBFGS_01_4.html#a896d954d179723ad79cb7925541c96c8" target="_top" xlink:title=" ">
<polygon fill="white" stroke="black" points="352.5,-285 352.5,-326 478.5,-326 478.5,-285 352.5,-285"/>
<text text-anchor="start" x="360.5" y="-314" font-family="Helvetica,sans-Serif" font-size="10.00">pa::PANOCDirection</text>
<text text-anchor="start" x="360.5" y="-303" font-family="Helvetica,sans-Serif" font-size="10.00">&lt; SpecializedLBFGS &gt;</text>
<text text-anchor="middle" x="415.5" y="-292" font-family="Helvetica,sans-Serif" font-size="10.00">::apply</text>
</a>
</g>
</g>
<!-- Node3&#45;&gt;Node4 -->
<g id="edge3" class="edge">
<title>Node3&#45;&gt;Node4</title>
<path fill="none" stroke="midnightblue" d="M533.35,-305.5C517.37,-305.5 497.4,-305.5 478.51,-305.5"/>
<polygon fill="midnightblue" stroke="midnightblue" points="533.72,-309 543.72,-305.5 533.72,-302 533.72,-309"/>
</g>
<!-- Node6 -->
<g id="node6" class="node">
<title>Node6</title>
<g id="a_node6"><a xlink:href="classhanging__chain__dynamics_1_1HangingChain.html#a2e4d9874164cfa87334b099f3ce1f288" target="_top" xlink:title=" ">
<polygon fill="white" stroke="black" points="324,-0.5 324,-30.5 507,-30.5 507,-0.5 324,-0.5"/>
<text text-anchor="start" x="332" y="-18.5" font-family="Helvetica,sans-Serif" font-size="10.00">hanging_chain_dynamics.Hanging</text>
<text text-anchor="middle" x="415.5" y="-7.5" font-family="Helvetica,sans-Serif" font-size="10.00">Chain.dynamics</text>
</a>
</g>
</g>
<!-- Node5&#45;&gt;Node6 -->
<g id="edge5" class="edge">
<title>Node5&#45;&gt;Node6</title>
<path fill="none" stroke="midnightblue" d="M541.96,-67.88C518.06,-57.9 480.34,-42.15 452.5,-30.53"/>
<polygon fill="midnightblue" stroke="midnightblue" points="540.72,-71.16 551.3,-71.78 543.42,-64.7 540.72,-71.16"/>
</g>
<!-- Node7 -->
<g id="node7" class="node">
<title>Node7</title>
<g id="a_node7"><a xlink:href="classpa_1_1SpecializedLBFGS.html#a0b030867dbee1f90710a9b23360807a3" target="_top" xlink:title="L&#45;BFGS update when changing the step size γ, recomputing everything.">
<polygon fill="white" stroke="black" points="380,-182 380,-201 451,-201 451,-182 380,-182"/>
<text text-anchor="middle" x="415.5" y="-189" font-family="Helvetica,sans-Serif" font-size="10.00">full_update</text>
</a>
</g>
</g>
<!-- Node5&#45;&gt;Node7 -->
<g id="edge7" class="edge">
<title>Node5&#45;&gt;Node7</title>
<path fill="none" stroke="midnightblue" d="M544.78,-94.31C544.16,-95.03 543.56,-95.76 543,-96.5 520.37,-126.24 536.35,-149.36 507,-172.5 491.37,-184.83 469.65,-189.67 451.4,-191.39"/>
<polygon fill="midnightblue" stroke="midnightblue" points="547.38,-96.66 552.03,-87.14 542.46,-91.68 547.38,-96.66"/>
</g>
<!-- Node10 -->
<g id="node10" class="node">
<title>Node10</title>
<g id="a_node10"><a xlink:href="classpa_1_1SpecializedLBFGS.html#a3606f78438b923b36f682fb1f91764d7" target="_top" xlink:title="Initialize with the starting point x₀ and the gradient in that point.">
<polygon fill="white" stroke="black" points="386,-68 386,-87 445,-87 445,-68 386,-68"/>
<text text-anchor="middle" x="415.5" y="-75" font-family="Helvetica,sans-Serif" font-size="10.00">initialize</text>
</a>
</g>
</g>
<!-- Node5&#45;&gt;Node10 -->
<g id="edge10" class="edge">
<title>Node5&#45;&gt;Node10</title>
<path fill="none" stroke="midnightblue" d="M541.13,-77.5C514.96,-77.5 472.97,-77.5 445.07,-77.5"/>
<polygon fill="midnightblue" stroke="midnightblue" points="541.3,-81 551.3,-77.5 541.3,-74 541.3,-81"/>
</g>
<!-- Node12 -->
<g id="node12" class="node">
<title>Node12</title>
<g id="a_node12"><a xlink:href="classpa_1_1SpecializedLBFGS.html#ad20897c5c8bd47f5d4005989bead0e55" target="_top" xlink:title="Throw away the approximation and all previous vectors s and y.">
<polygon fill="white" stroke="black" points="395,-106 395,-125 436,-125 436,-106 395,-106"/>
<text text-anchor="middle" x="415.5" y="-113" font-family="Helvetica,sans-Serif" font-size="10.00">reset</text>
</a>
</g>
</g>
<!-- Node5&#45;&gt;Node12 -->
<g id="edge12" class="edge">
<title>Node5&#45;&gt;Node12</title>
<path fill="none" stroke="midnightblue" d="M541.61,-85.81C531.11,-89.37 518.51,-93.42 507,-96.5 482.81,-102.98 454.49,-108.62 436.07,-112.03"/>
<polygon fill="midnightblue" stroke="midnightblue" points="542.99,-89.04 551.3,-82.46 540.7,-82.42 542.99,-89.04"/>
</g>
<!-- Node13 -->
<g id="node13" class="node">
<title>Node13</title>
<g id="a_node13"><a xlink:href="classpa_1_1SpecializedLBFGS.html#a5a4a6bc855faa7998e2308d5e6d10224" target="_top" xlink:title="Standard L&#45;BFGS update without changing the step size γ.">
<polygon fill="white" stroke="black" points="366.5,-144 366.5,-163 464.5,-163 464.5,-144 366.5,-144"/>
<text text-anchor="middle" x="415.5" y="-151" font-family="Helvetica,sans-Serif" font-size="10.00">standard_update</text>
</a>
</g>
</g>
<!-- Node5&#45;&gt;Node13 -->
<g id="edge13" class="edge">
<title>Node5&#45;&gt;Node13</title>
<path fill="none" stroke="midnightblue" d="M545.47,-94.18C544.63,-94.96 543.8,-95.73 543,-96.5 526.18,-112.57 527.31,-123.15 507,-134.5 494.25,-141.63 479.13,-146.09 464.93,-148.88"/>
<polygon fill="midnightblue" stroke="midnightblue" points="548.01,-96.61 553.16,-87.35 543.36,-91.37 548.01,-96.61"/>
</g>
<!-- Node6&#45;&gt;Node6 -->
<g id="edge6" class="edge">
<title>Node6&#45;&gt;Node6</title>
<path fill="none" stroke="midnightblue" d="M442.15,-40.96C438.85,-45.68 429.96,-49 415.5,-49 391.77,-49 383.06,-40.06 389.36,-30.66"/>
<polygon fill="midnightblue" stroke="midnightblue" points="445.63,-40.47 441.64,-30.66 438.64,-40.82 445.63,-40.47"/>
</g>
<!-- Node8 -->
<g id="node8" class="node">
<title>Node8</title>
<g id="a_node8"><a xlink:href="classpa_1_1SpecializedLBFGS.html#a747b26091f869cb17a768e38f17fbc8d" target="_top" xlink:title="Update the inverse Hessian approximation using the new vectors xₖ₊₁ and pₖ₊₁.">
<polygon fill="white" stroke="black" points="200,-163 200,-182 250,-182 250,-163 200,-163"/>
<text text-anchor="middle" x="225" y="-170" font-family="Helvetica,sans-Serif" font-size="10.00">update</text>
</a>
</g>
</g>
<!-- Node7&#45;&gt;Node8 -->
<g id="edge8" class="edge">
<title>Node7&#45;&gt;Node8</title>
<path fill="none" stroke="midnightblue" d="M369.78,-186.99C332.32,-183.22 280.29,-177.97 250.18,-174.94"/>
<polygon fill="midnightblue" stroke="midnightblue" points="369.63,-190.49 379.93,-188.02 370.33,-183.53 369.63,-190.49"/>
</g>
<!-- Node9 -->
<g id="node9" class="node">
<title>Node9</title>
<g id="a_node9"><a xlink:href="structpa_1_1PANOCDirection_3_01SpecializedLBFGS_01_4.html#a39a241c049e8d029cc86a30a89ef92cf" target="_top" xlink:title=" ">
<polygon fill="white" stroke="black" points="0,-152 0,-193 126,-193 126,-152 0,-152"/>
<text text-anchor="start" x="8" y="-181" font-family="Helvetica,sans-Serif" font-size="10.00">pa::PANOCDirection</text>
<text text-anchor="start" x="8" y="-170" font-family="Helvetica,sans-Serif" font-size="10.00">&lt; SpecializedLBFGS &gt;</text>
<text text-anchor="middle" x="63" y="-159" font-family="Helvetica,sans-Serif" font-size="10.00">::update</text>
</a>
</g>
</g>
<!-- Node8&#45;&gt;Node9 -->
<g id="edge9" class="edge">
<title>Node8&#45;&gt;Node9</title>
<path fill="none" stroke="midnightblue" d="M189.45,-172.5C171,-172.5 147.74,-172.5 126.26,-172.5"/>
<polygon fill="midnightblue" stroke="midnightblue" points="189.7,-176 199.7,-172.5 189.7,-169 189.7,-176"/>
</g>
<!-- Node11 -->
<g id="node11" class="node">
<title>Node11</title>
<g id="a_node11"><a xlink:href="structpa_1_1PANOCDirection_3_01SpecializedLBFGS_01_4.html#a47b667371126ccfdb51898d979f2c786" target="_top" xlink:title=" ">
<polygon fill="white" stroke="black" points="162,-57 162,-98 288,-98 288,-57 162,-57"/>
<text text-anchor="start" x="170" y="-86" font-family="Helvetica,sans-Serif" font-size="10.00">pa::PANOCDirection</text>
<text text-anchor="start" x="170" y="-75" font-family="Helvetica,sans-Serif" font-size="10.00">&lt; SpecializedLBFGS &gt;</text>
<text text-anchor="middle" x="225" y="-64" font-family="Helvetica,sans-Serif" font-size="10.00">::initialize</text>
</a>
</g>
</g>
<!-- Node10&#45;&gt;Node11 -->
<g id="edge11" class="edge">
<title>Node10&#45;&gt;Node11</title>
<path fill="none" stroke="midnightblue" d="M375.6,-77.5C350.38,-77.5 316.97,-77.5 288.12,-77.5"/>
<polygon fill="midnightblue" stroke="midnightblue" points="375.87,-81 385.87,-77.5 375.87,-74 375.87,-81"/>
</g>
<!-- Node13&#45;&gt;Node8 -->
<g id="edge14" class="edge">
<title>Node13&#45;&gt;Node8</title>
<path fill="none" stroke="midnightblue" d="M356.14,-159.38C320.44,-162.98 276.68,-167.39 250.09,-170.07"/>
<polygon fill="midnightblue" stroke="midnightblue" points="356.85,-162.83 366.45,-158.34 356.15,-155.86 356.85,-162.83"/>
</g>
<!-- Node14&#45;&gt;Node7 -->
<g id="edge16" class="edge">
<title>Node14&#45;&gt;Node7</title>
<path fill="none" stroke="midnightblue" d="M542.22,-255.84C512.89,-240.83 462.45,-215.02 435.23,-201.09"/>
<polygon fill="midnightblue" stroke="midnightblue" points="540.8,-259.05 551.3,-260.49 543.99,-252.81 540.8,-259.05"/>
</g>
<!-- Node15&#45;&gt;Node7 -->
<g id="edge18" class="edge">
<title>Node15&#45;&gt;Node7</title>
<path fill="none" stroke="midnightblue" d="M537.08,-222.35C512.68,-216.11 477.17,-207.02 451,-200.33"/>
<polygon fill="midnightblue" stroke="midnightblue" points="536.24,-225.75 546.79,-224.84 537.97,-218.97 536.24,-225.75"/>
</g>
<!-- Node16&#45;&gt;Node2 -->
<g id="edge20" class="edge">
<title>Node16&#45;&gt;Node2</title>
<path fill="none" stroke="midnightblue" d="M532.8,-378.46C513.74,-376.67 489.17,-374.35 467.53,-372.31"/>
<polygon fill="midnightblue" stroke="midnightblue" points="532.48,-381.95 542.77,-379.4 533.14,-374.98 532.48,-381.95"/>
</g>
<!-- Node17&#45;&gt;Node7 -->
<g id="edge22" class="edge">
<title>Node17&#45;&gt;Node7</title>
<path fill="none" stroke="midnightblue" d="M537.14,-163.31C527.65,-166.47 516.92,-169.84 507,-172.5 488.7,-177.4 468.04,-181.82 451.09,-185.16"/>
<polygon fill="midnightblue" stroke="midnightblue" points="538.53,-166.54 546.87,-160.01 536.27,-159.91 538.53,-166.54"/>
</g>
<!-- Node17&#45;&gt;Node13 -->
<g id="edge23" class="edge">
<title>Node17&#45;&gt;Node13</title>
<path fill="none" stroke="midnightblue" d="M536.61,-153.5C516.25,-153.5 488.32,-153.5 464.52,-153.5"/>
<polygon fill="midnightblue" stroke="midnightblue" points="536.79,-157 546.79,-153.5 536.79,-150 536.79,-157"/>
</g>
<!-- Node18&#45;&gt;Node7 -->
<g id="edge25" class="edge">
<title>Node18&#45;&gt;Node7</title>
<path fill="none" stroke="midnightblue" d="M541.18,-191.5C516.88,-191.5 478.92,-191.5 451.27,-191.5"/>
<polygon fill="midnightblue" stroke="midnightblue" points="541.3,-195 551.3,-191.5 541.3,-188 541.3,-195"/>
</g>
<!-- Node19&#45;&gt;Node7 -->
<g id="edge27" class="edge">
<title>Node19&#45;&gt;Node7</title>
<path fill="none" stroke="midnightblue" d="M545.47,-132.18C544.63,-132.96 543.8,-133.73 543,-134.5 526.18,-150.57 527.31,-161.15 507,-172.5 490.04,-181.98 468.9,-186.74 451.31,-189.13"/>
<polygon fill="midnightblue" stroke="midnightblue" points="548.01,-134.61 553.16,-125.35 543.36,-129.37 548.01,-134.61"/>
</g>
<!-- Node19&#45;&gt;Node10 -->
<g id="edge28" class="edge">
<title>Node19&#45;&gt;Node10</title>
<path fill="none" stroke="midnightblue" d="M541.61,-107.19C531.11,-103.63 518.51,-99.58 507,-96.5 486.53,-91.02 463.11,-86.14 445.22,-82.69"/>
<polygon fill="midnightblue" stroke="midnightblue" points="540.7,-110.58 551.3,-110.54 542.99,-103.96 540.7,-110.58"/>
</g>
<!-- Node19&#45;&gt;Node12 -->
<g id="edge29" class="edge">
<title>Node19&#45;&gt;Node12</title>
<path fill="none" stroke="midnightblue" d="M541.18,-115.5C512.07,-115.5 463.33,-115.5 436.22,-115.5"/>
<polygon fill="midnightblue" stroke="midnightblue" points="541.3,-119 551.3,-115.5 541.3,-112 541.3,-119"/>
</g>
<!-- Node19&#45;&gt;Node13 -->
<g id="edge30" class="edge">
<title>Node19&#45;&gt;Node13</title>
<path fill="none" stroke="midnightblue" d="M541.61,-123.81C531.11,-127.37 518.51,-131.42 507,-134.5 493.35,-138.16 478.4,-141.54 464.64,-144.42"/>
<polygon fill="midnightblue" stroke="midnightblue" points="542.99,-127.04 551.3,-120.46 540.7,-120.42 542.99,-127.04"/>
</g>
</g>
</svg>
