<?xml version="1.0" encoding="UTF-8" standalone="no"?>
<!DOCTYPE svg PUBLIC "-//W3C//DTD SVG 1.1//EN"
 "http://www.w3.org/Graphics/SVG/1.1/DTD/svg11.dtd">
<!-- Generated by graphviz version 2.43.0 (0)
 -->
<!-- Title: free Pages: 1 -->
<svg width="443pt" height="138pt"
 viewBox="0.00 0.00 443.00 138.00" xmlns="http://www.w3.org/2000/svg" xmlns:xlink="http://www.w3.org/1999/xlink">
<g id="graph0" class="graph" transform="scale(1 1) rotate(0) translate(4 134)">
<title>free</title>
<polygon fill="white" stroke="transparent" points="-4,4 -4,-134 439,-134 439,4 -4,4"/>
<!-- Node1 -->
<g id="node1" class="node">
<title>Node1</title>
<g id="a_node1"><a xlink:title=" ">
<polygon fill="#bfbfbf" stroke="black" points="399,-44.5 399,-63.5 435,-63.5 435,-44.5 399,-44.5"/>
<text text-anchor="middle" x="417" y="-51.5" font-family="Helvetica,sans-Serif" font-size="10.00">free</text>
</a>
</g>
</g>
<!-- Node2 -->
<g id="node2" class="node">
<title>Node2</title>
<g id="a_node2"><a xlink:href="structpa_1_1vec__allocator_1_1alloc__raii__wrapper.html#a18452e09f909587d1d3c035ca0d82095" target="_top" xlink:title=" ">
<polygon fill="white" stroke="black" points="249,-88.5 249,-129.5 363,-129.5 363,-88.5 249,-88.5"/>
<text text-anchor="start" x="257" y="-117.5" font-family="Helvetica,sans-Serif" font-size="10.00">pa::vec_allocator::</text>
<text text-anchor="start" x="257" y="-106.5" font-family="Helvetica,sans-Serif" font-size="10.00">alloc_raii_wrapper::</text>
<text text-anchor="middle" x="306" y="-95.5" font-family="Helvetica,sans-Serif" font-size="10.00">~alloc_raii_wrapper</text>
</a>
</g>
</g>
<!-- Node1&#45;&gt;Node2 -->
<g id="edge1" class="edge">
<title>Node1&#45;&gt;Node2</title>
<path fill="none" stroke="midnightblue" d="M389.97,-67.14C377.39,-73.48 361.99,-81.25 347.9,-88.36"/>
<polygon fill="midnightblue" stroke="midnightblue" points="391.62,-70.22 398.97,-62.59 388.46,-63.97 391.62,-70.22"/>
</g>
<!-- Node3 -->
<g id="node3" class="node">
<title>Node3</title>
<g id="a_node3"><a xlink:href="namespacepa_1_1detail.html#acf8b14d5069db17a0ab2113bc641cb08" target="_top" xlink:title="Estimate the Lipschitz constant of the gradient &#160;using finite differences.">
<polygon fill="white" stroke="black" points="250.5,-39 250.5,-69 361.5,-69 361.5,-39 250.5,-39"/>
<text text-anchor="start" x="258.5" y="-57" font-family="Helvetica,sans-Serif" font-size="10.00">pa::detail::initial</text>
<text text-anchor="middle" x="306" y="-46" font-family="Helvetica,sans-Serif" font-size="10.00">_lipschitz_estimate</text>
</a>
</g>
</g>
<!-- Node1&#45;&gt;Node3 -->
<g id="edge2" class="edge">
<title>Node1&#45;&gt;Node3</title>
<path fill="none" stroke="midnightblue" d="M388.82,-54C380.53,-54 371.1,-54 361.66,-54"/>
<polygon fill="midnightblue" stroke="midnightblue" points="388.97,-57.5 398.97,-54 388.97,-50.5 388.97,-57.5"/>
</g>
<!-- Node4 -->
<g id="node4" class="node">
<title>Node4</title>
<g id="a_node4"><a xlink:href="namespacepa.html#a2b97bf67604c439eca0a540664930d61" target="_top" xlink:title=" ">
<polygon fill="white" stroke="black" points="260.5,-0.5 260.5,-19.5 351.5,-19.5 351.5,-0.5 260.5,-0.5"/>
<text text-anchor="middle" x="306" y="-7.5" font-family="Helvetica,sans-Serif" font-size="10.00">pa::panoc_impl</text>
</a>
</g>
</g>
<!-- Node1&#45;&gt;Node4 -->
<g id="edge3" class="edge">
<title>Node1&#45;&gt;Node4</title>
<path fill="none" stroke="midnightblue" d="M389.89,-41.66C381.38,-37.78 371.85,-33.58 363,-30 354,-26.36 344.06,-22.7 335.09,-19.52"/>
<polygon fill="midnightblue" stroke="midnightblue" points="388.42,-44.84 398.97,-45.86 391.36,-38.49 388.42,-44.84"/>
</g>
<!-- Node5 -->
<g id="node5" class="node">
<title>Node5</title>
<g id="a_node5"><a xlink:href="namespacepa.html#adf74e7674514afed3ae1c356ffcb9e45" target="_top" xlink:title=" ">
<polygon fill="white" stroke="black" points="149,-0.5 149,-19.5 213,-19.5 213,-0.5 149,-0.5"/>
<text text-anchor="middle" x="181" y="-7.5" font-family="Helvetica,sans-Serif" font-size="10.00">pa::panoc</text>
</a>
</g>
</g>
<!-- Node4&#45;&gt;Node5 -->
<g id="edge4" class="edge">
<title>Node4&#45;&gt;Node5</title>
<path fill="none" stroke="midnightblue" d="M250.17,-10C237.45,-10 224.34,-10 213.06,-10"/>
<polygon fill="midnightblue" stroke="midnightblue" points="250.25,-13.5 260.25,-10 250.25,-6.5 250.25,-13.5"/>
</g>
<!-- Node6 -->
<g id="node6" class="node">
<title>Node6</title>
<g id="a_node6"><a xlink:href="panocpy_8cpp.html#a874ce6effe8570e8994966f291e5e321" target="_top" xlink:title=" ">
<polygon fill="white" stroke="black" points="0,-0.5 0,-19.5 113,-19.5 113,-0.5 0,-0.5"/>
<text text-anchor="middle" x="56.5" y="-7.5" font-family="Helvetica,sans-Serif" font-size="10.00">PYBIND11_MODULE</text>
</a>
</g>
</g>
<!-- Node5&#45;&gt;Node6 -->
<g id="edge5" class="edge">
<title>Node5&#45;&gt;Node6</title>
<path fill="none" stroke="midnightblue" d="M138.52,-10C130.45,-10 121.88,-10 113.43,-10"/>
<polygon fill="midnightblue" stroke="midnightblue" points="138.77,-13.5 148.77,-10 138.77,-6.5 138.77,-13.5"/>
</g>
</g>
</svg>
