<?xml version="1.0" encoding="UTF-8" standalone="no"?>
<!DOCTYPE svg PUBLIC "-//W3C//DTD SVG 1.1//EN"
 "http://www.w3.org/Graphics/SVG/1.1/DTD/svg11.dtd">
<!-- Generated by graphviz version 2.43.0 (0)
 -->
<!-- Title: begin Pages: 1 -->
<svg width="360pt" height="39pt"
 viewBox="0.00 0.00 360.00 39.00" xmlns="http://www.w3.org/2000/svg" xmlns:xlink="http://www.w3.org/1999/xlink">
<g id="graph0" class="graph" transform="scale(1 1) rotate(0) translate(4 35)">
<title>begin</title>
<polygon fill="white" stroke="transparent" points="-4,4 -4,-35 356,-35 356,4 -4,4"/>
<!-- Node1 -->
<g id="node1" class="node">
<title>Node1</title>
<g id="a_node1"><a xlink:title=" ">
<polygon fill="#bfbfbf" stroke="black" points="0,-6 0,-25 44,-25 44,-6 0,-6"/>
<text text-anchor="middle" x="22" y="-13" font-family="Helvetica,sans-Serif" font-size="10.00">begin</text>
</a>
</g>
</g>
<!-- Node2 -->
<g id="node2" class="node">
<title>Node2</title>
<g id="a_node2"><a xlink:href="classpa_1_1CircularRange.html#a4da62c698565a7f1bab4a15a86b167e1" target="_top" xlink:title=" ">
<polygon fill="white" stroke="black" points="80,-0.5 80,-30.5 189,-30.5 189,-0.5 80,-0.5"/>
<text text-anchor="start" x="88" y="-18.5" font-family="Helvetica,sans-Serif" font-size="10.00">pa::CircularRange::</text>
<text text-anchor="middle" x="134.5" y="-7.5" font-family="Helvetica,sans-Serif" font-size="10.00">rbegin</text>
</a>
</g>
</g>
<!-- Node1&#45;&gt;Node2 -->
<g id="edge1" class="edge">
<title>Node1&#45;&gt;Node2</title>
<path fill="none" stroke="midnightblue" d="M44.04,-15.5C51.59,-15.5 60.53,-15.5 69.8,-15.5"/>
<polygon fill="midnightblue" stroke="midnightblue" points="69.93,-19 79.93,-15.5 69.93,-12 69.93,-19"/>
</g>
<!-- Node3 -->
<g id="node3" class="node">
<title>Node3</title>
<g id="a_node3"><a xlink:href="classpa_1_1CircularRange.html#a68b688a51bd0cf6fb5bc2cba292209a8" target="_top" xlink:title=" ">
<polygon fill="white" stroke="black" points="225,-6 225,-25 352,-25 352,-6 225,-6"/>
<text text-anchor="middle" x="288.5" y="-13" font-family="Helvetica,sans-Serif" font-size="10.00">pa::CircularRange::end</text>
</a>
</g>
</g>
<!-- Node2&#45;&gt;Node3 -->
<g id="edge2" class="edge">
<title>Node2&#45;&gt;Node3</title>
<path fill="none" stroke="midnightblue" d="M189.09,-15.5C197.38,-15.5 206.07,-15.5 214.7,-15.5"/>
<polygon fill="midnightblue" stroke="midnightblue" points="214.78,-19 224.78,-15.5 214.78,-12 214.78,-19"/>
</g>
</g>
</svg>
