<?xml version="1.0" encoding="UTF-8" standalone="no"?>
<!DOCTYPE svg PUBLIC "-//W3C//DTD SVG 1.1//EN"
 "http://www.w3.org/Graphics/SVG/1.1/DTD/svg11.dtd">
<!-- Generated by graphviz version 2.43.0 (0)
 -->
<!-- Title: interop Pages: 1 -->
<svg width="254pt" height="175pt"
 viewBox="0.00 0.00 254.00 175.00" xmlns="http://www.w3.org/2000/svg" xmlns:xlink="http://www.w3.org/1999/xlink">
<g id="graph0" class="graph" transform="scale(1 1) rotate(0) translate(4 171)">
<title>interop</title>
<polygon fill="white" stroke="transparent" points="-4,4 -4,-171 250,-171 250,4 -4,4"/>
<g id="clust1" class="cluster">
<title>clusterdir_90b5b0cae34bc1cd1e0eaa0196dab481</title>
<g id="a_clust1"><a xlink:href="dir_90b5b0cae34bc1cd1e0eaa0196dab481.html" target="_top" xlink:title="panoc&#45;alm">
<polygon fill="#ddddee" stroke="black" points="8,-8 8,-159 238,-159 238,-8 8,-8"/>
<text text-anchor="middle" x="123" y="-147" font-family="Helvetica,sans-Serif" font-size="10.00">panoc&#45;alm</text>
</a>
</g>
</g>
<g id="clust2" class="cluster">
<title>clusterdir_07e6aa43d1415ab01bdec52979eaebf1</title>
<g id="a_clust2"><a xlink:href="dir_07e6aa43d1415ab01bdec52979eaebf1.html" target="_top">
<polygon fill="#eeeeff" stroke="black" points="16,-80 16,-132 230,-132 230,-80 16,-80"/>
</a>
</g>
</g>
<!-- dir_2bd50800112c18592c4fbe8af353e3db -->
<g id="node1" class="node">
<title>dir_2bd50800112c18592c4fbe8af353e3db</title>
<g id="a_node1"><a xlink:href="dir_2bd50800112c18592c4fbe8af353e3db.html" target="_top" xlink:title="util">
<polygon fill="none" stroke="black" points="114,-52 60,-52 60,-16 114,-16 114,-52"/>
<text text-anchor="middle" x="87" y="-31.5" font-family="Helvetica,sans-Serif" font-size="10.00">util</text>
</a>
</g>
</g>
<!-- dir_07e6aa43d1415ab01bdec52979eaebf1 -->
<g id="node2" class="node">
<title>dir_07e6aa43d1415ab01bdec52979eaebf1</title>
<text text-anchor="middle" x="195" y="-103.5" font-family="Helvetica,sans-Serif" font-size="10.00">interop</text>
</g>
<!-- dir_36f65faa6e67ceb3edb8288b3f8200eb -->
<g id="node3" class="node">
<title>dir_36f65faa6e67ceb3edb8288b3f8200eb</title>
<g id="a_node3"><a xlink:href="dir_36f65faa6e67ceb3edb8288b3f8200eb.html" target="_top" xlink:title="casadi">
<polygon fill="white" stroke="black" points="150,-124 96,-124 96,-88 150,-88 150,-124"/>
<text text-anchor="middle" x="123" y="-103.5" font-family="Helvetica,sans-Serif" font-size="10.00">casadi</text>
</a>
</g>
</g>
<!-- dir_36f65faa6e67ceb3edb8288b3f8200eb&#45;&gt;dir_2bd50800112c18592c4fbe8af353e3db -->
<g id="edge1" class="edge">
<title>dir_36f65faa6e67ceb3edb8288b3f8200eb&#45;&gt;dir_2bd50800112c18592c4fbe8af353e3db</title>
<path fill="none" stroke="black" d="M114.1,-87.7C110,-79.73 105.05,-70.1 100.51,-61.26"/>
<polygon fill="black" stroke="black" points="103.48,-59.4 95.8,-52.1 97.26,-62.6 103.48,-59.4"/>
<g id="a_edge1&#45;headlabel"><a xlink:href="dir_000027_000030.html" target="_top" xlink:title="2">
<text text-anchor="middle" x="107.65" y="-58.79" font-family="Helvetica,sans-Serif" font-size="10.00">2</text>
</a>
</g>
</g>
<!-- dir_3bee8a3de0afb78e460fb091110109af -->
<g id="node4" class="node">
<title>dir_3bee8a3de0afb78e460fb091110109af</title>
<g id="a_node4"><a xlink:href="dir_3bee8a3de0afb78e460fb091110109af.html" target="_top" xlink:title="cutest">
<polygon fill="white" stroke="black" points="78,-124 24,-124 24,-88 78,-88 78,-124"/>
<text text-anchor="middle" x="51" y="-103.5" font-family="Helvetica,sans-Serif" font-size="10.00">cutest</text>
</a>
</g>
</g>
<!-- dir_3bee8a3de0afb78e460fb091110109af&#45;&gt;dir_2bd50800112c18592c4fbe8af353e3db -->
<g id="edge2" class="edge">
<title>dir_3bee8a3de0afb78e460fb091110109af&#45;&gt;dir_2bd50800112c18592c4fbe8af353e3db</title>
<path fill="none" stroke="black" d="M59.9,-87.7C64,-79.73 68.95,-70.1 73.49,-61.26"/>
<polygon fill="black" stroke="black" points="76.74,-62.6 78.2,-52.1 70.52,-59.4 76.74,-62.6"/>
<g id="a_edge2&#45;headlabel"><a xlink:href="dir_000028_000030.html" target="_top" xlink:title="1">
<text text-anchor="middle" x="77.62" y="-64.59" font-family="Helvetica,sans-Serif" font-size="10.00">1</text>
</a>
</g>
</g>
</g>
</svg>
