<?xml version="1.0" encoding="UTF-8" standalone="no"?>
<!DOCTYPE svg PUBLIC "-//W3C//DTD SVG 1.1//EN"
 "http://www.w3.org/Graphics/SVG/1.1/DTD/svg11.dtd">
<!-- Generated by graphviz version 2.43.0 (0)
 -->
<!-- Title: load_CasADi_problem_with_param Pages: 1 -->
<svg width="310pt" height="78pt"
 viewBox="0.00 0.00 310.00 77.50" xmlns="http://www.w3.org/2000/svg" xmlns:xlink="http://www.w3.org/1999/xlink">
<g id="graph0" class="graph" transform="scale(1 1) rotate(0) translate(4 73.5)">
<title>load_CasADi_problem_with_param</title>
<polygon fill="white" stroke="transparent" points="-4,4 -4,-73.5 306,-73.5 306,4 -4,4"/>
<!-- Node1 -->
<g id="node1" class="node">
<title>Node1</title>
<g id="a_node1"><a xlink:title="Load a problem generated by CasADi (with parameters).">
<polygon fill="#bfbfbf" stroke="black" points="0,-17 0,-47 124,-47 124,-17 0,-17"/>
<text text-anchor="start" x="8" y="-35" font-family="Helvetica,sans-Serif" font-size="10.00">load_CasADi_problem</text>
<text text-anchor="middle" x="62" y="-24" font-family="Helvetica,sans-Serif" font-size="10.00">_with_param</text>
</a>
</g>
</g>
<!-- Node2 -->
<g id="node2" class="node">
<title>Node2</title>
<g id="a_node2"><a xlink:href="classpa_1_1CasADiParamWrapper.html#ad76442f3d351fe661e367583231d9003" target="_top" xlink:title=" ">
<polygon fill="white" stroke="black" points="160,-39 160,-69 302,-69 302,-39 160,-39"/>
<text text-anchor="start" x="168" y="-57" font-family="Helvetica,sans-Serif" font-size="10.00">pa::CasADiParamWrapper</text>
<text text-anchor="middle" x="231" y="-46" font-family="Helvetica,sans-Serif" font-size="10.00">::create</text>
</a>
</g>
</g>
<!-- Node1&#45;&gt;Node2 -->
<g id="edge1" class="edge">
<title>Node1&#45;&gt;Node2</title>
<path fill="none" stroke="midnightblue" d="M124.24,-40.07C132.53,-41.16 141.15,-42.29 149.71,-43.42"/>
<polygon fill="midnightblue" stroke="midnightblue" points="149.36,-46.91 159.73,-44.74 150.27,-39.97 149.36,-46.91"/>
</g>
<!-- Node3 -->
<g id="node3" class="node">
<title>Node3</title>
<g id="a_node3"><a xlink:href="namespacepa.html#ae852a1842bb6c44fdedb3c07fed9e3f5" target="_top" xlink:title=" ">
<polygon fill="white" stroke="black" points="197.5,-0.5 197.5,-19.5 264.5,-19.5 264.5,-0.5 197.5,-0.5"/>
<text text-anchor="middle" x="231" y="-7.5" font-family="Helvetica,sans-Serif" font-size="10.00">wrap_load</text>
</a>
</g>
</g>
<!-- Node1&#45;&gt;Node3 -->
<g id="edge2" class="edge">
<title>Node1&#45;&gt;Node3</title>
<path fill="none" stroke="midnightblue" d="M124.24,-23.93C145.23,-21.17 168.24,-18.14 187.42,-15.61"/>
<polygon fill="midnightblue" stroke="midnightblue" points="187.91,-19.08 197.36,-14.3 186.99,-12.14 187.91,-19.08"/>
</g>
</g>
</svg>
