<?xml version="1.0" encoding="UTF-8" standalone="no"?>
<!DOCTYPE svg PUBLIC "-//W3C//DTD SVG 1.1//EN"
 "http://www.w3.org/Graphics/SVG/1.1/DTD/svg11.dtd">
<!-- Generated by graphviz version 2.43.0 (0)
 -->
<!-- Title: calc_ψ_grad_ψ Pages: 1 -->
<svg width="523pt" height="66pt"
 viewBox="0.00 0.00 523.00 66.00" xmlns="http://www.w3.org/2000/svg" xmlns:xlink="http://www.w3.org/1999/xlink">
<g id="graph0" class="graph" transform="scale(1 1) rotate(0) translate(4 62)">
<title>calc_ψ_grad_ψ</title>
<polygon fill="white" stroke="transparent" points="-4,4 -4,-62 519,-62 519,4 -4,4"/>
<!-- Node1 -->
<g id="node1" class="node">
<title>Node1</title>
<g id="a_node1"><a xlink:title="Calculate both ψ(x) and its gradient ∇ψ(x).">
<polygon fill="#bfbfbf" stroke="black" points="0,-19.5 0,-38.5 87,-38.5 87,-19.5 0,-19.5"/>
<text text-anchor="middle" x="43.5" y="-26.5" font-family="Helvetica,sans-Serif" font-size="10.00">calc_ψ_grad_ψ</text>
</a>
</g>
</g>
<!-- Node2 -->
<g id="node2" class="node">
<title>Node2</title>
<g id="a_node2"><a xlink:href="namespacepa_1_1detail.html#a908a0589ddf8734417f5481395e197d2" target="_top" xlink:title="Calculate ∇ψ(x) using ŷ.">
<polygon fill="white" stroke="black" points="123,-38.5 123,-57.5 238,-57.5 238,-38.5 123,-38.5"/>
<text text-anchor="middle" x="180.5" y="-45.5" font-family="Helvetica,sans-Serif" font-size="10.00">calc_grad_ψ_from_ŷ</text>
</a>
</g>
</g>
<!-- Node1&#45;&gt;Node2 -->
<g id="edge1" class="edge">
<title>Node1&#45;&gt;Node2</title>
<path fill="none" stroke="midnightblue" d="M87.21,-35.01C95.32,-36.15 103.98,-37.37 112.63,-38.59"/>
<polygon fill="midnightblue" stroke="midnightblue" points="112.35,-42.08 122.74,-40.01 113.32,-35.15 112.35,-42.08"/>
</g>
<!-- Node3 -->
<g id="node3" class="node">
<title>Node3</title>
<g id="a_node3"><a xlink:href="namespacepa_1_1detail.html#a82a03662e6ce5bcfd57ee2df719aec21" target="_top" xlink:title="Calculate both ψ(x) and the vector ŷ that can later be used to compute ∇ψ.">
<polygon fill="white" stroke="black" points="151,-0.5 151,-19.5 210,-19.5 210,-0.5 151,-0.5"/>
<text text-anchor="middle" x="180.5" y="-7.5" font-family="Helvetica,sans-Serif" font-size="10.00">calc_ψ_ŷ</text>
</a>
</g>
</g>
<!-- Node1&#45;&gt;Node3 -->
<g id="edge2" class="edge">
<title>Node1&#45;&gt;Node3</title>
<path fill="none" stroke="midnightblue" d="M87.21,-22.99C104.36,-20.58 123.98,-17.81 140.71,-15.46"/>
<polygon fill="midnightblue" stroke="midnightblue" points="141.29,-18.91 150.7,-14.05 140.31,-11.98 141.29,-18.91"/>
</g>
<!-- Node4 -->
<g id="node4" class="node">
<title>Node4</title>
<g id="a_node4"><a xlink:href="namespacepa.html#aee505a26e46aa4c0ce09d0fed72f0dac" target="_top" xlink:title="Get the difference between the given vector and its projection.">
<polygon fill="white" stroke="black" points="274,-0.5 274,-19.5 411,-19.5 411,-0.5 274,-0.5"/>
<text text-anchor="middle" x="342.5" y="-7.5" font-family="Helvetica,sans-Serif" font-size="10.00">pa::projecting_difference</text>
</a>
</g>
</g>
<!-- Node3&#45;&gt;Node4 -->
<g id="edge3" class="edge">
<title>Node3&#45;&gt;Node4</title>
<path fill="none" stroke="midnightblue" d="M210.1,-10C225.26,-10 244.68,-10 263.92,-10"/>
<polygon fill="midnightblue" stroke="midnightblue" points="263.94,-13.5 273.94,-10 263.94,-6.5 263.94,-13.5"/>
</g>
<!-- Node5 -->
<g id="node5" class="node">
<title>Node5</title>
<g id="a_node5"><a xlink:href="namespacepa.html#a5414901c2fb62f1fd47857642964cc71" target="_top" xlink:title="Project a vector onto a box.">
<polygon fill="white" stroke="black" points="447,-0.5 447,-19.5 515,-19.5 515,-0.5 447,-0.5"/>
<text text-anchor="middle" x="481" y="-7.5" font-family="Helvetica,sans-Serif" font-size="10.00">pa::project</text>
</a>
</g>
</g>
<!-- Node4&#45;&gt;Node5 -->
<g id="edge4" class="edge">
<title>Node4&#45;&gt;Node5</title>
<path fill="none" stroke="midnightblue" d="M411.35,-10C419.91,-10 428.48,-10 436.52,-10"/>
<polygon fill="midnightblue" stroke="midnightblue" points="436.73,-13.5 446.73,-10 436.73,-6.5 436.73,-13.5"/>
</g>
</g>
</svg>
