<?xml version="1.0" encoding="UTF-8" standalone="no"?>
<!DOCTYPE svg PUBLIC "-//W3C//DTD SVG 1.1//EN"
 "http://www.w3.org/Graphics/SVG/1.1/DTD/svg11.dtd">
<!-- Generated by graphviz version 2.43.0 (0)
 -->
<!-- Title: polymorphic&#45;panoc&#45;direction.hpp Pages: 1 -->
<svg width="2004pt" height="408pt"
 viewBox="0.00 0.00 2004.00 408.00" xmlns="http://www.w3.org/2000/svg" xmlns:xlink="http://www.w3.org/1999/xlink">
<g id="graph0" class="graph" transform="scale(1 1) rotate(0) translate(4 404)">
<title>polymorphic&#45;panoc&#45;direction.hpp</title>
<polygon fill="white" stroke="transparent" points="-4,4 -4,-404 2000,-404 2000,4 -4,4"/>
<!-- Node1 -->
<g id="node1" class="node">
<title>Node1</title>
<g id="a_node1"><a xlink:title=" ">
<polygon fill="#bfbfbf" stroke="black" points="1653.5,-380.5 1653.5,-399.5 1831.5,-399.5 1831.5,-380.5 1653.5,-380.5"/>
<text text-anchor="middle" x="1742.5" y="-387.5" font-family="Helvetica,sans-Serif" font-size="10.00">polymorphic&#45;panoc&#45;direction.hpp</text>
</a>
</g>
</g>
<!-- Node2 -->
<g id="node2" class="node">
<title>Node2</title>
<g id="a_node2"><a xlink:href="lbfgs_8hpp.html" target="_top" xlink:title=" ">
<polygon fill="white" stroke="black" points="772,-313.5 772,-343.5 919,-343.5 919,-313.5 772,-313.5"/>
<text text-anchor="start" x="780" y="-331.5" font-family="Helvetica,sans-Serif" font-size="10.00">panoc&#45;alm/inner/directions</text>
<text text-anchor="middle" x="845.5" y="-320.5" font-family="Helvetica,sans-Serif" font-size="10.00">/lbfgs.hpp</text>
</a>
</g>
</g>
<!-- Node1&#45;&gt;Node2 -->
<g id="edge1" class="edge">
<title>Node1&#45;&gt;Node2</title>
<path fill="none" stroke="midnightblue" d="M1653.21,-383.08C1479.51,-371.56 1098.34,-346.27 929.19,-335.05"/>
<polygon fill="midnightblue" stroke="midnightblue" points="929.31,-331.55 919.1,-334.38 928.84,-338.54 929.31,-331.55"/>
</g>
<!-- Node11 -->
<g id="node11" class="node">
<title>Node11</title>
<g id="a_node11"><a xlink:href="inner_2panoc_8hpp.html" target="_top" xlink:title=" ">
<polygon fill="white" stroke="black" points="1169,-319 1169,-338 1318,-338 1318,-319 1169,-319"/>
<text text-anchor="middle" x="1243.5" y="-326" font-family="Helvetica,sans-Serif" font-size="10.00">panoc&#45;alm/inner/panoc.hpp</text>
</a>
</g>
</g>
<!-- Node1&#45;&gt;Node11 -->
<g id="edge12" class="edge">
<title>Node1&#45;&gt;Node11</title>
<path fill="none" stroke="midnightblue" d="M1671.01,-380.48C1579.39,-369.55 1420.95,-350.66 1324.83,-339.2"/>
<polygon fill="midnightblue" stroke="midnightblue" points="1325.21,-335.72 1314.86,-338.01 1324.38,-342.67 1325.21,-335.72"/>
</g>
<!-- Node24 -->
<g id="node24" class="node">
<title>Node24</title>
<g id="a_node24"><a xlink:title=" ">
<polygon fill="white" stroke="#bfbfbf" points="1141.5,-118 1141.5,-137 1199.5,-137 1199.5,-118 1141.5,-118"/>
<text text-anchor="middle" x="1170.5" y="-125" font-family="Helvetica,sans-Serif" font-size="10.00">memory</text>
</a>
</g>
</g>
<!-- Node1&#45;&gt;Node24 -->
<g id="edge50" class="edge">
<title>Node1&#45;&gt;Node24</title>
<path fill="none" stroke="midnightblue" d="M1745.14,-380.18C1754.2,-347.86 1780.5,-234.85 1723.5,-179 1682.61,-138.93 1265.46,-155.1 1209.5,-143 1206.42,-142.33 1203.26,-141.48 1200.14,-140.51"/>
<polygon fill="midnightblue" stroke="midnightblue" points="1201.01,-137.11 1190.41,-137.15 1198.72,-143.72 1201.01,-137.11"/>
</g>
<!-- Node33 -->
<g id="node33" class="node">
<title>Node33</title>
<g id="a_node33"><a xlink:title=" ">
<polygon fill="white" stroke="#bfbfbf" points="1770.5,-319 1770.5,-338 1864.5,-338 1864.5,-319 1770.5,-319"/>
<text text-anchor="middle" x="1817.5" y="-326" font-family="Helvetica,sans-Serif" font-size="10.00">pybind11/cast.h</text>
</a>
</g>
</g>
<!-- Node1&#45;&gt;Node33 -->
<g id="edge51" class="edge">
<title>Node1&#45;&gt;Node33</title>
<path fill="none" stroke="midnightblue" d="M1753.25,-380.48C1765.05,-371.11 1784.24,-355.88 1798.58,-344.51"/>
<polygon fill="midnightblue" stroke="midnightblue" points="1801.12,-346.97 1806.77,-338.01 1796.76,-341.48 1801.12,-346.97"/>
</g>
<!-- Node34 -->
<g id="node34" class="node">
<title>Node34</title>
<g id="a_node34"><a xlink:title=" ">
<polygon fill="white" stroke="#bfbfbf" points="1883,-319 1883,-338 1996,-338 1996,-319 1883,-319"/>
<text text-anchor="middle" x="1939.5" y="-326" font-family="Helvetica,sans-Serif" font-size="10.00">pybind11/pytypes.h</text>
</a>
</g>
</g>
<!-- Node1&#45;&gt;Node34 -->
<g id="edge52" class="edge">
<title>Node1&#45;&gt;Node34</title>
<path fill="none" stroke="midnightblue" d="M1770.73,-380.48C1805.1,-370.09 1863.31,-352.51 1901.58,-340.95"/>
<polygon fill="midnightblue" stroke="midnightblue" points="1902.77,-344.25 1911.33,-338.01 1900.74,-337.55 1902.77,-344.25"/>
</g>
<!-- Node3 -->
<g id="node3" class="node">
<title>Node3</title>
<g id="a_node3"><a xlink:href="decl_2lbfgs_8hpp.html" target="_top" xlink:title=" ">
<polygon fill="white" stroke="black" points="0,-246.5 0,-276.5 147,-276.5 147,-246.5 0,-246.5"/>
<text text-anchor="start" x="8" y="-264.5" font-family="Helvetica,sans-Serif" font-size="10.00">panoc&#45;alm/inner/directions</text>
<text text-anchor="middle" x="73.5" y="-253.5" font-family="Helvetica,sans-Serif" font-size="10.00">/decl/lbfgs.hpp</text>
</a>
</g>
</g>
<!-- Node2&#45;&gt;Node3 -->
<g id="edge2" class="edge">
<title>Node2&#45;&gt;Node3</title>
<path fill="none" stroke="midnightblue" d="M771.83,-321.3C627.68,-309.16 309.22,-282.35 157.3,-269.56"/>
<polygon fill="midnightblue" stroke="midnightblue" points="157.36,-266.05 147.1,-268.7 156.77,-273.02 157.36,-266.05"/>
</g>
<!-- Node9 -->
<g id="node9" class="node">
<title>Node9</title>
<g id="a_node9"><a xlink:title=" ">
<polygon fill="white" stroke="#bfbfbf" points="1349,-118 1349,-137 1414,-137 1414,-118 1349,-118"/>
<text text-anchor="middle" x="1381.5" y="-125" font-family="Helvetica,sans-Serif" font-size="10.00">stdexcept</text>
</a>
</g>
</g>
<!-- Node2&#45;&gt;Node9 -->
<g id="edge10" class="edge">
<title>Node2&#45;&gt;Node9</title>
<path fill="none" stroke="midnightblue" d="M919.12,-318.07C967.71,-310.4 1032.19,-297.44 1086.5,-277 1112.76,-267.12 1115.2,-255.78 1141.5,-246 1217.56,-217.73 1251.89,-253.34 1320.5,-210 1345.2,-194.4 1363.43,-164.97 1373.25,-146.07"/>
<polygon fill="midnightblue" stroke="midnightblue" points="1376.42,-147.56 1377.72,-137.04 1370.15,-144.45 1376.42,-147.56"/>
</g>
<!-- Node10 -->
<g id="node10" class="node">
<title>Node10</title>
<g id="a_node10"><a xlink:title=" ">
<polygon fill="white" stroke="#bfbfbf" points="641,-118 641,-137 710,-137 710,-118 641,-118"/>
<text text-anchor="middle" x="675.5" y="-125" font-family="Helvetica,sans-Serif" font-size="10.00">type_traits</text>
</a>
</g>
</g>
<!-- Node2&#45;&gt;Node10 -->
<g id="edge11" class="edge">
<title>Node2&#45;&gt;Node10</title>
<path fill="none" stroke="midnightblue" d="M771.97,-318.29C739.69,-311.25 702.97,-298.85 675.5,-277 638.94,-247.92 622.69,-223.31 637.5,-179 641.81,-166.09 650.87,-153.84 659.06,-144.63"/>
<polygon fill="midnightblue" stroke="midnightblue" points="661.84,-146.78 666.17,-137.11 656.76,-141.97 661.84,-146.78"/>
</g>
<!-- Node4 -->
<g id="node4" class="node">
<title>Node4</title>
<g id="a_node4"><a xlink:href="box_8hpp.html" target="_top" xlink:title=" ">
<polygon fill="white" stroke="black" points="191,-118 191,-137 320,-137 320,-118 191,-118"/>
<text text-anchor="middle" x="255.5" y="-125" font-family="Helvetica,sans-Serif" font-size="10.00">panoc&#45;alm/util/box.hpp</text>
</a>
</g>
</g>
<!-- Node3&#45;&gt;Node4 -->
<g id="edge3" class="edge">
<title>Node3&#45;&gt;Node4</title>
<path fill="none" stroke="midnightblue" d="M72.8,-246.47C72.69,-228.5 75.27,-197.5 92.5,-179 107.47,-162.92 159.78,-148.53 201.15,-139.26"/>
<polygon fill="midnightblue" stroke="midnightblue" points="202.12,-142.63 211.14,-137.08 200.62,-135.8 202.12,-142.63"/>
</g>
<!-- Node5 -->
<g id="node5" class="node">
<title>Node5</title>
<g id="a_node5"><a xlink:href="vec_8hpp.html" target="_top" xlink:title=" ">
<polygon fill="white" stroke="black" points="228,-56.5 228,-75.5 283,-75.5 283,-56.5 228,-56.5"/>
<text text-anchor="middle" x="255.5" y="-63.5" font-family="Helvetica,sans-Serif" font-size="10.00">vec.hpp</text>
</a>
</g>
</g>
<!-- Node3&#45;&gt;Node5 -->
<g id="edge6" class="edge">
<title>Node3&#45;&gt;Node5</title>
<path fill="none" stroke="midnightblue" d="M59.48,-246.28C33.19,-217.92 -17.87,-153.45 16.5,-112 41.61,-81.72 156.76,-71.68 217.59,-68.46"/>
<polygon fill="midnightblue" stroke="midnightblue" points="218.12,-71.94 227.93,-67.95 217.77,-64.94 218.12,-71.94"/>
</g>
<!-- Node7 -->
<g id="node7" class="node">
<title>Node7</title>
<g id="a_node7"><a xlink:href="lbfgs-fwd_8hpp.html" target="_top" xlink:title=" ">
<polygon fill="white" stroke="black" points="26,-112.5 26,-142.5 173,-142.5 173,-112.5 26,-112.5"/>
<text text-anchor="start" x="34" y="-130.5" font-family="Helvetica,sans-Serif" font-size="10.00">panoc&#45;alm/inner/directions</text>
<text text-anchor="middle" x="99.5" y="-119.5" font-family="Helvetica,sans-Serif" font-size="10.00">/decl/lbfgs&#45;fwd.hpp</text>
</a>
</g>
</g>
<!-- Node3&#45;&gt;Node7 -->
<g id="edge7" class="edge">
<title>Node3&#45;&gt;Node7</title>
<path fill="none" stroke="midnightblue" d="M66.86,-246.3C60.08,-229.76 51.57,-201.78 59.5,-179 63.14,-168.54 69.95,-158.62 76.93,-150.38"/>
<polygon fill="midnightblue" stroke="midnightblue" points="79.72,-152.51 83.85,-142.75 74.54,-147.81 79.72,-152.51"/>
</g>
<!-- Node8 -->
<g id="node8" class="node">
<title>Node8</title>
<g id="a_node8"><a xlink:href="panoc-direction-update_8hpp.html" target="_top" xlink:title=" ">
<polygon fill="white" stroke="black" points="101,-179.5 101,-209.5 278,-209.5 278,-179.5 101,-179.5"/>
<text text-anchor="start" x="109" y="-197.5" font-family="Helvetica,sans-Serif" font-size="10.00">panoc&#45;alm/inner/directions</text>
<text text-anchor="middle" x="189.5" y="-186.5" font-family="Helvetica,sans-Serif" font-size="10.00">/decl/panoc&#45;direction&#45;update.hpp</text>
</a>
</g>
</g>
<!-- Node3&#45;&gt;Node8 -->
<g id="edge8" class="edge">
<title>Node3&#45;&gt;Node8</title>
<path fill="none" stroke="midnightblue" d="M98.67,-246.4C115.24,-237.11 137.14,-224.84 155.28,-214.67"/>
<polygon fill="midnightblue" stroke="midnightblue" points="157.37,-217.52 164.38,-209.58 153.94,-211.41 157.37,-217.52"/>
</g>
<!-- Node4&#45;&gt;Node5 -->
<g id="edge4" class="edge">
<title>Node4&#45;&gt;Node5</title>
<path fill="none" stroke="midnightblue" d="M255.5,-117.98C255.5,-109.58 255.5,-96.48 255.5,-85.66"/>
<polygon fill="midnightblue" stroke="midnightblue" points="259,-85.51 255.5,-75.51 252,-85.51 259,-85.51"/>
</g>
<!-- Node6 -->
<g id="node6" class="node">
<title>Node6</title>
<g id="a_node6"><a xlink:title=" ">
<polygon fill="white" stroke="#bfbfbf" points="221,-0.5 221,-19.5 290,-19.5 290,-0.5 221,-0.5"/>
<text text-anchor="middle" x="255.5" y="-7.5" font-family="Helvetica,sans-Serif" font-size="10.00">Eigen/Core</text>
</a>
</g>
</g>
<!-- Node5&#45;&gt;Node6 -->
<g id="edge5" class="edge">
<title>Node5&#45;&gt;Node6</title>
<path fill="none" stroke="midnightblue" d="M255.5,-56.08C255.5,-49.01 255.5,-38.86 255.5,-29.99"/>
<polygon fill="midnightblue" stroke="midnightblue" points="259,-29.75 255.5,-19.75 252,-29.75 259,-29.75"/>
</g>
<!-- Node8&#45;&gt;Node4 -->
<g id="edge9" class="edge">
<title>Node8&#45;&gt;Node4</title>
<path fill="none" stroke="midnightblue" d="M203.82,-179.4C214.32,-169.06 228.57,-155.02 239.45,-144.31"/>
<polygon fill="midnightblue" stroke="midnightblue" points="242,-146.71 246.67,-137.19 237.09,-141.72 242,-146.71"/>
</g>
<!-- Node11&#45;&gt;Node8 -->
<g id="edge44" class="edge">
<title>Node11&#45;&gt;Node8</title>
<path fill="none" stroke="midnightblue" d="M1168.87,-322.72C1060.1,-315.32 851.76,-299.58 675.5,-277 533.3,-258.78 369.03,-229.5 272.51,-211.43"/>
<polygon fill="midnightblue" stroke="midnightblue" points="272.99,-207.96 262.52,-209.56 271.7,-214.84 272.99,-207.96"/>
</g>
<!-- Node11&#45;&gt;Node9 -->
<g id="edge49" class="edge">
<title>Node11&#45;&gt;Node9</title>
<path fill="none" stroke="midnightblue" d="M1287.96,-318.93C1312.52,-311.85 1341.42,-299.22 1358.5,-277 1387.97,-238.67 1386.82,-178.01 1383.95,-147.44"/>
<polygon fill="midnightblue" stroke="midnightblue" points="1387.4,-146.86 1382.82,-137.31 1380.45,-147.63 1387.4,-146.86"/>
</g>
<!-- Node12 -->
<g id="node12" class="node">
<title>Node12</title>
<g id="a_node12"><a xlink:href="inner_2decl_2panoc_8hpp.html" target="_top" xlink:title=" ">
<polygon fill="white" stroke="black" points="958,-246.5 958,-276.5 1077,-276.5 1077,-246.5 958,-246.5"/>
<text text-anchor="start" x="966" y="-264.5" font-family="Helvetica,sans-Serif" font-size="10.00">panoc&#45;alm/inner/decl</text>
<text text-anchor="middle" x="1017.5" y="-253.5" font-family="Helvetica,sans-Serif" font-size="10.00">/panoc.hpp</text>
</a>
</g>
</g>
<!-- Node11&#45;&gt;Node12 -->
<g id="edge13" class="edge">
<title>Node11&#45;&gt;Node12</title>
<path fill="none" stroke="midnightblue" d="M1213.49,-318.87C1178.55,-308.82 1120.02,-291.99 1076,-279.32"/>
<polygon fill="midnightblue" stroke="midnightblue" points="1076.85,-275.93 1066.27,-276.53 1074.92,-282.66 1076.85,-275.93"/>
</g>
<!-- Node21 -->
<g id="node21" class="node">
<title>Node21</title>
<g id="a_node21"><a xlink:title=" ">
<polygon fill="white" stroke="#bfbfbf" points="790.5,-118 790.5,-137 842.5,-137 842.5,-118 790.5,-118"/>
<text text-anchor="middle" x="816.5" y="-125" font-family="Helvetica,sans-Serif" font-size="10.00">cassert</text>
</a>
</g>
</g>
<!-- Node11&#45;&gt;Node21 -->
<g id="edge45" class="edge">
<title>Node11&#45;&gt;Node21</title>
<path fill="none" stroke="midnightblue" d="M1168.87,-323.72C1027.95,-314.84 731.36,-287.21 670.5,-210 637.48,-168.11 727.08,-144.37 780.29,-134.3"/>
<polygon fill="midnightblue" stroke="midnightblue" points="781.18,-137.7 790.39,-132.47 779.93,-130.81 781.18,-137.7"/>
</g>
<!-- Node29 -->
<g id="node29" class="node">
<title>Node29</title>
<g id="a_node29"><a xlink:href="panoc-helpers_8hpp.html" target="_top" xlink:title=" ">
<polygon fill="white" stroke="black" points="1406,-246.5 1406,-276.5 1533,-276.5 1533,-246.5 1406,-246.5"/>
<text text-anchor="start" x="1414" y="-264.5" font-family="Helvetica,sans-Serif" font-size="10.00">panoc&#45;alm/inner/detail</text>
<text text-anchor="middle" x="1469.5" y="-253.5" font-family="Helvetica,sans-Serif" font-size="10.00">/panoc&#45;helpers.hpp</text>
</a>
</g>
</g>
<!-- Node11&#45;&gt;Node29 -->
<g id="edge38" class="edge">
<title>Node11&#45;&gt;Node29</title>
<path fill="none" stroke="midnightblue" d="M1273.51,-318.87C1308.45,-308.82 1366.98,-291.99 1411,-279.32"/>
<polygon fill="midnightblue" stroke="midnightblue" points="1412.08,-282.66 1420.73,-276.53 1410.15,-275.93 1412.08,-282.66"/>
</g>
<!-- Node30 -->
<g id="node30" class="node">
<title>Node30</title>
<g id="a_node30"><a xlink:title=" ">
<polygon fill="white" stroke="#bfbfbf" points="1150,-252 1150,-271 1197,-271 1197,-252 1150,-252"/>
<text text-anchor="middle" x="1173.5" y="-259" font-family="Helvetica,sans-Serif" font-size="10.00">cmath</text>
</a>
</g>
</g>
<!-- Node11&#45;&gt;Node30 -->
<g id="edge46" class="edge">
<title>Node11&#45;&gt;Node30</title>
<path fill="none" stroke="midnightblue" d="M1234.06,-318.73C1222.83,-308.31 1203.88,-290.71 1190.16,-277.97"/>
<polygon fill="midnightblue" stroke="midnightblue" points="1192.5,-275.37 1182.79,-271.13 1187.74,-280.5 1192.5,-275.37"/>
</g>
<!-- Node31 -->
<g id="node31" class="node">
<title>Node31</title>
<g id="a_node31"><a xlink:title=" ">
<polygon fill="white" stroke="#bfbfbf" points="1215.5,-252 1215.5,-271 1271.5,-271 1271.5,-252 1215.5,-252"/>
<text text-anchor="middle" x="1243.5" y="-259" font-family="Helvetica,sans-Serif" font-size="10.00">iomanip</text>
</a>
</g>
</g>
<!-- Node11&#45;&gt;Node31 -->
<g id="edge47" class="edge">
<title>Node11&#45;&gt;Node31</title>
<path fill="none" stroke="midnightblue" d="M1243.5,-318.73C1243.5,-309.18 1243.5,-293.62 1243.5,-281.28"/>
<polygon fill="midnightblue" stroke="midnightblue" points="1247,-281.13 1243.5,-271.13 1240,-281.13 1247,-281.13"/>
</g>
<!-- Node32 -->
<g id="node32" class="node">
<title>Node32</title>
<g id="a_node32"><a xlink:title=" ">
<polygon fill="white" stroke="#bfbfbf" points="1289.5,-252 1289.5,-271 1349.5,-271 1349.5,-252 1289.5,-252"/>
<text text-anchor="middle" x="1319.5" y="-259" font-family="Helvetica,sans-Serif" font-size="10.00">iostream</text>
</a>
</g>
</g>
<!-- Node11&#45;&gt;Node32 -->
<g id="edge48" class="edge">
<title>Node11&#45;&gt;Node32</title>
<path fill="none" stroke="midnightblue" d="M1253.75,-318.73C1265.94,-308.31 1286.52,-290.71 1301.41,-277.97"/>
<polygon fill="midnightblue" stroke="midnightblue" points="1304.09,-280.29 1309.41,-271.13 1299.54,-274.97 1304.09,-280.29"/>
</g>
<!-- Node12&#45;&gt;Node8 -->
<g id="edge20" class="edge">
<title>Node12&#45;&gt;Node8</title>
<path fill="none" stroke="midnightblue" d="M957.75,-257.94C834.61,-252.33 543.49,-237.31 288.34,-210.03"/>
<polygon fill="midnightblue" stroke="midnightblue" points="288.45,-206.52 278.13,-208.93 287.7,-213.48 288.45,-206.52"/>
</g>
<!-- Node13 -->
<g id="node13" class="node">
<title>Node13</title>
<g id="a_node13"><a xlink:href="lbfgs-stepsize_8hpp.html" target="_top" xlink:title=" ">
<polygon fill="white" stroke="black" points="804,-179.5 804,-209.5 923,-209.5 923,-179.5 804,-179.5"/>
<text text-anchor="start" x="812" y="-197.5" font-family="Helvetica,sans-Serif" font-size="10.00">panoc&#45;alm/inner/decl</text>
<text text-anchor="middle" x="863.5" y="-186.5" font-family="Helvetica,sans-Serif" font-size="10.00">/lbfgs&#45;stepsize.hpp</text>
</a>
</g>
</g>
<!-- Node12&#45;&gt;Node13 -->
<g id="edge14" class="edge">
<title>Node12&#45;&gt;Node13</title>
<path fill="none" stroke="midnightblue" d="M984.08,-246.4C961.28,-236.77 930.87,-223.94 906.3,-213.56"/>
<polygon fill="midnightblue" stroke="midnightblue" points="907.42,-210.24 896.85,-209.58 904.7,-216.69 907.42,-210.24"/>
</g>
<!-- Node14 -->
<g id="node14" class="node">
<title>Node14</title>
<g id="a_node14"><a xlink:href="panoc-fwd_8hpp.html" target="_top" xlink:title=" ">
<polygon fill="white" stroke="black" points="296,-179.5 296,-209.5 415,-209.5 415,-179.5 296,-179.5"/>
<text text-anchor="start" x="304" y="-197.5" font-family="Helvetica,sans-Serif" font-size="10.00">panoc&#45;alm/inner/decl</text>
<text text-anchor="middle" x="355.5" y="-186.5" font-family="Helvetica,sans-Serif" font-size="10.00">/panoc&#45;fwd.hpp</text>
</a>
</g>
</g>
<!-- Node12&#45;&gt;Node14 -->
<g id="edge15" class="edge">
<title>Node12&#45;&gt;Node14</title>
<path fill="none" stroke="midnightblue" d="M957.88,-257.84C852.46,-252.6 626.15,-238.99 425.4,-210.01"/>
<polygon fill="midnightblue" stroke="midnightblue" points="425.66,-206.51 415.26,-208.52 424.65,-213.43 425.66,-206.51"/>
</g>
<!-- Node15 -->
<g id="node15" class="node">
<title>Node15</title>
<g id="a_node15"><a xlink:href="panoc-stop-crit_8hpp.html" target="_top" xlink:title=" ">
<polygon fill="white" stroke="black" points="1406,-179.5 1406,-209.5 1525,-209.5 1525,-179.5 1406,-179.5"/>
<text text-anchor="start" x="1414" y="-197.5" font-family="Helvetica,sans-Serif" font-size="10.00">panoc&#45;alm/inner/decl</text>
<text text-anchor="middle" x="1465.5" y="-186.5" font-family="Helvetica,sans-Serif" font-size="10.00">/panoc&#45;stop&#45;crit.hpp</text>
</a>
</g>
</g>
<!-- Node12&#45;&gt;Node15 -->
<g id="edge17" class="edge">
<title>Node12&#45;&gt;Node15</title>
<path fill="none" stroke="midnightblue" d="M1077.45,-251.8C1160.02,-239.82 1308.41,-218.29 1395.81,-205.61"/>
<polygon fill="midnightblue" stroke="midnightblue" points="1396.51,-209.05 1405.9,-204.15 1395.5,-202.12 1396.51,-209.05"/>
</g>
<!-- Node17 -->
<g id="node17" class="node">
<title>Node17</title>
<g id="a_node17"><a xlink:href="atomic__stop__signal_8hpp.html" target="_top" xlink:title=" ">
<polygon fill="white" stroke="black" points="1187.5,-179.5 1187.5,-209.5 1311.5,-209.5 1311.5,-179.5 1187.5,-179.5"/>
<text text-anchor="start" x="1195.5" y="-197.5" font-family="Helvetica,sans-Serif" font-size="10.00">panoc&#45;alm/util/atomic</text>
<text text-anchor="middle" x="1249.5" y="-186.5" font-family="Helvetica,sans-Serif" font-size="10.00">_stop_signal.hpp</text>
</a>
</g>
</g>
<!-- Node12&#45;&gt;Node17 -->
<g id="edge21" class="edge">
<title>Node12&#45;&gt;Node17</title>
<path fill="none" stroke="midnightblue" d="M1067.55,-246.48C1103.26,-236.47 1151.45,-222.97 1189.26,-212.38"/>
<polygon fill="midnightblue" stroke="midnightblue" points="1190.45,-215.68 1199.13,-209.61 1188.56,-208.94 1190.45,-215.68"/>
</g>
<!-- Node18 -->
<g id="node18" class="node">
<title>Node18</title>
<g id="a_node18"><a xlink:title=" ">
<polygon fill="white" stroke="#bfbfbf" points="1218.5,-118 1218.5,-137 1268.5,-137 1268.5,-118 1218.5,-118"/>
<text text-anchor="middle" x="1243.5" y="-125" font-family="Helvetica,sans-Serif" font-size="10.00">atomic</text>
</a>
</g>
</g>
<!-- Node12&#45;&gt;Node18 -->
<g id="edge34" class="edge">
<title>Node12&#45;&gt;Node18</title>
<path fill="none" stroke="midnightblue" d="M1048.36,-246.43C1068.86,-236.78 1096.19,-223.37 1119.5,-210 1157.15,-188.41 1198.95,-159.94 1223.13,-143"/>
<polygon fill="midnightblue" stroke="midnightblue" points="1225.33,-145.73 1231.49,-137.1 1221.3,-140 1225.33,-145.73"/>
</g>
<!-- Node19 -->
<g id="node19" class="node">
<title>Node19</title>
<g id="a_node19"><a xlink:href="lipschitz_8hpp.html" target="_top" xlink:title=" ">
<polygon fill="white" stroke="black" points="433.5,-185 433.5,-204 585.5,-204 585.5,-185 433.5,-185"/>
<text text-anchor="middle" x="509.5" y="-192" font-family="Helvetica,sans-Serif" font-size="10.00">panoc&#45;alm/util/lipschitz.hpp</text>
</a>
</g>
</g>
<!-- Node12&#45;&gt;Node19 -->
<g id="edge23" class="edge">
<title>Node12&#45;&gt;Node19</title>
<path fill="none" stroke="midnightblue" d="M957.73,-252.85C865.43,-241.04 688.26,-218.37 586.49,-205.35"/>
<polygon fill="midnightblue" stroke="midnightblue" points="586.64,-201.84 576.28,-204.04 585.75,-208.79 586.64,-201.84"/>
</g>
<!-- Node20 -->
<g id="node20" class="node">
<title>Node20</title>
<g id="a_node20"><a xlink:href="include_2panoc-alm_2util_2problem_8hpp.html" target="_top" xlink:title=" ">
<polygon fill="white" stroke="black" points="941.5,-185 941.5,-204 1093.5,-204 1093.5,-185 941.5,-185"/>
<text text-anchor="middle" x="1017.5" y="-192" font-family="Helvetica,sans-Serif" font-size="10.00">panoc&#45;alm/util/problem.hpp</text>
</a>
</g>
</g>
<!-- Node12&#45;&gt;Node20 -->
<g id="edge25" class="edge">
<title>Node12&#45;&gt;Node20</title>
<path fill="none" stroke="midnightblue" d="M1017.5,-246.4C1017.5,-237.06 1017.5,-224.71 1017.5,-214.52"/>
<polygon fill="midnightblue" stroke="midnightblue" points="1021,-214.19 1017.5,-204.19 1014,-214.19 1021,-214.19"/>
</g>
<!-- Node22 -->
<g id="node22" class="node">
<title>Node22</title>
<g id="a_node22"><a xlink:title=" ">
<polygon fill="white" stroke="#bfbfbf" points="1070.5,-118 1070.5,-137 1120.5,-137 1120.5,-118 1070.5,-118"/>
<text text-anchor="middle" x="1095.5" y="-125" font-family="Helvetica,sans-Serif" font-size="10.00">chrono</text>
</a>
</g>
</g>
<!-- Node12&#45;&gt;Node22 -->
<g id="edge35" class="edge">
<title>Node12&#45;&gt;Node22</title>
<path fill="none" stroke="midnightblue" d="M1058.9,-246.4C1075.53,-238.46 1092.99,-226.71 1102.5,-210 1113.61,-190.48 1108.32,-163.97 1102.65,-146.56"/>
<polygon fill="midnightblue" stroke="midnightblue" points="1105.9,-145.25 1099.22,-137.03 1099.32,-147.63 1105.9,-145.25"/>
</g>
<!-- Node25 -->
<g id="node25" class="node">
<title>Node25</title>
<g id="a_node25"><a xlink:href="solverstatus_8hpp.html" target="_top" xlink:title=" ">
<polygon fill="white" stroke="black" points="1543,-185 1543,-204 1714,-204 1714,-185 1543,-185"/>
<text text-anchor="middle" x="1628.5" y="-192" font-family="Helvetica,sans-Serif" font-size="10.00">panoc&#45;alm/util/solverstatus.hpp</text>
</a>
</g>
</g>
<!-- Node12&#45;&gt;Node25 -->
<g id="edge32" class="edge">
<title>Node12&#45;&gt;Node25</title>
<path fill="none" stroke="midnightblue" d="M1077.07,-253.23C1097.49,-250.82 1120.48,-248.19 1141.5,-246 1315.95,-227.81 1360.41,-231.38 1534.5,-210 1544.93,-208.72 1555.99,-207.18 1566.71,-205.59"/>
<polygon fill="midnightblue" stroke="midnightblue" points="1567.5,-209.01 1576.86,-204.05 1566.45,-202.09 1567.5,-209.01"/>
</g>
<!-- Node27 -->
<g id="node27" class="node">
<title>Node27</title>
<g id="a_node27"><a xlink:title=" ">
<polygon fill="white" stroke="#bfbfbf" points="679.5,-185 679.5,-204 723.5,-204 723.5,-185 679.5,-185"/>
<text text-anchor="middle" x="701.5" y="-192" font-family="Helvetica,sans-Serif" font-size="10.00">limits</text>
</a>
</g>
</g>
<!-- Node12&#45;&gt;Node27 -->
<g id="edge36" class="edge">
<title>Node12&#45;&gt;Node27</title>
<path fill="none" stroke="midnightblue" d="M957.74,-254.53C899.3,-247.62 808.32,-233.99 732.5,-210 730.83,-209.47 729.12,-208.87 727.42,-208.22"/>
<polygon fill="midnightblue" stroke="midnightblue" points="728.48,-204.87 717.91,-204.15 725.73,-211.3 728.48,-204.87"/>
</g>
<!-- Node28 -->
<g id="node28" class="node">
<title>Node28</title>
<g id="a_node28"><a xlink:title=" ">
<polygon fill="white" stroke="#bfbfbf" points="741.5,-185 741.5,-204 785.5,-204 785.5,-185 741.5,-185"/>
<text text-anchor="middle" x="763.5" y="-192" font-family="Helvetica,sans-Serif" font-size="10.00">string</text>
</a>
</g>
</g>
<!-- Node12&#45;&gt;Node28 -->
<g id="edge37" class="edge">
<title>Node12&#45;&gt;Node28</title>
<path fill="none" stroke="midnightblue" d="M957.71,-250.29C912.5,-241.77 849.26,-228.09 795.5,-210 793.83,-209.44 792.13,-208.82 790.43,-208.16"/>
<polygon fill="midnightblue" stroke="midnightblue" points="791.42,-204.78 780.85,-204.13 788.71,-211.23 791.42,-204.78"/>
</g>
<!-- Node14&#45;&gt;Node7 -->
<g id="edge16" class="edge">
<title>Node14&#45;&gt;Node7</title>
<path fill="none" stroke="midnightblue" d="M300.27,-179.48C260.53,-169.39 206.79,-155.74 164.91,-145.11"/>
<polygon fill="midnightblue" stroke="midnightblue" points="165.63,-141.68 155.08,-142.61 163.91,-148.46 165.63,-141.68"/>
</g>
<!-- Node15&#45;&gt;Node9 -->
<g id="edge19" class="edge">
<title>Node15&#45;&gt;Node9</title>
<path fill="none" stroke="midnightblue" d="M1447.27,-179.4C1433.53,-168.76 1414.72,-154.2 1400.73,-143.38"/>
<polygon fill="midnightblue" stroke="midnightblue" points="1402.79,-140.55 1392.74,-137.19 1398.5,-146.08 1402.79,-140.55"/>
</g>
<!-- Node16 -->
<g id="node16" class="node">
<title>Node16</title>
<g id="a_node16"><a xlink:title=" ">
<polygon fill="white" stroke="#bfbfbf" points="1437,-118 1437,-137 1494,-137 1494,-118 1437,-118"/>
<text text-anchor="middle" x="1465.5" y="-125" font-family="Helvetica,sans-Serif" font-size="10.00">ostream</text>
</a>
</g>
</g>
<!-- Node15&#45;&gt;Node16 -->
<g id="edge18" class="edge">
<title>Node15&#45;&gt;Node16</title>
<path fill="none" stroke="midnightblue" d="M1465.5,-179.4C1465.5,-170.06 1465.5,-157.71 1465.5,-147.52"/>
<polygon fill="midnightblue" stroke="midnightblue" points="1469,-147.19 1465.5,-137.19 1462,-147.19 1469,-147.19"/>
</g>
<!-- Node17&#45;&gt;Node18 -->
<g id="edge22" class="edge">
<title>Node17&#45;&gt;Node18</title>
<path fill="none" stroke="midnightblue" d="M1248.2,-179.4C1247.33,-169.96 1246.17,-157.45 1245.23,-147.19"/>
<polygon fill="midnightblue" stroke="midnightblue" points="1248.71,-146.83 1244.3,-137.19 1241.74,-147.47 1248.71,-146.83"/>
</g>
<!-- Node19&#45;&gt;Node5 -->
<g id="edge24" class="edge">
<title>Node19&#45;&gt;Node5</title>
<path fill="none" stroke="midnightblue" d="M492.04,-184.81C448.34,-163.04 334.04,-106.12 282,-80.2"/>
<polygon fill="midnightblue" stroke="midnightblue" points="283.26,-76.91 272.74,-75.59 280.14,-83.18 283.26,-76.91"/>
</g>
<!-- Node20&#45;&gt;Node4 -->
<g id="edge26" class="edge">
<title>Node20&#45;&gt;Node4</title>
<path fill="none" stroke="midnightblue" d="M972.18,-184.95C959.39,-182.76 945.43,-180.58 932.5,-179 714.59,-152.35 455.38,-137.74 330.33,-131.77"/>
<polygon fill="midnightblue" stroke="midnightblue" points="330.26,-128.26 320.11,-131.28 329.93,-135.25 330.26,-128.26"/>
</g>
<!-- Node20&#45;&gt;Node10 -->
<g id="edge31" class="edge">
<title>Node20&#45;&gt;Node10</title>
<path fill="none" stroke="midnightblue" d="M972.44,-184.94C906.84,-172.47 785.76,-149.46 720.31,-137.02"/>
<polygon fill="midnightblue" stroke="midnightblue" points="720.77,-133.54 710.3,-135.11 719.47,-140.42 720.77,-133.54"/>
</g>
<!-- Node20&#45;&gt;Node21 -->
<g id="edge27" class="edge">
<title>Node20&#45;&gt;Node21</title>
<path fill="none" stroke="midnightblue" d="M990.81,-184.87C955.17,-173.34 891.94,-152.9 852.22,-140.05"/>
<polygon fill="midnightblue" stroke="midnightblue" points="853.25,-136.71 842.66,-136.96 851.1,-143.37 853.25,-136.71"/>
</g>
<!-- Node20&#45;&gt;Node22 -->
<g id="edge28" class="edge">
<title>Node20&#45;&gt;Node22</title>
<path fill="none" stroke="midnightblue" d="M1028.02,-184.73C1040.65,-174.21 1062.04,-156.38 1077.36,-143.62"/>
<polygon fill="midnightblue" stroke="midnightblue" points="1079.71,-146.22 1085.15,-137.13 1075.22,-140.84 1079.71,-146.22"/>
</g>
<!-- Node23 -->
<g id="node23" class="node">
<title>Node23</title>
<g id="a_node23"><a xlink:title=" ">
<polygon fill="white" stroke="#bfbfbf" points="985,-118 985,-137 1050,-137 1050,-118 985,-118"/>
<text text-anchor="middle" x="1017.5" y="-125" font-family="Helvetica,sans-Serif" font-size="10.00">functional</text>
</a>
</g>
</g>
<!-- Node20&#45;&gt;Node23 -->
<g id="edge29" class="edge">
<title>Node20&#45;&gt;Node23</title>
<path fill="none" stroke="midnightblue" d="M1017.5,-184.73C1017.5,-175.18 1017.5,-159.62 1017.5,-147.28"/>
<polygon fill="midnightblue" stroke="midnightblue" points="1021,-147.13 1017.5,-137.13 1014,-147.13 1021,-147.13"/>
</g>
<!-- Node20&#45;&gt;Node24 -->
<g id="edge30" class="edge">
<title>Node20&#45;&gt;Node24</title>
<path fill="none" stroke="midnightblue" d="M1037.82,-184.87C1064.22,-173.65 1110.53,-153.98 1140.86,-141.09"/>
<polygon fill="midnightblue" stroke="midnightblue" points="1142.26,-144.3 1150.1,-137.17 1139.53,-137.86 1142.26,-144.3"/>
</g>
<!-- Node26 -->
<g id="node26" class="node">
<title>Node26</title>
<g id="a_node26"><a xlink:title=" ">
<polygon fill="white" stroke="#bfbfbf" points="1604.5,-118 1604.5,-137 1652.5,-137 1652.5,-118 1604.5,-118"/>
<text text-anchor="middle" x="1628.5" y="-125" font-family="Helvetica,sans-Serif" font-size="10.00">iosfwd</text>
</a>
</g>
</g>
<!-- Node25&#45;&gt;Node26 -->
<g id="edge33" class="edge">
<title>Node25&#45;&gt;Node26</title>
<path fill="none" stroke="midnightblue" d="M1628.5,-184.73C1628.5,-175.18 1628.5,-159.62 1628.5,-147.28"/>
<polygon fill="midnightblue" stroke="midnightblue" points="1632,-147.13 1628.5,-137.13 1625,-147.13 1632,-147.13"/>
</g>
<!-- Node29&#45;&gt;Node9 -->
<g id="edge43" class="edge">
<title>Node29&#45;&gt;Node9</title>
<path fill="none" stroke="midnightblue" d="M1533.01,-259.89C1625.33,-256.87 1779.76,-242.54 1723.5,-179 1679.72,-129.55 1493.09,-156.79 1428.5,-143 1424.37,-142.12 1420.07,-141.03 1415.84,-139.86"/>
<polygon fill="midnightblue" stroke="midnightblue" points="1416.74,-136.48 1406.16,-137.01 1414.77,-143.19 1416.74,-136.48"/>
</g>
<!-- Node29&#45;&gt;Node15 -->
<g id="edge39" class="edge">
<title>Node29&#45;&gt;Node15</title>
<path fill="none" stroke="midnightblue" d="M1468.63,-246.4C1468.15,-238.56 1467.54,-228.6 1466.98,-219.57"/>
<polygon fill="midnightblue" stroke="midnightblue" points="1470.47,-219.34 1466.37,-209.58 1463.49,-219.77 1470.47,-219.34"/>
</g>
<!-- Node29&#45;&gt;Node17 -->
<g id="edge40" class="edge">
<title>Node29&#45;&gt;Node17</title>
<path fill="none" stroke="midnightblue" d="M1422.03,-246.48C1388.32,-236.51 1342.87,-223.09 1307.08,-212.51"/>
<polygon fill="midnightblue" stroke="midnightblue" points="1307.84,-209.09 1297.26,-209.61 1305.86,-215.8 1307.84,-209.09"/>
</g>
<!-- Node29&#45;&gt;Node20 -->
<g id="edge41" class="edge">
<title>Node29&#45;&gt;Node20</title>
<path fill="none" stroke="midnightblue" d="M1405.7,-251.32C1321.43,-239.21 1173.57,-217.94 1086.69,-205.45"/>
<polygon fill="midnightblue" stroke="midnightblue" points="1087.06,-201.97 1076.66,-204.01 1086.06,-208.9 1087.06,-201.97"/>
</g>
<!-- Node29&#45;&gt;Node25 -->
<g id="edge42" class="edge">
<title>Node29&#45;&gt;Node25</title>
<path fill="none" stroke="midnightblue" d="M1504,-246.4C1532.15,-234.89 1571.51,-218.8 1598.39,-207.81"/>
<polygon fill="midnightblue" stroke="midnightblue" points="1599.76,-211.03 1607.69,-204.01 1597.11,-204.55 1599.76,-211.03"/>
</g>
</g>
</svg>
