<?xml version="1.0" encoding="UTF-8" standalone="no"?>
<!DOCTYPE svg PUBLIC "-//W3C//DTD SVG 1.1//EN"
 "http://www.w3.org/Graphics/SVG/1.1/DTD/svg11.dtd">
<!-- Generated by graphviz version 2.43.0 (0)
 -->
<!-- Title: main.cpp Pages: 1 -->
<svg width="1816pt" height="464pt"
 viewBox="0.00 0.00 1816.40 464.00" xmlns="http://www.w3.org/2000/svg" xmlns:xlink="http://www.w3.org/1999/xlink">
<g id="graph0" class="graph" transform="scale(1 1) rotate(0) translate(4 460)">
<title>main.cpp</title>
<polygon fill="white" stroke="transparent" points="-4,4 -4,-460 1812.4,-460 1812.4,4 -4,4"/>
<!-- Node1 -->
<g id="node1" class="node">
<title>Node1</title>
<g id="a_node1"><a xlink:title=" ">
<polygon fill="#bfbfbf" stroke="black" points="509.74,-436.5 509.74,-455.5 571.74,-455.5 571.74,-436.5 509.74,-436.5"/>
<text text-anchor="middle" x="540.74" y="-443.5" font-family="Helvetica,sans-Serif" font-size="10.00">main.cpp</text>
</a>
</g>
</g>
<!-- Node2 -->
<g id="node2" class="node">
<title>Node2</title>
<g id="a_node2"><a xlink:href="alm_8hpp.html" target="_top" xlink:title=" ">
<polygon fill="white" stroke="black" points="285.24,-380.5 285.24,-399.5 396.24,-399.5 396.24,-380.5 285.24,-380.5"/>
<text text-anchor="middle" x="340.74" y="-387.5" font-family="Helvetica,sans-Serif" font-size="10.00">panoc&#45;alm/alm.hpp</text>
</a>
</g>
</g>
<!-- Node1&#45;&gt;Node2 -->
<g id="edge1" class="edge">
<title>Node1&#45;&gt;Node2</title>
<path fill="none" stroke="midnightblue" d="M509.49,-436.56C475.2,-427.3 420.01,-412.4 382.14,-402.18"/>
<polygon fill="midnightblue" stroke="midnightblue" points="383,-398.78 372.43,-399.56 381.17,-405.54 383,-398.78"/>
</g>
<!-- Node21 -->
<g id="node21" class="node">
<title>Node21</title>
<g id="a_node21"><a xlink:title=" ">
<polygon fill="white" stroke="#bfbfbf" points="453.74,-252 453.74,-271 513.74,-271 513.74,-252 453.74,-252"/>
<text text-anchor="middle" x="483.74" y="-259" font-family="Helvetica,sans-Serif" font-size="10.00">iostream</text>
</a>
</g>
</g>
<!-- Node1&#45;&gt;Node21 -->
<g id="edge62" class="edge">
<title>Node1&#45;&gt;Node21</title>
<path fill="none" stroke="midnightblue" d="M537.99,-436.2C529.21,-408.07 501.68,-319.96 489.57,-281.16"/>
<polygon fill="midnightblue" stroke="midnightblue" points="492.78,-279.72 486.46,-271.21 486.1,-281.8 492.78,-279.72"/>
</g>
<!-- Node22 -->
<g id="node22" class="node">
<title>Node22</title>
<g id="a_node22"><a xlink:href="inner_2panoc_8hpp.html" target="_top" xlink:title=" ">
<polygon fill="white" stroke="black" points="587.24,-319 587.24,-338 736.24,-338 736.24,-319 587.24,-319"/>
<text text-anchor="middle" x="661.74" y="-326" font-family="Helvetica,sans-Serif" font-size="10.00">panoc&#45;alm/inner/panoc.hpp</text>
</a>
</g>
</g>
<!-- Node1&#45;&gt;Node22 -->
<g id="edge23" class="edge">
<title>Node1&#45;&gt;Node22</title>
<path fill="none" stroke="midnightblue" d="M549.83,-436.32C570.07,-417 619.06,-370.24 644.99,-345.48"/>
<polygon fill="midnightblue" stroke="midnightblue" points="647.72,-347.72 652.54,-338.28 642.89,-342.66 647.72,-347.72"/>
</g>
<!-- Node34 -->
<g id="node34" class="node">
<title>Node34</title>
<g id="a_node34"><a xlink:href="lbfgs_8hpp.html" target="_top" xlink:title=" ">
<polygon fill="white" stroke="black" points="1622.24,-313.5 1622.24,-343.5 1769.24,-343.5 1769.24,-313.5 1622.24,-313.5"/>
<text text-anchor="start" x="1630.24" y="-331.5" font-family="Helvetica,sans-Serif" font-size="10.00">panoc&#45;alm/inner/directions</text>
<text text-anchor="middle" x="1695.74" y="-320.5" font-family="Helvetica,sans-Serif" font-size="10.00">/lbfgs.hpp</text>
</a>
</g>
</g>
<!-- Node1&#45;&gt;Node34 -->
<g id="edge54" class="edge">
<title>Node1&#45;&gt;Node34</title>
<path fill="none" stroke="midnightblue" d="M571.93,-441.88C722.57,-426.82 1377.13,-361.36 1611.71,-337.9"/>
<polygon fill="midnightblue" stroke="midnightblue" points="1612.28,-341.36 1621.89,-336.89 1611.59,-334.4 1612.28,-341.36"/>
</g>
<!-- Node3 -->
<g id="node3" class="node">
<title>Node3</title>
<g id="a_node3"><a xlink:href="alm-helpers_8hpp.html" target="_top" xlink:title=" ">
<polygon fill="white" stroke="black" points="369.24,-313.5 369.24,-343.5 490.24,-343.5 490.24,-313.5 369.24,-313.5"/>
<text text-anchor="start" x="377.24" y="-331.5" font-family="Helvetica,sans-Serif" font-size="10.00">panoc&#45;alm/detail/alm</text>
<text text-anchor="middle" x="429.74" y="-320.5" font-family="Helvetica,sans-Serif" font-size="10.00">&#45;helpers.hpp</text>
</a>
</g>
</g>
<!-- Node2&#45;&gt;Node3 -->
<g id="edge2" class="edge">
<title>Node2&#45;&gt;Node3</title>
<path fill="none" stroke="midnightblue" d="M353.49,-380.48C365.66,-372.34 384.43,-359.79 400.3,-349.18"/>
<polygon fill="midnightblue" stroke="midnightblue" points="402.4,-351.99 408.76,-343.52 398.5,-346.17 402.4,-351.99"/>
</g>
<!-- Node16 -->
<g id="node16" class="node">
<title>Node16</title>
<g id="a_node16"><a xlink:href="solverstatus_8hpp.html" target="_top" xlink:title=" ">
<polygon fill="white" stroke="black" points="16.24,-185 16.24,-204 187.24,-204 187.24,-185 16.24,-185"/>
<text text-anchor="middle" x="101.74" y="-192" font-family="Helvetica,sans-Serif" font-size="10.00">panoc&#45;alm/util/solverstatus.hpp</text>
</a>
</g>
</g>
<!-- Node2&#45;&gt;Node16 -->
<g id="edge20" class="edge">
<title>Node2&#45;&gt;Node16</title>
<path fill="none" stroke="midnightblue" d="M330.16,-380.44C293,-350.35 168.08,-249.21 120.43,-210.63"/>
<polygon fill="midnightblue" stroke="midnightblue" points="122.44,-207.76 112.47,-204.18 118.04,-213.2 122.44,-207.76"/>
</g>
<!-- Node20 -->
<g id="node20" class="node">
<title>Node20</title>
<g id="a_node20"><a xlink:title=" ">
<polygon fill="white" stroke="#bfbfbf" points="227.74,-252 227.74,-271 283.74,-271 283.74,-252 227.74,-252"/>
<text text-anchor="middle" x="255.74" y="-259" font-family="Helvetica,sans-Serif" font-size="10.00">iomanip</text>
</a>
</g>
</g>
<!-- Node2&#45;&gt;Node20 -->
<g id="edge21" class="edge">
<title>Node2&#45;&gt;Node20</title>
<path fill="none" stroke="midnightblue" d="M334.9,-380.31C321.01,-359.63 285.8,-307.23 267.38,-279.82"/>
<polygon fill="midnightblue" stroke="midnightblue" points="270.1,-277.6 261.62,-271.26 264.29,-281.51 270.1,-277.6"/>
</g>
<!-- Node2&#45;&gt;Node21 -->
<g id="edge22" class="edge">
<title>Node2&#45;&gt;Node21</title>
<path fill="none" stroke="midnightblue" d="M340.5,-380.34C340.54,-364.93 342.81,-332.52 359.74,-313 362.96,-309.29 416.03,-288.45 451.69,-274.72"/>
<polygon fill="midnightblue" stroke="midnightblue" points="453.15,-277.91 461.23,-271.06 450.64,-271.38 453.15,-277.91"/>
</g>
<!-- Node4 -->
<g id="node4" class="node">
<title>Node4</title>
<g id="a_node4"><a xlink:href="decl_2alm_8hpp.html" target="_top" xlink:title=" ">
<polygon fill="white" stroke="black" points="301.74,-252 301.74,-271 435.74,-271 435.74,-252 301.74,-252"/>
<text text-anchor="middle" x="368.74" y="-259" font-family="Helvetica,sans-Serif" font-size="10.00">panoc&#45;alm/decl/alm.hpp</text>
</a>
</g>
</g>
<!-- Node3&#45;&gt;Node4 -->
<g id="edge3" class="edge">
<title>Node3&#45;&gt;Node4</title>
<path fill="none" stroke="midnightblue" d="M416.5,-313.4C406.9,-303.16 393.89,-289.3 383.87,-278.62"/>
<polygon fill="midnightblue" stroke="midnightblue" points="386.29,-276.09 376.9,-271.19 381.19,-280.88 386.29,-276.09"/>
</g>
<!-- Node19 -->
<g id="node19" class="node">
<title>Node19</title>
<g id="a_node19"><a xlink:title=" ">
<polygon fill="white" stroke="#bfbfbf" points="1724.24,-118 1724.24,-137 1789.24,-137 1789.24,-118 1724.24,-118"/>
<text text-anchor="middle" x="1756.74" y="-125" font-family="Helvetica,sans-Serif" font-size="10.00">stdexcept</text>
</a>
</g>
</g>
<!-- Node3&#45;&gt;Node19 -->
<g id="edge19" class="edge">
<title>Node3&#45;&gt;Node19</title>
<path fill="none" stroke="midnightblue" d="M490.51,-320.64C517.23,-317.86 549.01,-314.87 577.74,-313 639.42,-308.98 1638.37,-311.37 1689.74,-277 1734.32,-247.17 1749.62,-180.05 1754.55,-147.25"/>
<polygon fill="midnightblue" stroke="midnightblue" points="1758.04,-147.57 1755.9,-137.2 1751.1,-146.65 1758.04,-147.57"/>
</g>
<!-- Node5 -->
<g id="node5" class="node">
<title>Node5</title>
<g id="a_node5"><a xlink:href="panoc-fwd_8hpp.html" target="_top" xlink:title=" ">
<polygon fill="white" stroke="black" points="514.24,-179.5 514.24,-209.5 633.24,-209.5 633.24,-179.5 514.24,-179.5"/>
<text text-anchor="start" x="522.24" y="-197.5" font-family="Helvetica,sans-Serif" font-size="10.00">panoc&#45;alm/inner/decl</text>
<text text-anchor="middle" x="573.74" y="-186.5" font-family="Helvetica,sans-Serif" font-size="10.00">/panoc&#45;fwd.hpp</text>
</a>
</g>
</g>
<!-- Node4&#45;&gt;Node5 -->
<g id="edge4" class="edge">
<title>Node4&#45;&gt;Node5</title>
<path fill="none" stroke="midnightblue" d="M395.96,-251.87C427.45,-241.88 480.08,-225.2 519.92,-212.56"/>
<polygon fill="midnightblue" stroke="midnightblue" points="521.02,-215.89 529.5,-209.53 518.91,-209.21 521.02,-215.89"/>
</g>
<!-- Node7 -->
<g id="node7" class="node">
<title>Node7</title>
<g id="a_node7"><a xlink:href="include_2panoc-alm_2util_2problem_8hpp.html" target="_top" xlink:title=" ">
<polygon fill="white" stroke="black" points="343.74,-185 343.74,-204 495.74,-204 495.74,-185 343.74,-185"/>
<text text-anchor="middle" x="419.74" y="-192" font-family="Helvetica,sans-Serif" font-size="10.00">panoc&#45;alm/util/problem.hpp</text>
</a>
</g>
</g>
<!-- Node4&#45;&gt;Node7 -->
<g id="edge6" class="edge">
<title>Node4&#45;&gt;Node7</title>
<path fill="none" stroke="midnightblue" d="M375.62,-251.73C383.57,-241.6 396.84,-224.69 406.75,-212.06"/>
<polygon fill="midnightblue" stroke="midnightblue" points="409.55,-214.16 412.97,-204.13 404.04,-209.83 409.55,-214.16"/>
</g>
<!-- Node12 -->
<g id="node12" class="node">
<title>Node12</title>
<g id="a_node12"><a xlink:title=" ">
<polygon fill="white" stroke="#bfbfbf" points="252.74,-118 252.74,-137 302.74,-137 302.74,-118 252.74,-118"/>
<text text-anchor="middle" x="277.74" y="-125" font-family="Helvetica,sans-Serif" font-size="10.00">chrono</text>
</a>
</g>
</g>
<!-- Node4&#45;&gt;Node12 -->
<g id="edge17" class="edge">
<title>Node4&#45;&gt;Node12</title>
<path fill="none" stroke="midnightblue" d="M326.61,-251.97C315.61,-249.88 303.75,-247.74 292.74,-246 229.47,-235.99 49.11,-258.04 6.74,-210 -2.37,-199.67 -2.07,-189.6 6.74,-179 21.72,-160.97 172.53,-140.95 242.46,-132.56"/>
<polygon fill="midnightblue" stroke="midnightblue" points="243.05,-136.01 252.57,-131.36 242.22,-129.06 243.05,-136.01"/>
</g>
<!-- Node4&#45;&gt;Node16 -->
<g id="edge15" class="edge">
<title>Node4&#45;&gt;Node16</title>
<path fill="none" stroke="midnightblue" d="M333.56,-251.94C285.53,-240.24 199.42,-219.28 146.75,-206.46"/>
<polygon fill="midnightblue" stroke="midnightblue" points="147.54,-203.05 137,-204.08 145.89,-209.85 147.54,-203.05"/>
</g>
<!-- Node18 -->
<g id="node18" class="node">
<title>Node18</title>
<g id="a_node18"><a xlink:title=" ">
<polygon fill="white" stroke="#bfbfbf" points="243.74,-185 243.74,-204 287.74,-204 287.74,-185 243.74,-185"/>
<text text-anchor="middle" x="265.74" y="-192" font-family="Helvetica,sans-Serif" font-size="10.00">string</text>
</a>
</g>
</g>
<!-- Node4&#45;&gt;Node18 -->
<g id="edge18" class="edge">
<title>Node4&#45;&gt;Node18</title>
<path fill="none" stroke="midnightblue" d="M354.85,-251.73C337.71,-240.92 308.34,-222.38 288.03,-209.57"/>
<polygon fill="midnightblue" stroke="midnightblue" points="289.73,-206.5 279.41,-204.13 286,-212.42 289.73,-206.5"/>
</g>
<!-- Node6 -->
<g id="node6" class="node">
<title>Node6</title>
<g id="a_node6"><a xlink:href="lbfgs-fwd_8hpp.html" target="_top" xlink:title=" ">
<polygon fill="white" stroke="black" points="1433.24,-112.5 1433.24,-142.5 1580.24,-142.5 1580.24,-112.5 1433.24,-112.5"/>
<text text-anchor="start" x="1441.24" y="-130.5" font-family="Helvetica,sans-Serif" font-size="10.00">panoc&#45;alm/inner/directions</text>
<text text-anchor="middle" x="1506.74" y="-119.5" font-family="Helvetica,sans-Serif" font-size="10.00">/decl/lbfgs&#45;fwd.hpp</text>
</a>
</g>
</g>
<!-- Node5&#45;&gt;Node6 -->
<g id="edge5" class="edge">
<title>Node5&#45;&gt;Node6</title>
<path fill="none" stroke="midnightblue" d="M633.34,-184.5C648.75,-182.42 665.34,-180.41 680.74,-179 1006.59,-149.08 1093.38,-178.89 1422.73,-143"/>
<polygon fill="midnightblue" stroke="midnightblue" points="1423.48,-146.44 1433.04,-141.87 1422.72,-139.48 1423.48,-146.44"/>
</g>
<!-- Node8 -->
<g id="node8" class="node">
<title>Node8</title>
<g id="a_node8"><a xlink:href="box_8hpp.html" target="_top" xlink:title=" ">
<polygon fill="white" stroke="black" points="1358.74,-118 1358.74,-137 1414.74,-137 1414.74,-118 1358.74,-118"/>
<text text-anchor="middle" x="1386.74" y="-125" font-family="Helvetica,sans-Serif" font-size="10.00">box.hpp</text>
</a>
</g>
</g>
<!-- Node7&#45;&gt;Node8 -->
<g id="edge7" class="edge">
<title>Node7&#45;&gt;Node8</title>
<path fill="none" stroke="midnightblue" d="M463.71,-184.93C476.86,-182.66 491.34,-180.44 504.74,-179 856.41,-141.19 948,-180.14 1299.74,-143 1315.82,-141.3 1333.45,-138.54 1348.6,-135.87"/>
<polygon fill="midnightblue" stroke="midnightblue" points="1349.43,-139.28 1358.65,-134.06 1348.18,-132.39 1349.43,-139.28"/>
</g>
<!-- Node11 -->
<g id="node11" class="node">
<title>Node11</title>
<g id="a_node11"><a xlink:title=" ">
<polygon fill="white" stroke="#bfbfbf" points="320.74,-118 320.74,-137 372.74,-137 372.74,-118 320.74,-118"/>
<text text-anchor="middle" x="346.74" y="-125" font-family="Helvetica,sans-Serif" font-size="10.00">cassert</text>
</a>
</g>
</g>
<!-- Node7&#45;&gt;Node11 -->
<g id="edge10" class="edge">
<title>Node7&#45;&gt;Node11</title>
<path fill="none" stroke="midnightblue" d="M409.89,-184.73C398.18,-174.31 378.42,-156.71 364.12,-143.97"/>
<polygon fill="midnightblue" stroke="midnightblue" points="366.22,-141.16 356.43,-137.13 361.57,-146.39 366.22,-141.16"/>
</g>
<!-- Node7&#45;&gt;Node12 -->
<g id="edge11" class="edge">
<title>Node7&#45;&gt;Node12</title>
<path fill="none" stroke="midnightblue" d="M400.88,-184.87C376.59,-173.75 334.14,-154.32 305.98,-141.43"/>
<polygon fill="midnightblue" stroke="midnightblue" points="307.22,-138.15 296.67,-137.17 304.31,-144.51 307.22,-138.15"/>
</g>
<!-- Node13 -->
<g id="node13" class="node">
<title>Node13</title>
<g id="a_node13"><a xlink:title=" ">
<polygon fill="white" stroke="#bfbfbf" points="467.24,-118 467.24,-137 532.24,-137 532.24,-118 467.24,-118"/>
<text text-anchor="middle" x="499.74" y="-125" font-family="Helvetica,sans-Serif" font-size="10.00">functional</text>
</a>
</g>
</g>
<!-- Node7&#45;&gt;Node13 -->
<g id="edge12" class="edge">
<title>Node7&#45;&gt;Node13</title>
<path fill="none" stroke="midnightblue" d="M430.53,-184.73C443.48,-174.21 465.43,-156.38 481.13,-143.62"/>
<polygon fill="midnightblue" stroke="midnightblue" points="483.57,-146.15 489.12,-137.13 479.15,-140.72 483.57,-146.15"/>
</g>
<!-- Node14 -->
<g id="node14" class="node">
<title>Node14</title>
<g id="a_node14"><a xlink:title=" ">
<polygon fill="white" stroke="#bfbfbf" points="390.74,-118 390.74,-137 448.74,-137 448.74,-118 390.74,-118"/>
<text text-anchor="middle" x="419.74" y="-125" font-family="Helvetica,sans-Serif" font-size="10.00">memory</text>
</a>
</g>
</g>
<!-- Node7&#45;&gt;Node14 -->
<g id="edge13" class="edge">
<title>Node7&#45;&gt;Node14</title>
<path fill="none" stroke="midnightblue" d="M419.74,-184.73C419.74,-175.18 419.74,-159.62 419.74,-147.28"/>
<polygon fill="midnightblue" stroke="midnightblue" points="423.24,-147.13 419.74,-137.13 416.24,-147.13 423.24,-147.13"/>
</g>
<!-- Node15 -->
<g id="node15" class="node">
<title>Node15</title>
<g id="a_node15"><a xlink:title=" ">
<polygon fill="white" stroke="#bfbfbf" points="1598.24,-118 1598.24,-137 1667.24,-137 1667.24,-118 1598.24,-118"/>
<text text-anchor="middle" x="1632.74" y="-125" font-family="Helvetica,sans-Serif" font-size="10.00">type_traits</text>
</a>
</g>
</g>
<!-- Node7&#45;&gt;Node15 -->
<g id="edge14" class="edge">
<title>Node7&#45;&gt;Node15</title>
<path fill="none" stroke="midnightblue" d="M462.83,-184.98C476.21,-182.65 491.04,-180.39 504.74,-179 744.75,-154.66 1352.36,-186 1589.74,-143 1593.64,-142.29 1597.67,-141.3 1601.62,-140.17"/>
<polygon fill="midnightblue" stroke="midnightblue" points="1602.71,-143.5 1611.19,-137.14 1600.6,-136.82 1602.71,-143.5"/>
</g>
<!-- Node9 -->
<g id="node9" class="node">
<title>Node9</title>
<g id="a_node9"><a xlink:href="vec_8hpp.html" target="_top" xlink:title=" ">
<polygon fill="white" stroke="black" points="1359.24,-56.5 1359.24,-75.5 1414.24,-75.5 1414.24,-56.5 1359.24,-56.5"/>
<text text-anchor="middle" x="1386.74" y="-63.5" font-family="Helvetica,sans-Serif" font-size="10.00">vec.hpp</text>
</a>
</g>
</g>
<!-- Node8&#45;&gt;Node9 -->
<g id="edge8" class="edge">
<title>Node8&#45;&gt;Node9</title>
<path fill="none" stroke="midnightblue" d="M1386.74,-117.98C1386.74,-109.58 1386.74,-96.48 1386.74,-85.66"/>
<polygon fill="midnightblue" stroke="midnightblue" points="1390.24,-85.51 1386.74,-75.51 1383.24,-85.51 1390.24,-85.51"/>
</g>
<!-- Node10 -->
<g id="node10" class="node">
<title>Node10</title>
<g id="a_node10"><a xlink:title=" ">
<polygon fill="white" stroke="#bfbfbf" points="1352.24,-0.5 1352.24,-19.5 1421.24,-19.5 1421.24,-0.5 1352.24,-0.5"/>
<text text-anchor="middle" x="1386.74" y="-7.5" font-family="Helvetica,sans-Serif" font-size="10.00">Eigen/Core</text>
</a>
</g>
</g>
<!-- Node9&#45;&gt;Node10 -->
<g id="edge9" class="edge">
<title>Node9&#45;&gt;Node10</title>
<path fill="none" stroke="midnightblue" d="M1386.74,-56.08C1386.74,-49.01 1386.74,-38.86 1386.74,-29.99"/>
<polygon fill="midnightblue" stroke="midnightblue" points="1390.24,-29.75 1386.74,-19.75 1383.24,-29.75 1390.24,-29.75"/>
</g>
<!-- Node17 -->
<g id="node17" class="node">
<title>Node17</title>
<g id="a_node17"><a xlink:title=" ">
<polygon fill="white" stroke="#bfbfbf" points="77.74,-118 77.74,-137 125.74,-137 125.74,-118 77.74,-118"/>
<text text-anchor="middle" x="101.74" y="-125" font-family="Helvetica,sans-Serif" font-size="10.00">iosfwd</text>
</a>
</g>
</g>
<!-- Node16&#45;&gt;Node17 -->
<g id="edge16" class="edge">
<title>Node16&#45;&gt;Node17</title>
<path fill="none" stroke="midnightblue" d="M101.74,-184.73C101.74,-175.18 101.74,-159.62 101.74,-147.28"/>
<polygon fill="midnightblue" stroke="midnightblue" points="105.24,-147.13 101.74,-137.13 98.24,-147.13 105.24,-147.13"/>
</g>
<!-- Node22&#45;&gt;Node11 -->
<g id="edge49" class="edge">
<title>Node22&#45;&gt;Node11</title>
<path fill="none" stroke="midnightblue" d="M650.62,-318.81C628,-301.65 574.39,-263.54 522.74,-246 461.67,-225.26 277.42,-258.35 234.74,-210 225.62,-199.67 227.26,-190.57 234.74,-179 237.16,-175.25 284.45,-154.75 316.8,-141.05"/>
<polygon fill="midnightblue" stroke="midnightblue" points="318.44,-144.16 326.29,-137.04 315.72,-137.71 318.44,-144.16"/>
</g>
<!-- Node22&#45;&gt;Node19 -->
<g id="edge53" class="edge">
<title>Node22&#45;&gt;Node19</title>
<path fill="none" stroke="midnightblue" d="M736.47,-326.19C971.58,-321.76 1682.99,-306.02 1722.74,-277 1763.25,-247.43 1762.4,-180.18 1759.24,-147.3"/>
<polygon fill="midnightblue" stroke="midnightblue" points="1762.7,-146.76 1758.08,-137.22 1755.74,-147.56 1762.7,-146.76"/>
</g>
<!-- Node22&#45;&gt;Node20 -->
<g id="edge51" class="edge">
<title>Node22&#45;&gt;Node20</title>
<path fill="none" stroke="midnightblue" d="M587.2,-319.42C495.92,-309.15 346.79,-291.07 292.74,-277 290.08,-276.31 287.35,-275.48 284.63,-274.57"/>
<polygon fill="midnightblue" stroke="midnightblue" points="285.63,-271.21 275.04,-271.06 283.23,-277.78 285.63,-271.21"/>
</g>
<!-- Node22&#45;&gt;Node21 -->
<g id="edge52" class="edge">
<title>Node22&#45;&gt;Node21</title>
<path fill="none" stroke="midnightblue" d="M638.1,-318.87C607.03,-307.52 552.27,-287.52 517.02,-274.65"/>
<polygon fill="midnightblue" stroke="midnightblue" points="517.78,-271.21 507.19,-271.06 515.38,-277.78 517.78,-271.21"/>
</g>
<!-- Node23 -->
<g id="node23" class="node">
<title>Node23</title>
<g id="a_node23"><a xlink:href="inner_2decl_2panoc_8hpp.html" target="_top" xlink:title=" ">
<polygon fill="white" stroke="black" points="602.24,-246.5 602.24,-276.5 721.24,-276.5 721.24,-246.5 602.24,-246.5"/>
<text text-anchor="start" x="610.24" y="-264.5" font-family="Helvetica,sans-Serif" font-size="10.00">panoc&#45;alm/inner/decl</text>
<text text-anchor="middle" x="661.74" y="-253.5" font-family="Helvetica,sans-Serif" font-size="10.00">/panoc.hpp</text>
</a>
</g>
</g>
<!-- Node22&#45;&gt;Node23 -->
<g id="edge24" class="edge">
<title>Node22&#45;&gt;Node23</title>
<path fill="none" stroke="midnightblue" d="M661.74,-318.73C661.74,-310.54 661.74,-297.92 661.74,-286.71"/>
<polygon fill="midnightblue" stroke="midnightblue" points="665.24,-286.59 661.74,-276.59 658.24,-286.59 665.24,-286.59"/>
</g>
<!-- Node27 -->
<g id="node27" class="node">
<title>Node27</title>
<g id="a_node27"><a xlink:href="panoc-direction-update_8hpp.html" target="_top" xlink:title=" ">
<polygon fill="white" stroke="black" points="1377.24,-179.5 1377.24,-209.5 1554.24,-209.5 1554.24,-179.5 1377.24,-179.5"/>
<text text-anchor="start" x="1385.24" y="-197.5" font-family="Helvetica,sans-Serif" font-size="10.00">panoc&#45;alm/inner/directions</text>
<text text-anchor="middle" x="1465.74" y="-186.5" font-family="Helvetica,sans-Serif" font-size="10.00">/decl/panoc&#45;direction&#45;update.hpp</text>
</a>
</g>
</g>
<!-- Node22&#45;&gt;Node27 -->
<g id="edge48" class="edge">
<title>Node22&#45;&gt;Node27</title>
<path fill="none" stroke="midnightblue" d="M731,-318.94C773.98,-311.76 829.44,-299 874.74,-277 894.66,-267.33 893.14,-254.12 913.74,-246 1007.06,-209.19 1264.03,-221.06 1363.74,-210 1364.83,-209.88 1365.92,-209.76 1367.02,-209.63"/>
<polygon fill="midnightblue" stroke="midnightblue" points="1367.53,-213.09 1377.05,-208.44 1366.7,-206.14 1367.53,-213.09"/>
</g>
<!-- Node32 -->
<g id="node32" class="node">
<title>Node32</title>
<g id="a_node32"><a xlink:href="panoc-helpers_8hpp.html" target="_top" xlink:title=" ">
<polygon fill="white" stroke="black" points="739.24,-246.5 739.24,-276.5 866.24,-276.5 866.24,-246.5 739.24,-246.5"/>
<text text-anchor="start" x="747.24" y="-264.5" font-family="Helvetica,sans-Serif" font-size="10.00">panoc&#45;alm/inner/detail</text>
<text text-anchor="middle" x="802.74" y="-253.5" font-family="Helvetica,sans-Serif" font-size="10.00">/panoc&#45;helpers.hpp</text>
</a>
</g>
</g>
<!-- Node22&#45;&gt;Node32 -->
<g id="edge42" class="edge">
<title>Node22&#45;&gt;Node32</title>
<path fill="none" stroke="midnightblue" d="M680.46,-318.87C701.44,-309.2 736.04,-293.25 763.09,-280.78"/>
<polygon fill="midnightblue" stroke="midnightblue" points="764.69,-283.89 772.31,-276.53 761.76,-277.54 764.69,-283.89"/>
</g>
<!-- Node33 -->
<g id="node33" class="node">
<title>Node33</title>
<g id="a_node33"><a xlink:title=" ">
<polygon fill="white" stroke="#bfbfbf" points="923.24,-252 923.24,-271 970.24,-271 970.24,-252 923.24,-252"/>
<text text-anchor="middle" x="946.74" y="-259" font-family="Helvetica,sans-Serif" font-size="10.00">cmath</text>
</a>
</g>
</g>
<!-- Node22&#45;&gt;Node33 -->
<g id="edge50" class="edge">
<title>Node22&#45;&gt;Node33</title>
<path fill="none" stroke="midnightblue" d="M716.32,-318.97C766.79,-310.47 843.6,-295.95 908.74,-277 911.32,-276.25 913.97,-275.4 916.62,-274.5"/>
<polygon fill="midnightblue" stroke="midnightblue" points="917.83,-277.79 926.04,-271.1 915.45,-271.2 917.83,-277.79"/>
</g>
<!-- Node23&#45;&gt;Node5 -->
<g id="edge26" class="edge">
<title>Node23&#45;&gt;Node5</title>
<path fill="none" stroke="midnightblue" d="M642.64,-246.4C630.42,-237.37 614.37,-225.51 600.84,-215.52"/>
<polygon fill="midnightblue" stroke="midnightblue" points="602.92,-212.7 592.8,-209.58 598.76,-218.33 602.92,-212.7"/>
</g>
<!-- Node23&#45;&gt;Node7 -->
<g id="edge36" class="edge">
<title>Node23&#45;&gt;Node7</title>
<path fill="none" stroke="midnightblue" d="M609.53,-246.48C565.11,-234.55 502.18,-217.64 461.17,-206.63"/>
<polygon fill="midnightblue" stroke="midnightblue" points="462.06,-203.24 451.49,-204.03 460.24,-210 462.06,-203.24"/>
</g>
<!-- Node23&#45;&gt;Node12 -->
<g id="edge39" class="edge">
<title>Node23&#45;&gt;Node12</title>
<path fill="none" stroke="midnightblue" d="M602.22,-253.87C514.13,-243.67 357.02,-223.87 334.74,-210 310.62,-194.99 293.96,-165.61 285.13,-146.53"/>
<polygon fill="midnightblue" stroke="midnightblue" points="288.25,-144.91 281.04,-137.15 281.83,-147.71 288.25,-144.91"/>
</g>
<!-- Node23&#45;&gt;Node16 -->
<g id="edge37" class="edge">
<title>Node23&#45;&gt;Node16</title>
<path fill="none" stroke="midnightblue" d="M602.07,-253.57C501.95,-241.95 299.87,-218.5 185.53,-205.23"/>
<polygon fill="midnightblue" stroke="midnightblue" points="185.76,-201.73 175.43,-204.05 184.96,-208.68 185.76,-201.73"/>
</g>
<!-- Node23&#45;&gt;Node18 -->
<g id="edge41" class="edge">
<title>Node23&#45;&gt;Node18</title>
<path fill="none" stroke="midnightblue" d="M602.15,-252.33C501.73,-238.53 308.94,-211.92 301.74,-210 299.23,-209.33 296.67,-208.53 294.11,-207.66"/>
<polygon fill="midnightblue" stroke="midnightblue" points="295.09,-204.29 284.5,-204.06 292.64,-210.85 295.09,-204.29"/>
</g>
<!-- Node24 -->
<g id="node24" class="node">
<title>Node24</title>
<g id="a_node24"><a xlink:href="lbfgs-stepsize_8hpp.html" target="_top" xlink:title=" ">
<polygon fill="white" stroke="black" points="752.24,-179.5 752.24,-209.5 871.24,-209.5 871.24,-179.5 752.24,-179.5"/>
<text text-anchor="start" x="760.24" y="-197.5" font-family="Helvetica,sans-Serif" font-size="10.00">panoc&#45;alm/inner/decl</text>
<text text-anchor="middle" x="811.74" y="-186.5" font-family="Helvetica,sans-Serif" font-size="10.00">/lbfgs&#45;stepsize.hpp</text>
</a>
</g>
</g>
<!-- Node23&#45;&gt;Node24 -->
<g id="edge25" class="edge">
<title>Node23&#45;&gt;Node24</title>
<path fill="none" stroke="midnightblue" d="M694.29,-246.4C716.5,-236.77 746.12,-223.94 770.05,-213.56"/>
<polygon fill="midnightblue" stroke="midnightblue" points="771.47,-216.76 779.25,-209.58 768.69,-210.34 771.47,-216.76"/>
</g>
<!-- Node25 -->
<g id="node25" class="node">
<title>Node25</title>
<g id="a_node25"><a xlink:href="panoc-stop-crit_8hpp.html" target="_top" xlink:title=" ">
<polygon fill="white" stroke="black" points="1202.24,-179.5 1202.24,-209.5 1321.24,-209.5 1321.24,-179.5 1202.24,-179.5"/>
<text text-anchor="start" x="1210.24" y="-197.5" font-family="Helvetica,sans-Serif" font-size="10.00">panoc&#45;alm/inner/decl</text>
<text text-anchor="middle" x="1261.74" y="-186.5" font-family="Helvetica,sans-Serif" font-size="10.00">/panoc&#45;stop&#45;crit.hpp</text>
</a>
</g>
</g>
<!-- Node23&#45;&gt;Node25 -->
<g id="edge27" class="edge">
<title>Node23&#45;&gt;Node25</title>
<path fill="none" stroke="midnightblue" d="M721.36,-247.32C724.19,-246.84 726.99,-246.4 729.74,-246 930.71,-216.89 986.64,-238.56 1191.78,-210"/>
<polygon fill="midnightblue" stroke="midnightblue" points="1192.57,-213.42 1201.98,-208.55 1191.59,-206.49 1192.57,-213.42"/>
</g>
<!-- Node23&#45;&gt;Node27 -->
<g id="edge30" class="edge">
<title>Node23&#45;&gt;Node27</title>
<path fill="none" stroke="midnightblue" d="M721.35,-247.26C724.18,-246.8 726.99,-246.37 729.74,-246 994.9,-210 1064.08,-232.29 1330.74,-210 1342.48,-209.02 1354.79,-207.87 1366.99,-206.65"/>
<polygon fill="midnightblue" stroke="midnightblue" points="1367.61,-210.1 1377.2,-205.61 1366.9,-203.14 1367.61,-210.1"/>
</g>
<!-- Node28 -->
<g id="node28" class="node">
<title>Node28</title>
<g id="a_node28"><a xlink:href="atomic__stop__signal_8hpp.html" target="_top" xlink:title=" ">
<polygon fill="white" stroke="black" points="1059.74,-179.5 1059.74,-209.5 1183.74,-209.5 1183.74,-179.5 1059.74,-179.5"/>
<text text-anchor="start" x="1067.74" y="-197.5" font-family="Helvetica,sans-Serif" font-size="10.00">panoc&#45;alm/util/atomic</text>
<text text-anchor="middle" x="1121.74" y="-186.5" font-family="Helvetica,sans-Serif" font-size="10.00">_stop_signal.hpp</text>
</a>
</g>
</g>
<!-- Node23&#45;&gt;Node28 -->
<g id="edge32" class="edge">
<title>Node23&#45;&gt;Node28</title>
<path fill="none" stroke="midnightblue" d="M721.38,-247.44C724.2,-246.93 727,-246.44 729.74,-246 868.26,-223.52 907.2,-231.98 1049.48,-210.11"/>
<polygon fill="midnightblue" stroke="midnightblue" points="1050.12,-213.55 1059.46,-208.55 1049.04,-206.63 1050.12,-213.55"/>
</g>
<!-- Node29 -->
<g id="node29" class="node">
<title>Node29</title>
<g id="a_node29"><a xlink:title=" ">
<polygon fill="white" stroke="#bfbfbf" points="1070.74,-118 1070.74,-137 1120.74,-137 1120.74,-118 1070.74,-118"/>
<text text-anchor="middle" x="1095.74" y="-125" font-family="Helvetica,sans-Serif" font-size="10.00">atomic</text>
</a>
</g>
</g>
<!-- Node23&#45;&gt;Node29 -->
<g id="edge38" class="edge">
<title>Node23&#45;&gt;Node29</title>
<path fill="none" stroke="midnightblue" d="M660.56,-246.29C659.89,-227.83 661.82,-195.98 680.74,-179 736.28,-129.15 970.37,-126.8 1060.33,-127.81"/>
<polygon fill="midnightblue" stroke="midnightblue" points="1060.51,-131.31 1070.56,-127.94 1060.61,-124.31 1060.51,-131.31"/>
</g>
<!-- Node30 -->
<g id="node30" class="node">
<title>Node30</title>
<g id="a_node30"><a xlink:href="lipschitz_8hpp.html" target="_top" xlink:title=" ">
<polygon fill="white" stroke="black" points="889.74,-185 889.74,-204 1041.74,-204 1041.74,-185 889.74,-185"/>
<text text-anchor="middle" x="965.74" y="-192" font-family="Helvetica,sans-Serif" font-size="10.00">panoc&#45;alm/util/lipschitz.hpp</text>
</a>
</g>
</g>
<!-- Node23&#45;&gt;Node30 -->
<g id="edge34" class="edge">
<title>Node23&#45;&gt;Node30</title>
<path fill="none" stroke="midnightblue" d="M721.44,-247.74C778.13,-235.61 862.4,-217.6 915.67,-206.2"/>
<polygon fill="midnightblue" stroke="midnightblue" points="916.52,-209.6 925.57,-204.09 915.06,-202.76 916.52,-209.6"/>
</g>
<!-- Node31 -->
<g id="node31" class="node">
<title>Node31</title>
<g id="a_node31"><a xlink:title=" ">
<polygon fill="white" stroke="#bfbfbf" points="689.74,-185 689.74,-204 733.74,-204 733.74,-185 689.74,-185"/>
<text text-anchor="middle" x="711.74" y="-192" font-family="Helvetica,sans-Serif" font-size="10.00">limits</text>
</a>
</g>
</g>
<!-- Node23&#45;&gt;Node31 -->
<g id="edge40" class="edge">
<title>Node23&#45;&gt;Node31</title>
<path fill="none" stroke="midnightblue" d="M672.59,-246.4C680.31,-236.36 690.71,-222.84 698.85,-212.25"/>
<polygon fill="midnightblue" stroke="midnightblue" points="701.73,-214.25 705.05,-204.19 696.18,-209.99 701.73,-214.25"/>
</g>
<!-- Node25&#45;&gt;Node19 -->
<g id="edge29" class="edge">
<title>Node25&#45;&gt;Node19</title>
<path fill="none" stroke="midnightblue" d="M1321.43,-181.33C1326.27,-180.49 1331.08,-179.7 1335.74,-179 1486.44,-156.33 1525.88,-164.6 1676.74,-143 1688.96,-141.25 1702.18,-139 1714.28,-136.8"/>
<polygon fill="midnightblue" stroke="midnightblue" points="1714.94,-140.24 1724.13,-134.97 1713.66,-133.36 1714.94,-140.24"/>
</g>
<!-- Node26 -->
<g id="node26" class="node">
<title>Node26</title>
<g id="a_node26"><a xlink:title=" ">
<polygon fill="white" stroke="#bfbfbf" points="1233.24,-118 1233.24,-137 1290.24,-137 1290.24,-118 1233.24,-118"/>
<text text-anchor="middle" x="1261.74" y="-125" font-family="Helvetica,sans-Serif" font-size="10.00">ostream</text>
</a>
</g>
</g>
<!-- Node25&#45;&gt;Node26 -->
<g id="edge28" class="edge">
<title>Node25&#45;&gt;Node26</title>
<path fill="none" stroke="midnightblue" d="M1261.74,-179.4C1261.74,-170.06 1261.74,-157.71 1261.74,-147.52"/>
<polygon fill="midnightblue" stroke="midnightblue" points="1265.24,-147.19 1261.74,-137.19 1258.24,-147.19 1265.24,-147.19"/>
</g>
<!-- Node27&#45;&gt;Node8 -->
<g id="edge31" class="edge">
<title>Node27&#45;&gt;Node8</title>
<path fill="none" stroke="midnightblue" d="M1448.6,-179.4C1435.79,-168.86 1418.31,-154.48 1405.2,-143.69"/>
<polygon fill="midnightblue" stroke="midnightblue" points="1407.25,-140.85 1397.31,-137.19 1402.8,-146.25 1407.25,-140.85"/>
</g>
<!-- Node28&#45;&gt;Node29 -->
<g id="edge33" class="edge">
<title>Node28&#45;&gt;Node29</title>
<path fill="none" stroke="midnightblue" d="M1116.1,-179.4C1112.24,-169.76 1107.1,-156.91 1102.95,-146.54"/>
<polygon fill="midnightblue" stroke="midnightblue" points="1106.18,-145.18 1099.22,-137.19 1099.68,-147.78 1106.18,-145.18"/>
</g>
<!-- Node30&#45;&gt;Node9 -->
<g id="edge35" class="edge">
<title>Node30&#45;&gt;Node9</title>
<path fill="none" stroke="midnightblue" d="M972.86,-184.79C987.49,-167.59 1022.82,-129.41 1061.74,-112 1112.41,-89.33 1274.33,-75.09 1348.71,-69.59"/>
<polygon fill="midnightblue" stroke="midnightblue" points="1349.31,-73.06 1359.03,-68.84 1348.8,-66.08 1349.31,-73.06"/>
</g>
<!-- Node32&#45;&gt;Node7 -->
<g id="edge45" class="edge">
<title>Node32&#45;&gt;Node7</title>
<path fill="none" stroke="midnightblue" d="M739.06,-247.71C735.91,-247.12 732.79,-246.55 729.74,-246 630.06,-228.13 604.66,-226.52 504.74,-210 496.46,-208.63 487.73,-207.17 479.14,-205.71"/>
<polygon fill="midnightblue" stroke="midnightblue" points="479.61,-202.24 469.17,-204.02 478.44,-209.14 479.61,-202.24"/>
</g>
<!-- Node32&#45;&gt;Node16 -->
<g id="edge46" class="edge">
<title>Node32&#45;&gt;Node16</title>
<path fill="none" stroke="midnightblue" d="M739.12,-247.38C735.95,-246.88 732.81,-246.42 729.74,-246 511.15,-216.46 454.42,-229.96 234.74,-210 218.84,-208.56 201.89,-206.84 185.6,-205.11"/>
<polygon fill="midnightblue" stroke="midnightblue" points="185.88,-201.62 175.56,-204.03 185.13,-208.58 185.88,-201.62"/>
</g>
<!-- Node32&#45;&gt;Node19 -->
<g id="edge47" class="edge">
<title>Node32&#45;&gt;Node19</title>
<path fill="none" stroke="midnightblue" d="M866.4,-246.66C867.86,-246.43 869.31,-246.21 870.74,-246 972.21,-231.28 1235.56,-248.15 1330.74,-210 1350.97,-201.89 1348.67,-187.49 1368.74,-179 1495.66,-125.29 1540.42,-163.3 1676.74,-143 1688.95,-141.18 1702.17,-138.91 1714.27,-136.71"/>
<polygon fill="midnightblue" stroke="midnightblue" points="1714.92,-140.15 1724.12,-134.89 1713.65,-133.27 1714.92,-140.15"/>
</g>
<!-- Node32&#45;&gt;Node25 -->
<g id="edge43" class="edge">
<title>Node32&#45;&gt;Node25</title>
<path fill="none" stroke="midnightblue" d="M866.53,-248.27C871.33,-247.46 876.11,-246.7 880.74,-246 1015.54,-225.72 1053.21,-232.06 1191.81,-210.05"/>
<polygon fill="midnightblue" stroke="midnightblue" points="1192.65,-213.46 1201.96,-208.41 1191.53,-206.55 1192.65,-213.46"/>
</g>
<!-- Node32&#45;&gt;Node28 -->
<g id="edge44" class="edge">
<title>Node32&#45;&gt;Node28</title>
<path fill="none" stroke="midnightblue" d="M866.45,-247.54C914.2,-237.82 981.44,-224.13 1049.37,-210.28"/>
<polygon fill="midnightblue" stroke="midnightblue" points="1050.3,-213.66 1059.4,-208.23 1048.9,-206.8 1050.3,-213.66"/>
</g>
<!-- Node34&#45;&gt;Node15 -->
<g id="edge61" class="edge">
<title>Node34&#45;&gt;Node15</title>
<path fill="none" stroke="midnightblue" d="M1696.29,-313.39C1696.58,-296.92 1695.93,-269.02 1689.74,-246 1679.59,-208.23 1657.24,-168.02 1643.74,-145.8"/>
<polygon fill="midnightblue" stroke="midnightblue" points="1646.64,-143.84 1638.4,-137.18 1640.69,-147.53 1646.64,-143.84"/>
</g>
<!-- Node34&#45;&gt;Node19 -->
<g id="edge60" class="edge">
<title>Node34&#45;&gt;Node19</title>
<path fill="none" stroke="midnightblue" d="M1750.78,-313.49C1769.28,-305.87 1787.94,-294.32 1798.74,-277 1825.34,-234.33 1790.36,-174.4 1769.8,-145.46"/>
<polygon fill="midnightblue" stroke="midnightblue" points="1772.47,-143.19 1763.72,-137.22 1766.84,-147.34 1772.47,-143.19"/>
</g>
<!-- Node35 -->
<g id="node35" class="node">
<title>Node35</title>
<g id="a_node35"><a xlink:href="decl_2lbfgs_8hpp.html" target="_top" xlink:title=" ">
<polygon fill="white" stroke="black" points="1533.24,-246.5 1533.24,-276.5 1680.24,-276.5 1680.24,-246.5 1533.24,-246.5"/>
<text text-anchor="start" x="1541.24" y="-264.5" font-family="Helvetica,sans-Serif" font-size="10.00">panoc&#45;alm/inner/directions</text>
<text text-anchor="middle" x="1606.74" y="-253.5" font-family="Helvetica,sans-Serif" font-size="10.00">/decl/lbfgs.hpp</text>
</a>
</g>
</g>
<!-- Node34&#45;&gt;Node35 -->
<g id="edge55" class="edge">
<title>Node34&#45;&gt;Node35</title>
<path fill="none" stroke="midnightblue" d="M1676.43,-313.4C1664.06,-304.37 1647.83,-292.51 1634.15,-282.52"/>
<polygon fill="midnightblue" stroke="midnightblue" points="1636.15,-279.65 1626.01,-276.58 1632.02,-285.3 1636.15,-279.65"/>
</g>
<!-- Node35&#45;&gt;Node6 -->
<g id="edge58" class="edge">
<title>Node35&#45;&gt;Node6</title>
<path fill="none" stroke="midnightblue" d="M1608.43,-246.2C1609.73,-228.8 1609.41,-199.23 1595.74,-179 1586.43,-165.23 1572.03,-154.78 1557.51,-147.06"/>
<polygon fill="midnightblue" stroke="midnightblue" points="1559.02,-143.9 1548.5,-142.6 1555.91,-150.17 1559.02,-143.9"/>
</g>
<!-- Node35&#45;&gt;Node8 -->
<g id="edge56" class="edge">
<title>Node35&#45;&gt;Node8</title>
<path fill="none" stroke="midnightblue" d="M1603.14,-246.4C1597.73,-228.08 1585.69,-196.37 1563.74,-179 1513.69,-139.4 1485.53,-162.41 1424.74,-143 1422.33,-142.23 1419.84,-141.39 1417.36,-140.52"/>
<polygon fill="midnightblue" stroke="midnightblue" points="1418.49,-137.2 1407.9,-137.05 1416.08,-143.78 1418.49,-137.2"/>
</g>
<!-- Node35&#45;&gt;Node9 -->
<g id="edge57" class="edge">
<title>Node35&#45;&gt;Node9</title>
<path fill="none" stroke="midnightblue" d="M1622.93,-246.41C1653.36,-218.28 1712.9,-154.21 1676.74,-112 1644.73,-74.65 1496.03,-68.04 1424.87,-67.05"/>
<polygon fill="midnightblue" stroke="midnightblue" points="1424.59,-63.55 1414.56,-66.94 1424.52,-70.55 1424.59,-63.55"/>
</g>
<!-- Node35&#45;&gt;Node27 -->
<g id="edge59" class="edge">
<title>Node35&#45;&gt;Node27</title>
<path fill="none" stroke="midnightblue" d="M1576.14,-246.4C1555.45,-236.86 1527.92,-224.16 1505.52,-213.84"/>
<polygon fill="midnightblue" stroke="midnightblue" points="1506.82,-210.58 1496.27,-209.58 1503.89,-216.94 1506.82,-210.58"/>
</g>
</g>
</svg>
