<?xml version="1.0" encoding="UTF-8" standalone="no"?>
<!DOCTYPE svg PUBLIC "-//W3C//DTD SVG 1.1//EN"
 "http://www.w3.org/Graphics/SVG/1.1/DTD/svg11.dtd">
<!-- Generated by graphviz version 2.43.0 (0)
 -->
<!-- Title: specialized&#45;lbfgs.hpp Pages: 1 -->
<svg width="1298pt" height="397pt"
 viewBox="0.00 0.00 1298.00 397.00" xmlns="http://www.w3.org/2000/svg" xmlns:xlink="http://www.w3.org/1999/xlink">
<g id="graph0" class="graph" transform="scale(1 1) rotate(0) translate(4 393)">
<title>specialized&#45;lbfgs.hpp</title>
<polygon fill="white" stroke="transparent" points="-4,4 -4,-393 1294,-393 1294,4 -4,4"/>
<!-- Node1 -->
<g id="node1" class="node">
<title>Node1</title>
<g id="a_node1"><a xlink:title=" ">
<polygon fill="#bfbfbf" stroke="black" points="923.5,-369.5 923.5,-388.5 1043.5,-388.5 1043.5,-369.5 923.5,-369.5"/>
<text text-anchor="middle" x="983.5" y="-376.5" font-family="Helvetica,sans-Serif" font-size="10.00">specialized&#45;lbfgs.hpp</text>
</a>
</g>
</g>
<!-- Node2 -->
<g id="node2" class="node">
<title>Node2</title>
<g id="a_node2"><a xlink:href="panoc-helpers_8hpp.html" target="_top" xlink:title=" ">
<polygon fill="white" stroke="black" points="318,-302.5 318,-332.5 445,-332.5 445,-302.5 318,-302.5"/>
<text text-anchor="start" x="326" y="-320.5" font-family="Helvetica,sans-Serif" font-size="10.00">panoc&#45;alm/inner/detail</text>
<text text-anchor="middle" x="381.5" y="-309.5" font-family="Helvetica,sans-Serif" font-size="10.00">/panoc&#45;helpers.hpp</text>
</a>
</g>
</g>
<!-- Node1&#45;&gt;Node2 -->
<g id="edge1" class="edge">
<title>Node1&#45;&gt;Node2</title>
<path fill="none" stroke="midnightblue" d="M923.3,-372.05C812.33,-361.08 575.9,-337.71 455.41,-325.8"/>
<polygon fill="midnightblue" stroke="midnightblue" points="455.47,-322.29 445.17,-324.79 454.78,-329.26 455.47,-322.29"/>
</g>
<!-- Node19 -->
<g id="node19" class="node">
<title>Node19</title>
<g id="a_node19"><a xlink:href="decl_2specialized-lbfgs_8hpp.html" target="_top" xlink:title=" ">
<polygon fill="white" stroke="black" points="910,-302.5 910,-332.5 1057,-332.5 1057,-302.5 910,-302.5"/>
<text text-anchor="start" x="918" y="-320.5" font-family="Helvetica,sans-Serif" font-size="10.00">panoc&#45;alm/inner/directions</text>
<text text-anchor="middle" x="983.5" y="-309.5" font-family="Helvetica,sans-Serif" font-size="10.00">/decl/specialized&#45;lbfgs.hpp</text>
</a>
</g>
</g>
<!-- Node1&#45;&gt;Node19 -->
<g id="edge19" class="edge">
<title>Node1&#45;&gt;Node19</title>
<path fill="none" stroke="midnightblue" d="M983.5,-369.48C983.5,-362.47 983.5,-352.19 983.5,-342.7"/>
<polygon fill="midnightblue" stroke="midnightblue" points="987,-342.52 983.5,-332.52 980,-342.52 987,-342.52"/>
</g>
<!-- Node22 -->
<g id="node22" class="node">
<title>Node22</title>
<g id="a_node22"><a xlink:href="panoc-direction-update_8hpp.html" target="_top" xlink:title=" ">
<polygon fill="white" stroke="black" points="1113,-168.5 1113,-198.5 1290,-198.5 1290,-168.5 1113,-168.5"/>
<text text-anchor="start" x="1121" y="-186.5" font-family="Helvetica,sans-Serif" font-size="10.00">panoc&#45;alm/inner/directions</text>
<text text-anchor="middle" x="1201.5" y="-175.5" font-family="Helvetica,sans-Serif" font-size="10.00">/decl/panoc&#45;direction&#45;update.hpp</text>
</a>
</g>
</g>
<!-- Node1&#45;&gt;Node22 -->
<g id="edge31" class="edge">
<title>Node1&#45;&gt;Node22</title>
<path fill="none" stroke="midnightblue" d="M1003.76,-369.36C1021.31,-361.35 1046.89,-348.37 1066.5,-333 1115.37,-294.68 1161.64,-237.73 1185.23,-206.67"/>
<polygon fill="midnightblue" stroke="midnightblue" points="1188.06,-208.73 1191.27,-198.64 1182.46,-204.53 1188.06,-208.73"/>
</g>
<!-- Node23 -->
<g id="node23" class="node">
<title>Node23</title>
<g id="a_node23"><a xlink:href="lbfgs_8hpp.html" target="_top" xlink:title=" ">
<polygon fill="white" stroke="black" points="745,-302.5 745,-332.5 892,-332.5 892,-302.5 745,-302.5"/>
<text text-anchor="start" x="753" y="-320.5" font-family="Helvetica,sans-Serif" font-size="10.00">panoc&#45;alm/inner/directions</text>
<text text-anchor="middle" x="818.5" y="-309.5" font-family="Helvetica,sans-Serif" font-size="10.00">/lbfgs.hpp</text>
</a>
</g>
</g>
<!-- Node1&#45;&gt;Node23 -->
<g id="edge26" class="edge">
<title>Node1&#45;&gt;Node23</title>
<path fill="none" stroke="midnightblue" d="M959.86,-369.48C935.74,-360.78 897.61,-347.03 867.02,-336"/>
<polygon fill="midnightblue" stroke="midnightblue" points="867.98,-332.62 857.39,-332.52 865.61,-339.21 867.98,-332.62"/>
</g>
<!-- Node24 -->
<g id="node24" class="node">
<title>Node24</title>
<g id="a_node24"><a xlink:title=" ">
<polygon fill="white" stroke="#bfbfbf" points="1114,-308 1114,-327 1161,-327 1161,-308 1114,-308"/>
<text text-anchor="middle" x="1137.5" y="-315" font-family="Helvetica,sans-Serif" font-size="10.00">cmath</text>
</a>
</g>
</g>
<!-- Node1&#45;&gt;Node24 -->
<g id="edge30" class="edge">
<title>Node1&#45;&gt;Node24</title>
<path fill="none" stroke="midnightblue" d="M1005.56,-369.48C1031.87,-359.31 1076.01,-342.26 1105.92,-330.7"/>
<polygon fill="midnightblue" stroke="midnightblue" points="1107.41,-333.88 1115.48,-327.01 1104.89,-327.35 1107.41,-333.88"/>
</g>
<!-- Node3 -->
<g id="node3" class="node">
<title>Node3</title>
<g id="a_node3"><a xlink:href="panoc-stop-crit_8hpp.html" target="_top" xlink:title=" ">
<polygon fill="white" stroke="black" points="189,-235.5 189,-265.5 308,-265.5 308,-235.5 189,-235.5"/>
<text text-anchor="start" x="197" y="-253.5" font-family="Helvetica,sans-Serif" font-size="10.00">panoc&#45;alm/inner/decl</text>
<text text-anchor="middle" x="248.5" y="-242.5" font-family="Helvetica,sans-Serif" font-size="10.00">/panoc&#45;stop&#45;crit.hpp</text>
</a>
</g>
</g>
<!-- Node2&#45;&gt;Node3 -->
<g id="edge2" class="edge">
<title>Node2&#45;&gt;Node3</title>
<path fill="none" stroke="midnightblue" d="M352.64,-302.4C333.21,-292.9 307.38,-280.28 286.31,-269.98"/>
<polygon fill="midnightblue" stroke="midnightblue" points="287.82,-266.82 277.3,-265.58 284.75,-273.11 287.82,-266.82"/>
</g>
<!-- Node5 -->
<g id="node5" class="node">
<title>Node5</title>
<g id="a_node5"><a xlink:title=" ">
<polygon fill="white" stroke="#bfbfbf" points="296,-174 296,-193 361,-193 361,-174 296,-174"/>
<text text-anchor="middle" x="328.5" y="-181" font-family="Helvetica,sans-Serif" font-size="10.00">stdexcept</text>
</a>
</g>
</g>
<!-- Node2&#45;&gt;Node5 -->
<g id="edge18" class="edge">
<title>Node2&#45;&gt;Node5</title>
<path fill="none" stroke="midnightblue" d="M373.38,-302.2C367.91,-292.24 360.77,-278.55 355.5,-266 346.6,-244.81 338.62,-219.57 333.69,-202.85"/>
<polygon fill="midnightblue" stroke="midnightblue" points="337.05,-201.86 330.91,-193.23 330.32,-203.81 337.05,-201.86"/>
</g>
<!-- Node6 -->
<g id="node6" class="node">
<title>Node6</title>
<g id="a_node6"><a xlink:href="atomic__stop__signal_8hpp.html" target="_top" xlink:title=" ">
<polygon fill="white" stroke="black" points="364.5,-235.5 364.5,-265.5 488.5,-265.5 488.5,-235.5 364.5,-235.5"/>
<text text-anchor="start" x="372.5" y="-253.5" font-family="Helvetica,sans-Serif" font-size="10.00">panoc&#45;alm/util/atomic</text>
<text text-anchor="middle" x="426.5" y="-242.5" font-family="Helvetica,sans-Serif" font-size="10.00">_stop_signal.hpp</text>
</a>
</g>
</g>
<!-- Node2&#45;&gt;Node6 -->
<g id="edge5" class="edge">
<title>Node2&#45;&gt;Node6</title>
<path fill="none" stroke="midnightblue" d="M391.26,-302.4C397.04,-294.05 404.49,-283.29 411.05,-273.81"/>
<polygon fill="midnightblue" stroke="midnightblue" points="413.94,-275.79 416.75,-265.58 408.18,-271.81 413.94,-275.79"/>
</g>
<!-- Node8 -->
<g id="node8" class="node">
<title>Node8</title>
<g id="a_node8"><a xlink:href="include_2panoc-alm_2util_2problem_8hpp.html" target="_top" xlink:title=" ">
<polygon fill="white" stroke="black" points="544.5,-241 544.5,-260 696.5,-260 696.5,-241 544.5,-241"/>
<text text-anchor="middle" x="620.5" y="-248" font-family="Helvetica,sans-Serif" font-size="10.00">panoc&#45;alm/util/problem.hpp</text>
</a>
</g>
</g>
<!-- Node2&#45;&gt;Node8 -->
<g id="edge7" class="edge">
<title>Node2&#45;&gt;Node8</title>
<path fill="none" stroke="midnightblue" d="M433.07,-302.48C476.84,-290.57 538.82,-273.72 579.33,-262.7"/>
<polygon fill="midnightblue" stroke="midnightblue" points="580.41,-266.03 589.14,-260.03 578.57,-259.28 580.41,-266.03"/>
</g>
<!-- Node17 -->
<g id="node17" class="node">
<title>Node17</title>
<g id="a_node17"><a xlink:href="solverstatus_8hpp.html" target="_top" xlink:title=" ">
<polygon fill="white" stroke="black" points="0,-241 0,-260 171,-260 171,-241 0,-241"/>
<text text-anchor="middle" x="85.5" y="-248" font-family="Helvetica,sans-Serif" font-size="10.00">panoc&#45;alm/util/solverstatus.hpp</text>
</a>
</g>
</g>
<!-- Node2&#45;&gt;Node17 -->
<g id="edge16" class="edge">
<title>Node2&#45;&gt;Node17</title>
<path fill="none" stroke="midnightblue" d="M317.64,-302.48C262.62,-290.4 184.38,-273.21 134.28,-262.21"/>
<polygon fill="midnightblue" stroke="midnightblue" points="134.86,-258.76 124.34,-260.03 133.35,-265.59 134.86,-258.76"/>
</g>
<!-- Node4 -->
<g id="node4" class="node">
<title>Node4</title>
<g id="a_node4"><a xlink:title=" ">
<polygon fill="white" stroke="#bfbfbf" points="220,-174 220,-193 277,-193 277,-174 220,-174"/>
<text text-anchor="middle" x="248.5" y="-181" font-family="Helvetica,sans-Serif" font-size="10.00">ostream</text>
</a>
</g>
</g>
<!-- Node3&#45;&gt;Node4 -->
<g id="edge3" class="edge">
<title>Node3&#45;&gt;Node4</title>
<path fill="none" stroke="midnightblue" d="M248.5,-235.4C248.5,-226.06 248.5,-213.71 248.5,-203.52"/>
<polygon fill="midnightblue" stroke="midnightblue" points="252,-203.19 248.5,-193.19 245,-203.19 252,-203.19"/>
</g>
<!-- Node3&#45;&gt;Node5 -->
<g id="edge4" class="edge">
<title>Node3&#45;&gt;Node5</title>
<path fill="none" stroke="midnightblue" d="M265.86,-235.4C278.83,-224.86 296.53,-210.48 309.81,-199.69"/>
<polygon fill="midnightblue" stroke="midnightblue" points="312.24,-202.22 317.8,-193.19 307.83,-196.78 312.24,-202.22"/>
</g>
<!-- Node7 -->
<g id="node7" class="node">
<title>Node7</title>
<g id="a_node7"><a xlink:title=" ">
<polygon fill="white" stroke="#bfbfbf" points="379.5,-174 379.5,-193 429.5,-193 429.5,-174 379.5,-174"/>
<text text-anchor="middle" x="404.5" y="-181" font-family="Helvetica,sans-Serif" font-size="10.00">atomic</text>
</a>
</g>
</g>
<!-- Node6&#45;&gt;Node7 -->
<g id="edge6" class="edge">
<title>Node6&#45;&gt;Node7</title>
<path fill="none" stroke="midnightblue" d="M421.73,-235.4C418.5,-225.86 414.21,-213.18 410.71,-202.86"/>
<polygon fill="midnightblue" stroke="midnightblue" points="413.96,-201.54 407.44,-193.19 407.33,-203.79 413.96,-201.54"/>
</g>
<!-- Node9 -->
<g id="node9" class="node">
<title>Node9</title>
<g id="a_node9"><a xlink:href="box_8hpp.html" target="_top" xlink:title=" ">
<polygon fill="white" stroke="black" points="927.5,-112.5 927.5,-131.5 983.5,-131.5 983.5,-112.5 927.5,-112.5"/>
<text text-anchor="middle" x="955.5" y="-119.5" font-family="Helvetica,sans-Serif" font-size="10.00">box.hpp</text>
</a>
</g>
</g>
<!-- Node8&#45;&gt;Node9 -->
<g id="edge8" class="edge">
<title>Node8&#45;&gt;Node9</title>
<path fill="none" stroke="midnightblue" d="M644.95,-240.99C669.07,-232.11 706.57,-216.99 736.5,-199 755.48,-187.6 755.64,-177.8 775.5,-168 821.45,-145.33 879.78,-133.46 917.37,-127.72"/>
<polygon fill="midnightblue" stroke="midnightblue" points="918.01,-131.17 927.4,-126.26 917,-124.24 918.01,-131.17"/>
</g>
<!-- Node12 -->
<g id="node12" class="node">
<title>Node12</title>
<g id="a_node12"><a xlink:title=" ">
<polygon fill="white" stroke="#bfbfbf" points="523.5,-174 523.5,-193 575.5,-193 575.5,-174 523.5,-174"/>
<text text-anchor="middle" x="549.5" y="-181" font-family="Helvetica,sans-Serif" font-size="10.00">cassert</text>
</a>
</g>
</g>
<!-- Node8&#45;&gt;Node12 -->
<g id="edge11" class="edge">
<title>Node8&#45;&gt;Node12</title>
<path fill="none" stroke="midnightblue" d="M610.92,-240.73C599.53,-230.31 580.31,-212.71 566.4,-199.97"/>
<polygon fill="midnightblue" stroke="midnightblue" points="568.66,-197.3 558.92,-193.13 563.94,-202.46 568.66,-197.3"/>
</g>
<!-- Node13 -->
<g id="node13" class="node">
<title>Node13</title>
<g id="a_node13"><a xlink:title=" ">
<polygon fill="white" stroke="#bfbfbf" points="593.5,-174 593.5,-193 643.5,-193 643.5,-174 593.5,-174"/>
<text text-anchor="middle" x="618.5" y="-181" font-family="Helvetica,sans-Serif" font-size="10.00">chrono</text>
</a>
</g>
</g>
<!-- Node8&#45;&gt;Node13 -->
<g id="edge12" class="edge">
<title>Node8&#45;&gt;Node13</title>
<path fill="none" stroke="midnightblue" d="M620.23,-240.73C619.94,-231.18 619.46,-215.62 619.08,-203.28"/>
<polygon fill="midnightblue" stroke="midnightblue" points="622.57,-203.01 618.77,-193.13 615.57,-203.23 622.57,-203.01"/>
</g>
<!-- Node14 -->
<g id="node14" class="node">
<title>Node14</title>
<g id="a_node14"><a xlink:title=" ">
<polygon fill="white" stroke="#bfbfbf" points="662,-174 662,-193 727,-193 727,-174 662,-174"/>
<text text-anchor="middle" x="694.5" y="-181" font-family="Helvetica,sans-Serif" font-size="10.00">functional</text>
</a>
</g>
</g>
<!-- Node8&#45;&gt;Node14 -->
<g id="edge13" class="edge">
<title>Node8&#45;&gt;Node14</title>
<path fill="none" stroke="midnightblue" d="M630.48,-240.73C642.35,-230.31 662.39,-212.71 676.88,-199.97"/>
<polygon fill="midnightblue" stroke="midnightblue" points="679.47,-202.36 684.68,-193.13 674.86,-197.1 679.47,-202.36"/>
</g>
<!-- Node15 -->
<g id="node15" class="node">
<title>Node15</title>
<g id="a_node15"><a xlink:title=" ">
<polygon fill="white" stroke="#bfbfbf" points="447.5,-174 447.5,-193 505.5,-193 505.5,-174 447.5,-174"/>
<text text-anchor="middle" x="476.5" y="-181" font-family="Helvetica,sans-Serif" font-size="10.00">memory</text>
</a>
</g>
</g>
<!-- Node8&#45;&gt;Node15 -->
<g id="edge14" class="edge">
<title>Node8&#45;&gt;Node15</title>
<path fill="none" stroke="midnightblue" d="M601.38,-240.87C576.74,-229.75 533.69,-210.32 505.14,-197.43"/>
<polygon fill="midnightblue" stroke="midnightblue" points="506.26,-194.09 495.7,-193.17 503.38,-200.47 506.26,-194.09"/>
</g>
<!-- Node16 -->
<g id="node16" class="node">
<title>Node16</title>
<g id="a_node16"><a xlink:title=" ">
<polygon fill="white" stroke="#bfbfbf" points="784,-174 784,-193 853,-193 853,-174 784,-174"/>
<text text-anchor="middle" x="818.5" y="-181" font-family="Helvetica,sans-Serif" font-size="10.00">type_traits</text>
</a>
</g>
</g>
<!-- Node8&#45;&gt;Node16 -->
<g id="edge15" class="edge">
<title>Node8&#45;&gt;Node16</title>
<path fill="none" stroke="midnightblue" d="M646.79,-240.87C681.73,-229.4 743.58,-209.09 782.74,-196.24"/>
<polygon fill="midnightblue" stroke="midnightblue" points="784,-199.51 792.41,-193.06 781.82,-192.86 784,-199.51"/>
</g>
<!-- Node10 -->
<g id="node10" class="node">
<title>Node10</title>
<g id="a_node10"><a xlink:href="vec_8hpp.html" target="_top" xlink:title=" ">
<polygon fill="white" stroke="black" points="956,-56.5 956,-75.5 1011,-75.5 1011,-56.5 956,-56.5"/>
<text text-anchor="middle" x="983.5" y="-63.5" font-family="Helvetica,sans-Serif" font-size="10.00">vec.hpp</text>
</a>
</g>
</g>
<!-- Node9&#45;&gt;Node10 -->
<g id="edge9" class="edge">
<title>Node9&#45;&gt;Node10</title>
<path fill="none" stroke="midnightblue" d="M960.12,-112.08C963.96,-104.69 969.52,-93.95 974.26,-84.81"/>
<polygon fill="midnightblue" stroke="midnightblue" points="977.47,-86.24 978.96,-75.75 971.25,-83.02 977.47,-86.24"/>
</g>
<!-- Node11 -->
<g id="node11" class="node">
<title>Node11</title>
<g id="a_node11"><a xlink:title=" ">
<polygon fill="white" stroke="#bfbfbf" points="949,-0.5 949,-19.5 1018,-19.5 1018,-0.5 949,-0.5"/>
<text text-anchor="middle" x="983.5" y="-7.5" font-family="Helvetica,sans-Serif" font-size="10.00">Eigen/Core</text>
</a>
</g>
</g>
<!-- Node10&#45;&gt;Node11 -->
<g id="edge10" class="edge">
<title>Node10&#45;&gt;Node11</title>
<path fill="none" stroke="midnightblue" d="M983.5,-56.08C983.5,-49.01 983.5,-38.86 983.5,-29.99"/>
<polygon fill="midnightblue" stroke="midnightblue" points="987,-29.75 983.5,-19.75 980,-29.75 987,-29.75"/>
</g>
<!-- Node18 -->
<g id="node18" class="node">
<title>Node18</title>
<g id="a_node18"><a xlink:title=" ">
<polygon fill="white" stroke="#bfbfbf" points="61.5,-174 61.5,-193 109.5,-193 109.5,-174 61.5,-174"/>
<text text-anchor="middle" x="85.5" y="-181" font-family="Helvetica,sans-Serif" font-size="10.00">iosfwd</text>
</a>
</g>
</g>
<!-- Node17&#45;&gt;Node18 -->
<g id="edge17" class="edge">
<title>Node17&#45;&gt;Node18</title>
<path fill="none" stroke="midnightblue" d="M85.5,-240.73C85.5,-231.18 85.5,-215.62 85.5,-203.28"/>
<polygon fill="midnightblue" stroke="midnightblue" points="89,-203.13 85.5,-193.13 82,-203.13 89,-203.13"/>
</g>
<!-- Node20 -->
<g id="node20" class="node">
<title>Node20</title>
<g id="a_node20"><a xlink:href="decl_2lbfgs_8hpp.html" target="_top" xlink:title=" ">
<polygon fill="white" stroke="black" points="910,-235.5 910,-265.5 1057,-265.5 1057,-235.5 910,-235.5"/>
<text text-anchor="start" x="918" y="-253.5" font-family="Helvetica,sans-Serif" font-size="10.00">panoc&#45;alm/inner/directions</text>
<text text-anchor="middle" x="983.5" y="-242.5" font-family="Helvetica,sans-Serif" font-size="10.00">/decl/lbfgs.hpp</text>
</a>
</g>
</g>
<!-- Node19&#45;&gt;Node20 -->
<g id="edge20" class="edge">
<title>Node19&#45;&gt;Node20</title>
<path fill="none" stroke="midnightblue" d="M983.5,-302.4C983.5,-294.64 983.5,-284.81 983.5,-275.86"/>
<polygon fill="midnightblue" stroke="midnightblue" points="987,-275.58 983.5,-265.58 980,-275.58 987,-275.58"/>
</g>
<!-- Node20&#45;&gt;Node9 -->
<g id="edge21" class="edge">
<title>Node20&#45;&gt;Node9</title>
<path fill="none" stroke="midnightblue" d="M944.38,-235.48C928.07,-227.47 910.79,-215.64 901.5,-199 894.78,-186.97 895.66,-180.48 901.5,-168 907.54,-155.09 919.31,-144.6 930.32,-137"/>
<polygon fill="midnightblue" stroke="midnightblue" points="932.33,-139.87 938.87,-131.54 928.56,-133.97 932.33,-139.87"/>
</g>
<!-- Node20&#45;&gt;Node10 -->
<g id="edge22" class="edge">
<title>Node20&#45;&gt;Node10</title>
<path fill="none" stroke="midnightblue" d="M1023.52,-235.38C1039.89,-227.4 1057.16,-215.62 1066.5,-199 1073.25,-186.99 1071.15,-180.97 1066.5,-168 1053.72,-132.32 1022.3,-100.21 1001.99,-82.2"/>
<polygon fill="midnightblue" stroke="midnightblue" points="1004.17,-79.46 994.31,-75.58 999.6,-84.76 1004.17,-79.46"/>
</g>
<!-- Node21 -->
<g id="node21" class="node">
<title>Node21</title>
<g id="a_node21"><a xlink:href="lbfgs-fwd_8hpp.html" target="_top" xlink:title=" ">
<polygon fill="white" stroke="black" points="910,-168.5 910,-198.5 1057,-198.5 1057,-168.5 910,-168.5"/>
<text text-anchor="start" x="918" y="-186.5" font-family="Helvetica,sans-Serif" font-size="10.00">panoc&#45;alm/inner/directions</text>
<text text-anchor="middle" x="983.5" y="-175.5" font-family="Helvetica,sans-Serif" font-size="10.00">/decl/lbfgs&#45;fwd.hpp</text>
</a>
</g>
</g>
<!-- Node20&#45;&gt;Node21 -->
<g id="edge23" class="edge">
<title>Node20&#45;&gt;Node21</title>
<path fill="none" stroke="midnightblue" d="M983.5,-235.4C983.5,-227.64 983.5,-217.81 983.5,-208.86"/>
<polygon fill="midnightblue" stroke="midnightblue" points="987,-208.58 983.5,-198.58 980,-208.58 987,-208.58"/>
</g>
<!-- Node20&#45;&gt;Node22 -->
<g id="edge24" class="edge">
<title>Node20&#45;&gt;Node22</title>
<path fill="none" stroke="midnightblue" d="M1030.53,-235.48C1063.94,-225.51 1108.98,-212.09 1144.44,-201.51"/>
<polygon fill="midnightblue" stroke="midnightblue" points="1145.59,-204.82 1154.17,-198.61 1143.59,-198.11 1145.59,-204.82"/>
</g>
<!-- Node22&#45;&gt;Node9 -->
<g id="edge25" class="edge">
<title>Node22&#45;&gt;Node9</title>
<path fill="none" stroke="midnightblue" d="M1143.51,-168.47C1097.25,-157.29 1033.78,-141.93 993.7,-132.24"/>
<polygon fill="midnightblue" stroke="midnightblue" points="994.34,-128.79 983.8,-129.84 992.69,-135.6 994.34,-128.79"/>
</g>
<!-- Node23&#45;&gt;Node5 -->
<g id="edge28" class="edge">
<title>Node23&#45;&gt;Node5</title>
<path fill="none" stroke="midnightblue" d="M744.84,-313.5C685.87,-308.76 602.29,-296.67 535.5,-266 515.69,-256.91 516.83,-245.07 497.5,-235 445.47,-207.89 426.47,-216.58 370.5,-199 367.74,-198.13 364.89,-197.21 362.03,-196.26"/>
<polygon fill="midnightblue" stroke="midnightblue" points="363,-192.9 352.41,-193.01 360.76,-199.53 363,-192.9"/>
</g>
<!-- Node23&#45;&gt;Node16 -->
<g id="edge29" class="edge">
<title>Node23&#45;&gt;Node16</title>
<path fill="none" stroke="midnightblue" d="M818.5,-302.37C818.5,-278.5 818.5,-230.18 818.5,-203.41"/>
<polygon fill="midnightblue" stroke="midnightblue" points="822,-203.1 818.5,-193.1 815,-203.1 822,-203.1"/>
</g>
<!-- Node23&#45;&gt;Node20 -->
<g id="edge27" class="edge">
<title>Node23&#45;&gt;Node20</title>
<path fill="none" stroke="midnightblue" d="M854.3,-302.4C878.95,-292.69 911.89,-279.71 938.34,-269.29"/>
<polygon fill="midnightblue" stroke="midnightblue" points="939.75,-272.5 947.77,-265.58 937.18,-265.99 939.75,-272.5"/>
</g>
</g>
</svg>
