<?xml version="1.0" encoding="UTF-8" standalone="no"?>
<!DOCTYPE svg PUBLIC "-//W3C//DTD SVG 1.1//EN"
 "http://www.w3.org/Graphics/SVG/1.1/DTD/svg11.dtd">
<!-- Generated by graphviz version 2.43.0 (0)
 -->
<!-- Title: CUTEstLoader.cpp Pages: 1 -->
<svg width="784pt" height="319pt"
 viewBox="0.00 0.00 784.00 319.00" xmlns="http://www.w3.org/2000/svg" xmlns:xlink="http://www.w3.org/1999/xlink">
<g id="graph0" class="graph" transform="scale(1 1) rotate(0) translate(4 315)">
<title>CUTEstLoader.cpp</title>
<polygon fill="white" stroke="transparent" points="-4,4 -4,-315 780,-315 780,4 -4,4"/>
<!-- Node1 -->
<g id="node1" class="node">
<title>Node1</title>
<g id="a_node1"><a xlink:title=" ">
<polygon fill="#bfbfbf" stroke="black" points="446.5,-291.5 446.5,-310.5 550.5,-310.5 550.5,-291.5 446.5,-291.5"/>
<text text-anchor="middle" x="498.5" y="-298.5" font-family="Helvetica,sans-Serif" font-size="10.00">CUTEstLoader.cpp</text>
</a>
</g>
</g>
<!-- Node2 -->
<g id="node2" class="node">
<title>Node2</title>
<g id="a_node2"><a xlink:href="../../da/d1e/CUTEstLoader_8hpp.html" target="_top" xlink:title=" ">
<polygon fill="white" stroke="black" points="204,-224.5 204,-254.5 343,-254.5 343,-224.5 204,-224.5"/>
<text text-anchor="start" x="212" y="-242.5" font-family="Helvetica,sans-Serif" font-size="10.00">panoc&#45;alm/interop/cutest</text>
<text text-anchor="middle" x="273.5" y="-231.5" font-family="Helvetica,sans-Serif" font-size="10.00">/CUTEstLoader.hpp</text>
</a>
</g>
</g>
<!-- Node1&#45;&gt;Node2 -->
<g id="edge1" class="edge">
<title>Node1&#45;&gt;Node2</title>
<path fill="none" stroke="midnightblue" d="M466.26,-291.48C432.51,-282.55 378.66,-268.31 336.44,-257.14"/>
<polygon fill="midnightblue" stroke="midnightblue" points="337.09,-253.7 326.53,-254.52 335.3,-260.46 337.09,-253.7"/>
</g>
<!-- Node11 -->
<g id="node11" class="node">
<title>Node11</title>
<g id="a_node11"><a xlink:title=" ">
<polygon fill="white" stroke="#bfbfbf" points="349.5,-168.5 349.5,-187.5 393.5,-187.5 393.5,-168.5 349.5,-168.5"/>
<text text-anchor="middle" x="371.5" y="-175.5" font-family="Helvetica,sans-Serif" font-size="10.00">string</text>
</a>
</g>
</g>
<!-- Node1&#45;&gt;Node11 -->
<g id="edge15" class="edge">
<title>Node1&#45;&gt;Node11</title>
<path fill="none" stroke="midnightblue" d="M454.26,-291.44C432.16,-284.98 406.73,-273.86 390.5,-255 376.81,-239.08 372.72,-214.73 371.63,-197.9"/>
<polygon fill="midnightblue" stroke="midnightblue" points="375.12,-197.52 371.28,-187.64 368.12,-197.76 375.12,-197.52"/>
</g>
<!-- Node12 -->
<g id="node12" class="node">
<title>Node12</title>
<g id="a_node12"><a xlink:title=" ">
<polygon fill="white" stroke="#bfbfbf" points="399.5,-230 399.5,-249 455.5,-249 455.5,-230 399.5,-230"/>
<text text-anchor="middle" x="427.5" y="-237" font-family="Helvetica,sans-Serif" font-size="10.00">cutest.h</text>
</a>
</g>
</g>
<!-- Node1&#45;&gt;Node12 -->
<g id="edge11" class="edge">
<title>Node1&#45;&gt;Node12</title>
<path fill="none" stroke="midnightblue" d="M488.33,-291.48C477.15,-282.11 458.98,-266.88 445.41,-255.51"/>
<polygon fill="midnightblue" stroke="midnightblue" points="447.57,-252.75 437.65,-249.01 443.07,-258.11 447.57,-252.75"/>
</g>
<!-- Node13 -->
<g id="node13" class="node">
<title>Node13</title>
<g id="a_node13"><a xlink:title=" ">
<polygon fill="white" stroke="#bfbfbf" points="473.5,-230 473.5,-249 523.5,-249 523.5,-230 473.5,-230"/>
<text text-anchor="middle" x="498.5" y="-237" font-family="Helvetica,sans-Serif" font-size="10.00">dlfcn.h</text>
</a>
</g>
</g>
<!-- Node1&#45;&gt;Node13 -->
<g id="edge12" class="edge">
<title>Node1&#45;&gt;Node13</title>
<path fill="none" stroke="midnightblue" d="M498.5,-291.48C498.5,-283.08 498.5,-269.98 498.5,-259.16"/>
<polygon fill="midnightblue" stroke="midnightblue" points="502,-259.01 498.5,-249.01 495,-259.01 502,-259.01"/>
</g>
<!-- Node14 -->
<g id="node14" class="node">
<title>Node14</title>
<g id="a_node14"><a xlink:title=" ">
<polygon fill="white" stroke="#bfbfbf" points="541.5,-230 541.5,-249 601.5,-249 601.5,-230 541.5,-230"/>
<text text-anchor="middle" x="571.5" y="-237" font-family="Helvetica,sans-Serif" font-size="10.00">iostream</text>
</a>
</g>
</g>
<!-- Node1&#45;&gt;Node14 -->
<g id="edge13" class="edge">
<title>Node1&#45;&gt;Node14</title>
<path fill="none" stroke="midnightblue" d="M508.96,-291.48C520.45,-282.11 539.13,-266.88 553.09,-255.51"/>
<polygon fill="midnightblue" stroke="midnightblue" points="555.52,-258.04 561.06,-249.01 551.1,-252.61 555.52,-258.04"/>
</g>
<!-- Node15 -->
<g id="node15" class="node">
<title>Node15</title>
<g id="a_node15"><a xlink:title=" ">
<polygon fill="white" stroke="#bfbfbf" points="620,-230 620,-249 685,-249 685,-230 620,-230"/>
<text text-anchor="middle" x="652.5" y="-237" font-family="Helvetica,sans-Serif" font-size="10.00">stdexcept</text>
</a>
</g>
</g>
<!-- Node1&#45;&gt;Node15 -->
<g id="edge14" class="edge">
<title>Node1&#45;&gt;Node15</title>
<path fill="none" stroke="midnightblue" d="M520.56,-291.48C546.87,-281.31 591.01,-264.26 620.92,-252.7"/>
<polygon fill="midnightblue" stroke="midnightblue" points="622.41,-255.88 630.48,-249.01 619.89,-249.35 622.41,-255.88"/>
</g>
<!-- Node16 -->
<g id="node16" class="node">
<title>Node16</title>
<g id="a_node16"><a xlink:title=" ">
<polygon fill="white" stroke="#bfbfbf" points="703,-230 703,-249 776,-249 776,-230 703,-230"/>
<text text-anchor="middle" x="739.5" y="-237" font-family="Helvetica,sans-Serif" font-size="10.00">string_view</text>
</a>
</g>
</g>
<!-- Node1&#45;&gt;Node16 -->
<g id="edge16" class="edge">
<title>Node1&#45;&gt;Node16</title>
<path fill="none" stroke="midnightblue" d="M540.44,-291.46C580.3,-283.09 641.82,-269.51 694.5,-255 697.85,-254.08 701.31,-253.07 704.77,-252.02"/>
<polygon fill="midnightblue" stroke="midnightblue" points="705.89,-255.34 714.39,-249.01 703.8,-248.66 705.89,-255.34"/>
</g>
<!-- Node3 -->
<g id="node3" class="node">
<title>Node3</title>
<g id="a_node3"><a xlink:href="../../d5/d37/problem_8hpp.html" target="_top" xlink:title=" ">
<polygon fill="white" stroke="black" points="37.5,-168.5 37.5,-187.5 189.5,-187.5 189.5,-168.5 37.5,-168.5"/>
<text text-anchor="middle" x="113.5" y="-175.5" font-family="Helvetica,sans-Serif" font-size="10.00">panoc&#45;alm/util/problem.hpp</text>
</a>
</g>
</g>
<!-- Node2&#45;&gt;Node3 -->
<g id="edge2" class="edge">
<title>Node2&#45;&gt;Node3</title>
<path fill="none" stroke="midnightblue" d="M235.58,-224.4C208.38,-214.28 172.1,-200.79 146.17,-191.15"/>
<polygon fill="midnightblue" stroke="midnightblue" points="147.37,-187.86 136.78,-187.66 144.93,-194.42 147.37,-187.86"/>
</g>
<!-- Node9 -->
<g id="node9" class="node">
<title>Node9</title>
<g id="a_node9"><a xlink:title=" ">
<polygon fill="white" stroke="#bfbfbf" points="207.5,-168.5 207.5,-187.5 255.5,-187.5 255.5,-168.5 207.5,-168.5"/>
<text text-anchor="middle" x="231.5" y="-175.5" font-family="Helvetica,sans-Serif" font-size="10.00">iosfwd</text>
</a>
</g>
</g>
<!-- Node2&#45;&gt;Node9 -->
<g id="edge8" class="edge">
<title>Node2&#45;&gt;Node9</title>
<path fill="none" stroke="midnightblue" d="M263.55,-224.4C257.51,-215.84 249.76,-204.87 243.4,-195.86"/>
<polygon fill="midnightblue" stroke="midnightblue" points="246.24,-193.81 237.61,-187.66 240.52,-197.85 246.24,-193.81"/>
</g>
<!-- Node10 -->
<g id="node10" class="node">
<title>Node10</title>
<g id="a_node10"><a xlink:title=" ">
<polygon fill="white" stroke="#bfbfbf" points="273.5,-168.5 273.5,-187.5 331.5,-187.5 331.5,-168.5 273.5,-168.5"/>
<text text-anchor="middle" x="302.5" y="-175.5" font-family="Helvetica,sans-Serif" font-size="10.00">memory</text>
</a>
</g>
</g>
<!-- Node2&#45;&gt;Node10 -->
<g id="edge9" class="edge">
<title>Node2&#45;&gt;Node10</title>
<path fill="none" stroke="midnightblue" d="M280.37,-224.4C284.41,-216.11 289.56,-205.55 293.87,-196.71"/>
<polygon fill="midnightblue" stroke="midnightblue" points="297.05,-198.18 298.28,-187.66 290.75,-195.11 297.05,-198.18"/>
</g>
<!-- Node2&#45;&gt;Node11 -->
<g id="edge10" class="edge">
<title>Node2&#45;&gt;Node11</title>
<path fill="none" stroke="midnightblue" d="M296.72,-224.4C312.29,-214.95 332.7,-202.56 348.26,-193.11"/>
<polygon fill="midnightblue" stroke="midnightblue" points="350.51,-195.84 357.24,-187.66 346.88,-189.86 350.51,-195.84"/>
</g>
<!-- Node4 -->
<g id="node4" class="node">
<title>Node4</title>
<g id="a_node4"><a xlink:href="../../d7/de4/box_8hpp.html" target="_top" xlink:title=" ">
<polygon fill="white" stroke="black" points="6.5,-112.5 6.5,-131.5 62.5,-131.5 62.5,-112.5 6.5,-112.5"/>
<text text-anchor="middle" x="34.5" y="-119.5" font-family="Helvetica,sans-Serif" font-size="10.00">box.hpp</text>
</a>
</g>
</g>
<!-- Node3&#45;&gt;Node4 -->
<g id="edge3" class="edge">
<title>Node3&#45;&gt;Node4</title>
<path fill="none" stroke="midnightblue" d="M100.81,-168.32C88.6,-159.98 69.92,-147.21 55.5,-137.35"/>
<polygon fill="midnightblue" stroke="midnightblue" points="57.39,-134.41 47.16,-131.65 53.44,-140.19 57.39,-134.41"/>
</g>
<!-- Node7 -->
<g id="node7" class="node">
<title>Node7</title>
<g id="a_node7"><a xlink:title=" ">
<polygon fill="white" stroke="#bfbfbf" points="81,-112.5 81,-131.5 146,-131.5 146,-112.5 81,-112.5"/>
<text text-anchor="middle" x="113.5" y="-119.5" font-family="Helvetica,sans-Serif" font-size="10.00">functional</text>
</a>
</g>
</g>
<!-- Node3&#45;&gt;Node7 -->
<g id="edge6" class="edge">
<title>Node3&#45;&gt;Node7</title>
<path fill="none" stroke="midnightblue" d="M113.5,-168.08C113.5,-161.01 113.5,-150.86 113.5,-141.99"/>
<polygon fill="midnightblue" stroke="midnightblue" points="117,-141.75 113.5,-131.75 110,-141.75 117,-141.75"/>
</g>
<!-- Node8 -->
<g id="node8" class="node">
<title>Node8</title>
<g id="a_node8"><a xlink:title=" ">
<polygon fill="white" stroke="#bfbfbf" points="164,-112.5 164,-131.5 233,-131.5 233,-112.5 164,-112.5"/>
<text text-anchor="middle" x="198.5" y="-119.5" font-family="Helvetica,sans-Serif" font-size="10.00">type_traits</text>
</a>
</g>
</g>
<!-- Node3&#45;&gt;Node8 -->
<g id="edge7" class="edge">
<title>Node3&#45;&gt;Node8</title>
<path fill="none" stroke="midnightblue" d="M127.16,-168.32C140.42,-159.9 160.77,-146.97 176.35,-137.07"/>
<polygon fill="midnightblue" stroke="midnightblue" points="178.31,-139.97 184.88,-131.65 174.56,-134.06 178.31,-139.97"/>
</g>
<!-- Node5 -->
<g id="node5" class="node">
<title>Node5</title>
<g id="a_node5"><a xlink:href="../../d7/d7c/vec_8hpp.html" target="_top" xlink:title=" ">
<polygon fill="white" stroke="black" points="7,-56.5 7,-75.5 62,-75.5 62,-56.5 7,-56.5"/>
<text text-anchor="middle" x="34.5" y="-63.5" font-family="Helvetica,sans-Serif" font-size="10.00">vec.hpp</text>
</a>
</g>
</g>
<!-- Node4&#45;&gt;Node5 -->
<g id="edge4" class="edge">
<title>Node4&#45;&gt;Node5</title>
<path fill="none" stroke="midnightblue" d="M34.5,-112.08C34.5,-105.01 34.5,-94.86 34.5,-85.99"/>
<polygon fill="midnightblue" stroke="midnightblue" points="38,-85.75 34.5,-75.75 31,-85.75 38,-85.75"/>
</g>
<!-- Node6 -->
<g id="node6" class="node">
<title>Node6</title>
<g id="a_node6"><a xlink:title=" ">
<polygon fill="white" stroke="#bfbfbf" points="0,-0.5 0,-19.5 69,-19.5 69,-0.5 0,-0.5"/>
<text text-anchor="middle" x="34.5" y="-7.5" font-family="Helvetica,sans-Serif" font-size="10.00">Eigen/Core</text>
</a>
</g>
</g>
<!-- Node5&#45;&gt;Node6 -->
<g id="edge5" class="edge">
<title>Node5&#45;&gt;Node6</title>
<path fill="none" stroke="midnightblue" d="M34.5,-56.08C34.5,-49.01 34.5,-38.86 34.5,-29.99"/>
<polygon fill="midnightblue" stroke="midnightblue" points="38,-29.75 34.5,-19.75 31,-29.75 38,-29.75"/>
</g>
</g>
</svg>
