<?xml version="1.0" encoding="UTF-8" standalone="no"?>
<!DOCTYPE svg PUBLIC "-//W3C//DTD SVG 1.1//EN"
 "http://www.w3.org/Graphics/SVG/1.1/DTD/svg11.dtd">
<!-- Generated by graphviz version 2.43.0 (0)
 -->
<!-- Title: panoc.hpp Pages: 1 -->
<svg width="1291pt" height="341pt"
 viewBox="0.00 0.00 1291.00 341.00" xmlns="http://www.w3.org/2000/svg" xmlns:xlink="http://www.w3.org/1999/xlink">
<g id="graph0" class="graph" transform="scale(1 1) rotate(0) translate(4 337)">
<title>panoc.hpp</title>
<polygon fill="white" stroke="transparent" points="-4,4 -4,-337 1287,-337 1287,4 -4,4"/>
<!-- Node1 -->
<g id="node1" class="node">
<title>Node1</title>
<g id="a_node1"><a xlink:title=" ">
<polygon fill="#bfbfbf" stroke="black" points="885.5,-313.5 885.5,-332.5 952.5,-332.5 952.5,-313.5 885.5,-313.5"/>
<text text-anchor="middle" x="919" y="-320.5" font-family="Helvetica,sans-Serif" font-size="10.00">panoc.hpp</text>
</a>
</g>
</g>
<!-- Node2 -->
<g id="node2" class="node">
<title>Node2</title>
<g id="a_node2"><a xlink:href="../../d2/da2/decl_2panoc_8hpp.html" target="_top" xlink:title=" ">
<polygon fill="white" stroke="black" points="610.5,-246.5 610.5,-276.5 729.5,-276.5 729.5,-246.5 610.5,-246.5"/>
<text text-anchor="start" x="618.5" y="-264.5" font-family="Helvetica,sans-Serif" font-size="10.00">panoc&#45;alm/inner/decl</text>
<text text-anchor="middle" x="670" y="-253.5" font-family="Helvetica,sans-Serif" font-size="10.00">/panoc.hpp</text>
</a>
</g>
</g>
<!-- Node1&#45;&gt;Node2 -->
<g id="edge1" class="edge">
<title>Node1&#45;&gt;Node2</title>
<path fill="none" stroke="midnightblue" d="M885.42,-313.98C847.99,-305.03 786.46,-290.33 738.72,-278.92"/>
<polygon fill="midnightblue" stroke="midnightblue" points="739.3,-275.46 728.76,-276.54 737.67,-282.27 739.3,-275.46"/>
</g>
<!-- Node18 -->
<g id="node18" class="node">
<title>Node18</title>
<g id="a_node18"><a xlink:href="../../da/d9f/anderson-helpers_8hpp.html" target="_top" xlink:title=" ">
<polygon fill="white" stroke="black" points="747.5,-246.5 747.5,-276.5 874.5,-276.5 874.5,-246.5 747.5,-246.5"/>
<text text-anchor="start" x="755.5" y="-264.5" font-family="Helvetica,sans-Serif" font-size="10.00">panoc&#45;alm/inner/detail</text>
<text text-anchor="middle" x="811" y="-253.5" font-family="Helvetica,sans-Serif" font-size="10.00">/anderson&#45;helpers.hpp</text>
</a>
</g>
</g>
<!-- Node1&#45;&gt;Node18 -->
<g id="edge18" class="edge">
<title>Node1&#45;&gt;Node18</title>
<path fill="none" stroke="midnightblue" d="M903.53,-313.48C888.42,-305.15 864.92,-292.21 845.39,-281.45"/>
<polygon fill="midnightblue" stroke="midnightblue" points="846.9,-278.28 836.45,-276.52 843.52,-284.41 846.9,-278.28"/>
</g>
<!-- Node24 -->
<g id="node24" class="node">
<title>Node24</title>
<g id="a_node24"><a xlink:href="../../d8/df1/panoc-helpers_8hpp.html" target="_top" xlink:title=" ">
<polygon fill="white" stroke="black" points="219.5,-246.5 219.5,-276.5 346.5,-276.5 346.5,-246.5 219.5,-246.5"/>
<text text-anchor="start" x="227.5" y="-264.5" font-family="Helvetica,sans-Serif" font-size="10.00">panoc&#45;alm/inner/detail</text>
<text text-anchor="middle" x="283" y="-253.5" font-family="Helvetica,sans-Serif" font-size="10.00">/panoc&#45;helpers.hpp</text>
</a>
</g>
</g>
<!-- Node1&#45;&gt;Node24 -->
<g id="edge26" class="edge">
<title>Node1&#45;&gt;Node24</title>
<path fill="none" stroke="midnightblue" d="M885.35,-319.4C803.33,-312.98 586.54,-295.56 406,-277 390.06,-275.36 372.97,-273.45 356.76,-271.56"/>
<polygon fill="midnightblue" stroke="midnightblue" points="357.14,-268.08 346.8,-270.39 356.32,-275.03 357.14,-268.08"/>
</g>
<!-- Node25 -->
<g id="node25" class="node">
<title>Node25</title>
<g id="a_node25"><a xlink:href="../../d3/dfa/panoc-direction-update_8hpp.html" target="_top" xlink:title=" ">
<polygon fill="white" stroke="black" points="170.5,-179.5 170.5,-209.5 347.5,-209.5 347.5,-179.5 170.5,-179.5"/>
<text text-anchor="start" x="178.5" y="-197.5" font-family="Helvetica,sans-Serif" font-size="10.00">panoc&#45;alm/inner/directions</text>
<text text-anchor="middle" x="259" y="-186.5" font-family="Helvetica,sans-Serif" font-size="10.00">/decl/panoc&#45;direction&#45;update.hpp</text>
</a>
</g>
</g>
<!-- Node1&#45;&gt;Node25 -->
<g id="edge28" class="edge">
<title>Node1&#45;&gt;Node25</title>
<path fill="none" stroke="midnightblue" d="M885.05,-318.22C826.85,-311.52 704.4,-296.39 602,-277 502.98,-258.25 389.45,-229.9 321.03,-212.06"/>
<polygon fill="midnightblue" stroke="midnightblue" points="321.83,-208.65 311.27,-209.51 320.06,-215.43 321.83,-208.65"/>
</g>
<!-- Node26 -->
<g id="node26" class="node">
<title>Node26</title>
<g id="a_node26"><a xlink:title=" ">
<polygon fill="white" stroke="#bfbfbf" points="893,-252 893,-271 945,-271 945,-252 893,-252"/>
<text text-anchor="middle" x="919" y="-259" font-family="Helvetica,sans-Serif" font-size="10.00">cassert</text>
</a>
</g>
</g>
<!-- Node1&#45;&gt;Node26 -->
<g id="edge30" class="edge">
<title>Node1&#45;&gt;Node26</title>
<path fill="none" stroke="midnightblue" d="M919,-313.48C919,-305.08 919,-291.98 919,-281.16"/>
<polygon fill="midnightblue" stroke="midnightblue" points="922.5,-281.01 919,-271.01 915.5,-281.01 922.5,-281.01"/>
</g>
<!-- Node27 -->
<g id="node27" class="node">
<title>Node27</title>
<g id="a_node27"><a xlink:title=" ">
<polygon fill="white" stroke="#bfbfbf" points="963.5,-252 963.5,-271 1010.5,-271 1010.5,-252 963.5,-252"/>
<text text-anchor="middle" x="987" y="-259" font-family="Helvetica,sans-Serif" font-size="10.00">cmath</text>
</a>
</g>
</g>
<!-- Node1&#45;&gt;Node27 -->
<g id="edge31" class="edge">
<title>Node1&#45;&gt;Node27</title>
<path fill="none" stroke="midnightblue" d="M928.74,-313.48C939.35,-304.2 956.52,-289.17 969.48,-277.83"/>
<polygon fill="midnightblue" stroke="midnightblue" points="972.05,-280.23 977.28,-271.01 967.44,-274.96 972.05,-280.23"/>
</g>
<!-- Node28 -->
<g id="node28" class="node">
<title>Node28</title>
<g id="a_node28"><a xlink:title=" ">
<polygon fill="white" stroke="#bfbfbf" points="1029,-252 1029,-271 1085,-271 1085,-252 1029,-252"/>
<text text-anchor="middle" x="1057" y="-259" font-family="Helvetica,sans-Serif" font-size="10.00">iomanip</text>
</a>
</g>
</g>
<!-- Node1&#45;&gt;Node28 -->
<g id="edge32" class="edge">
<title>Node1&#45;&gt;Node28</title>
<path fill="none" stroke="midnightblue" d="M938.77,-313.48C962.14,-303.4 1001.21,-286.55 1028,-275"/>
<polygon fill="midnightblue" stroke="midnightblue" points="1029.47,-278.18 1037.26,-271.01 1026.7,-271.75 1029.47,-278.18"/>
</g>
<!-- Node29 -->
<g id="node29" class="node">
<title>Node29</title>
<g id="a_node29"><a xlink:title=" ">
<polygon fill="white" stroke="#bfbfbf" points="1103,-252 1103,-271 1163,-271 1163,-252 1103,-252"/>
<text text-anchor="middle" x="1133" y="-259" font-family="Helvetica,sans-Serif" font-size="10.00">iostream</text>
</a>
</g>
</g>
<!-- Node1&#45;&gt;Node29 -->
<g id="edge33" class="edge">
<title>Node1&#45;&gt;Node29</title>
<path fill="none" stroke="midnightblue" d="M952.51,-314.48C987.96,-306.27 1045.36,-292.25 1094,-277 1096.56,-276.2 1099.2,-275.32 1101.84,-274.41"/>
<polygon fill="midnightblue" stroke="midnightblue" points="1103.04,-277.7 1111.27,-271.03 1100.68,-271.11 1103.04,-277.7"/>
</g>
<!-- Node30 -->
<g id="node30" class="node">
<title>Node30</title>
<g id="a_node30"><a xlink:title=" ">
<polygon fill="white" stroke="#bfbfbf" points="1181.5,-252 1181.5,-271 1246.5,-271 1246.5,-252 1181.5,-252"/>
<text text-anchor="middle" x="1214" y="-259" font-family="Helvetica,sans-Serif" font-size="10.00">stdexcept</text>
</a>
</g>
</g>
<!-- Node1&#45;&gt;Node30 -->
<g id="edge34" class="edge">
<title>Node1&#45;&gt;Node30</title>
<path fill="none" stroke="midnightblue" d="M952.51,-317.74C1001.29,-311.16 1094.49,-297.14 1172,-277 1175.04,-276.21 1178.17,-275.31 1181.29,-274.34"/>
<polygon fill="midnightblue" stroke="midnightblue" points="1182.68,-277.57 1191.09,-271.13 1180.5,-270.92 1182.68,-277.57"/>
</g>
<!-- Node3 -->
<g id="node3" class="node">
<title>Node3</title>
<g id="a_node3"><a xlink:href="../../d4/d83/panoc-fwd_8hpp.html" target="_top" xlink:title=" ">
<polygon fill="white" stroke="black" points="365.5,-179.5 365.5,-209.5 484.5,-209.5 484.5,-179.5 365.5,-179.5"/>
<text text-anchor="start" x="373.5" y="-197.5" font-family="Helvetica,sans-Serif" font-size="10.00">panoc&#45;alm/inner/decl</text>
<text text-anchor="middle" x="425" y="-186.5" font-family="Helvetica,sans-Serif" font-size="10.00">/panoc&#45;fwd.hpp</text>
</a>
</g>
</g>
<!-- Node2&#45;&gt;Node3 -->
<g id="edge2" class="edge">
<title>Node2&#45;&gt;Node3</title>
<path fill="none" stroke="midnightblue" d="M617.14,-246.48C579.27,-236.43 528.11,-222.86 488.1,-212.24"/>
<polygon fill="midnightblue" stroke="midnightblue" points="488.75,-208.79 478.19,-209.61 486.96,-215.56 488.75,-208.79"/>
</g>
<!-- Node5 -->
<g id="node5" class="node">
<title>Node5</title>
<g id="a_node5"><a xlink:href="../../d4/d52/atomic__stop__signal_8hpp.html" target="_top" xlink:title=" ">
<polygon fill="white" stroke="black" points="503,-179.5 503,-209.5 627,-209.5 627,-179.5 503,-179.5"/>
<text text-anchor="start" x="511" y="-197.5" font-family="Helvetica,sans-Serif" font-size="10.00">panoc&#45;alm/util/atomic</text>
<text text-anchor="middle" x="565" y="-186.5" font-family="Helvetica,sans-Serif" font-size="10.00">_stop_signal.hpp</text>
</a>
</g>
</g>
<!-- Node2&#45;&gt;Node5 -->
<g id="edge4" class="edge">
<title>Node2&#45;&gt;Node5</title>
<path fill="none" stroke="midnightblue" d="M647.22,-246.4C632.36,-237.2 612.76,-225.07 596.43,-214.95"/>
<polygon fill="midnightblue" stroke="midnightblue" points="598.08,-211.86 587.74,-209.58 594.4,-217.82 598.08,-211.86"/>
</g>
<!-- Node6 -->
<g id="node6" class="node">
<title>Node6</title>
<g id="a_node6"><a xlink:title=" ">
<polygon fill="white" stroke="#bfbfbf" points="619,-118 619,-137 669,-137 669,-118 619,-118"/>
<text text-anchor="middle" x="644" y="-125" font-family="Helvetica,sans-Serif" font-size="10.00">atomic</text>
</a>
</g>
</g>
<!-- Node2&#45;&gt;Node6 -->
<g id="edge14" class="edge">
<title>Node2&#45;&gt;Node6</title>
<path fill="none" stroke="midnightblue" d="M683.39,-246.21C697.04,-229.82 714.8,-202.21 704,-179 696.81,-163.55 682.32,-151.14 669.37,-142.49"/>
<polygon fill="midnightblue" stroke="midnightblue" points="671.11,-139.44 660.77,-137.11 667.39,-145.38 671.11,-139.44"/>
</g>
<!-- Node7 -->
<g id="node7" class="node">
<title>Node7</title>
<g id="a_node7"><a xlink:href="../../d5/d37/problem_8hpp.html" target="_top" xlink:title=" ">
<polygon fill="white" stroke="black" points="0,-185 0,-204 152,-204 152,-185 0,-185"/>
<text text-anchor="middle" x="76" y="-192" font-family="Helvetica,sans-Serif" font-size="10.00">panoc&#45;alm/util/problem.hpp</text>
</a>
</g>
</g>
<!-- Node2&#45;&gt;Node7 -->
<g id="edge6" class="edge">
<title>Node2&#45;&gt;Node7</title>
<path fill="none" stroke="midnightblue" d="M610.29,-255.94C515.04,-248.36 322.93,-231.82 161,-210 151.85,-208.77 142.17,-207.29 132.75,-205.75"/>
<polygon fill="midnightblue" stroke="midnightblue" points="133.11,-202.26 122.67,-204.07 131.96,-209.17 133.11,-202.26"/>
</g>
<!-- Node13 -->
<g id="node13" class="node">
<title>Node13</title>
<g id="a_node13"><a xlink:href="../../dc/d8c/solverstatus_8hpp.html" target="_top" xlink:title=" ">
<polygon fill="white" stroke="black" points="875.5,-185 875.5,-204 1046.5,-204 1046.5,-185 875.5,-185"/>
<text text-anchor="middle" x="961" y="-192" font-family="Helvetica,sans-Serif" font-size="10.00">panoc&#45;alm/util/solverstatus.hpp</text>
</a>
</g>
</g>
<!-- Node2&#45;&gt;Node13 -->
<g id="edge12" class="edge">
<title>Node2&#45;&gt;Node13</title>
<path fill="none" stroke="midnightblue" d="M729.59,-247.19C783.73,-235.1 862.58,-217.48 912.83,-206.26"/>
<polygon fill="midnightblue" stroke="midnightblue" points="913.8,-209.63 922.79,-204.03 912.27,-202.8 913.8,-209.63"/>
</g>
<!-- Node15 -->
<g id="node15" class="node">
<title>Node15</title>
<g id="a_node15"><a xlink:title=" ">
<polygon fill="white" stroke="#bfbfbf" points="645,-185 645,-204 695,-204 695,-185 645,-185"/>
<text text-anchor="middle" x="670" y="-192" font-family="Helvetica,sans-Serif" font-size="10.00">chrono</text>
</a>
</g>
</g>
<!-- Node2&#45;&gt;Node15 -->
<g id="edge15" class="edge">
<title>Node2&#45;&gt;Node15</title>
<path fill="none" stroke="midnightblue" d="M670,-246.4C670,-237.06 670,-224.71 670,-214.52"/>
<polygon fill="midnightblue" stroke="midnightblue" points="673.5,-214.19 670,-204.19 666.5,-214.19 673.5,-214.19"/>
</g>
<!-- Node16 -->
<g id="node16" class="node">
<title>Node16</title>
<g id="a_node16"><a xlink:title=" ">
<polygon fill="white" stroke="#bfbfbf" points="751,-185 751,-204 795,-204 795,-185 751,-185"/>
<text text-anchor="middle" x="773" y="-192" font-family="Helvetica,sans-Serif" font-size="10.00">limits</text>
</a>
</g>
</g>
<!-- Node2&#45;&gt;Node16 -->
<g id="edge16" class="edge">
<title>Node2&#45;&gt;Node16</title>
<path fill="none" stroke="midnightblue" d="M692.35,-246.4C709.62,-235.5 733.42,-220.48 750.68,-209.58"/>
<polygon fill="midnightblue" stroke="midnightblue" points="752.93,-212.3 759.52,-204.01 749.19,-206.38 752.93,-212.3"/>
</g>
<!-- Node17 -->
<g id="node17" class="node">
<title>Node17</title>
<g id="a_node17"><a xlink:title=" ">
<polygon fill="white" stroke="#bfbfbf" points="813,-185 813,-204 857,-204 857,-185 813,-185"/>
<text text-anchor="middle" x="835" y="-192" font-family="Helvetica,sans-Serif" font-size="10.00">string</text>
</a>
</g>
</g>
<!-- Node2&#45;&gt;Node17 -->
<g id="edge17" class="edge">
<title>Node2&#45;&gt;Node17</title>
<path fill="none" stroke="midnightblue" d="M709.6,-246.49C736.45,-236.76 772.62,-223.23 804,-210 805.37,-209.42 806.77,-208.82 808.17,-208.2"/>
<polygon fill="midnightblue" stroke="midnightblue" points="809.74,-211.34 817.4,-204.02 806.85,-204.96 809.74,-211.34"/>
</g>
<!-- Node4 -->
<g id="node4" class="node">
<title>Node4</title>
<g id="a_node4"><a xlink:href="../../d4/d5e/lbfgs-fwd_8hpp.html" target="_top" xlink:title=" ">
<polygon fill="white" stroke="black" points="351.5,-112.5 351.5,-142.5 498.5,-142.5 498.5,-112.5 351.5,-112.5"/>
<text text-anchor="start" x="359.5" y="-130.5" font-family="Helvetica,sans-Serif" font-size="10.00">panoc&#45;alm/inner/directions</text>
<text text-anchor="middle" x="425" y="-119.5" font-family="Helvetica,sans-Serif" font-size="10.00">/decl/lbfgs&#45;fwd.hpp</text>
</a>
</g>
</g>
<!-- Node3&#45;&gt;Node4 -->
<g id="edge3" class="edge">
<title>Node3&#45;&gt;Node4</title>
<path fill="none" stroke="midnightblue" d="M425,-179.4C425,-171.64 425,-161.81 425,-152.86"/>
<polygon fill="midnightblue" stroke="midnightblue" points="428.5,-152.58 425,-142.58 421.5,-152.58 428.5,-152.58"/>
</g>
<!-- Node5&#45;&gt;Node6 -->
<g id="edge5" class="edge">
<title>Node5&#45;&gt;Node6</title>
<path fill="none" stroke="midnightblue" d="M582.14,-179.4C594.95,-168.86 612.43,-154.48 625.54,-143.69"/>
<polygon fill="midnightblue" stroke="midnightblue" points="627.93,-146.25 633.43,-137.19 623.49,-140.85 627.93,-146.25"/>
</g>
<!-- Node8 -->
<g id="node8" class="node">
<title>Node8</title>
<g id="a_node8"><a xlink:href="../../d7/de4/box_8hpp.html" target="_top" xlink:title=" ">
<polygon fill="white" stroke="black" points="231,-118 231,-137 287,-137 287,-118 231,-118"/>
<text text-anchor="middle" x="259" y="-125" font-family="Helvetica,sans-Serif" font-size="10.00">box.hpp</text>
</a>
</g>
</g>
<!-- Node7&#45;&gt;Node8 -->
<g id="edge7" class="edge">
<title>Node7&#45;&gt;Node8</title>
<path fill="none" stroke="midnightblue" d="M100.3,-184.87C132.38,-173.47 189.03,-153.35 225.25,-140.49"/>
<polygon fill="midnightblue" stroke="midnightblue" points="226.64,-143.71 234.89,-137.06 224.3,-137.11 226.64,-143.71"/>
</g>
<!-- Node11 -->
<g id="node11" class="node">
<title>Node11</title>
<g id="a_node11"><a xlink:title=" ">
<polygon fill="white" stroke="#bfbfbf" points="1.5,-118 1.5,-137 66.5,-137 66.5,-118 1.5,-118"/>
<text text-anchor="middle" x="34" y="-125" font-family="Helvetica,sans-Serif" font-size="10.00">functional</text>
</a>
</g>
</g>
<!-- Node7&#45;&gt;Node11 -->
<g id="edge10" class="edge">
<title>Node7&#45;&gt;Node11</title>
<path fill="none" stroke="midnightblue" d="M70.34,-184.73C63.91,-174.79 53.28,-158.34 45.17,-145.79"/>
<polygon fill="midnightblue" stroke="midnightblue" points="47.94,-143.63 39.57,-137.13 42.06,-147.43 47.94,-143.63"/>
</g>
<!-- Node12 -->
<g id="node12" class="node">
<title>Node12</title>
<g id="a_node12"><a xlink:title=" ">
<polygon fill="white" stroke="#bfbfbf" points="84.5,-118 84.5,-137 153.5,-137 153.5,-118 84.5,-118"/>
<text text-anchor="middle" x="119" y="-125" font-family="Helvetica,sans-Serif" font-size="10.00">type_traits</text>
</a>
</g>
</g>
<!-- Node7&#45;&gt;Node12 -->
<g id="edge11" class="edge">
<title>Node7&#45;&gt;Node12</title>
<path fill="none" stroke="midnightblue" d="M81.8,-184.73C88.38,-174.79 99.26,-158.34 107.56,-145.79"/>
<polygon fill="midnightblue" stroke="midnightblue" points="110.69,-147.4 113.29,-137.13 104.86,-143.54 110.69,-147.4"/>
</g>
<!-- Node9 -->
<g id="node9" class="node">
<title>Node9</title>
<g id="a_node9"><a xlink:href="../../d7/d7c/vec_8hpp.html" target="_top" xlink:title=" ">
<polygon fill="white" stroke="black" points="584.5,-56.5 584.5,-75.5 639.5,-75.5 639.5,-56.5 584.5,-56.5"/>
<text text-anchor="middle" x="612" y="-63.5" font-family="Helvetica,sans-Serif" font-size="10.00">vec.hpp</text>
</a>
</g>
</g>
<!-- Node8&#45;&gt;Node9 -->
<g id="edge8" class="edge">
<title>Node8&#45;&gt;Node9</title>
<path fill="none" stroke="midnightblue" d="M287.04,-121.55C303.12,-118.72 323.69,-115.13 342,-112 424.83,-97.86 522.05,-81.79 574.26,-73.19"/>
<polygon fill="midnightblue" stroke="midnightblue" points="575.09,-76.6 584.39,-71.53 573.96,-69.7 575.09,-76.6"/>
</g>
<!-- Node10 -->
<g id="node10" class="node">
<title>Node10</title>
<g id="a_node10"><a xlink:title=" ">
<polygon fill="white" stroke="#bfbfbf" points="577.5,-0.5 577.5,-19.5 646.5,-19.5 646.5,-0.5 577.5,-0.5"/>
<text text-anchor="middle" x="612" y="-7.5" font-family="Helvetica,sans-Serif" font-size="10.00">Eigen/Core</text>
</a>
</g>
</g>
<!-- Node9&#45;&gt;Node10 -->
<g id="edge9" class="edge">
<title>Node9&#45;&gt;Node10</title>
<path fill="none" stroke="midnightblue" d="M612,-56.08C612,-49.01 612,-38.86 612,-29.99"/>
<polygon fill="midnightblue" stroke="midnightblue" points="615.5,-29.75 612,-19.75 608.5,-29.75 615.5,-29.75"/>
</g>
<!-- Node14 -->
<g id="node14" class="node">
<title>Node14</title>
<g id="a_node14"><a xlink:title=" ">
<polygon fill="white" stroke="#bfbfbf" points="889,-118 889,-137 937,-137 937,-118 889,-118"/>
<text text-anchor="middle" x="913" y="-125" font-family="Helvetica,sans-Serif" font-size="10.00">iosfwd</text>
</a>
</g>
</g>
<!-- Node13&#45;&gt;Node14 -->
<g id="edge13" class="edge">
<title>Node13&#45;&gt;Node14</title>
<path fill="none" stroke="midnightblue" d="M954.53,-184.73C947.11,-174.7 934.8,-158.01 925.5,-145.42"/>
<polygon fill="midnightblue" stroke="midnightblue" points="928.13,-143.09 919.37,-137.13 922.5,-147.25 928.13,-143.09"/>
</g>
<!-- Node19 -->
<g id="node19" class="node">
<title>Node19</title>
<g id="a_node19"><a xlink:href="../../db/da3/limited-memory-qr_8hpp.html" target="_top" xlink:title=" ">
<polygon fill="white" stroke="black" points="1064.5,-179.5 1064.5,-209.5 1197.5,-209.5 1197.5,-179.5 1064.5,-179.5"/>
<text text-anchor="start" x="1072.5" y="-197.5" font-family="Helvetica,sans-Serif" font-size="10.00">panoc&#45;alm/inner/detail</text>
<text text-anchor="middle" x="1131" y="-186.5" font-family="Helvetica,sans-Serif" font-size="10.00">/limited&#45;memory&#45;qr.hpp</text>
</a>
</g>
</g>
<!-- Node18&#45;&gt;Node19 -->
<g id="edge19" class="edge">
<title>Node18&#45;&gt;Node19</title>
<path fill="none" stroke="midnightblue" d="M874.6,-247.58C926.34,-237.07 999.51,-222.21 1054.45,-211.05"/>
<polygon fill="midnightblue" stroke="midnightblue" points="1055.38,-214.43 1064.49,-209.01 1053.99,-207.57 1055.38,-214.43"/>
</g>
<!-- Node19&#45;&gt;Node9 -->
<g id="edge25" class="edge">
<title>Node19&#45;&gt;Node9</title>
<path fill="none" stroke="midnightblue" d="M1075.28,-179.42C1046.94,-171.02 1012.53,-158.87 984,-143 964.95,-132.41 966,-120.67 946,-112 893.38,-89.19 725.5,-74.93 649.74,-69.5"/>
<polygon fill="midnightblue" stroke="midnightblue" points="649.9,-66 639.68,-68.79 649.41,-72.98 649.9,-66"/>
</g>
<!-- Node20 -->
<g id="node20" class="node">
<title>Node20</title>
<g id="a_node20"><a xlink:title=" ">
<polygon fill="white" stroke="#bfbfbf" points="1207,-118 1207,-137 1283,-137 1283,-118 1207,-118"/>
<text text-anchor="middle" x="1245" y="-125" font-family="Helvetica,sans-Serif" font-size="10.00">Eigen/Jacobi</text>
</a>
</g>
</g>
<!-- Node19&#45;&gt;Node20 -->
<g id="edge20" class="edge">
<title>Node19&#45;&gt;Node20</title>
<path fill="none" stroke="midnightblue" d="M1155.74,-179.4C1175.21,-168.29 1202.17,-152.92 1221.35,-141.98"/>
<polygon fill="midnightblue" stroke="midnightblue" points="1223.13,-145 1230.08,-137.01 1219.66,-138.92 1223.13,-145"/>
</g>
<!-- Node21 -->
<g id="node21" class="node">
<title>Node21</title>
<g id="a_node21"><a xlink:title=" ">
<polygon fill="white" stroke="#bfbfbf" points="1134.5,-56.5 1134.5,-75.5 1187.5,-75.5 1187.5,-56.5 1134.5,-56.5"/>
<text text-anchor="middle" x="1161" y="-63.5" font-family="Helvetica,sans-Serif" font-size="10.00">cstddef</text>
</a>
</g>
</g>
<!-- Node19&#45;&gt;Node21 -->
<g id="edge21" class="edge">
<title>Node19&#45;&gt;Node21</title>
<path fill="none" stroke="midnightblue" d="M1141.75,-179.36C1148.41,-169.69 1156.37,-156.26 1160,-143 1165.21,-123.95 1164.67,-101.2 1163.32,-85.58"/>
<polygon fill="midnightblue" stroke="midnightblue" points="1166.8,-85.21 1162.27,-75.63 1159.84,-85.94 1166.8,-85.21"/>
</g>
<!-- Node22 -->
<g id="node22" class="node">
<title>Node22</title>
<g id="a_node22"><a xlink:href="../../db/d0f/ringbuffer_8hpp.html" target="_top" xlink:title=" ">
<polygon fill="white" stroke="black" points="993,-118 993,-137 1151,-137 1151,-118 993,-118"/>
<text text-anchor="middle" x="1072" y="-125" font-family="Helvetica,sans-Serif" font-size="10.00">panoc&#45;alm/util/ringbuffer.hpp</text>
</a>
</g>
</g>
<!-- Node19&#45;&gt;Node22 -->
<g id="edge22" class="edge">
<title>Node19&#45;&gt;Node22</title>
<path fill="none" stroke="midnightblue" d="M1118.2,-179.4C1108.91,-169.16 1096.32,-155.3 1086.63,-144.62"/>
<polygon fill="midnightblue" stroke="midnightblue" points="1089.2,-142.25 1079.89,-137.19 1084.02,-146.95 1089.2,-142.25"/>
</g>
<!-- Node22&#45;&gt;Node21 -->
<g id="edge23" class="edge">
<title>Node22&#45;&gt;Node21</title>
<path fill="none" stroke="midnightblue" d="M1084.75,-117.98C1099.03,-108.43 1122.4,-92.81 1139.51,-81.37"/>
<polygon fill="midnightblue" stroke="midnightblue" points="1141.9,-83.98 1148.27,-75.51 1138.01,-78.16 1141.9,-83.98"/>
</g>
<!-- Node23 -->
<g id="node23" class="node">
<title>Node23</title>
<g id="a_node23"><a xlink:title=" ">
<polygon fill="white" stroke="#bfbfbf" points="1045.5,-56.5 1045.5,-75.5 1098.5,-75.5 1098.5,-56.5 1045.5,-56.5"/>
<text text-anchor="middle" x="1072" y="-63.5" font-family="Helvetica,sans-Serif" font-size="10.00">iterator</text>
</a>
</g>
</g>
<!-- Node22&#45;&gt;Node23 -->
<g id="edge24" class="edge">
<title>Node22&#45;&gt;Node23</title>
<path fill="none" stroke="midnightblue" d="M1072,-117.98C1072,-109.58 1072,-96.48 1072,-85.66"/>
<polygon fill="midnightblue" stroke="midnightblue" points="1075.5,-85.51 1072,-75.51 1068.5,-85.51 1075.5,-85.51"/>
</g>
<!-- Node24&#45;&gt;Node7 -->
<g id="edge27" class="edge">
<title>Node24&#45;&gt;Node7</title>
<path fill="none" stroke="midnightblue" d="M238.34,-246.48C200.91,-234.72 148.11,-218.14 113.01,-207.12"/>
<polygon fill="midnightblue" stroke="midnightblue" points="113.75,-203.69 103.16,-204.03 111.65,-210.36 113.75,-203.69"/>
</g>
<!-- Node25&#45;&gt;Node8 -->
<g id="edge29" class="edge">
<title>Node25&#45;&gt;Node8</title>
<path fill="none" stroke="midnightblue" d="M259,-179.4C259,-170.06 259,-157.71 259,-147.52"/>
<polygon fill="midnightblue" stroke="midnightblue" points="262.5,-147.19 259,-137.19 255.5,-147.19 262.5,-147.19"/>
</g>
</g>
</svg>
