<?xml version="1.0" encoding="UTF-8" standalone="no"?>
<!DOCTYPE svg PUBLIC "-//W3C//DTD SVG 1.1//EN"
 "http://www.w3.org/Graphics/SVG/1.1/DTD/svg11.dtd">
<!-- Generated by graphviz version 2.43.0 (0)
 -->
<!-- Title: LBFGS Pages: 1 -->
<svg width="224pt" height="104pt"
 viewBox="0.00 0.00 224.00 104.00" xmlns="http://www.w3.org/2000/svg" xmlns:xlink="http://www.w3.org/1999/xlink">
<g id="graph0" class="graph" transform="scale(1 1) rotate(0) translate(4 100)">
<title>LBFGS</title>
<polygon fill="white" stroke="transparent" points="-4,4 -4,-100 220,-100 220,4 -4,4"/>
<!-- Node1 -->
<g id="node1" class="node">
<title>Node1</title>
<g id="a_node1"><a xlink:title=" ">
<polygon fill="#bfbfbf" stroke="black" points="0,-38.5 0,-57.5 48,-57.5 48,-38.5 0,-38.5"/>
<text text-anchor="middle" x="24" y="-45.5" font-family="Helvetica,sans-Serif" font-size="10.00">LBFGS</text>
</a>
</g>
</g>
<!-- Node2 -->
<g id="node2" class="node">
<title>Node2</title>
<g id="a_node2"><a xlink:href="../../dc/df2/classpa_1_1LBFGS.html#a5b5fd504f983f6b5f9beb1576ebf591a" target="_top" xlink:title="Get the number of previous vectors s and y stored in the buffer.">
<polygon fill="white" stroke="black" points="166,-76.5 166,-95.5 216,-95.5 216,-76.5 166,-76.5"/>
<text text-anchor="middle" x="191" y="-83.5" font-family="Helvetica,sans-Serif" font-size="10.00">history</text>
</a>
</g>
</g>
<!-- Node1&#45;&gt;Node2 -->
<g id="edge1" class="edge">
<title>Node1&#45;&gt;Node2</title>
<path fill="none" stroke="midnightblue" d="M48.05,-56.22C58.87,-59.87 71.99,-64 84,-67 107.74,-72.92 134.92,-77.76 155.81,-81.07"/>
<polygon fill="midnightblue" stroke="midnightblue" points="155.39,-84.54 165.81,-82.61 156.46,-77.62 155.39,-84.54"/>
</g>
<!-- Node3 -->
<g id="node3" class="node">
<title>Node3</title>
<g id="a_node3"><a xlink:href="../../dc/df2/classpa_1_1LBFGS.html#ac88f0961aa7ed7c7415550ab2cad49c8" target="_top" xlink:title="Get the size of the s and y vectors in the buffer.">
<polygon fill="white" stroke="black" points="176.5,-0.5 176.5,-19.5 205.5,-19.5 205.5,-0.5 176.5,-0.5"/>
<text text-anchor="middle" x="191" y="-7.5" font-family="Helvetica,sans-Serif" font-size="10.00">n</text>
</a>
</g>
</g>
<!-- Node1&#45;&gt;Node3 -->
<g id="edge2" class="edge">
<title>Node1&#45;&gt;Node3</title>
<path fill="none" stroke="midnightblue" d="M48.05,-39.78C58.87,-36.13 71.99,-32 84,-29 112.09,-21.99 144.98,-16.51 166.58,-13.27"/>
<polygon fill="midnightblue" stroke="midnightblue" points="167.1,-16.74 176.49,-11.83 166.09,-9.81 167.1,-16.74"/>
</g>
<!-- Node4 -->
<g id="node4" class="node">
<title>Node4</title>
<g id="a_node4"><a xlink:href="../../dc/df2/classpa_1_1LBFGS.html#ab94b4f1bcda8e0f0bace15126f54b6d3" target="_top" xlink:title="Re&#45;allocate storage for a problem with a different size.">
<polygon fill="white" stroke="black" points="84,-38.5 84,-57.5 130,-57.5 130,-38.5 84,-38.5"/>
<text text-anchor="middle" x="107" y="-45.5" font-family="Helvetica,sans-Serif" font-size="10.00">resize</text>
</a>
</g>
</g>
<!-- Node1&#45;&gt;Node4 -->
<g id="edge3" class="edge">
<title>Node1&#45;&gt;Node4</title>
<path fill="none" stroke="midnightblue" d="M48.43,-48C56.25,-48 65.11,-48 73.49,-48"/>
<polygon fill="midnightblue" stroke="midnightblue" points="73.74,-51.5 83.74,-48 73.74,-44.5 73.74,-51.5"/>
</g>
<!-- Node4&#45;&gt;Node2 -->
<g id="edge4" class="edge">
<title>Node4&#45;&gt;Node2</title>
<path fill="none" stroke="midnightblue" d="M128.69,-57.59C138.21,-62 149.68,-67.31 160.11,-72.15"/>
<polygon fill="midnightblue" stroke="midnightblue" points="158.77,-75.38 169.31,-76.41 161.71,-69.03 158.77,-75.38"/>
</g>
<!-- Node4&#45;&gt;Node3 -->
<g id="edge5" class="edge">
<title>Node4&#45;&gt;Node3</title>
<path fill="none" stroke="midnightblue" d="M128.69,-38.41C140.26,-33.05 154.71,-26.36 166.67,-20.81"/>
<polygon fill="midnightblue" stroke="midnightblue" points="168.42,-23.86 176.02,-16.48 165.48,-17.51 168.42,-23.86"/>
</g>
<!-- Node5 -->
<g id="node5" class="node">
<title>Node5</title>
<g id="a_node5"><a xlink:href="../../dc/df2/classpa_1_1LBFGS.html#ad20897c5c8bd47f5d4005989bead0e55" target="_top" xlink:title="Throw away the approximation and all previous vectors s and y.">
<polygon fill="white" stroke="black" points="170.5,-38.5 170.5,-57.5 211.5,-57.5 211.5,-38.5 170.5,-38.5"/>
<text text-anchor="middle" x="191" y="-45.5" font-family="Helvetica,sans-Serif" font-size="10.00">reset</text>
</a>
</g>
</g>
<!-- Node4&#45;&gt;Node5 -->
<g id="edge6" class="edge">
<title>Node4&#45;&gt;Node5</title>
<path fill="none" stroke="midnightblue" d="M130.41,-48C139.6,-48 150.38,-48 160.22,-48"/>
<polygon fill="midnightblue" stroke="midnightblue" points="160.41,-51.5 170.41,-48 160.41,-44.5 160.41,-51.5"/>
</g>
</g>
</svg>
