<?xml version="1.0" encoding="UTF-8" standalone="no"?>
<!DOCTYPE svg PUBLIC "-//W3C//DTD SVG 1.1//EN"
 "http://www.w3.org/Graphics/SVG/1.1/DTD/svg11.dtd">
<!-- Generated by graphviz version 2.43.0 (0)
 -->
<!-- Title: n Pages: 1 -->
<svg width="720pt" height="252pt"
 viewBox="0.00 0.00 720.00 252.26" xmlns="http://www.w3.org/2000/svg" xmlns:xlink="http://www.w3.org/1999/xlink">
<g id="graph0" class="graph" transform="scale(1 1) rotate(0) translate(4 248.26)">
<title>n</title>
<polygon fill="white" stroke="transparent" points="-4,4 -4,-248.26 716,-248.26 716,4 -4,4"/>
<!-- Node1 -->
<g id="node1" class="node">
<title>Node1</title>
<g id="a_node1"><a xlink:title="Get the size of the s and y vectors in the buffer.">
<polygon fill="#bfbfbf" stroke="black" points="683,-113.26 683,-132.26 712,-132.26 712,-113.26 683,-113.26"/>
<text text-anchor="middle" x="697.5" y="-120.26" font-family="Helvetica,sans-Serif" font-size="10.00">n</text>
</a>
</g>
</g>
<!-- Node2 -->
<g id="node2" class="node">
<title>Node2</title>
<g id="a_node2"><a xlink:href="../../dc/df2/classpa_1_1LBFGS.html#aff01d4663f03eaaac33467cac6028c18" target="_top" xlink:title=" ">
<polygon fill="white" stroke="black" points="501,-208.26 501,-227.26 549,-227.26 549,-208.26 501,-208.26"/>
<text text-anchor="middle" x="525" y="-215.26" font-family="Helvetica,sans-Serif" font-size="10.00">LBFGS</text>
</a>
</g>
</g>
<!-- Node1&#45;&gt;Node2 -->
<g id="edge1" class="edge">
<title>Node1&#45;&gt;Node2</title>
<path fill="none" stroke="midnightblue" d="M689.47,-141.7C681.84,-159.46 667.88,-185.24 647,-198.76 617.37,-217.95 575.29,-220.24 549.36,-219.48"/>
<polygon fill="midnightblue" stroke="midnightblue" points="692.76,-142.91 693.24,-132.33 686.26,-140.31 692.76,-142.91"/>
</g>
<!-- Node3 -->
<g id="node3" class="node">
<title>Node3</title>
<g id="a_node3"><a xlink:href="../../dc/df2/classpa_1_1LBFGS.html#ab94b4f1bcda8e0f0bace15126f54b6d3" target="_top" xlink:title="Re&#45;allocate storage for a problem with a different size.">
<polygon fill="white" stroke="black" points="601,-170.26 601,-189.26 647,-189.26 647,-170.26 601,-170.26"/>
<text text-anchor="middle" x="624" y="-177.26" font-family="Helvetica,sans-Serif" font-size="10.00">resize</text>
</a>
</g>
</g>
<!-- Node1&#45;&gt;Node3 -->
<g id="edge2" class="edge">
<title>Node1&#45;&gt;Node3</title>
<path fill="none" stroke="midnightblue" d="M676.21,-138.94C663.53,-149.04 647.64,-161.71 636.95,-170.24"/>
<polygon fill="midnightblue" stroke="midnightblue" points="678.73,-141.4 684.37,-132.43 674.37,-135.93 678.73,-141.4"/>
</g>
<!-- Node4 -->
<g id="node4" class="node">
<title>Node4</title>
<g id="a_node4"><a xlink:href="../../dc/df2/classpa_1_1LBFGS.html#a644d66009a70ccc909120ba9afa45ea5" target="_top" xlink:title=" ">
<polygon fill="white" stroke="black" points="609.5,-94.26 609.5,-113.26 638.5,-113.26 638.5,-94.26 609.5,-94.26"/>
<text text-anchor="middle" x="624" y="-101.26" font-family="Helvetica,sans-Serif" font-size="10.00">s</text>
</a>
</g>
</g>
<!-- Node1&#45;&gt;Node4 -->
<g id="edge4" class="edge">
<title>Node1&#45;&gt;Node4</title>
<path fill="none" stroke="midnightblue" d="M672.98,-116.51C661.64,-113.5 648.43,-109.99 638.74,-107.41"/>
<polygon fill="midnightblue" stroke="midnightblue" points="672.15,-119.91 682.71,-119.1 673.95,-113.15 672.15,-119.91"/>
</g>
<!-- Node9 -->
<g id="node9" class="node">
<title>Node9</title>
<g id="a_node9"><a xlink:href="../../dc/df2/classpa_1_1LBFGS.html#ac18c0672e61d25800877a42a1def3215" target="_top" xlink:title=" ">
<polygon fill="white" stroke="black" points="609.5,-18.26 609.5,-37.26 638.5,-37.26 638.5,-18.26 609.5,-18.26"/>
<text text-anchor="middle" x="624" y="-25.26" font-family="Helvetica,sans-Serif" font-size="10.00">y</text>
</a>
</g>
</g>
<!-- Node1&#45;&gt;Node9 -->
<g id="edge9" class="edge">
<title>Node1&#45;&gt;Node9</title>
<path fill="none" stroke="midnightblue" d="M686.34,-104.11C677.16,-88.06 662.7,-64.74 647,-46.76 644.21,-43.57 640.88,-40.43 637.67,-37.64"/>
<polygon fill="midnightblue" stroke="midnightblue" points="683.41,-106.03 691.34,-113.04 689.51,-102.61 683.41,-106.03"/>
</g>
<!-- Node12 -->
<g id="node12" class="node">
<title>Node12</title>
<g id="a_node12"><a xlink:href="../../dc/df2/classpa_1_1LBFGS.html#a66eb6e38840a556b4c0f0bff0901f80c" target="_top" xlink:title=" ">
<polygon fill="white" stroke="black" points="609.5,-132.26 609.5,-151.26 638.5,-151.26 638.5,-132.26 609.5,-132.26"/>
<text text-anchor="middle" x="624" y="-139.26" font-family="Helvetica,sans-Serif" font-size="10.00">α</text>
</a>
</g>
</g>
<!-- Node1&#45;&gt;Node12 -->
<g id="edge14" class="edge">
<title>Node1&#45;&gt;Node12</title>
<path fill="none" stroke="midnightblue" d="M672.98,-129.01C661.64,-132.03 648.43,-135.54 638.74,-138.11"/>
<polygon fill="midnightblue" stroke="midnightblue" points="673.95,-132.38 682.71,-126.43 672.15,-125.61 673.95,-132.38"/>
</g>
<!-- Node18 -->
<g id="node18" class="node">
<title>Node18</title>
<g id="a_node18"><a xlink:href="../../dc/df2/classpa_1_1LBFGS.html#a630280b47996370bdb569a2799ffdb9f" target="_top" xlink:title=" ">
<polygon fill="white" stroke="black" points="609.5,-56.26 609.5,-75.26 638.5,-75.26 638.5,-56.26 609.5,-56.26"/>
<text text-anchor="middle" x="624" y="-63.26" font-family="Helvetica,sans-Serif" font-size="10.00">ρ</text>
</a>
</g>
</g>
<!-- Node1&#45;&gt;Node18 -->
<g id="edge23" class="edge">
<title>Node1&#45;&gt;Node18</title>
<path fill="none" stroke="midnightblue" d="M676.21,-106.59C663.53,-96.48 647.64,-83.81 636.95,-75.29"/>
<polygon fill="midnightblue" stroke="midnightblue" points="674.37,-109.6 684.37,-113.09 678.73,-104.12 674.37,-109.6"/>
</g>
<!-- Node3&#45;&gt;Node2 -->
<g id="edge3" class="edge">
<title>Node3&#45;&gt;Node2</title>
<path fill="none" stroke="midnightblue" d="M591.43,-192.13C577.71,-197.51 561.91,-203.69 549.28,-208.64"/>
<polygon fill="midnightblue" stroke="midnightblue" points="592.95,-195.29 600.99,-188.38 590.4,-188.77 592.95,-195.29"/>
</g>
<!-- Node5 -->
<g id="node5" class="node">
<title>Node5</title>
<g id="a_node5"><a xlink:href="../../dc/df2/classpa_1_1LBFGS.html#a37dd0ce624f9914a61118d8f02fa1c7f" target="_top" xlink:title="Apply the inverse Hessian approximation to the given vector q.">
<polygon fill="white" stroke="black" points="503,-132.26 503,-151.26 547,-151.26 547,-132.26 503,-132.26"/>
<text text-anchor="middle" x="525" y="-139.26" font-family="Helvetica,sans-Serif" font-size="10.00">apply</text>
</a>
</g>
</g>
<!-- Node4&#45;&gt;Node5 -->
<g id="edge5" class="edge">
<title>Node4&#45;&gt;Node5</title>
<path fill="none" stroke="midnightblue" d="M599.41,-113C583.41,-119.27 562.44,-127.48 547.02,-133.53"/>
<polygon fill="midnightblue" stroke="midnightblue" points="601.07,-116.11 609.1,-109.21 598.51,-109.59 601.07,-116.11"/>
</g>
<!-- Node7 -->
<g id="node7" class="node">
<title>Node7</title>
<g id="a_node7"><a xlink:href="../../dc/df2/classpa_1_1LBFGS.html#a677a5dd81ca75f82285e954dd44f5d55" target="_top" xlink:title="Update the inverse Hessian approximation using the new vectors xₖ₊₁ and pₖ₊₁.">
<polygon fill="white" stroke="black" points="359.5,-70.26 359.5,-89.26 409.5,-89.26 409.5,-70.26 359.5,-70.26"/>
<text text-anchor="middle" x="384.5" y="-77.26" font-family="Helvetica,sans-Serif" font-size="10.00">update</text>
</a>
</g>
</g>
<!-- Node4&#45;&gt;Node7 -->
<g id="edge7" class="edge">
<title>Node4&#45;&gt;Node7</title>
<path fill="none" stroke="midnightblue" d="M599.12,-101.35C553.75,-96.76 455.55,-86.84 409.83,-82.22"/>
<polygon fill="midnightblue" stroke="midnightblue" points="598.9,-104.84 609.2,-102.37 599.61,-97.88 598.9,-104.84"/>
</g>
<!-- Node6 -->
<g id="node6" class="node">
<title>Node6</title>
<g id="a_node6"><a xlink:href="../../dd/d35/structpa_1_1PANOCDirection_3_01LBFGS_01_4.html#a086ef300ea233088638220edcbabfe98" target="_top" xlink:title=" ">
<polygon fill="white" stroke="black" points="328,-115.76 328,-145.76 441,-145.76 441,-115.76 328,-115.76"/>
<text text-anchor="start" x="336" y="-133.76" font-family="Helvetica,sans-Serif" font-size="10.00">pa::PANOCDirection</text>
<text text-anchor="middle" x="384.5" y="-122.76" font-family="Helvetica,sans-Serif" font-size="10.00">&lt; LBFGS &gt;::apply</text>
</a>
</g>
</g>
<!-- Node5&#45;&gt;Node6 -->
<g id="edge6" class="edge">
<title>Node5&#45;&gt;Node6</title>
<path fill="none" stroke="midnightblue" d="M492.59,-139.27C477.39,-138.06 458.69,-136.57 441.2,-135.19"/>
<polygon fill="midnightblue" stroke="midnightblue" points="492.72,-142.79 502.96,-140.09 493.27,-135.81 492.72,-142.79"/>
</g>
<!-- Node8 -->
<g id="node8" class="node">
<title>Node8</title>
<g id="a_node8"><a xlink:href="../../dd/d35/structpa_1_1PANOCDirection_3_01LBFGS_01_4.html#ab8e196bebf1bd26d5fd8012a236a6c3d" target="_top" xlink:title=" ">
<polygon fill="white" stroke="black" points="166.5,-64.76 166.5,-94.76 279.5,-94.76 279.5,-64.76 166.5,-64.76"/>
<text text-anchor="start" x="174.5" y="-82.76" font-family="Helvetica,sans-Serif" font-size="10.00">pa::PANOCDirection</text>
<text text-anchor="middle" x="223" y="-71.76" font-family="Helvetica,sans-Serif" font-size="10.00">&lt; LBFGS &gt;::update</text>
</a>
</g>
</g>
<!-- Node7&#45;&gt;Node8 -->
<g id="edge8" class="edge">
<title>Node7&#45;&gt;Node8</title>
<path fill="none" stroke="midnightblue" d="M349.25,-79.76C328.96,-79.76 302.77,-79.76 279.59,-79.76"/>
<polygon fill="midnightblue" stroke="midnightblue" points="349.28,-83.26 359.28,-79.76 349.28,-76.26 349.28,-83.26"/>
</g>
<!-- Node9&#45;&gt;Node5 -->
<g id="edge10" class="edge">
<title>Node9&#45;&gt;Node5</title>
<path fill="none" stroke="midnightblue" d="M603.38,-44.35C602.57,-45.15 601.77,-45.96 601,-46.76 573.25,-75.76 545.16,-114.37 532.68,-132.11"/>
<polygon fill="midnightblue" stroke="midnightblue" points="605.95,-46.75 610.98,-37.42 601.23,-41.58 605.95,-46.75"/>
</g>
<!-- Node9&#45;&gt;Node7 -->
<g id="edge13" class="edge">
<title>Node9&#45;&gt;Node7</title>
<path fill="none" stroke="midnightblue" d="M599.82,-17.01C571.39,-5.48 522.37,8.95 485,-8.76 462.17,-19.58 469.21,-37.6 449,-52.76 437.21,-61.6 422.09,-68.18 409.56,-72.63"/>
<polygon fill="midnightblue" stroke="midnightblue" points="598.73,-20.35 609.31,-21.06 601.49,-13.92 598.73,-20.35"/>
</g>
<!-- Node10 -->
<g id="node10" class="node">
<title>Node10</title>
<g id="a_node10"><a xlink:href="../../dc/df2/classpa_1_1LBFGS.html#adeddc1e1eb8ce1c1bbaf931b6f9a5b9c" target="_top" xlink:title="Scale the stored y vectors by the given factor.">
<polygon fill="white" stroke="black" points="498.5,-18.26 498.5,-37.26 551.5,-37.26 551.5,-18.26 498.5,-18.26"/>
<text text-anchor="middle" x="525" y="-25.26" font-family="Helvetica,sans-Serif" font-size="10.00">scale_y</text>
</a>
</g>
</g>
<!-- Node9&#45;&gt;Node10 -->
<g id="edge11" class="edge">
<title>Node9&#45;&gt;Node10</title>
<path fill="none" stroke="midnightblue" d="M598.96,-27.76C584.54,-27.76 566.2,-27.76 551.52,-27.76"/>
<polygon fill="midnightblue" stroke="midnightblue" points="599.1,-31.26 609.1,-27.76 599.1,-24.26 599.1,-31.26"/>
</g>
<!-- Node11 -->
<g id="node11" class="node">
<title>Node11</title>
<g id="a_node11"><a xlink:href="../../dd/d35/structpa_1_1PANOCDirection_3_01LBFGS_01_4.html#a2062932d7b974ee031bed6949b0d15e5" target="_top" xlink:title=" ">
<polygon fill="white" stroke="black" points="320,-12.76 320,-42.76 449,-42.76 449,-12.76 320,-12.76"/>
<text text-anchor="start" x="328" y="-30.76" font-family="Helvetica,sans-Serif" font-size="10.00">pa::PANOCDirection</text>
<text text-anchor="middle" x="384.5" y="-19.76" font-family="Helvetica,sans-Serif" font-size="10.00">&lt; LBFGS &gt;::changed_γ</text>
</a>
</g>
</g>
<!-- Node10&#45;&gt;Node11 -->
<g id="edge12" class="edge">
<title>Node10&#45;&gt;Node11</title>
<path fill="none" stroke="midnightblue" d="M488.25,-27.76C476.27,-27.76 462.54,-27.76 449.08,-27.76"/>
<polygon fill="midnightblue" stroke="midnightblue" points="488.27,-31.26 498.27,-27.76 488.27,-24.26 488.27,-31.26"/>
</g>
<!-- Node12&#45;&gt;Node5 -->
<g id="edge15" class="edge">
<title>Node12&#45;&gt;Node5</title>
<path fill="none" stroke="midnightblue" d="M598.95,-141.76C583.01,-141.76 562.3,-141.76 547.02,-141.76"/>
<polygon fill="midnightblue" stroke="midnightblue" points="599.1,-145.26 609.1,-141.76 599.1,-138.26 599.1,-145.26"/>
</g>
<!-- Node13 -->
<g id="node13" class="node">
<title>Node13</title>
<g id="a_node13"><a xlink:href="../../dc/df2/classpa_1_1LBFGS.html#aaf9c6519c7a7d7ab977113f33c88e2e3" target="_top" xlink:title="Check if the new vectors s and y allow for a valid BFGS update that preserves the positive definitene...">
<polygon fill="white" stroke="black" points="485,-170.26 485,-189.26 565,-189.26 565,-170.26 485,-170.26"/>
<text text-anchor="middle" x="525" y="-177.26" font-family="Helvetica,sans-Serif" font-size="10.00">update_valid</text>
</a>
</g>
</g>
<!-- Node12&#45;&gt;Node13 -->
<g id="edge16" class="edge">
<title>Node12&#45;&gt;Node13</title>
<path fill="none" stroke="midnightblue" d="M599.59,-150.93C584.7,-156.77 565.45,-164.31 550.37,-170.21"/>
<polygon fill="midnightblue" stroke="midnightblue" points="601.07,-154.11 609.1,-147.21 598.51,-147.59 601.07,-154.11"/>
</g>
<!-- Node13&#45;&gt;Node7 -->
<g id="edge22" class="edge">
<title>Node13&#45;&gt;Node7</title>
<path fill="none" stroke="midnightblue" d="M490.47,-164.97C488.55,-163.65 486.71,-162.25 485,-160.76 463.28,-141.78 471.2,-125.18 449,-106.76 437.57,-97.28 422.31,-90.65 409.62,-86.33"/>
<polygon fill="midnightblue" stroke="midnightblue" points="488.87,-168.09 499.26,-170.17 492.43,-162.06 488.87,-168.09"/>
</g>
<!-- Node14 -->
<g id="node14" class="node">
<title>Node14</title>
<g id="a_node14"><a xlink:href="../../d0/d6d/classpa_1_1SpecializedLBFGS.html#a71d9f5b74a18b1ef994683c1aa4914da" target="_top" xlink:title="L&#45;BFGS update when changing the step size γ, recomputing everything.">
<polygon fill="white" stroke="black" points="323.5,-213.76 323.5,-243.76 445.5,-243.76 445.5,-213.76 323.5,-213.76"/>
<text text-anchor="start" x="331.5" y="-231.76" font-family="Helvetica,sans-Serif" font-size="10.00">pa::SpecializedLBFGS</text>
<text text-anchor="middle" x="384.5" y="-220.76" font-family="Helvetica,sans-Serif" font-size="10.00">::full_update</text>
</a>
</g>
</g>
<!-- Node13&#45;&gt;Node14 -->
<g id="edge17" class="edge">
<title>Node13&#45;&gt;Node14</title>
<path fill="none" stroke="midnightblue" d="M487.29,-192.75C469.07,-199.2 446.96,-207.02 428,-213.72"/>
<polygon fill="midnightblue" stroke="midnightblue" points="488.71,-195.96 496.97,-189.33 486.37,-189.36 488.71,-195.96"/>
</g>
<!-- Node17 -->
<g id="node17" class="node">
<title>Node17</title>
<g id="a_node17"><a xlink:href="../../d0/d6d/classpa_1_1SpecializedLBFGS.html#ae20511c5fb7ae45113aeba25b63c6d55" target="_top" xlink:title="Standard L&#45;BFGS update without changing the step size γ.">
<polygon fill="white" stroke="black" points="323.5,-164.76 323.5,-194.76 445.5,-194.76 445.5,-164.76 323.5,-164.76"/>
<text text-anchor="start" x="331.5" y="-182.76" font-family="Helvetica,sans-Serif" font-size="10.00">pa::SpecializedLBFGS</text>
<text text-anchor="middle" x="384.5" y="-171.76" font-family="Helvetica,sans-Serif" font-size="10.00">::standard_update</text>
</a>
</g>
</g>
<!-- Node13&#45;&gt;Node17 -->
<g id="edge20" class="edge">
<title>Node13&#45;&gt;Node17</title>
<path fill="none" stroke="midnightblue" d="M474.41,-179.76C465.08,-179.76 455.23,-179.76 445.62,-179.76"/>
<polygon fill="midnightblue" stroke="midnightblue" points="474.68,-183.26 484.68,-179.76 474.68,-176.26 474.68,-183.26"/>
</g>
<!-- Node15 -->
<g id="node15" class="node">
<title>Node15</title>
<g id="a_node15"><a xlink:href="../../d0/d6d/classpa_1_1SpecializedLBFGS.html#a8032c3cbff7a91765be22979ccd4f79b" target="_top" xlink:title="Update the inverse Hessian approximation using the new vectors xₖ₊₁ and pₖ₊₁.">
<polygon fill="white" stroke="black" points="162,-188.76 162,-218.76 284,-218.76 284,-188.76 162,-188.76"/>
<text text-anchor="start" x="170" y="-206.76" font-family="Helvetica,sans-Serif" font-size="10.00">pa::SpecializedLBFGS</text>
<text text-anchor="middle" x="223" y="-195.76" font-family="Helvetica,sans-Serif" font-size="10.00">::update</text>
</a>
</g>
</g>
<!-- Node14&#45;&gt;Node15 -->
<g id="edge18" class="edge">
<title>Node14&#45;&gt;Node15</title>
<path fill="none" stroke="midnightblue" d="M313.19,-217.74C303.49,-216.22 293.61,-214.67 284.12,-213.18"/>
<polygon fill="midnightblue" stroke="midnightblue" points="312.78,-221.22 323.2,-219.31 313.86,-214.3 312.78,-221.22"/>
</g>
<!-- Node16 -->
<g id="node16" class="node">
<title>Node16</title>
<g id="a_node16"><a xlink:href="../../d3/df9/structpa_1_1PANOCDirection_3_01SpecializedLBFGS_01_4.html#a1932af68886cf467a0300e371e94a2c3" target="_top" xlink:title=" ">
<polygon fill="white" stroke="black" points="0,-183.26 0,-224.26 126,-224.26 126,-183.26 0,-183.26"/>
<text text-anchor="start" x="8" y="-212.26" font-family="Helvetica,sans-Serif" font-size="10.00">pa::PANOCDirection</text>
<text text-anchor="start" x="8" y="-201.26" font-family="Helvetica,sans-Serif" font-size="10.00">&lt; SpecializedLBFGS &gt;</text>
<text text-anchor="middle" x="63" y="-190.26" font-family="Helvetica,sans-Serif" font-size="10.00">::update</text>
</a>
</g>
</g>
<!-- Node15&#45;&gt;Node16 -->
<g id="edge19" class="edge">
<title>Node15&#45;&gt;Node16</title>
<path fill="none" stroke="midnightblue" d="M151.56,-203.76C143.08,-203.76 134.47,-203.76 126.11,-203.76"/>
<polygon fill="midnightblue" stroke="midnightblue" points="151.82,-207.26 161.82,-203.76 151.82,-200.26 151.82,-207.26"/>
</g>
<!-- Node17&#45;&gt;Node15 -->
<g id="edge21" class="edge">
<title>Node17&#45;&gt;Node15</title>
<path fill="none" stroke="midnightblue" d="M313.19,-190.34C303.49,-191.8 293.61,-193.29 284.12,-194.72"/>
<polygon fill="midnightblue" stroke="midnightblue" points="313.83,-193.78 323.2,-188.84 312.79,-186.86 313.83,-193.78"/>
</g>
<!-- Node18&#45;&gt;Node5 -->
<g id="edge24" class="edge">
<title>Node18&#45;&gt;Node5</title>
<path fill="none" stroke="midnightblue" d="M602.74,-81.63C583.24,-96.91 554.39,-119.52 538.19,-132.21"/>
<polygon fill="midnightblue" stroke="midnightblue" points="605,-84.31 610.71,-75.39 600.68,-78.8 605,-84.31"/>
</g>
<!-- Node18&#45;&gt;Node7 -->
<g id="edge26" class="edge">
<title>Node18&#45;&gt;Node7</title>
<path fill="none" stroke="midnightblue" d="M599.12,-67.17C553.75,-69.84 455.55,-75.63 409.83,-78.33"/>
<polygon fill="midnightblue" stroke="midnightblue" points="599.43,-70.66 609.2,-66.57 599.02,-63.67 599.43,-70.66"/>
</g>
<!-- Node18&#45;&gt;Node10 -->
<g id="edge25" class="edge">
<title>Node18&#45;&gt;Node10</title>
<path fill="none" stroke="midnightblue" d="M599.59,-56.59C584.7,-50.76 565.45,-43.22 550.37,-37.31"/>
<polygon fill="midnightblue" stroke="midnightblue" points="598.51,-59.93 609.1,-60.32 601.07,-53.41 598.51,-59.93"/>
</g>
</g>
</svg>
