<?xml version="1.0" encoding="UTF-8" standalone="no"?>
<!DOCTYPE svg PUBLIC "-//W3C//DTD SVG 1.1//EN"
 "http://www.w3.org/Graphics/SVG/1.1/DTD/svg11.dtd">
<!-- Generated by graphviz version 2.43.0 (0)
 -->
<!-- Title: s Pages: 1 -->
<svg width="272pt" height="88pt"
 viewBox="0.00 0.00 272.00 88.00" xmlns="http://www.w3.org/2000/svg" xmlns:xlink="http://www.w3.org/1999/xlink">
<g id="graph0" class="graph" transform="scale(1 1) rotate(0) translate(4 84)">
<title>s</title>
<polygon fill="white" stroke="transparent" points="-4,4 -4,-84 268,-84 268,4 -4,4"/>
<!-- Node1 -->
<g id="node1" class="node">
<title>Node1</title>
<g id="a_node1"><a xlink:title=" ">
<polygon fill="#bfbfbf" stroke="black" points="235,-30 235,-49 264,-49 264,-30 235,-30"/>
<text text-anchor="middle" x="249.5" y="-37" font-family="Helvetica,sans-Serif" font-size="10.00">s</text>
</a>
</g>
</g>
<!-- Node2 -->
<g id="node2" class="node">
<title>Node2</title>
<g id="a_node2"><a xlink:href="../../dc/df2/classpa_1_1LBFGS.html#a37dd0ce624f9914a61118d8f02fa1c7f" target="_top" xlink:title="Apply the inverse Hessian approximation to the given vector q.">
<polygon fill="white" stroke="black" points="152,-52 152,-71 196,-71 196,-52 152,-52"/>
<text text-anchor="middle" x="174" y="-59" font-family="Helvetica,sans-Serif" font-size="10.00">apply</text>
</a>
</g>
</g>
<!-- Node1&#45;&gt;Node2 -->
<g id="edge1" class="edge">
<title>Node1&#45;&gt;Node2</title>
<path fill="none" stroke="midnightblue" d="M224.97,-46.54C215.75,-49.3 205.26,-52.44 196.28,-55.13"/>
<polygon fill="midnightblue" stroke="midnightblue" points="226.1,-49.86 234.68,-43.64 224.09,-43.15 226.1,-49.86"/>
</g>
<!-- Node4 -->
<g id="node4" class="node">
<title>Node4</title>
<g id="a_node4"><a xlink:href="../../dc/df2/classpa_1_1LBFGS.html#a677a5dd81ca75f82285e954dd44f5d55" target="_top" xlink:title="Update the inverse Hessian approximation using the new vectors xₖ₊₁ and pₖ₊₁.">
<polygon fill="white" stroke="black" points="149,-11 149,-30 199,-30 199,-11 149,-11"/>
<text text-anchor="middle" x="174" y="-18" font-family="Helvetica,sans-Serif" font-size="10.00">update</text>
</a>
</g>
</g>
<!-- Node1&#45;&gt;Node4 -->
<g id="edge3" class="edge">
<title>Node1&#45;&gt;Node4</title>
<path fill="none" stroke="midnightblue" d="M224.94,-33.41C216.71,-31.28 207.46,-28.89 199.18,-26.75"/>
<polygon fill="midnightblue" stroke="midnightblue" points="224.12,-36.81 234.68,-35.93 225.87,-30.03 224.12,-36.81"/>
</g>
<!-- Node3 -->
<g id="node3" class="node">
<title>Node3</title>
<g id="a_node3"><a xlink:href="../../dd/d35/structpa_1_1PANOCDirection_3_01LBFGS_01_4.html#a086ef300ea233088638220edcbabfe98" target="_top" xlink:title=" ">
<polygon fill="white" stroke="black" points="0,-49.5 0,-79.5 113,-79.5 113,-49.5 0,-49.5"/>
<text text-anchor="start" x="8" y="-67.5" font-family="Helvetica,sans-Serif" font-size="10.00">pa::PANOCDirection</text>
<text text-anchor="middle" x="56.5" y="-56.5" font-family="Helvetica,sans-Serif" font-size="10.00">&lt; LBFGS &gt;::apply</text>
</a>
</g>
</g>
<!-- Node2&#45;&gt;Node3 -->
<g id="edge2" class="edge">
<title>Node2&#45;&gt;Node3</title>
<path fill="none" stroke="midnightblue" d="M141.66,-62.31C132.84,-62.54 122.98,-62.8 113.2,-63.05"/>
<polygon fill="midnightblue" stroke="midnightblue" points="141.91,-65.81 151.82,-62.05 141.73,-58.81 141.91,-65.81"/>
</g>
<!-- Node5 -->
<g id="node5" class="node">
<title>Node5</title>
<g id="a_node5"><a xlink:href="../../dd/d35/structpa_1_1PANOCDirection_3_01LBFGS_01_4.html#ab8e196bebf1bd26d5fd8012a236a6c3d" target="_top" xlink:title=" ">
<polygon fill="white" stroke="black" points="0,-0.5 0,-30.5 113,-30.5 113,-0.5 0,-0.5"/>
<text text-anchor="start" x="8" y="-18.5" font-family="Helvetica,sans-Serif" font-size="10.00">pa::PANOCDirection</text>
<text text-anchor="middle" x="56.5" y="-7.5" font-family="Helvetica,sans-Serif" font-size="10.00">&lt; LBFGS &gt;::update</text>
</a>
</g>
</g>
<!-- Node4&#45;&gt;Node5 -->
<g id="edge4" class="edge">
<title>Node4&#45;&gt;Node5</title>
<path fill="none" stroke="midnightblue" d="M138.68,-19.01C130.61,-18.67 121.82,-18.28 113.08,-17.91"/>
<polygon fill="midnightblue" stroke="midnightblue" points="138.65,-22.52 148.79,-19.45 138.95,-15.52 138.65,-22.52"/>
</g>
</g>
</svg>
