<?xml version="1.0" encoding="UTF-8" standalone="no"?>
<!DOCTYPE svg PUBLIC "-//W3C//DTD SVG 1.1//EN"
 "http://www.w3.org/Graphics/SVG/1.1/DTD/svg11.dtd">
<!-- Generated by graphviz version 2.43.0 (0)
 -->
<!-- Title: norm_inf Pages: 1 -->
<svg width="445pt" height="91pt"
 viewBox="0.00 0.00 445.00 91.00" xmlns="http://www.w3.org/2000/svg" xmlns:xlink="http://www.w3.org/1999/xlink">
<g id="graph0" class="graph" transform="scale(1 1) rotate(0) translate(4 87)">
<title>norm_inf</title>
<polygon fill="white" stroke="transparent" points="-4,4 -4,-87 441,-87 441,4 -4,4"/>
<!-- Node1 -->
<g id="node1" class="node">
<title>Node1</title>
<g id="a_node1"><a xlink:title="Get the maximum or infinity&#45;norm of the given vector.">
<polygon fill="#bfbfbf" stroke="black" points="377,-22.5 377,-41.5 437,-41.5 437,-22.5 377,-22.5"/>
<text text-anchor="middle" x="407" y="-29.5" font-family="Helvetica,sans-Serif" font-size="10.00">norm_inf</text>
</a>
</g>
</g>
<!-- Node2 -->
<g id="node2" class="node">
<title>Node2</title>
<g id="a_node2"><a xlink:href="../../d0/d51/namespacepa_1_1detail.html#ac3081a6b8cd569f7dd92fa8044a3f428" target="_top" xlink:title=" ">
<polygon fill="white" stroke="black" points="212.5,-39 212.5,-69 328.5,-69 328.5,-39 212.5,-39"/>
<text text-anchor="start" x="220.5" y="-57" font-family="Helvetica,sans-Serif" font-size="10.00">pa::detail::calc_error</text>
<text text-anchor="middle" x="270.5" y="-46" font-family="Helvetica,sans-Serif" font-size="10.00">_stop_crit</text>
</a>
</g>
</g>
<!-- Node1&#45;&gt;Node2 -->
<g id="edge1" class="edge">
<title>Node1&#45;&gt;Node2</title>
<path fill="none" stroke="midnightblue" d="M366.74,-38.42C354.8,-40.38 341.42,-42.56 328.56,-44.67"/>
<polygon fill="midnightblue" stroke="midnightblue" points="367.51,-41.84 376.82,-36.77 366.38,-34.93 367.51,-41.84"/>
</g>
<!-- Node5 -->
<g id="node5" class="node">
<title>Node5</title>
<g id="a_node5"><a xlink:href="../../d4/de2/classpa_1_1ALMSolver.html#ae21c599f2248bd49fa3d0175c3e4209c" target="_top" xlink:title=" ">
<polygon fill="white" stroke="black" points="200,-0.5 200,-19.5 341,-19.5 341,-0.5 200,-0.5"/>
<text text-anchor="middle" x="270.5" y="-7.5" font-family="Helvetica,sans-Serif" font-size="10.00">pa::ALMSolver::operator()</text>
</a>
</g>
</g>
<!-- Node1&#45;&gt;Node5 -->
<g id="edge4" class="edge">
<title>Node1&#45;&gt;Node5</title>
<path fill="none" stroke="midnightblue" d="M366.61,-25.56C355.04,-23.66 342.13,-21.55 329.65,-19.51"/>
<polygon fill="midnightblue" stroke="midnightblue" points="366.38,-29.07 376.82,-27.23 367.51,-22.16 366.38,-29.07"/>
</g>
<!-- Node3 -->
<g id="node3" class="node">
<title>Node3</title>
<g id="a_node3"><a xlink:href="../../d8/d33/classpa_1_1GuardedAAPGA.html#a656a1117248ac02387eb817ee135df0e" target="_top" xlink:title=" ">
<polygon fill="white" stroke="black" points="0,-63.5 0,-82.5 164,-82.5 164,-63.5 0,-63.5"/>
<text text-anchor="middle" x="82" y="-70.5" font-family="Helvetica,sans-Serif" font-size="10.00">pa::GuardedAAPGA::operator()</text>
</a>
</g>
</g>
<!-- Node2&#45;&gt;Node3 -->
<g id="edge2" class="edge">
<title>Node2&#45;&gt;Node3</title>
<path fill="none" stroke="midnightblue" d="M202.1,-60.87C189.78,-62.12 176.81,-63.44 164.14,-64.73"/>
<polygon fill="midnightblue" stroke="midnightblue" points="202.68,-64.33 212.28,-59.83 201.97,-57.36 202.68,-64.33"/>
</g>
<!-- Node4 -->
<g id="node4" class="node">
<title>Node4</title>
<g id="a_node4"><a xlink:href="../../d1/d91/classpa_1_1PGA.html#a2524c14cb1e9f67d7b3694ab5dbb24e4" target="_top" xlink:title=" ">
<polygon fill="white" stroke="black" points="27,-25.5 27,-44.5 137,-44.5 137,-25.5 27,-25.5"/>
<text text-anchor="middle" x="82" y="-32.5" font-family="Helvetica,sans-Serif" font-size="10.00">pa::PGA::operator()</text>
</a>
</g>
</g>
<!-- Node2&#45;&gt;Node4 -->
<g id="edge3" class="edge">
<title>Node2&#45;&gt;Node4</title>
<path fill="none" stroke="midnightblue" d="M202.29,-47.15C180.93,-44.98 157.58,-42.6 137.24,-40.53"/>
<polygon fill="midnightblue" stroke="midnightblue" points="201.97,-50.64 212.28,-48.17 202.68,-43.67 201.97,-50.64"/>
</g>
</g>
</svg>
