<?xml version="1.0" encoding="UTF-8" standalone="no"?>
<!DOCTYPE svg PUBLIC "-//W3C//DTD SVG 1.1//EN"
 "http://www.w3.org/Graphics/SVG/1.1/DTD/svg11.dtd">
<!-- Generated by graphviz version 2.43.0 (0)
 -->
<!-- Title: minimize_update_anderson Pages: 1 -->
<svg width="540pt" height="78pt"
 viewBox="0.00 0.00 540.00 77.50" xmlns="http://www.w3.org/2000/svg" xmlns:xlink="http://www.w3.org/1999/xlink">
<g id="graph0" class="graph" transform="scale(1 1) rotate(0) translate(4 73.5)">
<title>minimize_update_anderson</title>
<polygon fill="white" stroke="transparent" points="-4,4 -4,-73.5 536,-73.5 536,4 -4,4"/>
<!-- Node1 -->
<g id="node1" class="node">
<title>Node1</title>
<g id="a_node1"><a xlink:title="Solve one step of Anderson acceleration to find a fixed point of a function g(x):">
<polygon fill="#bfbfbf" stroke="black" points="380,-22.5 380,-41.5 532,-41.5 532,-22.5 380,-22.5"/>
<text text-anchor="middle" x="456" y="-29.5" font-family="Helvetica,sans-Serif" font-size="10.00">minimize_update_anderson</text>
</a>
</g>
</g>
<!-- Node2 -->
<g id="node2" class="node">
<title>Node2</title>
<g id="a_node2"><a xlink:href="../../da/db8/classpa_1_1AndersonAccel.html#a631bbbe30343f7e51af52d3d4e7804c6" target="_top" xlink:title=" ">
<polygon fill="white" stroke="black" points="205.5,-39 205.5,-69 318.5,-69 318.5,-39 205.5,-39"/>
<text text-anchor="start" x="213.5" y="-57" font-family="Helvetica,sans-Serif" font-size="10.00">pa::AndersonAccel::</text>
<text text-anchor="middle" x="262" y="-46" font-family="Helvetica,sans-Serif" font-size="10.00">compute</text>
</a>
</g>
</g>
<!-- Node1&#45;&gt;Node2 -->
<g id="edge1" class="edge">
<title>Node1&#45;&gt;Node2</title>
<path fill="none" stroke="midnightblue" d="M369.81,-41.76C352.48,-43.75 334.67,-45.79 318.68,-47.62"/>
<polygon fill="midnightblue" stroke="midnightblue" points="370.41,-45.22 379.94,-40.6 369.61,-38.26 370.41,-45.22"/>
</g>
<!-- Node4 -->
<g id="node4" class="node">
<title>Node4</title>
<g id="a_node4"><a xlink:href="../../d8/d33/classpa_1_1GuardedAAPGA.html#a656a1117248ac02387eb817ee135df0e" target="_top" xlink:title=" ">
<polygon fill="white" stroke="black" points="180,-0.5 180,-19.5 344,-19.5 344,-0.5 180,-0.5"/>
<text text-anchor="middle" x="262" y="-7.5" font-family="Helvetica,sans-Serif" font-size="10.00">pa::GuardedAAPGA::operator()</text>
</a>
</g>
</g>
<!-- Node1&#45;&gt;Node4 -->
<g id="edge3" class="edge">
<title>Node1&#45;&gt;Node4</title>
<path fill="none" stroke="midnightblue" d="M369.92,-22.25C361.31,-21.27 352.59,-20.27 344.03,-19.29"/>
<polygon fill="midnightblue" stroke="midnightblue" points="369.61,-25.74 379.94,-23.4 370.41,-18.78 369.61,-25.74"/>
</g>
<!-- Node3 -->
<g id="node3" class="node">
<title>Node3</title>
<g id="a_node3"><a xlink:href="../../db/d62/structpa_1_1PANOCDirection_3_01AndersonAccel_01_4.html#ab6c112897f55aafb9f1aeef9541a5272" target="_top" xlink:title=" ">
<polygon fill="white" stroke="black" points="0,-39 0,-69 144,-69 144,-39 0,-39"/>
<text text-anchor="start" x="8" y="-57" font-family="Helvetica,sans-Serif" font-size="10.00">pa::PANOCDirection</text>
<text text-anchor="middle" x="72" y="-46" font-family="Helvetica,sans-Serif" font-size="10.00">&lt; AndersonAccel &gt;::apply</text>
</a>
</g>
</g>
<!-- Node2&#45;&gt;Node3 -->
<g id="edge2" class="edge">
<title>Node2&#45;&gt;Node3</title>
<path fill="none" stroke="midnightblue" d="M195.27,-54C178.77,-54 160.98,-54 144.23,-54"/>
<polygon fill="midnightblue" stroke="midnightblue" points="195.36,-57.5 205.36,-54 195.36,-50.5 195.36,-57.5"/>
</g>
</g>
</svg>
