<?xml version="1.0" encoding="UTF-8" standalone="no"?>
<!DOCTYPE svg PUBLIC "-//W3C//DTD SVG 1.1//EN"
 "http://www.w3.org/Graphics/SVG/1.1/DTD/svg11.dtd">
<!-- Generated by graphviz version 2.43.0 (0)
 -->
<!-- Title: alm.cpp Pages: 1 -->
<svg width="1531pt" height="464pt"
 viewBox="0.00 0.00 1531.00 464.00" xmlns="http://www.w3.org/2000/svg" xmlns:xlink="http://www.w3.org/1999/xlink">
<g id="graph0" class="graph" transform="scale(1 1) rotate(0) translate(4 460)">
<title>alm.cpp</title>
<polygon fill="white" stroke="transparent" points="-4,4 -4,-460 1527,-460 1527,4 -4,4"/>
<!-- Node1 -->
<g id="node1" class="node">
<title>Node1</title>
<g id="a_node1"><a xlink:title=" ">
<polygon fill="#bfbfbf" stroke="black" points="555,-436.5 555,-455.5 611,-455.5 611,-436.5 555,-436.5"/>
<text text-anchor="middle" x="583" y="-443.5" font-family="Helvetica,sans-Serif" font-size="10.00">alm.cpp</text>
</a>
</g>
</g>
<!-- Node2 -->
<g id="node2" class="node">
<title>Node2</title>
<g id="a_node2"><a xlink:href="../../d2/ddc/alm_8hpp.html" target="_top" xlink:title=" ">
<polygon fill="white" stroke="black" points="230.5,-380.5 230.5,-399.5 341.5,-399.5 341.5,-380.5 230.5,-380.5"/>
<text text-anchor="middle" x="286" y="-387.5" font-family="Helvetica,sans-Serif" font-size="10.00">panoc&#45;alm/alm.hpp</text>
</a>
</g>
</g>
<!-- Node1&#45;&gt;Node2 -->
<g id="edge1" class="edge">
<title>Node1&#45;&gt;Node2</title>
<path fill="none" stroke="midnightblue" d="M554.79,-439.87C506.27,-431.05 406.14,-412.84 342.73,-401.31"/>
<polygon fill="midnightblue" stroke="midnightblue" points="343.34,-397.87 332.88,-399.52 342.09,-404.76 343.34,-397.87"/>
</g>
<!-- Node20 -->
<g id="node20" class="node">
<title>Node20</title>
<g id="a_node20"><a xlink:href="../../dd/deb/lbfgs_8hpp.html" target="_top" xlink:title=" ">
<polygon fill="white" stroke="black" points="913.5,-246.5 913.5,-276.5 1060.5,-276.5 1060.5,-246.5 913.5,-246.5"/>
<text text-anchor="start" x="921.5" y="-264.5" font-family="Helvetica,sans-Serif" font-size="10.00">panoc&#45;alm/inner/directions</text>
<text text-anchor="middle" x="987" y="-253.5" font-family="Helvetica,sans-Serif" font-size="10.00">/lbfgs.hpp</text>
</a>
</g>
</g>
<!-- Node1&#45;&gt;Node20 -->
<g id="edge21" class="edge">
<title>Node1&#45;&gt;Node20</title>
<path fill="none" stroke="midnightblue" d="M601.94,-436.44C663.82,-408.49 860.91,-319.46 946.58,-280.76"/>
<polygon fill="midnightblue" stroke="midnightblue" points="948.06,-283.93 955.74,-276.62 945.18,-277.55 948.06,-283.93"/>
</g>
<!-- Node23 -->
<g id="node23" class="node">
<title>Node23</title>
<g id="a_node23"><a xlink:href="../../d5/de9/panoc_8hpp.html" target="_top" xlink:title=" ">
<polygon fill="white" stroke="black" points="508.5,-319 508.5,-338 657.5,-338 657.5,-319 508.5,-319"/>
<text text-anchor="middle" x="583" y="-326" font-family="Helvetica,sans-Serif" font-size="10.00">panoc&#45;alm/inner/panoc.hpp</text>
</a>
</g>
</g>
<!-- Node1&#45;&gt;Node23 -->
<g id="edge28" class="edge">
<title>Node1&#45;&gt;Node23</title>
<path fill="none" stroke="midnightblue" d="M583,-436.32C583,-417.76 583,-373.84 583,-348.47"/>
<polygon fill="midnightblue" stroke="midnightblue" points="586.5,-348.28 583,-338.28 579.5,-348.28 586.5,-348.28"/>
</g>
<!-- Node3 -->
<g id="node3" class="node">
<title>Node3</title>
<g id="a_node3"><a xlink:href="../../dc/d8c/solverstatus_8hpp.html" target="_top" xlink:title=" ">
<polygon fill="white" stroke="black" points="28.5,-185 28.5,-204 199.5,-204 199.5,-185 28.5,-185"/>
<text text-anchor="middle" x="114" y="-192" font-family="Helvetica,sans-Serif" font-size="10.00">panoc&#45;alm/util/solverstatus.hpp</text>
</a>
</g>
</g>
<!-- Node2&#45;&gt;Node3 -->
<g id="edge2" class="edge">
<title>Node2&#45;&gt;Node3</title>
<path fill="none" stroke="midnightblue" d="M232.75,-380.47C177.15,-368.33 93.1,-340.09 57,-277 50.16,-265.04 51.35,-258.56 57,-246 63.77,-230.96 77.47,-218.59 89.75,-209.86"/>
<polygon fill="midnightblue" stroke="midnightblue" points="91.93,-212.61 98.31,-204.15 88.05,-206.78 91.93,-212.61"/>
</g>
<!-- Node5 -->
<g id="node5" class="node">
<title>Node5</title>
<g id="a_node5"><a xlink:href="../../d7/d7c/vec_8hpp.html" target="_top" xlink:title=" ">
<polygon fill="white" stroke="black" points="992,-56.5 992,-75.5 1120,-75.5 1120,-56.5 992,-56.5"/>
<text text-anchor="middle" x="1056" y="-63.5" font-family="Helvetica,sans-Serif" font-size="10.00">panoc&#45;alm/util/vec.hpp</text>
</a>
</g>
</g>
<!-- Node2&#45;&gt;Node5 -->
<g id="edge4" class="edge">
<title>Node2&#45;&gt;Node5</title>
<path fill="none" stroke="midnightblue" d="M230.18,-388.28C146.95,-383.93 0,-362.13 0,-262.5 0,-262.5 0,-262.5 0,-193.5 0,-142.43 34.31,-132.7 81,-112 162.45,-75.89 768.08,-68.74 981.68,-67.34"/>
<polygon fill="midnightblue" stroke="midnightblue" points="981.88,-70.84 991.86,-67.27 981.84,-63.84 981.88,-70.84"/>
</g>
<!-- Node7 -->
<g id="node7" class="node">
<title>Node7</title>
<g id="a_node7"><a xlink:title=" ">
<polygon fill="white" stroke="#bfbfbf" points="302,-252 302,-271 358,-271 358,-252 302,-252"/>
<text text-anchor="middle" x="330" y="-259" font-family="Helvetica,sans-Serif" font-size="10.00">iomanip</text>
</a>
</g>
</g>
<!-- Node2&#45;&gt;Node7 -->
<g id="edge6" class="edge">
<title>Node2&#45;&gt;Node7</title>
<path fill="none" stroke="midnightblue" d="M291.46,-380.34C296.83,-371.5 304.94,-357.23 310,-344 317.95,-323.21 323.53,-298.22 326.74,-281.43"/>
<polygon fill="midnightblue" stroke="midnightblue" points="330.24,-281.75 328.59,-271.28 323.36,-280.49 330.24,-281.75"/>
</g>
<!-- Node8 -->
<g id="node8" class="node">
<title>Node8</title>
<g id="a_node8"><a xlink:title=" ">
<polygon fill="white" stroke="#bfbfbf" points="376,-252 376,-271 436,-271 436,-252 376,-252"/>
<text text-anchor="middle" x="406" y="-259" font-family="Helvetica,sans-Serif" font-size="10.00">iostream</text>
</a>
</g>
</g>
<!-- Node2&#45;&gt;Node8 -->
<g id="edge7" class="edge">
<title>Node2&#45;&gt;Node8</title>
<path fill="none" stroke="midnightblue" d="M294.26,-380.39C302.93,-371.34 316.94,-356.69 329,-344 350.47,-321.41 375.2,-295.2 390.71,-278.73"/>
<polygon fill="midnightblue" stroke="midnightblue" points="393.61,-280.76 397.92,-271.08 388.52,-275.96 393.61,-280.76"/>
</g>
<!-- Node9 -->
<g id="node9" class="node">
<title>Node9</title>
<g id="a_node9"><a xlink:href="../../d6/de7/alm-helpers_8hpp.html" target="_top" xlink:title=" ">
<polygon fill="white" stroke="black" points="180.5,-313.5 180.5,-343.5 301.5,-343.5 301.5,-313.5 180.5,-313.5"/>
<text text-anchor="start" x="188.5" y="-331.5" font-family="Helvetica,sans-Serif" font-size="10.00">panoc&#45;alm/detail/alm</text>
<text text-anchor="middle" x="241" y="-320.5" font-family="Helvetica,sans-Serif" font-size="10.00">&#45;helpers.hpp</text>
</a>
</g>
</g>
<!-- Node2&#45;&gt;Node9 -->
<g id="edge8" class="edge">
<title>Node2&#45;&gt;Node9</title>
<path fill="none" stroke="midnightblue" d="M279.55,-380.48C273.86,-372.94 265.3,-361.63 257.69,-351.57"/>
<polygon fill="midnightblue" stroke="midnightblue" points="260.43,-349.39 251.61,-343.52 254.85,-353.61 260.43,-349.39"/>
</g>
<!-- Node4 -->
<g id="node4" class="node">
<title>Node4</title>
<g id="a_node4"><a xlink:title=" ">
<polygon fill="white" stroke="#bfbfbf" points="90,-118 90,-137 138,-137 138,-118 90,-118"/>
<text text-anchor="middle" x="114" y="-125" font-family="Helvetica,sans-Serif" font-size="10.00">iosfwd</text>
</a>
</g>
</g>
<!-- Node3&#45;&gt;Node4 -->
<g id="edge3" class="edge">
<title>Node3&#45;&gt;Node4</title>
<path fill="none" stroke="midnightblue" d="M114,-184.73C114,-175.18 114,-159.62 114,-147.28"/>
<polygon fill="midnightblue" stroke="midnightblue" points="117.5,-147.13 114,-137.13 110.5,-147.13 117.5,-147.13"/>
</g>
<!-- Node6 -->
<g id="node6" class="node">
<title>Node6</title>
<g id="a_node6"><a xlink:title=" ">
<polygon fill="white" stroke="#bfbfbf" points="1021.5,-0.5 1021.5,-19.5 1090.5,-19.5 1090.5,-0.5 1021.5,-0.5"/>
<text text-anchor="middle" x="1056" y="-7.5" font-family="Helvetica,sans-Serif" font-size="10.00">Eigen/Core</text>
</a>
</g>
</g>
<!-- Node5&#45;&gt;Node6 -->
<g id="edge5" class="edge">
<title>Node5&#45;&gt;Node6</title>
<path fill="none" stroke="midnightblue" d="M1056,-56.08C1056,-49.01 1056,-38.86 1056,-29.99"/>
<polygon fill="midnightblue" stroke="midnightblue" points="1059.5,-29.75 1056,-19.75 1052.5,-29.75 1059.5,-29.75"/>
</g>
<!-- Node10 -->
<g id="node10" class="node">
<title>Node10</title>
<g id="a_node10"><a xlink:href="../../d4/dd2/decl_2alm_8hpp.html" target="_top" xlink:title=" ">
<polygon fill="white" stroke="black" points="66,-252 66,-271 200,-271 200,-252 66,-252"/>
<text text-anchor="middle" x="133" y="-259" font-family="Helvetica,sans-Serif" font-size="10.00">panoc&#45;alm/decl/alm.hpp</text>
</a>
</g>
</g>
<!-- Node9&#45;&gt;Node10 -->
<g id="edge9" class="edge">
<title>Node9&#45;&gt;Node10</title>
<path fill="none" stroke="midnightblue" d="M217.57,-313.4C199.29,-302.39 174.04,-287.2 155.9,-276.28"/>
<polygon fill="midnightblue" stroke="midnightblue" points="157.51,-273.16 147.13,-271.01 153.9,-279.16 157.51,-273.16"/>
</g>
<!-- Node19 -->
<g id="node19" class="node">
<title>Node19</title>
<g id="a_node19"><a xlink:title=" ">
<polygon fill="white" stroke="#bfbfbf" points="218.5,-252 218.5,-271 283.5,-271 283.5,-252 218.5,-252"/>
<text text-anchor="middle" x="251" y="-259" font-family="Helvetica,sans-Serif" font-size="10.00">stdexcept</text>
</a>
</g>
</g>
<!-- Node9&#45;&gt;Node19 -->
<g id="edge20" class="edge">
<title>Node9&#45;&gt;Node19</title>
<path fill="none" stroke="midnightblue" d="M243.17,-313.4C244.62,-303.96 246.55,-291.45 248.12,-281.19"/>
<polygon fill="midnightblue" stroke="midnightblue" points="251.6,-281.61 249.66,-271.19 244.68,-280.55 251.6,-281.61"/>
</g>
<!-- Node10&#45;&gt;Node3 -->
<g id="edge17" class="edge">
<title>Node10&#45;&gt;Node3</title>
<path fill="none" stroke="midnightblue" d="M130.44,-251.73C127.62,-242.09 123,-226.3 119.38,-213.91"/>
<polygon fill="midnightblue" stroke="midnightblue" points="122.69,-212.74 116.52,-204.13 115.97,-214.71 122.69,-212.74"/>
</g>
<!-- Node11 -->
<g id="node11" class="node">
<title>Node11</title>
<g id="a_node11"><a xlink:href="../../d4/d83/panoc-fwd_8hpp.html" target="_top" xlink:title=" ">
<polygon fill="white" stroke="black" points="698.5,-179.5 698.5,-209.5 817.5,-209.5 817.5,-179.5 698.5,-179.5"/>
<text text-anchor="start" x="706.5" y="-197.5" font-family="Helvetica,sans-Serif" font-size="10.00">panoc&#45;alm/inner/decl</text>
<text text-anchor="middle" x="758" y="-186.5" font-family="Helvetica,sans-Serif" font-size="10.00">/panoc&#45;fwd.hpp</text>
</a>
</g>
</g>
<!-- Node10&#45;&gt;Node11 -->
<g id="edge10" class="edge">
<title>Node10&#45;&gt;Node11</title>
<path fill="none" stroke="midnightblue" d="M173.09,-251.97C184.64,-249.75 197.28,-247.55 209,-246 417.87,-218.33 475.46,-239.4 688.32,-209.96"/>
<polygon fill="midnightblue" stroke="midnightblue" points="688.83,-213.42 698.25,-208.56 687.86,-206.49 688.83,-213.42"/>
</g>
<!-- Node13 -->
<g id="node13" class="node">
<title>Node13</title>
<g id="a_node13"><a xlink:href="../../d5/d37/problem_8hpp.html" target="_top" xlink:title=" ">
<polygon fill="white" stroke="black" points="218,-185 218,-204 370,-204 370,-185 218,-185"/>
<text text-anchor="middle" x="294" y="-192" font-family="Helvetica,sans-Serif" font-size="10.00">panoc&#45;alm/util/problem.hpp</text>
</a>
</g>
</g>
<!-- Node10&#45;&gt;Node13 -->
<g id="edge12" class="edge">
<title>Node10&#45;&gt;Node13</title>
<path fill="none" stroke="midnightblue" d="M154.38,-251.87C182.36,-240.57 231.59,-220.7 263.49,-207.82"/>
<polygon fill="midnightblue" stroke="midnightblue" points="264.83,-211.05 272.79,-204.06 262.21,-204.56 264.83,-211.05"/>
</g>
<!-- Node17 -->
<g id="node17" class="node">
<title>Node17</title>
<g id="a_node17"><a xlink:title=" ">
<polygon fill="white" stroke="#bfbfbf" points="450,-185 450,-204 500,-204 500,-185 450,-185"/>
<text text-anchor="middle" x="475" y="-192" font-family="Helvetica,sans-Serif" font-size="10.00">chrono</text>
</a>
</g>
</g>
<!-- Node10&#45;&gt;Node17 -->
<g id="edge18" class="edge">
<title>Node10&#45;&gt;Node17</title>
<path fill="none" stroke="midnightblue" d="M176.36,-251.96C187.02,-249.93 198.41,-247.83 209,-246 311.82,-228.22 340.68,-238.69 441,-210 443.29,-209.34 445.63,-208.58 447.96,-207.74"/>
<polygon fill="midnightblue" stroke="midnightblue" points="449.3,-210.97 457.31,-204.03 446.72,-204.46 449.3,-210.97"/>
</g>
<!-- Node18 -->
<g id="node18" class="node">
<title>Node18</title>
<g id="a_node18"><a xlink:title=" ">
<polygon fill="white" stroke="#bfbfbf" points="388,-185 388,-204 432,-204 432,-185 388,-185"/>
<text text-anchor="middle" x="410" y="-192" font-family="Helvetica,sans-Serif" font-size="10.00">string</text>
</a>
</g>
</g>
<!-- Node10&#45;&gt;Node18 -->
<g id="edge19" class="edge">
<title>Node10&#45;&gt;Node18</title>
<path fill="none" stroke="midnightblue" d="M177.52,-251.95C243.14,-239.26 360.12,-216.26 379,-210 380.67,-209.45 382.36,-208.83 384.06,-208.17"/>
<polygon fill="midnightblue" stroke="midnightblue" points="385.77,-211.24 393.56,-204.06 382.99,-204.82 385.77,-211.24"/>
</g>
<!-- Node12 -->
<g id="node12" class="node">
<title>Node12</title>
<g id="a_node12"><a xlink:href="../../d4/d5e/lbfgs-fwd_8hpp.html" target="_top" xlink:title=" ">
<polygon fill="white" stroke="black" points="991.5,-112.5 991.5,-142.5 1138.5,-142.5 1138.5,-112.5 991.5,-112.5"/>
<text text-anchor="start" x="999.5" y="-130.5" font-family="Helvetica,sans-Serif" font-size="10.00">panoc&#45;alm/inner/directions</text>
<text text-anchor="middle" x="1065" y="-119.5" font-family="Helvetica,sans-Serif" font-size="10.00">/decl/lbfgs&#45;fwd.hpp</text>
</a>
</g>
</g>
<!-- Node11&#45;&gt;Node12 -->
<g id="edge11" class="edge">
<title>Node11&#45;&gt;Node12</title>
<path fill="none" stroke="midnightblue" d="M817.56,-180.89C866.37,-170.55 935.79,-155.86 988.68,-144.66"/>
<polygon fill="midnightblue" stroke="midnightblue" points="989.63,-148.04 998.69,-142.54 988.18,-141.19 989.63,-148.04"/>
</g>
<!-- Node14 -->
<g id="node14" class="node">
<title>Node14</title>
<g id="a_node14"><a xlink:href="../../d7/de4/box_8hpp.html" target="_top" xlink:title=" ">
<polygon fill="white" stroke="black" points="917,-118 917,-137 973,-137 973,-118 917,-118"/>
<text text-anchor="middle" x="945" y="-125" font-family="Helvetica,sans-Serif" font-size="10.00">box.hpp</text>
</a>
</g>
</g>
<!-- Node13&#45;&gt;Node14 -->
<g id="edge13" class="edge">
<title>Node13&#45;&gt;Node14</title>
<path fill="none" stroke="midnightblue" d="M340.22,-184.92C352.77,-182.78 366.38,-180.64 379,-179 576.86,-153.34 815.35,-136.7 906.78,-130.85"/>
<polygon fill="midnightblue" stroke="midnightblue" points="907.18,-134.33 916.94,-130.21 906.74,-127.35 907.18,-134.33"/>
</g>
<!-- Node15 -->
<g id="node15" class="node">
<title>Node15</title>
<g id="a_node15"><a xlink:title=" ">
<polygon fill="white" stroke="#bfbfbf" points="303.5,-118 303.5,-137 368.5,-137 368.5,-118 303.5,-118"/>
<text text-anchor="middle" x="336" y="-125" font-family="Helvetica,sans-Serif" font-size="10.00">functional</text>
</a>
</g>
</g>
<!-- Node13&#45;&gt;Node15 -->
<g id="edge15" class="edge">
<title>Node13&#45;&gt;Node15</title>
<path fill="none" stroke="midnightblue" d="M299.66,-184.73C306.09,-174.79 316.72,-158.34 324.83,-145.79"/>
<polygon fill="midnightblue" stroke="midnightblue" points="327.94,-147.43 330.43,-137.13 322.06,-143.63 327.94,-147.43"/>
</g>
<!-- Node16 -->
<g id="node16" class="node">
<title>Node16</title>
<g id="a_node16"><a xlink:title=" ">
<polygon fill="white" stroke="#bfbfbf" points="216.5,-118 216.5,-137 285.5,-137 285.5,-118 216.5,-118"/>
<text text-anchor="middle" x="251" y="-125" font-family="Helvetica,sans-Serif" font-size="10.00">type_traits</text>
</a>
</g>
</g>
<!-- Node13&#45;&gt;Node16 -->
<g id="edge16" class="edge">
<title>Node13&#45;&gt;Node16</title>
<path fill="none" stroke="midnightblue" d="M288.2,-184.73C281.62,-174.79 270.74,-158.34 262.44,-145.79"/>
<polygon fill="midnightblue" stroke="midnightblue" points="265.14,-143.54 256.71,-137.13 259.31,-147.4 265.14,-143.54"/>
</g>
<!-- Node14&#45;&gt;Node5 -->
<g id="edge14" class="edge">
<title>Node14&#45;&gt;Node5</title>
<path fill="none" stroke="midnightblue" d="M960.9,-117.98C979.28,-108.12 1009.76,-91.79 1031.24,-80.27"/>
<polygon fill="midnightblue" stroke="midnightblue" points="1032.97,-83.32 1040.13,-75.51 1029.66,-77.15 1032.97,-83.32"/>
</g>
<!-- Node21 -->
<g id="node21" class="node">
<title>Node21</title>
<g id="a_node21"><a xlink:href="../../d1/db5/decl_2lbfgs_8hpp.html" target="_top" xlink:title=" ">
<polygon fill="white" stroke="black" points="1093.5,-179.5 1093.5,-209.5 1240.5,-209.5 1240.5,-179.5 1093.5,-179.5"/>
<text text-anchor="start" x="1101.5" y="-197.5" font-family="Helvetica,sans-Serif" font-size="10.00">panoc&#45;alm/inner/directions</text>
<text text-anchor="middle" x="1167" y="-186.5" font-family="Helvetica,sans-Serif" font-size="10.00">/decl/lbfgs.hpp</text>
</a>
</g>
</g>
<!-- Node20&#45;&gt;Node21 -->
<g id="edge22" class="edge">
<title>Node20&#45;&gt;Node21</title>
<path fill="none" stroke="midnightblue" d="M1026.06,-246.4C1053.18,-236.6 1089.51,-223.48 1118.5,-213.02"/>
<polygon fill="midnightblue" stroke="midnightblue" points="1119.8,-216.26 1128.02,-209.58 1117.42,-209.68 1119.8,-216.26"/>
</g>
<!-- Node22 -->
<g id="node22" class="node">
<title>Node22</title>
<g id="a_node22"><a xlink:href="../../d3/dfa/panoc-direction-update_8hpp.html" target="_top" xlink:title=" ">
<polygon fill="white" stroke="black" points="898.5,-179.5 898.5,-209.5 1075.5,-209.5 1075.5,-179.5 898.5,-179.5"/>
<text text-anchor="start" x="906.5" y="-197.5" font-family="Helvetica,sans-Serif" font-size="10.00">panoc&#45;alm/inner/directions</text>
<text text-anchor="middle" x="987" y="-186.5" font-family="Helvetica,sans-Serif" font-size="10.00">/decl/panoc&#45;direction&#45;update.hpp</text>
</a>
</g>
</g>
<!-- Node20&#45;&gt;Node22 -->
<g id="edge26" class="edge">
<title>Node20&#45;&gt;Node22</title>
<path fill="none" stroke="midnightblue" d="M987,-246.4C987,-238.64 987,-228.81 987,-219.86"/>
<polygon fill="midnightblue" stroke="midnightblue" points="990.5,-219.58 987,-209.58 983.5,-219.58 990.5,-219.58"/>
</g>
<!-- Node21&#45;&gt;Node5 -->
<g id="edge24" class="edge">
<title>Node21&#45;&gt;Node5</title>
<path fill="none" stroke="midnightblue" d="M1167.23,-179.25C1166.79,-161.62 1163.57,-131.55 1148,-112 1135.66,-96.51 1116.65,-85.98 1099.1,-79.03"/>
<polygon fill="midnightblue" stroke="midnightblue" points="1100.15,-75.68 1089.55,-75.52 1097.74,-82.25 1100.15,-75.68"/>
</g>
<!-- Node21&#45;&gt;Node12 -->
<g id="edge25" class="edge">
<title>Node21&#45;&gt;Node12</title>
<path fill="none" stroke="midnightblue" d="M1144.87,-179.4C1130.43,-170.2 1111.4,-158.07 1095.53,-147.95"/>
<polygon fill="midnightblue" stroke="midnightblue" points="1097.4,-145 1087.09,-142.58 1093.64,-150.9 1097.4,-145"/>
</g>
<!-- Node21&#45;&gt;Node14 -->
<g id="edge23" class="edge">
<title>Node21&#45;&gt;Node14</title>
<path fill="none" stroke="midnightblue" d="M1110.21,-179.43C1073.62,-169.99 1025.19,-156.8 983,-143 980.73,-142.26 978.41,-141.46 976.07,-140.63"/>
<polygon fill="midnightblue" stroke="midnightblue" points="977.17,-137.31 966.57,-137.15 974.75,-143.88 977.17,-137.31"/>
</g>
<!-- Node22&#45;&gt;Node14 -->
<g id="edge27" class="edge">
<title>Node22&#45;&gt;Node14</title>
<path fill="none" stroke="midnightblue" d="M977.89,-179.4C971.53,-169.56 963.01,-156.38 956.24,-145.89"/>
<polygon fill="midnightblue" stroke="midnightblue" points="958.98,-143.69 950.62,-137.19 953.11,-147.49 958.98,-143.69"/>
</g>
<!-- Node23&#45;&gt;Node7 -->
<g id="edge52" class="edge">
<title>Node23&#45;&gt;Node7</title>
<path fill="none" stroke="midnightblue" d="M538.23,-318.99C494.2,-310.17 425.29,-295.13 367,-277 364.58,-276.25 362.09,-275.41 359.6,-274.53"/>
<polygon fill="midnightblue" stroke="midnightblue" points="360.76,-271.23 350.17,-271.01 358.31,-277.79 360.76,-271.23"/>
</g>
<!-- Node23&#45;&gt;Node8 -->
<g id="edge53" class="edge">
<title>Node23&#45;&gt;Node8</title>
<path fill="none" stroke="midnightblue" d="M559.55,-318.96C532.08,-308.95 485.21,-291.83 445,-277 442.91,-276.23 440.75,-275.43 438.58,-274.63"/>
<polygon fill="midnightblue" stroke="midnightblue" points="439.68,-271.3 429.09,-271.11 437.25,-277.87 439.68,-271.3"/>
</g>
<!-- Node23&#45;&gt;Node19 -->
<g id="edge54" class="edge">
<title>Node23&#45;&gt;Node19</title>
<path fill="none" stroke="midnightblue" d="M516.42,-319C457.22,-310.71 368.59,-296.5 293,-277 289.96,-276.22 286.83,-275.32 283.7,-274.35"/>
<polygon fill="midnightblue" stroke="midnightblue" points="284.5,-270.93 273.9,-271.15 282.32,-277.58 284.5,-270.93"/>
</g>
<!-- Node23&#45;&gt;Node22 -->
<g id="edge49" class="edge">
<title>Node23&#45;&gt;Node22</title>
<path fill="none" stroke="midnightblue" d="M657.64,-323.59C715.91,-318.32 797.82,-305.97 864,-277 884.93,-267.84 886.14,-258.89 905,-246 920.66,-235.29 938.54,-224.16 953.61,-215.08"/>
<polygon fill="midnightblue" stroke="midnightblue" points="955.79,-217.85 962.57,-209.71 952.2,-211.84 955.79,-217.85"/>
</g>
<!-- Node24 -->
<g id="node24" class="node">
<title>Node24</title>
<g id="a_node24"><a xlink:href="../../d2/da2/decl_2panoc_8hpp.html" target="_top" xlink:title=" ">
<polygon fill="white" stroke="black" points="735.5,-246.5 735.5,-276.5 854.5,-276.5 854.5,-246.5 735.5,-246.5"/>
<text text-anchor="start" x="743.5" y="-264.5" font-family="Helvetica,sans-Serif" font-size="10.00">panoc&#45;alm/inner/decl</text>
<text text-anchor="middle" x="795" y="-253.5" font-family="Helvetica,sans-Serif" font-size="10.00">/panoc.hpp</text>
</a>
</g>
</g>
<!-- Node23&#45;&gt;Node24 -->
<g id="edge29" class="edge">
<title>Node23&#45;&gt;Node24</title>
<path fill="none" stroke="midnightblue" d="M611.15,-318.87C643.79,-308.86 698.37,-292.13 739.61,-279.48"/>
<polygon fill="midnightblue" stroke="midnightblue" points="740.71,-282.81 749.25,-276.53 738.66,-276.11 740.71,-282.81"/>
</g>
<!-- Node28 -->
<g id="node28" class="node">
<title>Node28</title>
<g id="a_node28"><a xlink:href="../../da/d9f/anderson-helpers_8hpp.html" target="_top" xlink:title=" ">
<polygon fill="white" stroke="black" points="1169.5,-246.5 1169.5,-276.5 1296.5,-276.5 1296.5,-246.5 1169.5,-246.5"/>
<text text-anchor="start" x="1177.5" y="-264.5" font-family="Helvetica,sans-Serif" font-size="10.00">panoc&#45;alm/inner/detail</text>
<text text-anchor="middle" x="1233" y="-253.5" font-family="Helvetica,sans-Serif" font-size="10.00">/anderson&#45;helpers.hpp</text>
</a>
</g>
</g>
<!-- Node23&#45;&gt;Node28 -->
<g id="edge39" class="edge">
<title>Node23&#45;&gt;Node28</title>
<path fill="none" stroke="midnightblue" d="M657.56,-320.04C782.92,-307.51 1034.42,-282.36 1159.24,-269.88"/>
<polygon fill="midnightblue" stroke="midnightblue" points="1159.86,-273.33 1169.46,-268.85 1159.16,-266.37 1159.86,-273.33"/>
</g>
<!-- Node34 -->
<g id="node34" class="node">
<title>Node34</title>
<g id="a_node34"><a xlink:href="../../d8/df1/panoc-helpers_8hpp.html" target="_top" xlink:title=" ">
<polygon fill="white" stroke="black" points="519.5,-246.5 519.5,-276.5 646.5,-276.5 646.5,-246.5 519.5,-246.5"/>
<text text-anchor="start" x="527.5" y="-264.5" font-family="Helvetica,sans-Serif" font-size="10.00">panoc&#45;alm/inner/detail</text>
<text text-anchor="middle" x="583" y="-253.5" font-family="Helvetica,sans-Serif" font-size="10.00">/panoc&#45;helpers.hpp</text>
</a>
</g>
</g>
<!-- Node23&#45;&gt;Node34 -->
<g id="edge47" class="edge">
<title>Node23&#45;&gt;Node34</title>
<path fill="none" stroke="midnightblue" d="M583,-318.73C583,-310.54 583,-297.92 583,-286.71"/>
<polygon fill="midnightblue" stroke="midnightblue" points="586.5,-286.59 583,-276.59 579.5,-286.59 586.5,-286.59"/>
</g>
<!-- Node35 -->
<g id="node35" class="node">
<title>Node35</title>
<g id="a_node35"><a xlink:title=" ">
<polygon fill="white" stroke="#bfbfbf" points="665,-252 665,-271 717,-271 717,-252 665,-252"/>
<text text-anchor="middle" x="691" y="-259" font-family="Helvetica,sans-Serif" font-size="10.00">cassert</text>
</a>
</g>
</g>
<!-- Node23&#45;&gt;Node35 -->
<g id="edge50" class="edge">
<title>Node23&#45;&gt;Node35</title>
<path fill="none" stroke="midnightblue" d="M597.57,-318.73C615.62,-307.87 646.61,-289.22 667.92,-276.39"/>
<polygon fill="midnightblue" stroke="midnightblue" points="669.9,-279.28 676.67,-271.13 666.29,-273.29 669.9,-279.28"/>
</g>
<!-- Node36 -->
<g id="node36" class="node">
<title>Node36</title>
<g id="a_node36"><a xlink:title=" ">
<polygon fill="white" stroke="#bfbfbf" points="454.5,-252 454.5,-271 501.5,-271 501.5,-252 454.5,-252"/>
<text text-anchor="middle" x="478" y="-259" font-family="Helvetica,sans-Serif" font-size="10.00">cmath</text>
</a>
</g>
</g>
<!-- Node23&#45;&gt;Node36 -->
<g id="edge51" class="edge">
<title>Node23&#45;&gt;Node36</title>
<path fill="none" stroke="midnightblue" d="M568.84,-318.73C551.29,-307.87 521.16,-289.22 500.44,-276.39"/>
<polygon fill="midnightblue" stroke="midnightblue" points="502.28,-273.41 491.94,-271.13 498.6,-279.37 502.28,-273.41"/>
</g>
<!-- Node24&#45;&gt;Node3 -->
<g id="edge34" class="edge">
<title>Node24&#45;&gt;Node3</title>
<path fill="none" stroke="midnightblue" d="M735.25,-247.42C732.13,-246.9 729.03,-246.42 726,-246 497.87,-214.24 437.93,-235.4 209,-210 197.84,-208.76 185.99,-207.17 174.57,-205.5"/>
<polygon fill="midnightblue" stroke="midnightblue" points="175.09,-202.04 164.68,-204.02 174.05,-208.96 175.09,-202.04"/>
</g>
<!-- Node24&#45;&gt;Node11 -->
<g id="edge30" class="edge">
<title>Node24&#45;&gt;Node11</title>
<path fill="none" stroke="midnightblue" d="M786.97,-246.4C782.32,-238.22 776.34,-227.73 771.03,-218.39"/>
<polygon fill="midnightblue" stroke="midnightblue" points="774,-216.54 766.01,-209.58 767.92,-220 774,-216.54"/>
</g>
<!-- Node24&#45;&gt;Node13 -->
<g id="edge33" class="edge">
<title>Node24&#45;&gt;Node13</title>
<path fill="none" stroke="midnightblue" d="M735.23,-247.54C732.11,-246.99 729.02,-246.47 726,-246 572.81,-222.02 532.61,-231.05 379,-210 369.85,-208.75 360.18,-207.26 350.76,-205.71"/>
<polygon fill="midnightblue" stroke="midnightblue" points="351.12,-202.23 340.68,-204.03 349.97,-209.13 351.12,-202.23"/>
</g>
<!-- Node24&#45;&gt;Node17 -->
<g id="edge36" class="edge">
<title>Node24&#45;&gt;Node17</title>
<path fill="none" stroke="midnightblue" d="M735.19,-247.78C732.08,-247.17 729.01,-246.57 726,-246 632.11,-228.17 606.31,-234.76 514,-210 511.19,-209.25 508.29,-208.37 505.41,-207.43"/>
<polygon fill="midnightblue" stroke="midnightblue" points="506.41,-204.07 495.82,-204.06 504.09,-210.67 506.41,-204.07"/>
</g>
<!-- Node24&#45;&gt;Node18 -->
<g id="edge38" class="edge">
<title>Node24&#45;&gt;Node18</title>
<path fill="none" stroke="midnightblue" d="M735.22,-247.63C732.1,-247.05 729.02,-246.51 726,-246 600.09,-224.85 563.65,-245.48 441,-210 439.07,-209.44 437.12,-208.78 435.17,-208.05"/>
<polygon fill="midnightblue" stroke="midnightblue" points="436.29,-204.72 425.72,-204.01 433.54,-211.16 436.29,-204.72"/>
</g>
<!-- Node25 -->
<g id="node25" class="node">
<title>Node25</title>
<g id="a_node25"><a xlink:href="../../d4/d52/atomic__stop__signal_8hpp.html" target="_top" xlink:title=" ">
<polygon fill="white" stroke="black" points="556,-179.5 556,-209.5 680,-209.5 680,-179.5 556,-179.5"/>
<text text-anchor="start" x="564" y="-197.5" font-family="Helvetica,sans-Serif" font-size="10.00">panoc&#45;alm/util/atomic</text>
<text text-anchor="middle" x="618" y="-186.5" font-family="Helvetica,sans-Serif" font-size="10.00">_stop_signal.hpp</text>
</a>
</g>
</g>
<!-- Node24&#45;&gt;Node25 -->
<g id="edge31" class="edge">
<title>Node24&#45;&gt;Node25</title>
<path fill="none" stroke="midnightblue" d="M756.59,-246.4C730.04,-236.64 694.5,-223.59 666.07,-213.15"/>
<polygon fill="midnightblue" stroke="midnightblue" points="666.93,-209.74 656.33,-209.58 664.51,-216.31 666.93,-209.74"/>
</g>
<!-- Node26 -->
<g id="node26" class="node">
<title>Node26</title>
<g id="a_node26"><a xlink:title=" ">
<polygon fill="white" stroke="#bfbfbf" points="548,-118 548,-137 598,-137 598,-118 548,-118"/>
<text text-anchor="middle" x="573" y="-125" font-family="Helvetica,sans-Serif" font-size="10.00">atomic</text>
</a>
</g>
</g>
<!-- Node24&#45;&gt;Node26 -->
<g id="edge35" class="edge">
<title>Node24&#45;&gt;Node26</title>
<path fill="none" stroke="midnightblue" d="M735.17,-247.89C732.07,-247.25 729,-246.62 726,-246 646.51,-229.66 598.41,-272.78 547,-210 531.62,-191.21 546.49,-163.18 559.24,-145.37"/>
<polygon fill="midnightblue" stroke="midnightblue" points="562.27,-147.17 565.55,-137.1 556.71,-142.93 562.27,-147.17"/>
</g>
<!-- Node27 -->
<g id="node27" class="node">
<title>Node27</title>
<g id="a_node27"><a xlink:title=" ">
<polygon fill="white" stroke="#bfbfbf" points="836,-185 836,-204 880,-204 880,-185 836,-185"/>
<text text-anchor="middle" x="858" y="-192" font-family="Helvetica,sans-Serif" font-size="10.00">limits</text>
</a>
</g>
</g>
<!-- Node24&#45;&gt;Node27 -->
<g id="edge37" class="edge">
<title>Node24&#45;&gt;Node27</title>
<path fill="none" stroke="midnightblue" d="M808.67,-246.4C818.59,-236.16 832.03,-222.3 842.37,-211.62"/>
<polygon fill="midnightblue" stroke="midnightblue" points="845.13,-213.81 849.57,-204.19 840.1,-208.94 845.13,-213.81"/>
</g>
<!-- Node25&#45;&gt;Node26 -->
<g id="edge32" class="edge">
<title>Node25&#45;&gt;Node26</title>
<path fill="none" stroke="midnightblue" d="M608.24,-179.4C601.36,-169.46 592.11,-156.11 584.82,-145.57"/>
<polygon fill="midnightblue" stroke="midnightblue" points="587.59,-143.42 579.02,-137.19 581.83,-147.41 587.59,-143.42"/>
</g>
<!-- Node29 -->
<g id="node29" class="node">
<title>Node29</title>
<g id="a_node29"><a xlink:href="../../db/da3/limited-memory-qr_8hpp.html" target="_top" xlink:title=" ">
<polygon fill="white" stroke="black" points="1258.5,-179.5 1258.5,-209.5 1391.5,-209.5 1391.5,-179.5 1258.5,-179.5"/>
<text text-anchor="start" x="1266.5" y="-197.5" font-family="Helvetica,sans-Serif" font-size="10.00">panoc&#45;alm/inner/detail</text>
<text text-anchor="middle" x="1325" y="-186.5" font-family="Helvetica,sans-Serif" font-size="10.00">/limited&#45;memory&#45;qr.hpp</text>
</a>
</g>
</g>
<!-- Node28&#45;&gt;Node29 -->
<g id="edge40" class="edge">
<title>Node28&#45;&gt;Node29</title>
<path fill="none" stroke="midnightblue" d="M1252.96,-246.4C1265.74,-237.37 1282.52,-225.51 1296.67,-215.52"/>
<polygon fill="midnightblue" stroke="midnightblue" points="1298.93,-218.21 1305.08,-209.58 1294.89,-212.49 1298.93,-218.21"/>
</g>
<!-- Node29&#45;&gt;Node5 -->
<g id="edge46" class="edge">
<title>Node29&#45;&gt;Node5</title>
<path fill="none" stroke="midnightblue" d="M1321.19,-179.21C1315.47,-160.66 1302.82,-128.72 1280,-112 1256.47,-94.76 1186.02,-82.47 1130.35,-75.14"/>
<polygon fill="midnightblue" stroke="midnightblue" points="1130.5,-71.63 1120.14,-73.83 1129.61,-78.58 1130.5,-71.63"/>
</g>
<!-- Node30 -->
<g id="node30" class="node">
<title>Node30</title>
<g id="a_node30"><a xlink:title=" ">
<polygon fill="white" stroke="#bfbfbf" points="1195,-118 1195,-137 1271,-137 1271,-118 1195,-118"/>
<text text-anchor="middle" x="1233" y="-125" font-family="Helvetica,sans-Serif" font-size="10.00">Eigen/Jacobi</text>
</a>
</g>
</g>
<!-- Node29&#45;&gt;Node30 -->
<g id="edge41" class="edge">
<title>Node29&#45;&gt;Node30</title>
<path fill="none" stroke="midnightblue" d="M1305.04,-179.4C1289.75,-168.6 1268.75,-153.76 1253.36,-142.89"/>
<polygon fill="midnightblue" stroke="midnightblue" points="1255.23,-139.92 1245.04,-137.01 1251.19,-145.64 1255.23,-139.92"/>
</g>
<!-- Node31 -->
<g id="node31" class="node">
<title>Node31</title>
<g id="a_node31"><a xlink:title=" ">
<polygon fill="white" stroke="#bfbfbf" points="1328.5,-56.5 1328.5,-75.5 1381.5,-75.5 1381.5,-56.5 1328.5,-56.5"/>
<text text-anchor="middle" x="1355" y="-63.5" font-family="Helvetica,sans-Serif" font-size="10.00">cstddef</text>
</a>
</g>
</g>
<!-- Node29&#45;&gt;Node31 -->
<g id="edge42" class="edge">
<title>Node29&#45;&gt;Node31</title>
<path fill="none" stroke="midnightblue" d="M1328.33,-179.48C1333.75,-156.62 1344.49,-111.3 1350.56,-85.71"/>
<polygon fill="midnightblue" stroke="midnightblue" points="1354.01,-86.33 1352.92,-75.79 1347.2,-84.71 1354.01,-86.33"/>
</g>
<!-- Node32 -->
<g id="node32" class="node">
<title>Node32</title>
<g id="a_node32"><a xlink:href="../../db/d0f/ringbuffer_8hpp.html" target="_top" xlink:title=" ">
<polygon fill="white" stroke="black" points="1365,-118 1365,-137 1523,-137 1523,-118 1365,-118"/>
<text text-anchor="middle" x="1444" y="-125" font-family="Helvetica,sans-Serif" font-size="10.00">panoc&#45;alm/util/ringbuffer.hpp</text>
</a>
</g>
</g>
<!-- Node29&#45;&gt;Node32 -->
<g id="edge43" class="edge">
<title>Node29&#45;&gt;Node32</title>
<path fill="none" stroke="midnightblue" d="M1350.82,-179.4C1371.24,-168.24 1399.55,-152.78 1419.59,-141.83"/>
<polygon fill="midnightblue" stroke="midnightblue" points="1421.33,-144.87 1428.43,-137.01 1417.97,-138.73 1421.33,-144.87"/>
</g>
<!-- Node32&#45;&gt;Node31 -->
<g id="edge44" class="edge">
<title>Node32&#45;&gt;Node31</title>
<path fill="none" stroke="midnightblue" d="M1431.25,-117.98C1416.97,-108.43 1393.6,-92.81 1376.49,-81.37"/>
<polygon fill="midnightblue" stroke="midnightblue" points="1377.99,-78.16 1367.73,-75.51 1374.1,-83.98 1377.99,-78.16"/>
</g>
<!-- Node33 -->
<g id="node33" class="node">
<title>Node33</title>
<g id="a_node33"><a xlink:title=" ">
<polygon fill="white" stroke="#bfbfbf" points="1417.5,-56.5 1417.5,-75.5 1470.5,-75.5 1470.5,-56.5 1417.5,-56.5"/>
<text text-anchor="middle" x="1444" y="-63.5" font-family="Helvetica,sans-Serif" font-size="10.00">iterator</text>
</a>
</g>
</g>
<!-- Node32&#45;&gt;Node33 -->
<g id="edge45" class="edge">
<title>Node32&#45;&gt;Node33</title>
<path fill="none" stroke="midnightblue" d="M1444,-117.98C1444,-109.58 1444,-96.48 1444,-85.66"/>
<polygon fill="midnightblue" stroke="midnightblue" points="1447.5,-85.51 1444,-75.51 1440.5,-85.51 1447.5,-85.51"/>
</g>
<!-- Node34&#45;&gt;Node13 -->
<g id="edge48" class="edge">
<title>Node34&#45;&gt;Node13</title>
<path fill="none" stroke="midnightblue" d="M520.65,-246.48C467.05,-234.42 390.86,-217.29 341.93,-206.28"/>
<polygon fill="midnightblue" stroke="midnightblue" points="342.44,-202.81 331.92,-204.03 340.91,-209.64 342.44,-202.81"/>
</g>
</g>
</svg>
