<?xml version="1.0" encoding="UTF-8" standalone="no"?>
<!DOCTYPE svg PUBLIC "-//W3C//DTD SVG 1.1//EN"
 "http://www.w3.org/Graphics/SVG/1.1/DTD/svg11.dtd">
<!-- Generated by graphviz version 2.43.0 (0)
 -->
<!-- Title: alm.hpp Pages: 1 -->
<svg width="808pt" height="397pt"
 viewBox="0.00 0.00 807.50 397.00" xmlns="http://www.w3.org/2000/svg" xmlns:xlink="http://www.w3.org/1999/xlink">
<g id="graph0" class="graph" transform="scale(1 1) rotate(0) translate(4 393)">
<title>alm.hpp</title>
<polygon fill="white" stroke="transparent" points="-4,4 -4,-393 803.5,-393 803.5,4 -4,4"/>
<!-- Node1 -->
<g id="node1" class="node">
<title>Node1</title>
<g id="a_node1"><a xlink:title=" ">
<polygon fill="#bfbfbf" stroke="black" points="609.5,-369.5 609.5,-388.5 665.5,-388.5 665.5,-369.5 609.5,-369.5"/>
<text text-anchor="middle" x="637.5" y="-376.5" font-family="Helvetica,sans-Serif" font-size="10.00">alm.hpp</text>
</a>
</g>
</g>
<!-- Node2 -->
<g id="node2" class="node">
<title>Node2</title>
<g id="a_node2"><a xlink:href="../../dc/d8c/solverstatus_8hpp.html" target="_top" xlink:title=" ">
<polygon fill="white" stroke="black" points="0,-185 0,-204 171,-204 171,-185 0,-185"/>
<text text-anchor="middle" x="85.5" y="-192" font-family="Helvetica,sans-Serif" font-size="10.00">panoc&#45;alm/util/solverstatus.hpp</text>
</a>
</g>
</g>
<!-- Node1&#45;&gt;Node2 -->
<g id="edge1" class="edge">
<title>Node1&#45;&gt;Node2</title>
<path fill="none" stroke="midnightblue" d="M609.48,-372.11C573.51,-364.31 509.31,-349.59 455.5,-333 326.83,-293.32 177.71,-233.55 115.33,-207.9"/>
<polygon fill="midnightblue" stroke="midnightblue" points="116.66,-204.67 106.08,-204.09 113.99,-211.14 116.66,-204.67"/>
</g>
<!-- Node4 -->
<g id="node4" class="node">
<title>Node4</title>
<g id="a_node4"><a xlink:href="../../d7/d7c/vec_8hpp.html" target="_top" xlink:title=" ">
<polygon fill="white" stroke="black" points="428.5,-56.5 428.5,-75.5 556.5,-75.5 556.5,-56.5 428.5,-56.5"/>
<text text-anchor="middle" x="492.5" y="-63.5" font-family="Helvetica,sans-Serif" font-size="10.00">panoc&#45;alm/util/vec.hpp</text>
</a>
</g>
</g>
<!-- Node1&#45;&gt;Node4 -->
<g id="edge3" class="edge">
<title>Node1&#45;&gt;Node4</title>
<path fill="none" stroke="midnightblue" d="M637.5,-369.49C637.5,-349.74 637.5,-299.22 637.5,-257 637.5,-257 637.5,-257 637.5,-193.5 637.5,-156.31 643.26,-139.76 618.5,-112 603.75,-95.46 582.5,-85 561.64,-78.39"/>
<polygon fill="midnightblue" stroke="midnightblue" points="562.36,-74.95 551.78,-75.52 560.41,-81.68 562.36,-74.95"/>
</g>
<!-- Node6 -->
<g id="node6" class="node">
<title>Node6</title>
<g id="a_node6"><a xlink:title=" ">
<polygon fill="white" stroke="#bfbfbf" points="665.5,-308 665.5,-327 721.5,-327 721.5,-308 665.5,-308"/>
<text text-anchor="middle" x="693.5" y="-315" font-family="Helvetica,sans-Serif" font-size="10.00">iomanip</text>
</a>
</g>
</g>
<!-- Node1&#45;&gt;Node6 -->
<g id="edge5" class="edge">
<title>Node1&#45;&gt;Node6</title>
<path fill="none" stroke="midnightblue" d="M645.52,-369.48C654.09,-360.37 667.86,-345.74 678.46,-334.48"/>
<polygon fill="midnightblue" stroke="midnightblue" points="681.19,-336.69 685.49,-327.01 676.09,-331.89 681.19,-336.69"/>
</g>
<!-- Node7 -->
<g id="node7" class="node">
<title>Node7</title>
<g id="a_node7"><a xlink:title=" ">
<polygon fill="white" stroke="#bfbfbf" points="739.5,-308 739.5,-327 799.5,-327 799.5,-308 739.5,-308"/>
<text text-anchor="middle" x="769.5" y="-315" font-family="Helvetica,sans-Serif" font-size="10.00">iostream</text>
</a>
</g>
</g>
<!-- Node1&#45;&gt;Node7 -->
<g id="edge6" class="edge">
<title>Node1&#45;&gt;Node7</title>
<path fill="none" stroke="midnightblue" d="M656.41,-369.48C678.66,-359.45 715.81,-342.7 741.43,-331.15"/>
<polygon fill="midnightblue" stroke="midnightblue" points="742.94,-334.31 750.62,-327.01 740.07,-327.93 742.94,-334.31"/>
</g>
<!-- Node8 -->
<g id="node8" class="node">
<title>Node8</title>
<g id="a_node8"><a xlink:href="../../d6/de7/alm-helpers_8hpp.html" target="_top" xlink:title=" ">
<polygon fill="white" stroke="black" points="465,-302.5 465,-332.5 586,-332.5 586,-302.5 465,-302.5"/>
<text text-anchor="start" x="473" y="-320.5" font-family="Helvetica,sans-Serif" font-size="10.00">panoc&#45;alm/detail/alm</text>
<text text-anchor="middle" x="525.5" y="-309.5" font-family="Helvetica,sans-Serif" font-size="10.00">&#45;helpers.hpp</text>
</a>
</g>
</g>
<!-- Node1&#45;&gt;Node8 -->
<g id="edge7" class="edge">
<title>Node1&#45;&gt;Node8</title>
<path fill="none" stroke="midnightblue" d="M621.45,-369.48C605.72,-361.12 581.2,-348.09 560.89,-337.3"/>
<polygon fill="midnightblue" stroke="midnightblue" points="562.37,-334.12 551.9,-332.52 559.09,-340.31 562.37,-334.12"/>
</g>
<!-- Node3 -->
<g id="node3" class="node">
<title>Node3</title>
<g id="a_node3"><a xlink:title=" ">
<polygon fill="white" stroke="#bfbfbf" points="61.5,-118 61.5,-137 109.5,-137 109.5,-118 61.5,-118"/>
<text text-anchor="middle" x="85.5" y="-125" font-family="Helvetica,sans-Serif" font-size="10.00">iosfwd</text>
</a>
</g>
</g>
<!-- Node2&#45;&gt;Node3 -->
<g id="edge2" class="edge">
<title>Node2&#45;&gt;Node3</title>
<path fill="none" stroke="midnightblue" d="M85.5,-184.73C85.5,-175.18 85.5,-159.62 85.5,-147.28"/>
<polygon fill="midnightblue" stroke="midnightblue" points="89,-147.13 85.5,-137.13 82,-147.13 89,-147.13"/>
</g>
<!-- Node5 -->
<g id="node5" class="node">
<title>Node5</title>
<g id="a_node5"><a xlink:title=" ">
<polygon fill="white" stroke="#bfbfbf" points="458,-0.5 458,-19.5 527,-19.5 527,-0.5 458,-0.5"/>
<text text-anchor="middle" x="492.5" y="-7.5" font-family="Helvetica,sans-Serif" font-size="10.00">Eigen/Core</text>
</a>
</g>
</g>
<!-- Node4&#45;&gt;Node5 -->
<g id="edge4" class="edge">
<title>Node4&#45;&gt;Node5</title>
<path fill="none" stroke="midnightblue" d="M492.5,-56.08C492.5,-49.01 492.5,-38.86 492.5,-29.99"/>
<polygon fill="midnightblue" stroke="midnightblue" points="496,-29.75 492.5,-19.75 489,-29.75 496,-29.75"/>
</g>
<!-- Node9 -->
<g id="node9" class="node">
<title>Node9</title>
<g id="a_node9"><a xlink:href="../../d4/dd2/decl_2alm_8hpp.html" target="_top" xlink:title=" ">
<polygon fill="white" stroke="black" points="328.5,-246.5 328.5,-265.5 462.5,-265.5 462.5,-246.5 328.5,-246.5"/>
<text text-anchor="middle" x="395.5" y="-253.5" font-family="Helvetica,sans-Serif" font-size="10.00">panoc&#45;alm/decl/alm.hpp</text>
</a>
</g>
</g>
<!-- Node8&#45;&gt;Node9 -->
<g id="edge8" class="edge">
<title>Node8&#45;&gt;Node9</title>
<path fill="none" stroke="midnightblue" d="M494.69,-302.4C473.17,-292.55 444.66,-279.5 423.73,-269.92"/>
<polygon fill="midnightblue" stroke="midnightblue" points="424.97,-266.64 414.42,-265.66 422.05,-273 424.97,-266.64"/>
</g>
<!-- Node18 -->
<g id="node18" class="node">
<title>Node18</title>
<g id="a_node18"><a xlink:title=" ">
<polygon fill="white" stroke="#bfbfbf" points="493,-246.5 493,-265.5 558,-265.5 558,-246.5 493,-246.5"/>
<text text-anchor="middle" x="525.5" y="-253.5" font-family="Helvetica,sans-Serif" font-size="10.00">stdexcept</text>
</a>
</g>
</g>
<!-- Node8&#45;&gt;Node18 -->
<g id="edge19" class="edge">
<title>Node8&#45;&gt;Node18</title>
<path fill="none" stroke="midnightblue" d="M525.5,-302.4C525.5,-294.47 525.5,-284.46 525.5,-275.86"/>
<polygon fill="midnightblue" stroke="midnightblue" points="529,-275.66 525.5,-265.66 522,-275.66 529,-275.66"/>
</g>
<!-- Node9&#45;&gt;Node2 -->
<g id="edge16" class="edge">
<title>Node9&#45;&gt;Node2</title>
<path fill="none" stroke="midnightblue" d="M351.08,-246.48C295.38,-235.78 199.9,-217.46 139.88,-205.94"/>
<polygon fill="midnightblue" stroke="midnightblue" points="140.31,-202.46 129.83,-204.01 138.99,-209.33 140.31,-202.46"/>
</g>
<!-- Node10 -->
<g id="node10" class="node">
<title>Node10</title>
<g id="a_node10"><a xlink:href="../../d4/d83/panoc-fwd_8hpp.html" target="_top" xlink:title=" ">
<polygon fill="white" stroke="black" points="490,-179.5 490,-209.5 609,-209.5 609,-179.5 490,-179.5"/>
<text text-anchor="start" x="498" y="-197.5" font-family="Helvetica,sans-Serif" font-size="10.00">panoc&#45;alm/inner/decl</text>
<text text-anchor="middle" x="549.5" y="-186.5" font-family="Helvetica,sans-Serif" font-size="10.00">/panoc&#45;fwd.hpp</text>
</a>
</g>
</g>
<!-- Node9&#45;&gt;Node10 -->
<g id="edge9" class="edge">
<title>Node9&#45;&gt;Node10</title>
<path fill="none" stroke="midnightblue" d="M417.56,-246.48C439.98,-237.81 475.36,-224.15 503.84,-213.14"/>
<polygon fill="midnightblue" stroke="midnightblue" points="505.14,-216.39 513.21,-209.52 502.62,-209.86 505.14,-216.39"/>
</g>
<!-- Node12 -->
<g id="node12" class="node">
<title>Node12</title>
<g id="a_node12"><a xlink:href="../../d5/d37/problem_8hpp.html" target="_top" xlink:title=" ">
<polygon fill="white" stroke="black" points="189.5,-185 189.5,-204 341.5,-204 341.5,-185 189.5,-185"/>
<text text-anchor="middle" x="265.5" y="-192" font-family="Helvetica,sans-Serif" font-size="10.00">panoc&#45;alm/util/problem.hpp</text>
</a>
</g>
</g>
<!-- Node9&#45;&gt;Node12 -->
<g id="edge11" class="edge">
<title>Node9&#45;&gt;Node12</title>
<path fill="none" stroke="midnightblue" d="M376.87,-246.48C355.06,-236.49 318.7,-219.85 293.48,-208.31"/>
<polygon fill="midnightblue" stroke="midnightblue" points="294.64,-204.99 284.09,-204.01 291.73,-211.35 294.64,-204.99"/>
</g>
<!-- Node16 -->
<g id="node16" class="node">
<title>Node16</title>
<g id="a_node16"><a xlink:title=" ">
<polygon fill="white" stroke="#bfbfbf" points="359.5,-185 359.5,-204 409.5,-204 409.5,-185 359.5,-185"/>
<text text-anchor="middle" x="384.5" y="-192" font-family="Helvetica,sans-Serif" font-size="10.00">chrono</text>
</a>
</g>
</g>
<!-- Node9&#45;&gt;Node16 -->
<g id="edge17" class="edge">
<title>Node9&#45;&gt;Node16</title>
<path fill="none" stroke="midnightblue" d="M393.92,-246.48C392.37,-238.08 389.95,-224.98 387.95,-214.16"/>
<polygon fill="midnightblue" stroke="midnightblue" points="391.33,-213.21 386.07,-204.01 384.45,-214.48 391.33,-213.21"/>
</g>
<!-- Node17 -->
<g id="node17" class="node">
<title>Node17</title>
<g id="a_node17"><a xlink:title=" ">
<polygon fill="white" stroke="#bfbfbf" points="427.5,-185 427.5,-204 471.5,-204 471.5,-185 427.5,-185"/>
<text text-anchor="middle" x="449.5" y="-192" font-family="Helvetica,sans-Serif" font-size="10.00">string</text>
</a>
</g>
</g>
<!-- Node9&#45;&gt;Node17 -->
<g id="edge18" class="edge">
<title>Node9&#45;&gt;Node17</title>
<path fill="none" stroke="midnightblue" d="M403.24,-246.48C411.5,-237.37 424.78,-222.74 434.99,-211.48"/>
<polygon fill="midnightblue" stroke="midnightblue" points="437.65,-213.77 441.78,-204.01 432.47,-209.06 437.65,-213.77"/>
</g>
<!-- Node11 -->
<g id="node11" class="node">
<title>Node11</title>
<g id="a_node11"><a xlink:href="../../d4/d5e/lbfgs-fwd_8hpp.html" target="_top" xlink:title=" ">
<polygon fill="white" stroke="black" points="462,-112.5 462,-142.5 609,-142.5 609,-112.5 462,-112.5"/>
<text text-anchor="start" x="470" y="-130.5" font-family="Helvetica,sans-Serif" font-size="10.00">panoc&#45;alm/inner/directions</text>
<text text-anchor="middle" x="535.5" y="-119.5" font-family="Helvetica,sans-Serif" font-size="10.00">/decl/lbfgs&#45;fwd.hpp</text>
</a>
</g>
</g>
<!-- Node10&#45;&gt;Node11 -->
<g id="edge10" class="edge">
<title>Node10&#45;&gt;Node11</title>
<path fill="none" stroke="midnightblue" d="M546.46,-179.4C544.77,-171.56 542.63,-161.6 540.68,-152.57"/>
<polygon fill="midnightblue" stroke="midnightblue" points="544.06,-151.62 538.53,-142.58 537.22,-153.09 544.06,-151.62"/>
</g>
<!-- Node13 -->
<g id="node13" class="node">
<title>Node13</title>
<g id="a_node13"><a xlink:href="../../d7/de4/box_8hpp.html" target="_top" xlink:title=" ">
<polygon fill="white" stroke="black" points="353.5,-118 353.5,-137 409.5,-137 409.5,-118 353.5,-118"/>
<text text-anchor="middle" x="381.5" y="-125" font-family="Helvetica,sans-Serif" font-size="10.00">box.hpp</text>
</a>
</g>
</g>
<!-- Node12&#45;&gt;Node13 -->
<g id="edge12" class="edge">
<title>Node12&#45;&gt;Node13</title>
<path fill="none" stroke="midnightblue" d="M281.14,-184.73C300.71,-173.77 334.42,-154.88 357.32,-142.05"/>
<polygon fill="midnightblue" stroke="midnightblue" points="359.09,-145.07 366.1,-137.13 355.67,-138.96 359.09,-145.07"/>
</g>
<!-- Node14 -->
<g id="node14" class="node">
<title>Node14</title>
<g id="a_node14"><a xlink:title=" ">
<polygon fill="white" stroke="#bfbfbf" points="165,-118 165,-137 230,-137 230,-118 165,-118"/>
<text text-anchor="middle" x="197.5" y="-125" font-family="Helvetica,sans-Serif" font-size="10.00">functional</text>
</a>
</g>
</g>
<!-- Node12&#45;&gt;Node14 -->
<g id="edge14" class="edge">
<title>Node12&#45;&gt;Node14</title>
<path fill="none" stroke="midnightblue" d="M256.33,-184.73C245.52,-174.4 227.35,-157.04 214.06,-144.33"/>
<polygon fill="midnightblue" stroke="midnightblue" points="216.17,-141.51 206.53,-137.13 211.34,-146.57 216.17,-141.51"/>
</g>
<!-- Node15 -->
<g id="node15" class="node">
<title>Node15</title>
<g id="a_node15"><a xlink:title=" ">
<polygon fill="white" stroke="#bfbfbf" points="248,-118 248,-137 317,-137 317,-118 248,-118"/>
<text text-anchor="middle" x="282.5" y="-125" font-family="Helvetica,sans-Serif" font-size="10.00">type_traits</text>
</a>
</g>
</g>
<!-- Node12&#45;&gt;Node15 -->
<g id="edge15" class="edge">
<title>Node12&#45;&gt;Node15</title>
<path fill="none" stroke="midnightblue" d="M267.79,-184.73C270.32,-175.09 274.44,-159.3 277.69,-146.91"/>
<polygon fill="midnightblue" stroke="midnightblue" points="281.1,-147.69 280.24,-137.13 274.33,-145.92 281.1,-147.69"/>
</g>
<!-- Node13&#45;&gt;Node4 -->
<g id="edge13" class="edge">
<title>Node13&#45;&gt;Node4</title>
<path fill="none" stroke="midnightblue" d="M397.4,-117.98C415.78,-108.12 446.26,-91.79 467.74,-80.27"/>
<polygon fill="midnightblue" stroke="midnightblue" points="469.47,-83.32 476.63,-75.51 466.16,-77.15 469.47,-83.32"/>
</g>
</g>
</svg>
