<?xml version="1.0" encoding="UTF-8" standalone="no"?>
<!DOCTYPE svg PUBLIC "-//W3C//DTD SVG 1.1//EN"
 "http://www.w3.org/Graphics/SVG/1.1/DTD/svg11.dtd">
<!-- Generated by graphviz version 2.43.0 (0)
 -->
<!-- Title: riskaverse&#45;mpc.cpp Pages: 1 -->
<svg width="264pt" height="330pt"
 viewBox="0.00 0.00 263.50 330.00" xmlns="http://www.w3.org/2000/svg" xmlns:xlink="http://www.w3.org/1999/xlink">
<g id="graph0" class="graph" transform="scale(1 1) rotate(0) translate(4 326)">
<title>riskaverse&#45;mpc.cpp</title>
<polygon fill="white" stroke="transparent" points="-4,4 -4,-326 259.5,-326 259.5,4 -4,4"/>
<!-- Node1 -->
<g id="node1" class="node">
<title>Node1</title>
<g id="a_node1"><a xlink:title=" ">
<polygon fill="#bfbfbf" stroke="black" points="26,-302.5 26,-321.5 138,-321.5 138,-302.5 26,-302.5"/>
<text text-anchor="middle" x="82" y="-309.5" font-family="Helvetica,sans-Serif" font-size="10.00">riskaverse&#45;mpc.cpp</text>
</a>
</g>
</g>
<!-- Node2 -->
<g id="node2" class="node">
<title>Node2</title>
<g id="a_node2"><a xlink:title=" ">
<polygon fill="white" stroke="#bfbfbf" points="0,-235.5 0,-254.5 58,-254.5 58,-235.5 0,-235.5"/>
<text text-anchor="middle" x="29" y="-242.5" font-family="Helvetica,sans-Serif" font-size="10.00">memory</text>
</a>
</g>
</g>
<!-- Node1&#45;&gt;Node2 -->
<g id="edge1" class="edge">
<title>Node1&#45;&gt;Node2</title>
<path fill="none" stroke="midnightblue" d="M74.85,-302.23C66.59,-292.1 52.8,-275.19 42.5,-262.56"/>
<polygon fill="midnightblue" stroke="midnightblue" points="45.07,-260.17 36.03,-254.63 39.64,-264.59 45.07,-260.17"/>
</g>
<!-- Node3 -->
<g id="node3" class="node">
<title>Node3</title>
<g id="a_node3"><a xlink:href="../../de/db7/riskaverse-mpc_8hpp.html" target="_top" xlink:title=" ">
<polygon fill="white" stroke="black" points="76.5,-224.5 76.5,-265.5 195.5,-265.5 195.5,-224.5 76.5,-224.5"/>
<text text-anchor="start" x="84.5" y="-253.5" font-family="Helvetica,sans-Serif" font-size="10.00">panoc&#45;alm/reference</text>
<text text-anchor="start" x="84.5" y="-242.5" font-family="Helvetica,sans-Serif" font-size="10.00">&#45;problems/riskaverse</text>
<text text-anchor="middle" x="136" y="-231.5" font-family="Helvetica,sans-Serif" font-size="10.00">&#45;mpc.hpp</text>
</a>
</g>
</g>
<!-- Node1&#45;&gt;Node3 -->
<g id="edge2" class="edge">
<title>Node1&#45;&gt;Node3</title>
<path fill="none" stroke="midnightblue" d="M89.28,-302.23C95.48,-294.78 104.71,-283.66 113.34,-273.27"/>
<polygon fill="midnightblue" stroke="midnightblue" points="116.07,-275.47 119.77,-265.54 110.68,-271 116.07,-275.47"/>
</g>
<!-- Node4 -->
<g id="node4" class="node">
<title>Node4</title>
<g id="a_node4"><a xlink:href="../../d5/d37/problem_8hpp.html" target="_top" xlink:title=" ">
<polygon fill="white" stroke="black" points="60,-168.5 60,-187.5 212,-187.5 212,-168.5 60,-168.5"/>
<text text-anchor="middle" x="136" y="-175.5" font-family="Helvetica,sans-Serif" font-size="10.00">panoc&#45;alm/util/problem.hpp</text>
</a>
</g>
</g>
<!-- Node3&#45;&gt;Node4 -->
<g id="edge3" class="edge">
<title>Node3&#45;&gt;Node4</title>
<path fill="none" stroke="midnightblue" d="M136,-224.5C136,-216.07 136,-206.24 136,-197.87"/>
<polygon fill="midnightblue" stroke="midnightblue" points="139.5,-197.65 136,-187.65 132.5,-197.65 139.5,-197.65"/>
</g>
<!-- Node5 -->
<g id="node5" class="node">
<title>Node5</title>
<g id="a_node5"><a xlink:href="../../d7/de4/box_8hpp.html" target="_top" xlink:title=" ">
<polygon fill="white" stroke="black" points="29,-112.5 29,-131.5 85,-131.5 85,-112.5 29,-112.5"/>
<text text-anchor="middle" x="57" y="-119.5" font-family="Helvetica,sans-Serif" font-size="10.00">box.hpp</text>
</a>
</g>
</g>
<!-- Node4&#45;&gt;Node5 -->
<g id="edge4" class="edge">
<title>Node4&#45;&gt;Node5</title>
<path fill="none" stroke="midnightblue" d="M123.31,-168.32C111.1,-159.98 92.42,-147.21 78,-137.35"/>
<polygon fill="midnightblue" stroke="midnightblue" points="79.89,-134.41 69.66,-131.65 75.94,-140.19 79.89,-134.41"/>
</g>
<!-- Node8 -->
<g id="node8" class="node">
<title>Node8</title>
<g id="a_node8"><a xlink:title=" ">
<polygon fill="white" stroke="#bfbfbf" points="103.5,-112.5 103.5,-131.5 168.5,-131.5 168.5,-112.5 103.5,-112.5"/>
<text text-anchor="middle" x="136" y="-119.5" font-family="Helvetica,sans-Serif" font-size="10.00">functional</text>
</a>
</g>
</g>
<!-- Node4&#45;&gt;Node8 -->
<g id="edge7" class="edge">
<title>Node4&#45;&gt;Node8</title>
<path fill="none" stroke="midnightblue" d="M136,-168.08C136,-161.01 136,-150.86 136,-141.99"/>
<polygon fill="midnightblue" stroke="midnightblue" points="139.5,-141.75 136,-131.75 132.5,-141.75 139.5,-141.75"/>
</g>
<!-- Node9 -->
<g id="node9" class="node">
<title>Node9</title>
<g id="a_node9"><a xlink:title=" ">
<polygon fill="white" stroke="#bfbfbf" points="186.5,-112.5 186.5,-131.5 255.5,-131.5 255.5,-112.5 186.5,-112.5"/>
<text text-anchor="middle" x="221" y="-119.5" font-family="Helvetica,sans-Serif" font-size="10.00">type_traits</text>
</a>
</g>
</g>
<!-- Node4&#45;&gt;Node9 -->
<g id="edge8" class="edge">
<title>Node4&#45;&gt;Node9</title>
<path fill="none" stroke="midnightblue" d="M149.66,-168.32C162.92,-159.9 183.27,-146.97 198.85,-137.07"/>
<polygon fill="midnightblue" stroke="midnightblue" points="200.81,-139.97 207.38,-131.65 197.06,-134.06 200.81,-139.97"/>
</g>
<!-- Node6 -->
<g id="node6" class="node">
<title>Node6</title>
<g id="a_node6"><a xlink:href="../../d7/d7c/vec_8hpp.html" target="_top" xlink:title=" ">
<polygon fill="white" stroke="black" points="29.5,-56.5 29.5,-75.5 84.5,-75.5 84.5,-56.5 29.5,-56.5"/>
<text text-anchor="middle" x="57" y="-63.5" font-family="Helvetica,sans-Serif" font-size="10.00">vec.hpp</text>
</a>
</g>
</g>
<!-- Node5&#45;&gt;Node6 -->
<g id="edge5" class="edge">
<title>Node5&#45;&gt;Node6</title>
<path fill="none" stroke="midnightblue" d="M57,-112.08C57,-105.01 57,-94.86 57,-85.99"/>
<polygon fill="midnightblue" stroke="midnightblue" points="60.5,-85.75 57,-75.75 53.5,-85.75 60.5,-85.75"/>
</g>
<!-- Node7 -->
<g id="node7" class="node">
<title>Node7</title>
<g id="a_node7"><a xlink:title=" ">
<polygon fill="white" stroke="#bfbfbf" points="22.5,-0.5 22.5,-19.5 91.5,-19.5 91.5,-0.5 22.5,-0.5"/>
<text text-anchor="middle" x="57" y="-7.5" font-family="Helvetica,sans-Serif" font-size="10.00">Eigen/Core</text>
</a>
</g>
</g>
<!-- Node6&#45;&gt;Node7 -->
<g id="edge6" class="edge">
<title>Node6&#45;&gt;Node7</title>
<path fill="none" stroke="midnightblue" d="M57,-56.08C57,-49.01 57,-38.86 57,-29.99"/>
<polygon fill="midnightblue" stroke="midnightblue" points="60.5,-29.75 57,-19.75 53.5,-29.75 60.5,-29.75"/>
</g>
</g>
</svg>
